P2
80 60
658
214 212 218 226 218 212 216 222 234 226 222 224 226 212 228 214 224 216 204 188 188 180 208 192 176 188 182 166 162 172 178 180 182 186 190 202 202 194 166 158 146 152 148 162 164 182 176 186 182 198 190 200 188 196 192 188 210 198 196 192 192 180 186 200 196 190 194 182 194 198 206 184 188 174 168 176 168 186 204 198 
224 208 194 212 222 212 218 208 226 220 228 214 220 212 208 212 226 202 200 196 206 178 188 182 178 168 172 178 158 180 170 190 182 184 186 208 202 186 160 164 146 150 166 154 170 170 182 178 178 198 204 194 194 196 210 198 206 208 206 190 188 200 198 184 176 198 198 194 188 200 202 190 170 176 172 158 162 172 184 186 
208 202 216 196 226 204 216 210 222 228 208 212 220 214 218 216 214 200 200 196 198 184 190 176 196 176 182 168 172 166 176 174 194 194 200 208 202 200 176 174 162 162 168 174 186 186 186 194 192 212 210 202 210 196 204 196 208 222 198 208 206 190 200 184 184 194 206 202 210 204 204 202 198 174 174 174 190 176 180 172 
210 200 202 204 208 210 222 222 214 224 212 220 232 202 208 204 204 196 206 202 204 208 184 194 194 190 182 184 196 196 206 200 196 198 204 218 228 204 190 184 158 172 176 182 174 182 194 200 202 208 208 200 220 206 214 202 226 224 202 208 198 200 190 194 204 204 206 208 212 200 224 208 190 184 174 172 182 200 180 184 
204 196 214 216 218 222 226 226 216 216 212 222 222 218 218 214 208 216 204 204 192 180 190 204 212 186 176 186 188 204 206 210 194 206 216 226 210 218 200 188 172 174 172 190 194 202 190 208 212 216 214 224 216 218 208 222 212 204 204 216 192 194 200 208 188 208 210 210 218 216 228 206 196 202 170 176 170 184 206 196 
204 194 212 224 224 220 216 224 224 216 218 238 220 220 228 216 214 206 208 202 204 190 200 202 202 208 188 196 194 202 202 202 204 212 214 232 220 228 190 190 180 180 186 184 196 202 200 210 206 218 222 216 216 228 218 222 216 204 208 218 202 184 194 212 198 200 212 218 216 216 216 216 218 198 192 190 194 190 190 184 
198 190 226 204 222 230 214 214 232 234 228 224 230 218 220 214 226 222 212 210 206 198 204 198 212 206 190 198 196 208 194 222 226 210 232 228 236 240 214 206 184 180 190 194 198 202 194 214 206 214 232 216 224 226 218 218 212 220 202 212 194 214 212 206 206 212 214 216 228 214 212 222 198 202 202 204 204 194 196 194 
218 196 202 220 214 222 220 238 238 230 216 226 226 230 214 228 212 214 222 210 218 206 208 212 206 206 200 204 192 206 206 216 224 234 238 236 238 230 216 208 178 198 202 202 196 198 212 216 218 236 238 244 232 228 218 218 226 228 220 204 218 206 214 200 204 214 204 214 220 216 230 228 220 196 210 208 198 190 208 196 
210 200 204 216 208 222 230 228 234 232 234 226 236 228 224 222 214 222 214 218 216 200 214 210 204 204 208 198 184 214 218 214 224 238 244 254 242 222 222 206 188 200 200 198 210 220 214 224 224 236 238 224 232 228 222 216 222 214 220 224 210 200 206 204 204 214 206 220 204 226 236 222 220 200 194 198 200 206 212 194 
220 208 216 218 224 216 218 224 216 242 230 232 242 218 234 230 232 224 218 218 232 208 214 212 212 204 206 204 196 220 220 226 228 232 254 254 254 236 226 218 196 200 194 200 210 222 212 234 228 232 236 220 228 222 210 218 226 228 216 212 204 206 208 196 196 220 228 218 236 222 224 232 232 214 186 212 190 204 208 204 
202 202 218 230 214 228 216 224 228 218 214 242 220 214 238 240 224 212 216 230 216 220 210 216 216 202 204 188 198 212 224 218 234 224 240 268 266 254 230 234 234 224 202 212 214 214 210 228 224 232 234 224 218 222 220 214 222 220 208 228 214 200 200 202 196 208 214 236 222 210 220 230 240 208 198 206 200 208 198 196 
230 202 226 210 224 216 228 234 220 226 230 244 246 222 228 226 232 218 220 218 218 222 214 234 204 210 202 194 206 216 236 230 236 248 254 326 336 338 376 443 450 383 252 238 230 232 224 234 232 224 238 230 226 220 226 206 216 234 210 220 214 206 210 208 208 206 206 224 228 234 236 244 234 220 220 214 212 210 200 196 
210 204 214 214 228 222 230 226 234 216 218 230 224 252 226 220 232 226 214 208 222 216 208 218 210 198 214 202 204 230 220 222 232 268 328 380 401 524 534 565 550 503 312 256 264 240 228 236 234 236 248 222 218 230 220 226 226 230 214 208 214 200 206 198 194 208 214 234 248 222 224 232 240 226 210 206 204 214 214 198 
230 216 208 212 214 210 226 216 226 222 222 218 216 232 214 206 214 220 224 228 210 214 202 216 202 194 198 204 200 218 218 252 268 354 407 387 405 548 559 590 594 557 413 310 330 296 248 238 242 238 250 236 236 240 234 240 238 234 228 236 228 234 216 202 220 214 218 234 246 242 236 230 238 222 210 212 198 200 210 206 
222 222 214 216 234 216 226 218 228 218 230 218 216 216 214 218 228 214 218 204 208 206 212 216 202 200 214 216 214 226 260 318 456 450 444 437 431 509 563 565 592 565 490 342 336 334 286 272 256 264 268 274 264 250 250 236 220 230 254 282 266 272 258 252 238 230 220 230 242 256 258 250 246 238 222 222 218 208 218 226 
212 220 224 212 204 220 208 214 222 222 222 214 216 218 216 226 208 224 216 214 224 212 216 212 194 208 214 226 216 244 328 474 444 364 378 399 419 456 460 490 563 577 509 380 338 332 316 324 262 240 252 280 272 256 262 238 212 212 248 270 266 286 282 254 260 242 240 252 272 272 276 286 298 288 268 240 234 238 220 230 
224 204 222 206 224 220 224 218 220 224 226 220 238 236 224 232 226 218 220 204 212 212 200 222 214 218 228 238 254 310 466 443 366 282 240 324 356 368 370 395 522 552 517 391 324 348 316 300 260 232 226 250 282 278 278 244 262 298 320 334 322 318 310 282 274 270 258 286 336 346 372 397 427 443 425 381 320 282 260 226 
208 214 228 212 222 212 224 210 224 234 220 222 238 238 228 220 236 230 222 222 238 216 222 236 236 236 232 236 260 409 548 497 441 419 407 395 362 372 376 403 466 521 505 413 330 344 300 280 268 232 216 226 298 310 302 310 338 362 358 368 372 350 340 316 316 320 328 312 360 395 397 413 443 472 476 474 464 439 387 328 
226 228 216 216 226 222 236 230 236 228 238 232 236 240 230 238 236 236 228 228 226 228 230 234 236 240 226 228 270 439 538 521 476 448 470 443 391 346 346 409 456 493 507 407 334 340 336 324 278 238 218 224 282 304 316 312 346 370 360 374 376 395 385 362 346 364 358 364 372 387 397 405 429 460 466 446 468 462 470 425 
228 226 216 212 222 222 228 224 226 230 238 230 224 224 236 240 228 228 226 218 244 228 224 236 250 234 248 250 248 395 499 517 484 495 470 421 340 256 292 376 446 476 474 389 320 352 360 338 290 244 252 224 274 286 326 338 336 342 336 356 346 364 395 393 376 378 381 383 385 397 401 419 433 446 458 441 450 446 452 425 
222 226 212 232 226 220 218 240 224 220 236 228 228 226 228 230 230 236 224 224 236 226 242 238 252 248 240 248 274 423 488 521 515 495 462 387 236 174 200 342 383 393 380 358 306 332 354 330 290 240 240 228 260 296 340 352 338 336 348 362 366 380 389 391 393 380 407 407 399 393 376 391 391 419 401 395 401 401 423 431 
228 222 232 212 232 226 224 216 230 230 208 232 232 224 238 240 230 226 242 238 234 242 240 248 266 266 258 266 278 456 456 532 511 466 419 352 224 172 216 340 389 411 364 360 318 344 346 314 286 140 152 238 260 280 342 352 344 352 374 368 366 380 383 399 403 391 401 391 364 354 324 292 284 294 300 306 310 308 322 328 
222 210 212 234 222 218 228 224 230 230 236 232 234 236 222 224 236 228 236 236 240 260 284 314 391 472 397 387 482 538 415 497 517 444 399 332 222 192 210 344 383 401 405 387 352 364 362 348 284 188 150 188 238 304 336 346 368 362 350 370 366 380 393 405 411 409 401 395 413 411 385 380 380 380 399 405 409 399 401 364 
206 212 210 208 224 218 214 226 228 230 240 224 230 234 246 228 224 238 226 254 280 346 409 476 565 600 583 569 612 567 407 421 519 452 407 342 230 178 196 308 385 415 421 409 358 395 391 381 308 250 202 61 126 256 310 338 342 356 364 378 370 391 397 397 391 385 421 395 407 419 419 413 421 421 433 468 454 454 466 425 
218 216 230 218 222 224 222 234 234 256 228 238 222 234 226 242 242 236 242 266 332 419 495 600 592 565 596 557 602 592 490 501 577 517 446 411 340 250 208 262 397 435 443 439 344 378 399 364 308 268 228 54 12 182 304 324 350 368 364 362 393 389 381 383 380 391 415 407 407 417 411 425 444 439 460 480 472 462 454 427 
208 206 232 220 224 228 220 218 242 246 222 228 230 232 236 220 230 238 230 298 421 501 594 615 583 478 552 563 608 610 536 550 579 536 493 472 437 409 328 268 340 413 448 450 389 413 393 354 316 284 246 180 140 178 294 314 350 358 356 350 360 356 356 348 362 366 366 378 393 425 423 439 450 466 486 472 448 433 429 374 
206 214 224 218 212 218 222 220 224 220 226 230 222 220 228 220 232 242 242 280 421 528 594 623 610 584 577 567 581 614 555 567 538 495 515 495 482 456 383 306 260 336 446 468 437 411 409 358 322 320 278 236 242 282 304 304 290 306 306 308 310 304 308 326 346 338 326 340 362 381 405 413 429 444 439 401 356 324 298 252 
216 226 208 228 212 216 222 234 226 224 236 226 212 242 222 218 214 216 224 254 360 495 497 579 602 629 575 526 443 360 417 511 466 480 491 503 468 458 405 389 326 306 423 495 480 415 403 385 332 314 310 286 282 290 274 264 234 212 232 266 252 254 296 294 310 318 300 306 294 296 298 286 306 290 278 250 256 244 254 230 
218 212 216 216 224 212 214 210 214 220 230 226 216 224 226 224 230 234 222 242 280 383 401 417 478 519 435 320 250 260 290 490 488 448 433 427 389 376 360 401 393 385 435 513 513 476 378 362 314 322 314 288 258 258 202 154 244 248 198 234 242 246 258 278 290 286 286 290 272 276 274 256 252 230 222 238 228 234 230 224 
224 200 216 206 224 220 216 220 230 232 218 220 212 220 218 218 224 214 216 218 236 268 280 262 280 268 244 226 214 244 254 450 536 497 374 304 180 242 334 446 441 364 462 517 561 536 342 298 286 286 300 272 248 222 194 216 232 244 234 232 232 248 248 268 276 274 284 282 294 256 266 270 242 228 196 228 222 218 226 210 
214 214 230 206 222 220 224 232 214 228 206 222 224 224 228 226 232 230 222 222 234 236 222 230 238 228 228 218 226 240 260 352 528 534 336 117 0 192 350 354 491 499 507 553 583 561 368 294 274 272 272 260 276 260 244 254 252 242 242 232 232 228 248 278 302 306 290 310 294 270 268 248 242 220 210 216 218 210 218 210 
212 226 226 224 234 222 228 242 224 230 220 216 232 226 216 228 228 226 230 228 224 228 226 246 250 226 232 222 230 254 258 284 395 519 415 288 206 354 332 310 456 538 550 584 598 577 393 290 276 258 260 262 262 270 260 256 252 244 228 230 232 220 256 266 298 310 300 314 304 282 282 252 234 220 208 216 220 206 214 202 
202 214 224 214 222 226 220 218 224 234 224 224 230 234 232 226 218 224 228 218 230 230 232 244 230 236 236 230 222 248 252 280 310 391 452 507 452 415 419 399 528 540 546 590 604 550 366 266 254 262 258 264 274 264 258 252 246 240 226 232 230 232 254 278 310 298 302 300 298 282 258 266 238 224 206 212 216 228 214 216 
208 232 220 216 216 234 228 230 234 218 232 226 238 232 226 226 240 232 238 224 232 234 234 236 242 234 250 228 274 308 381 439 458 482 488 488 462 462 491 470 491 493 480 458 429 354 268 260 256 272 270 270 280 278 274 248 264 258 238 236 236 248 262 280 300 312 298 306 292 294 284 256 248 218 218 218 228 212 206 210 
212 220 204 216 230 222 222 232 224 224 230 236 228 226 240 234 214 238 232 224 238 222 238 242 252 252 244 270 374 437 472 484 472 470 488 499 488 490 555 524 528 517 484 403 290 256 238 250 258 270 270 270 280 264 268 264 248 248 234 248 244 234 252 284 304 302 298 298 306 280 282 264 252 242 210 218 210 222 218 216 
198 226 208 222 232 222 224 226 236 228 236 238 224 244 232 232 246 238 232 222 238 228 230 246 252 252 258 330 456 446 458 476 474 486 499 503 488 513 536 534 513 524 526 493 413 290 258 260 260 270 264 268 276 274 266 270 266 252 256 282 260 262 260 276 276 290 278 292 302 290 292 280 254 220 210 218 224 210 230 206 
216 204 204 212 220 220 230 232 230 230 228 228 226 236 248 238 248 232 232 222 248 218 236 250 258 258 274 417 466 466 466 444 464 480 486 511 499 513 526 522 517 528 534 530 517 439 346 328 312 312 286 288 290 292 272 278 256 266 282 294 280 296 286 284 268 282 274 296 294 292 284 280 260 232 214 206 204 210 210 208 
226 208 214 224 216 220 228 232 222 228 232 236 224 232 234 250 246 258 246 238 244 234 238 258 258 258 334 446 456 454 446 435 427 423 437 476 478 476 509 507 499 517 513 536 534 509 458 348 322 318 312 310 308 306 298 288 280 288 324 316 320 318 300 294 278 274 268 284 286 280 268 266 222 188 180 164 180 198 206 196 
218 216 206 214 218 224 228 226 226 228 222 234 240 242 258 296 370 415 401 348 336 306 252 268 260 312 417 468 454 464 444 446 425 409 397 401 374 399 405 417 425 454 482 511 532 526 482 448 368 352 338 334 328 340 340 334 330 346 338 326 314 320 304 304 276 278 268 264 274 274 278 274 216 184 168 124 152 180 208 194 
222 226 218 212 214 220 214 220 238 232 228 234 228 246 290 395 573 596 596 604 575 548 407 312 284 380 505 482 466 472 458 454 435 417 381 342 334 340 326 338 350 385 421 464 499 515 503 486 441 370 362 368 376 378 374 374 381 368 352 278 238 338 328 312 290 258 286 306 304 312 348 352 376 364 314 252 212 184 208 196 
212 226 226 230 214 222 224 230 234 232 228 232 236 262 372 536 641 625 633 637 592 608 588 542 480 538 534 486 472 474 454 437 433 415 338 322 320 312 308 316 306 338 356 401 458 488 497 480 472 423 395 397 395 417 393 391 395 370 348 268 180 340 332 318 294 282 294 330 276 320 368 391 427 441 454 429 391 336 278 198 
204 210 230 204 218 212 210 228 230 234 220 228 238 248 411 577 633 645 658 658 598 532 542 561 579 565 552 495 456 450 452 454 425 374 316 304 300 304 314 308 302 314 328 362 395 450 454 478 470 443 409 397 415 411 403 405 391 376 360 360 314 342 354 334 310 292 288 286 282 290 360 385 421 433 456 470 456 429 435 364 
212 214 212 212 212 222 226 218 234 236 220 234 236 264 395 571 596 639 646 652 579 415 488 532 573 575 553 470 439 435 415 419 407 356 290 294 288 330 326 318 304 316 324 342 378 389 413 443 464 441 450 421 419 441 409 389 385 391 395 385 356 354 352 350 332 348 318 288 288 312 352 389 409 443 464 472 452 437 443 435 
212 214 208 220 196 224 230 224 224 212 224 222 224 236 330 522 588 614 633 643 573 433 484 507 548 548 524 439 423 415 389 383 354 332 274 268 274 324 332 342 326 336 336 346 352 348 380 419 435 452 462 437 421 431 413 399 399 415 405 401 391 366 372 374 364 401 354 324 312 320 364 378 409 429 458 456 437 429 427 387 
216 216 210 222 220 222 226 220 220 222 230 230 234 242 282 411 557 561 604 608 569 553 521 552 553 546 517 421 397 378 350 364 338 308 264 246 280 340 330 366 348 346 362 358 352 338 356 391 423 443 458 433 446 429 427 389 413 405 387 395 389 397 385 378 381 378 360 330 314 304 322 338 387 403 443 429 433 423 403 368 
204 230 236 218 220 230 218 226 226 222 232 222 224 240 250 282 356 399 427 482 507 495 443 380 405 521 488 423 391 372 346 342 326 290 222 214 266 328 364 368 354 356 362 352 348 346 346 372 413 444 466 462 462 466 444 425 387 372 342 346 362 336 334 322 292 286 276 280 274 282 290 332 421 403 413 407 413 399 427 399 
184 198 204 210 228 224 228 226 238 222 228 228 232 238 234 248 264 248 256 274 274 268 270 246 288 444 480 446 407 407 385 391 332 258 180 200 254 346 374 381 362 366 348 340 344 336 332 366 405 443 454 452 468 468 450 441 417 393 344 332 334 310 280 252 248 252 258 254 288 312 364 409 425 427 421 437 462 439 437 429 
204 200 220 218 222 218 232 238 228 242 242 228 228 228 232 240 238 224 238 234 242 230 244 242 256 380 497 472 446 439 427 381 354 268 172 174 230 324 372 378 370 360 336 342 334 342 338 366 397 476 470 464 478 466 443 407 391 360 348 342 346 358 344 320 320 294 292 312 334 354 387 413 435 425 439 462 464 446 456 415 
200 206 216 228 218 226 226 228 244 246 238 220 236 232 228 240 220 220 228 232 220 230 228 230 246 310 480 472 439 433 433 423 381 290 202 206 244 324 374 381 374 364 342 334 346 358 352 372 411 468 470 484 484 452 389 395 381 370 350 352 354 344 354 356 328 330 340 328 348 362 370 405 425 417 435 468 464 439 378 310 
222 208 208 220 220 220 228 220 228 234 238 228 232 246 234 228 232 224 226 220 228 226 208 222 234 286 456 466 454 415 393 421 393 334 260 222 258 324 350 362 383 362 358 364 372 383 403 441 441 464 464 466 472 433 391 378 370 368 366 354 342 350 346 356 322 338 330 324 322 332 364 405 427 423 429 448 401 350 282 254 
206 200 214 224 220 210 230 234 220 232 230 232 226 230 228 222 226 226 232 220 228 226 228 216 222 266 421 484 431 417 397 405 405 385 376 342 348 399 399 409 401 421 425 444 474 482 466 468 452 439 444 433 443 417 397 380 374 378 378 362 352 362 348 370 332 328 304 306 294 314 354 387 421 425 409 358 280 254 248 234 
202 206 220 216 220 228 218 220 228 240 222 222 220 224 234 240 224 230 222 216 218 210 212 222 210 248 360 452 446 431 433 429 444 435 431 443 472 495 488 462 460 482 495 509 505 493 462 435 421 407 407 415 415 403 409 380 383 387 385 378 350 370 378 368 334 318 286 264 286 300 334 362 391 342 306 260 244 238 234 236 
208 214 204 196 206 236 228 222 224 232 234 224 238 234 228 228 226 220 226 214 216 212 224 200 212 220 280 391 446 446 446 446 448 454 458 486 536 538 532 519 513 528 532 555 519 488 427 391 362 360 383 385 395 409 401 374 368 368 391 381 364 364 366 362 322 304 264 260 256 278 304 302 280 236 236 212 228 230 230 222 
204 208 216 222 214 214 208 218 212 220 222 210 230 236 220 220 218 202 214 210 208 214 206 218 214 204 216 244 320 401 419 441 448 450 454 499 561 550 528 521 522 548 526 511 456 362 306 286 288 312 354 358 368 372 380 381 385 370 397 393 364 352 366 312 298 272 236 238 240 252 260 234 232 206 224 234 230 220 232 216 
204 214 204 204 208 220 204 220 208 218 214 224 214 216 226 208 226 210 200 204 210 214 194 210 200 214 200 198 216 246 272 332 366 401 425 444 526 534 517 490 491 478 397 320 268 238 220 226 230 250 264 274 294 312 312 326 334 338 352 385 354 346 300 264 240 238 220 218 212 222 220 210 212 212 214 222 222 234 226 214 
208 198 206 212 202 210 206 218 200 210 206 214 206 206 214 214 206 208 208 200 212 188 198 204 206 182 202 190 188 200 220 228 242 262 296 334 360 356 362 354 304 292 224 218 212 212 210 204 216 216 222 232 220 224 232 230 232 228 244 252 234 242 224 216 190 216 210 218 212 204 222 194 204 208 202 220 208 216 228 236 
196 208 210 206 206 186 204 210 206 208 210 208 204 208 208 226 202 192 188 190 186 200 200 198 198 186 186 172 172 182 202 206 202 198 218 238 232 226 222 198 192 204 186 188 194 200 200 200 202 216 220 218 210 204 200 198 206 210 218 208 200 188 198 196 186 200 182 208 200 184 212 182 194 194 204 202 226 208 216 212 
180 184 196 192 206 198 190 192 196 192 198 192 194 196 224 214 194 192 196 198 182 178 182 176 182 178 172 160 176 192 180 188 184 198 206 208 188 196 172 162 144 162 156 182 182 178 190 194 190 196 194 200 186 200 190 198 198 216 184 196 178 180 172 196 162 174 178 196 188 176 182 164 162 188 210 184 206 208 206 214 
186 192 178 182 178 190 204 178 188 196 194 194 202 202 192 180 196 196 190 184 182 184 178 192 182 186 160 164 164 174 186 178 196 184 194 204 200 168 166 162 150 148 154 164 164 162 186 182 174 184 182 196 188 200 186 182 192 190 184 176 186 184 166 164 158 172 172 170 176 172 180 166 158 186 198 204 208 208 216 204 
200 200 184 188 182 194 200 200 206 202 194 186 200 182 194 192 198 174 182 180 170 180 176 184 180 168 164 144 152 176 180 186 190 206 188 216 212 208 172 180 166 170 180 182 198 198 206 212 202 200 204 204 208 204 202 214 188 192 186 174 182 168 172 174 164 162 154 182 168 156 166 164 160 160 170 190 194 202 208 230 


