P2
80 60
859
273 279 265 287 271 277 271 255 257 253 267 265 257 259 241 243 255 231 247 243 223 233 231 247 227 235 227 231 217 227 223 215 215 219 221 225 231 217 231 231 227 235 223 219 235 223 221 223 229 233 233 239 253 235 255 267 267 251 257 281 283 267 271 269 251 247 249 255 251 243 237 227 237 231 241 241 247 299 399 589 
267 269 279 267 263 267 261 253 235 249 285 261 255 257 257 251 239 239 223 231 231 231 243 227 227 225 223 231 205 221 209 219 225 203 209 229 225 235 227 233 227 223 221 219 229 221 223 219 235 233 241 261 281 287 291 293 289 267 281 293 281 289 293 269 267 247 259 261 259 267 243 233 247 245 257 271 283 371 540 620 
263 261 273 285 271 265 259 255 251 267 263 245 251 249 253 253 239 245 247 235 225 221 225 237 233 233 237 235 221 231 229 223 233 219 221 245 231 237 243 237 229 235 217 219 225 229 235 241 239 253 267 353 450 480 472 489 470 419 385 369 347 315 315 307 303 287 289 307 293 287 295 295 295 343 375 393 411 511 616 641 
273 271 261 273 271 247 263 251 255 257 251 253 245 239 261 237 257 253 235 241 225 239 239 237 249 253 245 237 231 223 239 233 227 223 237 237 251 239 237 243 233 235 245 233 235 235 237 237 249 287 389 571 629 612 606 629 629 633 637 627 523 444 411 405 407 420 436 426 420 420 448 474 480 497 491 493 529 614 643 608 
271 267 271 273 267 257 253 271 261 251 251 257 265 249 251 247 241 247 233 241 239 239 239 225 239 247 237 239 241 245 233 231 231 235 227 253 245 237 241 233 241 241 245 245 227 257 241 245 285 373 581 641 637 633 631 633 658 685 699 693 616 591 587 594 585 583 565 591 579 558 579 558 540 577 540 542 581 641 641 645 
261 275 275 265 263 265 275 271 267 263 261 269 263 253 259 253 261 245 243 245 235 231 241 241 247 257 253 257 245 241 261 257 249 245 245 261 249 251 237 261 255 261 271 273 259 251 261 271 327 554 643 658 649 606 614 645 660 666 668 641 596 583 604 614 616 610 610 589 587 575 585 592 579 591 556 561 592 664 668 660 
261 277 275 269 267 265 257 261 267 261 255 267 253 259 261 261 245 249 237 247 247 243 243 255 239 255 251 253 255 263 265 255 255 265 263 279 259 261 241 269 275 295 319 303 297 285 281 309 485 631 658 666 577 405 399 513 616 616 614 591 596 598 610 616 635 612 598 579 587 583 598 610 608 606 550 552 596 666 649 668 
253 263 269 271 271 251 253 255 265 259 255 255 255 251 261 247 247 241 231 257 239 235 251 233 237 253 253 247 257 253 263 273 271 265 265 267 269 253 261 283 309 321 329 319 319 301 317 403 600 656 654 565 367 307 301 367 530 612 616 600 594 592 608 623 602 596 581 589 592 596 598 610 620 598 542 550 594 643 643 656 
271 269 269 285 267 257 251 271 253 255 251 257 255 239 241 245 251 241 233 251 247 237 255 245 233 243 241 253 261 251 249 259 259 265 273 273 269 263 257 277 291 319 325 335 329 321 399 569 656 660 521 357 295 301 307 341 442 534 521 515 591 625 623 639 623 575 575 602 594 598 616 616 623 608 546 534 552 614 618 639 
267 269 273 265 269 269 269 267 247 255 259 245 245 259 257 249 239 239 239 249 239 233 245 243 241 235 239 237 253 259 235 245 237 255 263 271 259 253 255 269 269 285 321 369 363 420 544 637 649 550 363 341 401 448 417 438 556 674 604 534 606 635 610 631 610 591 581 591 591 612 612 606 610 594 529 513 536 575 598 629 
277 259 275 279 271 253 259 265 259 251 247 255 245 237 257 243 255 227 251 245 237 233 247 247 239 255 247 251 255 261 253 249 247 251 241 261 253 245 249 271 275 283 329 450 525 575 591 618 594 422 458 592 676 703 687 684 720 775 771 735 616 591 575 558 560 567 573 573 573 587 614 610 594 591 530 495 519 554 577 633 
253 273 271 271 277 259 271 267 259 247 241 265 247 241 247 247 249 241 235 233 251 241 235 243 245 249 257 257 261 253 255 253 247 253 261 265 261 257 261 269 279 297 417 558 583 592 591 548 468 493 664 739 745 730 741 756 714 758 777 789 687 567 538 527 544 583 596 575 567 575 600 618 592 589 519 491 495 552 594 616 
255 265 279 271 263 263 273 271 261 253 261 257 243 243 237 239 243 245 237 235 259 229 245 245 243 239 247 245 265 259 263 277 269 257 269 265 263 269 263 269 325 351 499 592 610 573 538 415 403 596 768 745 756 743 699 724 714 716 775 789 750 618 579 610 651 643 600 585 575 591 594 618 600 602 554 532 530 558 608 639 
249 263 263 279 259 259 257 243 253 257 247 243 255 235 243 245 235 243 227 235 227 227 233 235 243 231 241 245 247 271 277 287 289 277 257 267 257 259 263 281 357 409 495 542 573 482 353 303 401 629 770 758 752 710 695 710 730 699 768 771 680 637 653 666 680 647 623 594 579 573 589 592 594 606 552 550 546 575 606 631 
261 267 263 263 257 253 249 243 251 239 233 243 249 241 243 243 235 231 227 237 233 225 239 229 225 239 235 239 241 251 279 277 265 263 263 257 249 255 255 313 407 438 409 442 468 287 267 271 373 567 766 771 764 752 741 749 712 635 635 560 542 649 660 662 635 618 631 604 579 573 587 583 604 616 567 561 556 581 606 633 
259 265 263 273 249 251 267 233 249 245 231 245 235 239 233 241 227 227 229 225 229 221 229 221 225 215 223 217 221 219 241 241 245 255 243 243 245 239 273 315 335 335 357 452 299 263 273 277 335 440 664 764 739 752 724 672 499 407 482 546 579 635 639 625 604 606 629 618 585 577 579 579 589 610 571 579 571 594 600 645 
249 255 269 271 237 243 243 257 235 239 233 237 235 239 231 231 231 227 221 223 225 215 211 235 235 221 229 231 229 217 225 227 241 227 239 245 243 249 271 297 307 319 347 371 257 257 267 269 285 375 470 682 670 623 480 375 301 295 476 653 651 627 618 602 592 602 606 610 592 577 577 589 581 592 585 598 606 625 594 635 
251 251 265 265 253 245 253 253 231 237 233 235 245 231 233 239 233 239 231 231 229 223 227 233 239 237 233 231 227 223 229 233 221 221 237 237 251 251 269 273 299 321 315 279 255 259 257 265 275 289 355 399 409 333 269 261 265 271 389 631 662 623 592 614 606 633 616 610 602 571 554 552 548 589 612 612 641 647 633 637 
241 267 259 279 253 247 249 245 253 235 239 249 243 237 239 237 237 235 235 239 227 225 235 225 245 241 241 237 237 225 221 247 229 233 249 255 239 247 247 263 271 303 289 275 265 269 265 249 247 259 255 259 255 261 251 263 263 279 299 507 614 629 643 647 647 645 620 647 620 468 434 415 434 554 631 635 664 654 645 643 
251 253 265 253 267 239 261 259 243 239 245 243 251 243 239 245 247 239 231 241 241 233 231 225 239 245 245 249 247 245 245 241 245 245 237 249 243 247 259 273 275 283 285 259 277 277 277 269 255 261 247 253 253 251 243 261 267 253 287 333 485 600 620 633 620 606 583 647 687 658 521 446 415 550 614 651 651 660 672 651 
267 267 265 263 271 251 249 269 247 235 245 259 233 259 249 241 251 243 235 255 251 247 259 245 257 253 247 257 245 255 253 263 247 235 251 249 255 267 265 275 277 295 283 261 269 273 281 265 255 263 247 241 243 263 255 263 261 263 275 283 305 371 470 540 556 542 563 649 689 691 699 651 596 641 635 602 653 676 656 658 
249 269 263 261 261 237 259 255 247 243 265 245 239 249 255 253 241 239 253 253 251 265 253 255 247 241 233 243 251 245 265 255 261 235 241 249 255 259 289 271 267 287 283 257 253 251 259 253 243 245 239 247 239 249 259 253 257 247 257 277 277 271 293 343 367 403 466 560 633 682 682 670 641 618 563 497 623 685 653 641 
259 267 271 265 265 255 259 257 247 253 249 259 237 247 249 247 253 245 251 263 267 389 383 367 313 265 241 237 251 251 261 253 255 243 237 247 253 257 259 257 255 265 261 249 235 243 245 247 231 245 241 237 257 251 243 247 261 251 255 285 265 271 275 285 305 277 303 327 387 474 560 577 573 521 417 383 585 658 635 639 
257 255 271 265 259 245 253 245 239 249 241 259 247 239 249 249 251 245 253 293 422 561 592 538 446 319 255 237 255 239 235 243 251 241 245 243 247 251 243 239 239 245 249 235 247 245 241 239 235 241 233 245 239 243 245 249 257 263 265 269 271 279 259 277 283 267 271 279 285 307 305 361 341 301 271 311 554 606 604 602 
265 261 265 257 267 259 261 251 267 253 247 255 259 247 253 239 269 253 263 381 560 594 592 532 331 275 255 239 241 237 225 245 241 241 237 237 241 247 253 239 241 237 245 217 235 231 229 235 243 255 245 251 243 253 249 253 255 261 255 269 275 263 263 275 269 271 285 265 285 327 319 305 277 291 275 329 529 565 583 598 
255 269 263 255 267 247 259 243 245 259 251 247 253 249 241 241 255 259 283 491 591 618 610 581 452 325 239 245 247 229 237 247 237 231 233 231 245 245 247 243 249 235 229 239 231 239 247 229 239 243 239 239 243 241 241 263 257 261 257 275 273 273 277 269 271 263 269 263 271 351 381 381 389 383 395 417 529 560 579 589 
257 259 265 271 251 245 251 241 247 251 255 241 245 247 249 257 249 263 321 505 563 600 610 594 573 470 289 241 245 233 241 231 223 237 235 239 237 247 251 239 247 235 235 227 223 243 251 235 235 251 251 241 257 261 267 263 265 269 259 269 271 269 277 273 281 273 273 269 261 351 379 403 409 419 419 444 554 567 554 561 
263 251 261 273 259 259 255 253 241 253 249 249 247 255 239 249 243 269 351 521 556 604 625 614 573 485 339 275 245 239 241 249 235 245 247 251 257 255 259 243 243 261 241 243 253 275 297 311 301 325 343 311 313 327 317 325 325 307 307 305 295 271 293 281 275 269 281 289 275 357 405 426 413 430 432 438 544 594 561 558 
255 261 251 275 257 255 271 255 255 261 257 267 251 269 265 261 269 275 434 546 581 608 616 587 530 476 448 371 319 283 299 301 309 335 335 333 309 311 319 329 341 347 347 349 385 393 413 413 401 403 403 363 345 347 321 335 339 323 311 343 327 289 297 291 297 287 305 311 313 369 426 422 419 430 432 430 483 571 567 556 
259 265 259 277 259 253 253 251 257 267 277 271 259 259 265 255 253 279 409 546 546 589 573 499 474 450 424 391 379 361 385 401 409 420 424 432 436 450 434 393 381 399 417 409 424 454 448 428 409 422 419 373 369 349 325 349 347 319 305 339 369 301 295 311 351 373 424 466 476 499 480 476 454 446 446 428 450 491 511 495 
257 253 267 281 265 241 255 251 267 277 275 287 273 279 273 263 267 269 399 523 509 505 521 527 505 460 399 369 391 405 407 430 442 442 458 458 472 487 440 371 385 424 422 442 464 476 462 444 422 440 417 393 381 357 339 349 341 315 297 391 405 359 369 415 448 472 505 532 540 534 542 530 527 521 485 468 468 474 444 462 
253 255 263 259 265 245 253 279 273 317 381 405 389 403 407 325 283 301 399 503 491 495 511 521 499 454 391 373 383 424 430 472 482 450 483 448 464 497 444 361 399 417 438 450 464 474 470 460 448 448 440 399 391 373 361 365 343 319 325 419 454 411 413 438 470 478 509 523 530 530 525 509 509 505 513 501 480 478 452 468 
265 259 263 269 277 251 251 269 339 491 645 693 654 685 670 637 534 409 491 503 483 474 517 525 515 442 397 369 397 442 476 489 474 483 474 458 483 491 450 381 403 395 395 419 438 430 452 446 440 454 456 417 424 417 393 373 377 351 349 395 426 393 375 385 426 470 501 511 534 538 534 517 487 495 495 482 482 476 424 440 
257 267 267 277 267 271 263 329 405 596 695 695 697 716 697 682 635 651 635 540 482 476 513 519 482 422 401 385 454 468 487 497 483 503 474 466 489 460 438 391 405 389 385 387 397 381 381 357 387 450 472 456 448 438 434 409 397 393 389 379 401 381 375 371 419 444 485 507 521 513 529 501 476 472 458 462 452 444 411 422 
251 259 253 267 253 267 281 371 480 633 699 720 730 718 693 658 654 614 645 552 497 468 497 476 420 399 389 428 483 499 503 525 497 503 483 472 487 476 440 413 401 383 375 383 373 357 329 327 373 442 458 460 446 468 478 448 415 397 411 417 411 399 401 422 415 448 472 505 509 511 491 460 446 450 444 422 424 422 434 448 
255 255 257 255 251 263 291 367 483 596 629 705 712 699 639 561 575 620 575 501 474 448 462 422 381 379 391 450 507 521 523 517 529 515 487 466 491 476 464 405 415 375 397 426 387 375 375 387 438 460 466 456 456 448 442 442 424 415 403 417 415 417 411 434 417 434 476 497 501 501 501 470 458 464 444 430 419 409 397 428 
263 271 277 281 267 273 277 329 432 554 633 664 693 722 705 625 643 622 614 527 474 446 438 403 361 393 411 466 517 527 532 525 521 519 505 474 476 466 458 422 417 379 405 430 419 413 428 446 452 482 466 460 450 444 446 442 426 405 395 401 438 430 430 420 444 472 511 523 511 532 525 517 487 487 480 419 371 361 369 391 
251 269 267 285 265 271 257 305 381 509 623 625 653 695 674 656 656 622 598 523 476 430 411 385 359 383 395 456 513 525 513 509 513 521 499 472 474 456 460 417 420 399 409 430 420 420 424 424 426 420 438 434 432 430 436 422 422 405 401 391 432 444 432 454 446 464 491 497 495 495 503 503 470 422 327 271 281 313 309 323 
247 271 271 271 257 269 263 283 313 401 470 519 536 575 573 505 413 373 538 493 464 440 434 375 339 363 349 419 505 509 483 487 511 505 493 472 460 460 448 424 428 409 403 393 389 420 397 393 411 355 351 389 419 413 409 413 405 391 393 381 424 430 424 428 415 411 450 470 489 483 483 434 345 235 156 191 263 297 293 287 
265 273 257 275 263 267 267 253 261 281 293 299 291 309 301 313 285 313 434 474 452 448 426 379 323 319 345 409 485 509 476 468 483 491 483 460 464 464 444 419 430 438 395 369 373 407 419 432 420 405 379 399 383 387 395 399 409 387 369 377 375 405 399 395 395 405 432 452 478 422 353 231 138 102 112 160 243 293 279 285 
261 261 257 261 271 259 241 259 269 269 271 263 263 259 263 281 287 343 470 472 438 456 464 426 339 323 347 387 452 489 470 446 464 472 470 450 440 442 432 417 415 419 387 379 383 407 430 424 401 387 405 393 373 385 426 417 387 367 363 357 355 383 367 349 363 399 417 415 349 233 118 77 33 53 69 173 255 279 281 269 
255 255 263 263 261 247 247 253 259 249 267 263 259 247 263 271 283 405 482 491 489 482 483 432 361 313 339 379 442 474 454 454 466 468 442 411 407 440 424 399 387 407 383 383 377 391 417 415 401 379 387 345 361 399 403 359 335 337 345 357 315 337 333 317 323 331 301 201 122 81 53 41 39 49 81 197 261 293 259 231 
245 265 259 259 267 261 257 257 269 261 237 257 247 253 245 273 271 422 503 560 546 563 558 476 411 325 321 343 415 454 472 454 452 464 432 409 395 403 405 401 379 375 367 405 377 395 413 403 389 381 351 331 369 349 361 323 301 305 301 301 275 289 303 295 273 265 181 75 55 35 16 26 45 87 140 213 259 275 249 211 
243 257 251 253 237 245 249 255 249 263 239 255 263 243 255 251 279 446 529 579 577 625 635 534 464 391 351 331 369 401 411 438 440 436 428 381 371 371 403 411 377 387 391 409 399 383 379 385 389 379 377 339 371 321 321 329 313 283 289 281 249 245 239 243 229 207 169 61 49 0 16 35 75 152 219 247 255 271 243 217 
225 257 233 247 239 239 235 261 253 245 249 245 251 245 243 247 293 426 501 569 633 720 743 577 456 363 297 279 275 287 297 339 361 363 357 351 329 369 393 381 391 395 387 403 389 371 373 385 369 383 377 327 337 321 353 325 301 281 269 253 227 213 211 203 191 171 148 79 30 26 77 102 165 217 253 263 265 275 245 229 
227 247 239 241 245 239 229 235 239 235 241 237 239 231 231 255 269 379 517 591 664 804 859 558 307 251 235 231 227 215 237 219 235 227 235 251 249 253 269 281 335 371 359 345 343 355 359 375 381 375 367 319 315 311 319 311 285 243 227 229 215 187 207 187 183 158 160 132 108 93 140 158 209 241 269 249 245 269 231 217 
227 251 229 233 241 225 231 245 231 221 243 235 233 229 237 243 269 359 501 587 676 808 817 387 253 227 231 231 213 193 205 203 197 211 221 225 211 209 225 247 239 263 301 275 261 245 241 249 247 269 271 251 229 231 231 237 249 213 189 199 201 191 197 177 160 156 183 181 181 197 209 229 231 251 269 261 261 255 223 201 
221 231 221 229 229 213 205 217 221 215 227 219 211 219 225 215 231 329 503 567 654 764 697 271 227 207 203 203 189 177 181 187 183 203 201 201 201 203 203 217 219 213 203 213 187 205 199 191 197 199 191 183 193 185 191 183 185 175 181 185 163 167 171 142 152 136 181 215 199 217 207 223 215 229 229 225 225 213 203 207 
239 241 237 243 225 227 221 239 235 225 229 225 223 229 215 235 237 341 513 550 581 629 523 257 213 209 213 207 185 181 189 187 185 181 191 181 193 185 189 193 191 185 187 183 179 183 179 175 175 177 177 173 185 175 171 175 167 175 163 175 150 154 144 130 132 122 146 169 167 179 191 181 175 187 181 189 163 187 150 179 
247 251 245 265 241 235 243 231 237 233 227 245 239 221 233 233 239 281 452 548 563 546 476 273 225 223 227 223 217 201 195 193 187 193 199 211 201 197 193 195 199 187 187 201 193 203 187 169 181 175 179 179 187 181 175 181 189 167 175 189 165 165 154 160 156 146 156 169 160 158 144 144 134 142 148 134 140 142 122 175 
249 269 261 257 241 241 227 237 247 237 239 235 225 219 227 245 239 249 295 397 485 505 391 257 233 227 227 223 223 215 207 199 195 205 189 197 205 205 195 209 195 211 185 199 201 195 179 187 193 195 207 191 195 193 189 195 193 187 183 189 183 177 156 165 173 177 191 191 185 179 179 171 163 160 169 150 165 165 136 160 
249 255 245 267 259 233 237 253 241 243 237 233 225 223 239 225 247 247 251 277 275 311 269 239 227 231 219 219 221 209 211 201 213 193 197 201 205 213 207 205 215 207 191 195 199 195 191 189 191 201 201 197 193 183 189 191 185 195 185 189 189 181 175 177 179 175 193 199 203 213 227 229 221 221 187 185 183 183 163 175 
253 259 253 275 259 271 257 253 249 263 257 251 237 243 251 247 251 235 239 245 251 235 257 223 225 231 239 237 223 203 209 207 211 217 229 219 221 221 217 215 211 217 203 209 203 201 203 197 195 207 207 215 213 209 209 207 211 207 201 219 211 203 203 209 207 195 217 213 227 223 227 223 233 237 221 215 205 223 211 191 
265 271 257 267 247 267 243 263 265 265 251 267 249 253 249 251 265 249 259 237 245 245 251 233 259 245 243 249 235 217 217 221 219 207 223 225 211 217 221 215 229 211 203 205 201 201 199 213 207 207 213 217 231 211 211 217 231 227 217 241 233 223 215 207 219 199 209 221 213 219 215 217 215 213 233 241 219 233 205 217 
259 259 271 283 289 253 263 265 249 265 243 257 241 257 243 255 253 251 255 251 233 243 253 245 239 243 247 237 239 217 217 223 213 209 217 215 223 233 219 215 231 215 207 199 189 201 199 203 211 213 205 207 221 213 211 211 229 223 219 239 233 225 241 241 219 225 209 205 215 199 205 203 213 223 231 235 233 251 241 229 
253 267 265 271 267 269 257 257 269 261 253 255 259 263 249 261 265 249 259 249 249 261 265 245 253 249 239 235 225 235 231 221 211 209 225 239 243 215 227 221 231 207 219 227 215 213 213 213 217 213 223 219 217 217 221 217 221 213 223 245 235 223 227 233 231 215 223 195 209 197 207 199 207 215 231 237 247 237 241 227 
267 265 273 255 271 251 271 267 257 269 255 267 259 245 257 265 261 253 263 269 267 269 281 261 249 267 257 241 241 239 239 213 221 231 227 223 241 217 229 233 223 223 215 219 215 227 213 213 215 223 223 227 219 217 215 217 219 225 235 241 235 231 223 233 233 201 213 201 191 201 203 193 203 211 227 245 241 229 225 247 
269 275 271 273 273 257 267 279 243 257 257 259 241 253 259 265 251 249 261 273 269 265 275 267 253 269 245 255 237 237 251 223 239 225 237 239 227 233 243 243 247 225 227 223 219 225 215 199 211 229 227 225 221 217 223 223 231 223 223 243 243 223 243 235 225 197 223 213 203 191 197 193 191 235 243 247 237 245 219 243 
265 267 281 289 269 279 263 267 271 271 255 259 243 251 253 273 273 265 273 281 277 263 271 265 267 277 263 267 247 245 255 241 235 245 229 229 245 231 249 251 237 231 233 231 225 231 227 219 223 231 233 231 221 233 229 231 227 231 231 241 245 233 235 229 227 229 239 223 213 197 225 203 221 227 259 265 261 275 245 249 
257 273 263 275 269 265 263 269 273 259 243 269 241 263 257 267 265 257 259 289 271 281 281 279 285 267 247 267 249 245 247 237 243 249 249 257 247 233 265 247 249 243 247 239 233 231 239 225 233 243 231 223 233 243 231 235 237 235 247 241 253 241 247 247 255 233 235 237 217 209 221 217 225 249 249 261 265 265 245 259 


