P2
80 60
699
268 272 254 272 248 258 272 276 286 270 258 262 264 258 270 260 266 254 258 244 236 242 244 230 220 214 214 196 214 210 212 210 206 216 222 192 212 218 188 208 184 196 170 194 202 214 232 230 228 252 230 234 222 228 226 228 234 216 242 228 238 218 230 236 222 238 230 222 226 238 234 214 222 208 224 224 212 230 212 210 
258 270 240 250 260 262 252 256 274 274 260 266 256 248 254 254 258 242 224 240 252 218 230 222 216 192 202 206 198 212 182 206 206 210 214 202 206 218 198 196 180 186 176 184 212 204 228 234 232 240 242 228 224 222 242 242 232 242 238 222 230 238 236 222 208 230 238 220 224 236 238 222 220 216 212 212 202 226 206 212 
250 248 252 244 270 266 258 260 262 272 246 250 268 252 254 258 264 238 236 240 232 232 222 220 224 204 216 204 208 186 196 192 204 224 236 202 220 226 214 198 180 190 182 196 226 216 236 242 236 264 250 242 240 234 228 242 254 262 224 230 240 232 230 218 234 236 248 232 232 238 228 234 212 204 214 232 216 212 206 212 
256 264 240 256 250 266 262 266 256 248 238 262 262 242 248 246 260 246 238 230 228 244 226 226 218 220 218 218 228 210 226 218 212 216 236 210 222 228 214 214 202 188 186 216 224 224 236 234 246 250 238 238 242 220 234 228 238 240 224 228 240 236 226 234 224 246 246 230 230 216 246 238 230 214 234 220 228 234 206 222 
256 274 246 252 260 270 262 260 252 254 250 250 258 252 250 264 254 258 238 234 232 226 218 230 236 212 212 218 232 236 216 232 216 236 248 218 230 232 222 214 208 206 198 218 222 244 238 258 246 258 252 256 252 244 236 244 236 242 242 238 244 226 238 240 230 236 238 236 240 242 246 238 228 234 212 218 226 230 228 226 
252 246 256 258 266 256 264 260 266 270 246 270 264 252 264 260 262 246 238 234 238 236 234 230 222 242 222 234 228 228 226 220 228 236 242 218 234 246 216 210 208 202 210 210 232 240 250 268 242 262 254 254 246 248 238 250 248 244 242 256 236 228 228 238 238 242 246 240 234 232 242 252 228 232 238 232 232 230 226 226 
238 256 260 244 258 282 254 252 260 264 262 274 264 248 260 266 256 260 242 246 242 246 244 232 246 230 224 230 232 230 222 234 242 242 258 224 254 258 238 232 228 206 208 220 238 240 246 268 256 264 268 250 250 240 252 264 254 256 244 242 228 248 238 226 248 252 238 238 256 240 240 250 232 234 244 246 248 242 218 204 
250 250 250 264 262 284 264 272 270 264 258 264 262 274 252 264 248 248 250 248 248 238 244 246 238 242 228 234 228 230 234 240 240 252 262 220 252 248 240 230 218 224 224 238 230 242 252 250 260 272 274 268 256 252 246 244 260 252 252 244 248 242 234 242 246 250 238 250 240 242 248 250 244 238 238 252 236 230 220 230 
254 266 248 262 270 272 266 280 284 268 252 270 272 268 260 268 256 248 246 248 252 232 248 242 242 240 232 232 238 244 246 238 252 262 274 242 256 252 238 234 232 232 226 236 254 252 258 256 268 266 262 262 250 258 248 250 254 260 246 246 246 242 248 244 252 244 242 250 242 252 260 252 238 236 234 244 236 252 218 226 
270 260 252 260 266 286 260 270 254 276 268 270 272 262 268 264 256 256 260 252 264 236 246 246 244 224 236 230 236 246 238 246 246 262 286 248 260 264 258 292 334 371 397 338 274 262 266 280 270 266 286 254 264 250 234 246 248 252 254 228 238 242 238 232 242 258 252 242 266 240 246 256 256 248 228 264 236 248 220 230 
256 256 268 268 262 270 266 264 268 254 252 270 252 258 270 272 264 242 248 260 252 254 250 246 246 230 230 232 236 236 250 238 246 262 292 292 314 268 266 334 506 528 559 541 356 274 262 270 270 264 266 266 266 250 250 236 244 250 240 248 244 240 242 228 244 242 242 250 250 232 248 262 256 248 248 254 238 252 218 232 
258 240 248 258 266 260 262 264 258 262 254 258 258 250 260 258 262 250 252 244 254 254 248 264 232 242 230 222 246 234 262 264 274 334 387 361 342 308 268 270 424 543 570 611 526 310 264 280 266 266 268 254 266 240 248 244 248 256 248 242 246 236 248 238 228 230 244 250 244 252 250 268 248 254 254 258 248 244 228 226 
242 256 256 244 268 266 258 282 274 252 260 266 250 270 252 254 270 250 254 248 258 248 232 246 238 220 236 224 246 262 256 282 369 424 383 188 120 152 200 218 328 518 524 588 607 432 286 280 266 284 276 274 290 276 278 292 282 268 254 262 266 256 254 228 244 248 252 244 256 252 248 270 246 254 252 246 244 254 228 232 
266 262 250 256 256 260 258 244 264 260 262 262 258 248 238 244 248 262 252 260 246 242 232 246 232 228 230 234 240 254 292 423 428 405 348 164 108 112 180 222 262 326 423 533 568 475 342 332 308 300 274 302 298 286 292 334 324 296 278 282 274 278 264 236 244 236 252 246 266 260 258 260 270 270 256 264 242 244 226 234 
254 262 256 252 272 270 264 254 266 254 250 254 252 260 240 242 248 244 256 248 250 254 250 244 224 234 240 238 248 264 383 489 444 424 415 346 320 298 244 204 234 210 240 324 365 352 369 375 314 298 282 280 298 288 274 278 266 274 290 280 262 270 268 258 250 244 244 246 294 306 306 326 320 316 310 290 274 266 238 248 
262 272 260 252 254 266 252 254 256 268 252 250 252 248 250 254 242 250 244 252 272 250 248 244 244 236 242 252 252 266 367 446 423 419 464 444 405 292 184 230 238 246 244 304 310 332 350 356 318 314 262 254 268 284 282 242 264 268 264 264 264 266 254 248 256 260 248 276 401 393 411 442 464 520 483 440 369 330 272 270 
268 248 272 240 260 256 260 256 248 258 254 254 262 256 264 254 256 250 254 242 250 252 248 260 256 244 252 262 278 278 363 411 450 432 475 456 365 274 192 242 294 302 300 306 314 324 330 312 286 310 290 256 270 270 288 290 262 274 274 270 262 280 264 256 260 274 262 304 413 419 436 456 483 545 543 537 508 483 413 379 
248 268 256 240 258 260 254 250 252 264 254 250 262 256 254 254 258 260 256 262 276 262 272 284 288 294 278 260 294 318 387 405 432 442 423 363 302 228 200 254 306 330 312 308 296 306 328 330 300 308 290 270 296 270 306 304 292 274 274 264 274 280 282 300 286 298 292 342 440 446 446 450 460 502 522 526 530 530 493 475 
268 276 260 266 266 272 270 278 268 254 260 254 268 260 268 264 276 266 278 262 300 330 354 367 415 485 424 360 397 464 462 356 464 434 383 296 236 162 198 208 302 312 310 298 268 280 312 330 302 304 286 320 324 292 310 298 292 300 296 294 302 318 296 316 306 302 294 391 491 466 450 468 485 491 518 508 512 518 489 489 
262 270 262 252 270 258 270 272 270 266 262 258 258 254 258 276 266 264 256 270 381 436 409 475 580 630 619 609 566 625 532 280 466 477 356 244 194 110 176 228 324 330 306 296 300 288 316 322 296 134 230 310 332 288 314 310 306 348 377 350 332 318 316 320 318 308 304 415 446 417 403 411 419 446 471 460 466 471 471 479 
256 276 246 260 270 266 254 272 256 256 258 278 258 268 264 254 264 264 264 316 426 487 483 545 644 592 539 611 549 592 547 363 438 473 375 266 176 118 148 254 336 340 320 322 304 316 340 328 322 184 194 280 300 298 314 322 356 371 399 399 397 377 395 440 417 389 371 375 361 358 340 328 312 310 292 330 314 310 326 342 
262 272 270 266 276 266 260 264 262 256 244 272 258 254 252 268 256 262 282 332 421 518 543 648 663 592 446 566 533 576 541 456 520 464 379 306 244 174 148 220 300 352 342 312 302 342 371 352 352 250 136 186 278 292 350 348 381 395 409 421 424 413 428 483 504 485 485 537 535 532 458 322 278 274 278 292 284 280 274 308 
254 260 254 264 252 262 268 258 254 256 270 266 264 256 260 254 264 264 276 320 395 504 543 636 657 617 518 586 563 570 522 458 491 434 430 389 361 304 198 196 250 312 302 298 306 348 356 342 326 318 144 69 250 314 361 371 395 401 424 444 450 432 442 493 516 520 497 543 572 559 446 314 294 270 268 270 274 276 264 262 
242 248 256 246 262 264 256 258 264 258 254 262 262 256 276 258 252 262 258 314 395 479 530 561 609 615 609 582 524 510 473 442 430 424 479 446 426 379 262 198 178 278 296 306 326 354 348 314 304 314 198 176 268 314 354 367 403 403 426 444 448 442 452 487 493 479 477 489 564 547 405 302 276 264 252 274 264 266 254 266 
256 266 268 264 252 272 268 266 262 280 252 272 262 268 256 258 272 254 276 286 367 424 466 450 479 518 547 411 330 322 395 413 415 417 450 440 446 407 282 214 188 258 290 306 336 350 344 302 326 316 228 226 290 306 334 354 381 401 413 428 436 424 432 485 508 518 475 454 481 397 310 290 290 256 270 280 272 276 246 254 
244 262 256 252 270 268 266 252 266 276 262 264 250 268 262 240 264 256 256 276 288 318 306 316 306 292 292 288 294 306 363 456 407 395 401 389 393 403 330 288 270 282 306 328 336 344 338 328 342 294 250 266 278 296 258 276 324 383 423 432 432 430 413 466 514 516 446 342 320 306 282 300 288 258 266 266 262 278 248 256 
238 264 252 256 246 266 254 244 250 256 240 256 248 258 262 246 252 270 256 254 260 264 264 268 266 256 260 250 274 286 324 470 438 371 395 340 312 322 306 292 302 282 284 296 308 338 363 363 312 350 290 266 244 240 242 256 262 318 375 426 411 423 399 421 458 407 332 298 300 292 288 288 276 264 270 266 254 258 242 238 
250 266 256 262 250 248 256 264 254 250 250 248 242 256 238 236 248 244 252 248 242 250 248 250 258 252 244 254 262 272 278 440 489 409 230 47 0 120 212 314 391 328 266 284 446 475 477 424 316 320 294 232 122 138 248 240 254 296 320 348 334 310 322 308 296 310 304 296 290 294 282 282 282 266 258 246 250 256 226 236 
252 262 250 258 260 264 258 268 246 262 260 256 244 258 244 250 264 248 244 246 242 244 240 234 248 234 226 248 252 248 250 324 423 389 274 59 97 228 182 250 489 524 473 475 574 628 640 543 326 296 286 274 258 250 258 256 260 266 262 256 272 264 274 286 286 302 308 304 292 290 294 282 278 250 248 250 240 252 238 240 
242 260 248 246 260 254 248 266 266 254 246 244 242 238 248 242 240 244 240 240 250 246 242 238 238 234 236 236 236 248 254 268 324 440 411 328 300 296 204 200 512 566 557 572 630 655 603 393 296 286 300 290 280 282 258 270 264 266 262 254 272 280 266 292 306 322 322 314 324 298 278 298 268 254 240 250 254 242 242 254 
250 256 262 248 256 248 246 254 242 254 236 252 256 246 250 242 256 262 244 258 248 258 242 246 248 244 234 230 252 252 256 280 278 328 399 371 344 324 290 324 553 561 539 592 625 588 393 302 284 290 294 286 302 288 260 264 266 278 264 258 252 264 270 304 328 350 332 338 316 296 290 274 270 244 240 238 252 244 226 236 
242 274 248 254 274 252 260 270 258 252 248 254 248 248 250 250 262 258 256 260 256 252 248 258 248 234 252 236 266 268 264 268 290 314 324 312 322 348 344 438 549 592 555 563 526 375 286 294 286 290 288 286 274 286 284 266 286 268 258 250 256 258 278 298 336 346 346 342 314 308 294 282 256 258 246 254 250 244 228 232 
234 270 256 250 254 260 250 256 252 254 246 256 252 264 258 260 256 252 258 246 248 260 264 264 252 254 250 258 258 266 270 284 296 350 379 369 363 426 518 555 578 590 535 391 300 272 270 286 280 298 282 284 286 288 282 270 264 254 258 248 252 262 278 314 348 342 348 336 324 308 288 288 262 254 252 250 240 250 218 228 
236 274 252 250 246 272 258 264 266 254 254 256 268 258 258 260 260 258 262 258 260 262 262 260 260 248 260 260 294 304 354 411 440 454 440 369 379 417 545 555 557 564 564 470 304 278 276 278 284 298 302 292 302 284 294 292 278 286 266 252 256 270 284 318 342 352 338 336 314 310 304 280 270 256 250 252 242 252 232 228 
250 250 244 248 258 254 256 254 262 246 254 268 258 262 276 268 254 268 260 252 264 258 254 260 262 266 260 304 369 444 479 464 438 436 428 375 377 379 512 524 543 547 549 549 428 292 270 282 288 296 302 286 304 280 284 278 276 262 264 268 266 262 292 322 338 342 320 332 332 318 302 292 286 270 242 246 234 254 242 242 
232 254 248 250 266 264 252 262 258 268 260 242 256 266 264 268 274 274 260 260 264 264 256 266 266 258 272 387 506 468 471 444 421 385 401 373 365 389 493 501 487 514 545 576 541 356 294 296 302 292 294 288 294 284 288 290 286 268 280 270 268 270 272 304 320 326 328 320 330 308 316 298 274 254 242 254 250 250 250 270 
250 240 246 262 266 266 266 258 252 258 256 246 252 258 274 280 280 290 294 270 286 264 266 268 260 272 330 518 533 473 462 466 419 389 403 395 371 379 356 312 302 413 501 535 555 419 318 308 314 310 288 294 304 292 294 288 258 286 306 300 296 288 276 292 314 318 318 324 306 314 300 306 292 272 250 244 242 240 234 282 
268 254 254 254 258 252 248 246 256 258 252 260 250 264 270 290 354 430 499 432 356 298 272 282 284 282 397 512 477 440 452 426 395 389 407 401 375 330 314 304 304 354 428 393 393 346 326 318 306 308 308 320 326 312 314 302 282 328 340 344 324 326 306 302 304 298 298 304 308 310 300 280 232 210 188 184 192 236 226 308 
250 266 254 256 264 260 256 260 266 254 254 254 264 274 300 379 491 625 650 601 576 504 413 326 302 316 442 487 462 436 424 430 417 413 371 328 346 389 377 375 393 385 385 334 322 324 306 322 326 328 334 336 342 334 342 334 342 361 358 354 354 328 312 320 294 318 292 286 288 286 292 286 210 166 136 97 158 210 284 361 
248 274 248 254 256 262 246 248 260 278 252 258 254 272 322 444 586 671 674 693 676 607 586 518 360 375 487 470 468 454 440 442 421 387 350 302 356 405 399 379 389 363 361 324 326 316 316 328 332 320 350 352 365 360 354 371 385 379 367 308 324 340 324 312 300 302 310 300 302 314 326 340 332 280 232 180 202 270 346 399 
244 272 258 260 262 274 250 260 268 258 260 258 260 282 316 473 623 655 682 699 686 601 516 555 537 543 524 473 456 454 438 450 424 365 330 286 338 391 391 383 361 365 334 330 310 304 326 324 356 350 363 377 373 383 381 387 387 385 344 160 296 330 330 318 320 322 360 360 328 365 391 423 442 464 444 415 365 338 387 405 
242 274 260 244 262 256 240 260 262 266 234 254 254 262 308 470 621 648 663 678 650 514 415 510 524 588 557 479 462 452 440 444 379 316 304 286 344 395 399 379 367 356 328 312 298 298 304 322 330 346 361 363 381 383 375 385 381 371 338 184 282 328 330 314 302 326 346 326 308 322 391 424 464 468 470 446 423 391 393 399 
248 256 260 248 256 270 256 250 256 246 252 260 262 260 286 424 599 640 661 667 632 561 495 537 570 595 532 495 444 442 428 381 340 302 306 306 346 381 399 385 361 360 324 324 334 326 294 296 310 328 344 365 383 377 389 379 385 377 379 358 348 352 338 336 322 340 320 300 304 326 393 426 438 450 444 419 397 379 369 421 
250 260 256 254 244 250 258 252 254 244 252 260 242 250 262 304 446 564 642 646 651 634 619 580 590 584 530 471 440 417 389 363 318 294 310 316 363 399 389 385 361 363 336 336 328 332 304 302 304 314 334 332 360 387 389 381 391 403 397 371 356 348 358 363 346 360 344 344 340 348 391 411 421 428 421 413 419 413 409 434 
254 246 254 262 252 260 256 254 254 252 242 256 250 266 258 266 304 332 434 549 570 586 611 609 605 576 485 436 424 377 350 332 300 280 294 310 379 411 403 379 377 361 354 344 328 342 304 302 302 314 328 324 350 360 397 385 405 405 383 377 369 358 352 346 379 371 391 360 344 365 401 409 430 421 430 428 442 444 440 430 
238 264 254 264 254 274 252 258 258 242 250 252 248 254 266 266 278 268 292 330 342 328 356 391 501 553 485 426 417 363 338 328 290 282 282 306 389 407 405 387 377 379 358 356 336 336 304 300 312 320 332 346 352 369 363 385 377 387 371 367 375 375 373 356 346 342 344 342 330 377 413 440 460 454 466 475 448 413 367 397 
234 246 252 244 254 258 264 256 266 258 246 248 260 266 262 268 276 260 254 260 280 268 276 286 358 499 487 438 407 395 352 332 244 230 264 324 381 419 415 397 383 365 348 348 344 348 312 288 304 334 340 354 369 365 356 356 350 326 340 326 328 324 302 274 278 298 296 288 346 426 450 475 487 489 493 481 456 344 292 300 
234 268 252 256 268 260 266 278 260 266 262 248 256 266 264 260 264 258 264 262 268 258 268 276 310 423 489 436 419 401 367 334 218 206 224 322 399 417 419 377 373 371 361 360 344 342 324 298 306 332 360 381 371 348 342 324 318 278 282 302 310 292 262 256 288 292 286 322 393 438 458 504 491 495 489 471 361 306 296 296 
248 268 258 268 274 266 266 274 260 262 268 248 246 264 250 268 254 260 262 262 246 268 260 266 284 383 466 426 405 413 387 330 224 184 204 274 379 436 430 389 360 369 360 346 348 365 338 310 318 342 367 379 336 328 326 344 328 330 318 348 354 354 326 300 308 310 334 385 428 432 464 487 502 481 487 405 318 308 270 284 
248 256 254 264 266 272 272 262 252 264 262 260 262 266 262 262 272 258 256 258 252 252 244 258 278 383 491 424 411 393 391 369 250 166 210 256 377 424 415 393 371 342 344 358 344 369 330 322 312 324 346 352 332 318 322 332 360 371 363 365 358 367 354 356 344 367 393 409 424 438 468 477 489 475 409 326 296 292 264 256 
252 264 270 258 260 254 266 260 264 254 256 258 246 254 258 248 264 260 268 256 258 260 252 252 274 377 516 438 397 393 399 365 290 208 214 252 367 415 413 401 371 365 350 338 340 369 336 330 324 332 348 344 338 328 346 354 352 360 367 363 375 375 352 365 373 383 403 407 405 401 456 448 456 403 300 300 280 278 256 268 
246 260 266 256 270 264 254 266 264 264 252 260 248 254 266 264 258 258 254 250 266 242 240 256 254 350 495 464 415 375 367 373 352 324 302 272 344 395 399 391 385 367 350 344 336 385 340 328 346 346 344 371 354 342 346 365 379 393 383 381 383 379 373 377 371 419 411 383 371 375 391 405 387 302 294 282 278 266 248 254 
250 252 252 248 256 272 270 268 264 270 262 258 272 270 262 274 262 254 260 254 264 250 248 244 236 288 448 475 430 409 379 383 387 411 413 342 318 326 356 350 379 369 340 360 350 360 336 348 348 354 360 367 373 360 379 385 383 405 387 391 383 365 379 397 383 405 401 371 356 367 361 367 294 272 268 256 274 262 246 262 
240 264 254 258 256 252 250 270 250 260 252 244 256 268 260 272 268 250 256 256 246 254 242 254 252 248 294 395 456 440 417 405 395 395 397 367 352 314 280 276 379 458 428 379 338 330 338 344 350 346 371 381 385 373 399 403 409 389 401 395 385 379 421 391 415 405 399 346 330 330 340 284 250 240 260 266 262 252 258 260 
248 276 252 264 246 260 244 258 252 248 262 260 258 248 258 266 262 254 238 240 240 256 234 236 228 238 248 272 373 430 434 421 401 397 407 367 446 499 411 387 508 543 539 458 310 276 280 286 296 332 340 367 387 383 403 421 393 391 385 393 397 409 417 423 415 411 377 318 288 296 264 244 242 260 256 264 256 274 254 268 
256 260 244 244 254 240 256 264 232 242 240 270 238 248 244 248 246 246 246 238 252 228 238 232 250 210 230 232 248 296 363 401 383 363 375 411 539 557 553 549 563 568 532 409 264 258 254 262 250 268 282 310 322 346 385 411 397 383 375 375 375 401 401 407 424 403 363 312 278 260 252 234 230 258 258 270 246 250 248 258 
242 258 254 246 246 236 252 256 240 238 236 246 236 236 240 258 248 236 236 232 224 230 224 222 228 214 214 212 216 222 254 278 314 350 375 458 570 564 555 557 564 533 371 258 232 234 244 236 246 248 248 244 260 260 292 314 320 344 360 367 361 367 391 385 397 371 314 284 240 232 226 218 214 228 250 250 254 260 240 260 
220 236 240 242 246 246 230 232 222 236 238 238 234 244 246 244 240 232 234 236 220 214 220 212 224 206 204 196 204 228 212 214 232 250 310 421 501 532 543 557 532 389 220 216 230 218 234 222 226 242 228 236 222 230 234 244 242 254 260 292 262 264 274 288 284 290 256 230 228 220 202 196 192 226 244 228 254 254 244 246 
222 252 222 222 220 228 238 234 232 220 236 228 222 238 236 232 230 232 230 224 236 212 212 222 214 204 196 198 202 200 210 194 206 212 242 252 302 356 411 426 375 244 200 200 216 208 226 226 224 210 218 234 230 226 224 212 220 214 204 216 226 208 222 222 226 244 224 196 208 204 208 194 190 222 236 236 248 250 230 238 
228 258 226 234 220 240 230 252 232 238 222 224 228 228 228 232 236 218 226 228 222 204 212 212 216 190 188 188 192 198 200 200 188 206 240 208 226 240 242 232 218 210 188 198 216 208 228 232 234 242 216 214 228 224 210 210 202 202 222 212 202 204 196 192 196 212 196 196 188 182 200 200 196 194 208 238 226 250 238 252 


