P2
80 60
649
198 182 192 224 180 186 200 198 204 194 194 190 204 196 198 192 190 192 190 176 166 178 198 182 158 152 164 158 152 146 156 150 168 162 162 166 152 144 124 140 122 138 142 144 142 152 168 154 164 188 174 186 182 182 172 166 176 166 174 166 184 160 166 176 180 164 164 150 156 168 170 146 148 156 146 154 144 148 152 128 
182 178 184 198 194 184 184 194 196 198 206 198 196 198 200 188 198 194 174 192 188 164 176 168 156 154 156 164 148 156 142 158 170 152 146 170 150 152 130 136 130 144 144 132 152 146 162 154 166 172 186 172 178 180 192 180 176 168 176 158 168 170 176 162 158 176 172 154 156 168 168 154 150 160 148 148 144 156 134 126 
172 166 196 190 200 190 180 192 194 196 190 190 192 186 190 184 182 178 174 176 170 168 182 172 176 160 160 160 152 138 148 148 172 156 172 168 164 158 148 144 144 140 148 148 166 166 166 170 166 194 190 182 180 184 186 172 184 188 172 174 178 170 172 160 160 170 172 160 176 176 160 168 154 152 154 150 154 160 140 130 
180 170 182 192 182 184 184 198 184 188 192 198 210 178 198 188 178 168 186 168 168 184 180 176 168 170 176 166 168 164 162 172 182 160 168 164 174 158 146 148 140 156 150 154 156 162 166 164 176 182 188 182 202 180 180 172 196 188 176 180 178 176 170 172 174 174 180 172 170 170 172 174 154 152 146 144 154 158 154 142 
172 168 196 202 198 196 192 188 174 180 198 190 192 198 186 194 190 198 180 182 168 164 176 180 182 166 154 168 178 186 164 188 168 170 194 180 178 174 158 156 156 158 160 164 160 184 166 190 180 200 186 210 204 212 180 192 186 178 196 190 174 164 176 186 176 182 170 166 170 180 194 174 172 174 156 158 158 150 152 146 
188 150 194 208 194 190 194 198 190 182 186 208 192 194 206 196 194 180 182 178 174 184 182 192 182 184 176 188 186 174 174 174 184 174 172 182 178 174 156 144 156 164 170 162 170 182 180 182 184 196 204 206 202 200 184 196 196 188 188 188 190 168 170 172 172 170 182 176 172 184 188 188 176 166 166 164 172 168 160 138 
172 166 202 192 202 202 186 196 196 206 210 210 214 190 200 200 196 198 172 190 180 188 192 190 184 186 178 182 186 180 158 188 204 188 192 190 198 202 180 174 166 164 170 168 178 178 176 190 188 210 210 198 202 198 210 194 204 186 182 180 176 188 190 168 184 190 188 176 182 186 190 186 174 180 176 178 166 166 160 154 
186 172 186 214 204 198 184 216 206 208 214 202 212 214 198 210 188 202 196 204 192 188 188 196 182 194 184 184 182 186 180 190 204 188 194 188 198 186 176 164 158 174 184 178 174 184 192 182 204 214 220 232 220 220 206 196 212 202 196 184 198 182 188 180 190 184 180 180 178 186 188 192 178 168 180 182 164 160 168 144 
182 174 188 208 202 210 206 206 194 200 206 202 214 226 222 202 194 202 188 190 190 190 202 192 184 190 188 176 182 190 190 198 200 204 204 206 202 180 180 172 170 178 178 180 192 190 194 180 204 208 212 212 210 212 202 208 188 194 192 206 196 182 180 184 200 188 178 190 170 200 198 184 182 170 170 180 162 180 166 158 
198 184 190 206 204 204 194 202 188 212 214 212 214 200 216 196 206 208 192 198 198 188 194 200 186 180 190 186 186 198 188 208 210 198 214 206 210 190 174 188 174 184 204 182 204 198 200 208 202 204 226 208 218 216 196 192 196 198 198 194 188 190 188 176 188 194 202 184 198 188 190 192 200 184 162 190 170 186 168 156 
180 176 196 208 188 208 196 196 202 194 198 208 192 194 212 208 204 188 192 202 188 198 198 206 190 172 188 178 180 188 198 202 204 194 200 214 220 196 188 194 214 230 262 252 224 204 188 202 198 200 220 222 220 202 210 188 190 180 178 202 204 184 182 176 190 184 184 184 186 190 192 196 208 188 180 186 180 190 166 166 
196 172 204 198 204 196 208 208 194 196 200 204 208 196 204 194 194 198 186 198 194 198 198 222 180 198 182 178 192 180 204 194 204 214 210 230 214 212 218 252 359 428 492 496 351 234 206 196 212 208 224 218 208 200 202 192 202 208 202 218 216 208 208 196 196 180 190 184 188 198 202 206 194 184 190 192 180 182 168 150 
178 172 204 196 208 188 198 204 210 184 202 204 204 222 204 192 202 204 186 188 196 198 184 214 180 172 188 188 194 208 190 208 200 208 234 260 270 230 226 264 422 498 537 554 537 349 224 212 216 210 226 210 210 218 228 236 250 276 262 284 296 268 266 250 240 226 210 190 208 206 192 212 198 198 192 192 184 194 174 170 
188 172 196 210 186 204 206 186 198 190 210 200 206 208 192 184 194 206 190 210 178 192 186 196 180 184 174 186 180 188 190 216 220 230 304 334 310 300 266 244 250 456 523 549 581 523 300 228 234 218 238 238 220 246 268 302 312 320 314 365 347 324 304 276 284 276 260 244 240 256 234 226 244 242 234 228 206 202 194 182 
202 190 196 202 212 194 198 198 196 196 208 200 194 194 186 196 200 190 192 192 184 196 204 196 174 184 194 186 192 190 216 230 274 353 395 270 148 134 166 190 214 336 387 467 529 502 365 286 280 256 264 250 230 262 294 320 290 336 344 401 349 328 332 312 304 300 286 290 340 359 338 342 346 375 397 391 347 296 258 212 
178 184 200 202 192 198 180 194 186 198 194 194 206 194 188 198 182 206 190 186 202 200 208 192 184 190 190 204 200 204 198 270 397 373 316 198 114 140 162 228 192 238 250 312 361 349 344 330 332 254 258 222 204 280 330 342 340 334 344 349 347 353 318 322 318 324 300 330 381 373 367 371 371 422 459 473 448 452 416 330 
188 170 204 188 210 182 198 196 176 196 202 202 218 202 200 190 202 200 200 180 190 192 192 210 200 196 200 216 218 218 228 365 463 385 383 387 367 361 238 168 112 184 238 288 340 344 326 324 304 262 266 230 184 274 300 310 310 316 326 316 344 369 334 342 347 330 314 363 414 420 407 397 395 424 442 459 463 465 452 448 
182 174 204 190 200 192 190 192 194 208 194 204 216 210 210 196 212 204 198 202 212 198 200 220 216 216 214 208 218 232 250 410 426 393 399 397 424 375 228 116 114 252 320 328 353 346 322 324 326 282 238 244 218 252 262 292 284 302 304 310 357 332 340 373 365 353 330 399 452 456 422 416 416 448 465 467 469 469 452 450 
186 174 204 206 200 198 202 202 210 190 204 204 206 208 212 208 222 210 212 204 206 216 232 266 276 258 244 230 244 238 254 383 405 397 395 428 438 346 210 94 156 258 349 359 367 326 316 312 328 306 252 252 230 268 280 294 298 300 282 314 351 355 328 349 361 346 326 399 454 444 416 430 440 448 471 475 496 488 475 473 
200 186 198 206 200 198 196 198 204 210 206 206 202 196 204 208 210 204 198 188 226 236 290 361 344 342 359 412 322 274 284 353 377 410 418 383 369 276 152 90 162 272 330 353 351 338 278 270 310 296 258 224 254 286 316 312 302 284 292 316 332 338 336 346 349 367 357 393 420 430 418 410 407 436 471 477 483 496 485 463 
186 196 196 226 214 198 192 218 200 194 204 212 204 206 208 200 206 206 198 212 228 300 371 412 426 438 519 566 523 469 461 418 367 393 412 379 304 242 122 77 150 274 324 346 359 365 300 306 316 320 204 142 244 292 294 302 298 304 324 344 353 338 338 347 342 363 387 403 373 420 409 412 410 426 448 508 502 492 490 479 
190 194 218 202 204 200 194 200 202 204 190 204 212 204 206 212 202 198 208 220 248 344 430 465 479 562 580 599 574 554 574 549 308 391 456 379 296 212 130 49 134 254 342 346 363 351 332 349 369 328 328 184 170 220 284 296 330 344 342 342 338 346 334 338 377 359 373 377 375 426 414 397 414 438 469 496 498 518 479 457 
190 194 190 210 202 186 204 202 194 192 212 204 212 208 190 200 208 202 212 220 254 347 446 494 550 639 585 535 541 570 572 562 357 314 459 409 300 242 186 108 120 218 312 361 359 342 332 383 385 361 318 130 27 148 282 314 320 336 326 328 332 330 322 347 363 353 361 355 365 426 430 430 442 436 473 481 487 477 432 373 
178 184 196 194 198 194 182 200 196 200 210 188 210 212 214 208 198 210 200 224 268 355 471 523 580 616 580 450 496 558 537 576 434 426 504 416 336 332 322 250 200 222 280 324 347 322 344 373 393 336 302 222 90 116 222 272 292 306 318 316 296 282 300 316 330 330 349 328 340 418 414 409 426 416 428 450 407 357 284 246 
192 192 204 206 196 198 204 212 198 216 204 212 196 216 208 194 214 198 218 214 240 328 405 428 487 568 558 440 535 545 512 570 452 450 473 410 405 401 375 324 250 224 210 262 318 304 347 351 351 302 292 246 176 208 268 276 278 250 250 242 254 228 262 296 318 320 338 314 328 310 292 296 320 288 286 284 256 248 220 220 
192 182 202 208 198 202 200 190 204 204 206 204 202 214 210 182 202 208 196 222 222 260 268 304 347 446 564 552 558 430 424 492 414 405 403 381 405 416 409 397 284 248 238 242 316 296 328 324 320 302 264 232 184 236 250 232 244 182 184 200 216 220 240 276 308 318 320 306 300 274 240 254 246 220 220 226 212 228 202 202 
182 190 204 206 194 200 194 190 194 194 200 208 206 194 194 194 198 214 206 204 208 222 228 248 242 262 314 284 290 258 256 338 393 389 399 363 383 395 389 363 338 278 280 284 310 296 326 336 302 298 272 242 252 238 204 176 168 208 172 148 202 220 250 284 318 306 308 286 286 262 238 242 220 216 210 190 208 206 190 192 
188 192 206 204 188 184 190 202 194 192 204 198 196 208 198 190 188 192 188 198 196 212 208 214 210 228 214 216 224 232 228 282 375 397 381 353 347 342 308 300 280 306 280 280 262 274 332 355 320 264 312 270 232 192 100 59 134 224 216 230 216 232 258 258 268 260 264 262 256 260 234 218 222 200 196 182 194 202 174 180 
190 192 210 206 200 200 174 202 182 194 200 200 190 198 194 194 198 196 182 194 190 204 196 202 208 208 188 206 206 216 206 248 308 442 432 353 286 194 142 192 226 292 272 242 238 336 461 510 461 418 330 256 244 202 194 194 210 210 206 208 214 212 216 226 222 238 250 252 228 242 230 214 216 198 182 192 190 196 190 184 
186 192 190 198 214 200 188 196 200 208 192 194 188 190 184 194 182 196 192 184 198 202 202 200 194 196 202 198 190 208 202 226 246 405 479 407 240 41 0 2 110 232 336 361 346 420 529 574 583 498 296 256 250 256 236 226 210 210 198 208 210 216 218 234 256 252 256 252 250 232 220 226 216 190 178 186 200 194 190 178 
184 182 196 196 186 184 188 206 176 190 186 196 192 192 204 198 196 212 192 204 204 214 210 200 204 200 202 198 208 214 210 244 244 288 430 420 276 90 22 170 184 134 306 512 496 531 560 601 564 344 264 246 270 254 226 222 218 214 212 200 200 206 222 248 278 276 268 262 250 236 230 214 202 192 184 176 184 186 176 160 
176 192 194 196 204 188 194 218 190 198 192 202 202 194 192 200 198 206 198 208 200 206 210 216 210 198 216 210 226 230 218 238 254 266 310 434 424 397 318 272 226 210 359 543 527 549 570 601 418 256 250 252 242 244 234 230 230 214 210 202 210 204 226 246 282 284 278 270 258 244 238 226 206 202 176 176 188 188 186 172 
172 174 196 198 196 198 178 208 182 202 194 192 202 212 202 198 188 200 206 190 196 210 220 218 204 206 216 218 214 232 228 266 284 302 320 351 407 448 383 340 302 286 434 519 527 529 552 450 276 244 254 252 260 244 230 230 214 208 202 204 202 204 224 254 290 280 272 264 252 246 228 224 214 206 186 186 184 198 180 160 
176 202 204 202 188 208 202 204 204 190 200 192 220 210 212 204 208 208 196 202 202 212 222 210 222 200 226 214 280 342 410 459 479 479 479 467 467 444 469 448 412 379 424 450 459 440 403 270 238 244 260 252 264 254 250 238 234 222 218 200 216 224 228 260 286 292 284 270 256 254 238 228 216 202 192 184 180 184 176 178 
176 178 192 204 200 202 186 200 198 196 206 204 206 208 212 212 196 222 206 204 208 218 220 216 220 230 226 282 428 459 461 471 457 475 483 477 473 463 514 502 506 510 494 410 272 240 224 234 250 238 250 250 264 250 242 232 234 222 222 230 216 204 226 268 284 286 272 266 270 248 240 228 222 210 184 186 174 202 190 184 
162 188 188 206 206 196 192 206 194 200 208 194 208 220 216 206 224 216 200 202 210 216 204 218 230 230 242 363 492 483 446 418 422 444 465 457 456 456 496 488 496 516 533 514 422 272 246 258 256 258 262 252 262 266 254 250 242 218 248 256 250 238 230 228 240 244 244 256 260 254 248 236 216 200 182 188 192 186 182 174 
190 168 186 210 206 214 198 198 194 198 210 206 202 204 224 214 210 216 200 204 220 204 216 226 220 238 276 434 506 490 473 444 403 385 407 450 436 459 498 502 510 510 518 523 521 450 344 296 292 304 276 282 286 284 264 260 234 244 284 278 284 268 242 230 234 236 232 252 250 262 250 250 218 218 188 182 184 196 172 180 
194 182 196 200 192 190 192 196 194 198 202 204 198 210 210 218 228 244 226 228 220 226 228 250 230 256 351 461 479 465 461 436 409 401 397 371 379 401 473 487 516 519 502 516 525 508 452 332 302 292 300 308 304 306 314 302 288 292 322 318 300 286 258 236 232 224 220 242 240 248 232 230 186 158 148 132 154 176 162 178 
186 184 210 206 202 202 208 218 204 202 198 208 214 224 228 262 332 412 428 393 359 355 262 244 254 310 420 459 465 456 452 444 418 407 365 332 290 322 351 373 420 463 479 490 514 529 496 424 340 324 320 326 336 338 344 328 347 357 355 304 272 272 262 244 212 238 230 236 232 230 238 232 176 150 124 92 100 152 158 210 
190 194 210 206 194 200 188 188 204 200 208 200 206 228 258 334 504 601 583 599 574 560 519 377 296 412 502 473 465 471 465 469 430 410 355 298 280 276 296 318 355 409 430 469 500 504 504 475 405 318 336 347 347 363 340 342 359 344 357 228 124 286 280 260 222 220 250 266 262 268 310 340 359 347 310 242 186 160 182 254 
190 192 206 214 198 204 202 192 202 196 204 206 208 232 310 444 612 630 612 620 607 574 576 564 521 558 539 475 450 459 461 456 442 377 318 268 258 270 292 306 330 393 397 416 459 475 487 471 463 377 346 351 353 369 359 357 353 336 326 286 214 298 294 272 250 234 246 282 238 268 326 361 393 434 432 405 367 300 274 296 
194 194 210 196 204 186 192 200 208 212 192 200 210 222 334 481 593 628 641 649 611 550 475 500 531 574 566 490 467 438 397 426 399 332 282 260 242 282 314 320 357 387 395 391 420 442 457 467 471 434 363 351 375 373 355 347 359 355 326 326 294 308 310 298 286 260 254 248 242 242 310 349 389 418 428 420 365 342 330 318 
194 182 204 202 182 192 194 190 196 202 200 210 210 228 308 463 562 595 632 647 636 490 422 512 502 556 556 475 438 430 391 383 353 310 280 234 232 282 332 340 346 371 381 377 391 401 395 440 467 463 457 414 403 405 349 353 347 342 347 342 310 310 312 318 326 326 298 260 260 284 324 353 375 399 385 367 340 334 312 310 
192 184 194 216 180 202 198 192 190 190 202 208 198 210 262 424 554 570 589 630 614 539 494 488 498 543 531 448 432 418 375 359 326 298 264 202 208 262 306 347 359 383 375 373 369 363 373 379 456 481 502 465 457 463 409 351 340 338 332 336 336 320 318 330 334 365 336 318 282 294 326 349 367 363 357 340 342 338 332 334 
182 178 192 204 200 200 194 190 202 196 196 206 206 220 226 334 483 531 562 597 566 566 550 535 519 535 519 442 403 379 353 347 316 280 240 176 212 304 310 347 363 363 379 373 361 361 361 349 367 473 512 485 485 481 434 361 326 306 300 294 296 298 300 314 324 318 320 288 274 260 302 349 375 371 367 349 377 381 349 330 
176 196 202 214 202 200 196 202 204 186 200 196 196 198 212 238 288 338 355 405 456 430 391 328 344 488 477 454 424 387 369 347 314 258 162 136 198 276 336 353 361 377 353 344 338 332 342 326 351 473 490 483 492 502 418 326 282 264 240 238 242 238 246 228 240 240 230 226 236 264 342 371 389 383 397 395 391 383 296 270 
166 170 194 202 210 200 210 198 204 204 208 192 214 212 216 222 236 224 226 238 244 244 246 228 252 395 456 461 438 412 399 379 310 236 126 134 144 236 318 351 355 363 340 314 332 308 338 328 375 475 485 479 490 450 324 302 296 256 240 238 252 232 208 188 206 214 222 220 262 342 379 395 409 420 422 426 420 302 246 244 
182 186 198 204 212 192 200 208 194 200 208 208 210 216 214 212 210 210 206 210 224 212 218 222 232 332 469 446 444 410 397 377 334 246 132 104 92 222 304 336 351 355 338 324 322 310 353 363 428 473 510 481 452 353 314 300 312 290 294 280 300 298 266 224 230 226 222 246 326 363 369 414 416 420 426 422 324 252 238 242 
174 182 204 222 210 206 204 198 194 200 218 200 216 210 208 218 200 212 202 210 202 220 218 216 220 270 444 454 414 381 391 381 361 260 158 110 98 224 294 324 353 355 351 334 344 365 414 436 457 452 452 446 375 336 304 308 304 320 308 302 310 302 310 300 282 248 250 308 353 365 383 393 418 401 405 349 250 246 216 208 
184 174 190 212 210 204 206 198 190 206 202 202 210 216 202 202 206 200 202 204 204 206 198 206 210 250 430 450 434 375 330 349 346 308 242 168 170 254 322 346 381 373 385 399 434 457 473 469 444 401 383 369 359 332 306 300 320 328 320 296 308 310 304 316 304 302 324 340 342 349 367 375 407 397 349 256 224 228 210 208 
172 190 200 200 206 194 208 196 200 186 204 212 198 208 208 198 202 210 208 200 204 206 208 202 210 228 379 459 430 410 349 344 353 359 361 340 334 361 377 401 410 438 471 485 504 496 481 454 401 355 385 367 355 355 328 328 326 302 326 302 316 322 300 302 316 322 338 314 310 318 332 347 377 328 244 236 216 204 204 194 
174 190 204 198 210 216 196 200 204 204 204 192 200 192 206 222 200 202 194 198 198 188 200 204 192 222 302 430 428 424 426 422 436 416 412 403 428 481 475 465 475 506 519 527 529 498 450 357 342 328 349 369 347 357 332 338 340 316 338 320 322 328 322 320 324 320 312 294 294 270 284 310 300 230 212 214 206 200 190 200 
180 186 190 196 194 212 196 186 200 206 206 204 208 226 216 210 204 204 204 194 200 198 206 192 188 194 236 320 410 430 440 446 450 440 438 424 483 506 508 494 512 535 545 549 510 444 332 286 282 296 330 344 353 347 346 326 332 322 328 326 326 318 314 347 336 346 330 302 266 258 270 244 216 200 200 180 202 198 196 192 
182 190 206 206 208 194 182 190 182 198 198 188 210 212 208 202 200 194 192 200 194 194 196 202 190 198 194 214 242 332 377 426 430 430 416 412 504 502 487 498 519 537 519 454 373 260 246 224 242 248 282 296 326 322 330 344 349 340 338 342 332 342 351 342 371 349 326 274 222 238 232 188 184 190 196 206 208 194 192 192 
180 186 198 210 198 190 186 186 192 194 194 186 200 200 210 198 188 200 168 190 188 208 182 202 178 190 194 192 188 206 218 264 290 322 342 355 448 465 461 463 475 457 355 246 212 200 192 194 198 208 224 216 238 266 306 324 324 344 332 361 363 383 373 379 373 347 298 254 192 194 184 166 158 186 188 188 190 208 180 190 
188 178 204 204 188 174 184 194 176 184 186 208 182 196 194 202 192 190 188 180 204 176 186 180 188 170 188 174 182 186 184 210 204 194 208 216 242 244 262 286 270 252 216 190 186 196 200 182 190 190 210 202 204 212 202 238 260 278 298 342 346 367 369 373 365 328 300 248 188 184 186 162 168 190 200 192 184 184 180 186 
184 170 190 202 192 174 170 190 176 182 186 192 190 184 184 202 178 178 176 178 166 186 184 180 170 166 172 166 174 166 172 176 180 176 176 180 178 172 184 172 180 178 168 160 178 178 170 170 172 184 204 208 208 186 188 182 194 202 206 230 240 234 254 266 278 254 218 192 156 158 170 156 156 176 188 186 180 196 184 192 
152 156 174 180 180 174 164 170 166 162 176 168 180 190 194 186 178 178 174 174 166 170 172 166 160 160 160 152 164 160 150 154 154 150 164 172 148 148 136 140 144 156 140 158 166 160 166 164 166 180 182 178 176 182 174 176 172 178 166 178 172 156 156 176 172 164 164 164 150 150 140 130 130 170 190 174 178 188 178 188 
158 164 158 166 154 164 166 160 158 154 180 174 178 190 186 170 162 182 164 172 166 166 156 176 158 152 144 162 158 150 162 150 164 144 152 164 148 130 130 126 128 134 138 130 150 148 154 166 152 160 176 182 176 180 168 166 166 166 158 148 164 156 154 152 154 158 160 138 140 148 148 138 122 172 178 174 176 196 166 154 
176 164 164 176 158 174 170 182 166 158 164 166 180 158 176 176 178 162 160 172 156 150 160 168 160 152 128 146 140 150 160 156 140 152 156 170 168 156 152 150 146 160 156 160 150 150 162 162 172 184 186 174 186 170 168 164 158 158 166 152 138 162 144 140 148 136 152 140 124 126 138 136 126 146 144 188 156 180 174 182 


