P2
80 60
613
213 201 207 201 197 197 211 189 203 197 207 203 207 207 193 209 201 187 197 171 173 169 167 159 165 155 161 141 143 145 145 141 159 159 145 147 145 163 141 143 137 145 127 111 123 125 129 137 171 173 167 169 155 163 153 155 147 147 157 143 161 139 147 151 151 161 155 157 161 165 151 159 155 127 117 131 131 155 145 135 
201 187 191 203 189 191 209 197 199 201 209 197 209 191 191 185 173 183 171 173 167 161 153 157 159 131 149 155 135 145 137 141 159 155 147 161 153 165 159 151 137 161 149 127 121 125 139 137 169 169 171 153 159 143 157 147 147 165 163 159 155 157 155 137 143 141 157 153 153 165 145 133 151 123 133 125 127 129 139 109 
221 189 195 181 187 195 193 205 187 205 203 203 205 187 191 193 179 175 179 181 159 161 159 163 161 157 149 149 153 147 145 151 165 157 157 159 177 167 167 147 155 137 147 137 139 145 143 155 157 179 191 179 175 181 169 167 163 161 155 153 155 163 155 149 149 167 157 157 165 159 163 165 153 135 131 151 145 147 149 133 
205 193 205 199 183 187 195 199 195 197 201 199 205 177 181 185 173 171 187 173 165 167 151 167 173 155 155 159 161 159 153 159 177 177 171 165 179 185 163 177 157 153 151 141 135 143 139 145 175 193 187 191 205 235 249 221 191 213 171 145 143 169 147 163 153 151 159 165 163 167 165 159 157 129 141 145 145 141 163 147 
215 185 187 197 199 191 201 213 205 201 201 197 193 195 191 205 187 199 195 173 167 171 159 175 183 165 165 165 177 165 169 167 167 189 181 179 189 173 169 163 163 169 153 153 143 165 163 183 187 231 233 283 332 377 391 350 269 219 189 175 169 159 161 167 157 157 171 161 175 173 171 173 171 141 133 145 143 147 169 157 
219 181 207 203 185 187 209 205 191 187 215 197 199 199 209 193 191 193 181 183 175 175 169 167 183 169 169 171 173 171 169 169 181 189 179 183 191 199 195 177 171 177 169 191 191 245 283 273 320 346 393 430 447 434 403 365 352 310 209 171 165 155 165 165 163 165 163 171 169 169 175 167 161 159 149 157 167 149 169 153 
209 187 209 199 197 215 209 213 203 203 193 209 203 205 211 215 189 203 199 187 187 183 183 171 187 173 185 169 179 175 179 183 193 195 187 207 211 209 201 187 189 221 269 360 434 473 473 438 418 397 399 434 430 414 393 371 338 255 201 165 169 181 173 161 177 179 169 171 171 187 185 161 157 167 153 151 153 173 171 157 
211 175 197 209 211 207 193 207 201 211 201 199 203 203 197 205 187 185 201 185 181 183 159 179 181 183 177 175 177 183 177 177 197 191 195 195 247 233 243 269 328 409 465 482 471 473 442 434 422 324 320 297 310 336 318 297 221 209 191 179 181 175 165 167 177 179 165 187 183 177 173 183 177 159 157 153 159 167 169 153 
213 183 193 207 201 201 195 217 217 207 197 201 209 207 199 213 193 195 197 189 179 167 179 171 183 169 187 165 179 189 185 193 225 243 267 261 285 310 414 428 482 507 484 494 474 471 418 373 279 213 207 225 225 229 215 205 173 211 191 189 177 161 181 165 177 193 179 189 191 201 197 181 175 165 161 175 169 175 169 157 
205 185 191 201 195 205 207 193 191 211 207 205 199 191 197 207 195 181 195 183 177 175 179 179 191 185 193 163 193 185 187 241 308 338 308 275 306 320 373 473 500 500 453 418 362 338 261 199 219 197 231 209 211 213 203 191 167 203 201 203 203 209 197 203 201 219 207 195 191 197 189 191 223 175 163 179 183 177 169 163 
197 185 205 187 209 193 193 201 197 191 201 199 193 183 203 203 189 193 193 183 175 185 181 173 179 183 189 167 185 215 253 375 409 360 306 275 306 310 320 379 436 385 287 231 199 195 185 199 217 219 211 217 245 265 247 245 247 263 257 237 247 253 261 271 275 255 253 225 209 221 241 281 308 306 293 279 255 233 211 177 
195 199 211 207 203 199 203 205 191 197 199 205 189 191 197 207 189 193 189 189 177 191 183 187 187 181 189 177 199 239 373 391 381 291 201 157 177 233 299 285 241 199 179 203 203 207 185 199 237 229 227 227 227 271 263 273 261 267 289 287 304 277 283 271 271 273 251 275 295 306 326 354 379 412 416 401 381 371 367 306 
191 199 211 193 207 197 203 207 197 195 197 199 195 207 195 203 189 203 193 187 179 185 165 181 183 163 185 185 209 342 411 385 338 273 259 191 205 247 279 231 235 219 213 239 271 281 257 229 245 237 229 223 247 267 269 265 261 255 255 245 247 259 295 287 291 295 265 279 310 342 348 346 367 393 401 409 405 401 405 387 
221 191 201 187 185 207 203 193 197 211 199 195 207 185 189 191 197 197 183 181 169 177 171 187 187 179 177 175 203 367 403 385 387 387 354 310 277 249 213 187 177 209 243 281 281 279 265 241 265 247 221 217 245 253 245 269 267 263 267 255 257 265 297 281 287 275 291 283 340 342 332 336 356 365 375 375 401 383 389 391 
221 179 203 201 197 199 199 187 187 201 203 187 191 193 181 183 189 185 181 173 169 191 185 187 177 193 193 183 217 348 395 405 412 401 407 326 259 199 161 155 157 191 255 273 285 293 261 243 257 265 229 211 261 259 259 247 257 261 265 263 283 295 291 287 289 275 277 277 332 342 332 334 358 377 348 358 365 360 354 346 
211 181 207 197 187 199 193 191 199 205 189 195 187 187 191 189 191 187 187 203 181 193 191 195 217 235 213 207 251 344 389 401 416 414 395 301 229 147 127 149 243 251 253 289 295 285 251 249 253 259 221 185 239 261 297 265 269 257 265 269 289 285 283 289 289 271 261 257 310 308 275 289 302 287 253 245 241 235 219 215 
197 187 203 193 191 177 191 191 199 203 195 193 201 187 199 193 189 193 193 187 201 211 229 314 432 420 344 314 350 354 387 412 428 424 377 293 187 113 141 199 301 312 306 283 283 287 273 251 259 261 203 179 249 269 275 273 277 261 291 283 285 285 283 291 273 245 259 251 227 217 229 203 215 203 177 187 185 187 185 187 
195 187 193 189 197 199 193 201 197 195 187 201 203 197 201 199 199 197 205 213 259 285 346 484 519 531 509 536 552 385 381 428 414 367 330 225 139 117 149 225 297 326 328 289 269 285 275 261 275 241 221 197 227 275 297 281 283 287 291 285 299 287 271 263 237 231 239 235 225 229 239 213 219 197 185 201 187 211 199 175 
201 193 211 211 207 191 205 201 201 181 199 207 205 211 203 191 213 201 213 225 322 385 515 573 592 583 533 575 589 401 320 428 405 324 261 193 133 125 157 245 310 326 310 289 289 293 289 265 267 233 209 225 235 293 306 287 293 291 291 299 306 283 233 237 235 237 233 231 237 237 227 237 211 201 179 197 213 199 197 189 
203 189 195 191 199 187 203 203 207 203 207 211 207 185 197 215 203 201 215 289 387 461 573 566 509 569 521 556 571 451 350 414 411 314 251 169 129 109 169 259 320 328 318 289 293 297 283 271 257 147 171 219 243 269 281 314 306 299 301 306 314 306 289 257 267 265 253 259 239 227 221 221 229 213 209 213 203 229 209 195 
201 203 203 199 203 197 197 209 199 197 205 223 207 205 189 191 211 199 221 320 432 550 579 560 438 525 496 533 571 453 385 442 424 330 275 213 155 123 181 271 320 344 316 302 283 291 299 263 243 101 127 201 223 273 289 302 295 287 316 322 328 324 316 310 295 289 293 283 259 245 257 293 338 318 297 304 312 320 338 318 
191 187 193 193 205 193 209 197 213 201 197 201 209 207 207 209 191 211 223 297 422 473 554 538 478 504 488 447 467 457 416 459 416 358 350 308 257 213 173 287 328 344 322 312 287 295 297 275 261 185 167 125 143 235 251 289 293 299 301 306 318 322 314 308 304 310 314 299 310 322 344 367 369 369 373 381 362 375 375 389 
205 195 201 197 203 205 209 195 197 203 207 205 209 199 195 207 191 207 203 255 316 328 367 447 509 517 407 273 261 334 403 409 418 381 375 365 330 265 217 291 299 332 334 312 283 310 312 275 273 235 195 89 30 155 249 285 295 291 302 330 301 316 308 322 320 318 318 312 328 375 358 365 381 377 387 389 395 393 381 348 
193 195 211 193 201 189 185 203 197 199 207 195 199 197 203 201 195 219 197 205 221 221 227 225 231 255 239 215 243 259 354 371 401 385 373 362 338 289 253 271 251 306 338 301 308 320 299 289 265 251 207 117 57 159 243 253 269 265 293 283 269 287 289 299 299 301 318 299 360 369 364 358 369 364 365 369 379 350 332 265 
197 191 201 213 197 179 201 205 203 209 199 195 203 191 201 201 211 197 191 197 195 195 197 211 197 197 215 211 213 233 312 375 360 322 314 346 364 310 283 289 257 285 308 304 304 310 310 297 301 271 245 193 159 207 263 257 247 225 235 247 245 269 279 275 277 275 283 281 322 330 354 328 344 354 336 289 271 245 239 195 
201 179 187 197 201 193 199 189 201 201 201 203 193 201 189 187 205 197 189 195 191 189 191 199 187 193 199 209 211 239 287 418 377 289 195 177 251 299 318 336 316 295 293 257 265 253 247 281 279 293 261 225 207 241 239 227 209 175 201 211 231 229 243 235 227 233 253 247 263 287 281 297 267 239 221 203 199 197 189 191 
189 179 195 197 183 193 193 179 185 187 195 197 193 189 185 193 203 205 191 189 179 193 191 199 203 181 195 203 207 215 239 375 373 299 103 0 101 312 338 367 451 445 409 373 336 283 273 269 267 273 261 239 233 225 209 189 189 181 197 185 205 217 219 229 237 229 237 225 219 231 235 209 205 187 191 173 175 183 185 183 
199 185 201 199 189 169 185 207 181 193 203 181 201 195 191 189 195 193 191 185 173 179 183 183 177 191 191 197 193 199 197 245 332 344 277 263 310 348 326 383 480 492 488 480 465 443 401 364 277 259 243 233 239 213 201 185 189 179 183 193 193 205 211 209 209 199 225 217 227 223 221 199 205 187 179 177 171 177 181 175 
197 197 191 197 187 191 191 191 185 179 195 195 207 187 183 197 193 187 187 193 175 181 171 179 177 171 177 185 177 195 183 213 245 273 304 354 342 340 299 393 478 504 498 498 480 478 496 478 434 342 267 245 231 229 199 189 189 189 193 175 193 183 191 199 197 215 241 235 211 211 209 205 201 173 171 169 171 185 193 169 
195 189 195 193 187 189 185 193 199 191 197 193 187 185 177 189 185 191 191 193 175 175 179 183 185 181 193 183 195 187 187 199 223 221 227 269 316 334 299 261 279 342 401 457 461 480 486 476 482 482 420 285 259 269 273 287 253 229 207 195 179 185 189 217 227 227 239 231 239 221 215 199 203 167 161 167 187 179 171 175 
199 187 193 201 195 193 195 195 185 197 183 193 197 179 193 205 201 195 189 193 193 189 183 185 195 189 189 195 199 201 199 205 215 227 217 219 235 263 241 203 205 209 221 267 365 434 449 451 474 473 473 438 397 422 407 385 326 299 247 199 187 193 203 205 243 251 247 241 243 221 233 207 203 169 165 159 161 167 171 157 
191 189 181 197 201 183 185 195 193 201 193 187 203 191 191 195 189 201 185 187 187 195 177 179 195 187 199 187 203 207 205 209 231 233 245 237 259 267 265 221 203 211 201 197 211 249 261 334 324 346 369 420 407 440 430 393 350 334 334 197 187 181 205 211 247 257 249 245 243 229 223 205 177 169 157 159 167 165 185 153 
195 179 189 199 199 195 197 197 185 185 195 205 217 195 203 201 195 201 203 205 187 197 187 193 201 197 207 203 207 207 205 233 271 285 306 336 354 340 340 287 279 267 277 253 253 261 275 241 255 273 297 334 318 352 393 383 379 383 308 209 187 187 199 217 243 249 251 253 247 231 213 211 197 183 159 171 171 173 161 163 
179 187 187 207 193 207 205 197 195 197 213 193 199 193 191 203 199 211 219 209 205 191 193 195 207 205 203 207 233 253 289 346 391 397 405 391 377 358 397 449 434 428 438 432 434 436 449 420 422 389 354 328 334 328 389 407 407 407 387 263 237 217 221 219 239 239 253 255 253 237 223 213 193 187 165 169 155 167 169 167 
193 177 201 199 189 197 189 193 197 201 201 205 193 201 205 201 195 201 209 205 199 205 193 207 201 201 209 217 302 342 365 395 403 412 395 373 362 350 416 482 473 463 474 465 432 449 436 438 449 447 445 409 387 377 426 416 469 459 492 387 293 259 239 237 243 231 225 251 249 239 237 227 219 201 193 187 171 177 177 167 
183 185 207 197 193 185 191 195 187 201 201 199 211 199 203 215 199 221 229 207 197 201 201 201 207 201 213 259 391 387 365 365 385 393 401 377 358 367 416 478 486 486 484 461 438 438 434 443 459 438 440 422 401 407 449 442 471 428 453 391 336 302 279 257 255 233 235 241 247 251 259 285 291 297 273 267 267 233 217 205 
185 187 195 195 191 191 191 187 197 193 199 189 199 189 213 235 275 291 322 381 350 247 239 207 197 221 243 350 432 416 393 383 364 367 397 383 364 373 412 459 438 422 436 412 412 403 414 407 383 381 399 411 395 409 453 449 422 367 377 350 356 310 302 263 255 235 239 245 259 273 306 350 393 399 391 381 375 356 346 320 
183 183 185 199 177 191 191 203 185 191 185 205 201 203 213 293 411 445 492 535 550 496 340 275 219 237 283 381 411 414 387 371 338 320 338 330 352 352 364 362 328 332 344 350 340 326 340 326 318 322 338 342 346 362 397 399 373 364 362 322 265 308 291 283 265 237 231 257 239 255 316 350 371 397 405 407 399 383 365 346 
197 191 199 185 199 193 211 209 199 197 193 195 203 211 233 383 476 469 513 558 569 548 407 391 350 291 362 411 393 387 356 356 340 340 318 269 269 281 273 251 245 304 332 322 318 302 308 308 318 340 340 340 348 354 375 371 379 358 350 253 185 269 283 271 253 247 219 227 205 227 295 332 369 379 395 409 393 389 385 365 
195 193 191 199 183 189 205 197 193 205 195 193 187 203 273 418 490 494 540 592 552 521 484 457 442 399 407 389 375 356 346 352 362 377 322 253 221 237 219 221 253 308 316 297 306 293 281 281 314 322 342 344 352 379 360 348 364 354 324 237 161 275 275 269 249 229 221 197 207 227 283 314 328 364 375 397 387 381 358 334 
191 189 197 211 189 199 191 197 191 199 195 205 205 221 277 418 496 504 554 613 564 556 542 562 496 473 428 403 387 362 342 350 360 338 269 211 177 191 219 237 275 297 301 291 283 275 265 267 295 310 346 352 362 367 358 346 346 334 316 310 273 273 281 267 259 239 237 219 219 261 275 301 310 330 328 332 330 295 279 231 
201 189 181 183 195 173 181 193 199 197 181 193 191 205 295 414 473 492 554 589 567 589 560 575 511 465 451 385 377 360 338 316 318 269 221 181 185 239 255 279 289 299 295 283 279 267 275 267 265 287 324 334 332 346 340 324 316 314 322 308 291 273 287 273 243 233 237 253 243 245 237 237 211 197 173 179 193 193 193 181 
207 187 189 169 177 185 189 185 191 193 199 189 187 205 239 358 438 457 519 581 569 577 577 569 511 490 440 364 360 338 310 302 289 261 211 169 213 273 293 314 293 293 293 287 293 281 283 265 243 265 310 312 318 314 316 316 302 306 302 297 275 277 271 257 241 241 195 227 227 221 205 175 161 157 133 153 153 177 187 169 
213 181 183 189 187 189 203 187 191 187 187 191 205 197 201 269 336 399 455 480 480 560 556 538 500 480 428 338 334 320 301 299 271 255 215 175 209 279 310 314 291 287 293 299 299 283 275 291 259 259 320 293 312 316 312 304 295 297 308 279 265 269 253 239 201 195 193 195 207 193 189 171 149 163 165 163 171 171 171 191 
183 179 203 193 195 183 189 205 199 199 193 191 191 187 199 211 231 249 275 297 314 342 362 418 484 473 411 338 332 304 301 289 273 255 203 167 221 273 281 328 308 293 306 289 299 291 281 293 253 261 316 310 304 314 308 289 297 301 285 265 243 229 195 177 179 169 191 183 183 185 183 169 157 157 177 175 183 187 197 183 
183 179 191 203 199 195 183 185 195 193 199 185 199 189 201 209 205 217 203 223 197 203 221 247 377 465 399 367 346 310 291 297 263 241 183 123 195 269 293 314 316 301 299 281 285 271 261 279 259 249 320 320 295 312 301 301 287 261 237 209 189 181 191 179 183 195 189 199 203 181 187 177 167 157 159 169 185 195 189 191 
179 175 185 183 203 197 211 201 205 191 195 189 205 195 205 201 213 197 205 195 193 199 205 209 283 407 397 381 354 322 299 299 279 231 153 109 149 235 302 312 346 334 293 261 259 261 249 269 267 267 320 328 328 310 263 265 285 269 267 239 219 221 239 227 217 213 207 193 203 197 195 191 177 173 177 197 183 185 201 181 
195 173 197 183 203 191 195 195 191 207 191 195 207 199 191 199 181 199 205 203 191 199 199 211 233 362 387 365 340 320 291 299 285 243 147 111 141 243 302 338 354 320 277 279 261 263 261 269 263 247 267 287 277 253 235 247 285 291 289 269 271 269 283 283 299 291 267 265 229 223 195 203 177 183 169 191 185 189 191 185 
187 199 199 205 207 183 203 205 183 199 201 183 185 191 195 199 201 201 189 199 183 193 185 207 219 322 385 356 338 318 295 299 320 255 189 133 173 265 322 332 328 320 287 277 257 257 245 299 269 259 249 255 239 247 241 265 285 301 299 310 308 304 301 297 293 302 310 283 263 239 243 241 241 233 249 259 227 235 209 203 
205 187 189 203 199 203 205 199 193 201 205 189 209 205 199 187 195 191 197 181 183 175 181 191 211 287 411 362 346 330 302 301 318 295 225 167 223 273 336 338 326 318 314 291 269 269 267 308 263 245 225 241 241 249 263 273 297 306 304 297 301 301 291 279 271 273 299 255 235 217 245 267 299 328 328 358 338 338 306 239 
203 187 195 201 211 189 201 201 197 191 201 201 199 195 203 199 187 203 203 175 177 187 175 191 201 267 443 399 350 330 297 281 302 301 259 233 241 297 344 328 322 324 306 304 275 283 281 310 285 253 253 247 239 261 287 271 289 302 322 302 293 293 271 271 283 287 279 219 193 199 237 269 316 336 379 385 424 411 387 358 
185 183 197 189 201 187 193 189 191 187 195 193 195 195 201 189 195 201 195 181 189 175 179 185 179 235 389 407 365 330 289 273 267 289 281 277 257 287 275 261 301 314 308 287 279 283 291 279 285 275 257 243 253 255 251 289 271 279 304 283 263 287 267 271 237 245 245 207 201 217 259 301 336 379 387 411 436 428 422 393 
189 193 193 187 195 197 193 189 187 203 191 193 195 207 197 201 183 191 187 189 183 171 177 175 177 197 281 350 346 342 308 304 251 255 291 287 265 259 217 207 219 235 237 239 277 273 275 283 279 279 287 287 277 259 267 273 255 253 277 275 275 257 237 239 227 221 227 227 207 229 283 316 379 401 395 401 411 420 414 371 
189 193 191 195 195 195 189 199 185 207 193 197 191 199 195 189 195 189 181 183 179 173 167 185 185 189 193 231 293 344 340 328 338 328 320 318 340 387 344 241 207 195 199 189 207 217 239 293 318 295 342 344 314 299 277 269 243 241 255 247 251 229 231 213 209 205 183 199 199 227 269 320 375 383 365 387 389 393 373 318 
195 173 195 195 179 191 179 181 187 191 193 191 189 195 191 189 189 179 179 171 179 175 163 175 173 169 181 171 205 223 279 308 316 310 308 293 367 449 449 405 362 364 350 348 338 344 340 365 383 336 352 354 324 320 281 257 259 241 221 245 223 231 221 213 197 183 163 177 185 185 195 203 247 271 279 295 289 275 263 241 
187 179 169 179 169 179 175 179 189 171 179 189 191 191 185 185 179 177 175 161 165 163 153 163 163 151 167 151 167 161 187 215 251 281 289 293 428 461 459 465 453 418 428 420 401 393 397 369 350 299 285 263 235 221 207 199 221 219 223 211 199 199 189 197 179 153 159 161 167 177 171 159 167 175 199 187 187 189 201 185 
175 173 179 171 179 177 173 179 173 173 177 177 179 185 179 181 169 169 175 163 155 157 161 157 161 153 153 155 145 159 155 151 177 179 211 245 358 411 443 459 457 442 436 432 412 379 334 255 233 201 191 183 163 175 173 159 153 165 161 165 161 161 151 135 159 133 137 141 143 149 151 153 155 153 161 167 179 167 173 173 
173 159 165 169 159 175 163 161 165 171 175 169 177 169 169 179 171 161 167 151 153 137 147 149 147 153 137 141 141 137 131 139 151 141 149 161 187 217 253 308 364 371 328 297 231 197 165 143 163 169 159 167 149 149 143 155 137 141 127 141 121 123 133 127 129 125 133 133 151 135 133 125 121 141 161 155 167 173 183 171 
169 149 157 161 159 165 161 173 167 161 153 175 169 169 165 171 163 169 157 141 149 139 141 153 143 135 127 145 139 143 129 133 149 145 143 149 165 171 171 163 169 165 173 149 143 139 147 131 147 149 151 157 139 145 143 137 129 135 139 119 127 121 115 119 113 123 129 121 137 141 135 107 111 131 147 151 173 153 167 159 
189 165 171 153 153 165 149 169 177 149 163 145 179 173 163 177 163 161 161 159 147 127 137 147 141 133 127 137 133 125 127 139 135 139 141 131 147 135 155 139 151 147 131 131 119 131 133 141 153 159 157 143 133 139 133 137 129 127 147 129 115 115 127 103 121 101 125 123 113 121 125 119 109 137 133 151 149 161 167 163 


