P2
80 60
550
123 115 127 129 109 107 111 109 123 127 129 123 127 127 131 113 117 105 103 81 87 99 109 85 85 81 93 79 89 87 73 83 93 99 105 111 103 89 67 67 51 63 51 59 43 61 69 73 77 91 63 75 79 73 89 79 79 77 89 85 105 89 99 107 103 103 101 85 91 105 107 69 79 79 71 73 71 79 79 67 
123 105 107 119 123 115 103 101 117 129 129 113 121 117 105 119 119 103 97 93 101 83 81 87 87 67 79 97 85 91 65 97 85 83 93 117 95 87 65 71 53 49 61 61 53 57 71 69 67 79 81 71 69 79 83 93 85 85 93 89 105 109 111 95 87 105 111 97 85 117 111 75 69 85 67 67 63 77 71 75 
123 93 111 99 117 109 89 103 111 135 111 105 119 113 105 111 105 93 89 91 91 83 91 77 95 75 79 85 95 73 67 81 87 87 99 121 93 93 85 85 69 45 57 75 75 75 73 85 85 105 87 83 89 79 89 83 93 97 81 105 109 101 113 77 97 103 115 103 101 117 93 85 77 77 69 61 81 77 77 69 
119 101 99 101 99 111 111 115 103 113 109 123 129 105 99 107 101 83 103 91 89 101 87 89 95 89 93 97 111 99 99 111 111 101 113 109 119 91 87 93 67 67 63 87 67 75 75 79 87 95 83 85 97 81 89 85 101 91 91 97 105 99 103 95 105 115 119 107 103 107 109 93 93 83 83 65 77 91 81 71 
117 105 101 109 109 115 111 119 105 119 127 117 129 123 103 113 105 115 103 85 77 75 85 91 99 91 79 99 119 117 105 123 93 111 123 119 113 111 105 93 81 67 69 83 75 89 71 87 99 99 97 105 99 103 85 103 93 81 89 105 95 99 97 99 97 109 103 97 103 125 109 95 93 93 77 63 75 69 77 77 
129 99 109 103 119 119 97 113 123 115 113 133 121 115 121 119 109 97 109 89 91 101 91 93 99 111 97 111 129 117 105 103 111 121 121 131 127 119 97 99 87 83 85 79 83 89 87 87 99 105 93 103 99 97 93 103 95 87 87 117 119 99 111 95 111 105 111 113 107 111 109 111 105 83 85 91 89 91 81 87 
109 105 127 109 123 131 109 109 125 137 125 125 135 111 111 117 121 111 111 105 109 105 109 97 113 111 91 125 123 117 95 129 131 123 125 133 143 129 113 109 93 73 99 91 81 89 79 91 91 109 105 95 101 103 103 107 99 101 93 119 105 121 125 95 111 111 115 109 121 123 107 117 89 99 95 103 95 91 89 91 
125 103 103 109 115 119 115 133 121 135 131 127 127 139 119 135 107 101 117 99 107 105 115 109 109 105 99 125 119 123 115 121 133 127 139 129 149 129 111 101 87 87 101 97 81 91 103 111 113 117 111 113 115 109 105 111 113 107 107 123 117 111 121 91 115 127 105 113 119 117 119 107 97 83 95 97 95 99 93 87 
115 101 103 111 119 133 117 125 133 137 147 131 137 139 125 129 121 113 101 117 103 101 117 103 107 117 103 119 109 117 121 123 123 135 145 151 143 123 121 113 97 89 97 97 91 103 105 113 121 123 117 99 109 113 111 115 109 103 107 121 115 113 117 105 113 127 115 119 101 139 129 105 103 97 85 89 91 103 97 101 
127 119 123 123 123 117 111 119 117 141 141 149 147 137 141 127 125 113 121 109 117 111 113 111 107 103 111 115 123 127 109 133 131 131 151 147 159 129 121 129 111 101 113 99 101 101 101 123 111 127 121 101 117 99 109 105 105 101 105 127 105 115 113 99 105 125 127 111 119 129 121 119 123 107 81 105 85 101 107 93 
127 103 127 113 113 127 113 117 105 113 111 135 125 139 145 137 125 101 111 111 109 119 111 109 117 107 101 105 113 121 119 129 133 127 153 167 157 133 131 129 137 133 129 125 113 115 109 115 119 123 111 117 117 97 103 103 97 95 97 113 117 107 113 99 113 111 117 113 117 113 117 117 125 97 109 109 95 109 101 101 
135 99 127 115 129 113 117 121 121 129 117 133 137 127 123 131 121 109 113 105 105 107 111 131 109 119 99 117 129 115 131 135 133 153 155 189 183 173 191 245 306 338 332 265 163 129 125 125 117 119 111 109 109 111 109 101 101 113 97 113 117 111 117 101 107 107 109 113 115 133 119 119 111 115 111 107 107 97 95 99 
125 105 133 119 125 119 119 119 135 115 123 131 123 147 123 115 129 117 121 97 103 109 109 115 111 99 109 109 129 141 121 135 135 153 171 221 269 352 399 418 443 470 478 476 424 330 207 153 127 129 113 105 113 121 107 139 125 107 101 109 115 107 105 97 103 115 133 119 135 133 117 119 123 127 103 101 105 105 99 99 
123 113 115 127 119 115 121 105 123 129 133 121 131 135 113 105 113 123 111 111 95 111 111 119 111 101 95 119 123 125 109 139 155 181 261 259 249 381 453 445 451 447 455 474 472 463 393 292 179 139 127 129 123 115 119 129 111 93 115 125 131 125 115 105 117 131 127 125 137 153 125 115 127 123 105 113 93 97 95 91 
135 121 119 115 139 115 121 105 129 123 127 129 127 117 107 117 119 103 101 103 99 107 121 107 111 109 107 121 141 135 153 209 289 334 328 316 296 292 357 420 404 342 361 412 433 424 410 373 326 231 165 167 143 123 127 127 115 129 137 147 135 135 145 137 135 137 131 123 141 157 151 143 127 113 107 109 105 99 115 101 
121 121 131 115 115 121 105 105 111 123 123 125 121 115 115 121 117 123 109 107 115 111 117 111 107 121 117 137 135 155 209 344 367 355 348 326 283 267 281 342 239 159 159 235 312 355 371 357 326 255 225 217 209 181 165 153 159 147 153 153 157 163 209 211 199 171 143 135 139 155 149 143 127 119 113 103 109 113 101 99 
129 101 121 105 121 113 117 117 121 117 133 125 147 129 129 129 125 113 121 105 105 111 107 121 125 119 117 143 163 217 312 355 354 275 197 161 163 237 289 275 235 175 175 223 275 277 267 269 217 217 231 233 239 221 193 169 145 153 157 179 171 241 261 257 251 233 185 153 153 163 153 147 135 121 109 111 111 101 125 113 
127 111 127 109 125 107 117 101 141 139 129 119 135 135 133 125 135 115 123 113 119 109 117 131 137 137 131 147 185 346 344 336 296 263 231 215 229 261 259 267 235 197 199 225 229 241 221 173 117 209 251 245 241 225 219 187 141 159 167 167 207 277 302 296 298 292 241 179 183 187 161 151 137 133 137 143 119 123 115 119 
133 115 121 119 133 121 127 121 135 127 137 125 127 145 125 143 137 125 133 121 117 127 127 127 135 149 131 137 205 365 350 334 324 296 308 318 285 249 201 205 187 135 175 197 221 221 227 223 133 195 229 255 235 249 215 203 187 181 179 177 233 314 308 314 308 306 332 243 185 183 171 153 149 133 129 129 133 147 123 125 
139 123 139 113 135 123 119 115 127 137 141 129 135 143 131 143 129 117 115 109 137 123 123 123 137 139 147 155 211 361 373 334 336 328 357 334 304 217 181 147 127 113 143 181 195 191 207 211 173 137 195 209 223 243 225 223 209 191 199 189 257 300 332 304 296 318 401 332 207 177 167 161 141 137 135 131 129 139 127 125 
129 123 121 137 131 125 107 131 119 115 141 141 131 137 131 121 133 133 117 115 133 129 131 147 145 145 141 153 225 342 334 369 363 387 389 371 289 207 137 97 129 141 177 195 191 193 193 195 195 135 157 177 187 219 221 227 213 205 205 205 281 318 320 316 304 316 401 359 243 205 167 169 143 149 133 143 143 137 143 133 
131 117 135 121 139 133 123 111 123 127 123 135 145 133 133 139 133 125 139 121 137 143 163 157 183 157 159 183 223 324 334 371 391 395 410 377 294 203 97 103 195 213 209 223 195 187 207 207 195 139 143 183 187 193 205 225 219 215 211 199 296 314 314 292 273 281 328 340 283 233 205 171 165 165 167 177 177 193 201 171 
133 119 115 127 121 115 119 119 127 133 145 133 137 137 129 135 141 123 143 131 145 185 185 219 296 336 247 221 334 363 324 357 365 381 381 352 267 165 85 121 197 229 243 247 227 205 231 237 209 189 145 189 203 209 205 215 225 211 227 221 255 300 263 245 245 243 237 300 348 336 279 263 271 287 289 308 314 332 310 310 
127 111 129 101 125 125 111 121 139 133 133 117 141 135 153 133 129 127 129 143 209 261 283 318 428 476 433 437 505 468 340 322 383 361 348 306 239 147 83 133 193 237 259 245 231 227 231 261 239 191 137 189 199 225 209 217 219 231 245 263 257 243 245 241 227 213 247 283 350 363 324 308 312 316 316 354 348 355 359 334 
129 119 135 121 125 121 119 127 135 149 133 141 139 141 121 133 131 117 147 171 273 332 361 478 513 523 509 474 519 521 379 269 381 375 330 324 279 163 67 121 207 251 259 249 231 239 235 247 233 165 141 189 197 223 235 227 223 229 271 261 265 243 251 239 229 231 255 285 338 342 300 298 316 314 340 359 373 365 342 322 
121 123 143 121 135 121 121 109 131 135 135 141 129 131 137 111 129 133 131 225 352 383 439 548 492 433 488 441 523 538 459 332 377 379 340 310 255 175 83 137 213 245 273 255 241 247 245 243 237 205 93 125 179 215 231 223 233 243 257 249 253 243 243 241 247 231 247 265 320 336 304 310 308 326 363 361 344 328 289 235 
115 107 125 111 117 121 125 109 117 125 127 133 137 125 125 137 121 129 145 195 330 418 526 523 492 361 447 426 505 528 468 399 393 381 369 326 277 231 171 141 213 241 273 271 257 267 253 271 265 219 77 0 107 179 219 237 225 233 251 255 245 241 231 227 249 241 235 267 287 324 291 291 289 318 316 279 249 215 177 143 
125 125 125 121 119 121 115 123 121 129 137 133 133 147 131 125 123 109 149 205 314 406 484 540 519 457 484 451 432 420 381 399 389 387 373 355 338 310 281 237 193 241 273 281 267 271 271 277 273 213 157 32 55 147 209 231 205 241 229 257 221 231 241 227 243 243 231 239 237 241 211 205 215 209 177 151 145 141 139 119 
137 127 117 117 131 121 109 113 109 121 137 129 119 137 121 129 125 127 135 165 213 320 326 401 478 509 449 363 231 187 279 361 361 365 379 383 373 344 326 265 245 217 243 269 249 271 263 251 241 199 179 149 143 195 219 223 207 215 227 225 209 207 223 247 243 241 235 241 181 185 171 159 151 147 127 121 133 133 139 125 
133 123 111 109 123 107 109 111 127 133 115 121 123 125 113 109 115 109 115 111 143 167 173 187 237 253 207 155 149 153 159 249 340 357 359 365 338 318 298 277 263 241 223 221 205 209 211 203 203 203 189 171 155 219 189 151 185 245 199 207 179 189 205 205 211 225 217 217 195 181 167 161 135 139 109 123 135 109 121 105 
131 121 125 107 111 111 115 119 107 131 109 129 125 127 129 127 127 127 127 115 121 143 133 141 149 145 143 141 149 151 159 215 348 361 350 312 229 207 179 253 265 279 354 340 306 350 320 292 294 261 201 179 163 157 167 227 287 267 237 239 181 157 165 179 205 215 195 205 181 171 161 139 145 133 113 113 119 113 117 119 
133 133 119 117 129 123 123 133 115 131 131 125 133 135 129 139 125 125 123 119 119 127 133 139 143 131 129 141 155 165 147 185 265 357 357 304 55 103 225 247 294 348 418 428 439 453 422 416 420 406 359 302 281 316 344 354 328 285 279 259 189 151 163 165 193 219 201 205 197 189 173 155 143 125 113 121 125 103 103 111 
115 121 123 115 121 131 113 111 109 127 125 121 135 139 135 125 111 115 127 113 125 133 133 143 141 137 137 143 147 141 147 175 203 304 397 383 275 257 237 217 241 338 428 451 435 443 420 418 428 404 377 379 363 379 395 395 338 310 277 229 151 157 165 177 205 221 201 195 193 197 147 165 155 133 119 121 123 123 103 105 
129 133 121 127 123 133 121 121 123 129 137 125 137 137 133 137 137 131 137 113 125 135 143 137 143 135 143 143 183 211 251 304 334 363 393 375 367 332 300 261 292 393 428 420 428 437 422 433 424 402 348 344 316 318 302 328 314 265 197 167 157 161 159 179 201 215 199 191 189 203 177 161 153 149 129 125 129 125 119 127 
123 127 115 119 141 127 117 117 123 131 139 133 135 145 143 137 131 139 139 115 127 133 135 139 167 149 153 229 292 308 324 361 357 363 359 363 369 336 328 285 371 387 397 393 408 416 367 328 283 233 181 193 199 203 191 187 155 161 163 173 163 161 173 185 207 217 205 195 213 191 183 173 183 171 143 151 133 145 131 145 
121 135 125 131 129 127 113 121 131 127 143 119 133 153 135 131 139 129 137 121 131 131 133 153 153 153 197 348 328 298 322 354 318 298 330 355 352 340 383 354 352 377 387 379 354 344 328 324 298 267 221 245 227 225 195 179 159 175 181 191 179 169 183 175 181 181 187 193 205 213 241 269 279 279 285 271 263 241 223 219 
125 107 107 123 139 131 125 127 129 127 133 127 135 129 145 133 141 135 129 127 129 135 143 149 151 175 275 377 357 306 310 342 314 243 245 277 316 354 393 383 354 320 322 342 352 346 324 318 277 273 263 273 261 249 219 197 175 215 217 235 211 211 185 171 173 187 199 219 223 273 281 320 352 361 359 342 344 322 308 285 
137 117 119 113 121 117 121 133 119 137 135 139 127 149 127 139 129 133 127 129 129 141 143 151 155 183 312 352 322 318 322 320 279 273 279 267 312 287 298 312 294 289 292 322 285 269 287 243 235 275 279 267 263 235 223 213 213 223 239 243 227 221 195 169 183 163 207 197 209 253 267 318 352 375 395 363 350 332 320 308 
135 115 123 107 123 119 119 125 137 131 125 131 143 137 145 145 137 127 137 135 129 139 129 153 173 227 332 359 340 326 312 298 275 292 271 287 265 285 277 281 281 289 292 300 291 267 261 257 237 275 285 273 251 241 227 227 235 243 245 173 197 213 187 187 167 179 205 175 167 209 259 289 322 352 373 357 340 330 338 320 
135 135 127 113 117 127 105 109 145 137 137 135 131 151 155 177 193 181 177 173 191 155 167 155 179 296 348 350 348 348 316 302 300 298 249 221 231 235 239 255 251 251 259 273 267 261 267 259 261 253 261 251 241 243 231 239 249 243 191 141 109 211 193 165 177 165 171 157 169 189 235 267 304 326 338 342 324 306 304 271 
125 141 125 117 111 133 111 121 121 127 125 131 147 161 173 283 357 375 371 381 408 324 203 181 233 381 357 371 355 352 308 306 316 279 223 201 197 197 225 233 219 225 227 243 233 255 263 257 277 269 281 267 249 257 261 241 249 245 177 121 203 203 197 167 181 171 159 171 165 209 225 225 239 257 227 227 197 175 151 159 
123 127 121 89 119 121 103 117 117 135 115 115 141 145 251 361 449 445 472 511 501 470 453 399 404 430 371 363 359 342 302 312 289 223 183 173 187 201 215 221 227 221 223 225 209 229 243 247 241 267 287 265 267 261 261 255 255 239 219 223 213 203 195 187 177 163 193 185 189 195 173 147 137 107 87 87 109 113 117 131 
127 117 121 109 115 133 109 105 127 127 125 131 137 173 300 428 476 466 495 546 523 472 478 422 433 432 367 363 332 314 296 287 261 197 161 171 191 217 219 215 221 219 219 215 219 215 225 217 233 255 296 279 261 279 263 255 253 245 251 259 225 211 207 189 181 157 181 165 159 167 155 123 95 83 79 77 91 103 119 111 
131 119 117 105 113 127 115 119 125 121 137 127 135 179 310 432 490 501 517 548 530 426 359 371 406 416 381 328 314 302 273 273 229 209 153 135 175 213 219 219 213 217 217 219 211 213 223 215 215 265 302 281 271 285 273 273 265 257 257 263 251 215 199 189 157 165 147 147 137 147 133 111 89 87 89 83 107 107 115 113 
127 111 119 115 123 119 115 119 131 131 129 131 143 181 308 426 453 476 513 536 513 420 363 379 371 397 352 304 296 275 243 241 209 189 137 115 177 191 213 225 221 207 219 223 205 217 211 199 225 287 330 292 296 291 281 261 283 263 243 251 225 197 161 127 141 125 133 119 125 123 119 95 99 91 105 93 123 133 131 125 
121 123 131 123 133 139 113 113 135 113 139 121 127 153 235 402 447 459 486 550 488 432 395 404 412 399 357 314 279 247 229 241 205 163 87 73 165 193 225 227 215 205 217 217 209 201 203 203 239 308 391 346 344 330 283 292 255 233 227 179 175 151 145 129 143 135 145 131 137 137 115 105 115 109 111 111 121 133 141 125 
111 113 123 113 135 131 121 113 139 135 131 131 147 167 179 296 408 391 414 476 453 420 402 306 332 389 332 316 292 279 247 259 205 149 75 73 145 211 233 243 221 207 201 199 185 197 191 227 251 306 401 379 355 310 255 243 251 197 181 155 155 169 175 145 159 149 151 143 137 149 135 125 127 121 115 121 135 117 133 135 
131 119 131 129 133 129 129 123 131 139 143 145 135 145 145 179 203 205 199 241 269 229 193 183 217 334 357 352 318 291 273 255 217 155 53 49 85 181 233 243 233 211 205 205 191 197 211 249 253 289 361 328 277 229 223 213 215 201 199 185 187 201 213 199 243 239 221 189 181 155 139 145 123 125 131 139 131 127 143 155 
111 113 127 135 125 127 111 123 121 135 143 123 129 133 141 145 135 149 137 159 139 139 137 143 171 281 371 348 320 304 279 261 249 171 95 81 97 179 243 269 251 223 213 199 213 213 217 241 249 255 279 275 227 203 189 209 199 203 197 191 199 229 237 255 263 255 267 245 233 203 171 171 179 167 169 183 163 149 149 179 
131 113 119 109 129 119 117 113 117 131 125 131 133 149 127 127 145 131 127 129 127 133 109 119 137 225 346 344 346 304 257 269 255 217 141 117 123 201 263 275 275 225 229 231 229 235 241 253 239 239 249 251 229 211 215 201 195 193 201 221 239 265 253 241 229 251 281 229 191 189 189 217 245 269 277 300 283 267 235 225 
113 113 129 117 133 113 127 117 119 115 129 133 127 135 123 127 129 121 139 113 135 127 115 113 133 181 338 346 308 298 269 267 261 225 205 199 139 187 251 289 267 245 245 247 241 237 241 257 229 233 247 227 221 223 223 221 213 203 227 249 265 247 223 197 217 245 249 191 149 145 183 207 253 292 314 342 346 332 332 318 
121 117 139 105 129 125 121 113 123 129 133 129 129 127 127 135 121 123 121 115 129 113 111 129 121 165 310 355 336 267 249 271 255 229 225 215 197 209 237 241 271 273 279 279 255 243 257 227 229 235 231 229 215 227 231 237 237 223 223 245 241 251 233 213 225 215 203 155 141 131 195 239 285 332 357 387 387 373 357 344 
125 117 111 107 115 131 117 103 123 133 133 123 133 145 129 127 123 119 141 121 113 113 125 101 119 137 257 361 338 294 283 277 249 209 229 229 211 207 187 167 161 171 217 231 233 221 241 229 221 233 223 223 229 225 237 257 229 207 229 251 241 241 227 195 165 179 155 151 135 161 219 257 324 355 352 363 385 355 363 318 
113 117 121 119 127 115 113 111 119 127 125 107 137 147 125 121 129 109 117 115 109 111 115 115 121 117 147 233 300 310 265 285 259 257 257 257 243 285 241 149 141 135 135 159 171 195 211 243 233 235 221 211 227 235 233 251 231 195 221 231 227 213 209 163 143 137 137 133 123 161 203 257 320 308 332 352 355 302 312 287 
103 125 119 99 111 121 107 119 105 123 123 121 131 127 129 121 119 111 93 103 107 121 99 111 103 117 115 129 173 245 267 275 279 265 273 271 273 338 385 330 287 261 285 269 277 289 287 291 281 249 213 211 219 229 223 241 219 199 191 209 191 199 179 137 123 123 113 105 113 115 135 149 197 223 211 229 239 219 211 197 
123 105 131 101 115 101 105 121 99 113 119 131 115 127 117 131 107 113 113 95 111 93 101 99 123 95 107 113 135 125 153 215 241 257 291 294 320 385 404 387 383 375 365 355 340 338 320 289 271 201 165 191 193 185 181 213 201 181 171 167 149 145 153 133 111 83 109 109 115 105 115 101 117 133 133 141 129 125 149 155 
111 123 123 89 119 99 97 115 95 117 117 119 117 111 117 127 103 87 91 95 79 95 95 91 111 101 97 107 107 105 99 119 135 141 201 233 283 357 391 387 381 369 373 375 352 334 269 189 155 125 109 121 123 121 107 113 117 107 121 119 113 111 121 111 99 77 89 95 89 85 91 85 93 99 101 101 115 121 131 127 
99 89 101 91 97 91 83 89 97 105 93 97 107 119 117 111 109 87 97 99 87 81 87 65 89 89 77 81 103 95 81 101 101 101 133 137 133 163 215 263 292 320 310 277 209 169 135 109 99 95 75 87 77 91 93 89 87 93 83 95 83 81 71 79 87 75 87 71 79 83 61 57 49 91 117 95 111 111 115 127 
105 105 87 73 81 91 105 89 89 101 105 99 119 113 83 93 99 99 91 89 79 87 79 85 87 87 69 91 91 81 73 85 87 77 105 121 105 93 111 111 111 115 121 105 83 81 71 79 77 71 67 89 75 81 77 71 79 67 75 81 85 87 77 61 73 79 89 69 73 83 67 61 53 95 111 95 109 111 103 111 
119 105 91 89 85 103 101 103 105 91 103 93 105 105 83 101 105 73 81 79 69 85 87 85 81 85 65 71 81 83 83 101 101 101 123 133 139 121 119 123 109 97 107 105 95 103 105 107 97 99 93 79 93 99 97 103 85 77 85 87 85 97 89 77 77 75 73 83 63 75 59 59 59 71 83 99 83 97 99 109 


