P2
80 60
664
149 149 133 141 127 135 137 119 111 125 117 117 113 117 87 101 105 85 89 89 77 83 85 83 71 79 77 73 63 81 77 75 79 71 71 93 75 73 91 79 81 89 75 81 93 83 75 77 93 87 89 69 83 103 109 109 113 109 113 137 179 219 273 375 396 429 456 458 503 516 534 512 503 495 466 363 249 237 398 462 
139 145 137 135 127 117 123 115 101 101 131 123 99 107 103 101 93 99 81 83 81 79 83 77 85 61 73 69 55 67 75 77 71 59 71 85 65 93 93 77 83 69 71 77 77 83 91 89 101 99 103 99 105 121 117 115 119 115 135 189 306 386 421 443 446 462 507 505 526 518 472 412 441 470 462 454 460 427 466 497 
125 135 141 137 123 119 113 119 109 115 115 103 103 97 95 109 93 97 91 79 79 81 83 87 85 79 79 81 73 79 75 67 81 79 77 99 83 77 105 91 75 77 69 77 93 87 89 93 105 119 157 201 201 207 157 137 133 133 169 320 460 474 443 419 429 466 495 514 472 357 286 229 211 271 326 446 491 468 503 487 
143 141 125 127 125 111 119 107 113 119 111 97 93 99 97 89 107 113 87 95 81 89 83 85 93 97 93 81 83 83 83 75 85 81 79 89 89 89 83 85 77 85 83 93 85 93 105 101 133 207 298 406 445 412 310 213 169 159 271 437 472 481 464 437 427 437 462 458 448 414 371 353 310 310 302 349 470 468 512 501 
133 129 135 127 131 119 107 129 113 101 115 115 117 99 99 99 89 107 91 105 79 89 89 85 83 91 93 83 97 83 79 75 85 91 83 99 99 89 101 81 89 91 91 103 95 99 97 111 189 308 508 604 580 578 539 427 286 211 320 464 460 472 462 452 460 466 458 450 423 408 421 412 396 414 390 367 429 431 503 497 
135 147 137 121 121 127 135 125 119 127 125 125 115 101 101 97 107 101 89 95 87 89 85 85 83 95 103 95 95 89 101 101 101 103 85 99 93 93 95 99 107 103 113 115 109 97 113 125 229 417 614 608 595 587 580 568 470 359 392 419 365 439 476 470 454 485 489 435 417 425 421 437 439 443 402 386 425 450 510 505 
129 149 151 133 123 135 123 121 121 113 119 131 97 107 117 109 91 105 97 103 97 95 89 97 99 93 95 93 99 107 113 101 95 115 101 121 91 111 103 105 113 123 145 141 135 129 117 143 265 505 624 610 595 576 587 593 585 539 591 587 448 402 497 487 468 454 474 446 433 414 425 439 462 446 369 377 419 454 501 495 
119 141 137 129 123 115 115 117 119 125 117 109 97 109 103 103 103 95 101 105 85 97 93 79 87 89 99 93 103 101 113 115 119 111 103 117 111 101 117 127 129 141 145 149 147 129 129 141 215 468 572 612 578 536 536 582 591 585 654 656 618 483 460 470 466 431 439 427 431 419 408 439 474 456 381 381 415 427 481 493 
139 141 121 133 121 111 107 127 113 113 117 123 115 95 87 89 95 89 91 91 93 89 93 79 79 77 89 103 95 93 95 107 103 109 105 117 101 99 107 111 115 131 141 165 147 123 133 125 185 324 510 576 574 501 476 505 551 601 646 664 641 520 433 414 408 406 412 415 419 421 419 443 477 464 390 367 390 400 446 483 
137 147 139 121 129 127 129 125 119 117 107 103 103 111 95 103 91 97 99 101 91 97 87 89 93 85 95 93 101 109 85 93 95 103 105 125 107 101 101 109 115 113 143 157 131 133 123 137 143 155 267 441 530 507 462 493 499 538 627 660 635 538 425 408 398 417 423 417 421 423 435 427 450 450 369 359 375 361 429 460 
137 137 123 139 129 119 123 121 125 113 107 111 107 99 99 95 103 99 113 99 95 103 89 101 95 99 101 99 105 105 101 105 107 97 99 113 113 97 101 117 123 111 123 147 143 153 133 133 131 129 125 171 304 402 450 431 505 530 629 635 563 477 458 470 472 446 429 417 429 435 450 419 429 429 365 339 375 351 423 446 
127 155 131 137 125 129 125 121 117 113 107 123 99 113 99 101 109 99 85 81 97 101 81 87 87 97 95 101 101 115 103 105 101 107 117 119 123 109 123 129 119 135 147 193 205 201 173 153 153 133 113 113 131 161 379 441 435 543 564 454 435 508 495 536 499 466 456 435 421 445 441 421 427 417 365 334 361 347 433 464 
129 145 139 133 125 137 133 125 119 117 127 125 105 101 93 93 103 97 83 101 97 97 89 91 87 77 105 83 111 103 121 109 137 97 107 103 103 115 113 115 155 147 233 294 324 328 334 328 259 169 121 119 113 131 183 410 441 396 392 375 379 481 491 485 483 476 462 431 415 423 437 429 431 429 394 371 383 369 452 450 
123 149 133 141 115 123 123 97 99 127 123 115 113 85 87 89 103 105 85 81 87 87 73 79 95 85 101 89 101 127 127 127 147 123 113 117 101 91 127 139 165 199 308 400 415 421 456 485 481 386 189 117 103 115 161 396 441 423 477 495 489 481 460 452 454 439 435 402 392 396 443 433 435 423 392 377 375 386 443 468 
119 149 125 121 117 121 125 97 107 105 101 103 101 93 99 81 95 99 85 93 95 83 87 83 69 91 79 79 97 99 131 111 119 117 95 119 85 113 109 159 225 318 388 439 476 493 543 547 555 520 363 165 127 111 149 347 456 464 489 499 470 452 435 406 402 406 408 398 400 392 421 419 412 443 384 388 406 375 450 454 
123 147 127 131 119 111 121 99 115 109 99 107 107 97 91 87 81 93 89 81 81 73 83 59 77 67 61 75 75 75 99 83 93 101 107 99 77 77 131 183 265 384 429 466 543 536 543 559 574 534 450 284 159 115 131 243 460 485 489 456 412 390 415 404 386 402 429 433 410 369 326 308 294 326 304 353 400 396 448 477 
127 137 127 127 109 115 121 119 97 101 99 93 99 103 79 77 77 85 81 73 67 83 69 79 79 65 71 79 79 67 81 73 97 79 91 93 97 99 141 211 298 433 456 507 532 564 543 543 538 536 439 336 251 133 127 181 408 483 452 415 388 392 423 431 404 421 427 429 373 249 233 249 231 292 253 286 365 375 452 477 
111 125 129 115 121 109 127 99 93 85 93 95 105 89 79 83 87 95 93 85 67 75 77 87 79 75 83 81 71 77 83 73 79 71 87 99 95 101 137 189 347 435 458 516 555 555 538 538 532 524 419 302 290 187 207 237 365 448 406 394 383 386 394 398 392 388 412 373 274 217 213 221 219 263 235 243 300 302 383 448 
109 139 127 135 109 95 111 93 111 103 103 97 97 89 85 79 95 87 91 89 91 95 85 81 85 85 93 81 83 75 87 81 79 87 95 107 89 97 101 183 302 417 481 512 522 555 522 493 448 439 383 328 292 330 383 404 435 402 367 371 373 377 386 381 379 388 410 357 243 195 199 229 243 249 247 267 296 255 296 396 
111 133 133 125 135 103 123 117 105 109 93 101 103 95 87 101 97 109 87 83 85 93 79 75 77 95 95 91 83 91 97 99 101 103 91 93 99 99 115 161 237 371 410 493 487 460 402 367 318 286 261 274 330 388 435 414 421 406 398 402 390 384 386 404 415 406 419 357 215 181 187 237 241 239 213 255 288 263 300 363 
131 129 137 117 131 105 107 117 111 107 105 113 99 109 89 85 103 101 87 95 99 89 99 93 99 97 93 105 89 113 101 97 109 99 103 93 89 119 127 139 173 314 361 388 383 383 351 336 314 292 290 300 369 404 396 383 396 400 408 394 396 396 386 400 419 404 410 328 255 209 221 223 237 229 233 245 280 261 300 345 
123 137 139 125 117 103 115 113 111 103 115 101 97 107 93 91 91 99 103 87 83 97 73 91 99 87 97 93 91 101 95 105 119 95 99 93 91 109 117 121 141 219 322 347 353 357 339 332 298 278 263 294 341 381 412 383 392 390 379 406 386 392 419 431 429 392 373 276 225 223 225 233 219 223 235 263 288 278 298 345 
117 137 125 125 125 115 121 107 103 123 113 117 93 105 91 95 87 99 93 83 87 95 83 83 89 83 93 79 87 99 95 89 111 77 93 93 99 101 103 135 153 235 310 341 330 326 332 316 294 276 257 249 351 369 371 365 396 398 396 402 392 419 445 443 400 363 310 215 215 215 215 219 213 201 223 280 318 261 294 318 
125 137 135 123 139 113 111 105 91 105 107 105 103 95 87 87 105 111 85 83 93 95 87 97 81 83 101 83 81 93 73 67 105 83 107 101 103 91 95 113 151 259 324 300 308 316 302 302 288 278 253 263 334 367 386 383 414 412 388 400 396 433 472 433 384 347 273 205 191 199 189 181 175 201 175 211 296 261 273 310 
121 133 123 127 121 111 121 109 121 115 99 109 109 97 97 89 101 89 79 83 75 91 85 83 89 79 83 87 77 77 75 65 101 77 85 83 105 101 101 103 153 239 302 310 306 304 298 280 306 290 257 255 314 373 383 381 386 373 332 263 245 379 415 414 355 298 239 203 193 191 183 195 175 183 179 173 221 219 251 286 
109 143 125 113 119 109 121 97 101 109 113 113 107 101 91 81 91 99 81 77 91 79 89 83 83 83 77 75 85 67 61 95 101 75 89 87 93 85 89 111 163 231 276 292 288 294 290 290 308 284 269 276 306 357 375 365 361 278 195 169 159 195 241 290 267 237 209 191 175 183 187 179 177 175 175 153 177 163 189 276 
113 123 117 133 103 107 109 109 105 101 107 99 109 77 91 97 93 103 103 85 87 91 95 81 93 87 91 89 79 65 83 63 77 77 77 93 89 93 101 111 151 245 251 292 292 314 302 300 314 298 306 276 278 306 318 284 278 294 263 217 149 173 187 223 243 215 201 199 189 171 175 173 153 189 163 155 171 103 153 225 
133 123 121 133 105 101 121 111 99 103 109 91 105 89 91 93 87 99 93 79 87 77 85 77 81 85 75 79 73 77 55 79 81 77 79 87 109 95 115 103 169 247 245 261 282 312 328 353 328 312 312 276 265 267 253 284 306 300 294 255 199 183 191 231 225 197 207 207 199 165 155 171 149 175 149 137 151 117 113 165 
117 125 113 133 111 107 121 101 123 107 109 97 89 101 97 101 95 91 75 73 79 83 83 69 95 77 81 75 73 61 69 65 71 63 73 89 99 91 97 129 209 241 259 271 274 296 300 365 365 373 324 255 259 261 273 298 312 310 298 276 211 189 185 253 249 217 221 207 183 157 169 167 135 161 137 149 137 129 135 171 
121 129 115 119 115 93 111 107 113 101 123 99 89 93 85 83 83 95 69 75 69 85 75 69 87 71 73 73 71 71 67 65 71 63 71 85 89 83 81 135 191 267 282 300 288 296 304 351 345 361 316 263 265 265 273 276 276 257 259 219 213 199 209 257 253 229 239 221 191 167 167 171 147 157 147 145 175 119 141 191 
119 123 119 129 121 97 107 99 101 103 103 95 95 89 75 89 89 85 85 81 67 79 79 75 73 69 69 69 53 57 57 67 63 61 73 87 79 83 93 115 195 259 290 282 294 294 300 302 304 320 286 237 237 241 247 241 253 257 211 227 197 197 241 259 249 227 239 223 187 161 171 167 171 155 131 141 149 121 133 215 
109 119 111 109 111 103 101 107 93 107 99 95 95 91 87 77 79 79 75 79 77 87 75 53 69 69 65 69 59 63 65 49 67 59 79 77 79 91 89 139 205 263 278 288 296 292 269 288 290 290 251 223 199 211 229 203 223 231 187 197 169 209 231 221 243 223 235 223 197 171 173 187 149 159 121 133 147 71 115 223 
129 129 117 121 129 111 121 103 99 99 93 95 89 103 73 93 91 89 87 75 77 81 83 79 73 67 65 71 65 65 65 55 65 71 79 79 97 85 97 137 195 255 271 292 300 298 288 274 280 267 235 189 175 183 201 189 205 211 191 205 197 209 233 237 235 221 241 233 205 177 171 181 165 179 127 113 119 43 93 199 
125 133 127 135 123 121 129 105 113 115 99 95 87 103 85 99 99 83 93 85 79 83 85 81 71 67 67 73 83 67 69 71 85 83 71 67 77 101 115 133 183 233 257 273 288 274 261 257 253 233 219 187 197 191 183 189 199 223 219 225 215 219 225 239 239 223 237 221 205 203 189 191 147 149 119 109 81 27 93 235 
131 131 115 115 113 111 127 107 111 115 111 111 99 101 89 97 87 95 89 83 77 87 87 85 87 89 83 87 81 63 71 83 83 85 83 99 91 77 109 125 167 215 247 253 249 267 237 239 225 201 203 187 183 195 215 187 201 195 219 239 233 241 227 245 235 241 235 231 217 183 189 147 117 137 127 123 79 37 101 257 
123 121 119 125 117 109 117 121 109 125 99 107 97 107 85 99 105 101 101 77 91 91 89 97 91 77 77 77 73 75 85 67 97 77 83 97 107 95 99 117 155 177 235 239 255 259 235 245 245 221 219 205 175 197 199 183 203 211 233 259 245 257 247 247 251 255 257 243 235 191 197 165 129 141 115 123 89 45 127 259 
141 131 135 131 117 125 121 121 103 121 111 109 99 105 99 109 105 91 93 77 79 99 91 81 95 95 91 81 97 73 89 69 91 67 83 91 81 89 97 115 117 189 235 219 227 233 213 217 193 201 205 203 207 207 223 225 261 269 257 271 271 257 251 255 257 227 257 249 213 207 231 177 147 143 99 73 109 79 151 237 
117 133 129 133 127 119 107 115 111 109 111 107 99 109 91 87 87 99 99 79 89 97 79 93 97 87 87 75 79 79 77 67 89 67 85 87 81 79 95 103 107 169 217 217 219 221 229 245 235 223 221 207 219 243 249 259 278 259 257 274 263 249 247 259 241 229 245 233 211 219 221 183 133 109 81 75 111 73 171 255 
119 139 129 133 117 125 117 127 103 117 97 103 87 97 97 85 105 101 101 93 79 97 83 81 83 95 77 73 79 69 67 77 93 71 65 81 75 99 93 93 119 141 183 203 213 217 205 213 227 225 197 211 225 227 239 239 255 247 243 249 247 243 229 241 235 229 233 235 217 201 215 177 145 121 53 73 103 115 189 257 
127 139 111 115 129 113 125 107 107 111 119 109 97 103 83 103 91 103 77 95 85 97 95 81 83 91 83 93 91 87 87 71 91 57 85 57 87 93 101 101 101 119 165 219 223 221 203 217 239 215 211 217 211 235 247 227 219 221 221 239 213 217 229 235 227 219 229 225 209 197 211 205 147 111 63 59 115 141 205 259 
119 127 125 115 127 113 107 101 125 113 103 101 101 87 85 103 93 93 85 93 83 99 95 85 83 85 85 77 71 89 61 57 97 71 87 73 57 81 105 87 101 113 135 207 205 203 217 235 217 233 229 209 209 235 229 219 221 231 217 221 207 211 225 223 219 201 235 223 213 199 213 205 161 139 97 91 151 155 199 261 
121 121 135 121 125 111 107 101 111 111 103 115 85 99 99 103 93 97 89 85 87 91 87 69 81 81 81 75 63 65 61 57 83 61 77 67 67 77 89 69 79 93 121 159 219 213 217 229 239 221 211 207 219 211 225 205 235 239 217 219 189 191 215 215 217 201 231 227 193 197 207 189 147 151 99 101 151 153 203 247 
125 135 123 117 117 117 111 101 107 111 99 105 87 105 79 105 81 91 91 87 75 93 85 89 99 85 75 77 69 63 77 57 81 69 69 89 47 61 85 77 69 93 97 133 185 215 205 211 201 209 201 201 183 197 217 215 213 197 193 201 215 211 227 223 213 243 225 215 199 205 205 185 155 159 95 123 151 153 183 227 
109 125 111 123 95 109 115 103 103 101 97 109 95 99 89 89 87 97 77 87 87 83 75 69 81 83 77 73 71 57 61 59 69 69 77 77 71 75 71 71 83 69 89 119 151 181 207 211 219 223 213 221 205 213 223 235 207 195 171 173 199 211 247 243 239 265 255 231 201 205 223 203 155 161 95 115 137 147 191 233 
105 127 99 117 101 101 101 111 109 107 101 95 85 89 83 91 89 91 83 77 73 67 81 77 71 65 73 67 65 63 57 53 65 55 71 79 59 79 91 79 71 63 89 103 135 185 203 227 235 241 235 233 233 213 239 221 213 207 161 185 209 243 269 261 271 271 269 255 219 227 219 219 171 177 131 159 173 139 187 237 
97 117 105 115 97 99 83 101 101 87 95 91 89 85 67 85 81 91 81 75 67 73 69 81 69 71 53 61 61 59 51 49 69 61 69 67 63 67 67 87 73 59 65 89 119 169 179 227 241 227 231 205 211 221 243 235 221 209 183 195 207 241 274 267 278 276 253 257 243 227 239 215 179 173 141 167 161 121 157 215 
101 119 93 89 99 91 93 95 85 75 91 81 87 81 73 67 77 73 65 69 57 59 63 69 71 67 53 57 57 49 33 51 47 37 65 55 43 67 75 87 63 75 61 65 125 147 197 227 237 251 237 229 229 223 243 227 235 241 207 223 229 263 282 269 274 274 274 247 245 243 223 237 177 209 167 173 175 109 117 157 
97 97 83 85 85 85 69 83 77 81 83 71 57 69 59 57 59 57 53 61 37 57 45 51 49 55 55 39 35 37 29 41 35 49 49 51 47 61 61 69 51 31 45 83 57 131 175 215 225 233 217 207 221 225 235 229 251 245 241 243 231 249 282 267 282 267 282 263 225 207 207 215 197 199 187 157 163 73 75 87 
105 107 95 103 83 89 85 93 89 85 91 69 67 65 57 59 69 79 63 61 53 59 53 57 61 49 47 45 43 31 37 51 55 31 41 39 53 47 53 47 39 25 29 53 61 117 157 203 223 219 225 221 237 239 229 237 249 259 257 271 263 267 284 267 296 261 286 239 221 217 233 215 213 241 199 185 159 69 45 61 
111 117 107 111 97 97 95 87 103 95 61 77 87 77 71 59 73 83 69 73 67 63 61 67 65 61 71 61 61 51 33 41 63 45 31 57 43 51 51 61 65 19 51 53 57 105 141 179 213 201 217 213 231 225 249 249 271 251 259 273 263 273 290 286 294 267 278 255 227 227 207 227 213 223 211 189 147 17 21 27 
115 131 111 113 95 103 85 91 105 93 81 79 75 83 71 79 73 77 73 59 81 65 77 73 77 59 81 67 59 57 61 53 61 47 39 51 57 51 55 59 41 57 33 49 55 97 89 147 191 203 197 203 215 235 251 255 278 271 273 280 273 290 259 273 263 273 263 231 219 189 207 237 185 237 201 183 123 35 0 21 
111 123 115 113 121 107 105 119 101 97 89 89 89 85 83 67 87 89 79 81 71 83 91 81 79 77 65 63 73 69 57 59 67 65 65 55 63 75 61 79 59 45 37 57 55 73 107 127 171 187 205 215 233 241 255 259 280 265 276 278 286 271 265 265 259 245 239 229 225 221 219 229 207 253 209 175 153 37 33 43 
125 119 109 125 117 121 117 123 101 111 107 107 97 103 89 87 99 89 95 81 91 83 89 81 69 77 73 77 75 61 67 71 85 61 73 71 67 77 79 75 63 61 57 57 65 77 81 119 145 203 215 225 245 253 257 276 288 273 261 274 269 276 267 274 265 255 261 231 217 235 231 241 251 274 205 199 157 37 53 57 
139 135 109 111 101 131 99 109 113 113 103 115 95 105 91 97 111 93 95 83 89 85 91 85 99 83 75 73 63 75 63 65 79 57 67 71 63 63 77 79 79 55 53 53 69 53 81 95 125 163 197 205 229 241 251 253 278 251 263 245 247 243 251 241 255 231 278 276 245 263 249 247 251 261 209 199 155 43 63 69 
119 127 129 127 133 115 121 129 111 133 103 109 89 103 93 97 97 99 103 91 71 91 81 91 73 83 99 83 75 71 71 69 67 61 69 71 73 77 63 71 75 67 59 57 51 67 63 75 83 129 153 193 227 231 247 243 247 237 235 239 219 223 229 257 278 265 278 284 265 259 273 276 267 278 187 177 117 69 67 71 
111 139 129 117 127 119 111 117 115 105 115 109 105 113 87 95 105 101 99 89 89 97 91 81 87 93 83 69 73 81 73 77 73 71 63 91 97 71 87 77 85 61 71 71 79 85 77 95 83 107 139 163 227 235 251 237 245 217 209 223 213 193 205 235 261 241 296 276 278 292 292 320 278 273 199 159 107 59 93 85 
139 141 133 123 129 123 121 113 109 125 121 125 107 101 99 105 101 101 103 95 93 99 99 87 85 99 89 85 97 83 79 67 85 83 67 71 99 71 91 77 77 79 67 69 71 79 69 85 97 89 103 139 171 233 225 231 249 243 203 221 205 201 197 219 237 263 290 308 290 312 336 304 263 278 165 143 117 59 83 81 
125 151 131 137 139 133 133 137 115 119 115 117 101 111 113 111 99 95 97 95 87 91 95 91 81 101 79 89 81 89 69 65 93 83 99 109 93 107 85 75 83 65 79 77 87 91 75 63 77 83 79 103 147 185 231 207 241 235 213 223 215 205 217 245 239 263 318 312 324 326 347 337 274 221 159 117 121 65 81 73 
129 147 135 143 125 131 125 123 115 137 117 111 103 111 97 117 101 109 105 105 95 87 97 89 87 93 93 95 75 77 83 79 91 91 99 95 99 75 95 61 77 63 91 77 89 85 77 79 93 97 113 111 117 159 215 203 253 247 223 245 231 241 259 276 284 296 373 357 381 386 375 312 251 175 135 129 129 89 89 91 
133 153 133 125 127 121 115 129 127 109 107 121 101 109 95 119 97 101 93 111 93 99 105 99 101 81 75 91 79 81 81 91 95 85 93 95 87 75 103 77 93 73 101 63 73 65 85 93 105 83 63 93 117 143 185 221 267 245 253 255 241 253 253 280 290 341 381 357 365 339 322 247 169 151 89 117 137 77 99 97 


