P2
80 60
816
92 88 88 75 75 82 79 63 75 77 71 38 59 67 54 56 63 31 46 50 27 38 38 48 46 31 33 23 42 19 9 25 38 19 29 31 50 48 56 46 35 48 46 38 42 56 50 54 61 54 54 67 82 90 115 104 96 86 82 54 54 50 44 38 38 50 54 71 86 102 148 268 417 427 308 123 98 104 98 111 
75 90 77 75 94 75 79 77 82 61 65 56 54 59 61 48 54 40 38 27 50 42 50 50 42 35 35 19 29 17 17 21 23 0 19 38 33 33 44 42 29 44 48 42 35 59 50 46 61 46 52 61 63 77 86 86 90 79 71 50 46 46 48 29 29 38 29 52 46 65 98 144 205 306 294 131 102 109 115 98 
90 96 77 67 86 75 82 77 77 82 75 71 48 48 52 50 35 50 29 44 38 31 40 50 52 27 59 23 29 27 31 15 33 17 25 33 50 31 52 40 31 40 35 33 33 54 46 61 52 56 56 84 77 82 90 106 86 77 59 46 61 54 44 33 33 54 38 46 15 29 54 77 88 133 160 117 94 102 102 96 
84 75 67 73 77 73 77 73 88 90 75 63 46 69 40 40 48 42 38 46 35 27 42 59 52 65 21 25 35 11 17 11 17 19 25 35 31 40 56 42 33 40 46 38 42 48 63 52 63 56 61 77 82 75 92 113 86 69 79 59 63 52 33 29 31 31 31 27 35 40 63 59 73 79 98 90 75 100 109 121 
94 73 65 77 77 73 79 84 90 82 75 63 65 59 46 48 44 52 31 50 38 33 44 40 52 42 38 33 31 29 19 15 17 27 27 33 46 40 40 33 29 38 38 52 46 65 40 61 63 54 67 82 88 84 104 100 82 94 77 54 71 52 44 40 31 50 35 40 25 29 44 56 54 65 84 90 94 79 115 109 
73 65 84 77 82 82 75 88 77 75 65 67 61 48 46 40 52 33 38 50 31 31 42 48 56 33 42 19 25 11 17 19 33 27 25 15 25 46 46 38 35 46 42 42 50 56 63 56 65 50 59 73 94 71 98 109 102 96 79 67 71 63 56 48 29 50 48 42 35 38 38 46 56 50 59 94 96 90 115 106 
92 77 69 73 67 75 82 88 86 71 65 67 33 42 42 48 27 44 33 50 38 44 50 44 35 33 42 17 42 25 23 13 19 11 19 31 38 52 38 40 38 48 50 31 50 59 65 52 54 61 52 84 79 73 119 127 102 88 92 73 67 63 52 46 35 40 42 29 44 38 46 46 54 54 65 94 98 98 109 106 
65 88 86 73 90 77 82 73 77 77 65 59 46 59 42 44 38 46 42 42 33 40 33 46 46 46 40 27 40 25 27 29 21 15 25 40 52 48 67 67 54 46 52 52 61 61 67 52 63 75 84 90 94 92 117 137 125 113 96 75 75 77 56 54 50 42 42 35 40 40 29 59 59 61 67 86 98 106 123 123 
71 88 84 75 98 77 79 96 73 69 44 69 54 46 42 54 42 38 29 38 54 42 40 35 50 44 27 13 48 29 15 19 23 31 25 46 54 63 50 48 54 61 59 67 56 77 90 77 88 71 94 82 100 104 121 156 144 123 111 86 65 86 56 61 33 38 46 52 46 33 50 65 52 46 67 102 94 115 137 144 
67 82 65 65 73 65 79 82 67 73 50 59 59 54 40 50 33 25 40 44 38 48 38 31 29 29 33 19 31 29 21 13 35 25 48 69 63 63 63 73 59 84 90 113 102 125 135 125 121 113 111 117 111 104 146 152 127 117 109 84 104 106 67 61 40 50 42 40 50 25 54 52 59 67 69 102 133 150 172 186 
77 71 79 77 88 65 69 77 82 65 63 56 48 40 35 40 44 33 44 44 42 29 50 46 42 35 33 29 29 25 19 27 31 50 77 133 106 106 106 121 162 217 268 351 413 433 433 425 413 381 314 264 217 164 174 162 156 133 144 139 154 158 113 94 67 52 46 40 35 35 46 61 48 61 86 160 221 235 262 245 
65 79 79 69 73 65 84 71 77 71 63 75 50 46 31 38 38 25 44 44 50 38 46 44 33 50 40 27 54 38 33 48 96 164 284 365 331 329 365 399 411 471 489 499 549 537 533 549 569 567 549 541 519 451 411 387 363 321 373 399 407 411 391 314 131 75 65 65 50 56 44 54 50 67 96 215 268 278 282 270 
79 67 77 90 73 86 96 77 67 77 67 59 52 46 35 50 29 38 27 46 44 38 44 42 50 40 38 25 67 52 100 193 274 294 331 465 479 491 479 481 493 523 525 505 521 531 525 539 551 553 541 535 547 517 509 531 535 531 549 527 497 491 489 501 401 174 100 77 69 63 65 84 73 63 94 199 262 264 286 253 
73 73 77 63 73 69 56 61 67 75 65 54 44 29 35 25 40 33 29 35 27 40 29 38 40 27 40 48 104 209 331 337 327 302 321 445 507 517 517 517 527 573 577 519 493 483 487 487 497 491 481 475 489 481 509 517 531 559 557 511 481 479 483 509 513 417 211 156 172 154 150 139 135 139 180 227 243 225 231 213 
75 86 77 65 82 71 61 65 54 63 50 46 50 56 35 29 38 40 25 42 33 46 42 46 42 59 65 125 341 403 407 407 391 343 339 405 531 569 555 525 533 529 479 343 266 264 284 302 290 258 245 280 331 393 451 471 507 523 543 511 477 461 477 477 509 509 449 375 357 316 316 300 304 302 298 280 213 203 209 235 
73 88 69 82 71 79 67 77 98 73 59 65 52 59 42 31 29 27 33 29 52 44 52 31 50 46 150 371 483 453 435 411 395 381 361 421 519 547 531 495 445 411 371 369 351 365 371 355 359 331 323 329 383 381 353 371 413 459 503 493 483 487 477 463 483 531 485 397 367 357 351 341 355 351 349 314 241 225 225 213 
73 77 73 65 79 65 67 77 79 77 38 59 56 63 38 27 33 38 25 38 35 44 40 54 61 75 258 435 479 463 459 441 443 423 437 481 515 535 485 431 419 417 409 393 415 393 387 379 359 318 288 333 387 371 355 365 407 421 459 487 505 545 507 419 437 479 407 379 369 357 369 359 355 357 359 284 227 215 209 231 
75 71 75 63 67 82 90 67 67 77 48 48 44 38 42 42 35 38 27 33 35 40 50 54 65 69 329 395 441 425 413 435 465 497 545 527 501 497 453 427 421 401 409 407 417 417 393 359 337 286 282 300 367 355 349 341 399 419 421 447 463 499 471 403 397 389 355 359 349 343 345 339 341 347 335 286 225 207 203 217 
86 71 79 71 75 71 73 61 61 63 50 54 59 56 35 33 48 50 38 35 40 35 44 52 59 79 347 485 485 451 443 469 501 539 519 517 499 467 451 427 399 413 415 433 441 451 441 383 335 296 282 308 323 323 329 337 377 405 409 403 411 407 381 369 379 365 359 355 349 345 337 341 335 337 345 290 213 191 209 203 
65 67 61 65 79 67 61 59 63 67 59 61 48 42 33 42 35 38 31 44 42 50 33 44 56 88 306 511 523 485 465 471 463 497 491 477 445 433 413 413 403 411 413 435 435 459 471 403 353 333 294 308 316 294 292 310 385 401 381 381 365 371 363 365 371 363 363 357 365 353 349 359 363 355 341 296 211 197 201 197 
82 67 63 56 69 56 54 67 67 59 71 52 44 67 38 35 54 52 54 63 52 48 59 61 71 90 321 487 531 449 451 427 439 509 491 431 395 407 397 391 403 407 431 433 427 445 439 421 381 333 300 306 312 284 314 298 349 373 383 359 367 361 347 349 377 359 349 355 363 355 363 381 391 383 375 316 209 195 195 184 
61 71 61 61 59 46 65 61 65 59 75 63 59 65 52 65 71 82 79 82 88 82 73 75 119 176 349 487 545 479 447 457 495 493 453 389 367 385 387 391 385 401 425 435 449 459 439 397 361 343 304 296 316 284 298 292 349 371 363 345 351 369 361 363 365 347 345 371 373 361 367 385 377 361 373 312 205 195 199 193 
73 88 73 61 77 61 67 73 63 56 71 59 52 61 75 139 229 284 288 276 298 253 154 129 227 304 300 425 541 519 507 487 507 463 409 365 373 365 373 399 395 409 417 443 447 473 453 381 339 345 316 290 314 284 278 286 337 355 361 343 343 353 349 345 371 371 397 403 423 403 401 405 385 353 343 264 203 176 201 186 
79 86 75 61 65 69 61 65 59 56 54 71 59 82 152 327 459 547 620 592 586 571 505 463 511 588 435 423 513 521 523 505 501 467 409 369 367 383 391 397 413 405 427 429 427 435 437 371 318 323 316 268 270 278 268 268 296 327 329 327 337 341 375 387 405 417 423 431 405 365 329 345 373 375 373 304 207 174 182 188 
82 79 75 75 63 77 69 67 75 61 67 63 69 123 288 517 673 647 673 614 630 641 630 612 653 696 663 515 461 485 503 511 491 441 395 353 363 397 409 425 421 423 417 421 431 417 395 347 325 318 296 268 253 266 266 272 272 292 294 312 323 347 365 383 417 411 417 403 403 387 397 429 447 459 467 377 205 199 178 172 
67 82 52 65 59 52 67 52 56 65 65 75 82 164 355 640 673 645 671 618 575 590 655 598 640 671 671 612 427 441 463 461 459 427 387 357 373 375 389 419 445 449 417 417 401 391 387 341 327 331 288 260 262 256 260 272 251 268 264 270 286 323 343 407 439 431 387 369 377 385 429 471 467 491 463 359 213 197 193 174 
67 79 73 79 67 50 67 71 65 69 71 73 88 209 357 677 683 665 665 594 527 503 602 600 614 651 683 645 475 395 413 363 375 381 367 353 357 365 395 415 445 465 435 409 385 357 343 329 339 327 308 276 260 262 268 258 245 272 286 284 294 325 365 377 393 393 381 353 365 417 483 491 495 459 445 381 201 188 180 174 
71 75 65 69 71 69 63 56 61 59 65 69 84 213 294 600 706 679 630 588 551 549 641 616 612 616 669 645 614 405 343 321 375 387 385 377 383 389 393 411 431 453 419 391 389 365 353 327 310 329 321 312 288 272 276 262 260 272 282 298 343 373 375 361 363 375 363 371 443 487 481 477 433 433 473 403 225 191 184 184 
65 67 61 71 65 71 59 59 63 73 67 73 73 215 316 501 694 651 677 641 657 649 688 626 539 531 563 573 616 473 459 451 475 479 445 391 379 399 417 445 455 477 445 397 393 385 367 337 308 304 314 312 296 294 278 286 278 292 327 369 373 373 349 359 359 361 357 405 463 471 437 411 449 465 453 383 211 203 186 195 
61 63 69 69 69 63 54 69 56 69 84 71 71 152 294 373 649 632 647 651 634 659 626 495 264 148 225 361 443 429 537 529 533 485 421 381 369 373 373 409 459 487 467 421 405 403 393 361 353 321 304 284 284 276 298 308 288 276 361 359 377 337 339 333 347 343 379 397 411 387 403 453 459 435 427 353 231 203 195 205 
63 71 71 65 59 54 54 59 73 67 61 61 67 88 174 304 489 594 608 569 501 459 327 131 77 67 121 256 298 361 509 527 553 513 479 415 389 373 367 375 391 419 421 417 427 433 423 393 385 355 337 298 274 288 304 294 290 294 331 321 325 323 314 304 331 351 389 385 361 397 433 435 419 403 389 310 199 193 184 197 
65 59 54 56 71 63 48 73 69 61 71 59 52 75 84 146 247 304 318 239 160 121 100 63 50 50 65 111 188 294 447 511 547 509 505 471 407 385 369 373 383 389 399 401 411 429 465 443 403 401 381 373 325 302 306 312 290 272 316 298 333 339 333 327 357 355 375 387 405 421 401 391 361 337 325 276 184 203 207 217 
79 82 59 61 63 67 82 73 65 69 63 61 50 63 46 61 84 71 79 50 42 54 63 59 40 31 38 40 88 243 453 481 517 485 481 479 417 397 375 373 385 383 401 397 399 405 431 447 465 437 431 401 403 363 339 323 310 314 341 341 369 363 371 349 363 353 375 411 397 373 337 314 258 219 168 152 188 223 223 225 
84 86 84 59 73 71 63 71 67 71 75 73 48 61 48 52 44 46 54 46 35 46 65 48 40 31 25 27 52 121 433 453 473 485 513 475 455 435 423 415 465 517 529 531 541 539 567 551 537 517 465 417 421 379 355 357 327 312 349 361 385 375 365 365 377 349 353 321 268 207 158 113 67 48 50 100 213 237 260 243 
82 71 71 61 65 67 67 67 77 65 79 90 73 59 42 33 44 35 42 35 35 35 48 31 35 27 21 23 42 38 221 413 455 459 447 433 447 455 439 427 449 521 541 555 557 598 641 610 577 569 578 608 582 467 417 409 361 233 209 191 239 286 341 359 333 290 170 166 98 40 35 35 35 31 50 106 237 258 296 282 
75 75 67 48 59 59 71 71 77 71 67 84 59 52 52 44 46 52 38 33 31 27 35 42 44 25 23 21 33 29 44 133 272 409 457 449 439 427 381 351 399 467 495 529 551 602 634 575 559 557 567 594 610 616 618 614 592 437 318 251 314 431 475 483 475 455 274 363 160 44 44 33 27 38 44 121 290 306 300 280 
77 77 86 84 71 73 79 67 69 73 79 75 50 59 42 44 40 31 35 31 25 50 50 46 46 38 29 17 38 27 29 35 63 100 195 251 294 316 321 312 247 154 174 215 310 425 527 537 543 551 555 567 578 571 588 600 577 553 555 521 527 533 517 497 407 381 451 331 98 52 33 40 48 42 44 133 278 296 280 256 
75 75 77 82 65 65 71 67 69 69 77 84 54 71 40 38 44 38 33 27 35 35 40 42 56 33 27 9 21 17 13 21 38 33 42 44 69 102 133 152 102 52 67 54 67 96 146 209 290 353 399 427 447 451 485 505 519 473 497 501 521 531 511 499 479 457 383 184 123 90 73 63 42 52 50 100 205 221 211 199 
71 77 79 75 75 73 61 77 61 67 77 79 54 69 50 40 40 42 42 40 40 50 59 48 42 42 11 27 19 17 15 21 23 21 15 33 46 54 52 54 35 44 52 38 46 59 73 75 79 106 117 129 150 139 170 182 191 168 191 205 188 229 296 363 373 339 310 341 363 333 300 223 73 50 63 86 115 139 152 172 
77 82 71 75 86 67 63 77 69 75 67 75 54 61 52 52 38 42 42 44 46 29 50 42 38 44 31 23 25 13 25 23 27 19 25 31 48 50 44 54 63 63 61 59 67 44 61 65 96 106 119 152 199 239 270 262 256 233 241 247 251 266 327 417 479 501 503 481 463 441 447 407 168 75 77 109 178 158 164 154 
77 94 77 71 79 73 56 77 63 71 79 90 67 65 52 65 67 77 119 111 65 56 59 54 56 50 33 19 27 23 21 15 35 46 162 166 213 272 280 286 282 286 258 247 227 231 258 264 276 284 290 302 327 343 365 365 343 343 343 339 365 395 425 479 543 523 541 537 507 449 487 471 266 104 79 127 205 209 205 193 
86 69 71 71 69 63 61 71 65 71 59 82 52 69 75 109 213 421 525 511 443 239 121 71 48 38 42 21 40 23 17 25 88 260 353 353 371 383 401 397 399 421 403 393 395 343 335 323 355 363 369 381 385 391 383 407 439 407 427 407 435 433 419 447 473 485 513 489 467 475 443 439 310 94 90 142 225 225 225 221 
88 84 84 75 75 75 67 65 75 84 65 82 69 73 98 268 475 727 749 704 675 641 573 397 166 65 42 21 42 42 33 63 296 441 477 491 487 469 455 433 405 403 397 389 379 379 379 377 399 391 405 413 451 433 397 389 443 389 401 427 387 391 399 419 401 427 441 425 405 385 300 266 219 154 121 176 223 233 256 241 
86 92 90 79 75 71 82 77 63 71 67 77 71 98 158 377 533 778 781 781 764 741 710 649 549 247 69 38 48 29 56 203 451 507 519 525 509 477 441 429 407 407 397 409 411 421 423 407 425 419 425 447 473 415 381 357 403 363 367 409 365 375 389 425 409 429 429 439 443 435 395 355 325 260 221 213 225 241 268 258 
86 96 79 86 82 75 88 90 88 73 79 86 75 98 209 401 501 774 778 816 770 768 760 739 673 561 231 63 61 61 117 393 523 537 531 543 529 493 469 433 427 433 443 449 445 463 453 453 439 415 431 459 461 387 403 351 377 375 365 411 363 381 387 403 415 417 413 419 405 407 409 371 367 369 363 300 256 243 264 239 
79 79 84 79 82 73 84 94 82 71 82 84 82 94 209 395 425 578 702 787 805 791 739 768 733 636 575 399 247 225 403 503 537 539 541 523 517 517 487 443 447 449 447 447 455 431 415 401 403 411 427 457 415 397 425 351 385 365 355 395 367 379 369 367 381 367 359 363 357 355 373 379 373 377 401 314 264 264 253 239 
88 88 79 75 79 69 86 94 77 67 75 86 82 96 188 413 507 640 706 756 785 774 750 780 749 685 729 702 679 561 503 511 533 535 511 489 473 467 437 419 407 409 405 401 407 397 397 389 393 407 405 417 385 403 441 367 401 395 351 389 393 383 361 339 345 369 387 375 363 361 379 399 405 405 401 339 278 268 243 251 
96 106 84 82 90 79 61 88 69 73 79 90 77 98 170 367 529 702 770 803 778 770 781 783 756 754 781 756 735 561 493 501 519 475 441 427 417 419 399 383 369 383 389 397 397 403 391 389 391 391 377 395 409 425 455 349 397 399 363 415 427 421 421 397 369 333 353 383 373 383 387 419 435 443 443 347 276 268 243 260 
96 115 86 86 79 61 75 71 77 65 82 73 86 92 113 272 455 604 702 783 750 750 762 762 762 791 791 762 687 565 527 525 531 491 463 423 401 399 391 385 371 371 375 373 379 385 387 383 381 381 385 387 397 449 435 341 419 395 333 353 395 371 393 417 403 369 361 381 383 385 391 419 409 463 467 347 274 268 258 260 
94 111 98 88 88 71 92 69 86 75 86 98 88 77 90 158 318 465 539 667 681 690 714 721 780 812 785 727 628 577 555 547 519 485 459 421 409 391 383 403 399 397 383 375 379 385 385 371 377 369 367 383 403 445 411 335 415 363 325 357 385 345 355 397 407 403 385 419 447 435 417 405 413 437 469 347 276 278 245 258 
92 98 84 84 86 94 77 79 98 73 79 73 86 79 65 92 160 264 345 473 537 523 511 499 501 677 780 669 594 569 543 535 547 507 475 437 427 417 419 413 411 427 405 393 387 409 389 389 387 391 369 393 395 443 387 347 397 371 321 359 353 339 355 355 395 427 399 437 445 453 449 443 441 431 371 308 272 260 260 241 
109 119 96 98 82 86 88 98 77 79 77 86 96 79 56 56 77 115 133 172 227 197 158 154 154 312 643 561 573 539 517 475 481 479 469 449 441 429 419 421 421 417 397 391 401 389 405 395 399 385 379 411 401 423 363 349 425 365 329 363 359 353 393 369 411 435 423 461 481 465 489 477 437 413 288 243 256 256 256 245 
94 96 96 88 94 79 82 88 84 75 86 98 96 75 67 79 63 77 79 71 88 84 92 71 96 154 461 507 549 553 523 481 449 413 415 411 409 413 401 393 395 399 395 383 379 403 401 375 385 399 391 435 397 387 343 387 469 381 335 349 359 371 427 407 443 443 441 459 513 499 515 527 501 477 288 241 253 245 251 260 
102 102 79 86 92 100 71 88 86 77 82 98 82 106 67 56 67 48 61 52 54 52 79 77 100 123 371 513 555 555 541 497 459 429 369 363 373 367 389 379 381 387 389 379 377 387 387 375 395 393 423 463 385 373 347 441 493 389 351 363 371 403 465 435 473 463 455 473 499 485 487 531 553 481 302 268 223 251 247 256 
96 96 94 92 96 84 82 92 79 92 65 94 77 92 69 56 44 52 52 42 46 52 59 73 69 104 327 539 517 451 467 457 443 401 407 431 435 401 377 365 359 379 379 387 379 389 393 403 401 423 443 473 397 343 363 479 523 419 393 379 389 431 495 487 495 479 433 429 467 461 489 551 580 511 294 266 235 231 241 247 
69 88 88 92 82 79 77 77 82 71 67 90 77 88 73 54 63 40 59 40 38 52 63 46 67 102 361 505 499 515 551 559 539 529 551 571 580 559 531 465 445 427 421 411 405 405 411 413 443 475 457 455 395 393 401 531 531 447 425 403 413 477 533 551 535 505 449 455 485 493 497 557 578 499 310 290 262 241 247 245 
94 82 94 94 102 79 84 82 88 90 86 92 88 109 67 63 52 52 48 42 48 46 63 59 61 98 373 501 545 537 539 539 525 491 491 511 541 586 590 584 555 517 507 487 463 453 477 465 485 497 469 437 455 475 451 521 453 461 437 415 427 527 569 573 553 509 467 443 507 531 549 588 567 489 339 298 278 286 258 251 
90 106 94 96 92 90 88 90 82 75 82 104 88 102 75 61 56 38 42 54 59 50 52 67 65 98 294 513 543 499 499 485 463 433 439 443 455 495 523 523 531 551 537 523 491 483 485 467 465 445 435 423 427 405 411 411 401 427 421 407 409 501 543 527 539 509 483 455 493 497 541 555 531 473 294 284 258 268 264 260 
106 88 92 90 92 86 98 90 75 94 82 84 90 100 67 56 50 56 44 42 59 38 69 61 59 73 172 449 507 509 511 501 479 439 433 437 447 485 491 483 463 451 415 391 391 397 379 395 407 389 403 391 391 389 393 367 389 397 391 385 381 443 487 497 505 499 463 459 495 503 513 509 509 429 288 280 266 258 278 258 
86 98 96 84 88 96 84 86 94 90 86 94 86 113 73 77 63 63 38 52 56 59 63 59 69 50 104 258 439 443 407 387 371 327 325 318 323 345 331 323 314 314 312 314 335 353 365 347 361 385 387 397 369 369 389 343 329 367 367 339 325 318 415 421 453 449 457 425 439 451 485 501 481 393 247 266 260 247 253 276 


