P2
80 60
555
101 113 117 121 117 103 105 121 113 115 115 103 119 107 115 105 101 95 103 93 91 81 103 85 73 81 93 77 71 69 77 63 67 77 71 85 87 71 67 65 57 81 61 75 67 81 81 79 75 77 71 73 79 69 69 65 85 71 85 75 99 89 95 109 103 101 93 83 75 79 91 65 73 73 69 73 65 85 69 85 
119 105 95 109 117 113 105 113 109 119 117 121 113 99 93 95 107 99 89 95 117 71 81 83 65 65 71 87 65 75 63 77 73 75 63 93 89 75 67 59 55 65 77 63 63 71 79 67 63 73 77 75 79 71 77 87 81 91 87 73 93 99 103 93 95 103 101 77 77 91 89 67 73 79 69 59 79 69 53 81 
111 103 115 101 131 125 101 119 123 109 115 107 109 107 107 103 93 87 95 103 93 77 75 77 81 69 83 75 69 65 67 63 81 87 89 93 95 83 85 79 75 75 71 89 95 87 85 89 81 89 89 79 83 81 79 73 97 109 91 89 103 91 109 89 101 107 99 97 99 101 79 105 81 71 71 61 87 83 61 73 
121 109 101 111 107 117 115 119 99 111 87 127 117 93 103 103 93 77 93 93 91 97 79 85 87 83 89 81 91 81 93 87 85 91 91 89 111 87 95 87 67 89 77 89 83 81 87 85 87 87 89 77 107 77 79 83 105 103 85 89 105 99 91 111 107 107 117 99 103 83 107 85 91 77 59 63 101 81 67 93 
107 117 103 111 123 127 117 125 101 111 113 109 115 123 105 107 99 101 97 95 85 73 81 95 91 89 83 93 95 107 93 105 83 101 105 113 109 107 101 89 93 91 91 89 81 93 83 105 97 99 91 103 95 101 85 99 97 99 101 97 101 95 101 117 101 123 103 103 107 101 115 93 91 99 77 79 91 97 67 93 
119 93 115 111 123 119 109 113 115 111 109 137 117 113 117 103 93 99 95 107 95 89 85 101 99 105 103 99 101 115 97 79 91 111 103 119 119 117 107 101 103 105 105 95 99 99 97 101 103 93 97 103 109 91 87 97 103 91 91 103 97 91 109 115 103 113 115 115 115 93 97 109 101 107 97 91 105 109 67 103 
97 103 129 107 119 123 109 107 117 129 123 123 121 111 115 109 105 107 93 103 93 103 95 89 99 101 97 97 97 105 97 105 117 111 111 119 143 131 133 115 113 109 105 115 115 111 109 119 117 101 117 107 107 107 105 109 115 103 101 103 105 117 121 113 119 127 113 109 107 95 117 111 91 115 121 127 119 117 91 129 
109 107 107 121 113 119 113 133 121 113 121 115 111 123 99 115 89 97 119 109 113 95 101 105 99 105 109 109 101 105 107 103 111 119 129 127 141 127 129 121 113 131 159 125 127 117 135 141 141 139 155 171 187 185 145 133 123 135 121 111 123 127 113 117 125 123 103 109 113 109 121 115 121 107 131 159 153 167 163 211 
103 105 97 103 111 123 123 121 119 129 119 119 127 121 109 109 93 105 95 113 107 93 107 99 99 105 127 109 95 125 113 115 119 133 139 149 183 161 213 233 282 267 282 245 227 199 207 205 207 213 233 229 239 227 197 173 165 155 139 117 129 115 115 123 119 127 109 103 101 145 125 139 143 179 227 273 290 316 302 338 
123 113 111 119 125 113 123 129 105 135 143 133 143 105 111 109 111 117 111 115 127 111 103 109 101 107 119 131 107 139 129 141 171 189 221 245 412 406 437 445 456 449 462 454 460 431 357 322 284 263 249 257 249 237 205 197 193 185 179 165 165 171 151 137 127 151 139 117 115 117 141 195 280 340 363 383 351 363 347 371 
105 107 121 125 123 129 115 131 111 115 107 143 121 109 119 115 105 97 101 129 111 119 107 111 115 111 111 117 119 143 179 239 221 219 207 257 443 450 466 437 458 489 491 491 511 501 485 447 412 341 302 263 241 209 199 189 203 189 173 177 175 161 167 163 163 143 145 139 133 143 209 288 340 369 387 387 392 385 332 334 
131 109 121 111 129 123 117 129 109 121 117 127 127 113 115 107 101 99 103 107 105 103 105 123 103 119 121 121 155 237 328 298 273 271 227 269 418 458 460 429 441 464 487 501 499 499 485 468 450 402 394 357 316 257 265 277 251 233 201 191 197 169 181 185 179 173 155 145 171 237 273 296 324 353 390 388 398 340 249 177 
117 123 129 127 129 119 125 119 117 107 109 127 123 129 105 105 107 105 111 97 119 105 109 113 105 105 125 121 217 359 351 298 259 259 227 257 353 456 437 406 353 290 357 392 419 433 437 418 402 400 373 343 267 280 286 300 298 284 243 191 199 179 183 193 179 169 169 163 187 261 284 292 302 324 365 363 306 231 137 127 
117 113 111 119 105 123 121 119 117 111 119 121 121 121 97 93 97 115 117 117 105 105 97 113 95 103 121 177 292 367 347 318 298 271 259 229 265 326 302 280 241 201 201 239 265 288 294 265 280 280 296 253 245 282 296 290 322 310 288 255 223 215 177 171 163 169 167 169 193 278 284 288 304 288 280 247 171 121 111 125 
123 125 113 113 143 123 121 111 125 117 127 133 117 107 97 107 99 103 117 117 105 111 99 107 105 109 133 257 371 355 381 365 341 296 251 201 207 217 219 209 203 151 179 207 223 241 259 219 229 213 161 171 221 253 275 302 298 316 312 302 280 227 199 185 157 185 159 163 185 271 286 288 263 225 177 147 137 123 99 95 
109 119 133 107 119 133 105 109 115 115 119 113 115 109 103 109 95 115 113 111 115 99 109 105 105 125 167 345 388 369 332 320 259 181 129 107 197 189 197 187 137 123 113 187 217 229 215 219 243 231 173 109 149 199 235 277 310 294 296 302 275 245 217 209 205 201 199 207 237 271 294 247 197 143 131 119 119 113 109 115 
125 111 133 117 125 117 125 121 117 133 121 123 135 123 111 123 115 117 119 113 137 113 117 119 123 133 191 390 414 392 330 292 227 167 155 189 221 201 189 123 113 113 95 143 189 197 197 211 213 209 153 123 117 173 195 217 239 233 241 257 247 247 231 233 239 229 231 221 219 257 247 185 163 137 121 127 111 115 111 137 
121 115 123 117 113 113 123 113 119 135 119 115 133 129 119 115 119 111 131 139 159 143 155 181 181 161 225 338 365 375 336 312 271 249 247 243 257 185 143 105 89 103 99 131 163 183 175 199 215 203 151 135 139 185 207 207 209 203 221 225 247 233 229 231 233 231 221 203 197 205 169 151 145 137 131 141 135 147 111 135 
111 127 123 117 135 129 131 137 127 123 129 123 125 131 125 127 133 123 147 201 229 219 253 326 388 328 343 340 351 351 347 347 340 286 280 282 257 163 137 59 105 113 143 165 191 189 183 211 223 211 143 173 187 211 217 211 215 213 223 235 241 253 231 225 227 211 205 181 177 165 177 163 163 155 147 139 157 149 129 149 
131 133 129 107 125 127 129 127 129 123 137 139 121 129 129 139 121 131 193 259 290 263 320 396 460 491 478 478 357 340 343 349 353 349 365 314 267 167 135 23 89 137 189 207 209 205 189 207 225 205 167 135 203 223 237 227 235 211 221 229 243 225 227 213 215 197 183 181 177 173 161 163 165 141 159 141 177 191 161 205 
125 147 129 143 135 129 123 141 121 117 131 139 127 123 121 121 133 163 247 292 326 353 456 516 528 516 485 491 443 351 308 353 357 355 375 343 271 173 71 12 65 155 209 235 217 211 187 197 207 203 193 57 127 201 219 237 233 211 213 219 235 209 215 215 203 193 211 179 175 179 177 203 207 225 229 231 267 275 280 332 
123 137 143 121 137 139 125 121 121 133 113 131 131 127 123 125 123 183 284 353 369 425 509 532 512 503 493 480 481 388 253 306 371 345 314 284 243 147 57 25 43 169 223 235 241 237 213 217 229 201 217 153 85 141 205 213 207 219 209 207 213 201 205 219 217 197 225 205 211 255 280 312 338 324 347 349 343 340 336 369 
113 121 113 137 119 117 119 117 123 125 133 131 133 125 117 119 135 177 300 357 421 487 524 530 410 458 481 421 480 427 284 284 336 367 294 253 243 153 75 37 101 191 229 280 304 308 257 215 199 207 247 213 185 189 187 183 197 191 207 209 203 211 203 213 215 215 259 300 312 324 316 340 345 371 357 369 355 347 310 306 
109 125 117 111 125 123 113 113 113 109 123 115 127 123 127 123 127 173 231 330 433 512 538 493 377 396 452 361 371 312 282 308 367 367 308 247 227 171 107 127 165 217 338 400 412 443 416 343 249 207 239 223 205 193 175 165 175 191 201 203 201 209 209 223 215 211 302 328 318 314 306 330 345 357 347 353 330 282 243 223 
105 121 129 119 113 119 125 133 115 137 113 135 121 127 109 127 139 149 215 261 349 379 483 493 445 456 414 213 175 157 179 233 336 357 304 298 296 239 225 205 251 365 404 425 447 447 431 435 394 298 247 213 209 197 179 169 161 157 165 179 199 203 215 223 229 231 324 347 324 316 304 328 359 332 341 292 245 195 175 161 
113 115 131 119 131 131 119 121 123 125 119 119 125 129 131 109 127 135 137 175 193 231 286 355 396 298 209 151 159 159 167 181 239 312 282 261 255 221 227 227 221 257 345 379 433 433 439 435 449 404 334 229 197 179 165 145 151 147 151 147 191 191 197 217 239 253 341 349 326 316 290 312 310 259 243 179 155 145 121 127 
111 125 123 125 117 119 133 117 109 119 119 125 117 119 113 111 121 129 121 119 135 141 139 151 147 137 137 121 137 147 151 171 179 217 215 211 193 149 213 165 165 141 153 159 227 341 404 400 441 429 410 367 243 183 149 131 131 125 145 133 141 169 175 209 221 251 334 338 298 290 247 219 207 163 163 133 133 131 117 133 
119 139 121 129 119 125 129 143 127 125 139 125 117 123 121 113 113 113 125 125 123 125 111 131 137 121 129 133 129 139 147 163 157 177 153 213 175 225 187 143 121 127 119 111 133 167 219 257 306 343 400 418 383 306 245 195 143 155 171 147 141 137 145 163 193 235 288 280 213 209 175 163 165 135 133 111 129 129 105 127 
115 125 125 125 133 131 121 129 117 123 135 125 123 131 125 113 113 119 117 105 103 107 101 121 119 115 115 129 121 121 133 151 145 161 155 191 189 189 149 127 115 117 103 121 127 157 167 177 187 195 247 312 363 316 314 275 257 255 239 161 137 119 137 155 157 181 201 209 173 163 165 155 143 129 129 121 119 135 95 101 
131 125 113 119 133 117 109 123 123 129 113 121 115 119 115 105 107 101 105 103 117 113 109 103 111 117 121 121 107 121 123 121 123 155 147 189 169 169 157 119 127 117 117 115 147 159 161 153 161 149 165 173 199 282 316 322 326 300 286 231 155 153 151 171 191 193 199 187 187 157 153 149 143 135 111 129 129 115 99 109 
121 131 123 113 125 133 109 131 117 119 107 115 117 119 119 113 107 111 117 123 113 117 109 121 121 109 129 123 119 131 135 135 133 161 151 155 153 155 161 135 131 109 121 117 119 139 143 145 151 153 159 151 163 171 167 231 239 233 189 135 133 131 153 189 207 217 199 203 177 161 139 143 157 119 113 109 115 103 101 111 
125 131 123 117 147 121 123 149 117 129 115 115 123 119 115 117 107 111 123 125 123 125 115 123 127 109 133 129 131 141 137 141 149 165 159 165 167 175 187 153 129 125 119 115 129 117 139 135 143 123 135 145 147 149 145 163 155 145 131 123 135 131 153 173 199 217 195 195 179 167 167 151 147 125 111 107 123 111 99 109 
111 115 127 117 129 133 123 139 125 127 121 109 121 135 127 111 99 115 125 117 131 125 127 135 123 127 145 141 129 141 141 145 143 161 163 161 177 157 171 151 147 147 135 117 121 127 135 133 149 131 143 143 145 141 139 133 125 135 123 127 123 137 151 181 205 205 209 191 181 171 143 145 139 133 115 119 115 127 111 109 
113 139 121 125 123 135 127 147 139 123 129 121 127 123 123 113 121 115 129 125 135 119 119 121 133 131 145 149 163 159 171 161 175 181 173 167 163 159 147 141 151 163 149 127 123 135 129 131 141 137 137 149 157 151 139 135 135 143 139 117 139 147 161 179 199 203 189 185 179 179 157 147 143 117 123 121 119 111 103 125 
117 123 105 129 137 119 119 125 125 117 123 125 117 129 127 131 103 127 125 121 129 127 127 131 139 153 149 215 288 306 334 334 318 306 322 286 217 155 149 131 139 149 153 141 123 133 137 143 145 141 139 141 153 155 137 149 141 133 157 167 181 159 157 167 169 169 173 181 207 167 163 157 159 143 121 129 127 135 111 149 
111 133 125 127 145 115 121 125 121 133 129 121 117 141 127 125 131 123 133 127 135 125 125 149 155 153 203 343 373 406 398 388 359 398 431 419 361 237 165 141 131 147 157 165 159 145 137 149 153 153 159 183 179 197 197 191 163 171 193 199 209 193 189 173 157 161 159 177 187 173 181 203 215 209 221 219 203 165 163 167 
119 119 103 117 119 137 133 131 123 125 121 125 125 127 137 127 119 131 129 127 143 111 129 145 141 161 280 349 365 371 394 406 390 419 449 450 423 343 257 153 147 157 183 201 197 193 193 199 213 213 219 245 247 231 213 197 169 191 203 199 207 211 187 187 165 167 175 189 193 217 237 278 314 332 324 310 308 286 269 263 
113 111 113 123 111 123 121 125 105 125 129 129 111 135 123 129 115 123 127 121 131 129 123 151 147 161 326 336 312 349 369 385 398 421 437 447 425 336 322 215 203 217 205 239 217 221 215 185 219 219 229 263 259 237 225 199 199 209 209 205 197 197 195 175 171 159 179 187 167 191 231 275 312 328 353 338 328 328 286 304 
117 115 113 115 115 127 119 135 127 115 115 117 131 125 127 121 129 115 131 131 143 135 133 147 155 199 326 367 334 330 330 322 357 423 418 458 408 357 334 294 273 249 209 207 219 209 183 191 227 243 241 243 243 235 227 217 211 211 209 149 113 163 171 175 159 177 165 151 131 155 223 259 298 328 351 347 330 336 302 318 
115 131 115 113 119 125 121 121 139 127 133 125 123 139 137 151 183 179 189 181 183 149 159 161 167 231 347 355 351 334 294 296 328 396 429 450 431 365 341 318 330 265 219 207 213 205 197 183 215 227 237 237 247 243 229 217 213 199 197 105 0 159 165 171 173 155 149 129 145 163 207 237 296 306 326 336 326 320 298 296 
109 135 123 111 111 143 127 129 127 121 125 125 131 155 161 223 351 392 392 396 404 357 243 183 187 298 351 359 326 320 275 269 343 371 383 454 433 377 343 312 286 298 219 217 209 191 193 169 191 211 223 223 223 227 231 211 217 203 187 167 149 177 189 183 177 175 147 163 145 185 201 231 251 271 292 282 267 231 185 205 
125 131 133 97 125 115 117 129 131 129 121 121 127 143 211 347 454 425 464 518 507 449 433 365 320 392 363 353 332 314 265 280 273 271 296 437 431 371 341 296 298 308 239 229 213 187 187 163 155 175 211 227 219 225 229 213 213 217 195 197 181 177 193 195 179 171 169 173 181 185 173 155 151 127 123 121 129 113 121 149 
113 131 111 105 113 131 115 113 127 121 123 133 117 143 257 392 460 456 497 555 499 443 425 423 431 427 387 334 308 296 275 247 239 237 235 392 431 365 326 296 290 284 253 229 223 187 185 167 153 143 199 217 225 233 223 203 201 211 221 219 217 195 197 187 187 171 165 157 157 145 139 121 97 87 89 85 93 97 107 129 
111 129 119 119 115 115 121 131 115 117 127 123 115 129 247 388 443 472 507 543 514 406 351 361 406 410 394 308 300 278 255 245 217 211 195 340 400 369 332 312 300 273 257 239 217 199 199 169 145 135 191 205 209 223 215 209 209 213 213 217 221 193 193 191 173 171 137 135 121 131 117 97 97 87 85 85 103 99 101 119 
111 115 119 117 127 121 125 127 119 109 125 123 129 137 217 367 421 437 503 536 507 404 373 385 394 392 381 292 280 245 225 215 207 189 165 280 388 377 345 318 294 269 251 245 229 219 197 183 157 153 213 221 237 209 223 201 209 195 185 185 187 173 149 135 139 129 121 111 119 111 113 81 97 83 109 99 123 133 109 131 
103 145 121 133 127 133 125 131 129 107 123 121 121 123 169 320 419 412 456 505 466 433 427 431 414 390 392 302 267 237 215 221 201 179 105 241 373 341 359 326 298 263 231 233 227 207 195 183 169 189 259 249 233 253 217 207 185 169 155 117 139 125 127 137 137 137 135 133 135 125 111 97 109 95 107 117 121 143 131 137 
99 123 119 121 141 137 119 117 131 129 131 117 131 129 151 203 312 341 390 441 435 414 400 345 304 383 357 320 282 271 223 241 191 155 93 229 361 357 381 347 284 257 223 221 205 199 183 185 173 219 296 253 245 223 179 173 157 143 145 131 129 157 165 165 159 155 157 131 137 131 121 123 123 115 113 117 131 121 117 135 
101 123 119 117 141 139 125 119 117 129 135 119 131 139 135 137 153 155 179 207 215 187 163 167 163 267 349 349 294 267 249 209 195 141 41 209 341 357 402 353 312 265 227 219 211 203 197 171 175 223 219 201 193 159 143 149 163 159 175 183 197 195 211 219 237 231 211 175 167 141 127 129 117 113 135 125 127 131 115 153 
103 125 125 133 133 137 121 115 119 121 131 119 121 123 133 141 109 115 131 143 131 133 127 135 135 189 328 322 282 261 239 223 217 169 109 229 349 392 414 361 310 278 237 223 217 211 195 175 171 175 149 159 151 151 147 163 177 187 197 209 227 227 227 243 225 221 235 221 199 179 153 163 177 145 179 187 159 163 135 189 
109 121 115 125 127 127 121 129 115 129 125 121 129 131 117 113 127 123 121 129 123 117 107 113 111 157 308 343 308 255 207 221 241 215 155 201 343 427 431 369 322 275 253 239 223 211 213 199 185 169 153 169 161 151 159 169 189 207 209 207 211 217 205 193 187 209 215 185 161 157 163 191 235 253 277 300 282 263 213 223 
103 119 119 131 139 123 125 131 119 107 115 131 121 125 121 111 117 113 129 109 119 111 111 109 115 135 263 353 284 239 223 217 249 257 245 225 365 431 418 373 308 280 261 243 227 231 261 191 193 189 185 173 187 165 165 195 189 191 201 205 223 211 187 187 197 215 203 159 127 105 147 179 229 277 300 328 338 328 277 330 
111 129 113 121 145 135 117 127 125 133 115 121 111 115 131 123 103 103 105 123 133 95 103 117 101 133 229 322 286 259 280 282 277 304 336 381 423 435 402 351 318 300 257 247 213 239 245 195 219 203 195 191 193 193 183 197 207 187 191 193 205 225 203 197 199 193 171 149 127 111 157 207 267 316 334 351 365 367 340 345 
105 119 107 103 125 131 121 123 113 115 125 115 117 127 113 117 101 95 125 125 121 109 109 107 101 115 181 286 280 308 308 298 308 326 392 427 445 439 392 341 318 314 259 183 187 221 195 203 225 199 195 215 217 211 205 203 213 195 203 211 209 195 193 199 165 147 155 169 127 129 191 247 318 343 336 361 367 359 340 326 
107 119 115 123 127 115 117 117 113 125 113 99 121 125 99 107 107 97 105 121 117 107 103 115 99 103 129 205 290 324 302 300 312 332 406 433 429 419 361 306 273 255 169 133 133 131 163 195 217 205 237 227 229 213 217 227 225 205 207 193 193 189 191 135 141 103 115 127 115 149 199 245 310 324 334 357 359 320 308 318 
109 133 109 115 119 127 105 123 105 111 113 107 121 115 115 95 95 101 95 95 109 117 95 113 91 101 113 119 137 209 245 263 282 300 377 410 394 390 330 221 135 111 115 97 109 101 113 141 201 211 225 213 187 175 191 199 195 181 159 149 163 159 151 131 113 97 81 95 105 117 117 139 187 213 231 235 239 233 179 227 
105 107 111 103 115 111 109 123 81 97 113 115 105 119 105 103 97 91 101 93 105 87 95 99 103 83 99 93 101 115 123 127 137 165 201 263 241 199 169 121 111 107 85 79 89 107 103 97 121 129 133 133 113 95 93 129 133 145 125 121 117 117 119 127 89 71 81 95 95 95 109 83 107 141 129 143 133 129 135 155 
105 103 97 103 105 93 97 109 85 99 101 109 101 99 105 105 83 81 87 93 75 87 79 89 97 79 77 81 81 93 83 85 99 91 99 107 105 95 93 85 91 87 75 79 71 97 85 75 93 77 97 85 91 79 73 83 93 99 101 83 91 83 103 105 83 81 69 89 69 65 87 65 75 93 111 119 119 105 97 133 
89 83 95 81 95 95 85 93 87 85 97 95 91 103 99 99 83 77 97 87 75 67 75 69 73 71 73 61 79 79 79 77 75 79 83 81 85 79 67 55 49 73 57 75 79 79 73 85 77 77 77 85 61 73 63 75 79 87 63 75 73 71 67 81 77 77 75 63 69 57 55 53 47 81 107 91 109 99 101 119 
99 105 75 75 81 97 97 93 77 81 101 87 91 95 91 79 73 79 81 69 73 77 63 91 69 83 69 85 69 63 69 61 73 73 69 81 81 59 73 57 67 75 69 61 79 71 75 75 73 55 67 67 69 79 61 61 63 73 77 59 69 71 75 71 73 73 75 61 65 61 57 43 47 81 101 91 95 103 81 89 
105 109 83 91 81 107 95 105 99 87 91 89 81 75 81 89 79 57 81 81 61 67 73 81 71 65 63 65 63 75 79 73 85 87 95 91 117 99 99 93 95 99 91 109 113 107 109 97 99 79 75 89 77 75 79 81 73 91 75 73 65 87 73 89 93 73 65 65 61 49 51 39 49 61 71 93 83 101 77 99 


