P2
80 60
573
147 135 163 163 119 127 143 129 133 133 131 135 133 131 141 141 139 141 141 117 115 123 137 125 95 109 125 111 99 97 121 103 121 119 117 129 133 127 89 99 81 87 85 95 87 89 105 105 109 119 107 105 111 113 107 113 119 105 127 115 131 111 119 131 141 111 119 103 103 113 119 97 117 109 115 107 111 117 105 125 
163 131 139 141 129 133 133 133 131 137 137 133 135 123 123 131 143 127 129 121 135 115 113 117 101 99 101 113 99 101 113 115 125 107 109 133 135 125 105 95 85 91 93 85 91 91 115 103 97 113 111 101 105 117 119 119 111 123 129 109 131 133 125 123 115 119 115 105 109 121 119 105 103 111 109 101 97 99 105 127 
141 123 145 123 137 133 133 139 139 135 123 125 133 121 131 127 123 119 123 121 119 119 125 105 113 101 109 107 103 83 113 101 119 121 131 137 145 135 113 107 109 91 103 107 109 107 115 113 115 125 127 115 111 113 121 109 119 139 113 123 131 123 127 111 115 131 133 115 125 123 117 123 113 105 111 97 119 113 113 115 
153 125 121 135 123 125 127 143 113 131 113 137 143 103 123 127 119 109 119 111 107 129 119 109 115 109 125 117 121 109 133 127 141 125 129 135 153 133 125 119 107 107 105 127 113 113 125 113 125 119 121 113 135 117 117 109 125 135 123 127 143 121 127 141 131 139 145 117 127 111 123 123 113 111 107 97 121 121 107 99 
145 143 131 133 127 143 139 141 123 133 133 129 143 143 133 125 135 141 139 119 115 111 113 121 133 121 121 119 129 131 141 139 137 141 147 151 153 149 143 123 123 131 113 137 125 143 125 133 139 129 129 139 133 143 121 137 129 121 123 137 131 127 133 149 123 135 123 127 133 137 139 123 131 133 117 111 121 107 107 117 
139 121 145 147 131 145 143 143 133 129 127 153 131 129 143 139 131 127 131 127 117 131 133 131 127 131 123 133 131 127 151 123 145 143 145 163 175 165 151 157 135 127 145 155 149 151 161 155 145 139 147 139 135 143 131 129 135 121 131 147 139 125 125 137 139 131 143 137 121 123 131 139 139 129 131 111 135 129 115 123 
137 137 165 137 133 151 131 133 141 139 139 139 141 129 145 135 139 139 133 135 129 145 143 125 135 137 135 137 137 137 139 149 169 157 163 175 211 249 255 259 223 203 245 263 318 344 348 324 247 187 191 161 153 151 147 151 145 145 135 139 133 151 141 137 141 145 143 137 137 129 135 139 131 139 147 131 135 127 123 123 
159 129 141 161 133 149 143 149 143 143 139 137 143 153 131 151 121 133 145 139 141 135 141 135 137 137 141 141 139 137 159 137 173 167 211 269 352 330 300 285 326 412 447 435 443 435 428 408 381 342 346 298 215 195 169 165 165 163 167 153 159 147 135 135 159 143 129 125 137 133 135 149 143 117 149 141 129 129 131 137 
149 131 131 149 133 147 157 147 145 143 145 139 157 153 149 145 131 135 139 137 137 135 143 127 133 145 153 135 137 153 159 173 209 269 322 263 239 235 283 293 306 435 459 457 455 445 466 435 414 381 332 277 237 213 185 185 201 199 211 213 195 163 149 151 147 155 157 147 135 149 149 147 143 125 137 135 135 139 129 149 
165 141 145 149 141 141 159 137 127 159 149 153 157 145 153 153 137 149 151 145 153 141 153 145 143 137 157 151 147 155 165 211 346 371 326 205 153 119 217 324 312 416 430 393 359 348 383 361 330 245 217 225 227 203 173 205 219 223 219 215 195 177 163 151 145 173 177 147 145 151 147 157 167 145 129 153 143 143 125 147 
169 143 155 149 131 155 139 143 145 135 127 151 131 135 163 161 137 141 147 149 137 151 151 143 147 139 151 139 137 131 189 308 379 354 346 334 308 281 291 316 294 294 289 263 261 267 281 255 223 193 199 209 229 221 203 211 225 203 203 217 199 171 157 157 153 165 169 157 151 141 153 165 177 149 161 151 159 153 139 155 
193 145 161 139 151 129 149 157 137 143 137 147 147 133 151 143 143 139 145 135 149 151 153 169 133 155 153 145 151 145 215 354 381 387 375 395 371 330 300 285 271 247 273 320 318 316 287 235 207 179 189 203 237 241 233 215 231 237 201 203 191 163 179 159 163 165 197 213 193 213 221 227 229 219 203 179 179 159 145 179 
157 157 165 139 141 135 153 153 157 133 143 145 145 159 139 143 147 141 147 133 159 159 173 177 163 163 193 155 151 177 241 363 410 418 412 369 352 281 243 255 300 300 302 298 285 300 281 235 203 201 185 195 243 249 251 255 251 225 203 183 183 177 177 163 163 193 247 296 312 300 306 344 365 377 352 314 271 233 177 175 
165 137 155 143 125 145 137 139 141 137 147 133 145 151 127 131 133 155 149 165 171 227 241 251 287 350 304 213 199 213 318 385 414 412 389 346 271 203 241 324 350 332 318 320 291 302 277 233 213 201 183 219 249 269 269 273 255 221 201 207 211 203 193 179 197 195 265 318 316 312 316 332 385 408 406 401 379 359 324 283 
177 149 143 137 149 143 143 129 145 141 137 141 131 129 127 149 139 145 155 159 255 304 326 350 420 515 507 455 416 426 387 373 416 403 357 293 207 165 257 312 350 324 322 300 283 300 294 247 221 201 181 225 255 283 277 265 247 255 237 231 249 239 255 231 221 209 275 304 310 318 308 324 363 381 397 385 391 389 379 361 
151 141 149 137 117 145 119 137 133 141 133 129 133 129 133 139 129 155 153 193 316 369 387 439 492 534 528 528 497 486 352 352 422 371 350 259 175 159 273 338 344 334 287 285 283 283 277 225 159 101 163 213 263 287 279 249 267 273 271 265 255 259 267 267 223 217 263 330 336 312 306 326 361 369 381 354 367 373 371 371 
155 137 145 139 133 135 133 147 131 139 131 129 151 139 139 151 145 151 165 197 324 381 439 540 556 534 404 501 494 465 375 377 430 373 348 255 153 171 283 348 348 328 322 287 287 287 275 217 107 4 149 215 267 289 277 247 275 293 302 318 294 291 326 344 306 249 247 279 253 245 231 253 275 279 283 265 273 275 287 312 
149 145 147 139 131 135 135 119 143 147 131 131 149 153 151 143 155 155 173 221 324 393 445 554 548 515 412 449 466 466 426 445 432 385 365 273 183 167 257 336 338 348 320 269 291 304 287 215 201 187 95 207 285 289 294 300 304 316 324 306 314 289 340 381 367 332 253 215 197 213 199 197 199 189 191 189 177 185 175 189 
165 147 153 151 149 139 149 157 147 135 141 147 149 149 147 157 159 157 179 211 287 363 397 439 505 544 490 497 441 461 441 443 439 395 389 342 293 197 231 306 344 336 322 298 320 302 300 253 237 193 22 181 279 296 318 322 342 336 328 326 316 322 340 379 379 354 316 265 213 201 193 189 195 179 179 171 185 185 167 179 
167 143 147 143 151 135 157 155 147 143 145 149 149 143 145 155 155 155 149 169 235 245 265 294 361 455 453 359 283 332 428 403 414 395 395 385 334 251 211 265 314 332 320 304 308 293 281 261 241 179 105 163 285 296 320 324 344 352 340 326 324 308 332 352 369 375 326 275 221 191 193 191 181 167 181 159 173 169 173 173 
163 161 151 167 145 141 133 155 137 129 141 153 141 143 159 145 149 155 151 151 177 181 181 189 195 203 195 199 205 247 373 387 383 381 389 399 361 316 281 261 289 328 316 322 306 287 263 237 217 173 177 239 263 293 310 318 344 338 348 340 332 328 338 363 387 352 330 269 215 209 197 189 171 171 159 167 167 163 169 163 
157 157 171 151 157 147 139 141 135 145 131 141 145 135 149 153 145 153 165 147 161 163 169 169 175 161 175 189 177 213 352 389 361 354 356 365 379 357 336 306 326 338 314 318 304 294 263 213 213 173 185 241 259 247 267 269 289 320 326 342 330 312 314 356 361 310 265 207 221 215 197 173 163 155 169 165 169 165 161 165 
159 151 135 163 145 127 149 153 141 137 143 149 147 145 143 139 151 159 169 149 151 159 155 157 161 175 171 171 191 209 352 395 322 316 285 263 310 369 348 344 316 310 326 318 314 304 281 219 225 221 225 225 225 215 235 207 221 261 322 328 302 289 277 296 281 227 199 211 215 207 187 177 181 163 159 155 165 169 155 155 
161 149 143 135 149 131 129 149 147 133 149 131 143 149 165 153 141 155 145 155 169 155 155 159 141 159 165 173 179 187 316 418 310 135 0 45 195 285 354 340 279 247 203 219 251 267 265 239 223 219 217 183 79 137 223 195 191 213 247 243 219 209 203 217 209 195 203 197 201 199 181 171 175 161 157 163 153 159 161 157 
175 149 159 149 145 137 155 153 147 159 151 151 147 165 155 139 161 139 167 149 155 163 167 165 149 165 171 171 177 193 255 371 389 249 83 149 273 287 314 373 359 267 205 195 201 205 205 191 201 231 251 257 249 308 294 251 207 161 165 167 189 177 185 181 191 183 193 209 193 189 159 183 189 155 173 169 173 171 159 181 
155 137 155 141 143 147 149 135 151 151 137 145 147 155 153 135 151 151 159 159 153 157 165 167 149 157 165 171 181 185 213 265 375 383 340 306 263 239 340 447 445 457 420 387 381 361 320 279 287 314 383 365 340 322 322 306 231 181 161 153 175 169 167 175 173 171 175 177 173 185 169 181 181 161 175 169 151 163 137 165 
147 145 149 139 135 135 141 125 127 129 137 149 133 137 137 141 137 151 151 145 147 161 159 159 155 149 157 149 163 165 187 199 255 324 361 340 322 302 418 457 461 463 451 437 424 418 404 373 387 397 432 393 359 330 314 294 191 157 155 157 161 163 161 163 181 173 175 183 181 183 171 175 169 165 171 147 151 157 137 165 
153 149 145 135 129 131 139 149 133 137 153 133 133 159 147 137 131 141 143 139 141 145 149 147 141 147 153 159 151 161 165 185 197 211 263 322 332 322 356 373 381 435 459 474 465 441 416 395 385 387 414 403 354 318 283 213 157 161 139 157 151 149 163 159 169 167 171 179 177 187 173 167 171 163 151 139 159 153 149 145 
161 137 143 149 139 141 137 129 123 131 137 139 129 151 139 151 145 147 145 139 131 137 139 135 143 147 153 153 147 145 163 179 185 189 197 235 296 267 211 191 183 195 257 336 369 361 318 257 229 241 251 253 253 231 205 167 155 159 147 149 155 149 155 177 179 181 195 189 171 191 175 175 171 155 147 143 151 157 153 153 
157 139 145 135 137 133 133 131 139 147 125 135 125 135 135 139 129 133 141 127 141 149 149 131 133 147 147 145 135 151 167 155 179 189 189 203 221 207 183 157 151 137 131 155 181 197 201 185 195 189 201 185 183 187 173 165 149 159 151 159 165 171 173 181 193 197 207 195 189 177 171 177 169 165 137 147 157 147 131 149 
149 145 145 133 133 131 129 145 119 141 121 141 131 143 151 139 135 151 151 149 139 159 145 149 143 153 153 151 145 157 177 181 189 187 195 201 199 191 173 161 147 143 145 147 157 153 171 167 177 177 183 177 185 171 163 163 167 157 155 151 157 165 181 203 221 229 219 215 209 191 177 163 165 161 159 127 151 147 129 127 
159 155 155 149 143 137 143 165 135 139 137 131 135 139 143 153 143 151 153 143 145 159 155 163 155 151 161 155 157 169 181 183 205 203 195 213 211 197 183 163 153 157 143 143 145 139 167 181 179 165 173 171 173 181 167 171 173 157 149 157 167 157 185 197 219 237 221 219 201 199 193 179 161 161 141 139 161 147 141 141 
147 139 151 143 143 139 131 147 135 127 135 133 145 159 153 149 139 149 155 137 159 167 165 161 155 157 161 165 153 159 181 185 205 235 247 271 253 243 219 183 177 175 161 149 143 147 159 157 175 175 167 171 185 183 173 165 157 153 143 153 159 167 179 203 229 229 221 217 205 211 177 181 177 155 149 149 153 155 131 145 
157 163 139 153 127 155 147 153 147 133 145 131 151 135 149 145 151 149 149 145 155 159 169 153 165 159 177 167 195 207 289 320 357 359 359 336 330 356 397 356 312 277 225 159 147 149 153 161 171 179 171 179 185 191 175 171 175 175 159 155 161 169 193 209 229 223 211 201 205 205 193 179 175 157 157 155 157 155 125 151 
147 155 155 157 147 145 141 135 145 133 137 143 141 145 155 149 129 159 167 147 165 179 167 159 169 175 181 207 281 342 375 375 379 373 371 381 399 418 459 434 439 422 365 275 159 151 157 163 169 169 185 183 185 193 185 177 161 159 171 211 193 181 183 209 193 195 197 205 219 201 199 199 207 205 177 177 163 177 159 185 
131 157 151 161 149 139 149 139 143 141 155 131 143 163 159 153 163 157 163 147 161 169 157 175 175 175 199 285 371 320 354 354 385 379 387 397 404 428 451 445 434 430 422 395 293 191 167 177 177 183 177 181 205 211 195 189 175 181 221 239 229 219 211 205 185 171 173 203 213 207 247 293 316 306 314 308 306 277 257 243 
159 133 133 143 139 139 149 147 149 137 143 139 137 143 171 163 159 167 163 155 185 163 175 171 163 187 227 363 385 359 350 338 359 385 383 377 393 406 435 439 432 443 441 434 406 340 253 233 223 239 217 215 219 233 207 195 171 215 225 233 245 243 221 209 185 181 187 219 247 279 294 342 379 395 373 359 369 357 332 334 
151 137 137 149 129 127 141 147 135 137 135 147 135 155 157 177 145 167 157 155 177 185 173 179 175 185 273 371 379 361 369 332 328 322 332 356 369 354 397 393 403 412 426 445 428 410 363 277 261 247 243 241 229 235 235 231 233 239 253 251 235 239 225 203 177 165 193 211 207 245 279 326 379 387 403 377 377 375 340 350 
153 147 155 145 129 139 149 157 145 129 133 141 145 157 167 179 177 179 175 179 173 179 171 181 193 219 338 399 375 363 357 338 324 320 296 294 293 302 304 289 310 336 383 404 426 416 381 346 306 279 271 267 255 271 263 267 269 273 257 199 157 233 215 205 183 173 181 175 165 209 267 312 348 371 389 377 367 377 359 340 
157 151 155 145 133 137 139 141 161 143 137 147 143 159 193 255 346 393 387 346 367 320 235 205 193 285 395 389 367 350 348 322 336 332 275 247 253 259 245 247 251 273 302 357 387 404 403 373 352 300 298 291 294 296 279 294 296 273 267 165 51 227 225 207 189 151 163 165 183 203 259 294 354 344 359 354 356 326 294 306 
165 161 153 155 133 145 141 143 147 145 141 141 157 181 255 397 505 503 521 528 501 497 445 346 304 414 418 401 369 371 354 334 348 306 239 211 235 243 239 231 219 247 253 296 326 361 391 369 379 344 316 304 310 314 312 300 306 281 253 233 203 233 233 215 195 177 151 193 183 235 251 259 279 285 259 241 225 203 171 197 
159 159 157 125 129 131 133 139 145 137 119 129 165 179 336 488 497 528 573 559 517 478 463 453 461 449 451 401 363 352 356 330 328 265 205 195 219 219 225 223 221 221 239 257 265 294 340 363 365 346 330 308 316 326 316 302 306 273 263 253 225 217 217 197 185 147 153 203 211 215 197 173 171 133 119 115 139 147 133 165 
155 141 143 129 131 135 141 131 145 135 129 145 141 183 365 528 497 538 573 552 461 375 422 403 461 453 451 387 342 318 320 300 296 245 177 181 215 249 231 221 221 227 229 245 257 245 287 326 352 330 336 328 320 326 324 348 300 275 277 267 235 227 209 189 181 155 151 167 175 177 171 157 123 111 101 97 129 131 139 149 
149 145 141 139 123 147 139 141 137 129 147 141 145 169 340 488 465 523 556 550 480 359 381 414 445 430 428 365 340 312 302 275 255 233 163 141 207 239 241 233 239 233 239 255 243 239 265 298 304 322 338 338 326 316 342 352 346 285 261 257 239 209 199 197 175 161 147 157 155 157 151 139 131 131 121 117 133 139 143 145 
145 139 143 149 135 141 139 129 147 133 133 153 137 165 267 435 463 494 552 532 476 472 439 453 447 443 416 348 314 279 277 263 243 215 149 125 201 215 245 255 249 237 247 247 243 247 263 291 291 326 340 340 328 312 348 350 350 291 253 243 215 193 165 157 165 145 155 137 147 135 133 123 127 121 159 137 161 161 153 153 
137 151 155 145 145 151 147 139 149 123 137 133 129 155 183 324 424 435 496 501 468 457 441 401 381 437 403 346 308 279 277 265 237 207 103 87 197 221 247 255 245 247 235 247 247 237 253 271 302 334 340 348 352 342 336 348 283 241 201 159 175 167 155 157 169 153 155 153 161 149 131 129 151 133 143 149 167 169 161 161 
131 133 137 129 147 149 137 135 145 139 139 139 143 159 155 195 239 255 275 300 312 283 249 205 227 389 404 383 328 306 293 289 241 179 103 105 173 231 245 255 243 243 231 233 227 233 239 273 342 338 354 340 361 352 294 263 243 205 177 159 163 179 185 181 197 177 165 153 159 165 155 161 151 147 145 149 177 159 157 187 
155 145 149 141 145 143 149 145 143 151 141 149 143 151 147 163 161 165 173 173 183 179 175 173 183 300 408 393 352 326 314 277 259 173 81 73 131 207 249 257 257 247 231 239 235 233 267 306 348 356 377 365 373 342 247 233 229 233 219 205 197 223 217 223 249 243 237 209 189 171 161 171 155 149 163 167 167 169 173 187 
139 147 157 149 145 135 143 133 139 149 147 141 139 143 151 149 147 147 157 159 149 169 165 155 177 231 404 391 346 314 322 294 279 179 111 115 159 213 247 257 263 255 241 239 247 261 291 316 350 354 375 383 348 285 251 249 245 251 221 217 221 249 259 275 277 283 271 249 237 215 185 195 207 191 213 213 195 195 171 207 
155 135 151 143 143 145 147 143 131 147 143 139 143 161 141 139 155 155 153 147 153 159 139 143 151 203 381 377 375 310 296 293 289 233 145 121 177 205 235 255 281 261 263 275 279 318 342 352 356 336 318 314 298 267 259 227 231 215 215 219 245 275 261 259 237 265 283 229 201 203 197 231 273 289 306 314 306 298 257 239 
145 135 153 141 151 139 143 143 139 125 129 155 141 145 151 139 137 147 167 135 157 147 153 139 159 179 377 393 344 314 308 281 302 281 255 203 231 267 277 294 300 306 318 352 371 379 371 359 342 293 296 279 283 257 251 237 219 215 241 251 269 253 215 221 235 255 265 205 159 149 179 227 271 310 330 357 367 361 354 352 
143 139 151 141 137 145 147 139 141 143 141 137 127 143 159 149 137 143 141 143 149 135 143 147 143 173 300 363 357 308 328 314 342 338 332 330 363 383 371 357 369 379 391 414 412 403 379 324 300 277 271 267 259 261 243 253 239 225 225 235 225 243 227 219 223 221 227 187 167 151 205 255 304 348 373 381 391 395 377 385 
151 151 131 127 117 151 141 125 137 135 141 137 133 155 149 141 135 141 161 139 141 141 157 129 135 137 229 324 332 332 352 334 346 332 352 359 393 439 434 424 418 410 420 443 428 393 328 283 267 249 259 249 265 251 249 263 239 231 229 245 241 225 217 199 183 195 203 193 177 177 237 294 359 385 399 383 399 395 379 383 
145 145 147 147 133 137 137 135 133 141 125 121 137 151 143 147 133 137 135 137 135 143 141 141 139 139 165 187 253 316 334 338 352 344 354 375 434 459 432 420 435 453 447 422 363 273 229 215 239 221 243 233 243 239 239 255 253 223 231 231 229 215 215 163 167 165 157 165 161 199 245 300 361 371 383 385 391 352 356 369 
143 157 135 139 127 135 123 143 133 125 129 127 145 135 149 129 133 133 125 131 127 155 127 131 127 129 141 137 149 173 229 285 328 316 336 342 437 455 428 418 424 418 365 265 183 145 145 145 155 173 179 183 183 203 197 215 235 231 217 223 211 207 183 155 153 139 137 135 131 143 161 185 241 267 285 277 285 275 241 255 
153 129 137 127 125 125 125 139 115 121 119 141 117 125 129 143 127 131 127 117 127 129 129 125 129 107 133 123 115 121 157 163 197 207 257 263 304 300 316 308 298 279 179 145 129 125 141 123 137 129 133 131 125 131 123 143 149 165 165 179 183 191 185 171 139 111 119 127 121 127 135 127 145 171 181 171 175 167 177 197 
151 145 137 131 131 107 121 133 111 123 121 135 121 121 133 143 115 109 123 117 113 133 127 117 113 117 129 111 113 107 139 129 143 127 153 167 171 157 161 145 133 129 119 119 115 113 115 103 121 119 127 119 127 131 113 115 129 125 127 127 133 135 149 133 127 111 109 107 107 103 115 103 123 135 145 143 163 153 143 177 
141 121 135 127 119 115 111 113 117 107 101 101 109 123 149 135 121 115 133 119 119 109 127 97 101 113 107 99 105 117 129 119 121 115 129 127 133 129 113 101 91 89 91 105 99 91 109 107 105 113 107 107 93 115 117 127 121 119 101 101 111 103 101 109 115 95 103 97 99 95 83 87 95 123 155 125 145 151 149 157 
125 131 111 117 91 109 121 109 113 105 103 107 117 115 115 119 109 127 119 113 111 119 99 115 109 117 103 109 103 97 117 107 117 107 113 125 133 105 107 91 93 79 87 87 93 85 109 105 93 91 99 109 101 117 107 101 101 105 99 91 109 101 101 97 99 107 101 87 101 93 91 79 89 129 139 121 153 143 139 143 
147 131 115 135 105 107 119 127 115 103 97 97 111 97 111 125 111 97 121 105 101 121 113 105 107 105 93 89 87 99 123 123 129 137 125 135 155 141 117 117 105 101 103 109 117 123 137 121 115 111 121 115 101 125 123 125 111 113 109 105 117 121 105 109 117 95 91 105 83 83 81 77 93 99 117 131 133 135 131 147 


