P2
80 60
695
4 22 16 31 22 12 22 35 22 35 37 45 33 26 26 37 45 52 45 54 54 58 66 58 56 62 64 62 73 62 81 70 79 70 87 85 73 77 75 70 60 66 73 83 64 81 87 81 81 81 93 102 89 102 100 97 112 108 95 106 100 137 139 139 104 120 128 118 108 95 87 77 81 87 87 89 116 130 208 434 
8 0 18 22 14 16 26 31 24 33 31 41 31 41 22 45 54 45 35 47 52 52 60 58 54 52 62 64 62 64 68 75 73 68 89 83 91 85 83 73 79 79 87 79 73 89 97 91 87 87 102 106 114 118 114 128 147 149 128 143 130 155 149 143 145 130 147 137 114 116 75 79 85 73 83 95 120 159 358 470 
6 2 24 29 26 12 12 29 26 24 31 43 47 26 37 26 50 56 41 52 64 47 58 64 52 68 62 70 70 64 70 77 77 64 91 91 87 77 68 85 91 75 81 89 89 87 104 95 114 110 126 143 159 186 212 263 322 305 291 285 259 238 220 222 204 198 214 218 169 153 133 122 110 120 120 173 212 299 460 496 
6 20 16 31 14 16 29 33 33 37 26 43 33 54 26 41 47 60 60 62 66 64 83 79 77 70 81 77 81 87 83 95 89 85 95 102 97 93 89 85 97 83 100 91 85 93 112 108 116 147 179 251 384 412 432 462 476 492 510 560 544 466 448 412 392 394 410 418 396 350 309 287 267 277 285 277 344 430 516 518 
18 18 14 29 29 22 0 29 24 33 35 52 45 54 33 39 47 58 52 60 66 62 75 68 62 85 64 89 83 79 83 93 97 95 104 102 91 87 93 89 95 89 97 93 104 104 118 120 139 216 374 502 524 514 506 508 532 532 566 605 603 556 528 502 480 464 448 440 454 454 400 412 390 392 364 356 418 498 534 542 
22 0 24 37 31 16 24 31 39 33 33 47 58 52 37 41 60 70 58 56 56 56 83 73 73 81 70 87 91 85 75 95 89 85 89 97 104 89 83 89 91 93 108 114 110 124 126 139 216 436 571 575 568 536 530 498 532 550 577 593 585 571 540 512 492 470 458 410 426 470 438 448 450 406 392 382 440 504 546 562 
20 18 20 29 26 45 35 39 31 41 47 45 45 47 50 52 47 56 54 62 70 68 68 62 79 85 79 100 93 95 89 104 100 79 95 104 100 100 100 91 110 116 112 120 124 126 165 236 458 591 597 597 568 454 418 454 480 510 508 522 516 526 530 518 466 462 458 422 406 446 478 466 468 444 398 386 426 480 534 568 
24 39 35 29 33 37 41 45 31 52 54 52 45 45 43 31 45 54 75 62 77 77 64 77 79 79 85 83 75 83 93 114 106 100 100 104 106 110 87 112 110 120 163 179 204 242 334 496 593 613 613 607 583 484 534 484 486 440 370 360 384 452 452 456 422 422 458 432 400 420 482 492 472 466 398 386 410 430 484 536 
12 22 41 24 35 33 37 35 41 47 62 45 41 54 47 54 56 50 73 75 73 62 81 89 75 85 91 93 87 89 93 97 104 87 91 95 100 102 112 118 167 192 376 496 522 546 579 562 583 587 611 632 668 660 642 609 603 506 460 372 394 472 486 466 430 430 456 460 406 390 474 504 476 468 406 378 372 392 440 486 
20 24 37 37 47 41 41 39 45 52 60 66 64 54 62 54 79 54 68 62 81 77 75 83 70 81 89 89 95 89 85 95 104 97 102 102 104 100 130 157 184 326 532 587 589 583 554 544 490 506 660 676 695 662 648 648 634 579 595 595 488 482 456 440 406 432 460 428 392 394 412 478 464 456 378 350 356 354 416 448 
16 16 35 41 50 35 47 43 45 41 54 52 64 54 52 52 58 64 60 68 68 83 73 85 75 85 87 91 89 87 77 97 89 93 102 108 100 112 190 364 271 400 573 573 575 577 544 422 340 396 607 648 681 668 658 634 625 601 619 634 597 474 436 400 398 448 440 412 412 418 414 438 430 420 350 332 350 344 392 440 
31 24 41 29 41 45 45 58 47 45 66 47 52 56 50 58 64 66 70 64 64 79 81 79 91 85 83 100 97 91 79 95 108 108 97 108 102 116 161 206 380 494 554 538 536 568 430 234 332 348 554 648 666 668 670 656 621 609 664 646 613 518 484 478 464 440 394 420 434 436 446 470 438 430 352 334 348 350 410 442 
39 26 37 37 37 41 33 52 41 50 56 52 43 58 43 56 58 62 60 60 60 75 79 79 81 79 81 104 93 89 89 106 95 95 89 102 102 108 214 336 328 428 458 307 418 430 206 186 275 344 426 575 627 631 636 605 625 609 644 601 476 502 514 446 384 384 400 434 452 462 454 452 448 430 380 346 358 358 408 440 
24 33 37 33 47 52 47 56 54 45 58 43 56 64 45 47 60 56 68 56 66 75 66 79 68 77 85 87 100 93 81 100 104 104 104 110 97 110 120 159 348 299 167 157 356 249 147 143 236 314 358 456 548 603 573 514 498 488 506 398 350 400 402 400 392 408 436 464 458 458 444 420 418 420 398 380 390 364 404 442 
50 37 22 37 26 39 45 45 35 52 60 47 68 47 58 45 70 68 60 58 75 54 66 64 75 87 77 87 79 95 91 85 97 91 83 102 110 110 116 118 159 112 118 141 232 128 122 128 167 247 293 330 360 368 318 236 214 334 404 394 380 390 410 410 418 424 472 480 458 436 444 410 402 426 410 394 396 388 424 458 
62 26 39 52 35 43 37 43 45 41 58 60 64 62 45 45 70 64 62 62 64 64 85 75 73 95 75 70 77 75 83 83 95 81 89 85 91 89 110 100 112 122 120 108 114 124 120 118 126 149 165 157 177 173 167 149 171 362 454 476 442 394 416 438 440 424 452 450 426 414 410 410 410 418 396 396 410 404 442 484 
50 43 37 39 26 35 33 29 35 39 58 39 56 52 37 43 70 62 54 60 62 56 66 58 68 79 75 75 70 77 81 85 93 91 87 91 104 93 108 106 116 118 108 120 106 120 124 118 126 126 118 130 122 126 139 155 200 416 490 492 460 334 299 380 422 396 416 402 392 390 380 388 378 426 388 394 430 430 490 510 
18 24 35 41 29 29 31 33 47 41 56 35 50 60 60 50 64 58 66 54 70 68 83 73 68 83 85 87 87 85 87 87 89 95 85 118 112 97 95 106 114 128 112 120 112 128 128 120 122 122 135 139 137 130 135 175 299 536 573 569 548 500 396 390 362 334 307 289 277 285 305 330 350 374 376 402 454 460 500 514 
12 45 50 43 45 50 45 39 41 50 66 64 56 62 50 58 62 68 70 81 87 81 68 73 77 85 81 91 104 95 85 106 104 97 116 104 124 102 106 118 135 128 137 145 161 145 137 139 141 133 133 141 155 171 179 336 564 568 550 571 573 544 374 259 236 249 244 234 214 206 196 198 202 240 263 338 474 468 504 514 
31 43 39 43 41 50 35 56 50 60 68 70 45 66 54 50 60 60 79 68 66 79 79 83 85 81 95 100 89 100 100 110 100 104 122 114 114 122 110 155 218 186 153 194 295 226 169 157 155 159 151 177 265 326 418 552 564 573 544 548 480 362 240 214 204 216 232 208 190 163 155 149 143 141 161 257 472 488 516 518 
52 43 45 66 47 45 43 45 56 47 56 60 56 58 75 73 60 77 66 68 81 81 91 79 77 87 102 102 93 87 108 104 114 114 100 114 118 114 151 202 368 440 356 263 398 490 322 177 196 230 287 436 552 548 566 558 548 526 480 400 238 208 194 214 194 198 190 179 179 151 141 133 135 128 143 210 448 498 510 524 
31 31 58 43 54 37 56 52 64 58 70 64 60 66 62 70 73 62 79 87 79 85 95 95 85 91 93 97 106 104 112 118 114 110 106 124 120 128 186 342 444 498 552 554 552 593 566 432 466 526 562 591 573 573 554 530 488 374 244 177 159 163 175 179 173 175 190 173 163 159 130 137 126 128 124 192 444 508 500 500 
33 39 50 43 45 52 52 73 73 45 66 62 64 66 70 79 95 87 77 77 91 70 102 87 93 85 83 95 102 93 106 116 116 106 108 108 110 122 153 301 436 530 564 560 573 577 566 548 573 577 589 577 571 536 490 386 255 167 139 143 139 173 173 177 173 190 188 169 161 139 135 133 120 120 110 182 416 492 488 508 
41 39 54 52 60 54 64 64 60 47 77 75 77 66 60 64 85 75 75 95 93 89 91 93 83 106 89 97 108 93 112 104 120 104 110 120 120 114 137 163 257 338 474 544 552 558 556 540 538 528 492 422 384 263 190 169 159 151 135 141 151 163 179 188 173 184 186 165 173 153 122 124 124 114 118 153 412 466 488 492 
43 41 52 47 45 60 66 58 68 56 77 70 77 77 79 75 81 93 83 95 95 85 95 95 93 108 104 100 110 108 106 110 106 130 122 126 104 116 124 126 224 344 372 378 418 418 374 283 228 210 192 190 184 190 171 165 165 177 147 153 151 179 186 188 182 182 173 177 163 155 133 135 118 120 114 159 404 414 446 472 
41 41 58 45 56 54 54 62 62 58 68 68 52 75 75 64 81 66 83 68 93 73 89 91 106 95 95 110 95 97 106 108 108 104 112 118 118 114 118 108 122 122 137 143 149 155 163 153 151 165 179 216 261 299 338 350 330 344 297 261 216 208 194 179 179 186 179 163 204 218 230 212 200 192 192 192 390 390 436 466 
50 60 43 54 54 62 52 56 70 66 87 79 64 73 68 60 83 75 83 95 106 91 95 91 91 91 89 93 97 102 89 106 110 102 100 116 110 116 110 112 120 133 122 122 118 141 155 163 206 295 402 476 494 490 486 470 472 474 454 464 440 388 275 216 188 184 184 179 218 289 289 297 295 285 265 295 406 406 430 440 
41 50 45 60 50 58 50 66 62 68 89 91 75 75 66 81 75 89 77 75 73 81 83 95 93 93 91 104 106 91 97 100 102 106 97 116 114 128 126 126 124 126 116 124 149 194 273 380 450 480 492 510 528 516 530 508 488 476 460 490 504 506 436 285 226 216 198 198 222 291 299 322 328 307 318 322 406 454 448 450 
37 41 47 41 60 62 52 64 58 62 87 79 66 64 62 64 75 73 73 81 68 73 87 85 87 75 85 87 87 83 95 102 97 102 102 112 118 110 122 108 126 128 159 220 332 384 430 484 504 494 494 500 532 524 508 494 498 474 456 478 482 466 404 400 338 307 244 208 242 309 307 320 328 324 322 338 370 448 438 440 
39 29 60 62 66 70 47 58 60 60 85 77 64 75 64 77 62 77 73 85 81 77 89 85 79 75 81 85 91 79 100 93 100 95 106 108 120 120 126 135 167 218 332 442 494 508 496 500 514 484 432 390 366 328 289 305 436 482 456 448 396 360 342 342 334 368 364 348 314 336 344 338 342 350 348 352 350 374 424 424 
45 54 62 54 73 58 56 64 60 66 75 75 58 66 62 83 87 66 66 83 81 87 85 81 93 73 87 97 93 85 93 91 106 102 91 108 110 118 120 171 326 392 434 492 516 510 500 444 312 230 171 163 169 147 163 157 214 358 340 348 344 338 334 307 316 356 360 340 332 358 386 402 402 398 406 414 386 334 378 410 
41 43 52 47 64 54 52 50 52 58 54 60 66 60 50 81 62 77 60 75 75 73 91 85 79 73 75 87 87 85 87 95 104 106 93 104 102 104 116 208 344 408 480 510 502 492 468 247 163 147 147 149 149 155 153 153 167 307 356 350 330 326 330 340 356 370 368 342 332 354 404 408 404 400 412 418 374 328 362 390 
41 54 41 60 35 60 54 68 62 62 66 70 58 62 66 68 73 70 89 70 79 77 81 77 87 81 89 81 97 95 102 100 104 87 100 100 116 118 120 190 249 328 474 492 456 428 279 159 153 151 149 208 206 204 220 212 210 303 380 376 374 358 332 328 332 362 374 348 340 350 404 402 400 402 442 428 394 368 366 386 
43 62 47 58 64 52 50 54 66 60 68 62 56 77 64 66 68 68 73 83 79 81 93 91 83 83 89 91 87 91 91 93 104 102 106 106 122 124 124 137 135 171 234 326 214 169 161 143 137 198 309 386 452 476 478 476 480 466 438 380 350 336 330 340 336 356 322 330 354 388 418 408 410 390 422 420 534 480 376 382 
43 54 56 62 62 50 62 70 64 70 68 70 66 70 68 66 73 75 87 93 79 77 87 91 85 91 81 89 91 97 112 91 100 104 102 114 102 112 118 126 124 137 139 141 135 149 137 137 173 253 316 422 540 508 516 569 575 589 550 446 390 374 352 334 334 332 297 352 364 394 416 414 386 412 426 446 611 554 408 396 
52 60 66 66 64 56 66 64 58 70 70 77 60 87 77 73 89 75 83 87 100 93 93 85 95 100 97 104 97 87 112 89 110 104 110 97 126 114 122 122 147 124 126 130 124 137 135 147 232 267 305 392 528 504 554 573 550 544 476 468 406 392 374 354 316 320 332 334 370 390 404 398 388 434 422 446 581 530 396 382 
45 45 60 52 60 62 47 70 58 62 75 62 85 70 77 73 83 87 91 95 100 87 87 95 87 97 102 106 100 97 108 108 106 95 106 116 116 126 110 124 135 116 120 120 114 126 137 155 251 318 342 382 446 452 526 544 538 522 446 432 380 374 370 340 301 314 320 312 362 382 384 362 380 402 420 444 550 508 346 366 
60 62 54 62 75 60 58 77 70 70 75 75 70 62 77 75 77 79 83 93 91 79 95 104 97 83 89 108 108 102 116 110 108 110 108 118 112 116 118 120 118 124 116 122 120 126 137 135 230 303 340 366 378 392 468 538 550 536 494 448 376 368 366 348 312 320 336 303 352 350 372 370 366 402 408 440 524 472 340 354 
58 50 47 60 62 56 66 66 68 58 85 79 66 68 77 83 68 70 89 95 93 93 93 85 97 95 110 104 102 100 104 108 102 95 108 112 110 124 108 110 112 114 114 110 116 122 124 122 177 291 330 318 372 380 450 520 538 520 504 492 430 406 344 301 301 338 326 291 330 348 360 374 390 394 376 434 534 436 316 320 
45 45 56 56 73 68 64 64 64 77 68 87 73 77 75 83 70 87 89 81 81 91 85 106 95 95 89 102 104 108 104 110 110 104 100 106 112 106 108 110 100 108 108 100 108 120 114 122 139 190 236 281 360 388 454 476 424 382 386 414 390 364 356 338 309 316 324 261 322 342 358 364 358 348 348 394 522 412 307 316 
58 60 54 58 62 60 56 62 66 62 83 77 68 85 83 87 93 89 106 91 97 87 87 97 89 93 100 91 97 85 95 95 102 102 104 120 108 126 108 114 112 116 106 106 108 110 108 118 108 120 126 147 169 179 220 208 179 192 307 374 354 338 336 352 346 336 295 257 281 342 344 352 338 322 318 370 506 370 279 285 
45 54 58 41 62 62 39 73 58 81 60 79 83 70 77 79 87 89 77 93 97 93 104 93 89 91 95 91 93 95 106 93 100 106 120 100 104 104 108 91 93 93 95 95 95 93 108 110 102 100 108 118 112 116 126 124 124 175 293 364 386 362 352 346 360 338 283 257 291 356 305 305 297 285 312 330 366 283 263 271 
37 43 52 50 52 56 56 68 62 75 68 79 70 70 70 68 73 89 83 97 91 87 97 83 83 91 100 104 95 85 95 95 95 104 95 108 124 110 91 93 108 97 87 89 91 89 95 116 106 91 110 110 108 102 116 100 112 161 273 364 360 350 328 309 312 287 275 295 322 342 318 316 297 285 303 320 312 234 251 273 
37 45 58 50 43 47 60 62 58 64 60 79 60 75 68 58 81 85 81 85 89 89 85 93 85 91 100 106 97 87 85 97 81 93 93 104 97 97 97 83 95 97 91 81 89 87 95 89 95 91 95 102 87 100 93 73 100 120 257 368 374 344 362 326 307 273 273 330 360 352 346 340 283 275 277 285 267 247 247 269 
37 39 47 43 45 50 56 70 54 54 68 66 62 62 77 68 79 77 68 79 89 75 87 87 87 81 91 87 83 83 91 89 85 85 87 93 97 102 100 95 87 85 87 85 81 87 89 87 91 85 91 97 104 91 83 73 106 122 216 332 372 348 388 382 316 314 303 340 420 402 392 336 281 263 283 267 263 226 238 275 
29 33 33 24 43 47 54 56 43 54 64 66 64 62 50 66 60 79 68 81 66 66 85 79 87 85 87 91 93 89 85 81 95 79 87 91 79 79 95 87 87 85 85 91 58 91 83 100 106 81 95 89 85 70 70 70 91 75 102 251 354 374 376 394 406 378 400 410 412 406 376 336 271 253 273 257 263 232 247 255 
26 12 39 26 26 35 31 29 41 33 37 58 43 39 52 56 52 66 64 66 70 64 68 79 66 75 70 77 75 73 77 85 81 70 75 79 83 85 89 68 77 79 77 73 70 77 81 87 91 87 97 79 95 75 81 58 77 66 41 118 255 344 382 380 434 454 462 476 466 440 390 277 200 173 218 226 259 236 240 253 
37 18 22 31 26 39 35 45 16 35 41 39 29 33 39 31 52 39 50 58 58 66 70 62 66 56 66 70 73 64 70 66 70 75 83 79 75 81 77 79 85 83 73 75 68 70 89 87 87 73 64 73 62 58 50 50 58 45 37 47 85 137 263 346 428 478 484 490 504 472 396 242 161 130 157 188 242 255 236 257 
33 26 50 26 29 31 35 26 47 43 56 41 50 47 50 54 56 60 54 56 60 66 64 68 68 58 58 58 56 66 60 75 58 56 60 73 77 73 68 70 62 62 50 60 64 77 66 62 64 54 62 64 54 54 60 45 47 54 24 33 16 52 91 139 295 428 450 486 478 428 320 165 102 95 100 122 234 212 238 247 
35 45 39 26 37 33 47 50 60 37 62 62 41 58 56 41 52 66 62 54 66 58 66 81 73 64 64 77 70 81 66 64 75 62 75 75 68 91 60 77 79 60 60 54 62 60 73 66 83 60 68 56 56 47 47 45 45 56 33 20 20 50 73 81 104 255 374 472 458 380 226 95 54 39 35 50 155 212 234 242 
24 52 41 50 58 31 43 50 62 43 47 68 52 56 47 70 79 64 79 62 68 75 79 91 79 81 85 79 83 79 68 81 87 83 85 83 73 77 73 79 81 62 81 62 62 70 81 77 79 62 70 70 75 58 77 35 66 56 31 50 37 70 60 56 79 128 182 314 360 275 147 68 54 52 52 66 85 159 216 226 
41 41 66 43 41 54 50 47 47 68 79 77 68 77 64 77 64 79 64 83 85 79 106 89 91 75 89 95 89 83 83 91 104 83 97 87 91 85 91 77 95 70 89 73 68 70 89 81 87 64 79 83 81 70 62 89 68 79 50 50 47 77 89 93 89 89 102 155 182 114 100 97 114 106 77 68 89 106 184 236 
37 39 52 52 45 73 60 43 52 56 66 79 62 62 64 62 56 62 77 81 83 102 95 85 93 77 83 97 89 77 81 97 104 85 91 89 95 91 83 77 79 89 77 68 64 77 104 89 110 83 81 77 85 73 85 75 73 85 58 70 56 89 100 104 91 104 89 108 114 85 89 108 93 91 85 83 97 64 122 202 
50 45 73 52 58 60 64 64 54 52 66 66 58 58 50 68 77 70 68 73 87 89 89 87 83 83 87 83 89 93 89 85 95 83 89 95 97 102 93 77 79 85 75 87 75 91 93 81 100 81 89 83 85 75 85 83 97 83 75 79 95 116 130 126 120 102 112 108 104 89 85 93 83 93 87 93 108 73 112 175 
37 43 56 47 47 66 52 79 56 79 77 54 81 79 62 68 79 77 83 83 93 85 91 91 73 85 91 93 102 102 89 95 102 87 97 106 95 97 93 87 95 68 85 89 87 79 91 100 93 83 102 77 93 77 95 77 97 106 70 108 114 126 141 128 114 137 126 114 110 104 85 89 91 83 85 91 110 83 91 130 
24 39 62 47 52 58 47 60 60 56 62 62 54 70 73 70 75 60 95 75 75 81 95 91 81 83 79 95 102 81 77 93 100 91 95 91 89 93 79 85 87 79 81 73 73 89 87 89 97 79 93 89 85 64 81 75 95 108 85 104 104 124 149 135 139 128 155 135 124 106 95 89 102 95 89 89 112 81 70 112 
41 43 68 41 64 66 47 54 64 79 66 81 77 73 66 66 87 70 66 75 87 87 97 95 89 89 100 102 100 102 89 95 97 100 104 93 106 110 87 106 85 89 85 93 85 97 91 102 89 97 95 83 100 75 95 81 114 102 81 106 102 120 143 135 137 155 145 147 137 116 97 89 85 81 102 114 118 66 73 104 
26 43 68 54 60 62 58 62 70 62 68 64 73 75 68 75 87 77 85 81 87 95 116 91 85 102 100 100 102 97 102 100 104 89 104 95 106 100 91 87 91 79 81 77 91 81 91 89 102 87 100 112 97 81 106 95 102 93 89 85 118 141 139 151 155 157 155 141 110 104 91 79 95 89 106 116 116 89 77 97 
52 54 70 66 85 68 47 66 60 66 62 89 89 81 81 77 85 85 89 91 91 106 106 93 97 100 114 114 95 95 95 114 108 108 97 110 104 89 102 91 91 85 89 91 83 93 106 104 95 104 91 102 100 93 112 102 108 114 85 106 118 126 137 147 151 135 149 145 143 112 106 104 100 112 128 124 122 106 97 106 
60 56 66 50 70 64 58 64 70 62 75 85 73 70 68 79 83 81 89 93 97 100 100 95 100 100 97 114 104 104 110 118 112 104 106 116 106 112 97 100 93 97 95 89 95 95 124 120 106 91 104 100 89 102 112 110 133 114 100 108 124 135 133 133 147 147 171 151 141 118 110 97 102 100 102 124 139 106 108 135 


