P2
80 60
548
127 109 97 103 105 99 123 103 127 115 127 127 125 115 109 115 119 121 119 101 111 99 99 79 85 89 87 83 75 89 87 87 81 93 77 73 95 97 73 77 75 69 50 52 61 63 59 63 81 85 91 91 89 101 91 93 93 83 103 99 103 93 95 93 111 103 105 105 101 95 101 101 83 77 63 77 55 79 81 95 
119 101 89 115 95 97 123 111 125 119 119 123 129 111 109 97 99 123 87 107 107 83 99 95 89 75 79 77 67 85 69 79 81 79 81 89 87 93 83 83 77 73 55 46 46 57 65 89 87 83 95 83 89 79 83 93 91 109 95 103 97 97 97 87 89 97 103 99 95 95 79 83 79 55 67 59 55 57 69 67 
115 101 105 107 103 111 113 123 119 121 115 121 117 109 99 111 111 101 105 115 101 101 91 89 93 91 75 75 89 83 81 87 87 91 95 99 101 95 95 69 75 69 61 63 67 69 65 85 85 91 113 105 95 107 95 99 113 111 103 97 101 111 105 101 111 101 103 93 107 101 99 101 83 69 67 63 73 77 77 77 
113 103 109 119 103 103 117 117 121 117 109 131 113 97 103 99 95 101 121 113 113 107 97 97 89 91 97 87 97 105 87 99 101 103 101 95 101 117 101 81 83 87 81 67 71 73 63 79 93 93 103 107 91 101 113 113 107 113 107 99 111 127 101 105 107 107 113 107 117 103 101 109 105 67 71 69 81 87 69 75 
125 109 111 107 111 99 125 111 125 123 117 107 123 117 101 119 105 121 121 115 119 103 101 115 109 99 87 95 107 101 97 111 107 123 119 113 113 107 111 89 89 93 77 75 75 89 75 99 93 107 105 111 103 109 105 107 99 111 105 109 111 113 95 115 105 111 111 89 133 109 107 127 103 81 69 69 81 87 77 87 
123 101 113 119 99 103 131 125 115 107 125 115 121 121 129 111 109 123 121 127 115 111 109 101 105 105 99 99 95 103 109 105 105 109 103 109 127 121 105 93 87 101 77 69 73 83 89 95 91 85 109 113 97 115 109 115 105 107 105 107 105 103 105 107 115 119 115 119 97 101 101 113 103 89 75 75 89 71 73 89 
111 97 111 97 97 119 115 129 131 119 113 127 121 119 129 127 105 135 119 121 129 113 119 105 109 93 115 101 105 107 101 111 115 117 111 125 133 123 111 99 101 105 87 89 85 87 85 97 101 99 107 113 101 113 113 103 113 95 101 101 109 107 107 107 125 119 109 119 115 125 113 109 87 99 83 71 87 77 91 97 
113 77 101 113 115 113 113 125 117 129 121 125 117 127 121 115 95 117 115 117 115 105 109 115 109 115 111 109 101 115 113 115 123 117 123 119 135 135 111 101 105 99 91 93 79 93 85 105 105 109 127 113 115 119 105 99 119 103 113 111 113 103 99 117 119 109 111 127 111 107 103 127 101 85 91 83 89 79 91 89 
117 101 99 115 105 109 117 125 135 123 123 125 127 127 123 117 105 119 123 133 121 109 115 111 117 119 115 107 115 129 109 119 129 133 127 119 139 129 129 113 123 125 105 109 111 123 95 111 113 117 121 121 115 109 101 117 115 107 115 117 105 97 119 105 129 125 121 131 125 121 109 127 103 95 85 89 95 95 83 95 
113 101 103 121 101 119 131 123 121 123 127 135 125 117 117 121 113 121 129 119 119 107 121 119 113 113 111 107 119 119 121 125 131 127 135 147 153 167 147 157 181 191 207 253 227 217 131 129 127 117 131 105 113 119 109 107 113 105 105 109 105 111 109 119 117 125 125 113 119 115 123 117 119 87 73 83 93 95 91 71 
101 107 115 111 123 121 117 121 123 109 123 113 115 109 127 119 111 125 123 133 119 127 127 121 119 107 117 109 121 131 133 141 129 145 153 185 219 251 281 275 263 281 375 413 430 417 267 137 127 113 119 121 113 111 99 101 99 107 109 115 107 109 95 107 125 109 123 117 109 117 121 133 123 93 103 97 89 103 89 85 
125 101 125 107 101 121 137 119 113 119 119 127 107 113 129 127 101 119 123 131 133 125 123 121 121 113 111 109 113 123 133 133 149 167 225 309 370 346 338 312 316 303 356 409 434 473 381 191 121 121 125 117 111 113 97 107 105 107 113 103 103 105 99 97 115 99 117 127 113 117 127 129 105 105 101 99 103 99 83 79 
107 115 123 111 113 115 127 133 123 123 121 127 117 117 115 119 121 131 131 131 129 119 123 127 123 113 129 123 113 127 135 149 161 305 389 377 303 219 225 229 295 307 305 379 419 461 401 201 125 123 129 121 129 125 115 117 119 111 99 99 103 111 119 97 111 119 127 119 121 119 121 121 119 97 99 101 101 97 95 89 
133 115 111 115 107 131 123 125 117 119 121 137 121 115 109 119 125 123 129 135 129 125 133 153 163 129 123 125 121 127 127 179 263 409 379 366 344 265 121 89 213 289 285 309 368 409 377 219 149 137 137 139 121 145 131 135 131 123 121 115 127 113 113 109 129 127 145 135 143 145 127 145 133 103 91 89 103 97 97 103 
127 99 103 115 105 115 121 125 119 121 125 113 111 121 101 107 121 117 129 123 131 155 227 247 257 225 215 177 141 145 149 201 340 395 377 364 358 362 332 239 275 275 221 219 289 356 324 199 159 165 183 173 175 173 147 167 169 163 169 159 167 169 157 151 165 147 159 145 151 149 135 153 131 123 107 107 107 101 105 109 
119 101 97 101 107 113 109 115 117 127 115 115 97 109 113 109 119 121 121 143 147 237 320 346 340 358 403 383 229 159 179 243 350 383 381 385 389 352 305 265 249 241 213 229 309 332 301 221 197 221 195 185 199 201 169 183 181 171 175 179 203 205 197 207 205 181 163 163 169 157 149 181 177 173 147 133 121 119 107 109 
113 97 107 97 109 97 121 121 117 113 119 127 125 109 117 121 103 131 143 127 191 342 381 399 463 506 510 504 430 318 297 354 374 385 405 411 399 332 259 187 201 227 231 261 336 342 307 243 209 237 193 181 207 229 183 177 167 161 187 203 215 215 225 213 199 191 195 197 217 241 227 287 309 320 277 249 199 155 147 135 
125 119 107 113 111 115 115 133 121 127 131 135 135 125 119 121 129 139 139 163 243 387 424 512 521 515 521 533 506 523 469 401 364 405 409 397 370 297 199 119 135 227 281 322 360 350 297 259 227 203 197 171 187 209 217 183 199 197 209 209 227 221 225 231 229 223 221 219 235 281 301 307 340 372 364 358 338 299 273 199 
117 109 119 121 121 109 141 129 121 119 121 127 125 135 121 127 139 139 155 149 259 415 467 541 515 434 415 510 508 512 490 403 364 430 415 362 320 219 127 89 189 316 322 346 350 330 295 285 235 199 191 173 153 229 225 237 229 249 249 245 241 263 243 241 237 227 243 243 249 273 285 309 316 368 356 346 362 334 334 297 
127 109 107 115 111 101 127 143 137 127 125 131 131 123 129 137 123 135 149 151 217 342 389 496 504 438 446 500 498 529 494 401 375 424 405 334 283 155 109 111 241 320 328 326 316 293 277 307 247 211 181 167 157 219 227 251 249 239 233 239 261 273 287 261 265 249 259 275 263 277 279 287 299 328 328 344 330 330 332 326 
125 123 103 115 123 115 119 129 117 125 123 139 127 123 117 121 131 137 141 145 173 203 265 366 452 494 500 471 496 531 473 459 459 438 397 342 267 153 103 159 303 350 334 332 326 314 287 297 257 223 177 149 143 223 229 275 249 227 225 241 259 277 285 289 289 287 293 316 291 303 285 301 320 322 326 340 340 348 356 324 
131 119 111 115 119 109 129 125 139 119 121 129 115 127 125 131 121 145 149 133 153 153 153 181 239 338 356 324 322 397 477 450 450 438 399 366 303 207 113 179 312 358 338 348 338 322 287 265 251 193 127 107 143 213 247 269 251 241 249 283 293 303 293 291 309 295 293 328 346 324 297 299 297 305 322 340 338 330 309 297 
127 109 101 107 105 123 137 123 129 123 125 133 133 121 121 141 123 133 147 139 143 159 153 147 167 173 161 159 189 267 415 426 442 436 387 368 352 277 175 189 297 322 328 360 350 332 311 267 247 185 42 0 137 193 243 261 245 265 265 299 287 297 295 293 295 303 289 287 332 322 303 309 297 301 311 311 348 311 279 215 
113 109 113 115 121 111 113 125 123 123 133 125 123 121 123 125 121 155 131 137 143 139 141 143 147 133 157 155 173 219 379 403 395 397 391 374 372 342 257 205 269 287 330 340 362 344 301 259 211 175 89 59 63 171 221 237 277 265 261 285 277 291 283 285 281 281 271 265 307 307 289 297 301 301 311 289 275 239 175 155 
119 115 113 127 121 103 123 143 133 123 125 129 119 125 135 123 129 139 135 129 135 135 139 139 141 139 161 149 157 209 372 391 370 364 368 364 368 348 301 235 267 287 311 340 328 303 297 273 221 171 141 107 8 57 183 239 265 243 243 285 261 273 281 269 273 273 275 253 309 291 289 291 281 271 265 209 165 151 133 133 
121 99 109 113 129 115 117 113 133 125 127 123 115 131 121 125 131 129 139 137 139 131 137 141 131 135 151 145 157 221 409 417 342 311 307 330 348 348 289 257 269 320 340 348 330 309 281 265 227 183 143 123 2 24 149 223 235 237 247 263 259 265 257 261 247 245 243 215 259 243 221 241 197 171 157 137 129 135 135 131 
109 105 113 109 105 111 119 107 111 107 119 129 119 121 117 127 131 143 131 129 127 129 133 127 141 125 141 141 147 189 391 428 318 173 103 181 275 332 330 312 291 324 374 377 342 307 263 221 203 191 159 139 83 109 177 211 205 213 219 199 201 213 229 243 227 227 205 173 173 171 181 163 143 131 123 117 109 123 129 111 
117 99 109 103 109 97 105 123 105 115 119 101 117 123 109 113 129 125 119 119 121 113 121 127 127 129 137 137 143 171 283 424 350 221 63 165 316 344 348 328 324 360 397 391 346 287 253 233 193 189 173 157 123 171 191 195 197 165 169 179 167 187 209 199 211 167 179 155 167 167 167 141 137 131 117 91 97 109 93 109 
123 111 105 109 109 111 123 127 111 111 129 119 123 119 111 125 117 135 113 125 115 119 115 125 117 111 125 125 127 145 189 368 395 324 334 381 395 381 377 383 356 432 448 422 324 245 251 215 189 197 193 193 151 159 175 133 157 161 159 157 169 171 161 157 153 155 181 177 161 155 159 159 143 105 101 115 103 117 95 105 
117 109 97 107 119 115 111 121 127 113 119 133 107 117 99 117 103 113 117 131 119 119 121 125 119 123 121 117 127 135 149 207 364 399 372 372 368 360 442 446 450 490 463 415 261 163 169 181 159 183 181 183 163 161 113 75 107 147 145 153 153 153 145 165 165 177 195 167 175 153 145 143 131 107 101 105 129 103 105 101 
121 107 101 115 119 115 121 109 111 127 113 121 115 97 123 129 119 133 121 129 139 139 131 127 127 123 123 133 131 135 143 177 185 233 285 295 399 444 459 444 475 498 453 370 183 147 135 143 135 141 157 161 147 147 129 121 135 137 135 141 123 141 149 155 189 201 193 185 177 157 159 159 131 109 95 93 103 97 107 105 
109 109 91 115 113 105 113 123 111 121 129 113 127 109 109 123 111 135 135 137 143 135 121 119 121 125 137 127 131 155 151 153 155 179 187 217 328 366 383 422 436 473 417 251 123 121 121 155 139 139 141 147 139 147 143 151 143 127 131 129 129 131 145 165 193 185 197 185 177 167 155 159 117 113 93 87 97 97 113 103 
113 113 119 129 117 105 119 115 117 109 113 135 125 133 123 129 123 137 139 139 139 131 139 139 133 137 137 145 133 155 151 163 177 183 179 187 217 209 195 221 299 299 255 141 119 115 129 129 135 145 153 155 155 157 151 137 145 133 123 131 125 129 151 171 191 203 197 195 181 163 151 157 133 117 99 101 107 83 99 95 
101 109 103 117 103 117 125 129 115 115 131 121 133 117 115 135 119 141 139 137 143 129 145 133 137 131 149 139 171 219 243 247 233 225 215 207 195 183 169 145 151 157 145 141 121 111 113 133 131 143 153 157 153 147 141 145 143 131 119 129 123 131 147 157 191 193 199 187 179 165 163 161 127 121 103 95 97 107 101 99 
123 107 117 111 107 113 121 115 123 125 129 133 123 133 137 135 133 143 145 135 131 145 133 149 149 147 153 177 287 368 368 379 356 346 322 383 381 251 177 161 149 149 139 139 113 119 115 121 131 137 161 149 147 157 149 137 135 153 159 155 139 145 143 147 159 151 157 177 187 167 165 181 157 133 131 135 101 109 113 125 
107 107 119 105 105 111 127 123 107 123 141 117 135 127 133 139 131 165 149 147 153 145 155 141 153 143 177 245 326 370 372 375 381 350 413 450 457 403 330 281 155 157 151 153 147 133 125 147 147 141 159 161 175 171 155 163 175 169 189 161 159 157 137 141 153 137 145 181 177 177 187 217 211 211 173 177 177 141 151 153 
107 101 111 125 105 115 115 125 119 129 135 119 123 111 139 153 151 147 175 201 183 155 163 143 143 163 197 314 336 332 358 377 387 383 426 448 475 438 372 318 187 199 213 213 209 177 179 201 201 177 173 187 195 183 169 181 175 181 189 183 187 171 157 145 151 145 147 167 195 203 239 305 328 322 320 303 312 277 271 251 
119 103 97 113 101 101 117 117 121 119 119 125 127 123 139 165 223 293 364 434 399 311 221 173 155 167 225 342 348 346 334 362 360 391 428 444 473 430 366 322 309 307 281 289 283 269 257 257 231 221 209 211 201 211 185 195 205 207 215 211 185 177 153 149 157 141 147 187 179 205 243 297 320 334 350 332 320 311 295 293 
113 113 111 115 117 119 125 129 123 121 119 127 135 131 143 239 350 413 484 521 523 469 332 312 231 203 291 344 348 344 305 309 326 354 399 446 461 415 348 334 332 334 311 291 301 305 301 285 277 265 245 241 245 245 231 229 231 221 219 199 153 149 147 139 143 147 139 157 143 159 229 281 297 322 336 340 324 316 312 285 
121 115 113 113 99 115 127 123 123 129 127 127 125 123 169 293 391 413 486 548 512 461 397 387 326 283 350 344 328 311 287 287 316 322 364 448 448 405 344 326 309 297 285 289 307 305 293 289 293 255 243 251 245 261 245 239 257 227 201 175 16 157 155 151 145 127 131 125 151 163 217 265 273 303 326 328 324 312 307 265 
121 113 115 127 107 121 125 123 117 117 127 141 137 135 183 334 417 438 502 548 504 488 496 486 422 421 387 348 324 309 281 293 322 289 320 442 455 399 354 311 277 263 261 277 251 243 253 261 265 253 249 257 251 267 253 251 241 237 203 191 149 159 163 153 165 147 145 147 157 189 215 249 257 289 295 291 271 249 223 195 
111 111 97 101 121 101 119 125 127 123 117 125 123 131 187 326 389 426 508 537 517 506 517 515 455 411 391 338 320 287 267 279 271 239 309 446 430 389 338 311 271 271 249 243 223 215 227 215 217 213 243 257 237 275 253 237 229 215 235 203 173 157 173 163 159 161 155 167 173 167 179 179 157 155 145 129 141 129 131 155 
121 105 103 107 105 105 111 111 115 121 127 129 107 133 155 297 370 401 498 521 515 527 533 510 467 413 368 307 311 285 265 247 237 221 312 428 413 366 340 311 275 255 241 243 221 223 217 199 203 199 221 245 251 275 259 243 219 219 215 221 179 179 173 173 169 171 149 153 163 161 137 121 101 99 79 97 91 99 115 125 
113 95 97 115 107 113 121 111 117 111 115 121 125 123 135 225 318 356 417 488 473 496 502 481 444 428 352 275 281 269 249 241 213 227 348 403 387 360 336 291 265 257 251 247 229 199 201 213 195 195 217 255 293 299 293 255 217 199 207 199 189 181 179 181 155 147 135 145 139 121 115 123 83 103 101 93 101 101 107 127 
115 109 121 113 111 107 111 135 129 121 129 121 119 109 137 133 201 255 299 322 340 383 364 397 428 413 360 279 273 255 245 249 235 253 362 403 391 368 340 307 277 241 243 245 231 217 211 217 195 207 261 318 342 324 291 243 215 201 189 191 191 171 151 143 125 121 135 123 125 121 117 125 101 99 105 111 109 107 119 123 
113 107 101 129 111 109 121 121 129 123 133 125 127 113 125 145 127 151 157 181 169 163 171 179 257 387 354 316 291 255 235 243 213 269 370 377 375 387 352 309 273 223 229 229 215 201 193 211 201 211 305 358 362 334 293 249 203 187 167 149 135 143 133 129 133 141 131 143 143 125 117 115 115 105 91 99 109 115 123 123 
103 91 91 105 111 125 159 131 129 115 129 113 129 119 119 119 131 143 141 153 149 135 155 141 181 285 328 324 309 277 245 237 221 299 372 370 377 419 389 322 275 245 221 205 197 197 213 219 221 247 320 362 338 293 241 209 203 171 169 153 159 173 165 173 163 155 145 145 145 127 123 143 123 111 107 133 111 107 121 123 
119 99 113 105 107 103 131 123 123 129 115 125 129 129 119 119 113 141 145 135 141 149 143 151 151 213 318 305 293 265 241 255 241 330 348 362 432 438 389 320 285 239 209 201 191 207 229 245 255 261 297 301 249 235 195 185 189 175 173 165 177 183 205 199 223 221 197 191 177 149 133 155 129 117 101 121 111 115 119 141 
117 109 115 119 129 107 135 125 119 119 117 107 111 121 109 117 113 121 123 143 135 133 123 139 147 183 332 311 281 257 245 269 295 328 332 387 448 461 393 318 273 245 209 197 195 215 259 273 273 261 249 239 217 209 191 193 195 189 177 175 179 209 223 231 227 245 241 225 219 181 177 183 183 169 167 171 147 153 141 157 
117 119 105 115 111 127 127 131 129 121 119 127 125 129 121 105 123 129 127 121 121 119 123 125 123 173 320 303 285 251 257 275 301 322 334 403 459 432 381 320 265 241 219 213 223 247 285 287 277 235 209 223 215 201 191 187 191 183 187 183 211 221 221 203 211 205 223 187 181 151 175 213 249 261 275 279 255 263 235 151 
115 113 97 119 121 103 135 119 127 121 131 115 123 117 123 117 109 129 131 125 125 133 119 125 115 161 326 295 289 312 320 344 348 352 330 405 450 407 358 303 257 257 253 269 261 279 297 285 271 227 241 221 217 209 197 201 207 197 207 201 221 217 183 171 187 197 195 167 125 129 169 213 253 271 303 316 330 330 316 287 
113 89 117 105 113 103 125 105 115 115 117 125 107 113 123 115 109 131 127 119 123 119 121 115 111 151 271 320 344 348 354 387 362 366 340 407 440 413 342 275 249 267 267 259 251 261 277 259 261 231 213 211 207 219 197 225 215 205 201 197 195 195 165 165 153 173 179 149 127 147 181 223 263 311 311 346 354 352 328 307 
109 99 105 111 111 121 117 115 111 119 115 119 115 129 119 117 109 133 119 121 129 111 121 111 103 123 189 291 324 362 352 395 362 346 350 389 422 397 301 183 159 175 175 171 185 203 207 235 223 203 203 209 213 217 211 227 219 203 199 195 201 193 171 159 163 145 157 155 143 161 199 239 289 332 338 338 340 338 332 311 
103 99 109 117 103 113 123 115 119 131 117 117 121 125 121 115 121 125 131 119 123 125 115 121 115 123 123 151 207 275 295 320 318 350 354 379 346 275 191 119 127 109 99 105 105 127 141 171 197 183 189 201 211 209 217 229 229 221 207 205 209 183 167 145 135 135 123 131 125 147 193 255 303 307 311 326 314 322 314 291 
121 109 107 115 93 111 109 117 119 109 117 131 113 117 119 115 117 117 129 111 119 109 109 113 109 99 109 101 123 145 151 177 233 352 348 261 165 141 129 103 109 115 95 75 87 95 85 117 127 123 141 153 163 173 181 197 217 201 165 191 159 153 153 141 143 115 111 109 121 115 115 149 183 205 209 223 215 207 215 203 
113 89 77 97 73 91 105 105 107 103 107 129 111 109 107 115 101 105 99 109 113 99 109 97 93 87 103 93 97 103 121 123 133 161 177 129 125 123 109 107 105 87 69 79 71 73 91 93 91 99 109 115 99 105 109 117 129 133 139 151 135 119 119 127 121 101 97 97 107 103 101 101 103 109 119 111 109 129 135 153 
97 91 91 91 103 97 107 103 101 91 93 107 101 101 101 109 85 83 119 107 95 97 99 93 97 83 95 85 81 93 105 99 97 109 97 97 105 93 93 79 83 79 57 65 61 61 65 75 87 87 95 95 91 97 89 89 107 99 83 103 93 93 93 73 101 73 91 91 81 95 81 103 89 95 95 111 99 107 123 111 
79 81 79 97 71 93 99 87 107 97 103 105 95 95 101 103 89 95 95 101 103 75 87 91 81 89 73 77 75 79 83 77 83 69 87 89 93 83 83 67 67 71 42 61 48 65 57 75 69 71 75 85 83 93 81 83 85 87 65 83 79 65 79 77 81 75 75 71 85 83 77 69 61 81 95 85 93 95 109 119 
89 83 83 91 79 83 95 101 91 93 91 105 103 95 93 97 85 113 97 83 95 85 93 87 87 83 73 77 77 87 85 83 83 85 81 83 85 87 77 46 52 57 48 55 57 55 61 75 69 69 75 83 85 87 83 79 75 85 81 63 73 79 71 67 77 81 73 77 85 73 75 65 50 81 81 85 103 89 107 107 
115 89 99 89 73 85 77 95 105 79 105 95 101 93 87 91 85 95 95 105 97 75 87 75 75 67 77 79 77 75 91 81 67 83 79 95 109 115 101 81 89 93 67 77 59 69 67 87 79 77 95 79 81 87 83 99 85 79 89 77 61 71 67 63 69 52 69 75 65 52 61 73 55 75 83 93 83 89 95 109 


