P2
80 60
826
81 109 111 103 103 109 113 111 101 91 101 105 93 91 83 77 107 89 87 95 101 85 79 93 93 101 105 107 174 304 398 440 426 392 356 422 478 476 496 531 586 594 527 498 513 519 553 561 584 586 606 608 614 580 565 563 584 625 631 645 625 602 584 576 565 541 557 553 586 594 600 563 466 334 326 288 258 243 213 209 
79 89 75 99 95 93 101 111 89 83 97 89 81 85 81 91 91 95 77 91 81 85 77 81 97 111 144 247 392 448 432 448 462 458 400 402 480 504 523 547 565 557 404 328 398 430 464 484 504 523 539 547 553 533 565 578 559 600 610 592 572 576 572 570 551 539 545 521 567 582 606 608 563 328 217 197 174 168 162 189 
71 87 89 97 93 99 93 99 89 85 93 103 60 81 99 87 95 83 89 113 91 93 87 79 109 174 362 478 498 486 464 456 466 482 440 412 488 549 547 529 494 354 227 237 241 217 199 221 231 229 286 338 406 430 468 535 557 569 578 567 557 549 551 561 553 533 531 531 549 584 576 578 555 316 185 162 162 172 180 187 
83 87 101 109 97 95 107 105 89 81 93 101 75 87 89 75 93 83 85 91 91 91 79 101 156 380 515 519 531 500 500 478 460 480 458 404 450 523 498 464 418 390 356 362 380 328 260 258 254 227 231 241 272 254 300 390 486 543 555 561 557 537 555 549 537 529 525 519 523 543 549 569 555 320 197 168 180 166 168 189 
71 95 101 103 107 91 117 113 85 77 89 95 85 81 83 87 83 81 77 85 99 81 89 136 324 464 504 519 545 515 498 486 458 472 470 436 418 454 448 420 412 406 380 354 342 352 304 278 272 256 233 237 233 217 231 278 354 440 515 549 547 541 545 549 553 527 533 527 519 517 506 543 535 328 189 176 174 172 185 178 
77 91 95 103 101 103 113 107 71 73 107 97 71 91 89 75 77 87 75 91 99 91 97 215 448 466 474 500 531 539 506 496 458 454 464 434 414 438 416 418 390 380 346 336 352 338 326 294 278 274 256 256 237 221 237 272 340 366 426 539 545 547 539 537 545 529 543 519 517 511 494 509 506 350 182 182 174 178 195 209 
71 83 99 95 105 103 99 105 105 83 105 107 83 83 91 75 93 91 75 99 109 95 122 324 519 547 504 464 496 513 446 444 408 370 370 424 452 432 392 384 390 390 358 344 348 346 350 334 310 292 274 268 254 227 223 239 322 366 364 448 529 549 537 545 551 541 543 523 509 513 496 484 474 346 199 187 170 191 197 203 
79 75 73 95 97 97 85 103 87 71 97 105 89 91 77 83 91 77 73 89 97 101 148 400 519 529 553 484 458 486 480 412 368 348 384 412 424 398 388 390 392 404 390 370 362 346 350 344 328 290 268 280 260 227 227 233 274 306 314 320 420 513 533 541 543 543 539 529 513 509 482 474 458 336 199 187 180 166 191 189 
79 75 85 97 89 107 93 109 95 79 89 89 77 95 89 75 81 81 68 81 93 105 201 478 539 551 537 517 490 474 458 428 444 448 426 408 422 394 384 370 376 396 396 390 362 346 338 334 318 290 274 264 250 221 217 233 237 258 256 247 292 408 496 527 549 543 537 523 519 517 482 474 452 336 191 182 168 174 176 187 
73 87 85 81 87 91 105 105 103 99 99 93 91 93 81 73 93 87 85 103 107 126 278 537 543 529 525 478 484 446 446 412 414 448 428 416 406 378 382 356 344 366 382 386 356 344 322 330 302 274 270 250 247 221 213 215 231 239 252 250 268 320 434 490 535 531 545 527 521 504 482 472 458 344 182 191 176 166 160 197 
66 85 105 99 95 99 81 93 85 81 93 99 83 91 93 85 93 91 89 101 107 138 332 555 557 513 472 466 432 448 442 418 392 408 420 412 412 386 398 362 348 358 330 340 322 306 302 300 274 264 262 241 239 211 205 209 225 229 241 237 254 292 308 422 504 535 537 521 515 509 490 468 454 344 195 185 166 170 162 162 
79 81 91 101 105 89 95 97 101 77 91 103 81 101 97 97 107 97 115 107 120 182 316 446 507 541 492 438 450 430 456 452 424 392 412 418 412 416 388 364 366 368 332 354 328 314 292 290 270 264 270 258 245 213 217 219 221 225 245 243 252 250 247 314 402 486 527 527 529 502 472 470 434 356 199 182 172 170 170 189 
71 101 85 89 95 99 99 101 103 91 95 105 107 117 134 170 231 268 252 193 209 364 368 314 328 454 488 472 444 432 434 444 468 422 412 412 434 424 406 388 392 372 336 342 336 330 318 300 288 282 274 268 256 227 227 215 221 227 245 268 264 241 252 262 294 348 470 494 513 502 478 474 452 360 205 197 174 195 187 193 
73 79 85 89 79 97 91 91 101 97 113 152 191 264 350 428 507 533 537 494 492 537 539 436 286 276 346 484 470 438 440 456 480 450 418 382 386 406 402 398 422 408 362 350 340 354 344 332 318 302 308 292 272 241 225 225 211 225 245 286 266 235 280 262 262 250 310 440 462 490 474 456 452 366 215 191 189 193 187 199 
68 87 91 95 85 91 109 87 109 111 195 272 362 434 513 621 666 637 616 606 606 612 617 600 486 338 276 406 470 454 430 450 488 486 450 424 386 368 394 412 412 408 372 370 368 376 378 362 348 342 332 316 298 260 225 219 205 219 245 288 274 256 298 292 260 254 268 302 392 426 442 466 454 376 227 203 187 203 191 209 
66 66 79 85 89 97 85 105 113 172 302 388 432 509 612 676 718 681 631 600 610 643 691 695 637 527 386 348 424 454 434 428 450 494 494 466 426 380 382 400 412 416 392 394 394 400 386 378 370 360 362 342 320 268 241 237 215 215 235 278 302 324 340 318 280 268 260 272 320 350 400 436 418 386 243 205 193 203 195 215 
75 75 89 91 87 95 85 105 136 235 388 392 432 492 576 674 703 658 610 664 693 693 681 699 674 604 484 318 334 412 412 392 414 440 480 498 472 426 382 370 398 416 394 404 424 432 396 382 370 358 354 336 310 262 233 237 211 209 229 316 354 374 386 328 302 286 278 300 322 334 338 394 416 368 221 209 207 201 195 211 
71 81 97 93 89 89 85 111 140 266 338 314 378 490 523 559 662 643 627 710 749 722 641 647 660 623 519 492 332 282 298 290 304 332 418 478 507 468 424 374 360 386 394 416 408 414 416 392 380 362 362 322 296 247 247 239 217 219 241 348 340 356 346 310 294 316 344 330 326 340 322 350 368 352 221 199 191 197 201 201 
50 85 87 81 79 87 93 117 160 266 338 270 318 392 444 523 658 689 678 699 672 627 588 617 645 621 545 629 517 298 227 199 215 239 334 430 480 490 484 444 364 350 364 416 432 394 380 382 364 340 316 306 276 256 247 250 227 219 239 286 288 278 274 274 306 338 342 350 352 346 322 326 334 316 209 185 178 174 187 203 
73 85 77 83 93 97 103 113 170 266 330 292 288 318 336 404 623 724 716 689 647 614 621 623 608 574 610 549 366 332 330 318 344 348 410 424 454 484 486 506 438 384 358 378 418 422 402 360 342 342 324 306 294 262 266 250 229 233 314 298 290 274 280 274 330 338 362 368 356 370 356 350 342 302 219 193 193 191 174 205 
62 97 79 81 95 85 91 97 162 235 290 274 290 314 330 302 470 703 722 681 693 672 629 511 364 362 350 318 342 416 432 416 434 424 432 414 422 464 488 460 478 432 394 354 370 398 406 346 332 348 350 328 306 272 260 241 256 318 338 324 322 308 304 340 350 340 362 374 378 382 370 384 364 310 211 195 195 193 187 199 
73 83 89 71 93 87 91 113 107 187 239 266 300 326 362 300 372 614 623 578 572 529 384 170 93 150 219 223 376 444 440 422 434 414 408 406 398 422 452 458 474 476 452 400 354 372 388 350 328 322 308 262 227 203 233 250 292 330 304 304 296 278 318 342 342 344 362 370 380 386 382 380 374 336 185 166 156 170 176 209 
77 89 77 83 97 89 91 87 97 113 205 250 314 346 374 336 316 521 533 482 394 229 109 81 64 107 262 418 422 446 430 440 440 428 402 400 406 410 430 444 470 486 504 533 553 533 527 446 262 182 187 113 85 89 193 243 268 286 274 282 270 282 314 310 316 334 346 360 378 380 372 366 388 324 170 113 117 124 193 233 
60 75 85 81 89 81 93 95 93 103 130 217 270 336 324 284 296 348 207 168 113 85 73 73 68 85 132 380 502 450 432 432 432 428 410 412 408 410 464 519 557 580 610 592 586 576 578 565 525 274 99 79 68 56 81 146 182 252 270 266 256 280 296 296 298 290 298 330 330 356 350 366 380 322 162 138 132 191 243 260 
66 91 79 89 97 87 93 83 85 89 95 128 172 237 223 201 150 97 79 77 83 83 66 73 66 68 77 93 243 366 386 378 380 356 346 354 330 328 374 440 474 547 610 563 553 574 592 596 608 582 430 176 109 71 79 83 83 140 213 239 245 239 245 243 262 252 245 258 290 318 314 336 334 302 178 185 225 260 264 272 
77 75 77 77 83 105 91 79 95 93 101 93 91 107 101 81 97 68 77 89 87 68 66 71 58 75 73 66 91 103 154 170 170 122 103 111 111 111 93 91 99 168 304 462 529 555 569 594 610 621 619 555 296 111 99 103 93 111 97 101 120 124 138 168 201 207 213 205 254 274 270 300 300 284 254 278 274 280 268 260 
56 62 85 83 79 85 89 73 77 91 79 101 89 83 73 81 75 73 64 68 89 75 66 68 62 71 68 50 62 75 71 66 75 62 73 56 66 56 52 60 56 66 58 124 264 386 472 506 529 561 617 625 590 392 243 288 270 207 195 298 250 54 40 48 52 83 107 120 134 142 140 154 174 178 264 294 276 250 231 213 
62 71 77 77 77 75 66 89 75 85 91 87 73 81 75 79 79 64 56 66 75 60 60 71 71 79 62 58 60 89 77 66 68 46 54 56 62 60 54 62 60 58 66 44 73 89 174 223 306 390 513 567 592 567 565 565 570 531 523 561 517 239 66 29 25 6 19 29 35 48 23 38 48 52 221 266 233 199 166 156 
56 75 75 73 81 89 62 73 81 73 95 89 79 75 71 81 75 68 56 73 81 64 54 71 73 71 77 101 122 154 156 182 148 97 99 132 144 162 158 172 176 168 168 174 164 162 146 170 195 201 223 340 482 537 596 606 578 598 569 569 541 304 60 21 17 0 21 8 19 19 21 21 29 21 158 193 158 136 156 195 
68 71 85 62 83 71 81 79 85 89 79 89 68 85 73 75 75 68 58 68 77 75 62 64 73 144 270 384 414 418 368 352 334 304 316 338 358 378 376 368 366 344 330 336 366 384 404 412 422 422 406 340 286 245 320 434 527 549 533 476 382 122 44 42 21 13 27 13 19 23 11 27 38 23 111 182 193 178 205 203 
68 77 83 77 77 81 79 68 79 77 81 83 58 71 58 71 62 62 50 64 85 73 77 87 160 398 494 498 488 466 420 400 384 374 366 374 364 366 350 340 318 326 324 322 348 358 370 354 368 368 398 390 396 356 344 308 318 370 268 150 111 56 44 40 19 21 8 8 13 25 13 31 40 33 140 203 195 197 199 213 
68 79 68 79 91 66 87 79 81 79 87 83 83 75 77 75 75 62 68 81 89 79 89 164 374 496 480 452 426 388 388 346 352 348 348 356 352 332 328 332 308 310 290 300 326 334 348 326 330 350 342 348 342 344 340 372 358 344 278 205 122 54 38 19 19 19 35 21 4 23 13 23 33 29 124 170 166 182 189 187 
60 75 71 83 79 87 79 79 87 77 91 91 83 71 71 71 79 58 62 75 95 91 117 324 494 502 492 494 490 456 412 382 370 352 316 322 320 322 316 316 304 290 278 308 306 316 332 312 320 322 306 312 316 310 342 364 352 342 354 362 338 247 191 158 97 103 99 56 71 46 17 19 35 29 124 168 172 170 166 178 
50 81 75 77 87 87 64 79 91 81 91 87 79 68 73 77 81 56 64 73 91 99 180 478 525 502 509 506 511 492 478 466 470 442 422 396 386 356 322 304 300 300 278 316 306 318 318 322 302 344 328 300 318 316 324 336 340 360 358 384 386 368 354 376 404 402 388 356 260 197 132 107 52 25 128 172 158 162 174 176 
66 79 68 71 68 77 83 85 93 91 93 85 73 75 75 87 68 75 60 83 95 124 308 535 539 500 509 509 535 517 476 464 478 480 468 474 478 460 454 428 380 350 326 356 376 368 356 354 340 376 364 324 324 316 330 346 332 336 358 382 380 376 376 438 492 494 504 470 444 380 330 288 160 97 158 197 180 178 193 203 
64 79 83 75 79 93 95 91 99 99 105 99 93 93 85 89 91 71 81 83 111 189 446 533 523 474 464 490 533 541 578 614 602 527 517 509 490 488 480 494 468 446 432 418 416 406 400 408 384 432 432 404 394 408 410 374 368 360 380 392 400 380 392 500 559 569 553 509 490 438 400 368 338 316 227 223 215 221 205 223 
68 73 73 91 83 85 91 97 117 117 122 142 152 160 256 290 180 99 66 97 136 282 506 513 513 472 464 410 436 428 442 428 462 466 474 476 458 464 470 480 464 446 424 406 408 402 400 394 402 432 430 428 418 456 464 464 410 420 390 374 382 398 418 517 557 563 547 527 492 444 424 382 406 380 268 241 219 235 217 223 
71 83 64 77 95 68 89 101 142 199 294 352 388 418 525 600 517 298 117 160 254 570 584 511 513 506 476 466 444 424 404 386 402 398 408 422 418 422 422 434 442 426 402 408 416 406 420 402 390 404 428 420 414 462 462 456 410 430 390 386 382 380 400 468 500 504 490 478 462 444 402 372 360 372 262 233 215 213 215 201 
73 73 87 83 73 89 103 130 254 390 468 519 527 561 701 726 685 561 476 507 678 811 707 513 523 533 517 507 507 480 458 442 416 398 394 408 418 394 400 416 428 432 414 418 416 400 400 400 406 408 410 398 394 444 430 418 400 418 390 388 424 408 446 466 486 458 454 422 416 404 366 368 368 372 262 227 223 229 219 225 
75 77 77 79 87 87 101 180 388 498 553 648 676 757 815 776 761 720 722 734 780 824 767 537 539 553 549 539 517 490 464 440 412 394 408 406 408 396 388 408 410 406 404 412 418 390 410 402 406 410 402 390 380 442 412 402 380 414 392 448 470 460 496 502 476 466 448 424 420 410 376 384 376 358 272 217 229 209 209 211 
66 93 75 91 83 105 122 258 404 464 507 648 811 824 778 765 774 774 788 803 796 799 788 631 533 561 569 551 549 507 484 454 424 402 396 396 380 378 374 382 390 384 386 402 414 400 406 402 426 412 374 380 362 408 406 394 364 426 400 458 468 454 494 476 490 470 458 450 436 418 410 392 392 368 256 211 211 203 223 207 
52 87 85 81 99 87 132 320 418 470 496 639 826 820 753 755 767 797 778 780 780 765 776 709 533 547 543 533 539 513 490 462 458 422 400 396 380 386 384 392 392 404 392 422 438 422 426 424 412 406 386 364 332 386 378 346 328 364 360 446 464 442 462 468 476 474 488 468 422 422 414 406 408 352 241 213 203 217 207 221 
75 85 81 75 91 103 154 342 412 406 450 553 809 820 801 786 796 813 751 749 763 771 720 728 565 531 523 531 543 525 511 498 484 462 438 422 404 384 392 402 414 422 422 456 468 454 456 416 412 392 408 364 328 352 352 330 308 334 376 422 460 462 482 464 486 488 500 470 428 396 392 398 398 362 233 203 197 223 209 229 
66 85 93 93 99 101 140 276 348 366 394 458 740 811 822 784 780 794 707 716 707 662 629 718 561 515 502 515 529 529 523 511 482 470 460 436 436 416 422 436 430 458 456 478 490 464 464 424 404 406 414 356 314 342 354 322 324 334 380 412 458 442 460 462 468 464 472 440 392 380 392 400 384 314 205 185 201 209 217 221 
64 81 107 97 109 83 115 217 304 334 380 398 596 815 826 788 788 780 722 722 662 592 366 460 506 517 525 513 519 509 513 498 498 472 466 440 444 448 440 456 456 458 462 482 500 470 456 432 438 438 414 372 318 346 364 338 328 342 358 384 410 404 400 374 376 362 356 378 376 426 454 476 460 378 239 207 219 233 231 223 
64 79 79 85 97 101 91 154 270 308 380 378 470 769 801 771 769 767 718 614 430 221 140 180 370 521 519 523 525 509 502 472 474 460 446 438 446 446 462 478 456 466 466 488 504 472 474 468 460 438 410 390 328 344 374 338 316 336 334 338 348 326 338 332 348 326 364 390 440 484 476 500 472 396 227 207 221 227 233 235 
60 79 87 77 97 103 91 122 189 254 358 370 362 539 623 614 650 625 507 306 150 111 95 99 227 502 533 549 519 515 500 474 462 448 450 438 444 452 464 478 478 472 470 478 488 472 476 464 470 452 414 374 334 354 374 332 312 324 314 312 318 292 324 324 360 382 420 448 470 476 474 486 462 402 247 233 221 217 237 247 
60 75 85 81 99 91 103 97 107 152 245 318 340 316 318 280 247 195 144 124 99 91 77 99 134 466 504 519 539 504 498 484 472 454 446 444 446 456 452 458 474 456 450 474 474 478 478 470 442 428 392 366 354 344 380 338 304 300 304 320 318 278 306 368 430 440 438 430 452 446 474 484 476 398 262 235 211 211 229 231 
77 81 87 95 101 97 79 103 99 99 138 156 152 128 124 83 111 95 93 99 89 81 71 71 103 324 511 492 500 498 486 460 470 454 450 444 448 440 440 430 434 440 458 464 474 478 466 452 420 412 384 382 338 348 384 348 308 334 310 324 328 328 392 454 478 452 488 478 472 519 513 502 480 382 237 254 213 223 221 237 
66 71 85 85 101 89 85 85 91 97 109 120 111 95 91 77 93 85 99 89 91 99 56 81 64 166 390 490 464 464 454 446 436 430 416 412 426 438 422 434 440 458 446 472 464 444 448 430 410 408 380 378 330 346 352 314 296 338 326 338 350 374 444 480 482 494 492 462 486 515 507 517 488 384 225 221 207 227 209 217 
75 77 83 95 87 83 91 101 83 99 122 117 97 91 85 83 83 97 83 79 81 83 68 64 54 105 178 318 348 374 366 390 382 398 404 412 414 416 430 428 438 452 448 474 442 426 442 444 430 404 392 374 326 320 338 294 296 286 312 358 354 380 390 428 434 436 472 466 454 444 438 464 466 354 221 217 205 219 197 207 
60 83 87 79 89 85 87 87 111 101 95 124 101 95 91 75 85 75 89 85 83 73 66 68 54 95 68 99 130 160 209 276 318 328 346 368 400 402 426 420 412 422 432 434 432 432 444 444 424 470 432 378 354 392 402 410 256 270 215 225 270 302 302 310 362 358 388 396 418 438 412 442 446 366 235 219 227 197 221 215 
64 87 75 83 99 89 95 89 93 95 109 99 97 89 87 91 77 77 75 89 89 75 64 62 48 79 68 58 79 81 95 97 128 132 142 164 205 233 258 284 286 278 270 294 340 366 408 404 398 426 428 428 424 446 476 511 476 370 252 306 326 288 237 221 245 282 239 233 233 274 252 282 284 245 233 225 237 211 215 213 
50 83 83 91 91 95 75 87 87 97 111 117 97 101 81 85 68 79 81 87 79 91 64 60 52 83 52 56 60 77 66 60 64 79 71 60 93 83 99 97 101 95 79 99 117 158 237 276 290 320 386 384 388 360 426 482 498 488 500 448 392 356 270 260 274 276 189 150 144 140 140 170 193 189 217 221 215 185 182 180 
68 97 93 87 91 105 97 83 97 105 124 122 103 93 83 85 93 71 75 85 79 93 58 73 50 85 58 66 66 64 66 79 83 64 62 75 73 64 71 58 31 56 50 40 54 60 79 60 95 111 156 193 201 262 284 324 390 452 517 535 521 472 398 254 262 284 203 124 105 105 124 140 199 187 187 174 160 146 124 128 
73 95 95 85 83 95 79 89 77 95 109 136 97 91 81 77 79 71 66 81 85 75 58 64 64 68 60 60 56 54 83 52 62 60 52 52 50 77 56 46 48 52 31 46 31 42 56 48 68 66 79 95 99 64 87 134 146 215 227 314 414 430 392 278 227 225 162 93 105 113 124 134 168 140 95 85 91 87 89 97 
73 87 97 83 95 85 83 79 93 91 115 122 95 95 85 83 58 62 56 93 75 60 60 58 62 64 48 52 54 56 52 42 56 35 46 46 56 50 42 44 48 40 38 33 40 17 44 31 35 44 58 68 56 38 68 71 103 101 95 89 122 197 262 262 195 120 91 93 101 120 99 138 126 62 71 83 89 68 75 91 
60 77 79 93 93 89 81 85 81 93 120 115 93 83 75 81 77 77 71 73 75 56 54 58 44 71 58 35 52 60 54 48 58 48 46 54 48 64 48 33 31 31 15 19 54 19 29 35 27 38 48 56 52 44 54 79 91 99 52 62 52 68 93 89 97 75 93 85 107 97 97 93 89 73 71 68 77 77 64 87 
71 79 73 77 91 91 99 79 93 91 124 128 105 109 91 75 81 89 64 64 87 71 62 71 58 66 56 60 58 58 50 44 58 66 64 66 50 56 52 50 56 52 38 31 29 15 38 40 31 52 52 66 71 54 64 71 89 87 75 64 62 56 52 62 71 97 97 93 97 97 95 117 109 79 79 75 85 64 73 105 
58 73 89 77 75 89 75 85 95 89 107 109 103 95 95 99 89 85 75 75 85 73 42 54 52 79 64 68 73 73 103 77 75 77 97 89 105 87 64 73 71 62 56 48 54 71 56 75 79 89 87 87 91 87 99 111 122 111 99 79 85 83 81 66 71 111 111 113 124 130 128 134 105 62 71 79 87 93 91 111 


