P2
80 60
606
81 93 83 79 83 73 83 89 81 85 77 81 89 87 71 77 89 73 89 83 73 97 83 99 85 81 101 81 83 69 85 83 85 81 81 87 83 89 97 93 89 99 81 81 93 89 89 81 83 79 71 83 75 83 79 79 71 75 79 93 115 109 155 247 375 465 529 506 494 389 193 135 139 133 167 187 223 346 469 519 
77 85 89 85 77 85 77 77 77 87 91 75 71 77 75 81 91 93 73 73 67 79 95 83 81 87 89 85 55 73 81 71 91 87 87 99 85 103 107 93 83 85 89 71 85 85 89 73 89 87 77 77 81 67 89 81 57 77 93 103 119 141 233 366 432 477 521 508 481 267 135 111 115 89 97 123 139 239 393 502 
50 81 81 87 93 83 67 73 81 77 67 83 69 85 79 77 79 77 85 85 89 87 81 85 87 95 97 85 85 73 79 79 87 85 93 95 99 89 89 99 95 93 89 93 93 93 87 101 89 101 83 85 99 85 81 97 95 99 87 113 149 193 360 436 450 467 504 504 360 189 123 117 87 87 87 133 169 338 483 514 
87 89 81 85 79 69 83 109 93 77 71 81 77 83 67 79 93 89 83 75 85 85 81 99 95 95 109 107 101 93 105 95 89 91 103 89 101 109 93 97 97 103 105 85 113 91 97 97 105 109 81 93 119 93 95 97 97 101 119 129 201 356 444 455 448 469 483 463 295 167 155 157 163 165 199 211 312 467 517 531 
69 91 67 75 75 71 83 87 91 83 81 91 89 83 85 89 95 97 99 93 77 93 83 89 95 97 91 109 95 99 93 93 93 117 101 105 113 97 101 103 91 97 105 97 97 101 95 101 93 99 97 107 111 99 95 103 97 105 125 161 297 426 481 469 455 483 471 467 309 237 259 285 311 322 336 350 422 510 533 523 
87 81 79 87 85 77 81 77 85 77 83 95 77 83 93 73 95 99 77 91 89 101 93 97 105 105 105 103 107 101 109 97 105 93 107 91 115 105 97 113 95 105 111 97 103 109 115 115 109 109 97 113 101 97 95 113 123 109 137 221 403 457 496 473 457 486 504 484 401 424 399 407 421 424 424 422 463 527 535 548 
73 91 93 87 77 81 97 83 81 81 81 99 89 101 95 99 75 95 85 93 93 105 97 95 95 97 105 105 101 99 91 91 107 87 111 111 113 111 107 105 101 117 103 105 111 107 111 107 101 99 115 105 97 107 99 113 105 125 163 314 430 446 477 488 471 469 510 498 453 434 421 424 424 436 448 459 471 527 535 521 
83 73 81 83 89 101 85 105 83 87 97 75 89 103 71 105 83 85 95 89 111 91 85 97 85 97 109 105 107 107 101 97 103 105 107 95 123 117 115 109 109 121 125 103 117 117 109 117 97 107 103 113 127 119 107 109 115 137 211 360 424 448 461 475 459 452 457 453 440 432 419 424 428 448 461 477 473 492 496 492 
71 77 79 83 85 91 81 89 93 95 79 89 95 83 85 91 87 89 83 99 91 95 95 95 99 99 101 91 95 103 97 95 99 107 109 97 103 119 101 101 105 119 99 101 117 125 115 107 105 97 109 107 107 115 99 119 123 145 287 413 407 424 446 459 455 459 469 448 438 422 422 415 415 415 455 483 453 440 438 471 
61 85 91 83 69 99 87 105 87 93 99 93 95 97 97 91 85 89 99 83 103 95 105 87 91 103 103 93 107 101 89 95 99 107 109 103 103 93 95 105 97 97 119 103 111 115 101 115 113 107 117 95 113 115 113 115 123 155 314 463 430 446 442 469 473 459 461 469 463 452 448 430 393 422 411 455 442 411 399 452 
67 77 99 95 85 87 91 91 101 77 83 91 77 93 91 91 97 81 95 91 85 89 87 107 91 87 113 95 95 97 103 95 89 99 99 103 111 103 99 101 109 105 105 107 107 117 113 107 99 103 99 105 109 115 125 117 127 145 259 411 446 465 521 533 548 531 510 434 452 465 473 475 430 405 413 455 438 370 366 403 
81 83 95 75 85 99 91 105 75 87 89 89 83 83 101 97 81 97 77 77 97 93 95 95 101 115 99 95 101 95 95 95 101 99 103 107 115 113 107 97 109 105 103 111 111 113 113 109 107 119 101 123 119 121 115 121 127 137 203 372 430 481 510 525 529 548 583 498 484 452 463 459 434 428 399 409 422 387 379 409 
71 85 89 91 87 89 81 89 83 77 85 85 85 83 87 81 85 97 73 85 79 85 99 95 99 97 101 85 91 97 97 93 101 95 105 99 111 105 115 105 103 105 109 107 113 107 105 103 105 99 107 109 123 129 113 119 121 141 191 358 393 432 475 415 452 475 583 564 471 446 421 426 442 415 428 444 403 383 395 432 
83 101 85 91 85 87 85 73 79 83 95 85 79 87 79 75 89 103 97 83 83 95 79 93 79 87 89 87 87 91 91 101 103 93 95 97 105 103 99 99 107 119 103 111 97 105 109 99 113 107 99 107 115 125 117 125 135 135 193 293 348 370 391 383 352 360 413 448 467 430 375 391 411 407 426 452 422 403 403 405 
67 81 91 85 93 83 95 79 83 79 95 71 75 81 71 91 91 83 79 83 85 89 89 85 71 91 87 95 89 101 95 93 85 97 107 105 83 101 103 99 121 109 105 95 105 101 105 105 97 107 99 111 103 103 113 121 113 169 267 344 366 366 377 391 385 358 362 350 383 360 364 399 401 405 426 459 442 409 395 424 
87 81 79 85 73 85 91 77 85 81 81 63 85 79 75 83 73 83 79 73 89 73 83 93 75 81 83 79 89 87 89 87 85 89 91 87 89 97 101 109 107 101 95 93 97 101 107 101 93 89 97 101 85 103 113 105 113 175 340 383 399 352 387 374 383 360 370 366 377 440 432 424 393 407 409 434 444 424 421 448 
71 73 83 79 87 79 83 75 83 71 77 89 75 73 77 85 87 81 69 71 87 75 67 99 83 63 91 83 71 79 77 83 91 85 87 103 89 93 103 105 115 109 101 109 97 103 113 113 99 95 105 101 99 103 103 121 127 233 338 375 407 389 387 372 375 366 372 368 389 457 452 421 428 409 426 432 446 424 436 483 
52 69 61 71 65 81 69 81 73 65 65 65 83 77 85 75 79 83 81 83 77 71 67 95 89 87 101 81 87 91 85 85 85 97 95 99 93 107 101 107 105 121 121 103 99 111 105 107 109 99 101 101 111 97 101 129 129 211 311 407 442 413 391 381 399 372 370 354 366 448 436 424 430 403 399 426 446 452 453 510 
59 85 71 79 69 79 69 83 85 69 73 73 69 83 85 85 85 81 79 75 65 65 79 81 87 97 107 79 87 89 85 93 89 93 99 101 109 93 107 105 111 113 119 99 111 113 109 109 111 113 113 111 109 117 117 117 117 185 293 362 434 397 391 393 379 374 377 368 375 428 430 419 407 379 391 413 461 479 483 521 
83 77 67 73 79 75 87 87 87 77 87 87 73 65 69 89 79 97 85 71 91 83 91 85 87 95 93 91 89 97 83 97 93 97 107 105 109 113 115 109 107 113 113 105 121 107 115 107 115 111 107 105 109 105 109 115 125 145 251 358 424 411 405 379 377 370 389 411 469 436 424 407 395 381 370 383 455 498 498 539 
81 91 73 91 85 91 77 101 91 79 83 87 83 87 79 77 93 89 83 85 89 93 103 103 101 101 91 101 95 111 93 107 101 109 111 101 107 115 115 109 103 119 103 113 115 113 109 107 113 111 109 107 111 115 105 119 125 139 179 265 374 377 389 368 379 360 488 527 543 500 506 496 473 421 354 307 424 517 523 541 
75 85 85 81 79 79 85 91 91 85 85 89 97 97 85 95 83 85 87 93 83 89 101 85 89 103 93 95 93 99 113 107 109 91 107 103 113 119 113 113 107 123 115 107 105 107 117 107 111 103 99 103 125 115 129 135 125 127 121 157 253 332 401 387 393 419 517 531 554 545 570 545 552 539 515 500 494 535 556 537 
71 89 81 83 81 75 87 95 93 81 91 73 79 87 81 87 93 93 83 77 87 89 97 93 87 99 99 85 105 95 89 105 95 103 109 103 121 105 99 105 103 107 115 109 113 107 115 117 115 121 121 121 133 137 193 237 175 157 143 153 173 243 358 415 428 455 488 504 523 535 541 552 566 554 564 581 576 574 552 537 
77 79 91 89 83 89 81 93 97 95 93 81 83 99 93 89 93 101 79 91 95 95 115 105 87 99 101 93 101 89 95 101 113 101 103 105 107 113 111 113 111 121 117 111 121 121 113 119 123 115 121 133 183 281 375 405 385 324 223 165 167 181 251 374 426 421 467 481 467 483 525 550 556 572 576 597 601 599 548 504 
67 83 97 89 79 95 93 95 93 89 87 83 75 87 93 85 97 87 83 85 95 99 103 91 95 103 109 85 91 81 85 103 107 111 111 107 113 107 97 103 107 113 111 109 109 111 121 121 119 133 143 215 360 422 422 434 424 432 411 297 199 191 197 217 249 336 366 381 372 387 432 477 527 548 570 595 606 593 500 453 
75 77 79 85 85 87 93 91 95 97 99 79 81 101 89 79 95 91 77 101 99 99 103 95 91 91 95 97 103 99 87 97 89 97 95 93 105 105 113 109 113 111 113 117 107 117 111 115 145 151 249 407 455 452 450 444 450 453 453 430 372 273 197 181 195 175 215 203 249 261 269 293 346 438 527 545 529 541 444 426 
73 85 81 85 69 83 97 91 105 81 97 79 87 87 91 95 99 91 91 89 93 99 97 105 91 91 97 89 101 95 101 85 87 91 103 115 101 105 111 115 105 115 119 109 121 117 121 135 163 241 401 453 446 450 434 440 442 452 457 471 473 432 283 191 189 191 187 167 221 269 305 293 311 322 332 368 366 477 411 422 
79 77 81 85 91 79 79 107 83 71 79 81 77 91 81 85 91 95 79 91 87 93 87 81 81 97 101 101 103 99 83 99 97 91 109 105 107 113 123 119 115 121 125 117 113 121 131 139 257 379 438 453 459 430 377 354 432 444 457 459 502 467 340 223 201 207 197 189 223 275 309 316 307 305 307 312 322 430 444 432 
75 91 89 73 79 85 81 97 93 77 97 91 95 83 93 91 85 83 75 89 85 95 97 91 97 89 81 99 95 79 83 97 81 87 91 101 107 111 103 113 119 121 105 123 113 129 141 241 377 436 461 450 393 283 179 177 275 448 450 450 450 393 346 379 295 249 213 205 225 271 285 305 277 309 307 303 311 379 446 436 
65 63 85 81 89 91 81 95 93 89 83 75 93 73 77 83 83 77 79 79 85 89 87 83 81 91 79 85 87 77 87 93 87 83 101 95 99 111 107 119 119 107 109 111 127 129 205 346 424 432 401 307 191 147 129 145 165 368 430 403 381 324 330 354 350 334 307 281 301 287 301 303 320 311 314 324 330 328 374 409 
73 67 87 89 69 85 73 101 85 79 75 81 71 71 73 77 73 75 73 77 83 83 77 87 81 89 81 75 71 85 71 83 85 85 99 87 91 103 101 107 119 113 145 151 211 229 336 401 397 307 201 153 137 125 109 119 133 312 368 364 370 338 334 305 334 326 309 299 297 303 318 336 348 352 354 368 356 324 312 356 
77 81 71 81 81 73 83 105 77 77 73 71 75 71 73 81 71 75 79 79 85 77 87 79 71 71 81 75 91 77 85 69 87 75 101 91 93 105 105 117 137 169 207 263 328 344 366 340 247 155 137 123 125 125 129 129 139 301 375 370 374 332 326 320 326 342 334 301 285 299 332 352 356 368 366 383 362 320 314 346 
75 85 83 79 93 79 81 97 69 79 77 73 81 79 65 67 89 79 73 81 75 81 87 89 79 91 81 85 85 91 77 81 83 91 99 93 101 107 109 129 199 277 285 293 285 281 289 209 163 123 147 157 161 147 171 163 147 253 354 350 314 281 289 289 324 332 320 318 301 303 338 348 360 375 385 375 332 328 318 338 
52 91 79 87 75 101 93 91 81 91 87 67 77 103 77 85 83 93 91 89 83 85 93 85 95 91 99 93 97 87 91 87 99 89 109 95 101 117 123 151 215 273 265 225 213 151 155 161 177 249 377 385 391 421 453 393 241 322 389 362 332 285 287 301 307 293 299 316 309 324 348 358 352 374 364 354 344 338 316 338 
69 91 75 97 79 87 75 83 93 91 109 77 79 91 87 83 91 91 101 97 97 87 89 91 89 103 97 103 97 89 91 87 97 87 101 93 103 111 121 131 147 175 165 185 147 135 121 149 213 279 448 517 535 539 543 560 545 533 498 415 375 320 295 305 301 277 291 320 305 352 366 362 374 375 354 342 318 334 311 322 
75 77 81 85 85 81 107 81 95 89 83 85 83 91 81 85 93 97 89 93 89 93 95 99 103 99 97 91 81 99 97 95 95 91 117 103 105 115 105 123 121 125 141 141 139 129 141 175 231 309 515 510 500 543 552 543 545 556 550 502 393 360 320 289 279 265 275 295 316 352 383 374 381 377 336 311 318 312 309 303 
65 73 87 91 75 93 89 95 93 91 69 79 83 85 89 95 77 89 81 87 91 93 87 105 93 95 105 93 109 85 101 85 87 91 107 91 109 111 109 119 121 115 123 133 127 119 119 197 279 330 510 510 525 552 515 512 486 453 471 479 407 348 324 285 259 255 251 277 330 348 366 379 377 372 336 322 316 283 279 297 
79 75 79 87 77 81 87 97 93 83 81 83 79 85 81 81 79 99 91 101 83 87 105 97 105 89 105 97 97 99 103 99 87 89 97 107 111 105 101 113 115 111 131 127 135 129 131 157 281 305 436 463 502 523 492 488 436 411 419 432 354 342 324 275 267 263 259 275 322 344 352 368 368 358 316 336 295 275 273 287 
73 97 89 85 83 87 91 101 81 85 83 89 87 95 105 101 87 91 87 97 101 99 105 107 103 107 99 105 99 89 95 107 105 97 99 103 115 113 111 117 121 137 157 127 115 117 129 139 225 261 366 391 469 517 535 512 459 446 432 413 368 318 293 263 269 261 267 273 295 312 328 334 350 346 318 324 293 271 261 275 
93 101 87 99 81 79 83 103 79 95 83 83 77 81 87 103 81 99 89 95 97 85 99 101 107 103 101 99 95 97 95 99 97 99 107 101 109 113 105 147 185 211 169 123 127 115 131 125 171 215 305 385 417 477 504 490 477 407 397 375 352 314 289 269 255 227 239 245 255 293 295 299 316 307 303 316 301 275 261 279 
77 93 93 85 73 93 83 95 95 87 87 89 95 101 95 99 95 81 79 99 89 91 101 85 97 99 101 95 105 103 99 93 89 107 99 99 95 111 109 145 183 247 211 205 165 137 137 115 131 137 171 183 207 235 255 245 195 201 293 324 301 267 263 247 243 219 233 231 241 281 263 277 291 291 291 314 340 275 257 295 
63 67 77 87 83 73 71 103 93 81 91 77 85 83 87 95 87 89 83 95 93 79 79 85 97 83 97 103 95 93 87 83 91 91 85 95 97 109 103 103 143 205 233 251 261 243 179 149 121 95 113 107 119 111 103 113 125 225 287 287 271 231 239 255 269 257 251 223 223 247 225 241 261 271 301 428 426 295 257 273 
71 71 79 79 87 83 81 83 91 83 83 87 81 87 81 89 89 97 87 87 89 83 93 93 93 105 97 73 81 83 83 81 103 103 87 91 105 101 99 101 101 167 201 241 283 293 241 173 125 105 111 95 99 93 91 95 105 261 324 295 279 243 231 255 259 267 221 207 207 243 213 225 253 261 307 515 484 338 277 285 
67 75 75 69 71 83 75 67 77 67 77 79 81 79 77 73 81 81 77 91 77 89 87 83 91 91 89 83 79 73 81 77 81 89 103 91 99 95 85 93 91 135 125 147 209 275 305 287 185 107 109 89 97 87 73 77 127 305 332 301 271 211 203 229 231 231 215 173 173 187 223 225 239 257 295 539 488 352 283 297 
42 59 61 67 69 71 87 81 71 77 87 79 79 89 79 67 103 81 87 95 89 71 91 99 81 97 81 71 87 79 79 77 77 83 87 81 89 99 91 85 81 93 103 91 139 229 318 372 295 175 113 77 89 81 83 87 131 295 320 311 273 185 143 181 207 209 187 157 143 165 189 215 231 239 289 519 465 316 293 297 
48 55 57 52 61 61 71 77 73 59 79 61 75 65 79 79 77 83 75 81 71 63 79 87 79 77 79 73 77 65 73 75 63 77 73 87 91 95 87 85 89 81 85 79 81 127 261 358 356 271 195 107 87 67 67 89 211 350 366 342 295 215 165 145 129 93 131 135 129 145 161 197 219 219 265 448 374 297 273 293 
48 55 46 50 50 55 61 71 61 57 71 57 75 55 61 63 73 67 61 73 77 71 81 77 83 85 77 63 69 75 63 71 52 73 71 85 79 93 91 97 85 77 77 69 73 103 177 269 370 379 362 241 131 89 77 135 360 415 426 391 320 219 135 77 52 55 87 145 161 151 157 177 171 211 253 397 320 273 261 291 
30 48 59 34 52 52 38 57 50 55 52 59 50 71 50 61 57 44 69 69 61 67 85 79 63 71 61 69 59 61 52 67 63 69 65 79 77 71 79 87 75 75 69 69 63 69 105 197 322 389 379 391 309 161 171 297 417 432 415 411 387 211 85 38 28 26 69 131 129 133 145 175 171 173 233 377 297 235 245 277 
50 59 63 69 59 46 67 67 63 52 63 61 61 69 57 44 59 55 50 55 57 61 55 67 55 57 63 50 52 55 61 36 57 36 67 73 63 67 67 59 42 52 63 48 52 63 75 117 227 342 407 381 385 364 368 411 409 407 413 387 316 147 38 0 4 8 57 81 83 85 101 119 119 113 163 338 261 225 207 241 
55 79 63 75 59 75 63 73 61 61 63 73 77 81 75 67 71 65 67 57 67 65 69 79 65 83 77 67 85 75 61 59 61 73 59 85 79 77 63 55 65 67 59 61 65 69 59 83 109 237 377 383 393 389 381 405 415 409 377 235 135 73 46 36 46 32 36 42 46 48 59 50 40 48 57 141 127 189 197 187 
57 77 77 69 73 55 71 81 69 77 69 55 71 71 63 65 67 81 73 89 79 75 73 79 63 81 87 79 79 85 79 63 79 73 69 73 79 73 59 79 63 81 67 69 61 71 77 63 91 117 257 379 393 375 407 413 397 328 205 93 67 48 48 46 40 42 65 59 69 57 42 42 55 55 50 63 63 107 157 163 
67 65 71 67 77 77 69 85 73 87 77 71 69 73 79 73 73 93 75 75 83 79 91 93 77 87 89 97 81 89 67 75 73 71 81 79 83 79 67 75 81 81 71 85 69 85 83 69 87 95 131 267 383 375 381 405 289 151 87 61 67 57 69 65 69 59 71 85 83 83 89 93 97 91 63 77 65 71 85 131 
69 65 85 87 87 85 89 91 71 75 79 81 87 79 79 91 99 95 85 95 93 95 93 99 81 101 119 109 87 85 81 97 99 91 99 97 81 91 81 79 95 83 81 83 79 83 89 89 79 77 87 145 251 312 328 305 175 97 83 89 79 63 83 83 83 89 87 99 87 77 89 101 91 93 75 81 77 61 81 111 
81 69 73 87 77 95 83 91 91 85 91 81 77 95 85 89 103 81 93 95 99 87 99 105 101 97 113 93 93 89 81 93 83 89 101 93 95 93 85 89 103 95 81 83 91 77 87 85 81 87 87 107 143 167 181 185 137 119 111 115 97 81 99 93 95 101 109 97 91 81 93 85 93 75 79 91 85 85 71 91 
73 81 85 91 87 89 77 87 95 83 77 83 79 95 95 85 93 93 79 89 107 99 73 111 97 101 93 89 89 91 81 83 87 89 105 91 91 91 95 95 89 77 83 69 81 69 89 83 83 87 95 117 127 127 123 125 117 107 103 121 123 101 95 109 99 95 105 101 83 85 75 87 89 87 85 93 97 87 91 105 
79 87 85 75 79 79 77 89 89 87 99 115 89 87 95 85 101 93 103 101 105 91 99 103 97 93 99 93 99 97 91 89 95 87 107 97 113 91 83 101 91 87 87 95 91 79 91 97 89 87 115 119 115 119 117 105 115 107 107 105 109 91 87 99 101 87 105 99 109 103 89 99 89 95 81 97 97 107 79 105 
81 89 85 81 87 77 81 81 83 109 77 105 107 91 87 95 95 85 99 107 95 99 91 101 101 101 107 95 111 99 91 85 103 97 103 89 111 101 99 97 97 105 89 93 89 95 93 99 107 99 125 123 131 115 103 121 117 117 107 117 105 91 103 89 105 107 97 105 93 87 95 91 99 75 87 99 103 85 83 97 
87 79 103 83 89 99 93 101 81 103 99 101 97 97 107 97 95 83 87 89 103 99 105 115 101 111 115 97 93 111 89 91 91 91 107 97 93 109 107 89 93 113 81 95 91 99 103 97 115 121 117 123 107 113 99 109 97 121 111 107 105 77 93 93 99 95 105 103 85 93 95 93 93 85 91 107 103 101 77 109 
71 95 93 93 91 91 105 89 73 73 83 79 95 97 97 99 87 103 89 93 103 99 97 95 109 101 97 107 87 97 97 89 101 105 97 101 103 103 97 99 97 95 103 85 99 95 105 111 113 103 103 101 103 115 109 89 97 103 99 95 105 87 101 103 91 99 103 91 89 83 87 109 95 105 111 113 103 109 79 101 
79 97 81 89 75 95 81 107 89 87 87 93 91 101 83 101 105 95 101 103 101 111 105 105 103 103 107 107 95 101 107 107 97 87 105 107 111 117 91 101 93 101 107 105 91 91 117 133 113 125 109 103 125 119 107 105 91 107 109 95 101 95 95 103 107 99 105 103 97 89 107 111 113 103 101 121 105 117 93 99 


