P2
80 60
699
213 243 263 261 249 257 259 257 273 263 253 255 269 247 263 257 247 251 255 227 225 223 229 231 209 217 231 209 215 203 227 235 225 211 217 217 221 227 199 211 189 191 187 189 193 209 217 209 209 241 227 237 237 227 235 231 229 233 231 233 233 211 223 235 229 223 233 217 219 227 233 201 219 211 211 219 207 219 221 219 
217 247 239 247 255 245 253 251 257 261 261 253 249 249 251 261 257 249 239 231 239 223 229 221 209 215 217 225 211 203 211 231 215 199 209 219 235 215 203 207 199 197 193 179 197 205 217 199 221 237 229 229 227 233 245 239 235 245 229 223 229 229 239 223 215 229 225 217 225 239 233 203 197 215 201 209 195 215 197 199 
219 245 253 235 251 249 243 241 249 263 251 251 251 247 253 247 253 245 231 229 233 245 227 207 223 221 233 209 215 193 223 223 227 211 225 217 239 237 235 229 213 205 193 187 213 221 213 213 219 249 239 237 241 241 245 235 251 257 229 245 225 217 225 217 219 233 225 223 239 243 221 219 209 207 203 219 219 213 207 201 
219 231 243 247 241 243 245 263 259 257 257 277 267 223 239 247 241 243 251 231 235 241 231 221 225 239 227 223 235 215 239 251 239 219 223 229 253 243 245 243 217 211 197 207 205 211 229 217 235 239 235 249 261 235 247 235 249 249 255 243 235 237 227 231 227 241 247 243 243 235 239 223 213 213 223 221 237 225 219 213 
211 241 253 263 261 249 249 267 251 267 261 245 247 247 237 257 243 257 249 235 223 211 225 235 241 235 225 227 233 247 241 257 233 237 243 235 241 245 245 225 221 213 205 201 207 229 219 235 245 249 235 255 253 259 237 265 243 239 237 249 229 229 223 241 225 237 235 237 251 249 243 225 221 245 221 217 219 211 213 219 
217 219 257 253 251 243 247 245 267 257 259 275 253 243 253 253 255 245 243 233 233 231 235 241 235 249 229 243 243 237 231 247 245 239 233 257 259 245 231 229 225 213 217 213 227 223 229 233 239 249 251 261 263 257 251 257 251 243 241 245 243 227 227 227 237 233 253 255 243 255 243 239 239 231 225 225 233 231 229 221 
215 237 261 245 251 255 253 241 263 267 259 273 275 247 243 257 255 251 243 235 235 251 247 231 245 237 239 237 243 235 231 263 263 239 251 249 265 261 253 243 237 223 223 213 227 229 225 235 239 251 257 245 255 251 265 259 255 251 239 239 227 241 241 229 243 245 251 253 255 251 237 239 229 241 243 243 235 235 231 229 
235 247 243 255 257 249 245 271 275 267 259 273 267 263 245 267 241 251 255 237 243 233 247 247 241 245 247 249 241 247 251 253 251 247 257 247 267 255 257 241 227 229 233 215 223 227 247 233 253 267 261 283 263 265 271 253 271 257 251 241 239 245 243 235 243 239 239 251 251 253 245 249 239 235 245 255 235 229 233 217 
217 247 245 255 249 261 265 255 271 271 259 263 269 261 255 257 251 259 255 235 243 231 253 237 231 253 253 243 235 249 259 255 261 259 273 261 277 247 257 245 237 239 231 217 245 245 245 237 259 265 263 261 265 261 259 253 241 251 261 253 253 239 251 241 249 249 235 251 249 261 253 237 243 239 235 241 237 237 227 217 
231 241 247 265 255 249 253 257 249 283 273 275 273 245 259 259 265 263 251 243 255 237 253 241 245 243 245 249 243 249 255 265 257 249 277 265 275 253 253 253 235 233 251 219 237 241 245 257 253 259 263 267 265 261 255 259 253 261 253 255 239 247 245 241 239 261 265 259 273 261 259 247 243 243 219 251 235 245 233 239 
207 235 269 263 253 259 247 271 259 241 257 273 247 243 267 263 261 239 253 255 241 255 251 239 251 239 243 241 249 243 259 255 263 249 269 281 279 265 253 249 247 245 227 231 243 245 245 253 259 257 251 263 271 271 267 255 253 253 235 267 241 243 251 249 261 271 253 255 255 251 249 253 271 249 245 247 237 245 239 225 
233 239 255 251 261 261 265 269 255 261 269 273 267 247 251 247 253 247 253 251 241 249 251 263 233 251 237 241 253 241 271 263 257 261 275 289 269 269 263 253 245 251 247 259 251 251 251 247 259 261 275 267 265 247 267 259 267 287 259 279 305 301 319 317 299 289 275 279 283 295 283 291 285 269 267 265 257 243 243 239 
231 243 263 249 259 253 267 265 263 261 259 265 253 275 253 251 251 251 253 235 245 247 245 247 239 239 247 237 251 255 251 265 257 259 269 287 285 271 269 263 267 263 259 289 303 283 257 263 265 269 273 271 283 285 297 325 345 335 315 335 353 341 359 347 341 339 355 399 405 381 377 387 385 335 303 275 263 257 249 235 
237 245 249 273 247 255 269 243 255 255 259 253 253 259 249 247 249 259 257 257 235 249 243 245 247 237 237 249 241 247 245 277 261 251 283 281 291 293 285 273 279 273 269 333 363 333 295 269 275 279 275 307 309 331 337 347 343 339 331 345 353 371 377 375 367 373 383 438 450 430 432 448 487 495 420 357 283 271 267 247 
237 267 263 267 277 265 263 251 257 261 269 263 253 251 249 269 259 255 257 249 239 239 255 247 241 237 249 265 255 255 281 283 287 287 305 309 309 305 295 287 281 279 277 321 399 393 335 291 313 321 321 355 347 343 339 329 321 363 377 395 379 385 407 414 391 395 385 434 458 472 446 438 448 487 491 475 422 369 335 319 
211 255 259 261 247 263 251 245 269 265 253 249 253 247 261 263 255 271 247 245 249 257 259 239 241 251 253 259 261 275 283 333 325 337 369 361 343 327 307 303 275 281 277 305 379 381 355 305 305 297 305 347 349 347 343 313 335 391 411 432 420 422 416 409 426 422 416 432 487 475 440 450 460 474 477 470 468 468 479 379 
227 243 261 253 253 253 263 253 267 269 277 261 277 271 275 265 261 257 259 243 249 251 253 265 255 251 267 279 295 319 409 466 462 466 552 534 468 391 353 309 277 273 323 361 373 381 379 353 313 291 277 303 349 357 353 355 359 399 426 450 438 450 440 428 434 432 424 430 446 450 436 450 466 472 460 456 458 481 477 495 
221 271 257 253 251 251 257 249 261 277 259 259 269 265 267 271 273 265 267 265 265 263 261 265 273 267 279 277 309 442 495 509 540 569 604 563 511 432 389 325 235 273 327 355 383 405 387 361 333 293 261 275 359 357 369 393 393 407 395 414 436 440 438 438 428 416 401 373 357 369 379 383 365 359 357 343 361 377 361 407 
231 263 261 255 263 263 261 263 261 265 267 265 265 269 267 281 279 267 281 267 273 259 279 281 277 281 271 277 329 515 524 575 614 612 617 586 499 363 315 269 241 279 353 371 403 401 395 377 351 315 269 283 333 351 377 389 393 405 405 409 418 438 434 432 418 367 321 317 321 321 321 315 299 315 297 297 313 323 303 295 
243 267 263 251 259 255 265 253 269 267 269 267 263 257 265 279 263 271 259 249 279 275 279 277 283 281 291 303 325 485 602 625 633 621 598 573 507 349 275 291 343 387 397 385 399 393 409 379 359 319 299 271 327 343 375 387 385 381 393 401 412 411 418 377 325 307 295 311 303 295 309 297 291 283 291 285 299 307 285 297 
221 265 271 277 265 265 255 267 255 257 269 267 265 267 267 269 257 267 255 261 297 293 295 285 293 299 283 307 337 479 631 664 648 608 604 573 475 347 257 325 411 452 438 432 411 397 393 377 367 325 289 289 315 353 379 395 387 391 391 401 424 416 420 403 377 373 389 371 347 347 327 307 293 307 283 315 321 309 323 325 
239 271 275 265 273 267 265 261 265 263 245 263 271 257 267 279 267 273 277 291 353 379 367 401 321 317 305 363 434 610 645 658 639 604 590 540 428 307 235 323 416 468 454 432 418 369 391 387 399 309 161 245 321 351 407 379 391 409 401 391 411 401 409 420 426 416 446 440 418 456 418 381 381 397 430 456 456 454 458 448 
227 265 255 279 253 247 265 255 267 267 263 267 273 265 261 273 265 273 295 343 436 454 487 497 466 422 430 479 598 594 629 633 602 559 544 511 414 285 229 299 411 468 468 446 416 373 387 403 377 349 195 195 263 347 377 367 393 407 397 407 403 405 414 420 426 450 460 440 432 454 450 442 444 454 474 499 509 507 507 491 
223 247 263 261 265 257 251 253 265 259 271 251 269 271 279 281 267 267 287 397 462 491 479 563 540 526 544 579 612 586 590 542 573 542 517 450 381 281 241 279 393 472 475 470 436 409 401 424 412 365 309 173 126 201 321 375 385 395 399 407 401 414 426 414 412 411 436 424 434 466 436 440 446 472 477 509 509 511 501 464 
215 253 271 273 253 253 257 265 261 279 265 263 267 275 265 275 279 263 307 345 416 474 515 575 555 594 592 604 633 615 612 456 477 565 481 454 411 333 267 215 319 442 452 448 442 409 418 436 434 379 307 235 112 128 277 345 371 373 391 375 401 393 397 387 375 397 401 403 426 448 442 442 464 477 503 515 517 495 460 434 
223 255 261 261 265 263 269 245 277 277 265 253 261 263 261 249 269 265 271 307 385 475 536 598 612 631 641 662 666 645 643 546 497 584 497 470 446 416 335 279 267 365 405 430 430 385 418 426 432 357 317 275 217 201 305 317 339 347 341 341 339 323 339 333 353 369 365 375 385 432 418 430 444 462 479 477 440 395 351 297 
219 261 267 259 255 253 271 239 259 257 269 251 269 257 263 269 259 271 269 295 393 446 544 581 668 643 681 668 635 658 654 579 563 561 528 530 519 487 438 357 285 283 315 367 405 391 412 428 420 375 341 297 275 283 327 321 301 289 265 283 299 281 313 331 345 359 347 347 365 341 335 325 335 347 367 347 321 293 277 273 
223 259 261 261 251 261 263 269 281 261 269 259 261 275 269 259 257 261 263 287 385 422 495 503 565 615 658 631 592 532 530 594 557 524 515 546 557 528 515 448 345 311 313 335 395 397 418 432 412 369 359 331 309 293 315 305 245 283 243 233 275 275 307 309 333 337 349 329 325 317 311 285 289 277 271 271 275 269 253 257 
223 257 255 255 269 257 253 251 269 259 267 255 261 261 251 259 265 265 261 267 359 409 440 428 477 491 548 553 379 311 325 464 517 511 509 532 557 519 505 479 424 397 347 349 359 377 401 414 387 363 349 339 307 279 273 179 213 281 283 255 275 285 291 297 307 319 321 323 309 303 301 285 283 261 263 263 255 265 261 259 
225 247 259 255 259 251 243 255 267 273 257 247 251 243 249 255 259 249 259 255 307 375 381 385 440 428 474 363 279 281 303 361 495 524 503 501 505 475 472 438 407 422 409 343 325 363 361 357 357 345 341 331 319 297 283 247 287 297 329 321 301 311 281 289 305 321 327 317 333 307 293 283 267 265 241 269 261 253 253 253 
219 259 275 251 253 251 257 259 241 261 243 259 255 249 269 265 261 267 261 257 275 301 355 359 347 313 297 281 277 279 305 337 466 581 536 468 399 275 211 283 377 474 521 497 468 479 472 475 485 468 405 353 347 323 311 357 448 470 456 407 389 315 299 305 331 343 333 341 329 309 293 273 269 255 247 247 253 241 239 257 
227 263 255 263 261 251 265 265 257 265 259 255 261 259 259 271 269 263 273 261 261 271 277 285 287 259 273 273 289 291 295 325 391 569 563 428 201 0 100 267 291 393 557 561 563 598 583 583 586 569 561 532 501 477 495 524 532 505 472 432 395 305 297 307 337 339 337 339 337 311 299 271 271 257 251 255 263 241 229 243 
207 249 251 257 249 261 249 249 259 263 249 249 261 269 261 271 263 255 261 251 267 263 273 281 269 271 277 289 273 277 293 319 343 436 542 515 383 283 357 353 311 395 581 567 598 606 586 596 586 600 575 567 544 526 528 521 517 507 460 416 313 291 293 311 341 333 339 329 331 325 293 281 265 263 253 259 251 249 243 227 
213 273 241 247 251 263 263 265 275 259 261 255 271 265 257 269 275 263 279 261 265 269 273 269 277 275 283 283 303 333 409 456 501 528 557 534 513 466 501 497 456 462 542 485 509 528 555 567 579 565 524 487 468 460 450 393 393 395 343 301 281 279 297 323 337 341 335 331 323 323 311 285 269 261 259 261 245 257 231 235 
217 247 251 263 263 261 253 257 277 265 271 273 267 263 275 277 261 283 281 265 269 271 279 281 283 291 285 321 411 497 550 565 555 534 553 544 557 519 577 571 586 577 552 479 345 331 327 353 355 357 333 335 349 333 331 329 303 305 287 295 283 277 295 315 337 335 339 329 343 313 311 297 287 275 257 265 247 261 249 243 
207 251 259 253 263 261 255 261 273 277 277 267 265 281 269 271 287 285 289 259 277 273 265 281 289 293 303 375 536 521 521 522 524 526 534 536 542 526 579 569 557 569 565 557 505 383 311 299 321 329 309 317 327 333 333 317 319 293 293 321 293 289 287 295 299 299 301 323 333 315 323 303 283 267 247 263 259 251 255 257 
229 237 243 257 257 269 263 265 267 265 271 269 269 257 275 279 277 273 265 261 275 269 277 283 285 297 325 475 553 532 530 503 499 511 509 524 544 530 571 567 571 573 565 577 588 559 452 381 367 377 339 341 359 351 337 333 311 309 311 335 315 315 309 303 297 293 295 313 325 319 303 301 293 273 255 239 245 251 233 245 
217 249 253 259 249 259 265 267 265 267 275 273 263 273 263 283 265 279 281 277 281 285 277 287 297 287 371 503 522 526 530 505 470 470 483 481 517 526 553 548 552 563 544 553 579 577 534 462 393 373 357 363 361 359 357 353 335 339 343 349 333 333 319 301 303 291 283 309 315 307 299 287 247 215 219 201 221 233 235 247 
229 253 261 261 269 261 257 263 273 259 251 263 265 275 277 287 277 287 291 279 283 289 279 297 305 331 440 519 517 511 507 489 474 464 440 420 414 422 438 436 485 534 532 534 565 575 555 526 477 418 385 385 385 385 385 381 375 375 359 323 287 309 317 305 289 307 293 295 303 301 301 295 241 225 213 159 181 221 239 241 
223 269 261 263 255 263 253 255 277 267 277 267 265 267 285 311 379 411 436 416 416 371 313 305 319 389 511 522 507 499 519 511 479 456 416 349 353 359 369 377 407 450 493 517 534 555 548 534 528 460 407 420 414 412 416 397 407 389 377 267 157 319 303 287 291 285 311 335 333 349 373 393 434 414 385 323 267 229 259 329 
215 267 273 273 267 273 267 263 279 269 261 271 279 269 307 407 588 617 643 627 627 606 521 428 403 534 561 538 513 515 526 511 503 444 363 319 333 331 355 359 373 393 438 448 487 515 528 522 540 513 454 426 428 442 436 436 438 403 367 327 227 345 343 305 295 303 295 341 309 335 393 412 450 485 501 485 440 369 359 373 
213 269 275 255 261 253 251 265 279 271 257 265 279 273 361 534 666 668 672 681 639 637 635 629 617 608 606 534 509 497 507 513 477 393 333 307 325 335 353 371 385 373 401 411 420 450 458 495 522 521 472 432 430 428 440 452 452 434 395 379 347 365 383 363 327 317 309 303 309 323 387 409 446 477 493 483 432 405 377 359 
213 251 257 255 253 255 257 247 269 257 261 273 273 291 409 606 677 670 691 697 648 575 581 586 627 631 602 532 499 466 464 458 432 363 317 283 321 361 383 371 383 389 387 403 407 399 405 416 470 509 505 472 464 426 422 424 420 436 448 432 385 371 383 387 373 383 357 329 329 355 379 407 426 458 460 426 401 391 381 369 
243 269 261 257 255 267 265 259 267 251 263 265 255 271 387 598 648 677 699 689 670 528 565 552 600 600 592 515 487 470 442 428 385 363 309 261 309 367 377 399 399 407 409 414 393 367 379 391 412 479 538 521 491 468 418 395 397 416 414 426 428 395 397 399 407 446 401 379 359 365 389 393 414 424 418 412 399 393 385 401 
217 245 251 261 265 257 255 253 265 261 259 261 269 291 351 542 625 643 679 689 641 540 548 557 590 608 571 501 475 432 397 409 373 355 293 247 309 379 373 412 416 407 422 407 397 387 367 375 395 426 505 515 493 501 499 403 377 363 351 369 365 373 379 391 393 405 395 361 341 337 343 387 422 414 440 403 422 432 422 416 
211 261 265 263 251 273 259 257 269 253 265 255 267 261 299 432 600 612 639 658 621 610 610 590 561 579 563 481 452 416 405 393 361 327 249 211 297 369 397 418 428 418 430 403 383 377 353 375 381 407 474 509 499 534 511 434 341 329 307 301 299 291 309 301 301 301 301 301 317 321 375 418 434 436 442 444 452 438 375 329 
201 241 245 245 263 261 255 253 265 255 267 257 265 269 295 337 409 444 468 477 501 475 428 351 349 509 526 513 483 462 434 422 361 287 201 209 251 355 416 430 436 442 405 381 375 363 343 377 375 401 464 513 522 519 524 438 359 303 285 293 289 277 271 255 263 279 281 277 311 383 430 436 442 458 475 479 472 379 303 311 
211 253 251 267 263 269 261 261 259 273 263 265 265 265 275 291 291 297 305 295 303 291 293 293 299 414 524 522 487 477 483 436 383 315 219 197 231 329 397 422 442 436 403 377 367 359 355 395 385 418 474 530 524 524 515 444 373 327 323 323 339 343 307 273 279 275 285 295 375 430 428 460 468 468 487 483 395 311 289 283 
205 241 251 271 257 261 261 263 261 263 269 249 263 263 265 283 271 267 271 271 265 269 271 269 285 325 507 526 491 475 470 460 420 331 235 215 241 321 401 428 442 428 409 377 379 381 369 401 418 464 474 503 513 521 474 411 367 365 359 355 351 349 363 341 315 279 289 349 416 440 434 450 468 472 479 428 319 301 283 281 
223 239 243 253 257 265 257 249 249 255 261 253 261 279 257 255 279 275 267 247 261 247 249 253 263 299 458 534 530 468 438 448 428 371 301 227 245 303 409 428 444 420 416 397 393 407 436 454 491 470 468 468 501 475 412 365 371 375 367 353 343 363 377 379 357 331 351 393 422 426 432 434 452 448 418 337 291 277 267 257 
211 245 263 265 259 253 263 251 265 265 259 259 265 261 263 259 267 265 273 245 251 259 257 251 259 275 411 540 536 497 446 414 426 405 399 365 341 371 440 468 468 477 466 462 479 501 503 499 501 468 438 442 452 450 412 385 383 363 369 365 363 369 363 367 377 391 399 409 401 399 405 401 428 399 319 289 273 251 265 267 
215 257 257 259 247 265 255 249 273 269 259 257 273 265 267 263 251 263 251 247 261 235 249 255 241 273 349 528 528 483 466 446 472 456 468 464 475 503 519 530 532 534 519 528 532 550 526 485 477 432 407 434 434 436 418 393 399 391 393 389 375 377 377 373 377 383 379 387 379 359 359 373 373 293 281 271 273 255 257 259 
215 257 247 241 233 261 261 247 259 253 267 247 269 265 253 261 255 249 259 243 251 245 261 243 241 255 301 450 511 497 501 501 495 475 489 485 501 561 567 565 553 559 557 569 561 552 503 434 383 369 375 409 409 422 420 405 399 391 405 414 395 389 387 401 397 385 393 371 351 331 329 325 291 259 257 245 261 251 259 245 
211 261 251 259 247 253 249 251 247 245 249 243 259 277 257 261 253 243 257 249 239 249 241 253 245 245 261 293 391 474 491 524 511 493 485 501 532 579 563 555 563 586 577 555 540 470 387 297 305 315 343 353 381 393 407 432 434 412 412 412 397 399 436 409 432 399 389 357 323 307 303 255 249 235 257 265 269 241 263 255 
205 257 239 251 231 251 245 241 249 245 257 251 261 255 261 257 251 249 229 233 249 249 235 245 229 243 245 247 265 303 353 407 440 450 470 460 522 569 552 555 563 559 524 434 357 299 271 245 253 277 275 289 295 329 367 405 403 409 411 436 411 430 436 440 428 409 377 329 285 267 257 221 229 245 253 249 253 263 263 251 
213 235 253 245 233 229 249 255 241 243 249 257 243 247 245 269 247 241 249 237 247 231 239 229 241 219 239 235 235 239 265 283 287 295 343 351 405 395 407 422 414 405 321 259 249 257 249 233 257 245 251 251 257 259 275 305 343 357 367 412 412 430 434 430 420 403 381 327 279 251 251 215 221 237 245 243 233 241 261 243 
209 239 237 243 231 223 235 249 243 255 253 243 245 237 243 265 243 233 231 233 225 225 233 233 227 221 221 225 219 219 239 249 245 233 243 251 277 259 263 257 255 257 229 221 219 235 221 213 235 237 245 241 251 247 249 255 251 263 275 301 321 325 351 345 351 355 325 289 231 223 227 201 209 221 231 243 251 241 261 233 
193 219 235 231 233 231 225 225 241 227 235 221 225 239 255 257 235 227 225 229 213 217 229 209 213 215 205 203 221 223 221 225 229 223 229 227 221 225 223 213 209 213 189 211 207 211 215 219 227 239 217 225 225 225 241 243 233 241 221 237 235 223 229 241 233 233 241 225 225 219 195 193 187 225 253 227 245 239 237 225 
185 235 203 223 209 227 239 207 217 217 233 221 223 231 233 231 233 225 229 213 223 215 219 225 211 213 201 225 219 201 219 225 223 207 205 221 229 201 205 205 201 199 195 185 201 201 209 213 209 215 211 241 223 229 229 223 215 217 215 207 213 211 221 201 203 211 221 201 213 223 205 191 185 217 241 235 239 243 231 219 
215 237 225 241 209 229 229 237 237 227 223 213 227 213 231 241 243 207 219 215 211 203 209 213 217 205 193 211 203 203 227 229 219 225 223 233 241 229 221 221 211 207 209 207 217 225 235 225 231 241 233 241 229 239 237 241 219 227 225 219 205 217 209 209 203 195 219 205 207 205 187 187 179 195 203 229 229 239 237 231 


