P2
80 60
649
46 60 32 48 34 34 42 28 42 60 28 40 46 52 50 44 62 56 38 44 56 58 44 65 54 54 54 48 46 62 52 58 62 56 62 58 42 50 65 58 46 67 71 73 69 60 71 81 65 75 71 65 77 85 83 75 81 62 69 81 75 95 111 143 191 287 393 479 487 489 465 384 195 69 46 30 32 8 83 159 
38 50 30 46 20 30 50 42 36 30 54 52 42 36 44 46 48 54 42 38 50 54 54 58 38 44 54 52 42 56 60 44 58 56 56 71 48 65 58 58 54 71 77 71 73 60 73 69 71 87 69 67 71 69 62 65 65 83 73 103 97 157 231 321 378 395 467 491 473 389 265 119 67 22 28 26 28 18 125 307 
22 36 36 52 28 38 32 28 30 54 42 38 38 24 44 52 40 60 38 48 40 44 56 67 54 54 44 42 58 83 62 58 54 54 65 52 75 48 67 73 58 69 81 75 75 69 69 85 79 81 71 89 87 79 75 81 103 99 101 163 223 354 395 450 434 456 477 475 328 175 95 71 14 14 12 24 32 46 189 360 
30 34 32 56 26 16 32 26 32 42 48 50 32 46 52 44 46 34 40 46 46 44 40 60 62 69 54 67 58 73 62 58 56 60 71 54 69 58 67 60 73 65 79 54 81 65 77 69 75 81 89 79 81 95 85 91 109 115 173 295 380 413 427 454 479 485 434 283 133 87 69 24 26 2 12 26 38 87 279 384 
38 50 36 28 52 16 34 40 22 42 44 58 58 40 54 54 48 54 44 58 48 52 67 58 50 69 62 75 77 91 79 60 56 73 71 79 69 56 67 58 60 71 79 73 77 73 85 85 89 91 95 99 103 103 87 97 101 139 295 413 391 387 401 427 438 479 431 257 163 125 89 38 46 24 44 40 56 129 391 399 
36 42 54 46 38 34 38 32 32 46 48 46 54 42 48 56 56 56 44 56 48 54 62 60 60 73 71 69 65 75 65 62 71 65 67 67 62 56 65 62 60 71 67 67 71 62 69 95 91 105 113 113 103 115 123 119 135 163 370 431 431 442 415 421 391 419 417 401 360 271 171 95 62 44 50 65 89 207 448 415 
36 60 36 50 50 48 30 34 50 42 42 62 54 44 60 60 58 67 40 65 73 65 71 71 67 69 58 54 71 77 79 60 67 71 69 77 65 69 71 69 69 79 67 73 81 81 89 99 97 135 203 217 213 217 181 145 135 191 374 427 413 432 434 438 417 427 432 440 421 395 362 275 203 131 111 125 149 321 465 444 
30 30 38 30 48 42 40 32 40 34 46 40 48 67 62 52 52 48 40 50 62 58 54 65 56 71 60 48 69 71 73 52 69 81 62 60 73 69 73 65 67 83 75 77 79 73 75 101 129 261 429 469 491 498 444 291 235 285 332 332 338 442 432 429 425 425 421 417 411 391 421 423 395 324 279 261 334 423 462 452 
26 32 24 34 58 34 36 44 42 36 44 50 50 50 46 58 56 48 50 62 46 52 65 75 56 52 56 60 67 79 56 56 62 81 54 58 71 67 60 69 69 75 67 58 81 81 73 121 231 460 614 582 572 587 572 529 522 558 533 462 384 446 469 469 429 431 409 436 431 391 436 465 452 387 372 364 415 438 469 454 
32 40 42 24 40 46 28 22 36 54 52 56 62 58 58 48 52 44 52 38 69 48 52 73 56 65 46 48 71 62 60 52 60 69 81 69 77 58 69 67 67 58 67 73 62 75 67 135 283 562 616 607 582 589 578 603 595 624 639 633 541 438 415 413 415 405 397 419 413 374 436 479 450 393 372 356 407 442 463 458 
32 38 42 32 58 38 30 26 48 48 36 52 42 38 60 60 54 52 58 50 56 67 52 62 52 56 50 40 60 60 56 75 56 62 73 67 60 58 65 73 60 62 60 67 60 77 79 141 307 572 624 612 586 568 566 576 568 614 641 649 603 489 382 356 370 399 399 405 405 399 423 458 415 372 368 354 370 399 446 454 
40 38 32 28 52 56 46 38 38 52 50 60 44 52 46 65 46 54 65 62 67 62 60 69 54 60 54 60 71 69 58 71 69 52 58 62 54 58 58 62 60 62 65 81 73 67 77 113 245 541 628 622 605 593 556 580 543 587 639 635 595 475 413 401 395 405 421 405 399 425 403 425 374 366 372 336 340 360 421 438 
32 36 36 28 54 38 36 38 32 38 40 73 40 48 46 50 50 50 44 54 54 42 54 56 54 46 48 56 73 71 52 54 58 60 65 60 65 50 71 58 65 56 62 75 75 73 77 95 187 409 560 580 582 586 570 537 485 586 633 612 489 465 448 432 417 419 417 397 395 415 401 372 338 352 370 315 301 299 391 438 
18 46 40 26 36 44 36 44 40 46 46 44 54 38 50 56 56 52 54 58 50 58 52 56 54 52 52 42 54 65 50 58 60 65 50 56 54 60 50 58 62 62 71 75 54 73 67 87 119 189 313 403 425 440 415 319 324 469 508 399 336 425 456 444 431 442 421 391 395 436 417 348 328 368 385 319 299 291 366 442 
34 24 26 28 34 44 32 32 38 56 65 50 46 44 44 48 60 52 42 62 46 58 48 44 48 38 44 44 67 62 60 58 52 54 56 54 52 44 44 52 65 56 73 65 67 60 65 73 69 79 103 115 115 113 121 125 149 241 354 348 364 399 440 425 407 425 421 415 403 427 456 364 319 376 401 319 299 307 378 436 
42 44 32 40 40 42 30 40 42 56 40 60 50 46 69 46 54 58 62 54 44 56 62 56 54 50 38 54 67 50 48 48 54 46 46 54 38 52 54 56 46 67 67 69 69 69 56 81 67 56 73 62 77 79 85 97 103 153 358 458 465 442 419 395 393 384 393 399 382 419 450 368 344 395 411 344 309 358 423 440 
32 38 34 36 42 42 38 38 40 32 34 46 50 36 56 40 48 50 44 36 36 36 26 40 42 30 40 44 44 40 38 54 58 46 48 56 54 46 60 62 58 52 71 60 67 67 77 71 73 60 73 71 85 77 75 79 97 121 366 479 452 413 401 382 378 358 403 407 405 413 419 374 370 419 438 372 376 425 491 444 
26 28 36 22 24 36 40 26 22 22 20 38 36 26 44 34 50 44 52 50 52 38 32 56 48 50 40 40 58 58 54 50 42 60 54 50 60 60 54 60 54 56 65 60 56 71 73 71 77 73 69 67 77 77 71 89 101 107 293 432 425 401 378 362 352 374 372 423 436 421 415 419 395 431 463 448 473 465 485 458 
32 36 38 34 32 32 30 32 42 42 50 40 40 52 50 40 58 44 48 58 38 50 52 58 60 40 58 42 58 71 69 60 69 54 71 73 60 67 62 67 58 67 60 75 79 71 77 81 75 81 87 83 77 99 93 109 107 109 207 366 399 442 431 407 421 407 415 475 535 483 500 489 431 471 506 500 493 454 485 475 
28 30 28 36 38 32 32 34 46 46 46 56 44 54 50 58 48 54 50 38 48 65 58 60 69 52 62 67 52 71 69 62 77 60 67 67 62 71 60 69 69 85 75 65 62 81 79 89 85 91 87 75 91 85 83 93 109 95 127 225 352 405 405 405 391 382 380 479 541 547 568 533 502 502 502 498 491 465 469 475 
50 44 34 40 58 50 34 28 44 48 46 50 60 60 60 58 46 58 48 58 50 62 60 65 75 58 65 71 79 69 56 62 71 75 69 69 58 75 77 73 75 85 67 73 83 71 85 79 77 75 97 85 75 93 91 101 107 95 107 131 181 289 309 338 328 332 385 504 529 547 572 574 522 493 494 504 518 479 471 491 
38 48 38 26 40 36 38 34 48 44 40 52 52 52 52 54 60 56 52 54 69 71 52 56 79 58 56 62 65 81 65 60 69 67 73 69 69 73 75 65 71 71 79 79 81 75 91 93 85 75 81 83 75 83 89 89 107 93 101 109 103 125 181 275 299 305 385 483 498 496 504 533 485 469 450 510 512 460 483 493 
34 40 42 46 46 46 48 38 44 38 52 62 56 50 54 54 58 67 56 65 60 73 58 71 75 60 54 65 77 83 67 75 73 75 60 71 79 87 81 71 79 71 83 81 75 89 83 111 85 89 83 69 83 85 91 97 95 89 99 117 99 131 123 149 185 241 261 301 374 391 431 477 409 326 237 370 485 458 496 487 
42 48 50 54 50 50 42 26 42 46 54 50 56 48 60 60 56 60 50 58 67 75 69 73 58 69 58 58 71 77 73 65 79 75 60 81 60 73 71 79 71 81 91 71 83 89 85 91 81 87 89 103 71 89 81 75 99 77 99 117 97 133 137 173 219 289 393 481 481 456 401 370 257 149 97 179 429 462 496 483 
44 54 36 62 38 56 46 42 50 46 54 60 75 56 56 50 71 54 71 67 60 71 65 60 67 58 67 54 75 71 71 73 71 71 67 79 62 71 73 73 75 75 87 75 73 85 99 95 77 93 93 93 89 105 93 85 101 99 121 127 145 197 277 389 440 467 494 477 477 467 460 446 364 167 83 125 401 442 494 458 
44 38 32 46 60 48 40 36 34 62 52 54 46 56 65 52 69 56 54 65 65 65 71 67 67 58 81 67 65 67 69 65 65 75 77 65 60 77 81 79 79 79 91 93 79 91 71 91 79 79 97 85 73 95 95 91 139 169 191 303 358 393 438 481 493 493 502 483 465 450 434 431 374 253 223 203 358 423 458 446 
42 46 34 40 56 32 36 34 38 42 60 50 50 56 69 52 65 65 62 46 54 65 67 60 67 52 77 60 73 65 62 67 54 60 73 77 60 79 87 77 95 81 89 83 77 93 93 89 73 79 89 97 91 103 97 147 275 382 409 427 438 446 463 496 496 489 496 508 475 450 438 429 384 317 295 313 342 384 399 436 
40 46 36 44 60 52 44 50 48 42 46 56 34 54 62 46 50 52 58 54 56 52 54 56 48 75 67 67 69 73 60 69 60 67 67 71 65 79 77 79 75 89 103 81 81 83 83 99 79 79 69 91 75 111 101 227 417 444 452 442 397 382 405 442 429 434 460 467 467 471 446 411 360 330 348 322 346 397 411 421 
36 44 40 50 56 58 38 48 48 42 62 56 54 50 56 52 65 52 52 56 54 62 52 52 50 62 62 65 71 58 60 67 62 54 69 71 65 60 81 83 93 79 87 91 89 93 91 85 77 75 85 85 73 85 93 159 389 456 452 344 303 319 391 411 407 409 423 440 462 446 429 399 391 362 364 330 354 407 421 417 
46 40 32 48 48 30 34 40 42 46 52 40 32 42 50 46 44 50 65 54 52 52 50 60 50 60 71 50 69 71 60 56 56 65 69 75 56 65 77 91 89 83 91 87 91 91 95 95 77 81 83 77 81 79 69 111 227 348 287 139 229 342 360 397 395 413 417 429 421 387 395 385 372 356 346 346 358 393 429 407 
36 36 42 36 38 24 32 32 44 46 58 48 42 38 42 50 56 38 58 46 44 54 52 62 48 52 52 54 58 58 60 60 67 56 77 73 50 83 69 83 87 89 87 83 89 83 81 91 83 79 87 75 91 81 89 89 127 115 125 175 303 322 317 384 358 360 399 427 401 382 376 358 346 332 330 328 332 322 434 405 
34 34 22 34 46 34 38 40 38 46 56 60 52 38 46 48 44 67 50 42 42 44 58 52 54 62 48 54 60 44 62 60 56 67 58 71 60 71 79 91 93 87 97 95 83 89 77 89 77 71 75 79 81 83 85 89 99 97 101 181 313 342 338 354 348 374 364 382 384 348 360 346 326 336 356 354 340 330 378 407 
46 46 36 58 36 40 52 46 34 58 52 48 52 44 60 40 56 42 69 50 65 60 67 73 58 60 58 62 58 69 54 67 79 73 77 73 71 81 69 99 93 99 97 107 93 81 93 103 81 89 91 101 99 103 97 99 105 111 119 231 324 360 313 289 281 305 330 362 362 328 317 319 326 360 399 411 423 364 352 374 
50 40 38 50 36 44 40 48 36 54 62 54 50 56 54 60 56 67 62 60 48 65 75 67 60 56 58 52 67 75 62 69 83 75 81 77 69 81 79 91 79 105 93 93 97 93 101 95 91 87 119 123 131 159 143 145 119 125 135 283 301 293 269 269 265 307 334 364 346 313 279 275 301 340 387 413 423 362 346 360 
38 34 34 44 48 38 34 38 46 60 52 58 58 56 56 62 58 56 75 52 56 58 65 69 52 60 58 67 58 69 75 81 81 69 69 75 81 81 85 81 101 91 95 95 93 89 79 107 85 111 221 336 368 432 429 423 332 231 221 344 315 305 275 271 247 295 317 301 321 319 295 297 315 330 380 387 425 372 354 356 
32 38 50 44 48 44 44 52 44 54 56 50 52 69 50 56 73 85 73 50 58 69 58 71 71 58 60 81 65 62 71 60 75 65 81 79 60 77 83 93 91 87 91 97 89 89 101 103 117 183 317 529 524 506 535 514 541 524 473 477 385 352 289 275 243 251 255 239 303 299 295 299 313 344 350 364 411 380 352 352 
38 46 46 50 44 42 46 36 56 46 48 54 54 58 44 54 58 69 65 58 67 71 62 65 52 58 62 71 65 60 75 65 60 58 67 79 65 79 95 73 87 89 97 87 95 99 85 105 141 219 350 529 520 533 558 553 512 502 475 520 432 342 293 291 235 199 211 229 297 281 299 305 330 346 358 366 448 393 354 350 
40 44 28 50 38 44 50 36 46 52 65 52 42 69 48 77 62 71 60 65 58 69 65 71 65 60 71 56 58 73 75 75 71 73 69 77 67 73 79 89 89 93 87 93 93 87 99 91 179 251 356 487 506 545 537 547 485 452 415 467 446 332 283 309 237 203 209 235 247 281 297 317 299 340 340 336 469 403 346 344 
36 38 44 32 50 48 50 48 42 52 58 60 42 56 67 81 65 56 71 71 71 65 77 67 77 71 73 71 65 79 69 73 69 69 75 71 62 83 73 79 87 85 79 87 89 89 87 103 173 259 311 427 471 500 570 537 467 442 407 475 444 342 289 265 229 215 229 231 239 279 281 319 315 321 315 326 458 415 356 334 
42 38 34 44 40 38 42 46 48 62 48 60 50 42 60 56 65 65 67 67 60 73 67 69 69 60 60 67 77 73 75 60 71 71 67 77 62 69 75 75 95 77 95 79 93 91 91 93 123 201 271 405 454 456 522 527 520 500 498 493 425 338 285 249 219 205 231 207 219 259 249 281 303 317 287 317 407 403 362 330 
24 58 28 48 34 48 44 46 50 48 52 67 50 65 62 73 54 65 65 73 62 58 52 67 56 83 67 69 75 79 79 65 65 71 75 73 60 73 75 83 87 71 83 85 75 83 71 91 97 145 227 348 409 458 493 489 458 366 358 427 397 336 273 255 217 199 223 203 221 241 235 269 281 297 265 309 372 387 354 326 
38 50 38 48 56 32 32 38 52 48 52 58 60 48 75 67 73 58 75 60 60 54 52 65 73 65 65 60 65 65 60 67 77 67 77 71 69 65 77 77 69 65 83 85 79 67 83 81 81 83 115 123 163 209 237 233 167 127 187 273 279 295 273 233 203 207 205 189 213 247 225 261 261 259 255 297 358 385 358 334 
30 34 28 34 34 38 48 44 46 54 50 40 44 46 60 54 54 50 79 65 58 67 56 71 62 56 50 48 58 67 58 65 71 65 69 65 60 58 71 67 73 67 65 73 73 60 81 67 65 67 77 67 85 97 95 91 89 77 133 231 251 265 231 223 229 231 209 197 217 227 223 241 247 257 233 279 342 387 356 344 
28 38 28 30 22 40 46 30 48 40 36 50 48 62 48 48 52 71 65 52 62 54 46 69 73 79 62 69 69 58 56 60 48 69 71 71 56 65 58 75 62 69 73 73 67 60 71 75 73 58 79 54 67 71 60 67 73 65 89 235 305 275 231 223 229 239 271 247 239 233 233 225 237 261 253 255 289 305 326 342 
10 14 24 30 32 14 32 34 36 44 40 36 48 38 42 44 60 50 60 58 52 50 56 65 42 54 52 48 62 56 56 50 48 52 46 48 48 56 60 46 56 50 73 62 62 62 60 73 56 54 60 48 54 62 50 42 89 77 62 189 281 317 257 235 213 259 289 271 247 255 253 225 229 265 265 261 265 281 317 322 
14 30 10 10 36 28 24 20 30 36 30 16 30 30 44 34 60 42 42 46 42 36 48 46 40 44 30 38 65 40 42 52 30 56 52 65 42 60 56 58 56 44 58 73 54 58 58 62 60 44 50 50 42 46 34 69 253 225 89 157 287 299 283 259 257 275 289 303 265 229 245 229 231 261 257 243 269 315 311 311 
24 24 16 8 12 12 16 16 26 36 28 18 30 32 32 30 30 40 52 36 38 36 50 34 40 38 46 48 36 58 52 50 40 50 54 48 40 58 52 62 44 48 60 65 52 67 69 62 56 56 62 56 52 65 38 139 342 348 223 109 235 261 291 271 287 313 334 380 354 255 255 263 239 225 261 259 271 289 295 277 
16 10 6 6 22 18 2 12 2 12 26 32 36 32 22 24 48 26 26 30 32 34 40 46 32 34 30 40 42 22 36 42 46 44 42 36 30 46 44 52 50 58 58 62 46 56 60 50 44 54 30 34 32 48 32 163 336 346 332 189 157 285 307 309 311 322 407 440 423 334 231 183 201 199 209 235 231 235 283 277 
20 26 6 10 12 14 22 18 32 14 24 30 18 40 26 30 20 48 24 28 36 36 28 36 38 36 38 20 24 38 34 30 28 22 16 32 28 36 50 38 26 40 42 48 48 36 36 32 24 26 38 28 16 28 24 89 263 350 346 330 271 275 338 360 338 352 419 450 423 409 334 173 79 75 161 219 223 217 257 265 
34 34 28 42 18 22 30 42 26 24 24 58 34 28 30 40 50 48 28 40 42 34 42 46 48 46 30 44 54 42 38 46 38 38 44 48 46 28 32 40 48 34 46 46 38 46 42 32 32 34 48 34 32 26 26 42 69 167 305 322 336 356 368 374 382 405 423 431 425 403 389 301 60 0 30 135 201 225 251 239 
28 46 30 44 38 30 20 20 32 28 40 40 28 42 50 52 40 60 50 46 58 40 40 56 38 38 42 50 54 65 60 50 56 42 38 56 34 50 46 54 38 42 36 54 48 44 56 54 52 40 50 30 34 38 38 30 50 32 109 169 263 328 326 346 360 401 419 423 415 391 401 336 127 0 16 73 151 181 235 225 
32 32 40 20 40 30 32 22 32 34 36 44 30 42 36 42 54 50 48 50 52 40 58 62 58 50 50 54 69 60 50 60 46 38 48 46 30 52 56 44 50 54 58 56 54 42 62 56 54 46 50 44 34 48 26 46 44 32 42 46 56 145 221 303 332 401 423 427 409 397 405 332 199 67 36 56 83 139 227 207 
18 30 40 40 26 34 36 44 34 34 46 46 48 50 44 46 46 46 44 44 48 54 60 62 52 56 44 48 58 58 60 44 50 60 58 60 44 62 52 60 48 46 52 58 58 50 65 58 40 56 40 46 50 42 30 38 44 52 54 48 54 83 91 145 173 293 348 380 409 340 301 281 153 69 30 40 42 56 95 157 
32 42 26 18 38 48 18 34 42 44 56 65 44 46 54 50 58 42 52 54 52 65 73 50 58 67 58 62 60 69 60 60 54 58 44 73 56 65 56 48 54 52 58 50 62 56 60 75 60 52 56 65 62 54 50 62 67 62 52 67 56 79 89 103 113 151 177 207 203 173 151 127 79 34 40 48 46 10 71 77 
26 42 14 40 22 46 22 28 36 52 50 50 54 48 65 44 60 56 52 48 48 58 52 62 54 65 56 44 56 58 56 50 65 58 62 58 56 52 54 50 62 71 58 48 54 52 69 60 46 52 46 60 56 58 48 60 75 85 60 81 65 97 95 107 113 117 115 137 115 87 85 69 46 36 42 54 36 28 65 87 
22 34 20 30 40 46 32 36 42 36 36 56 50 52 52 65 62 56 54 54 60 46 65 54 62 50 71 60 62 65 60 54 58 58 65 56 62 67 77 60 67 67 52 73 60 67 65 71 62 65 54 71 48 60 56 56 91 83 81 75 77 69 81 105 109 97 113 95 97 83 85 67 54 48 60 58 54 24 58 62 
28 44 42 48 40 46 52 40 44 46 46 60 52 56 52 69 67 71 65 54 60 69 67 69 79 69 67 77 75 89 60 58 67 75 67 52 58 60 73 81 56 75 77 81 67 73 65 73 69 65 79 60 62 62 69 77 99 111 105 95 56 77 69 97 95 97 107 115 83 79 65 60 58 56 46 62 54 42 77 75 
34 44 54 54 58 46 44 24 36 48 46 54 44 58 65 58 52 79 60 73 48 69 77 75 81 67 58 65 75 83 71 56 62 69 62 67 50 67 71 60 75 79 69 77 83 62 81 69 71 71 60 65 58 69 54 83 93 93 77 89 69 85 81 85 81 73 91 87 85 62 54 46 42 44 73 73 62 34 73 58 
38 42 34 42 32 30 34 28 42 34 48 50 38 71 65 62 50 65 60 60 73 58 58 67 87 58 56 71 69 81 71 62 67 77 62 60 62 54 71 71 65 62 67 62 69 65 67 62 71 56 73 69 54 87 89 85 91 91 89 89 69 71 60 77 67 69 97 67 75 75 67 46 54 50 69 75 65 42 52 69 
40 62 34 42 44 46 32 69 69 48 40 73 65 60 67 58 65 71 67 67 52 60 69 67 67 75 71 71 75 67 89 77 62 60 79 87 58 65 67 60 56 77 69 77 71 65 85 73 58 71 71 69 89 105 87 79 109 103 107 103 62 69 62 89 93 89 91 91 91 79 73 62 50 71 50 83 71 65 71 71 


