P2
80 60
656
83 83 83 91 81 69 73 55 71 91 73 79 85 79 73 79 85 81 93 71 65 81 69 97 85 67 99 79 67 63 79 77 87 87 75 79 75 83 85 83 79 81 83 81 97 91 79 65 85 83 75 91 77 91 79 85 91 93 83 105 125 137 207 259 337 398 444 483 479 504 479 483 460 464 435 294 189 197 241 396 
73 69 71 81 55 61 53 53 51 85 79 87 85 77 75 77 89 85 59 83 75 65 77 79 81 77 89 75 43 65 71 79 85 75 77 85 91 105 99 85 69 85 89 75 87 93 79 65 95 83 89 89 77 73 103 93 69 97 109 139 203 288 384 421 448 450 491 502 487 458 402 396 419 446 460 446 429 417 435 452 
59 77 71 83 91 63 61 55 67 69 59 77 75 67 75 83 85 81 77 85 79 79 65 79 87 81 87 83 71 73 75 79 71 91 91 83 95 79 87 93 85 91 93 93 95 99 89 99 87 99 91 99 101 91 89 95 109 123 131 272 369 386 406 462 473 468 495 469 376 276 201 193 191 249 367 483 524 531 514 481 
81 75 79 79 65 61 57 89 75 61 63 81 75 69 69 91 93 73 75 67 93 71 67 75 93 91 95 83 93 89 93 91 79 95 91 83 99 89 87 97 85 101 115 83 111 95 93 91 99 109 95 103 109 109 103 103 115 141 249 378 392 373 392 415 433 425 452 415 388 345 290 268 233 247 284 413 528 551 518 502 
71 79 65 67 69 59 63 67 67 75 75 83 79 81 91 79 81 93 91 73 67 97 67 79 87 91 79 95 91 89 89 87 85 109 83 103 105 85 105 87 81 97 99 83 87 101 87 95 89 95 103 115 117 119 115 119 121 155 328 431 433 407 398 417 419 433 435 417 409 429 425 404 400 400 421 458 520 530 522 510 
83 73 75 79 81 71 73 57 65 77 73 91 75 71 87 77 85 101 71 77 93 93 79 77 107 99 105 97 93 91 93 87 101 101 101 83 107 103 97 105 87 97 103 87 105 101 95 115 113 133 165 183 153 141 145 133 145 195 392 427 450 446 438 423 427 433 433 427 429 437 450 446 448 446 452 450 506 543 526 516 
89 75 85 83 65 79 77 69 73 77 81 99 85 89 81 95 77 97 83 87 85 91 91 79 91 87 101 93 89 97 79 89 101 93 97 101 101 107 99 97 97 101 99 103 113 111 111 117 143 249 314 347 328 298 249 189 179 274 339 359 435 438 431 409 440 427 435 423 440 413 440 460 446 473 442 417 473 531 522 502 
81 85 83 65 79 93 71 77 69 83 73 69 89 97 87 97 83 85 95 89 91 89 75 85 81 85 97 99 89 87 91 97 101 117 105 85 117 99 111 99 97 107 115 109 119 119 103 131 255 442 541 555 568 558 516 367 341 479 466 425 415 438 466 446 423 415 413 413 427 411 425 468 452 460 446 404 440 454 497 493 
69 61 67 73 67 89 63 59 77 89 75 87 91 71 85 101 85 81 77 87 79 77 77 81 89 89 85 79 87 89 77 87 91 111 93 91 105 113 97 95 97 107 99 107 107 131 111 155 347 583 614 617 600 574 577 579 549 583 612 608 500 425 429 427 419 413 406 415 433 419 386 429 423 427 421 388 400 407 444 475 
77 79 91 75 61 83 71 77 81 91 83 81 101 89 99 87 83 81 101 77 95 85 95 89 87 89 87 83 95 87 85 99 99 99 99 105 103 83 91 97 95 91 121 99 109 115 107 191 396 625 616 627 600 574 556 587 593 585 612 623 535 413 378 373 407 407 413 431 435 409 380 380 376 423 382 353 378 371 402 456 
73 55 91 93 87 77 71 65 101 61 67 93 65 71 85 91 89 67 97 79 75 87 83 105 83 73 91 93 87 79 99 97 87 85 97 93 109 97 93 101 101 101 99 99 103 123 111 179 386 621 627 623 589 564 475 518 583 558 581 606 516 435 400 421 423 407 409 421 437 413 367 378 384 406 361 337 355 361 386 421 
81 77 89 73 75 91 71 73 71 83 81 81 81 79 87 89 73 83 77 61 95 89 79 79 83 91 81 75 83 77 87 89 97 103 87 103 117 101 97 91 99 93 95 109 103 123 109 161 316 574 598 656 612 598 545 583 579 553 583 526 427 417 427 427 417 396 406 425 438 407 386 394 409 456 394 328 367 375 384 404 
67 81 83 57 81 81 57 71 75 63 67 77 77 75 85 73 79 87 69 67 75 85 83 85 91 83 93 77 79 89 89 101 97 91 89 91 111 101 107 93 91 103 99 113 107 113 107 109 201 394 526 577 570 591 589 537 495 526 456 376 392 394 394 406 413 425 419 431 423 404 388 404 448 468 427 384 398 378 413 417 
73 77 81 69 83 83 77 49 61 69 89 89 79 79 83 73 71 81 83 77 69 85 75 79 79 75 77 73 73 85 87 97 87 91 87 87 105 101 103 85 95 113 103 107 101 119 103 105 131 161 257 322 308 363 355 257 266 375 345 357 376 369 384 413 419 419 407 411 400 392 409 444 489 499 440 413 411 394 421 429 
85 77 73 73 79 73 79 51 71 69 71 71 71 65 67 77 83 87 73 69 67 99 85 69 75 83 73 91 75 87 83 91 77 95 95 97 137 205 127 109 99 105 103 91 101 101 105 105 105 117 127 127 129 149 161 173 300 438 435 417 415 394 406 419 427 413 402 402 396 396 421 440 491 493 450 407 421 398 429 438 
101 77 71 69 75 61 57 63 79 77 71 67 93 71 73 79 79 79 71 71 79 75 77 79 73 83 75 65 69 73 75 87 81 95 101 107 175 359 227 115 105 107 97 97 99 97 95 97 91 103 109 113 101 115 151 215 415 473 493 411 400 406 423 431 444 419 407 411 394 392 388 435 485 485 427 407 423 419 444 469 
79 59 75 51 85 67 65 51 75 63 65 85 79 67 75 73 83 75 65 65 79 75 63 71 81 51 77 71 59 61 57 87 91 95 111 251 417 495 378 145 137 111 109 101 107 117 111 103 97 103 107 121 125 173 235 429 514 500 468 359 300 378 429 440 435 407 390 404 398 380 386 390 437 473 411 413 437 438 479 500 
65 51 55 51 61 63 49 63 67 61 59 71 83 69 79 75 73 85 81 69 69 69 59 77 81 73 83 77 69 77 75 83 85 105 159 427 518 545 487 215 153 157 143 117 107 131 125 117 131 121 125 201 310 452 533 560 564 551 533 462 386 415 438 433 396 353 322 324 331 337 341 355 373 390 384 394 460 483 499 502 
71 87 73 75 63 61 61 61 65 57 73 67 63 75 85 71 81 67 77 65 61 67 65 77 75 85 85 71 75 89 81 93 97 109 169 464 518 537 495 392 324 290 266 255 284 310 300 286 274 249 302 473 526 539 537 553 551 555 533 512 390 318 270 253 239 215 213 199 187 191 195 219 229 233 251 337 477 502 518 483 
85 67 65 59 75 51 65 61 67 67 71 81 69 59 69 81 71 77 81 63 89 81 69 87 81 79 73 85 81 89 83 95 97 105 151 386 485 510 495 528 531 543 545 539 541 543 533 524 531 524 518 512 499 531 531 514 506 450 359 259 187 171 183 185 209 181 187 171 159 143 137 113 111 131 153 239 460 510 514 500 
93 85 57 77 85 79 53 79 71 71 83 75 73 81 77 77 75 75 83 77 79 91 93 81 93 87 83 89 85 93 93 101 99 101 125 155 280 384 440 481 522 537 545 539 551 549 537 526 535 531 520 502 479 471 429 373 290 191 151 131 141 137 169 165 173 163 179 155 155 131 117 121 109 95 117 195 440 506 508 504 
75 69 77 75 77 69 73 63 81 77 71 83 81 91 79 89 79 81 91 81 81 91 75 77 83 97 87 89 83 93 101 101 95 95 95 105 127 135 159 185 229 276 329 371 394 438 448 466 468 477 425 331 259 203 169 147 143 129 115 113 137 135 155 175 183 161 167 139 139 131 121 107 95 101 129 177 398 508 512 502 
59 71 73 69 65 63 67 67 71 71 71 77 81 71 65 81 85 89 73 69 73 85 85 87 79 91 85 83 87 79 93 99 93 105 95 101 115 97 95 103 109 113 119 129 137 155 159 163 173 177 163 127 109 133 135 127 121 121 99 123 129 135 155 165 183 183 157 149 133 133 101 103 81 79 105 151 396 504 481 495 
83 69 81 75 79 77 67 73 77 81 83 75 91 93 75 85 85 95 75 81 87 83 89 95 83 99 85 83 89 85 81 99 105 101 99 95 107 111 105 115 93 129 115 107 125 123 113 113 119 119 121 125 117 123 119 119 129 127 135 141 145 163 185 247 247 211 181 139 129 125 107 99 89 87 95 141 380 491 475 468 
85 81 93 89 75 81 83 67 81 87 73 85 71 81 77 77 99 79 81 85 91 103 87 85 97 99 99 83 79 77 79 105 117 115 115 101 117 85 89 93 101 107 109 103 109 123 117 103 111 109 119 119 121 127 123 117 131 133 143 157 177 259 373 458 464 429 318 187 145 131 113 111 87 87 99 129 392 489 446 458 
79 67 69 87 87 89 69 59 87 73 85 77 85 81 85 73 95 91 79 91 89 99 91 91 95 91 85 89 83 91 83 103 95 105 95 91 101 89 111 109 101 99 105 107 109 119 107 97 117 119 109 123 119 131 147 137 145 143 145 201 328 421 468 481 489 481 431 257 173 223 211 211 187 179 207 187 406 479 446 446 
73 71 75 83 61 69 73 57 85 75 81 83 99 89 87 91 91 83 95 73 79 89 79 91 93 81 91 77 85 87 93 97 77 93 93 97 101 97 101 109 97 107 115 109 115 121 135 119 127 135 135 131 185 257 247 213 207 213 266 375 407 471 483 506 497 473 417 282 211 298 314 310 274 280 290 302 429 483 446 437 
67 77 71 83 77 69 67 75 73 79 83 83 83 91 79 83 83 93 85 83 69 77 75 79 73 83 89 91 81 81 71 87 83 83 101 87 105 105 115 111 103 107 107 117 115 125 155 233 282 270 241 304 371 390 376 312 349 375 413 438 479 491 510 508 497 481 419 249 221 320 339 353 310 298 316 316 398 473 431 423 
69 73 75 75 73 61 65 69 73 75 91 99 81 83 85 85 83 79 81 77 83 83 77 83 93 85 71 87 81 77 89 97 81 83 87 95 103 99 91 113 115 111 99 119 113 119 113 143 207 268 355 402 415 421 425 407 411 440 433 456 452 456 477 487 497 487 433 341 294 357 339 337 320 314 339 339 369 444 433 417 
75 55 97 67 81 83 63 71 77 93 75 75 87 73 77 79 75 71 87 75 87 83 83 73 83 87 73 83 73 75 85 89 73 87 93 99 101 99 97 113 101 97 101 107 115 117 113 113 127 157 237 425 421 396 396 409 425 435 417 429 407 382 425 460 491 460 458 440 400 378 361 363 335 347 375 359 361 363 407 407 
83 59 73 87 75 73 53 57 71 81 81 75 75 79 81 77 75 73 95 77 81 77 75 81 85 79 77 71 69 83 77 69 81 89 93 85 95 93 95 101 109 107 115 103 109 107 117 185 288 331 335 298 310 339 382 375 353 249 237 359 386 363 396 400 435 411 427 407 398 369 367 386 406 402 417 394 382 333 333 365 
69 53 63 85 83 77 69 67 67 63 67 69 81 65 67 73 73 83 83 75 89 75 73 79 81 69 69 65 81 67 83 71 83 101 81 91 91 95 95 105 101 109 105 113 109 111 119 191 203 181 159 147 131 157 209 199 173 171 233 376 378 347 365 365 404 396 411 394 384 357 371 411 411 406 411 407 380 341 335 349 
75 75 83 85 89 77 67 71 65 67 77 73 75 67 71 73 93 73 73 71 83 79 73 79 87 87 85 81 79 89 73 77 79 97 97 85 105 105 107 113 113 115 109 115 113 117 117 111 117 121 145 171 151 151 183 167 149 159 245 335 349 318 320 316 367 380 415 390 375 353 386 392 400 376 404 406 373 343 349 326 
83 91 85 81 61 91 71 73 69 89 85 71 83 83 81 85 75 85 83 77 81 89 89 79 91 85 89 87 97 87 79 97 91 93 95 79 91 109 107 113 111 109 119 117 111 125 115 111 113 211 355 388 400 421 466 402 229 227 365 396 355 329 328 312 341 353 353 341 343 345 376 380 382 375 384 386 373 369 341 326 
81 95 69 91 69 73 61 73 87 87 91 85 85 93 79 83 91 95 95 79 77 79 75 87 91 85 91 91 89 71 85 85 95 81 89 91 103 91 111 113 109 123 109 119 123 119 111 111 153 328 497 510 524 549 543 549 526 469 510 497 388 367 343 308 324 314 302 306 302 329 355 361 384 373 388 367 337 349 337 322 
73 67 85 79 81 67 93 61 81 79 85 81 93 83 81 79 93 99 95 77 83 91 93 85 95 83 83 79 83 87 95 97 89 91 99 103 103 105 99 115 115 113 115 119 111 119 113 107 217 427 491 504 524 562 535 566 566 572 558 537 471 392 357 324 310 278 274 276 312 365 400 355 361 361 363 328 341 337 308 304 
63 65 75 81 83 95 85 73 85 81 59 75 87 71 89 101 79 93 83 91 87 97 83 93 91 91 91 91 97 83 89 89 85 95 89 87 107 107 111 111 115 107 125 115 117 115 105 123 263 454 489 524 547 522 497 452 500 510 562 535 487 390 345 302 276 263 259 265 304 411 460 371 359 349 343 324 333 312 308 304 
73 63 71 85 87 83 69 65 71 75 83 77 81 77 79 85 81 93 83 99 89 83 89 87 101 93 95 93 91 93 93 97 89 95 89 99 111 99 105 109 105 101 109 115 119 101 113 113 197 375 423 500 516 491 413 367 431 464 512 504 456 376 345 296 304 270 272 268 296 406 462 398 351 345 329 329 310 308 286 298 
85 87 97 81 77 85 83 77 73 77 77 87 95 101 111 101 89 93 87 97 97 91 89 89 103 109 81 101 105 97 97 105 103 95 101 97 105 119 105 109 99 113 109 113 103 127 109 117 155 286 369 437 531 531 493 456 460 442 510 502 442 376 345 298 290 266 286 251 278 398 454 382 361 337 320 326 308 310 286 280 
77 81 85 97 65 61 77 67 57 91 85 83 85 85 87 103 89 81 93 91 93 77 81 87 95 97 81 85 87 93 79 93 103 101 95 89 101 103 99 109 107 107 97 101 97 107 97 89 107 169 286 345 421 473 477 483 433 343 365 407 404 367 349 296 274 274 284 239 241 365 406 357 335 296 304 316 333 312 290 294 
73 71 77 71 71 81 63 73 83 69 87 79 91 91 83 93 89 85 83 97 91 77 87 89 87 87 87 85 95 81 85 87 87 111 83 79 87 99 99 89 87 95 93 109 93 101 85 79 85 113 123 139 137 193 225 223 179 155 211 306 343 349 328 286 290 286 286 247 255 355 367 324 302 270 288 296 369 316 280 280 
59 67 59 79 79 69 51 89 71 69 79 79 81 75 95 99 83 87 77 75 83 77 69 77 89 81 85 91 79 81 79 89 79 99 73 85 91 93 91 89 93 87 95 97 77 91 81 87 85 83 87 87 87 107 103 103 111 111 167 290 328 310 292 270 300 310 294 257 290 343 357 320 278 259 270 300 333 302 292 298 
69 63 67 81 81 67 67 63 71 73 77 89 81 79 83 91 89 89 87 77 87 73 83 93 93 93 99 79 75 69 79 87 95 107 91 87 97 85 93 91 77 87 91 99 79 77 79 75 71 75 75 75 79 69 85 93 79 97 139 296 375 324 284 245 290 312 302 320 335 335 341 316 266 253 278 302 328 304 308 298 
65 67 67 75 61 87 71 41 69 61 63 75 75 77 71 69 67 79 83 91 71 69 79 73 79 87 81 87 67 75 71 85 79 93 89 95 93 75 83 77 89 99 87 73 87 71 75 79 79 81 77 71 67 63 73 53 77 67 103 265 376 335 304 263 249 278 290 296 318 320 328 304 261 233 249 288 341 310 290 294 
51 65 57 65 59 63 75 71 55 73 77 71 81 79 81 67 89 83 85 87 85 73 85 89 81 87 77 71 73 73 69 73 77 85 79 85 77 87 71 69 75 81 87 89 73 85 81 77 67 71 71 61 51 59 79 61 51 57 63 189 349 351 308 255 274 302 302 314 310 308 314 304 263 235 231 286 351 312 310 300 
49 51 47 63 59 53 51 59 65 53 71 69 67 63 71 77 69 85 73 75 71 63 61 67 83 67 69 73 67 61 77 71 63 71 75 65 79 83 79 77 73 73 75 73 65 65 53 57 71 69 57 61 47 51 43 43 33 29 37 85 231 298 302 266 286 298 300 304 312 312 308 328 316 265 233 276 310 314 298 300 
31 31 49 47 41 41 41 41 45 51 63 47 75 43 69 61 61 63 65 59 67 71 57 55 65 71 65 65 57 77 55 73 53 69 65 71 79 83 79 83 77 67 71 65 61 59 57 55 69 53 55 57 39 39 43 37 45 27 19 31 77 203 306 306 298 302 286 304 320 349 339 343 335 337 274 261 286 308 290 286 
33 43 45 39 39 43 33 39 35 41 43 45 59 65 53 51 47 43 55 57 49 53 63 57 67 59 57 63 45 55 53 71 53 67 61 69 59 71 59 73 65 59 67 61 57 63 59 43 45 47 39 47 29 39 25 35 51 27 17 17 41 39 135 231 276 288 274 278 316 376 357 367 359 375 345 257 270 280 286 268 
47 45 61 61 45 51 37 51 55 49 47 49 47 49 59 45 49 53 39 47 49 55 39 55 51 49 55 49 35 53 51 45 49 45 53 41 57 53 57 41 37 43 45 41 39 59 53 35 33 35 27 21 15 15 17 21 19 9 2 0 4 17 35 33 93 149 201 229 280 359 390 398 411 419 398 251 243 259 245 243 
43 55 55 65 51 61 45 41 49 49 41 65 73 69 55 63 73 69 67 51 67 71 61 69 57 65 59 57 67 65 53 63 47 65 63 65 75 67 57 59 61 45 53 55 57 59 39 37 41 41 29 27 17 15 23 23 33 13 6 11 25 11 29 45 69 67 63 85 139 266 363 402 423 429 371 201 147 219 237 211 
61 59 65 67 57 37 49 67 61 63 65 59 67 51 77 55 57 63 69 71 75 71 45 69 73 75 73 75 61 67 75 63 65 79 59 57 65 57 55 67 51 73 63 57 57 69 47 39 47 37 41 41 39 23 33 29 31 25 35 27 31 31 45 53 71 69 61 67 81 109 181 292 355 351 296 151 97 143 189 169 
63 51 59 53 59 63 49 65 57 69 47 65 57 69 77 65 63 77 69 65 75 77 69 75 73 83 71 85 71 73 61 75 71 73 65 69 75 67 63 61 67 65 69 69 61 77 55 47 51 53 43 49 35 39 41 49 45 43 21 37 37 41 57 73 101 79 77 89 97 105 133 157 193 185 167 115 99 79 103 143 
67 53 63 77 69 79 63 67 41 69 63 75 67 63 71 87 75 75 67 67 77 87 75 71 71 81 81 79 73 67 63 87 79 77 81 71 77 65 77 69 81 71 75 65 71 79 57 55 57 49 57 51 53 55 51 49 55 47 37 49 57 59 87 95 111 109 99 95 85 107 115 131 143 137 125 103 89 83 83 117 
75 67 71 77 69 83 65 67 75 71 71 83 77 81 75 83 87 81 91 89 87 83 77 91 93 87 91 83 75 65 75 79 73 75 87 67 85 81 75 73 85 79 65 79 69 67 57 59 61 63 65 51 47 59 55 65 73 67 51 65 69 81 113 111 127 121 107 99 107 101 119 107 133 107 115 107 101 91 87 85 
89 75 59 67 71 77 63 63 85 87 67 85 85 69 79 79 81 89 77 85 87 89 59 85 93 79 85 81 77 93 79 93 75 87 97 77 79 79 81 69 75 81 73 65 75 69 79 55 67 83 63 59 55 67 55 61 73 69 51 75 87 95 107 123 123 123 113 105 97 91 91 105 109 101 117 117 97 101 93 91 
107 81 65 73 75 79 65 69 79 83 89 87 75 79 89 75 93 89 101 93 99 83 83 91 93 87 93 89 83 97 75 85 91 91 93 85 107 79 87 83 71 81 75 79 77 79 71 67 73 73 83 67 43 77 75 53 79 79 61 81 97 77 99 115 123 117 119 105 111 105 93 113 119 129 111 97 115 103 93 99 
99 103 75 69 89 89 63 63 67 99 75 87 105 87 89 91 105 93 97 97 87 89 81 89 103 85 89 79 103 81 95 83 93 89 85 79 103 87 89 87 71 95 91 83 83 85 75 63 81 73 83 79 65 75 61 97 87 93 71 85 87 87 115 97 131 119 105 117 89 81 91 91 111 91 95 107 115 91 85 89 
89 77 87 77 75 85 71 75 65 99 89 95 93 77 99 95 89 85 89 85 89 99 95 91 93 105 99 91 89 99 85 87 87 103 99 87 87 95 97 83 75 95 69 81 79 93 83 61 79 101 79 91 71 79 83 75 81 93 75 91 101 85 95 111 125 121 121 95 79 91 95 87 89 77 107 109 103 95 85 75 
95 93 91 77 89 83 77 61 79 79 81 87 103 89 97 95 81 95 83 77 87 93 81 83 107 99 85 107 77 79 83 93 97 101 87 89 107 81 81 89 85 95 97 75 79 87 93 71 79 95 87 85 69 87 91 87 91 99 61 77 105 97 109 107 111 107 109 87 81 89 83 85 87 79 99 119 113 115 83 87 
97 101 81 89 85 99 59 83 93 89 83 97 89 91 83 103 93 91 93 91 99 99 99 111 109 95 97 101 83 87 91 99 99 95 101 105 105 101 83 97 79 89 93 89 83 87 93 101 91 111 93 87 85 115 111 99 89 105 81 97 99 95 95 105 121 111 109 93 79 75 91 91 87 89 97 115 119 123 97 99 


