P2
80 60
569
133 151 145 161 141 135 159 161 151 149 149 147 149 135 153 135 149 147 137 113 129 113 131 117 105 115 113 109 105 103 111 103 103 111 125 95 101 113 97 101 97 101 99 109 111 129 131 127 127 131 131 123 109 105 113 103 103 97 113 103 121 109 123 137 143 121 123 115 121 133 137 113 119 119 105 111 109 107 103 93 
141 133 121 137 141 133 133 143 141 143 157 147 139 133 125 137 141 141 121 123 143 105 109 111 97 97 89 113 109 113 91 109 99 105 121 103 113 111 99 103 99 93 107 103 107 115 121 113 129 125 129 107 105 105 123 117 107 115 117 109 111 123 119 127 115 129 127 121 113 137 131 115 103 119 97 93 107 103 87 95 
141 129 145 131 165 135 127 139 153 153 137 141 141 129 135 131 131 127 119 131 127 117 117 111 117 99 99 105 109 91 95 101 115 113 133 107 111 115 119 121 111 99 113 119 139 133 129 135 135 153 135 117 117 109 115 113 121 131 107 119 125 109 127 117 131 133 125 123 129 155 125 135 115 111 109 107 111 107 91 79 
145 121 129 151 143 139 155 157 135 151 137 161 155 123 137 135 127 117 119 131 123 129 115 119 119 123 123 131 129 115 127 131 125 123 137 103 129 123 119 131 121 119 119 131 141 141 137 137 145 147 133 107 131 109 109 113 129 123 109 121 125 115 125 141 135 139 137 125 145 133 151 131 121 119 107 107 113 113 97 83 
133 135 133 141 139 147 149 157 137 145 145 143 143 149 143 141 143 141 131 125 123 111 107 129 133 123 111 131 131 141 127 147 125 135 149 111 121 135 135 133 131 137 141 149 141 147 149 155 151 153 137 141 129 137 121 141 121 113 123 137 125 117 123 153 131 139 133 127 135 143 151 129 139 127 109 109 123 113 103 93 
137 127 137 145 149 149 151 143 153 147 141 163 139 129 139 145 141 129 131 131 125 115 117 119 131 143 127 145 133 145 129 131 129 143 149 143 137 159 151 165 169 165 179 183 205 199 181 177 167 171 147 147 143 137 131 129 139 117 127 135 127 125 131 143 137 137 147 141 133 145 157 149 143 129 121 125 127 121 105 87 
117 123 161 135 147 149 145 143 139 163 149 157 159 129 145 143 151 143 131 135 141 141 137 121 131 137 129 137 137 137 131 151 171 159 185 159 181 213 251 304 332 356 393 424 449 453 399 340 273 229 213 163 165 153 147 143 133 135 119 133 127 137 145 139 143 141 141 139 159 139 153 153 131 137 131 141 129 117 109 97 
131 131 131 149 143 145 141 167 155 151 147 151 151 147 141 163 137 133 147 145 141 129 135 139 131 135 123 141 141 141 155 173 223 275 265 213 235 245 273 436 457 471 473 474 474 482 473 443 411 332 275 259 261 259 249 229 185 173 157 153 153 143 145 145 153 143 129 139 147 145 157 143 149 119 125 145 139 115 121 103 
135 129 133 141 145 167 153 153 165 157 167 157 157 155 153 145 147 149 139 143 143 129 137 143 133 143 137 143 139 165 199 265 302 271 271 207 217 239 265 377 455 459 467 434 451 455 442 422 391 259 241 255 277 287 293 312 308 295 247 221 197 169 157 169 169 149 145 139 137 169 159 143 147 137 125 137 137 131 117 121 
149 135 131 149 145 145 153 145 139 163 173 171 163 145 147 155 151 147 145 151 157 135 137 143 133 143 139 143 145 205 308 318 263 179 151 42 97 193 241 340 371 354 308 269 297 316 344 352 267 159 183 209 259 251 271 301 297 295 275 245 215 209 197 193 175 179 173 153 161 161 165 163 153 153 125 151 127 133 127 115 
133 129 155 155 147 151 157 159 151 153 145 167 135 143 157 157 147 139 129 147 135 143 139 141 153 139 131 145 157 275 350 326 297 245 243 171 187 191 215 187 191 223 237 249 243 225 209 241 207 133 139 195 227 245 229 249 267 259 257 273 243 219 205 193 201 187 169 161 149 151 157 163 167 143 145 147 133 135 121 117 
161 131 145 153 159 145 151 155 157 161 155 167 161 145 151 147 153 141 137 143 139 139 139 157 151 157 137 149 169 304 340 332 344 346 273 179 133 133 133 121 133 183 235 243 259 255 237 201 147 137 153 199 213 221 231 207 239 279 255 285 273 249 251 245 223 217 205 197 181 189 189 193 187 179 179 169 161 143 125 115 
145 141 155 155 159 147 151 153 171 149 155 163 147 163 151 145 149 151 139 139 155 147 155 157 153 149 137 149 189 334 342 364 375 336 235 121 63 95 131 155 173 197 211 219 243 255 231 187 141 169 161 185 205 209 229 233 233 269 275 257 289 271 267 267 251 227 243 237 265 269 255 267 273 299 291 255 199 171 139 127 
143 139 141 165 143 147 149 135 161 151 157 149 149 153 139 131 141 143 153 159 161 171 223 267 187 167 169 203 239 334 350 373 385 314 207 75 40 137 217 221 229 223 231 229 255 257 225 187 171 181 175 207 209 219 231 233 227 237 273 267 269 285 271 269 279 263 255 283 318 312 291 316 336 375 383 377 350 277 221 157 
159 153 145 145 161 149 155 145 155 155 163 159 145 135 133 143 141 141 155 193 221 291 418 443 403 342 362 391 332 324 364 352 302 239 155 38 49 165 227 235 235 225 225 227 249 255 225 187 203 205 201 229 221 225 249 257 223 233 239 273 267 263 269 287 285 285 267 297 322 328 314 314 316 360 371 383 369 360 326 287 
143 143 155 155 149 157 151 143 147 169 163 147 143 143 147 143 141 173 203 295 383 486 536 513 509 474 490 517 346 304 373 332 255 207 131 59 53 173 229 245 233 237 197 211 237 263 231 177 135 113 205 233 231 225 255 251 233 229 251 257 263 267 255 275 289 295 295 326 360 342 318 310 324 350 352 362 352 362 364 328 
147 135 145 151 155 147 163 147 157 171 149 151 163 155 155 155 161 185 291 365 451 544 550 488 515 478 461 527 399 283 356 332 249 213 125 61 63 189 249 261 245 229 207 203 229 239 225 179 101 133 215 223 233 233 271 259 231 235 265 277 261 267 271 265 257 271 273 316 324 320 297 289 318 334 336 350 334 332 346 338 
151 147 151 133 155 143 165 139 165 169 155 153 161 157 163 155 165 221 342 434 548 567 536 418 438 502 449 509 418 360 379 342 259 197 161 69 69 201 293 281 249 243 223 231 245 257 215 229 171 149 171 233 225 237 259 267 239 251 261 263 277 279 277 283 271 259 257 247 243 247 233 223 219 217 245 251 237 245 265 269 
143 155 157 157 159 151 163 151 171 163 163 159 161 155 163 163 169 215 324 432 509 560 538 482 461 521 447 488 420 403 412 360 326 243 219 117 137 233 273 269 269 251 265 253 275 259 241 257 227 185 49 113 211 217 265 255 253 269 273 283 287 302 293 293 289 269 302 263 241 211 211 209 201 187 187 189 193 189 175 165 
147 159 155 147 153 157 165 161 169 163 171 167 149 147 157 167 165 197 269 381 436 486 507 521 517 474 377 373 387 389 389 354 352 297 299 201 193 225 263 247 255 241 257 269 275 277 257 255 249 193 87 49 191 221 249 249 257 263 279 287 291 299 306 285 293 302 334 338 293 225 209 203 193 183 181 169 179 177 161 163 
149 163 139 169 159 157 147 173 159 153 163 171 155 161 155 157 163 177 223 269 297 304 362 405 334 259 185 201 301 369 362 367 375 348 364 265 227 239 225 223 221 247 253 257 255 273 251 245 261 203 155 109 189 205 233 249 251 253 281 273 301 306 318 302 291 312 356 348 330 255 205 199 173 173 165 169 173 167 163 157 
149 151 163 147 161 167 161 155 159 161 145 163 155 149 159 167 153 161 177 183 185 183 183 171 177 177 169 191 233 346 350 328 354 336 350 273 239 247 239 221 223 239 237 235 263 261 251 257 271 201 171 183 213 207 211 227 233 243 259 277 302 295 314 304 295 302 338 354 342 291 201 179 177 165 167 169 165 161 151 139 
143 153 137 163 145 141 161 155 153 167 163 163 159 153 155 151 167 161 177 159 157 167 155 163 175 173 165 177 237 332 330 283 267 263 314 279 283 269 259 243 245 241 231 253 271 255 267 259 265 241 213 211 245 231 213 185 193 195 221 257 285 310 304 304 293 312 338 350 364 271 213 189 195 173 157 163 161 169 149 141 
141 139 141 137 157 153 143 145 155 155 157 143 159 159 167 157 149 153 159 159 173 163 159 167 161 169 155 181 217 342 320 237 139 111 195 223 237 285 310 267 235 241 261 289 279 281 271 259 281 271 304 289 277 259 189 171 183 195 203 243 287 310 316 312 291 283 332 330 318 245 199 191 185 171 157 179 159 149 147 153 
145 143 149 157 151 145 161 161 157 177 161 171 155 155 149 147 165 149 163 159 161 161 165 165 163 175 171 171 199 304 342 239 6 0 161 219 257 365 453 418 397 375 364 381 360 299 261 273 354 373 350 302 316 261 225 189 173 185 183 219 287 297 310 301 271 281 289 275 223 205 183 181 189 161 167 171 179 163 157 135 
139 145 157 157 159 169 165 155 159 175 167 163 157 155 163 141 153 157 141 167 165 157 169 167 161 155 155 175 185 223 297 346 251 275 297 221 231 432 467 471 496 457 455 434 401 379 360 381 387 371 326 299 314 257 213 175 175 183 173 179 211 201 221 217 233 211 199 195 187 201 191 199 191 167 173 175 167 159 149 123 
141 137 155 151 145 145 169 155 143 151 159 163 149 147 149 141 143 155 147 155 157 155 149 155 167 169 149 155 159 183 203 302 350 316 322 253 261 449 474 463 476 443 443 430 409 397 414 401 393 377 324 302 304 227 179 163 161 151 169 153 171 167 175 183 187 191 179 187 189 201 189 181 179 171 163 159 161 157 143 137 
133 161 147 151 137 139 153 163 141 153 167 173 143 159 139 153 151 135 145 147 149 155 131 147 151 151 137 163 153 165 163 205 245 293 310 281 302 411 362 373 407 457 455 420 405 377 350 322 328 324 312 273 229 171 167 165 139 143 143 155 145 151 161 167 173 173 183 181 181 209 195 179 191 169 145 145 155 147 143 121 
135 145 143 145 157 155 149 151 135 149 171 153 137 147 137 145 151 145 139 141 135 141 133 141 149 151 133 153 149 155 159 179 185 201 247 229 255 241 193 203 191 215 255 301 269 245 225 205 221 241 235 203 207 167 169 151 137 149 161 151 159 147 163 181 171 181 189 195 185 195 193 183 179 159 151 151 141 163 125 121 
137 145 143 143 161 143 145 165 149 165 147 155 147 143 133 143 145 143 137 137 151 145 145 129 147 147 147 153 133 155 163 157 161 185 207 195 197 189 189 169 165 139 177 169 187 201 211 193 209 211 205 187 183 181 167 169 151 149 159 145 161 171 173 185 197 203 215 209 213 193 193 193 173 169 147 161 155 137 129 117 
143 145 135 143 151 143 145 161 133 155 143 157 145 147 157 147 143 147 143 159 149 151 149 151 155 147 159 157 157 161 167 175 169 185 189 163 163 183 189 167 171 161 173 165 169 187 185 195 195 201 197 181 197 173 161 161 153 149 157 143 155 161 179 203 219 223 203 233 209 191 187 171 169 161 147 143 149 135 127 123 
147 147 143 151 155 149 159 169 141 155 151 147 153 145 153 157 149 147 147 161 153 157 141 167 161 149 159 159 169 183 175 171 187 201 203 177 175 195 193 181 165 157 153 151 169 167 187 205 205 193 189 187 183 185 181 175 165 153 141 139 157 151 175 197 221 227 221 225 219 211 211 187 177 167 137 149 155 133 137 119 
141 135 149 143 155 153 145 147 149 155 157 153 153 159 159 149 145 151 149 145 159 163 155 159 163 161 161 163 175 175 175 185 177 191 213 169 181 187 175 175 175 183 165 159 161 175 181 179 191 189 189 169 181 177 173 157 153 143 137 151 151 155 181 209 223 223 213 211 219 213 183 187 175 171 141 163 141 155 131 135 
145 161 143 153 145 171 153 171 169 155 161 153 165 159 161 151 165 159 161 149 153 157 161 155 177 161 173 193 257 271 269 225 225 209 223 171 171 189 173 173 177 181 185 161 165 179 173 179 191 195 195 185 185 183 179 173 161 157 157 141 161 159 185 213 223 229 211 225 219 223 203 193 187 161 155 159 153 143 147 129 
135 145 139 159 161 155 157 159 161 159 159 161 145 157 165 151 139 177 157 157 157 159 155 167 177 187 205 340 393 403 405 399 358 306 281 211 205 187 179 167 171 171 183 187 173 181 179 187 183 189 181 181 181 187 179 185 177 161 179 195 203 189 195 213 207 205 199 205 235 211 219 201 205 177 153 157 159 153 143 157 
123 159 151 151 155 155 151 161 155 161 171 155 153 173 163 165 177 169 153 163 165 171 153 171 179 199 267 379 383 411 436 424 407 379 416 358 261 185 175 177 151 171 187 199 201 183 185 191 197 195 199 211 205 217 211 219 197 189 217 233 225 221 221 211 193 179 183 209 217 219 229 235 253 255 239 249 235 203 191 177 
141 135 127 151 143 159 155 163 157 153 161 165 155 159 179 161 171 169 161 161 175 153 169 173 181 203 306 371 369 391 426 461 445 443 486 426 381 255 191 179 185 195 215 233 231 235 231 225 231 227 231 249 237 231 211 213 189 229 227 235 233 245 225 211 201 185 187 217 225 259 279 324 358 367 362 356 344 324 302 279 
143 147 141 153 143 149 159 171 153 167 163 171 143 159 161 175 185 185 171 171 175 171 169 175 189 201 318 373 369 369 407 440 447 461 490 442 428 364 293 241 243 257 263 263 261 261 255 219 235 249 255 253 249 245 241 235 241 249 255 267 245 247 231 211 197 177 193 219 211 245 285 326 356 381 389 387 371 342 334 302 
141 143 149 141 145 151 167 167 159 153 153 171 157 163 189 213 261 277 275 265 279 263 183 189 203 269 352 399 389 373 346 391 432 451 480 459 453 391 365 330 301 283 273 259 277 267 241 227 269 277 273 263 259 273 273 271 261 271 277 233 187 225 217 221 203 193 181 181 173 205 277 304 344 377 401 383 373 371 360 330 
153 159 149 141 147 151 145 145 167 159 165 173 151 179 219 312 412 457 457 482 504 457 379 271 231 342 397 391 381 365 322 320 371 432 478 451 467 381 379 365 360 304 271 259 281 265 257 225 257 275 275 269 279 285 285 277 285 269 279 181 105 221 211 213 207 181 163 157 187 213 259 279 346 362 373 393 362 358 342 322 
141 167 155 151 151 167 153 153 157 167 163 161 163 195 265 395 476 482 509 540 548 492 486 459 409 463 434 395 371 360 320 297 356 412 455 449 469 393 375 362 344 322 297 265 273 251 239 217 249 269 283 285 273 283 297 281 285 271 263 225 191 219 215 219 215 201 171 195 185 231 255 273 299 330 340 346 306 285 243 231 
149 159 159 135 147 151 137 151 159 163 151 163 155 181 306 428 474 488 525 569 567 474 379 418 445 449 428 383 362 350 301 304 318 312 379 453 455 405 381 350 344 330 310 271 273 253 255 221 211 247 271 269 281 277 279 279 267 257 241 243 233 227 237 221 211 193 203 217 225 233 237 215 201 189 165 171 171 159 159 165 
149 155 143 139 147 157 145 143 155 155 161 173 147 187 291 409 442 463 536 562 566 471 342 412 428 443 420 356 336 322 297 285 281 253 287 405 447 418 385 350 350 344 322 279 279 255 267 239 199 225 265 275 271 279 281 265 249 255 257 257 249 235 235 233 219 195 191 193 199 191 197 175 137 141 127 135 141 135 151 145 
145 149 139 149 143 147 145 149 151 143 161 165 151 163 243 381 434 459 507 552 554 471 387 405 414 432 416 352 310 301 281 261 243 243 235 332 436 422 379 356 346 332 320 295 279 275 285 239 193 213 249 263 269 279 283 277 259 269 267 261 255 233 241 243 219 203 167 171 165 177 177 163 133 145 131 131 143 137 149 143 
145 143 139 161 153 147 157 147 157 149 167 161 161 173 203 330 434 442 469 519 517 476 451 445 438 451 385 358 312 275 245 261 239 229 207 231 407 426 381 371 352 322 320 283 285 299 279 253 207 221 251 255 271 271 283 261 267 265 267 253 243 221 203 179 189 159 159 155 153 159 155 139 135 135 151 141 161 161 147 153 
139 157 155 161 157 159 151 167 153 137 159 153 137 155 175 215 287 332 342 407 457 420 373 302 340 412 377 358 326 279 261 253 231 215 161 179 381 387 387 371 352 322 293 273 273 265 267 263 217 245 289 267 261 291 275 263 239 231 229 195 197 167 159 169 165 157 159 167 175 163 149 155 157 141 141 157 157 175 161 145 
125 133 143 139 163 151 161 143 161 159 163 155 157 159 167 183 195 179 181 199 225 197 189 175 217 364 362 356 336 318 271 259 231 189 127 135 346 387 403 389 364 314 283 253 253 247 247 253 219 259 297 279 283 277 231 247 241 233 215 177 171 185 203 195 189 175 183 167 169 163 153 163 163 159 141 163 177 157 163 147 
131 139 145 155 179 157 167 159 163 167 169 161 165 163 157 159 167 159 155 171 167 159 157 167 189 299 389 364 334 301 275 245 247 203 139 121 320 373 418 393 375 324 283 261 259 241 255 231 215 257 257 249 247 211 221 235 237 233 237 241 241 251 247 261 275 269 239 217 201 183 173 179 157 157 157 167 159 161 159 179 
123 145 149 165 153 155 153 149 155 157 171 161 153 143 147 157 153 149 151 159 155 157 153 155 177 271 389 373 308 271 255 247 275 225 187 167 304 389 436 403 367 322 301 263 263 249 245 221 211 227 205 211 199 213 225 237 231 253 247 259 265 261 257 273 265 259 267 259 235 223 205 203 217 207 215 225 189 189 171 181 
141 139 133 145 153 141 149 151 145 159 157 167 143 167 153 143 161 153 145 145 149 143 127 149 161 261 365 350 322 277 245 257 277 259 227 195 306 418 447 407 364 324 304 279 263 253 265 241 223 217 207 207 213 215 225 227 243 253 245 247 243 251 237 233 239 259 263 227 203 205 215 247 277 302 314 330 312 283 235 221 
133 137 147 153 153 145 163 153 151 145 153 159 143 145 147 145 149 145 153 145 151 145 145 147 159 247 344 360 310 297 314 304 310 318 324 239 308 445 440 397 342 342 301 285 251 267 287 229 235 235 239 215 233 221 237 243 251 241 253 245 243 235 223 229 239 255 239 189 163 167 201 237 281 326 340 369 371 358 340 328 
139 147 149 139 167 149 159 147 147 159 151 159 133 141 149 149 137 147 143 151 151 131 133 147 147 203 287 334 340 340 342 338 346 356 397 364 418 461 426 403 369 365 316 283 251 281 259 217 229 235 251 247 229 235 237 245 249 237 237 233 235 243 237 241 249 243 209 169 169 161 215 259 316 344 379 385 389 387 371 346 
137 147 141 137 147 167 161 151 153 169 157 163 151 147 157 153 143 147 155 147 141 141 139 129 141 159 229 330 352 365 364 377 387 399 471 443 449 463 422 395 356 383 293 257 239 249 235 227 241 223 239 241 243 243 259 261 251 245 251 271 253 241 243 251 237 221 199 187 175 181 239 291 358 369 373 383 389 387 381 342 
133 143 139 153 153 139 147 155 145 147 141 139 151 155 143 143 147 133 135 147 133 135 133 143 139 141 151 197 271 342 340 375 387 414 467 434 453 451 401 371 365 377 299 173 177 177 203 207 233 229 243 231 239 239 253 261 265 259 275 267 253 255 255 215 215 173 165 173 161 195 255 293 354 358 360 385 385 354 344 340 
135 145 137 135 135 157 131 143 137 143 151 155 151 145 143 135 143 137 123 127 133 141 129 141 121 145 125 135 155 199 223 271 318 371 461 424 416 451 375 334 365 302 183 139 151 155 161 165 203 225 223 203 193 201 231 245 231 239 227 223 219 219 217 195 179 141 131 135 141 149 169 177 231 269 259 273 267 257 233 233 
135 141 139 143 141 135 139 143 129 129 141 155 143 139 143 137 133 139 129 127 151 113 127 119 129 113 129 131 123 141 149 167 177 229 310 310 314 306 261 225 201 167 133 123 131 151 149 143 153 173 165 153 133 131 147 171 165 175 177 173 171 167 163 163 129 111 115 129 137 145 151 135 149 183 169 187 161 167 171 175 
129 137 129 129 151 117 137 151 119 135 141 145 141 129 131 143 125 123 115 129 113 127 119 123 129 117 105 115 113 119 131 125 127 129 165 125 135 139 141 125 125 125 125 125 119 139 137 129 143 141 147 125 127 117 123 123 117 119 131 117 121 119 135 133 129 111 113 127 117 119 131 119 121 137 147 155 153 141 143 149 
107 109 129 121 127 121 119 121 121 137 143 125 127 119 139 133 129 121 123 127 113 109 123 101 113 111 97 101 111 119 113 119 109 117 141 97 91 103 91 99 95 99 107 115 125 111 125 129 127 133 109 107 105 109 101 107 103 117 93 101 101 93 97 115 119 97 113 117 111 123 103 97 99 121 143 131 153 151 129 137 
121 119 103 103 107 121 137 113 117 123 141 123 123 131 123 111 121 113 107 125 119 111 99 111 107 115 93 121 105 97 115 101 103 111 123 93 97 99 103 105 93 93 111 105 117 121 119 119 115 115 109 105 101 105 105 95 93 95 97 87 99 101 101 103 103 99 113 93 105 117 115 99 103 135 143 135 141 137 131 123 
133 133 109 121 117 139 139 139 127 119 117 105 111 117 119 127 127 105 99 111 107 107 105 99 109 105 85 105 95 101 115 121 119 125 143 103 135 131 121 135 123 125 129 147 151 151 157 149 145 141 131 119 123 111 113 113 101 101 107 95 91 111 105 111 107 89 105 105 97 91 99 83 101 105 113 129 123 131 121 115 


