P2
80 60
660
125 113 109 91 89 85 91 77 85 99 85 87 91 99 73 81 89 85 95 83 71 85 77 93 85 67 85 77 67 71 75 81 73 81 73 77 63 67 83 83 71 75 87 99 97 87 81 83 91 81 75 89 77 83 83 81 95 99 81 103 143 157 211 249 282 320 369 400 446 431 446 472 485 454 278 131 123 161 223 435 
115 95 99 87 89 81 89 79 71 101 93 89 89 81 83 79 95 95 71 77 69 79 85 81 73 73 77 73 53 79 77 65 81 75 77 81 71 87 79 79 73 73 91 95 93 79 85 79 103 93 89 79 89 87 103 89 85 113 107 143 227 330 353 343 377 404 493 512 518 510 497 506 532 510 466 247 175 229 367 479 
99 91 95 105 113 85 95 77 79 87 75 85 85 85 83 85 79 85 85 95 79 73 75 89 81 85 95 77 83 83 77 79 73 77 89 91 85 69 87 83 81 83 97 107 101 81 93 109 101 105 103 93 105 105 97 101 115 137 135 259 365 400 390 367 396 446 547 574 566 545 506 506 528 537 537 472 308 379 479 503 
109 93 97 109 89 75 81 101 77 79 85 93 81 77 75 79 87 91 83 81 77 79 81 93 97 85 95 91 93 83 91 77 73 79 89 83 89 83 77 79 79 91 119 99 129 83 101 101 105 109 101 101 109 111 109 103 115 133 185 332 365 382 394 394 413 460 541 585 585 524 444 437 481 537 570 572 549 516 497 532 
111 93 99 97 83 77 85 85 83 75 95 89 87 79 91 85 83 87 97 87 63 87 77 89 95 91 75 95 91 95 97 85 83 99 81 91 95 77 79 83 79 83 111 99 95 95 99 107 101 97 99 113 111 119 119 113 119 147 219 371 398 377 388 406 452 506 536 580 578 501 479 485 481 516 555 585 623 602 545 543 
113 87 107 95 97 85 93 77 89 91 87 97 85 81 89 81 95 93 81 89 89 91 77 81 101 97 103 93 111 93 107 85 97 93 101 75 87 85 79 87 87 89 103 85 103 95 105 119 105 105 111 123 115 115 117 119 141 175 269 408 412 425 462 458 450 460 489 530 528 505 444 491 508 497 516 551 591 612 559 566 
113 95 109 95 85 87 93 87 93 87 79 101 97 85 87 93 85 97 97 93 87 97 97 91 89 87 97 93 95 87 93 89 91 85 87 97 83 91 83 99 95 109 105 101 113 99 105 113 97 107 119 119 113 127 135 139 141 215 294 335 335 347 439 425 441 464 479 495 497 456 433 493 481 506 454 522 572 574 583 564 
111 89 111 97 105 101 99 105 91 97 95 81 97 97 87 101 83 85 107 101 105 89 89 91 83 91 93 93 99 99 103 91 103 103 97 81 113 87 95 95 103 99 119 107 125 107 111 125 103 119 127 133 157 167 159 147 207 363 468 524 474 415 433 450 464 479 458 472 458 450 446 472 481 493 433 464 541 557 578 591 
105 87 89 95 85 97 89 85 87 91 87 93 93 79 93 91 95 89 77 93 85 85 87 81 83 91 81 79 85 95 89 95 91 97 87 87 91 87 71 79 93 89 105 119 121 119 95 115 129 149 193 215 278 357 296 290 371 530 614 637 637 553 441 462 470 444 448 450 429 452 468 439 444 441 404 410 541 578 570 583 
101 99 111 91 85 91 99 97 91 95 91 83 97 87 101 85 81 83 103 85 89 89 99 73 79 87 89 93 101 95 87 87 99 103 105 93 91 75 75 87 83 85 113 103 109 99 99 127 161 221 302 381 520 568 553 557 564 595 616 637 643 601 479 435 406 412 441 412 415 446 460 400 404 413 365 359 450 572 557 537 
115 79 103 109 87 93 85 85 101 85 83 91 77 85 81 91 97 77 95 87 83 79 89 101 77 63 103 83 91 91 101 87 81 87 85 91 93 79 83 85 95 89 93 113 109 105 115 133 215 349 425 526 606 612 597 587 610 616 555 595 622 539 460 415 388 402 382 381 435 466 444 379 388 394 337 328 402 458 539 532 
105 89 111 93 87 99 97 93 89 95 89 89 77 79 87 89 89 85 77 81 85 79 87 83 85 93 85 75 93 91 95 95 91 89 87 89 101 83 91 85 89 83 97 113 119 105 109 139 247 392 555 625 599 625 608 597 572 589 528 528 559 491 485 466 423 384 375 392 448 470 433 388 365 404 339 312 373 410 489 497 
91 93 103 87 87 91 75 93 89 87 81 93 79 75 87 83 85 95 77 85 81 79 91 91 93 77 93 75 89 95 91 87 93 73 89 81 93 81 85 81 99 91 111 123 121 107 111 119 251 381 604 633 616 639 618 585 595 570 516 458 379 464 472 413 379 379 381 402 454 460 404 392 369 390 365 339 390 412 464 505 
107 101 107 97 83 95 95 77 79 91 99 91 91 79 87 75 87 97 83 87 77 83 77 83 73 75 81 83 77 87 101 97 85 83 79 79 99 75 81 73 93 97 99 117 117 105 103 123 247 349 551 660 625 641 627 602 583 585 450 353 345 390 394 390 381 382 413 406 427 415 429 415 404 394 382 369 398 419 454 499 
109 87 107 95 89 85 97 63 77 77 75 79 77 65 65 85 89 85 85 75 77 77 83 67 69 81 69 85 79 89 83 87 75 89 93 93 83 81 77 91 101 99 101 115 115 89 93 115 189 306 446 629 629 608 604 566 530 464 433 412 369 371 375 386 392 402 431 410 404 396 437 400 425 394 382 379 421 427 454 503 
115 103 91 89 83 95 85 83 93 89 73 71 89 77 77 75 83 81 73 69 81 71 85 73 63 71 63 69 77 83 83 81 83 85 79 67 65 79 89 97 93 89 97 105 101 89 105 113 127 221 312 510 551 456 351 274 292 433 439 452 433 375 433 439 433 427 444 408 415 431 402 382 412 394 357 373 435 460 477 506 
107 77 105 71 91 77 81 77 83 69 71 83 81 59 69 81 83 83 59 71 73 73 61 75 65 55 71 77 69 65 69 85 87 75 75 89 75 81 89 103 111 103 113 103 111 105 111 115 117 139 193 257 227 181 193 239 398 516 512 487 487 377 404 454 454 446 427 404 427 402 373 363 382 410 365 394 456 491 516 520 
83 67 81 65 81 79 69 79 67 73 67 73 81 61 85 67 65 81 81 79 71 61 61 77 79 63 81 71 69 77 81 77 79 91 87 81 83 83 101 125 111 119 129 111 109 113 115 135 151 137 133 137 149 227 384 497 559 562 574 551 541 503 443 417 375 330 294 271 272 267 286 326 322 365 339 396 487 508 524 524 
81 93 89 91 81 71 79 83 91 65 67 81 85 77 83 75 81 63 81 69 61 53 65 69 67 81 85 71 87 91 83 89 91 83 87 103 105 137 201 253 272 229 217 201 195 173 203 255 308 326 345 328 349 491 522 534 537 557 547 541 539 419 288 233 219 229 215 213 191 183 165 185 181 201 207 328 483 512 520 536 
99 81 89 79 83 69 73 83 89 83 77 81 79 57 67 93 81 79 75 71 85 77 83 75 75 73 79 79 87 95 83 91 85 95 91 115 239 373 493 547 530 506 522 514 508 499 512 536 545 541 539 539 512 526 516 512 514 506 464 384 298 217 191 187 201 187 189 183 163 149 139 123 121 137 135 241 468 510 520 532 
99 93 89 93 97 77 69 93 83 81 91 85 81 87 75 81 79 79 77 89 91 95 95 97 85 77 77 93 91 101 93 101 95 93 107 109 259 367 508 537 536 536 532 536 537 536 549 557 551 543 551 545 516 514 489 435 381 320 225 163 169 175 175 175 177 171 175 155 157 131 123 125 121 103 115 201 452 520 522 522 
93 89 87 79 81 79 83 83 87 87 81 87 93 91 79 91 79 91 93 83 85 79 85 79 81 77 77 85 89 91 101 97 89 73 91 93 109 165 386 526 518 528 398 247 259 300 347 400 431 454 452 425 382 306 231 173 155 135 123 129 145 157 155 177 163 155 155 139 143 125 135 113 111 107 123 173 427 534 505 526 
103 97 95 85 87 75 81 89 85 85 89 85 79 75 63 79 75 91 77 81 75 85 93 89 79 71 81 79 91 85 91 97 87 95 91 91 111 89 155 312 423 353 155 129 117 117 135 137 143 151 155 145 137 127 139 139 121 129 111 127 141 165 151 155 165 155 143 137 131 115 107 107 99 101 103 155 421 510 475 505 
111 91 93 89 83 85 87 81 93 89 89 77 91 93 83 81 87 93 77 89 91 85 97 85 75 93 83 83 95 83 91 89 89 87 91 87 95 85 101 115 129 123 115 109 115 111 121 121 127 115 121 123 121 121 133 117 127 121 129 137 131 157 149 165 155 143 157 141 137 117 109 111 93 91 85 153 392 485 464 487 
99 101 107 99 83 91 107 87 95 97 85 83 77 81 77 83 85 89 73 87 83 91 85 83 85 83 101 75 85 87 81 89 93 91 95 93 97 67 83 81 97 97 109 105 99 103 115 131 115 103 117 111 123 127 127 119 121 135 125 145 137 167 157 159 159 161 163 139 163 125 125 123 83 93 85 137 384 446 425 454 
85 91 89 81 103 85 85 87 91 105 95 77 83 85 87 67 103 81 83 93 85 81 93 85 71 85 75 87 95 89 77 85 93 85 87 83 95 79 93 97 101 91 105 101 97 111 111 121 129 113 121 111 107 119 137 129 135 149 135 133 159 173 167 169 167 167 169 143 191 223 219 213 195 179 193 185 386 408 400 421 
97 91 87 93 65 83 95 83 99 83 91 77 93 75 79 93 93 75 87 75 83 85 81 85 75 77 87 71 85 83 105 81 83 89 95 97 87 81 93 91 95 89 107 107 121 101 111 119 119 115 125 119 131 129 143 165 217 290 318 334 324 306 217 175 181 173 163 155 223 280 304 294 271 278 269 280 404 413 396 413 
107 87 93 91 89 71 83 97 83 85 85 73 77 87 85 75 79 85 89 85 83 77 67 85 75 77 83 85 85 81 85 95 89 77 83 91 91 87 113 93 103 99 101 113 113 97 125 119 119 109 127 133 175 237 312 357 423 439 444 456 493 464 326 229 199 195 181 171 229 304 324 326 306 292 304 310 412 454 396 415 
101 95 91 85 83 91 83 91 87 91 103 91 83 79 87 89 85 75 73 83 77 85 83 85 81 73 69 81 77 67 79 83 75 83 79 81 91 77 89 93 117 99 111 113 107 103 107 125 119 129 155 265 410 475 479 470 446 462 441 468 483 468 413 433 359 274 241 215 249 316 326 326 314 326 332 322 373 452 402 404 
97 69 103 79 83 77 85 85 95 85 87 81 91 67 73 77 73 77 83 83 71 77 83 73 77 77 67 73 75 65 83 93 69 67 77 83 87 81 83 95 101 81 107 99 117 105 127 127 135 215 373 456 477 493 501 489 468 483 468 462 437 390 452 446 388 355 332 324 322 322 316 332 337 339 345 351 365 382 394 398 
111 81 91 87 77 71 73 93 83 83 85 75 67 73 75 81 67 71 87 75 71 73 67 81 77 75 67 63 65 79 71 75 71 75 81 75 77 75 79 83 101 97 117 99 121 87 113 137 261 419 481 460 475 501 483 464 479 485 441 413 381 408 382 347 343 353 328 324 324 322 330 335 373 388 386 375 382 339 300 337 
107 81 79 87 91 79 87 81 71 63 77 77 77 71 73 75 59 77 73 67 79 65 85 67 59 63 69 59 77 75 81 61 77 75 79 77 69 71 83 97 95 99 109 105 117 105 121 251 381 452 460 454 371 375 330 255 288 381 369 361 359 347 324 355 365 371 339 320 318 310 320 353 377 406 392 400 390 332 316 328 
95 93 93 89 99 75 77 91 73 73 71 69 83 75 69 69 81 67 69 75 69 77 81 73 71 67 77 75 85 81 71 69 81 79 83 71 81 79 95 99 109 105 101 109 113 113 173 363 443 472 477 351 219 173 177 171 169 259 341 345 359 320 326 335 343 357 326 324 335 306 339 365 386 388 402 388 369 335 304 322 
99 97 97 85 77 85 85 87 89 95 89 65 75 87 75 81 79 83 89 81 71 83 87 67 75 81 75 71 89 81 79 81 85 79 83 77 77 85 89 91 101 109 105 123 115 121 271 452 466 470 487 402 343 382 444 390 245 300 384 357 347 324 310 308 322 359 312 347 337 316 355 367 353 377 373 371 345 339 314 310 
97 93 105 99 89 79 79 79 93 89 103 85 83 93 77 81 91 81 97 87 83 75 73 75 85 81 83 95 91 71 101 79 91 81 85 89 85 77 89 105 107 115 107 125 121 135 369 460 470 472 466 460 437 493 512 539 547 536 514 412 347 312 272 288 284 284 276 332 304 322 363 347 361 382 375 332 328 332 294 288 
103 73 93 91 81 67 105 83 93 97 95 85 87 91 81 79 95 95 91 91 81 81 83 87 93 77 79 77 81 85 93 97 89 87 95 85 81 87 85 103 105 97 119 127 121 127 302 413 444 443 466 474 472 501 526 537 576 566 561 518 417 361 304 278 274 272 274 292 300 318 355 357 359 359 339 298 335 322 276 280 
99 97 89 95 95 91 97 89 89 79 77 81 83 71 79 101 77 93 79 85 93 89 87 91 81 87 83 81 93 75 91 81 87 83 85 75 85 91 97 99 105 95 115 111 113 111 121 233 373 392 477 489 497 516 497 489 464 472 464 505 427 351 308 284 257 261 280 278 278 304 351 367 337 343 316 296 320 294 255 280 
105 85 83 95 73 81 87 83 91 91 83 81 79 79 75 89 73 87 91 93 79 81 87 83 95 85 87 91 79 91 97 83 79 83 81 77 85 87 79 85 93 97 99 111 117 103 119 145 241 272 410 452 505 530 495 429 406 417 406 475 373 324 288 269 280 282 265 269 271 288 320 343 339 332 294 286 308 284 243 259 
105 93 89 91 83 83 85 93 75 85 79 85 81 85 105 91 81 87 75 91 93 85 89 83 81 95 71 91 81 79 85 89 81 83 87 77 87 85 77 83 87 85 105 105 95 101 103 121 177 251 361 400 464 555 524 470 435 468 439 452 365 339 274 267 272 269 247 237 241 259 284 312 318 306 284 294 290 296 245 265 
109 97 93 95 73 85 89 93 77 103 75 71 77 77 87 89 77 87 83 91 91 71 81 77 89 83 83 83 87 85 83 87 83 79 89 79 91 81 81 95 87 95 99 95 107 89 91 107 127 173 284 369 404 495 506 483 475 423 390 375 335 312 272 257 243 233 207 225 223 247 274 282 290 272 282 300 316 296 237 257 
105 91 101 81 81 91 71 77 93 83 75 79 99 89 79 91 81 71 77 93 89 77 85 79 75 81 83 79 93 95 91 79 73 83 87 69 73 71 89 89 79 85 91 111 93 99 99 97 111 115 141 161 183 227 255 237 195 263 335 308 263 253 219 239 247 231 217 239 217 251 243 265 265 255 265 284 335 298 237 261 
89 83 93 87 85 73 69 95 93 85 81 79 81 81 89 93 79 87 75 87 85 71 79 71 83 75 77 89 73 85 85 73 77 83 71 79 75 71 83 79 89 83 99 87 73 85 81 105 99 91 99 95 101 119 119 95 143 269 280 251 243 223 213 237 276 259 207 193 207 229 231 253 247 251 265 392 379 296 247 263 
97 75 95 83 87 81 87 83 79 83 85 93 75 73 81 91 87 87 87 83 85 71 93 77 79 85 79 71 65 73 77 75 93 93 83 73 77 65 73 79 79 75 75 83 83 75 77 91 83 81 89 81 87 83 97 87 143 306 322 272 269 239 233 245 255 255 183 153 191 211 227 231 241 253 288 489 429 310 272 267 
97 79 87 81 61 83 75 73 71 63 69 73 79 81 69 77 69 81 79 93 69 75 85 83 79 81 81 71 67 67 73 73 71 77 85 79 81 67 71 73 65 85 83 83 81 73 81 93 93 71 89 77 83 73 69 71 177 306 300 292 288 245 187 227 241 239 209 169 169 177 239 231 237 239 294 537 450 312 271 271 
69 69 75 75 69 73 87 81 71 75 79 71 85 75 73 63 81 67 73 89 77 71 81 75 63 81 75 63 67 71 65 63 63 73 67 69 65 69 71 65 65 67 79 83 79 73 75 79 79 73 81 59 69 57 81 85 265 359 343 314 312 247 167 127 157 189 187 171 177 169 211 223 243 249 288 520 446 310 265 265 
67 71 63 65 57 61 61 69 73 59 79 63 75 63 69 73 69 83 59 77 69 57 73 79 71 61 73 67 65 57 77 69 53 59 59 55 71 55 65 65 61 67 73 77 61 53 63 77 87 61 89 75 51 67 71 193 369 421 415 365 276 187 169 145 97 73 121 165 191 171 189 201 221 225 276 454 377 290 257 255 
69 59 67 61 53 55 59 59 71 53 71 55 75 43 73 51 59 67 61 69 61 71 67 63 65 61 67 55 57 67 63 69 43 57 65 59 63 57 69 75 71 57 71 73 71 65 63 69 65 61 81 67 73 157 271 394 433 448 423 410 337 179 85 71 53 59 75 145 187 171 179 185 171 197 255 392 330 282 253 251 
65 69 69 61 55 51 49 65 55 51 57 55 51 63 47 51 49 53 59 69 51 57 65 63 57 59 47 65 47 57 51 63 57 57 45 55 53 49 57 63 59 65 69 73 65 59 73 73 69 53 57 89 207 365 413 429 460 427 402 379 282 127 55 45 33 33 61 129 137 139 145 177 149 161 235 369 298 263 243 237 
81 59 85 77 55 51 67 59 75 57 61 59 51 59 55 53 55 59 43 51 55 59 45 51 53 55 47 53 35 51 57 47 53 35 51 33 43 45 39 41 35 39 51 59 59 51 51 63 119 115 129 199 355 408 410 421 425 388 284 197 121 55 23 6 8 0 35 57 73 69 95 107 95 101 163 334 261 247 225 231 
93 77 81 77 65 67 71 65 65 67 55 67 75 63 61 57 71 65 77 51 65 71 59 67 55 67 69 63 65 71 67 59 43 63 53 55 57 45 41 45 57 43 53 67 69 57 47 111 302 322 298 304 337 384 415 404 381 183 89 59 51 45 29 29 39 27 25 25 29 23 37 47 33 39 51 147 159 217 225 213 
97 83 77 95 71 53 77 85 79 75 67 63 71 61 65 61 59 77 65 81 77 71 65 75 63 71 75 77 73 83 83 69 73 69 59 51 59 49 49 61 55 63 71 83 77 63 43 167 365 363 363 343 361 377 406 341 205 89 55 51 41 47 41 51 37 47 47 51 51 39 47 49 45 37 35 55 91 149 193 197 
93 81 83 75 87 85 77 81 73 85 75 71 69 79 75 75 67 77 77 79 79 81 79 87 71 73 59 85 81 75 67 65 73 63 59 55 59 49 61 49 69 53 71 75 79 71 65 153 349 392 390 394 388 367 332 229 117 91 45 39 39 53 61 69 51 67 63 81 69 71 77 91 89 91 61 73 91 87 117 163 
97 75 83 95 81 85 97 81 65 87 77 81 77 73 73 83 85 85 83 81 87 85 81 87 67 77 87 71 73 75 83 81 85 75 87 69 61 57 65 57 73 65 69 77 77 79 67 105 233 365 400 375 308 197 153 91 89 67 53 57 63 65 77 75 67 69 71 87 75 71 85 91 77 95 69 67 101 89 83 105 
99 97 83 91 81 89 87 85 85 89 91 81 79 91 85 83 93 87 95 95 93 83 95 91 83 87 83 83 79 77 69 83 75 75 85 69 71 65 65 59 83 71 77 79 87 65 75 93 113 151 213 209 131 105 95 83 95 99 73 93 73 85 79 85 95 81 75 81 87 69 87 79 81 63 77 87 107 103 77 97 
111 93 89 85 103 75 85 91 107 95 65 77 77 77 85 85 81 83 79 95 81 87 69 87 83 75 73 79 91 91 79 81 71 81 95 79 75 71 79 71 73 61 83 67 77 53 75 83 93 109 99 95 83 93 87 77 97 107 89 103 87 97 95 101 97 97 97 91 87 63 73 79 75 73 83 85 113 117 95 89 
115 85 91 93 93 77 83 91 97 91 91 85 89 89 91 83 95 93 97 101 103 85 93 91 85 75 77 75 87 87 93 91 83 65 89 85 85 61 69 77 75 65 87 93 87 67 69 83 83 69 95 85 75 89 97 79 107 117 99 99 99 89 91 105 95 87 103 99 109 83 83 97 77 87 79 89 123 109 79 77 
115 107 105 89 93 73 85 87 91 105 69 91 99 89 81 97 87 95 101 97 95 85 87 85 93 85 85 83 99 93 89 73 97 85 89 75 87 75 83 73 73 89 79 95 87 69 79 83 89 81 93 89 87 83 95 111 109 131 111 107 97 99 101 83 101 107 85 103 91 77 85 81 81 71 89 99 119 103 89 77 
109 95 109 95 99 83 93 93 77 103 97 97 93 81 93 105 95 85 97 85 95 95 87 91 89 97 95 89 77 99 83 89 93 77 93 89 67 77 83 69 85 87 73 85 83 83 85 79 77 99 93 91 75 97 107 115 109 133 95 105 99 93 91 103 107 107 97 101 91 77 85 75 75 89 95 107 121 107 85 81 
109 91 103 97 97 93 89 91 85 87 83 89 105 93 89 107 87 101 89 99 95 85 91 91 95 85 85 97 81 85 87 89 89 95 95 81 77 65 79 89 79 77 105 93 87 71 91 89 87 79 89 93 83 119 115 99 121 121 95 93 105 97 95 119 103 105 101 87 85 83 83 95 85 85 109 109 123 133 91 107 
109 103 93 105 89 99 77 95 103 97 95 107 87 107 77 103 97 95 93 103 111 101 97 99 95 85 83 105 83 95 101 97 95 87 97 91 85 83 71 81 81 93 91 103 93 71 101 107 101 107 109 89 109 127 113 101 111 125 107 101 93 93 93 107 113 101 105 95 99 71 97 107 95 101 101 125 141 135 91 99 


