P2
80 60
597
177 173 181 175 167 161 167 163 175 181 159 169 181 173 177 175 177 169 165 147 141 145 145 153 131 135 153 125 133 129 139 123 123 129 121 125 131 137 131 135 127 133 137 143 127 149 165 181 205 283 358 364 376 354 324 201 145 123 141 133 139 133 135 155 153 145 141 145 151 139 151 133 127 133 125 133 125 145 139 129 
177 155 141 153 171 153 163 165 175 169 181 185 185 173 163 175 173 167 157 153 161 137 133 145 125 121 133 137 127 137 125 129 117 123 113 133 133 129 127 135 125 135 151 147 139 157 201 263 342 417 423 391 364 334 273 191 137 147 143 129 145 149 145 141 131 153 157 137 153 155 153 135 123 143 125 115 117 131 127 103 
171 147 169 141 185 159 151 149 165 175 159 161 169 167 161 169 161 155 151 151 145 145 143 139 145 127 141 131 129 117 133 121 127 129 135 127 147 141 149 151 137 145 167 191 237 291 354 393 409 423 362 320 299 293 209 195 147 157 133 149 149 135 151 135 149 153 153 149 161 147 149 157 135 135 133 117 129 135 137 111 
183 157 153 155 151 159 161 177 159 169 151 189 185 149 161 161 165 151 157 155 145 157 149 149 145 139 145 145 153 145 151 149 135 135 141 127 159 149 155 173 153 191 261 377 419 436 428 405 297 211 203 171 185 159 153 145 155 147 137 147 151 141 147 159 155 165 175 163 169 143 165 159 145 135 123 115 135 157 137 111 
161 159 159 169 171 171 167 175 165 171 167 177 171 171 163 175 167 173 167 157 145 129 139 163 161 143 137 153 153 163 167 165 131 147 149 135 157 159 175 207 293 385 463 488 440 444 430 279 191 197 173 185 173 179 157 155 159 149 149 165 147 145 149 163 153 167 153 161 171 161 175 151 153 151 133 131 129 131 139 131 
171 147 163 155 173 171 169 163 177 171 161 191 171 165 183 169 167 167 171 165 153 149 151 153 161 159 151 157 159 175 163 145 145 157 155 173 181 197 259 389 465 477 488 490 459 399 241 189 191 205 197 183 181 175 173 167 177 157 151 167 155 149 151 155 159 167 183 173 159 155 165 173 165 161 151 141 149 155 141 115 
153 147 189 157 165 173 165 161 169 185 179 183 187 165 171 179 181 179 163 165 155 167 159 155 163 159 161 153 161 167 157 169 169 163 177 219 243 324 411 500 502 471 475 467 344 209 191 191 181 195 215 231 233 225 227 235 237 229 179 177 161 167 179 155 171 177 185 183 181 155 165 185 163 173 171 161 151 161 141 139 
159 149 157 173 161 175 163 185 183 183 171 173 185 187 169 197 159 163 181 177 173 163 173 165 163 159 161 171 165 173 179 189 183 209 229 229 267 376 452 504 473 436 401 291 205 183 209 217 205 225 233 281 293 273 279 303 326 313 287 247 235 213 193 195 197 191 193 197 205 179 189 201 191 165 171 183 159 157 159 139 
169 145 153 175 167 175 177 173 185 189 179 187 193 189 189 183 181 175 159 169 157 155 171 161 153 161 175 171 173 201 253 263 215 201 111 185 265 330 405 401 328 279 227 235 199 225 211 235 233 235 215 253 275 313 299 295 320 313 303 281 259 233 229 229 223 225 233 231 253 263 255 263 273 245 209 203 179 183 167 141 
177 165 161 173 175 177 173 171 159 193 191 189 205 181 187 187 179 177 177 171 175 171 167 173 165 163 173 175 199 299 354 311 217 173 219 197 269 287 283 225 195 227 239 237 257 261 247 241 221 187 161 189 267 241 257 243 275 285 279 263 261 267 257 261 247 259 269 263 295 307 314 330 360 395 330 320 243 225 197 155 
165 151 177 175 165 187 163 173 173 171 169 187 169 169 187 181 179 161 167 171 153 175 169 169 171 159 167 171 257 374 368 342 332 309 241 195 145 127 191 195 227 243 251 265 269 259 251 247 219 179 167 219 247 255 259 245 253 251 259 277 279 275 263 257 269 261 259 283 330 336 326 324 362 372 366 356 352 354 293 239 
193 151 175 163 181 165 169 179 177 179 173 185 181 169 177 177 173 165 163 165 151 161 171 189 155 173 171 207 348 381 387 376 381 324 193 139 95 163 197 209 221 231 253 277 283 267 247 259 193 229 195 239 249 239 255 249 251 279 269 277 285 279 285 281 281 283 279 283 326 356 338 348 370 374 366 362 362 377 377 368 
171 165 175 171 177 165 173 173 185 169 175 183 183 187 177 173 175 165 163 161 169 163 161 167 161 163 173 205 370 405 379 387 407 324 211 107 107 161 243 263 263 265 243 269 265 287 273 237 209 255 209 227 245 255 263 265 261 265 261 271 301 289 287 279 279 277 287 295 313 320 322 346 348 358 350 346 348 360 372 358 
173 159 163 179 159 169 177 153 177 173 179 175 181 187 165 163 169 175 173 187 177 169 173 197 169 159 175 225 358 399 383 393 338 255 155 99 101 199 269 277 263 267 253 271 267 281 279 227 167 175 217 257 257 267 277 281 279 263 261 277 293 305 289 279 271 271 269 259 253 227 227 267 275 281 251 245 253 253 279 261 
187 179 167 165 181 177 177 167 175 185 179 181 175 165 165 177 175 163 173 189 195 215 287 311 225 215 237 311 377 376 407 368 297 243 155 95 103 225 261 275 275 247 251 259 275 253 263 213 175 143 199 249 267 257 279 303 283 281 265 303 305 291 285 279 257 231 215 203 205 203 209 217 201 207 181 187 193 191 169 167 
165 163 173 165 161 187 157 163 167 185 173 167 185 163 171 181 175 179 183 265 295 403 506 512 450 421 450 473 342 344 385 362 279 239 139 113 117 223 271 295 269 263 253 253 265 271 261 229 191 179 133 107 189 245 273 279 279 267 291 313 303 289 279 275 269 241 217 217 223 211 215 215 191 193 185 169 179 183 179 139 
169 149 163 165 161 159 179 159 161 179 163 177 189 187 181 187 197 187 255 332 426 525 564 535 543 488 488 543 372 381 389 362 293 243 189 153 149 229 287 295 295 265 277 275 271 271 267 259 219 199 121 0 133 201 251 245 249 265 271 295 283 291 277 269 273 265 255 245 255 255 225 221 211 201 197 191 181 187 191 147 
165 173 169 151 171 165 175 157 179 185 173 169 189 189 189 185 197 243 368 421 535 568 550 399 521 483 492 535 383 393 432 362 311 320 287 253 215 237 255 269 283 271 281 271 273 271 259 257 249 227 165 59 143 201 241 229 245 255 247 247 271 269 261 283 273 285 287 279 293 334 307 297 279 267 299 293 279 261 261 211 
167 169 169 171 169 169 183 171 175 179 187 183 179 191 187 201 209 273 405 485 581 581 545 395 521 477 504 539 407 440 442 383 358 340 340 303 283 219 225 205 249 259 293 279 295 277 255 273 269 255 185 173 187 193 239 211 223 247 243 239 233 269 251 279 283 279 277 279 313 336 334 350 328 334 342 362 381 379 381 364 
179 181 173 157 179 177 171 175 185 177 185 197 177 179 179 205 209 293 397 477 578 585 529 444 512 527 492 502 424 419 421 370 366 368 336 305 285 237 237 199 227 253 265 281 283 279 269 261 297 247 215 183 237 225 225 217 193 201 223 215 217 231 241 265 273 273 263 275 303 346 340 352 352 350 383 376 401 395 395 376 
173 191 165 185 171 171 161 183 177 177 177 197 177 187 179 197 217 261 362 444 446 486 543 539 512 407 285 285 364 397 383 374 352 336 313 318 285 261 243 229 229 251 255 283 285 293 283 269 316 241 237 195 225 235 199 209 193 179 205 211 217 221 257 267 281 271 295 285 305 362 362 366 364 379 405 395 399 395 387 350 
169 181 189 177 183 181 175 169 179 187 165 189 185 179 183 205 197 205 261 316 320 316 348 374 320 217 197 215 287 393 381 322 299 259 227 255 285 265 267 253 227 245 235 279 271 279 289 291 303 243 247 235 205 163 83 209 225 193 167 203 205 209 249 275 289 275 279 285 287 330 316 338 360 364 381 381 370 364 305 261 
165 171 159 179 165 163 171 167 177 177 175 185 187 181 175 187 187 191 205 217 233 221 217 217 193 193 193 191 271 385 374 318 241 177 117 251 297 326 297 263 231 229 205 247 259 283 271 285 285 269 267 215 197 151 91 143 211 213 187 195 205 231 249 261 277 279 265 277 279 247 227 241 263 281 275 283 251 247 211 209 
165 159 169 159 173 171 161 165 179 173 183 171 181 185 197 195 175 179 179 211 209 199 185 205 177 181 191 197 237 368 358 318 195 61 10 197 273 356 344 285 231 219 195 211 195 223 227 241 261 267 261 221 205 203 215 213 233 205 209 213 215 221 225 237 235 225 251 243 233 229 195 211 195 197 187 187 177 197 193 177 
167 167 179 175 167 163 185 179 175 203 177 195 183 189 179 195 201 177 185 201 191 195 191 195 197 195 211 201 221 328 389 346 265 95 67 187 273 330 342 348 291 229 207 197 199 203 229 239 251 273 267 249 243 233 239 225 209 187 177 183 207 201 215 209 215 219 231 241 225 209 197 211 209 179 191 193 195 201 207 167 
171 161 183 173 171 177 179 171 193 187 181 183 177 193 187 175 191 179 179 193 191 189 201 197 189 187 187 205 213 221 344 385 350 348 303 303 275 289 397 477 473 397 370 275 211 207 223 229 253 261 267 259 249 243 235 201 199 185 171 171 193 191 189 187 191 207 205 213 215 207 205 217 211 197 195 189 173 185 183 159 
167 165 175 173 161 169 177 175 169 167 179 181 181 177 167 175 183 195 179 179 173 169 189 197 201 179 195 187 183 201 233 293 374 364 334 309 301 301 471 485 492 512 504 455 389 295 243 259 251 275 249 241 219 215 197 191 189 169 191 163 179 175 169 191 191 209 201 219 221 211 207 201 203 191 189 173 169 179 175 149 
169 175 173 179 159 167 171 189 173 171 183 179 181 185 167 169 169 171 171 175 167 167 167 183 173 175 179 187 183 195 205 211 205 249 279 289 311 314 450 492 496 494 500 485 475 469 403 299 253 255 229 223 227 199 189 181 169 171 163 177 165 173 175 179 191 201 207 211 211 215 211 199 207 187 177 149 165 171 167 153 
163 161 165 173 175 167 171 173 163 173 183 179 177 179 173 175 183 183 171 167 161 165 161 173 175 175 163 181 177 181 195 197 191 187 183 233 283 283 307 318 411 442 483 496 492 477 475 436 344 283 225 215 209 185 181 173 173 177 169 169 171 171 185 193 195 209 227 225 201 211 213 197 197 179 179 167 157 183 175 159 
165 165 163 167 173 163 165 171 175 185 169 173 177 171 165 171 169 181 169 161 177 179 175 161 179 171 167 181 171 177 193 193 173 197 191 203 221 247 231 201 221 259 399 490 469 467 467 457 454 385 267 225 205 225 199 179 179 177 199 171 181 191 191 201 217 235 241 221 239 195 205 209 189 187 159 175 165 165 161 149 
171 169 163 165 177 161 165 183 165 183 157 177 175 173 179 181 179 185 169 165 163 179 175 177 181 167 183 179 185 193 197 203 189 203 203 199 213 215 217 199 199 193 241 281 340 409 434 463 440 438 401 322 336 287 225 199 189 183 181 165 183 183 201 219 233 245 239 255 233 205 201 193 187 169 157 155 161 163 155 135 
161 177 161 177 175 173 183 191 169 189 169 173 191 177 175 189 175 177 179 175 169 181 175 197 189 167 195 181 199 209 195 209 211 211 205 219 221 225 233 219 185 187 201 215 207 221 277 320 356 399 409 430 411 379 338 336 257 205 175 167 181 179 205 211 237 253 249 249 241 217 227 205 195 185 161 157 169 157 173 151 
163 159 175 167 159 177 159 169 165 183 173 167 183 187 179 173 179 175 191 177 177 185 191 195 181 177 195 193 183 197 197 201 199 223 211 221 251 227 223 203 209 211 203 193 195 191 211 229 243 269 305 376 403 358 352 330 303 219 167 169 165 179 203 219 241 241 251 245 239 223 195 207 199 183 169 165 161 185 165 147 
167 189 167 177 167 191 171 185 179 181 177 175 193 183 187 185 191 181 185 175 173 185 183 191 197 189 197 197 227 255 316 297 322 326 336 383 411 428 401 267 221 207 211 187 181 185 201 215 231 231 227 243 350 358 336 313 283 209 195 175 191 195 203 221 235 243 239 243 243 235 215 215 207 191 173 163 165 171 167 153 
165 167 155 177 175 175 179 169 181 183 177 183 183 183 187 197 175 199 187 169 177 181 185 189 195 201 209 269 340 395 446 444 442 434 463 465 488 469 430 352 245 201 221 219 189 199 209 211 217 219 215 215 239 267 263 261 219 191 207 231 233 223 223 213 213 211 227 239 251 217 223 223 217 199 167 177 175 201 179 169 
157 181 175 173 177 177 177 177 183 185 191 169 183 193 185 193 191 193 181 173 175 183 175 205 205 209 243 338 399 424 442 454 455 459 479 488 486 455 407 356 201 201 221 233 221 199 215 227 241 229 237 247 245 251 231 231 221 231 245 257 255 245 237 225 207 203 207 231 241 221 239 261 275 267 267 265 257 233 227 223 
175 153 145 179 177 189 183 181 177 183 179 191 185 187 189 189 191 197 181 183 191 173 187 203 205 217 299 377 372 395 438 467 459 461 471 479 496 465 401 344 225 225 245 265 255 251 259 263 265 247 263 271 267 259 237 245 217 263 261 263 259 255 235 221 207 217 215 239 245 265 295 348 374 391 377 376 356 360 336 295 
177 163 175 173 157 169 171 177 169 179 181 181 175 199 183 195 191 199 189 185 187 189 191 199 215 209 342 385 381 372 423 442 467 473 477 463 488 421 397 324 269 285 289 318 303 273 283 255 275 275 271 277 271 253 257 255 275 275 291 287 261 249 239 217 211 201 221 231 223 247 299 346 376 395 409 393 385 377 366 322 
165 175 167 171 169 183 173 187 183 183 169 179 185 185 191 227 265 283 261 249 203 207 193 219 217 251 372 399 403 389 364 387 454 477 465 481 473 430 413 377 324 301 287 291 314 279 271 269 301 309 295 285 283 289 291 287 283 303 309 235 165 233 229 221 223 217 211 203 195 221 289 314 358 393 413 405 391 415 401 338 
163 185 173 167 167 179 157 173 189 189 179 179 185 203 243 291 405 457 448 483 444 385 257 213 227 291 395 403 387 372 340 334 389 444 463 450 459 409 407 399 364 324 285 291 297 275 277 259 279 299 289 287 303 297 297 293 313 295 295 219 101 225 227 213 219 219 221 201 217 219 265 301 364 377 395 399 385 393 376 328 
155 187 175 181 167 183 181 175 183 181 175 177 195 215 275 415 514 500 508 564 548 527 428 291 273 391 426 419 403 379 328 314 389 413 434 426 426 411 411 399 366 368 305 293 293 269 269 261 267 287 293 301 293 297 313 299 309 293 273 255 237 243 239 233 229 237 225 235 213 245 255 291 313 336 336 348 311 295 255 233 
169 191 179 155 177 169 165 189 175 195 165 181 191 199 322 469 512 529 570 570 550 560 535 481 457 461 450 405 397 368 324 334 352 395 403 395 419 391 399 376 393 381 314 299 285 265 285 265 239 253 277 287 293 289 303 287 291 285 267 273 261 249 255 239 239 243 241 245 249 241 231 225 211 187 169 191 191 191 203 183 
177 179 165 167 171 183 181 177 187 181 177 195 189 207 344 504 510 545 593 597 527 504 517 516 508 483 452 376 358 350 332 320 352 393 385 358 381 428 407 381 389 379 332 316 299 269 285 277 233 239 277 293 289 299 291 273 275 281 283 287 283 269 265 245 251 233 219 221 221 209 197 191 159 153 153 143 161 167 173 163 
171 171 163 171 155 179 175 177 177 161 181 189 187 193 265 430 494 564 591 570 452 370 413 442 475 452 446 348 360 330 320 342 350 385 334 219 338 438 407 385 374 366 326 322 287 281 297 279 231 235 273 267 281 285 283 279 285 295 283 279 277 261 255 243 221 217 187 199 181 179 183 175 157 159 149 143 161 171 177 159 
163 165 165 173 165 165 169 163 175 179 173 183 199 195 213 340 448 485 568 554 430 415 421 448 469 455 421 348 328 303 311 356 358 350 237 159 352 446 407 389 364 352 320 313 293 299 293 299 247 239 275 269 283 281 297 277 283 275 275 255 245 227 203 177 183 179 187 173 173 165 159 153 153 151 167 155 181 195 181 173 
161 177 173 177 171 185 169 181 175 163 179 181 187 183 209 241 295 336 436 490 473 463 448 442 446 446 413 344 322 287 314 379 370 360 155 161 360 423 419 391 362 350 299 307 279 279 277 295 249 249 311 295 279 311 287 283 265 247 237 197 201 187 181 179 179 185 189 187 199 179 167 165 171 149 167 165 177 195 195 165 
153 163 169 169 179 175 177 173 189 179 179 179 201 185 191 215 211 221 219 303 338 366 314 277 289 407 399 366 342 320 334 405 370 364 147 129 362 432 440 413 354 346 289 291 267 263 263 293 251 275 330 301 305 277 233 257 263 243 237 207 205 225 231 217 219 213 217 191 201 185 177 183 177 173 167 169 179 173 197 165 
167 155 173 171 185 173 185 173 171 183 185 183 199 187 179 195 199 191 195 209 201 193 203 209 239 336 399 374 340 320 348 399 399 364 179 169 332 403 440 415 370 338 307 301 267 259 271 275 245 263 265 259 249 225 221 235 255 243 253 251 259 263 271 265 293 295 283 249 225 203 195 195 177 171 169 187 177 187 173 183 
167 165 181 193 181 175 181 163 179 189 185 177 195 183 187 193 189 179 181 197 185 193 187 201 209 269 399 379 330 320 336 391 417 376 257 199 340 415 457 438 368 330 316 301 287 275 267 273 241 257 223 229 209 223 231 247 253 263 261 279 287 289 285 291 295 283 311 293 279 241 223 227 235 215 229 241 205 221 199 201 
165 161 163 179 171 171 179 177 167 187 183 187 189 191 185 185 197 183 171 171 175 179 163 181 185 237 370 376 354 295 289 376 397 399 326 281 376 413 479 452 403 334 326 314 289 277 305 295 257 255 235 243 229 227 237 237 251 261 261 253 265 289 283 249 253 275 295 267 237 229 231 263 311 328 336 344 340 318 277 247 
157 159 179 175 177 161 179 167 175 171 177 177 177 175 177 173 181 183 193 165 175 169 183 173 173 211 364 362 316 311 326 354 432 401 397 346 352 423 479 475 403 344 316 311 285 279 342 281 281 275 263 251 251 237 255 261 259 257 261 263 271 279 249 255 251 269 275 225 203 183 229 261 309 346 360 379 377 385 368 352 
155 167 169 161 175 165 165 171 179 181 167 179 161 169 179 185 173 171 173 169 167 157 169 173 161 201 297 348 324 338 356 360 379 385 395 395 419 467 488 465 436 354 307 307 271 289 311 257 283 281 279 267 257 257 249 261 261 263 251 253 257 271 245 245 247 265 249 207 205 187 239 283 338 370 395 395 399 415 405 372 
165 165 153 153 161 179 173 175 175 187 175 177 177 179 175 183 175 173 187 167 169 169 179 167 167 167 265 354 354 362 374 381 383 389 403 442 463 485 504 459 423 314 259 249 247 259 269 267 281 265 269 269 279 265 265 267 263 251 263 267 257 255 243 245 229 239 233 229 201 195 265 318 383 393 409 397 405 413 403 370 
163 167 167 179 173 171 177 173 181 177 167 163 177 187 177 177 175 167 175 165 165 167 163 167 165 165 193 261 344 381 377 397 391 397 417 457 483 506 500 454 399 295 207 199 185 193 233 239 265 261 275 257 275 269 275 275 279 273 271 259 261 267 255 205 203 195 197 197 179 201 259 314 372 383 389 399 403 376 374 352 
175 171 163 161 167 161 159 161 169 167 173 167 181 179 183 175 177 173 159 165 163 179 161 169 153 163 167 173 205 255 301 332 342 370 432 454 469 475 481 452 383 261 183 169 165 165 183 199 217 241 247 237 219 225 255 255 259 249 241 237 235 241 231 191 191 167 171 167 157 165 173 203 249 271 277 279 279 283 257 251 
167 161 167 161 171 149 159 173 159 155 161 177 173 175 173 183 163 163 163 151 161 153 159 161 167 143 169 155 155 171 189 209 225 261 311 342 376 374 395 366 287 211 143 145 159 163 177 181 183 183 179 187 175 155 161 185 195 199 199 191 201 193 187 171 153 145 149 163 161 151 173 157 175 187 197 197 193 197 199 179 
157 155 153 149 165 139 143 169 157 165 167 167 165 157 159 175 155 149 155 153 129 155 149 147 153 133 139 135 135 137 165 149 149 173 167 205 193 185 215 187 177 153 141 159 145 155 167 161 181 163 167 161 155 143 137 135 159 149 151 139 145 153 157 147 145 135 137 149 143 127 141 139 153 153 169 155 179 179 179 189 
133 131 149 141 143 145 149 135 143 153 147 145 153 163 173 161 155 157 153 147 131 141 149 129 133 131 135 129 133 145 147 137 121 129 137 125 127 127 129 127 117 121 129 147 141 131 147 167 159 153 137 141 125 133 125 131 131 143 115 125 123 127 119 109 125 135 137 131 123 117 123 115 123 137 171 149 167 173 175 155 
141 143 123 131 127 145 149 135 137 147 149 141 165 157 147 145 149 151 143 139 137 137 121 143 141 135 127 137 127 121 135 123 121 123 125 117 125 121 123 121 125 119 127 135 135 131 149 155 151 153 135 143 131 123 133 113 125 121 117 113 129 135 131 109 117 123 131 113 115 119 127 119 117 141 161 145 151 169 157 135 
147 147 129 145 127 157 151 155 149 143 141 133 149 135 145 163 155 135 135 145 113 125 135 147 135 123 127 123 121 123 145 143 135 139 151 127 163 153 153 167 157 157 163 177 163 169 183 177 181 173 159 155 157 141 141 139 131 131 127 119 131 139 137 131 125 121 125 117 107 99 117 103 123 121 129 151 145 165 171 137 


