P2
80 60
851
91 120 136 120 93 107 107 95 113 91 97 95 109 113 91 93 107 113 105 95 97 97 97 103 87 101 85 95 101 93 107 113 113 130 126 146 168 239 272 358 414 346 203 130 134 109 103 103 111 116 116 109 118 134 229 442 541 594 631 637 606 584 584 578 576 555 555 529 549 570 584 584 529 250 142 140 138 136 144 158 
109 130 99 128 105 101 109 105 87 103 85 89 103 118 103 99 101 109 101 97 99 93 83 105 103 105 99 116 118 132 150 199 252 302 354 428 490 539 561 572 561 541 503 372 239 142 113 99 99 99 93 95 99 111 150 205 382 547 615 600 582 570 570 582 570 565 547 525 529 553 561 572 527 272 144 132 122 134 146 178 
101 120 118 118 116 109 101 113 103 101 97 107 93 113 111 103 107 99 99 107 99 111 95 113 111 111 118 134 191 266 352 362 350 412 488 525 513 545 557 590 621 621 602 580 537 360 187 128 105 91 103 101 109 111 146 154 205 400 568 574 568 553 561 570 572 553 555 547 529 513 527 539 515 300 148 136 140 162 199 231 
107 118 118 134 107 109 128 113 105 95 97 103 101 122 105 93 97 101 101 91 113 116 99 122 118 162 223 298 370 410 402 390 358 402 482 500 513 517 537 572 613 625 639 627 631 600 470 246 144 109 95 99 116 118 134 154 156 227 460 563 580 555 553 566 557 557 549 537 521 511 511 523 502 304 168 146 172 203 262 278 
95 122 134 126 120 111 122 120 99 93 89 97 111 116 95 103 91 113 95 99 109 132 126 201 294 382 414 440 444 438 414 400 362 390 446 490 505 513 533 580 572 613 623 617 637 643 621 535 306 168 142 148 172 195 231 258 193 193 294 511 572 563 565 559 563 549 551 545 531 523 494 490 476 332 213 213 231 274 290 286 
101 116 118 134 116 124 128 101 103 101 99 103 95 116 118 101 85 109 109 103 132 181 280 448 474 474 468 444 442 436 436 406 362 362 436 474 474 531 580 590 566 578 594 604 631 625 623 608 565 432 328 338 346 354 406 416 384 366 354 420 525 541 553 565 561 557 561 531 513 513 492 482 468 370 248 264 306 294 306 306 
107 116 122 116 118 120 103 105 118 95 101 103 113 109 99 97 107 111 107 126 187 348 448 505 515 511 486 470 446 452 444 412 382 366 420 496 537 568 566 537 513 557 559 566 610 604 615 627 621 608 496 408 392 392 426 428 390 432 408 392 418 507 543 563 580 557 563 535 517 517 490 462 436 390 302 308 316 312 302 300 
107 105 99 120 99 113 95 116 101 99 93 105 111 111 89 101 107 116 109 150 336 466 539 572 561 547 515 490 464 452 446 434 396 382 412 496 555 531 529 470 454 482 543 559 604 600 617 629 648 631 627 535 446 418 420 396 354 366 398 382 372 386 498 555 566 555 559 541 511 505 482 458 444 400 334 330 330 302 296 308 
105 89 111 124 101 109 101 105 116 105 97 95 103 124 116 91 103 122 126 266 440 486 521 549 541 533 482 466 448 440 424 422 406 382 388 450 519 509 462 450 452 466 478 488 561 588 612 637 643 648 643 627 543 412 382 370 344 348 364 350 348 334 390 494 547 547 557 541 515 517 496 476 442 402 344 342 332 308 306 306 
101 111 101 132 103 109 113 105 99 109 97 107 107 122 105 97 109 120 166 402 496 486 478 507 541 555 513 480 476 446 424 420 420 410 396 416 476 474 468 454 474 448 486 464 492 537 592 639 652 650 637 639 615 545 406 346 350 350 346 336 324 322 330 368 472 527 563 539 523 517 498 478 456 422 354 338 334 326 294 264 
103 122 124 122 111 107 107 97 109 105 95 103 99 107 113 93 113 132 264 507 539 529 468 503 547 563 551 525 494 448 426 418 398 400 402 412 470 472 448 464 503 482 454 446 460 470 496 541 612 629 641 646 637 625 539 376 356 352 354 344 342 320 310 318 334 416 511 521 509 525 502 492 460 430 348 338 310 288 272 264 
101 113 118 118 116 122 111 97 101 103 99 103 103 111 105 107 113 164 392 561 566 594 539 521 523 531 525 527 517 454 408 384 370 390 426 438 452 482 442 450 498 533 486 452 468 462 482 474 480 557 619 644 641 643 643 578 396 366 366 354 364 332 298 300 266 290 378 464 498 500 478 486 452 432 340 316 288 250 248 264 
101 120 116 103 118 113 120 122 126 103 97 120 109 120 118 109 136 239 492 561 586 572 545 559 535 537 563 557 561 468 396 406 418 414 464 452 450 456 432 442 466 529 531 494 482 458 470 494 472 400 511 608 619 633 648 656 563 472 428 392 376 326 294 294 258 246 284 326 400 458 468 478 464 430 308 292 260 243 256 248 
99 109 111 116 101 120 111 122 109 109 118 122 130 113 113 109 148 336 525 570 586 606 584 574 553 559 555 543 523 496 464 482 442 448 466 440 416 430 436 442 436 490 503 470 460 456 458 488 488 416 370 492 588 610 656 658 625 598 566 484 370 272 286 302 282 250 256 276 306 352 394 438 456 422 274 233 233 237 262 260 
109 113 122 120 113 132 138 122 132 116 111 132 130 124 120 138 176 386 468 568 586 598 582 563 549 561 568 515 519 515 529 500 474 482 468 432 402 424 438 440 438 458 452 436 438 440 462 476 476 422 352 346 470 570 633 658 648 639 633 590 480 302 296 328 306 262 264 266 276 298 304 380 390 392 233 209 219 231 248 239 
103 107 128 128 126 130 142 142 152 164 174 199 197 160 158 229 336 394 386 482 551 566 551 545 529 511 507 496 513 521 523 498 490 490 450 436 412 436 438 428 424 414 410 388 430 442 452 450 452 412 346 316 314 468 590 689 668 652 660 629 600 470 354 332 312 292 270 274 286 276 294 338 334 348 225 207 217 223 237 243 
111 111 126 144 168 217 252 304 346 380 414 470 472 414 368 454 541 490 344 336 430 521 517 523 500 498 474 484 488 494 505 498 492 468 434 424 428 432 418 420 412 408 394 402 426 444 424 430 430 398 336 298 296 306 496 675 670 668 641 625 600 529 402 310 312 290 288 290 282 280 278 312 328 320 203 195 211 215 221 219 
116 120 132 197 266 358 454 525 557 596 594 602 600 594 596 600 610 662 551 388 308 366 452 539 515 503 462 444 458 484 486 480 462 452 440 448 438 418 414 404 430 424 418 406 414 422 410 400 412 376 326 300 298 274 364 617 644 652 639 619 596 521 366 314 282 282 280 270 262 280 280 302 328 312 213 197 207 211 223 215 
103 126 160 306 412 549 613 660 644 672 596 586 631 666 674 687 656 666 679 592 414 280 294 428 527 498 464 452 458 476 466 458 440 446 458 462 438 422 412 422 440 428 422 410 410 408 386 382 358 344 308 314 278 272 288 496 617 627 612 602 590 468 300 282 280 246 252 241 239 254 286 302 300 286 205 185 191 191 195 209 
103 154 195 360 478 613 675 648 602 672 644 625 675 722 734 736 683 596 701 705 658 462 292 366 480 502 472 466 466 482 468 462 454 452 478 446 422 428 438 432 454 434 432 406 414 412 376 358 354 330 304 312 284 272 278 326 521 596 606 584 576 464 310 278 274 235 233 241 250 302 302 304 312 306 217 178 197 193 195 195 
91 172 213 398 545 557 639 612 617 677 705 720 757 706 767 739 724 637 654 734 710 654 476 352 416 478 458 470 476 478 452 438 436 436 426 426 416 428 454 448 464 440 428 410 422 404 366 346 332 316 304 284 262 268 258 266 340 527 584 570 570 474 330 302 274 250 256 274 300 314 312 318 322 310 203 185 193 191 193 176 
107 174 264 342 496 565 635 660 644 728 716 747 736 672 695 670 699 652 612 718 712 681 608 420 294 346 442 442 462 464 460 448 432 450 436 434 426 448 464 466 472 454 452 432 420 390 378 358 342 324 310 286 274 260 260 256 246 332 521 559 521 420 352 312 294 298 340 344 340 340 324 324 324 318 213 197 193 195 199 195 
101 187 250 310 362 505 652 708 708 687 654 660 666 666 708 677 697 623 588 699 693 679 654 547 400 320 328 366 408 442 430 446 458 472 434 432 430 456 482 468 472 458 450 442 430 404 382 370 362 344 322 286 262 254 258 248 235 235 296 505 452 366 322 302 330 364 374 360 358 374 360 348 354 314 209 191 197 193 199 201 
103 170 254 286 302 394 646 728 720 712 668 660 703 674 712 724 685 596 480 531 535 580 580 580 492 328 266 260 272 282 298 358 438 460 424 438 448 462 480 470 476 468 448 434 442 424 394 376 366 340 302 286 264 246 250 262 250 243 274 308 302 280 274 330 374 390 390 382 378 386 376 390 384 330 215 199 193 209 211 203 
116 174 258 326 304 340 537 679 699 703 701 720 728 724 699 706 681 551 282 233 298 330 328 310 372 446 418 374 348 312 356 404 480 466 442 438 432 450 460 466 484 470 448 448 444 422 388 368 340 316 284 248 256 239 252 258 248 266 334 344 326 304 336 384 384 398 394 398 378 398 380 382 372 358 205 166 168 176 178 197 
103 136 246 326 308 316 482 615 625 613 677 658 672 675 681 629 559 326 134 122 122 158 237 284 406 484 478 478 486 472 472 476 466 462 442 428 414 428 442 460 480 468 462 460 468 466 390 316 258 181 132 128 138 122 156 176 235 292 320 308 308 304 334 342 348 370 360 374 366 378 352 372 360 340 158 116 124 128 132 162 
91 113 191 314 292 322 494 596 590 580 612 612 604 613 568 392 233 118 105 87 103 111 146 294 442 472 450 454 470 468 438 440 426 426 372 310 250 248 324 454 517 541 565 592 621 625 596 420 138 101 83 83 87 89 97 107 109 148 205 243 268 288 308 324 318 320 310 312 308 334 330 324 324 312 148 109 128 128 144 176 
101 109 142 211 254 296 402 507 498 458 424 422 396 318 201 130 105 105 79 87 83 91 87 118 170 272 316 326 314 274 260 243 223 166 101 91 89 83 91 148 296 446 517 551 619 637 635 613 386 138 101 75 83 85 99 109 91 105 105 99 168 320 219 217 241 233 237 189 162 178 183 185 181 183 122 118 128 156 183 243 
93 111 128 124 154 213 239 270 237 160 144 156 142 132 107 101 95 97 81 89 89 95 77 93 93 101 97 107 97 99 101 93 77 69 62 77 75 73 67 75 87 116 185 292 472 566 604 623 592 476 338 229 166 116 122 113 97 120 107 126 338 380 348 342 290 213 150 67 36 42 46 42 52 60 132 191 219 239 258 246 
95 107 116 93 120 118 144 134 126 109 99 111 99 109 89 97 89 95 87 79 85 87 83 83 85 85 81 73 79 83 69 71 67 67 62 67 71 81 67 54 77 64 69 77 138 280 502 596 594 584 557 535 490 442 454 209 103 113 120 254 438 422 482 452 340 241 116 40 19 23 25 29 38 58 199 268 292 258 264 239 
101 95 109 103 107 103 93 91 111 99 83 97 91 97 97 85 83 83 75 85 81 87 77 83 81 71 71 71 73 75 75 85 73 71 58 62 64 73 54 54 62 62 73 73 79 91 166 342 541 588 576 602 608 602 559 201 140 197 314 474 480 474 523 454 360 250 124 36 21 23 23 23 46 62 217 294 294 260 254 197 
103 111 101 93 109 97 105 93 99 107 89 89 109 101 97 81 89 87 81 83 93 85 79 89 85 71 73 64 79 73 85 73 69 81 67 62 69 77 67 56 56 52 71 60 79 79 77 101 187 430 545 596 625 623 505 290 354 422 460 535 498 521 488 352 187 160 62 31 7 13 13 25 25 52 209 280 280 241 183 148 
91 87 101 103 113 93 91 87 99 89 85 79 113 95 99 85 89 77 75 79 93 87 77 83 83 75 69 77 73 75 75 73 81 77 71 77 89 85 71 71 69 71 79 85 89 85 83 97 148 250 446 547 566 488 430 402 434 456 450 468 448 404 322 189 52 50 19 0 11 13 13 19 29 50 197 268 258 197 166 148 
95 97 95 91 97 113 87 85 93 93 91 89 101 97 89 73 85 75 83 87 91 89 79 83 81 71 64 58 89 71 99 152 201 211 256 276 274 284 250 223 229 237 215 217 219 223 231 250 302 344 386 434 456 396 408 452 458 454 396 264 178 140 93 54 27 9 19 11 17 17 9 23 25 48 162 225 213 203 195 195 
85 101 89 85 79 95 77 83 95 97 83 91 91 93 95 87 77 91 81 89 93 79 60 85 85 79 62 77 77 99 193 448 484 470 456 474 470 464 448 432 432 434 418 388 388 330 340 384 378 390 410 406 448 444 466 468 408 298 150 109 87 71 64 42 31 17 15 2 2 15 15 25 29 54 168 233 229 233 221 215 
93 107 103 97 83 93 107 93 103 111 91 99 97 97 93 87 81 91 85 91 103 91 79 93 87 81 73 81 99 168 452 582 551 494 456 436 422 446 430 454 480 490 519 525 533 458 398 420 438 464 482 476 496 476 436 340 197 128 113 93 95 67 73 75 54 48 38 31 29 34 36 40 48 56 187 258 262 256 237 227 
93 93 101 107 87 79 97 105 109 109 87 95 91 97 93 95 91 91 91 124 126 126 101 101 91 85 81 87 144 380 586 586 553 521 517 521 494 488 474 462 454 452 472 490 527 543 511 474 503 533 515 509 440 284 158 138 93 111 91 93 79 91 79 83 75 67 58 50 46 52 46 48 44 54 183 246 268 252 250 237 
85 89 93 111 93 75 97 95 105 109 91 81 81 103 111 89 111 172 225 270 328 338 296 201 116 107 89 105 223 551 559 557 547 557 543 555 531 513 494 462 442 432 424 418 440 446 458 448 482 492 468 410 286 187 170 181 170 178 203 207 227 250 278 304 292 294 302 248 128 93 67 54 54 75 150 211 241 239 260 241 
95 95 103 120 85 89 99 91 113 101 93 99 99 111 103 132 252 418 570 662 699 706 639 584 446 258 132 142 348 559 557 572 570 580 584 578 574 543 517 486 472 456 434 432 448 446 454 470 478 478 452 430 420 382 356 364 378 352 336 372 410 446 430 476 466 472 478 432 378 316 252 203 148 132 207 233 248 256 258 262 
95 97 93 95 87 77 81 95 111 105 97 93 103 97 126 199 396 488 675 828 803 747 718 755 753 675 434 346 561 582 553 582 592 604 592 590 578 565 547 527 509 474 458 442 460 480 488 482 503 503 476 470 454 430 384 364 386 344 328 390 436 454 458 498 484 496 500 452 408 380 376 376 336 318 250 260 274 260 250 239 
81 113 103 109 93 95 103 95 107 113 91 99 113 116 164 334 440 484 664 851 833 782 763 792 799 768 685 705 745 743 598 574 590 590 594 594 565 574 557 527 505 490 470 454 468 480 478 490 500 502 486 484 470 466 402 368 394 354 322 390 428 430 428 410 388 384 388 384 396 410 432 440 410 416 278 256 286 262 256 270 
85 105 87 101 91 89 95 87 93 116 89 83 95 126 215 400 426 424 553 824 839 835 813 801 799 811 741 726 759 751 695 566 561 578 600 606 563 568 545 513 496 456 442 444 472 486 494 482 476 460 464 462 474 470 412 364 394 358 298 350 340 362 372 372 366 362 384 380 426 446 424 438 438 412 286 270 260 262 264 262 
93 111 93 95 91 85 97 93 89 109 105 101 103 142 254 362 370 374 462 736 837 830 790 793 792 795 741 739 718 705 705 576 539 559 574 580 561 555 529 502 482 468 448 458 464 464 468 462 468 450 462 464 466 456 410 360 400 376 322 336 336 336 336 322 348 364 388 406 456 498 474 456 452 454 290 260 258 266 241 254 
97 101 97 97 89 99 87 85 93 99 101 99 99 120 239 344 356 374 384 613 828 807 813 824 813 793 716 718 720 732 697 549 527 539 549 557 533 521 507 488 476 464 462 452 460 444 444 456 466 460 454 462 454 456 430 364 420 394 336 378 380 382 372 342 330 382 436 440 434 456 507 507 482 472 288 268 260 256 258 256 
97 93 107 111 101 83 89 87 103 107 103 101 105 111 185 324 356 388 372 466 660 736 788 805 814 795 755 739 757 745 701 572 557 568 561 565 557 531 507 470 480 476 472 458 472 468 466 470 472 458 460 460 458 470 416 366 424 394 340 386 392 396 402 368 354 408 460 442 438 454 480 505 507 450 304 262 268 270 243 246 
89 99 93 103 95 101 89 89 107 93 116 111 107 118 144 262 348 390 444 474 582 666 714 782 757 747 751 768 792 767 631 604 588 598 594 584 549 551 533 509 484 474 472 462 462 462 470 458 456 442 432 440 452 448 406 350 412 376 334 380 362 372 394 404 400 398 456 476 464 466 456 468 474 446 288 268 268 254 254 262 
73 89 97 95 89 103 97 85 107 87 116 99 107 113 122 178 310 390 448 570 691 757 743 689 578 410 559 772 782 637 596 602 594 590 592 576 545 541 523 492 480 458 446 438 442 442 440 436 432 430 422 424 454 442 398 336 408 356 338 364 338 354 388 428 434 454 460 460 462 468 464 456 442 428 290 274 264 241 252 252 
73 87 95 99 85 91 93 83 93 105 111 111 122 116 97 107 176 292 372 450 482 492 486 414 235 178 280 648 646 561 580 604 594 590 578 568 523 503 482 460 454 442 428 438 414 426 436 432 424 428 426 438 438 444 380 336 380 322 332 346 354 360 400 436 482 484 488 498 466 452 462 476 502 434 288 266 250 246 233 246 
95 93 103 109 89 87 87 91 99 101 105 111 105 101 105 89 103 146 187 221 185 199 215 158 116 120 174 428 568 529 559 582 572 576 576 565 531 517 498 464 454 438 438 424 422 424 436 428 440 442 450 462 450 432 368 356 380 326 350 346 380 396 404 434 454 452 468 466 450 482 494 490 486 422 280 278 264 256 243 258 
95 105 109 95 95 85 95 97 99 95 95 105 97 113 95 91 91 107 122 122 97 126 87 95 91 107 111 256 523 539 555 586 561 566 561 551 531 535 502 462 462 452 436 430 426 414 436 448 464 472 458 458 450 414 368 368 410 338 364 366 382 392 396 414 434 456 482 482 486 496 484 458 456 408 278 276 266 266 264 254 
91 95 93 118 101 93 93 91 83 97 101 101 103 113 101 95 85 105 97 91 101 105 81 89 83 83 99 166 418 557 588 596 578 549 521 511 472 462 450 434 434 434 416 432 444 458 470 486 492 484 474 440 456 422 388 410 428 358 390 370 378 334 322 430 458 474 498 507 486 480 476 448 430 384 264 272 260 270 260 272 
85 105 103 95 91 85 91 83 101 107 97 113 105 109 109 85 91 87 91 91 83 91 83 79 81 85 87 120 292 588 619 619 590 527 464 446 432 446 488 515 529 525 525 539 533 531 523 500 484 480 470 454 446 442 426 458 450 412 410 392 396 344 280 434 478 458 464 478 476 476 446 454 412 384 270 270 268 246 260 243 
87 101 91 113 91 95 109 91 103 101 113 101 97 113 101 87 89 93 77 87 89 93 79 85 89 91 79 103 191 511 619 612 549 476 472 533 539 559 574 576 621 610 615 604 582 553 515 500 482 482 484 482 488 462 434 468 452 444 456 464 432 338 288 384 444 430 410 438 440 440 442 428 400 342 292 280 274 252 248 260 
87 109 99 105 107 95 91 71 91 107 111 103 107 126 99 85 89 87 93 85 99 103 75 73 83 85 69 91 142 328 543 570 535 559 551 563 545 523 541 533 545 541 537 531 545 549 507 482 470 474 480 478 450 444 456 456 446 460 502 553 478 378 306 332 408 450 404 416 424 430 390 404 338 264 270 268 274 260 268 243 
89 118 103 113 83 95 97 73 107 99 111 107 113 109 101 91 93 87 85 83 89 87 73 83 85 79 79 79 105 174 410 541 574 576 565 545 496 480 464 462 470 476 472 484 500 513 507 476 472 442 482 460 444 448 488 488 482 468 448 476 430 334 272 205 304 322 288 296 292 286 258 254 254 254 268 276 278 243 262 260 
91 97 111 103 79 85 87 77 93 103 107 109 124 113 93 81 77 89 67 79 93 83 73 81 79 69 73 71 91 111 207 402 531 523 496 509 486 480 460 452 454 458 458 474 482 494 498 507 482 444 456 440 448 418 460 474 406 360 360 404 326 241 191 152 138 146 136 138 142 156 150 142 181 248 248 262 254 254 250 272 
81 97 105 95 87 103 87 93 105 99 107 122 118 109 85 83 67 77 83 81 79 77 81 71 77 81 71 69 81 87 95 142 217 310 386 418 392 384 364 374 372 392 386 382 390 410 420 438 428 402 416 420 408 402 430 426 318 268 266 266 209 122 93 105 103 97 97 93 97 107 126 128 162 227 219 243 248 233 248 235 
85 95 99 111 85 97 79 81 87 116 109 113 113 107 91 85 87 89 77 71 71 75 62 73 64 81 62 56 73 60 77 83 81 93 130 178 199 258 268 274 292 322 324 320 326 324 316 340 362 394 376 376 372 376 388 342 191 154 150 111 79 77 75 83 91 79 95 91 99 103 107 107 124 207 217 219 229 229 215 237 
79 89 87 103 105 103 99 93 99 93 113 120 126 122 107 93 87 105 69 79 81 79 58 79 75 67 54 56 69 71 73 69 73 89 91 97 83 97 109 111 138 156 160 178 209 256 272 332 370 372 366 342 324 288 237 176 109 107 105 95 91 87 79 62 75 93 101 87 87 109 105 107 103 193 193 217 217 211 209 201 
71 89 103 103 89 99 85 95 101 101 109 107 126 116 118 111 116 105 87 85 87 81 62 87 95 89 83 97 101 103 107 116 97 101 93 118 111 116 105 111 111 113 109 124 126 146 162 256 312 354 322 286 227 176 166 156 148 138 140 105 101 101 101 99 93 113 132 130 99 140 138 136 118 160 201 221 229 219 211 195 


