P2
80 60
641
182 204 202 212 206 206 194 202 198 202 196 192 208 204 202 192 200 198 188 186 174 178 194 186 166 176 178 156 150 154 180 158 178 186 180 192 180 180 142 142 126 128 128 140 146 162 164 170 180 180 176 188 176 172 184 180 176 180 190 178 192 176 170 190 188 172 188 162 188 192 188 164 154 148 150 168 168 176 174 180 
184 180 178 198 200 196 186 194 200 206 196 200 204 190 188 190 198 194 180 198 192 164 174 178 172 164 168 178 160 160 166 168 172 170 176 198 186 180 148 140 136 130 140 132 160 156 166 160 182 182 184 180 176 174 196 184 188 194 194 176 182 194 182 174 164 178 178 172 174 188 186 162 152 168 160 162 162 164 162 166 
188 182 210 192 204 200 190 192 208 200 184 196 202 182 198 192 190 180 174 188 178 168 174 170 186 168 174 162 162 140 168 154 180 182 198 198 188 178 178 158 154 136 138 148 164 170 168 178 186 190 194 196 182 180 184 174 196 210 190 192 180 190 188 172 166 184 188 182 202 186 176 178 162 154 156 156 180 166 166 168 
178 176 186 194 188 198 194 210 184 200 188 200 216 170 190 186 192 182 186 188 174 182 178 182 186 182 186 176 188 158 186 184 196 190 202 194 210 182 172 162 152 148 140 158 164 162 172 174 188 186 192 192 200 176 188 186 200 210 190 184 186 198 168 186 180 190 194 190 196 182 190 178 160 158 158 158 178 186 164 166 
172 182 190 192 200 224 200 206 196 206 194 194 198 198 188 198 188 196 182 182 176 164 174 192 194 182 176 178 190 186 194 192 188 198 214 198 196 198 190 164 164 150 150 170 164 180 166 192 194 192 192 216 196 198 186 202 194 196 196 200 192 180 192 196 174 186 188 188 194 202 196 184 172 180 162 156 180 174 168 186 
184 170 192 186 218 218 200 202 204 184 198 208 194 198 208 210 190 186 184 194 184 180 186 198 190 210 194 188 188 186 196 182 198 208 208 220 206 206 180 168 164 154 162 160 180 180 182 190 192 196 206 204 196 194 192 186 204 200 202 196 194 178 184 182 182 180 200 200 192 194 200 192 182 172 174 176 192 186 174 186 
168 176 206 184 212 224 200 188 200 210 212 206 212 198 200 204 198 208 192 198 188 194 194 184 198 208 190 194 194 184 192 200 222 208 224 214 222 230 200 192 172 150 166 162 186 186 178 196 194 192 218 206 206 198 194 198 218 206 198 196 182 208 204 188 194 198 202 198 202 208 200 204 174 192 198 184 186 192 178 180 
186 188 186 196 208 212 208 214 202 208 198 206 214 220 202 214 190 192 196 200 190 186 192 198 202 204 200 198 184 192 208 196 220 206 230 216 218 210 204 178 158 164 168 166 180 180 190 190 210 210 222 226 212 204 200 200 208 220 208 202 206 194 196 182 192 202 190 198 190 198 202 202 176 172 190 198 186 186 182 202 
178 182 188 198 196 214 198 214 202 204 210 206 212 210 208 210 200 204 198 208 192 190 200 200 192 206 212 186 182 192 212 204 214 232 232 236 232 206 202 184 172 172 170 172 194 194 194 196 214 202 216 208 206 210 202 210 208 212 212 208 200 194 202 192 198 200 194 204 194 214 212 196 186 176 180 188 186 210 182 194 
196 192 198 208 208 210 204 210 188 220 214 222 224 198 216 208 214 210 206 198 202 192 200 202 202 202 204 188 190 200 202 208 218 224 246 240 228 220 210 204 188 176 178 170 194 198 196 208 212 214 224 210 206 194 194 202 210 220 214 206 198 198 204 190 188 200 218 202 212 214 208 212 198 184 166 192 188 200 182 190 
184 184 200 208 202 216 200 204 196 198 190 210 194 190 220 216 208 198 194 210 192 200 206 206 200 204 206 188 186 178 218 204 214 220 234 250 250 236 228 214 222 218 200 194 198 200 200 212 220 208 220 210 210 202 198 194 212 204 198 218 200 188 188 186 190 192 202 212 216 200 204 210 198 186 188 194 192 204 186 214 
198 190 204 194 208 202 198 212 194 206 200 202 210 192 208 204 198 198 196 198 186 194 196 220 192 206 196 192 202 190 220 210 224 242 252 290 296 310 320 372 435 445 376 266 204 204 204 212 216 206 222 210 204 192 198 190 206 216 194 212 206 190 194 188 194 188 190 200 200 210 206 212 190 200 200 196 196 194 194 186 
180 182 210 196 208 212 196 210 212 196 200 198 198 216 198 200 206 198 200 192 198 196 200 204 190 194 200 190 202 208 206 218 232 264 322 380 385 419 493 495 538 546 493 346 256 234 210 214 224 216 226 206 194 208 198 204 210 220 206 208 200 202 196 182 188 200 202 214 226 216 200 214 198 192 194 202 198 202 182 198 
196 192 194 214 188 202 204 190 200 210 198 198 204 206 186 196 192 210 204 216 192 192 194 212 192 198 192 200 194 198 216 254 296 401 452 452 433 458 486 519 548 557 523 413 312 274 244 234 234 222 238 230 230 232 230 232 228 232 234 248 232 236 212 210 220 214 222 230 226 228 218 222 210 196 202 192 192 184 192 198 
192 204 206 200 218 216 206 198 204 208 214 202 196 196 192 204 196 192 194 196 182 198 202 204 190 200 208 210 210 208 260 352 476 472 421 417 419 446 470 480 515 519 517 417 338 312 278 280 256 264 270 288 276 242 234 226 194 216 246 280 266 276 270 262 252 254 252 244 234 246 236 232 214 220 210 210 214 200 200 198 
172 188 204 200 196 210 200 192 198 202 202 196 200 198 198 198 190 212 196 204 200 194 208 200 188 206 216 216 212 240 364 476 433 342 254 226 278 391 439 395 441 484 482 437 368 356 310 352 296 236 256 272 274 254 248 222 206 200 224 258 264 286 278 268 276 272 280 266 268 260 264 268 262 272 260 224 230 232 204 214 
176 188 212 188 204 200 208 196 194 200 202 198 224 204 202 204 208 204 208 188 190 200 200 216 212 212 220 228 234 284 505 499 456 397 405 415 372 348 344 380 407 439 443 427 366 397 334 340 292 254 252 234 280 276 280 240 242 270 294 312 314 328 318 296 308 314 308 292 316 356 368 389 421 446 421 382 342 292 242 214 
178 198 216 192 204 202 196 188 198 208 198 196 218 204 200 196 214 212 208 210 216 206 210 222 226 232 238 222 240 326 546 507 486 454 450 433 378 340 328 368 397 405 411 389 348 356 316 300 292 252 240 190 270 294 314 344 330 336 342 332 342 346 358 336 344 358 358 328 336 382 391 399 421 452 464 468 448 437 380 316 
196 208 202 204 204 212 212 204 212 198 214 212 210 212 204 216 226 214 220 216 210 218 218 232 228 246 224 232 256 334 515 524 501 464 484 441 366 270 240 328 419 419 405 360 332 310 334 320 300 240 226 218 278 278 308 318 332 340 334 342 338 352 356 378 374 370 380 372 368 372 378 374 391 421 433 431 450 448 435 403 
208 206 206 196 208 212 218 204 208 218 212 214 206 202 208 224 220 212 208 202 230 224 240 248 256 252 254 254 256 378 490 519 519 505 493 429 308 188 238 401 435 433 393 346 318 318 344 342 324 258 238 226 262 270 310 316 310 314 312 336 334 336 342 368 395 405 401 395 385 376 385 374 391 409 429 421 431 433 431 421 
198 214 198 214 206 222 202 212 204 200 202 210 206 210 204 202 206 218 214 226 244 280 350 356 401 419 358 304 322 470 478 511 524 517 486 413 276 204 274 393 413 415 374 364 324 318 342 344 314 236 218 222 254 280 304 316 312 310 350 391 393 397 395 395 383 403 435 415 395 368 342 348 334 362 362 374 382 380 397 401 
202 212 218 198 216 216 204 202 212 214 198 206 216 204 212 214 208 216 218 270 338 415 448 536 596 606 575 526 536 542 460 476 542 492 460 391 274 242 284 372 413 411 360 372 354 348 356 324 300 164 34 220 236 270 306 304 314 328 350 370 385 395 385 407 421 413 421 401 382 364 318 276 272 276 302 308 316 316 306 326 
190 202 200 212 200 208 212 202 206 204 214 206 212 210 208 218 216 218 240 296 458 486 540 585 573 550 575 542 579 573 448 417 544 488 437 376 272 232 218 330 403 382 385 389 385 362 348 348 302 236 160 162 198 266 284 310 338 340 350 389 372 389 391 399 413 419 393 387 397 407 383 376 376 383 405 421 429 437 407 376 
180 192 198 194 214 220 196 212 204 206 214 194 210 218 222 224 210 224 226 344 497 538 629 602 563 503 542 546 565 561 480 448 546 507 472 415 318 236 222 302 387 411 399 425 419 399 378 372 330 260 226 61 54 212 296 322 336 360 368 407 391 399 395 393 393 374 397 380 378 403 380 393 382 399 423 456 462 450 460 427 
194 208 212 200 202 218 216 210 208 230 214 216 204 218 212 214 222 220 244 338 490 519 604 623 592 552 577 592 586 577 538 523 581 542 501 480 425 350 276 226 324 385 427 452 433 391 397 368 328 276 238 87 0 119 296 334 348 372 370 385 393 391 382 376 368 366 389 383 385 393 391 399 407 411 448 472 460 454 439 393 
192 194 212 206 212 220 210 200 220 222 218 206 210 210 216 202 218 216 220 326 443 482 495 575 600 625 606 569 573 536 557 540 532 519 521 488 460 443 358 296 296 348 427 450 441 395 370 336 318 272 240 182 126 198 286 294 320 338 342 326 336 342 336 340 362 350 366 376 376 403 401 415 417 425 445 452 427 405 366 314 
192 206 210 202 196 210 214 196 190 202 210 206 212 204 198 200 204 230 218 268 318 380 382 421 511 550 454 330 282 318 476 515 497 484 519 490 468 446 403 344 306 288 415 456 452 391 364 324 292 298 248 222 202 256 298 288 262 260 260 262 264 270 296 328 338 342 336 340 330 338 348 366 364 387 387 340 296 280 256 228 
196 216 204 204 190 206 200 216 204 196 218 204 202 218 200 202 192 204 212 228 222 256 264 276 288 300 262 248 234 246 342 488 478 452 454 448 409 409 360 342 338 346 413 486 478 409 348 330 294 286 284 272 244 264 246 244 230 206 192 238 228 246 278 296 318 338 328 310 280 278 270 260 260 242 232 220 228 230 222 222 
198 206 206 196 216 212 192 198 200 206 210 216 198 210 202 206 204 212 202 210 198 210 214 214 228 234 216 228 218 230 272 462 509 464 397 308 244 258 302 374 368 332 405 507 503 435 330 328 278 276 284 262 226 214 150 93 210 244 208 226 234 246 260 288 286 296 298 284 256 276 254 238 230 216 214 214 226 230 226 214 
214 200 198 200 204 206 200 200 208 224 204 200 206 196 200 200 202 196 200 204 204 214 214 198 218 220 222 210 204 220 258 387 550 472 312 182 75 136 306 376 385 286 383 511 536 478 292 274 280 264 276 258 228 196 172 204 224 252 254 242 246 248 250 250 264 270 282 262 274 250 250 244 218 212 188 216 226 214 214 214 
192 206 204 196 198 212 198 200 194 216 196 208 200 212 208 202 208 220 208 212 212 220 216 214 218 224 224 214 222 234 256 312 480 490 304 50 4 244 304 290 437 460 484 554 567 488 300 270 264 252 260 252 260 240 238 238 234 234 234 222 224 222 242 260 278 288 290 288 278 264 252 224 224 204 202 202 214 206 198 216 
190 218 210 202 204 204 216 216 194 210 200 202 208 204 204 214 206 212 222 220 206 214 224 228 232 220 234 220 232 246 252 258 322 450 454 399 372 362 318 270 460 513 532 577 575 486 280 262 264 236 246 254 244 242 236 234 244 238 230 224 226 220 238 254 274 290 296 294 282 264 264 232 218 206 204 204 218 202 194 192 
178 194 210 196 208 218 202 202 204 208 192 198 208 220 212 206 200 208 214 202 210 218 230 230 222 226 228 226 218 226 252 268 298 354 458 486 409 374 407 403 505 519 523 571 573 458 260 234 248 238 242 248 246 242 240 242 220 226 222 224 210 230 246 256 296 284 284 278 276 272 246 234 214 206 206 198 208 212 192 194 
186 214 196 202 200 222 202 220 216 196 210 200 224 208 212 212 218 220 214 216 212 226 228 220 224 234 238 232 254 274 364 413 462 482 499 470 431 427 501 480 515 503 501 501 482 356 242 232 246 252 246 254 254 256 248 244 250 242 238 222 218 238 252 270 286 292 294 282 282 278 252 234 220 208 208 212 204 214 196 214 
180 200 194 202 212 216 198 206 214 202 210 212 210 208 216 222 198 220 220 212 212 220 230 226 236 246 230 260 342 423 474 470 472 476 482 486 484 486 540 507 519 509 486 403 280 236 222 234 252 244 250 254 248 250 254 246 232 236 226 250 230 230 248 266 284 300 292 272 298 264 262 244 228 218 196 204 202 218 214 200 
172 202 198 208 210 206 198 206 216 208 220 202 216 212 212 212 224 214 214 216 216 222 224 238 240 246 248 304 439 429 425 425 452 456 484 480 470 490 515 507 490 495 497 478 393 274 236 256 266 260 256 260 258 252 250 254 252 232 250 276 240 236 250 248 256 258 256 276 276 266 264 258 226 208 194 208 220 204 208 210 
188 188 192 192 208 220 210 210 212 200 206 206 206 208 228 216 210 224 214 214 226 210 230 238 234 246 266 389 470 458 445 421 427 446 458 476 460 474 509 497 505 501 503 509 497 439 344 324 314 308 284 288 280 274 262 258 238 260 266 288 278 288 268 262 254 256 262 272 276 276 256 262 232 218 208 204 204 214 198 240 
190 194 198 204 200 210 202 212 196 204 202 206 206 216 208 220 222 236 228 228 222 232 236 246 242 254 298 431 458 456 456 419 401 409 421 423 433 452 482 474 492 490 478 505 513 492 443 376 344 314 312 310 300 292 304 296 288 300 314 314 304 308 288 270 262 258 268 272 274 266 250 242 200 170 172 158 176 196 226 266 
192 192 200 194 204 212 214 214 204 198 194 208 222 224 224 238 264 312 316 286 252 252 240 252 264 282 380 468 460 450 448 415 405 413 385 368 338 368 358 362 391 427 450 478 511 509 464 441 395 374 344 342 338 344 338 330 332 326 320 282 270 292 298 294 268 274 284 258 256 260 254 258 212 186 170 140 160 230 302 304 
196 210 206 190 200 208 192 196 218 212 204 212 208 224 246 292 466 526 548 528 501 474 380 296 274 336 470 464 456 460 462 439 429 405 350 310 310 308 300 304 328 352 385 443 480 493 486 462 437 374 366 368 366 376 370 352 354 334 326 216 126 294 308 288 280 258 282 300 292 292 328 354 393 372 346 280 256 284 314 312 
192 204 214 212 202 220 200 202 210 214 212 210 220 226 278 474 606 583 617 610 583 592 542 501 437 503 511 468 466 468 464 437 419 382 308 280 280 284 294 290 298 316 328 380 433 470 484 460 458 415 382 378 383 393 383 368 366 350 326 282 222 298 296 290 294 276 276 294 246 274 334 366 397 427 425 397 338 332 324 308 
190 206 212 190 204 196 192 212 208 210 192 202 224 218 328 528 594 602 637 610 550 509 544 563 569 550 546 486 448 435 446 433 403 336 282 272 272 288 300 294 298 302 316 340 368 419 437 458 454 417 395 366 383 387 387 372 370 368 348 336 298 298 300 294 280 276 268 252 254 264 314 342 376 391 372 350 344 352 340 340 
192 200 202 192 186 214 210 198 212 204 204 208 216 234 312 526 579 608 641 608 492 478 505 544 563 565 536 468 429 411 399 395 370 320 264 258 274 310 318 326 310 316 314 322 348 352 380 417 458 421 419 397 385 383 376 366 366 366 366 364 318 312 308 294 298 316 294 266 278 296 328 344 352 366 360 360 366 374 362 364 
192 202 206 202 196 206 210 206 206 192 214 202 202 210 274 480 548 575 629 592 521 493 497 513 536 528 521 448 413 393 376 362 322 306 248 234 268 312 324 338 328 334 330 336 332 326 370 382 415 427 429 415 395 389 382 378 370 362 352 344 332 318 308 312 316 350 328 314 292 310 348 362 366 370 376 374 397 391 382 370 
178 182 202 198 202 200 204 198 204 198 198 204 214 216 242 378 526 536 596 575 534 552 526 536 528 532 495 417 393 364 344 344 322 292 236 216 276 334 328 356 338 328 344 330 326 340 346 346 382 419 439 421 429 411 423 391 393 350 336 328 322 328 320 302 310 306 324 292 282 306 378 372 382 389 429 427 431 395 352 342 
182 212 212 210 208 218 200 202 216 198 206 196 196 200 222 258 356 429 464 497 513 501 486 439 445 517 482 415 387 370 368 342 310 278 198 176 252 330 360 350 348 334 334 326 328 318 330 338 368 415 448 433 439 456 448 399 328 312 290 272 266 256 258 236 238 240 244 250 290 356 383 397 413 409 441 429 399 322 272 266 
170 190 196 198 208 210 206 192 212 210 200 206 218 216 220 222 254 238 246 272 288 278 278 244 270 425 472 452 419 405 389 368 316 250 168 176 230 320 350 358 358 342 320 314 314 310 318 340 376 417 433 456 462 452 421 370 334 306 288 290 280 258 230 208 222 216 244 254 338 374 389 427 429 435 433 413 344 244 244 258 
182 182 204 198 212 212 208 206 206 216 200 208 216 206 218 216 224 218 222 226 220 218 228 228 244 356 486 464 445 423 411 362 324 262 168 162 202 296 346 356 354 332 304 312 312 308 328 346 391 417 448 468 464 452 372 330 334 322 336 312 312 326 302 254 252 238 248 310 366 378 376 399 413 415 417 342 254 242 242 250 
174 194 210 220 198 216 206 200 208 216 214 198 216 210 206 220 208 218 210 224 204 220 214 224 230 288 472 462 431 413 415 387 366 274 194 196 218 284 322 350 356 336 324 316 330 340 344 358 415 439 452 478 466 409 350 336 326 332 324 324 320 312 318 316 292 284 298 346 346 350 364 395 411 395 356 280 228 238 232 236 
192 196 202 204 206 214 204 206 194 206 206 204 216 224 212 206 220 216 206 210 202 216 198 212 216 272 431 468 456 397 372 378 366 330 258 208 252 300 332 338 372 348 346 352 366 389 403 429 452 429 443 454 441 372 348 332 326 328 322 330 322 310 308 326 310 322 348 332 316 324 336 360 382 344 278 238 226 230 214 210 
192 194 208 202 206 210 212 204 204 202 204 214 208 208 208 204 208 216 218 202 204 208 214 208 218 246 403 490 448 393 376 358 382 376 376 330 314 362 389 403 409 413 411 431 468 470 454 460 446 411 419 407 382 364 356 346 330 322 322 326 328 326 312 310 312 320 320 308 288 292 298 326 322 240 214 228 222 214 210 222 
170 198 216 194 214 220 212 200 206 216 200 202 200 196 220 210 196 208 208 210 202 186 204 210 198 256 338 450 441 399 411 397 423 417 427 431 450 484 486 468 472 466 474 490 497 493 446 415 405 382 380 376 356 354 352 342 338 332 340 340 322 334 336 348 338 330 320 300 296 268 274 274 228 210 214 216 216 212 208 216 
182 206 198 190 194 224 206 194 208 206 214 206 214 214 214 196 194 206 208 206 190 200 214 196 198 214 272 378 431 413 441 425 441 435 460 466 501 524 523 497 497 503 503 517 499 466 397 342 330 316 340 338 342 342 358 360 348 346 350 354 340 322 332 356 342 348 330 288 250 226 248 216 206 190 200 204 212 210 198 200 
170 194 204 206 204 200 200 202 190 204 198 184 220 216 202 206 202 198 198 194 194 194 192 206 206 208 214 236 306 380 413 421 433 450 446 474 536 538 515 493 513 509 501 474 433 364 290 242 258 250 300 294 304 312 344 372 376 358 368 372 336 340 362 358 370 340 318 274 222 216 216 194 182 180 196 216 212 200 222 210 
180 218 196 196 194 218 190 206 202 198 206 204 214 198 212 206 208 200 188 186 190 202 190 208 186 210 200 194 202 224 270 322 366 387 415 423 507 521 488 472 470 448 374 306 256 214 206 204 218 220 236 222 218 246 288 332 344 356 360 380 376 366 360 360 352 332 296 248 210 198 192 182 174 184 196 194 200 220 198 218 
186 188 204 198 200 202 196 208 178 190 194 208 192 194 196 210 198 186 194 188 198 172 198 192 198 180 208 178 188 182 210 216 234 250 292 320 344 316 330 312 298 268 196 184 196 202 202 190 216 198 204 198 198 188 204 232 236 268 286 320 328 328 308 310 308 292 258 226 210 200 196 180 166 190 198 198 198 196 210 208 
184 198 196 186 202 188 178 204 190 178 196 188 188 184 194 202 188 178 178 190 172 184 190 182 186 186 186 182 178 164 188 184 198 190 214 214 210 200 196 178 166 176 154 166 180 188 176 174 196 186 188 198 192 184 188 188 202 202 218 204 208 202 212 204 208 208 204 194 186 176 178 164 158 170 186 188 200 202 196 218 
158 160 180 166 184 196 172 182 180 178 176 178 182 190 202 190 180 180 188 184 174 164 182 166 172 180 174 154 166 168 170 182 180 184 202 196 174 184 166 144 140 138 138 156 172 164 178 180 188 178 176 190 170 172 180 186 194 204 186 178 176 170 162 176 162 164 176 166 172 164 158 142 130 164 202 174 192 200 194 200 
154 180 156 162 160 186 184 168 170 166 176 168 182 182 184 172 182 172 174 174 170 172 164 182 172 178 162 172 164 154 172 160 182 170 186 190 178 160 150 142 140 128 130 140 164 156 166 172 176 166 168 182 164 170 176 162 174 170 174 158 172 170 162 148 150 156 164 158 162 154 156 146 126 172 184 176 190 200 186 198 
172 178 172 160 172 186 178 190 180 174 168 164 180 160 176 178 174 160 164 180 160 162 166 168 170 166 162 148 156 154 174 170 188 194 196 198 196 198 164 160 158 148 148 158 174 178 186 188 200 176 190 188 188 180 182 186 174 172 186 166 158 182 172 162 166 152 160 162 162 148 156 134 134 142 156 184 178 190 182 194 


