P2
80 60
590
75 97 73 67 71 71 69 71 77 87 71 73 77 79 65 67 73 63 77 69 63 85 71 83 71 57 77 69 75 63 79 83 85 71 71 77 71 73 79 85 81 77 71 59 79 81 71 71 69 83 57 73 65 63 63 67 73 65 51 67 93 87 105 113 101 231 389 451 484 496 505 511 509 530 519 503 497 530 503 480 
71 79 71 73 65 73 71 63 73 85 75 71 65 67 65 67 75 79 57 65 59 71 81 75 71 71 55 75 49 65 71 69 87 75 79 87 73 89 89 79 75 71 69 59 77 81 77 55 77 77 57 65 67 57 79 73 55 71 69 73 97 101 115 131 187 354 435 468 492 463 424 414 395 324 298 296 346 393 492 507 
53 81 71 79 87 77 57 63 71 67 57 77 69 81 65 65 67 69 71 79 83 79 67 71 81 85 77 71 79 67 73 81 79 77 85 89 95 71 83 81 77 75 75 83 87 87 79 97 75 91 67 75 79 77 69 89 97 95 65 99 123 105 131 157 298 445 461 494 463 344 191 167 133 129 111 141 203 361 505 484 
77 83 67 77 67 71 81 95 81 69 65 85 67 75 65 67 83 81 75 69 79 71 67 79 89 87 85 95 97 85 105 95 81 83 91 87 95 95 83 85 87 93 97 75 109 77 91 83 95 89 71 87 97 91 81 89 99 95 95 91 137 133 163 237 389 470 492 511 441 205 149 125 123 143 175 199 320 466 511 513 
65 87 65 69 69 67 75 71 83 73 81 89 77 71 77 75 77 83 87 83 69 89 71 79 89 83 71 93 85 89 89 93 83 107 87 97 101 71 87 89 73 87 89 79 85 97 91 85 83 93 77 89 91 91 77 91 87 83 83 105 143 129 197 348 424 488 507 507 371 187 177 199 223 233 255 310 420 515 532 513 
91 79 81 77 73 75 75 61 71 75 79 87 65 73 79 65 73 85 75 81 83 87 83 75 95 85 83 95 95 89 99 93 93 81 103 85 101 87 85 95 85 91 95 87 95 99 99 97 93 101 95 97 89 85 87 97 111 93 97 121 155 163 289 389 435 465 497 484 308 251 271 312 340 348 346 367 470 527 538 523 
59 97 83 79 69 79 85 77 77 79 73 91 79 81 81 85 65 87 75 81 87 89 85 77 85 73 91 97 89 89 79 91 99 77 97 101 103 95 87 87 85 97 91 97 99 91 99 99 89 95 97 91 85 89 81 97 101 107 105 123 159 225 387 443 451 457 463 428 420 363 357 383 381 406 406 408 478 530 527 507 
71 83 73 71 81 101 75 85 75 77 79 77 85 89 65 93 79 79 79 77 97 85 79 79 81 81 89 93 101 99 99 87 97 87 95 81 107 95 97 91 91 101 103 87 107 103 95 101 83 103 91 93 101 105 97 99 121 111 119 139 201 324 455 463 443 465 490 441 437 420 404 426 418 424 455 461 470 505 501 490 
67 77 69 73 73 89 65 75 89 89 71 93 87 71 71 81 79 75 71 85 81 79 85 77 89 85 79 77 83 99 87 97 91 95 97 87 91 97 87 89 97 93 83 91 105 119 91 89 93 93 91 91 103 97 91 105 115 117 123 139 233 404 474 482 455 457 484 466 459 432 424 408 408 424 451 466 470 455 461 466 
71 91 73 71 63 91 83 85 83 91 81 87 87 85 89 81 71 81 83 75 91 85 97 77 81 87 79 85 95 83 91 97 93 89 95 95 89 77 87 95 85 77 101 83 97 103 89 95 93 103 107 87 107 95 105 97 115 119 119 157 334 428 466 466 470 453 463 505 445 424 430 408 381 412 447 461 468 418 422 430 
53 71 83 81 71 83 77 75 93 71 69 85 67 77 83 81 89 65 87 79 71 85 75 93 81 73 89 89 85 87 101 93 79 79 75 95 97 85 81 95 91 87 83 91 97 107 101 91 87 95 93 93 101 107 105 99 113 115 125 209 383 432 455 465 478 490 457 463 439 416 406 408 387 389 416 466 470 389 375 395 
77 85 79 75 73 95 85 89 73 77 77 79 75 67 81 85 67 83 67 71 85 83 81 83 85 99 77 83 87 83 91 93 95 87 85 93 99 91 89 85 105 83 89 99 101 105 101 95 95 111 101 113 105 113 105 113 123 125 121 239 377 395 459 449 461 466 468 404 406 391 395 404 395 408 383 403 445 393 367 357 
71 87 77 73 73 81 67 77 73 73 71 81 67 69 75 75 73 83 65 75 71 81 93 79 87 79 79 75 83 89 91 91 93 81 89 95 99 91 95 83 87 85 91 89 107 101 95 85 91 95 99 99 111 117 103 105 111 127 129 306 395 397 412 434 443 451 439 432 412 412 383 410 401 385 410 401 399 387 391 389 
73 97 63 69 71 77 83 61 81 79 87 81 71 71 79 59 77 85 81 75 71 83 71 81 75 63 69 73 79 77 85 99 93 77 77 83 93 91 83 85 85 103 89 99 93 99 95 85 97 93 89 109 109 109 107 111 123 123 137 340 434 434 408 422 424 416 432 428 428 445 449 455 418 414 408 437 406 399 393 406 
71 71 71 71 79 77 81 63 79 71 73 73 63 71 59 71 69 71 71 73 71 77 81 73 73 81 65 81 79 91 91 95 81 83 91 89 75 87 89 91 109 93 95 81 89 87 85 77 87 93 87 99 87 99 103 111 105 113 127 312 430 443 445 463 478 486 499 470 459 447 472 472 432 428 422 449 432 391 389 406 
73 79 67 75 63 75 79 57 85 73 69 55 73 77 67 67 61 69 63 61 83 61 75 77 65 71 69 67 75 79 91 85 81 77 79 75 81 81 95 101 89 87 83 83 91 89 95 79 79 77 89 91 75 91 107 89 107 103 119 263 410 445 499 519 525 532 513 449 416 437 426 430 414 416 410 441 439 408 399 406 
65 67 69 55 81 75 71 59 81 63 61 85 69 59 71 75 79 71 55 57 83 69 59 77 75 53 71 69 67 63 71 79 83 75 73 85 83 79 87 105 105 89 93 87 89 97 99 95 83 91 97 91 89 97 97 105 121 105 119 193 393 435 453 480 490 445 414 381 395 408 416 379 385 399 418 430 432 414 430 457 
51 67 49 51 53 83 65 59 61 63 49 65 71 71 77 69 67 71 71 71 69 63 63 77 71 65 83 79 73 75 79 77 77 89 81 87 85 85 93 101 87 101 105 83 87 99 89 85 99 95 87 91 99 93 91 105 117 107 119 161 342 441 463 447 486 486 513 426 387 385 367 371 375 383 393 410 447 439 441 494 
55 83 69 75 63 73 61 79 85 65 65 69 57 73 73 75 75 67 77 67 63 63 69 65 73 71 89 63 81 77 79 85 83 85 87 89 101 79 93 97 97 95 101 95 101 95 99 99 103 97 97 107 87 105 101 105 115 117 113 153 314 401 494 563 565 586 590 552 437 383 379 391 371 377 377 404 465 459 472 517 
77 73 63 61 67 69 67 73 81 79 79 87 61 63 63 85 77 81 73 67 83 77 73 73 83 77 83 89 83 93 85 89 87 91 95 97 101 95 97 99 93 101 107 97 113 101 107 97 107 99 95 103 97 93 107 107 121 113 113 169 367 569 577 584 563 563 556 536 478 445 432 399 387 383 373 391 472 488 496 534 
77 89 69 91 79 83 63 77 87 71 79 75 77 83 69 71 81 73 75 77 85 85 93 91 91 85 81 95 87 99 89 103 101 91 105 97 95 97 99 99 89 113 99 103 109 111 101 99 93 105 101 99 99 107 99 103 125 127 117 271 472 554 563 488 468 480 490 536 527 476 432 412 381 330 279 269 418 505 513 528 
55 85 71 75 67 77 73 69 83 77 71 91 93 87 75 79 77 75 77 79 73 83 87 71 79 83 77 87 87 87 107 103 101 81 91 89 103 97 99 97 95 109 107 89 105 99 105 103 97 99 93 95 117 93 105 103 119 113 117 261 449 521 443 401 385 399 379 369 363 385 379 342 293 217 201 209 352 509 525 513 
61 83 75 63 65 67 75 75 77 77 69 79 73 73 63 73 85 81 69 63 83 81 83 83 73 75 81 77 103 87 83 101 95 97 95 95 109 83 89 95 83 91 97 89 99 101 107 101 109 105 101 99 103 99 119 125 135 107 111 197 389 453 385 379 369 406 408 403 377 344 359 383 397 393 387 418 468 530 528 501 
73 79 73 61 75 77 71 79 87 81 87 81 77 89 81 77 75 85 73 81 85 89 97 91 81 77 85 81 97 79 97 99 107 85 91 97 91 95 99 105 95 105 99 97 103 111 103 97 107 91 105 99 117 131 201 255 237 175 139 143 229 312 367 387 375 439 416 418 393 412 379 445 538 561 552 542 571 575 538 482 
77 83 87 71 63 89 81 77 89 83 79 77 75 81 81 71 79 75 67 79 85 87 85 75 93 85 85 69 75 73 85 103 101 95 97 105 111 85 81 91 93 97 97 103 93 107 109 113 101 105 101 109 187 314 389 385 403 371 285 237 197 257 363 404 441 468 410 381 389 391 375 443 534 561 550 561 586 584 499 439 
79 79 69 69 69 81 83 77 87 95 83 79 75 87 69 65 85 83 67 85 85 77 95 87 83 69 81 77 93 87 87 99 93 85 83 93 95 85 99 105 99 91 103 97 95 111 101 109 111 115 115 213 381 424 416 422 432 439 420 391 354 296 338 428 505 499 418 361 404 385 395 474 530 540 561 569 586 558 459 399 
59 87 75 69 55 73 81 79 93 75 87 71 77 77 71 79 85 73 81 73 81 87 87 85 87 77 83 81 89 83 97 85 83 83 93 107 91 89 101 109 95 97 99 95 103 111 105 115 117 133 225 406 461 435 441 439 432 437 434 451 472 387 403 486 515 515 474 432 451 445 478 513 515 546 548 567 546 505 426 401 
69 81 75 75 69 61 83 85 83 73 71 79 73 91 67 61 75 87 75 79 77 81 77 71 75 79 77 85 83 85 81 95 83 81 97 103 93 93 107 107 103 103 97 105 105 109 111 113 131 253 383 430 435 437 432 406 451 445 434 437 492 459 457 513 513 534 532 530 517 499 494 503 511 521 509 497 399 434 439 403 
65 79 73 69 67 73 77 77 75 71 83 87 77 77 83 83 73 75 65 85 75 87 83 79 91 69 67 83 85 71 77 87 79 71 77 95 99 91 85 103 107 101 89 97 101 115 111 137 249 406 426 430 435 435 318 237 340 459 437 432 449 414 432 463 513 528 527 527 519 505 492 499 468 418 371 350 334 379 430 422 
63 65 75 71 75 81 73 67 81 83 71 65 83 67 73 75 69 67 69 71 79 79 79 73 67 67 63 75 75 71 85 87 77 69 87 93 93 97 97 111 97 95 103 99 113 109 127 219 412 428 432 445 397 255 143 143 211 367 430 435 412 328 367 406 465 528 532 509 501 474 418 365 350 312 304 328 326 332 367 393 
65 69 67 73 63 77 67 65 77 73 59 71 57 61 63 67 65 63 71 69 73 73 67 75 69 69 67 63 67 73 67 85 69 71 87 77 83 89 85 89 99 95 105 89 111 97 209 381 430 447 385 263 185 105 111 107 167 324 326 348 356 314 326 318 377 437 420 365 348 342 322 332 346 348 344 363 361 304 306 350 
63 75 67 69 69 69 75 71 75 63 65 63 71 69 65 63 55 59 67 67 73 69 77 65 63 55 63 67 73 65 79 69 69 75 85 87 81 87 93 107 85 111 107 109 119 187 375 408 428 294 147 107 119 93 111 125 161 336 361 356 367 322 330 330 336 361 338 298 283 300 344 354 357 363 356 371 356 314 318 322 
65 75 73 75 83 69 81 67 61 75 65 63 75 77 59 61 71 59 59 63 71 73 79 73 73 77 71 69 77 77 65 79 73 79 87 85 91 91 95 111 107 129 175 243 265 324 391 387 231 127 107 131 123 131 119 129 139 269 328 320 316 269 302 308 332 334 326 312 310 308 340 348 352 361 379 361 338 322 316 328 
67 95 75 81 69 93 81 73 71 79 83 63 67 85 73 75 75 77 79 77 75 79 85 79 87 85 83 75 91 83 91 85 87 75 97 87 85 101 109 107 115 195 314 312 320 348 363 195 139 185 231 269 263 296 330 257 191 308 375 334 312 267 275 291 304 308 300 302 306 314 340 350 346 361 359 352 340 332 306 306 
69 103 63 85 67 81 73 59 89 85 93 81 71 85 77 75 81 79 89 79 79 73 69 73 75 79 85 89 91 75 85 83 97 71 85 83 93 99 107 113 129 285 365 322 271 267 187 129 177 293 432 482 503 523 515 509 435 439 428 352 342 300 281 294 302 277 271 306 304 350 365 352 361 359 346 334 324 332 304 293 
71 73 71 77 73 81 97 71 87 85 73 77 69 85 75 73 79 83 81 83 79 79 81 83 89 87 83 81 79 93 91 93 87 79 101 93 101 101 95 111 113 187 302 235 149 125 137 139 211 350 509 509 490 546 540 548 573 573 532 463 371 338 291 273 269 275 257 291 318 348 371 373 367 365 328 306 316 302 287 283 
63 69 73 87 65 93 95 79 89 83 61 75 71 79 75 85 71 75 73 85 81 83 81 93 83 89 91 79 107 79 91 85 87 81 87 89 99 95 101 107 107 113 151 155 97 105 113 157 273 395 494 496 505 552 527 505 478 480 466 484 391 338 326 275 247 241 251 257 322 340 361 363 352 363 318 306 304 275 269 261 
67 77 67 69 75 79 79 79 85 77 73 73 65 75 71 77 73 85 77 91 77 75 85 79 97 77 75 79 87 87 97 91 83 77 85 97 103 89 91 105 113 115 111 101 97 101 117 141 269 387 449 496 513 507 476 441 404 418 395 412 340 328 314 267 255 249 251 247 308 338 346 356 340 348 310 308 293 267 255 249 
63 81 71 67 73 77 93 85 79 73 65 83 77 85 91 83 67 73 77 89 87 81 85 87 85 89 77 91 85 77 83 99 99 87 87 93 99 97 89 103 113 139 111 89 81 113 115 109 231 330 387 430 492 538 515 466 412 406 383 399 340 308 277 243 241 253 259 233 283 306 318 328 340 330 298 298 291 259 247 237 
73 93 75 79 73 71 75 81 69 89 71 75 77 77 85 85 73 85 81 89 89 71 81 83 89 81 77 85 89 81 91 91 93 85 99 91 97 95 95 125 251 235 171 103 97 97 109 87 159 241 344 387 434 501 509 488 490 439 408 379 340 294 287 265 245 231 227 213 247 287 279 291 314 296 283 306 306 271 247 247 
59 87 83 67 63 95 67 75 79 83 81 91 93 93 89 93 83 71 69 91 85 81 93 79 83 77 85 75 93 91 91 91 81 93 85 91 83 91 105 189 300 249 269 241 113 109 97 89 115 149 203 233 239 310 320 304 251 221 277 316 291 263 261 239 237 219 215 207 231 275 249 271 283 275 277 304 336 265 243 235 
59 65 69 67 71 71 57 89 87 81 83 63 77 71 85 83 77 75 71 87 89 75 63 69 85 67 79 87 81 83 79 79 79 81 77 85 85 85 101 213 328 304 318 304 171 97 87 79 89 95 85 93 105 107 107 109 125 221 279 263 251 225 225 231 257 247 227 203 213 237 213 249 255 251 293 420 416 283 257 253 
67 71 71 71 73 77 89 65 85 81 77 73 69 79 71 79 73 81 81 71 79 71 83 71 81 81 79 63 75 69 81 79 93 95 79 81 91 73 91 173 277 296 296 322 298 135 95 73 91 95 73 75 85 75 77 83 103 239 318 269 253 243 225 245 243 261 213 195 195 235 207 215 237 243 314 497 484 326 277 267 
71 75 65 63 51 79 79 57 67 61 61 75 69 81 69 69 63 71 69 81 61 71 73 69 75 73 69 81 69 69 73 71 77 83 89 83 81 77 79 107 173 215 245 296 354 314 187 105 97 93 73 77 81 65 61 57 129 261 318 269 243 213 201 239 217 227 203 181 169 169 215 209 231 241 298 527 482 342 279 255 
34 63 61 65 57 65 83 67 67 73 69 71 75 77 79 53 87 67 73 77 71 61 79 83 67 79 69 53 77 67 71 69 75 79 77 75 77 77 81 79 103 103 135 213 330 377 356 217 103 93 61 67 67 55 75 73 157 279 300 263 229 181 159 157 185 205 171 139 129 147 179 197 219 233 293 511 461 320 283 281 
34 53 53 47 45 61 65 77 63 53 69 55 69 57 73 61 71 69 63 67 63 57 69 77 71 55 67 67 65 55 69 67 59 69 65 79 79 65 79 79 79 79 85 105 219 361 379 356 277 141 77 75 53 61 51 79 245 320 322 269 249 187 165 143 135 113 123 115 115 125 151 183 215 219 269 453 377 302 267 273 
37 49 47 34 39 45 53 55 53 53 57 51 71 47 59 51 55 55 53 61 69 63 69 67 65 63 61 55 59 67 61 71 47 57 67 73 71 73 73 85 73 79 75 71 109 227 363 375 367 356 219 133 71 55 59 169 377 401 381 346 267 189 141 71 41 55 71 129 147 129 149 167 165 203 255 401 322 267 257 267 
22 53 45 24 41 49 28 43 41 43 43 51 37 55 37 51 43 37 53 57 53 57 67 49 51 41 45 59 49 51 51 59 53 59 55 59 57 47 69 71 63 69 57 53 65 99 213 356 397 387 356 338 227 113 201 357 414 426 387 391 342 139 81 37 18 28 55 119 125 129 137 167 153 157 227 369 293 233 239 247 
47 57 59 55 47 45 51 45 59 49 45 45 39 49 51 39 39 43 34 49 49 53 39 45 53 39 51 39 39 37 57 37 51 32 59 49 49 47 63 47 34 47 57 45 47 73 121 241 371 389 385 387 377 342 373 395 401 399 385 377 320 129 43 0 2 4 41 61 75 77 85 103 101 101 159 320 253 219 203 215 
43 71 55 57 49 69 53 57 55 63 55 53 63 63 65 57 65 51 59 49 61 59 57 65 61 59 51 59 69 51 61 55 59 65 47 61 69 61 45 49 43 41 51 55 53 73 75 111 237 357 373 387 389 373 377 379 422 395 352 263 171 71 37 18 37 20 28 26 32 39 41 34 26 32 41 127 123 181 179 179 
43 75 59 61 49 53 63 67 63 73 55 49 53 57 59 55 51 61 61 75 71 63 65 67 55 57 57 67 67 69 77 57 73 65 49 59 61 53 47 71 43 57 45 63 51 71 55 65 99 201 318 361 373 385 385 381 367 275 155 87 73 53 41 32 30 37 43 39 53 45 34 28 45 41 39 47 63 111 159 141 
49 61 57 55 67 69 67 65 69 79 63 59 55 69 61 65 53 63 61 61 73 75 79 69 59 57 49 79 71 67 59 69 69 65 65 61 75 63 67 59 59 61 61 75 57 71 65 59 89 97 137 257 352 363 342 304 207 103 51 59 59 47 53 55 53 49 57 67 77 67 75 83 75 69 57 63 75 69 83 113 
47 61 65 73 61 71 65 71 61 67 73 69 77 61 67 79 81 73 65 73 77 83 77 71 71 79 73 75 73 65 69 83 85 77 81 81 67 69 73 69 65 61 67 59 61 81 57 61 63 73 79 103 177 223 207 145 107 63 39 63 69 59 63 65 71 73 69 71 73 69 81 87 77 81 61 65 85 55 67 93 
63 75 59 71 55 81 67 79 79 73 71 67 63 87 77 81 85 67 79 77 79 81 87 85 83 77 71 85 77 65 71 79 81 75 89 81 75 73 71 71 79 71 69 73 77 71 67 71 65 77 77 79 89 105 97 97 95 93 73 89 89 77 87 79 85 103 93 75 77 67 75 69 75 65 67 89 99 83 65 79 
47 79 53 77 81 83 63 77 89 79 57 65 75 79 81 67 85 79 71 83 87 83 69 93 81 79 75 83 79 77 79 83 71 81 91 81 77 71 77 73 59 63 71 51 63 59 73 63 73 75 69 75 89 99 95 95 99 97 79 89 109 93 85 97 95 101 93 75 87 63 67 69 71 65 69 85 99 77 69 81 
63 73 67 63 65 73 69 71 83 79 87 87 73 85 81 79 87 77 89 87 91 89 93 93 81 71 81 79 85 83 89 91 83 79 87 85 99 73 69 85 73 75 69 77 81 71 69 73 77 77 85 99 91 105 91 81 109 95 81 91 103 83 71 91 91 89 95 75 97 89 77 77 73 83 67 77 103 99 81 83 
77 83 75 73 71 69 71 69 75 95 59 93 95 79 83 85 83 81 89 91 97 83 75 85 83 79 75 83 89 81 93 85 93 83 85 75 97 81 87 85 73 87 73 77 83 89 81 77 83 81 103 111 111 103 95 109 115 101 85 89 89 77 93 77 95 99 87 93 81 69 77 79 81 75 75 79 101 83 83 79 
73 71 87 75 75 89 81 83 77 93 87 89 87 69 89 87 85 67 75 81 93 87 93 87 89 85 87 85 77 93 81 81 85 85 89 95 75 95 91 73 81 89 67 75 87 85 91 75 85 111 91 105 89 95 93 99 97 97 73 87 95 81 77 83 91 93 91 69 73 71 67 73 83 81 87 109 103 95 77 77 
67 101 77 75 75 91 83 63 79 75 71 81 89 81 87 87 77 91 83 83 95 87 77 83 93 73 77 101 75 73 95 79 75 101 85 87 93 81 89 81 83 73 93 67 85 81 89 91 97 107 91 103 79 103 101 83 105 93 79 71 105 77 93 99 87 97 85 73 77 69 77 83 77 77 105 107 107 105 69 79 
89 99 73 83 65 89 71 85 85 87 81 91 83 89 77 85 93 81 89 91 101 99 85 91 97 79 77 97 89 83 105 101 73 79 101 99 95 99 87 87 79 81 93 91 79 85 101 119 101 125 99 95 107 117 95 89 91 97 87 79 101 75 85 95 93 99 87 89 83 73 91 95 87 93 91 113 109 113 91 81 


