P2
80 60
588
177 183 163 179 167 165 181 181 177 191 183 181 189 175 171 169 161 157 165 149 157 141 147 139 133 137 129 119 123 129 129 117 111 125 117 123 125 123 117 117 105 109 99 103 105 105 103 111 131 147 133 141 139 139 129 123 123 113 127 121 139 123 125 115 131 131 133 133 143 127 117 127 119 105 95 111 93 123 117 103 
165 171 175 171 159 171 173 183 173 187 179 175 185 165 167 163 161 159 139 147 151 147 141 139 139 121 129 137 123 125 123 117 127 113 133 135 129 135 127 125 117 121 113 109 103 109 119 115 139 153 141 139 145 117 133 125 115 135 137 129 141 131 123 113 125 119 135 129 135 139 123 109 111 95 111 105 97 99 109 111 
179 177 165 163 167 189 171 187 175 189 171 163 171 163 159 171 159 145 157 155 141 149 147 145 147 137 125 125 133 121 123 129 123 129 143 141 153 135 139 131 131 115 127 115 129 125 121 123 139 145 141 149 155 145 147 129 135 147 129 139 137 147 129 129 141 141 141 135 149 141 129 145 121 113 97 113 113 111 117 119 
179 169 179 167 161 175 179 183 173 189 173 175 183 151 157 167 159 141 163 149 147 155 147 143 143 141 145 141 145 139 131 147 135 135 153 153 153 149 141 139 127 129 131 127 123 125 125 119 161 163 153 155 179 145 161 163 169 169 159 141 149 157 123 145 139 137 145 141 147 141 141 147 131 119 113 115 119 127 121 129 
183 167 173 181 173 157 181 191 183 185 171 167 173 171 157 177 169 169 159 155 159 151 149 161 157 147 141 145 153 151 149 155 139 157 165 167 157 145 153 153 137 135 125 137 129 139 139 149 165 183 173 207 231 219 243 279 257 247 203 165 155 145 133 145 145 141 147 143 161 141 129 149 141 125 113 115 123 129 137 135 
195 167 177 177 155 167 181 177 173 167 189 171 177 177 191 167 171 163 163 163 161 155 161 151 151 159 137 159 143 151 161 153 147 149 157 167 159 163 159 155 147 141 131 145 151 175 221 229 257 261 302 308 351 363 414 414 373 351 288 225 167 147 131 139 145 143 151 163 143 133 155 155 141 133 119 133 131 113 141 147 
185 173 185 167 169 189 187 197 179 179 167 179 179 175 191 175 173 171 165 161 171 153 171 155 155 157 155 165 153 149 157 157 161 147 163 173 179 169 167 171 167 181 185 263 318 367 418 426 431 428 402 381 383 383 416 398 367 324 298 257 177 163 149 133 161 161 147 159 153 163 167 145 153 159 127 135 139 137 135 143 
191 159 165 179 171 185 169 175 171 183 177 163 179 183 173 175 159 161 165 165 163 151 155 159 145 167 155 157 153 159 161 163 183 167 201 187 227 207 207 203 259 338 389 466 437 457 459 460 460 447 447 355 273 241 267 277 292 302 257 211 187 161 143 149 163 155 143 171 167 147 157 167 157 139 129 131 143 137 145 147 
181 171 167 175 177 183 173 187 191 181 177 175 179 179 171 187 171 163 165 169 155 147 163 151 153 173 159 151 159 167 175 189 261 302 275 277 294 247 263 243 292 437 455 482 459 459 453 443 426 340 267 197 179 161 159 159 169 171 175 183 173 153 157 143 151 173 169 171 167 191 183 177 157 165 145 155 171 163 149 153 
165 177 163 185 169 185 193 185 173 195 187 181 175 177 171 175 169 163 167 165 159 157 165 163 151 173 163 161 167 183 213 350 353 310 316 318 219 217 271 259 318 426 443 460 412 393 359 292 257 205 191 167 183 173 151 153 147 157 151 167 159 155 145 171 151 179 181 171 197 207 203 259 302 277 241 249 237 227 205 221 
165 169 177 171 177 189 175 183 173 169 181 173 165 165 177 177 171 167 171 161 155 159 171 167 155 161 163 153 165 205 350 470 400 353 322 281 255 155 231 259 251 346 318 275 261 203 197 169 203 173 179 171 189 175 173 161 173 189 203 219 217 219 199 225 237 223 213 243 269 296 302 338 363 367 367 355 355 350 334 312 
177 179 187 175 175 185 185 181 171 179 175 169 163 169 181 175 167 165 157 165 161 171 167 175 161 171 163 165 173 247 412 457 404 375 379 367 373 320 203 201 175 173 161 181 167 165 169 167 179 197 185 189 215 211 205 217 233 231 243 245 251 239 265 277 273 261 245 314 326 324 336 342 357 359 357 355 361 361 363 361 
165 189 181 171 171 175 181 179 181 179 181 165 161 177 171 167 169 175 159 169 159 161 155 183 187 179 171 181 201 287 351 449 383 367 395 410 445 398 312 187 145 105 147 175 199 225 229 209 199 197 191 181 211 229 247 239 241 241 243 251 269 271 283 275 275 275 273 320 348 338 314 314 344 346 328 348 336 351 355 355 
193 181 177 167 163 195 187 177 173 183 185 167 179 169 161 165 169 165 159 155 167 185 197 292 338 281 233 219 229 351 344 404 357 379 412 398 439 383 308 173 93 81 135 195 225 241 281 259 265 239 211 191 213 221 245 237 237 225 241 257 275 281 281 281 269 269 279 324 357 346 318 324 346 338 302 302 314 285 263 245 
185 167 177 179 173 171 183 177 163 181 185 169 169 171 165 161 173 145 155 173 217 225 351 470 522 497 472 381 429 488 447 377 324 383 400 400 357 310 243 125 69 87 163 221 253 261 265 265 271 267 247 191 201 245 255 247 233 239 243 263 288 298 287 279 277 265 259 281 357 320 271 279 275 275 221 199 197 175 169 139 
175 171 173 167 157 179 177 177 163 179 175 171 163 165 175 163 161 171 187 193 306 357 484 532 550 546 524 486 462 536 497 361 271 400 397 375 294 241 165 95 63 91 181 257 283 275 269 263 281 265 239 181 195 249 275 259 255 239 247 265 292 281 271 287 275 277 253 259 269 241 205 207 185 179 157 155 149 155 153 173 
171 165 177 161 159 151 173 181 175 181 185 171 181 165 175 171 169 173 235 294 371 437 563 577 548 424 478 528 424 540 515 363 336 420 408 355 298 231 151 95 77 111 211 275 279 275 267 257 281 277 233 177 203 255 261 279 267 255 273 285 302 302 298 290 279 261 267 243 229 213 195 179 185 179 155 153 153 157 159 173 
183 177 165 161 165 177 177 175 171 181 171 183 179 179 177 175 175 185 255 296 410 495 578 580 540 462 480 530 439 536 517 365 412 445 422 332 312 247 183 93 87 113 239 287 277 285 261 269 287 271 221 189 201 245 287 279 273 265 275 281 310 302 300 298 277 255 253 227 217 201 203 185 181 177 159 155 159 179 189 165 
181 181 185 177 169 161 183 185 187 175 175 173 175 187 175 181 185 181 255 320 424 457 557 569 569 472 470 538 466 530 460 389 400 459 422 353 361 328 285 181 143 165 259 294 296 273 279 267 269 269 179 177 213 261 288 281 265 271 279 290 308 320 308 285 265 255 239 233 231 213 207 209 181 199 175 167 193 175 171 189 
175 175 169 169 177 159 183 187 193 175 183 181 173 171 169 179 177 183 225 296 387 414 433 491 528 553 457 449 460 468 418 385 391 383 397 371 391 342 336 259 197 221 273 287 294 275 279 283 300 265 157 155 151 229 265 271 283 287 292 302 312 310 304 288 292 294 288 275 257 241 231 219 209 209 213 227 221 241 237 237 
179 183 173 175 175 169 169 181 183 173 181 189 175 187 165 165 183 181 185 271 308 290 296 351 371 361 283 253 346 420 410 393 400 348 365 365 393 357 367 292 229 259 231 265 285 271 292 287 306 277 187 135 28 149 267 287 287 283 306 310 306 296 302 296 287 308 308 294 298 324 322 292 306 308 332 359 371 357 375 371 
159 179 169 169 173 169 183 171 185 173 173 175 171 177 177 181 167 177 185 197 203 209 213 197 211 187 177 209 279 406 422 412 387 336 328 328 351 348 363 288 241 285 245 257 285 279 298 308 308 247 199 111 0 141 241 265 263 273 255 257 267 267 257 281 277 269 277 267 318 336 330 340 332 355 383 383 389 393 389 365 
175 181 165 171 165 179 193 181 179 183 181 183 177 181 171 185 163 175 177 181 177 187 183 203 183 181 181 199 257 414 464 460 412 357 283 253 285 312 330 283 265 259 251 249 281 273 312 306 304 273 221 183 111 195 243 231 223 219 213 233 223 217 227 243 249 233 221 239 302 359 357 361 373 387 391 393 398 381 369 330 
171 181 183 171 177 171 175 177 175 185 181 173 175 179 187 183 175 189 177 175 183 167 189 193 183 193 189 211 235 357 495 468 428 357 279 113 91 229 316 285 277 283 277 285 281 304 288 294 281 290 237 191 173 239 235 213 197 169 177 201 197 207 209 225 203 209 211 217 285 365 363 365 381 387 355 371 344 320 267 217 
165 183 177 177 173 161 187 179 185 183 179 179 181 175 185 175 181 173 165 177 175 191 191 179 177 185 195 185 201 283 466 488 437 379 310 159 63 183 298 298 288 275 263 279 263 302 294 283 285 275 231 205 219 257 235 213 171 139 149 195 191 209 219 205 199 205 213 215 257 296 316 318 322 320 298 261 231 203 189 163 
179 169 179 171 171 177 183 171 187 179 183 175 169 187 181 167 189 179 167 181 183 175 185 183 175 189 183 193 199 237 381 484 445 410 369 312 292 300 314 302 277 247 277 261 287 300 294 279 288 279 245 223 213 227 159 139 191 161 153 185 209 205 205 207 207 205 209 205 207 209 215 225 211 203 189 179 181 171 171 169 
161 173 179 171 157 171 179 161 165 171 177 177 171 167 171 177 187 181 169 163 163 181 177 189 183 183 169 179 195 209 271 431 455 426 393 365 350 330 316 330 387 328 433 490 406 328 304 259 292 281 243 217 221 183 119 161 201 219 197 187 201 197 203 207 219 223 203 197 187 211 203 181 175 175 163 151 149 155 159 157 
179 167 179 161 163 147 167 185 165 173 183 151 181 181 171 165 173 169 151 161 159 165 175 175 157 185 185 189 183 189 203 265 404 426 398 406 369 344 326 406 464 474 491 519 486 371 310 255 259 253 233 221 217 169 153 167 199 217 207 211 217 213 215 207 221 207 215 209 207 201 199 173 177 175 149 143 143 149 147 151 
173 179 171 173 155 167 173 183 167 171 177 173 179 171 169 173 167 163 155 161 153 157 169 171 159 157 159 177 169 179 181 209 253 328 365 393 367 342 348 466 490 472 491 474 292 285 312 221 221 225 203 217 199 189 181 159 171 161 165 159 183 177 175 169 183 189 215 209 189 185 183 173 169 153 143 147 141 159 161 151 
179 169 169 163 167 173 175 173 175 173 177 167 171 163 167 169 167 157 159 161 159 161 167 173 173 169 169 165 175 175 181 191 193 197 221 275 310 340 377 472 488 499 414 283 221 285 271 193 211 215 207 205 203 195 183 175 161 165 159 165 175 177 169 189 205 219 221 207 207 193 185 177 169 157 139 143 161 151 165 169 
163 169 167 179 177 175 187 173 167 185 165 165 167 159 175 167 171 165 157 161 169 167 175 163 169 173 169 173 181 177 181 199 187 189 213 211 249 245 294 318 318 328 223 199 217 261 215 187 203 213 205 209 211 201 191 175 171 171 173 161 175 169 185 189 225 235 219 217 211 197 203 179 167 159 141 137 137 133 145 141 
165 171 163 167 171 159 163 173 171 177 175 165 175 173 169 177 165 169 151 167 173 177 175 167 169 169 179 169 181 189 191 203 193 207 213 215 239 225 241 217 183 193 173 187 191 207 191 197 193 203 189 213 185 183 187 175 177 171 169 157 167 169 183 195 235 239 231 223 223 217 205 185 157 147 127 131 145 141 143 151 
165 173 171 171 171 169 173 169 175 167 175 177 179 183 181 167 167 169 167 171 175 175 179 181 179 179 185 189 193 189 195 201 215 237 279 326 344 314 324 225 227 229 205 209 193 207 221 197 219 221 211 219 215 201 201 179 175 181 169 171 169 159 181 199 219 233 239 227 227 215 193 183 173 165 141 141 141 141 147 145 
155 179 175 179 165 181 179 169 179 171 189 175 185 173 169 177 181 175 171 171 177 175 189 175 187 191 187 185 205 223 259 318 355 383 395 395 373 348 431 408 385 400 398 408 424 402 408 391 389 361 332 296 271 241 243 263 257 261 221 191 201 191 201 203 229 235 227 223 231 213 203 181 167 161 143 137 131 143 151 157 
171 171 173 173 161 169 169 163 181 179 191 185 175 173 185 181 175 173 171 169 175 183 183 191 181 189 195 201 267 324 381 397 389 393 387 383 361 332 445 455 449 445 455 449 422 433 422 414 431 429 412 393 377 359 385 369 344 369 375 322 257 221 211 205 221 207 203 217 227 205 213 201 193 179 165 159 145 149 159 155 
159 165 181 177 163 161 171 167 171 177 183 159 177 171 175 169 171 183 183 163 177 171 187 187 187 187 201 259 373 348 355 361 373 371 383 383 328 357 431 460 466 474 468 447 414 418 412 414 431 422 402 402 385 373 395 385 391 391 410 429 334 257 219 227 219 213 201 215 217 223 219 243 245 249 211 217 215 193 177 165 
159 159 161 173 159 161 165 165 169 183 171 163 171 167 169 177 169 159 161 173 179 167 191 183 177 199 219 348 429 398 383 363 359 389 389 387 357 375 416 455 426 414 416 389 375 361 381 379 361 350 350 363 365 377 400 406 424 402 441 408 406 283 263 225 229 225 217 221 235 239 279 324 359 353 344 342 336 312 308 290 
161 171 155 169 157 163 167 167 167 179 163 173 179 171 175 169 175 173 173 185 187 197 183 197 179 213 255 379 404 404 387 359 316 310 355 363 367 361 355 369 312 322 324 332 330 302 318 314 306 312 310 314 316 326 375 393 393 375 385 344 346 306 269 241 253 223 205 231 221 243 288 312 348 379 377 379 353 355 346 342 
165 175 171 157 161 167 175 183 183 173 165 163 169 181 171 191 197 185 187 191 177 189 187 209 207 231 334 393 397 389 363 344 296 308 298 271 275 287 292 265 245 308 338 324 326 300 298 308 318 332 314 308 326 328 334 332 330 324 312 269 221 259 263 247 251 233 203 201 179 207 267 294 334 365 385 391 359 355 363 346 
185 177 173 165 153 173 181 171 179 189 167 163 165 177 201 229 302 310 326 322 316 285 209 205 219 300 377 369 353 346 340 338 326 344 314 245 211 203 207 217 243 306 302 294 304 292 277 279 296 312 306 312 324 332 318 310 330 318 294 237 97 241 253 247 243 221 215 179 197 207 251 283 312 348 371 381 367 363 365 322 
175 171 171 177 157 187 173 167 167 169 171 177 187 187 231 332 447 464 493 524 509 499 397 279 285 422 416 391 379 336 332 328 338 338 281 211 165 169 219 213 279 283 285 285 277 267 249 237 267 281 310 312 330 322 314 304 304 300 277 273 243 251 261 235 237 227 217 191 195 231 255 277 300 324 334 338 336 306 292 251 
173 173 163 151 179 155 163 175 177 175 163 167 167 197 312 410 480 488 538 578 526 524 524 501 468 478 459 383 365 359 328 320 312 285 225 183 171 207 249 277 279 283 281 277 267 255 249 241 231 263 281 302 302 310 310 292 277 271 279 277 265 251 263 241 223 209 225 221 225 229 223 221 215 213 201 195 193 171 173 173 
185 175 173 153 161 165 167 167 167 177 185 167 169 213 338 453 497 536 582 588 521 447 474 474 490 484 445 375 359 328 320 296 273 239 209 163 197 247 279 300 275 279 267 277 275 261 255 227 221 239 273 281 294 290 294 285 271 279 275 271 257 249 249 237 219 217 189 197 211 203 185 155 143 145 119 135 141 151 161 185 
167 169 163 169 159 169 167 161 165 167 157 165 185 199 320 439 466 548 580 575 503 408 453 422 459 468 437 350 338 318 300 292 243 225 197 155 189 241 279 294 277 265 267 277 275 257 251 245 225 237 273 259 285 279 285 275 265 271 273 267 247 239 223 219 193 185 167 181 183 163 155 149 125 143 135 129 143 145 149 167 
159 169 179 167 167 165 165 195 179 181 171 165 177 191 287 416 457 513 561 557 507 429 457 433 455 455 408 334 336 296 300 275 243 223 191 159 207 237 271 312 279 271 273 277 281 267 253 253 221 237 281 271 283 271 285 271 261 263 247 231 231 211 183 171 167 163 175 169 167 161 153 139 129 139 149 155 175 161 167 177 
159 165 161 173 173 175 163 179 173 177 169 165 185 181 217 361 453 472 526 542 491 488 497 445 441 455 395 338 306 283 275 279 233 223 181 119 177 247 267 296 298 275 267 265 263 253 233 241 223 221 283 288 269 283 269 265 249 237 215 189 187 175 173 157 157 171 167 181 175 159 153 155 145 139 137 151 169 161 169 161 
151 163 163 157 175 171 187 183 189 163 171 169 181 169 199 227 277 304 348 371 395 367 316 257 318 406 385 367 332 296 288 285 255 207 153 99 141 211 287 290 320 298 261 239 229 237 225 233 233 239 281 304 294 281 231 247 263 249 229 197 201 205 215 209 203 195 189 183 185 167 171 163 145 153 145 167 157 163 179 159 
167 159 171 159 177 167 171 175 175 183 177 179 177 173 181 183 185 203 211 199 209 199 203 209 231 359 393 365 332 306 287 283 251 215 125 107 123 209 288 320 322 288 247 249 231 235 233 235 227 213 233 257 249 223 211 217 251 251 265 253 269 261 265 249 281 273 257 245 223 197 169 175 151 163 149 165 167 163 163 173 
153 173 177 171 175 165 169 171 175 171 173 163 153 167 167 171 181 171 161 181 173 175 167 187 205 316 367 348 320 304 279 287 279 231 175 119 143 223 300 308 316 285 267 247 237 229 219 251 237 221 203 215 205 207 211 237 243 257 267 281 279 296 285 285 275 275 294 263 245 213 213 209 213 219 217 221 201 197 177 175 
167 171 165 167 171 181 179 169 167 173 175 163 173 169 169 159 181 165 171 159 169 155 173 173 179 279 379 363 326 310 290 292 281 269 211 147 177 231 298 302 308 283 287 263 247 241 245 275 233 201 185 197 209 209 225 243 261 273 279 273 287 290 277 259 253 257 267 229 203 179 199 227 265 294 304 318 304 310 283 235 
173 173 167 169 185 163 175 171 175 167 179 179 173 177 175 175 167 171 171 157 173 167 167 173 175 249 420 387 326 322 302 283 269 271 251 217 223 261 308 308 296 288 271 275 255 261 253 269 247 221 211 211 211 225 247 237 259 269 287 275 287 271 257 251 277 261 247 191 157 151 187 227 271 318 336 367 387 375 355 340 
159 163 179 163 183 167 167 171 177 171 169 167 159 163 181 169 161 169 165 157 165 155 167 169 155 215 373 414 361 316 296 281 241 263 255 269 239 257 273 277 281 294 288 273 259 261 263 227 251 239 221 221 229 221 221 249 231 237 263 261 259 277 257 253 221 225 213 181 161 173 221 261 296 359 369 385 404 397 389 377 
163 177 161 167 161 163 169 161 171 189 171 165 167 177 171 169 157 159 155 161 163 159 171 157 159 189 304 383 332 318 308 292 217 213 273 279 237 201 197 185 193 217 229 225 251 247 247 245 255 247 251 245 245 221 241 245 221 201 229 253 255 237 217 205 195 177 197 203 179 191 245 283 348 391 389 387 398 397 400 379 
157 171 171 165 167 171 163 177 169 181 167 165 167 181 171 159 169 151 147 165 157 157 163 153 161 177 185 259 304 334 334 324 298 287 306 312 306 296 247 187 177 167 149 161 165 175 201 251 281 261 304 306 288 267 257 225 205 207 213 227 227 211 207 179 171 161 149 171 169 197 239 287 344 365 363 375 365 353 359 320 
169 165 165 165 151 163 159 157 171 163 165 165 171 163 167 155 163 161 151 149 159 159 147 149 155 145 161 167 213 263 316 312 298 288 292 294 308 391 414 340 259 245 249 243 265 277 294 314 338 300 316 324 304 288 247 221 229 215 187 217 201 209 201 183 171 149 151 155 153 149 153 175 223 249 257 275 255 245 261 231 
161 165 141 149 151 157 157 155 171 151 157 171 153 175 157 159 155 145 135 141 151 143 149 145 143 137 143 139 153 159 211 239 251 277 285 285 367 429 431 429 402 377 379 383 383 375 371 346 336 296 249 239 233 209 181 173 195 187 181 185 187 187 167 177 153 129 135 139 143 147 145 125 143 161 165 169 175 171 181 167 
147 165 147 149 149 141 159 155 151 163 151 147 147 157 159 157 141 137 149 137 137 139 147 139 139 133 139 127 131 143 157 147 151 167 215 257 381 431 439 437 433 412 398 412 402 383 351 273 235 187 161 155 157 147 143 127 135 137 133 139 135 139 129 121 137 113 121 129 115 123 123 121 119 137 135 149 143 143 151 161 
137 147 137 137 129 139 143 143 147 143 149 157 155 149 157 149 153 127 137 131 135 115 131 133 131 135 115 123 119 125 121 129 125 117 139 175 201 249 324 383 410 402 367 361 298 247 187 145 151 149 129 141 123 125 123 127 117 129 109 119 113 111 113 111 107 105 119 107 115 115 113 103 91 119 127 127 135 137 161 147 
137 133 129 137 127 143 135 139 143 147 127 151 141 145 143 145 139 141 133 115 129 119 135 131 127 127 109 125 123 117 127 121 123 111 133 133 143 135 157 181 189 189 171 157 147 119 139 115 133 131 121 137 115 123 113 121 107 115 113 97 107 111 101 97 99 103 109 105 107 111 109 85 87 115 119 125 127 127 141 153 
157 147 145 133 133 141 137 139 151 125 145 135 155 141 143 139 133 125 135 139 125 109 133 125 123 111 109 121 109 113 125 115 103 99 117 119 131 115 131 137 123 131 113 129 101 111 119 107 133 139 121 127 113 117 115 111 109 97 121 103 105 105 103 93 105 83 107 111 95 91 103 93 87 121 111 131 119 139 147 149 


