P2
80 60
677
207 209 203 209 209 205 213 225 219 217 205 203 205 203 211 203 207 211 201 195 187 181 189 187 165 163 175 165 169 163 167 175 181 175 181 191 193 173 145 157 153 155 141 161 151 169 183 177 187 213 197 213 189 187 181 183 189 175 195 185 187 167 187 195 191 167 191 171 171 177 179 153 167 157 145 165 163 161 169 163 
219 199 187 201 207 201 195 197 199 209 219 203 203 195 193 201 199 205 179 203 203 179 177 177 169 153 161 183 159 167 163 183 187 175 167 199 187 171 153 149 159 147 151 147 161 169 177 173 187 199 207 201 189 189 199 191 195 187 193 181 187 197 193 183 167 183 183 171 169 187 175 159 157 165 151 141 147 153 143 149 
209 199 213 197 217 207 197 201 207 211 197 201 205 195 205 189 197 191 179 193 191 193 189 171 177 161 163 159 171 153 171 165 181 179 187 203 185 177 169 161 171 155 145 157 175 181 181 191 195 215 215 211 199 187 189 189 197 207 185 205 195 189 191 171 175 181 199 183 187 187 177 171 163 165 159 157 167 153 165 157 
211 197 197 207 201 201 201 219 201 201 197 207 217 183 197 191 191 185 201 191 193 201 175 177 187 177 169 185 183 173 195 193 203 187 195 207 207 181 183 175 173 161 157 169 169 173 191 181 207 209 205 205 217 195 195 187 209 203 203 195 191 189 187 195 191 195 197 189 189 179 187 171 169 169 163 145 169 165 155 157 
197 203 205 209 213 205 205 219 201 207 203 203 207 207 195 191 205 207 195 199 187 175 173 193 201 183 163 179 201 197 197 203 193 197 209 213 197 189 191 175 173 167 171 179 173 199 179 201 215 225 211 227 213 217 191 213 209 187 205 207 195 187 201 205 179 195 193 193 189 199 195 183 177 175 165 155 171 157 161 169 
213 181 203 203 209 213 217 223 211 203 199 219 205 205 209 205 201 193 195 195 189 189 185 189 195 197 173 193 197 195 195 195 203 199 195 223 209 203 179 171 189 169 177 173 197 195 197 203 219 223 225 229 217 207 203 203 213 201 207 207 193 185 185 191 195 187 203 205 185 193 195 185 191 177 181 171 173 179 173 185 
197 185 217 201 213 217 211 201 211 223 217 215 215 203 203 199 215 207 193 203 199 205 203 195 199 193 177 197 193 195 189 205 219 203 209 227 223 217 203 193 191 173 177 183 195 197 189 199 211 227 235 221 219 215 211 211 213 203 199 207 189 209 207 191 207 197 205 209 203 189 199 195 181 199 185 189 187 173 173 183 
219 191 201 223 213 217 209 233 225 213 213 219 223 227 197 209 195 209 207 213 215 199 201 197 201 195 185 209 201 207 207 207 223 215 219 225 225 215 203 185 181 181 187 191 191 195 215 203 229 241 243 249 245 233 217 205 223 221 217 211 215 203 199 197 205 195 205 207 203 197 211 193 197 183 181 195 191 171 177 169 
209 195 195 215 211 209 211 215 213 223 215 217 223 219 211 199 201 211 195 209 203 189 209 195 209 197 199 203 193 203 211 203 219 227 225 231 225 205 197 183 191 183 183 189 207 205 219 217 245 243 257 265 257 283 271 227 209 209 213 211 209 199 211 207 201 201 197 213 193 213 209 191 191 187 175 187 191 189 187 185 
225 207 209 211 213 217 211 223 203 225 223 225 223 207 221 213 211 217 211 219 225 203 209 201 205 191 195 211 199 205 205 217 221 225 237 233 235 217 201 205 197 195 195 185 213 219 231 253 267 293 341 395 460 475 434 351 245 215 211 209 201 205 203 199 197 209 221 209 223 205 207 211 203 197 177 205 185 179 187 203 
205 193 209 223 209 217 199 213 211 207 203 219 205 199 225 223 215 203 205 219 205 211 211 201 217 189 191 197 195 201 211 213 219 221 227 247 239 219 201 203 205 199 203 229 255 283 321 347 389 420 491 524 522 491 469 416 299 225 203 207 205 191 193 197 205 197 207 207 201 191 203 205 219 199 193 189 185 185 183 183 
213 187 211 207 221 211 203 219 211 211 207 213 219 195 205 205 207 197 201 209 205 207 201 225 195 205 189 197 199 197 217 217 215 227 231 261 227 229 213 211 239 251 313 420 485 508 493 465 452 469 460 493 467 448 402 319 275 229 203 215 209 197 199 199 197 193 203 215 203 215 205 207 193 205 199 201 201 187 189 191 
213 201 221 215 223 205 213 215 219 207 203 225 209 227 209 207 209 207 205 205 211 211 197 209 205 187 195 201 209 215 207 217 219 225 231 259 247 241 247 267 367 452 493 530 530 518 487 460 406 317 287 309 347 379 321 273 217 229 201 201 209 201 203 195 197 205 215 205 215 211 201 213 203 205 197 193 199 191 185 187 
225 197 209 227 193 215 221 209 213 209 215 203 213 213 197 203 199 215 211 215 201 215 195 201 193 189 181 211 195 211 207 241 231 241 265 283 289 303 369 454 545 541 534 528 510 501 458 345 275 255 257 259 253 267 239 269 253 241 243 243 241 255 237 233 243 239 255 225 229 237 233 225 243 241 219 203 203 179 191 199 
227 215 211 219 231 215 219 217 217 215 217 213 209 203 203 217 209 203 207 199 197 197 213 195 183 195 199 213 221 215 235 243 269 317 379 379 357 393 452 501 539 522 473 458 465 428 335 267 263 261 271 265 287 289 299 327 305 323 333 323 297 291 305 305 293 275 287 283 279 319 329 355 369 355 293 257 247 209 209 199 
207 207 217 217 201 215 205 203 201 207 209 203 207 211 205 207 197 215 199 209 219 201 211 191 187 199 195 219 207 217 231 319 412 440 432 440 395 391 357 434 452 404 321 315 365 379 339 289 283 283 279 293 293 305 287 297 311 327 371 365 345 341 311 307 305 299 313 349 377 367 377 398 422 458 438 387 355 299 263 231 
205 181 221 207 217 203 211 217 199 205 215 215 229 213 211 209 215 207 207 199 213 203 197 213 215 197 209 233 243 235 291 420 456 420 311 255 235 301 335 333 291 255 275 303 341 363 357 289 271 279 257 285 299 295 269 297 299 337 371 385 363 363 347 327 323 315 327 375 389 385 379 391 428 460 432 416 432 389 393 373 
205 207 211 205 213 207 213 199 207 211 201 209 221 223 221 201 223 213 221 223 227 207 211 217 225 219 215 227 235 287 452 475 444 400 379 367 355 315 251 241 235 249 269 305 311 339 329 311 301 265 229 269 321 305 283 287 305 337 367 369 375 363 359 365 351 335 351 385 404 402 381 379 391 422 424 412 410 404 404 418 
227 213 213 215 219 221 221 221 217 215 215 213 213 229 219 223 231 221 227 231 223 217 221 225 225 225 209 227 253 351 520 505 471 422 428 446 357 267 207 207 267 305 321 337 335 359 359 333 305 265 225 259 307 313 313 331 339 363 369 375 373 385 363 369 361 355 353 389 410 398 371 371 377 377 359 337 343 323 309 313 
227 215 203 201 207 213 217 215 213 217 213 221 219 221 217 223 223 217 213 213 239 223 219 223 237 219 223 253 245 383 505 491 479 448 467 460 363 253 165 215 365 398 389 367 335 333 359 331 307 247 247 257 297 299 315 331 347 345 375 373 377 371 375 371 357 345 345 359 335 301 281 281 269 265 257 243 259 233 233 245 
219 223 201 231 217 223 209 237 217 213 217 227 209 227 219 213 223 225 219 223 239 225 229 225 241 223 225 253 261 369 442 489 475 452 479 463 333 215 161 231 375 406 402 389 337 335 359 341 321 267 255 243 283 309 309 335 329 335 373 381 398 381 381 367 321 285 289 293 253 263 253 249 231 243 205 225 229 211 221 231 
217 229 227 207 223 221 217 213 209 217 209 225 223 211 213 217 211 223 229 231 227 237 235 235 267 263 249 279 259 373 432 491 491 465 467 422 309 203 167 229 375 412 406 389 345 311 347 335 321 235 239 243 291 295 327 337 347 363 373 385 398 385 369 363 339 293 311 289 289 289 261 225 221 229 229 231 231 215 221 213 
207 223 203 229 213 207 213 221 207 213 219 229 217 217 211 213 223 225 233 221 235 251 269 329 434 493 458 395 345 458 446 475 495 479 432 363 273 199 149 229 363 412 404 395 347 337 349 345 301 183 153 215 269 317 339 349 367 369 371 402 393 387 375 387 355 333 323 327 331 303 265 253 247 241 227 225 237 227 241 235 
207 203 203 203 213 213 203 217 209 209 217 209 219 223 231 215 209 225 219 247 309 381 424 530 572 534 532 536 499 563 430 393 520 481 408 361 271 191 163 181 329 404 400 391 363 349 365 361 319 237 141 104 229 293 323 361 383 369 375 406 391 397 387 400 397 363 387 359 381 375 317 295 291 301 275 295 291 281 291 297 
213 211 217 219 213 217 215 221 217 237 219 227 215 227 221 213 233 223 241 267 404 461 543 629 578 507 528 563 528 580 481 395 508 505 426 404 367 265 171 169 279 351 385 373 349 359 398 373 329 247 167 37 138 279 343 341 355 365 361 367 398 391 379 381 383 379 393 385 404 397 377 367 379 379 402 426 428 414 414 410 
215 203 225 211 225 219 221 211 229 221 215 209 217 221 223 199 219 221 229 279 404 483 557 625 601 512 510 576 555 592 549 483 522 520 471 485 436 395 315 207 231 259 323 337 349 369 398 371 329 243 173 47 80 211 311 295 325 349 343 327 355 369 345 351 357 361 369 373 395 406 383 385 381 406 422 444 440 436 442 436 
217 215 217 211 207 207 221 203 207 205 213 221 217 217 221 205 209 231 225 269 381 475 471 565 611 555 584 586 563 594 545 489 534 516 489 510 467 440 383 269 239 213 281 335 341 371 393 361 325 267 227 173 211 245 297 259 275 287 287 285 283 305 317 327 341 333 339 351 395 398 395 395 400 448 442 448 446 444 422 418 
213 211 207 215 221 211 215 231 215 215 219 217 205 237 203 205 203 213 227 273 327 393 410 460 572 596 572 505 452 436 495 501 503 471 483 516 471 456 406 335 289 229 269 325 347 367 393 349 313 261 265 235 263 245 265 257 185 227 253 273 257 291 315 319 331 331 325 331 379 393 397 393 424 436 438 432 426 369 335 307 
209 207 205 203 229 213 209 211 197 213 223 213 209 213 211 207 221 219 225 249 277 317 305 345 395 473 393 291 251 241 341 461 463 448 448 467 446 414 389 351 341 325 279 317 341 377 397 339 331 295 295 267 259 245 191 207 215 205 227 245 253 289 315 335 321 319 313 303 267 309 305 309 345 349 335 297 271 257 247 221 
223 205 209 209 221 211 205 223 213 215 203 211 205 211 203 197 205 209 213 217 241 261 285 281 289 281 247 237 221 249 269 436 499 469 448 404 319 255 283 329 355 373 323 283 315 363 369 319 325 299 303 269 249 195 126 179 251 247 241 251 269 301 301 307 311 303 303 293 275 249 255 257 239 239 213 215 231 213 207 205 
219 215 217 201 213 215 209 225 195 215 197 219 215 211 215 209 211 227 215 229 225 227 223 223 227 219 215 225 227 237 247 402 545 514 414 345 173 63 132 305 373 410 361 299 301 307 319 327 333 323 289 269 255 217 247 319 345 331 269 253 249 255 263 291 301 309 301 307 271 251 251 223 227 211 195 193 215 193 201 201 
211 219 207 217 225 209 221 227 201 219 207 211 219 211 211 219 217 229 217 227 221 223 217 223 239 211 221 231 235 253 245 309 526 561 426 273 100 0 221 279 339 501 495 510 507 497 473 493 485 408 337 309 293 355 436 460 424 397 385 297 249 231 237 273 301 305 299 297 287 265 261 233 225 223 199 207 213 187 201 207 
199 207 217 213 225 221 209 215 205 219 209 211 213 235 223 219 211 217 225 213 229 221 227 227 225 225 221 237 227 241 253 273 389 528 495 387 229 317 327 271 285 518 518 530 559 545 534 530 538 534 516 473 446 469 501 469 438 400 379 277 241 239 245 279 305 293 301 287 277 265 239 233 223 215 207 201 211 197 205 207 
207 225 207 221 211 229 221 221 227 219 219 215 229 227 223 217 231 233 223 223 227 227 233 231 237 225 231 235 267 253 289 323 371 487 520 538 481 438 406 420 471 530 520 522 551 551 559 526 534 522 528 510 501 495 481 471 426 371 307 245 243 243 251 281 297 303 295 293 271 277 265 241 229 217 207 205 207 191 201 209 
205 217 201 217 223 207 209 217 219 211 227 219 209 221 233 215 215 231 231 225 237 227 225 233 237 233 229 271 311 402 461 493 491 501 495 514 491 444 501 508 541 539 491 428 397 436 465 485 493 430 379 355 349 341 329 313 287 257 249 269 247 239 253 291 295 309 295 283 289 269 263 249 243 225 203 197 201 195 205 193 
201 211 213 217 233 213 221 221 217 229 235 211 221 233 227 221 237 227 213 225 227 229 217 235 251 237 237 305 446 473 485 479 495 499 512 510 485 465 526 518 538 522 512 479 393 303 279 287 303 301 293 295 281 295 303 297 295 263 271 281 255 247 257 263 271 269 277 279 281 257 273 253 229 211 201 199 215 187 203 197 
215 199 205 207 219 221 221 231 215 217 225 211 217 217 231 213 225 227 219 225 237 213 227 237 235 241 261 404 516 499 473 483 485 485 477 516 481 497 512 510 522 532 538 526 507 454 355 343 341 335 301 307 317 331 339 341 291 283 297 299 289 281 277 265 263 269 263 281 279 265 261 263 237 227 199 195 197 191 191 175 
215 209 211 219 223 221 211 225 213 223 219 221 211 229 221 223 223 235 231 245 227 239 233 243 243 243 299 475 501 491 489 446 458 473 479 485 465 465 507 508 522 520 518 536 530 516 485 393 359 343 329 325 327 319 325 319 299 305 329 325 311 303 285 273 265 259 257 273 267 261 247 247 201 175 169 151 167 171 193 185 
211 213 205 215 213 225 217 233 221 217 213 225 223 237 227 227 233 237 233 237 235 235 221 245 255 263 365 501 501 485 471 446 424 418 408 428 400 410 432 422 475 481 473 499 530 536 495 483 422 381 349 351 337 337 343 337 333 335 345 321 303 303 295 289 265 265 269 261 255 247 259 251 193 171 143 102 134 149 171 195 
231 229 215 215 209 219 209 209 227 225 219 217 211 231 249 257 307 335 325 295 299 283 257 255 267 315 444 481 471 473 460 442 428 422 373 339 327 333 329 359 406 424 424 458 485 512 510 485 473 416 369 375 353 365 357 351 353 353 351 259 199 287 287 289 271 255 281 313 289 303 347 351 375 355 299 231 195 157 155 165 
215 219 213 223 209 235 219 223 213 217 215 225 229 247 257 345 518 565 565 545 534 522 420 323 295 440 499 493 475 489 461 454 452 420 335 301 293 307 317 327 349 379 389 393 422 458 497 487 495 471 422 385 373 391 379 369 369 355 339 241 132 299 305 301 293 271 285 321 273 307 361 381 418 440 434 426 395 327 263 215 
215 221 213 197 213 211 211 221 223 221 203 217 219 223 309 469 617 629 621 642 607 586 569 528 510 543 532 503 475 475 450 458 428 363 287 285 277 299 307 321 341 347 353 361 365 375 406 465 487 463 444 393 385 383 389 383 381 367 353 327 297 335 343 325 297 279 285 281 263 271 349 379 412 438 452 461 461 416 408 365 
211 215 213 217 207 221 221 207 219 219 225 227 227 245 357 536 636 640 648 677 617 538 487 518 553 582 553 507 467 430 424 422 389 335 281 273 277 299 315 315 333 335 339 347 353 341 349 385 438 456 465 452 385 381 383 375 373 381 395 375 339 339 359 357 335 333 319 269 279 297 337 371 402 436 460 471 454 414 420 412 
215 221 197 215 203 217 221 217 209 195 213 211 209 223 343 520 594 632 652 656 636 503 456 508 534 563 547 471 448 434 393 385 339 313 267 241 255 321 339 341 347 353 359 343 337 321 341 359 367 450 473 460 395 373 367 367 371 387 391 379 367 345 345 365 347 383 345 319 281 307 337 359 389 432 463 467 475 426 408 383 
213 209 205 219 219 209 221 223 221 217 211 225 219 247 305 485 572 605 629 658 603 522 477 528 547 561 528 456 440 410 369 349 327 305 245 215 243 295 341 359 363 349 363 363 337 331 341 347 349 393 471 454 440 408 402 379 379 367 349 353 345 347 345 345 359 359 353 305 281 273 283 295 343 385 414 424 440 400 381 365 
207 225 217 225 217 229 217 221 225 201 207 203 209 221 263 404 567 576 588 627 588 570 555 545 539 534 508 446 410 363 347 345 309 297 205 185 237 297 329 363 361 351 353 351 339 311 311 339 351 359 454 481 467 475 452 422 377 329 305 285 283 277 279 273 269 261 263 249 257 231 225 227 257 297 355 369 381 385 389 385 
189 197 205 205 229 223 217 207 223 219 215 205 211 233 243 289 408 471 491 518 528 493 426 343 347 481 479 456 422 391 357 367 297 251 155 165 181 285 343 357 369 345 331 319 325 299 301 361 349 349 442 477 485 477 448 414 361 289 259 257 251 239 225 213 219 229 247 231 237 233 247 285 351 371 361 383 416 373 410 387 
199 199 223 219 233 217 223 227 209 223 219 221 221 229 225 233 259 265 277 285 293 267 267 249 275 371 475 477 432 402 391 367 329 261 151 157 165 251 329 357 371 345 327 333 313 301 307 373 341 347 442 487 487 479 448 337 331 301 293 281 295 301 249 225 237 239 241 243 235 253 313 377 402 402 414 430 428 422 430 402 
199 207 217 227 223 225 221 217 207 225 225 209 217 227 219 227 225 239 237 239 225 239 231 225 241 289 463 471 432 408 400 391 355 279 177 175 175 263 317 347 367 353 335 325 329 321 327 365 383 418 436 491 487 458 367 341 329 347 337 329 327 319 311 297 261 239 241 265 267 339 369 398 432 424 430 450 469 463 416 311 
217 211 207 211 219 221 219 219 217 219 225 215 209 239 211 209 235 229 217 217 223 221 211 219 225 251 408 483 454 400 375 393 369 329 237 187 191 243 323 355 391 355 353 347 341 347 367 428 448 446 442 444 440 395 365 325 347 349 361 331 319 325 329 343 319 291 283 295 333 369 387 397 420 432 432 458 465 400 309 255 
199 209 215 211 225 209 219 223 209 205 215 215 209 219 215 205 219 215 229 219 231 217 219 211 219 221 355 499 454 420 379 357 371 347 309 257 215 261 337 383 395 391 383 381 406 432 456 461 475 456 428 400 395 371 355 351 339 339 343 337 351 341 331 341 347 343 345 353 337 343 359 371 412 422 418 438 398 263 247 221 
193 205 209 213 223 229 221 229 213 213 223 213 203 213 209 213 209 211 213 211 223 193 207 195 207 227 289 473 467 426 391 367 389 395 387 381 363 383 408 416 434 428 438 469 493 508 489 461 477 418 379 398 371 363 347 357 355 355 359 359 343 351 345 341 339 343 345 335 321 309 331 349 381 412 416 353 273 215 223 207 
215 213 199 203 205 221 209 213 219 217 217 205 221 223 223 209 209 209 225 211 213 209 213 193 203 205 257 428 452 420 432 430 438 422 412 416 404 479 501 491 479 479 501 522 520 522 495 436 385 337 351 363 363 351 355 353 359 343 365 379 359 351 357 357 355 359 341 329 297 273 301 335 379 361 301 221 227 207 207 211 
203 209 211 219 221 209 201 215 207 205 203 195 223 233 221 211 213 209 205 211 209 201 195 201 207 199 205 275 383 444 440 448 434 428 416 424 434 508 514 507 524 528 532 539 528 491 412 305 287 289 321 333 343 353 351 367 393 357 385 375 355 355 377 363 395 373 363 321 275 269 291 297 291 247 221 225 231 181 215 203 
223 219 217 209 205 217 203 213 203 207 203 203 219 209 211 209 209 209 207 205 205 217 193 203 201 199 195 211 233 283 349 410 424 412 418 422 454 534 514 510 530 538 526 501 420 319 257 231 233 247 261 259 275 299 333 355 357 363 363 387 373 377 385 389 404 373 349 299 235 233 233 215 215 213 209 207 211 209 207 211 
207 199 199 203 205 189 207 221 191 203 201 217 209 205 197 211 207 197 211 201 207 189 195 199 201 173 201 197 199 205 233 251 279 287 335 369 400 436 442 446 460 452 385 291 233 227 229 207 215 217 229 227 219 215 231 271 287 321 339 365 357 365 365 395 389 359 329 283 227 207 205 175 185 207 201 205 195 185 205 205 
201 195 199 203 191 181 191 217 193 191 201 207 191 197 191 205 189 191 187 195 183 197 183 191 177 175 175 189 179 177 199 195 201 193 219 245 265 239 239 237 245 237 205 191 189 199 193 183 201 215 215 215 209 205 191 209 209 211 255 253 279 281 287 309 337 299 285 239 195 169 179 161 169 181 189 193 209 185 209 193 
179 163 195 189 197 193 191 191 191 179 191 177 189 197 209 197 199 193 189 193 187 179 179 161 169 167 167 167 171 181 181 187 191 177 195 207 185 183 169 167 173 165 163 173 181 179 183 181 195 203 197 203 187 189 187 195 195 201 189 199 181 175 175 181 201 189 211 189 171 157 159 143 138 167 199 171 199 181 205 195 
185 187 167 177 173 185 189 185 177 177 193 173 183 197 187 169 185 195 183 187 185 179 165 179 167 173 147 177 167 157 177 175 177 165 171 201 185 155 169 157 165 147 157 151 165 167 175 181 181 189 187 205 181 191 185 177 183 179 195 169 177 169 179 163 169 163 187 163 163 163 169 141 147 177 195 171 197 185 199 213 
207 195 183 183 171 191 189 201 189 183 185 171 189 179 179 183 191 173 179 181 171 169 161 167 175 161 138 153 153 157 177 179 183 189 181 199 197 183 173 173 177 159 169 175 177 191 197 201 211 209 209 201 195 189 191 191 181 183 189 179 161 175 167 161 161 145 175 161 145 149 145 128 153 149 155 167 171 163 189 211 


