P2
80 60
801
33 37 47 37 45 41 43 33 35 37 22 12 25 37 41 16 29 14 25 27 12 25 22 18 18 16 25 37 31 8 16 43 37 37 27 39 43 47 51 58 51 51 29 33 43 39 35 22 39 64 58 70 66 77 77 87 106 91 72 79 49 43 22 20 14 20 27 22 31 56 62 49 79 72 70 98 77 72 77 79 
39 35 41 58 56 47 47 43 33 35 25 12 12 27 25 18 27 29 16 14 25 22 25 12 14 14 33 25 20 20 29 29 29 12 20 39 33 39 47 43 54 41 39 31 37 29 27 27 41 56 62 56 58 72 64 77 95 93 49 60 39 37 29 6 10 12 18 27 18 27 51 54 79 70 75 81 64 64 66 87 
33 51 58 43 58 39 41 47 39 43 35 16 16 18 31 18 22 25 14 29 22 18 27 16 41 22 33 41 20 25 35 29 29 33 16 39 51 47 49 54 56 45 29 41 33 35 31 41 31 54 62 75 72 83 83 91 87 95 45 60 39 39 25 22 10 18 22 20 12 12 35 37 51 91 72 81 68 81 77 89 
49 39 45 45 51 33 51 43 47 47 33 22 8 27 16 25 35 35 41 22 20 20 43 29 29 33 22 33 16 22 27 22 27 20 27 47 37 49 56 60 58 43 51 43 56 41 41 45 49 58 72 77 85 89 83 102 95 85 64 54 58 54 33 35 10 4 27 18 27 25 41 31 56 60 51 81 77 79 66 89 
49 49 39 51 54 39 58 56 29 49 47 20 29 25 22 22 22 31 25 35 18 31 29 18 27 29 18 29 20 31 37 31 22 29 35 39 47 54 54 47 56 39 31 39 39 45 37 39 41 56 70 75 77 83 100 108 112 98 62 66 72 54 41 41 10 27 20 14 0 25 31 27 41 47 49 70 60 72 70 112 
45 45 51 54 51 49 49 49 47 58 29 22 22 18 33 16 35 27 29 31 8 31 25 35 25 41 31 27 20 16 37 29 22 27 25 41 39 66 58 58 51 45 47 45 49 47 47 43 41 62 51 81 81 81 108 112 120 116 91 79 62 56 31 31 14 12 27 27 8 14 33 25 41 43 49 83 72 70 85 70 
54 45 43 51 37 37 47 58 68 45 37 14 27 16 29 22 16 27 18 33 14 33 27 16 29 35 43 29 20 25 49 37 20 16 22 39 39 64 51 64 60 45 45 41 49 49 51 39 31 58 72 85 81 89 110 122 127 110 83 83 75 58 47 33 14 18 20 18 14 39 35 29 39 51 54 79 70 79 87 87 
39 56 66 43 54 49 54 60 70 58 37 18 29 33 20 27 20 25 27 29 25 27 16 22 43 37 37 43 27 22 29 35 22 27 22 47 43 62 68 75 77 49 49 54 51 39 45 51 45 72 85 98 95 112 100 120 129 125 83 77 77 66 49 33 20 22 25 12 25 45 41 39 35 51 54 81 75 85 89 91 
31 39 54 49 56 45 51 70 35 51 33 20 20 25 29 18 27 18 22 29 27 22 29 35 43 37 25 43 27 22 31 35 14 39 27 43 54 49 58 64 70 58 41 51 51 43 43 54 62 64 81 89 93 112 93 110 112 114 85 95 64 83 58 41 27 16 22 22 20 33 35 37 45 43 49 75 75 83 81 98 
37 49 33 43 43 45 43 37 35 49 33 22 29 18 35 18 25 16 27 25 20 29 37 22 33 31 27 45 35 25 31 27 39 27 35 54 58 51 56 66 64 62 43 62 60 51 58 47 54 75 81 87 89 100 100 110 110 108 85 104 87 85 81 43 18 33 25 18 37 33 39 33 49 56 43 87 83 95 104 114 
20 31 49 54 47 39 47 39 41 31 22 16 20 4 29 14 18 25 31 29 22 37 39 16 31 14 25 37 27 31 25 31 22 25 37 47 54 62 66 64 72 66 49 64 60 68 58 70 77 102 106 110 114 110 118 120 135 125 122 139 139 168 133 79 56 31 29 29 27 31 35 43 64 70 70 104 116 133 135 153 
39 33 47 35 47 39 54 39 51 47 35 35 22 16 16 20 22 20 31 33 33 27 31 16 29 33 29 29 41 33 33 31 22 20 29 54 66 81 83 77 75 79 70 98 110 120 160 170 186 225 235 237 215 207 194 202 221 217 245 363 383 413 405 296 106 58 41 51 41 51 72 70 104 118 118 174 221 237 225 245 
39 31 49 49 56 68 54 56 51 54 35 27 33 16 22 25 18 31 20 39 25 27 37 39 39 31 16 25 33 22 33 35 29 31 39 70 89 118 91 100 110 112 137 247 349 413 473 471 499 553 565 541 507 493 455 459 467 499 529 535 469 469 485 483 349 116 85 79 102 186 237 251 245 265 259 284 261 253 265 245 
41 33 41 33 45 43 31 41 33 41 39 22 14 14 18 6 18 16 29 27 10 29 22 31 29 22 22 33 27 20 37 37 29 43 56 131 221 229 166 194 265 334 415 487 501 499 513 515 519 571 557 531 517 507 501 511 515 549 541 529 473 461 467 489 457 288 237 227 257 300 330 326 334 326 306 292 259 239 249 257 
41 45 33 49 58 45 45 39 27 49 31 12 33 25 20 16 31 29 27 31 27 39 29 29 29 35 22 14 29 27 41 58 68 118 211 267 343 439 465 463 491 491 513 571 543 511 507 515 519 539 509 495 443 417 397 399 447 511 523 519 493 449 463 457 441 385 322 316 330 337 339 334 332 324 302 272 202 190 196 196 
51 47 33 60 54 54 47 47 56 56 33 33 27 27 33 14 27 22 22 16 35 35 37 27 20 27 25 31 33 39 70 162 247 328 332 308 339 487 525 547 553 553 559 598 571 503 459 413 389 357 296 217 211 202 202 219 274 405 493 513 493 487 499 431 395 387 341 322 324 337 324 314 314 308 280 239 153 131 139 170 
35 51 47 33 51 33 35 47 39 49 20 18 27 29 33 14 33 20 25 29 29 35 35 43 25 22 14 37 54 93 253 413 445 437 423 389 369 477 565 577 559 537 507 463 359 241 174 151 155 141 133 151 178 221 274 306 367 401 427 469 465 423 413 375 387 347 339 339 334 322 306 316 314 337 316 269 190 162 158 180 
37 47 35 49 45 62 60 47 45 51 31 18 22 18 35 22 29 29 16 27 25 27 33 39 41 35 27 45 91 314 457 477 455 447 445 449 425 489 559 551 533 407 296 211 200 219 261 267 265 280 302 302 322 373 355 334 397 427 413 437 395 393 387 375 373 349 337 343 328 328 330 337 347 363 367 302 219 192 190 192 
29 33 47 47 39 51 41 45 35 43 39 20 25 29 25 20 27 25 31 29 29 25 29 27 35 35 37 72 237 451 467 441 433 447 459 469 503 519 557 537 467 425 405 405 405 419 443 399 365 365 322 337 314 357 353 341 377 417 395 411 387 375 361 363 367 337 334 334 330 320 337 345 343 371 361 310 198 186 186 190 
25 43 37 49 45 43 31 49 35 41 45 31 22 12 22 16 22 18 12 25 29 31 22 29 25 37 37 79 330 423 439 437 405 419 431 499 499 527 495 471 457 435 411 427 429 437 463 419 385 375 332 328 337 334 330 314 361 411 395 383 371 363 363 359 363 339 345 332 328 343 351 355 365 361 363 302 202 202 190 198 
51 37 33 43 37 35 29 41 39 35 45 27 22 27 25 18 18 35 37 41 29 37 33 39 37 35 31 95 393 473 509 481 457 439 421 485 497 491 461 435 439 433 413 411 435 445 457 443 429 381 339 334 330 334 318 310 334 395 395 383 367 371 361 357 353 341 363 369 375 365 371 355 369 345 280 239 194 190 194 219 
27 49 45 41 41 29 47 49 43 33 43 31 41 35 27 22 33 27 39 35 29 41 41 39 47 47 49 102 381 509 523 487 453 451 443 501 485 425 425 413 411 407 403 429 457 459 443 433 399 409 359 341 314 332 312 292 318 381 365 383 357 355 361 343 357 361 375 387 377 367 361 316 272 204 158 164 182 194 204 198 
43 58 47 37 49 49 39 56 45 43 49 37 35 25 35 37 33 33 43 37 29 49 49 37 54 49 62 114 375 509 547 519 501 485 497 521 445 403 399 421 433 423 415 431 469 461 471 445 385 371 369 339 316 312 298 278 288 363 365 373 347 349 357 363 389 385 387 355 306 253 168 100 87 81 114 137 180 182 192 211 
39 43 49 39 51 41 43 41 31 29 35 41 27 35 29 37 39 41 62 47 35 58 66 60 47 64 129 192 385 515 539 541 535 525 523 493 429 405 413 425 445 431 441 453 467 463 459 433 397 371 349 345 300 290 290 272 269 330 347 355 337 332 355 385 377 375 341 227 108 45 60 27 45 45 120 131 172 174 178 200 
49 43 56 58 45 39 39 54 43 37 49 31 31 33 27 45 58 77 127 120 131 164 188 120 104 133 292 409 349 489 541 543 535 535 523 477 423 419 423 427 443 457 467 475 477 453 435 413 385 373 339 339 294 286 278 276 280 312 308 328 310 326 347 375 359 245 153 116 72 68 58 51 60 75 100 141 168 180 174 184 
49 49 35 49 47 33 47 39 54 45 45 25 37 33 39 58 114 247 326 399 461 527 525 451 397 363 499 638 551 449 505 527 531 533 507 461 427 413 401 405 431 457 471 481 481 463 427 385 363 371 349 328 304 296 296 276 284 294 288 292 294 314 332 385 383 280 204 141 122 139 153 160 196 237 288 245 178 182 204 192 
39 45 47 58 39 43 51 47 41 56 49 35 45 45 47 83 292 405 587 628 661 614 642 634 636 606 661 701 677 537 469 475 485 469 459 437 415 411 413 409 445 465 475 479 483 451 423 363 359 357 353 339 306 294 298 284 274 300 302 304 300 345 347 379 417 365 339 318 341 351 389 383 399 413 393 332 192 198 194 188 
58 47 45 51 49 41 45 39 45 51 45 31 31 18 54 151 332 551 712 646 665 626 634 642 652 610 644 687 685 610 437 441 413 379 397 401 401 421 423 423 441 461 469 465 463 433 415 375 357 375 361 345 334 312 310 300 296 308 318 373 353 359 369 387 395 405 355 343 365 415 443 433 439 417 399 361 204 188 204 202 
51 43 51 43 51 47 33 41 41 47 39 45 37 35 87 198 373 638 703 663 675 638 606 585 626 598 616 654 685 656 529 415 389 401 429 433 423 429 423 419 443 467 465 467 455 441 431 395 371 361 359 365 334 337 320 300 310 308 357 385 365 383 371 393 387 377 345 357 407 453 455 427 405 421 447 383 207 200 196 200 
37 31 54 58 47 45 37 51 56 60 60 45 39 39 87 223 332 610 697 669 675 628 581 533 583 612 604 648 693 665 583 493 499 511 511 473 439 413 401 413 455 479 471 459 457 443 441 415 393 393 365 351 328 314 332 343 318 310 363 379 367 367 373 367 377 371 359 379 431 421 393 371 409 435 431 383 229 192 202 213 
27 33 54 56 49 41 37 39 45 56 47 37 41 41 75 233 316 507 718 675 675 628 642 659 650 618 563 596 632 636 535 497 535 527 515 487 435 407 393 403 417 437 447 441 459 443 443 435 413 407 385 365 330 328 328 341 320 314 345 357 363 357 351 330 345 341 375 371 373 355 363 407 423 413 383 324 207 211 194 221 
47 43 45 56 51 43 43 43 51 56 54 37 41 37 72 180 316 387 650 681 669 661 624 634 632 489 296 312 409 431 417 527 541 543 539 515 447 419 403 403 417 415 401 417 429 447 463 457 437 425 397 393 347 334 324 337 318 304 328 339 345 341 326 308 332 339 361 355 337 375 401 387 377 349 343 294 200 207 213 225 
47 54 60 60 43 49 56 54 56 51 47 35 33 47 60 110 286 337 509 642 612 598 543 509 316 145 85 135 296 310 320 475 537 547 537 527 497 461 411 413 411 403 397 413 427 435 451 463 451 423 417 415 375 351 337 339 318 330 341 361 357 355 349 324 324 339 359 379 373 379 367 347 322 316 286 261 202 215 213 229 
47 68 66 60 56 45 41 49 56 60 64 41 35 33 33 62 145 239 322 401 399 302 194 147 81 60 43 68 141 190 401 461 491 527 519 499 501 469 411 395 401 411 399 407 413 439 461 457 469 463 457 419 421 397 353 363 334 341 349 387 363 361 349 341 353 341 365 379 369 343 343 294 265 209 160 190 211 237 249 225 
49 43 49 54 43 47 43 45 51 43 62 51 45 31 47 37 68 87 122 95 87 62 66 47 43 41 27 39 66 89 409 503 479 487 463 461 453 457 435 429 451 455 461 451 437 465 483 473 491 489 453 423 427 417 373 371 341 341 347 379 385 387 369 375 397 381 397 363 284 233 196 147 89 64 66 122 209 217 235 249 
54 49 64 41 56 49 47 47 49 56 64 56 35 33 54 29 41 47 79 64 39 51 47 33 37 33 27 45 43 77 300 505 463 451 443 435 431 445 461 477 519 519 555 563 547 529 525 487 453 395 363 397 421 425 387 355 347 353 328 393 367 377 411 443 475 469 463 298 116 77 68 43 37 35 35 100 225 227 225 211 
49 41 72 58 54 47 47 51 60 56 62 51 35 41 35 29 35 43 41 37 37 45 58 39 41 47 35 56 41 58 160 429 459 435 443 453 477 493 513 487 469 497 517 511 531 517 545 604 561 499 455 471 467 451 391 306 269 265 272 282 278 363 503 527 529 529 467 213 66 51 35 37 37 33 35 125 239 255 276 280 
43 49 58 66 39 47 60 45 56 70 83 54 41 39 29 25 33 37 41 35 41 37 37 35 43 45 37 43 37 43 83 190 377 467 489 515 497 479 461 409 393 397 423 421 459 453 469 557 587 585 591 602 608 620 610 545 495 425 349 324 387 499 543 521 513 481 326 104 56 29 33 29 27 35 39 149 286 304 294 290 
37 45 60 66 62 58 49 58 41 43 60 51 47 41 47 22 27 45 58 41 39 37 43 41 56 45 29 45 27 41 56 89 141 267 385 447 455 431 391 371 375 375 421 441 421 419 435 505 577 585 581 593 593 600 600 596 591 565 539 577 537 585 569 523 503 441 176 70 47 31 29 39 45 39 64 149 276 302 302 294 
58 60 70 81 51 37 39 49 58 60 58 51 49 35 37 45 37 56 102 77 51 45 51 47 45 35 27 35 27 33 51 56 68 89 120 239 341 363 355 357 355 373 437 445 405 409 411 409 493 535 551 563 577 563 549 545 535 501 489 501 487 463 497 493 461 249 91 49 62 56 51 47 45 49 51 151 267 280 278 269 
51 77 75 83 64 58 49 58 56 66 64 68 49 43 47 56 91 202 300 343 188 108 83 54 49 58 33 43 37 39 49 56 77 120 225 393 471 475 377 343 357 421 443 415 393 429 401 235 151 182 215 247 249 267 237 235 223 194 166 182 155 137 178 202 211 116 85 98 102 108 108 64 62 79 64 100 151 176 168 182 
51 62 60 58 60 45 39 51 39 64 43 45 43 41 62 89 257 343 511 708 642 437 249 79 49 49 49 39 35 43 58 100 257 405 457 451 453 469 483 437 395 423 411 379 395 421 417 162 66 85 72 120 112 125 114 129 137 98 87 91 95 149 149 170 184 219 247 280 294 294 235 190 209 194 166 141 110 110 133 166 
56 47 58 60 54 54 45 54 54 62 56 49 47 45 70 186 369 379 553 737 734 732 610 249 85 64 41 49 35 64 141 328 395 411 413 407 409 433 473 537 473 383 381 371 375 399 427 170 64 79 93 108 151 198 215 172 176 202 200 204 263 330 351 347 377 365 383 403 409 381 345 328 332 332 300 251 158 145 141 162 
41 54 64 62 64 58 56 56 49 51 56 60 56 39 106 296 475 515 581 667 763 747 724 600 290 89 43 56 51 75 328 437 425 427 427 425 407 393 397 471 423 367 353 355 385 399 435 204 133 204 276 341 343 361 377 403 337 349 405 343 347 375 379 401 409 387 405 413 399 365 347 343 339 341 345 292 215 198 190 207 
54 56 56 64 60 49 62 68 62 47 64 58 47 54 186 393 529 703 735 732 765 790 759 689 618 296 66 56 60 190 465 483 497 475 463 455 449 439 411 401 369 326 341 330 383 413 375 369 421 437 463 431 403 357 401 399 355 387 399 367 351 389 381 389 395 359 363 353 320 316 343 365 375 385 365 316 241 209 217 225 
45 60 62 45 60 54 66 62 51 51 64 58 70 81 259 423 563 714 801 786 770 782 768 739 685 533 166 77 95 318 513 509 497 487 465 437 419 427 433 427 355 328 326 341 407 407 369 433 447 465 469 433 421 361 395 387 345 385 381 363 359 351 373 347 361 355 357 337 328 334 353 377 411 425 427 316 241 229 237 247 
58 58 54 60 51 56 56 60 60 56 49 45 68 79 274 423 547 659 797 780 755 765 776 759 741 626 385 104 158 465 549 525 507 503 473 457 443 419 403 401 381 373 365 375 369 339 345 423 441 441 427 457 411 371 397 407 363 391 357 345 353 351 353 318 345 367 363 361 361 359 377 393 395 441 459 361 253 235 229 259 
58 51 66 60 62 60 45 70 56 54 68 64 62 102 290 437 527 630 745 766 761 759 782 761 718 648 509 247 347 509 521 505 509 489 497 495 483 457 435 427 393 397 403 399 341 349 337 409 447 441 413 439 437 369 413 417 381 393 437 435 421 415 379 339 337 347 371 393 375 387 385 397 389 413 459 365 251 221 233 253 
51 66 62 70 51 43 56 60 58 43 49 45 62 89 221 397 507 628 728 722 753 763 770 759 722 714 710 652 509 503 515 527 527 519 513 503 483 455 445 419 385 387 409 377 363 359 373 429 485 441 411 423 469 375 409 419 391 373 405 425 403 431 419 391 365 367 387 415 439 429 429 421 421 421 417 334 245 237 257 261 
62 68 62 62 62 47 66 68 54 49 66 72 66 77 147 267 411 535 691 712 722 763 747 751 776 774 745 673 513 481 499 485 485 479 461 459 445 441 455 417 409 405 399 375 375 383 403 449 505 425 411 457 489 365 411 415 383 351 397 387 373 379 395 389 395 399 417 431 489 489 485 455 445 429 387 316 257 253 263 265 
62 70 56 56 62 54 58 66 64 62 60 47 70 60 91 147 274 353 457 589 751 774 782 792 801 799 759 624 509 489 491 493 485 459 445 417 433 447 453 487 493 463 411 373 387 393 423 481 493 431 429 479 465 381 415 401 361 357 403 373 351 363 383 379 419 401 427 421 463 463 483 467 445 401 316 300 253 241 257 269 
54 72 62 62 54 58 68 56 60 60 60 54 77 60 64 64 116 186 318 447 571 671 718 792 792 772 718 579 557 553 565 537 523 485 439 427 447 473 503 545 517 475 483 421 403 395 455 491 469 443 459 493 465 363 417 413 345 381 379 361 347 373 387 409 423 407 443 433 439 461 453 441 437 419 276 272 251 241 257 286 
51 60 58 58 64 58 58 47 62 49 68 60 66 54 64 56 72 89 139 178 227 288 296 505 774 792 667 575 571 555 545 499 461 447 447 445 453 471 495 539 511 445 495 447 403 423 469 467 449 483 461 495 421 369 443 411 361 395 363 365 375 401 381 417 413 411 419 425 423 419 413 431 437 423 278 292 267 229 239 280 
56 60 62 49 66 72 45 54 56 54 54 64 66 68 60 47 54 47 81 66 81 98 129 180 493 728 579 561 541 507 515 523 509 501 483 491 479 477 479 489 489 441 485 453 435 437 461 457 513 509 489 501 381 409 489 427 363 383 357 373 395 415 405 411 407 407 409 405 401 425 437 453 465 427 322 308 276 247 219 280 
49 60 68 66 66 70 56 43 56 58 51 60 72 62 62 37 33 60 54 51 56 72 79 120 225 521 531 537 541 531 501 477 509 521 527 525 511 467 387 363 439 473 445 489 461 467 455 507 515 515 515 475 363 435 527 431 375 391 379 373 421 429 405 397 399 435 423 419 447 433 453 423 451 427 284 322 308 239 213 276 
39 41 56 62 47 51 47 51 43 47 54 56 47 54 58 45 43 39 45 43 47 56 66 70 147 433 493 553 545 513 491 463 419 435 453 461 427 357 387 429 439 451 465 509 505 479 465 503 491 515 519 431 343 453 531 455 423 395 383 383 417 433 405 403 417 443 443 437 449 443 425 405 423 417 298 328 304 245 225 251 
68 45 68 68 58 62 60 54 51 66 43 54 68 49 58 41 41 39 47 47 43 45 62 62 108 359 525 513 487 489 499 481 473 467 439 387 349 363 383 447 471 451 477 509 505 473 449 491 483 511 491 383 363 465 537 467 453 439 391 385 397 403 393 417 437 459 447 431 427 417 411 397 411 397 294 320 326 245 219 245 
39 66 72 87 64 70 66 56 62 56 62 64 56 79 54 39 49 33 31 39 43 45 56 62 93 294 473 525 539 525 519 479 453 437 399 343 353 383 423 431 465 481 495 487 495 469 461 463 481 459 439 377 369 461 523 475 491 457 403 379 371 377 421 437 441 431 445 409 397 399 415 417 421 397 265 312 284 253 233 241 
62 66 68 62 70 68 64 51 54 58 56 58 66 62 54 43 39 45 47 39 54 41 64 54 100 292 485 537 533 545 503 453 423 421 351 353 397 417 439 455 481 471 457 465 441 431 431 429 433 401 375 377 355 483 489 451 505 459 403 399 369 371 413 413 403 403 413 409 393 395 395 399 391 369 265 314 292 253 239 217 
54 62 70 66 60 81 56 62 60 66 58 56 60 72 56 64 56 43 41 47 31 45 60 60 100 284 523 557 555 527 497 495 439 361 367 421 443 465 451 461 461 467 443 433 419 389 425 401 391 373 324 318 351 443 445 433 473 457 407 393 357 367 401 367 395 409 427 379 359 369 381 367 349 308 233 282 284 251 231 241 


