P2
80 60
658
91 119 99 101 99 91 87 87 93 103 83 77 79 83 79 69 79 73 87 75 69 83 87 95 79 65 97 81 81 81 81 81 87 77 81 81 77 75 95 87 83 93 77 87 109 105 101 91 105 101 103 103 85 83 77 83 113 115 103 117 131 107 133 129 101 107 113 121 119 79 87 75 79 83 87 103 107 153 227 427 
97 107 103 91 73 91 91 75 75 103 87 87 77 81 79 77 89 87 67 67 73 75 91 77 63 79 83 79 65 79 79 69 93 79 87 87 79 93 95 87 85 87 87 91 95 107 99 91 105 107 111 101 93 81 97 99 117 135 143 139 141 163 163 155 147 135 149 141 135 123 95 93 101 77 91 113 137 203 367 485 
77 91 95 101 91 91 87 81 75 103 67 81 71 81 77 71 67 77 77 75 77 81 83 79 89 87 97 85 91 89 75 79 75 71 95 99 101 81 95 87 91 95 89 93 101 111 105 121 109 123 119 115 119 103 93 123 159 193 217 265 257 237 205 195 201 217 211 203 183 163 153 149 133 153 167 191 217 345 472 503 
87 109 89 95 83 85 85 95 73 91 79 89 75 73 75 71 81 81 71 69 77 77 83 85 91 95 95 95 93 87 101 89 81 89 85 93 99 95 83 91 95 101 109 99 127 103 101 115 109 129 125 131 137 115 117 145 227 353 390 415 450 514 444 404 382 404 408 427 394 337 347 328 324 351 367 330 384 475 497 516 
83 91 95 91 91 79 81 87 87 89 83 81 83 75 85 73 71 79 83 83 67 101 73 73 85 83 85 101 93 111 101 93 87 99 89 105 103 89 91 87 91 93 95 93 105 109 111 115 109 129 151 209 227 181 141 193 386 452 444 493 526 593 566 541 518 506 489 520 504 454 442 460 415 433 415 431 497 551 530 549 
89 95 107 93 97 93 93 75 89 101 79 101 79 69 85 71 77 85 77 81 91 93 81 85 99 97 103 107 103 103 99 91 101 89 101 93 107 101 95 95 99 93 99 93 113 117 113 135 133 163 284 460 460 314 163 320 499 518 506 520 564 616 595 549 553 553 535 495 501 506 468 468 468 456 429 442 528 580 526 557 
87 99 99 85 81 91 95 89 91 97 89 99 91 79 91 87 69 85 77 83 87 103 99 87 93 81 107 99 103 101 93 91 95 89 89 109 93 103 97 103 113 111 101 101 119 121 115 129 113 169 419 530 499 419 257 485 547 557 532 514 537 580 572 545 537 532 534 460 458 464 483 470 468 470 419 421 493 568 553 541 
89 93 109 87 105 105 95 103 87 101 95 85 95 99 87 89 79 81 95 99 91 93 93 89 87 95 109 105 107 107 99 93 101 101 95 91 119 101 115 99 117 109 111 109 131 127 127 137 129 217 448 530 514 464 388 553 585 583 528 444 450 491 491 479 487 487 493 454 417 413 442 493 466 479 417 417 446 503 534 530 
79 83 89 99 85 95 81 87 87 105 83 79 95 75 81 83 83 71 71 91 79 83 93 83 93 97 95 91 97 101 87 91 97 97 93 97 95 109 89 87 105 101 95 109 115 135 111 133 155 229 406 497 512 503 532 583 604 591 485 382 417 456 437 472 462 442 458 448 427 423 411 452 454 435 408 386 394 427 466 516 
77 99 111 91 85 103 107 103 85 99 91 79 91 95 105 85 71 81 91 77 93 89 101 79 91 93 97 89 111 95 85 97 91 99 107 105 93 87 85 87 93 99 105 101 111 125 111 141 197 335 437 504 528 520 566 593 599 608 606 524 450 466 458 468 452 433 444 435 408 423 456 400 408 408 361 351 367 386 415 462 
85 83 111 103 87 99 95 83 107 83 81 99 65 83 81 85 89 71 87 79 73 81 83 95 83 81 101 97 103 93 93 93 89 85 89 97 89 93 81 91 109 109 97 99 111 119 125 145 253 462 600 623 576 549 580 587 597 614 621 658 600 456 448 410 390 413 427 404 394 429 450 404 382 373 328 328 361 357 380 425 
87 91 101 85 85 109 93 99 81 95 85 97 79 69 91 81 75 81 73 71 89 87 95 83 87 99 89 85 99 89 93 91 97 97 95 107 115 95 87 85 103 99 97 115 109 119 123 159 306 562 637 627 600 576 576 602 593 616 614 637 614 516 439 425 406 437 441 394 406 439 452 427 359 390 343 310 349 375 398 454 
69 99 101 79 97 101 83 85 83 93 83 89 83 69 81 77 81 87 69 71 77 81 91 89 91 81 97 75 91 95 89 89 97 83 91 93 99 87 103 87 101 107 99 107 121 121 125 153 324 566 648 637 627 583 576 593 595 583 585 618 510 487 493 477 479 450 382 384 408 437 442 406 375 384 375 339 359 382 431 475 
91 95 91 83 75 109 101 77 79 93 91 89 85 87 83 57 73 93 77 83 75 85 75 89 71 69 81 75 83 89 91 99 87 87 79 85 95 85 87 75 101 111 97 105 109 115 121 143 290 489 637 650 610 557 547 589 600 578 564 522 388 479 481 468 417 375 388 406 411 431 425 413 377 394 382 373 384 400 439 483 
89 99 95 83 95 87 93 71 85 95 77 83 81 73 65 75 77 75 73 71 71 87 83 73 73 81 71 81 97 91 87 89 77 85 93 103 75 93 85 89 109 107 97 93 115 99 109 123 203 359 585 593 560 524 534 551 581 580 587 581 441 421 382 379 373 386 415 437 413 402 398 417 386 379 379 380 400 411 442 487 
91 97 93 91 77 89 81 77 89 81 75 67 79 71 81 65 69 75 67 71 77 67 87 79 61 83 73 73 81 75 79 83 77 79 85 87 81 87 99 89 99 97 89 97 103 107 113 113 125 193 343 417 427 481 489 394 479 566 595 597 541 477 365 363 394 394 406 425 396 380 382 410 371 375 363 379 411 439 473 501 
81 87 87 75 87 79 89 77 83 75 67 89 69 61 71 63 69 71 43 61 67 77 59 79 67 53 69 77 71 69 65 75 87 73 83 89 81 83 91 93 113 103 95 95 99 115 125 113 113 131 145 181 298 473 470 217 270 446 595 595 570 534 460 396 408 429 437 425 402 382 367 337 328 369 361 386 439 477 506 524 
65 65 73 55 81 85 75 75 69 73 61 63 81 65 77 59 65 75 77 67 63 67 57 87 79 73 85 83 79 89 77 79 81 83 93 89 97 95 91 97 99 111 113 91 101 111 113 119 123 129 125 173 375 499 468 205 185 243 495 568 541 534 508 481 411 382 359 335 314 286 270 247 211 274 332 402 481 491 518 528 
81 99 101 91 81 83 81 81 91 81 73 69 73 79 79 73 77 69 79 67 51 61 69 73 71 81 85 71 91 99 87 93 91 81 95 97 99 95 101 93 109 105 93 111 119 109 113 121 129 135 129 257 472 516 472 215 165 177 280 481 493 458 446 353 247 223 225 225 207 185 159 161 129 143 187 328 479 506 514 528 
95 83 97 85 89 77 79 77 77 87 77 85 75 55 71 85 67 73 79 63 85 81 81 83 81 89 87 83 87 97 79 89 85 89 95 95 99 97 97 91 105 111 107 107 117 109 121 133 123 135 127 332 485 506 460 211 165 143 163 237 316 308 261 219 205 185 201 197 181 151 143 131 113 129 143 251 466 503 514 526 
83 101 83 91 95 87 77 95 81 87 83 87 81 81 83 65 75 83 79 83 85 99 99 89 89 83 87 95 95 109 89 95 103 95 107 89 99 105 107 97 103 119 93 103 121 119 133 123 117 133 127 217 388 450 322 161 153 137 151 141 161 177 177 171 179 173 185 183 167 135 119 127 123 111 121 203 444 520 518 516 
77 113 89 89 83 99 85 85 91 97 77 79 93 89 83 83 67 81 87 89 77 85 87 71 81 85 87 87 97 93 107 95 89 79 97 99 109 103 103 97 103 119 109 95 107 115 117 129 121 121 127 147 141 173 133 135 145 131 131 149 149 157 161 177 167 165 173 163 149 135 131 117 111 111 131 181 425 524 506 510 
87 101 99 85 89 83 83 91 99 89 77 83 85 77 73 79 71 87 71 71 77 91 89 83 79 85 89 95 97 93 103 99 93 95 91 99 111 89 97 89 97 109 105 105 107 119 123 133 123 139 129 119 119 107 117 147 127 135 129 141 137 173 165 169 167 167 155 153 141 133 113 111 107 91 113 161 427 510 475 495 
105 93 89 87 81 87 89 87 93 93 89 79 93 85 87 79 73 85 73 83 89 89 105 89 81 89 85 87 95 85 89 95 103 91 97 101 101 99 101 105 99 119 111 105 119 123 117 121 115 133 123 123 123 109 119 127 139 129 147 159 147 167 159 171 159 149 167 157 149 129 107 113 101 89 91 159 390 472 460 485 
91 111 107 109 89 103 105 89 85 107 79 83 83 73 79 79 89 81 81 73 87 101 85 85 85 93 93 81 87 87 89 93 97 99 103 109 105 85 89 91 107 129 113 113 105 121 123 133 123 135 123 127 127 131 131 135 141 145 145 167 145 169 167 167 161 165 169 155 161 129 127 119 91 99 97 137 390 439 419 460 
85 105 87 89 99 105 91 87 93 105 89 79 85 87 83 67 89 73 73 97 81 85 97 89 77 83 73 85 97 101 87 95 93 83 89 91 101 99 105 101 127 235 193 125 115 133 125 121 127 145 139 141 131 159 183 189 199 197 173 177 169 187 181 173 161 167 173 155 197 215 215 215 201 183 189 195 380 400 406 437 
81 95 85 95 67 95 89 77 95 89 95 77 89 77 71 87 79 65 77 71 77 91 93 91 95 79 89 77 93 89 97 85 85 93 89 105 89 97 99 101 141 251 316 272 211 157 141 157 167 199 239 296 369 408 433 433 429 400 375 367 335 379 339 219 177 181 167 161 217 284 300 282 267 284 280 286 394 408 396 417 
81 93 91 81 89 77 85 97 79 85 79 81 79 81 73 61 71 81 85 79 73 83 77 73 73 91 95 85 93 83 79 89 85 75 85 103 97 101 111 105 127 149 294 390 398 361 322 347 369 402 411 442 454 460 466 479 495 472 439 441 456 458 448 306 211 205 189 179 225 296 314 318 302 296 312 320 398 448 400 404 
85 91 89 75 81 85 87 75 83 89 91 93 81 73 89 73 77 69 69 83 75 85 83 89 85 81 81 89 93 79 81 73 73 75 75 101 93 95 97 101 131 145 253 396 411 419 429 411 398 425 429 450 444 454 442 460 468 466 441 450 462 489 470 406 359 296 261 227 261 314 314 310 306 316 326 335 367 442 406 402 
75 73 91 85 97 95 95 81 91 99 75 87 93 71 75 73 71 71 79 75 71 83 93 81 85 83 79 79 89 81 79 91 79 71 85 99 97 99 95 105 139 251 382 408 415 427 421 406 384 396 410 433 431 446 433 450 444 444 456 458 462 468 419 379 373 367 343 345 320 316 304 322 330 326 343 349 357 371 388 404 
85 79 77 91 73 81 75 81 87 89 73 73 65 71 73 73 59 65 75 63 67 73 77 85 81 77 81 69 71 79 73 69 69 69 81 85 87 101 89 169 302 369 333 402 421 402 390 337 219 195 215 203 213 241 269 284 276 365 415 417 392 359 324 304 312 345 333 328 324 322 326 343 379 377 390 382 377 330 290 345 
95 87 69 79 99 81 89 79 71 79 69 77 71 63 75 65 63 71 79 65 77 73 81 69 65 73 75 69 87 75 83 61 81 77 83 87 81 91 135 330 280 165 169 324 386 359 276 187 131 125 117 143 111 111 129 153 163 251 359 345 324 312 304 314 332 347 341 316 312 322 328 367 379 404 402 411 377 322 312 322 
79 101 83 83 101 91 69 89 71 81 69 69 75 79 65 69 71 65 73 69 71 75 87 77 73 85 81 81 87 81 69 75 81 81 93 87 93 103 133 167 135 125 129 278 328 193 151 141 135 147 171 193 173 181 217 209 175 249 349 367 345 314 316 314 314 339 324 320 333 314 345 363 384 390 411 402 369 341 316 320 
77 111 89 87 79 101 91 75 87 99 87 69 79 89 85 83 71 83 87 75 75 83 91 81 81 85 83 77 97 91 81 89 91 85 91 89 89 103 109 109 123 123 207 310 191 141 137 147 139 251 396 413 446 473 506 489 384 359 425 369 347 314 300 290 304 347 324 347 345 332 363 369 379 379 394 382 345 347 318 308 
93 103 89 101 91 93 79 83 103 101 101 93 81 95 79 73 75 83 89 83 83 79 79 77 89 91 95 97 91 83 95 91 91 77 87 95 105 95 109 109 127 139 201 161 141 131 127 139 193 310 510 522 506 543 549 576 583 587 555 466 367 320 272 269 263 272 282 347 320 335 373 365 377 386 396 345 316 333 288 308 
81 83 97 79 77 85 99 77 93 105 83 79 85 85 79 75 87 91 81 87 85 93 91 87 95 79 93 83 91 93 93 101 95 81 99 105 101 103 101 109 117 111 123 129 129 129 127 151 227 369 522 504 514 574 537 541 543 555 574 539 415 365 322 280 263 263 278 308 312 330 367 388 382 384 355 312 324 320 272 284 
85 91 93 95 85 107 105 83 97 93 63 71 75 63 83 87 65 79 77 83 81 91 83 89 87 97 91 89 103 81 87 83 83 89 93 91 93 109 109 111 113 105 111 113 127 131 119 155 261 357 487 516 532 541 501 437 433 462 472 518 396 335 308 284 257 267 284 288 292 318 359 380 347 353 337 306 308 292 253 280 
83 93 93 85 77 87 87 81 89 89 75 81 85 75 77 83 73 87 81 85 75 81 93 83 89 87 89 95 95 91 91 89 83 81 85 103 97 99 87 97 109 103 107 105 123 115 121 143 217 280 410 460 504 539 503 429 429 425 427 487 353 314 292 284 286 292 274 267 280 306 326 345 333 339 314 308 294 280 247 272 
87 107 87 95 85 95 93 97 85 87 75 91 83 85 99 85 75 77 79 89 91 83 89 81 87 99 77 93 93 89 89 95 93 81 97 89 93 109 103 101 101 99 93 99 97 121 111 123 165 245 365 410 452 537 510 489 485 475 470 450 365 330 274 276 288 282 247 235 247 280 292 318 320 306 300 304 286 274 237 257 
93 105 93 105 87 95 97 97 81 103 81 79 73 75 91 87 67 79 83 83 91 75 89 85 83 91 93 97 89 89 83 93 97 79 95 99 95 95 91 97 109 105 95 101 105 115 109 109 127 161 245 310 351 425 452 439 423 337 357 367 320 292 280 261 239 229 203 213 225 259 276 286 300 280 298 320 312 284 241 261 
93 93 103 89 89 101 85 97 107 99 83 87 87 89 83 91 77 69 77 87 87 89 89 79 81 93 93 93 105 101 95 85 81 87 95 103 85 93 97 99 101 107 87 111 99 113 113 105 105 125 125 139 129 147 167 181 167 191 308 304 245 235 235 239 245 227 205 213 217 270 253 270 272 269 282 308 345 280 261 280 
71 85 95 79 95 83 79 101 89 91 87 75 81 67 89 83 75 87 73 77 87 77 81 77 87 85 95 89 85 89 83 87 85 75 73 93 85 97 93 85 105 91 95 87 87 101 93 109 103 111 101 103 91 101 93 113 129 215 284 272 265 245 231 243 276 261 213 177 213 235 215 245 247 253 286 408 392 288 253 272 
79 77 91 75 89 83 81 77 87 89 89 97 73 83 85 85 77 79 87 71 81 79 97 83 79 93 83 67 77 77 91 73 97 75 71 91 91 75 87 75 83 95 75 73 91 87 91 95 87 89 89 87 89 81 93 97 111 259 312 286 282 255 235 245 241 245 175 151 193 219 213 223 253 272 310 508 446 306 274 265 
77 81 89 79 69 95 89 61 75 83 65 77 69 75 67 67 59 73 79 87 71 73 87 73 79 85 81 77 73 75 69 75 73 73 91 93 89 71 87 79 81 99 79 77 93 77 93 103 93 87 97 87 83 65 55 79 117 267 322 320 278 187 137 157 201 209 195 159 161 161 211 221 239 247 304 551 464 328 276 272 
57 79 77 71 71 75 83 75 75 89 75 65 77 79 63 55 79 69 75 75 73 71 77 85 71 87 85 67 79 79 69 71 71 79 75 83 69 83 85 65 75 77 77 75 81 91 93 91 83 89 89 71 65 55 71 81 143 333 359 341 286 215 153 181 165 151 149 157 157 179 197 209 237 253 302 541 448 314 276 282 
59 89 63 57 69 63 59 77 69 71 73 65 77 59 71 63 57 79 61 69 67 59 79 77 73 63 73 67 75 53 77 73 63 59 73 77 87 79 75 65 71 75 75 75 65 69 81 79 87 77 93 75 49 53 45 107 272 423 435 415 367 278 177 145 109 63 85 159 173 165 161 183 213 223 278 464 380 290 257 286 
39 53 51 53 49 65 63 65 69 61 71 61 75 51 65 51 51 53 61 57 61 69 69 65 59 69 67 63 69 67 53 65 47 61 65 75 61 73 75 95 105 75 71 63 83 77 67 79 75 87 91 79 53 61 55 203 402 431 421 425 402 375 181 71 53 57 69 157 173 163 151 167 165 187 263 408 322 290 265 253 
39 69 55 49 51 61 51 57 51 59 55 51 55 59 53 51 39 45 57 57 45 65 69 61 65 63 59 71 55 57 47 65 57 63 55 73 83 77 67 79 209 177 103 79 71 81 87 81 81 71 65 73 57 67 133 349 415 417 429 431 392 320 149 55 31 29 67 133 141 131 125 151 131 145 239 384 300 274 261 261 
51 67 75 69 65 63 61 49 57 61 55 55 45 57 53 35 39 47 39 43 51 57 53 51 51 53 53 53 47 51 59 43 53 33 59 49 99 123 87 73 221 330 294 129 69 71 67 67 57 67 83 141 193 259 318 386 390 411 410 380 265 157 67 31 17 0 51 63 83 75 87 93 79 81 167 345 257 249 237 247 
71 85 71 73 67 83 73 53 67 69 57 67 79 63 71 47 55 63 69 43 69 69 67 67 59 67 63 69 81 71 63 67 59 65 59 81 117 197 209 169 280 355 328 253 175 101 79 77 125 203 286 377 392 371 369 388 404 386 318 179 83 71 43 45 49 33 39 41 43 29 35 45 25 37 59 159 153 223 233 245 
71 91 73 89 79 69 73 75 67 87 67 61 63 63 65 47 53 61 63 73 71 73 67 67 63 71 73 77 73 85 87 67 63 67 63 65 89 139 173 306 335 351 341 328 320 243 229 294 341 373 388 402 396 371 379 398 371 245 145 95 61 59 49 49 41 47 63 55 63 57 45 39 37 27 39 71 83 129 189 225 
73 87 77 71 81 91 77 75 71 93 67 63 63 69 71 63 55 77 73 69 81 75 89 73 75 79 69 97 89 87 75 79 73 67 69 79 77 89 179 306 320 312 343 349 335 337 326 353 386 408 386 390 373 345 314 276 193 123 71 63 43 67 67 69 51 55 73 89 79 79 65 91 81 89 77 83 85 77 115 165 
83 87 89 99 77 87 101 85 69 91 79 75 75 67 77 77 77 81 73 77 87 79 87 77 65 77 97 81 77 83 79 85 83 79 79 87 69 81 119 125 151 155 193 274 314 330 292 310 314 333 286 280 239 149 113 109 109 89 81 79 67 77 83 81 59 71 85 99 93 79 81 91 73 91 83 81 95 87 87 103 
87 107 77 79 81 99 85 83 85 97 81 83 73 79 85 79 81 75 91 75 83 83 95 83 89 89 89 91 81 81 73 79 79 81 87 79 73 83 93 83 109 101 97 113 149 143 143 153 141 139 139 127 99 93 77 89 103 97 91 107 79 97 93 83 83 77 83 93 101 79 81 69 83 59 83 99 97 91 87 107 
83 99 83 91 105 93 85 89 101 95 65 79 71 75 83 73 73 79 77 89 81 89 67 89 85 81 87 81 93 87 79 91 75 87 91 95 79 79 89 77 89 87 81 77 93 87 107 97 107 113 97 89 75 85 71 91 101 107 105 113 103 105 93 109 101 91 105 105 93 73 71 77 77 67 85 103 107 113 93 87 
87 87 95 85 89 89 89 75 91 97 89 85 81 91 87 71 83 79 95 89 93 81 87 95 85 85 93 91 105 91 93 91 89 77 99 95 97 77 79 83 91 87 87 89 97 93 85 101 89 97 111 89 75 77 89 89 105 115 115 111 101 101 87 113 99 81 113 111 113 91 77 89 83 85 95 97 119 107 79 95 
85 109 101 89 79 73 83 81 79 117 63 91 93 83 77 83 85 81 85 85 97 85 79 81 83 89 93 97 113 85 89 75 91 89 93 91 101 91 95 83 85 101 81 93 91 99 91 87 99 103 107 115 103 99 91 127 123 127 119 119 107 105 109 95 103 109 103 119 93 83 79 73 71 67 91 113 115 101 83 83 
83 105 99 91 87 93 97 95 73 121 99 97 89 81 93 95 87 73 83 77 87 97 103 89 89 95 97 91 87 109 89 85 93 81 97 105 83 101 95 77 93 97 71 93 91 109 101 91 95 125 117 129 107 109 105 133 123 133 105 119 107 103 95 105 115 107 109 111 89 85 79 73 75 95 111 125 131 109 81 71 
89 113 101 101 93 95 95 85 87 89 77 73 99 83 93 97 69 91 89 87 93 91 95 93 91 87 91 111 91 95 91 99 93 93 93 93 91 85 93 93 89 93 97 89 97 95 107 105 117 121 121 117 97 117 111 109 137 131 113 101 107 103 105 115 101 101 97 105 105 87 81 89 83 89 115 121 121 129 77 85 
89 119 81 99 89 109 87 95 97 111 79 95 91 101 75 95 79 83 93 93 105 99 97 99 89 95 99 109 99 101 111 95 95 81 101 107 97 85 85 91 97 103 93 103 97 105 125 141 123 141 125 109 121 125 105 113 129 125 125 111 99 97 91 113 109 97 109 117 99 75 95 99 91 107 107 131 131 131 83 77 


