P2
80 60
673
13 38 21 29 42 36 46 44 40 42 48 32 34 38 50 44 61 59 50 61 57 65 67 63 61 61 61 76 69 82 80 69 78 82 98 94 92 82 82 88 73 88 92 98 80 88 103 86 88 92 82 105 84 96 103 98 103 92 105 94 131 172 211 225 227 223 225 201 164 142 127 109 125 121 117 121 123 129 221 435 
17 19 36 46 29 38 46 36 34 42 44 44 46 42 36 65 67 61 46 50 55 57 57 63 65 57 63 61 73 71 76 78 78 80 90 96 88 94 92 73 86 96 94 92 96 94 103 100 103 96 92 105 94 107 92 109 107 121 127 156 270 341 371 379 397 395 449 441 381 359 302 282 262 217 174 140 138 178 377 469 
13 29 34 53 50 32 36 40 38 38 46 40 55 29 53 61 65 63 55 63 61 59 57 78 65 78 65 67 80 82 82 88 90 67 88 90 88 88 86 103 92 98 107 94 98 98 94 109 107 98 107 119 119 119 117 113 136 131 160 260 385 415 423 419 437 457 481 495 471 463 461 473 485 499 433 310 233 333 493 495 
38 29 32 42 32 25 55 44 44 50 32 42 29 48 44 71 55 67 61 71 73 63 80 71 76 59 82 71 90 96 96 96 90 90 98 92 96 103 100 100 98 94 107 103 98 109 115 105 117 109 115 123 119 123 123 131 136 150 207 349 429 397 425 419 437 473 533 537 523 519 531 523 553 565 584 553 487 495 541 525 
32 29 25 40 40 44 36 40 38 57 55 48 48 59 57 61 65 71 55 76 76 78 76 67 65 76 80 90 98 100 92 92 90 100 105 94 98 98 111 94 103 94 111 98 117 121 121 117 113 121 119 131 131 142 136 140 158 162 252 401 451 457 449 417 433 483 527 535 533 513 511 523 525 571 588 590 590 578 571 563 
29 21 38 50 40 29 55 42 57 53 53 57 69 59 46 63 67 71 67 69 73 67 82 78 78 82 71 82 92 94 96 92 80 98 111 100 105 98 96 98 98 103 111 111 127 121 111 111 117 119 136 146 160 152 164 158 172 191 306 447 477 465 451 451 449 447 475 481 483 485 473 465 517 523 565 590 582 567 551 563 
36 27 29 44 40 59 55 48 48 53 53 50 48 63 59 55 59 63 69 67 76 78 76 76 90 90 84 92 96 98 96 107 107 96 103 111 105 107 96 103 103 117 107 107 107 123 113 127 131 156 185 219 247 258 229 205 207 272 381 397 375 347 433 445 433 447 467 463 445 473 483 453 521 491 477 489 537 541 533 541 
29 57 44 42 40 55 57 63 46 78 55 57 71 61 63 65 63 76 84 65 84 84 80 82 90 94 84 94 88 98 111 109 98 111 98 117 107 111 109 123 111 103 123 109 105 119 129 131 158 264 365 443 511 535 503 409 381 495 594 594 533 429 437 471 465 455 473 459 451 481 471 435 495 503 457 431 449 469 527 495 
23 44 57 38 42 48 57 46 53 55 76 55 73 67 71 78 78 63 84 82 86 76 86 90 92 98 92 94 94 103 98 107 115 105 109 107 107 111 113 113 115 125 113 111 119 127 133 142 245 389 559 626 632 604 641 598 592 632 649 630 639 569 457 455 481 487 471 451 445 457 431 431 461 483 443 415 403 405 469 513 
29 50 53 61 57 53 67 59 59 71 69 88 82 69 69 73 86 69 82 73 88 92 73 88 88 92 96 90 94 115 100 103 96 115 107 100 113 109 117 113 111 119 121 121 129 131 125 156 296 489 671 637 645 624 628 645 626 632 651 651 641 612 485 457 421 433 445 431 431 427 427 433 427 453 425 369 381 371 431 451 
34 42 57 57 55 46 69 65 59 65 69 65 76 65 67 73 76 71 71 76 71 94 69 96 78 94 94 92 96 103 94 98 92 103 105 115 103 96 109 111 107 119 119 113 125 138 136 156 306 555 653 655 667 639 614 632 606 600 635 624 637 582 485 413 389 401 415 431 419 429 455 427 417 425 385 359 373 363 413 443 
46 38 61 46 53 55 67 63 65 57 76 61 71 59 57 84 69 78 82 69 78 96 82 88 92 105 88 92 103 100 98 96 103 103 103 111 109 113 119 105 103 125 127 111 119 129 138 168 315 493 659 673 655 655 610 632 586 561 641 618 561 493 493 477 463 421 395 397 433 455 463 437 423 429 383 355 361 377 421 423 
36 40 40 55 53 57 59 65 55 61 61 61 59 69 59 71 71 69 61 65 71 71 78 84 88 92 82 88 94 94 90 103 100 103 100 107 98 113 111 113 115 119 117 111 119 127 123 152 254 373 610 643 667 639 608 620 576 523 563 467 365 455 463 417 407 401 409 419 443 485 479 445 435 433 409 375 355 377 417 449 
48 48 44 44 63 65 57 69 65 57 63 53 63 78 57 67 76 73 84 71 78 73 73 86 80 88 84 88 96 111 88 96 103 109 100 111 103 111 111 113 119 115 136 113 113 127 136 133 174 264 451 553 555 515 505 437 335 373 429 381 381 379 399 407 399 425 431 439 459 473 463 429 431 431 419 395 399 383 425 445 
50 46 46 50 40 65 53 67 48 63 69 61 73 53 69 71 63 73 63 73 88 73 69 80 84 94 82 92 90 98 96 92 105 103 94 94 98 121 121 113 119 123 136 113 115 115 123 136 127 154 197 250 241 203 187 197 223 441 511 467 447 419 423 423 431 439 451 439 451 459 453 433 429 441 433 397 401 399 433 455 
50 48 53 59 57 55 61 69 50 55 65 61 67 69 59 78 76 65 71 61 65 73 80 73 78 98 82 76 88 82 96 84 90 94 96 103 96 100 117 113 119 123 131 109 125 123 125 115 115 115 129 136 144 162 174 189 262 501 529 483 427 317 387 429 443 445 453 443 437 447 425 419 425 445 421 413 415 423 467 509 
61 55 55 38 42 55 53 44 48 50 50 50 61 65 53 69 73 59 59 71 73 67 61 73 78 82 84 76 84 80 96 82 84 96 86 100 107 103 125 117 121 129 125 121 125 129 136 131 123 125 131 138 146 164 199 331 489 596 590 553 511 377 331 427 467 431 423 401 415 419 399 409 411 459 419 409 439 453 503 513 
32 46 55 48 40 46 57 48 61 53 61 44 61 69 67 59 84 82 86 67 76 71 80 80 78 84 96 92 94 92 88 98 88 100 86 119 113 107 121 142 131 150 140 140 129 131 136 136 138 138 154 180 219 260 443 580 586 590 588 565 582 511 411 371 331 310 268 274 274 302 335 349 375 421 419 429 473 469 525 521 
42 65 63 57 46 69 67 53 55 80 71 78 59 73 59 65 84 84 82 86 94 98 73 86 86 84 90 86 98 111 98 113 100 105 107 107 119 109 146 258 260 235 231 197 187 166 164 164 170 187 278 441 533 553 574 576 565 555 547 509 481 335 239 207 217 221 219 209 203 187 195 201 229 290 308 365 491 493 521 525 
44 59 50 53 50 73 67 69 69 88 71 76 57 78 59 80 82 80 86 71 76 90 90 90 96 96 92 100 105 119 113 113 111 111 127 117 119 138 150 270 389 479 509 511 397 298 217 278 349 453 559 580 582 586 567 549 517 487 423 290 205 176 180 193 191 205 205 180 178 156 154 142 150 150 193 274 483 497 525 523 
73 63 61 73 57 71 71 69 61 65 67 73 71 71 80 86 76 84 82 73 92 88 96 88 98 98 103 100 107 105 119 113 115 113 107 115 117 113 129 140 150 272 553 588 584 553 497 545 578 602 600 586 565 531 471 377 284 209 182 144 154 166 164 182 176 189 162 160 158 142 131 129 136 140 174 231 471 509 533 515 
36 48 69 59 57 63 71 61 71 78 76 63 76 84 76 80 92 80 90 92 90 92 94 103 98 105 88 100 109 127 117 111 115 109 107 131 113 127 119 129 136 270 555 592 602 594 551 576 572 569 545 521 395 284 199 160 168 142 146 125 144 140 160 158 164 162 160 148 133 131 123 129 123 144 158 207 447 529 529 499 
40 50 67 57 65 63 73 90 76 65 65 67 80 76 76 94 96 100 96 86 98 82 107 90 98 98 92 103 105 111 111 117 119 115 121 115 107 121 125 136 133 172 435 543 545 503 465 387 329 266 221 203 166 156 162 154 158 136 150 129 148 154 158 146 156 150 158 148 138 136 119 113 115 144 146 195 419 503 489 491 
55 50 55 67 69 69 88 80 65 69 86 82 86 78 71 94 103 88 92 94 98 98 100 103 88 113 92 103 113 111 125 113 123 113 111 129 123 119 127 129 123 133 199 241 254 219 187 162 146 148 146 160 156 150 154 158 156 152 160 138 148 156 162 156 156 150 160 150 146 142 121 117 125 133 133 166 417 459 471 487 
44 50 65 63 69 71 76 73 73 65 84 71 96 88 90 103 94 96 100 86 96 94 100 107 94 111 109 94 107 113 111 111 100 121 117 123 111 123 125 123 123 125 142 148 142 148 156 142 152 156 150 164 156 160 160 156 156 160 150 140 154 164 166 162 162 162 154 150 140 148 131 127 123 133 150 180 411 417 457 475 
61 59 59 65 67 67 86 78 78 71 82 82 69 76 82 88 86 84 90 80 86 88 90 100 107 96 103 107 103 109 107 113 111 115 111 123 117 119 125 131 146 195 203 195 189 205 225 227 195 191 205 241 252 256 217 205 187 207 197 195 197 185 176 160 160 156 160 146 199 223 229 215 205 217 233 215 387 389 433 459 
63 71 63 90 73 80 65 82 69 82 98 82 71 78 76 78 94 92 86 86 94 90 103 98 92 105 92 94 100 109 94 113 113 107 109 115 117 129 131 121 182 359 401 415 417 451 453 459 439 427 451 477 479 499 485 431 401 409 423 405 393 361 280 197 185 176 170 160 205 284 288 304 319 310 312 325 407 409 433 437 
69 71 59 73 59 76 71 73 69 82 80 82 88 73 80 96 82 90 90 80 86 92 86 96 94 94 103 107 103 103 109 100 105 107 107 119 115 131 136 172 191 270 325 403 495 539 543 517 505 513 503 513 505 531 551 533 505 485 481 475 505 507 471 308 231 195 182 178 211 298 310 335 351 349 351 349 407 461 435 441 
53 63 63 63 69 73 78 73 76 76 82 76 80 82 82 71 82 76 92 84 82 90 86 92 103 90 84 92 94 103 105 107 98 113 117 117 107 115 129 243 361 413 443 489 533 557 535 523 513 501 515 505 509 531 547 537 517 501 495 481 507 521 529 477 397 296 233 203 243 331 321 325 339 361 349 357 385 457 443 433 
53 61 65 71 73 84 59 71 67 80 73 67 76 78 78 82 73 84 82 84 90 88 80 94 90 88 90 90 107 98 98 100 92 90 109 113 117 125 156 276 383 431 435 493 537 539 531 531 497 337 312 331 335 427 479 483 525 511 487 463 495 507 531 503 435 391 361 341 341 353 359 355 367 371 377 373 363 379 437 443 
50 67 67 61 65 73 73 63 67 76 71 78 73 71 76 82 82 82 71 78 88 94 76 80 88 82 94 100 98 98 94 86 96 107 96 103 107 127 136 235 276 329 399 447 401 435 511 495 345 166 154 164 168 176 205 219 337 449 445 451 479 499 489 429 417 425 423 393 385 385 389 395 415 423 415 417 381 308 353 379 
48 53 59 53 65 73 65 59 59 67 71 71 76 76 71 100 76 94 65 84 84 86 86 86 84 88 80 90 84 88 94 92 94 98 98 109 94 115 117 199 373 373 315 223 195 327 469 365 180 138 146 154 140 166 162 166 174 306 371 393 441 431 431 435 451 459 447 405 403 401 419 433 445 433 435 411 369 306 345 379 
73 61 46 69 50 67 71 76 69 78 78 69 71 73 82 92 84 80 92 78 90 86 88 94 90 92 98 90 90 103 96 105 103 94 107 113 117 123 129 156 166 174 158 168 231 401 276 172 154 154 174 219 195 215 233 217 195 284 385 387 397 395 399 403 443 451 451 417 383 399 433 445 435 437 449 437 375 359 357 371 
59 71 65 73 78 73 80 71 78 73 88 73 67 88 82 82 80 78 76 92 88 98 107 94 96 90 96 88 98 98 103 100 107 117 115 113 123 131 123 154 146 146 144 146 245 286 164 156 152 233 381 443 473 501 529 489 345 367 429 381 369 363 345 353 389 423 405 381 383 409 443 429 447 425 449 433 539 503 391 381 
65 63 63 71 71 71 90 78 78 73 78 84 67 82 80 86 92 84 86 100 90 92 94 103 94 96 82 88 105 115 121 98 103 113 113 121 115 123 131 138 138 144 144 140 152 158 148 154 182 298 503 547 533 586 574 618 620 614 557 471 385 371 351 327 347 363 345 367 365 403 431 431 421 431 441 459 663 580 397 385 
65 69 82 73 71 76 88 78 67 76 80 76 61 82 94 88 103 82 88 86 96 105 96 86 103 100 105 98 111 103 111 105 107 111 115 111 121 129 129 136 140 129 144 146 144 142 142 158 243 369 521 525 533 586 590 574 592 590 580 549 451 393 357 317 306 308 321 331 379 423 435 431 421 425 411 429 673 574 397 395 
59 61 82 61 61 82 78 73 76 73 82 71 88 82 80 84 86 90 90 92 100 103 98 96 98 100 100 111 100 113 117 113 105 109 107 111 119 131 127 127 131 127 138 131 131 146 140 162 272 401 493 517 559 588 563 511 477 493 503 543 437 377 355 315 288 282 304 321 379 425 433 431 413 395 387 431 634 541 357 359 
67 76 67 65 73 67 76 84 71 82 80 73 80 84 88 94 84 86 92 90 96 96 100 105 105 88 96 103 111 109 119 113 111 117 105 117 109 125 129 129 119 138 129 127 138 133 148 148 239 333 407 463 523 563 559 493 449 449 475 473 399 363 335 325 294 274 286 319 385 403 437 447 409 381 379 427 574 491 337 357 
63 57 69 73 67 59 78 80 84 78 86 84 90 82 84 107 88 88 90 100 88 100 92 88 109 98 111 100 100 109 115 113 109 105 111 111 119 129 125 127 127 123 121 123 136 140 133 131 180 292 379 419 467 563 555 511 519 463 467 475 403 361 310 286 284 282 278 304 373 379 393 429 401 363 369 431 551 465 325 351 
55 63 69 67 80 71 78 76 82 78 76 80 86 84 90 96 88 100 94 90 80 103 86 105 107 103 96 94 109 113 113 113 113 117 107 115 113 119 125 119 113 121 123 117 117 125 121 131 133 215 319 371 409 481 507 505 473 371 395 417 393 347 321 300 272 258 264 294 351 347 353 403 363 329 357 409 523 427 308 343 
65 67 71 71 71 82 78 73 78 82 88 88 86 96 90 105 94 92 109 88 92 100 88 100 98 119 98 94 107 90 100 94 111 105 103 111 115 133 125 119 121 119 117 123 129 127 121 117 109 129 142 172 178 205 233 227 203 223 349 359 345 312 286 282 280 276 262 268 304 333 298 341 329 308 335 377 507 395 294 312 
61 59 76 69 71 82 78 84 78 92 61 82 84 78 88 96 94 92 84 103 96 103 100 111 100 103 103 107 98 100 117 103 111 121 121 107 117 113 117 109 109 111 125 111 113 119 125 115 111 113 115 140 125 127 138 152 156 270 351 323 298 276 274 274 308 284 254 270 286 333 298 292 292 284 339 353 379 310 282 302 
59 53 71 63 65 65 82 78 82 86 76 88 84 92 86 84 86 92 88 103 92 92 96 92 96 96 98 94 103 100 98 109 98 107 103 100 113 117 103 111 119 113 117 105 113 115 105 119 109 103 107 119 123 119 129 125 150 284 349 327 317 302 262 288 325 312 262 258 276 333 306 288 278 298 315 323 329 268 280 302 
48 53 84 65 63 67 86 80 71 63 76 73 76 84 96 80 82 86 94 90 90 86 86 107 86 113 103 105 98 92 92 92 90 107 96 113 96 103 105 98 100 94 111 100 107 111 103 100 107 103 96 115 96 103 117 109 176 325 335 363 367 347 317 278 317 335 280 260 235 294 306 280 276 280 300 288 274 260 260 284 
63 50 67 63 50 61 78 76 65 63 80 63 80 71 80 90 80 82 84 86 90 78 86 88 94 96 92 92 92 100 94 92 94 107 98 92 100 107 105 100 94 98 100 96 96 98 105 105 96 92 96 115 103 107 92 107 241 399 403 375 355 339 337 300 266 278 254 225 221 245 290 276 258 274 298 288 274 239 256 276 
48 34 44 40 50 73 61 67 59 67 65 63 73 73 59 73 73 80 82 82 73 80 86 86 96 98 84 100 100 100 94 84 92 80 100 96 84 92 100 105 100 90 96 100 90 100 94 98 98 82 94 115 86 94 98 189 387 467 463 423 361 310 302 266 164 100 123 158 166 197 213 227 239 256 290 280 276 241 276 262 
44 34 46 38 44 50 48 48 53 59 55 59 53 48 55 76 67 78 61 73 71 73 80 82 76 82 78 82 80 78 82 82 84 82 86 84 84 84 100 84 88 94 96 90 84 90 92 98 94 82 88 92 100 133 241 407 457 475 457 431 413 308 211 98 59 48 82 138 142 154 154 166 162 197 245 245 276 260 288 284 
29 32 38 32 38 42 34 50 36 53 50 48 50 48 48 50 67 61 55 67 59 76 71 67 65 73 73 78 82 63 78 73 65 84 96 82 84 84 94 88 92 100 105 88 76 88 100 88 88 80 103 154 268 371 455 473 457 433 433 411 389 270 113 55 40 25 63 111 123 119 121 136 148 164 191 229 260 280 264 282 
40 53 61 34 42 46 65 40 53 44 59 40 59 50 57 61 61 59 61 55 63 71 63 65 69 65 71 59 65 67 67 73 61 71 69 82 84 76 90 80 84 73 88 90 92 100 76 84 71 67 148 357 431 457 475 485 449 421 385 264 168 90 53 29 21 0 21 55 48 67 71 90 88 113 127 150 239 247 278 288 
44 55 44 42 53 53 69 44 55 61 48 71 59 63 65 59 61 67 73 65 69 57 61 76 80 76 86 90 86 92 82 69 80 82 82 82 82 117 219 211 142 105 146 207 96 92 86 94 100 138 325 435 463 477 467 443 363 245 150 86 59 55 48 32 19 32 27 25 21 17 15 27 40 53 71 67 174 239 266 270 
34 73 55 63 63 65 63 67 65 71 71 67 82 65 61 90 76 76 78 71 71 82 78 86 86 94 94 84 96 88 82 80 90 92 90 94 98 164 321 373 375 294 235 339 264 136 107 115 203 325 397 463 473 469 409 294 168 105 76 57 55 48 46 36 46 44 44 59 50 27 42 53 69 88 80 76 113 189 264 247 
42 59 73 57 55 67 57 63 57 73 69 78 76 71 71 86 78 84 73 94 84 80 86 94 92 90 90 86 92 86 90 96 107 100 105 98 111 241 367 411 443 417 421 429 435 331 225 288 355 397 435 437 435 349 199 150 115 90 80 48 65 48 73 61 65 57 67 73 80 84 71 90 123 119 105 86 82 127 221 266 
29 63 61 65 53 78 71 57 59 69 67 82 65 69 57 71 67 65 86 82 82 94 98 88 92 84 90 100 88 92 88 98 98 96 96 98 111 201 308 377 437 443 443 439 441 469 435 403 417 415 391 333 241 146 123 107 100 92 84 65 61 78 73 65 67 76 69 84 84 82 82 94 107 109 113 103 105 78 129 205 
50 61 73 65 67 71 63 69 67 63 73 67 65 61 61 82 86 78 82 78 84 100 94 88 94 90 90 84 103 105 100 90 90 88 107 103 107 133 182 294 357 409 439 449 461 463 467 431 371 288 205 162 113 111 103 107 111 92 103 73 80 80 90 76 73 65 82 84 80 78 86 86 100 113 123 113 111 76 109 160 
48 57 67 59 55 86 71 78 57 78 82 63 88 82 84 94 90 71 84 90 92 96 98 98 84 90 90 105 109 96 103 86 103 103 100 113 109 113 160 209 241 250 315 381 393 375 321 223 166 131 121 107 96 98 96 107 125 119 100 96 103 92 105 92 86 94 90 94 84 80 65 98 107 98 113 119 115 76 105 109 
40 55 63 71 65 67 73 63 63 73 65 63 63 82 82 90 86 73 98 84 78 80 94 86 96 90 88 96 103 88 98 90 96 100 100 100 98 100 105 119 113 131 138 152 162 152 142 123 100 105 103 117 103 113 105 119 138 127 121 100 111 94 107 92 98 88 105 88 92 90 78 94 103 105 117 115 121 86 86 88 
50 63 76 55 61 80 78 67 67 96 67 94 82 86 80 88 90 86 69 82 84 98 90 103 92 105 109 96 94 96 103 107 96 100 103 96 107 113 96 119 98 111 119 121 123 123 115 107 88 96 103 107 115 117 121 129 148 129 125 107 107 103 109 98 115 105 107 96 92 96 88 82 100 96 117 123 115 80 82 86 
46 61 80 80 67 78 86 78 80 76 84 73 82 78 86 86 88 90 88 84 107 94 113 98 107 100 109 94 113 103 117 98 111 100 111 115 107 107 111 109 107 98 111 111 123 107 109 113 103 94 111 127 117 138 146 133 140 131 127 86 117 96 121 107 117 125 107 86 88 80 92 78 92 119 131 127 109 94 88 96 
57 78 84 69 71 73 65 80 71 84 67 86 96 78 100 92 103 98 105 90 92 107 92 103 100 113 105 111 103 103 111 105 100 109 105 119 119 111 121 113 109 109 113 107 103 113 109 113 115 115 111 136 125 127 136 133 142 136 115 98 115 111 123 103 109 103 111 94 96 90 80 94 103 113 146 136 121 113 94 111 
55 69 80 65 69 67 80 65 82 80 86 92 82 88 86 88 98 92 100 92 90 92 105 98 109 109 96 103 105 107 113 119 111 109 111 113 105 117 107 111 103 100 125 115 115 115 133 123 123 119 127 142 129 146 131 150 158 131 123 105 117 105 117 100 107 115 109 103 100 107 84 96 109 115 125 121 129 107 100 111 


