P2
80 60
714
268 278 272 274 252 256 266 270 292 282 272 266 270 264 264 272 274 268 272 260 252 252 252 244 224 234 244 228 218 228 228 222 222 236 246 222 228 232 198 214 212 206 200 220 216 218 244 252 238 268 242 244 228 242 234 234 234 226 238 228 244 224 238 248 248 226 238 232 232 244 252 228 234 224 218 230 224 222 216 216 
264 260 254 252 254 262 254 258 272 276 274 264 268 270 262 266 260 266 238 256 260 230 236 224 218 212 220 234 206 218 206 236 214 234 228 224 230 212 208 208 198 194 196 212 218 210 238 244 250 254 254 232 230 246 244 244 236 234 230 220 238 242 244 228 222 232 240 232 234 244 248 226 236 228 220 212 210 226 212 224 
264 258 264 258 274 262 260 262 270 276 262 258 268 276 274 260 252 250 252 248 240 242 232 228 230 218 234 226 214 198 206 214 218 238 248 228 242 224 226 228 204 202 202 226 232 232 238 262 250 268 256 246 242 250 240 246 238 250 226 236 248 234 250 232 230 234 236 236 248 250 232 236 226 220 222 222 222 232 206 224 
270 258 260 262 246 258 260 270 276 264 254 272 278 254 262 250 250 246 256 252 246 250 238 234 236 234 236 242 232 218 238 240 232 240 254 236 258 232 214 224 216 208 214 240 230 226 258 250 254 266 254 250 258 248 242 242 250 242 238 234 242 242 238 244 232 240 258 250 244 240 256 238 244 228 234 216 224 234 222 222 
256 264 266 266 272 274 268 272 272 264 270 266 266 272 264 260 260 266 250 250 244 242 234 240 252 238 234 236 236 246 234 246 230 254 260 244 250 242 234 222 228 218 222 244 232 244 246 282 260 274 258 270 258 274 242 258 240 244 244 254 242 236 246 250 230 242 244 240 246 252 254 240 248 232 224 230 242 222 228 214 
252 248 274 256 264 264 266 276 278 276 268 280 268 270 278 266 266 252 254 256 256 258 252 242 246 250 246 258 242 240 238 240 232 268 258 246 262 250 232 224 234 218 232 236 252 238 254 278 258 272 264 270 258 262 244 266 258 246 242 250 240 232 240 258 240 236 256 260 248 252 260 258 252 242 236 244 244 242 236 252 
248 260 280 256 274 274 270 270 276 282 276 278 282 266 270 272 256 266 250 258 262 274 262 240 258 248 250 252 250 246 234 258 254 264 280 250 276 266 244 242 244 218 226 248 258 246 268 282 258 280 272 264 260 262 266 260 260 248 244 244 238 258 258 238 250 256 258 244 280 252 260 264 242 248 248 246 246 244 224 238 
270 262 270 274 266 276 256 278 292 272 272 274 276 296 268 278 254 262 262 270 266 264 254 250 256 254 262 262 244 252 258 250 256 280 278 256 278 258 250 238 244 240 246 262 262 244 282 284 274 288 286 274 270 278 254 258 262 250 250 256 252 264 256 250 256 256 246 252 258 258 260 262 262 248 250 256 242 238 234 240 
276 256 260 274 254 270 266 272 282 284 274 274 286 294 268 258 264 274 260 254 264 244 258 246 246 254 260 254 246 254 258 258 254 290 284 274 276 250 240 254 258 262 262 270 270 258 276 274 282 284 280 274 256 270 268 260 246 246 252 252 256 238 254 254 248 254 240 262 254 270 268 262 252 250 240 244 236 254 232 240 
274 264 282 276 276 280 266 272 260 290 282 276 286 278 284 258 270 266 274 270 276 256 264 254 256 248 260 258 246 262 264 270 260 282 302 274 292 264 258 304 367 399 442 371 284 262 272 294 290 280 292 266 264 272 252 252 254 254 250 242 246 254 252 244 244 260 254 258 270 252 264 270 274 258 230 266 238 254 246 224 
262 266 282 276 264 266 264 264 276 264 266 276 258 276 280 280 268 256 272 288 266 274 262 258 260 246 260 258 250 250 272 256 266 300 310 324 334 274 262 338 535 557 595 588 381 280 282 294 280 280 284 286 274 274 266 248 254 252 236 256 250 250 242 238 252 248 256 254 258 250 268 268 272 260 246 252 254 264 224 236 
270 264 280 268 276 262 278 274 276 272 268 268 274 272 280 266 270 266 260 260 260 266 258 272 240 256 256 254 256 256 272 276 284 375 401 375 342 304 264 274 430 557 592 626 551 324 286 292 282 286 280 262 282 270 266 260 254 268 252 266 266 250 260 252 248 254 248 256 258 262 264 282 266 260 264 256 252 250 230 244 
264 260 276 264 276 270 270 282 290 272 264 276 270 284 270 254 266 258 258 268 268 266 244 258 252 234 260 254 256 270 282 312 393 442 371 162 102 132 194 230 342 522 530 603 623 434 304 298 288 294 292 284 286 290 298 308 288 292 278 290 280 276 268 252 262 250 262 242 274 268 260 272 262 274 256 248 260 254 246 226 
278 268 270 264 248 268 274 256 272 268 276 264 272 274 266 246 254 268 258 272 254 268 246 250 246 234 252 258 242 268 308 456 442 424 361 202 140 140 188 230 270 310 395 499 539 446 348 348 304 300 278 294 288 298 292 316 320 304 302 306 292 284 278 264 264 252 262 260 274 274 282 278 280 284 278 264 254 254 234 246 
274 280 274 272 280 274 266 252 272 280 276 266 258 272 254 266 268 256 268 260 256 258 256 252 238 246 254 254 264 266 389 500 452 456 454 395 395 304 254 214 226 216 226 306 342 340 375 381 314 306 280 278 290 306 292 262 252 292 304 304 292 294 286 284 268 272 258 270 314 320 338 340 344 336 330 304 280 272 248 276 
276 278 274 266 256 272 260 256 270 286 270 262 272 276 260 262 252 266 254 272 280 274 260 240 246 248 268 272 268 284 381 469 440 448 491 477 407 280 180 240 248 276 284 314 322 324 361 367 328 328 272 266 270 300 318 280 278 286 280 302 296 288 282 272 290 282 276 300 421 422 436 454 477 530 499 450 387 338 288 280 
266 252 292 264 268 258 268 266 268 276 264 274 282 280 268 264 274 270 268 258 272 268 250 264 280 260 278 286 292 302 381 419 450 468 481 466 352 262 182 238 302 338 342 336 320 320 346 354 304 304 308 270 272 292 314 322 300 286 288 300 296 302 294 290 290 282 284 322 440 436 452 458 495 549 549 537 512 483 421 397 
260 276 268 254 262 264 264 252 274 274 268 260 280 270 274 262 276 266 268 278 284 266 272 276 298 290 302 276 304 346 395 419 440 460 421 358 288 198 194 230 306 338 342 338 308 296 340 358 332 316 306 292 300 296 324 318 308 296 292 294 314 300 306 316 304 302 310 365 458 473 466 460 462 506 516 518 524 530 489 475 
276 270 280 268 264 268 272 272 272 274 280 274 276 280 282 272 274 288 280 286 294 316 330 352 438 497 458 401 450 526 483 356 469 454 379 290 220 148 192 188 306 318 346 330 290 268 320 352 320 288 284 326 322 312 334 308 298 340 359 330 328 336 330 342 330 322 314 419 497 487 469 475 499 500 512 499 520 526 502 497 
282 278 270 262 278 270 266 272 288 282 274 270 272 272 284 282 276 270 272 278 361 405 393 479 599 628 630 607 568 632 541 286 452 489 354 248 200 112 170 206 332 340 342 324 308 292 338 348 332 120 226 312 330 314 328 332 346 395 405 389 387 377 383 421 391 350 322 426 452 419 413 409 421 452 473 454 473 471 481 487 
268 286 266 276 276 276 262 292 272 276 278 280 280 288 280 260 274 274 270 318 417 448 485 566 653 592 559 628 553 609 551 385 468 491 379 294 202 122 146 220 340 350 352 348 316 322 367 373 352 262 202 262 290 330 340 354 385 397 428 448 452 426 458 499 499 446 385 389 373 369 352 338 312 318 306 332 326 318 334 336 
272 280 276 264 268 282 276 274 272 274 258 272 274 276 270 274 276 274 290 352 440 526 551 669 686 566 456 580 559 586 551 473 533 462 407 342 294 202 168 218 298 352 363 346 318 340 385 379 367 290 138 154 280 318 373 373 415 415 440 462 466 438 456 508 514 493 481 533 539 531 473 330 296 288 296 290 284 296 278 302 
266 270 266 280 260 256 280 276 274 266 276 268 276 286 274 262 286 278 288 328 421 522 582 667 661 628 543 619 586 576 518 468 491 452 454 434 413 334 232 202 232 300 320 326 318 344 377 373 334 326 204 114 264 342 375 393 422 422 442 464 469 454 460 512 514 512 483 524 580 562 460 334 310 280 286 266 280 276 268 282 
266 258 272 260 264 266 262 264 284 268 272 260 276 278 292 276 272 274 270 322 401 512 545 576 624 626 646 605 508 477 464 450 436 438 493 473 458 407 278 210 172 276 310 326 332 363 365 356 314 326 234 218 294 330 367 379 405 422 454 466 454 460 468 502 504 499 475 493 580 543 413 320 298 280 258 280 266 272 272 276 
262 270 286 266 252 256 264 270 272 288 272 280 266 280 266 264 280 270 284 300 389 450 468 446 485 526 531 395 318 322 409 426 415 424 458 462 464 409 300 236 218 270 308 332 350 365 369 336 342 326 258 258 314 334 330 342 361 399 434 450 450 440 434 502 524 528 481 462 491 405 334 296 300 274 270 278 272 284 268 276 
266 260 272 262 268 262 272 252 270 280 274 258 276 282 272 248 264 274 270 286 320 348 344 326 322 306 302 306 300 314 387 477 421 413 419 405 387 393 340 312 302 306 306 348 340 348 361 363 352 318 288 286 278 302 242 272 310 363 417 446 450 436 430 471 504 483 399 338 320 314 300 312 298 278 278 272 260 272 260 266 
268 268 268 262 252 260 272 252 264 276 266 266 262 264 268 268 264 280 262 280 274 284 282 276 272 270 282 282 280 296 344 499 464 401 363 286 266 308 314 326 340 298 300 324 330 358 399 397 334 381 320 274 218 208 266 250 268 310 365 411 399 405 377 393 391 348 310 304 306 310 300 298 282 280 272 260 264 266 256 256 
260 268 278 268 256 258 266 274 264 268 268 266 262 286 266 252 260 266 262 262 258 262 258 260 262 264 268 276 262 280 286 456 506 422 214 24 0 130 240 338 430 373 304 318 483 528 524 471 352 332 310 242 140 194 270 260 260 292 288 302 290 280 292 282 286 292 302 300 302 308 298 288 288 272 268 254 256 268 246 242 
264 262 264 254 262 266 266 260 266 276 274 274 266 286 274 252 280 270 248 262 252 258 250 248 262 260 256 268 254 266 266 322 421 415 304 130 190 260 214 274 533 545 514 535 611 642 653 559 352 332 298 298 286 286 282 266 268 260 266 268 272 274 286 288 290 306 318 318 300 302 310 292 294 270 256 254 252 260 250 248 
258 268 266 260 266 256 250 262 274 288 246 250 264 266 254 248 262 262 250 254 266 264 260 238 254 256 260 262 248 268 270 284 320 462 458 391 350 316 242 238 557 576 582 595 649 659 580 379 302 302 306 308 298 306 288 274 274 272 266 274 280 298 292 306 318 326 336 326 326 306 304 304 278 270 246 260 260 246 242 246 
262 256 276 256 262 260 260 266 260 274 248 254 266 272 264 256 260 266 258 268 270 270 262 252 260 256 260 250 264 270 272 292 288 342 405 409 383 363 326 373 590 582 566 615 632 551 369 316 294 308 312 288 316 318 288 274 278 276 270 266 272 276 292 320 342 350 330 358 328 310 310 290 280 264 244 242 254 254 226 242 
270 274 264 264 268 254 268 284 268 282 264 260 266 282 270 262 262 272 270 264 264 270 264 262 270 248 268 268 284 278 280 286 316 358 365 381 399 422 438 510 597 613 592 568 500 344 286 308 310 300 300 294 284 302 286 286 282 270 272 264 270 272 294 318 346 348 342 346 328 316 304 290 276 270 254 250 260 244 246 236 
256 264 270 264 264 262 252 264 266 272 262 264 280 278 276 274 266 264 266 256 266 270 266 272 262 270 278 282 272 290 334 377 424 460 469 442 421 436 555 572 593 601 574 438 302 274 280 298 292 310 304 298 292 310 290 284 260 264 262 262 266 278 308 336 348 344 342 340 340 318 300 298 282 274 260 248 254 260 228 244 
260 282 262 268 260 282 266 270 284 260 270 258 288 290 274 266 276 264 272 272 274 278 276 270 276 266 288 298 367 430 491 471 477 473 460 417 419 436 562 555 570 566 588 541 352 284 290 294 296 306 314 302 308 314 296 300 280 286 270 266 272 286 296 338 340 352 344 340 342 328 312 308 284 266 262 254 246 254 242 226 
260 260 262 272 266 262 260 270 274 270 266 268 270 276 282 274 262 290 302 276 278 288 284 274 272 284 294 387 514 483 475 464 436 424 434 413 421 409 518 537 568 566 574 586 475 304 290 312 308 314 308 306 318 306 302 298 280 272 276 300 296 282 298 334 350 348 332 336 350 326 322 300 298 278 252 254 254 256 250 242 
244 260 264 268 258 262 272 282 288 284 272 258 270 304 282 288 354 460 499 466 365 312 272 280 286 292 314 479 537 499 460 432 419 397 409 413 409 409 462 460 458 514 561 570 487 359 314 338 328 324 318 318 324 326 316 314 296 300 334 340 332 312 312 316 316 326 318 328 332 320 320 302 288 268 254 256 250 242 260 250 
260 240 262 274 262 272 272 274 268 272 272 256 266 286 288 328 473 640 657 632 619 500 397 306 286 306 375 514 522 475 475 469 426 432 428 411 409 393 348 320 326 426 473 444 354 334 322 338 336 348 322 344 338 338 334 330 308 344 350 354 359 352 326 318 318 312 320 328 316 324 316 316 304 280 252 244 250 248 240 236 
256 258 266 252 250 256 260 262 268 272 270 274 264 290 280 385 568 659 684 686 676 613 543 432 332 320 436 512 489 458 468 456 436 446 401 332 356 346 381 391 417 389 413 397 328 318 324 328 338 342 342 354 356 352 361 359 369 375 365 356 344 356 336 318 304 308 304 322 318 312 308 290 244 220 190 176 194 226 226 220 
258 270 270 258 262 272 266 278 276 272 262 276 274 294 304 434 595 655 665 710 670 570 479 512 469 389 489 491 468 466 458 466 452 421 338 318 332 377 407 401 401 383 399 373 332 340 320 348 348 354 348 373 373 375 369 381 381 389 367 264 300 338 336 324 306 318 306 298 292 302 304 306 232 188 152 102 136 176 200 220 
266 280 266 266 258 270 256 268 274 284 270 276 266 284 322 444 613 665 663 714 651 491 483 530 524 559 566 500 471 471 466 477 424 367 346 304 352 381 409 389 399 373 369 350 318 330 318 328 340 340 348 379 377 395 383 383 409 397 369 144 258 344 348 326 298 318 350 344 332 359 365 387 395 365 314 230 204 184 184 206 
248 272 266 264 254 278 258 266 276 268 256 272 280 284 308 367 568 667 684 689 640 562 555 555 580 628 588 520 458 471 456 438 367 354 346 334 387 383 405 399 393 367 356 348 320 340 324 310 332 332 340 367 375 411 399 417 409 393 371 359 359 363 358 336 326 324 352 369 306 350 395 424 464 483 466 444 409 348 258 238 
256 266 268 248 264 264 256 264 282 280 250 266 272 270 300 314 403 555 669 680 644 657 657 626 613 617 572 512 464 450 415 391 340 328 324 338 397 393 409 403 413 381 358 350 330 350 320 316 312 320 332 328 375 399 399 413 415 401 387 379 365 363 367 359 342 336 342 334 312 320 381 434 464 481 493 504 497 466 434 383 
272 258 268 258 248 268 266 248 280 270 268 264 268 278 274 284 310 344 466 611 624 646 661 644 619 603 518 479 444 415 381 340 334 318 326 350 373 399 413 411 405 399 365 369 359 354 320 320 318 332 342 338 359 395 393 407 407 397 403 403 383 373 369 375 389 385 358 326 338 346 387 422 450 471 495 493 479 462 450 440 
264 272 260 256 248 256 268 264 264 262 270 268 260 264 262 274 278 282 306 352 371 399 442 562 607 568 512 458 438 403 371 340 304 314 332 344 367 424 413 411 411 407 387 383 356 344 324 318 328 356 359 361 358 389 373 369 385 399 385 403 387 397 379 393 391 389 387 367 340 354 391 407 430 452 485 477 493 485 462 454 
258 254 266 264 266 260 264 264 272 268 262 266 272 270 262 264 280 258 288 302 294 290 288 332 481 555 512 460 448 401 365 320 266 242 282 346 417 444 421 415 417 379 385 383 358 367 324 320 326 356 379 393 375 371 375 361 371 373 369 387 401 389 379 361 381 377 391 361 344 340 358 393 430 454 479 481 512 526 510 481 
258 276 266 268 262 276 256 260 264 260 264 262 262 268 270 272 284 274 260 272 280 274 274 300 383 514 522 460 440 399 369 332 224 208 238 361 430 436 438 407 407 389 379 383 356 358 330 330 342 367 373 391 377 369 354 371 356 387 395 395 403 389 391 383 383 379 348 320 326 320 342 389 444 460 485 508 520 543 531 524 
240 250 268 262 274 264 270 264 278 264 264 270 268 286 278 278 288 268 272 276 276 280 288 274 322 473 497 458 438 444 389 338 210 192 222 322 426 446 442 422 391 369 367 367 359 352 344 330 338 356 379 397 365 369 361 367 389 403 399 395 411 415 413 393 411 395 338 282 286 298 363 419 450 485 506 518 537 522 512 485 
246 266 272 272 276 266 270 270 266 276 274 270 276 278 274 264 282 268 270 288 272 264 274 282 314 448 499 460 426 422 399 346 244 190 206 306 397 438 438 415 409 377 373 381 356 358 365 334 338 348 367 379 361 379 393 387 409 393 415 401 434 426 417 428 440 387 318 282 278 314 393 458 479 506 526 518 506 489 456 419 
256 268 274 278 272 280 274 274 272 274 270 254 272 290 268 278 270 276 270 276 266 284 276 280 298 438 506 462 421 424 417 365 266 192 202 274 383 432 436 430 411 395 383 389 369 369 358 330 342 361 381 393 377 393 415 422 407 413 407 421 409 428 444 438 436 387 334 306 300 336 401 432 491 485 487 469 417 381 326 320 
264 260 262 270 268 272 276 270 272 276 258 276 274 284 270 262 274 282 272 266 264 274 262 268 296 468 533 458 424 399 403 397 324 270 238 302 391 419 432 424 419 389 397 395 369 365 359 352 363 385 399 405 397 401 424 430 432 436 417 409 403 428 444 464 430 397 346 310 304 300 324 340 350 352 354 340 310 314 294 278 
260 270 280 268 272 266 278 282 282 264 270 264 264 280 266 254 276 272 278 268 274 270 276 258 284 415 543 477 426 411 405 401 395 369 350 361 387 407 413 421 411 401 375 377 361 363 363 367 381 393 403 399 401 405 444 446 436 405 421 401 407 417 415 444 440 399 346 300 280 278 286 270 276 274 284 298 288 288 268 252 
256 272 284 264 268 282 260 276 292 276 272 268 260 278 274 274 264 276 266 264 274 264 250 258 260 346 506 502 456 432 411 393 422 434 401 352 359 350 338 375 415 401 375 385 361 379 359 344 373 385 397 413 381 397 411 440 417 403 381 383 387 399 383 409 413 411 336 294 274 266 268 262 258 262 270 278 286 280 268 254 
262 270 262 254 258 272 276 272 280 284 278 270 280 288 272 272 268 258 278 272 264 266 262 250 256 282 352 491 477 477 454 430 413 440 424 385 338 318 310 334 385 462 434 419 356 359 328 346 338 356 365 375 381 371 356 338 310 326 328 334 338 314 334 358 348 348 326 290 260 264 264 256 242 254 258 248 270 266 266 256 
256 270 268 270 272 272 256 274 270 266 266 258 278 290 268 258 270 256 262 264 260 262 256 258 260 264 280 338 448 473 442 432 415 411 415 419 483 379 294 365 526 574 557 471 375 288 312 326 318 320 336 322 302 296 282 284 280 266 290 302 286 282 290 278 286 272 270 260 254 256 272 262 244 242 258 266 270 254 272 256 
264 282 260 264 262 266 252 270 268 270 270 266 270 274 258 258 258 272 248 260 258 270 238 252 234 246 252 260 284 352 419 419 399 411 409 487 578 561 533 537 592 582 559 481 304 260 272 274 270 288 284 272 270 274 256 256 242 244 246 254 248 256 258 252 252 248 246 264 234 256 248 246 244 266 258 270 262 282 256 238 
256 254 260 252 248 246 258 274 268 248 256 270 258 266 254 252 254 252 262 260 264 238 248 232 246 220 256 242 244 260 292 338 367 381 421 580 597 562 570 584 603 559 417 304 260 256 268 276 258 260 264 250 244 248 230 242 234 234 234 238 242 240 236 248 240 234 242 248 258 242 252 234 246 270 258 266 254 248 260 264 
248 254 266 256 256 234 246 262 256 266 256 264 260 266 246 258 242 250 242 250 236 246 234 230 236 224 232 230 214 220 248 262 264 377 413 524 572 551 568 562 553 405 274 252 252 238 254 248 248 258 258 254 240 246 234 232 226 226 232 222 226 220 222 234 224 222 218 240 226 222 234 218 218 240 258 256 268 258 246 262 
234 240 260 240 248 246 242 246 258 250 240 242 250 268 260 252 250 248 252 248 230 238 242 212 222 222 234 218 222 230 214 232 228 272 322 411 450 506 530 516 409 260 214 248 240 214 246 250 248 260 236 230 218 232 230 232 222 238 220 230 226 212 210 228 206 210 226 224 224 208 212 208 212 246 260 252 264 252 258 254 
234 244 234 220 222 246 246 234 244 244 246 238 246 256 244 234 238 250 240 234 244 234 222 224 224 214 214 228 220 212 220 218 222 226 240 258 276 268 312 304 266 216 216 222 224 214 242 244 230 226 242 232 224 246 230 220 216 210 220 218 220 216 218 214 200 212 216 208 210 216 222 206 208 232 254 252 246 252 242 244 
246 252 234 240 228 244 248 250 260 250 236 236 246 234 234 238 244 228 240 244 226 222 228 224 218 204 210 210 204 206 210 222 202 216 244 226 246 236 238 238 240 214 214 232 230 214 234 248 244 260 232 234 226 246 230 220 206 202 218 218 210 222 214 206 196 188 208 204 204 200 208 198 200 212 212 240 238 242 246 242 


