P2
80 60
824
58 52 52 43 60 50 58 52 67 50 41 39 39 43 54 35 56 21 43 29 19 25 33 39 29 35 29 25 14 10 10 21 31 19 29 29 33 35 43 52 52 50 37 27 35 39 41 48 52 48 46 58 77 83 90 67 71 79 67 52 48 48 48 41 33 54 39 52 64 112 176 335 435 389 278 123 81 85 64 67 
50 56 58 62 73 58 62 64 73 46 56 48 39 41 56 52 54 43 25 29 46 33 43 33 14 37 27 17 4 23 14 12 10 0 17 33 33 39 43 43 39 48 35 39 21 39 35 37 46 46 48 54 58 67 71 60 75 85 60 46 48 43 48 29 37 41 35 48 41 71 92 141 255 349 288 135 83 75 75 54 
64 67 60 56 69 62 58 75 64 60 56 48 48 41 56 39 48 41 29 35 33 25 37 33 39 35 48 21 14 31 23 21 12 19 19 37 31 41 56 39 39 50 37 19 25 50 43 50 46 54 52 73 69 75 83 77 71 87 62 58 60 43 39 31 35 54 35 43 21 35 52 77 90 143 174 110 87 83 67 81 
48 52 56 58 69 52 56 56 64 60 52 56 48 50 48 41 56 39 41 23 19 23 52 39 31 48 14 17 4 19 10 21 10 17 23 27 27 48 56 46 43 37 46 23 29 41 54 52 41 48 58 62 69 79 87 79 73 73 85 56 62 52 39 31 35 37 31 21 33 43 54 39 69 52 90 90 85 85 69 85 
60 56 52 62 67 52 75 73 60 62 60 48 52 41 48 43 50 48 37 41 41 27 41 25 33 35 35 27 12 31 19 19 17 12 27 29 41 37 41 33 43 43 29 39 33 50 43 52 48 39 52 60 75 79 81 75 77 85 67 58 73 50 46 43 27 48 41 29 19 31 33 43 43 60 62 81 81 67 75 75 
52 39 62 67 62 73 58 73 62 67 48 50 48 37 56 48 58 37 39 41 31 37 33 41 33 39 37 12 17 19 17 25 27 14 21 17 19 48 50 39 41 54 39 35 39 48 48 54 41 33 46 62 85 60 90 77 85 94 87 60 67 67 48 48 23 39 43 35 17 33 41 35 43 41 58 87 94 75 79 90 
50 56 58 54 50 60 69 77 69 56 43 50 48 46 54 43 48 35 33 37 35 46 37 39 29 43 33 23 25 25 25 19 17 4 17 31 27 41 39 43 52 41 41 27 37 60 43 56 37 52 46 71 62 69 98 98 90 96 85 75 62 67 54 48 33 46 31 29 35 41 41 31 54 43 64 87 83 77 71 98 
39 77 77 50 77 73 67 58 56 69 54 46 46 50 43 41 52 39 37 33 33 31 27 39 33 50 33 33 17 25 25 19 17 19 8 25 35 48 58 56 60 41 39 39 41 41 60 62 43 60 71 81 83 85 98 100 110 117 87 71 77 71 52 60 33 41 35 29 23 39 41 39 50 50 60 83 90 87 83 98 
37 64 58 62 67 67 69 77 62 58 56 50 50 35 54 48 54 33 35 35 48 37 35 43 35 46 21 12 21 41 29 21 8 25 25 35 33 46 39 50 46 48 46 48 29 56 48 69 56 52 67 67 87 90 106 112 112 119 98 79 71 87 54 69 31 46 52 35 23 39 46 52 50 37 56 77 79 85 75 104 
43 62 46 50 52 62 81 58 56 64 54 48 54 48 50 39 48 33 41 41 35 39 43 27 23 35 23 27 12 29 12 8 14 19 35 37 37 39 43 62 41 48 46 41 33 50 60 50 46 58 62 71 81 83 104 110 108 123 92 77 81 83 60 64 27 48 35 29 35 35 33 43 50 48 58 79 85 83 64 98 
50 48 58 58 73 54 62 58 60 54 52 50 48 31 43 41 43 31 43 46 50 37 46 33 29 33 27 27 19 27 17 25 8 17 21 25 43 54 50 39 54 60 41 35 31 48 48 56 52 54 56 67 92 81 96 87 87 100 87 90 90 83 67 46 43 43 41 37 27 35 31 39 39 39 52 87 75 85 56 106 
62 58 62 48 64 60 75 60 58 58 48 60 46 33 41 43 50 37 50 46 58 33 41 37 29 56 31 29 35 27 17 14 21 12 21 35 52 60 67 62 58 58 50 52 50 56 64 64 69 64 67 69 106 85 104 87 110 121 90 87 96 100 94 87 69 71 54 50 29 46 41 41 39 52 60 87 75 94 67 98 
54 35 67 71 67 79 73 64 58 62 58 48 52 41 46 52 60 58 73 100 73 56 64 48 37 41 27 23 29 27 21 25 27 17 31 35 41 64 56 58 67 54 52 52 62 64 67 52 58 64 83 79 110 90 108 121 104 112 85 127 127 137 194 217 170 123 58 39 43 52 43 54 50 37 46 98 96 117 94 108 
41 48 64 58 60 64 54 39 54 56 64 50 50 33 50 33 87 139 219 235 239 253 135 60 31 33 19 21 10 19 23 29 17 14 6 39 52 58 52 64 67 62 67 43 52 56 62 71 75 81 85 110 141 135 176 199 229 280 290 304 329 393 475 461 435 369 156 52 52 46 54 50 50 56 69 174 176 176 172 184 
56 52 58 41 69 64 58 48 48 43 60 29 52 43 52 79 188 349 369 343 363 592 425 139 50 52 35 19 23 29 21 25 33 43 48 50 67 94 85 77 114 77 85 73 87 77 83 127 186 253 304 355 433 435 465 497 501 531 517 503 447 459 501 477 499 455 312 85 75 58 50 73 81 62 77 196 249 241 223 247 
71 69 56 67 67 77 54 60 77 67 60 62 56 56 73 168 318 409 393 365 557 693 604 413 121 69 52 23 29 14 35 46 62 141 170 164 178 219 229 255 266 264 196 192 180 237 324 423 477 513 519 531 539 511 491 447 355 447 443 447 417 399 419 421 467 447 403 203 139 104 94 94 104 83 100 190 221 219 229 235 
62 58 56 46 64 48 54 60 58 64 46 50 56 56 104 239 347 395 369 477 667 695 648 630 469 294 79 35 31 29 64 135 284 391 397 395 379 401 399 381 385 473 491 473 491 523 563 594 539 523 447 397 365 367 335 288 268 345 345 353 365 347 375 379 405 397 353 333 304 264 257 243 229 199 203 211 201 186 196 186 
46 58 50 58 50 69 69 54 46 62 46 46 52 37 162 290 337 397 395 608 677 673 657 598 561 499 261 67 39 67 154 324 461 463 441 443 433 407 433 385 403 405 415 393 423 443 455 457 447 423 363 349 312 292 278 243 235 296 306 343 343 351 363 361 351 369 357 351 333 355 333 329 326 318 306 268 188 184 170 194 
48 54 67 62 48 58 58 58 58 60 50 48 56 73 172 280 343 409 531 685 681 665 655 606 577 505 469 259 168 223 290 447 497 505 483 471 453 435 415 387 387 419 405 403 411 431 439 421 387 355 331 306 284 264 259 247 231 280 268 292 308 349 369 361 375 363 369 369 361 373 363 369 361 361 365 296 176 176 176 194 
39 41 48 50 54 54 39 52 48 62 56 62 43 50 154 324 349 407 579 708 661 657 636 648 608 539 523 481 359 349 347 487 497 493 475 445 409 397 395 391 401 419 429 419 403 405 387 353 341 343 326 304 294 264 247 249 245 264 261 278 282 322 365 389 407 417 435 423 389 397 387 383 385 403 397 331 199 176 170 188 
54 50 41 41 52 43 46 46 48 56 58 41 48 58 85 253 367 405 581 693 651 655 642 675 665 665 608 549 517 511 407 457 459 417 381 393 401 395 389 381 405 435 449 435 415 405 379 335 341 331 308 316 292 274 276 255 249 280 300 282 298 318 345 383 405 431 445 447 435 439 415 421 413 393 405 347 188 188 172 182 
33 52 48 54 54 41 64 50 50 52 50 46 43 58 71 114 249 377 557 628 630 632 634 673 669 695 624 571 596 640 465 435 377 369 373 367 371 367 381 391 431 451 459 427 415 409 403 359 326 312 304 314 304 294 292 270 264 312 316 320 320 318 345 391 411 433 413 433 437 439 433 419 413 411 387 326 203 188 184 188 
58 62 48 50 67 67 52 60 54 48 50 54 35 35 73 60 87 166 341 511 598 588 608 648 636 644 616 604 624 533 465 435 461 425 413 393 371 373 385 399 445 469 439 437 427 417 417 383 339 326 322 306 306 300 290 290 264 312 333 357 361 347 355 381 447 431 419 401 389 393 403 395 391 391 397 331 203 170 182 199 
50 67 62 58 67 58 58 50 48 48 48 58 33 56 33 46 67 50 110 217 343 441 533 586 604 600 622 620 563 455 497 501 503 505 455 415 375 375 395 387 425 439 461 435 441 449 431 395 377 361 326 296 294 292 294 274 274 318 335 351 353 347 367 377 437 451 415 405 385 381 381 367 377 379 377 326 213 178 164 186 
56 52 52 58 56 56 52 50 52 46 48 56 46 50 37 48 52 37 39 62 79 117 182 290 485 624 638 485 457 507 523 529 503 507 461 395 377 393 397 397 413 409 413 421 447 453 455 411 401 369 333 314 300 302 292 292 288 324 316 329 320 333 326 326 349 365 369 355 385 379 405 371 355 349 316 276 201 186 174 194 
50 50 43 52 56 39 50 48 54 58 54 58 43 54 41 43 52 41 41 50 50 23 58 90 199 393 551 292 363 521 537 531 515 497 457 399 389 385 377 391 399 427 419 431 433 475 465 409 387 381 365 341 329 304 304 298 288 320 331 343 341 361 333 337 353 355 381 351 379 399 423 393 387 389 397 337 213 201 184 178 
56 48 56 64 54 46 54 43 56 56 58 43 52 46 29 50 46 43 43 31 41 39 54 71 180 253 322 337 431 507 525 527 519 503 477 427 393 397 393 399 405 415 425 421 435 451 467 413 409 383 389 361 345 333 320 300 296 353 361 369 353 365 361 347 361 365 385 367 387 391 405 431 431 415 415 357 215 192 192 199 
56 52 48 48 48 48 56 46 43 48 58 48 37 35 35 39 35 37 39 37 35 27 46 64 94 219 441 459 465 479 495 503 497 499 479 451 423 415 401 405 407 407 419 417 443 453 473 449 425 405 385 363 349 345 337 314 316 379 383 403 379 369 379 355 363 385 389 413 415 403 407 395 391 369 383 339 241 192 192 215 
52 56 56 56 52 54 48 62 48 56 58 52 39 50 48 48 41 33 27 31 48 37 50 46 67 192 479 459 455 481 493 489 481 477 457 453 453 453 447 415 431 421 443 429 443 441 473 465 445 413 405 387 353 361 351 316 331 381 399 405 391 411 427 375 397 409 409 413 401 399 399 379 371 363 351 318 225 213 205 199 
43 33 56 58 58 56 50 54 56 64 71 60 41 43 43 37 37 37 46 31 31 31 46 37 52 247 525 483 463 463 451 451 441 431 427 419 443 493 475 449 443 449 485 475 451 461 479 477 441 427 421 405 367 357 345 337 347 393 433 447 469 475 495 473 467 457 421 391 391 383 365 349 353 331 335 316 233 207 196 223 
39 43 56 52 52 41 46 41 46 46 54 50 50 46 50 35 43 33 33 29 35 25 41 52 87 286 491 441 469 485 495 449 445 423 435 421 445 473 513 483 471 471 489 485 485 487 483 477 445 411 439 413 363 371 385 371 385 485 501 511 495 525 541 543 543 489 417 397 381 367 373 353 349 347 333 292 221 211 203 223 
52 35 43 48 60 52 62 62 48 48 52 58 46 35 52 29 43 39 25 31 39 41 43 41 73 261 477 489 493 519 537 521 511 489 495 493 487 487 505 519 513 485 491 481 487 481 471 487 443 423 411 383 373 387 433 479 527 586 569 557 531 523 551 549 563 501 425 395 383 363 351 349 335 326 312 322 225 245 217 223 
54 48 48 56 43 69 62 77 56 67 56 52 41 43 43 41 41 33 43 37 27 37 52 60 67 156 409 487 527 505 507 481 467 425 433 441 487 549 541 531 533 499 481 463 479 461 467 455 441 415 409 423 445 493 543 571 579 612 583 559 539 531 541 547 539 493 429 387 373 351 341 331 316 320 337 304 268 266 253 241 
54 67 67 43 67 54 62 56 58 69 75 54 43 29 39 33 43 39 43 43 33 37 50 43 39 79 237 413 457 491 499 469 463 437 387 373 479 521 543 535 543 501 467 437 447 449 465 483 501 481 513 521 561 555 567 588 569 588 575 553 525 513 517 473 477 429 347 298 237 182 180 174 176 209 233 268 280 290 259 266 
58 52 62 56 64 67 46 48 64 56 69 71 69 37 48 31 46 46 31 23 25 37 43 35 25 50 94 251 375 389 409 395 369 353 361 387 415 427 427 417 413 393 395 419 435 461 483 509 553 555 535 563 583 553 549 529 487 399 387 399 385 367 310 217 219 139 108 71 52 43 48 27 37 54 79 154 243 274 268 268 
58 54 62 41 54 56 54 54 67 69 58 73 52 39 54 43 41 48 52 29 43 29 46 35 33 39 54 62 162 343 407 407 429 453 441 425 411 367 343 347 347 367 395 429 451 481 479 463 503 563 567 571 531 449 413 365 237 141 108 114 102 110 92 98 87 58 52 37 27 25 41 17 21 35 39 119 213 215 231 257 
69 46 73 62 64 54 60 60 62 64 71 73 50 50 39 39 39 37 31 29 41 46 46 43 33 50 46 37 52 117 324 471 499 513 491 445 431 421 355 331 333 345 363 399 483 487 467 441 469 545 455 324 215 131 188 209 108 102 67 77 73 81 106 73 71 46 33 25 31 31 35 27 41 33 19 83 114 123 125 235 
56 48 62 69 52 54 60 52 67 69 77 75 52 58 46 37 43 41 50 29 43 33 41 39 37 56 41 31 33 98 375 459 471 467 465 463 457 473 453 369 333 339 361 411 461 475 433 417 351 205 117 102 85 92 102 83 102 94 67 54 69 60 85 60 54 39 25 41 39 31 39 23 23 37 31 56 87 123 100 135 
43 50 67 62 62 77 54 62 54 58 62 73 60 56 56 50 43 48 39 41 43 33 56 46 35 52 31 41 54 176 459 467 425 423 409 411 431 471 475 475 425 365 401 423 461 445 441 403 209 83 77 77 102 81 90 75 67 96 64 64 50 60 62 64 56 64 41 41 37 43 39 41 35 35 64 71 83 108 106 131 
54 64 60 60 64 60 60 62 62 69 64 75 46 50 60 56 46 43 56 52 54 33 48 35 41 58 39 56 81 331 507 509 513 517 493 475 459 441 427 443 469 409 393 437 453 427 431 393 178 75 77 83 108 96 94 92 85 87 73 77 60 54 81 77 73 52 43 64 79 81 52 41 43 31 56 94 137 123 112 131 
46 60 60 54 67 75 64 71 50 56 64 77 60 60 43 67 58 69 85 98 71 77 81 67 62 62 48 62 156 469 519 541 541 513 521 511 479 469 431 441 447 405 393 425 427 425 437 395 298 292 304 300 316 345 276 290 251 227 203 225 231 205 194 199 213 178 176 180 162 152 123 81 67 77 81 127 174 203 184 205 
73 52 43 52 58 54 56 71 56 64 56 64 48 64 71 73 119 264 363 451 459 355 284 251 104 73 64 79 329 501 549 553 545 529 505 481 479 469 447 423 435 387 373 393 395 407 419 443 437 427 435 451 411 445 421 415 477 395 383 437 419 367 373 403 391 399 401 395 379 371 351 253 192 158 133 190 247 239 211 245 
69 52 60 50 71 58 58 62 60 75 69 75 64 64 85 172 365 624 663 679 669 671 663 567 280 192 184 278 489 549 543 557 543 535 521 487 457 457 441 447 411 379 377 391 383 383 403 429 445 439 463 459 417 417 399 411 433 367 375 445 359 377 375 421 397 423 409 423 425 435 415 379 369 357 322 270 259 225 235 261 
62 67 69 62 67 73 71 62 46 48 62 73 71 81 164 439 695 726 729 698 693 735 760 737 706 691 671 685 571 555 551 553 539 535 521 501 465 443 417 431 429 365 351 359 365 367 387 357 427 459 491 481 401 413 373 403 409 347 383 403 383 379 393 431 413 427 423 439 421 445 433 381 377 369 371 302 247 235 225 231 
58 69 60 73 71 64 71 73 71 60 69 77 67 85 284 634 778 743 762 739 695 776 803 803 776 803 760 741 571 555 537 555 545 531 539 533 499 463 455 441 401 333 341 355 345 359 357 371 435 435 481 463 401 395 345 389 393 363 387 417 375 389 401 423 433 431 413 425 399 411 423 381 371 365 371 314 231 221 217 229 
60 62 58 75 75 67 67 75 62 58 79 77 79 94 294 648 764 755 753 749 733 784 815 820 797 795 791 733 547 507 511 545 553 539 547 529 497 487 465 437 401 349 345 341 337 369 353 371 431 455 467 443 403 389 329 381 397 339 385 405 395 407 399 403 405 385 369 345 343 347 371 371 377 371 387 304 221 227 231 233 
60 75 73 69 71 71 75 69 67 67 69 77 79 85 211 507 714 741 762 772 758 774 791 819 786 807 780 712 539 487 501 503 499 497 491 495 489 471 461 445 419 363 363 363 341 324 304 329 423 447 451 431 399 385 335 395 393 345 375 379 379 389 377 367 373 375 361 371 341 353 365 375 397 397 399 310 235 223 223 221 
75 77 73 67 85 77 60 77 60 64 67 81 75 83 137 339 659 749 751 751 755 770 782 824 807 795 770 679 545 531 525 525 503 455 433 419 427 423 443 441 403 393 401 395 357 335 308 320 411 451 425 405 423 389 355 389 405 361 387 367 369 371 371 363 351 357 379 379 371 383 395 401 409 431 447 326 229 223 209 231 
77 77 75 73 69 58 62 62 67 60 73 67 79 77 102 174 449 653 716 737 722 735 788 786 778 784 770 634 563 581 571 545 529 497 447 425 417 413 407 399 385 385 403 389 351 337 324 341 403 425 411 389 421 413 353 395 423 391 373 439 407 403 389 373 355 351 365 389 395 417 405 415 409 431 449 326 221 225 211 223 
75 77 67 73 73 64 71 73 56 58 67 85 83 64 71 87 164 355 537 602 671 602 665 598 545 594 695 559 571 573 567 547 511 495 461 429 407 413 413 395 395 393 399 373 341 345 339 359 411 437 399 397 433 425 359 393 423 363 373 409 441 419 435 445 401 387 391 451 463 467 441 417 425 421 423 308 235 245 229 237 
62 79 73 71 77 79 73 56 69 71 69 67 92 69 73 73 87 123 207 349 399 377 335 270 182 264 509 525 567 563 537 531 509 495 455 425 417 421 427 439 479 437 407 365 355 365 349 377 417 437 391 403 455 443 365 413 397 357 343 401 389 397 427 431 429 431 427 445 463 463 461 451 445 421 320 272 231 237 243 253 
71 79 58 75 67 85 83 54 67 79 64 75 90 73 67 54 62 64 81 112 152 158 125 108 79 145 409 507 539 541 525 519 529 513 477 447 431 437 445 475 509 483 431 363 397 387 385 399 413 409 411 423 471 441 367 409 387 349 343 409 389 377 405 407 435 447 467 445 449 463 451 455 459 455 280 239 221 239 251 243 
73 73 73 71 69 77 54 56 69 67 69 79 92 69 60 64 62 58 75 60 71 73 67 58 60 104 355 533 563 561 541 497 485 495 495 475 457 463 467 495 521 473 415 403 399 415 407 415 409 419 405 419 465 425 359 417 389 349 359 387 365 381 389 415 457 457 483 459 479 491 483 471 489 449 268 243 223 231 247 243 
77 73 62 69 75 87 62 52 71 77 64 92 71 77 71 58 71 41 62 50 46 50 60 67 62 98 290 523 565 561 555 527 467 429 423 443 441 453 483 491 517 455 417 425 407 413 397 421 431 431 427 429 461 435 375 445 383 339 363 363 351 389 401 433 453 467 481 475 479 491 477 471 471 433 274 264 227 249 245 245 
71 67 71 69 71 77 73 58 58 75 52 77 77 87 69 52 56 50 48 41 39 48 48 71 56 79 276 527 495 465 465 461 455 435 439 429 443 443 435 375 397 397 417 437 415 433 413 451 461 469 447 437 449 385 389 473 393 353 361 345 373 427 411 453 437 451 451 463 445 467 485 503 503 437 266 278 243 235 243 239 
52 64 69 73 62 67 60 46 58 69 52 69 56 75 64 60 64 43 54 35 39 41 54 54 54 77 245 471 497 499 501 491 435 427 443 457 457 441 361 326 322 385 385 437 429 449 421 447 461 457 475 451 411 359 431 513 421 355 359 359 387 449 421 443 443 467 443 469 477 507 517 517 495 421 270 308 251 235 245 241 
60 60 62 75 79 73 67 64 71 83 64 81 79 75 67 60 64 50 52 33 39 39 46 52 41 73 207 473 511 513 497 493 461 437 427 439 417 343 318 337 359 367 397 423 445 469 425 439 447 457 477 449 391 365 465 523 429 391 375 369 393 455 427 431 445 493 501 491 509 527 521 499 481 403 272 306 257 231 217 231 
60 73 75 92 75 98 75 73 69 60 75 90 77 81 64 62 67 43 43 46 46 41 46 50 50 73 121 355 489 495 489 459 407 389 397 373 322 310 331 324 363 393 403 411 451 471 433 445 457 435 443 387 357 341 457 489 437 427 403 383 385 429 439 433 463 509 501 483 495 493 485 487 455 387 257 308 251 219 217 231 
73 60 67 62 75 79 69 67 62 73 69 77 79 85 69 56 56 52 52 39 54 31 60 33 37 60 56 129 292 437 453 423 395 369 335 316 320 331 349 353 375 409 415 421 445 455 409 409 425 393 367 288 266 316 302 314 375 415 385 363 355 367 387 421 439 453 453 453 417 439 459 451 427 355 245 272 243 199 217 217 
67 75 81 75 81 96 58 75 67 83 73 90 77 94 77 73 71 58 54 39 46 43 54 46 52 50 54 67 96 158 272 320 304 268 272 286 312 343 369 357 381 409 405 413 425 405 296 176 184 201 160 141 125 141 135 117 137 170 190 209 229 239 290 314 339 316 337 324 329 357 357 355 345 278 182 158 184 152 143 190 


