P2
80 60
675
14 27 23 33 50 25 23 39 31 37 46 33 29 46 60 46 46 54 44 54 54 60 58 56 58 54 56 50 58 64 81 69 77 79 89 96 89 79 81 73 67 75 96 104 87 85 91 81 85 87 77 89 77 91 89 96 110 91 110 106 133 188 218 234 247 236 243 224 178 143 124 116 116 124 100 112 135 122 216 454 
14 14 31 41 18 31 23 31 31 48 33 41 39 52 46 50 56 39 44 52 39 50 56 48 52 41 54 48 64 69 81 79 73 69 83 89 91 87 91 75 71 83 102 102 89 87 96 87 89 96 89 91 87 94 98 112 122 112 124 151 265 342 362 372 394 392 442 438 390 360 316 281 253 208 155 124 141 163 370 484 
14 25 25 46 39 29 14 33 41 27 48 39 60 37 60 46 35 60 56 58 58 54 58 69 52 60 58 64 73 77 79 77 83 67 77 89 96 83 79 83 89 85 102 98 94 85 94 94 104 108 102 110 96 91 102 110 143 122 149 271 376 414 416 410 432 450 490 500 472 452 470 472 486 492 416 308 226 314 494 512 
20 39 16 39 35 31 37 44 44 50 31 39 35 62 60 50 41 58 54 73 67 52 87 75 64 75 79 67 81 83 79 96 94 83 91 94 102 102 106 87 94 91 98 108 98 100 106 91 110 120 106 114 118 124 120 124 127 143 204 360 426 398 424 422 434 472 528 538 526 520 526 518 552 550 565 550 486 480 536 538 
29 31 14 37 39 41 10 37 31 44 48 46 41 67 60 50 54 52 50 60 64 58 75 64 56 77 71 77 77 83 85 98 98 94 96 94 89 102 112 87 98 87 108 110 108 106 112 108 108 131 120 124 127 122 122 141 157 153 251 392 440 460 442 418 440 488 528 528 530 516 510 522 524 565 569 587 575 567 567 565 
23 16 25 41 37 29 35 37 48 41 44 56 62 67 50 64 60 64 58 64 58 67 79 71 69 73 71 71 87 81 81 98 91 94 100 102 98 91 98 89 89 91 116 120 108 116 108 104 108 122 131 143 149 165 151 157 184 186 308 436 482 472 456 440 454 456 474 482 474 474 468 460 510 524 550 579 581 562 536 562 
35 33 18 35 37 62 41 46 48 46 50 39 58 58 69 56 52 60 62 69 69 73 67 79 77 83 75 83 89 83 89 102 106 89 106 118 112 102 98 87 100 104 112 124 106 108 108 116 129 161 200 218 245 271 238 208 198 267 374 386 360 348 430 430 430 446 474 474 446 468 482 442 522 490 462 490 536 534 528 550 
23 64 37 41 52 60 44 56 50 79 44 50 64 75 54 48 48 64 81 62 71 77 77 83 83 85 75 81 83 89 96 110 104 112 98 118 98 108 96 104 96 98 124 124 116 108 114 116 159 291 384 462 518 556 516 452 416 498 581 593 522 424 434 466 462 456 472 462 458 470 478 438 500 492 444 424 452 462 512 518 
20 50 56 33 58 54 50 39 54 58 67 60 62 64 71 69 62 52 79 77 77 75 85 104 85 81 91 83 85 94 91 106 100 110 102 116 116 108 116 104 100 118 114 131 118 118 118 131 249 406 563 615 630 607 626 603 607 626 640 623 625 567 448 462 500 494 476 462 456 458 442 426 454 490 434 414 396 414 468 508 
23 39 41 50 56 52 46 35 46 64 73 75 71 67 71 64 83 54 85 79 81 81 71 89 81 75 89 81 94 98 98 104 102 112 104 114 124 110 114 100 96 110 129 137 122 114 122 147 295 516 672 642 632 611 609 638 619 611 646 640 634 611 476 464 432 430 448 452 442 424 428 428 430 460 412 366 374 372 430 464 
31 44 37 60 46 60 48 46 54 62 67 54 73 62 69 60 67 64 71 71 67 83 69 87 75 89 87 91 91 100 96 112 106 96 110 131 110 102 116 106 102 112 122 133 120 133 129 143 318 550 670 656 660 615 589 617 587 563 619 628 652 599 490 412 392 414 434 436 416 416 450 428 420 428 374 356 362 358 428 450 
62 52 54 44 44 67 56 64 58 56 62 54 67 60 62 75 60 73 83 71 73 83 79 85 96 89 77 87 100 94 85 108 108 110 104 118 114 108 110 100 116 124 127 124 122 124 122 157 314 482 666 658 652 642 599 613 591 536 642 617 556 512 502 490 468 432 404 398 432 434 460 440 420 436 374 358 356 368 428 448 
31 56 33 64 41 64 52 52 50 52 58 56 56 77 58 71 62 60 58 62 67 64 69 73 73 83 75 75 94 98 91 102 96 100 108 112 106 108 110 104 96 114 112 133 116 114 118 139 241 354 585 623 634 617 607 615 550 504 548 454 368 478 458 418 404 384 410 422 442 458 470 440 444 432 384 374 362 374 430 452 
33 60 29 46 64 67 54 64 62 48 50 50 58 71 67 58 67 60 85 60 67 69 58 81 64 75 73 77 94 98 83 91 104 98 106 118 106 106 102 100 104 114 129 127 108 120 118 122 163 257 400 524 514 450 436 378 293 364 416 378 368 376 382 398 398 416 440 452 458 462 446 426 420 434 404 394 400 380 422 464 
48 56 29 33 46 60 60 69 50 58 67 50 83 54 75 54 62 69 62 64 83 67 67 85 79 73 71 75 85 102 96 91 100 98 96 108 114 108 112 102 114 122 139 124 116 116 118 116 127 141 184 208 200 161 161 182 230 432 490 458 438 416 414 420 432 430 462 456 462 442 464 428 422 450 420 392 390 398 446 464 
44 48 41 56 56 60 52 58 52 56 62 52 60 85 56 54 64 58 67 58 64 75 83 69 67 89 71 71 73 77 83 91 106 94 98 100 104 96 108 108 122 127 131 127 122 112 124 106 120 127 118 131 149 143 155 178 257 480 518 480 416 312 370 422 436 414 436 446 432 436 432 406 420 444 394 408 412 412 452 502 
44 58 41 41 54 54 37 39 50 48 41 46 64 64 58 48 69 54 52 62 67 52 64 60 64 83 71 67 64 73 89 85 96 91 81 108 114 94 116 118 108 124 122 124 110 122 122 120 120 135 137 137 145 151 173 293 468 589 585 560 516 400 334 420 448 422 412 402 412 394 400 396 404 448 410 410 446 436 500 524 
27 48 31 46 37 50 48 41 60 54 60 41 62 64 67 54 75 64 69 69 73 64 79 79 62 83 87 73 81 81 77 102 100 98 81 106 112 96 96 112 106 127 133 137 116 139 143 131 137 145 153 167 202 218 376 563 587 583 565 567 577 528 412 366 322 297 273 277 271 297 334 354 374 400 392 424 470 452 512 528 
37 54 52 50 52 60 52 48 52 64 64 69 56 77 69 62 73 69 75 75 85 87 71 77 79 83 75 75 89 98 91 108 108 100 102 110 122 102 133 186 169 157 149 153 151 143 153 143 153 190 253 418 512 536 554 569 569 552 536 518 486 348 232 204 218 218 212 214 208 178 196 210 220 267 285 358 488 478 520 516 
41 48 35 46 52 69 56 64 62 75 75 64 56 94 77 69 64 64 87 85 69 73 81 81 83 85 96 89 96 104 108 122 106 108 122 118 129 131 141 277 426 414 330 285 253 243 218 281 372 476 546 563 581 577 560 550 532 488 432 303 216 186 180 198 194 198 210 184 173 149 161 149 139 145 165 269 478 478 508 528 
67 67 67 73 50 73 58 62 71 62 81 64 64 81 85 75 62 77 87 75 87 83 96 83 87 89 98 100 94 89 112 122 116 104 108 118 118 139 200 241 322 452 556 565 536 536 506 524 569 597 583 589 575 562 496 422 324 216 178 153 157 169 171 202 194 182 161 159 157 141 143 124 127 131 157 232 462 494 512 516 
33 46 52 54 56 64 64 58 75 62 75 75 77 77 85 73 71 67 77 77 75 77 102 102 75 96 87 100 104 110 110 120 112 106 102 127 116 145 265 370 412 464 558 587 575 579 556 562 579 587 569 538 462 344 210 180 171 143 141 129 141 147 151 161 165 147 163 149 139 127 120 127 108 133 137 198 440 508 510 516 
44 67 50 52 69 69 67 75 73 71 67 62 69 83 81 81 94 87 83 77 87 79 100 89 87 89 87 79 96 96 102 116 116 108 116 120 120 122 141 137 163 306 562 603 567 538 514 420 348 310 257 222 182 155 153 155 155 129 133 127 135 161 163 159 157 155 171 149 151 124 120 112 118 129 131 184 412 480 486 502 
52 67 56 64 60 75 69 56 62 58 83 75 79 81 77 79 85 69 81 91 89 96 87 100 79 98 87 85 100 100 118 102 108 108 112 135 129 118 135 116 127 173 299 456 378 303 226 178 151 157 159 143 153 143 149 149 157 145 143 139 147 159 163 167 157 159 159 149 141 129 112 108 122 129 118 161 404 442 468 478 
54 54 56 52 69 77 71 58 75 71 79 64 91 96 91 81 77 96 87 87 85 87 91 104 89 96 94 79 98 104 110 118 98 122 127 139 114 118 135 112 135 129 155 184 159 155 149 145 153 167 151 161 153 159 153 159 169 151 153 145 159 180 173 171 155 161 157 161 139 139 133 131 129 131 127 173 394 406 436 480 
62 69 58 69 67 71 64 60 73 77 83 81 71 81 89 79 83 81 87 75 79 79 94 100 96 83 85 96 102 102 91 114 104 118 120 127 120 135 129 114 129 155 159 161 159 163 186 196 206 210 236 257 265 263 234 216 200 214 220 202 200 198 176 167 169 155 155 149 194 220 226 208 208 210 208 228 382 390 424 462 
56 73 48 69 73 75 60 58 58 69 89 83 81 81 77 64 83 85 81 71 91 87 102 96 91 85 91 85 98 104 77 114 110 108 112 124 122 129 120 131 192 330 356 344 306 350 392 402 424 454 468 474 486 500 490 444 418 420 420 420 414 360 253 202 180 169 171 163 222 273 297 293 310 301 295 316 404 396 422 442 
50 77 56 69 67 77 71 58 71 69 77 71 83 75 87 79 79 81 87 77 83 87 85 91 98 79 85 94 104 98 96 96 104 98 94 122 118 127 131 137 141 188 249 350 470 500 522 488 496 522 506 494 510 518 534 540 510 470 466 472 508 508 452 303 230 196 176 173 226 285 306 318 330 326 324 334 408 442 440 446 
54 52 54 58 75 77 73 60 69 67 83 73 77 81 98 73 73 75 79 89 75 87 89 100 89 75 79 81 96 91 94 112 112 98 112 122 122 120 139 149 202 257 376 450 514 530 520 498 494 504 502 486 498 514 534 530 524 492 482 474 494 516 476 432 374 301 243 214 247 308 312 320 322 340 330 354 378 440 440 440 
44 58 64 69 73 83 60 60 60 69 85 71 77 81 89 79 67 71 79 85 83 77 83 87 71 77 79 79 94 91 98 104 106 94 110 133 133 118 141 173 326 378 410 490 518 530 510 504 480 350 299 306 322 398 462 474 514 498 474 464 468 454 428 396 374 386 360 340 332 346 366 342 350 360 364 356 358 378 420 444 
50 77 60 67 75 81 71 50 71 69 69 62 73 77 87 77 83 77 73 85 85 87 83 77 85 77 85 83 83 89 89 98 108 104 91 116 129 112 139 208 306 372 400 454 482 480 496 490 406 173 155 143 157 155 184 212 332 430 430 418 406 406 366 314 342 398 392 352 356 376 394 402 408 420 404 420 382 312 360 416 
46 62 46 54 60 64 52 58 60 67 71 69 75 77 71 94 77 83 71 87 81 79 89 91 85 77 83 94 87 83 100 102 98 104 102 112 114 106 135 163 277 360 378 426 261 234 452 436 251 137 143 145 147 165 161 167 173 293 374 376 390 378 358 384 406 416 410 386 372 388 428 420 436 428 420 412 370 310 346 384 
79 71 56 73 64 69 71 73 83 77 89 73 73 79 71 87 77 77 96 87 94 73 94 85 87 81 87 83 96 104 94 118 108 98 106 112 127 129 124 147 265 289 310 243 171 342 320 293 163 167 184 236 224 228 241 224 200 277 388 388 392 378 374 366 390 416 428 396 372 374 438 416 424 436 450 434 380 364 356 378 
58 85 60 77 83 79 73 67 81 83 83 69 73 89 77 73 79 75 75 83 83 91 85 91 83 98 98 89 94 98 102 108 116 116 114 116 137 133 131 163 151 190 155 151 135 332 251 182 169 277 430 472 510 520 544 496 360 366 444 388 380 360 330 340 372 406 366 364 370 388 446 408 420 408 434 446 565 488 390 384 
64 62 54 62 67 73 73 69 79 67 69 75 79 73 79 75 75 79 85 96 89 85 85 98 83 85 75 85 100 124 104 87 104 114 102 114 120 129 127 120 122 139 147 137 165 192 180 149 202 388 542 540 556 591 569 619 630 593 552 460 406 378 336 326 344 342 322 352 358 392 426 404 384 400 420 452 656 567 402 402 
56 75 79 73 83 79 64 77 64 69 75 77 67 94 98 81 98 75 87 91 106 102 96 91 100 110 98 96 106 102 98 98 112 116 114 110 127 131 129 116 139 127 131 129 145 155 135 159 275 460 524 508 550 581 571 581 589 585 589 552 450 396 364 330 316 312 320 338 370 404 416 406 392 396 378 432 675 569 390 402 
52 67 69 73 83 73 60 73 77 69 75 64 85 94 85 83 87 83 96 89 100 87 104 98 85 96 98 96 104 102 112 104 106 110 108 112 120 124 118 114 137 129 139 143 129 131 137 153 295 460 512 542 599 577 546 498 500 486 548 536 428 370 354 316 293 281 297 320 376 396 410 400 386 370 366 446 632 540 376 382 
69 77 62 73 77 79 62 77 81 75 71 71 91 87 104 83 79 83 91 94 96 91 100 98 102 79 87 96 108 118 112 116 106 120 102 116 129 120 120 118 110 139 139 141 133 133 145 135 257 380 422 512 546 562 530 468 470 440 504 474 374 360 340 324 291 283 295 314 370 386 412 420 374 370 358 446 577 494 352 374 
62 77 52 52 73 73 69 64 77 75 87 81 79 89 87 94 75 81 91 100 83 98 104 96 89 87 106 96 104 108 108 118 116 102 104 116 116 133 116 118 118 129 135 135 131 133 124 118 182 330 382 440 508 569 530 516 514 462 496 476 406 362 308 279 283 285 293 293 344 352 366 382 376 352 358 428 548 454 328 372 
64 73 56 58 81 83 73 69 81 75 87 79 100 89 85 87 87 98 94 87 85 98 89 106 89 89 89 89 108 116 104 114 116 114 106 120 120 122 120 110 108 120 124 127 122 118 122 122 129 220 310 344 408 452 470 464 416 322 392 412 390 336 328 303 287 273 261 267 320 318 328 368 338 308 338 414 528 418 314 344 
60 75 75 46 67 83 69 62 81 75 81 94 85 94 96 94 100 87 106 94 87 89 91 104 81 100 96 83 102 98 96 100 112 110 106 116 118 127 116 102 114 112 114 133 110 122 118 104 114 127 131 149 151 169 192 206 180 190 328 372 348 320 291 287 303 289 251 234 273 306 285 310 320 295 308 378 504 392 287 314 
52 69 60 52 77 81 64 71 67 81 71 83 89 87 87 81 98 83 85 108 102 96 98 110 96 96 87 98 112 98 112 116 106 120 129 106 127 114 120 100 104 110 124 120 118 110 116 110 116 114 106 116 108 106 127 133 151 230 340 336 332 303 283 273 297 275 234 228 255 299 265 279 281 273 308 342 388 301 287 303 
44 64 62 56 64 64 73 79 81 73 75 83 83 87 85 75 85 87 87 108 89 89 89 87 79 83 102 91 89 108 94 104 98 100 104 124 124 112 110 96 110 108 108 116 112 104 108 108 102 104 100 114 118 110 114 114 147 259 350 336 330 314 265 265 299 277 232 210 234 283 269 261 271 269 293 318 328 267 279 297 
39 62 67 58 58 60 69 62 67 62 67 79 85 85 81 75 81 77 89 85 85 81 87 96 83 102 96 91 91 83 83 102 87 91 96 106 118 106 108 89 98 94 106 112 98 96 100 100 104 106 91 98 87 94 104 98 159 310 346 360 360 322 277 236 279 297 257 224 192 241 263 261 251 259 277 285 277 257 269 287 
52 69 64 48 54 58 64 75 54 58 73 62 87 75 79 83 77 71 73 77 81 75 85 89 77 87 81 69 79 87 96 94 89 94 91 96 106 102 106 98 87 91 94 108 89 85 98 87 89 100 85 94 89 94 73 98 198 366 404 366 332 279 241 249 232 238 236 204 194 204 247 241 245 255 269 287 279 238 259 289 
44 46 37 44 50 64 62 69 58 62 71 69 77 89 60 64 62 64 73 69 64 77 83 94 85 91 87 73 83 89 89 81 85 85 89 100 98 87 106 91 100 94 98 116 79 104 100 98 91 100 85 102 87 79 85 155 330 444 460 436 368 259 210 202 155 91 122 163 159 178 198 190 230 245 271 281 271 251 277 291 
46 37 33 52 50 64 37 41 58 54 54 56 62 62 73 71 56 69 69 69 73 69 85 94 62 75 81 64 81 83 81 87 96 85 81 94 102 89 108 85 96 98 100 106 96 98 94 96 96 102 87 96 124 151 232 402 464 454 446 438 426 330 190 81 62 44 83 137 141 129 149 153 155 190 234 255 281 259 281 295 
35 39 27 27 50 44 39 46 41 52 48 44 48 50 56 35 58 46 56 60 60 69 71 69 67 60 67 69 94 77 71 69 77 73 89 94 94 87 100 104 149 176 114 96 67 89 106 73 89 94 85 137 293 378 428 468 482 434 418 414 394 291 120 58 39 31 67 114 120 108 127 127 135 149 171 220 275 281 273 299 
33 64 52 35 37 52 41 48 64 50 52 46 58 62 56 48 52 60 60 54 60 69 52 56 60 54 58 50 71 73 67 67 67 58 71 94 91 85 104 228 324 340 275 176 91 85 64 67 77 83 135 306 426 450 458 490 474 416 390 275 180 104 44 27 20 0 23 64 44 54 62 87 89 106 116 145 247 249 281 281 
56 56 33 46 54 54 52 54 73 56 62 60 54 64 67 52 64 62 58 62 71 58 58 75 69 67 79 73 85 91 77 67 94 71 81 83 96 91 104 202 299 372 390 362 234 145 102 89 122 228 303 376 412 470 460 448 390 245 151 91 71 71 50 31 31 39 44 39 31 18 18 41 50 44 58 75 184 245 271 291 
41 79 41 52 64 54 56 56 81 77 62 60 71 75 64 75 73 77 77 75 75 81 83 89 83 87 83 71 81 87 64 89 91 91 91 108 100 83 120 226 342 364 392 422 380 342 308 293 314 362 376 430 426 454 410 297 192 104 69 69 69 60 50 48 37 39 69 67 62 35 41 60 64 64 81 77 104 176 259 267 
54 60 73 39 58 69 52 56 52 71 73 77 77 79 71 73 79 87 77 94 81 79 96 96 81 89 87 85 94 102 94 104 114 98 114 108 108 94 122 116 200 277 382 440 434 416 410 388 402 406 424 408 372 299 190 155 122 81 79 62 67 73 71 69 69 56 81 85 81 69 75 106 108 118 94 77 104 131 208 263 
41 71 48 52 58 85 69 52 64 67 71 81 85 79 77 67 89 64 94 96 85 96 96 87 91 85 75 81 85 96 77 100 112 104 102 112 108 104 108 94 157 241 342 442 402 416 420 402 360 320 263 218 163 114 102 112 112 89 81 81 77 94 81 69 62 81 71 85 104 77 87 91 106 108 106 108 122 71 131 210 
39 69 71 62 81 79 64 64 62 69 67 71 79 75 67 73 81 69 77 73 83 85 87 83 91 81 81 79 104 96 75 87 96 91 100 102 100 106 94 96 176 245 275 285 234 232 255 196 149 145 124 122 106 96 96 96 106 96 94 83 91 85 87 83 71 67 83 83 77 85 83 87 85 102 112 116 110 58 102 188 
35 52 67 56 58 91 54 73 60 83 79 64 102 91 89 79 87 64 81 91 89 85 96 102 75 83 108 100 106 112 96 91 110 108 102 112 108 98 114 106 106 100 122 137 127 122 122 112 116 116 104 96 96 102 89 112 112 110 102 106 108 108 104 83 96 100 89 91 100 91 83 85 91 87 100 118 112 73 89 137 
44 67 69 56 62 69 60 67 64 69 67 58 71 79 81 81 79 73 104 79 79 94 104 81 87 79 89 96 108 96 100 108 112 100 100 100 102 104 100 98 94 100 112 112 94 116 112 87 104 102 98 116 89 100 89 127 135 118 116 110 114 104 102 98 118 104 114 104 100 89 87 98 104 106 108 118 137 87 87 108 
54 62 75 58 62 69 56 58 62 75 64 77 85 87 73 77 81 77 73 85 85 94 102 102 79 87 100 85 98 112 91 120 100 98 114 96 106 110 85 102 89 98 108 114 96 114 108 100 85 106 100 96 94 100 106 129 149 137 116 114 110 108 106 98 116 102 122 110 106 104 100 89 96 102 94 118 112 69 81 116 
54 67 69 71 64 81 60 64 79 71 85 81 91 87 100 83 83 83 98 83 94 104 116 102 98 102 100 96 114 124 108 100 104 100 106 122 114 100 102 85 87 81 108 106 104 96 94 98 106 94 104 100 108 118 118 131 147 127 129 100 127 108 112 108 114 120 118 110 96 81 94 85 98 114 118 124 124 91 87 116 
41 75 81 64 77 69 48 71 64 87 62 75 100 79 102 85 83 87 110 102 85 102 96 94 91 96 106 104 94 108 87 100 110 116 110 118 116 102 114 100 87 87 116 122 96 96 102 100 100 108 102 116 110 124 129 143 147 129 118 98 108 127 100 108 98 98 110 108 102 106 89 89 100 118 118 143 129 106 79 114 
54 71 73 58 73 62 62 54 87 75 77 83 91 85 87 85 96 77 104 89 81 87 104 96 87 102 94 81 104 96 106 112 110 110 108 118 112 108 106 94 85 87 112 114 122 96 127 102 100 104 108 129 110 131 135 155 149 127 116 116 104 110 112 100 120 106 116 106 106 102 94 87 100 108 112 120 133 110 100 122 


