P2
80 60
662
8 6 8 6 29 4 23 23 23 29 50 36 17 25 36 38 42 50 42 44 50 57 52 48 48 59 50 63 71 61 73 71 77 84 94 88 69 67 67 79 61 69 65 69 61 77 84 77 69 63 65 79 71 79 75 77 94 94 81 100 129 170 206 224 224 226 228 206 168 149 119 110 106 108 112 100 129 133 212 424 
13 4 23 19 17 13 25 21 25 27 36 27 23 15 31 40 46 50 40 40 38 42 52 52 46 54 50 50 67 69 61 75 71 73 92 86 77 86 81 79 75 67 77 75 81 94 88 86 75 73 75 73 73 79 81 96 92 110 110 155 253 336 348 368 384 388 430 434 392 354 298 275 239 194 141 117 133 174 376 466 
4 29 27 23 29 13 21 27 31 25 40 29 36 17 36 42 42 48 40 44 54 46 52 61 44 69 54 61 96 73 81 79 84 79 90 86 77 81 75 90 73 79 86 79 92 88 92 92 92 79 92 90 92 94 92 94 112 129 135 259 368 408 410 420 434 452 494 504 482 470 478 492 486 474 404 283 231 334 496 504 
8 36 19 13 17 17 50 46 42 36 19 44 29 36 38 50 38 59 50 52 52 50 73 61 63 65 65 69 94 96 81 98 88 81 96 90 100 98 86 100 88 77 86 88 88 98 100 94 96 90 96 90 108 96 94 112 112 149 188 348 410 380 418 416 436 472 530 540 530 512 526 550 538 546 544 532 492 496 530 544 
17 21 2 21 13 21 13 34 27 38 46 57 36 48 40 34 46 63 54 54 54 61 59 61 61 81 63 81 94 79 75 94 86 98 96 98 84 86 88 102 88 90 90 81 102 108 114 100 90 92 104 108 106 108 112 135 143 155 241 400 446 454 442 424 430 482 526 530 524 512 518 534 528 548 563 575 589 581 563 530 
8 2 23 36 21 17 27 46 44 38 57 63 52 42 38 50 59 73 61 59 59 63 77 75 61 75 63 77 92 88 73 92 79 94 112 100 96 94 92 100 88 86 94 94 102 114 108 106 94 100 121 114 131 131 137 139 155 194 310 452 492 464 454 454 446 450 462 470 456 464 462 468 504 512 538 571 569 561 550 546 
17 21 17 25 29 44 50 44 40 42 52 61 40 48 54 57 48 50 54 54 65 75 71 65 86 81 75 86 86 94 88 104 96 94 102 102 96 94 94 94 94 94 84 90 100 106 106 108 117 119 149 157 174 208 192 172 182 271 370 402 370 350 434 452 438 446 456 446 434 448 460 450 520 480 452 478 532 532 532 522 
21 36 29 27 23 31 40 46 34 63 52 63 50 48 42 40 42 65 71 57 69 69 61 67 77 75 73 81 79 81 90 100 90 100 92 102 98 102 81 104 90 92 100 94 86 110 119 108 137 208 314 386 460 498 456 392 370 488 571 585 512 420 438 484 466 440 444 442 432 466 462 428 494 480 430 410 436 468 506 486 
23 29 40 17 25 34 40 27 48 46 71 65 57 40 54 69 52 50 69 63 65 63 75 90 86 84 79 90 86 88 92 100 96 94 100 92 100 96 94 100 96 106 90 102 108 112 121 127 218 356 480 569 611 587 613 583 575 628 642 624 630 559 446 476 496 490 458 454 434 448 428 418 448 466 418 388 394 404 460 478 
17 27 31 38 34 40 48 34 31 54 63 79 63 50 61 61 75 59 81 63 73 75 63 81 81 84 86 86 90 96 86 96 88 104 96 100 94 92 98 112 96 102 98 96 106 114 121 139 273 442 636 624 632 599 603 630 607 615 634 628 634 601 472 470 430 430 432 432 426 412 406 420 410 434 392 356 376 362 426 446 
21 31 42 44 38 29 42 36 46 44 52 52 63 38 54 57 54 65 57 63 61 79 57 84 77 84 73 86 86 100 88 102 88 90 104 110 86 90 92 106 92 106 100 100 104 129 117 133 293 482 654 613 650 611 587 603 571 571 605 624 638 581 484 416 390 416 428 434 398 394 416 422 396 404 362 332 348 356 400 416 
29 29 44 27 38 46 50 46 44 38 59 46 54 42 48 59 54 61 63 67 59 79 67 73 84 92 79 86 106 88 86 88 96 106 96 102 90 96 94 98 92 94 102 100 96 117 121 143 279 442 650 636 648 618 591 571 573 528 616 615 565 496 496 500 478 436 404 396 412 412 426 428 402 414 358 332 342 366 396 410 
38 36 23 29 25 36 38 38 44 52 67 42 50 50 48 67 50 52 52 54 59 67 65 65 69 81 75 84 90 94 86 96 96 104 100 100 90 94 100 119 90 104 92 96 100 114 108 139 247 346 583 630 634 638 605 605 569 512 548 452 370 460 472 422 388 370 394 412 428 452 458 428 432 412 374 348 350 362 400 418 
23 42 23 27 38 57 54 48 48 54 50 50 42 61 48 52 63 61 61 42 59 63 63 81 73 77 73 79 96 98 86 90 104 98 100 106 90 92 98 110 92 100 102 92 84 117 119 123 166 257 414 567 561 542 504 444 326 354 398 362 356 358 372 394 388 414 438 454 444 452 440 404 398 396 392 370 378 380 396 410 
48 36 21 31 27 50 44 46 36 52 65 52 50 38 54 54 52 65 57 48 71 59 57 67 75 84 71 88 90 92 88 88 98 92 86 94 96 100 102 104 96 96 108 94 84 102 104 114 106 137 216 283 285 214 178 180 200 404 470 444 428 392 396 410 418 428 458 454 444 440 444 410 394 412 390 382 388 392 412 436 
48 27 40 42 31 44 50 40 40 44 63 65 54 54 44 57 52 54 54 44 59 67 67 63 63 84 71 73 81 79 81 73 94 98 94 90 94 86 100 112 114 108 108 96 108 108 112 102 104 102 112 112 131 137 141 166 208 444 494 464 414 314 354 406 410 404 418 426 414 422 416 400 400 424 386 386 410 410 444 470 
42 40 36 25 29 34 34 23 31 48 48 48 52 50 44 50 57 48 48 57 63 44 52 50 71 73 63 69 90 73 81 79 77 98 84 94 96 73 102 110 106 106 112 108 98 112 112 119 106 104 121 112 127 123 149 210 368 561 569 546 502 394 326 412 424 396 392 378 394 390 390 386 396 438 396 382 430 438 480 500 
15 29 36 36 23 25 38 31 48 40 71 42 48 44 59 46 59 57 71 54 61 65 65 63 67 84 90 92 102 90 77 92 79 104 92 117 106 84 94 125 125 133 117 125 104 127 129 114 119 110 129 141 161 172 251 486 567 581 569 559 579 518 404 356 320 289 263 257 265 289 326 348 372 380 380 394 464 448 510 508 
29 38 40 42 36 42 40 42 46 75 59 84 52 59 48 59 63 65 71 75 75 86 63 75 88 81 69 84 100 98 86 88 88 106 125 117 108 100 114 194 302 259 198 155 153 145 149 147 153 151 190 304 432 470 522 577 565 559 538 530 506 380 239 206 216 214 212 210 204 190 190 222 228 267 277 342 486 476 516 508 
27 31 27 40 34 44 42 54 48 63 65 67 44 65 54 57 50 63 77 69 59 79 73 81 90 79 84 88 90 102 102 106 106 110 125 114 104 121 172 306 376 478 486 394 356 342 265 265 328 390 482 542 571 563 552 546 524 520 448 360 239 192 174 194 190 192 200 180 166 153 159 143 139 147 166 263 470 490 506 514 
54 52 42 59 42 52 50 46 57 52 59 61 57 54 67 69 54 65 63 71 79 73 84 65 84 92 86 92 96 92 104 102 108 114 112 123 106 108 163 314 442 530 571 569 559 555 526 512 548 561 587 577 565 552 524 496 408 298 200 149 153 168 166 188 178 172 170 153 153 141 137 129 129 121 159 204 452 500 518 516 
27 36 46 36 52 40 59 52 63 54 61 71 67 61 67 69 71 61 86 84 73 79 86 77 86 90 77 96 110 108 108 110 117 117 121 133 119 114 159 320 426 498 561 567 573 575 565 550 579 561 571 548 498 428 302 228 170 157 133 127 151 141 149 157 161 157 161 153 141 141 119 137 119 129 129 192 438 528 528 496 
34 48 48 52 48 44 54 71 61 54 67 54 69 61 63 77 81 79 79 71 88 79 88 81 81 81 73 88 102 102 102 125 110 121 133 121 108 108 117 155 251 382 516 553 548 526 490 454 384 342 302 247 208 161 143 151 141 143 125 127 133 153 157 159 159 155 157 155 137 131 129 123 121 119 121 178 414 508 492 492 
40 29 48 54 52 50 57 52 54 54 73 63 67 67 65 73 71 71 79 98 81 88 84 86 84 96 75 86 114 98 112 90 112 114 112 123 108 106 121 123 149 210 222 224 253 261 210 168 149 129 147 135 139 133 129 145 137 149 137 127 135 143 155 168 151 155 163 149 145 135 117 117 117 108 110 143 406 452 496 470 
40 40 44 42 42 65 54 54 63 52 71 59 73 71 77 69 63 79 71 86 77 77 86 88 90 106 86 98 121 108 98 102 92 131 127 123 100 108 117 121 123 119 129 129 121 143 143 137 131 133 135 145 149 147 137 149 151 163 131 131 143 153 155 168 172 155 151 149 141 143 129 125 117 114 110 155 396 406 446 450 
44 57 48 57 44 63 54 54 59 61 86 75 54 69 65 69 69 69 77 69 75 71 79 90 90 79 88 108 106 104 94 102 98 112 119 114 112 108 110 125 125 133 139 135 143 149 170 168 174 161 196 231 249 255 218 220 206 220 206 200 192 184 163 161 174 155 166 147 182 208 220 208 186 184 200 198 384 390 432 450 
52 54 65 50 61 67 52 52 61 67 88 73 61 63 67 61 77 77 73 75 84 86 90 75 84 88 86 81 88 96 86 104 102 110 119 112 110 121 108 135 210 243 300 261 273 320 350 376 386 406 444 460 480 482 474 448 424 442 432 426 412 350 243 188 182 166 166 161 196 273 283 304 289 285 279 300 392 406 426 440 
38 57 50 57 44 63 50 50 63 69 81 75 63 65 71 84 67 79 77 71 67 84 77 90 98 88 92 90 98 96 102 98 100 108 104 114 108 127 129 161 180 186 255 406 460 512 506 482 502 510 500 496 506 514 528 516 486 484 472 478 502 488 412 259 214 186 170 166 196 285 289 318 316 314 326 326 404 450 450 446 
44 50 44 36 48 52 54 50 57 65 73 67 59 61 69 67 65 63 77 79 69 73 77 79 86 84 86 92 86 81 94 100 92 104 112 110 100 112 114 145 174 224 287 440 510 530 522 492 492 476 490 470 488 506 516 512 484 488 472 478 490 498 438 390 334 283 228 194 222 310 314 310 312 328 320 326 366 446 434 426 
44 48 59 50 59 63 42 44 59 59 73 63 67 67 61 69 61 69 77 69 67 71 69 79 75 77 75 84 98 90 92 96 98 94 110 108 114 127 147 267 344 376 428 492 530 536 518 514 460 342 336 320 334 400 422 438 492 496 464 452 442 396 368 354 340 344 322 302 298 322 354 334 346 360 360 350 346 368 422 420 
38 63 57 38 52 57 57 46 67 71 79 71 57 59 69 67 67 63 71 75 77 79 75 77 94 73 77 92 94 88 86 84 92 104 90 100 112 110 135 241 338 394 392 466 498 504 504 490 306 137 141 149 159 163 172 182 283 412 396 376 354 346 328 289 312 358 344 300 306 340 382 398 400 404 398 406 382 316 364 396 
34 50 44 34 46 50 40 52 46 69 63 54 61 54 52 84 59 67 63 69 69 73 79 73 77 73 73 90 88 81 88 90 94 100 94 106 102 104 137 281 267 277 378 392 300 338 488 382 176 110 135 127 123 135 141 153 166 316 352 336 344 322 324 342 356 366 368 342 336 354 410 400 414 402 408 408 368 318 346 368 
57 57 44 50 36 44 63 73 65 67 73 67 54 61 63 75 61 67 94 63 75 67 75 73 79 88 86 84 92 92 90 94 96 96 102 100 106 121 117 172 291 362 277 180 159 344 366 196 147 123 139 153 147 161 178 170 172 275 370 358 372 348 338 324 360 360 378 354 350 356 422 386 384 408 448 424 380 372 358 362 
36 71 48 59 65 48 71 57 65 63 84 65 52 65 67 61 65 59 71 67 71 77 86 79 86 81 86 88 86 86 94 100 96 108 117 106 108 117 117 178 220 184 135 137 178 354 206 149 137 202 328 364 380 414 468 410 275 332 408 358 350 332 322 314 348 356 320 334 366 392 432 392 390 386 428 420 540 498 390 380 
54 52 50 65 63 57 63 57 71 67 71 71 61 61 63 71 75 71 86 92 75 77 77 94 84 94 73 86 106 106 112 77 94 106 108 114 98 114 119 135 129 121 131 129 184 249 135 139 168 289 488 520 536 563 561 601 589 571 530 448 384 362 330 310 330 324 293 338 354 380 412 392 380 396 414 442 654 571 412 400 
46 63 69 52 63 57 71 63 57 65 65 67 54 67 79 79 81 61 77 77 86 90 84 81 92 102 90 104 94 94 108 92 98 106 114 114 117 114 112 127 131 117 117 121 127 149 127 151 220 362 536 506 522 569 561 563 581 593 569 536 426 378 346 324 308 298 306 322 358 384 406 388 374 396 382 426 662 567 394 390 
40 50 59 63 48 63 52 65 65 54 79 61 75 63 69 73 73 77 84 79 88 90 86 96 90 94 94 98 94 90 102 100 92 92 108 117 112 104 112 123 125 117 121 121 121 125 125 157 267 388 526 510 542 587 548 490 482 500 484 522 406 346 338 314 289 275 285 293 356 374 394 388 370 354 372 404 624 544 362 356 
50 54 59 59 57 52 57 65 67 69 77 61 73 65 79 84 73 77 79 84 84 81 77 92 98 88 90 104 102 96 104 104 104 100 110 112 102 114 110 129 108 123 117 108 121 123 129 143 265 346 434 484 520 536 526 458 436 444 434 452 342 336 318 304 285 267 281 298 340 350 398 404 360 344 346 416 579 498 348 328 
40 54 52 54 54 46 61 61 75 61 90 75 61 69 88 88 65 77 86 77 75 86 90 90 98 88 100 96 98 102 102 110 100 102 110 106 104 121 102 121 108 112 102 102 117 121 121 125 200 302 376 418 468 552 546 494 478 450 444 466 386 338 298 271 273 285 279 275 322 330 346 376 352 336 348 412 553 456 322 312 
38 46 50 52 57 59 59 57 65 67 79 75 75 59 73 84 77 88 90 73 75 92 79 98 108 94 100 92 100 114 102 108 106 108 100 108 117 102 106 119 102 117 98 102 100 117 114 110 143 237 348 376 424 490 512 510 478 398 384 394 366 314 306 291 287 277 259 245 296 298 322 344 316 302 322 402 528 440 316 310 
40 48 61 50 44 65 63 57 61 69 84 92 75 71 84 81 81 79 98 77 86 88 81 94 88 98 90 92 94 81 96 104 94 100 112 110 110 112 100 114 108 106 94 96 106 114 106 112 102 131 172 194 208 243 255 257 204 220 322 356 326 285 267 289 310 279 235 220 265 289 283 316 308 283 316 368 510 392 302 291 
38 50 65 44 59 50 44 63 71 65 73 75 71 61 77 75 86 79 77 96 90 98 90 98 92 94 94 88 98 100 110 102 96 117 117 102 106 100 104 108 104 90 96 100 100 96 104 104 100 98 106 117 108 112 129 147 145 239 326 330 322 287 275 259 275 245 210 208 237 279 259 275 275 261 302 340 378 308 275 279 
40 36 57 63 44 52 61 73 73 71 75 81 71 61 79 75 69 84 84 96 81 86 81 90 90 86 88 81 88 96 90 98 94 100 108 92 102 100 90 106 104 90 88 86 94 96 100 110 100 81 96 92 106 110 112 106 127 261 334 328 306 273 241 243 263 241 200 176 214 267 249 261 251 255 285 318 324 267 269 279 
40 42 65 52 50 42 52 61 57 57 71 77 57 65 69 81 73 77 86 84 81 73 81 100 98 94 94 92 86 79 86 98 79 106 94 96 96 92 88 102 98 90 88 81 81 94 88 90 94 86 92 84 84 81 100 84 139 312 338 336 310 247 212 194 231 263 214 180 166 220 261 251 243 245 269 273 281 263 263 261 
50 44 42 42 42 50 63 63 52 42 79 63 63 59 65 75 75 69 75 81 84 73 75 79 79 86 75 73 81 86 86 86 90 92 86 90 90 94 86 96 79 84 79 79 81 88 86 84 84 71 81 84 92 79 69 88 202 386 402 328 265 192 139 190 186 200 190 178 166 184 228 233 228 237 261 261 265 235 235 255 
27 29 25 29 29 38 57 50 46 54 57 57 59 61 50 69 59 69 75 67 54 67 73 75 86 81 77 71 88 94 77 77 75 75 86 94 75 75 92 90 88 79 75 88 71 96 88 90 81 73 86 79 71 79 90 168 370 454 454 414 328 192 139 149 125 73 114 141 139 166 174 186 214 235 269 263 253 237 257 257 
29 17 27 38 21 40 31 40 48 46 46 57 44 38 54 61 48 63 59 65 65 67 67 75 73 71 65 75 77 71 73 79 75 96 88 86 88 79 90 88 88 77 77 75 77 86 86 84 84 75 77 81 147 206 289 416 452 450 426 424 410 287 135 79 59 50 73 119 139 123 143 155 145 176 222 239 271 247 257 257 
23 23 17 19 15 27 21 34 27 46 44 40 31 29 40 29 40 42 36 42 52 63 50 59 54 52 57 65 81 67 77 69 61 73 104 86 81 77 79 133 174 119 86 69 59 79 86 84 69 71 75 174 352 394 428 458 460 422 394 398 360 216 84 61 31 17 46 108 104 110 110 117 125 123 155 202 263 263 265 269 
29 34 48 21 21 36 31 27 40 40 48 42 46 42 50 44 48 54 61 42 48 50 48 52 61 59 54 54 63 63 65 69 50 52 73 88 77 69 67 88 186 273 218 157 98 88 61 79 65 71 190 336 430 444 458 472 440 414 358 235 131 71 40 34 21 0 23 46 46 57 67 79 81 88 104 139 243 247 249 241 
36 52 36 19 36 34 46 50 48 46 48 65 44 44 57 44 50 59 61 42 59 50 50 73 75 61 69 77 77 84 81 65 71 71 73 79 63 96 121 155 166 204 336 340 285 202 137 117 174 253 364 392 446 452 438 428 334 206 117 75 57 48 23 40 27 34 31 36 38 17 15 31 40 38 42 63 178 239 249 241 
29 46 31 40 46 36 59 52 63 48 48 50 63 46 50 73 69 71 69 65 59 67 69 79 81 86 73 71 90 69 71 84 86 79 88 96 71 94 166 257 296 346 374 386 408 380 352 334 352 384 410 414 406 410 356 263 149 104 54 50 50 40 36 36 38 38 52 65 65 29 42 54 54 46 54 54 90 188 253 245 
38 46 73 38 29 46 50 48 50 65 67 77 63 57 63 63 69 81 69 77 73 69 84 77 92 90 77 81 88 88 86 90 96 98 100 96 92 94 106 143 147 153 306 404 426 412 408 416 404 390 400 350 310 233 139 137 86 96 63 54 52 57 73 63 61 61 65 79 81 73 81 92 106 104 79 75 84 131 216 226 
38 44 52 52 46 59 61 42 50 52 69 71 52 54 65 73 61 63 88 79 81 98 81 79 92 79 71 90 81 90 79 92 102 94 92 96 75 94 90 86 88 106 281 424 396 404 418 378 312 241 182 149 117 94 96 100 81 88 67 61 67 67 71 71 71 79 69 90 84 79 88 92 92 96 92 79 102 71 133 188 
44 42 61 44 48 54 69 52 57 46 69 57 52 48 52 71 71 71 73 71 75 90 84 75 71 79 79 84 94 100 88 92 94 96 108 92 88 90 92 88 79 98 198 366 408 310 214 153 133 102 96 94 88 84 84 92 81 102 96 73 81 79 84 77 73 69 65 92 79 81 81 88 84 84 96 104 102 71 114 153 
40 40 59 40 48 67 52 67 57 67 77 61 86 63 77 75 73 77 84 77 75 84 94 94 84 79 84 88 96 100 104 90 100 100 106 112 94 92 98 108 104 84 114 147 172 143 121 106 102 84 94 92 88 86 81 94 102 119 98 100 106 92 90 94 94 94 81 96 96 98 84 88 98 86 84 104 121 81 96 117 
31 50 65 42 44 52 61 57 46 54 67 57 50 69 73 69 69 67 92 75 65 79 88 79 96 86 88 90 104 90 90 104 88 96 110 102 90 96 81 102 90 86 92 96 92 98 98 90 96 73 84 86 84 88 81 96 114 121 104 96 104 86 86 102 119 94 102 90 96 98 86 86 96 86 81 92 114 94 92 96 
38 61 75 42 50 69 59 57 54 61 61 84 79 69 69 69 73 81 67 73 77 94 79 98 77 86 98 102 104 102 110 102 96 98 106 98 96 102 79 104 90 88 90 96 88 112 96 98 84 81 90 75 86 98 100 114 131 141 110 96 114 98 92 96 123 106 98 100 100 98 88 88 94 81 92 112 108 69 90 86 
34 54 73 48 52 59 61 57 71 61 81 75 67 65 73 84 69 79 75 71 90 96 100 86 94 94 96 98 104 96 104 106 98 98 114 106 92 96 106 98 90 77 90 86 94 92 94 94 92 67 100 88 88 96 110 123 125 133 121 84 110 94 104 98 110 108 106 92 86 94 92 88 96 88 96 119 108 98 75 88 
46 75 77 61 73 63 57 65 57 69 63 81 88 65 94 75 88 88 92 86 71 98 96 86 88 92 100 96 102 104 94 96 100 106 117 110 104 92 104 98 86 84 88 90 79 98 104 98 96 90 98 104 98 110 121 133 129 135 112 98 98 100 94 110 108 98 94 100 96 94 86 96 98 100 123 127 119 96 88 92 
38 65 69 38 57 52 59 52 73 67 73 84 73 67 69 77 77 90 88 84 75 90 94 86 88 92 88 90 100 102 108 106 98 104 108 121 102 98 100 102 81 86 84 90 100 90 117 100 98 88 106 104 104 119 121 133 143 137 121 100 108 96 106 106 106 106 88 100 102 102 98 94 100 94 94 104 133 106 92 86 


