P2
80 60
796
68 66 55 62 58 62 60 49 53 45 39 45 55 47 31 45 45 43 37 45 43 33 35 33 14 33 45 39 43 25 35 39 49 51 45 47 49 47 51 53 47 43 47 43 41 39 45 45 64 72 86 92 86 198 419 502 548 577 581 561 569 565 585 604 604 589 556 514 483 493 500 514 453 182 86 74 74 68 62 58 
68 55 27 62 55 62 64 47 43 47 39 39 53 51 55 51 41 37 33 47 35 33 37 22 22 29 51 49 43 29 16 35 55 45 27 33 39 39 51 33 31 31 29 22 33 31 27 22 41 66 72 68 68 94 180 367 485 524 561 557 554 571 575 577 550 526 516 494 465 467 487 510 469 222 84 70 72 53 60 70 
68 64 64 55 55 60 68 60 47 47 37 39 49 31 62 45 53 39 41 53 39 37 33 25 31 27 37 27 39 22 33 25 39 45 33 31 41 43 45 37 35 39 35 35 25 31 25 25 29 43 66 62 60 76 102 139 317 427 500 526 542 557 548 524 514 504 496 493 465 459 477 483 443 232 78 51 62 68 55 53 
62 64 60 64 58 62 68 51 45 41 35 47 45 47 53 45 37 35 33 39 47 39 31 29 14 20 43 39 41 27 27 39 35 45 27 35 39 39 41 31 29 27 18 29 33 22 25 31 31 39 53 49 60 70 72 86 135 243 409 481 516 520 479 491 494 496 494 481 465 451 451 451 419 222 78 58 68 55 60 64 
45 66 62 70 68 62 68 64 35 45 43 39 62 39 47 45 41 55 41 31 39 43 31 33 20 31 35 35 45 20 25 27 41 49 29 43 45 25 45 33 25 25 22 27 25 27 22 31 25 43 60 45 43 70 74 82 86 82 167 345 451 469 461 485 481 487 491 477 465 469 433 417 379 212 82 53 58 49 47 64 
62 64 45 78 70 68 66 55 41 35 37 49 43 49 62 39 27 43 35 31 43 31 22 25 25 37 31 31 41 27 31 29 39 49 33 31 39 43 43 33 41 31 27 20 25 35 16 31 25 47 49 62 51 68 82 70 74 72 84 143 321 425 443 477 471 479 485 469 469 451 427 401 369 220 62 49 55 55 43 39 
62 60 41 55 60 66 60 51 64 41 45 43 53 37 49 60 41 29 33 35 39 37 20 20 14 25 37 37 27 25 22 27 37 39 18 33 43 43 47 39 27 31 18 31 22 33 31 29 29 37 60 60 39 53 74 66 66 62 72 64 135 351 419 473 483 479 489 483 463 457 435 397 343 237 80 62 53 55 39 49 
72 53 33 55 60 60 55 62 47 43 39 41 51 31 41 51 41 39 37 31 45 33 33 31 22 25 37 41 35 22 27 27 39 43 39 37 43 39 55 43 31 22 29 33 22 33 29 33 41 45 60 49 58 64 76 80 80 64 82 66 66 161 385 445 469 487 494 491 471 453 441 407 359 234 84 51 53 58 31 45 
64 49 45 64 47 60 64 64 58 47 41 47 49 60 49 49 47 43 33 41 35 35 33 29 27 35 35 43 41 35 37 25 41 35 31 33 45 47 47 41 35 43 37 27 35 25 20 18 35 47 66 53 58 60 80 78 70 68 76 68 68 49 182 387 447 473 485 489 489 457 439 425 377 259 84 58 68 70 51 53 
72 55 49 55 49 62 66 49 51 47 41 45 43 37 47 35 47 43 35 51 31 27 29 31 20 29 43 27 43 20 33 18 43 45 35 39 29 41 49 29 47 41 37 27 31 25 35 33 37 49 58 53 62 84 76 88 82 74 60 60 49 35 37 157 343 469 481 481 489 479 447 441 397 285 88 68 64 62 49 55 
74 66 64 62 45 51 45 45 53 49 29 55 39 41 47 43 37 45 31 47 41 33 33 25 27 22 35 33 33 27 20 39 35 45 35 37 45 47 51 35 39 31 41 33 37 41 35 45 43 49 53 64 64 86 80 90 78 72 68 60 47 22 20 39 121 337 465 491 493 493 477 445 405 303 90 70 58 60 55 55 
58 51 53 60 70 41 64 45 64 45 43 43 47 41 43 41 39 43 35 41 29 39 37 31 29 31 47 35 43 16 31 43 43 39 35 47 37 51 53 47 35 35 39 39 37 43 35 39 47 49 58 62 64 100 84 92 84 86 74 68 47 18 18 10 31 107 311 449 500 485 469 451 397 321 100 70 64 66 53 58 
60 76 53 49 55 58 53 60 62 43 37 49 51 45 49 47 41 39 45 41 37 31 33 31 25 31 60 45 39 22 41 37 47 51 39 49 47 43 62 55 49 49 45 33 45 37 41 43 49 47 66 66 68 90 92 82 86 72 84 64 49 18 14 0 4 25 90 220 397 451 453 447 417 335 109 64 74 72 60 66 
60 60 47 47 49 58 60 55 58 39 47 45 47 43 35 49 37 41 39 39 31 35 29 31 31 37 49 43 49 39 25 47 37 41 45 49 39 55 66 60 53 55 53 49 47 37 41 33 45 60 72 68 64 84 78 90 72 66 72 60 62 29 25 4 10 14 16 51 131 269 379 397 403 331 100 64 76 76 64 60 
60 53 55 53 55 68 64 45 60 49 47 49 49 37 39 47 33 37 43 29 39 39 37 27 29 31 62 53 53 58 66 88 102 92 82 84 90 115 127 143 141 165 163 165 147 123 92 43 55 62 82 74 60 88 72 82 68 80 86 86 72 27 12 14 14 12 29 22 35 53 131 241 323 293 113 53 80 86 74 88 
70 47 55 53 47 58 49 45 53 31 43 51 45 31 47 53 45 41 31 37 43 45 37 29 41 62 90 145 204 241 249 275 277 267 251 269 273 285 309 313 311 317 339 349 361 351 297 216 149 96 88 84 84 115 88 84 78 76 76 76 68 41 14 10 16 14 8 12 20 27 29 55 127 174 123 82 92 119 121 135 
70 53 58 60 39 55 53 47 45 43 41 41 53 39 47 60 43 43 39 41 41 43 35 47 68 165 323 385 365 337 311 325 335 335 311 317 329 319 325 321 319 327 347 367 381 385 381 349 325 277 234 204 247 241 167 133 123 149 121 104 88 74 64 58 66 58 43 27 35 39 41 45 49 72 145 119 137 147 151 161 
70 45 49 55 49 45 51 53 49 55 39 47 43 45 53 39 53 39 45 47 49 47 49 84 243 397 445 439 395 363 339 347 333 323 303 299 307 289 299 281 291 295 309 329 327 343 351 343 353 333 327 305 293 297 299 307 341 345 383 333 329 299 317 321 327 315 299 222 172 127 102 90 82 98 151 147 159 169 149 163 
49 49 39 55 49 51 60 60 53 62 47 43 43 35 45 55 35 31 39 37 35 41 66 174 419 433 435 425 385 343 313 313 311 293 275 283 285 277 277 273 271 281 285 305 283 287 289 295 305 319 317 313 295 301 321 349 371 399 427 419 373 369 413 401 405 429 387 383 339 319 325 319 269 269 182 151 165 159 149 157 
64 55 39 53 47 62 68 55 51 37 49 58 47 35 35 47 39 39 43 43 47 51 74 269 431 459 491 500 489 463 411 377 317 297 295 259 275 265 265 267 271 271 271 291 277 263 263 269 287 297 313 311 301 299 289 345 381 385 399 369 357 377 411 423 425 465 429 443 381 389 361 391 391 363 226 157 172 157 135 143 
68 62 41 55 53 53 55 45 58 49 45 55 60 43 45 53 33 58 47 35 47 55 88 327 429 453 483 479 469 441 411 427 431 413 369 351 321 321 305 299 295 303 277 287 263 257 275 267 275 275 299 289 289 305 307 367 379 371 365 359 403 393 409 409 411 417 391 407 385 419 401 375 399 383 216 159 159 147 135 147 
64 58 49 51 55 58 64 60 43 53 43 45 41 41 39 47 37 51 55 39 37 58 82 281 441 455 500 508 508 487 463 475 489 457 417 405 403 387 383 363 367 367 343 329 307 311 327 309 297 281 289 269 273 285 323 369 369 373 355 405 471 423 435 401 361 363 355 345 343 403 397 373 383 381 220 161 159 161 157 159 
55 55 45 62 47 53 60 41 51 51 43 41 55 43 41 49 49 41 41 53 45 55 70 237 455 445 455 465 431 383 365 381 377 393 357 361 373 365 377 371 367 365 357 341 333 325 343 355 331 327 331 319 299 297 337 357 357 355 357 455 479 461 461 435 383 327 313 309 339 393 415 403 383 373 243 196 182 178 147 169 
55 58 41 51 43 51 64 53 64 55 49 51 58 47 53 49 45 58 41 55 49 60 88 251 453 473 457 445 449 415 401 397 375 361 343 357 341 339 365 351 345 355 339 317 319 321 323 329 333 319 339 391 373 329 377 365 359 367 405 510 532 504 477 431 389 353 349 365 387 421 445 443 409 383 251 230 190 176 161 163 
68 58 41 53 64 51 60 53 62 55 43 58 53 49 55 58 64 53 60 66 66 70 115 317 506 479 502 494 487 461 415 397 375 371 351 333 343 333 343 327 349 343 337 339 333 333 337 335 335 317 331 391 361 345 387 351 313 333 407 510 538 538 522 469 405 383 351 339 347 367 405 461 433 401 251 220 194 178 167 167 
66 43 43 53 51 70 53 58 58 68 53 37 60 53 64 66 96 111 135 115 90 84 186 552 649 506 534 544 524 489 463 427 397 381 355 349 349 339 345 345 363 377 385 373 367 379 375 373 357 339 339 391 331 327 361 311 299 309 373 445 481 494 491 485 411 375 381 385 357 395 425 441 423 395 249 204 196 184 180 192 
41 45 51 45 45 53 62 55 49 55 45 49 76 86 113 196 305 409 491 417 347 343 571 752 754 587 532 536 540 514 491 469 441 431 389 379 379 373 379 383 405 411 423 399 381 403 391 375 359 349 349 379 323 311 343 321 277 303 381 417 425 425 421 423 385 385 349 343 335 353 401 421 425 417 255 188 188 186 174 180 
51 64 49 39 41 51 49 64 47 68 53 62 102 190 331 411 461 585 692 676 651 717 763 771 775 711 567 514 524 518 504 491 473 451 417 415 409 377 397 417 415 437 439 417 415 405 395 373 377 379 347 353 343 305 345 343 279 303 347 367 373 361 361 349 329 327 323 299 313 339 409 493 498 453 269 192 194 188 184 167 
51 55 41 37 45 55 45 49 49 53 62 80 218 373 441 496 550 696 752 740 730 738 756 758 748 738 688 512 498 508 508 496 487 453 409 409 397 379 397 409 427 429 431 441 443 443 417 405 403 387 367 341 353 303 341 343 275 299 331 311 311 299 279 305 303 353 363 353 387 455 506 496 451 417 271 198 194 188 178 192 
49 47 51 33 51 45 60 53 62 62 58 129 365 487 563 603 674 786 765 754 746 750 761 756 699 696 709 565 477 498 487 491 493 455 415 403 383 387 387 405 415 423 427 421 409 421 413 413 421 415 377 319 367 319 351 353 259 287 319 295 285 255 237 267 297 361 393 465 483 473 479 435 417 439 273 198 194 186 180 182 
58 43 41 45 51 49 47 41 55 55 55 165 409 518 630 696 792 754 752 738 759 777 728 748 711 589 614 514 475 518 510 502 487 447 421 401 397 395 399 401 415 423 405 395 389 399 399 393 405 403 379 321 391 315 359 351 273 243 273 277 289 279 283 321 331 399 455 489 473 435 405 411 437 445 287 196 190 188 188 180 
64 62 31 51 58 45 60 62 58 66 66 192 385 451 585 794 792 713 723 728 773 796 738 723 659 451 194 151 267 463 516 520 502 471 419 411 395 391 393 391 397 411 407 411 399 399 391 385 379 377 363 315 367 305 363 359 289 289 303 309 323 327 351 367 409 471 443 429 383 383 399 417 413 387 257 174 188 186 184 192 
47 45 29 53 47 51 53 51 66 62 72 182 353 423 514 752 790 736 727 734 763 759 740 676 538 287 80 82 90 247 443 493 500 473 429 407 409 387 389 377 389 397 411 421 409 391 375 377 365 377 363 323 357 297 365 339 279 293 303 289 297 321 341 379 399 397 379 375 397 411 415 377 327 289 224 180 180 186 167 169 
45 49 33 39 53 58 37 49 55 62 74 123 307 385 443 665 794 767 742 746 732 727 676 556 267 74 58 53 66 104 333 483 500 471 421 395 385 373 365 361 363 377 375 375 369 361 375 357 369 377 369 317 331 289 361 317 255 269 287 293 331 327 331 365 339 351 371 395 379 385 391 349 285 255 206 161 172 176 172 174 
55 51 27 37 31 45 43 58 58 76 62 76 206 307 347 508 746 763 746 750 715 670 481 176 51 39 47 45 53 64 139 397 493 475 421 397 379 369 355 355 353 361 357 355 341 343 331 349 359 375 361 335 307 267 365 369 281 301 323 335 367 345 315 339 319 299 307 303 297 315 361 367 369 379 210 172 182 176 165 161 
53 60 62 45 49 62 58 60 60 72 49 49 98 208 301 367 563 744 699 614 461 305 104 53 35 39 47 51 49 62 86 303 459 435 401 375 371 355 345 357 357 351 371 363 361 335 333 329 327 345 355 353 313 309 359 389 361 357 381 413 417 379 381 401 373 345 305 267 277 309 331 301 345 375 220 176 188 180 157 165 
62 55 43 47 51 49 60 64 66 82 51 58 51 82 190 287 301 423 381 226 100 53 49 39 29 35 47 55 53 66 220 475 504 516 445 455 419 417 421 385 371 345 333 341 327 325 311 315 321 325 329 335 345 339 351 361 361 339 353 389 389 385 429 469 435 357 317 319 315 355 343 249 309 371 243 186 188 180 163 174 
66 55 43 55 55 41 58 45 66 74 62 33 49 53 86 92 109 107 86 72 49 41 39 33 27 37 39 49 60 111 409 556 530 485 441 431 409 423 439 423 401 359 399 423 411 465 449 415 405 427 415 421 389 353 327 325 325 307 313 349 341 351 417 471 457 437 427 395 359 345 289 249 325 359 259 206 210 198 198 210 
62 55 51 47 47 49 60 58 80 53 39 53 45 47 58 64 60 45 58 43 43 43 39 39 22 37 45 55 66 186 508 587 569 498 461 455 469 459 457 423 383 361 347 391 357 409 459 451 459 441 441 429 427 385 321 271 283 295 247 263 273 259 261 309 363 391 373 345 309 269 243 281 323 363 257 206 214 216 200 194 
62 58 49 49 49 41 51 47 74 68 47 49 62 41 62 51 45 41 41 39 39 31 37 29 33 31 37 49 68 239 540 554 520 475 431 435 439 437 427 413 389 351 319 317 333 339 389 413 427 413 403 383 387 385 345 301 249 255 255 239 295 267 210 226 222 247 281 293 289 281 297 315 321 335 241 188 222 202 190 202 
55 68 55 51 37 51 58 35 53 68 58 55 55 45 51 55 51 37 51 45 39 31 41 35 33 33 47 58 88 285 538 524 512 489 453 445 437 419 409 391 363 331 319 333 339 345 353 357 391 379 379 357 345 343 329 321 281 249 218 224 303 232 224 216 206 222 220 224 232 275 303 301 323 337 218 180 204 184 178 178 
47 68 41 39 39 37 39 49 55 76 49 47 49 43 53 45 41 41 43 41 45 39 43 27 27 45 53 53 94 329 487 504 530 500 469 455 455 429 405 387 343 319 325 339 351 361 349 343 353 367 355 343 341 327 307 303 295 259 226 210 271 273 269 259 230 228 234 228 263 299 307 307 311 291 200 180 188 188 188 186 
68 62 41 41 45 41 49 53 53 58 58 41 41 49 68 45 41 33 43 35 39 37 47 37 37 33 51 66 137 285 299 331 453 518 477 485 475 417 409 359 343 325 329 337 371 369 369 353 349 349 367 359 353 331 297 281 279 269 249 218 301 345 325 291 253 241 255 277 307 291 297 265 237 192 188 178 192 190 174 176 
58 68 58 41 49 47 45 47 55 58 64 45 51 35 60 49 37 62 55 55 70 80 113 135 147 96 90 129 377 504 439 329 403 473 500 504 477 437 417 369 341 335 341 343 359 371 377 379 367 355 359 343 339 325 297 287 255 265 241 208 317 355 317 295 257 273 309 353 355 331 315 303 287 291 200 163 186 192 178 190 
70 53 51 49 62 29 51 39 49 55 60 49 47 37 60 41 51 58 115 216 291 399 465 453 471 433 363 397 530 614 616 585 405 413 461 455 427 385 393 397 363 351 351 355 353 361 383 383 359 351 357 341 327 321 301 287 257 222 202 190 283 321 299 291 279 301 343 365 373 375 377 395 385 355 230 163 182 194 178 178 
58 53 35 51 58 62 53 53 55 60 60 49 58 45 55 58 68 151 305 379 493 567 616 591 557 528 554 593 606 612 637 632 577 463 343 339 281 269 321 361 365 367 385 397 381 377 391 403 373 349 349 341 329 317 299 285 247 237 198 186 226 251 269 289 279 323 363 387 387 403 405 419 411 367 214 172 202 202 184 184 
51 49 33 45 45 64 51 51 58 60 68 47 62 45 49 64 96 245 327 455 520 604 630 610 595 581 583 657 665 653 620 634 632 606 445 281 297 355 395 431 409 437 433 425 425 429 413 411 391 377 363 363 341 319 301 271 263 224 192 196 220 257 263 281 289 375 379 393 407 409 411 407 411 383 234 192 196 186 186 184 
49 51 41 49 53 49 58 45 58 62 62 58 64 45 51 76 178 275 309 445 536 569 614 593 601 657 666 672 674 653 599 595 639 606 391 371 435 445 457 455 522 585 575 471 441 445 449 409 393 413 401 395 367 331 307 281 251 224 206 202 263 291 305 327 325 381 395 419 421 399 413 409 413 371 241 208 210 204 198 196 
55 60 49 58 51 55 49 60 43 60 51 62 55 45 68 66 188 295 287 389 449 554 630 651 659 670 657 657 649 634 587 571 637 457 373 469 481 455 459 500 612 591 593 536 441 455 423 399 385 419 413 417 389 363 319 285 257 271 257 230 285 309 327 331 351 377 419 425 437 425 411 405 411 365 239 222 228 222 216 196 
55 58 43 39 58 49 51 55 43 60 53 55 55 66 58 78 200 295 291 327 355 425 618 694 674 637 599 630 653 651 554 579 546 383 425 496 475 451 493 534 581 606 595 559 453 397 391 395 369 411 413 399 387 371 303 273 307 307 279 269 289 297 319 311 339 387 427 425 449 423 395 385 399 363 239 208 216 220 200 188 
60 53 29 64 53 47 55 62 31 51 64 62 55 58 58 70 151 263 283 323 343 335 522 668 635 645 655 657 616 567 435 389 341 373 502 500 469 443 508 556 565 581 591 575 528 415 365 387 367 377 387 355 383 369 311 301 337 303 289 265 283 285 291 311 339 371 377 389 409 389 385 365 363 319 228 188 204 198 192 184 
62 47 37 35 31 45 53 33 55 60 55 78 53 53 49 64 84 174 287 325 349 325 447 556 540 583 550 518 377 210 165 347 365 417 498 494 481 427 487 575 608 597 581 573 552 498 415 399 375 361 361 343 375 333 291 325 323 305 261 263 265 273 251 317 331 343 343 329 329 321 309 317 293 273 222 196 192 176 172 182 
70 60 22 51 53 43 60 41 47 51 74 60 66 47 53 53 53 94 196 291 305 285 465 485 475 411 323 208 88 76 100 321 544 561 524 493 493 425 447 516 583 591 589 561 559 536 489 457 381 351 355 347 339 339 301 321 317 293 259 267 255 228 228 297 295 313 305 279 257 239 230 218 198 169 202 182 198 184 167 176 
51 58 51 53 49 49 47 43 47 53 72 58 58 58 62 51 58 49 113 163 206 220 232 159 137 100 88 76 66 55 58 157 512 616 583 544 510 489 485 510 579 561 556 585 577 563 550 514 445 343 265 261 293 301 263 216 222 247 255 267 232 218 214 249 234 249 214 206 169 133 123 123 123 153 167 161 180 180 165 184 
68 74 43 45 49 55 64 43 53 58 74 62 66 55 55 55 58 43 55 76 82 92 70 58 43 66 51 51 51 41 45 94 331 606 587 546 522 483 489 469 469 508 548 593 604 591 573 573 552 421 182 104 107 149 129 94 96 123 216 251 224 202 200 180 141 131 109 94 80 68 78 76 96 100 121 98 125 155 198 218 
55 64 51 49 39 45 51 58 43 60 66 70 62 45 53 49 45 43 47 55 53 58 49 31 25 22 41 41 49 31 45 60 155 483 571 532 518 516 508 485 510 540 508 546 569 589 591 587 583 540 335 84 55 62 68 55 51 49 72 127 155 141 127 104 62 74 55 55 47 60 82 58 70 80 72 80 133 212 228 232 
62 53 53 39 43 49 55 51 51 53 64 70 62 45 49 53 37 27 37 53 39 27 39 22 20 25 29 39 47 27 27 43 70 220 439 520 550 542 502 496 500 489 469 544 554 550 581 601 591 573 479 151 53 55 49 49 47 45 47 47 45 39 25 51 37 45 45 51 55 51 49 64 49 68 76 80 200 243 243 241 
47 43 33 49 43 53 55 45 45 64 72 68 55 53 41 55 49 35 41 39 37 29 35 25 12 27 37 29 45 18 12 35 53 88 155 277 407 459 453 419 423 437 417 498 532 534 561 589 589 579 487 186 49 62 49 43 47 39 45 29 6 33 8 31 35 43 45 55 45 45 51 45 43 68 70 102 230 247 241 228 
51 64 37 39 49 53 62 37 47 45 68 74 76 53 51 51 39 51 29 43 37 37 22 29 14 18 25 29 27 14 14 31 51 55 60 82 111 131 165 220 249 299 337 405 447 473 502 550 552 493 335 111 62 62 58 51 43 39 39 37 22 29 6 10 29 62 41 51 58 47 58 53 35 68 66 100 206 241 234 218 
58 64 53 49 35 49 29 51 47 53 68 70 80 60 72 80 72 58 43 55 39 47 39 35 47 60 68 72 51 53 53 64 74 68 66 66 90 78 96 102 109 125 149 184 174 194 224 315 255 196 127 86 82 100 90 90 88 80 74 68 43 53 33 43 35 70 82 82 72 86 84 88 60 72 82 94 151 196 196 222 


