P2
80 60
576
115 127 117 135 115 123 129 119 143 125 123 129 123 117 127 125 129 113 105 109 97 97 125 111 89 93 101 89 81 85 95 99 83 105 103 117 113 103 91 81 75 81 59 75 61 71 77 89 83 101 89 99 99 93 89 89 97 97 105 97 107 93 111 115 121 107 109 95 109 107 115 89 87 87 77 87 87 91 83 95 
133 115 95 127 127 125 115 109 125 123 125 127 125 119 111 125 133 113 111 111 121 83 97 99 97 91 91 109 91 97 93 111 97 95 103 129 115 97 89 81 71 75 63 69 69 73 79 79 79 91 97 91 101 105 103 107 109 111 103 99 103 111 115 103 107 117 117 105 103 111 113 85 81 93 79 75 83 87 71 89 
135 107 127 107 135 121 117 117 127 125 113 117 119 115 121 121 115 109 101 115 105 93 105 93 101 87 103 97 89 79 91 89 97 99 117 131 117 105 109 97 83 79 67 73 87 89 85 89 89 107 109 105 111 107 103 103 113 119 99 113 115 105 119 99 107 117 117 115 117 113 101 105 91 77 89 69 95 83 85 93 
139 121 119 127 111 123 117 135 125 123 115 133 137 103 109 109 115 99 107 107 109 113 97 111 109 107 115 111 121 105 119 119 113 115 125 125 139 111 111 107 85 97 71 97 81 87 89 91 103 101 103 111 127 107 103 101 125 115 103 111 121 109 115 117 117 125 131 117 115 105 105 105 99 97 81 69 93 95 79 87 
129 129 109 127 123 131 127 131 127 127 127 129 127 127 127 119 119 129 115 107 109 89 99 117 113 103 101 115 113 137 113 139 105 125 129 141 135 123 123 115 101 99 87 101 89 93 89 109 101 111 115 127 129 131 109 131 115 113 107 131 115 107 121 121 109 135 113 117 117 117 115 111 111 101 91 87 89 87 83 107 
135 103 115 125 125 125 121 131 129 119 121 145 129 115 135 119 119 119 115 111 111 113 105 119 119 123 111 123 125 125 123 121 113 135 133 155 149 133 117 103 111 107 97 89 101 103 97 109 111 103 115 117 123 127 107 123 115 113 125 121 119 109 119 121 129 123 135 125 119 115 119 129 117 101 97 101 97 107 79 93 
127 109 133 127 131 137 121 117 123 135 129 139 137 119 129 131 119 135 117 121 113 127 113 115 123 117 115 133 125 131 115 137 137 137 143 147 157 151 131 129 109 103 99 101 103 107 97 115 105 115 123 107 119 123 123 125 127 121 109 121 107 131 129 129 133 131 139 131 137 119 119 129 111 115 119 109 115 109 91 105 
135 111 117 135 125 131 121 141 131 125 133 135 123 151 121 139 117 121 131 127 127 123 125 123 119 123 123 131 121 131 135 129 127 145 155 153 149 139 129 125 107 109 117 109 107 105 129 123 135 135 135 127 129 131 125 121 131 127 125 133 139 125 133 129 133 139 123 131 135 133 123 137 119 99 113 115 115 101 101 105 
133 115 111 131 121 137 137 127 145 139 131 139 145 139 137 135 127 133 117 125 115 115 129 129 123 131 131 127 119 139 141 133 133 157 159 173 161 137 139 137 103 123 117 115 133 131 125 135 147 139 135 131 129 143 135 127 135 131 143 137 139 125 137 147 143 153 141 135 123 143 135 129 119 115 109 101 105 115 109 109 
149 125 119 137 129 131 127 125 129 159 139 147 153 133 139 139 141 139 123 129 141 121 127 125 129 123 137 135 129 137 139 153 145 153 173 179 173 159 173 187 163 181 169 203 241 261 239 231 193 169 163 137 159 155 169 179 203 193 169 169 167 165 171 163 163 177 161 141 141 137 127 143 137 121 99 123 113 115 115 117 
139 121 135 135 123 145 119 123 131 127 119 129 119 121 141 143 135 121 127 131 119 131 133 121 121 125 123 131 119 127 149 153 149 167 219 251 239 203 217 275 366 389 391 415 438 442 442 415 368 316 255 213 247 273 289 287 307 279 231 217 179 165 165 159 165 181 157 149 147 125 129 147 141 113 139 125 121 127 109 123 
149 127 131 123 131 119 131 125 129 129 133 139 143 129 129 133 133 123 113 115 123 123 127 147 119 131 133 125 139 137 157 165 201 320 348 338 301 277 277 281 421 438 457 448 428 426 424 417 403 318 183 213 277 299 324 301 309 301 271 239 215 189 205 191 201 195 175 145 149 163 149 165 159 149 153 149 151 125 125 133 
139 123 135 135 139 133 139 135 149 131 133 147 129 153 135 129 131 125 131 117 131 123 121 135 123 125 127 127 127 161 163 241 316 328 269 207 153 187 227 251 364 415 385 358 352 370 366 340 299 211 145 181 257 287 293 289 275 269 253 245 231 221 215 209 209 217 213 207 227 221 227 265 299 314 301 275 249 223 195 183 
153 117 129 145 115 133 125 117 139 127 129 127 131 145 113 115 113 131 131 143 121 123 119 131 129 121 117 141 131 163 227 379 342 324 295 225 223 185 225 251 269 261 193 211 227 259 261 227 221 171 149 187 229 241 211 195 207 211 223 245 253 245 233 229 237 247 235 291 299 297 289 303 350 360 360 352 344 328 346 340 
159 139 131 131 141 135 127 129 147 133 135 133 127 121 123 129 127 117 125 117 115 121 133 119 117 125 123 143 149 167 318 383 334 348 326 322 295 229 185 151 133 103 117 179 209 219 233 237 209 143 139 161 205 219 229 203 193 225 251 249 251 257 265 265 233 239 245 283 318 307 305 307 326 344 344 340 356 350 356 346 
141 125 141 123 109 139 111 127 121 129 129 127 123 131 127 123 123 141 127 129 141 129 133 123 113 143 145 161 147 183 312 362 356 354 385 375 293 191 145 95 103 133 129 173 181 175 209 245 209 131 157 139 191 211 217 213 227 237 243 257 261 255 265 251 259 231 237 287 356 326 301 316 326 334 336 334 344 352 344 340 
143 119 137 121 129 117 121 121 131 131 137 127 141 123 131 137 137 127 135 125 127 131 135 149 143 143 151 167 175 209 332 354 391 397 417 375 269 163 97 85 155 203 193 195 191 185 207 205 157 137 187 141 197 213 213 221 221 237 255 259 267 259 261 253 251 247 243 293 342 309 291 309 322 316 305 285 267 237 235 229 
135 123 139 117 123 123 113 109 137 141 127 129 139 137 143 135 145 137 135 133 159 141 165 187 207 215 183 183 193 289 342 348 381 391 385 332 235 111 59 103 171 235 233 207 181 191 207 197 167 185 211 183 217 211 223 241 231 223 237 261 261 241 251 247 235 247 241 255 269 253 211 213 213 193 193 175 165 163 141 173 
143 139 141 131 135 131 141 125 151 129 147 133 137 143 141 157 145 143 149 153 171 221 257 285 381 448 383 334 385 432 352 338 409 360 338 305 217 91 48 117 201 237 235 217 205 195 217 203 181 199 201 199 213 235 263 273 269 241 231 263 271 279 241 235 235 233 227 217 201 199 191 177 177 159 155 149 171 167 141 155 
155 145 133 139 131 139 137 131 147 141 133 137 131 135 145 157 149 137 139 165 259 277 324 438 517 527 531 481 488 500 330 253 387 348 316 307 225 125 83 143 235 249 239 223 211 197 195 209 199 97 81 189 213 235 255 243 247 225 231 227 237 235 225 201 209 245 215 205 193 183 181 179 165 161 155 145 163 153 147 155 
147 149 129 139 135 143 129 145 143 133 141 137 141 137 135 143 139 151 151 203 338 368 409 521 519 440 498 463 475 510 350 320 389 344 316 283 189 123 95 147 235 267 245 245 215 205 209 239 221 237 213 111 159 209 225 227 227 223 227 235 231 219 237 227 203 199 207 215 199 199 181 189 165 165 141 159 159 147 141 145 
149 139 143 137 145 151 129 125 145 141 123 141 147 145 137 145 141 137 159 217 350 415 498 558 515 383 442 463 452 500 381 405 430 366 326 303 237 153 113 141 223 269 275 257 241 225 251 263 265 249 213 48 2 157 219 215 215 221 215 215 217 221 213 221 205 195 207 213 249 243 205 173 167 165 159 163 165 157 147 163 
141 137 121 145 129 125 139 141 151 137 139 143 137 145 133 135 151 143 161 205 309 417 475 537 523 479 483 463 434 479 397 405 397 395 364 356 311 237 185 163 173 235 269 253 243 251 261 263 259 287 221 103 24 52 169 205 209 199 199 207 199 219 207 223 227 241 241 249 314 324 277 275 265 269 247 229 205 197 175 179 
137 129 127 123 129 135 121 137 141 133 143 127 149 143 159 145 131 139 141 187 261 360 375 465 488 525 473 385 311 320 375 379 364 389 381 377 344 273 235 187 165 209 243 247 241 255 251 247 247 249 193 129 105 127 167 193 201 205 205 195 185 195 207 233 229 221 251 243 314 368 328 324 328 334 340 360 346 320 293 255 
141 135 133 139 127 139 139 143 137 155 143 145 135 147 141 147 149 139 155 155 193 219 231 259 301 348 287 209 187 215 336 360 348 374 360 372 352 289 223 171 187 205 245 235 233 257 247 241 229 237 179 149 153 201 217 217 191 179 197 181 181 187 207 215 213 237 233 251 316 338 318 322 338 324 362 393 393 383 370 370 
145 129 147 137 143 145 139 121 151 143 143 143 141 149 145 125 143 139 135 155 143 147 157 177 169 167 165 171 185 193 309 377 307 303 307 303 289 277 253 211 185 193 227 241 249 257 245 253 203 229 185 189 191 223 235 221 207 161 193 189 189 191 195 201 211 207 209 229 309 324 309 326 332 332 368 379 379 372 358 368 
145 139 133 133 119 131 135 121 131 127 135 139 135 131 137 131 135 153 137 137 141 141 157 157 143 151 151 153 171 167 271 389 307 255 213 107 125 189 261 285 279 231 199 199 209 233 229 237 197 217 193 167 191 273 299 314 293 277 233 195 177 191 205 205 213 215 221 237 279 291 289 309 328 354 366 356 340 322 299 295 
137 151 133 137 121 135 129 135 135 133 141 141 129 137 133 127 125 119 133 133 131 133 129 145 139 143 147 153 153 169 193 370 358 314 81 0 77 237 301 338 377 379 305 259 229 261 291 275 249 227 233 233 324 374 312 314 299 299 215 183 163 189 203 197 205 215 221 209 205 223 207 215 231 241 241 211 219 199 183 179 
139 137 127 139 129 131 121 117 123 125 137 131 117 139 123 135 131 127 123 125 117 121 119 125 135 133 129 141 141 143 165 257 350 370 299 247 281 277 247 311 446 442 436 442 417 411 401 385 368 366 364 364 403 401 379 320 297 259 171 155 153 145 165 187 173 191 197 199 177 193 175 177 163 145 149 143 139 143 143 149 
147 139 127 131 135 131 129 129 133 139 127 131 129 123 125 127 125 125 119 111 129 133 135 123 129 129 135 137 125 145 161 171 225 346 370 348 338 305 299 399 469 477 461 453 455 461 446 430 424 411 391 366 370 364 336 299 237 183 161 147 157 159 163 171 189 203 205 205 209 175 173 173 155 149 119 129 143 127 137 131 
143 137 133 121 123 127 121 131 127 129 115 137 131 131 145 133 129 135 129 131 125 145 137 133 129 137 141 145 141 157 167 177 169 213 277 303 281 275 291 395 395 403 393 415 438 457 438 401 344 273 235 213 215 201 175 175 161 149 149 139 149 149 171 195 215 217 217 223 203 179 171 157 155 131 127 111 135 129 109 141 
137 143 137 133 131 121 131 139 121 131 129 117 139 125 137 141 133 139 131 143 127 129 145 155 141 143 147 145 149 171 165 179 177 201 205 227 263 265 303 293 322 324 291 249 213 203 215 209 183 163 165 173 179 171 161 165 159 145 141 135 149 141 171 179 205 219 221 219 209 191 181 171 149 145 115 127 135 123 117 115 
129 127 135 131 131 131 125 123 127 135 125 127 139 147 139 141 125 133 135 123 141 141 145 155 141 147 157 159 143 159 171 185 195 239 263 291 281 326 395 415 403 411 389 401 366 289 197 159 157 155 155 159 177 171 163 149 137 149 139 135 139 151 177 189 219 227 219 215 213 193 165 165 153 133 125 129 135 137 107 137 
133 153 129 139 119 143 129 133 137 115 141 123 145 139 141 135 151 139 131 129 139 145 151 139 149 159 155 161 189 215 263 305 314 322 316 309 309 316 393 411 421 424 385 368 387 377 340 249 181 161 159 163 177 183 159 157 159 163 153 143 147 157 175 195 205 227 221 209 203 201 185 175 161 135 133 141 135 123 115 145 
131 135 115 135 143 133 121 129 121 123 135 133 135 133 151 141 123 139 149 133 139 139 151 149 157 163 165 217 285 285 307 326 299 312 314 309 324 311 352 395 395 362 356 352 354 354 338 318 289 219 171 169 177 179 167 163 157 159 143 161 165 149 171 191 203 221 211 199 221 187 193 201 197 181 171 169 157 159 141 149 
127 133 135 133 131 141 121 135 137 125 139 129 139 147 143 139 151 145 141 135 143 139 141 159 161 161 185 314 362 307 299 305 265 227 233 267 291 303 309 305 229 181 201 253 287 305 314 326 314 287 243 239 249 239 223 195 175 161 185 199 201 185 175 183 171 177 177 203 217 221 247 283 305 299 305 303 295 263 237 241 
145 117 115 131 131 137 137 129 143 137 147 135 133 133 151 139 147 153 139 145 157 141 159 157 165 175 247 389 354 311 307 314 275 223 161 123 187 217 203 187 177 173 183 191 209 205 221 305 289 275 285 322 311 295 249 219 171 201 209 229 223 215 205 189 175 189 197 235 235 275 289 334 362 372 375 348 354 340 299 305 
147 135 123 133 117 125 123 133 129 123 139 143 137 143 145 157 147 157 139 153 153 149 153 161 169 177 299 348 314 309 318 303 263 261 263 225 231 229 237 267 255 279 257 255 239 211 205 195 215 269 316 326 322 309 265 219 205 213 221 217 205 195 199 179 175 167 197 225 203 231 265 309 340 354 387 377 352 340 307 322 
139 127 127 127 131 141 133 131 149 129 137 135 153 151 153 177 201 219 207 193 187 173 159 173 183 225 330 354 328 316 314 303 273 285 267 253 229 237 253 245 247 261 259 257 227 205 189 211 225 265 330 336 314 287 253 231 205 201 203 149 113 175 187 187 173 193 187 183 163 189 249 279 316 342 370 368 360 354 330 332 
149 157 133 129 119 137 127 125 159 135 137 141 137 149 185 265 385 430 422 432 415 364 273 207 199 307 377 358 330 320 311 301 293 312 255 203 203 189 221 225 237 235 239 237 215 205 203 201 233 215 261 279 297 263 225 223 233 213 199 95 0 163 181 181 179 165 169 165 187 193 233 259 312 330 332 340 326 309 277 269 
135 145 133 139 121 151 129 121 135 121 143 137 149 167 251 405 504 469 500 545 517 483 461 387 312 413 387 375 344 324 307 299 312 299 229 189 187 183 205 211 213 219 213 229 199 207 203 191 223 211 225 237 233 227 227 227 225 231 215 179 155 169 187 169 181 169 157 185 181 205 219 231 233 233 215 209 201 171 139 169 
139 139 137 107 127 129 121 135 139 133 123 129 153 157 318 446 490 512 543 576 521 419 397 411 424 436 403 375 332 326 309 309 279 247 203 181 187 183 209 211 223 219 219 219 205 201 187 197 183 199 219 229 227 215 235 235 237 239 239 229 203 185 209 191 179 173 175 207 209 193 177 165 141 105 83 93 125 111 123 147 
137 133 127 123 119 137 129 117 139 129 131 145 139 163 299 448 463 498 529 554 523 358 385 385 407 436 405 360 314 312 299 287 259 219 177 165 193 203 217 211 203 217 205 213 219 201 183 191 185 183 215 219 215 235 231 241 237 255 253 243 217 213 233 207 201 185 167 165 175 169 165 147 113 91 81 83 99 113 129 137 
141 141 121 133 117 131 131 131 137 121 133 129 123 149 253 421 446 477 519 548 512 370 370 397 413 419 389 332 301 287 267 253 215 207 163 131 173 203 225 215 209 215 207 219 223 201 195 201 183 187 209 207 205 221 221 239 253 259 247 251 237 213 221 211 173 181 143 155 151 153 143 117 113 99 99 89 121 115 117 141 
129 127 123 135 121 125 123 129 141 113 129 131 137 139 187 356 450 436 492 515 473 459 459 463 430 421 374 314 283 255 227 231 201 191 145 107 171 197 211 229 221 223 213 219 215 221 205 199 187 195 255 255 257 229 229 229 261 267 247 239 215 187 167 149 149 147 145 135 139 131 127 101 113 97 133 109 139 131 127 135 
129 149 131 141 131 145 131 123 139 105 121 123 127 135 155 229 312 358 395 452 457 428 397 368 393 415 362 303 269 245 231 237 203 171 81 50 163 203 235 243 225 219 219 221 211 201 201 193 197 223 305 295 289 299 239 237 235 233 199 175 173 143 157 145 153 155 155 151 161 141 127 115 123 103 119 127 141 151 151 153 
119 121 127 125 139 143 129 127 141 123 131 135 137 145 137 167 173 167 175 225 241 203 187 175 249 370 354 340 287 275 245 271 203 149 65 67 125 219 263 245 231 221 213 205 203 197 193 215 213 231 334 311 303 263 207 197 205 181 177 165 153 173 187 167 177 169 165 153 155 153 137 135 129 119 125 129 153 129 133 163 
129 123 149 135 137 159 137 133 141 139 145 129 131 129 141 143 145 149 145 159 155 137 157 167 193 324 374 348 312 291 289 257 217 169 57 44 97 193 263 259 241 235 219 211 211 203 209 245 241 231 273 237 201 189 165 167 203 197 193 185 193 201 211 221 247 253 247 215 193 161 151 155 131 133 135 139 137 143 141 159 
125 125 145 145 133 141 139 127 153 135 141 131 131 127 145 141 129 139 141 153 141 147 147 153 169 273 379 348 314 301 285 281 251 177 97 99 131 209 269 277 267 251 235 217 221 217 207 239 231 207 209 185 171 169 161 197 199 209 211 209 211 219 245 269 275 275 287 263 241 207 179 189 199 173 203 197 185 173 153 191 
139 119 127 125 137 141 135 133 133 129 149 135 137 149 135 129 143 143 137 133 137 145 125 145 147 231 366 338 316 305 267 269 249 219 135 109 149 203 255 263 283 251 243 241 227 223 215 257 223 203 191 203 193 183 185 197 209 213 223 221 227 253 277 249 237 257 275 237 197 189 189 219 263 275 295 301 297 271 245 227 
125 131 143 143 129 133 143 145 139 123 125 145 129 129 145 135 139 133 147 127 149 135 135 139 149 207 383 346 277 271 259 237 225 221 195 137 141 179 231 263 249 253 233 227 219 221 231 257 223 203 225 209 215 217 239 233 227 223 221 231 253 239 233 225 231 253 261 211 169 155 185 219 277 305 326 354 348 350 330 348 
127 137 151 127 135 151 129 133 135 131 127 125 127 119 135 141 131 131 129 131 135 123 129 147 123 183 340 356 303 255 249 223 181 199 209 219 209 209 237 229 251 267 253 249 225 231 245 221 239 225 233 217 225 239 245 239 247 219 211 213 209 227 223 199 209 215 213 183 163 149 203 233 309 334 356 379 368 389 358 366 
141 133 123 115 121 147 119 111 137 131 141 135 137 137 141 131 131 127 139 123 127 125 135 121 125 143 261 328 289 271 277 235 163 169 223 265 231 195 197 175 179 189 211 213 225 211 231 229 221 219 217 207 219 215 217 235 227 197 205 211 205 203 197 185 163 173 161 177 179 175 225 277 340 354 375 364 381 385 368 350 
135 123 131 133 125 133 115 115 123 139 123 117 135 141 131 135 131 127 125 129 117 129 123 121 127 125 155 209 269 297 281 279 253 275 269 285 293 324 295 193 157 159 147 151 165 171 183 213 219 221 231 231 247 243 215 225 231 195 209 201 187 173 185 127 123 129 131 151 155 175 223 271 338 328 354 356 362 336 332 332 
131 127 123 111 113 131 121 127 123 111 133 127 129 119 137 123 129 123 111 123 119 139 115 125 109 123 123 123 159 219 257 269 247 239 247 255 287 405 401 360 326 295 279 271 263 255 259 265 281 251 257 291 267 245 225 215 225 217 199 193 173 171 153 125 121 107 95 119 123 129 143 161 195 227 249 253 251 241 215 249 
129 115 125 115 119 111 107 131 115 103 121 135 111 117 123 129 115 119 121 109 125 101 127 115 119 97 121 119 111 121 149 191 211 225 245 255 356 405 409 413 397 391 360 352 364 352 320 303 301 275 243 239 209 197 163 179 199 195 191 169 151 143 145 149 107 89 85 111 125 113 123 109 115 137 153 159 143 145 147 175 
125 127 127 115 111 105 111 123 111 101 123 131 115 103 113 131 105 95 107 105 103 111 115 109 111 109 107 105 97 105 121 125 123 147 189 229 293 340 375 387 391 385 370 377 364 354 307 257 221 165 151 149 135 121 105 113 129 137 141 121 127 133 139 121 109 91 83 111 109 89 99 93 97 105 125 125 139 129 119 153 
111 95 113 107 101 113 89 97 111 91 107 101 107 113 127 113 107 93 109 103 101 95 103 91 83 95 97 85 99 103 107 111 99 111 129 139 141 143 185 249 281 311 297 295 249 199 155 131 113 111 99 113 93 105 91 99 105 113 103 103 93 95 81 93 97 95 95 95 91 85 65 71 71 87 125 97 131 129 127 143 
117 115 91 101 93 103 109 91 107 93 103 99 113 101 101 107 99 109 99 105 97 91 89 103 97 95 91 101 99 83 95 101 89 93 113 125 115 99 105 109 107 115 115 97 97 87 95 91 89 83 87 101 97 107 89 87 95 89 95 87 97 85 97 77 71 85 93 87 93 91 79 69 61 103 109 103 115 115 121 127 
131 113 85 105 91 115 101 103 111 99 97 95 103 93 103 109 109 85 91 97 83 91 85 97 91 89 85 81 79 89 107 113 101 117 123 137 141 133 121 113 109 113 95 105 113 101 109 107 107 105 109 113 119 113 107 105 105 101 103 93 93 105 103 91 83 87 89 87 75 89 71 65 69 77 87 111 105 101 97 121 


