P2
80 60
604
168 170 170 192 170 172 164 170 164 164 168 166 174 156 182 164 168 176 170 144 152 142 152 144 128 126 140 120 122 118 128 114 128 140 134 142 138 136 126 122 114 114 100 102 96 116 120 114 124 130 122 134 132 124 134 124 130 128 144 134 156 134 152 174 168 138 136 122 142 138 138 126 146 126 112 128 110 126 116 142 
172 150 148 174 166 156 152 162 160 164 178 176 164 158 148 160 174 156 144 148 156 138 134 142 122 112 126 132 122 130 114 134 122 138 124 156 142 128 116 110 110 110 118 100 106 106 116 112 108 136 130 132 130 132 148 146 132 144 146 132 158 164 160 160 152 150 138 142 140 146 142 124 132 130 120 110 102 116 110 136 
176 152 166 158 180 166 146 158 158 158 152 154 158 154 160 164 162 154 148 146 142 138 134 124 132 120 132 130 132 114 120 118 132 148 140 152 150 132 130 128 130 110 116 116 126 116 130 126 128 144 132 142 136 134 138 132 154 160 140 158 156 152 162 144 148 150 154 144 158 148 132 142 134 128 124 112 114 126 126 138 
172 158 154 172 166 170 166 182 160 162 146 170 180 144 158 150 154 144 150 152 148 154 146 144 138 140 144 140 152 134 144 146 144 166 150 152 164 134 144 144 124 124 122 130 120 118 128 136 140 142 140 144 158 142 156 134 156 156 158 154 158 160 154 168 164 160 160 152 150 134 148 146 146 130 116 106 124 130 118 138 
156 152 152 180 172 172 162 182 154 166 162 166 170 172 158 158 168 172 158 150 140 138 142 150 148 134 130 152 148 150 146 154 138 160 162 160 158 154 150 142 146 130 124 124 114 142 128 136 146 142 142 162 152 158 160 150 146 148 160 164 158 162 152 176 160 154 142 142 154 156 158 152 150 150 128 118 118 124 126 142 
174 146 162 168 172 178 158 176 174 158 152 178 158 158 174 158 174 162 154 156 160 148 154 152 148 150 146 156 164 150 150 146 148 174 158 170 168 168 160 148 148 136 140 126 136 138 132 140 146 156 154 166 158 160 156 152 160 154 156 170 168 160 170 170 172 156 162 162 152 150 156 162 166 144 142 130 138 136 124 140 
156 150 176 178 176 182 166 156 164 170 168 180 178 168 168 168 172 168 160 158 156 166 156 144 150 156 150 160 166 148 156 174 172 176 166 176 182 182 166 156 152 134 142 138 138 148 138 148 144 146 162 148 160 160 172 164 170 168 162 168 164 178 186 174 172 168 168 160 180 150 164 164 148 164 154 148 140 130 134 146 
178 146 156 184 176 176 168 186 174 166 164 172 170 170 168 172 162 164 174 166 172 156 164 164 148 160 160 162 164 158 160 166 160 182 176 176 186 174 170 156 150 146 152 142 148 142 150 154 162 170 162 176 172 168 160 162 166 186 178 170 178 174 172 178 182 164 156 164 162 156 166 170 164 144 152 154 140 140 138 158 
168 150 158 178 162 172 182 174 168 176 174 166 178 184 166 170 166 166 152 156 158 154 168 158 152 154 170 164 150 170 162 158 170 196 182 190 190 164 172 166 162 156 164 144 156 164 162 168 168 166 172 158 170 170 176 176 220 232 226 204 204 178 180 180 176 164 162 156 150 168 170 152 178 156 148 150 142 144 136 154 
190 158 170 188 174 178 168 190 160 182 178 188 182 162 182 184 180 178 170 158 180 154 170 162 160 162 166 164 160 172 166 168 176 184 200 196 204 180 176 184 184 196 210 182 172 166 164 180 172 210 222 192 192 176 202 256 304 347 341 286 228 190 184 188 180 182 182 172 182 162 174 186 182 162 138 154 140 150 138 156 
180 156 182 184 172 184 162 176 168 156 152 190 154 162 180 180 184 154 170 176 168 168 168 166 178 154 150 158 160 154 160 166 166 190 198 204 206 198 226 268 365 424 442 422 365 290 220 210 228 310 300 238 218 210 256 322 357 367 359 351 322 256 196 188 186 166 166 180 174 160 162 170 184 154 154 148 142 160 146 176 
200 158 184 184 190 166 176 188 172 168 178 176 188 160 176 164 180 162 172 160 168 174 174 186 158 174 172 158 182 162 176 170 180 222 204 230 230 278 418 465 478 480 502 502 469 420 377 320 334 334 324 282 228 232 290 337 373 387 387 355 343 337 322 262 224 182 176 162 172 178 164 180 174 172 162 162 154 148 150 182 
180 152 178 178 180 170 168 180 174 166 170 176 184 190 168 166 172 166 160 160 172 168 162 158 148 150 160 160 166 180 166 180 202 262 276 284 286 316 432 477 502 449 444 434 422 400 326 282 332 334 294 266 246 252 274 345 383 404 400 385 365 337 343 359 298 192 182 176 186 168 160 168 176 176 162 150 148 154 146 162 
182 162 166 192 170 182 182 176 172 164 174 172 172 188 154 158 162 180 166 184 160 174 160 170 154 144 150 164 164 176 178 220 304 369 337 322 294 306 345 428 397 312 302 328 334 334 262 236 292 288 256 274 260 266 280 306 377 399 393 400 387 363 343 385 406 284 200 184 194 186 176 172 188 172 160 158 142 140 150 150 
190 180 170 178 194 176 178 176 172 166 174 184 176 156 162 174 172 160 170 174 160 172 160 150 158 148 158 172 174 186 236 328 363 322 206 172 218 282 316 286 238 204 232 266 300 310 280 194 222 244 246 268 288 288 292 290 316 391 377 385 371 359 383 400 406 389 260 202 204 190 206 188 184 174 164 164 152 162 146 136 
174 166 184 186 176 178 178 182 170 166 170 164 174 166 158 176 164 184 174 176 166 164 164 160 144 170 170 192 186 224 328 379 341 324 284 294 270 264 260 210 190 184 200 234 254 256 278 242 198 218 268 264 276 292 320 288 298 300 310 326 357 373 387 399 400 379 355 226 212 194 192 186 182 174 168 152 160 162 150 152 
172 150 182 172 176 166 180 166 164 162 172 168 184 172 174 174 172 176 164 164 164 168 170 168 172 164 174 192 210 292 408 363 355 379 379 357 276 228 184 168 200 206 202 204 224 240 266 264 186 208 262 268 268 288 286 286 280 298 272 242 298 369 383 400 400 383 373 312 232 204 206 200 186 176 168 166 162 156 154 186 
172 166 172 164 168 162 176 160 174 170 162 178 194 178 184 172 190 176 176 172 184 176 178 182 184 184 186 200 224 355 399 369 385 420 422 345 258 176 148 196 242 266 258 230 220 244 262 234 206 206 270 288 288 266 278 276 284 286 260 204 226 284 353 404 391 385 391 363 304 224 210 204 200 198 178 188 176 178 174 208 
188 176 178 190 184 180 194 184 184 176 178 178 176 188 178 190 200 184 188 190 182 182 188 180 184 200 194 192 234 334 400 397 422 442 420 336 232 128 110 220 262 270 272 242 230 232 246 238 212 254 254 328 308 284 270 252 254 266 258 256 250 256 258 320 379 383 393 377 381 270 234 222 218 212 198 218 214 224 202 222 
194 170 184 176 186 176 182 184 176 180 190 188 182 182 178 192 188 180 174 166 198 186 182 178 194 196 210 224 228 322 385 391 404 410 357 298 192 102 96 212 266 282 274 248 230 214 238 230 218 180 252 308 296 272 266 260 258 250 256 274 284 278 280 276 318 345 385 400 393 345 276 272 270 294 308 312 318 328 308 330 
184 176 180 194 186 176 178 190 186 170 180 188 178 184 180 174 180 184 180 174 210 196 214 218 288 286 232 260 300 410 373 391 416 391 332 308 216 154 114 214 262 284 276 250 222 234 254 264 230 188 220 252 270 270 258 258 248 248 254 270 274 266 282 292 294 276 347 399 414 406 379 375 353 367 365 389 387 395 379 381 
180 170 194 182 190 186 182 178 170 170 158 184 182 182 176 186 174 182 184 190 228 262 302 349 482 504 438 475 533 506 337 324 428 379 324 320 258 172 144 204 268 288 290 260 238 248 276 288 276 252 132 120 234 242 256 234 236 236 238 238 248 250 248 264 274 230 296 369 410 434 428 412 404 389 404 406 387 389 373 389 
178 162 168 192 176 166 186 176 174 170 176 190 188 184 174 176 198 190 200 216 302 312 383 482 570 573 552 537 556 544 361 304 414 422 330 316 280 216 190 180 242 278 298 276 254 258 280 294 292 264 146 47 144 232 254 228 224 220 216 224 238 220 232 238 244 234 258 357 406 426 444 447 463 449 414 402 369 357 318 282 
172 156 172 176 182 176 166 180 176 168 174 170 186 178 190 184 184 194 190 276 361 389 444 548 560 527 535 517 511 546 424 389 442 422 387 375 341 318 256 206 202 240 272 260 256 284 268 276 278 254 186 122 122 202 232 216 202 216 228 226 228 220 224 246 242 212 248 320 367 397 447 455 453 465 446 416 312 252 214 210 
182 164 184 188 176 174 180 192 184 188 170 184 178 188 174 182 198 182 210 312 416 436 515 599 568 453 467 504 488 556 453 404 440 428 404 410 383 345 282 226 196 202 236 238 262 284 276 268 254 236 204 186 212 256 286 244 196 186 228 218 228 228 240 252 234 226 220 268 278 284 353 397 434 444 442 434 373 272 198 190 
184 166 190 190 178 186 178 176 200 180 176 176 176 186 184 170 186 186 188 294 373 442 542 589 554 480 494 500 469 502 432 414 391 410 400 393 369 343 296 236 226 206 240 238 264 286 280 272 264 232 218 236 210 256 262 236 264 270 236 214 228 236 238 236 224 210 216 218 230 234 246 274 286 351 408 367 290 226 184 174 
172 166 182 194 174 176 182 176 172 168 174 178 180 184 180 180 176 194 190 264 298 400 428 486 533 556 521 402 292 262 324 381 375 377 367 351 326 290 270 244 272 244 266 250 274 278 288 282 256 264 240 240 216 216 182 240 337 357 304 300 282 212 210 206 212 204 216 224 222 228 216 210 214 244 274 232 200 188 188 194 
176 178 180 190 176 172 174 188 168 170 190 176 166 186 178 172 174 170 180 210 226 262 262 280 336 351 290 232 194 222 240 381 381 373 310 276 214 142 212 272 306 334 326 252 232 270 286 314 324 302 268 242 226 234 357 400 369 357 332 332 248 206 202 198 208 196 212 216 210 220 216 208 212 184 198 174 182 178 166 184 
184 162 174 190 188 184 180 170 164 168 180 176 164 170 168 170 186 186 176 174 178 182 176 178 198 196 168 184 184 190 202 326 414 381 318 240 69 0 226 320 347 414 455 453 451 459 442 463 447 436 420 395 381 416 447 406 389 357 330 320 258 188 194 206 208 206 220 220 210 208 206 202 202 184 182 160 166 190 152 178 
186 166 178 176 184 182 166 174 182 178 172 172 166 158 162 164 174 174 170 154 176 178 180 162 170 166 182 188 170 188 192 228 393 432 387 322 162 224 332 290 312 442 480 486 502 486 484 471 469 451 442 426 414 418 422 414 393 355 316 232 210 214 204 220 232 234 234 226 250 202 214 210 198 186 164 174 174 160 164 184 
186 166 178 174 172 170 172 180 164 168 156 170 176 166 178 174 186 180 174 178 182 188 178 178 172 178 184 182 186 194 202 204 278 406 418 399 389 361 341 312 306 453 486 473 465 486 488 488 478 461 412 349 312 256 240 226 232 220 210 194 190 194 216 240 256 260 234 258 242 216 206 194 200 176 168 164 166 160 154 172 
188 180 176 180 182 166 182 190 160 172 168 170 182 168 170 182 174 178 176 184 178 176 184 188 176 174 192 184 200 210 200 204 230 272 355 412 414 369 347 302 318 393 351 318 300 316 355 365 334 262 232 226 220 218 216 204 194 200 186 182 198 194 214 226 244 254 248 242 240 230 216 202 202 182 158 164 170 156 142 162 
170 162 178 176 176 182 170 178 172 174 164 162 182 182 180 172 176 172 178 162 184 180 190 192 186 184 192 198 196 196 204 222 240 276 296 357 397 391 367 337 371 268 200 182 174 184 198 202 204 196 194 212 212 204 204 188 184 184 182 184 182 202 216 246 268 252 254 242 246 226 212 214 204 180 162 164 166 168 152 176 
168 186 172 192 168 186 184 194 184 174 188 172 182 180 176 172 192 180 182 174 184 176 190 178 188 188 200 222 270 266 286 286 290 320 318 343 442 455 408 400 381 304 224 174 176 178 174 182 198 202 196 208 222 226 212 196 200 194 192 188 200 206 216 252 254 258 248 240 240 236 220 206 206 172 172 174 164 170 156 180 
176 166 176 196 188 188 170 178 174 176 192 182 176 178 182 190 170 198 186 174 188 184 188 192 192 226 248 332 353 355 351 359 355 373 367 379 402 449 410 381 363 306 232 196 162 178 178 184 180 196 200 204 218 218 196 206 194 202 196 208 216 200 216 240 260 252 248 238 264 224 216 210 222 198 168 172 170 176 180 196 
172 180 182 196 188 184 180 186 184 176 190 170 176 196 190 184 206 190 188 190 188 188 190 196 204 286 357 336 330 337 351 336 332 371 387 395 381 428 383 361 353 330 280 226 202 188 186 196 196 204 200 222 220 222 212 210 216 204 224 220 218 210 222 240 244 240 230 230 244 226 242 268 280 272 264 254 256 236 220 232 
178 158 164 184 180 190 190 186 188 174 174 174 186 178 186 184 190 196 188 186 192 184 200 196 212 359 381 332 318 320 320 274 246 270 286 328 304 300 314 359 371 365 339 312 236 222 196 210 218 220 218 236 234 258 236 208 208 208 232 242 230 230 222 226 240 236 242 252 264 286 302 345 387 381 369 359 347 337 320 322 
182 160 170 180 166 176 192 188 164 170 176 184 174 176 176 184 188 202 194 184 210 200 198 194 232 373 371 320 324 320 300 276 266 276 264 296 304 306 326 345 377 383 355 363 326 274 310 276 296 306 306 314 320 314 296 234 228 224 254 270 256 244 248 228 250 214 256 266 250 288 312 349 391 397 400 385 373 363 347 347 
176 168 176 172 178 184 192 194 164 166 164 176 178 182 194 210 218 238 226 214 214 208 194 204 250 383 379 353 330 316 300 312 302 298 278 292 312 314 332 332 355 383 385 385 389 365 339 349 359 349 345 332 349 345 306 260 228 256 266 256 252 252 240 226 246 228 254 226 204 238 300 337 373 387 406 391 383 377 373 353 
174 178 184 180 168 178 166 164 182 172 174 196 180 198 218 274 373 412 418 412 399 334 256 220 266 389 391 371 347 324 312 339 332 284 272 274 292 292 302 318 326 371 391 391 387 363 322 304 336 341 369 361 365 347 300 268 274 272 246 272 266 252 250 236 224 210 220 194 208 222 276 310 355 375 387 381 377 359 351 357 
166 188 178 182 168 190 180 180 172 164 176 182 190 200 278 420 533 519 537 566 531 517 478 349 367 438 389 373 353 330 320 339 332 278 244 256 274 268 290 294 302 316 328 361 304 326 314 280 334 355 369 369 371 345 316 284 284 276 264 254 276 258 268 256 218 242 212 216 216 242 258 280 318 339 334 334 298 258 230 238 
186 170 186 156 174 168 158 186 180 176 160 168 184 186 304 471 533 562 597 595 558 486 480 488 490 455 393 365 353 328 318 336 296 256 242 246 272 262 288 290 288 288 272 270 248 260 280 282 288 318 332 353 345 314 290 286 274 288 282 184 192 270 270 272 218 246 248 236 244 234 234 218 228 200 172 168 166 166 170 210 
170 158 176 174 174 176 176 168 174 164 168 178 178 198 320 482 513 548 583 604 539 393 447 440 482 461 402 367 334 330 314 296 262 228 220 260 274 264 282 280 282 280 258 234 228 240 246 278 278 304 308 314 308 304 288 286 298 294 302 252 234 274 284 260 238 230 238 226 214 200 196 190 168 150 130 130 140 160 162 198 
178 168 170 178 170 178 170 172 170 166 180 168 176 184 282 459 502 537 579 589 521 397 420 406 447 442 377 351 332 320 304 268 232 234 204 258 280 278 280 266 268 268 266 242 222 238 240 248 258 292 312 300 302 318 308 290 302 308 306 294 286 284 286 292 262 218 198 198 186 182 182 162 160 144 148 130 142 154 164 190 
168 158 168 176 178 178 172 168 180 166 168 178 176 184 228 397 480 492 562 544 509 480 469 449 463 444 353 326 310 286 272 270 234 204 182 252 254 306 274 266 272 264 262 246 224 250 238 238 256 264 294 310 302 304 320 288 310 306 310 316 314 314 298 286 290 236 198 178 178 166 168 144 156 146 168 158 170 178 178 170 
164 180 178 180 180 194 164 184 178 148 160 168 160 172 204 252 363 408 469 492 511 467 430 393 428 418 365 320 302 282 272 252 214 172 142 264 256 286 278 258 260 268 272 252 222 236 228 220 250 264 294 308 296 322 320 304 292 310 345 324 326 298 304 284 262 244 204 184 196 176 164 152 170 154 162 174 172 188 186 186 
150 158 172 176 190 174 166 176 174 164 172 172 184 176 190 202 220 218 226 282 310 268 244 222 274 379 367 339 312 296 278 262 200 126 116 260 296 296 286 276 254 274 288 258 220 224 214 218 240 282 312 314 312 308 328 318 290 280 292 296 288 272 248 224 212 196 192 176 198 184 170 176 180 176 164 170 186 174 182 178 
166 152 178 178 190 184 174 184 172 184 190 190 184 178 178 184 196 182 188 202 210 186 192 194 220 343 371 345 322 308 296 246 174 110 114 218 300 294 290 270 302 318 375 361 262 236 220 214 252 326 337 312 304 296 310 296 258 254 250 234 252 266 264 262 268 242 218 208 210 182 176 186 180 176 172 182 174 182 190 208 
170 158 176 186 184 184 180 188 168 178 176 172 178 166 182 176 174 174 178 182 174 184 188 184 204 326 381 351 310 302 300 264 196 112 106 216 290 302 302 290 308 365 381 361 369 270 224 214 258 318 337 314 270 256 250 256 234 246 256 266 274 286 308 320 312 294 284 280 266 238 208 200 208 198 200 210 186 190 176 222 
154 156 158 176 174 188 176 180 160 176 164 178 172 190 172 162 186 176 176 168 170 178 166 172 188 343 367 332 330 294 290 290 208 140 138 222 286 300 306 300 324 337 389 381 324 258 254 238 258 280 276 246 232 218 250 238 248 266 284 290 300 314 316 318 296 308 304 276 254 242 236 248 290 302 316 310 272 264 220 240 
164 152 176 184 184 176 180 178 160 160 160 178 166 170 170 160 180 172 192 160 182 178 178 164 190 322 367 320 296 292 296 276 238 160 122 176 260 282 306 308 304 359 375 371 294 270 264 240 240 224 224 226 244 246 268 284 282 290 298 300 322 310 292 296 304 294 282 258 224 204 230 252 304 343 359 375 363 365 322 345 
168 168 176 174 186 184 174 168 166 178 168 168 162 168 178 176 170 178 170 174 176 170 172 170 176 278 385 337 290 266 266 254 246 232 164 174 254 278 300 296 310 339 367 373 262 256 296 228 242 244 234 248 256 260 278 292 310 310 300 304 308 304 292 304 280 262 236 212 208 178 236 278 336 363 385 391 402 404 387 385 
172 176 164 170 160 182 178 164 166 172 178 174 172 176 184 170 176 174 190 168 160 164 172 160 166 200 322 353 316 284 258 224 224 244 228 236 234 240 276 296 326 314 341 326 256 282 302 238 264 256 250 258 270 264 278 284 284 296 304 300 308 308 284 264 236 216 214 202 186 178 246 308 375 389 406 404 420 422 406 399 
164 156 172 178 178 176 174 172 154 160 158 154 166 170 160 176 168 166 178 166 170 166 160 168 156 168 192 264 326 326 284 284 280 284 266 294 300 264 220 240 320 343 320 242 210 240 256 254 288 274 274 266 284 276 280 278 272 270 280 288 302 274 256 206 206 160 180 176 178 206 254 320 377 383 393 408 414 387 395 397 
176 168 170 170 170 176 150 168 164 150 170 168 170 162 168 170 168 160 150 158 166 182 148 162 152 156 152 168 206 284 286 270 260 280 298 320 397 412 363 347 377 357 318 192 158 166 200 254 282 288 296 318 300 288 294 272 272 256 270 268 258 258 222 192 184 148 148 156 152 162 180 224 316 328 324 337 337 328 298 326 
168 148 164 168 170 172 160 174 144 146 162 174 160 162 158 166 160 170 168 152 164 146 162 148 142 134 158 160 166 176 222 262 266 262 286 385 453 440 428 432 424 375 262 150 144 152 166 204 284 314 288 272 246 240 242 252 246 232 232 212 214 210 196 184 144 132 146 154 166 150 160 156 184 216 208 210 200 188 222 220 
172 156 162 164 158 152 144 170 142 156 148 160 156 146 158 166 146 144 144 156 146 150 142 140 142 138 134 138 134 142 160 176 216 250 290 408 444 436 432 424 412 308 180 140 120 148 150 160 174 186 188 176 170 162 160 170 182 194 194 178 180 184 178 184 140 120 130 142 138 128 138 126 160 154 162 166 168 166 178 192 
154 128 150 146 146 150 134 148 142 134 140 152 146 150 158 156 152 150 158 150 136 136 144 124 120 126 128 124 142 130 138 140 146 190 202 236 282 371 424 414 337 180 144 120 126 126 124 134 132 152 132 146 130 140 140 150 148 160 142 138 150 142 134 146 144 120 126 122 128 120 114 108 122 146 176 144 158 154 160 186 
140 144 134 138 136 142 148 136 142 128 138 146 146 142 148 140 158 140 136 140 138 146 132 136 124 128 118 140 136 120 126 118 128 148 154 174 144 158 216 236 172 136 124 114 122 120 124 128 110 116 120 142 130 136 132 126 134 130 130 118 132 134 136 124 132 120 122 114 132 120 110 96 118 142 156 136 144 154 144 150 
162 146 148 150 140 154 148 158 146 128 134 122 140 134 136 144 146 124 130 138 120 132 128 130 120 120 114 116 128 124 142 132 140 166 164 166 168 182 184 190 160 146 134 138 138 144 148 140 140 138 134 144 146 144 148 148 130 146 138 136 140 146 136 146 144 116 118 112 116 110 100 96 118 126 134 146 126 140 138 148 


