P2
80 60
662
85 77 69 77 79 77 75 77 63 69 65 63 79 77 69 81 75 61 65 55 55 73 51 73 67 81 57 67 43 59 59 73 67 67 81 71 81 69 71 73 83 73 63 81 81 73 83 100 79 83 89 55 81 95 95 85 91 85 69 100 122 150 169 203 237 263 273 293 319 287 295 269 287 301 265 177 154 177 285 485 
83 63 77 69 71 73 75 67 69 77 71 71 73 71 69 69 65 59 55 53 55 65 65 57 75 67 57 67 53 63 61 79 65 69 81 63 81 73 67 71 81 77 77 85 81 71 83 81 85 95 77 89 83 91 98 89 108 98 95 140 156 237 309 351 361 363 395 446 497 489 464 450 462 487 489 345 193 247 444 548 
102 69 45 65 81 73 83 71 67 67 73 75 77 71 67 75 55 65 57 57 59 61 63 65 49 65 71 67 63 63 67 67 75 77 79 71 75 69 73 81 65 69 73 81 77 83 95 85 98 102 100 89 89 104 104 104 93 118 114 179 319 389 389 395 391 399 413 499 538 548 532 517 519 542 571 529 351 383 546 544 
83 71 55 61 75 69 89 63 53 67 63 69 67 81 71 69 73 83 65 71 55 69 73 77 71 81 69 67 73 75 71 85 69 73 81 81 71 77 85 75 85 81 79 93 93 106 104 93 95 102 106 112 100 106 106 118 106 126 138 281 397 389 401 403 428 430 454 532 571 569 550 530 536 548 604 596 573 540 583 569 
98 57 63 79 79 79 59 75 79 71 67 73 77 83 75 67 67 73 73 75 63 71 65 65 67 79 81 77 65 71 69 85 81 79 75 71 77 85 79 93 77 73 85 104 104 102 98 79 104 104 110 100 102 120 132 132 132 136 158 325 436 430 440 434 434 440 478 536 567 554 493 515 507 550 589 616 643 602 612 600 
87 61 63 77 85 63 85 69 69 67 57 71 89 65 63 85 77 71 65 65 63 71 75 75 79 71 73 69 71 67 71 93 77 77 83 75 69 79 81 79 69 91 75 87 110 102 110 100 120 118 144 128 150 126 142 130 148 158 203 361 434 458 491 493 478 470 468 507 517 509 430 505 513 556 567 604 620 637 604 620 
98 61 61 75 69 73 83 79 75 79 71 75 81 77 77 77 73 77 69 75 71 71 75 77 83 73 63 73 83 67 83 100 83 77 73 75 77 81 75 71 85 104 91 81 104 89 112 102 130 177 201 235 235 231 223 185 165 195 273 361 389 387 442 509 491 495 497 503 493 450 420 468 525 527 503 563 600 596 620 606 
87 91 81 77 61 83 79 69 69 73 77 71 71 63 79 63 77 79 93 63 59 87 65 73 85 81 85 63 65 85 73 93 77 83 79 81 85 67 75 93 91 83 87 98 91 106 118 116 175 293 357 409 470 493 495 371 241 331 411 450 395 349 387 476 495 489 503 487 454 426 428 450 493 495 460 495 567 567 625 614 
85 73 87 81 73 79 73 51 65 83 79 75 87 61 71 79 71 71 89 57 75 63 69 79 85 81 73 81 81 75 71 98 85 87 77 75 77 81 75 91 91 89 95 104 102 106 120 120 253 337 542 622 602 600 591 577 515 530 606 643 618 536 426 487 515 523 505 478 434 407 448 419 458 458 440 448 521 579 612 631 
83 71 69 79 77 71 83 73 63 71 67 67 81 75 73 75 75 61 69 69 59 79 63 71 67 71 89 77 71 81 75 93 83 89 85 85 81 85 79 79 89 95 91 106 93 102 116 171 271 387 614 610 622 623 592 610 591 581 627 635 645 627 497 474 472 458 442 438 401 424 456 424 436 413 413 395 472 561 606 620 
104 85 77 77 71 71 87 83 73 75 81 59 79 77 67 77 63 73 65 63 65 67 55 81 61 87 71 83 77 77 71 81 67 89 73 91 79 73 69 71 79 73 85 102 95 108 132 217 409 495 639 627 647 639 606 577 583 581 612 641 643 623 540 438 403 411 417 387 419 466 476 391 393 405 371 373 407 487 592 602 
89 59 61 91 65 77 85 77 73 69 79 63 75 77 57 71 67 79 65 63 59 69 59 59 79 75 65 79 83 83 71 75 75 91 85 69 85 69 73 85 81 83 77 93 118 100 136 305 534 548 606 598 662 639 620 587 581 569 604 639 625 552 499 450 434 413 397 401 420 499 497 413 391 444 389 373 397 430 558 596 
85 65 71 79 59 59 83 71 77 61 75 59 75 59 63 67 61 65 75 51 55 63 55 61 73 69 69 81 73 63 73 79 83 81 75 69 77 87 81 77 85 83 81 95 102 98 140 367 558 581 585 575 606 623 604 596 585 523 581 558 462 413 478 501 466 444 417 409 444 525 503 399 395 432 411 383 403 442 507 561 
104 71 63 73 69 71 73 57 67 61 59 63 73 53 69 67 63 63 59 41 67 63 47 65 79 67 73 65 73 71 65 79 75 79 71 77 75 73 79 85 79 73 93 85 85 87 122 335 560 552 501 434 411 448 487 438 365 367 419 367 309 359 456 432 428 420 428 428 456 507 489 415 397 438 442 413 415 450 511 544 
85 77 65 61 69 73 63 69 49 53 67 61 75 69 77 65 59 59 61 53 61 49 47 49 57 65 63 53 67 65 71 69 63 67 71 77 77 69 77 79 85 79 91 63 75 75 104 173 440 563 464 203 144 163 169 158 152 197 353 367 407 415 446 417 426 426 450 454 432 470 464 426 409 440 436 417 430 442 507 550 
93 73 71 83 57 63 73 71 61 57 65 65 69 73 55 59 67 47 53 47 53 55 55 49 67 67 69 51 55 57 61 51 77 69 59 59 73 59 73 77 83 104 85 98 83 98 100 122 297 532 501 217 124 134 136 130 132 265 424 442 424 428 462 468 460 436 478 483 446 444 466 432 399 436 442 426 448 476 523 579 
98 67 63 71 63 61 49 51 49 57 71 51 53 49 45 55 59 37 45 45 39 55 45 45 55 65 61 49 41 53 65 53 57 61 67 67 69 65 83 71 77 98 81 83 87 89 93 110 165 452 560 395 140 132 136 144 150 275 444 472 483 487 480 489 478 458 474 487 444 440 452 413 389 432 419 440 472 505 561 600 
87 63 75 69 63 57 59 65 59 49 57 49 53 61 55 57 47 55 59 41 45 69 57 47 43 51 73 43 65 47 61 79 65 57 63 83 65 59 65 77 87 85 91 93 91 89 110 112 114 307 525 540 271 150 122 124 146 323 446 476 560 546 563 567 534 480 444 420 411 436 426 377 361 385 417 450 509 529 602 608 
89 87 67 87 71 69 57 59 63 57 55 81 61 57 55 57 53 63 63 75 69 69 47 57 61 71 61 67 75 71 67 81 69 83 71 77 57 77 85 87 89 95 104 100 104 89 108 98 102 158 456 569 476 225 138 144 163 361 430 472 550 585 606 525 387 305 261 245 251 267 251 263 265 281 325 391 546 594 622 610 
85 71 57 77 73 85 61 65 59 75 53 69 67 55 61 61 57 65 65 59 41 61 51 59 65 69 73 69 73 77 73 79 69 81 69 79 69 71 67 81 81 87 89 95 98 100 106 108 106 120 315 538 560 438 207 156 213 448 542 563 598 587 478 287 233 231 219 209 185 146 156 138 128 144 152 279 546 616 623 587 
93 79 77 75 69 83 71 71 71 67 53 59 57 75 69 61 75 61 67 55 53 57 61 63 71 67 73 73 65 77 91 83 79 95 75 71 77 81 75 77 93 89 95 89 91 106 102 106 112 112 169 464 554 544 424 203 297 544 585 589 585 493 325 217 207 211 181 165 148 146 130 112 98 116 171 229 489 575 596 556 
89 53 65 75 63 63 67 67 65 63 63 65 61 63 67 67 79 69 63 53 57 55 61 69 53 73 65 57 73 61 77 85 73 73 65 75 61 75 67 79 89 77 95 85 85 93 104 110 102 106 126 323 527 563 561 405 495 567 581 550 472 261 187 187 173 181 156 156 146 142 132 108 93 85 140 203 474 563 561 542 
87 61 79 69 65 73 69 75 75 71 65 53 59 65 63 67 77 67 69 59 67 61 71 65 65 69 71 69 63 65 81 87 89 65 81 67 69 69 69 81 81 87 87 98 77 95 100 106 100 93 122 173 444 552 565 554 560 560 536 503 283 169 177 195 189 185 179 181 207 187 122 102 83 98 140 187 430 532 532 536 
89 71 67 69 59 69 65 69 77 59 65 75 61 67 57 71 81 65 65 55 67 65 65 75 73 79 81 63 63 69 67 77 69 75 87 75 81 65 79 73 79 73 65 89 81 93 104 98 83 104 110 102 253 515 560 561 558 532 458 291 177 163 183 201 243 331 405 440 430 351 229 120 93 91 110 158 422 503 495 503 
95 69 67 63 67 75 73 71 75 67 65 61 73 77 57 67 71 79 65 59 69 63 61 75 67 85 71 71 71 75 69 85 65 77 75 83 75 73 85 81 69 77 81 93 93 95 83 108 100 106 110 100 134 353 536 552 527 466 257 154 183 195 261 325 403 470 491 507 470 428 307 189 126 110 118 167 411 454 493 497 
75 79 57 65 67 63 71 57 63 63 61 71 79 69 69 67 69 67 63 43 47 65 57 61 65 67 57 57 59 55 79 71 79 69 75 73 85 87 73 75 77 77 73 85 91 87 100 98 102 130 118 144 150 189 405 507 434 271 177 193 251 333 430 474 511 532 501 489 489 446 385 305 247 245 231 241 411 434 452 483 
102 79 77 100 75 85 73 67 81 73 79 73 61 67 67 63 73 67 61 67 73 65 71 63 67 81 67 67 69 77 53 75 65 69 75 89 87 75 75 87 83 85 83 98 93 83 93 106 91 144 195 199 197 209 273 341 375 349 327 309 377 458 487 530 534 550 521 497 478 448 430 413 377 365 377 355 448 440 460 474 
95 63 73 77 69 79 73 55 55 69 63 71 73 71 61 75 79 69 73 53 55 59 65 75 73 61 63 63 77 55 73 71 57 63 61 79 73 73 81 81 89 75 77 81 98 104 106 98 95 126 219 259 287 353 381 436 458 485 497 491 493 482 497 523 538 546 532 511 440 434 426 432 405 403 401 405 456 499 472 491 
79 73 55 63 63 63 85 73 67 75 73 61 55 61 75 71 67 59 75 53 57 59 63 63 67 67 69 69 65 59 59 59 55 71 83 61 69 87 87 85 89 89 95 93 102 89 89 98 102 126 205 251 331 387 472 478 487 495 480 495 530 487 489 483 515 523 517 495 430 411 395 389 373 379 387 413 419 476 489 472 
77 75 67 75 69 69 61 51 55 71 73 67 69 73 61 75 61 71 65 61 65 51 49 59 59 53 69 49 63 67 69 69 59 69 49 59 81 77 85 89 71 98 87 73 81 91 104 104 102 122 213 233 277 341 444 476 470 482 424 444 474 430 424 426 434 452 460 466 434 438 373 373 391 403 430 432 411 403 444 474 
83 79 73 63 59 69 75 59 77 79 69 59 85 75 61 75 65 59 67 51 59 55 61 49 53 59 61 55 53 49 57 55 61 55 59 71 81 77 79 81 89 95 77 95 89 85 93 89 100 95 112 154 187 205 313 381 397 363 337 393 428 430 389 379 397 420 417 436 417 409 373 379 409 476 495 478 422 361 353 403 
79 69 71 53 57 77 71 51 53 49 63 63 59 65 59 67 57 61 57 51 51 55 59 63 47 57 53 47 51 49 47 55 61 59 63 71 71 65 69 79 83 83 79 89 93 93 85 98 93 118 132 144 163 171 239 271 217 207 285 373 385 331 323 345 369 379 403 419 391 391 375 377 440 460 470 450 405 345 351 373 
106 63 65 73 65 75 77 65 61 73 63 67 69 55 55 59 65 73 69 59 57 49 59 49 61 63 53 57 69 59 63 63 61 61 67 85 71 85 81 89 91 85 87 93 83 95 95 102 116 191 303 369 424 444 487 480 295 221 357 424 415 363 347 337 359 351 377 369 369 359 385 383 436 454 466 444 375 357 353 359 
93 67 65 69 69 73 83 51 61 67 61 63 51 69 73 65 61 65 61 55 67 49 63 67 59 63 59 75 59 61 61 57 69 67 67 79 81 75 81 100 104 89 87 106 95 95 100 118 173 259 389 505 487 525 565 558 569 536 534 521 483 424 371 343 353 353 335 329 345 355 405 383 436 460 456 428 373 337 375 371 
98 75 81 71 73 67 77 61 73 73 69 75 69 53 59 65 67 45 65 73 73 77 73 65 67 71 61 59 61 47 67 69 55 77 71 79 75 91 77 87 81 91 91 110 98 102 104 126 211 285 456 489 505 561 577 540 571 585 565 589 542 444 393 363 335 313 299 319 335 397 519 401 395 420 446 389 325 347 361 363 
95 75 57 79 63 49 79 69 69 77 57 73 65 63 89 85 83 63 55 57 69 59 69 59 69 71 79 75 69 73 63 65 69 61 73 67 93 85 91 91 89 104 100 95 100 98 110 112 203 311 440 464 509 552 540 495 450 489 491 546 538 432 357 343 313 301 297 301 343 405 575 452 420 413 407 363 335 331 339 353 
100 79 65 81 79 77 75 67 63 71 79 63 75 61 79 75 79 73 75 67 57 79 67 67 63 69 61 79 67 67 59 67 67 75 77 79 75 79 75 89 93 83 83 93 102 106 95 106 158 289 371 385 487 563 544 478 399 428 462 525 487 407 355 319 335 285 301 299 333 407 594 493 424 399 387 371 341 329 327 337 
89 87 71 63 75 73 79 67 83 73 53 81 73 71 73 67 71 75 79 71 57 67 73 67 71 75 79 89 83 65 79 85 59 63 75 89 89 87 93 93 89 95 93 85 95 100 102 120 146 269 345 357 420 538 552 497 456 456 450 499 460 379 341 319 325 283 295 271 325 395 534 511 422 397 381 377 319 317 317 343 
104 75 81 91 85 61 81 73 93 83 79 83 73 77 87 89 63 81 65 63 61 69 83 63 61 79 79 69 75 65 71 79 71 71 65 71 87 69 77 87 83 83 87 85 104 95 100 91 102 177 275 335 347 430 487 472 450 339 299 397 420 387 369 313 323 285 291 279 293 367 478 452 424 393 381 373 321 311 309 327 
93 75 61 73 98 77 85 69 79 65 79 69 77 77 77 67 61 91 73 71 61 67 57 59 67 67 79 75 83 89 67 71 61 71 61 73 75 85 83 73 69 87 71 85 83 77 87 104 91 106 95 112 144 150 213 197 158 152 219 297 339 369 345 317 313 283 287 289 311 424 462 436 379 359 359 333 301 299 287 295 
106 69 49 59 81 73 71 67 83 69 83 81 85 87 79 83 73 83 81 59 67 73 69 69 71 65 79 63 63 57 67 67 71 71 75 69 79 77 73 87 65 83 71 75 87 85 93 98 71 83 87 81 79 91 102 110 91 116 175 293 317 295 287 305 289 283 297 281 335 438 426 415 377 325 353 295 271 295 273 291 
93 69 57 53 71 79 73 67 69 73 73 73 83 75 83 65 77 79 67 65 73 81 67 63 67 67 75 61 71 55 65 69 59 75 57 73 85 77 75 63 83 81 63 77 73 83 93 85 95 77 77 71 77 83 91 73 83 106 146 317 381 323 269 257 291 303 309 279 323 432 411 375 325 291 329 299 277 277 271 283 
91 73 73 67 81 67 79 73 69 75 71 85 83 71 85 73 65 63 73 87 65 83 63 69 65 77 65 65 69 69 69 73 67 59 69 57 71 61 63 79 71 65 69 63 71 67 77 83 89 69 79 67 75 69 87 73 71 83 110 293 395 357 303 259 259 273 297 287 269 341 345 329 319 277 315 291 295 293 283 299 
93 65 57 77 67 75 73 59 59 77 81 65 73 77 75 73 77 67 63 71 57 79 71 71 57 59 69 65 63 61 63 83 65 57 67 59 63 65 59 73 69 57 59 65 65 67 75 71 85 53 73 73 73 71 71 71 59 73 79 251 365 341 295 267 265 285 291 301 259 273 317 321 313 281 299 287 303 289 305 329 
93 75 71 71 65 75 79 65 71 69 71 57 69 75 61 77 69 69 67 49 61 55 69 59 69 67 75 57 57 73 65 57 63 61 65 71 71 65 59 57 65 57 55 59 65 49 51 63 63 61 65 65 55 65 47 61 53 67 51 156 293 305 265 251 295 323 325 339 319 291 323 315 325 297 295 279 303 299 333 319 
81 55 65 55 53 57 73 53 47 69 61 75 69 65 57 59 75 63 63 53 55 63 55 55 51 75 55 67 63 51 61 55 69 53 61 59 61 63 79 63 69 67 57 63 67 61 75 69 69 59 69 53 65 41 49 39 45 33 33 61 140 279 289 263 279 275 275 279 301 339 355 357 359 335 295 293 295 329 331 345 
98 55 57 49 53 45 63 43 61 47 53 65 63 67 55 67 67 59 59 37 33 53 53 53 51 55 61 65 57 33 49 47 43 53 51 69 57 47 61 49 61 49 47 59 65 57 65 67 47 61 59 47 39 41 43 47 43 47 30 49 59 106 209 267 291 263 263 301 319 367 369 367 349 359 341 285 283 315 337 335 
85 65 41 49 51 39 49 39 18 53 45 47 49 39 51 45 43 53 37 35 53 51 47 39 47 59 45 45 35 43 33 41 35 35 49 63 51 41 63 51 57 57 43 57 53 59 63 57 53 49 55 43 39 47 43 24 30 26 20 33 33 37 65 108 187 235 257 259 319 399 391 375 377 385 321 239 281 321 347 331 
93 67 65 49 57 49 49 55 61 59 55 63 63 47 59 63 59 53 53 33 33 39 47 57 53 51 33 39 41 41 30 30 45 30 35 45 49 45 39 39 47 30 22 49 55 30 45 41 47 45 39 22 35 26 33 16 20 14 0 4 20 12 49 41 65 85 126 189 281 375 399 407 426 415 311 189 263 279 333 335 
91 79 65 65 79 71 65 57 79 67 61 71 49 55 69 65 57 51 75 51 49 49 53 59 69 61 65 51 49 41 49 61 53 47 57 55 51 55 53 47 43 51 41 43 51 55 53 37 47 45 55 43 26 33 45 30 37 20 16 24 28 43 43 57 65 71 57 81 144 255 345 399 450 422 317 142 209 261 313 311 
87 89 73 71 77 67 75 71 75 67 67 53 87 67 61 81 79 63 65 71 53 69 65 65 75 79 69 55 75 57 49 63 69 59 49 53 59 53 57 53 53 61 49 49 51 53 45 69 63 63 51 51 49 45 51 53 41 47 28 30 45 43 49 61 83 75 79 79 87 102 179 289 357 351 235 130 136 219 285 297 
106 100 87 85 79 79 79 79 77 83 81 79 83 89 77 71 77 69 55 73 71 73 55 71 73 79 79 77 63 67 67 65 81 73 67 67 67 75 55 77 69 59 47 53 69 59 73 73 63 55 57 57 57 57 57 59 59 55 37 49 63 57 87 61 95 79 95 102 114 112 132 165 171 183 152 122 130 169 237 301 
102 81 89 77 87 71 91 91 83 71 71 102 81 87 77 73 73 69 79 65 69 83 67 65 77 79 81 59 69 77 71 75 85 65 67 59 73 67 51 53 63 73 51 59 53 69 69 65 55 71 59 53 59 47 63 69 71 63 39 45 63 87 95 106 116 102 108 110 128 132 132 150 138 160 150 132 148 120 169 261 
108 89 87 79 75 89 79 85 95 71 95 79 81 79 71 85 77 85 71 81 67 67 87 71 81 81 87 73 71 71 79 81 85 71 71 73 65 65 73 65 61 77 71 57 73 53 77 65 69 57 57 65 49 69 79 65 67 63 51 57 79 93 118 116 134 140 124 122 140 140 128 124 130 128 152 144 138 130 142 221 
91 67 91 87 108 87 100 95 81 100 85 79 83 95 73 83 81 69 81 85 67 77 87 81 69 85 89 87 85 75 81 79 69 63 77 81 73 73 61 79 73 71 59 73 71 59 71 77 83 85 75 65 79 69 79 87 69 73 79 79 112 102 130 126 116 140 126 130 136 130 144 134 128 154 152 134 136 146 144 169 
116 89 85 89 93 89 95 69 75 85 67 73 87 93 95 73 85 77 93 83 61 91 81 77 79 75 77 69 81 77 69 79 69 59 79 79 73 69 71 73 77 55 61 69 69 81 79 69 67 71 71 65 67 65 83 69 55 79 67 93 110 124 120 114 134 134 120 132 130 134 132 120 128 116 118 150 156 146 132 152 
114 85 77 98 93 83 91 83 95 95 85 85 91 108 81 98 95 95 79 61 95 102 100 91 83 95 89 87 75 73 65 75 77 77 83 73 81 81 73 61 83 61 65 81 79 81 87 83 69 73 69 61 83 77 87 87 85 81 69 91 104 114 134 118 134 136 140 124 120 132 126 110 104 120 140 128 132 142 126 154 
116 98 98 89 93 93 93 100 93 75 87 102 95 91 91 89 91 87 89 75 89 85 85 83 79 89 83 79 65 73 73 85 83 81 79 79 87 73 83 81 79 59 67 55 71 77 85 75 73 69 95 71 73 73 83 67 83 75 79 100 116 110 134 126 148 144 140 122 108 93 114 102 104 120 122 156 134 130 134 138 
126 85 106 102 108 106 95 98 104 98 87 87 102 89 100 106 104 102 89 91 77 100 93 91 83 81 91 91 69 91 67 87 79 71 85 75 93 91 81 85 69 69 65 87 83 91 85 93 79 75 85 85 85 79 95 89 93 83 83 108 110 108 116 134 138 130 118 134 132 114 118 91 108 102 142 154 150 167 154 132 
136 104 106 104 100 98 95 83 91 98 104 104 106 98 102 100 98 106 89 81 85 91 93 87 83 102 93 85 75 100 81 91 98 87 87 95 81 85 79 85 81 73 69 79 83 89 93 67 91 85 87 91 102 87 102 93 93 91 87 102 120 112 124 122 128 142 124 112 128 110 106 83 91 124 138 156 160 150 167 173 


