P2
80 60
816
52 48 42 46 44 50 56 46 60 54 46 15 37 42 52 37 56 31 44 42 42 42 27 23 21 21 19 21 17 15 0 25 27 23 33 35 39 33 35 48 35 33 27 29 33 25 27 31 37 52 54 54 77 75 98 79 81 86 73 56 58 39 46 39 25 37 46 50 73 104 176 355 449 407 274 117 86 63 46 54 
65 56 56 58 71 60 67 52 60 42 35 33 33 42 52 52 50 42 29 29 54 33 35 27 13 19 25 8 8 19 13 6 10 6 25 33 37 33 44 44 31 42 27 31 25 27 23 21 33 48 52 46 71 67 75 65 83 86 75 56 50 46 54 27 37 31 27 42 37 63 75 137 282 389 292 125 83 75 48 67 
71 63 60 56 60 54 69 54 56 60 60 31 37 31 50 44 42 50 31 48 44 25 29 23 42 17 48 10 15 19 15 15 21 31 23 29 37 42 48 46 46 42 31 29 29 31 31 42 35 42 52 56 77 69 98 88 81 79 69 60 58 39 42 31 37 42 44 35 17 23 35 65 90 166 195 106 71 86 71 77 
71 60 52 54 56 50 71 52 65 60 52 35 31 50 44 48 52 48 42 27 35 29 44 31 33 35 21 21 15 29 17 19 8 21 29 37 31 48 52 48 37 35 37 23 37 27 42 39 37 44 60 60 77 81 98 83 81 86 83 54 69 50 35 39 23 27 35 17 31 27 46 35 75 73 88 86 86 75 65 77 
67 65 44 63 52 39 71 73 67 58 65 35 48 37 35 52 39 52 39 56 58 31 35 27 29 19 35 21 23 33 13 15 10 23 31 33 48 35 48 44 39 44 29 42 35 52 35 48 44 39 60 67 77 81 94 90 86 86 71 63 73 58 50 35 27 44 31 31 17 19 23 27 54 63 63 75 86 71 77 81 
67 63 46 69 50 52 75 63 71 58 39 42 42 27 50 39 60 37 37 35 42 46 31 31 29 23 35 8 17 21 8 21 23 21 31 23 27 42 44 46 44 44 42 35 44 39 52 52 44 39 48 56 92 71 98 92 92 102 83 77 73 67 52 54 23 35 35 37 13 21 29 27 56 44 56 81 94 79 90 86 
63 58 46 56 50 54 67 65 71 48 44 39 39 39 54 44 39 46 35 52 39 52 35 25 25 25 35 17 19 19 23 19 15 10 25 29 29 35 33 50 52 42 42 29 29 46 39 50 37 46 54 71 75 71 106 102 98 94 96 90 71 63 63 50 31 37 29 27 23 29 29 29 44 50 54 86 83 81 88 79 
54 54 54 48 67 65 63 58 60 63 54 25 29 42 42 42 44 46 37 44 42 33 25 33 23 31 31 25 21 23 19 21 17 21 25 33 39 46 50 69 52 37 44 35 44 42 37 48 46 54 77 75 94 94 113 113 119 113 102 81 98 75 56 52 33 27 23 29 17 21 33 31 48 54 54 79 86 86 83 94 
58 56 46 48 63 50 63 60 56 50 46 39 48 31 35 46 56 39 33 39 58 35 33 33 37 25 23 2 23 33 23 25 15 31 29 44 56 46 37 46 50 46 52 42 29 54 42 56 56 54 83 63 94 106 119 129 131 135 113 102 115 121 88 92 46 29 39 37 33 23 37 48 60 50 48 88 88 104 98 104 
65 63 50 58 46 46 65 63 48 65 42 35 46 39 44 50 44 39 35 48 46 50 42 13 19 19 29 15 8 25 13 10 19 27 37 52 52 37 44 67 50 48 52 60 35 63 65 75 83 96 113 125 160 152 178 180 184 176 166 168 215 282 255 223 162 86 48 29 35 23 21 33 56 60 56 117 174 178 168 180 
69 44 56 63 56 44 60 56 63 44 48 33 37 23 39 39 39 39 39 54 56 33 48 39 23 21 23 23 13 33 17 19 13 25 33 37 60 60 58 65 77 73 67 86 81 115 148 215 294 337 363 393 421 401 413 413 399 399 421 431 465 473 427 397 345 197 65 42 33 25 19 33 48 52 77 186 239 247 235 219 
60 58 56 50 52 54 75 69 60 65 54 44 35 35 39 39 54 42 58 46 69 42 39 31 21 37 31 17 29 27 17 23 29 31 42 65 94 119 141 162 113 125 139 190 300 411 447 461 495 505 525 543 561 547 525 511 499 471 473 453 489 493 445 369 351 337 127 52 27 37 33 29 39 67 69 186 264 280 255 241 
75 37 60 65 52 69 67 65 54 63 48 25 42 35 37 50 58 54 50 50 48 52 44 42 33 23 31 21 42 44 35 33 60 104 166 205 255 296 304 318 361 403 423 487 527 575 569 531 527 543 539 531 545 519 471 425 329 260 245 306 361 389 345 353 325 227 141 60 52 50 35 52 58 60 56 170 229 241 231 251 
71 50 60 52 46 52 52 56 54 60 63 44 48 27 48 39 54 56 48 48 56 50 35 15 42 13 31 15 21 44 65 150 247 341 363 389 393 391 385 399 513 553 533 529 527 581 577 519 511 503 485 441 333 239 213 176 168 156 133 139 133 162 129 141 146 127 119 63 67 54 39 48 58 79 58 129 139 160 174 186 
69 52 56 50 58 52 65 42 44 52 58 23 48 42 46 44 54 90 113 131 106 110 54 44 25 31 39 10 39 86 227 375 403 421 431 389 413 439 439 453 523 527 521 509 505 501 467 437 351 264 188 154 139 176 172 178 225 268 286 314 325 327 325 335 371 349 300 229 176 143 81 102 83 104 73 146 135 139 139 154 
75 63 50 73 54 71 60 60 77 71 48 46 54 50 63 63 160 257 312 276 278 253 143 52 35 29 46 31 60 203 463 453 453 449 427 417 433 447 457 461 467 493 473 395 288 255 227 221 257 302 300 251 280 298 327 314 276 318 367 369 381 367 375 393 411 375 361 335 325 304 272 243 225 211 141 211 197 197 180 186 
73 46 44 50 52 50 48 60 58 63 42 35 48 42 79 174 302 355 419 296 304 375 377 190 146 58 29 50 81 333 453 465 479 453 465 469 479 479 447 395 407 387 383 359 355 375 385 395 395 413 397 369 355 325 310 264 260 308 353 361 371 353 363 365 371 353 341 345 341 337 320 310 320 320 300 237 205 192 184 182 
77 52 39 63 52 71 75 54 52 52 50 31 46 44 125 300 318 389 463 306 329 411 624 537 467 276 123 108 186 282 337 493 521 499 491 503 477 463 409 391 393 401 417 393 389 411 433 425 425 423 379 353 351 296 296 257 247 284 320 349 359 363 377 369 361 353 355 353 345 347 343 355 361 375 333 286 205 182 180 199 
60 50 58 54 42 50 54 58 63 50 48 31 46 67 164 320 333 407 437 387 365 449 669 647 606 523 441 349 325 310 343 435 517 521 519 495 467 433 413 415 415 419 429 439 429 439 431 417 393 373 357 345 329 286 284 276 257 270 280 310 343 367 387 383 389 395 407 383 375 361 343 363 381 403 397 320 195 180 186 199 
54 46 42 60 46 46 42 54 52 56 52 44 42 71 211 322 329 399 403 389 359 547 663 645 602 567 519 509 531 477 385 449 503 485 489 465 425 417 391 387 391 403 431 447 441 427 417 395 367 355 353 337 333 308 280 270 268 270 286 288 286 339 379 399 421 429 447 433 421 413 395 389 413 425 403 331 215 199 195 201 
83 50 33 42 39 39 52 54 44 54 58 42 44 110 237 322 329 381 383 373 391 626 651 657 626 592 515 539 581 622 491 437 437 423 399 411 391 395 381 391 393 413 433 451 439 431 407 387 387 345 333 337 333 314 312 276 276 260 302 294 312 320 345 385 411 421 425 423 431 419 409 407 419 411 387 333 199 209 182 186 
52 54 48 54 48 37 63 58 52 56 54 39 46 88 205 314 316 325 361 363 455 665 657 636 645 644 579 582 602 632 557 441 395 359 375 397 407 389 389 397 399 423 463 459 451 441 433 411 373 357 341 318 320 316 325 292 284 282 308 322 337 331 349 395 427 441 417 411 413 395 389 397 405 407 379 306 205 203 184 186 
75 63 46 48 50 52 54 65 58 44 56 56 39 60 148 296 316 318 349 437 575 673 661 620 642 638 655 630 612 624 487 441 443 427 433 449 433 393 385 391 395 413 451 461 453 445 435 421 383 359 363 337 331 310 320 310 290 306 337 355 367 359 359 407 457 421 401 393 387 351 355 365 355 377 359 312 207 178 180 184 
77 65 50 54 50 50 54 56 42 42 46 48 37 52 63 211 288 290 345 445 584 649 649 606 651 663 622 622 630 602 469 495 485 499 509 491 449 403 395 389 399 401 435 435 435 443 445 429 413 395 363 339 327 298 329 306 298 316 355 357 369 369 385 429 451 415 393 377 335 272 207 197 207 239 245 211 209 190 178 192 
75 56 52 58 39 46 63 60 56 46 48 37 39 46 35 79 152 201 245 393 525 555 523 517 525 577 577 622 624 483 469 531 517 523 523 479 453 411 395 395 389 387 407 427 429 427 445 449 435 403 379 365 331 318 329 310 310 316 339 339 343 343 343 361 391 357 341 237 184 143 113 119 106 108 92 135 192 195 172 174 
65 54 33 42 44 42 60 39 60 54 54 44 44 46 42 48 63 73 83 137 239 266 203 180 239 399 618 616 415 322 469 531 523 525 529 493 483 407 383 385 387 391 391 417 427 435 453 469 437 419 403 379 363 327 333 298 310 318 345 341 351 351 351 351 363 375 371 349 318 262 217 143 119 106 108 152 195 213 188 195 
65 48 50 50 52 42 58 46 60 58 65 42 52 42 42 48 50 48 50 48 73 79 73 69 139 327 447 381 359 349 481 519 539 525 513 501 481 445 415 411 405 397 399 417 423 429 449 465 445 415 425 385 371 359 345 304 316 345 359 367 365 351 353 349 363 377 385 375 405 415 381 353 347 333 339 316 217 207 192 207 
67 46 54 48 37 48 63 48 54 52 50 39 29 29 33 31 44 37 48 50 46 44 46 46 73 125 162 427 411 429 479 493 495 497 517 487 479 453 425 415 399 407 403 415 441 427 459 465 465 437 417 395 385 369 361 318 339 363 371 391 371 365 355 351 367 391 395 383 405 403 403 393 413 411 415 361 235 209 201 201 
54 50 48 50 52 44 46 50 56 52 56 46 31 46 48 58 54 50 31 39 69 50 48 27 48 46 104 423 499 511 467 479 477 493 503 485 469 463 463 447 433 413 421 419 463 447 459 469 477 457 429 419 397 377 373 333 341 375 401 403 387 383 377 373 393 409 421 409 407 411 403 391 399 423 385 351 225 237 211 205 
63 39 54 58 52 52 50 54 52 56 63 46 35 42 37 46 37 48 42 35 46 46 46 35 42 42 106 431 477 507 467 463 461 417 409 439 443 451 451 483 477 467 449 459 487 485 481 497 497 459 443 433 415 373 383 371 363 375 429 405 407 397 371 373 419 439 451 405 403 385 369 365 371 367 357 310 247 223 203 223 
56 46 58 58 44 44 48 44 56 58 52 35 48 39 50 48 54 44 23 29 52 42 29 42 44 33 86 359 465 509 479 473 477 465 475 453 449 443 459 505 535 501 473 489 507 495 499 479 477 453 429 443 407 389 393 353 355 411 429 423 419 455 437 439 475 483 469 403 381 365 359 353 357 353 337 294 231 229 217 223 
65 46 46 46 52 52 52 56 52 42 60 42 35 33 46 39 48 39 25 29 52 42 44 37 35 35 71 253 441 499 487 493 487 469 483 463 465 433 445 499 533 535 519 491 489 487 477 473 467 459 441 425 405 381 387 381 383 403 447 465 499 525 497 527 569 525 449 401 375 359 339 335 343 339 329 318 239 231 223 223 
73 54 44 54 44 54 67 58 48 56 56 44 37 39 37 50 44 39 46 37 44 48 46 39 67 54 110 195 417 491 505 519 517 487 467 455 437 403 465 533 547 547 531 515 507 467 447 445 457 461 443 417 415 409 445 421 455 495 527 553 553 543 523 537 553 525 447 379 355 349 341 347 335 341 322 306 272 260 225 221 
71 69 58 46 54 50 58 48 54 54 69 52 37 35 39 39 39 37 46 37 39 46 52 63 143 298 387 437 411 423 447 457 501 461 455 433 377 389 461 529 557 557 594 598 594 553 499 495 507 525 541 519 539 537 537 551 559 559 588 571 577 559 517 533 559 507 413 363 343 320 329 331 310 306 302 306 300 294 266 266 
75 46 48 60 48 54 50 52 56 52 73 67 56 48 50 46 50 48 42 37 44 52 54 143 397 463 459 459 443 415 403 419 447 451 439 419 381 407 473 519 529 531 543 590 596 582 555 539 543 535 527 551 569 581 584 563 573 563 547 545 555 557 513 503 505 331 174 131 129 168 199 209 227 231 227 249 284 270 272 255 
73 52 50 46 42 48 56 52 67 69 60 58 48 46 46 42 39 50 46 35 37 44 94 272 459 469 477 439 415 395 379 375 397 425 439 401 429 447 457 473 479 509 525 561 557 515 457 439 435 415 429 453 543 517 557 499 429 385 296 268 329 415 411 389 280 119 77 35 48 50 46 56 39 96 65 129 253 247 241 245 
77 52 65 60 56 52 65 56 63 60 69 50 44 48 39 37 48 37 42 44 46 54 117 341 481 467 451 415 377 387 383 371 371 411 441 421 425 425 389 405 375 401 409 445 409 397 397 389 379 395 381 377 395 399 385 247 205 178 168 117 146 160 168 139 108 86 81 37 39 39 31 35 42 46 31 102 219 215 215 219 
73 52 58 71 54 52 65 58 60 69 79 65 56 58 44 44 46 46 52 42 60 50 92 320 511 505 481 409 361 365 353 357 383 417 441 427 437 421 399 401 409 405 413 393 409 419 417 407 397 397 393 405 437 443 485 415 421 407 421 369 381 361 357 314 329 302 264 213 148 121 75 60 50 75 37 121 247 262 231 209 
60 58 48 60 65 69 58 65 56 56 67 65 58 54 52 54 50 46 33 44 54 50 100 300 485 509 513 453 385 347 361 361 403 417 419 413 431 439 417 423 425 411 447 433 435 425 423 407 385 415 457 467 499 467 537 523 525 517 495 455 475 473 453 439 471 453 459 411 383 345 304 262 213 170 152 180 257 253 249 262 
67 60 42 60 54 44 60 56 58 60 69 67 56 56 58 65 46 42 52 65 50 50 115 371 461 473 487 491 439 369 345 349 351 413 423 427 433 437 433 427 441 437 437 437 429 407 395 385 389 393 467 485 523 471 553 529 529 513 521 451 457 461 433 461 487 483 427 443 459 415 409 379 367 361 337 312 306 262 266 270 
63 71 60 63 60 71 60 65 60 54 65 67 63 77 65 90 75 92 69 65 69 104 231 507 531 503 481 425 411 405 347 333 325 341 391 415 435 433 433 447 451 435 429 431 443 427 417 405 399 389 465 529 525 483 549 503 493 507 509 441 421 439 417 441 455 445 441 489 475 415 397 385 401 411 389 325 304 272 251 272 
79 65 48 54 58 50 54 60 60 63 60 63 75 150 195 282 357 327 268 190 186 286 553 716 575 533 523 485 467 421 359 325 310 320 337 349 399 427 457 451 453 447 437 409 431 445 453 421 399 383 457 533 525 513 507 451 463 477 481 407 375 413 401 425 439 459 445 447 457 409 413 387 417 421 407 363 302 276 233 260 
73 52 56 56 67 60 56 52 69 81 69 139 286 399 441 559 647 622 626 663 645 731 793 789 657 553 549 547 509 507 457 421 339 327 349 377 405 443 445 459 447 421 425 423 429 427 419 429 415 407 445 499 495 505 499 423 463 467 457 397 395 443 421 453 459 467 463 467 453 425 397 381 411 407 377 347 304 255 233 241 
67 65 67 60 60 60 71 58 56 58 133 304 447 515 565 667 725 706 714 735 756 801 816 784 681 555 543 529 537 491 463 457 427 393 389 375 379 413 449 469 451 429 427 415 443 441 445 427 417 413 417 449 431 459 473 391 445 475 445 409 409 463 443 457 459 463 457 451 437 421 379 381 397 387 399 347 284 249 199 211 
73 65 56 63 65 56 69 71 81 92 249 439 513 555 632 760 772 749 749 766 791 799 803 793 743 561 539 555 525 525 465 437 397 407 393 377 397 403 443 459 439 421 421 413 447 447 427 451 449 383 419 401 407 463 435 373 425 499 409 411 391 447 407 411 429 437 433 445 435 429 409 389 387 401 381 314 276 237 203 201 
77 71 60 71 65 65 77 81 75 113 363 563 640 679 735 815 799 766 766 776 791 803 764 768 741 590 533 517 545 535 497 479 405 401 415 385 389 415 459 457 441 419 415 435 471 451 443 471 449 389 383 389 401 445 417 347 407 429 369 369 387 435 413 419 435 431 435 441 437 417 399 381 383 385 393 314 251 243 203 213 
69 71 67 67 69 60 75 81 77 152 405 573 716 780 809 801 785 778 784 799 795 787 743 696 722 614 499 495 525 533 527 533 489 449 417 385 385 389 411 467 423 403 413 429 423 423 437 463 469 399 377 381 375 429 413 355 393 397 379 381 399 441 433 427 451 437 467 443 439 441 395 377 365 377 373 318 249 243 203 217 
79 67 65 71 79 69 60 88 83 201 407 527 706 795 789 741 756 762 795 811 776 774 698 569 441 381 437 479 499 515 519 527 497 481 465 423 395 395 407 435 423 397 403 393 351 419 415 437 465 415 371 355 379 411 407 335 373 397 405 405 411 457 437 443 441 433 441 423 415 421 403 385 377 381 373 327 227 229 182 221 
90 88 77 77 71 50 73 75 90 178 395 507 691 791 797 735 776 784 803 813 764 687 614 363 141 117 243 457 493 513 503 475 453 453 461 459 435 409 395 411 409 387 387 375 351 395 433 435 451 409 385 343 353 391 399 343 391 407 395 399 411 437 415 399 407 389 383 365 373 361 367 375 397 395 377 312 227 227 199 195 
88 94 75 71 69 63 81 71 88 143 320 453 612 801 811 787 780 791 784 776 706 620 318 113 94 63 119 327 533 525 505 479 447 419 415 415 439 395 379 373 391 377 375 375 343 379 423 427 431 403 393 355 347 383 401 353 377 399 413 403 409 401 363 359 385 375 369 371 401 407 397 403 433 433 403 306 243 237 192 203 
83 79 71 73 73 73 77 63 79 104 176 337 483 718 795 813 784 776 714 671 497 229 92 54 60 63 67 180 485 553 517 505 461 433 411 387 401 385 381 357 367 371 363 353 343 351 387 441 425 405 383 379 343 395 389 405 355 393 379 375 379 383 375 327 355 377 399 433 453 435 427 447 451 463 314 302 249 239 199 213 
86 73 71 75 63 71 88 63 75 86 96 199 393 487 642 770 677 602 389 262 176 88 73 48 46 48 35 123 389 531 525 509 475 457 419 403 403 401 353 345 355 343 339 327 310 306 355 425 401 385 397 383 381 393 395 419 361 383 381 377 373 369 361 335 369 411 445 451 445 455 443 457 469 485 288 260 247 243 195 227 
94 75 79 75 67 58 69 71 69 71 81 108 217 351 391 443 329 217 119 79 86 71 50 37 56 44 60 75 245 515 517 481 437 449 433 401 407 411 367 339 355 333 345 304 304 320 347 417 393 375 381 401 403 381 395 407 365 385 387 367 389 395 401 373 423 435 461 435 465 489 451 479 505 489 266 264 251 235 207 217 
94 81 63 63 71 79 69 73 75 75 90 92 108 152 133 108 98 73 73 58 56 58 54 48 63 37 50 54 119 365 461 447 415 415 417 427 421 417 393 371 391 383 347 304 296 316 335 381 377 369 393 415 411 385 401 389 359 355 393 395 385 405 423 433 445 457 481 463 499 501 467 465 507 461 276 284 239 247 207 241 
75 77 65 65 65 71 69 65 69 71 67 77 94 104 77 69 60 65 50 52 60 54 39 46 46 25 33 42 56 170 296 405 403 403 427 455 463 485 425 381 391 391 351 320 314 333 353 306 286 355 393 389 403 347 409 375 325 345 365 361 373 395 385 443 459 459 465 449 475 491 485 471 475 437 245 270 237 219 215 215 
65 60 67 69 50 56 60 58 73 73 58 67 60 92 71 71 75 54 48 46 50 58 52 39 44 35 35 17 52 63 96 219 314 397 413 445 445 479 493 449 415 403 355 333 337 351 381 255 110 156 278 357 337 310 335 310 314 308 322 316 391 393 377 411 431 429 429 431 435 467 447 467 465 415 243 278 249 197 203 213 
90 73 73 88 71 71 75 69 71 86 69 79 79 81 77 71 73 65 65 46 56 54 56 42 33 46 39 27 37 46 35 86 123 205 298 381 457 477 491 479 433 411 359 377 363 381 385 284 90 69 117 178 268 233 154 160 190 190 180 215 286 294 298 300 329 333 361 355 373 391 373 393 357 333 203 227 221 190 172 174 
90 73 67 88 71 79 79 71 71 60 83 73 71 88 67 65 77 54 46 50 60 50 52 46 39 37 25 33 44 31 19 42 35 35 119 180 318 393 405 347 322 351 403 387 377 395 399 298 83 54 54 71 131 110 94 108 108 94 79 83 96 100 123 127 141 152 172 164 164 178 213 229 211 186 131 146 131 139 146 131 
96 77 69 67 65 71 86 71 71 77 71 65 79 83 69 73 67 56 50 54 67 44 54 33 39 33 29 33 31 52 33 17 23 35 58 67 162 253 276 288 314 351 381 425 405 413 401 308 92 35 58 65 83 106 86 77 83 92 73 67 83 69 79 67 69 79 106 88 121 135 190 199 176 143 110 160 110 110 104 102 
96 81 79 81 77 96 65 69 75 79 69 75 83 86 79 86 77 56 52 52 71 54 52 46 52 21 56 31 27 33 25 52 44 27 50 35 75 83 117 148 215 288 349 415 411 415 413 292 96 71 56 73 86 79 104 56 106 81 73 88 71 33 52 69 102 50 58 79 108 133 184 201 207 166 92 115 108 108 96 117 


