P2
80 60
595
175 203 177 193 205 177 195 177 189 181 197 185 195 185 167 179 175 171 169 159 157 163 159 145 139 145 147 127 117 149 127 125 151 139 127 139 147 141 117 127 121 125 111 97 111 113 127 129 135 161 143 147 155 157 145 141 127 135 151 161 165 141 137 149 155 155 159 161 165 153 155 141 153 135 127 131 109 133 143 149 
173 187 175 165 193 177 179 187 185 181 197 189 179 161 169 159 151 163 137 149 155 137 155 149 135 117 133 125 113 137 119 123 143 125 135 159 141 143 125 129 111 119 121 95 105 109 133 125 143 147 157 135 155 141 143 143 135 149 139 149 149 155 153 141 137 145 157 145 169 161 141 131 143 129 133 119 109 109 141 145 
179 177 185 177 189 179 179 193 179 189 175 171 179 167 171 173 169 163 153 151 139 141 149 145 137 129 125 129 131 131 133 121 139 135 157 167 153 151 133 125 113 115 127 111 123 119 135 141 137 161 153 155 169 157 147 143 141 151 145 147 159 161 165 143 145 157 157 147 167 167 155 155 143 131 119 119 111 131 139 149 
179 183 189 183 183 175 185 171 195 171 181 181 177 169 159 169 171 161 165 163 145 153 145 133 151 149 135 139 143 151 139 145 157 145 179 167 153 155 131 133 121 127 143 125 129 133 131 125 147 167 163 159 169 149 155 147 145 159 141 143 151 163 145 171 153 155 175 149 175 163 165 145 153 135 131 121 127 137 155 141 
179 177 177 185 193 169 183 189 191 193 171 181 169 177 177 195 165 177 167 165 161 157 159 159 171 153 145 143 157 171 147 153 163 171 173 171 165 157 145 149 131 137 121 133 133 149 125 147 149 173 151 167 171 167 165 159 139 153 155 155 165 159 163 187 153 161 171 153 187 177 163 159 165 141 131 129 123 141 153 157 
177 177 177 183 173 183 195 185 185 185 183 183 189 175 193 173 179 171 161 163 161 159 157 151 153 155 143 143 145 157 163 149 161 151 167 181 173 165 151 147 133 143 131 127 131 143 151 147 149 155 173 173 163 169 155 165 153 153 151 151 155 165 159 167 173 167 167 171 167 169 173 157 163 163 137 141 145 137 159 177 
175 185 189 175 181 203 189 201 193 175 175 193 183 173 187 183 175 179 161 157 171 171 167 159 171 143 161 153 147 159 149 153 165 153 181 191 179 167 157 149 139 141 143 135 137 143 163 159 149 161 177 183 167 163 167 161 175 153 153 147 161 169 169 157 169 161 161 175 179 189 175 153 159 167 149 139 143 153 173 169 
183 167 175 187 193 189 189 187 179 191 183 185 175 187 169 169 163 173 171 157 155 171 149 161 165 161 163 151 143 173 161 155 171 161 187 173 185 167 151 159 141 141 165 145 147 155 155 163 155 179 189 169 181 179 161 157 167 153 159 161 173 169 157 177 177 171 173 183 191 185 181 173 179 177 165 155 161 163 195 197 
185 177 171 183 187 195 185 183 193 183 175 189 187 187 187 197 171 171 169 157 165 155 157 157 165 161 151 155 153 177 155 161 185 179 177 179 187 171 163 171 157 157 167 165 183 193 169 159 169 179 179 169 179 169 155 165 147 159 165 169 175 153 167 165 171 193 173 197 203 207 219 193 199 199 217 235 221 251 277 273 
165 177 175 189 183 189 189 183 177 187 189 195 185 173 179 181 165 167 177 163 163 163 159 161 161 163 165 157 163 169 161 167 181 167 197 203 199 207 201 213 207 209 280 304 324 353 279 189 193 185 187 171 177 179 147 157 153 147 153 165 157 165 171 163 177 195 185 189 219 241 241 237 294 324 330 351 340 357 383 387 
175 179 195 179 201 193 185 185 187 165 177 173 187 173 181 179 179 177 167 165 159 165 171 159 169 159 151 149 163 181 179 173 187 189 213 251 280 273 273 269 257 271 423 439 452 458 439 284 199 189 183 173 173 173 155 157 145 155 157 173 167 187 165 189 205 227 237 255 284 320 318 312 347 369 377 389 375 390 400 400 
171 185 189 183 193 189 205 191 177 175 171 181 161 171 189 171 157 171 169 155 157 177 165 163 161 163 157 155 157 175 183 169 199 219 310 355 347 265 265 302 290 294 410 451 445 441 470 423 237 195 189 169 171 165 151 159 161 173 187 205 209 207 221 251 282 288 300 316 322 355 349 324 345 381 394 392 387 396 398 367 
165 179 187 167 187 189 185 205 177 169 177 175 169 167 169 177 163 179 165 165 157 155 157 165 157 147 157 159 159 177 171 191 229 361 396 347 255 159 195 133 207 259 318 340 340 402 404 373 290 215 199 179 189 193 203 195 203 197 197 221 227 235 249 247 286 322 306 316 332 389 359 340 351 375 389 375 361 353 340 265 
187 183 181 169 165 191 187 177 175 179 177 171 173 161 171 179 173 165 163 169 153 169 151 161 159 151 155 159 151 173 161 195 351 433 420 363 332 273 167 201 189 229 223 187 219 277 371 377 394 298 219 207 187 207 223 213 229 211 215 231 241 253 279 267 277 296 322 316 318 363 349 349 371 357 347 338 314 253 221 171 
187 171 185 167 187 187 183 181 171 167 173 167 161 171 163 157 177 155 155 161 149 173 169 151 155 151 151 147 167 183 175 217 410 398 412 408 389 371 310 257 179 137 125 137 185 235 340 383 375 390 320 269 215 217 227 229 219 219 227 247 261 253 269 279 284 288 300 284 310 330 318 312 302 294 249 219 191 165 173 163 
171 171 171 175 181 185 179 181 183 191 163 175 159 173 179 163 163 163 161 173 163 169 175 151 161 175 183 173 177 185 197 249 363 385 410 421 435 396 312 227 115 71 131 173 229 247 318 373 381 389 357 288 253 205 217 233 253 243 237 247 257 243 263 290 306 314 300 282 280 292 243 237 215 203 179 157 153 163 185 181 
179 175 191 175 191 165 169 187 191 181 171 179 185 165 181 177 173 163 173 159 175 183 181 205 185 239 314 257 213 217 247 320 361 365 421 431 420 375 284 175 57 89 177 211 251 277 314 390 396 398 371 326 290 205 183 251 269 267 279 275 261 253 267 275 290 296 298 279 257 237 211 199 207 189 167 169 163 155 185 187 
173 181 171 173 187 183 177 187 183 171 171 175 183 183 179 167 175 185 183 183 181 197 233 239 265 398 483 447 387 402 435 454 336 353 425 396 357 326 233 109 27 91 203 243 282 300 314 367 406 404 389 345 263 165 179 233 263 273 284 277 263 251 255 284 290 288 275 235 213 219 213 203 205 181 169 173 147 173 193 171 
173 197 209 199 201 175 187 191 183 167 177 173 187 185 185 179 187 185 185 185 195 233 328 349 445 540 586 576 542 491 555 524 302 336 451 390 310 282 181 81 47 137 253 280 302 306 318 375 418 418 420 373 235 181 189 249 279 298 292 282 269 265 249 269 267 267 231 215 231 231 217 211 193 195 165 167 179 163 177 193 
177 185 175 187 205 181 183 199 203 179 181 179 185 167 173 191 175 177 181 187 217 284 371 396 516 563 520 495 511 472 509 511 342 367 452 385 308 245 143 61 57 159 275 284 312 314 324 412 435 425 389 320 199 159 193 257 296 312 304 292 279 263 241 235 257 245 219 223 225 217 215 199 183 181 177 169 153 177 185 185 
167 195 185 177 199 189 183 201 181 177 171 187 187 183 175 171 187 175 169 185 237 328 421 493 590 572 489 418 499 491 511 497 414 462 482 389 349 296 217 105 75 159 265 292 324 322 367 423 439 416 363 219 31 133 193 269 300 302 302 298 273 265 247 251 235 235 221 221 225 219 211 203 195 177 175 155 167 159 193 189 
165 189 177 173 197 181 189 181 185 169 179 181 185 177 191 187 169 185 175 179 223 308 412 485 555 557 528 456 516 491 505 462 427 445 452 416 392 369 304 233 167 187 241 282 314 332 392 410 404 365 288 197 135 97 181 263 275 290 298 280 261 282 275 292 273 251 229 213 251 241 211 189 189 171 171 157 155 159 175 185 
177 179 169 175 195 191 191 175 189 175 181 185 181 181 169 183 173 173 175 175 205 300 406 420 449 514 534 528 507 414 410 423 421 427 414 420 412 396 361 304 223 215 247 249 290 345 414 418 390 332 271 207 169 77 93 211 255 275 290 288 261 292 296 300 304 288 267 241 253 235 209 199 201 171 167 155 165 163 181 189 
167 179 189 169 197 181 169 201 183 185 179 187 179 185 193 173 165 189 161 175 193 251 275 277 271 320 361 332 271 239 249 363 420 387 392 394 396 385 359 275 209 183 265 275 308 389 429 429 343 310 241 233 187 111 0 153 245 259 282 286 275 314 296 318 302 306 300 282 282 265 239 201 209 181 155 157 163 169 185 207 
163 185 173 185 201 179 181 191 177 195 169 173 179 169 191 165 185 169 169 165 175 205 199 207 193 191 209 191 191 199 229 336 429 379 345 340 349 349 330 290 251 177 199 279 304 389 449 449 355 296 261 265 229 153 79 181 233 233 251 271 271 298 304 290 290 296 316 302 312 302 320 259 239 237 231 201 199 181 191 203 
161 167 177 167 197 177 175 169 171 165 181 183 175 185 173 159 185 173 165 179 173 189 181 181 181 183 171 185 195 221 229 306 476 433 343 261 151 171 223 261 273 280 253 288 353 449 501 454 355 300 298 251 227 159 157 247 243 223 243 241 253 261 261 263 257 290 302 300 308 320 351 349 330 332 326 322 318 286 243 213 
155 171 177 177 169 181 173 175 175 163 175 179 171 161 181 181 185 185 165 173 177 173 177 177 187 173 175 185 177 203 219 261 420 451 410 251 20 75 249 304 320 342 314 328 447 513 522 445 351 288 306 251 245 211 227 263 239 221 185 193 213 219 223 223 251 284 280 286 275 324 365 342 338 347 365 363 381 369 375 340 
169 171 183 163 181 161 163 185 169 163 173 161 169 167 163 163 167 167 155 169 157 155 165 165 163 167 167 175 167 189 183 211 322 423 429 375 251 300 334 308 314 439 437 381 511 547 514 423 324 277 310 253 249 219 217 207 205 193 165 171 195 213 229 229 249 245 255 263 267 306 343 328 332 340 361 377 387 396 418 404 
163 189 183 177 175 195 177 175 173 165 173 175 173 167 163 179 165 157 157 163 153 165 167 163 157 149 159 163 159 175 165 181 227 312 418 433 383 377 338 330 381 489 489 489 540 545 489 310 241 245 263 237 231 213 171 113 103 201 205 175 211 215 239 255 257 255 265 249 235 312 324 328 345 349 365 385 390 416 421 416 
167 179 171 163 187 179 173 163 187 157 175 179 171 155 163 161 169 161 163 161 159 165 167 169 167 173 171 155 175 183 179 183 201 201 290 371 373 365 316 355 460 501 497 505 530 526 416 229 207 233 219 209 209 201 183 175 175 185 201 201 207 215 217 243 257 271 259 229 245 271 277 294 330 343 365 371 390 381 394 359 
167 177 189 179 185 171 181 165 173 175 163 169 181 149 175 173 175 167 173 173 173 175 169 165 171 161 165 161 177 181 177 191 199 195 225 241 263 304 298 392 478 466 491 503 520 474 292 207 207 223 217 215 219 213 203 191 177 185 187 177 177 193 201 213 235 259 243 241 249 231 239 205 245 231 237 243 251 245 261 251 
163 171 161 163 187 169 169 185 177 167 171 159 181 169 173 173 169 175 157 175 175 177 175 163 171 161 179 175 181 191 181 195 205 205 225 229 233 249 271 316 265 290 318 284 300 251 207 227 211 227 223 215 207 201 203 243 267 280 271 201 179 173 193 201 243 249 245 241 239 231 223 203 201 195 159 155 159 165 189 185 
171 189 173 185 195 183 181 173 181 173 167 179 187 187 185 173 173 177 179 179 179 181 173 181 183 181 175 183 177 199 195 197 233 243 280 308 330 324 326 271 263 257 294 296 314 349 381 357 359 361 345 342 326 306 314 363 359 351 369 334 199 181 195 217 243 253 259 229 245 239 225 209 199 183 175 153 145 149 167 187 
161 185 175 173 191 203 189 175 185 181 193 177 183 177 179 195 175 183 183 179 177 179 187 177 181 177 193 175 205 227 261 312 357 351 363 367 345 326 400 445 427 425 452 435 443 423 427 416 425 427 398 385 365 347 351 385 377 379 379 406 257 207 203 223 241 253 253 243 245 247 231 205 187 179 155 153 145 155 167 175 
167 169 193 181 183 187 171 173 179 177 183 199 175 177 189 183 179 175 173 169 177 185 183 185 187 179 175 197 255 312 345 375 365 353 367 355 332 334 394 452 443 447 460 449 427 423 427 423 421 418 402 377 357 340 347 361 381 383 412 429 284 219 209 217 237 233 217 229 241 235 229 217 211 197 179 165 139 159 179 177 
159 169 183 171 167 165 175 181 167 173 179 177 187 173 183 181 169 181 185 165 177 181 181 177 191 177 185 249 375 377 328 318 351 343 371 367 345 365 392 449 445 452 466 431 408 387 394 375 347 314 294 290 284 288 304 334 336 298 324 330 280 239 213 215 219 209 217 221 237 241 243 259 247 251 235 213 209 171 195 181 
159 165 177 173 195 193 173 173 175 161 183 169 191 169 181 197 171 165 169 173 175 181 195 175 177 185 211 342 406 398 353 330 322 330 371 381 367 357 377 441 408 367 365 326 326 286 304 296 298 267 280 286 300 306 320 334 296 277 279 263 261 247 247 225 209 213 217 213 253 259 284 320 367 357 355 347 334 314 324 300 
155 173 175 173 177 173 165 175 167 165 173 183 183 167 191 175 177 183 187 185 185 197 189 191 179 197 255 381 379 392 361 330 306 280 320 351 359 361 343 347 302 275 304 284 312 294 308 308 292 288 290 280 302 300 312 308 300 280 279 265 249 259 237 221 221 225 213 227 239 271 308 330 361 387 396 379 363 365 371 340 
159 181 187 165 195 179 181 189 185 175 171 179 175 181 191 213 243 237 247 225 215 211 195 203 199 223 310 369 357 379 334 312 296 282 286 282 282 298 284 269 229 263 290 271 290 265 298 294 302 308 312 314 330 312 314 300 290 273 239 191 177 217 211 215 209 211 213 199 199 235 300 320 357 375 392 389 363 373 375 355 
181 175 179 169 177 185 185 189 193 181 179 165 167 177 207 273 392 425 431 447 449 400 269 211 221 279 355 359 342 336 314 312 334 326 316 253 227 249 217 229 227 269 282 257 273 239 251 275 304 310 316 324 328 328 312 280 280 251 215 149 75 211 217 217 203 207 197 181 205 227 280 304 328 359 387 381 369 377 387 343 
171 181 181 185 189 199 173 175 183 165 187 185 185 197 273 377 499 493 514 561 538 540 513 383 322 404 396 377 351 343 322 318 353 336 282 217 201 203 209 221 237 261 277 257 253 231 235 249 267 282 318 304 345 328 308 292 271 263 215 189 185 225 219 211 221 209 199 191 207 263 269 286 336 359 363 357 342 326 345 280 
163 177 175 161 191 173 169 179 189 173 175 187 193 191 338 429 491 501 551 580 518 503 499 491 470 460 441 371 353 351 312 314 338 280 227 201 187 219 221 253 241 269 269 249 251 233 241 229 235 257 286 296 312 316 298 284 275 257 251 245 223 227 243 225 213 209 223 225 225 253 237 253 259 269 249 221 203 203 207 217 
175 179 181 171 179 187 181 175 179 175 173 175 175 215 322 439 501 528 588 595 524 404 421 447 451 468 425 357 349 336 314 302 296 247 215 177 197 247 249 273 245 259 263 245 249 237 253 211 213 239 255 273 300 280 280 275 265 263 255 247 231 233 227 231 223 235 205 225 241 233 203 185 179 177 149 151 157 171 187 195 
167 183 173 179 177 187 181 159 165 161 177 173 179 185 292 420 470 536 561 578 511 361 408 416 421 445 416 322 332 328 298 294 275 249 209 171 197 269 269 271 253 243 273 253 259 231 245 223 217 229 273 241 273 265 261 257 249 259 265 255 235 249 235 213 197 199 193 191 211 181 181 159 143 155 149 157 153 149 175 189 
161 181 183 173 179 171 179 189 197 173 179 173 169 177 233 369 451 485 522 565 497 441 437 452 449 452 390 318 316 320 284 273 261 241 207 173 221 271 271 286 269 245 263 253 263 247 243 241 197 219 269 251 271 273 263 249 245 249 253 237 229 227 193 177 175 161 181 167 189 185 173 161 153 147 149 163 163 159 193 181 
167 179 181 181 193 183 165 175 181 177 177 175 173 179 195 259 338 396 449 489 472 468 456 414 420 449 392 334 310 290 282 277 259 235 179 147 225 259 253 280 257 239 265 241 251 237 227 221 203 203 265 261 261 275 253 251 243 221 209 195 181 181 185 171 181 191 177 193 203 191 181 165 159 155 157 153 157 171 195 199 
159 169 183 171 195 191 191 191 203 169 173 167 195 177 187 193 213 221 245 265 292 280 263 215 277 390 385 363 318 302 280 284 259 201 157 135 173 227 273 275 290 273 245 229 227 225 223 225 211 229 271 275 282 263 219 211 227 211 205 187 191 205 213 207 205 215 191 183 199 199 181 181 165 171 169 183 155 165 201 195 
169 159 185 167 187 177 171 175 181 175 169 183 189 181 181 185 169 189 185 189 193 197 181 195 211 316 375 357 328 318 288 279 257 205 133 87 129 221 257 300 292 265 227 229 229 221 223 213 201 193 219 241 231 219 189 187 217 215 217 213 221 233 251 245 263 269 253 227 223 221 187 191 169 179 163 169 167 167 185 199 
169 185 189 171 193 173 175 187 173 175 169 169 183 187 173 177 177 177 165 187 163 183 179 181 201 269 363 342 328 300 280 280 280 205 165 109 141 209 267 284 282 255 247 235 231 211 219 247 215 201 189 203 209 211 197 209 235 223 223 251 249 249 249 259 259 280 296 271 259 231 231 227 227 225 237 223 199 203 191 211 
175 191 191 175 189 185 183 173 189 181 185 183 195 191 177 169 179 173 175 161 167 169 175 175 177 239 379 351 330 316 282 286 284 235 173 129 133 195 249 269 263 257 261 239 243 221 239 261 219 189 185 203 227 215 213 219 239 225 245 237 259 261 245 247 231 237 277 239 227 221 231 247 290 310 330 336 316 318 296 213 
177 197 185 191 211 169 185 179 189 173 187 177 189 177 183 167 165 181 177 163 165 179 171 169 177 225 412 377 328 316 284 259 277 249 209 161 179 221 257 275 267 265 255 251 245 243 263 261 243 213 217 215 237 239 243 239 245 231 261 261 267 251 221 233 241 259 241 205 177 197 233 249 316 340 365 369 390 390 383 342 
175 181 197 173 199 189 183 179 189 175 177 177 177 175 187 177 177 175 181 161 169 167 177 169 159 205 355 412 351 308 284 251 249 239 241 235 223 241 239 245 261 257 257 235 251 245 280 249 249 249 227 233 237 241 239 259 233 237 265 249 247 243 225 221 199 229 223 195 189 209 247 280 328 373 389 396 402 402 406 387 
161 173 175 177 187 191 183 179 179 185 179 193 177 179 187 179 161 167 167 161 169 167 169 157 157 179 286 365 332 326 302 275 221 213 265 257 229 211 175 183 187 213 233 211 247 249 257 251 241 261 251 265 271 259 247 239 227 221 229 243 231 205 193 203 199 195 211 219 199 241 280 310 381 416 414 392 404 410 433 373 
165 193 177 167 183 193 179 201 181 179 187 179 177 177 191 173 177 165 151 165 163 165 161 157 167 165 189 247 292 338 322 320 302 279 292 288 296 251 179 165 169 159 163 151 167 169 199 247 279 269 318 318 304 286 255 233 221 219 213 219 209 203 193 177 175 187 173 191 195 233 275 314 377 389 379 377 373 385 383 343 
175 167 177 181 185 183 171 179 195 181 161 173 167 163 185 171 169 151 161 161 163 167 147 163 149 151 167 165 209 282 308 298 296 277 288 286 320 379 277 185 151 167 177 153 187 205 243 280 324 306 336 332 316 300 245 233 233 211 179 207 203 203 209 205 173 177 155 169 177 175 181 233 275 298 290 286 269 259 273 259 
169 167 155 165 169 183 165 163 169 167 161 191 173 163 157 153 163 153 157 143 151 151 163 145 145 131 153 133 153 179 227 259 288 267 288 290 398 437 406 357 294 273 314 314 338 342 343 334 336 300 265 253 249 227 187 199 193 199 197 199 197 199 179 195 181 159 161 159 175 175 173 147 179 175 193 187 171 185 203 205 
145 167 173 155 179 163 165 161 163 155 167 165 163 161 165 161 139 139 167 145 145 149 157 137 139 135 141 133 131 147 167 145 207 227 269 334 458 454 425 425 406 387 396 389 396 387 377 318 261 211 179 179 171 169 143 147 149 149 149 147 151 161 155 147 161 139 143 153 139 153 155 155 153 157 167 171 161 171 185 205 
151 167 159 163 159 175 157 155 161 163 159 169 161 159 163 163 157 135 147 137 141 131 145 137 137 133 121 131 119 141 133 121 145 135 195 300 400 452 425 439 439 431 429 410 383 340 255 181 155 163 153 155 143 161 123 135 139 131 119 129 121 131 153 145 133 131 147 133 143 145 145 127 145 161 157 165 157 153 189 189 
151 169 157 145 155 167 161 161 153 145 143 165 153 151 159 155 141 155 135 127 137 127 157 145 133 113 107 123 117 131 141 121 141 125 143 175 219 288 355 394 410 392 343 253 207 153 161 137 131 135 141 145 143 141 131 127 125 121 129 113 131 127 133 121 111 127 135 125 137 151 135 117 111 133 141 139 153 141 173 195 
165 171 155 145 157 161 139 153 165 141 155 149 161 131 147 139 135 139 133 143 127 127 143 131 129 111 113 131 115 123 137 125 123 121 141 159 143 157 175 203 223 209 173 159 121 125 139 121 127 145 145 139 129 147 119 117 117 117 133 123 123 127 125 111 123 109 129 125 117 121 121 105 105 143 145 137 125 141 165 175 


