P2
80 60
572
133 137 137 149 119 123 137 131 135 137 143 135 141 127 139 137 135 141 129 117 107 113 131 109 101 99 109 91 107 103 101 99 103 107 113 119 109 113 91 83 77 83 69 77 67 77 85 77 97 121 87 99 95 93 107 101 97 105 113 99 115 109 107 123 123 113 109 105 97 99 115 93 95 95 91 89 85 85 89 73 
139 119 117 123 133 137 133 133 133 133 143 139 133 131 121 137 137 127 119 123 123 105 103 107 99 87 87 107 97 103 91 115 109 105 105 133 109 109 89 87 75 77 81 79 83 75 81 81 87 103 99 91 91 95 113 107 99 115 119 107 121 121 123 117 109 121 117 111 95 107 119 97 87 101 85 83 75 83 85 87 
135 113 135 115 139 139 121 121 131 141 131 135 129 123 123 133 123 115 113 121 117 107 109 103 109 87 97 89 97 87 97 105 107 109 121 145 115 109 103 101 87 81 71 79 95 95 83 97 95 125 107 107 107 99 113 99 119 127 109 115 123 113 123 105 115 115 123 117 115 115 113 105 89 89 97 87 95 93 91 75 
141 121 125 135 129 129 121 147 121 135 127 141 141 107 115 125 121 107 121 127 113 125 109 105 113 105 121 117 125 109 125 125 129 121 137 127 139 111 113 105 87 91 83 93 87 93 89 95 111 121 95 105 121 101 115 107 123 121 113 121 125 121 115 127 121 133 131 119 119 109 125 111 103 95 97 85 101 109 101 87 
143 125 129 145 135 141 135 139 117 139 137 137 145 141 123 143 129 133 127 121 109 101 101 125 121 109 105 109 127 145 127 137 125 127 143 139 135 133 125 111 103 107 99 101 95 105 91 111 113 131 115 127 123 121 107 131 123 117 123 133 129 125 125 137 121 131 121 121 117 129 139 115 111 121 99 85 97 99 107 107 
143 111 127 135 133 137 125 135 135 125 125 147 127 129 141 135 135 121 123 119 115 119 113 119 115 125 121 119 129 129 135 121 129 129 143 153 143 141 113 103 107 107 105 99 101 109 103 107 117 131 117 125 121 123 115 123 125 117 119 129 131 117 121 127 119 125 135 141 111 111 131 129 121 113 107 105 109 107 105 93 
125 127 141 125 139 149 137 129 131 147 145 149 153 131 125 135 141 139 127 131 127 129 125 111 121 125 111 129 127 125 127 141 155 139 141 149 155 149 133 121 115 105 113 105 99 107 95 107 113 137 121 117 123 123 135 125 127 127 117 121 119 137 137 129 129 135 139 127 131 121 127 135 113 121 117 117 109 105 101 91 
141 119 129 145 133 147 141 157 141 135 139 145 141 157 129 147 125 129 145 143 145 131 131 125 119 125 125 125 135 135 141 137 153 143 153 153 161 141 133 115 105 113 117 103 107 111 111 115 135 139 133 139 129 129 125 123 137 133 131 125 135 129 131 121 139 135 123 127 133 125 135 131 121 111 119 121 111 107 97 107 
137 121 125 135 145 143 153 153 147 143 145 151 145 155 137 143 141 133 125 149 123 129 131 125 121 133 131 133 133 141 147 137 153 155 165 163 153 137 145 123 117 121 123 113 119 127 115 119 141 143 133 129 131 131 133 119 123 127 129 133 131 125 129 135 135 141 129 133 121 143 143 127 123 117 111 111 111 117 97 109 
145 133 137 153 141 135 135 141 133 155 149 157 157 139 147 145 143 145 141 143 143 123 127 133 135 117 135 131 133 141 141 147 155 145 169 175 173 151 145 145 125 133 133 119 129 123 119 133 135 147 131 119 133 125 117 125 127 129 129 135 127 127 135 127 129 147 145 137 135 133 139 139 135 121 103 137 107 109 107 111 
143 121 141 147 133 157 143 141 133 131 123 147 129 129 143 145 145 121 141 153 129 135 133 129 133 127 131 127 125 129 149 143 149 153 163 187 181 159 159 127 163 155 149 149 149 151 131 127 145 147 133 133 129 121 135 119 129 123 115 133 129 115 121 121 125 131 127 141 129 121 131 139 141 117 131 137 113 121 111 113 
161 125 141 147 139 133 135 151 135 133 133 153 147 131 131 145 143 129 135 143 125 129 133 149 115 131 125 123 141 135 159 145 153 171 171 201 193 187 191 193 287 322 381 379 326 267 191 149 145 147 131 131 127 123 129 113 117 143 121 123 135 127 131 131 135 129 129 135 131 135 141 141 129 131 137 133 133 119 121 125 
135 129 141 133 143 133 145 139 141 133 135 151 143 157 139 141 145 127 139 137 137 127 127 135 127 119 131 127 129 157 147 155 151 165 189 217 237 233 324 393 428 448 473 479 506 488 405 281 203 171 145 133 121 127 127 135 129 139 123 117 127 127 129 127 125 137 147 141 149 131 139 149 133 133 125 125 117 123 115 117 
147 121 135 143 125 139 143 121 141 133 137 143 143 151 127 125 129 147 143 159 127 129 123 127 129 119 117 137 131 147 135 169 175 205 277 303 275 285 277 364 444 461 430 440 467 492 467 428 370 314 209 185 159 169 171 171 135 133 135 129 153 155 149 167 165 173 185 193 189 201 179 163 159 145 131 145 111 113 115 125 
161 141 131 137 151 145 145 127 147 141 149 149 141 127 119 139 139 127 135 137 117 133 133 127 121 127 129 135 143 145 169 199 311 376 374 362 332 313 289 279 399 368 281 279 368 403 411 377 379 326 243 241 255 251 273 223 187 185 175 181 185 201 247 311 291 283 257 255 285 301 287 249 187 167 135 141 151 137 133 129 
131 135 147 135 129 139 131 129 125 141 135 137 137 127 131 131 131 141 127 143 129 131 137 133 121 131 135 149 149 157 187 301 379 372 324 273 207 221 241 247 217 199 151 185 233 267 301 301 293 225 257 265 259 263 289 229 211 203 197 195 217 263 295 326 336 303 307 316 316 370 340 324 257 215 193 179 189 189 201 189 
145 123 139 127 133 125 137 133 123 133 141 133 163 141 145 143 139 133 145 131 133 133 129 145 137 135 139 161 163 175 291 374 370 314 245 193 141 169 233 251 247 223 191 173 221 265 267 225 173 175 229 255 273 259 255 235 213 231 209 223 265 291 313 320 314 316 342 322 338 338 336 354 311 313 311 301 307 309 377 387 
131 137 141 123 137 137 135 117 139 141 131 137 151 147 147 141 155 143 143 145 147 135 139 155 155 149 153 163 177 213 364 374 338 326 336 311 287 269 247 223 191 185 147 181 199 219 237 233 187 201 185 237 247 241 247 267 261 255 235 239 285 261 332 326 334 322 340 328 338 370 332 340 342 354 342 374 385 405 409 415 
147 133 151 145 143 137 157 145 147 135 141 147 149 149 141 157 157 147 151 161 153 151 151 155 155 165 153 157 175 213 368 379 366 344 360 370 342 287 215 161 133 119 131 147 201 201 207 223 225 197 181 247 213 227 245 257 273 281 247 277 267 289 313 346 336 324 326 324 318 316 318 297 269 267 255 293 330 381 374 364 
159 143 147 139 147 143 145 143 143 149 157 151 145 143 143 161 147 143 141 143 167 157 155 151 157 165 181 181 177 225 352 360 377 370 397 407 360 267 193 99 91 111 137 161 199 199 213 217 235 177 203 229 223 239 259 259 259 283 247 271 257 267 285 305 305 293 277 265 243 219 211 215 181 197 193 205 229 235 235 201 
149 143 133 153 143 147 131 155 135 127 155 147 145 145 139 145 153 153 143 147 169 157 177 183 187 191 185 185 201 253 352 370 385 401 423 440 342 277 157 79 113 187 215 223 211 207 205 211 227 187 183 217 207 239 245 261 255 273 255 277 247 265 255 281 285 295 311 249 207 207 211 201 163 181 165 171 183 187 189 153 
151 149 153 147 153 149 139 141 139 141 139 145 153 149 147 153 145 139 157 157 169 193 233 243 279 334 334 273 245 342 399 374 385 405 409 393 332 247 125 79 137 231 237 233 223 215 233 239 251 197 163 227 219 229 265 257 257 277 267 289 257 221 239 265 265 255 259 241 225 231 213 181 165 177 181 189 191 189 203 179 
145 145 133 155 145 127 143 137 133 141 153 153 145 149 143 149 155 143 163 167 209 283 320 346 452 512 508 471 498 517 438 314 370 397 366 346 309 199 103 81 145 233 255 253 243 233 245 265 251 223 173 211 231 237 249 259 265 261 269 281 295 263 253 259 247 263 245 287 309 281 253 237 235 249 269 301 316 307 309 316 
133 125 141 141 143 141 133 145 143 137 147 137 161 147 165 149 143 153 153 187 295 389 383 473 525 496 521 490 496 533 492 293 324 395 360 332 295 215 117 71 161 243 257 245 255 251 247 259 257 207 165 185 215 247 239 249 259 271 277 271 279 269 265 271 243 225 251 265 328 354 326 309 307 316 328 368 374 376 372 360 
133 127 151 145 131 139 143 151 137 157 147 155 149 151 139 147 161 139 169 175 273 405 465 566 531 399 417 479 477 531 510 342 358 401 366 332 277 203 99 81 159 257 271 257 255 265 247 247 249 219 163 91 169 235 267 255 273 275 281 263 283 259 259 257 237 243 249 267 332 336 322 318 326 328 360 387 391 387 370 364 
143 131 161 151 145 145 145 131 141 149 149 157 143 151 151 133 153 149 143 183 269 399 471 550 533 448 471 477 461 516 519 405 407 417 383 340 285 247 193 133 169 235 283 271 273 269 257 257 275 233 129 36 24 189 247 245 261 277 277 253 265 255 249 255 251 243 241 275 318 342 326 330 330 348 383 387 387 362 320 293 
127 133 147 139 131 135 143 127 121 137 143 153 145 137 143 143 139 151 149 161 227 366 407 502 516 510 512 465 446 461 455 415 401 383 393 364 340 313 285 241 215 235 263 279 283 287 269 275 279 241 155 30 52 137 229 249 251 263 263 245 247 251 255 249 255 247 247 273 313 336 326 326 328 358 376 352 313 263 203 179 
139 147 141 141 129 131 139 143 129 137 153 147 135 153 133 133 135 125 143 145 163 229 257 318 413 486 452 362 267 221 237 360 374 372 379 391 376 352 326 271 225 245 239 267 261 269 271 271 281 239 189 137 91 163 219 241 219 253 245 249 233 241 247 251 251 249 241 259 245 257 239 239 255 253 241 207 183 163 149 145 
145 139 141 141 145 145 135 143 125 135 149 149 141 141 131 143 149 137 133 147 139 147 147 155 187 211 189 181 165 161 179 271 370 364 366 381 377 338 316 269 245 229 229 251 259 263 271 261 257 245 195 195 143 187 237 215 217 217 237 227 221 233 245 267 257 255 253 253 189 199 191 183 179 163 155 149 145 151 147 121 
143 149 133 135 155 143 139 135 139 141 129 137 145 137 129 135 137 129 135 129 143 145 147 135 151 149 153 151 139 157 165 187 348 387 340 332 291 241 243 243 293 297 318 318 313 322 320 281 277 269 233 215 171 215 187 121 193 219 243 229 207 237 239 239 231 247 237 239 205 183 183 181 165 165 129 141 143 139 141 133 
141 137 139 131 141 131 135 143 123 141 133 149 137 139 149 139 149 149 141 151 143 155 147 141 145 143 145 147 151 167 177 197 281 399 358 287 123 0 59 243 291 309 405 426 446 452 438 421 419 403 348 293 207 205 135 193 299 318 285 239 233 197 205 223 233 239 223 237 197 191 181 165 163 151 133 123 137 133 115 131 
141 145 139 143 153 135 155 163 129 151 141 141 147 143 145 149 151 151 145 155 141 151 147 153 155 143 155 145 159 183 175 187 221 332 381 372 257 151 245 253 257 291 434 457 463 467 452 440 436 426 424 417 352 301 338 381 376 354 305 289 291 185 185 197 221 235 219 227 207 209 189 171 155 153 139 141 139 123 127 123 
125 131 145 143 139 141 133 135 127 139 135 139 155 147 145 145 135 145 149 139 151 145 151 157 151 149 155 157 157 161 171 183 201 239 293 364 364 334 301 287 295 346 454 459 455 454 430 423 426 424 397 395 389 399 395 387 372 362 313 267 199 169 181 201 227 235 219 205 203 201 179 169 161 147 137 135 133 131 123 133 
143 151 137 145 133 151 147 143 143 137 157 137 155 149 147 145 151 151 151 151 151 155 157 149 153 149 159 159 179 187 217 265 305 330 366 370 364 364 348 293 301 393 417 403 432 417 368 352 350 348 307 311 287 287 275 287 291 299 225 179 169 181 185 207 219 233 215 207 201 207 191 175 165 153 149 145 137 131 123 139 
137 143 127 145 145 139 139 141 141 145 153 149 149 147 153 151 135 159 157 147 155 151 157 151 175 169 163 203 239 279 316 338 352 352 356 368 374 358 407 383 397 405 401 389 370 383 358 324 281 245 201 203 199 195 189 183 183 187 173 187 191 175 173 209 215 219 211 201 217 195 199 195 203 185 159 175 155 169 153 145 
123 143 133 153 143 139 137 149 145 147 153 139 149 159 145 151 161 149 151 153 147 153 147 171 169 165 189 322 326 301 324 334 320 313 334 352 362 348 393 415 403 377 362 368 377 368 330 328 316 303 251 267 253 245 247 211 185 185 211 231 225 207 193 199 185 181 183 201 201 217 259 283 309 303 301 309 283 259 237 231 
137 113 119 141 145 143 141 141 149 141 155 149 147 147 153 149 157 157 147 153 153 147 151 165 165 179 269 391 360 316 328 334 303 233 219 273 307 340 344 303 263 231 243 271 318 313 316 324 281 289 299 324 295 289 255 231 189 227 235 249 241 233 205 201 187 189 197 233 229 267 295 334 370 385 383 358 348 340 318 295 
143 137 139 143 133 135 139 147 135 143 149 155 147 157 143 155 151 165 145 155 163 161 155 165 177 191 336 366 328 326 336 314 285 267 269 253 295 275 281 283 287 289 283 297 285 257 259 231 227 277 309 311 297 267 271 229 227 237 247 243 225 223 203 187 185 177 201 213 197 239 285 313 358 377 409 376 358 346 320 318 
141 133 139 137 149 143 147 149 139 143 133 147 159 151 155 157 159 149 157 161 159 159 153 169 189 229 350 370 336 338 328 307 279 297 279 285 263 283 273 267 277 291 289 291 281 257 235 251 243 279 299 301 277 257 245 235 241 253 243 133 133 197 203 199 181 191 197 181 169 193 267 289 330 354 381 377 348 358 336 322 
143 141 153 139 137 137 129 135 153 149 151 147 141 155 165 175 189 177 173 183 185 161 183 179 193 297 368 354 346 346 332 309 303 309 259 227 225 225 235 239 247 249 251 253 255 251 237 237 259 257 275 259 259 253 247 243 263 257 247 141 71 175 207 197 187 177 171 165 185 201 245 277 318 332 350 360 344 313 283 275 
141 159 143 143 129 145 141 137 141 141 143 145 155 169 181 263 364 368 358 350 374 297 203 187 227 377 374 374 354 356 330 316 332 303 235 205 201 211 215 221 225 231 225 235 229 239 231 229 245 261 275 265 259 263 273 259 269 267 247 209 195 201 215 195 193 181 169 187 181 217 229 243 257 275 245 235 221 175 161 163 
145 157 143 119 139 131 127 137 143 149 129 135 155 153 233 356 465 461 498 525 517 488 417 314 362 426 383 374 366 358 320 334 311 249 203 195 191 207 221 213 233 237 225 225 225 223 229 225 223 255 283 269 265 267 275 269 275 261 263 267 243 219 217 203 189 175 179 199 191 197 181 169 155 123 91 105 123 121 121 127 
139 137 131 131 131 139 135 119 143 139 139 151 145 179 307 450 492 475 521 562 517 512 494 479 459 448 389 374 330 330 316 301 275 219 179 181 195 221 219 211 219 215 219 219 231 211 209 207 215 245 279 273 265 277 277 271 269 263 281 279 251 239 223 213 199 183 157 161 159 163 163 141 111 95 91 95 95 115 129 125 
149 143 129 143 131 145 143 139 143 139 155 151 145 169 348 461 500 525 554 572 523 432 403 409 450 440 395 354 326 313 297 289 247 229 169 145 183 217 229 215 221 221 219 227 235 215 213 209 207 243 275 271 263 275 279 283 287 277 283 281 263 229 211 207 173 169 153 151 139 151 155 127 113 115 101 99 111 119 123 133 
135 131 139 139 139 141 145 131 137 133 145 149 149 173 318 444 473 516 539 562 502 385 387 385 403 419 374 314 307 285 259 257 227 213 153 125 177 201 221 233 231 229 225 231 231 231 215 211 211 259 320 309 303 285 287 283 295 289 271 239 219 195 167 149 151 143 143 143 133 133 131 119 115 105 127 123 133 141 135 119 
129 151 139 151 141 153 133 133 143 121 137 137 133 153 251 421 455 492 521 554 486 399 413 405 430 415 372 328 291 259 247 249 221 189 107 69 155 199 225 227 231 221 219 227 219 205 209 205 223 275 356 356 340 334 281 273 255 247 227 185 183 159 161 159 155 151 155 149 147 145 133 119 129 123 123 137 133 155 161 141 
119 127 135 155 147 145 139 135 143 139 149 147 157 157 189 334 430 424 477 510 467 459 444 383 385 421 346 328 299 297 259 271 225 177 101 81 113 193 245 249 239 231 223 207 205 205 199 219 243 281 366 358 342 275 237 227 237 219 213 189 183 195 199 185 187 179 167 161 149 151 143 145 143 135 129 135 159 137 139 151 
131 121 143 143 157 147 149 145 135 145 147 149 151 147 161 193 221 239 257 309 313 297 245 213 245 370 379 362 320 295 287 269 235 181 83 59 65 173 243 253 255 241 221 219 217 209 219 241 255 271 301 291 261 207 207 213 227 221 231 209 217 227 233 235 263 261 253 219 181 159 159 169 135 139 141 155 145 141 145 153 
123 129 145 157 141 143 147 137 135 141 159 141 145 143 145 167 151 159 157 167 161 165 151 157 185 303 387 346 320 314 299 279 261 189 113 99 103 179 245 267 269 257 231 215 223 221 215 237 249 249 243 251 215 205 197 221 223 231 227 225 227 253 267 285 281 269 281 261 227 205 191 181 207 185 201 209 167 167 145 183 
139 131 135 137 145 145 155 137 129 141 141 151 145 165 133 143 163 157 149 149 143 167 137 145 151 229 377 362 350 322 279 291 281 235 157 127 145 197 263 261 283 247 251 241 243 243 231 253 241 235 225 241 227 205 221 235 227 235 237 235 253 275 273 261 245 267 285 237 191 193 199 231 259 281 309 316 301 289 237 229 
133 137 147 137 137 141 151 137 127 129 141 151 135 139 141 131 145 145 161 145 149 149 141 135 155 187 346 352 316 318 291 287 275 249 221 167 139 183 243 283 277 265 265 251 249 255 241 253 241 243 251 235 237 225 257 255 249 225 237 255 273 269 241 233 243 245 247 205 149 145 195 227 267 313 332 368 377 346 346 342 
127 133 141 133 137 147 147 129 141 143 137 151 137 133 141 149 133 143 135 139 145 127 139 139 137 175 324 377 334 285 267 277 269 253 241 223 203 219 261 255 279 293 285 285 269 263 255 229 245 255 241 237 231 239 251 257 265 247 229 239 243 265 255 239 225 215 195 175 149 141 191 235 305 334 370 391 385 389 360 352 
127 135 121 125 125 147 135 127 135 135 147 139 143 151 137 151 137 135 151 135 131 133 139 125 129 151 263 376 348 299 289 279 247 193 215 221 197 193 191 179 179 193 231 233 241 233 237 231 235 243 227 233 241 243 243 261 253 233 237 251 245 243 227 219 179 179 155 167 143 159 215 277 334 366 376 383 383 372 368 348 
129 139 129 141 143 133 133 135 133 139 139 125 149 153 135 147 137 133 131 139 127 131 133 133 133 135 161 269 313 316 287 289 257 243 245 255 233 257 203 139 131 137 143 147 149 173 185 203 233 251 241 237 249 241 241 247 253 233 249 231 223 217 207 175 155 143 139 135 125 165 217 253 330 332 358 372 366 326 324 318 
141 145 129 131 133 135 125 131 123 131 139 135 139 133 143 143 135 127 115 125 127 147 113 137 119 129 129 131 211 267 285 291 281 271 273 259 257 307 372 291 219 187 199 183 197 219 231 247 281 277 241 249 235 227 231 231 231 227 215 221 195 201 183 161 145 121 105 119 113 123 141 163 199 233 243 249 253 231 213 221 
133 123 131 133 133 121 117 127 107 127 131 147 123 129 121 147 129 133 121 121 131 111 121 121 125 103 117 121 131 147 185 241 267 267 289 281 287 362 403 374 362 350 334 334 336 336 328 289 299 283 221 205 195 175 165 179 197 199 191 175 145 165 169 163 143 99 97 119 117 117 127 107 127 141 155 163 145 143 141 173 
127 125 129 115 133 103 111 127 109 117 133 135 129 119 125 141 115 103 107 113 101 119 109 103 117 111 109 99 97 119 125 131 157 193 243 269 301 409 421 397 403 391 376 379 366 374 334 263 241 185 135 131 121 113 115 111 123 133 143 113 127 131 135 135 125 89 97 113 95 95 107 95 97 115 121 119 131 133 123 131 
103 101 115 117 109 111 109 99 111 109 105 121 117 119 127 125 125 107 113 117 107 103 107 91 87 91 93 85 107 117 119 111 115 119 161 193 199 259 320 346 370 379 362 352 322 291 211 141 119 127 93 99 89 91 101 101 107 111 101 93 99 93 87 101 107 85 95 89 83 83 79 71 79 111 129 111 123 127 119 129 
107 109 89 103 101 101 119 91 101 107 105 113 121 117 93 107 103 117 101 111 103 99 89 101 97 89 85 95 97 91 95 95 99 97 125 135 117 115 145 161 197 225 195 167 143 107 103 95 93 95 79 107 89 93 91 89 95 91 93 91 101 99 91 91 87 95 99 81 81 81 83 75 65 105 121 109 119 115 125 117 
117 111 103 109 97 107 113 117 115 105 107 105 113 95 95 103 111 91 95 101 91 89 95 105 99 89 85 81 89 93 105 115 111 121 137 141 153 143 133 129 129 121 115 117 119 127 113 109 115 113 107 105 111 107 113 107 105 103 103 89 95 109 97 103 99 89 91 87 77 71 73 65 75 79 97 117 101 109 99 121 


