P2
80 60
685
91 113 93 93 81 87 105 85 97 113 85 97 105 105 109 97 107 105 109 95 109 109 95 115 107 105 111 101 103 99 105 122 117 105 107 103 109 113 111 115 107 128 120 134 132 126 120 128 115 113 115 115 136 134 138 132 144 124 152 218 340 460 493 520 548 532 520 458 280 184 140 134 152 262 348 354 288 186 146 115 
87 103 87 99 81 81 99 101 95 85 103 99 95 91 99 95 103 99 101 91 105 107 111 113 95 99 107 111 95 99 109 111 115 105 113 132 109 130 107 117 122 120 122 117 128 136 124 130 128 150 128 115 130 124 130 132 136 154 264 395 427 478 466 495 548 526 499 372 242 166 132 144 290 419 450 464 423 340 328 178 
69 81 103 93 87 97 91 95 81 113 95 89 91 81 99 109 87 109 93 105 99 105 103 111 107 109 99 97 107 120 122 115 111 95 109 122 128 113 122 130 111 124 120 128 128 142 138 138 132 132 117 138 134 134 136 140 176 186 395 495 464 484 472 499 530 526 480 476 379 300 258 254 405 458 462 474 456 409 411 344 
83 103 89 101 67 81 101 89 91 95 103 93 83 97 113 111 105 93 93 105 107 109 103 109 128 128 115 120 109 111 113 122 109 99 120 115 136 122 128 117 124 115 134 122 140 134 140 128 128 142 154 138 138 150 156 154 174 228 460 493 486 484 497 484 493 491 491 464 456 456 452 437 454 460 480 472 462 433 446 391 
83 103 89 85 105 85 105 101 83 93 97 103 109 101 115 117 101 107 99 124 105 113 122 120 115 120 122 132 124 124 124 124 120 120 128 138 136 115 120 126 124 122 130 128 130 144 152 150 142 146 154 156 172 162 154 166 184 250 427 491 470 499 505 511 495 513 501 482 470 493 499 480 480 472 478 487 478 454 470 442 
83 91 105 99 89 91 101 87 103 99 103 97 101 101 122 103 109 107 111 109 107 111 117 124 128 132 126 128 120 124 120 124 126 117 122 126 130 117 122 124 122 124 117 128 130 134 136 148 144 162 156 170 162 180 192 176 218 294 403 397 413 509 505 491 484 499 484 466 466 480 536 518 484 478 456 484 491 446 482 440 
85 113 99 105 105 111 107 107 117 91 103 115 105 99 122 124 105 120 95 117 124 115 132 120 130 136 120 124 115 120 132 120 128 122 128 132 128 126 130 130 128 124 126 132 136 142 154 164 172 190 214 232 248 286 240 216 304 462 487 391 397 507 520 542 501 468 466 480 470 474 538 548 486 476 484 495 489 484 501 487 
81 95 107 83 109 105 115 95 95 87 103 95 111 124 134 111 113 105 99 124 120 107 111 126 124 134 115 120 120 111 138 115 126 130 126 130 132 124 122 126 130 132 122 142 144 136 148 160 208 324 413 440 511 573 505 393 482 615 679 610 454 484 484 530 503 466 460 468 460 464 536 549 491 478 470 476 478 484 501 509 
79 87 75 87 109 93 103 97 101 97 105 109 103 111 107 120 109 117 105 126 105 101 128 126 113 120 124 128 109 126 117 117 124 128 115 120 134 128 115 120 124 126 124 113 144 144 132 176 280 379 520 577 641 631 635 623 635 637 671 679 586 476 452 444 466 456 460 450 454 464 501 522 456 462 466 484 486 486 499 509 
95 87 101 79 101 103 105 85 91 103 115 117 111 113 115 99 107 93 115 97 117 97 109 115 117 126 111 124 115 117 122 111 115 113 130 124 136 115 122 134 124 117 120 120 126 138 136 192 306 464 648 669 660 652 633 619 658 619 666 675 633 489 442 429 470 450 456 444 440 466 497 487 439 437 456 470 487 486 501 484 
91 101 101 87 99 93 87 91 115 105 97 113 95 81 111 117 113 109 120 105 109 117 109 107 105 111 107 111 115 107 122 128 111 109 128 111 124 117 109 130 117 120 113 124 120 132 144 182 318 452 671 671 673 646 629 579 637 602 617 685 611 509 454 452 478 474 468 460 431 476 474 456 407 401 417 464 482 476 486 456 
71 89 89 83 107 113 99 103 95 109 99 101 99 107 109 115 105 109 117 105 120 111 109 115 109 120 115 124 115 111 113 122 124 103 103 117 130 124 103 122 120 120 113 128 132 132 142 166 306 397 662 679 666 673 637 580 623 571 608 627 495 476 491 499 507 480 470 452 448 462 464 440 391 389 409 442 454 458 460 429 
77 87 89 89 101 105 99 99 93 99 97 122 95 105 107 105 101 103 99 103 105 91 103 111 111 109 107 109 115 117 105 111 109 109 117 124 130 113 120 105 124 120 99 120 130 134 126 142 250 326 610 675 648 662 637 573 613 515 522 444 433 474 491 491 497 482 480 454 456 487 472 446 393 387 403 429 452 452 470 427 
73 101 95 83 91 107 93 97 107 103 93 97 101 95 107 103 111 103 103 113 101 115 105 111 117 111 115 103 107 115 105 122 120 113 109 115 115 113 103 107 117 120 107 128 109 136 120 134 200 270 466 610 580 563 553 509 387 318 419 391 372 464 476 480 484 486 484 464 486 520 513 470 433 454 440 486 474 466 452 399 
81 91 87 83 99 99 93 95 105 99 109 99 101 89 99 103 105 105 99 126 93 107 105 91 101 101 97 105 124 101 115 124 111 105 109 115 120 111 111 107 122 117 120 117 124 120 122 126 130 156 208 258 234 196 210 210 182 182 340 472 470 462 486 454 440 460 484 478 491 530 544 486 448 491 493 507 484 437 423 387 
99 99 97 87 95 99 89 99 97 109 87 103 97 103 120 101 101 105 111 109 101 113 111 105 115 105 95 109 113 103 97 111 117 99 101 109 103 115 111 109 105 122 105 117 130 124 124 128 122 111 134 134 132 138 146 150 152 178 314 503 484 470 454 462 464 456 470 493 495 522 559 518 476 491 486 491 454 427 433 377 
89 95 85 95 91 93 87 91 105 91 85 93 101 95 103 95 103 93 91 83 97 89 91 91 103 87 105 113 99 85 93 109 113 93 105 113 120 103 120 109 111 107 111 115 115 134 132 113 126 113 122 111 138 124 120 130 144 134 268 444 458 474 450 440 456 464 515 546 551 549 561 518 501 520 468 450 417 385 393 417 
83 87 89 75 79 95 87 95 89 85 89 89 97 85 111 89 95 91 107 99 107 93 99 107 111 117 105 105 117 107 111 109 107 111 111 109 126 124 117 117 115 111 111 115 107 130 138 117 124 124 122 120 132 128 120 138 150 142 174 344 439 486 486 472 480 503 505 551 559 544 534 532 503 474 442 417 403 385 411 474 
85 101 87 91 87 89 91 97 101 99 107 93 99 111 109 99 103 95 99 124 99 107 103 99 128 109 120 107 111 115 117 126 130 105 122 128 130 120 115 132 113 117 117 126 138 134 128 134 134 132 128 134 128 146 138 158 148 154 148 178 280 409 423 448 454 458 462 499 542 555 513 472 450 448 407 383 376 385 484 534 
75 95 75 101 83 83 89 91 99 97 99 101 91 105 105 105 99 101 101 95 107 115 120 105 120 103 115 124 109 111 124 124 140 111 126 122 122 130 111 130 128 136 124 111 122 130 138 134 140 144 138 126 140 134 138 144 156 138 154 136 160 258 326 372 409 407 374 476 491 489 497 466 460 442 385 393 421 478 532 520 
97 93 93 87 99 99 91 97 103 101 101 101 111 113 113 111 97 109 105 117 107 115 111 115 122 124 115 128 128 117 120 124 132 117 120 122 122 130 130 134 132 136 122 128 140 132 138 132 128 136 144 132 130 148 144 148 154 142 150 152 158 190 202 284 330 348 356 419 458 480 484 472 440 433 413 448 472 511 515 417 
85 97 91 91 95 95 97 103 107 93 103 103 115 111 107 111 105 107 113 109 120 115 111 105 136 122 109 124 117 126 124 120 122 120 126 124 128 134 126 124 128 124 134 132 136 130 144 142 142 138 132 136 138 134 146 146 156 144 148 154 148 160 180 214 230 240 282 389 437 472 466 503 456 462 454 468 448 397 296 164 
83 95 87 105 111 109 95 97 109 91 113 124 111 105 109 117 109 115 107 117 115 126 111 115 130 126 117 122 130 124 120 138 128 132 120 130 142 148 126 134 134 128 132 134 136 144 142 152 142 144 136 128 136 138 146 148 148 140 150 158 152 188 184 184 208 262 352 425 440 474 507 511 482 499 460 417 292 134 91 75 
81 105 95 95 105 107 99 91 97 101 120 107 120 103 111 113 115 111 109 117 117 128 117 120 120 130 111 117 124 120 130 132 134 126 113 142 136 136 128 132 128 140 144 130 140 144 142 146 132 142 134 150 130 142 138 150 146 132 144 170 142 180 178 198 202 330 425 462 470 482 482 482 472 442 344 218 83 20 0 34 
75 111 91 109 93 109 101 97 105 105 107 105 120 109 117 107 117 107 122 126 117 115 117 105 120 120 115 117 130 115 130 130 132 128 122 136 138 134 126 132 136 134 140 134 134 148 156 144 132 140 146 134 144 150 142 150 152 150 148 162 150 168 182 206 232 336 433 464 450 460 470 450 401 334 192 77 34 2 26 20 
89 89 89 87 103 107 101 95 95 111 97 107 103 109 117 97 117 107 103 115 115 115 126 115 128 120 126 122 117 109 128 117 128 130 130 115 130 132 130 138 138 136 142 140 134 154 144 140 138 140 140 138 130 148 148 142 162 158 152 174 160 180 206 222 260 346 456 446 456 466 448 482 427 332 234 178 109 69 63 42 
75 103 95 83 95 91 99 93 99 97 113 95 105 111 115 99 113 107 115 95 109 115 126 113 115 103 124 111 124 111 120 124 117 115 126 134 126 132 144 136 140 136 128 134 136 154 152 142 132 138 136 142 144 146 136 164 170 210 224 220 218 260 312 385 480 503 507 499 456 448 437 462 456 427 328 302 250 226 232 196 
89 99 95 99 93 99 111 105 120 99 91 105 95 115 117 95 101 103 117 115 113 115 113 109 107 115 105 126 130 113 120 122 120 122 122 130 136 142 132 136 132 146 144 142 146 152 142 146 140 136 130 138 140 170 168 196 296 468 493 466 444 478 501 549 567 559 530 528 489 487 474 476 462 450 391 328 296 298 306 284 
91 99 95 105 93 101 99 109 103 97 113 107 107 109 120 101 109 105 101 111 105 120 109 99 105 107 105 124 124 107 111 126 113 109 122 120 130 126 128 134 150 140 140 148 146 154 146 140 130 128 136 138 132 210 348 413 495 561 551 534 505 515 509 534 553 557 540 522 503 491 482 464 460 439 395 338 324 310 314 304 
85 101 101 109 101 93 103 107 103 107 107 97 95 97 109 97 103 99 111 105 105 109 111 109 107 117 124 111 120 111 111 113 113 117 120 122 122 124 115 144 144 140 132 142 148 154 150 156 132 136 142 134 134 160 202 399 536 544 551 495 491 495 478 486 503 509 515 518 511 511 480 462 448 411 379 354 348 320 314 290 
73 87 99 93 95 89 95 91 107 99 103 107 89 103 105 109 111 99 109 101 101 113 103 107 101 111 107 117 117 101 111 113 120 115 122 115 109 134 115 138 142 144 136 132 150 150 148 150 140 138 142 134 144 134 192 370 462 452 437 377 423 439 421 446 460 444 468 470 493 482 448 419 395 387 376 356 332 326 350 292 
75 79 81 83 95 91 87 103 93 81 95 93 105 93 99 103 97 113 99 95 97 95 109 95 101 103 107 113 109 91 109 113 103 115 107 117 120 122 128 140 146 140 138 140 136 154 144 150 130 128 126 128 130 144 206 258 204 178 176 268 389 395 391 415 427 427 439 440 425 383 372 387 374 383 393 374 354 340 358 356 
81 93 85 103 93 93 101 103 89 95 91 95 111 99 117 93 107 93 115 111 113 109 109 111 107 105 117 115 103 113 105 122 122 115 126 115 132 126 113 148 146 150 144 152 144 144 158 154 138 142 146 146 146 144 152 166 160 158 172 310 381 405 395 381 383 370 377 401 374 354 350 356 376 409 435 417 425 377 376 376 
89 87 91 89 81 89 105 117 91 101 109 95 99 113 109 113 99 115 109 117 105 117 128 111 113 120 117 122 124 126 120 126 132 124 136 128 136 136 128 142 138 158 136 144 150 150 160 140 138 142 148 162 170 184 186 200 174 172 204 354 376 374 342 332 342 354 385 405 372 354 320 322 362 393 429 435 439 381 381 399 
83 85 89 103 101 105 99 101 113 111 107 109 101 113 113 115 113 117 115 113 109 111 132 117 107 115 120 126 111 113 132 136 132 126 122 138 142 136 138 136 150 144 152 152 154 150 148 160 144 170 246 330 368 417 454 440 312 232 290 379 370 360 326 318 318 348 372 350 352 364 350 364 376 405 425 429 423 389 397 399 
85 89 107 95 105 101 99 122 107 109 109 97 111 130 113 109 120 120 132 109 107 120 120 130 124 115 115 138 111 113 138 126 122 117 136 132 126 130 134 152 144 148 140 154 148 154 160 168 164 240 407 559 555 559 577 582 606 551 513 513 437 387 338 326 318 314 290 272 340 348 350 362 364 411 409 415 446 429 407 397 
87 101 97 105 95 95 103 101 111 95 91 103 107 109 107 101 113 107 115 111 124 124 111 117 103 120 117 126 115 107 124 136 126 109 122 138 132 128 136 128 146 148 150 148 152 160 146 158 188 276 482 592 573 588 610 602 577 582 559 592 489 411 370 340 296 248 260 266 318 338 352 354 381 417 411 421 486 446 417 397 
83 91 95 105 95 97 101 101 103 95 117 101 95 117 105 126 113 109 117 120 117 124 115 115 124 117 122 113 115 120 130 138 128 132 122 130 132 134 126 138 144 144 140 152 144 148 156 164 246 302 493 565 588 619 602 600 561 534 501 571 497 385 354 368 306 248 252 270 282 336 348 372 364 403 389 405 515 456 413 397 
77 93 95 83 97 101 109 115 99 107 107 107 105 113 117 138 120 107 120 130 120 120 130 117 132 128 128 126 117 124 130 136 126 120 134 126 128 138 124 136 140 146 130 146 146 150 146 160 264 310 419 505 565 600 619 592 509 484 466 538 497 383 352 318 296 274 274 272 286 330 328 366 366 383 364 374 501 460 419 379 
83 97 89 95 91 99 111 109 103 111 101 109 99 99 117 109 124 126 120 122 109 124 122 122 122 126 115 117 128 117 130 122 126 120 124 124 130 128 122 138 144 132 140 128 142 150 142 144 188 274 370 470 518 553 594 596 565 546 540 551 482 397 352 310 288 268 280 250 258 304 304 336 356 372 330 360 458 452 423 377 
71 109 85 91 91 101 101 105 107 103 107 117 107 120 120 130 113 117 115 134 117 115 109 134 126 148 130 128 126 117 138 122 138 122 128 126 126 128 122 134 144 130 128 140 136 142 134 136 158 222 322 456 497 530 567 559 549 446 419 466 448 399 350 314 284 274 280 250 250 290 286 322 346 348 302 354 429 448 419 383 
89 99 93 109 111 93 97 97 122 99 107 107 111 115 126 113 117 109 122 117 113 115 109 113 124 126 126 124 109 115 126 126 128 115 130 120 134 115 126 128 126 126 130 136 134 134 144 136 128 142 184 222 264 298 328 326 246 196 216 320 328 354 338 290 266 260 256 238 254 294 274 310 320 316 304 338 411 444 421 395 
73 95 87 91 91 93 113 105 99 105 101 101 105 101 109 103 109 103 124 117 111 111 120 115 122 107 111 107 111 111 122 122 128 120 120 120 124 109 126 128 126 122 107 128 128 130 130 126 111 122 132 132 146 146 148 154 154 140 160 268 304 324 304 286 278 282 256 232 250 274 270 300 304 314 282 316 393 444 423 395 
73 93 95 91 61 97 107 95 95 101 91 89 95 113 99 93 103 117 115 105 103 109 93 113 124 138 115 122 111 111 107 128 111 117 120 128 122 122 111 130 126 122 120 122 115 124 130 124 122 113 120 107 120 124 122 122 128 122 138 274 352 338 296 290 284 286 318 280 262 290 282 286 288 320 304 304 336 370 383 381 
67 75 81 77 89 79 97 87 83 97 89 87 95 91 93 91 105 99 117 111 101 93 105 115 103 109 113 103 107 101 113 115 109 105 103 97 122 111 113 101 107 109 122 117 122 134 117 122 107 111 115 103 107 105 126 146 140 111 107 232 342 370 320 298 270 302 338 310 290 314 304 282 298 324 306 302 298 342 372 352 
71 85 75 61 97 85 83 91 89 87 87 71 83 89 105 81 103 97 97 93 89 87 101 101 105 105 89 91 107 89 93 115 97 113 97 111 109 115 107 117 111 101 109 117 109 115 117 120 115 103 107 103 99 97 144 300 312 288 260 270 356 360 336 318 308 314 336 356 328 302 316 290 302 322 302 278 300 364 387 348 
65 65 75 59 67 65 79 71 85 83 81 65 83 89 89 81 75 83 93 93 97 95 107 91 103 103 101 97 85 97 103 111 95 97 105 107 117 107 105 124 103 105 109 113 103 113 124 122 115 111 117 103 107 107 132 276 454 486 478 456 435 383 362 338 362 364 374 433 425 364 340 328 298 292 312 298 294 332 344 344 
63 52 63 50 73 65 59 77 63 65 77 81 85 87 75 73 93 73 81 89 89 87 93 93 79 91 89 91 97 75 87 101 101 97 93 93 107 101 87 105 107 103 95 117 105 117 111 99 101 103 85 91 89 148 278 368 470 501 480 474 478 480 470 442 425 403 425 468 466 454 413 356 292 272 276 278 264 288 324 312 
52 83 73 71 69 75 89 75 81 75 85 79 71 89 79 81 75 93 81 85 83 93 83 89 89 83 89 79 75 77 91 89 89 77 75 87 97 89 91 93 83 87 81 101 101 103 103 89 81 71 79 95 73 91 134 170 330 433 435 417 401 446 454 466 460 462 470 476 468 470 452 429 296 180 210 260 246 280 310 304 
67 87 91 91 83 83 105 97 77 89 81 107 81 85 85 91 103 99 91 99 93 85 93 107 97 105 87 103 99 99 99 103 89 91 101 101 107 91 89 93 103 83 101 105 97 113 107 87 83 81 79 89 81 79 101 101 130 168 174 154 160 244 340 411 405 460 462 458 462 468 460 440 385 180 91 176 228 264 302 286 
69 93 85 99 93 77 81 77 91 83 87 89 83 99 101 97 83 109 111 97 109 89 89 95 91 93 103 109 113 107 105 101 107 101 91 115 103 107 97 107 101 103 95 113 111 105 107 101 101 89 95 87 79 91 83 85 101 85 83 67 73 91 115 182 286 391 435 444 450 456 464 442 381 232 79 126 184 232 286 270 
65 95 87 75 97 85 87 83 91 97 91 97 87 89 95 91 103 103 99 101 107 99 115 109 111 120 99 105 115 101 103 115 105 93 107 105 101 105 101 101 107 111 107 111 105 105 115 103 103 101 95 97 89 95 81 99 93 87 81 67 55 83 103 130 146 204 290 379 421 444 440 425 374 238 95 95 113 182 282 246 
65 89 85 101 83 89 89 101 89 93 97 99 101 101 103 97 89 101 105 105 111 113 122 113 113 115 105 111 107 101 111 107 105 107 109 124 115 122 105 124 105 107 103 109 113 111 124 107 91 107 85 107 99 97 87 97 97 97 95 89 87 111 115 140 158 146 162 190 264 316 326 318 260 158 97 87 91 105 160 196 
79 93 79 75 97 101 79 101 97 93 113 115 95 103 128 115 113 105 111 111 120 124 134 105 122 132 122 124 115 113 111 120 107 105 99 132 115 130 107 113 126 111 115 113 128 115 122 124 109 109 103 111 115 113 107 111 115 105 101 109 103 126 140 144 154 148 154 158 176 188 184 176 150 111 95 105 93 77 130 126 
79 95 67 93 87 103 89 87 101 105 103 99 103 101 113 101 113 113 105 107 105 113 111 120 120 142 124 113 117 115 122 115 117 111 124 126 130 117 105 113 124 122 107 107 117 111 130 111 101 97 103 105 109 117 122 117 126 120 99 130 107 138 146 148 156 156 144 158 142 144 138 115 122 101 91 99 99 95 124 120 
79 93 77 93 101 95 93 91 97 91 89 101 93 111 111 122 117 111 103 115 117 111 115 111 122 122 136 113 117 107 117 115 124 113 117 124 132 120 120 117 126 124 103 122 122 130 126 124 111 111 109 124 99 122 138 138 150 113 117 115 113 117 126 152 174 146 154 128 134 142 132 122 124 105 109 107 89 75 113 117 
73 97 95 95 91 93 113 99 101 93 89 113 103 113 103 120 117 117 126 117 117 109 122 124 132 124 122 124 124 124 117 117 126 124 124 107 134 122 115 126 115 117 111 128 124 128 120 122 115 111 124 120 115 111 130 162 162 154 134 134 95 132 128 154 166 146 154 148 124 122 113 115 115 105 101 101 95 87 117 113 
75 87 103 101 105 97 93 85 91 103 95 101 91 111 111 120 107 115 113 120 113 113 124 113 130 132 109 122 111 126 122 117 124 113 117 124 117 115 120 120 126 132 107 115 130 126 130 115 128 122 107 120 113 124 113 142 158 154 128 122 111 130 130 138 140 120 134 132 117 113 113 99 111 103 115 103 93 89 103 107 
87 107 85 95 91 101 91 99 91 97 101 99 95 124 122 124 97 111 113 109 136 109 120 122 140 122 122 128 122 120 126 128 130 122 113 117 126 111 120 115 124 117 111 117 126 126 122 124 120 120 130 124 115 140 150 152 158 162 148 126 120 134 122 140 136 126 148 111 111 130 122 105 126 111 115 117 115 101 113 113 
87 111 87 91 99 109 85 136 117 97 101 117 122 117 115 113 115 115 120 128 111 124 124 115 124 126 130 128 126 111 142 138 128 111 128 138 115 120 107 111 105 132 124 138 130 126 140 120 120 120 124 128 142 156 150 148 172 158 158 132 117 130 124 144 154 124 138 132 111 124 130 126 111 130 103 128 113 120 134 107 


