P2
80 60
723
105 105 107 97 83 85 101 85 97 116 89 89 107 101 97 97 95 101 95 101 107 111 99 105 116 103 109 95 93 99 105 109 116 109 107 91 97 101 113 111 105 120 113 111 130 126 116 120 130 124 126 116 140 130 111 113 126 120 138 188 224 288 348 356 354 344 306 272 212 140 122 120 105 69 67 61 81 53 118 156 
87 101 101 101 89 79 101 97 79 81 105 103 99 93 95 89 79 91 95 85 113 105 99 111 95 87 101 97 93 97 91 99 101 101 107 118 101 116 105 107 105 99 109 113 132 136 126 118 132 134 126 107 124 113 116 120 122 140 176 300 413 470 482 460 472 435 389 397 383 246 166 142 113 73 73 73 85 59 152 218 
77 79 101 97 83 77 87 77 81 97 93 89 97 85 99 101 89 99 83 95 87 103 99 113 113 97 99 91 101 116 105 97 99 93 109 109 122 111 118 120 97 107 124 111 128 138 136 146 138 148 134 134 140 122 128 138 162 170 282 423 452 487 503 503 483 478 429 464 472 446 391 296 194 122 113 97 91 79 192 366 
75 85 109 109 75 71 99 87 79 93 95 97 83 89 97 97 85 75 93 99 105 118 105 111 126 118 107 111 109 118 113 111 107 103 124 103 130 113 111 113 116 109 138 109 132 130 140 148 166 184 164 140 152 154 152 148 160 212 391 478 460 460 468 491 499 491 458 480 495 501 493 446 433 352 258 174 172 180 310 476 
85 83 99 93 91 79 81 97 73 87 99 107 99 91 99 105 91 103 97 97 99 103 109 105 111 107 118 124 126 128 111 107 103 118 120 132 122 101 116 109 113 109 126 116 124 144 160 208 302 312 278 236 214 184 156 158 178 280 460 493 470 456 460 491 493 493 493 518 536 553 534 524 536 514 483 454 379 342 468 532 
79 73 107 93 89 77 85 89 85 101 107 111 105 105 103 101 101 109 97 105 107 103 103 109 126 124 134 128 126 132 105 116 116 120 122 120 122 116 109 120 109 120 124 113 130 150 228 373 493 509 518 491 452 296 216 230 264 342 466 472 462 489 493 487 489 520 513 538 545 551 551 576 590 557 542 542 553 493 551 547 
77 116 103 99 85 99 97 91 113 87 97 120 101 95 116 111 107 113 103 113 118 128 113 118 134 132 132 122 126 136 128 111 122 118 120 130 116 124 122 132 122 118 122 122 142 206 377 576 658 650 644 619 590 528 405 405 487 485 383 435 482 501 489 478 446 474 491 499 491 491 495 530 569 553 555 561 573 549 582 559 
75 79 122 103 95 83 95 99 93 101 107 97 109 111 99 107 97 91 93 107 120 107 107 111 120 116 116 111 122 113 118 103 109 124 118 109 126 124 128 113 118 124 120 116 148 272 476 663 667 654 654 648 652 615 590 652 679 675 474 389 470 505 503 482 456 458 456 450 444 448 436 470 497 511 518 538 573 559 575 538 
75 69 85 87 107 89 95 93 91 105 103 101 101 101 99 113 109 97 97 113 105 118 128 126 118 113 122 111 107 126 105 107 103 118 113 113 122 120 111 113 118 116 124 116 164 306 530 681 665 669 640 621 646 650 625 686 723 703 650 489 442 478 483 468 462 472 456 452 450 442 425 460 497 511 514 532 516 509 532 518 
81 81 95 87 93 91 89 89 83 103 118 101 107 111 93 95 97 83 97 91 122 109 107 116 111 113 113 105 116 113 107 99 99 109 120 118 126 111 109 118 111 113 140 130 144 270 526 692 683 660 604 557 627 633 633 681 707 713 692 557 456 446 460 456 452 444 433 433 442 446 431 446 474 483 485 501 464 413 444 482 
81 75 103 91 101 95 81 89 101 97 99 105 101 103 105 107 85 99 113 99 109 124 107 116 120 116 107 101 107 105 113 105 97 109 122 113 116 109 124 122 113 113 116 128 124 214 425 631 662 662 607 530 623 604 615 648 707 702 677 561 438 417 409 431 452 446 429 433 442 438 438 440 440 460 474 482 464 366 389 429 
85 93 95 81 99 101 95 87 93 103 107 111 93 107 103 111 89 97 103 91 118 116 113 116 105 105 118 111 113 116 113 118 118 107 113 107 118 113 103 116 128 132 130 142 122 164 254 446 559 609 623 588 633 567 551 633 677 675 613 505 429 366 364 401 436 435 436 440 435 446 448 433 415 435 462 480 446 360 381 411 
87 81 101 87 93 95 93 83 95 95 101 118 101 109 101 103 95 95 97 101 107 91 101 97 113 103 111 105 111 113 111 107 101 109 116 109 122 113 116 113 144 178 148 152 140 138 154 184 250 290 350 448 444 348 338 464 503 480 476 513 478 450 411 417 436 435 421 417 413 440 435 429 413 419 425 452 440 350 383 415 
77 87 97 85 85 101 83 103 95 93 99 101 107 99 99 91 101 89 99 101 101 101 95 113 109 97 107 105 109 116 107 107 109 109 99 107 120 113 107 124 200 364 308 272 156 152 140 148 158 142 148 156 172 164 166 264 350 377 470 524 499 476 454 433 419 433 413 411 423 446 462 454 442 435 444 472 456 360 391 419 
85 79 107 79 97 77 85 95 91 91 113 101 97 97 89 97 95 85 93 107 95 99 93 95 95 93 99 107 109 113 105 103 109 93 109 107 111 111 107 124 248 436 489 417 316 156 134 134 146 136 138 138 152 132 152 228 431 470 472 482 483 472 458 450 435 436 423 433 444 472 480 462 460 487 489 483 454 372 391 427 
89 87 107 97 93 91 89 99 89 93 81 105 93 97 107 101 93 95 107 97 93 107 103 91 103 91 105 105 107 93 95 107 103 95 109 107 103 111 109 124 232 460 513 528 458 220 132 138 136 120 134 120 138 134 160 316 462 482 482 472 464 440 442 464 462 446 423 456 458 497 495 472 501 532 511 507 478 405 421 436 
93 77 103 81 89 93 87 87 99 97 87 99 101 103 105 91 89 87 83 83 87 93 77 83 85 93 99 111 103 93 91 105 105 89 99 107 109 103 113 142 242 409 532 524 513 324 150 144 142 122 140 118 140 134 146 332 505 495 514 507 497 472 446 436 458 458 458 452 476 483 478 478 545 575 549 503 483 433 436 450 
73 73 105 87 75 87 87 91 77 87 85 89 103 105 101 95 93 87 97 99 107 87 99 97 101 103 105 109 109 107 109 91 93 111 105 101 120 116 120 132 190 415 538 536 520 435 182 152 164 140 134 122 144 140 162 397 499 522 584 619 598 547 513 476 468 478 468 470 466 493 482 487 540 549 534 501 489 444 438 470 
83 87 101 87 81 81 85 93 105 103 103 97 95 101 99 101 95 93 95 103 89 109 101 93 107 99 116 107 116 120 113 118 111 103 111 113 122 124 122 138 130 226 462 505 551 565 356 196 174 158 148 138 152 146 184 403 485 507 545 596 598 536 493 472 482 454 435 425 454 478 450 464 513 501 460 464 482 448 470 491 
75 83 83 87 93 79 91 89 95 89 97 107 89 111 97 111 97 103 97 91 99 107 103 103 103 109 113 122 103 120 116 109 126 113 116 113 116 118 118 128 130 144 232 435 524 602 582 433 248 200 152 142 166 152 182 391 516 565 596 582 547 306 258 290 344 354 336 326 278 268 276 290 356 381 387 401 480 468 476 491 
95 79 97 91 101 99 85 91 99 93 95 97 105 111 107 103 101 111 93 105 109 116 109 109 120 107 124 118 138 124 118 126 113 113 116 120 113 134 136 124 124 130 138 194 383 567 602 609 540 322 190 158 164 172 186 440 623 642 650 627 503 262 206 220 270 282 268 218 176 156 152 146 148 160 178 210 379 460 489 532 
83 93 91 95 87 91 97 89 93 101 87 97 101 99 101 113 93 103 111 101 113 120 101 101 120 107 120 122 118 122 111 113 109 107 120 118 130 130 126 116 122 126 122 146 160 308 530 598 602 596 435 248 200 178 216 507 633 650 623 518 306 178 174 174 192 184 176 156 132 146 113 116 97 91 99 128 338 478 520 526 
83 91 95 97 105 103 97 89 93 99 113 118 107 105 99 111 101 105 95 105 118 124 113 124 132 120 120 122 134 126 109 122 111 116 116 116 140 140 128 126 130 120 138 118 136 174 244 483 602 607 586 544 417 252 310 613 660 629 602 372 192 168 150 156 162 164 154 140 122 130 122 113 111 81 87 93 334 483 545 524 
83 101 107 95 95 85 89 79 87 107 107 101 116 109 103 107 93 101 99 109 120 136 116 111 116 120 122 111 122 122 124 111 128 116 113 136 124 130 128 126 120 126 146 130 140 166 172 212 454 586 594 596 596 542 547 638 635 602 513 262 170 162 142 158 146 168 162 142 126 136 120 111 116 79 65 91 276 474 522 513 
79 107 109 122 89 109 97 97 99 105 99 109 103 118 118 103 116 105 116 118 116 122 116 99 113 116 120 116 124 111 120 105 124 118 113 130 132 130 124 122 126 122 142 128 132 156 158 158 212 421 569 580 602 592 598 604 609 557 354 190 156 148 150 160 160 172 166 150 140 168 156 166 132 120 107 91 274 464 526 489 
81 75 87 97 105 101 101 95 89 109 109 109 89 116 113 97 107 97 93 109 109 120 122 116 120 113 124 122 113 113 113 122 109 126 132 126 126 122 124 134 128 128 140 128 128 152 144 142 164 194 346 528 586 571 582 576 575 452 194 168 152 148 148 152 170 174 170 166 164 240 286 296 296 270 304 292 346 440 472 501 
77 77 95 83 95 83 95 99 91 97 113 85 99 113 105 99 95 105 113 101 111 120 118 113 118 85 126 113 128 113 120 113 109 122 126 130 130 134 130 122 138 130 134 126 130 140 150 148 146 152 178 264 476 563 580 584 503 260 164 166 154 146 162 170 196 220 246 282 310 370 399 425 440 435 448 483 462 407 444 505 
89 79 93 97 93 93 101 95 93 107 101 99 83 111 116 85 91 101 101 107 103 101 109 105 97 109 105 122 120 120 109 118 107 111 122 124 132 138 130 124 128 132 150 134 140 144 138 148 150 146 142 156 204 356 491 491 294 174 136 164 158 154 184 268 350 399 413 419 429 438 440 464 495 483 489 489 472 411 429 474 
87 81 97 103 99 87 93 97 103 95 107 101 95 109 109 95 95 99 93 113 103 113 97 99 107 105 116 111 120 109 109 116 118 101 120 120 126 120 124 130 134 124 138 128 138 150 132 138 150 142 138 142 146 170 170 196 158 160 144 158 162 194 302 409 431 435 429 429 425 427 421 462 526 483 476 476 485 438 435 460 
81 83 101 99 95 81 79 91 97 99 99 103 97 91 93 105 99 89 101 105 97 105 105 107 97 101 118 105 109 116 111 107 103 113 116 124 116 128 122 134 138 122 132 128 140 138 152 156 148 138 144 140 152 142 138 152 160 152 148 144 170 276 391 401 415 429 427 448 436 435 421 458 516 478 483 489 501 472 462 474 
71 81 97 89 87 75 85 91 95 101 97 97 83 101 87 103 101 91 99 89 97 116 99 105 89 91 99 111 107 99 113 103 105 111 124 118 109 134 120 124 128 134 144 120 148 144 140 144 150 144 184 264 300 236 196 164 166 144 144 160 220 372 413 411 395 397 391 433 466 466 452 456 462 450 474 482 466 438 474 444 
73 75 89 89 93 79 75 101 91 77 97 91 101 97 97 95 93 105 81 91 91 97 99 91 87 85 105 113 103 93 103 99 99 120 120 118 109 124 124 134 134 128 146 140 132 144 138 150 152 180 284 483 553 532 483 421 338 182 152 168 324 407 407 377 340 342 356 379 401 415 407 377 370 425 480 470 456 413 435 444 
83 75 83 93 95 83 97 103 105 97 87 87 103 87 105 93 105 79 97 101 101 103 103 111 103 87 113 105 107 111 107 103 118 113 118 120 120 118 122 134 138 130 140 142 132 144 140 146 170 276 413 580 580 569 586 575 576 436 238 258 368 381 344 324 308 324 342 389 368 368 352 358 383 429 462 446 470 413 385 425 
95 91 93 103 89 101 109 105 103 97 113 103 99 107 103 109 93 111 109 113 101 107 113 113 105 111 111 109 120 118 120 118 122 120 126 132 136 136 130 132 120 142 138 138 140 148 150 142 198 326 487 576 596 617 619 596 588 600 518 483 454 366 352 320 322 326 332 334 332 336 318 332 379 413 444 452 464 370 389 381 
95 77 93 97 91 105 97 99 103 116 107 113 113 109 107 113 103 101 118 116 107 107 118 105 111 113 120 130 113 122 128 122 116 126 126 126 134 128 134 134 140 146 150 156 146 158 146 154 202 310 468 516 578 609 604 590 542 549 563 590 542 427 354 328 294 290 286 280 316 334 330 364 389 405 444 480 478 366 379 383 
93 81 107 97 89 91 97 97 101 101 105 97 99 124 101 107 99 111 118 97 99 126 113 111 120 111 126 132 120 113 132 118 118 124 128 130 126 130 136 150 144 142 144 148 134 146 154 156 182 308 466 503 545 617 604 544 505 509 472 565 464 409 354 294 254 240 244 278 314 332 348 372 387 411 413 464 468 395 385 381 
85 81 93 99 95 95 87 91 99 81 95 107 122 118 107 109 109 95 105 103 107 118 111 113 93 111 120 120 122 116 124 124 111 118 122 124 134 132 134 124 142 138 152 128 138 162 146 160 154 228 401 493 524 586 584 569 544 491 464 509 401 346 300 244 236 242 254 304 308 342 370 370 391 415 403 435 489 425 407 391 
87 81 93 97 97 97 93 97 109 103 113 107 107 124 107 120 107 99 116 113 109 122 103 122 111 118 124 111 120 126 120 126 126 134 120 128 128 130 126 134 136 138 144 144 134 144 152 144 150 154 204 288 407 522 545 565 582 559 547 503 373 306 286 270 254 266 256 312 300 350 360 383 375 405 393 419 509 431 413 383 
77 83 95 87 111 85 103 103 95 111 101 113 97 120 111 128 118 97 122 116 122 118 128 111 130 128 136 134 122 134 124 130 122 132 134 128 138 136 132 132 138 140 138 146 142 158 148 150 158 156 162 158 186 232 336 336 360 413 478 407 328 284 248 244 246 256 270 302 292 356 350 366 377 372 344 368 514 433 403 395 
91 93 105 97 97 99 93 103 103 109 85 105 103 99 109 122 116 113 109 116 118 113 111 111 118 122 128 132 130 124 128 118 126 122 138 128 132 134 136 138 150 136 140 122 150 166 144 142 154 132 146 140 150 150 158 182 226 306 328 290 254 264 274 230 238 224 238 264 268 326 314 352 360 358 316 322 448 436 407 393 
69 99 109 111 95 105 93 113 113 103 103 101 103 120 118 113 101 107 113 120 124 113 118 126 118 148 176 182 152 140 132 118 124 134 132 140 132 128 120 138 138 136 140 142 134 142 132 136 152 132 134 140 140 144 154 218 310 330 296 280 256 290 300 244 226 230 232 240 264 302 294 326 350 352 282 302 433 435 415 407 
77 91 95 103 101 83 97 93 122 89 105 95 101 99 120 109 101 103 107 111 113 113 113 105 132 134 220 310 360 308 232 164 146 138 132 134 142 138 126 136 138 162 188 208 210 180 154 170 180 166 160 154 164 200 246 324 326 322 298 286 282 308 308 264 228 224 224 228 256 300 280 318 316 296 260 314 405 435 417 381 
77 81 83 81 95 97 107 99 91 91 91 87 101 103 99 111 103 99 116 111 101 118 116 113 113 126 232 334 373 415 425 383 328 278 282 296 286 284 304 318 383 399 421 444 431 417 403 397 421 431 421 403 419 399 366 358 375 346 306 294 286 298 282 250 204 210 218 232 278 274 278 302 304 284 240 286 370 427 395 356 
79 85 87 87 71 91 97 87 89 91 91 91 101 113 99 95 91 118 107 101 113 109 93 109 120 136 158 206 236 407 462 485 476 483 493 487 485 476 454 493 495 501 509 509 501 497 487 474 478 482 491 483 493 495 452 397 391 403 366 292 254 292 252 228 204 204 206 258 280 270 276 288 286 292 246 262 330 364 350 372 
69 53 81 73 73 69 81 87 77 85 91 97 91 85 77 87 103 91 111 111 97 103 95 101 97 111 122 120 210 436 462 438 452 425 413 436 466 460 431 482 489 489 499 491 491 503 483 466 487 485 482 468 485 485 468 427 389 352 312 298 242 228 258 222 242 234 222 258 262 278 262 278 270 286 246 260 278 298 336 346 
46 69 67 67 77 71 79 75 83 75 95 71 79 79 91 77 89 93 99 91 85 95 101 93 93 91 103 109 140 276 236 198 202 210 180 216 226 252 272 324 348 354 397 381 368 383 379 407 411 433 454 446 464 478 452 458 401 302 272 248 230 212 212 192 238 232 224 242 252 244 242 260 272 274 252 242 258 310 338 334 
51 57 69 67 63 71 73 71 83 79 69 73 89 81 77 83 75 83 91 85 91 91 85 83 97 87 118 105 109 130 124 122 103 118 122 118 130 140 140 154 122 148 166 154 144 172 178 172 186 212 244 262 284 294 284 272 236 198 160 132 101 91 101 71 93 134 156 190 204 226 234 264 254 276 268 254 292 296 322 330 
46 46 73 53 65 61 61 77 55 61 63 73 71 81 73 73 75 69 75 77 81 87 87 83 85 89 93 97 93 79 83 93 95 99 97 87 99 118 103 116 101 111 118 109 107 130 122 109 116 107 111 116 126 122 99 107 107 85 83 59 48 42 30 28 28 36 83 148 126 146 168 210 240 242 268 246 276 292 312 296 
57 57 67 71 67 61 87 67 85 67 75 79 67 87 85 71 71 85 83 75 77 91 73 71 81 69 99 73 63 79 81 77 71 71 81 75 97 99 91 93 83 85 91 91 89 105 95 87 93 89 83 75 71 69 67 63 67 55 63 51 16 22 4 0 18 8 18 53 46 71 91 99 113 158 208 252 274 276 318 324 
77 73 81 79 75 77 89 99 71 73 69 95 77 91 83 83 79 75 89 83 83 91 95 95 103 103 99 87 105 89 99 95 75 87 97 97 105 91 85 95 99 85 97 95 97 116 99 83 95 91 79 79 83 73 77 63 69 48 57 63 44 34 16 14 30 28 22 32 32 36 34 36 34 30 44 156 236 266 314 286 
61 83 91 81 85 73 83 69 75 83 93 75 89 95 87 83 75 95 105 95 99 93 87 91 101 91 101 105 93 103 109 91 99 95 97 105 99 109 93 95 87 103 89 103 91 97 101 95 107 79 91 89 81 81 73 67 75 69 67 51 38 32 38 24 30 40 32 42 34 44 42 32 22 22 36 91 168 226 298 280 
73 79 97 65 87 79 77 77 81 87 89 97 87 85 85 87 85 95 89 111 109 99 103 105 103 105 99 109 113 105 107 109 93 91 105 99 87 101 99 93 101 101 107 95 103 111 111 101 118 97 93 89 97 87 69 91 83 77 77 63 48 38 46 57 53 65 53 63 69 75 89 95 89 89 65 59 120 166 270 262 
75 79 93 107 95 79 103 105 75 85 95 99 93 95 99 105 87 83 93 107 103 113 109 111 111 105 105 118 109 101 99 97 99 105 103 120 99 111 107 118 105 99 103 105 101 116 113 105 105 103 83 107 99 91 89 91 103 95 87 87 73 57 65 69 79 93 79 79 87 105 124 111 111 91 77 63 77 79 150 218 
83 93 79 95 95 107 105 103 89 91 107 107 91 109 109 103 101 85 118 105 109 116 120 97 109 113 116 132 113 118 99 107 107 105 103 118 105 118 109 99 111 95 116 105 118 126 116 116 128 113 101 116 124 118 109 120 120 122 103 105 93 91 101 89 93 87 79 97 83 105 101 105 97 71 69 67 77 53 113 152 
77 75 73 89 103 103 111 81 93 109 93 95 99 103 107 103 107 87 101 97 101 113 107 122 107 109 122 111 113 105 105 107 109 113 113 105 116 109 101 109 116 124 107 101 105 109 113 111 120 128 111 116 136 146 132 130 140 132 105 124 99 97 105 101 103 107 85 99 89 91 89 79 89 65 77 77 101 65 111 126 
77 79 83 81 91 95 93 93 85 87 83 99 93 120 99 122 103 91 97 99 105 107 107 109 116 109 134 109 113 107 124 116 105 111 111 113 118 122 116 111 111 122 116 113 120 140 136 148 136 134 144 150 136 148 140 136 146 122 107 101 103 77 83 105 120 111 107 93 97 107 95 101 109 81 77 91 105 53 99 116 
69 67 99 83 99 85 99 87 89 97 93 111 99 109 103 113 95 107 113 103 109 105 113 116 124 101 124 122 124 126 122 111 122 126 122 113 124 124 122 134 116 134 138 130 134 158 148 162 160 146 152 148 142 140 144 146 148 136 128 130 93 97 93 105 124 116 111 120 91 97 91 101 111 81 81 75 99 63 91 85 
65 83 116 107 95 93 91 83 89 103 99 91 91 109 111 103 99 105 111 109 105 111 116 107 120 116 118 118 126 136 138 132 136 142 126 150 140 132 140 128 144 154 134 148 150 152 156 140 158 144 128 132 136 148 122 136 142 130 107 116 99 101 99 101 109 103 113 105 101 99 95 91 107 87 99 93 93 77 105 91 
77 85 99 91 93 79 79 89 91 99 97 111 95 118 113 116 95 95 118 107 128 111 99 113 128 101 116 134 130 144 140 146 150 146 134 148 156 136 142 140 138 144 140 138 146 152 138 140 152 132 134 126 124 136 138 130 136 138 122 111 124 95 99 105 103 103 103 95 103 116 105 107 128 97 120 95 107 89 101 109 
77 109 97 93 109 95 87 122 107 103 99 118 107 109 120 109 99 103 124 118 103 116 120 113 120 118 128 124 138 144 148 150 154 128 150 164 142 140 140 136 134 150 136 150 136 148 150 138 138 130 126 113 134 132 132 116 148 164 148 126 118 118 105 113 122 116 113 120 101 111 113 136 116 122 91 109 130 95 103 91 


