P2
80 60
625
83 67 57 61 67 49 45 47 49 59 49 49 59 53 45 61 59 53 59 55 33 55 47 65 55 45 45 47 51 59 59 65 63 61 65 65 61 49 65 73 67 61 63 69 57 65 57 55 57 61 59 59 61 67 59 61 61 55 65 77 91 81 103 87 71 65 63 67 65 67 61 53 63 63 65 69 83 105 203 382 
73 63 55 63 53 49 47 45 45 63 59 49 51 47 41 63 69 63 41 51 35 55 57 55 47 57 47 57 39 53 53 51 63 59 63 71 59 71 69 59 49 47 61 63 55 59 65 51 57 63 65 73 53 69 75 71 59 67 85 71 83 101 113 91 101 83 95 87 93 89 67 61 85 57 89 93 153 201 353 446 
53 63 51 67 87 53 49 53 49 55 51 51 53 47 45 43 65 61 53 53 47 59 47 61 59 57 67 65 63 61 51 63 57 61 67 67 79 55 73 71 69 57 61 75 63 67 71 83 57 67 75 75 73 79 69 83 93 105 93 109 115 109 129 113 129 121 121 111 107 115 99 115 137 151 171 199 255 345 460 452 
75 67 53 69 61 51 53 63 47 55 41 51 49 57 51 51 73 57 49 51 51 47 49 61 71 59 69 83 67 69 67 79 65 67 61 59 67 75 63 65 65 63 73 71 79 69 77 69 73 79 61 81 93 95 93 85 99 113 135 113 141 151 157 171 189 203 219 213 207 223 251 269 278 292 288 272 337 427 462 462 
63 57 53 69 59 45 43 57 49 51 57 51 53 51 57 55 57 61 55 53 41 63 49 53 69 59 47 69 65 79 63 77 67 87 65 71 79 61 61 67 57 65 69 75 63 75 77 69 71 75 71 91 93 109 99 125 159 207 249 249 251 286 308 343 347 390 400 382 367 375 367 363 355 345 330 334 408 477 481 460 
75 69 59 63 71 45 59 49 47 59 63 71 55 43 61 57 67 59 55 63 65 73 55 61 73 77 71 77 81 73 81 65 83 75 79 69 81 81 75 81 75 67 87 67 73 77 77 93 87 91 97 115 117 153 219 304 377 417 499 464 377 394 415 410 392 421 421 423 419 412 404 406 408 384 357 363 439 483 474 475 
59 65 53 67 59 47 49 55 49 51 63 67 59 55 61 65 63 69 61 69 59 65 63 59 59 61 67 73 63 83 69 71 81 67 71 85 67 77 75 77 79 81 79 87 81 83 83 91 67 91 127 153 231 337 381 431 444 501 547 474 365 410 415 412 417 419 410 392 417 410 396 404 396 388 355 349 417 477 483 450 
67 65 55 55 75 69 49 73 53 63 67 45 69 71 55 73 63 57 65 67 63 63 49 61 55 53 67 77 67 77 75 83 77 83 71 69 77 83 81 75 79 87 97 89 83 85 91 97 85 123 199 373 433 454 441 464 493 530 545 514 460 437 423 425 419 415 388 369 386 417 421 423 415 415 377 341 382 425 448 433 
71 45 63 59 61 65 47 55 57 73 57 65 65 47 51 61 65 55 55 61 51 57 61 53 63 63 57 61 67 67 63 77 71 69 77 69 77 73 63 75 85 77 73 91 79 99 91 91 103 173 415 491 487 481 460 474 485 487 524 487 441 423 404 408 400 402 394 353 371 396 427 433 413 384 361 316 332 359 404 415 
53 67 69 53 51 69 65 53 57 69 59 63 59 61 77 65 57 63 67 59 71 61 69 41 61 69 65 55 75 71 65 71 75 79 87 71 77 69 71 87 77 63 93 87 79 89 83 107 137 363 512 522 512 441 388 330 361 404 433 413 402 417 396 394 410 388 388 369 361 361 386 408 384 369 328 296 314 318 345 386 
53 55 71 69 63 49 61 47 71 47 59 65 47 55 65 65 73 57 65 63 59 59 47 65 65 53 81 75 75 71 79 87 65 69 67 71 69 73 69 75 81 73 75 85 83 91 103 113 231 493 545 528 456 292 241 217 290 359 367 347 381 410 413 425 429 406 382 369 359 375 359 363 363 347 308 278 310 308 314 361 
61 63 69 65 53 55 59 49 53 61 53 57 43 55 63 67 59 55 53 51 63 63 63 51 65 73 55 55 73 69 75 73 71 71 67 71 83 81 67 73 79 69 75 95 83 95 113 159 408 551 553 526 470 512 466 466 483 526 530 485 462 423 415 406 396 392 400 394 384 384 381 355 324 351 304 257 308 326 334 351 
67 59 61 41 67 51 53 51 57 55 61 59 47 51 57 53 65 67 39 57 55 47 65 57 67 57 73 59 65 75 67 73 83 67 69 67 79 73 73 75 77 73 89 93 97 107 133 298 505 549 532 501 578 572 566 557 562 547 593 597 572 458 404 357 355 377 384 396 394 406 381 361 345 349 334 306 318 334 353 349 
65 69 57 57 53 45 59 45 49 47 73 55 53 53 53 39 57 67 57 63 51 63 53 53 55 55 61 61 51 71 71 77 65 69 67 61 79 67 63 65 81 81 95 91 103 111 221 464 532 528 526 597 597 597 580 578 591 549 572 620 622 549 433 412 394 379 392 388 384 392 396 373 349 375 349 318 337 343 367 369 
71 57 59 59 75 47 67 41 51 47 65 49 49 43 47 55 59 49 49 57 55 65 59 45 53 57 55 61 63 77 81 77 63 71 69 69 59 79 73 75 95 85 103 107 169 286 441 522 518 429 543 625 576 625 591 545 541 561 574 606 582 491 495 470 439 419 404 392 377 384 382 381 359 371 359 343 355 347 359 384 
75 61 55 59 55 61 51 47 55 55 49 39 57 51 57 49 51 57 51 53 57 39 61 55 39 53 49 55 49 61 61 61 55 67 65 53 63 63 67 83 85 83 123 263 448 501 485 485 419 335 510 623 589 610 595 572 572 570 530 510 406 429 464 435 437 392 375 371 353 365 355 381 357 379 351 335 359 363 396 415 
59 47 59 39 69 51 47 49 49 31 47 59 53 37 45 59 53 49 37 43 51 43 39 51 59 31 39 43 33 47 49 61 65 57 57 69 67 65 71 83 109 95 203 456 518 516 526 435 231 267 419 622 620 618 616 580 570 493 466 421 371 388 421 406 369 357 351 359 355 355 355 337 341 369 359 335 379 381 415 441 
41 53 31 41 53 55 41 41 41 45 49 39 55 41 57 47 57 55 53 51 43 37 35 53 55 47 59 57 51 65 59 51 65 71 63 61 79 75 81 81 93 115 294 512 522 499 483 276 131 205 288 499 604 555 508 406 302 272 448 464 419 400 365 371 384 367 359 355 337 332 300 278 255 288 310 347 413 413 431 446 
67 65 49 59 45 49 47 41 63 31 49 35 41 51 53 55 61 53 53 47 35 37 43 47 53 57 57 49 59 73 59 73 77 65 65 63 89 65 77 79 127 227 379 475 499 456 288 111 99 131 203 314 460 379 195 125 135 263 444 452 485 472 388 357 351 308 276 233 199 183 159 149 131 125 173 269 419 431 458 462 
75 61 39 51 57 37 43 41 55 53 67 53 43 31 45 59 45 65 53 49 61 47 53 59 59 59 55 67 57 71 67 71 71 67 77 75 79 75 77 105 201 245 276 377 441 243 125 93 103 95 107 139 163 121 107 111 139 257 456 479 501 497 466 326 229 175 173 149 147 135 123 103 101 113 117 183 412 448 460 479 
67 73 45 59 69 63 39 63 59 61 57 53 57 63 49 51 63 61 53 55 51 63 65 75 73 61 61 67 65 81 77 81 79 81 91 75 77 91 81 105 183 191 171 379 271 121 105 111 89 103 93 105 99 107 105 111 141 341 549 545 559 532 446 219 167 147 153 155 131 127 109 107 107 91 93 157 400 462 475 475 
55 69 59 59 57 59 67 57 57 59 55 53 67 59 49 69 67 61 55 57 55 57 65 57 71 57 59 73 67 75 85 75 77 71 79 67 91 83 83 101 97 133 215 255 107 81 99 101 95 97 93 89 99 99 109 119 223 454 539 536 541 479 335 201 159 143 139 119 113 121 111 95 101 83 107 129 365 477 472 460 
65 63 53 53 63 43 59 57 55 51 55 51 61 53 49 57 65 75 55 49 47 59 69 65 67 67 59 67 75 69 75 79 73 85 73 73 91 69 75 83 101 153 131 111 101 89 97 103 99 99 101 97 97 115 121 187 431 520 534 510 510 341 179 155 185 157 131 121 119 111 97 83 97 75 81 115 367 454 431 462 
65 53 59 63 63 53 53 51 61 65 71 55 63 69 65 63 61 69 49 63 57 69 71 71 65 65 61 65 75 69 67 87 79 69 73 75 83 83 73 103 123 302 296 157 123 105 105 109 89 103 111 111 141 167 191 371 530 510 526 481 390 251 181 241 223 147 139 123 117 115 101 89 95 75 73 103 334 423 412 443 
75 69 69 79 67 71 65 59 61 67 59 61 51 61 65 63 79 59 55 53 63 71 55 63 69 65 73 55 63 57 63 73 85 83 81 77 93 67 63 107 161 217 408 448 318 191 119 135 121 137 155 229 361 444 483 510 512 487 474 345 288 251 280 335 233 173 135 125 135 109 97 103 89 75 77 87 334 386 400 425 
77 59 43 61 61 65 63 53 61 67 57 49 59 65 59 57 69 67 47 61 63 61 67 69 55 65 61 67 73 67 59 75 63 69 63 63 77 71 77 143 314 390 458 514 503 474 388 308 343 412 460 506 514 528 518 510 503 421 274 209 272 312 367 347 251 165 151 131 185 203 185 189 183 163 173 143 324 357 379 398 
63 69 57 57 51 57 69 49 55 59 59 47 53 59 55 73 63 49 59 55 55 65 53 71 73 65 65 55 71 59 73 61 61 63 71 83 71 73 89 107 115 137 328 526 524 508 481 474 503 524 543 539 526 503 505 468 404 209 153 209 322 384 404 365 259 175 141 137 215 267 308 292 292 290 278 272 373 363 371 388 
79 63 59 57 61 49 47 73 53 57 51 59 51 69 53 59 57 65 55 63 51 61 51 49 47 63 67 67 71 67 65 71 69 61 73 73 79 79 93 83 95 95 231 472 505 506 503 470 479 489 489 464 446 384 278 193 161 139 177 247 371 415 410 386 280 195 151 147 205 282 314 326 302 288 300 284 371 406 384 371 
73 57 59 57 59 51 43 57 59 61 77 75 59 57 65 63 63 53 51 59 47 61 55 55 65 53 47 65 67 51 65 77 63 65 63 81 87 75 73 89 93 89 103 193 251 310 298 209 183 167 169 151 137 133 101 99 121 145 288 369 412 450 410 404 357 227 185 179 217 269 284 286 292 282 296 280 335 413 382 386 
65 39 57 61 63 59 47 57 59 65 59 47 63 49 55 57 51 53 51 51 53 63 59 53 61 57 47 61 59 55 63 65 53 57 65 73 69 79 71 93 95 71 89 103 113 109 117 95 101 91 95 103 97 93 85 101 111 207 373 371 386 413 410 417 390 351 298 278 298 280 274 286 290 280 280 300 314 345 377 363 
67 47 57 65 61 57 47 45 55 49 67 43 43 51 45 47 45 43 53 51 57 53 43 53 55 55 51 47 47 55 57 65 59 61 65 61 71 75 57 79 87 73 89 97 97 85 83 85 97 79 103 89 103 91 83 91 111 249 369 371 404 386 402 421 410 384 335 312 308 302 296 292 326 314 330 330 347 318 296 322 
63 57 41 57 69 51 57 59 45 45 53 53 47 39 41 53 47 49 47 45 59 43 59 43 45 43 51 37 59 55 61 41 57 57 63 65 59 67 73 91 93 91 81 93 87 81 85 95 91 79 87 93 87 95 87 87 137 278 384 371 390 406 419 427 396 398 369 326 324 320 310 318 320 345 349 355 357 310 302 298 
63 65 49 57 63 53 49 63 43 53 47 41 55 49 45 47 61 47 51 45 43 53 59 55 59 59 47 57 55 63 49 57 61 61 71 67 67 79 79 91 97 83 87 101 83 87 85 91 89 91 91 99 121 113 95 111 121 227 373 377 396 381 373 347 334 359 375 351 343 318 328 332 335 335 355 345 343 310 286 290 
63 69 53 61 63 79 65 49 61 61 57 49 53 59 57 63 55 65 59 61 53 69 65 49 65 59 71 61 73 65 67 67 73 69 71 65 67 85 73 93 101 95 89 103 85 89 99 89 85 95 117 105 115 129 127 119 125 237 377 359 363 339 308 298 302 343 345 343 343 326 341 334 308 337 335 324 328 312 294 272 
69 67 57 73 63 65 53 51 61 61 75 61 57 65 57 57 65 65 67 57 55 59 45 57 71 63 69 75 75 63 67 59 73 63 63 73 79 81 85 101 109 105 83 101 89 91 87 93 111 135 177 205 251 245 278 241 147 276 390 353 339 328 300 282 294 296 306 322 334 355 381 337 330 334 324 298 298 296 272 271 
65 55 53 59 67 49 65 57 63 65 53 61 61 59 53 59 65 59 61 69 65 69 51 59 79 57 59 57 59 77 75 85 59 69 75 79 79 83 75 91 91 87 95 97 87 91 93 83 95 217 359 427 477 505 510 497 454 462 456 377 339 353 310 274 267 265 263 288 324 379 394 359 335 328 306 263 288 276 253 269 
65 57 57 69 59 63 69 59 69 51 43 45 53 47 53 71 53 61 45 67 63 69 51 63 59 73 73 67 77 61 63 71 67 69 69 77 73 83 81 95 93 81 97 99 85 93 89 107 161 296 489 481 499 534 510 510 549 528 553 489 415 349 316 282 257 231 243 272 334 384 384 349 339 318 290 265 274 245 235 253 
69 55 47 59 67 57 59 51 55 51 53 57 59 49 53 63 61 71 65 67 61 55 65 63 81 63 67 63 67 75 79 81 65 67 63 77 77 75 69 79 87 83 73 93 77 79 87 103 183 320 483 489 505 510 475 458 483 489 510 493 419 335 330 280 249 235 241 261 335 388 367 339 322 312 282 267 261 241 241 237 
69 61 57 59 57 63 61 69 51 53 61 67 49 65 67 75 67 67 51 73 65 55 63 59 69 77 67 77 79 63 69 79 73 73 71 75 77 81 77 79 75 83 81 85 59 93 81 101 169 292 413 433 510 506 448 384 413 419 456 460 355 341 312 263 237 241 235 231 310 375 339 316 330 300 272 253 253 251 233 233 
63 77 59 63 55 43 57 55 45 69 55 45 45 59 57 67 61 67 59 69 69 55 67 59 67 67 61 67 69 69 69 79 85 69 77 69 81 67 67 81 79 79 65 79 85 67 69 77 109 235 353 402 475 543 495 435 437 406 468 466 365 326 316 257 227 221 221 223 306 353 294 282 306 271 261 245 280 261 229 239 
61 77 71 57 53 63 57 59 61 55 59 57 67 71 53 75 61 61 49 73 69 63 61 55 63 67 65 73 77 69 71 69 73 75 61 63 63 73 77 73 67 71 67 93 71 77 75 65 75 165 324 369 423 489 474 456 468 421 381 367 355 320 300 227 229 229 215 233 304 361 265 259 274 255 259 249 312 259 239 241 
63 55 45 59 63 47 41 63 73 57 65 55 55 51 67 69 57 69 59 57 61 47 49 53 65 57 63 77 69 63 63 63 65 69 59 59 65 75 77 69 67 61 67 77 63 63 55 77 65 91 131 181 267 306 347 343 298 191 217 312 316 292 263 229 227 245 235 211 274 332 239 227 259 247 272 382 384 271 239 241 
55 57 55 47 67 51 41 41 57 55 63 61 55 57 57 61 67 67 65 51 73 57 57 55 67 65 63 51 59 55 53 61 67 65 57 67 71 57 63 65 61 63 49 81 55 49 59 61 49 57 69 63 107 87 87 113 87 79 167 276 324 269 239 231 205 253 261 251 278 314 241 233 249 249 288 477 458 292 249 225 
71 59 57 43 47 51 51 33 51 49 45 51 53 57 37 57 43 45 55 73 51 47 51 53 59 59 51 57 53 57 51 61 57 63 71 59 73 61 63 61 67 67 57 69 61 53 55 55 55 65 65 51 89 61 43 43 59 67 139 282 339 308 259 231 207 243 274 274 253 249 253 237 253 245 292 518 462 310 239 245 
37 47 27 37 49 33 49 43 53 59 55 39 49 61 49 41 63 49 61 53 47 47 55 57 47 67 47 53 55 63 51 55 57 61 51 59 49 57 49 45 57 49 57 63 43 63 61 55 43 49 57 37 59 37 55 21 37 53 83 239 345 306 265 251 241 276 292 286 245 199 239 255 253 245 290 495 452 298 253 251 
39 35 17 39 45 29 27 53 43 43 49 39 45 43 47 39 51 53 41 55 45 31 49 51 55 41 43 43 47 47 61 57 39 45 43 49 55 51 57 45 53 47 47 57 39 39 41 47 47 41 47 31 45 35 25 53 77 73 65 175 320 318 292 296 282 290 324 312 308 243 221 267 267 241 282 444 379 276 249 259 
35 29 27 27 49 25 29 41 45 35 39 27 47 21 37 37 41 39 29 41 43 43 33 39 53 45 41 33 37 63 43 57 25 51 53 53 49 53 51 65 51 41 51 49 39 47 43 47 35 45 51 39 51 77 71 105 247 245 185 203 292 328 322 312 302 335 341 363 390 355 300 267 261 239 282 431 347 272 263 247 
21 29 19 19 25 21 15 37 37 33 27 29 21 45 25 37 29 35 33 47 27 29 37 37 37 33 33 47 31 43 35 49 41 51 39 43 41 43 37 53 47 33 41 55 33 43 39 43 33 25 41 37 37 69 161 207 302 284 304 271 300 357 337 347 347 361 379 379 394 386 363 357 300 245 286 425 320 247 267 239 
35 43 35 45 41 17 19 25 41 29 29 19 27 35 25 21 29 35 19 27 35 39 23 23 33 21 33 25 15 31 27 23 33 15 33 23 29 31 33 21 15 15 23 35 21 17 25 25 17 10 17 10 0 25 15 109 229 269 259 219 225 278 320 328 373 396 390 382 390 375 375 361 353 241 223 371 267 231 229 225 
51 55 31 45 37 39 31 27 31 35 31 43 61 53 41 37 41 39 39 27 47 43 27 39 27 47 41 43 49 53 31 47 41 43 35 37 45 37 29 23 45 21 31 47 31 43 27 21 23 31 12 12 27 8 6 15 57 77 67 59 71 103 183 263 332 371 377 384 390 388 386 371 361 257 107 131 123 187 213 191 
57 53 41 51 55 31 37 55 39 53 57 31 41 35 41 31 37 59 45 51 53 43 27 47 47 39 45 61 57 77 67 53 61 61 41 41 37 47 29 41 37 49 35 49 35 49 37 27 21 21 43 19 29 19 25 21 17 15 33 15 25 47 61 99 155 251 304 371 396 379 384 361 337 223 97 53 67 105 159 179 
63 47 39 31 51 55 37 39 43 61 43 35 33 43 49 45 51 57 59 45 51 45 57 51 47 47 41 59 63 75 45 67 63 53 45 39 53 43 47 45 51 27 41 59 35 45 41 33 41 43 33 33 21 35 19 45 31 21 23 15 29 49 63 79 83 103 133 221 304 328 308 288 247 133 75 59 59 47 87 119 
57 53 49 61 61 57 49 55 45 59 57 51 51 43 51 55 61 57 47 55 51 61 55 57 55 53 67 63 65 65 49 67 57 57 61 49 49 49 47 47 53 37 39 53 45 51 37 45 37 35 37 39 51 47 27 37 35 25 39 41 45 71 73 103 101 107 111 133 157 145 147 137 127 113 69 51 67 45 63 63 
53 59 45 61 59 63 45 51 57 61 57 51 45 67 55 61 69 51 63 61 71 63 71 67 79 69 63 69 67 63 57 69 49 67 69 59 57 57 53 51 61 45 45 61 63 43 47 51 39 43 43 55 41 41 35 53 43 47 57 67 67 93 101 101 101 85 97 107 109 115 125 89 105 61 67 67 77 59 49 51 
71 69 55 55 67 55 53 53 67 53 43 49 41 53 57 61 63 61 57 65 65 69 43 69 67 57 59 55 53 67 51 67 53 67 77 59 61 57 63 55 47 47 53 39 55 43 57 45 41 61 57 31 55 57 49 49 49 53 69 73 79 95 101 109 97 119 97 109 119 103 95 99 85 67 73 61 91 75 59 53 
69 57 63 61 79 61 49 53 57 57 65 67 59 67 69 57 71 65 75 71 79 59 65 73 71 61 65 65 71 71 79 75 71 67 69 71 81 59 63 63 49 49 59 61 51 51 47 55 45 57 65 55 51 63 47 47 51 65 75 71 83 75 95 111 105 117 111 121 131 113 87 115 91 79 77 59 87 73 57 39 
77 79 59 65 73 43 49 53 55 81 45 63 77 67 57 69 77 63 73 65 71 65 59 67 71 69 61 67 77 65 93 73 73 75 51 65 81 65 65 67 51 65 51 77 53 53 57 55 57 51 63 63 65 69 53 65 61 59 75 71 79 79 111 91 109 131 101 123 111 97 91 85 87 61 67 71 87 59 55 37 
65 59 67 73 73 73 51 69 47 75 79 59 51 65 79 77 73 59 61 61 59 71 69 63 69 75 75 67 65 81 67 75 67 73 73 69 59 65 63 57 67 63 45 79 59 67 57 51 59 65 59 65 53 77 59 71 59 81 65 73 77 87 91 99 105 111 95 97 85 81 67 79 91 65 89 77 97 75 65 37 
63 71 55 65 65 61 59 43 57 49 51 47 69 63 67 73 63 69 61 61 71 63 63 61 77 67 65 85 63 69 69 73 71 77 67 69 71 57 59 59 65 63 67 69 59 51 69 59 61 55 69 59 65 91 63 59 69 73 69 57 89 91 93 99 95 89 89 83 85 69 67 79 83 73 99 83 91 81 47 47 
67 75 59 71 57 67 41 67 79 61 61 59 61 69 61 63 67 63 77 69 77 73 73 81 81 71 73 81 77 79 79 79 69 61 79 75 77 77 57 73 79 75 65 87 43 57 59 77 65 93 81 73 83 101 71 75 67 73 83 81 91 85 81 95 95 97 89 89 83 79 85 91 93 75 93 91 97 93 71 55 


