P2
80 60
849
100 120 138 128 114 126 118 144 187 383 525 542 521 517 483 481 445 389 341 325 313 391 365 359 371 403 419 431 413 405 399 385 373 381 381 359 365 369 391 417 455 584 641 641 629 605 599 584 550 519 517 411 353 397 540 601 633 664 656 650 641 644 652 664 687 706 674 648 609 582 552 536 441 270 232 268 274 285 283 291 
106 116 110 130 110 118 130 147 193 419 529 534 552 538 505 487 437 375 331 297 295 345 357 381 395 405 423 443 445 427 411 431 431 385 363 361 345 373 365 381 419 473 594 617 623 597 592 578 558 531 469 353 319 365 405 495 582 625 643 639 637 639 648 664 662 658 623 586 546 556 570 574 542 319 220 238 236 270 279 252 
98 112 120 124 116 108 126 147 205 415 531 566 574 536 511 475 415 369 353 315 295 303 339 415 425 417 425 425 441 449 427 395 413 429 403 381 381 383 393 389 389 421 491 578 609 597 588 564 554 505 353 313 341 347 365 367 465 548 588 605 617 623 641 646 633 609 584 562 536 542 568 588 550 345 212 214 222 270 268 254 
102 110 126 132 114 110 136 144 234 425 509 558 552 533 511 491 479 425 371 301 305 353 415 451 447 433 431 437 417 445 451 427 381 391 403 407 401 407 403 425 415 427 485 558 588 605 584 538 499 433 325 299 319 379 359 337 375 423 513 564 596 621 627 611 584 588 568 558 544 540 564 582 546 355 209 207 207 230 252 262 
95 124 136 130 124 120 138 161 240 493 556 554 550 534 536 544 544 499 371 365 425 457 449 477 459 459 457 457 455 455 435 431 401 375 373 367 399 403 389 421 421 431 481 544 576 592 596 527 475 379 309 274 281 323 335 333 343 345 381 469 550 597 597 576 568 564 562 554 546 531 533 548 525 351 193 207 224 244 270 277 
108 128 128 130 128 132 142 144 246 533 592 570 570 566 564 568 556 546 475 467 497 491 487 489 471 469 473 473 469 463 463 443 423 395 355 337 337 377 379 399 405 429 447 523 572 564 560 548 507 485 395 299 283 291 303 305 301 287 283 311 461 552 554 552 554 542 544 542 533 519 507 515 483 355 209 252 295 283 295 258 
112 120 132 124 128 132 122 151 226 497 621 619 580 556 548 552 550 544 515 515 527 495 503 495 491 481 481 481 469 471 483 455 447 427 403 363 349 345 341 351 375 399 425 479 576 556 509 576 584 605 601 413 277 274 307 295 287 281 264 254 317 467 519 538 527 540 550 540 534 525 517 495 439 361 236 293 301 289 272 236 
112 106 122 124 120 116 120 157 171 401 607 615 588 546 529 531 513 509 507 483 523 513 493 493 495 483 479 471 469 461 473 447 443 443 415 389 371 347 343 321 319 329 333 405 566 572 485 445 483 572 625 481 309 293 325 307 293 266 248 254 297 333 469 527 536 533 533 540 521 497 501 479 431 355 234 281 289 268 238 207 
110 112 136 128 126 132 126 142 157 252 523 588 552 533 503 489 485 491 491 497 499 497 511 483 481 473 467 461 459 445 431 435 431 443 429 401 395 391 361 345 329 323 299 311 399 534 548 405 393 419 497 475 327 297 329 305 297 283 262 264 274 295 387 485 523 538 529 531 519 515 505 489 437 353 228 256 230 234 212 195 
116 126 130 138 138 134 134 138 151 203 441 531 519 513 483 483 479 481 485 487 477 489 495 471 481 477 469 441 443 425 429 421 433 443 425 405 399 393 377 363 357 343 329 303 299 315 427 397 371 331 357 359 309 307 301 293 295 291 264 262 268 315 305 361 471 527 540 540 531 525 515 497 445 367 214 230 205 203 183 187 
142 151 173 155 165 169 155 169 169 230 379 481 511 503 483 467 467 471 477 483 475 475 485 465 469 465 463 443 415 399 409 425 417 431 413 397 403 385 383 375 361 341 317 313 293 270 254 260 295 279 303 321 301 289 307 295 297 295 270 272 281 307 277 283 375 489 525 544 544 534 513 509 461 385 222 214 189 189 177 177 
214 242 287 281 343 363 331 266 299 361 337 355 425 499 513 507 495 483 481 497 483 485 467 455 455 453 447 425 419 393 403 413 411 407 405 389 377 371 369 365 347 331 315 309 295 277 252 240 240 222 262 305 299 285 287 317 299 305 289 283 289 283 262 281 281 379 489 519 536 531 515 501 475 399 207 193 181 177 179 161 
461 515 531 525 550 568 542 546 550 529 405 327 323 381 485 519 515 515 501 511 499 487 465 439 439 431 439 411 399 375 397 405 401 401 389 387 379 365 357 363 343 335 305 297 291 270 258 242 226 212 218 240 264 285 315 327 303 309 305 303 291 274 256 254 248 277 363 479 533 534 523 507 477 399 205 185 171 181 169 161 
594 644 639 584 568 586 597 641 633 599 574 483 355 285 351 487 517 531 513 505 499 477 477 437 447 439 425 393 385 385 403 415 409 411 395 381 371 367 355 355 345 323 303 299 283 270 256 242 234 224 228 226 222 252 293 331 323 335 325 323 313 258 250 256 252 250 258 351 463 517 513 507 487 405 195 161 167 177 163 177 
635 648 662 631 592 607 668 708 706 666 625 582 588 427 317 417 479 515 509 515 511 503 473 437 457 445 431 395 383 391 411 417 441 443 427 395 389 375 363 357 339 327 305 285 274 270 256 238 236 226 226 218 207 214 228 289 335 365 341 335 319 266 238 258 246 252 262 274 325 417 475 481 471 411 195 159 161 171 171 179 
619 590 643 691 664 666 699 716 732 710 650 601 646 664 483 355 393 467 479 485 489 495 485 467 469 457 443 415 401 391 401 415 443 465 455 445 433 419 409 409 375 345 323 295 293 266 266 238 238 222 228 230 207 209 224 250 369 373 353 339 351 313 256 240 236 258 256 268 285 307 361 413 423 409 209 169 161 183 167 171 
601 594 691 724 697 722 660 683 703 701 643 572 621 708 643 407 319 383 419 437 445 445 453 463 481 485 465 435 419 403 409 417 437 445 437 445 469 467 451 447 437 421 367 357 335 321 295 266 246 234 228 216 220 224 224 240 337 371 369 389 385 347 303 266 268 274 264 279 307 315 337 349 351 353 191 165 167 173 171 157 
681 664 732 720 681 672 668 675 658 693 652 586 613 714 691 542 459 371 327 339 349 355 355 375 449 489 483 449 421 427 425 427 445 449 433 431 441 449 439 435 433 437 417 407 393 363 341 321 303 258 236 224 220 222 224 238 305 361 377 395 379 329 311 309 289 309 319 329 337 355 357 361 341 325 185 177 163 185 187 183 
726 716 685 662 609 623 596 658 639 666 637 574 584 658 677 670 641 570 369 287 268 283 299 303 375 485 457 471 461 459 459 459 455 465 455 443 437 421 407 413 403 389 381 389 381 351 343 343 305 277 268 262 238 238 242 242 270 323 307 317 305 281 279 281 323 359 339 345 361 367 363 353 359 331 199 195 169 183 189 185 
716 728 685 664 639 666 664 641 714 679 637 556 507 499 485 507 544 509 393 423 433 401 391 399 445 505 453 471 457 481 469 487 489 497 489 473 467 447 425 413 395 373 363 359 347 331 327 321 311 285 281 283 264 270 264 246 246 287 303 281 279 277 289 311 375 357 325 359 363 373 371 375 383 355 224 205 179 183 203 191 
668 687 670 703 703 691 689 664 689 699 644 491 240 157 189 281 299 303 361 455 501 501 507 493 507 493 479 479 455 469 445 481 497 501 485 479 469 445 453 431 419 389 359 347 343 337 337 327 321 303 323 329 337 329 279 260 301 365 357 359 323 301 295 363 371 359 337 359 375 373 387 379 365 367 260 230 224 212 220 207 
607 617 597 650 646 613 644 666 637 586 495 258 138 110 114 138 159 220 264 451 467 477 475 493 479 471 459 459 453 451 447 445 469 465 465 451 449 445 447 451 461 469 437 399 459 475 503 475 493 429 499 519 542 455 301 289 327 345 341 333 325 291 315 341 345 339 341 351 369 379 375 375 377 375 311 297 277 264 277 248 
590 607 576 617 605 538 570 568 481 321 201 126 106 104 106 114 116 126 153 319 463 479 461 469 469 451 443 443 455 449 429 429 451 489 511 525 517 538 558 572 599 594 582 586 637 615 594 576 596 554 584 582 453 212 222 287 305 313 313 319 303 289 303 307 317 325 321 331 347 355 363 369 369 339 248 291 277 283 279 260 
546 590 582 542 507 415 421 325 189 130 116 104 100 102 110 102 100 122 108 134 240 421 455 435 435 403 377 367 371 377 383 393 457 534 576 584 556 570 578 592 594 611 613 660 664 639 611 568 566 560 556 515 262 112 93 130 177 224 252 285 262 264 277 291 297 291 299 305 309 323 317 335 323 311 179 238 252 283 279 256 
377 355 297 252 195 149 157 116 108 100 93 112 102 95 89 93 95 114 87 100 108 147 203 250 250 207 171 140 151 140 171 122 144 161 230 321 433 519 536 542 556 576 613 644 644 629 605 576 572 534 459 272 108 81 95 104 89 102 108 136 161 175 201 226 252 252 260 279 260 266 277 285 268 277 140 124 159 216 222 228 
173 142 138 128 122 120 110 116 108 93 102 93 89 100 91 93 100 102 87 85 87 95 98 95 93 93 95 79 91 87 83 75 85 77 73 93 112 167 240 285 321 401 511 584 592 564 515 465 359 218 124 87 81 83 100 98 89 93 75 60 52 44 62 54 79 104 120 165 181 181 177 191 175 195 112 95 98 122 132 134 
110 112 124 108 106 106 108 95 102 102 95 87 100 93 91 106 100 106 100 79 85 81 79 77 83 85 85 87 83 81 81 81 73 77 58 65 71 73 69 87 93 104 147 236 240 183 136 93 85 62 77 75 83 81 89 95 89 79 73 67 54 42 35 40 33 31 25 33 44 42 56 52 50 56 77 93 93 110 112 126 
93 106 122 114 106 98 95 106 93 93 98 93 87 89 83 104 95 104 81 83 77 83 77 85 89 75 75 83 87 81 77 73 75 67 62 65 60 67 67 65 81 67 71 67 62 54 50 54 48 52 79 60 71 73 87 110 87 102 79 65 48 48 38 40 23 15 19 6 12 19 29 27 29 33 60 89 83 89 98 93 
91 104 116 95 100 95 91 100 104 87 106 87 93 87 85 98 93 104 89 85 83 95 75 77 77 73 79 83 77 83 75 75 65 65 56 62 69 60 62 67 71 75 69 56 54 56 44 46 46 56 79 75 79 79 85 91 89 102 71 65 56 38 33 27 23 19 21 6 21 6 23 23 23 25 48 83 83 91 104 89 
95 91 114 89 102 91 91 95 108 93 87 98 79 100 81 95 91 106 89 75 85 87 75 73 71 69 79 75 79 79 71 71 69 65 58 58 62 73 62 62 75 62 52 50 56 42 50 54 42 48 69 69 83 73 93 102 87 93 69 69 50 35 42 42 21 38 17 12 12 10 19 21 25 38 40 73 83 83 93 93 
95 95 118 100 108 93 81 85 98 87 83 95 77 87 75 98 89 98 77 77 77 95 79 73 75 67 75 75 75 75 69 71 75 62 56 60 54 56 58 67 69 65 65 54 52 42 44 50 46 52 60 75 77 75 91 102 83 77 73 69 56 44 38 35 27 25 15 2 4 6 19 21 29 33 46 75 77 83 91 95 
100 118 106 102 98 93 100 91 95 89 91 95 102 91 85 91 100 102 91 81 100 87 79 81 69 73 95 67 79 77 85 69 67 79 60 52 54 62 60 62 65 62 73 54 56 48 48 50 60 54 58 60 77 89 98 98 95 100 69 69 50 40 33 33 33 27 21 29 4 6 12 21 8 25 44 67 75 79 89 75 
100 89 104 100 98 100 89 98 95 83 87 98 95 85 91 93 95 89 79 81 91 87 69 85 75 67 73 79 73 79 75 75 69 71 58 56 75 60 54 60 62 60 54 60 69 48 42 56 56 52 58 65 83 81 100 110 89 91 77 62 54 46 40 31 27 21 8 0 8 0 8 10 12 29 46 85 71 89 95 81 
95 102 104 91 100 102 75 91 100 83 100 91 89 77 85 89 93 93 98 81 83 87 69 73 73 77 75 71 81 81 77 77 81 62 58 48 56 69 60 62 65 69 73 62 42 42 48 48 50 58 60 62 79 79 95 104 98 87 75 65 56 46 29 31 29 17 4 10 15 15 12 17 10 33 29 67 62 87 81 95 
95 102 100 87 77 87 85 93 102 93 87 87 89 79 87 104 89 93 87 81 83 75 58 73 71 71 67 69 73 79 77 62 71 67 65 50 67 67 69 69 58 60 62 46 48 38 46 52 46 56 73 58 77 93 93 106 87 89 65 69 65 52 42 31 31 21 10 12 17 4 27 23 27 29 44 79 67 85 85 81 
87 98 120 93 91 106 102 95 108 102 89 95 91 81 87 93 91 100 87 71 89 81 71 81 75 75 69 79 81 87 73 83 75 73 65 58 52 65 56 71 69 65 58 44 56 40 42 54 54 62 85 73 73 89 98 116 102 79 89 71 83 67 67 79 58 52 56 48 40 27 42 38 40 40 50 91 85 98 89 106 
85 83 104 98 83 87 91 102 110 108 93 100 81 75 93 93 83 93 75 77 75 71 71 73 75 69 69 77 83 85 87 87 81 69 58 58 46 67 71 79 71 56 62 67 56 46 56 67 79 77 87 89 93 100 114 138 120 108 98 110 151 130 114 120 163 216 262 195 118 89 60 42 42 33 81 102 100 108 108 104 
87 98 87 102 102 75 95 91 106 106 91 81 79 89 106 91 87 108 83 89 83 75 75 69 69 83 87 83 89 85 87 87 73 73 62 73 69 60 71 65 67 77 79 89 116 161 195 234 260 248 260 277 281 291 287 323 315 307 307 335 403 445 449 429 401 357 339 315 291 258 209 77 40 58 130 165 157 149 161 155 
95 91 106 100 100 93 98 100 118 98 98 95 89 85 89 91 102 98 100 75 75 89 77 85 91 85 95 114 122 138 153 175 161 155 151 165 187 203 220 234 248 281 266 279 299 309 305 337 359 331 327 329 325 337 341 381 399 417 423 429 511 560 521 495 427 367 317 279 266 274 279 183 83 83 159 185 185 189 185 177 
100 100 102 98 95 83 87 91 106 93 102 95 98 87 108 91 91 98 95 79 79 83 81 102 130 214 295 359 355 365 373 361 353 343 327 307 313 303 313 333 317 335 321 321 329 311 337 357 375 345 349 347 347 371 363 401 433 451 467 463 531 550 509 523 475 391 258 242 234 238 299 279 130 95 177 205 218 201 199 181 
95 112 114 108 98 104 106 104 100 104 106 108 110 98 100 104 108 98 106 89 73 83 120 222 399 473 501 507 499 493 487 471 459 459 449 449 449 403 363 359 351 373 377 373 385 359 365 389 419 397 393 409 411 421 427 441 473 477 431 409 447 449 461 429 423 417 403 417 437 307 307 321 252 183 220 228 240 228 218 222 
100 108 102 100 108 91 106 114 118 108 104 85 89 100 95 95 98 110 91 79 83 102 203 413 451 463 479 483 473 457 465 473 477 489 509 525 534 552 538 495 405 389 407 413 435 423 441 441 439 461 485 457 465 471 467 421 383 281 209 205 230 285 405 485 469 483 499 479 461 427 407 403 399 379 264 254 236 262 246 238 
108 120 108 98 112 100 118 128 136 116 124 98 98 108 100 100 91 110 106 85 81 147 389 511 473 431 427 415 423 441 445 441 441 451 447 455 457 459 465 453 429 401 405 399 413 409 421 407 411 463 491 463 455 427 343 295 305 365 371 399 443 475 517 531 527 525 505 497 469 427 445 461 439 433 285 260 246 264 250 224 
100 114 118 108 134 167 238 289 311 270 191 120 114 93 102 106 93 116 98 93 93 205 501 521 525 515 507 491 487 483 457 441 439 433 425 413 417 411 411 409 407 423 409 405 417 419 425 401 379 371 421 433 435 489 449 423 397 443 457 495 497 491 517 517 521 529 531 536 489 431 435 457 443 433 287 256 238 246 226 232 
102 102 134 151 244 341 531 643 666 603 493 272 159 122 110 112 110 108 108 106 100 303 497 513 511 540 538 513 491 471 463 451 427 421 417 403 415 415 411 419 427 437 451 439 457 441 421 397 389 375 469 391 425 473 431 389 389 441 457 497 497 495 509 505 529 546 544 548 505 451 441 421 441 431 299 246 254 268 234 242 
102 110 140 214 309 429 730 786 768 668 701 637 536 337 151 132 118 112 110 108 138 375 515 548 568 560 558 538 501 485 463 459 433 433 429 423 435 451 453 475 473 477 487 473 471 441 421 417 407 383 437 353 409 427 393 357 365 433 463 511 501 501 525 503 531 534 540 533 473 437 441 435 403 401 266 246 240 264 244 232 
91 120 187 283 349 479 770 811 805 767 784 763 739 685 463 207 122 130 110 134 262 497 564 584 586 580 568 558 529 519 501 485 451 455 453 445 471 487 501 517 511 503 507 485 465 441 419 429 401 391 391 337 395 411 369 335 371 447 457 519 499 499 527 473 453 447 437 403 387 395 457 485 417 393 256 244 214 232 232 222 
85 118 228 337 357 503 792 809 817 817 811 815 805 772 660 527 254 144 134 224 419 548 590 597 582 576 578 568 566 519 509 499 471 469 469 479 489 505 509 529 525 525 519 501 455 457 455 447 407 389 385 351 389 409 373 351 389 439 437 467 465 433 441 387 379 367 361 377 369 387 461 521 461 391 270 250 216 234 226 228 
108 134 266 367 333 489 786 798 809 788 790 819 828 780 776 714 558 353 295 497 558 588 592 590 592 572 586 576 544 523 509 487 465 459 477 477 493 489 505 509 505 517 521 497 491 487 475 451 407 373 373 363 403 407 379 343 395 429 405 405 415 391 375 361 371 361 369 383 391 433 449 493 491 425 264 252 224 236 232 232 
102 128 266 363 355 423 650 720 805 817 823 824 815 811 761 703 691 675 747 759 627 594 584 607 601 566 568 560 531 513 483 471 453 463 467 473 487 491 491 483 491 497 489 495 477 471 475 455 403 377 373 375 405 405 371 337 405 409 391 391 373 365 371 363 361 375 391 397 449 461 439 449 459 431 262 256 226 238 224 214 
100 128 256 379 445 465 536 654 761 803 836 845 799 815 770 763 701 755 842 799 662 594 582 605 586 582 568 556 529 507 483 451 463 469 485 487 491 479 473 469 473 489 475 471 449 453 441 441 391 381 395 361 425 419 359 327 365 375 371 365 351 331 343 361 361 393 423 433 501 479 449 435 435 381 262 250 214 228 242 220 
102 122 242 363 495 629 716 749 782 801 811 840 799 832 823 792 712 778 836 817 629 580 570 576 580 588 572 550 525 509 499 491 479 475 487 487 477 463 475 471 473 483 479 449 439 431 433 411 375 401 385 369 433 409 355 331 341 341 337 351 355 331 309 325 347 403 473 501 521 483 471 487 465 397 268 262 234 212 240 218 
100 118 165 321 457 611 753 815 828 799 803 788 807 819 794 763 759 819 815 788 607 578 570 568 564 550 548 531 525 499 499 481 477 485 481 471 485 489 501 473 483 479 471 457 455 425 441 405 375 413 357 391 443 423 363 379 423 405 395 417 395 345 325 335 363 421 471 525 511 503 534 521 453 327 270 264 234 220 238 228 
95 122 144 218 363 497 572 695 790 763 780 774 786 807 801 784 813 849 845 747 609 596 597 586 590 582 544 525 509 513 497 469 481 475 491 481 495 519 503 491 477 467 471 467 459 471 457 417 379 415 341 405 425 413 381 393 447 429 443 457 443 421 397 407 393 425 457 501 479 475 471 483 401 268 260 256 240 203 232 230 
100 132 126 144 230 367 461 533 648 695 714 697 732 720 749 805 840 834 821 697 623 627 611 607 592 570 564 536 525 505 511 487 479 493 499 483 497 503 491 485 477 461 465 461 471 483 453 403 383 409 343 401 409 403 357 401 437 425 419 437 463 465 473 441 455 457 477 515 507 489 513 517 431 264 264 266 246 216 228 222 
87 112 132 122 130 199 256 321 439 511 552 475 445 371 413 554 720 828 778 641 625 631 617 617 580 564 552 550 527 501 497 473 479 485 479 467 475 481 463 463 449 453 437 467 473 485 447 391 383 391 349 415 421 365 333 387 413 395 373 409 459 483 491 515 531 507 511 556 550 542 536 519 391 277 250 256 236 214 222 232 
95 116 138 110 112 134 142 165 228 274 281 228 191 163 177 207 289 631 679 619 627 623 617 592 562 544 525 523 499 491 467 455 465 457 471 447 441 439 437 441 435 441 433 433 461 477 437 397 377 349 341 411 393 343 309 383 399 369 387 411 431 473 491 548 560 548 517 525 527 511 477 485 363 260 230 252 240 205 234 216 
98 104 124 126 130 110 116 110 122 153 165 157 132 118 130 153 181 307 546 586 607 635 609 592 534 511 491 483 477 459 455 439 453 443 437 429 435 431 437 427 435 441 429 433 457 463 421 413 389 323 311 409 385 335 325 391 379 377 413 401 419 455 471 505 525 517 501 489 493 467 481 505 361 250 226 240 232 216 222 220 
89 110 102 106 126 120 114 120 120 110 142 142 128 128 128 132 140 218 429 544 592 599 601 582 540 509 487 489 471 469 457 433 429 453 445 453 433 429 431 443 429 427 439 431 449 467 419 429 387 305 301 409 369 321 341 373 371 393 423 421 435 451 455 471 471 489 501 517 519 519 525 523 349 242 226 236 234 205 236 252 
91 112 126 106 102 120 91 116 114 106 130 122 134 120 128 153 153 175 315 517 566 599 580 586 588 574 562 538 525 505 489 477 489 465 477 487 483 477 459 465 463 479 471 467 481 473 453 469 401 343 337 447 383 359 369 393 417 443 489 457 451 455 459 473 513 529 562 568 564 590 556 529 345 262 242 266 254 224 236 226 


