P2
80 60
792
98 108 122 124 110 114 126 104 87 92 96 81 79 73 65 65 63 41 47 49 49 41 59 63 59 51 53 37 8 29 39 43 22 29 20 33 27 47 53 57 51 39 27 12 20 22 35 33 37 41 16 27 43 69 108 269 495 540 569 579 584 575 555 584 598 617 654 643 643 627 598 565 414 157 83 75 69 61 57 71 
102 106 90 110 102 102 92 106 77 73 83 71 71 63 51 61 57 49 43 53 47 43 37 45 55 53 41 35 6 33 35 35 22 27 29 29 37 47 45 55 43 33 20 8 25 8 29 22 33 14 16 20 31 47 75 96 241 458 519 550 567 577 569 584 590 619 650 646 668 652 639 592 517 209 98 71 67 63 53 63 
94 92 98 110 112 106 112 104 92 102 83 81 59 69 75 59 63 47 47 59 37 47 51 41 51 59 45 33 10 45 41 22 18 29 27 22 39 45 53 55 47 33 31 18 25 25 35 27 22 31 16 29 29 35 61 61 112 205 389 483 534 548 559 577 579 621 656 648 645 615 590 555 515 249 85 83 73 75 79 71 
87 94 108 114 114 114 112 102 85 92 87 90 77 67 57 49 61 37 41 39 47 41 41 39 49 51 53 43 10 31 43 43 22 33 25 22 39 57 37 63 45 33 27 16 20 29 37 20 27 18 10 25 45 39 59 65 79 83 150 331 458 515 519 567 575 614 621 586 581 553 546 536 515 263 98 67 77 63 67 69 
79 98 112 104 114 100 120 100 77 69 71 79 87 61 55 57 55 55 37 41 37 27 35 53 55 47 45 39 18 33 35 35 14 35 27 31 39 47 41 51 45 29 14 20 18 43 25 29 18 25 16 31 33 45 63 63 61 67 57 114 265 446 485 534 563 579 569 557 569 550 530 540 505 273 90 67 65 57 69 69 
92 96 108 114 114 114 118 90 87 67 85 77 63 59 69 51 59 43 37 39 41 37 35 47 59 39 37 37 4 37 47 29 14 29 37 20 33 49 45 53 57 35 25 14 22 37 33 29 29 22 22 33 37 49 61 69 73 61 51 83 87 233 414 487 521 536 528 526 548 540 511 505 499 295 79 87 81 65 75 85 
96 92 106 116 110 118 108 104 100 75 73 83 77 55 65 63 67 49 43 45 49 45 41 41 53 51 45 41 6 41 41 31 31 37 27 33 43 63 45 65 49 45 18 22 35 31 47 37 41 29 31 43 45 63 90 71 102 100 102 100 77 120 187 407 454 483 515 515 532 513 507 501 452 293 106 100 69 83 92 85 
90 85 94 120 106 102 87 100 100 87 77 83 79 69 55 55 59 35 37 39 43 35 37 43 45 49 35 33 2 41 45 33 25 27 43 29 41 55 59 67 57 39 33 35 51 41 59 59 65 59 67 67 83 102 148 138 185 217 283 329 271 207 106 191 365 454 487 495 526 515 503 491 454 315 159 138 144 126 102 108 
85 83 92 106 100 112 98 90 94 81 77 67 73 79 71 47 51 49 27 41 45 37 43 39 51 43 43 35 8 35 43 31 25 29 39 33 49 55 59 73 61 57 43 37 59 87 106 144 195 209 243 259 297 355 474 499 548 559 553 521 481 470 335 157 189 397 470 479 503 509 513 489 438 357 265 249 223 217 191 191 
83 87 96 92 102 108 104 102 83 79 85 71 73 69 53 51 53 27 33 41 29 33 43 35 45 51 49 27 0 22 35 20 25 37 57 53 47 67 69 75 75 71 81 108 185 313 418 474 507 513 528 521 515 513 550 561 614 584 553 528 497 495 450 313 110 289 444 474 511 503 507 481 436 379 293 273 263 249 221 221 
87 92 122 110 106 102 92 98 83 79 75 65 67 59 63 49 51 45 35 49 35 33 39 37 55 37 43 35 12 22 45 55 20 43 59 61 108 159 223 152 161 209 287 416 458 483 507 532 528 530 538 536 526 501 505 526 581 567 526 507 442 444 444 446 217 142 385 452 507 517 507 481 454 383 309 283 267 249 219 223 
94 85 102 108 120 100 98 102 81 79 77 75 63 53 65 51 67 27 47 47 35 35 41 57 47 49 51 27 14 35 61 53 53 87 159 219 301 327 361 387 389 424 493 534 507 491 485 511 528 530 542 501 456 291 253 281 458 509 521 489 371 297 255 341 269 96 205 393 485 497 501 485 446 377 251 257 253 243 225 225 
90 102 96 94 112 100 100 96 92 73 69 71 61 51 59 59 51 43 45 49 43 25 33 59 49 33 59 47 10 47 73 98 185 323 377 412 420 391 395 458 474 499 528 573 546 511 499 526 540 497 407 235 130 96 98 116 155 257 349 373 405 389 152 59 59 71 102 229 438 499 515 497 456 357 152 136 157 185 197 207 
79 83 83 85 79 106 90 90 81 81 73 67 69 53 43 49 49 43 39 43 22 41 39 41 45 43 39 37 18 73 150 343 434 432 434 444 444 446 411 499 511 495 495 517 521 477 414 359 291 146 92 87 73 79 138 175 181 146 150 152 140 144 140 128 134 167 213 227 339 456 505 472 442 357 155 124 122 122 114 144 
90 79 90 85 92 100 100 79 85 75 79 61 67 57 51 49 49 31 41 51 33 43 35 43 49 53 55 41 53 217 371 430 452 460 458 456 460 454 434 474 479 462 407 331 235 169 124 98 114 146 181 203 195 207 235 217 197 183 163 159 161 201 189 185 193 241 283 303 355 395 450 477 432 381 215 187 169 163 142 152 
90 83 81 92 94 96 79 100 77 75 63 63 71 53 59 57 57 37 33 41 45 29 45 43 39 51 57 59 159 416 418 397 387 409 409 428 458 466 464 456 432 335 211 159 163 199 255 295 347 361 339 287 257 279 255 207 183 189 173 165 217 241 227 215 217 243 261 287 359 365 393 426 411 369 223 213 209 207 199 197 
90 92 85 102 100 94 85 92 81 75 71 67 59 65 67 63 55 43 35 43 45 41 25 53 47 57 61 104 343 477 466 418 385 361 387 405 397 405 399 397 393 373 341 345 367 393 403 420 420 420 416 337 289 283 257 211 173 205 201 207 223 251 233 255 243 249 265 275 313 341 375 383 383 349 223 227 227 225 201 207 
104 85 94 83 90 90 85 98 75 87 75 73 73 61 63 63 55 29 45 59 47 31 43 49 53 47 75 159 416 497 493 411 367 363 387 379 387 381 393 385 387 377 381 389 407 420 430 432 448 438 418 399 325 277 259 211 203 203 215 227 223 239 233 273 247 271 261 261 293 333 365 383 351 333 237 231 227 219 207 201 
94 102 90 85 81 92 92 92 83 73 77 67 51 69 71 63 61 39 43 43 35 29 55 57 59 61 67 215 446 446 407 428 381 363 391 401 383 379 367 383 399 420 428 430 432 438 452 436 422 411 399 385 337 287 271 219 205 211 217 215 219 223 213 253 245 257 247 247 285 331 357 371 357 321 229 211 217 211 201 213 
94 90 73 83 100 83 96 96 83 71 79 73 67 61 59 73 51 39 41 49 61 43 47 53 73 61 94 299 440 458 456 428 397 393 405 393 383 385 387 393 416 418 438 460 456 474 458 468 450 405 373 365 329 289 267 221 215 249 263 227 203 231 213 219 213 215 239 239 275 323 363 359 349 339 231 199 207 207 207 207 
77 94 67 83 102 90 90 94 79 75 85 69 73 77 67 57 55 57 53 71 71 73 65 69 59 81 108 253 217 271 397 434 409 403 391 389 389 383 401 391 403 412 426 464 454 458 438 462 438 377 347 335 331 301 269 217 215 263 267 269 277 291 243 215 209 201 237 247 299 337 335 349 341 317 223 197 185 201 211 205 
71 92 92 77 98 92 92 87 77 81 77 69 79 73 71 79 130 179 195 219 237 273 221 187 140 161 341 420 343 305 339 389 367 351 351 351 349 375 377 369 377 403 430 432 434 416 411 426 414 365 325 307 317 275 267 229 229 257 267 275 279 327 305 249 215 219 261 267 309 323 329 311 309 283 215 199 183 195 195 209 
77 81 81 90 79 92 98 79 79 77 77 69 83 85 116 233 405 481 517 524 489 517 542 550 470 481 610 635 598 546 426 333 309 263 183 175 259 335 353 379 375 395 401 414 409 412 411 409 395 363 325 315 315 281 275 235 221 263 291 287 303 345 315 279 247 247 275 291 333 331 319 295 299 229 207 185 191 187 187 191 
77 71 79 90 94 79 87 81 75 81 81 75 83 112 275 412 583 621 573 627 619 633 652 676 623 542 656 683 629 619 567 483 265 179 146 173 237 357 389 381 383 414 418 411 414 442 409 409 393 361 329 331 319 297 289 237 229 269 299 301 311 357 323 279 245 305 315 305 327 333 317 307 299 261 215 213 189 203 187 199 
83 92 81 92 90 83 96 79 94 85 75 92 81 150 293 489 631 643 631 676 660 660 662 670 650 553 623 685 643 615 596 393 265 237 265 307 371 405 405 420 403 418 438 428 440 442 422 444 412 375 355 345 335 319 299 243 213 255 287 271 273 295 285 277 273 307 331 321 345 351 337 349 333 319 225 209 201 207 203 207 
75 75 67 77 94 94 92 75 87 90 83 67 87 177 237 405 676 689 674 652 617 633 654 650 627 569 619 681 645 633 456 291 315 337 341 351 385 397 389 407 403 428 440 444 436 430 430 450 418 397 363 369 373 343 319 241 211 257 253 239 239 257 231 231 269 319 327 335 357 367 365 361 365 345 251 215 203 217 197 185 
61 67 79 75 75 85 87 83 69 79 65 71 110 191 247 343 623 712 679 693 681 687 679 687 652 590 635 701 641 614 355 363 371 405 393 359 373 381 379 403 391 401 416 432 440 432 448 444 430 397 391 403 418 377 339 251 219 289 273 255 281 279 259 279 305 337 327 347 377 387 375 373 367 351 271 239 229 207 213 211 
69 73 75 77 75 77 67 87 73 73 71 69 102 193 283 297 569 654 596 650 645 633 664 660 658 588 670 689 614 444 267 391 436 428 401 381 399 377 387 395 399 401 407 414 438 440 444 436 418 405 411 424 438 399 323 267 231 273 273 325 305 299 273 297 299 305 335 341 363 361 353 359 345 329 265 243 223 215 195 215 
71 69 81 83 87 81 73 69 67 71 77 61 94 171 267 317 571 645 586 629 592 569 633 606 552 530 612 614 430 199 239 409 442 434 414 405 407 418 458 456 416 399 401 403 416 424 438 450 434 416 436 442 452 391 311 251 259 285 321 323 277 263 257 285 289 295 305 307 327 317 321 319 323 325 265 237 231 205 217 213 
67 73 87 75 102 77 79 81 81 79 65 69 71 114 191 275 458 565 600 606 548 546 552 420 243 183 303 341 229 297 397 438 448 436 416 411 409 446 493 499 460 416 407 407 424 426 450 466 446 442 444 430 430 351 285 245 261 291 291 267 239 241 243 263 267 277 285 277 283 279 261 311 319 307 245 245 245 217 211 213 
85 67 73 73 85 73 67 73 75 69 61 57 67 65 104 199 281 285 373 422 399 373 291 120 79 73 94 157 345 474 499 472 456 430 422 416 418 446 468 474 454 446 452 458 477 450 466 464 458 436 432 403 371 325 293 233 275 287 265 253 227 229 237 249 265 279 271 271 267 253 251 293 315 291 239 213 213 219 213 205 
87 77 67 90 87 83 87 96 75 71 73 61 73 61 65 90 124 122 124 136 104 87 69 53 49 45 61 104 305 528 534 489 444 416 440 440 440 438 440 448 426 446 448 507 501 477 479 475 458 452 395 387 357 315 275 223 289 283 265 251 227 233 235 253 259 279 281 257 251 249 233 259 257 237 203 205 213 211 227 203 
79 71 59 79 85 83 79 71 71 65 67 59 73 53 57 45 63 37 47 45 53 41 53 37 55 47 45 83 155 501 552 507 454 440 452 434 393 355 389 409 432 428 436 503 487 475 464 462 464 393 387 351 337 299 281 227 301 279 261 253 225 267 307 341 315 281 273 253 251 209 175 161 134 98 159 187 193 191 187 207 
59 73 69 67 77 87 65 79 75 81 75 71 67 45 47 43 61 22 39 39 33 31 41 27 41 35 33 41 98 416 553 519 464 446 483 464 369 385 446 460 464 481 483 454 355 297 301 281 253 303 297 301 305 253 259 215 245 247 247 281 357 454 475 485 436 333 381 355 134 77 31 25 25 31 118 163 169 169 167 167 
69 67 79 71 75 77 71 75 73 79 75 61 71 49 43 51 41 31 37 37 33 25 29 43 51 41 39 45 45 261 526 513 470 495 501 487 475 466 489 501 474 522 532 528 499 450 375 297 249 289 337 331 303 191 167 114 140 189 279 470 538 522 524 474 414 448 497 412 118 16 12 14 16 20 148 207 209 195 175 175 
67 75 79 75 90 87 87 77 77 92 75 63 67 47 47 43 35 39 31 25 41 25 31 53 49 39 47 51 18 106 351 452 487 509 519 507 501 491 511 497 466 542 563 567 583 619 586 513 509 526 538 534 532 521 487 458 466 475 567 608 581 557 530 526 485 497 475 237 96 41 27 29 22 31 203 263 267 257 249 235 
77 67 87 92 87 79 85 87 90 92 63 63 63 49 39 47 45 22 12 29 35 29 45 43 43 45 35 39 22 57 122 285 424 507 524 505 470 487 485 477 462 519 534 561 608 643 586 550 565 565 567 571 557 563 579 579 600 615 631 633 610 602 546 544 522 501 411 265 136 69 25 31 35 49 229 295 289 271 257 239 
77 77 69 75 92 69 79 75 79 92 69 57 55 69 61 35 35 37 29 41 35 29 31 41 41 37 49 41 10 51 81 136 249 440 507 493 479 472 474 442 442 507 526 542 590 602 583 571 581 590 596 592 600 604 610 592 617 625 617 627 615 600 555 544 511 432 341 287 249 85 45 27 27 53 227 297 291 283 259 263 
63 79 77 83 85 79 81 87 94 73 77 61 61 59 55 47 57 22 29 39 39 31 27 33 39 43 27 45 8 35 116 367 458 495 522 513 495 483 452 434 434 475 474 481 507 542 561 571 569 573 584 610 586 579 561 524 519 511 507 470 474 503 499 507 436 331 271 241 305 191 106 128 106 112 253 283 281 277 257 251 
81 75 79 85 83 79 77 71 90 87 75 63 63 47 57 43 43 37 37 43 43 18 35 41 43 37 37 41 4 63 309 479 424 401 409 397 422 422 430 454 448 420 393 381 393 387 428 428 454 452 464 468 458 456 444 393 325 271 205 161 150 197 307 387 393 401 391 389 426 367 371 359 341 317 257 251 255 237 217 215 
73 81 79 92 81 100 77 87 71 104 90 71 69 65 47 49 63 29 41 47 39 37 53 41 45 37 47 41 27 124 474 513 452 424 416 409 405 403 393 412 407 401 391 401 397 399 401 393 424 426 407 399 335 319 381 325 253 257 281 267 295 361 395 452 464 448 426 418 448 405 420 409 422 407 231 223 239 225 205 223 
67 90 75 79 75 73 79 85 83 87 85 53 55 51 63 53 47 41 67 55 49 37 51 29 39 51 27 53 35 203 481 497 475 485 474 456 446 428 420 409 395 379 359 357 363 371 379 371 375 383 381 359 329 373 387 405 393 359 313 399 418 452 466 487 475 468 454 420 438 414 430 416 450 428 227 215 215 217 191 201 
85 92 87 81 83 77 75 87 73 96 85 71 71 79 63 59 83 152 301 329 295 173 110 69 41 57 45 51 57 319 487 515 515 521 517 507 472 448 420 411 381 365 349 357 359 375 385 371 365 345 345 345 335 389 357 407 387 333 343 405 434 450 481 501 507 517 462 414 411 438 434 444 452 436 237 213 201 201 189 199 
65 77 83 96 75 87 79 77 71 77 96 55 77 61 61 92 249 452 650 681 608 550 491 345 155 71 53 79 126 428 522 553 546 530 509 497 495 472 432 420 393 381 373 381 385 383 379 377 377 355 347 327 329 397 319 359 353 283 333 409 436 466 470 507 509 497 452 397 422 414 440 468 470 438 241 199 195 209 195 201 
67 71 77 98 92 65 75 69 73 87 92 77 71 73 77 179 375 586 760 744 704 706 697 662 513 273 112 108 343 503 540 563 544 528 511 495 474 452 440 420 407 391 401 405 422 411 393 379 377 385 383 347 333 387 293 327 319 271 343 401 436 475 444 464 420 391 377 377 432 409 426 450 472 422 253 195 215 237 219 195 
71 79 71 83 85 90 75 81 81 73 92 63 79 77 102 269 375 581 771 771 756 733 735 712 683 648 501 557 648 600 540 557 540 530 517 524 493 460 450 438 420 401 405 401 407 416 430 422 414 407 397 371 339 361 291 319 309 273 341 383 403 389 349 333 325 321 351 434 438 434 454 477 468 401 233 201 215 227 209 213 
67 65 79 83 83 92 100 87 83 77 85 67 77 77 118 293 403 584 788 792 760 748 756 735 720 689 643 750 718 656 532 538 550 548 528 509 495 464 430 420 422 412 401 383 399 416 424 434 416 430 422 401 339 335 269 327 329 277 341 337 341 331 309 319 301 345 407 462 414 414 426 432 405 359 235 219 225 221 211 221 
67 69 94 87 92 85 85 75 63 90 98 83 87 83 112 279 403 462 687 737 779 773 779 718 746 729 670 756 733 679 528 517 530 528 517 507 472 458 442 420 403 395 391 407 389 393 403 409 407 405 416 411 331 307 275 327 315 267 311 295 305 277 297 309 301 381 440 414 395 373 337 307 257 215 207 215 225 219 207 223 
75 75 79 102 83 83 81 79 77 87 75 83 73 75 98 239 407 474 577 701 742 769 754 727 758 710 708 754 729 668 519 513 515 513 475 442 434 426 428 416 399 385 381 401 407 405 391 369 387 381 397 403 319 295 285 331 289 241 271 261 273 259 233 289 317 363 349 283 267 271 269 263 231 201 193 223 223 223 195 207 
73 77 81 81 90 87 100 96 87 83 90 85 77 79 83 159 361 493 685 746 758 744 727 729 752 733 760 767 725 639 561 544 534 524 483 436 424 446 462 454 452 438 403 401 416 422 399 395 409 385 403 397 309 297 275 335 319 289 315 313 313 305 267 289 377 450 412 395 420 434 399 391 367 309 201 211 215 219 215 201 
85 75 85 106 96 81 94 90 77 79 96 77 77 65 75 96 213 379 524 619 691 685 664 631 614 685 733 752 710 594 577 559 557 534 501 472 466 444 472 475 479 466 442 432 409 442 407 418 430 409 385 365 321 309 291 363 321 311 335 351 345 335 307 329 365 411 430 420 452 456 444 409 416 341 201 203 215 215 205 211 
77 81 83 87 100 79 77 90 85 92 92 90 73 63 71 67 94 157 301 363 452 513 450 289 203 233 291 503 641 552 579 561 559 544 517 491 483 454 426 454 491 477 454 446 420 418 403 381 399 426 369 341 335 307 283 349 299 303 329 341 337 357 377 397 424 440 464 440 436 422 414 450 440 349 211 205 225 201 207 201 
63 83 73 83 94 85 90 90 79 87 110 90 77 81 71 63 67 71 98 128 171 203 157 94 90 96 128 205 460 534 575 571 540 534 524 513 483 462 436 416 456 474 466 446 428 422 387 373 375 397 357 331 369 283 285 327 271 311 303 317 323 367 414 462 470 448 442 422 422 428 448 456 369 235 231 215 213 207 215 205 
71 87 77 87 90 94 65 100 75 87 104 75 79 98 67 63 53 45 63 87 77 75 77 61 69 77 79 112 273 468 530 536 528 503 487 487 470 446 434 428 418 409 420 407 411 420 381 371 381 367 367 351 359 245 295 297 265 301 293 327 323 373 387 440 420 422 426 436 472 489 458 446 331 207 233 229 209 205 197 213 
83 92 83 92 90 81 83 85 92 81 100 90 87 69 65 57 65 35 45 59 67 47 45 47 51 59 51 73 148 411 505 515 499 485 444 411 416 414 416 409 393 383 377 371 385 395 381 373 414 430 373 377 313 249 313 293 271 295 281 339 349 357 383 412 403 426 460 474 472 475 472 448 315 221 223 227 211 209 215 197 
83 81 87 87 73 73 77 83 65 73 94 98 90 71 55 53 57 37 41 57 49 27 43 51 47 41 41 55 75 365 540 509 442 389 379 363 379 377 385 391 403 375 361 361 363 371 377 391 414 444 389 381 337 275 361 301 267 281 281 347 371 375 387 422 426 418 432 407 397 422 361 357 287 203 205 219 219 229 229 221 
69 71 98 90 92 79 83 73 81 90 98 102 75 79 41 55 35 20 25 49 37 25 53 31 47 45 35 49 47 317 553 468 385 403 450 458 450 489 503 507 489 466 440 436 416 416 422 428 405 403 414 391 373 315 418 367 325 333 325 339 363 377 403 452 436 440 412 381 379 339 275 267 219 209 225 217 227 219 213 219 
77 85 75 98 92 98 75 71 59 100 98 100 77 71 49 57 59 39 41 39 33 33 45 39 45 37 31 27 33 195 479 450 475 503 503 493 491 493 475 462 475 466 464 474 474 489 519 528 493 458 464 450 446 424 474 418 385 373 367 359 355 409 474 515 479 446 412 379 365 317 257 150 179 235 237 245 245 221 219 205 
75 73 67 85 104 102 90 85 87 85 102 90 98 81 67 63 51 45 22 39 47 20 31 43 37 35 35 43 8 104 359 507 497 499 475 450 440 442 458 472 491 487 493 507 515 524 521 491 428 411 401 414 411 411 414 377 371 361 389 395 389 452 519 552 517 487 442 403 383 341 235 132 203 237 255 245 245 223 235 217 
83 75 85 79 79 83 65 90 87 92 100 92 83 71 59 67 47 33 37 47 41 37 41 41 43 47 45 31 2 57 142 355 424 460 466 458 444 450 430 432 424 422 407 399 397 397 377 349 345 345 327 351 353 359 363 323 349 337 371 363 375 407 491 521 495 485 454 397 359 293 175 126 191 205 215 215 191 205 187 219 


