P2
80 60
673
101 93 99 89 89 83 101 107 93 93 107 101 87 93 93 97 95 103 85 79 73 89 91 75 79 89 81 85 77 87 89 99 107 93 99 87 91 95 107 111 115 125 137 155 157 159 191 211 191 183 141 123 121 115 109 99 107 99 93 93 111 109 121 127 129 125 121 115 109 95 85 75 79 85 77 93 97 67 87 123 
95 97 99 93 91 89 87 103 85 87 109 87 83 97 83 91 95 99 83 89 89 95 81 85 79 75 81 73 69 69 75 91 93 97 93 101 91 105 117 119 129 169 199 249 267 318 326 303 307 291 265 227 197 187 159 135 129 121 111 113 123 133 131 131 135 135 131 127 117 119 95 59 79 73 77 97 99 69 85 111 
99 93 99 93 93 91 97 95 99 95 91 97 87 91 95 93 99 101 93 89 85 85 85 85 81 85 89 87 95 91 101 105 111 89 101 105 121 139 225 273 277 293 287 291 324 366 395 352 389 403 409 391 381 354 348 328 316 245 201 211 181 165 177 199 215 195 199 187 187 163 143 149 139 145 133 151 137 95 129 141 
101 89 101 99 91 91 83 97 99 77 93 105 93 81 99 93 95 97 81 91 81 91 89 85 79 89 95 105 91 105 103 113 105 105 111 133 203 299 385 358 354 334 338 350 346 373 391 397 422 444 465 436 428 395 391 413 434 436 413 426 407 324 322 342 352 324 322 322 324 309 295 310 328 305 314 316 283 225 227 203 
107 87 105 87 101 79 93 109 87 73 101 109 97 85 95 103 89 93 77 95 77 97 83 87 83 103 93 105 117 111 109 123 119 139 139 171 318 383 385 372 362 354 366 362 354 366 391 409 473 467 481 465 448 426 422 426 473 484 486 479 475 450 440 395 373 366 389 377 375 364 366 358 377 387 395 389 383 352 328 332 
95 99 117 101 83 85 103 95 99 103 113 111 97 87 105 91 103 103 97 95 87 93 91 89 99 103 105 105 107 117 119 145 181 231 271 314 381 411 415 426 399 389 381 403 375 370 409 446 482 496 510 488 484 463 459 463 479 500 486 484 471 450 417 389 383 362 379 377 385 401 377 366 391 393 401 409 391 364 375 358 
87 89 111 79 91 91 95 109 109 91 87 107 93 81 103 101 87 101 99 105 103 101 99 89 103 115 105 123 129 145 175 283 368 364 314 316 387 438 455 453 451 428 413 407 426 450 500 523 527 531 550 544 531 513 482 465 488 502 512 502 473 424 413 389 379 364 372 383 407 381 373 368 389 389 375 395 411 366 348 362 
91 101 109 101 91 87 101 115 91 97 91 105 105 97 93 103 95 95 103 99 99 97 97 87 97 119 131 143 193 255 338 417 415 389 342 301 344 463 477 492 490 471 459 484 498 512 537 543 550 541 554 552 517 498 496 473 481 492 484 469 459 420 424 413 389 377 366 381 385 372 360 356 360 368 360 370 360 340 354 338 
101 103 97 75 105 87 93 109 93 87 97 105 93 109 99 109 109 93 111 103 99 103 103 107 105 117 189 299 407 440 465 461 424 399 372 334 330 440 504 496 490 475 488 498 513 517 535 544 537 525 531 498 473 442 448 424 430 395 379 377 377 348 354 348 309 287 273 267 269 249 247 245 249 257 259 265 263 273 299 314 
113 109 103 95 101 105 109 91 103 99 103 107 101 111 113 87 109 103 111 103 109 111 105 111 113 173 338 481 492 486 488 475 444 420 391 370 348 393 490 515 506 504 523 537 531 504 500 492 482 428 399 368 377 368 330 269 225 181 151 155 187 181 167 189 197 181 185 179 183 141 131 119 119 125 123 149 143 123 163 173 
91 89 111 111 107 93 101 99 109 91 103 103 109 93 95 95 103 113 121 99 95 107 107 121 131 285 459 479 488 488 488 482 451 436 399 397 375 383 490 541 521 521 490 477 432 420 403 364 346 328 307 307 346 330 207 153 141 133 129 123 137 139 159 173 197 189 191 177 171 141 129 127 105 117 129 127 109 101 103 139 
95 99 115 93 97 85 103 99 101 93 89 109 97 87 111 99 103 105 109 109 107 111 115 119 177 419 494 451 457 490 517 508 506 496 457 440 428 422 508 490 457 448 424 424 426 411 372 334 324 289 291 285 338 370 318 217 165 153 129 129 139 147 147 179 205 209 203 203 181 167 125 127 101 109 107 125 123 111 109 123 
93 87 115 85 115 117 93 105 111 99 109 115 107 99 99 97 123 111 109 113 119 109 109 135 241 488 508 498 479 486 482 475 473 488 490 471 484 506 508 469 430 407 401 430 424 405 368 356 370 330 310 305 336 377 387 375 330 275 209 147 147 141 149 189 209 219 227 215 203 185 155 147 131 137 135 149 149 135 145 153 
91 103 115 79 87 89 105 107 97 97 109 105 105 95 101 93 105 121 109 119 115 113 117 143 338 502 479 523 546 523 496 484 490 494 490 504 517 521 504 459 419 405 405 395 409 403 372 356 395 362 348 340 342 379 399 389 407 413 413 350 229 175 205 205 207 227 255 247 249 239 209 207 219 245 259 275 299 271 305 273 
99 91 93 87 99 91 99 99 93 89 113 97 93 103 109 103 107 107 103 111 111 121 103 139 303 479 461 486 504 513 477 465 479 517 523 512 523 510 488 422 399 391 383 397 407 383 368 358 397 385 379 372 377 393 430 415 440 426 415 424 420 373 338 299 273 291 322 334 360 342 342 338 344 346 350 354 350 332 326 301 
99 97 99 93 87 99 97 95 99 93 99 101 99 91 101 93 91 113 111 99 137 121 159 187 287 430 415 393 346 362 393 370 368 486 502 488 496 473 432 401 387 391 391 403 407 389 362 383 415 411 403 411 413 426 444 457 448 475 444 436 434 426 440 430 403 395 397 409 405 407 377 375 381 372 360 358 350 326 340 352 
91 97 95 75 93 93 99 101 99 87 93 103 103 83 109 91 93 127 131 163 217 287 354 432 502 482 479 457 477 453 364 309 334 430 457 448 438 387 375 377 379 387 397 397 397 342 372 417 453 446 438 432 430 438 453 467 486 482 469 459 461 446 442 440 409 393 397 395 391 375 366 362 370 360 342 344 334 303 297 279 
95 79 95 95 81 85 95 99 83 91 105 95 95 89 107 109 107 155 231 301 312 364 488 558 587 564 543 525 541 554 575 512 413 375 377 381 336 356 393 417 403 395 403 385 322 299 358 420 450 463 471 469 444 440 477 498 500 512 512 504 490 467 463 453 407 379 385 379 379 377 354 344 316 309 281 251 207 173 133 137 
87 113 113 97 95 89 91 97 99 93 97 93 103 93 103 111 143 247 334 387 424 430 562 640 621 625 633 621 602 554 572 646 631 451 389 395 419 471 496 465 411 403 403 377 338 352 411 471 510 523 552 546 537 525 504 484 488 494 523 521 496 440 448 442 411 370 368 375 372 342 312 257 227 179 145 125 107 87 73 95 
105 81 89 79 103 89 97 103 95 95 111 109 93 103 109 125 171 297 373 409 407 513 604 620 625 614 616 614 610 550 482 602 552 426 465 498 504 498 477 469 440 448 484 521 566 595 595 579 556 543 550 519 506 455 383 330 381 451 488 492 467 438 413 401 370 330 310 309 303 225 171 121 109 101 97 109 91 67 63 79 
105 91 103 101 107 87 101 109 97 93 109 113 111 105 117 109 175 305 350 405 432 620 642 620 637 620 625 577 597 581 461 461 413 451 515 515 475 481 465 486 521 602 610 604 608 629 593 570 543 500 475 446 334 211 151 149 163 213 328 372 375 405 364 346 265 209 211 201 159 133 119 99 93 83 79 79 79 50 55 65 
113 103 99 89 105 97 109 103 99 101 115 99 109 99 109 115 153 289 314 368 482 656 640 633 616 600 610 550 512 575 461 338 332 428 488 469 438 450 457 467 519 556 560 570 552 564 554 500 457 373 277 175 137 131 123 115 123 121 125 141 165 169 173 203 191 149 165 141 137 127 89 89 75 93 83 81 61 34 30 34 
101 99 111 105 95 91 109 107 101 101 105 113 101 97 103 123 149 257 301 322 502 663 673 635 629 599 583 581 552 552 383 358 334 428 453 424 448 461 463 383 448 515 500 465 424 379 310 229 191 151 151 127 123 111 119 113 125 115 113 125 137 137 127 153 157 155 151 139 127 121 93 79 87 65 61 71 65 20 18 40 
107 91 105 87 115 99 95 105 95 95 113 113 105 103 113 109 127 213 285 301 344 591 656 627 627 623 595 583 546 515 539 535 494 477 432 457 467 461 403 340 385 370 263 191 161 145 139 139 117 121 125 123 119 115 107 107 123 123 123 119 125 131 127 143 151 149 155 123 137 123 89 85 73 48 65 65 30 10 6 14 
121 121 105 109 111 105 115 105 107 99 107 107 109 107 109 115 123 161 271 293 322 434 661 631 585 597 581 498 440 515 515 533 479 477 490 481 463 411 352 297 247 155 145 143 131 129 145 135 121 117 123 119 127 127 115 105 115 119 103 131 115 121 137 151 153 151 149 151 161 131 105 105 87 81 67 59 42 0 8 32 
109 103 91 93 99 97 105 107 99 109 109 109 103 103 113 107 111 129 189 271 273 303 523 541 409 293 239 179 215 397 484 484 453 481 469 424 399 342 310 261 167 133 133 133 131 131 137 119 125 121 129 117 115 125 117 123 125 131 117 111 135 129 137 143 161 161 147 163 185 221 201 183 155 149 137 105 83 40 36 36 
101 99 99 91 97 95 95 103 101 107 103 109 113 105 105 109 109 123 123 167 247 225 269 225 139 157 129 127 131 171 289 342 346 344 324 312 279 239 213 173 153 133 137 127 131 127 133 127 125 121 129 113 119 127 107 121 119 133 113 117 143 137 137 153 161 147 153 155 209 277 271 235 217 227 231 221 195 169 155 139 
99 97 107 97 99 91 85 115 97 99 97 103 109 97 111 107 107 119 103 109 119 117 125 105 99 99 103 109 109 121 121 141 141 137 135 129 135 131 137 125 145 135 141 127 123 121 127 121 127 119 117 113 113 111 107 113 121 141 167 195 181 155 153 163 167 165 151 155 211 287 271 261 253 241 251 251 237 217 209 217 
113 95 103 95 97 101 101 107 99 91 103 99 103 111 95 101 107 101 99 95 89 111 97 89 95 97 97 103 107 97 101 107 113 109 99 117 125 117 121 131 133 129 129 127 117 117 131 125 115 105 109 109 101 117 105 113 131 185 326 403 393 309 245 257 239 171 177 159 205 291 293 283 273 283 267 265 251 231 245 225 
111 103 99 95 97 109 93 101 97 105 107 105 107 85 105 99 95 109 103 101 81 113 101 87 89 97 97 95 87 91 85 107 97 101 97 111 119 119 123 121 135 127 139 119 125 137 121 123 119 103 115 113 105 113 107 113 145 318 461 490 498 465 420 424 364 213 193 173 245 303 305 328 305 293 285 285 269 253 253 259 
105 87 99 93 91 93 89 97 95 99 113 103 99 95 83 99 97 107 95 97 89 95 91 91 79 83 79 95 85 91 79 93 99 105 107 99 107 107 119 113 121 125 129 123 123 107 111 115 105 109 103 111 113 113 111 99 175 407 484 484 512 479 467 475 420 289 227 227 273 297 318 330 312 297 301 295 273 263 253 271 
101 89 89 93 101 85 79 101 99 81 97 85 87 77 99 103 91 91 91 91 79 99 77 79 91 77 93 81 87 81 93 97 103 91 103 103 97 97 111 123 121 123 133 139 115 111 111 123 113 109 119 119 105 113 107 117 167 381 473 482 525 498 473 453 397 350 342 314 289 277 297 312 316 324 316 312 287 303 309 314 
95 101 101 97 99 91 99 99 79 97 81 95 83 87 103 91 97 87 107 87 81 87 85 81 77 85 89 87 85 87 83 103 107 99 97 103 107 111 121 121 123 125 133 123 127 111 127 113 111 115 115 119 119 119 131 107 155 314 434 444 502 492 457 405 366 334 356 360 310 245 275 314 358 364 373 360 373 413 411 362 
95 89 97 83 95 89 89 99 93 105 103 91 91 103 91 97 93 99 105 93 81 93 91 87 79 95 87 87 93 95 99 101 107 109 99 95 111 115 117 119 119 125 129 117 125 117 127 123 115 117 131 129 133 131 143 127 137 191 354 422 467 450 407 366 372 381 383 360 301 251 283 330 354 385 395 403 463 515 442 401 
95 93 99 103 79 93 81 99 111 95 105 115 101 95 109 107 95 113 97 95 85 97 89 85 75 81 83 95 91 105 89 105 99 105 97 99 105 119 117 123 123 123 129 133 125 129 121 117 113 113 143 149 179 177 231 225 163 205 342 358 413 377 372 362 373 364 393 399 267 275 309 364 373 395 403 430 465 537 442 411 
97 91 109 87 81 97 105 105 103 91 91 95 103 107 99 105 105 93 99 99 77 101 87 93 91 95 93 95 91 89 87 107 109 105 97 111 105 111 113 117 123 121 127 129 125 125 123 123 123 157 261 338 424 467 502 488 473 450 451 397 373 334 332 334 354 362 383 373 287 303 336 385 377 411 413 417 426 512 432 372 
103 87 101 101 95 97 99 111 99 95 97 103 103 101 101 109 101 113 93 91 99 93 97 83 85 101 95 103 111 97 101 103 105 95 99 105 115 113 113 115 125 117 131 129 119 105 129 125 141 187 318 521 585 541 568 548 558 560 541 527 430 356 340 330 340 346 330 303 261 334 352 395 391 413 411 379 381 479 432 401 
113 91 99 105 91 89 105 101 99 99 109 111 107 105 107 113 103 113 111 105 79 95 93 91 89 89 89 95 91 105 101 113 101 117 97 97 105 109 121 127 127 125 127 131 125 117 121 123 183 223 322 554 577 568 581 564 546 508 498 510 428 379 352 340 338 320 299 275 295 350 373 387 399 395 370 354 354 457 422 395 
111 89 95 89 103 99 109 119 101 89 95 113 95 111 99 105 113 103 113 99 101 103 87 85 93 103 91 101 85 101 91 109 109 97 105 99 115 115 115 111 117 117 113 117 111 119 113 137 187 271 322 513 556 560 575 531 546 471 488 479 444 368 368 348 316 283 263 249 318 350 372 379 372 385 332 320 330 436 413 375 
107 93 99 105 91 113 99 107 109 93 93 103 107 99 111 103 109 105 109 97 89 87 95 91 81 103 93 97 91 91 101 103 107 101 103 103 107 109 111 117 121 119 121 121 111 117 113 113 179 263 291 422 504 541 566 568 544 494 469 502 451 370 330 338 314 283 285 257 305 340 336 377 368 366 322 312 330 424 403 401 
101 105 107 107 95 103 91 109 103 103 101 95 97 97 99 105 111 103 99 103 87 103 89 89 83 97 101 103 105 91 73 91 105 87 99 103 105 99 107 109 117 103 115 117 107 101 111 113 129 221 271 373 486 508 517 546 552 566 521 494 420 372 326 307 293 287 277 245 287 318 307 348 366 364 312 320 322 372 375 389 
101 101 99 89 97 93 89 109 93 101 103 103 93 93 109 97 87 97 101 103 93 93 105 83 97 97 99 109 93 99 81 95 107 113 105 93 113 105 115 111 105 103 117 113 111 85 97 113 103 149 219 312 413 453 453 479 434 422 399 385 368 318 285 275 263 251 265 233 279 314 310 312 326 316 299 324 318 336 360 375 
95 85 99 89 101 101 93 91 85 101 97 99 91 89 85 91 99 109 97 93 91 97 89 89 93 85 87 93 91 79 77 89 103 101 101 105 103 91 99 99 99 115 95 99 93 91 107 91 95 101 133 157 177 181 177 177 171 239 346 364 307 281 261 253 265 267 233 171 273 309 309 305 318 297 293 293 293 318 350 346 
97 83 87 99 85 85 103 85 89 81 107 101 99 83 95 95 105 105 107 91 95 91 89 85 89 85 89 97 89 91 75 95 103 103 97 95 91 89 97 97 95 103 99 109 95 87 105 93 97 103 99 109 99 109 99 91 125 273 330 326 318 279 263 275 285 267 257 205 247 295 277 287 289 305 281 285 279 283 350 358 
83 79 87 91 73 71 89 103 93 83 85 97 87 91 83 85 95 101 101 87 77 87 79 83 69 81 75 81 75 79 69 87 95 87 87 87 87 97 85 93 83 99 97 101 83 83 93 89 83 79 95 77 87 81 81 75 111 273 324 348 346 332 312 287 295 309 291 237 245 275 285 279 265 281 265 267 269 293 338 336 
63 71 81 75 63 71 63 75 73 81 83 77 95 89 91 85 85 103 81 81 65 69 77 77 69 67 67 79 71 73 73 71 79 73 77 73 77 83 87 93 83 93 95 97 79 67 85 79 81 71 89 71 67 75 63 63 95 271 338 393 411 399 379 348 346 328 305 277 261 261 267 257 271 265 261 263 271 312 324 322 
59 75 61 65 67 69 77 77 77 71 63 65 79 67 71 75 85 91 75 77 77 69 81 71 59 61 77 73 65 73 59 81 77 65 77 79 85 69 83 91 85 85 81 89 83 79 79 79 81 81 87 65 75 79 61 50 89 225 364 440 453 434 428 377 324 316 310 271 269 235 257 259 247 265 265 259 293 316 314 310 
59 59 65 55 61 57 46 77 59 61 61 67 65 77 63 65 73 73 77 69 63 65 61 61 53 55 67 71 59 59 63 61 69 73 79 75 77 75 83 71 79 73 81 83 63 65 77 59 67 57 69 59 48 48 48 40 89 291 360 440 465 438 420 370 195 119 151 211 221 227 213 249 253 243 247 265 279 301 295 309 
75 75 73 65 75 65 63 79 69 71 77 81 67 65 83 67 65 77 65 71 61 50 57 63 42 50 61 57 59 55 63 71 65 65 63 57 69 73 71 50 63 71 75 63 65 61 57 57 53 42 63 57 48 48 42 28 113 309 328 405 444 415 360 269 115 55 75 87 83 103 97 121 123 171 205 233 279 309 289 291 
73 79 85 87 83 73 89 73 81 85 73 91 91 77 81 81 91 69 69 71 81 69 65 75 63 65 73 73 65 73 75 69 83 73 75 71 77 75 75 85 79 73 73 71 79 67 73 61 63 53 42 67 57 46 40 55 125 291 372 403 399 307 167 115 67 67 63 79 73 59 53 40 42 65 85 157 263 303 287 275 
75 85 85 77 81 75 77 87 91 85 79 81 77 83 93 87 85 87 83 83 77 81 69 85 63 69 77 75 73 77 69 69 105 79 73 85 85 81 79 85 71 81 71 83 73 73 79 71 69 71 69 63 61 71 77 53 169 336 383 409 346 147 97 79 77 79 91 99 75 71 59 46 46 75 79 99 211 251 273 265 
87 77 85 87 85 85 81 81 89 87 89 85 77 79 95 75 87 85 95 79 89 89 79 81 75 69 77 79 85 69 79 89 103 79 83 85 81 83 93 75 73 83 85 83 77 77 85 77 73 83 79 81 69 71 69 73 223 354 381 413 336 131 95 87 85 95 101 107 113 93 107 117 123 111 99 105 131 179 263 239 
89 87 105 83 99 89 93 101 77 103 99 93 91 77 97 93 97 109 101 91 95 89 81 91 73 75 79 99 81 83 81 87 81 79 89 99 95 95 95 75 93 87 89 89 95 77 85 81 75 77 83 83 79 85 75 85 255 372 385 395 356 141 103 87 107 111 115 131 115 103 105 101 131 137 115 111 111 103 153 187 
105 93 75 85 97 97 91 99 87 95 99 97 89 89 115 93 105 93 97 107 83 89 83 85 85 85 79 99 93 97 83 87 109 109 105 85 99 91 97 79 97 85 85 97 89 89 89 85 81 79 87 89 87 93 75 93 227 377 393 383 259 139 121 121 137 127 125 145 131 109 117 107 97 107 107 121 127 89 113 151 
119 97 115 81 95 99 95 105 97 99 103 117 111 97 105 103 117 127 97 103 95 105 87 89 75 75 79 99 95 97 87 91 97 91 101 89 97 101 97 89 97 105 89 91 87 83 89 79 77 87 79 81 89 103 83 83 171 235 299 287 187 125 121 131 137 147 127 135 123 105 83 107 95 109 109 125 143 119 119 129 
111 105 109 85 101 83 87 99 99 95 95 105 95 93 95 107 119 95 105 97 93 103 101 87 103 85 93 99 107 81 93 97 107 99 95 97 101 97 83 97 97 103 97 101 99 91 101 89 75 85 93 91 87 99 91 83 127 123 117 141 133 117 127 137 145 141 143 135 125 121 105 113 109 119 115 127 123 105 105 109 
103 97 101 87 91 83 83 107 107 101 103 99 107 95 103 95 101 103 97 95 93 87 81 83 87 87 89 101 107 85 87 99 109 99 91 85 95 89 93 105 93 95 99 109 87 89 89 83 85 81 93 101 87 85 85 87 105 123 119 107 113 117 135 123 153 139 131 137 123 117 99 125 105 101 123 133 113 81 115 117 
101 103 123 95 103 97 105 111 95 91 109 99 93 89 99 107 107 107 115 113 105 91 101 99 101 87 97 97 97 89 85 95 105 85 85 89 93 97 99 99 97 97 101 99 91 85 93 95 87 89 89 99 97 101 93 99 109 119 105 129 117 107 119 137 141 125 139 125 117 107 103 115 119 115 139 131 137 103 107 117 
103 109 125 107 87 91 105 115 111 91 105 97 93 101 113 115 97 107 113 103 107 101 87 99 95 87 89 109 91 91 95 87 103 93 93 111 103 103 103 95 93 95 99 103 87 83 95 85 91 97 87 95 101 123 119 103 111 127 103 119 121 113 115 131 127 123 123 135 127 121 115 109 113 127 139 125 129 121 119 127 
97 109 99 97 103 97 97 123 115 99 99 109 99 107 111 113 117 113 119 107 105 109 99 107 97 89 89 109 97 97 89 109 109 111 109 111 105 105 109 113 109 103 113 107 93 87 95 83 89 81 89 103 115 133 105 113 113 117 95 113 109 113 101 115 141 115 123 129 133 123 123 115 121 119 121 127 147 121 107 127 


