P2
80 60
568
115 149 151 153 149 155 157 157 167 157 135 145 159 157 151 149 143 145 153 133 125 139 141 135 119 115 125 101 95 99 103 99 103 97 105 105 115 115 101 101 103 103 97 111 113 125 123 131 137 135 139 135 117 127 123 123 115 111 123 109 135 117 117 135 133 125 125 113 127 123 127 119 117 129 103 105 113 117 117 117 
133 137 135 147 161 151 137 149 153 149 159 153 159 151 139 157 157 151 141 143 141 125 125 121 111 105 111 115 99 103 91 103 111 101 103 111 117 117 107 107 99 89 105 111 119 115 121 119 121 143 135 119 115 129 135 131 123 123 127 115 127 135 127 121 121 131 133 123 115 133 127 111 121 133 109 99 111 109 109 123 
117 133 145 139 157 147 135 143 161 145 135 147 151 137 145 145 145 139 141 141 131 123 121 117 125 113 121 105 109 89 95 99 113 107 113 115 119 119 119 121 115 107 103 119 129 133 129 131 131 155 141 135 125 129 129 131 135 139 121 129 137 107 129 117 127 135 139 131 137 135 117 127 117 119 111 103 121 121 125 123 
131 147 139 147 141 157 153 163 155 151 119 153 163 137 147 137 139 127 143 135 129 147 129 127 135 121 125 121 123 107 119 127 123 113 125 111 135 133 131 129 121 117 113 129 125 133 129 139 139 155 143 135 145 131 127 123 141 131 133 133 135 129 127 141 129 135 147 131 135 121 135 125 127 125 109 101 131 129 115 115 
119 149 141 157 153 159 157 167 159 153 157 153 153 149 145 149 137 143 137 129 131 127 137 147 143 131 115 131 125 131 125 137 115 121 133 125 137 143 137 137 129 117 119 133 135 139 129 155 141 165 149 157 149 147 135 145 129 125 127 139 133 127 139 147 131 155 135 131 127 137 145 123 139 137 125 107 123 123 115 105 
137 139 147 147 157 147 153 161 169 149 143 177 151 151 153 149 147 137 149 141 131 137 135 135 135 145 131 129 129 133 121 121 127 129 125 135 141 157 135 131 143 127 131 129 143 141 137 147 155 161 155 147 155 159 137 145 145 127 133 137 137 127 133 139 137 139 151 145 135 135 143 145 147 141 129 121 139 133 127 119 
117 133 163 139 159 173 147 151 157 169 163 163 167 145 153 153 157 151 159 145 133 151 153 137 145 141 131 139 125 129 121 141 151 137 141 137 147 167 157 145 141 131 131 147 139 147 127 157 145 165 159 147 151 151 143 147 147 143 139 131 129 141 145 137 153 155 159 139 145 141 131 143 129 157 145 133 143 133 123 135 
131 143 143 171 155 161 151 187 177 161 167 161 163 163 163 167 139 145 165 151 167 151 159 147 149 147 143 139 133 135 135 133 139 135 149 133 159 157 151 141 127 139 147 149 147 151 149 167 169 181 181 161 161 155 149 151 151 149 145 133 147 139 141 139 155 149 141 151 159 141 151 147 151 135 141 141 139 135 131 145 
127 133 141 161 153 159 163 165 167 169 167 171 167 171 159 151 157 161 151 151 155 147 159 145 147 151 149 137 127 143 147 141 143 151 159 147 161 151 155 145 139 135 143 143 171 159 155 171 181 195 189 161 171 161 153 159 145 143 147 143 143 145 153 145 151 145 149 143 145 157 147 141 151 145 135 123 127 143 141 135 
147 151 149 161 163 159 157 165 159 173 175 181 185 159 163 161 159 157 163 155 161 151 149 153 147 145 149 143 131 147 143 151 141 137 171 157 171 159 157 163 157 151 155 163 185 193 185 207 213 239 251 271 279 247 185 159 141 147 151 137 135 149 139 143 149 167 175 153 165 145 149 161 159 159 129 147 137 139 143 127 
133 137 155 171 161 173 159 161 157 149 159 175 153 151 169 161 157 145 149 155 151 161 145 151 159 145 141 133 137 125 143 141 137 143 157 161 173 169 163 163 191 203 265 332 377 338 322 356 389 421 421 403 407 368 330 211 155 137 135 141 133 121 133 139 159 151 157 145 159 139 141 157 161 149 141 135 139 153 141 141 
135 141 167 151 167 159 161 169 169 163 159 171 163 151 163 151 161 141 147 141 149 155 155 169 143 155 145 137 143 135 149 143 149 167 157 175 171 195 203 231 326 391 457 459 444 428 385 403 405 428 428 391 377 377 356 279 163 163 139 153 153 137 147 159 159 149 157 149 157 165 155 155 159 153 149 141 149 139 139 123 
133 143 159 165 175 151 165 163 177 161 165 165 161 177 151 149 159 149 149 147 155 157 151 147 145 135 151 133 141 149 141 145 157 175 171 187 219 277 381 432 463 459 448 455 440 444 405 336 303 344 379 356 336 356 346 287 217 195 179 189 209 205 191 193 189 187 181 169 169 155 139 153 175 157 149 135 139 145 139 125 
139 137 153 163 155 157 165 151 169 159 171 163 157 171 149 143 151 157 155 163 149 155 151 157 139 137 133 145 139 141 135 165 183 235 265 255 257 287 389 465 486 488 434 424 407 360 243 207 183 213 285 336 334 309 281 265 247 217 219 241 259 275 255 235 233 281 263 201 159 161 145 167 171 157 151 143 135 145 143 127 
153 165 165 153 179 163 169 159 177 165 165 165 153 145 143 155 149 145 149 157 151 155 153 155 139 139 143 145 137 147 167 213 311 344 316 303 275 275 305 407 415 332 277 241 265 247 215 217 213 225 263 277 299 287 283 273 247 239 249 271 281 279 271 251 245 307 320 247 185 175 175 175 165 159 153 149 145 149 131 129 
135 153 163 149 155 173 151 153 163 161 155 147 147 147 157 153 139 163 151 159 159 167 151 151 147 159 147 157 147 167 223 322 352 269 161 127 149 227 261 293 243 219 205 247 273 259 233 243 255 199 215 239 261 265 271 259 253 239 265 283 295 285 283 247 281 312 350 279 199 177 175 175 161 159 155 135 145 151 145 149 
143 133 153 147 155 153 161 159 161 161 151 151 161 157 163 163 161 151 155 151 153 151 147 155 163 145 155 167 167 197 324 348 283 189 133 137 187 241 267 271 241 243 279 287 293 289 261 223 251 217 189 217 239 251 259 265 247 265 289 303 305 311 295 259 303 344 348 281 201 183 179 177 183 159 161 159 145 145 155 155 
127 155 157 139 155 153 157 149 165 173 155 153 169 165 165 157 165 157 159 159 167 151 157 173 173 159 163 173 173 255 389 358 328 301 283 257 227 221 199 195 173 215 255 269 275 289 253 229 241 211 161 209 235 265 271 267 263 267 285 293 312 305 299 275 326 368 342 245 201 211 193 195 181 173 159 163 165 163 163 173 
137 157 153 153 163 157 173 171 165 155 163 165 159 173 157 179 175 165 169 157 163 159 171 169 167 177 167 169 177 251 379 366 354 336 330 263 191 155 135 151 197 235 259 257 259 257 251 261 215 211 173 213 245 261 285 269 263 265 289 303 309 312 285 285 320 348 279 233 215 213 207 189 187 181 169 175 187 189 185 203 
143 159 157 147 167 169 169 165 177 173 169 161 169 157 165 177 163 161 153 157 173 159 169 169 185 169 177 191 179 235 346 358 370 379 364 249 159 111 133 189 255 265 267 255 255 245 227 231 177 197 201 197 253 247 259 263 265 257 303 309 289 271 267 285 291 293 293 305 316 271 229 207 205 191 193 189 223 237 233 249 
139 161 155 171 167 161 155 183 169 161 165 175 157 171 165 163 161 163 167 163 177 181 185 193 211 225 193 191 203 269 344 375 399 397 358 259 121 99 147 233 261 275 269 263 257 257 231 221 191 203 197 191 231 261 265 271 255 253 295 303 297 285 299 297 279 267 291 281 364 354 305 255 251 271 273 311 344 354 360 358 
149 163 179 163 171 175 167 167 175 173 157 171 169 159 165 173 167 167 169 179 189 249 225 235 354 436 358 291 297 370 342 375 375 344 311 211 91 75 163 251 283 293 275 245 259 267 259 247 193 189 193 213 251 257 273 275 259 267 291 303 295 293 295 309 297 273 283 259 324 346 324 309 312 340 334 350 387 389 385 377 
131 149 151 171 161 157 171 157 171 169 181 169 171 173 159 155 173 167 179 185 237 291 277 350 477 521 496 469 490 473 303 362 375 312 263 175 93 93 187 257 271 281 249 231 245 257 251 253 149 81 169 215 253 247 273 283 281 269 295 314 295 303 293 285 299 299 283 267 309 332 322 328 338 366 377 395 397 385 377 358 
133 147 157 147 165 161 155 159 169 163 167 161 171 173 185 169 159 169 167 231 279 332 362 453 537 556 545 537 453 477 307 303 385 303 267 177 91 77 177 259 283 291 265 229 239 259 249 247 199 0 125 205 229 233 267 281 291 285 293 301 289 289 281 287 293 265 285 263 301 346 328 346 360 385 401 413 381 340 314 259 
137 147 163 153 157 155 173 169 171 189 171 173 157 169 161 169 173 159 205 243 309 409 417 512 560 508 448 504 436 446 375 356 426 340 275 197 115 103 147 235 287 312 271 249 255 261 265 237 189 169 107 91 133 207 261 275 281 273 265 269 277 271 273 273 281 273 269 267 312 344 334 352 366 360 374 350 307 241 223 197 
143 145 163 161 167 169 167 157 175 183 169 171 161 177 175 155 171 171 177 237 307 391 475 556 552 450 370 465 455 455 428 407 434 350 314 261 189 159 165 207 265 297 275 257 263 279 267 229 201 197 139 2 65 167 229 255 251 257 251 231 243 243 237 239 265 255 245 243 263 269 253 269 273 259 259 231 193 187 185 169 
129 157 165 157 163 159 167 159 165 167 167 165 159 165 163 155 163 169 169 199 251 383 411 506 523 432 370 383 370 303 311 379 393 366 352 314 279 205 165 135 193 229 255 247 269 275 265 241 221 227 179 73 83 199 217 227 207 199 215 207 213 217 237 247 261 257 241 235 225 213 209 201 201 201 193 173 173 171 167 165 
129 163 161 159 149 159 173 173 161 161 171 177 159 177 153 165 157 151 165 173 193 241 271 312 375 332 312 340 328 301 259 330 366 370 368 342 320 251 217 169 143 185 223 249 257 273 271 253 239 257 203 161 161 221 227 227 173 157 155 205 195 203 237 237 251 239 239 223 209 213 193 191 189 183 171 141 165 165 167 153 
143 153 161 161 161 153 159 159 151 161 175 161 151 163 153 155 157 157 155 159 157 171 169 181 187 217 281 330 328 362 350 375 405 389 375 330 322 287 237 213 203 213 219 235 257 287 275 273 249 269 221 205 195 197 217 155 197 183 183 191 195 207 231 239 241 233 219 227 195 197 187 179 181 167 163 155 145 163 149 145 
137 151 149 153 169 149 153 155 169 171 165 167 157 157 145 145 157 155 157 145 165 173 167 153 165 177 211 243 225 271 352 391 434 461 442 419 415 393 360 307 245 205 191 181 197 227 223 219 227 241 221 205 185 183 117 143 179 165 169 169 179 191 189 199 225 227 233 213 219 189 185 187 175 173 137 165 167 147 159 141 
137 159 163 145 157 153 157 163 163 165 157 159 159 159 163 153 163 163 157 161 159 177 171 165 167 165 173 167 167 181 203 267 368 463 483 473 481 457 463 434 374 205 173 177 175 195 185 203 203 219 207 197 211 195 175 175 175 159 167 155 169 171 191 215 233 235 221 237 209 201 183 175 179 165 157 145 155 149 145 141 
135 151 163 159 165 155 169 173 169 169 161 155 163 153 157 169 157 161 163 169 157 169 165 181 167 159 169 165 171 185 195 191 233 393 481 504 514 488 475 477 455 330 183 179 179 189 197 205 217 205 205 191 207 199 183 185 187 181 171 171 163 159 193 203 219 249 233 231 221 219 197 185 181 171 147 153 155 145 157 129 
127 143 157 151 149 165 149 155 165 167 157 157 153 165 163 153 153 155 165 147 165 175 179 181 167 165 175 173 165 173 197 223 261 336 446 492 514 517 498 484 461 377 301 295 322 332 350 358 356 356 334 301 289 275 263 283 309 311 301 249 191 171 181 211 233 227 231 223 219 205 179 179 181 167 149 153 149 159 139 139 
135 167 163 161 149 181 155 175 173 167 167 161 167 165 165 165 175 179 175 163 167 173 169 173 181 173 185 175 193 217 307 366 393 417 415 438 496 490 498 479 453 436 428 426 440 436 422 421 424 426 422 379 381 372 350 379 379 362 360 350 301 203 195 209 227 229 229 225 219 219 195 191 185 171 161 151 157 153 153 167 
131 145 155 163 169 167 157 167 175 177 175 169 163 155 173 171 155 183 189 171 173 171 173 181 181 185 185 201 259 350 326 354 379 399 405 397 395 395 422 442 461 444 450 459 453 442 428 434 432 434 415 395 375 368 350 352 293 261 273 271 251 211 211 201 199 201 207 217 237 207 205 197 201 193 159 161 159 171 159 171 
119 167 159 161 169 171 163 171 173 171 177 163 165 177 173 171 193 193 199 197 205 191 173 183 197 185 189 229 328 358 328 340 374 393 387 381 370 336 362 413 457 448 450 457 434 403 399 399 368 324 299 287 271 273 259 253 237 233 239 253 243 221 215 209 187 179 195 217 225 213 231 245 273 261 263 245 239 219 207 209 
137 131 139 161 159 171 171 173 175 169 163 175 163 165 183 197 279 291 320 387 424 352 285 199 189 207 201 283 358 360 350 364 342 354 366 397 397 391 372 383 419 375 338 334 332 318 293 293 273 251 261 267 257 255 235 239 217 261 261 255 239 237 217 201 183 187 193 227 239 261 287 322 372 375 372 356 346 344 316 297 
145 145 155 167 159 167 163 165 163 175 171 165 165 179 183 273 372 409 428 486 519 539 461 289 239 203 251 330 364 362 352 330 311 322 352 338 366 354 334 316 328 309 322 338 324 316 312 283 267 271 265 267 265 257 265 269 267 273 281 285 247 233 219 189 187 179 215 231 215 233 269 314 352 381 407 397 375 370 366 330 
139 149 161 155 161 163 167 175 173 159 161 161 171 179 207 338 415 455 496 529 556 546 448 316 364 299 330 366 348 358 352 324 295 316 338 312 295 283 287 285 289 275 309 332 342 332 297 316 295 301 285 273 273 285 291 283 271 281 283 213 147 219 213 197 191 193 201 191 177 201 261 301 346 375 407 397 377 391 377 358 
133 165 157 151 163 167 143 151 175 163 167 167 165 181 239 370 448 463 494 548 560 517 486 455 446 409 413 370 358 348 322 293 291 338 344 273 215 183 219 245 263 281 285 311 330 322 299 309 305 287 285 279 291 295 287 287 279 273 271 205 97 217 205 193 195 183 181 175 199 207 239 283 344 364 387 391 379 370 360 352 
121 165 163 155 153 167 159 155 173 165 161 165 171 183 237 356 463 484 512 568 568 550 545 533 521 463 450 385 358 346 312 291 303 328 281 229 179 177 231 223 247 277 275 279 293 301 277 295 301 287 289 295 287 289 289 283 269 265 255 247 219 219 213 201 209 215 197 203 191 233 237 273 312 322 342 332 309 283 263 255 
129 161 161 135 159 155 153 165 163 169 155 155 169 169 209 338 422 463 506 546 546 556 546 564 508 450 436 360 352 330 303 295 285 261 213 173 173 227 273 265 279 285 273 271 277 287 283 289 269 267 271 281 285 277 275 277 259 245 243 261 237 225 223 213 215 211 225 221 233 241 215 197 201 183 171 171 175 181 185 185 
135 153 153 149 153 167 171 153 169 165 169 169 157 167 193 249 379 413 455 535 550 556 562 550 490 455 424 330 316 297 271 259 259 223 177 135 183 277 307 287 289 297 271 271 283 271 279 275 259 259 277 265 275 283 269 263 251 251 263 277 255 251 235 217 227 213 201 209 211 193 177 173 149 145 137 133 147 155 161 175 
131 159 145 147 141 161 157 165 155 151 169 165 159 155 163 185 227 316 368 403 438 492 486 498 473 452 397 307 301 285 269 253 233 211 179 125 197 293 316 293 299 289 269 279 279 273 279 265 243 263 281 257 265 281 275 273 261 267 277 265 277 243 231 235 215 209 173 173 165 171 163 151 145 147 135 133 151 157 167 181 
127 139 159 163 161 165 159 159 173 161 163 169 169 163 163 173 187 183 211 235 243 261 281 336 422 457 358 309 287 269 253 253 221 207 167 121 239 312 311 311 303 283 275 261 275 291 271 273 237 263 297 273 265 273 295 267 273 263 267 259 249 217 181 171 173 161 167 153 157 157 145 137 141 137 165 151 177 177 173 187 
133 165 161 167 167 175 151 171 169 145 163 159 157 159 167 169 169 169 165 179 179 187 185 213 324 391 379 334 299 261 235 247 225 197 131 97 221 297 309 297 303 287 267 259 267 271 261 277 235 265 332 312 281 307 295 281 253 247 229 205 207 175 165 165 169 171 175 171 175 173 149 145 153 149 163 163 177 189 183 179 
115 151 153 151 165 171 163 157 179 159 165 165 167 171 173 175 177 165 171 175 175 181 183 177 235 352 364 342 318 287 257 247 211 173 83 87 181 281 289 316 309 291 257 247 249 257 237 269 231 277 326 299 297 281 241 251 253 237 227 187 191 211 225 217 213 191 193 167 183 167 153 163 175 169 167 157 185 171 181 189 
123 149 157 153 175 173 169 163 177 173 167 169 173 173 163 163 167 153 171 165 175 169 171 181 215 334 381 344 309 281 261 239 221 173 105 85 145 243 283 311 309 289 259 251 261 251 249 259 225 271 259 245 243 227 225 229 233 235 239 235 245 263 267 273 297 287 265 235 217 179 169 175 167 173 173 173 175 171 185 193 
125 147 157 171 165 173 163 159 169 173 171 163 161 169 169 165 159 155 163 169 161 171 169 165 191 297 372 344 303 277 261 269 265 189 149 135 183 249 318 320 318 285 277 263 265 261 251 251 219 237 213 221 205 229 225 237 235 247 251 261 269 279 275 297 287 285 291 271 251 229 207 195 223 219 225 225 207 209 193 227 
111 149 153 159 173 175 169 161 167 179 169 161 167 181 167 155 175 165 159 157 151 165 143 167 191 338 377 324 312 283 255 269 263 241 193 185 217 281 334 314 324 295 283 275 265 263 265 265 227 241 225 215 221 231 239 235 249 257 265 269 265 277 271 265 269 279 279 237 199 211 209 237 283 316 328 330 336 312 265 249 
119 149 169 159 171 169 167 161 165 157 167 171 157 159 169 157 163 159 167 157 159 161 157 155 175 303 362 326 271 279 275 263 275 271 247 215 235 279 295 299 299 291 277 279 277 271 285 243 239 249 239 223 237 235 247 249 241 249 259 271 281 271 255 259 279 271 267 207 173 163 195 239 293 326 340 364 383 377 358 370 
121 151 151 153 167 165 155 159 173 167 161 167 149 149 161 171 151 161 159 151 159 145 159 159 157 239 328 314 289 271 279 263 259 263 233 201 217 221 233 257 293 297 295 305 293 279 269 233 249 253 241 231 233 237 237 253 253 239 249 249 267 275 263 265 273 267 241 179 189 157 213 255 316 354 383 391 403 407 393 381 
129 151 145 153 155 167 163 163 165 159 169 165 165 161 161 163 155 155 173 155 157 163 155 149 157 167 241 312 307 305 293 275 249 227 223 193 169 175 185 177 189 187 203 225 255 253 245 243 241 235 237 235 237 245 251 245 247 245 265 277 265 267 257 259 247 233 211 205 183 187 231 299 362 393 399 395 405 401 391 364 
127 145 147 155 171 161 149 161 159 153 155 151 159 163 157 159 157 149 153 149 137 157 151 159 157 149 169 233 309 309 275 273 255 267 259 207 157 163 157 143 143 151 157 171 185 205 269 279 251 231 243 225 235 241 247 265 267 263 271 255 261 269 263 227 233 197 179 169 165 187 235 301 366 366 391 385 395 360 360 370 
133 165 149 149 143 165 137 159 153 157 161 163 159 151 161 149 153 151 143 145 137 165 145 153 133 147 147 155 213 281 281 281 269 265 273 229 155 161 165 141 135 133 161 163 195 257 328 344 303 267 247 213 197 217 243 251 245 243 235 227 225 229 221 213 205 159 155 137 145 149 161 165 233 263 263 265 281 267 251 259 
127 143 147 145 153 141 149 157 147 139 147 159 151 151 145 145 141 143 155 139 147 137 147 135 145 125 137 131 137 177 247 279 287 277 289 299 259 167 165 151 167 193 205 253 322 344 334 350 312 271 217 169 159 163 161 191 195 187 187 189 185 183 181 175 149 125 135 139 151 133 137 129 149 179 177 179 179 173 185 201 
123 139 137 131 149 129 143 153 151 143 149 149 145 143 143 157 149 131 135 139 115 135 127 125 135 123 115 121 115 123 151 193 267 297 303 377 370 293 253 271 314 344 346 356 350 352 251 203 193 165 161 141 137 143 133 141 139 131 139 131 141 135 149 139 135 121 117 133 117 111 125 113 129 145 153 145 181 165 157 169 
97 107 131 123 133 139 119 125 143 129 139 143 139 135 159 143 143 131 133 133 115 125 139 111 117 111 115 101 115 117 127 133 157 275 381 415 415 415 397 387 391 401 391 375 295 229 149 155 149 153 137 125 119 133 119 133 121 125 119 109 113 107 109 113 109 101 123 115 119 99 95 83 107 141 161 133 157 153 147 157 
105 133 121 117 123 133 139 129 137 137 137 129 143 141 139 127 127 121 135 127 123 129 113 123 127 117 113 115 103 99 107 103 125 179 287 393 428 430 434 438 436 393 326 217 161 153 127 129 127 139 123 125 119 123 117 115 117 105 109 99 113 111 113 101 111 109 115 101 101 107 101 89 99 141 147 141 151 147 141 157 
119 137 119 137 119 139 129 143 137 125 129 123 121 117 127 139 127 107 129 121 109 121 117 123 127 111 105 103 97 103 117 119 133 151 183 257 409 459 436 393 326 257 189 175 163 169 153 153 149 161 141 139 141 139 137 137 115 115 117 101 101 123 115 117 109 105 107 101 91 87 91 77 105 115 119 135 131 143 145 145 


