P2
80 60
660
73 94 75 75 67 75 86 98 92 96 94 90 94 86 98 84 82 82 82 75 75 86 92 94 84 86 110 110 134 216 294 337 385 477 513 523 508 523 513 389 134 108 106 116 118 132 172 164 174 178 170 156 148 136 118 114 120 114 104 104 118 122 144 116 118 116 132 108 94 86 92 80 86 100 88 98 88 67 104 122 
80 88 82 82 84 75 80 88 88 86 98 98 84 80 92 86 84 80 80 88 80 84 86 90 88 94 122 186 347 377 381 385 395 513 554 537 523 517 496 306 134 136 122 146 202 246 308 318 337 353 369 357 339 308 292 290 256 234 224 222 204 208 198 180 178 176 178 166 176 150 152 128 132 120 118 126 118 98 118 132 
75 94 75 80 82 75 84 75 86 92 88 82 92 86 84 84 77 75 82 90 86 84 80 100 100 116 256 420 475 459 436 434 440 482 537 523 496 490 480 310 238 240 256 254 302 310 343 361 395 410 424 399 389 373 369 391 422 424 428 416 404 381 357 330 322 318 336 314 318 320 320 320 306 308 282 274 234 212 198 164 
67 92 84 92 88 75 75 80 86 75 82 88 82 88 86 92 73 77 84 82 84 90 80 102 110 166 383 440 442 438 430 432 446 467 482 490 488 469 430 389 379 347 365 351 328 320 347 373 385 400 430 397 387 383 404 430 444 451 459 449 432 399 385 351 355 355 363 355 381 361 381 381 402 389 387 379 361 347 343 286 
82 94 90 84 88 69 80 92 82 73 92 96 100 88 88 88 69 84 75 100 80 98 86 104 108 210 463 477 459 453 442 449 461 477 467 473 467 424 387 395 391 371 385 353 336 326 334 357 387 367 389 383 381 381 404 420 471 465 473 455 436 426 424 393 369 361 373 391 375 381 393 389 389 379 395 404 391 381 363 363 
71 86 84 86 77 75 90 82 88 96 98 102 106 86 100 88 98 88 88 98 94 98 110 114 130 226 473 477 480 467 453 463 465 490 494 492 449 414 399 397 389 393 387 367 330 318 320 336 369 363 357 363 385 393 406 412 420 446 446 467 442 455 451 428 391 371 383 400 381 393 383 363 383 379 393 389 357 351 355 349 
80 86 94 71 82 77 88 90 94 86 90 110 102 77 100 102 84 88 102 110 112 112 114 116 148 230 428 475 515 480 469 463 475 498 488 480 418 404 400 385 389 375 361 343 330 316 328 318 347 339 328 326 351 397 406 422 438 436 432 432 444 438 449 422 404 375 375 375 363 361 357 343 353 361 349 357 363 343 349 339 
73 90 90 94 92 82 86 104 86 106 94 98 96 94 84 96 86 92 106 104 110 104 118 128 186 298 318 337 478 482 482 478 453 486 434 422 395 381 383 381 375 357 339 341 355 316 314 302 330 322 304 292 332 359 379 389 385 410 402 381 367 365 373 365 357 318 286 270 250 246 242 242 250 264 272 294 296 280 296 276 
77 94 84 80 88 75 84 100 94 92 92 106 106 112 92 100 104 108 114 138 134 136 144 174 328 478 467 389 455 463 469 428 424 414 387 385 361 379 385 379 379 345 337 336 347 322 326 310 308 284 280 270 316 324 339 328 351 343 300 222 176 176 188 188 182 190 158 156 130 126 134 124 124 124 140 142 146 136 168 148 
84 104 102 82 92 90 86 90 100 96 100 100 100 106 106 98 110 118 154 234 312 278 286 345 519 627 637 558 430 418 395 371 373 363 375 373 365 389 400 404 383 363 349 347 341 339 345 320 353 298 292 284 316 345 349 208 178 154 138 124 138 158 150 162 166 170 160 140 146 112 128 112 122 106 118 128 114 96 130 130 
71 77 86 94 94 84 98 88 96 90 98 92 106 94 96 108 144 236 359 482 552 558 558 544 593 633 647 626 484 385 365 379 393 395 385 385 377 385 383 381 377 371 365 365 357 355 355 316 369 337 312 298 332 371 391 310 188 148 140 132 136 146 160 174 184 178 168 146 148 126 132 122 122 120 122 130 96 90 108 120 
88 100 86 77 100 82 86 86 84 96 82 100 92 102 112 120 246 428 540 614 606 595 601 575 568 614 647 629 486 436 475 506 496 449 410 381 379 377 377 383 395 375 379 381 383 365 351 339 395 349 330 332 345 373 400 371 347 282 194 158 148 164 162 186 188 198 184 178 162 144 136 126 112 112 104 118 112 96 122 120 
73 84 92 73 90 96 82 92 90 90 104 100 96 96 106 142 328 560 616 622 610 591 542 589 558 618 650 575 478 531 539 517 500 455 404 381 373 381 385 391 393 387 383 414 385 367 341 355 414 383 369 371 387 426 434 428 420 406 397 339 302 252 206 234 216 230 220 192 192 170 152 148 136 138 132 146 128 114 138 126 
84 104 98 82 77 92 96 88 82 104 92 100 104 110 106 166 334 589 648 648 614 591 568 601 544 552 535 381 490 535 506 480 455 438 414 387 375 385 371 393 383 395 410 408 371 353 334 389 442 414 387 393 422 461 467 471 473 442 463 440 426 408 406 373 312 302 298 264 262 250 234 224 216 218 206 210 236 222 240 172 
82 98 67 90 92 92 88 77 90 82 108 88 94 108 116 146 282 486 660 639 627 624 601 556 381 330 308 369 465 521 484 440 430 432 428 426 399 397 389 385 416 418 404 395 355 343 324 383 428 426 420 397 400 477 504 482 482 478 475 478 447 455 451 400 373 369 369 353 371 353 361 347 343 337 330 336 336 318 326 270 
98 108 75 88 65 82 80 84 90 98 92 98 92 102 106 116 228 330 554 614 599 566 465 290 144 166 192 447 509 480 436 436 471 444 451 459 451 461 414 402 426 406 381 365 330 320 320 353 373 406 406 399 436 525 517 492 457 486 477 453 434 434 438 414 375 365 365 353 367 365 355 359 359 361 363 357 353 328 343 318 
82 98 82 73 84 88 92 82 84 86 86 96 98 90 104 104 154 260 361 509 446 308 150 118 124 114 136 379 504 467 430 447 449 447 446 482 527 556 465 393 353 314 266 248 242 244 256 272 314 349 367 383 416 486 490 471 482 480 486 455 447 436 434 418 375 355 349 351 353 349 347 349 363 359 349 345 337 324 343 328 
71 75 77 82 77 82 75 86 80 84 88 88 94 98 90 98 106 138 184 180 154 118 104 108 106 110 128 256 442 440 451 455 471 451 463 484 531 548 537 519 509 442 294 192 172 174 178 186 174 180 206 238 294 355 404 410 449 465 455 436 436 432 412 406 345 334 347 357 341 343 337 353 312 318 314 284 288 256 222 242 
80 96 94 80 77 69 90 84 75 84 86 80 92 86 82 80 82 90 96 106 96 104 112 108 100 112 128 158 320 406 434 434 426 446 478 490 496 515 529 519 535 527 455 224 168 160 168 172 150 116 108 112 122 150 148 164 192 240 262 278 310 353 330 328 328 330 314 326 322 280 248 238 190 176 148 122 126 104 88 92 
92 80 73 80 90 69 75 94 86 92 100 98 88 90 98 98 84 88 88 102 106 104 96 96 106 108 116 146 176 240 318 353 349 345 379 414 434 488 511 502 511 502 361 198 166 172 180 168 136 116 124 104 104 100 94 84 108 102 120 116 132 152 166 200 214 224 218 190 164 130 132 104 102 108 98 100 92 71 63 59 
90 88 77 86 90 77 88 98 90 102 104 98 104 98 92 90 92 98 92 102 98 100 116 106 104 106 110 122 144 140 172 186 204 168 186 216 174 232 310 359 322 286 214 166 158 162 170 160 142 116 104 108 108 102 102 90 96 96 98 104 122 120 140 158 162 176 160 148 114 100 110 96 96 82 88 86 82 53 65 51 
88 104 84 84 94 88 96 98 100 104 104 94 96 92 92 94 84 94 102 100 96 114 100 104 106 102 112 122 124 166 164 166 158 134 132 140 140 148 134 164 156 188 180 158 136 144 152 134 138 118 100 100 102 96 86 92 100 86 102 108 118 116 140 150 154 140 140 114 112 106 96 86 77 88 82 86 71 45 41 27 
88 110 80 100 77 73 98 100 94 100 92 104 90 92 90 98 94 98 90 98 94 96 96 90 102 108 102 116 122 128 138 138 134 128 126 122 130 126 118 116 124 144 152 140 122 130 140 120 116 110 122 98 98 80 90 82 92 96 96 106 110 128 130 134 138 146 128 114 104 100 92 77 82 63 69 71 63 21 27 35 
88 92 82 88 106 88 84 90 108 90 102 100 94 100 104 92 88 84 98 110 94 112 110 106 90 96 106 116 116 112 114 120 114 110 108 116 104 108 110 118 104 120 124 122 118 122 126 120 114 116 106 110 100 84 82 69 94 92 108 96 112 124 124 130 134 136 144 112 108 96 82 73 84 55 59 53 27 6 12 21 
94 110 77 100 94 96 98 90 108 94 100 94 106 98 104 96 92 92 98 92 94 98 92 98 94 92 112 102 112 100 96 100 112 102 98 110 102 104 106 110 112 108 132 124 122 124 128 124 108 106 112 102 92 100 92 77 92 98 86 100 106 122 136 142 140 136 132 122 130 110 96 94 92 77 73 55 41 2 17 31 
84 102 65 80 90 82 90 94 98 106 106 92 96 94 102 94 88 86 86 96 92 102 92 98 96 100 94 102 108 96 100 94 94 100 106 106 98 106 106 108 104 100 106 116 118 112 124 106 118 100 118 112 100 104 86 86 94 108 98 114 114 120 140 132 144 146 142 134 160 186 182 174 158 148 140 106 80 39 33 41 
88 84 75 94 77 75 82 84 92 110 98 100 98 96 88 88 88 82 86 88 94 88 98 90 92 98 98 94 98 96 102 80 96 94 94 106 98 98 108 100 110 102 110 104 120 124 124 118 116 112 114 94 88 102 84 94 90 102 100 100 114 128 142 142 148 150 138 136 186 230 246 218 224 236 228 212 190 176 150 140 
84 110 82 88 86 71 71 96 94 96 92 92 96 92 96 86 84 92 88 90 96 82 96 82 84 94 88 98 92 92 92 94 92 86 94 98 104 98 114 110 116 118 122 112 118 118 122 118 120 112 106 110 98 90 86 86 102 108 106 116 140 140 146 160 150 156 160 150 200 244 248 264 258 246 252 250 240 224 228 194 
88 100 84 88 82 90 82 96 94 88 96 96 92 104 98 90 100 94 86 82 73 84 84 80 96 94 92 86 100 82 82 88 80 80 86 102 94 88 104 100 110 106 102 108 108 118 130 120 116 108 112 98 90 96 92 88 102 106 120 130 182 228 216 194 200 184 176 160 188 286 292 296 274 292 280 260 250 240 240 224 
84 100 86 94 80 82 77 94 86 94 102 100 96 80 102 92 80 77 92 88 86 100 90 86 90 96 82 94 84 77 80 77 86 80 84 92 90 96 104 106 112 106 120 110 112 124 118 112 118 100 102 102 86 86 94 110 148 134 134 216 385 432 420 399 406 355 244 174 236 300 304 316 302 286 290 288 272 242 250 240 
92 96 80 88 84 80 75 90 92 86 102 88 92 92 82 94 80 90 88 94 77 88 86 88 84 84 73 82 84 82 71 65 75 86 92 82 80 86 94 102 104 106 108 118 116 114 104 116 102 108 100 112 108 106 104 160 180 142 146 341 440 432 438 471 496 473 416 296 266 298 318 318 312 296 298 296 270 260 270 250 
92 86 80 84 90 77 75 84 90 88 92 77 86 84 90 90 75 82 82 75 71 92 84 71 90 80 90 80 80 67 84 69 77 80 100 90 67 75 94 100 106 110 110 126 108 112 118 114 114 96 116 110 112 158 162 168 218 196 250 389 442 434 469 492 502 531 492 420 355 322 318 318 318 310 310 310 298 314 330 296 
82 106 88 88 84 82 98 88 88 100 80 82 82 94 90 80 84 77 100 77 73 82 82 88 73 77 88 80 86 80 75 63 77 75 90 96 82 98 94 106 106 102 114 116 116 112 118 116 122 118 116 116 112 176 264 238 322 314 351 353 418 414 463 477 513 521 506 455 361 308 298 334 371 367 377 345 363 424 422 336 
80 80 88 84 77 82 80 82 98 104 98 84 92 104 73 82 73 84 94 90 80 102 96 94 75 75 84 86 92 88 88 80 80 86 90 94 88 92 98 94 110 106 114 118 124 120 124 114 118 114 118 132 136 128 190 300 337 371 377 375 400 400 457 511 552 527 490 446 357 280 328 355 373 391 381 373 436 517 459 399 
100 92 86 94 88 82 71 98 108 106 116 108 102 96 94 92 82 90 86 94 92 94 98 80 69 82 77 84 84 96 86 82 80 86 86 92 88 100 112 108 114 110 116 130 128 128 122 122 116 130 162 212 208 212 248 268 336 406 412 383 395 410 498 552 562 519 478 463 330 312 371 395 395 397 393 406 446 544 459 416 
82 96 86 88 75 90 88 104 112 96 100 104 102 110 94 96 96 92 98 98 90 104 88 96 86 92 84 84 88 86 82 86 86 92 90 104 80 88 98 102 114 108 108 130 122 120 122 132 136 208 371 469 490 500 504 511 486 469 422 404 391 424 529 560 546 521 480 395 310 337 393 428 402 406 402 402 408 523 463 387 
88 94 98 98 84 84 102 100 110 104 84 86 96 92 92 94 84 98 98 90 94 96 98 92 90 88 84 96 108 92 94 80 88 80 90 100 96 92 100 106 114 108 110 128 120 114 132 126 170 294 535 568 542 556 540 535 556 535 473 422 406 480 546 556 535 509 442 320 276 359 402 410 397 410 410 359 369 488 440 379 
98 104 88 100 88 80 88 88 92 98 106 100 104 106 106 90 98 96 96 96 88 92 84 98 90 96 88 98 100 94 98 88 77 90 84 92 88 90 102 106 104 96 114 120 130 112 118 126 212 337 562 554 556 573 556 504 459 486 455 422 442 506 533 517 519 436 347 276 300 371 391 391 399 402 393 347 345 459 449 391 
98 90 90 82 84 92 90 102 102 92 104 100 102 106 96 110 102 84 98 98 106 98 90 88 96 77 84 94 86 92 94 86 90 92 90 94 90 106 102 104 102 102 104 126 114 124 120 138 236 347 531 540 562 554 539 477 418 490 449 453 484 519 515 508 455 339 286 244 316 351 375 371 385 383 345 320 320 424 446 373 
84 96 90 94 90 100 88 92 110 98 92 86 106 96 110 92 106 90 100 88 96 92 92 100 94 94 86 88 100 86 96 86 84 86 94 100 88 94 92 98 102 100 116 114 114 110 112 118 212 290 459 488 517 571 570 521 471 500 426 459 482 498 504 480 373 306 294 256 296 343 347 383 377 363 339 320 330 432 440 371 
92 102 80 94 84 92 82 98 100 112 92 96 102 104 98 94 98 90 88 88 92 104 94 92 80 90 90 90 100 86 77 75 92 80 100 94 82 92 88 92 98 88 98 110 106 116 110 106 142 228 408 465 486 527 525 531 540 517 467 461 492 500 496 469 414 330 268 236 288 322 324 361 379 365 312 326 304 383 399 357 
80 92 80 90 82 84 75 86 88 102 102 92 88 84 98 86 80 82 86 92 82 92 100 84 96 90 104 98 100 90 75 80 84 88 94 84 84 80 96 88 90 75 94 96 100 104 100 116 102 138 212 324 369 395 404 404 389 440 444 436 461 478 500 488 467 365 268 248 300 334 320 336 343 322 292 316 306 332 361 357 
75 86 84 90 75 84 82 73 92 108 94 96 94 88 80 77 80 84 90 90 92 82 90 86 88 86 82 86 88 73 82 69 84 90 86 86 77 77 80 92 80 82 84 90 96 90 110 106 104 98 124 128 138 124 142 238 400 428 451 442 406 449 488 492 478 451 304 244 298 330 316 328 339 312 292 290 282 310 355 349 
77 71 77 94 65 80 88 84 86 73 92 94 98 92 80 86 88 80 69 71 90 88 75 77 73 77 77 80 77 82 71 80 82 75 80 80 75 82 77 80 84 84 86 92 94 86 98 90 92 98 94 92 94 96 126 320 430 442 449 400 347 399 480 511 488 465 397 274 272 312 312 304 304 322 284 288 264 278 343 322 
67 73 59 77 71 63 75 86 92 90 88 100 90 98 77 71 88 84 90 82 82 77 75 90 65 80 82 65 77 67 61 69 80 80 82 69 77 82 71 75 75 65 84 90 84 84 88 84 80 84 86 75 96 136 276 375 447 444 422 363 326 355 461 511 498 482 440 330 274 324 330 300 290 290 274 280 272 284 336 306 
55 73 65 69 59 57 53 77 84 84 86 65 94 86 84 67 75 92 73 77 63 65 77 88 71 55 63 77 73 69 61 55 55 69 63 73 63 67 73 73 63 63 80 86 73 73 88 80 86 73 77 75 96 238 194 254 298 308 369 326 332 377 432 498 480 465 440 351 300 308 314 316 308 296 268 292 280 316 334 318 
33 73 51 57 57 61 65 61 82 75 51 57 71 71 55 59 69 67 67 71 71 69 75 67 67 59 69 57 61 65 59 61 55 47 73 77 63 63 71 75 71 59 75 80 82 75 84 75 75 71 82 65 82 73 90 92 88 96 256 324 337 343 424 453 438 444 402 337 280 282 320 328 288 276 268 268 304 316 322 298 
43 59 47 47 51 37 41 63 49 59 61 59 51 77 47 51 55 45 65 59 59 55 59 51 49 55 49 59 65 57 57 47 45 55 69 63 51 51 65 63 67 59 73 84 71 69 73 55 67 51 57 53 41 33 29 10 33 43 100 238 306 314 389 363 400 379 304 238 188 216 240 280 290 268 260 274 270 288 298 298 
51 69 53 65 65 45 59 61 63 61 75 63 55 75 67 49 49 65 53 61 59 47 51 71 41 47 55 47 59 51 59 51 37 43 59 55 41 57 53 45 47 47 49 59 61 67 59 53 53 51 37 39 31 27 31 0 8 27 27 51 104 150 184 234 244 198 118 88 65 84 96 142 164 170 206 248 274 282 286 280 
57 77 59 73 69 53 63 57 77 77 63 67 80 80 67 69 77 45 67 71 77 69 63 75 61 59 73 63 67 63 67 55 53 61 61 63 63 55 61 61 65 47 61 67 71 65 67 53 55 43 41 43 41 35 23 21 17 29 25 35 41 55 53 61 80 75 75 73 43 37 51 41 49 57 92 166 248 274 288 266 
49 86 63 65 63 51 65 71 75 82 69 67 82 75 90 80 77 63 69 67 73 71 63 80 65 63 67 77 73 61 53 55 77 55 63 80 59 55 53 65 59 65 55 67 71 73 65 73 71 59 57 55 47 41 41 21 33 25 41 37 43 49 63 67 65 69 80 73 55 47 63 57 49 65 84 112 202 238 270 240 
65 75 75 75 80 65 69 75 80 86 88 80 80 71 90 63 73 71 88 75 86 84 77 82 67 75 73 71 86 69 77 77 73 67 75 82 73 73 73 63 61 69 73 75 77 82 82 84 75 80 73 73 59 53 49 45 45 55 47 49 59 90 77 86 75 90 88 77 80 94 108 130 132 112 112 112 134 180 264 218 
69 80 80 80 82 86 86 86 69 96 86 77 84 77 100 88 71 80 80 82 100 80 92 88 63 77 77 77 80 71 69 73 55 61 80 84 67 80 75 63 73 65 71 75 77 86 80 73 77 67 77 77 69 57 55 45 45 63 65 77 98 98 96 90 100 104 116 120 126 106 112 128 142 148 126 120 104 94 150 150 
88 94 65 80 75 90 77 88 77 90 94 98 96 88 112 90 84 80 84 94 84 92 86 86 80 88 88 90 92 80 75 71 77 84 84 77 75 75 80 67 69 65 80 82 73 94 86 90 82 71 73 77 73 59 51 57 57 82 86 108 98 104 112 108 118 120 130 140 126 110 120 122 120 106 114 126 118 88 130 134 
86 92 88 82 77 86 90 92 94 96 94 104 102 100 100 84 94 94 88 96 104 94 86 100 71 84 84 84 90 90 82 73 92 77 94 90 69 77 75 69 84 75 82 90 92 90 88 86 86 71 65 75 73 75 71 53 77 80 108 112 108 108 128 122 126 142 132 118 108 92 98 112 104 112 114 134 136 102 126 124 
90 84 82 88 86 75 71 90 92 98 92 88 96 100 77 96 94 71 92 86 96 102 106 94 98 86 82 92 102 80 82 84 84 73 96 86 82 86 69 82 80 75 82 86 98 96 98 90 86 84 82 86 75 84 75 63 84 67 96 102 96 110 126 132 128 132 142 126 110 102 108 116 134 134 130 124 128 110 114 110 
92 96 75 84 77 65 71 98 100 102 98 98 96 98 100 86 75 84 82 98 86 88 90 82 80 86 90 88 96 77 80 84 82 82 82 90 71 73 73 84 82 73 86 90 94 88 90 80 84 86 84 84 77 73 77 59 69 94 106 92 102 100 132 114 146 130 124 118 110 102 102 120 118 108 132 118 118 82 116 120 
94 100 108 96 84 84 98 96 84 96 100 86 86 82 90 92 94 80 96 98 100 96 94 104 94 98 88 88 86 82 71 80 80 67 77 94 63 90 77 80 82 69 77 84 92 92 90 92 88 94 84 100 94 98 86 90 90 102 96 102 102 104 120 146 134 120 130 114 112 100 114 120 132 114 128 134 130 100 110 118 
94 114 98 90 71 96 86 92 96 88 94 88 100 96 104 96 80 80 88 96 106 98 96 98 88 86 88 104 90 86 86 73 80 86 90 104 84 80 77 84 80 69 82 96 90 92 102 90 90 98 92 100 100 120 98 84 106 104 104 96 100 118 114 122 118 124 146 110 100 114 116 116 120 122 136 142 142 128 126 118 
92 110 84 84 84 96 80 112 102 98 100 106 96 106 104 98 92 96 104 104 96 104 98 108 102 82 94 94 98 94 94 90 88 98 96 110 90 88 90 100 100 86 102 100 98 98 98 84 84 94 94 100 106 126 82 94 104 108 100 104 100 106 110 122 136 114 136 124 108 108 132 114 132 128 134 144 158 132 124 136 


