P2
80 60
738
293 297 281 309 267 277 287 285 297 307 299 293 299 289 295 291 281 289 295 269 265 281 289 277 257 269 265 241 257 249 263 257 271 267 251 261 261 253 221 241 219 239 235 235 235 241 269 255 249 287 267 277 273 273 283 277 281 269 281 267 271 251 279 281 275 247 277 259 267 265 271 243 251 267 243 235 235 233 251 215 
287 291 271 277 283 279 283 283 285 295 305 283 287 283 283 283 287 281 277 279 279 255 259 255 251 249 243 253 249 255 237 253 271 249 235 271 257 249 223 231 221 237 239 219 233 235 255 245 255 265 279 263 275 271 293 281 277 271 275 259 261 267 281 255 249 259 275 251 247 259 265 253 243 265 241 233 231 237 239 219 
281 277 275 279 285 281 275 287 279 293 293 289 283 279 289 273 273 267 273 267 261 261 269 259 267 249 249 247 263 237 245 243 259 255 265 267 267 255 239 245 233 235 231 235 255 251 255 263 265 277 283 279 279 267 285 271 285 291 271 279 267 265 267 247 253 257 279 265 265 263 253 261 253 257 255 235 247 239 235 235 
285 281 275 281 279 281 291 297 281 297 291 303 301 265 279 285 273 273 281 269 261 281 277 277 271 263 265 273 273 265 269 263 283 259 263 259 287 259 249 247 231 247 239 245 249 257 269 263 269 279 273 275 293 269 279 259 291 285 277 279 271 279 281 267 265 267 285 283 271 261 265 275 249 257 255 229 257 241 253 237 
289 287 285 281 289 301 297 293 287 295 303 291 287 291 273 281 281 289 279 275 267 263 271 287 281 269 245 263 283 293 269 277 275 273 271 273 277 269 265 251 251 253 255 255 249 275 267 293 273 287 279 305 293 295 281 287 281 275 287 289 267 265 285 287 277 267 273 277 277 285 281 267 271 285 259 245 253 245 257 241 
283 267 285 289 281 289 301 289 283 287 287 309 291 285 297 295 289 269 281 279 279 277 279 281 281 277 263 281 277 289 279 269 285 283 261 281 277 279 257 245 247 261 259 257 269 273 273 291 277 289 299 299 295 285 287 297 293 297 291 289 273 265 271 273 263 259 291 287 273 269 283 283 271 267 263 247 265 253 275 239 
267 279 293 267 281 289 285 273 279 303 295 291 307 283 283 293 285 285 279 281 275 291 285 283 275 273 259 269 273 281 263 285 305 287 281 287 301 305 273 271 257 253 263 269 267 273 279 289 273 291 301 295 293 291 305 293 311 291 289 285 261 297 293 261 277 285 295 281 287 281 273 285 261 279 271 261 269 261 267 243 
291 277 267 295 283 289 287 297 291 305 295 301 305 295 283 299 275 291 297 297 281 279 291 283 275 285 277 281 283 289 281 283 311 291 285 283 307 289 279 261 251 269 273 273 275 279 295 279 293 301 309 319 307 303 305 289 303 303 289 289 291 281 293 265 277 277 281 291 277 283 291 279 279 273 275 283 267 245 275 249 
273 265 273 289 289 295 299 297 287 305 303 307 317 309 293 297 283 303 289 285 285 279 291 287 283 289 281 277 281 301 287 283 307 309 303 309 301 289 271 265 259 267 267 277 287 291 293 291 295 299 307 305 311 295 293 301 283 295 293 297 287 277 287 283 287 291 287 303 281 303 295 277 279 271 269 273 267 265 269 249 
293 293 281 287 299 305 307 287 283 315 321 307 311 289 303 289 289 299 307 297 293 283 285 297 279 281 277 285 277 303 291 297 299 299 311 313 309 289 281 281 263 277 291 273 297 293 299 307 293 297 319 305 323 311 295 295 305 315 293 295 273 287 301 269 277 297 305 295 297 289 287 291 293 277 267 285 267 259 257 233 
275 289 285 295 281 301 293 287 293 291 297 315 295 285 305 303 289 281 303 297 281 285 289 295 293 281 273 271 281 289 289 287 297 293 293 317 317 299 283 291 313 349 385 373 323 307 291 303 299 295 313 313 311 297 309 283 287 285 279 295 283 281 281 271 287 267 289 287 283 295 293 291 293 285 279 273 273 269 267 253 
291 281 287 281 291 293 295 301 285 289 295 301 303 281 293 287 283 285 289 281 281 283 285 303 273 283 263 267 303 283 297 295 303 305 297 331 329 321 305 335 482 562 591 616 513 353 301 289 307 303 315 301 303 293 305 283 297 313 299 305 295 283 299 283 283 277 287 291 287 297 289 297 283 291 283 277 279 273 277 261 
277 287 297 285 289 289 289 293 295 289 299 301 299 311 287 277 285 291 291 275 297 285 275 295 275 277 271 281 295 311 283 301 303 303 333 387 407 379 329 329 411 581 595 634 641 503 337 303 301 307 315 299 305 305 323 337 345 371 365 373 361 353 359 347 329 311 309 297 307 297 287 301 293 299 283 271 287 269 281 269 
285 287 289 301 275 301 299 283 285 295 287 287 297 291 277 277 275 299 295 301 267 291 279 283 271 281 255 277 277 291 291 309 321 373 468 448 391 383 341 325 325 505 601 622 653 639 462 335 329 317 321 325 311 343 369 405 413 419 421 468 431 417 407 377 373 367 363 357 339 331 323 309 319 317 317 303 289 279 291 267 
309 305 295 297 309 297 297 283 291 297 301 293 293 285 273 287 281 281 307 283 277 285 297 289 269 277 275 283 295 291 315 319 409 462 446 315 130 144 181 277 315 395 434 543 587 575 476 405 385 351 347 343 335 359 411 425 393 446 460 501 446 444 448 421 399 399 393 383 427 425 417 425 419 444 470 458 427 379 355 307 
277 297 289 287 271 301 285 287 277 301 295 289 301 285 285 293 275 297 293 283 297 289 297 283 269 279 275 307 305 307 317 391 541 497 431 409 371 383 297 331 267 303 321 365 427 425 436 429 431 355 345 313 305 381 436 436 436 434 448 444 434 470 442 429 409 409 419 419 484 466 474 468 454 513 560 562 546 546 519 460 
289 279 287 275 295 277 299 285 269 291 295 295 315 291 287 289 293 285 305 273 279 287 281 297 291 287 285 311 315 323 335 472 566 496 486 484 486 476 337 245 181 269 335 371 413 427 417 413 391 349 349 313 293 381 403 401 395 411 419 413 444 474 446 429 440 434 425 458 501 505 511 496 484 521 556 554 558 541 550 533 
293 297 307 273 281 295 283 279 279 301 285 295 311 299 293 285 299 293 295 293 303 291 297 309 299 301 297 295 309 329 339 446 515 496 490 499 535 472 333 217 211 345 413 419 438 431 417 413 409 367 325 329 307 341 369 395 377 397 391 417 454 431 448 478 460 456 436 492 554 560 529 513 513 541 558 564 575 558 550 546 
291 283 287 289 283 299 299 285 295 295 297 295 301 299 297 299 309 297 307 297 291 311 315 325 317 321 315 315 335 335 343 442 488 509 499 503 515 438 293 201 253 341 425 446 446 411 407 405 415 383 337 337 323 355 387 395 385 383 369 419 442 450 433 446 450 433 429 507 556 548 519 533 546 552 568 570 591 583 587 560 
295 289 285 281 291 287 301 293 297 315 307 305 297 285 295 305 293 295 291 277 323 317 315 345 349 361 369 379 335 357 373 442 472 507 499 478 440 369 237 195 255 343 415 436 436 427 379 371 395 381 339 315 347 387 415 413 391 373 379 405 411 425 433 434 433 454 466 496 525 535 531 517 517 552 572 572 585 575 605 562 
293 307 283 299 295 307 293 303 287 297 307 307 303 301 295 287 293 295 297 299 309 335 389 429 440 446 548 591 539 523 560 579 421 480 535 468 391 341 233 179 243 355 411 434 444 454 389 405 409 399 279 255 341 381 389 391 391 397 423 438 434 431 434 442 427 452 494 519 480 521 511 525 509 537 548 585 593 583 603 558 
295 301 305 279 295 305 293 291 291 301 287 297 297 291 289 303 289 297 317 303 319 379 460 505 523 589 663 665 659 651 678 663 427 405 550 476 391 319 223 156 221 337 431 440 446 436 423 436 450 409 399 253 285 315 385 391 419 433 425 436 427 436 417 434 470 454 474 503 484 527 513 499 519 539 570 581 589 593 581 554 
287 293 275 293 287 285 297 287 289 289 311 293 297 301 277 289 291 291 315 293 327 411 507 544 572 682 668 661 699 653 665 670 499 494 572 509 415 381 307 239 235 313 397 450 444 431 442 482 466 446 373 193 120 247 387 409 405 431 417 431 419 419 429 448 450 446 468 474 480 523 533 541 541 543 575 572 591 560 544 470 
279 279 285 273 291 299 287 275 287 287 301 287 305 297 303 295 281 303 297 309 331 433 554 595 670 701 655 554 610 622 636 678 537 543 581 505 458 450 423 359 303 305 357 387 425 419 440 472 482 409 381 289 172 207 325 367 383 413 421 423 379 377 415 407 417 415 462 440 444 523 517 517 521 525 537 546 515 450 393 355 
287 293 285 291 289 295 303 295 283 309 299 311 293 305 295 291 299 287 311 303 335 433 556 597 668 690 665 577 639 637 634 663 541 537 529 497 519 509 480 431 333 315 297 349 401 399 446 442 438 389 377 325 255 311 359 367 373 349 357 339 349 329 373 385 417 413 431 423 423 421 405 401 415 397 399 377 349 333 325 331 
281 275 287 291 287 301 293 277 297 301 303 299 299 307 295 267 289 299 293 311 323 409 499 560 570 643 651 668 668 593 537 552 515 497 478 474 505 525 496 476 373 339 335 345 401 375 415 417 415 399 349 319 289 329 369 345 347 277 289 305 323 313 353 369 401 409 427 415 401 365 347 341 343 325 321 315 303 305 307 297 
283 283 289 291 283 303 291 277 273 293 285 301 311 283 291 285 287 305 301 291 299 355 399 452 456 505 550 583 492 401 359 405 486 486 482 454 470 488 458 450 431 371 375 391 401 377 417 427 385 389 351 339 353 333 319 281 293 307 257 249 303 327 351 375 401 393 405 387 379 355 341 323 307 315 307 293 295 291 303 283 
281 297 289 289 271 287 287 291 281 289 303 295 291 295 285 283 277 281 293 291 285 311 309 319 319 337 325 339 329 331 323 363 460 521 490 440 458 450 375 373 343 385 375 349 347 365 423 450 411 355 401 359 321 271 187 162 253 325 311 327 313 325 347 341 353 353 361 357 347 349 331 309 309 301 295 273 289 287 275 273 
285 293 291 279 287 295 283 291 271 295 297 297 287 289 275 289 293 281 285 285 277 303 283 287 299 305 277 299 305 311 301 341 389 554 529 454 343 265 183 221 277 375 355 319 323 429 575 601 554 499 401 341 323 283 281 275 297 305 301 301 297 303 311 317 323 339 359 349 321 329 331 309 311 297 283 279 275 275 283 259 
289 287 287 283 293 305 285 283 297 315 295 293 283 283 277 287 277 283 291 281 285 303 297 291 293 301 281 293 283 307 307 317 335 482 552 476 299 30 0 146 261 295 494 494 462 546 643 672 678 546 377 345 339 335 325 323 307 313 309 301 303 313 317 325 343 359 373 357 357 331 323 327 307 301 269 285 293 267 281 255 
273 295 287 285 273 289 287 295 269 303 291 295 299 289 299 289 289 299 291 291 293 313 297 291 299 307 289 285 301 313 303 335 339 371 472 539 431 309 271 301 249 213 454 612 603 628 674 703 628 421 351 333 355 341 323 319 315 311 307 301 295 303 317 339 367 379 373 375 357 325 327 309 297 289 279 265 285 263 271 275 
279 301 277 283 295 289 293 303 283 291 293 297 301 291 295 293 281 291 301 301 293 313 299 303 311 289 307 291 321 337 317 323 345 359 361 480 541 484 407 365 311 311 539 614 622 641 690 682 482 339 335 341 333 333 329 319 331 319 319 305 297 303 327 343 377 385 387 387 369 341 335 327 295 303 279 269 281 257 297 255 
273 293 283 277 283 295 273 291 287 297 291 289 297 311 299 291 275 289 307 293 293 305 321 317 297 307 305 311 311 325 331 351 375 389 383 421 444 474 436 407 361 383 560 610 620 649 637 511 355 335 335 335 353 333 333 327 317 315 309 301 291 303 327 345 381 375 385 367 365 345 321 325 303 303 285 275 287 279 269 259 
275 301 285 289 277 307 301 297 299 289 299 287 305 301 295 297 303 299 305 293 293 303 317 301 309 303 315 319 395 462 519 552 570 562 548 543 543 544 533 442 397 425 484 468 488 488 450 347 323 329 349 349 353 341 341 339 327 317 313 309 295 319 333 353 371 373 367 375 357 349 339 325 309 293 289 275 279 261 271 255 
285 287 285 287 293 291 289 291 287 297 305 299 297 301 305 297 273 311 309 293 295 303 307 307 317 325 319 421 537 564 568 575 570 572 572 575 566 591 597 577 574 558 496 419 339 329 323 329 333 325 337 343 353 327 343 329 321 313 311 331 311 315 331 357 379 367 371 367 369 343 335 323 319 307 281 271 273 283 279 265 
265 295 281 297 285 287 287 293 291 309 299 291 311 317 301 293 309 305 309 299 297 311 303 315 319 323 359 535 587 560 535 539 562 574 568 572 554 612 593 583 589 597 591 529 421 335 337 355 347 355 347 341 351 345 355 343 335 313 347 349 329 341 331 329 337 333 341 359 361 343 339 337 315 301 283 275 283 267 289 273 
287 277 275 295 291 301 299 299 299 311 311 307 305 303 309 305 297 307 309 301 311 307 319 319 311 335 423 574 603 583 543 511 513 531 543 560 546 608 599 599 605 599 610 603 564 450 407 381 383 389 359 365 377 363 355 359 325 343 369 363 367 361 345 333 333 333 343 363 351 347 345 351 319 311 279 263 275 269 273 275 
293 293 285 287 279 287 295 299 287 301 295 305 303 303 297 303 301 311 311 303 305 317 313 337 325 351 482 577 579 566 550 513 492 503 494 480 499 554 579 605 614 606 603 612 606 568 494 401 385 381 383 391 401 389 401 385 379 383 415 407 371 383 373 335 335 329 329 347 347 343 329 321 281 251 237 215 243 265 277 295 
295 279 295 291 295 299 305 301 291 297 291 305 305 315 309 329 335 325 343 341 333 329 307 333 341 401 511 556 556 564 546 525 511 499 446 425 403 446 480 499 537 562 575 595 612 616 564 478 417 413 409 419 425 417 425 419 429 438 436 385 359 371 365 343 315 337 339 347 337 335 347 339 277 251 211 170 189 239 273 303 
285 311 295 289 275 297 285 277 297 301 313 299 301 311 327 387 490 531 568 568 554 497 407 359 351 484 562 556 558 562 562 552 527 503 436 381 383 387 385 417 452 503 527 575 599 605 591 544 444 403 419 427 429 438 427 419 436 425 444 311 201 385 383 357 327 315 361 391 371 381 417 440 460 448 405 325 273 247 325 337 
287 303 291 297 287 309 293 277 301 307 313 305 313 321 363 505 696 688 703 690 670 674 645 552 519 628 605 554 552 568 572 562 537 484 403 359 359 375 383 401 421 466 478 517 579 579 581 558 519 440 425 431 440 438 440 438 442 433 423 373 307 403 421 375 357 337 359 403 349 377 434 470 497 535 525 501 458 385 395 385 
283 321 301 279 297 291 281 287 301 323 305 299 315 325 440 612 717 719 723 730 674 637 628 630 651 665 639 574 550 543 519 541 511 423 361 347 347 389 397 407 438 458 468 466 503 539 562 570 548 496 425 427 446 450 444 436 456 444 427 409 381 397 431 405 379 361 359 365 351 345 425 462 494 525 525 501 456 425 434 393 
291 303 289 287 277 293 289 279 289 299 301 303 307 337 458 649 705 730 738 732 680 539 541 622 626 674 643 548 525 529 496 488 476 405 361 323 331 395 421 427 429 442 454 450 468 480 509 544 550 544 527 476 478 484 442 436 442 440 446 442 405 401 413 411 417 423 403 365 363 383 419 452 476 490 484 446 429 423 419 425 
289 301 277 303 279 299 303 289 281 285 297 305 301 315 421 605 676 707 730 734 684 517 521 583 589 637 608 531 517 525 484 454 434 403 347 293 303 375 379 429 433 458 452 450 448 448 464 497 548 570 581 544 541 544 509 444 434 444 429 429 423 415 427 421 421 478 440 423 371 383 425 452 460 458 452 444 450 431 440 427 
281 293 281 291 303 313 297 295 295 301 299 311 315 327 367 560 653 672 707 719 670 616 599 634 628 639 606 533 501 486 450 442 417 387 325 267 311 421 381 429 444 444 456 456 444 450 462 466 476 575 597 566 568 556 539 462 423 411 393 397 385 395 403 403 411 415 431 397 373 351 403 460 474 470 474 462 486 484 452 431 
275 317 291 299 295 311 289 303 291 289 301 291 301 303 323 411 566 616 630 643 636 639 595 525 525 601 566 537 515 488 466 446 411 355 249 237 301 389 409 438 440 462 436 433 440 434 438 434 444 560 577 572 583 593 505 417 369 357 339 337 337 339 345 329 333 331 329 333 345 369 442 472 494 490 497 505 505 464 393 373 
269 281 277 285 299 297 299 285 293 299 303 295 301 311 305 337 375 377 403 407 417 411 383 345 369 519 546 546 519 511 492 462 399 331 207 225 255 341 403 444 442 448 431 415 434 411 442 431 466 564 583 572 579 533 413 383 385 355 333 337 349 333 319 289 295 309 327 331 373 434 482 505 517 523 513 517 517 375 345 319 
277 283 285 291 301 297 291 303 283 301 305 301 307 295 293 303 307 309 319 317 325 329 327 325 329 460 570 543 531 515 490 458 419 331 215 201 191 323 391 431 440 438 421 425 405 413 456 476 513 564 603 577 548 440 401 375 399 387 389 371 377 399 371 327 329 307 323 347 427 458 468 519 505 519 529 505 411 327 319 317 
277 301 289 301 299 299 301 289 289 301 321 295 307 299 295 301 291 311 315 305 299 319 313 305 317 393 544 544 515 486 492 476 446 361 231 185 189 319 391 421 431 438 434 425 433 464 515 533 546 541 543 539 468 429 399 395 405 405 393 387 381 397 403 397 367 345 373 417 452 456 486 490 511 505 513 442 331 325 317 315 
285 283 291 293 301 305 301 293 279 303 295 297 297 311 295 289 305 299 313 297 305 299 293 309 301 365 535 535 539 482 429 448 436 403 311 235 249 351 421 446 460 450 470 482 515 562 583 574 546 488 472 462 454 413 395 387 407 415 407 381 377 403 407 399 387 395 436 444 438 442 454 488 497 490 446 347 315 307 299 307 
279 299 297 293 293 287 303 293 283 281 305 303 291 295 299 281 293 299 311 289 299 293 297 299 305 327 501 556 537 517 448 438 456 456 433 421 425 468 466 503 507 533 544 574 599 591 581 550 486 442 458 454 452 433 417 419 421 385 421 401 387 423 393 387 401 417 440 419 399 401 429 438 476 419 343 327 301 283 295 293 
273 295 305 289 295 311 291 291 287 303 297 295 287 277 301 301 285 299 295 285 291 273 291 313 291 333 458 546 544 535 527 523 537 517 499 507 535 579 570 575 564 591 603 610 610 597 544 448 431 421 434 452 442 442 423 429 429 413 427 409 389 425 411 419 419 423 425 403 399 375 379 405 381 321 313 307 295 283 305 301 
289 297 271 269 281 313 291 281 293 303 317 289 303 313 307 291 281 291 303 291 289 287 297 287 289 297 351 490 544 548 541 550 552 541 539 533 591 620 601 595 599 622 632 624 583 515 415 387 375 393 415 434 454 433 442 423 419 419 429 419 405 413 415 438 442 442 442 411 355 347 359 335 301 289 303 277 297 275 301 289 
289 297 275 291 293 287 279 285 275 301 291 281 305 303 295 287 287 285 295 289 283 291 289 297 277 295 293 329 397 484 509 539 539 541 521 537 614 605 589 599 612 626 597 527 444 343 337 319 331 329 371 379 419 411 427 438 440 442 436 436 413 431 456 436 458 454 438 387 319 321 315 285 279 283 283 291 295 269 301 283 
283 295 273 283 279 291 283 285 275 287 289 285 299 291 293 285 283 283 279 273 277 299 273 295 267 285 277 279 297 327 347 401 434 460 466 486 579 587 560 566 562 523 413 331 307 297 297 293 285 301 311 309 325 343 395 417 411 431 425 454 446 478 482 462 462 438 399 351 287 289 285 265 257 285 275 281 279 283 297 301 
273 285 273 279 279 273 281 289 273 291 287 303 281 281 277 291 281 279 295 265 293 271 277 267 277 271 273 265 273 279 295 309 329 307 327 345 379 379 375 389 353 323 289 295 279 293 299 277 285 283 297 295 297 293 311 325 351 361 393 433 427 448 462 460 434 419 381 333 295 285 285 263 263 291 289 281 279 273 291 279 
275 281 275 279 263 265 279 287 275 289 295 283 279 273 271 293 265 265 287 271 251 281 283 267 265 269 257 267 259 269 275 279 275 269 281 281 285 277 281 275 277 271 255 253 271 271 269 261 277 275 293 295 301 281 295 289 287 289 307 313 309 309 329 337 329 311 305 295 267 251 257 261 257 267 279 275 295 263 281 275 
241 265 261 261 267 275 263 271 253 281 275 261 277 271 277 279 261 265 281 271 263 267 269 255 251 253 245 239 251 259 249 261 267 257 261 273 253 257 237 239 233 241 223 251 257 251 267 263 259 269 263 265 271 277 275 269 267 281 265 269 257 255 253 259 239 247 267 269 255 247 243 237 223 265 287 259 273 273 283 273 
257 281 239 251 243 277 273 257 255 267 277 273 275 271 261 257 253 271 261 263 273 261 255 275 253 255 229 249 255 255 251 247 261 241 237 261 257 235 229 231 225 221 235 219 245 245 265 265 245 247 261 267 273 273 277 261 271 279 265 245 251 251 255 235 233 251 257 247 249 241 251 231 213 269 273 261 277 269 281 261 
263 271 265 261 263 277 273 279 267 263 273 267 275 257 263 271 265 251 259 257 249 255 241 263 265 243 223 235 235 253 257 255 253 253 245 271 277 259 247 249 243 259 247 251 241 249 271 267 257 263 267 257 269 261 267 255 255 267 269 257 221 263 245 223 231 235 251 233 233 229 239 225 227 243 237 259 259 257 265 249 


