P2
80 60
656
127 109 83 101 85 89 93 75 85 89 79 83 103 95 81 87 85 85 93 79 65 73 79 87 75 65 75 69 57 69 69 77 71 79 61 67 57 67 85 81 77 77 77 83 85 85 81 77 85 89 81 89 89 89 93 101 97 105 87 107 137 137 181 221 231 270 290 326 337 320 331 318 328 324 245 133 111 149 225 419 
107 97 89 89 81 85 85 87 65 85 93 89 89 79 73 77 91 89 73 73 57 67 77 65 71 69 75 77 43 73 69 63 73 71 69 71 71 87 83 87 65 87 83 71 89 81 85 71 99 91 97 85 95 87 111 111 87 109 115 135 199 304 339 335 347 355 427 479 483 479 466 473 475 473 460 286 177 223 390 483 
95 95 75 97 103 85 85 69 73 83 73 85 83 83 85 87 75 75 75 73 77 63 71 75 79 77 83 65 75 65 65 69 75 75 73 81 79 67 79 83 89 77 81 91 91 83 97 99 87 103 107 89 111 99 103 117 117 129 125 217 353 373 375 361 377 404 468 541 543 541 518 526 514 518 526 491 318 363 477 495 
105 97 89 97 89 81 77 95 69 77 87 83 87 81 75 79 87 73 75 79 73 65 67 85 87 89 85 81 87 73 79 85 77 77 75 79 85 85 77 75 85 89 101 87 105 79 97 89 91 107 101 101 113 111 123 121 125 137 177 292 369 377 384 384 400 446 502 555 566 537 532 508 491 522 551 562 541 514 514 522 
121 91 89 103 91 73 71 89 77 69 83 95 81 79 79 75 81 91 89 85 67 77 59 73 79 79 65 87 83 87 79 81 83 93 67 81 95 75 81 71 81 79 91 83 81 99 91 97 93 101 115 117 125 127 131 127 119 135 197 349 392 371 371 394 433 499 518 553 564 516 464 470 475 497 539 581 602 585 549 539 
107 95 87 83 89 85 99 65 83 87 85 105 83 73 89 69 79 83 85 79 83 77 73 75 93 85 89 89 89 81 93 77 89 73 95 67 85 91 79 87 83 91 99 85 93 103 105 117 123 115 163 151 147 129 139 151 161 169 257 398 429 429 460 456 446 450 462 497 512 506 421 466 493 487 508 553 585 606 564 558 
113 103 83 91 79 91 93 81 79 83 91 107 93 93 85 101 77 85 87 89 89 85 81 85 87 77 95 81 85 79 83 81 81 71 79 91 91 95 81 87 103 119 101 97 101 95 109 107 121 183 251 247 249 221 223 199 171 205 276 359 349 343 435 437 429 456 473 471 487 460 417 458 458 497 440 502 564 576 581 547 
101 83 89 91 105 99 87 87 77 85 99 89 101 101 93 91 77 87 91 89 95 85 69 85 77 83 93 85 87 89 89 83 89 95 85 81 109 91 97 101 107 113 113 97 113 109 113 129 155 265 398 400 464 495 473 373 274 369 454 502 462 400 419 437 450 475 458 448 448 440 431 454 456 473 419 439 535 537 574 564 
97 81 81 97 91 91 77 81 83 85 85 99 89 85 89 85 85 81 75 81 79 71 75 75 77 77 75 69 81 83 71 81 85 83 89 83 91 101 73 83 93 95 91 103 101 115 99 125 237 363 562 623 618 597 597 570 532 560 614 642 629 583 437 460 475 464 439 425 423 444 458 423 409 425 400 386 483 547 574 555 
99 93 99 85 83 95 97 89 77 83 89 91 101 89 97 83 71 73 89 79 83 85 83 63 73 73 77 73 89 77 65 85 85 87 89 89 81 69 73 95 85 83 101 99 111 109 103 161 286 413 646 610 627 610 604 618 585 598 625 639 648 600 489 448 417 406 411 392 398 454 462 384 382 404 345 345 413 535 568 533 
93 67 91 99 95 83 81 73 83 73 77 95 77 77 83 93 87 69 87 73 73 69 69 97 71 63 89 81 79 71 81 73 69 75 77 77 75 85 79 75 85 81 103 105 95 123 123 147 274 440 646 640 648 618 598 578 600 589 600 619 625 566 477 415 373 392 380 355 413 473 439 359 375 382 326 318 384 433 532 535 
99 81 99 87 85 101 91 89 65 71 75 85 85 77 85 91 79 87 65 75 77 67 83 63 81 91 75 75 83 81 81 81 81 79 77 81 95 89 83 79 95 87 107 137 103 121 121 139 243 415 625 648 656 639 618 555 568 553 572 610 570 502 468 460 439 415 382 369 440 479 431 373 347 398 341 314 369 402 473 530 
89 83 79 83 89 85 81 85 69 77 79 89 83 75 79 83 81 85 59 77 73 67 83 75 77 67 81 71 79 83 79 79 89 73 71 73 91 83 87 93 109 111 115 111 107 127 109 105 189 326 591 589 637 639 639 593 576 516 557 497 421 404 489 439 409 386 384 402 433 477 408 382 375 386 363 337 377 402 479 495 
103 87 83 91 63 87 87 81 65 83 95 89 89 73 87 73 81 93 77 73 69 77 69 75 61 61 67 63 67 79 71 87 75 79 73 75 85 83 91 75 111 105 101 115 83 103 107 103 141 227 402 479 477 506 562 537 442 378 396 363 326 367 435 408 373 386 413 404 419 439 417 404 400 398 373 363 396 417 464 508 
103 83 83 89 87 81 87 63 67 71 79 71 69 79 75 79 85 73 73 69 67 71 63 65 53 71 61 73 73 87 71 81 71 83 87 87 75 93 121 123 131 111 115 99 115 103 99 97 103 143 165 173 181 211 225 231 201 312 406 404 388 386 367 375 382 404 433 427 413 396 442 394 419 392 375 380 411 419 466 533 
109 89 67 89 77 95 73 71 73 71 71 71 89 77 77 73 67 73 71 63 73 57 67 65 61 61 53 55 67 71 63 75 69 81 67 63 75 111 199 161 131 115 103 113 103 117 109 105 97 95 123 119 125 137 177 161 257 427 423 452 402 377 404 421 421 419 454 440 398 419 431 373 413 396 363 377 433 454 495 524 
101 75 87 73 91 77 79 71 67 65 65 87 69 67 69 75 75 71 49 65 67 59 49 63 65 43 57 69 61 61 57 71 77 65 65 71 105 197 310 241 177 143 135 125 105 105 119 101 105 109 125 121 159 177 251 331 448 524 502 487 481 400 446 475 433 421 460 409 404 440 402 361 377 400 369 394 460 491 524 518 
89 69 67 69 63 87 67 73 59 61 63 65 87 65 85 69 67 79 77 73 63 59 43 77 67 57 69 63 61 75 67 67 69 77 69 65 125 316 452 378 276 259 143 91 95 109 123 103 115 123 145 145 237 378 477 528 568 583 568 557 539 433 400 452 444 392 377 341 337 361 324 341 330 367 359 406 489 497 549 533 
99 89 81 87 79 75 77 65 75 53 69 69 69 79 81 81 77 61 71 63 45 57 55 61 69 67 75 57 71 81 75 79 71 75 81 93 151 326 489 508 450 386 209 127 127 111 139 125 145 233 337 373 448 512 537 555 547 570 543 541 530 487 388 290 235 229 219 207 193 187 165 191 189 229 245 331 479 501 539 524 
123 77 71 77 87 75 83 73 69 71 75 87 75 61 69 73 75 69 71 63 71 67 63 71 65 69 67 73 73 89 65 83 85 79 83 73 137 306 471 557 520 516 328 171 131 137 157 199 367 489 541 547 516 526 543 518 491 485 433 365 276 235 199 189 191 193 189 165 159 145 129 111 109 125 139 239 456 493 532 514 
101 87 69 85 91 81 75 97 75 85 91 81 77 83 83 79 77 69 69 79 85 87 77 91 79 69 69 83 79 99 79 95 97 89 93 79 101 239 408 522 557 562 479 259 235 312 404 502 560 566 555 547 504 452 419 345 292 261 197 165 147 181 165 171 175 171 173 161 143 125 111 111 101 91 105 195 442 499 520 520 
97 97 79 83 81 87 79 81 73 79 69 87 95 85 87 85 71 79 87 69 73 77 69 65 67 75 75 81 89 75 89 83 87 67 89 81 113 153 286 450 533 568 537 510 477 541 574 568 551 557 524 402 296 205 211 187 161 143 115 137 125 153 157 181 161 151 157 127 125 119 115 97 101 91 107 169 417 508 501 504 
107 85 83 85 75 77 81 87 79 87 79 77 81 79 83 75 79 83 75 71 65 75 81 83 71 67 75 65 85 71 73 81 91 85 89 87 109 93 123 257 444 501 516 501 533 560 568 518 485 394 263 155 163 137 153 157 135 149 111 129 157 149 145 153 167 159 137 121 113 101 89 85 91 75 91 149 411 502 491 497 
109 85 87 87 83 87 75 75 81 79 77 79 87 91 95 81 81 85 71 79 77 79 83 85 67 77 73 73 85 61 75 71 89 71 73 81 87 89 113 125 223 345 425 419 400 386 292 209 169 147 151 123 143 143 149 135 141 119 133 143 137 145 137 161 151 139 151 131 121 105 89 93 85 83 67 141 386 471 487 448 
117 97 83 93 83 87 93 73 77 81 77 83 77 77 81 75 89 73 67 71 75 89 71 79 71 77 85 65 71 67 65 81 89 95 89 85 93 79 85 99 123 135 167 163 151 137 133 127 131 129 131 123 157 133 149 135 135 145 127 141 155 147 153 161 155 151 151 121 139 113 101 101 77 77 87 127 377 440 460 442 
105 87 73 91 97 93 85 77 79 87 91 79 85 87 83 61 89 75 69 77 71 73 75 83 63 67 73 73 83 73 73 77 75 83 85 71 81 83 95 103 113 113 119 123 97 121 135 149 205 211 181 159 161 155 197 163 159 167 157 155 179 185 177 177 173 167 155 127 179 209 203 203 185 179 185 187 380 417 423 444 
101 91 75 93 61 91 89 73 85 77 83 81 95 79 81 91 81 73 79 65 71 79 79 87 81 67 85 67 77 67 83 67 75 85 89 89 83 91 87 95 93 97 117 105 127 131 237 400 442 413 402 398 406 373 390 345 268 288 337 357 380 384 347 251 189 183 153 131 203 274 290 290 268 288 270 284 398 419 421 431 
95 81 83 91 81 69 67 83 69 71 75 85 75 87 75 75 77 77 75 67 63 71 75 69 57 71 61 73 77 63 59 77 73 75 71 87 87 89 105 89 101 105 111 109 123 171 396 458 483 468 462 477 487 460 491 491 481 444 433 440 487 483 481 369 239 203 187 165 207 290 312 320 300 300 304 316 409 442 413 411 
91 93 89 83 87 85 77 83 71 75 99 87 79 81 79 83 75 63 67 83 71 79 69 73 69 61 63 69 65 57 61 75 67 71 69 75 83 73 83 89 107 99 107 119 137 328 473 475 477 466 462 454 479 468 471 504 501 483 444 448 475 501 504 483 435 326 265 225 247 320 306 312 314 330 333 337 369 442 417 406 
95 65 99 79 91 79 81 71 75 85 81 69 87 69 81 73 71 67 75 67 65 65 65 71 61 65 61 63 67 55 67 81 69 61 69 75 77 83 75 93 101 101 137 163 193 380 497 448 437 408 343 304 339 402 468 487 493 483 470 454 471 468 491 491 433 394 363 339 331 330 300 335 337 349 357 353 369 367 386 413 
99 67 77 81 73 77 69 75 79 69 69 75 67 77 75 71 69 55 65 67 61 65 55 67 59 67 61 55 51 61 57 67 59 59 59 63 65 83 75 81 97 191 302 302 355 377 421 382 314 219 161 117 151 181 292 369 404 464 448 425 437 456 454 409 375 378 349 331 328 328 312 333 365 384 392 378 382 318 290 314 
95 75 71 75 83 71 71 77 61 63 65 75 77 71 75 79 55 75 63 59 65 55 63 55 51 55 61 49 69 59 65 53 63 51 65 67 69 71 79 91 105 155 229 251 227 191 167 149 127 115 111 111 101 111 143 157 165 274 365 373 408 367 367 361 392 378 349 333 331 310 304 359 375 398 384 396 378 316 314 314 
101 93 77 93 93 77 73 83 61 67 67 71 83 67 71 75 75 63 67 69 59 67 71 63 57 63 63 63 73 59 57 61 67 69 69 63 69 89 85 99 109 105 97 117 105 121 129 113 107 101 125 117 129 131 151 161 141 199 320 365 361 308 330 337 353 377 351 337 314 300 314 355 367 382 386 375 365 330 316 310 
87 93 79 97 79 95 81 67 75 81 89 77 79 83 83 85 67 79 81 67 67 69 73 57 75 59 67 65 87 73 75 71 75 81 81 67 81 81 91 95 113 109 107 113 111 113 121 109 119 145 213 235 249 316 411 378 268 284 388 351 343 304 292 300 320 347 316 353 304 298 324 345 341 361 373 355 326 341 328 310 
91 97 69 113 89 81 71 73 81 79 105 87 77 85 79 73 79 79 95 83 79 77 63 67 75 71 79 81 81 59 75 75 75 71 69 71 79 81 85 99 113 121 101 125 101 105 113 115 133 227 361 444 477 495 555 558 539 555 533 446 380 330 274 300 294 284 276 314 278 310 324 322 347 355 361 324 318 326 314 298 
93 61 79 95 77 73 93 65 77 85 85 79 75 81 79 73 85 81 69 77 79 83 81 77 83 71 73 63 75 79 73 81 71 77 85 85 75 89 85 87 115 117 119 111 103 101 111 107 167 237 417 510 497 514 568 564 551 562 528 495 425 380 302 274 272 265 265 274 282 302 320 341 339 335 324 290 324 314 282 276 
103 73 81 97 87 99 93 79 75 73 61 65 83 71 79 91 63 77 69 75 85 87 75 81 71 75 75 65 89 73 69 73 81 77 79 75 75 87 87 93 103 99 103 99 103 105 105 139 213 268 378 497 487 520 543 545 528 485 435 437 404 341 292 267 257 253 261 267 268 286 318 339 328 322 290 288 310 282 270 263 
113 81 73 79 71 75 71 79 73 77 73 83 75 71 81 85 73 79 83 85 75 75 81 67 81 81 81 71 77 81 75 79 69 67 71 79 85 85 73 85 95 91 95 101 103 97 105 133 217 276 318 417 444 497 541 516 501 470 421 429 359 310 267 249 272 265 255 255 263 278 286 318 316 314 284 292 294 272 255 255 
111 81 71 91 77 83 77 87 73 85 75 89 83 81 111 95 85 73 79 89 97 83 83 77 73 87 63 83 77 77 77 83 81 83 77 71 75 87 85 85 83 97 93 93 89 107 105 109 189 286 282 328 415 462 533 545 506 481 454 444 369 322 255 245 263 263 267 241 227 241 259 290 312 304 280 294 294 280 270 261 
107 95 71 101 79 87 75 81 63 85 83 83 69 75 89 103 75 89 89 83 89 65 81 81 83 71 69 79 85 77 71 77 81 85 83 75 91 89 85 97 103 95 93 83 93 93 99 91 133 229 251 312 419 433 501 502 487 450 408 369 343 310 265 243 245 235 249 241 219 231 245 257 278 274 272 298 320 298 263 255 
89 87 79 89 81 89 63 81 83 75 85 91 93 91 89 99 85 75 71 85 77 77 87 83 79 73 67 73 89 91 79 77 69 81 67 71 69 81 87 79 91 91 91 101 79 101 103 91 115 139 191 195 253 274 308 310 239 213 268 298 270 253 229 249 255 213 251 243 201 237 223 251 267 263 267 288 330 282 261 280 
87 79 69 87 85 73 67 99 81 83 83 83 91 85 91 99 75 83 75 75 73 67 71 65 77 61 75 89 87 85 67 73 77 79 63 75 73 81 83 81 101 91 93 85 77 87 95 89 89 107 111 95 119 109 127 123 129 185 300 265 219 203 211 259 272 227 229 211 189 217 213 239 253 251 268 378 363 274 263 292 
93 73 79 91 83 79 71 79 75 75 73 93 79 85 73 81 73 79 77 69 77 63 81 71 75 77 69 57 71 63 61 69 87 83 71 71 75 67 75 77 83 79 63 85 85 79 81 75 73 81 91 73 87 75 101 105 117 205 263 233 229 221 227 247 270 255 201 199 183 205 221 227 239 243 290 497 417 294 304 263 
91 75 77 95 65 93 73 55 55 69 67 83 73 81 63 71 67 71 65 81 69 67 67 67 69 69 67 57 59 61 61 67 67 77 87 71 69 63 67 69 67 87 69 87 77 69 75 77 83 69 97 67 79 69 83 95 113 255 255 255 261 263 235 253 261 237 213 203 191 181 239 227 243 247 288 524 442 298 290 270 
77 81 73 83 73 79 79 67 75 75 77 81 77 75 75 63 83 73 79 75 67 65 69 75 51 71 63 57 67 59 53 55 63 79 71 63 57 71 63 61 69 69 79 81 83 71 71 67 77 85 79 49 71 53 85 83 151 310 331 308 300 310 280 249 243 239 217 207 211 189 233 233 239 247 282 518 440 302 292 270 
79 71 57 53 59 57 57 67 65 55 73 75 75 59 69 65 61 75 55 69 59 47 61 63 59 49 61 55 55 37 63 55 47 59 61 61 65 63 69 59 65 57 79 83 49 51 67 59 73 65 87 65 55 63 67 129 265 398 406 375 324 294 276 237 155 89 119 187 229 203 199 211 239 225 261 446 359 274 257 237 
63 55 47 59 47 53 61 63 53 47 55 59 85 43 71 53 61 59 49 63 57 53 61 49 51 45 59 55 57 55 45 53 37 53 59 59 57 61 71 79 67 63 69 65 49 57 67 61 63 77 81 65 71 109 207 357 423 439 423 415 382 302 211 109 59 61 73 161 207 199 203 209 183 209 255 398 316 265 284 237 
61 55 49 53 49 55 39 47 39 57 49 59 57 57 49 55 43 41 51 63 49 51 49 53 43 51 47 53 41 51 31 49 43 51 43 51 41 61 59 69 61 61 69 71 43 67 71 51 69 51 69 115 272 355 431 452 446 415 402 398 392 265 101 43 35 25 61 125 159 159 159 197 179 169 249 377 298 253 268 251 
73 57 53 85 55 57 55 51 63 51 67 63 55 61 55 51 47 53 41 51 45 47 37 45 41 41 35 45 39 37 47 33 45 33 43 29 37 35 45 39 47 43 47 49 35 53 51 45 51 39 99 276 386 404 429 446 419 394 361 296 243 107 27 8 13 0 31 55 61 69 97 101 91 109 173 343 268 239 241 247 
89 75 65 73 57 73 63 47 63 67 63 73 83 69 69 59 51 57 73 41 65 67 47 65 53 65 49 51 65 59 49 49 39 57 35 53 55 59 47 37 49 61 53 51 57 61 55 47 55 101 229 349 421 421 440 433 369 223 141 77 69 49 25 33 31 35 25 19 11 13 25 35 27 35 47 159 155 213 237 219 
83 73 63 81 67 55 81 67 67 69 71 61 67 65 69 51 49 63 63 83 65 61 55 69 53 53 57 67 69 77 67 53 59 63 41 43 51 59 31 57 51 71 55 65 67 63 59 69 113 249 357 378 429 421 427 330 187 93 71 61 55 37 29 49 43 47 47 41 41 35 41 35 41 31 37 65 89 135 201 193 
97 67 67 73 77 79 73 67 63 77 67 67 65 69 67 69 55 75 59 67 73 65 67 75 55 73 53 79 85 67 43 61 57 53 45 51 57 57 97 87 113 91 81 83 73 79 91 141 257 339 394 386 396 361 255 151 95 75 51 45 43 45 51 57 51 59 53 69 69 65 59 81 87 85 61 75 87 85 119 131 
103 69 63 93 73 77 81 71 57 73 81 81 75 67 83 85 83 77 75 75 79 71 71 79 67 69 73 73 69 61 53 77 83 71 69 67 61 65 145 211 267 257 251 259 233 235 235 304 343 377 396 328 263 149 105 89 87 73 57 61 57 49 73 71 77 69 67 83 75 65 81 83 79 87 69 77 115 81 89 107 
101 89 75 93 71 91 71 71 77 79 83 79 75 85 87 79 89 79 85 87 87 73 79 79 83 75 73 73 77 57 61 65 69 71 79 63 63 69 103 109 161 233 349 388 384 361 361 367 363 320 243 143 107 97 91 91 89 103 71 93 83 71 77 83 101 73 71 77 77 71 69 71 85 53 65 91 99 99 85 91 
103 85 71 95 91 85 81 89 91 77 61 85 75 85 87 79 77 81 73 83 75 85 59 85 75 65 75 69 83 79 63 75 61 73 81 67 71 71 71 85 115 251 382 400 404 367 371 286 199 137 113 89 89 83 89 93 101 105 95 107 107 99 109 109 99 89 87 85 81 61 55 63 77 69 77 101 107 103 99 85 
105 77 81 79 87 81 67 75 81 79 89 91 95 99 91 77 93 79 93 89 91 75 81 87 75 69 77 73 89 81 75 79 77 63 79 73 83 71 63 87 113 235 367 425 388 349 227 137 103 85 95 79 75 87 103 101 105 111 103 109 113 103 89 113 95 89 101 75 101 83 73 81 77 69 79 95 113 105 83 69 
107 97 83 87 93 69 83 79 77 97 69 97 105 85 87 91 87 81 89 87 83 75 75 77 81 77 79 85 97 87 75 63 81 89 71 65 87 81 85 75 95 129 215 357 294 191 117 97 91 79 93 89 89 89 103 121 115 125 105 111 101 89 107 85 115 105 89 91 75 71 57 67 65 63 77 99 121 97 87 91 
105 93 103 95 103 101 87 95 75 105 99 97 91 81 99 91 93 77 91 87 91 89 91 77 81 83 87 81 77 101 63 75 79 77 85 85 71 93 85 71 95 105 107 141 115 119 103 79 79 103 99 99 91 105 123 133 115 135 91 119 107 95 93 105 101 105 103 93 73 71 69 63 69 83 93 105 121 107 81 81 
99 91 87 99 91 95 89 79 75 79 87 83 97 87 105 95 75 91 85 85 85 83 87 79 81 69 77 85 79 71 77 81 89 97 77 79 87 75 79 83 79 87 103 87 85 89 95 93 95 91 107 97 99 121 129 115 121 123 99 85 107 85 93 113 95 93 87 77 77 73 69 73 67 77 101 105 117 119 101 99 
109 97 75 97 81 91 81 95 81 93 87 103 83 93 81 95 87 83 83 93 103 95 91 89 83 77 77 85 85 85 89 85 89 83 85 87 87 87 75 85 85 93 89 101 81 85 107 109 103 127 117 105 123 121 119 121 125 131 115 107 95 81 89 105 101 95 99 75 73 59 85 77 83 97 103 115 129 131 97 109 


