P2
80 60
660
81 79 95 99 91 99 101 113 91 103 99 101 105 109 113 121 105 101 93 89 91 89 97 95 95 97 101 99 109 125 157 197 217 225 291 287 279 261 177 153 145 123 131 141 123 123 135 129 131 129 111 131 125 117 115 121 109 113 119 107 119 137 133 133 133 133 137 135 123 101 103 93 97 97 89 91 87 69 95 115 
99 95 105 107 101 93 85 89 91 83 101 91 85 107 97 95 103 107 83 103 103 95 93 93 85 93 93 111 145 221 350 405 411 429 421 380 330 291 273 267 201 161 175 203 219 241 251 263 255 239 229 233 215 215 209 197 161 165 173 211 199 185 175 155 157 161 153 155 151 141 123 103 113 107 99 119 103 87 111 109 
95 103 93 103 93 91 103 89 95 93 85 95 93 89 105 105 101 103 99 101 89 89 79 109 99 101 105 175 324 442 481 520 500 481 467 431 385 338 387 479 458 427 332 297 313 326 364 389 382 374 407 427 411 391 370 368 380 368 391 431 421 346 291 265 287 291 283 271 271 263 259 245 229 217 203 195 169 143 151 129 
91 85 107 115 101 93 83 87 101 83 85 99 97 93 93 105 101 103 93 105 93 93 91 107 103 109 131 287 475 458 481 520 506 502 494 446 434 376 405 498 512 500 496 493 481 498 502 524 514 489 491 481 471 450 438 438 456 465 493 487 469 463 456 407 389 387 374 378 391 368 376 382 395 380 378 350 326 301 309 231 
95 93 89 83 101 85 89 97 79 83 103 107 111 87 99 107 101 97 93 107 95 101 97 101 105 127 179 423 510 485 479 510 502 527 498 487 462 432 411 514 533 522 527 555 556 533 531 531 545 525 533 541 514 504 502 469 467 485 518 502 489 463 446 421 385 387 387 403 403 397 401 395 395 391 401 385 393 382 372 356 
89 103 95 99 91 97 105 97 99 111 105 105 119 101 107 97 117 109 101 105 107 99 101 105 119 155 275 460 504 518 491 516 493 500 498 506 494 465 465 518 524 522 516 541 551 537 520 502 529 524 527 527 520 504 496 498 465 494 496 518 498 475 460 434 397 391 399 423 405 415 389 393 413 389 405 411 372 372 370 352 
85 93 99 83 99 95 93 89 105 89 93 111 103 95 99 119 105 115 117 115 129 109 135 111 153 167 328 494 508 533 524 496 487 491 520 504 498 489 502 502 498 475 465 462 452 427 403 397 442 438 429 434 440 465 463 475 473 489 508 494 502 473 452 425 401 387 409 415 411 405 397 391 393 380 387 387 382 356 352 344 
87 93 107 109 91 99 103 109 93 101 93 101 105 105 107 121 113 127 123 157 169 163 203 223 199 209 401 493 460 487 483 444 469 502 504 518 516 498 493 481 438 411 411 397 409 393 409 372 387 387 380 380 399 401 440 458 440 454 431 423 440 438 446 429 411 384 376 370 360 344 334 322 328 344 336 348 334 313 338 324 
87 103 101 95 109 91 95 107 99 101 97 111 103 117 101 123 123 151 237 279 309 311 415 465 458 380 438 456 458 489 432 362 395 494 506 502 502 504 500 458 421 395 419 409 411 393 399 382 364 356 350 332 354 364 391 366 366 322 297 271 275 301 321 293 287 267 235 237 213 189 183 191 175 185 195 213 211 201 239 201 
99 99 101 97 95 111 103 89 107 105 113 111 109 109 125 99 135 227 342 385 399 444 572 599 597 558 535 572 591 537 450 399 364 452 512 494 487 473 458 432 429 403 417 405 423 411 407 368 360 315 315 311 336 328 261 189 157 135 145 143 149 171 179 179 199 187 189 177 181 155 147 135 127 121 123 129 115 117 141 125 
81 81 109 115 107 103 97 89 99 91 107 105 121 97 103 115 161 283 362 387 508 584 620 622 620 611 584 566 576 616 660 622 413 389 456 423 419 415 407 409 399 387 391 399 413 389 395 368 346 307 315 297 336 326 245 171 151 133 143 141 143 155 175 175 191 195 195 183 167 157 155 145 129 123 131 129 113 111 115 107 
93 105 101 89 109 95 109 89 93 111 95 107 109 95 121 119 181 293 362 432 611 637 632 624 626 605 601 607 572 580 652 651 547 384 395 384 384 387 382 385 401 399 389 397 403 399 391 385 366 311 303 293 338 391 393 311 231 179 169 155 157 165 173 199 211 217 219 211 183 167 153 153 137 125 137 143 145 133 141 135 
89 85 111 89 111 111 101 89 111 107 111 111 111 105 111 113 183 283 338 427 633 633 643 633 639 618 601 618 593 556 630 647 506 481 389 399 376 389 401 405 399 399 391 399 403 403 399 397 393 372 348 346 378 397 391 415 395 368 360 334 273 249 243 267 261 271 271 255 245 245 219 231 221 233 241 251 263 249 265 215 
87 99 105 95 87 101 107 99 91 107 99 113 111 117 111 105 159 287 313 360 582 656 641 637 628 601 570 564 595 549 541 477 462 483 475 489 483 469 442 399 385 387 387 393 399 411 403 405 415 382 378 385 409 434 425 440 452 436 460 432 431 429 436 387 364 376 374 372 374 368 352 362 360 352 336 328 358 328 350 309 
93 91 93 103 101 105 97 89 91 97 111 101 99 105 105 123 161 275 311 326 446 630 656 656 622 607 582 601 512 415 338 362 434 516 545 502 502 477 477 434 403 393 393 407 409 407 401 403 432 419 419 434 436 458 465 475 489 487 489 477 471 481 452 407 395 399 395 384 405 401 391 387 384 364 364 366 358 344 366 326 
99 97 91 105 79 101 93 89 95 103 97 97 107 103 105 109 123 229 315 303 330 558 591 589 586 582 558 545 460 425 352 387 444 491 502 465 460 436 465 446 421 427 429 446 458 456 431 483 496 487 473 487 483 504 498 498 500 510 522 502 465 477 458 415 391 378 387 395 387 391 376 376 374 364 364 356 352 332 346 309 
85 97 97 85 95 93 97 87 97 103 91 105 107 103 101 97 103 163 233 283 279 415 364 295 297 275 313 520 508 471 531 485 463 473 481 440 452 467 479 510 558 574 576 593 605 584 556 556 558 531 527 525 506 510 502 502 522 516 524 506 475 475 444 403 391 372 374 374 378 366 360 356 352 342 328 334 303 273 249 219 
83 81 87 101 85 87 87 91 81 91 97 97 101 99 99 109 101 123 147 171 155 157 143 141 135 147 187 440 524 533 531 506 481 460 467 456 460 431 456 504 586 593 599 609 635 609 586 566 539 506 502 504 477 469 467 463 460 479 506 485 473 467 436 403 354 346 348 370 364 338 322 315 255 235 201 165 139 123 105 103 
79 101 117 99 103 93 83 87 95 105 97 85 103 107 101 101 105 107 131 111 135 115 127 115 127 127 143 281 510 520 524 500 491 487 454 506 423 395 432 479 531 537 527 537 560 547 520 493 462 372 299 277 267 281 279 301 328 334 395 438 452 421 328 311 307 287 289 293 277 215 187 171 133 125 109 101 87 81 77 65 
101 91 77 81 111 91 89 97 91 101 103 93 101 111 103 113 103 109 115 121 133 115 119 119 139 125 133 161 346 489 456 502 508 494 462 436 387 346 368 458 425 370 356 332 332 305 283 259 201 145 147 139 135 129 135 147 143 137 181 229 235 213 181 201 215 227 225 195 181 145 133 111 107 105 97 95 87 56 58 69 
91 99 101 99 107 93 103 105 89 97 101 115 119 115 101 99 117 119 103 121 129 111 133 119 131 123 129 145 175 263 366 444 450 456 417 354 311 305 263 223 215 243 241 205 189 191 201 195 161 139 115 145 131 133 117 129 123 117 121 115 135 141 149 165 189 203 189 181 139 127 119 97 107 73 81 71 75 44 54 50 
91 97 95 95 99 103 101 91 95 107 105 101 115 103 113 105 107 111 113 115 117 117 117 119 113 113 139 143 125 181 209 245 289 293 299 253 253 243 201 171 193 213 219 179 169 171 171 159 147 121 113 115 113 117 119 119 123 109 117 123 123 129 149 151 179 161 165 139 127 125 105 105 91 85 75 69 54 40 36 38 
95 107 99 113 93 99 103 109 101 109 99 111 109 101 103 115 111 115 101 107 115 123 111 121 131 119 119 139 137 139 147 173 159 157 161 165 173 163 157 155 159 175 173 153 161 143 141 141 139 123 141 123 113 111 119 121 115 113 115 127 121 137 135 147 159 161 155 139 125 127 109 93 87 69 58 62 56 22 28 16 
99 83 97 103 117 107 103 95 95 101 109 101 105 109 111 109 109 111 101 121 119 111 111 123 115 113 133 123 147 137 127 137 147 155 151 143 143 149 141 149 143 145 143 141 141 145 135 145 133 115 125 125 115 107 107 109 119 111 123 117 123 129 135 149 151 147 161 131 133 129 109 109 81 58 62 54 18 2 10 4 
107 105 93 109 103 107 111 101 101 107 111 99 99 107 101 109 109 109 115 105 117 105 113 107 115 119 133 119 129 123 119 129 135 139 135 139 129 143 135 131 143 125 137 149 139 137 141 141 123 119 127 121 111 119 117 109 113 117 107 123 115 123 141 153 157 157 149 157 157 139 129 119 95 93 79 48 32 0 4 20 
93 111 87 95 93 97 107 99 101 113 113 107 113 111 113 107 115 105 105 105 115 107 109 109 109 117 105 117 125 119 123 125 115 135 139 133 141 137 137 139 145 133 131 137 137 131 131 129 129 121 127 125 109 127 111 117 121 115 123 113 123 135 135 145 159 171 159 155 181 227 217 207 169 157 153 107 79 42 34 50 
105 99 103 101 93 97 101 89 103 113 103 105 115 105 95 107 111 115 111 99 105 95 107 93 113 121 115 117 113 115 107 109 133 125 133 137 127 121 133 127 139 133 139 133 141 129 137 131 133 121 131 109 113 127 109 117 113 123 119 111 119 139 133 145 165 159 157 149 203 259 275 229 231 233 235 213 197 173 157 133 
99 101 105 91 101 91 81 105 95 107 101 99 107 105 111 103 113 119 101 111 109 93 111 91 103 107 107 107 109 107 109 115 109 115 143 129 143 121 137 135 155 145 143 139 139 135 123 137 135 115 121 119 113 109 105 119 125 133 115 133 137 145 147 143 163 167 153 159 207 271 265 265 257 245 255 237 231 209 213 185 
101 101 101 97 95 101 93 105 93 101 107 101 105 115 107 103 111 115 95 99 91 105 107 103 109 109 109 95 107 107 101 109 121 109 123 123 135 121 131 137 147 143 129 143 139 131 135 131 133 119 117 121 117 127 125 135 129 131 125 125 143 143 143 159 175 165 177 161 195 289 295 287 275 283 275 257 249 221 239 219 
95 99 109 99 91 105 89 105 103 101 97 103 105 91 109 93 97 109 103 107 87 115 101 97 109 105 101 95 101 93 91 99 101 109 123 127 121 125 137 131 145 145 145 151 143 149 129 129 133 109 135 129 135 149 175 199 187 179 171 149 149 157 167 165 181 173 191 167 227 289 297 317 295 279 283 273 259 241 239 237 
103 95 91 105 97 99 85 97 95 103 111 105 107 103 89 101 93 109 97 101 93 101 103 99 89 99 81 87 99 101 93 97 95 109 125 115 127 115 131 129 137 141 137 139 141 129 131 151 151 169 209 273 342 417 438 467 481 454 326 301 307 269 261 245 237 203 193 205 245 289 317 307 303 291 285 281 259 253 241 271 
93 87 95 93 99 87 85 97 97 87 105 81 91 91 97 113 103 97 103 91 91 107 89 87 99 95 107 89 99 85 101 99 103 107 123 123 119 103 129 135 137 141 153 181 187 229 253 322 362 401 456 467 491 508 518 529 545 479 348 332 378 354 322 336 344 307 265 251 259 299 313 303 307 307 297 301 287 299 305 301 
79 103 99 107 91 99 101 97 81 109 93 99 91 101 101 95 107 95 111 89 93 107 97 103 97 99 107 95 101 101 95 101 111 109 125 131 133 137 167 217 283 346 391 436 463 462 456 467 475 481 487 496 489 504 525 524 504 403 384 356 374 321 319 326 338 317 311 319 305 313 319 330 368 344 358 352 376 423 417 364 
83 85 103 99 101 101 99 95 97 99 103 85 107 113 97 97 107 103 109 99 89 97 105 105 101 105 109 97 111 111 111 115 129 129 145 179 259 352 446 504 518 514 520 504 498 475 471 496 487 477 489 494 489 498 524 493 421 425 425 405 376 328 330 319 317 283 275 295 289 319 356 360 378 382 395 391 456 533 458 395 
85 91 101 107 95 103 85 99 113 97 107 121 109 109 107 107 101 115 111 105 99 105 101 99 93 101 99 103 101 123 119 127 145 213 336 432 477 512 535 560 549 529 531 520 516 483 463 458 454 456 467 460 434 415 409 395 419 450 425 380 362 344 348 346 326 245 239 301 291 319 364 372 387 411 403 432 454 547 465 403 
91 93 103 99 93 109 119 111 109 99 113 103 105 119 107 103 109 109 113 101 97 115 97 109 109 117 99 105 117 123 169 324 393 452 452 477 452 440 419 401 393 376 366 324 267 227 197 207 227 283 356 384 409 465 485 395 460 487 421 378 354 330 346 364 356 271 239 315 354 334 360 389 378 409 417 417 429 531 448 401 
89 95 103 109 103 113 107 99 113 99 113 103 107 107 99 105 109 119 109 99 111 101 109 103 107 109 109 119 157 231 342 431 452 454 429 231 177 167 165 163 175 161 169 155 153 139 155 155 199 301 485 586 591 572 593 576 601 566 463 380 344 334 342 348 330 295 233 291 366 376 368 389 391 405 425 391 376 485 454 403 
107 99 101 109 99 101 105 95 107 103 115 111 105 111 107 113 113 115 117 103 99 103 105 109 107 109 107 163 299 415 423 397 446 463 328 135 127 127 139 143 151 145 153 157 153 141 133 181 229 299 541 599 570 578 603 568 551 531 525 415 346 321 307 305 299 259 255 391 385 380 382 385 387 393 391 348 342 458 446 403 
103 89 89 105 101 111 109 99 107 93 99 115 97 117 97 111 119 103 121 109 121 105 99 107 117 115 127 233 397 434 409 419 444 421 397 205 137 129 131 133 139 137 133 143 137 149 143 205 269 321 514 591 584 589 578 556 498 504 485 427 368 348 307 269 261 257 259 417 378 378 374 382 372 382 350 311 321 427 434 382 
91 99 101 109 103 111 103 103 105 99 95 99 111 107 113 115 119 111 119 101 107 103 107 111 107 117 111 163 235 356 432 431 434 446 434 324 163 133 127 131 137 139 139 131 137 141 137 181 309 301 429 522 562 589 576 558 483 485 462 446 354 332 305 277 271 231 259 384 340 358 336 374 368 366 336 309 324 427 429 395 
83 103 99 107 109 109 105 95 103 117 107 97 105 111 105 121 119 113 109 107 101 109 105 117 97 105 115 117 139 195 289 358 397 397 425 417 370 315 243 191 171 141 137 143 141 141 135 141 245 283 372 477 516 543 584 558 553 543 518 436 324 289 259 249 241 225 243 332 297 334 309 352 370 364 319 313 309 374 387 397 
97 103 95 95 95 99 93 91 97 109 111 99 95 91 109 107 109 109 107 103 107 103 107 101 107 113 113 121 115 125 125 155 213 301 356 407 456 450 454 415 413 385 352 321 263 171 129 147 179 259 322 477 506 533 533 531 510 458 382 321 253 241 257 249 223 175 213 295 283 321 315 321 330 322 293 303 307 328 376 364 
85 81 91 87 97 99 105 79 87 103 91 89 95 87 85 95 101 111 97 93 99 99 105 93 103 103 103 93 107 101 99 103 119 147 201 257 348 411 436 427 456 469 479 465 462 436 358 281 299 315 362 360 340 328 374 378 393 366 328 293 237 247 257 243 215 145 189 257 287 313 307 317 332 303 281 279 273 299 350 334 
81 73 77 93 89 89 105 79 87 89 99 99 101 93 91 97 105 95 97 99 105 93 103 97 105 91 99 103 99 99 97 105 123 121 121 135 149 197 279 348 444 462 471 487 473 479 475 462 448 471 473 485 462 448 421 378 370 370 338 281 273 269 289 289 217 149 227 281 281 299 291 295 303 303 273 273 263 271 340 332 
79 79 87 97 83 83 97 89 99 91 85 93 93 99 87 95 101 99 93 95 95 91 83 99 95 97 91 93 91 87 83 99 105 105 109 119 117 127 145 165 225 299 376 425 463 454 450 460 467 467 463 469 471 475 462 397 368 350 338 283 267 287 285 265 239 237 275 255 265 299 293 299 283 281 269 253 251 273 324 342 
73 71 77 79 67 77 69 73 85 85 89 75 95 95 101 79 91 103 79 91 79 79 83 95 81 81 79 87 83 83 81 85 85 89 99 97 113 105 115 111 125 113 151 185 233 291 352 419 450 434 458 456 446 471 454 423 362 330 301 247 245 277 287 263 251 229 257 249 279 273 265 271 283 273 267 259 261 299 328 321 
65 75 65 62 73 81 75 73 79 77 65 65 83 81 75 81 93 99 79 89 89 75 89 85 77 83 87 75 79 85 71 87 87 77 99 91 95 87 103 103 105 99 109 117 125 119 133 177 217 269 346 387 409 423 431 436 384 299 291 263 243 247 241 211 193 203 215 201 237 237 257 273 257 273 267 257 283 301 319 317 
54 62 62 60 67 65 50 58 65 69 69 73 71 85 65 71 75 75 83 79 81 65 71 73 73 69 79 75 71 62 71 67 71 81 93 91 89 87 95 99 97 95 101 105 95 93 97 89 101 95 121 143 153 191 233 235 221 179 159 135 107 83 85 67 89 91 125 171 175 207 217 249 251 253 259 261 277 297 291 275 
73 85 67 77 71 73 71 75 77 81 77 79 77 77 91 81 73 89 71 85 75 62 69 79 65 69 77 60 69 69 67 73 73 71 87 71 79 81 81 75 77 83 85 79 85 87 69 81 77 69 71 77 71 67 62 67 56 58 46 40 30 40 30 28 44 48 60 87 75 97 105 125 149 169 193 233 277 297 291 273 
79 85 81 83 77 79 83 75 83 97 81 87 95 83 85 83 91 79 75 79 93 75 79 89 83 83 85 73 79 71 79 81 85 91 93 89 99 85 91 95 91 85 85 91 95 83 85 79 69 52 56 67 69 52 58 67 50 40 48 40 28 46 38 44 38 62 71 75 67 54 69 54 44 65 85 165 257 297 295 255 
73 85 77 89 75 83 79 75 93 91 85 87 91 95 99 89 93 97 89 85 81 87 71 97 81 85 93 97 93 83 83 79 105 77 89 93 99 83 91 103 81 93 83 93 89 99 81 95 79 75 75 69 69 69 69 60 67 50 54 48 44 44 54 65 58 83 85 85 77 75 83 60 58 69 77 107 203 259 273 239 
91 85 91 95 85 83 81 87 93 91 93 87 89 95 99 81 99 89 97 87 105 101 89 101 87 89 79 85 93 81 93 99 95 91 103 101 105 89 99 97 85 105 99 95 101 99 87 97 85 93 79 85 73 77 73 73 75 83 69 65 50 79 71 93 75 103 97 93 103 109 123 125 139 119 105 103 123 177 257 219 
91 89 91 83 91 101 99 97 81 107 99 91 97 81 99 99 99 95 97 97 105 97 101 101 83 101 83 103 95 83 85 91 87 85 101 105 107 97 101 101 97 97 95 99 109 101 89 99 89 83 89 91 89 91 95 99 95 101 93 89 83 81 89 83 89 103 113 111 111 103 121 113 139 147 113 113 93 101 145 161 
91 85 83 101 95 101 93 93 93 103 103 93 95 101 113 101 111 95 103 109 97 103 99 97 99 89 87 99 103 97 85 99 109 109 113 97 115 93 109 97 101 95 97 109 105 99 91 103 95 95 95 107 111 107 107 113 111 109 107 111 91 107 107 103 113 119 117 123 113 111 123 113 117 111 103 115 115 87 121 123 
105 83 107 103 97 107 93 89 97 103 107 113 113 103 103 109 119 123 101 111 113 113 97 103 93 95 91 105 111 109 89 97 101 95 123 103 113 105 109 101 115 113 101 105 113 105 105 111 101 97 103 115 121 135 133 125 127 121 115 113 109 107 113 115 125 137 119 127 109 101 95 109 103 99 111 121 127 103 117 101 
95 93 99 99 101 97 87 85 103 99 95 117 105 113 101 117 115 97 115 101 103 107 113 109 115 99 107 97 117 89 95 101 103 101 117 113 119 101 99 117 107 113 105 115 117 117 121 123 115 109 131 129 123 135 133 123 127 107 105 101 83 103 113 117 121 129 131 135 117 121 111 121 119 119 113 117 119 107 113 101 
99 91 101 93 97 91 83 101 107 105 97 103 109 107 113 109 107 111 99 107 105 95 91 99 101 101 105 99 113 89 93 101 105 99 107 97 111 105 109 115 105 111 115 129 127 123 109 127 131 125 137 129 135 135 131 127 117 119 113 105 91 107 117 115 121 127 121 135 111 123 103 127 113 99 123 117 107 77 113 109 
99 95 123 99 107 115 107 97 99 99 99 105 97 101 105 121 121 103 111 111 111 99 111 109 111 109 107 99 107 93 95 97 107 97 107 107 117 113 129 117 123 119 135 133 131 129 127 149 137 127 125 127 133 139 127 131 123 125 107 105 95 107 107 129 125 127 129 135 113 109 113 127 129 113 139 127 129 111 119 115 
99 111 111 107 93 113 105 95 101 103 101 101 109 113 123 123 97 109 115 107 121 101 103 101 107 97 95 109 105 93 99 99 103 109 115 125 125 113 129 127 123 133 141 151 137 133 137 133 133 123 125 113 129 145 143 143 131 127 111 103 103 115 113 119 125 129 131 127 123 133 121 119 129 137 141 129 135 127 121 105 
95 117 101 105 99 111 101 111 119 97 99 127 117 117 123 117 119 119 113 121 133 113 111 123 113 101 101 111 109 103 105 113 109 117 135 131 131 121 137 149 145 147 147 153 143 127 127 123 115 93 109 119 125 145 129 135 129 119 109 111 97 111 107 119 135 129 131 135 129 131 125 129 135 137 139 131 151 131 123 115 


