P2
80 60
562
124 154 122 140 140 126 132 118 132 132 134 140 144 134 118 132 128 116 112 100 112 102 108 94 92 80 80 76 66 70 74 70 70 80 76 100 100 76 72 74 64 74 52 46 56 66 62 72 92 100 80 92 96 96 106 96 90 96 106 100 112 80 88 94 92 92 106 92 86 88 88 80 90 74 68 66 56 76 84 84 
122 140 114 128 118 122 122 126 126 130 130 122 130 112 110 114 108 104 84 106 104 88 98 86 90 66 68 68 54 62 58 68 72 68 80 106 88 82 80 76 54 78 66 44 48 60 68 76 90 90 88 92 90 82 104 96 88 110 96 98 100 96 96 82 86 82 94 88 86 94 82 74 82 62 70 64 56 64 62 74 
134 130 120 130 128 128 130 138 118 142 136 122 138 120 112 116 114 106 96 102 100 102 92 92 98 72 70 72 72 70 70 76 80 86 96 110 110 86 98 78 70 78 68 58 62 74 72 88 82 106 100 102 112 98 102 96 108 114 100 104 112 102 106 98 90 102 88 80 98 106 100 100 88 74 74 70 70 86 64 98 
140 134 146 128 124 120 132 128 126 126 120 122 124 106 106 104 106 100 106 106 100 106 92 94 104 86 84 82 80 90 88 100 86 98 106 110 110 98 92 82 74 82 86 72 80 78 66 72 94 110 96 106 116 104 116 114 106 120 110 102 104 118 90 108 98 96 114 96 102 94 108 94 108 76 84 78 78 84 82 92 
130 132 118 146 134 122 132 136 136 136 116 116 134 120 118 132 112 118 104 112 122 106 104 110 114 84 88 78 90 94 80 106 100 114 116 124 122 94 100 96 94 80 72 76 68 90 74 92 90 114 100 116 120 118 118 114 100 120 118 108 114 92 102 116 98 104 102 92 110 108 112 104 112 82 74 72 66 92 72 90 
148 124 126 130 118 120 140 124 124 120 130 116 142 124 136 124 126 118 106 110 122 110 112 108 112 90 98 96 84 90 108 104 108 110 110 122 120 100 98 92 78 106 78 74 68 82 88 102 96 90 106 126 118 120 108 122 114 118 108 110 114 116 104 110 110 94 112 114 94 102 136 124 112 102 92 84 96 88 86 84 
136 138 124 122 124 154 136 134 144 128 118 124 138 124 134 134 126 124 114 116 132 120 120 106 114 84 90 96 94 94 98 98 110 112 112 132 134 112 116 92 90 94 86 92 82 76 84 106 96 110 102 122 116 118 116 118 130 108 108 106 112 118 120 100 112 122 102 128 112 148 210 176 142 126 92 90 84 102 82 92 
140 126 124 128 136 138 136 126 126 138 132 132 136 134 116 124 112 114 108 114 118 118 98 114 104 98 100 90 90 108 116 102 112 112 120 120 136 108 106 104 98 92 94 88 86 88 92 108 106 116 128 114 122 132 122 116 124 112 118 114 118 112 98 118 130 140 170 168 184 249 330 312 269 174 118 88 100 98 92 90 
136 132 120 130 124 136 122 134 130 134 126 126 144 126 122 130 124 116 102 104 124 94 116 112 118 98 98 90 98 108 108 104 118 130 128 136 140 112 118 104 96 112 88 90 104 108 98 100 118 116 114 120 122 112 112 128 108 116 118 122 122 108 114 122 146 259 300 334 338 353 380 365 306 188 126 102 100 122 90 94 
128 142 116 136 126 134 138 128 116 140 144 130 136 122 120 130 118 116 132 114 116 104 114 112 112 108 108 92 108 106 100 118 116 116 138 146 142 124 122 112 112 114 118 120 102 112 104 124 124 130 130 118 124 130 118 118 118 114 112 116 116 112 110 120 192 345 378 365 376 351 349 308 275 164 110 90 84 104 90 94 
126 142 138 126 136 140 130 128 126 116 120 118 122 114 116 128 124 120 120 116 114 110 118 114 108 100 102 100 106 108 124 122 114 128 132 146 152 128 148 162 196 198 180 182 198 232 243 208 186 150 120 130 124 114 108 114 110 118 114 120 110 118 92 124 247 365 378 378 324 245 194 156 150 122 108 108 86 98 70 92 
128 144 142 134 134 144 150 124 116 124 120 118 112 114 128 116 112 118 112 110 124 128 116 112 112 104 94 96 102 102 126 118 116 128 146 182 206 265 279 265 275 287 265 257 275 392 421 437 384 235 128 124 120 106 110 104 112 112 116 116 114 100 100 122 237 367 378 349 200 146 142 124 112 104 108 106 102 92 82 94 
120 146 132 132 130 138 136 136 124 126 124 132 122 116 108 114 124 124 114 112 114 106 108 122 112 84 112 102 104 110 120 128 114 124 158 255 312 298 237 140 120 208 251 285 314 419 464 471 462 330 144 126 146 136 134 114 122 116 116 122 116 118 130 126 261 382 367 277 144 132 128 122 112 104 98 98 98 106 88 86 
148 150 128 124 120 146 126 118 112 128 126 122 136 110 110 114 126 122 110 120 108 126 102 122 124 104 108 114 112 128 128 134 124 152 196 363 394 324 271 186 106 86 146 249 298 378 446 454 481 384 162 146 154 168 194 192 200 192 196 180 172 172 180 182 283 344 345 228 154 140 146 132 134 124 98 102 112 116 102 106 
140 130 136 132 126 132 126 120 118 126 124 112 116 120 102 100 126 106 104 114 108 122 126 136 158 146 162 162 226 194 156 150 152 158 257 382 363 330 310 271 230 168 148 178 192 255 361 437 446 380 202 176 202 182 192 212 190 196 202 202 208 212 230 235 289 312 302 222 164 162 152 158 166 168 128 116 116 124 106 116 
138 138 118 136 126 134 132 122 124 130 112 114 116 118 114 112 110 112 104 116 114 128 146 196 228 237 328 386 421 359 247 210 194 224 320 361 394 363 351 304 220 152 72 68 88 194 326 355 365 326 206 166 192 198 196 204 192 180 186 206 210 204 224 273 289 318 306 265 241 226 214 237 234 255 239 210 156 140 118 148 
128 134 136 138 126 120 126 136 122 120 120 122 140 114 122 126 116 114 116 106 130 124 168 285 324 351 448 495 491 477 444 431 386 316 344 371 382 359 357 289 194 102 76 90 114 216 314 320 293 298 202 140 178 222 202 218 206 204 224 241 224 228 249 281 287 298 320 300 298 273 271 279 298 320 340 342 310 243 194 180 
130 142 120 120 136 140 128 140 120 124 106 136 140 124 122 126 128 134 120 134 132 138 216 351 376 427 500 471 448 458 473 452 487 326 353 398 369 314 285 214 116 90 116 162 188 285 314 316 285 271 204 150 162 226 249 251 259 249 239 243 243 245 249 297 298 336 328 312 281 287 291 281 287 300 336 359 338 344 304 281 
128 144 128 136 142 116 132 130 126 114 118 122 126 128 124 110 126 124 128 126 134 148 222 340 415 499 524 444 398 396 456 431 442 304 365 388 349 245 210 90 20 46 128 212 269 312 324 318 295 259 206 184 172 218 251 265 271 271 257 257 263 281 277 306 314 326 308 316 306 297 287 279 271 298 302 312 328 318 310 326 
134 140 120 124 134 120 126 136 130 134 122 132 130 106 124 126 120 124 128 120 126 158 206 338 404 452 489 468 427 458 481 452 429 378 375 398 324 214 154 34 2 70 168 230 314 334 338 351 320 269 208 184 176 214 243 265 269 261 249 251 271 289 300 320 322 336 322 316 310 283 263 253 269 306 304 306 293 310 298 332 
132 148 126 116 142 126 122 140 124 120 114 128 126 130 116 114 132 124 116 110 140 156 180 271 298 320 396 460 468 471 448 429 406 421 431 402 326 230 156 6 0 96 204 257 322 351 367 363 310 261 222 174 152 226 267 277 255 235 239 245 265 275 302 318 312 320 314 300 228 206 200 192 194 206 224 224 228 239 251 275 
122 146 128 126 132 130 134 128 130 128 118 126 128 120 130 132 122 124 122 120 134 136 136 160 184 182 214 275 275 235 271 351 402 409 402 392 353 289 212 62 50 126 222 269 328 367 365 371 275 239 210 126 120 226 277 273 259 265 261 267 241 218 293 314 308 295 298 275 200 176 162 146 132 116 136 132 136 142 128 182 
138 148 122 136 120 132 138 130 128 126 132 130 134 128 114 132 118 118 122 120 126 142 126 138 150 142 138 136 158 164 174 271 367 380 373 396 390 330 297 182 144 144 210 265 308 357 361 342 273 259 216 156 80 204 257 277 273 281 291 287 269 253 291 310 300 300 300 277 196 178 168 148 152 122 132 114 126 126 130 142 
126 138 142 122 130 126 120 142 120 130 128 130 136 128 126 116 120 138 116 132 138 130 126 138 140 142 128 130 144 158 180 293 367 365 351 380 382 351 351 257 198 202 251 273 328 365 344 330 287 283 204 190 66 130 243 261 283 285 289 310 271 291 279 298 285 281 291 243 184 164 164 150 160 128 118 116 116 118 124 138 
128 144 140 138 138 126 136 142 126 140 118 122 128 126 126 120 136 108 128 122 132 138 130 128 144 130 136 130 136 136 154 308 384 357 295 332 359 336 332 269 200 222 245 277 345 361 344 332 277 263 204 188 82 70 226 247 271 293 281 312 261 304 291 320 289 293 291 220 160 162 166 140 134 128 132 116 120 114 118 128 
128 132 126 130 136 124 118 114 122 130 122 126 120 128 120 114 136 120 112 128 128 126 130 128 134 114 120 120 136 152 176 326 413 361 224 164 200 267 314 304 245 235 265 306 371 380 365 320 275 257 206 188 136 132 200 243 269 295 295 295 287 326 334 345 291 298 283 192 142 146 156 158 140 118 118 126 110 118 120 134 
116 138 136 126 118 132 128 122 112 120 120 128 126 118 114 122 140 132 122 122 126 126 122 124 144 112 128 120 118 140 158 259 386 400 234 58 156 259 318 308 304 304 310 375 409 415 363 289 263 243 234 204 168 180 212 243 253 285 281 279 298 338 342 308 297 289 269 182 122 156 158 126 126 116 132 112 102 106 112 126 
126 128 132 116 112 114 118 132 110 118 118 110 124 128 106 110 118 116 110 108 124 120 118 122 114 112 114 116 114 134 132 186 367 394 384 345 363 351 367 359 330 314 378 421 473 437 308 277 249 226 237 226 216 184 198 208 235 265 269 279 316 336 347 306 302 269 234 166 150 152 156 132 130 114 118 102 94 112 92 102 
132 150 118 134 120 130 122 136 118 110 122 116 124 118 110 122 116 116 102 110 126 136 112 112 114 90 100 104 108 116 120 140 237 371 349 359 357 334 371 427 409 421 462 469 479 384 228 196 210 192 206 212 190 164 146 154 210 265 279 269 304 320 318 308 295 273 224 176 130 138 146 138 140 114 120 104 98 116 106 106 
126 134 136 122 130 120 128 128 126 116 118 116 120 102 94 114 112 102 106 114 120 124 112 112 120 102 120 108 104 112 122 132 160 208 297 334 328 376 446 444 442 491 493 495 437 302 196 148 144 172 160 156 174 148 108 148 180 237 275 269 285 316 306 308 300 255 192 160 154 140 142 136 134 116 114 104 114 106 96 112 
126 136 134 132 132 124 132 124 118 128 110 118 122 98 114 116 124 120 118 122 128 128 120 118 128 104 108 102 114 118 122 138 140 156 182 206 275 396 454 437 444 491 487 477 388 202 150 148 148 160 156 162 170 160 148 138 158 226 247 241 241 285 304 277 257 222 188 174 168 154 168 138 136 116 114 100 106 102 90 92 
120 132 110 132 124 112 116 124 120 124 118 116 138 122 118 122 118 126 108 120 128 132 126 114 124 118 118 112 124 130 130 136 150 156 170 190 208 255 320 386 427 469 473 421 239 132 124 148 146 152 146 156 150 142 146 148 154 166 162 148 154 166 194 200 198 202 192 182 170 162 160 148 126 112 104 90 100 98 98 104 
124 146 132 146 146 126 128 122 124 112 116 126 144 134 126 120 120 118 124 120 138 136 122 128 142 130 124 134 118 132 134 146 164 172 186 196 200 186 204 182 241 285 291 235 134 116 124 124 138 142 156 166 160 150 152 148 132 144 132 134 134 122 144 166 180 188 194 180 172 158 152 142 136 118 102 94 102 100 86 108 
114 142 132 132 126 144 142 122 124 126 140 126 142 122 112 134 128 132 128 132 130 126 128 128 150 122 138 122 148 162 190 220 235 259 283 302 297 285 271 202 170 178 168 140 130 104 118 126 142 144 148 152 158 146 154 158 148 138 130 128 140 144 146 148 178 176 178 180 178 166 162 152 132 124 100 100 96 100 96 120 
122 134 136 134 120 134 118 124 124 132 134 136 134 130 130 130 134 124 126 118 132 142 128 142 132 132 132 150 188 271 332 359 349 344 340 347 322 357 402 380 344 283 222 158 112 122 118 128 136 154 160 148 160 156 168 156 180 202 194 178 178 186 158 152 160 148 136 158 174 162 176 170 172 154 142 132 90 110 124 136 
114 134 142 126 118 120 126 126 110 132 128 134 144 122 118 136 126 132 130 118 130 134 132 132 144 126 142 196 304 318 330 324 336 336 351 359 328 384 421 417 409 421 384 265 154 134 124 136 152 162 164 178 204 200 206 226 232 206 212 196 184 176 142 152 154 144 134 164 170 178 190 204 212 224 202 190 164 130 130 166 
114 124 134 126 122 136 136 116 120 130 124 120 138 118 122 144 126 112 122 128 132 128 140 132 126 140 174 300 357 330 295 308 342 355 351 355 330 371 407 407 406 427 413 359 261 192 204 216 206 198 190 214 220 208 210 230 214 214 216 182 188 174 174 154 144 138 146 160 176 194 230 271 310 297 310 302 283 249 265 259 
110 136 122 136 120 116 122 124 116 118 116 130 126 116 126 122 132 138 128 146 140 142 122 150 138 138 212 342 344 349 320 277 267 302 326 351 342 361 409 409 406 409 409 407 365 275 237 243 241 234 226 222 226 222 232 237 237 228 212 202 178 180 166 158 144 152 132 162 160 194 232 275 291 318 332 336 308 308 291 297 
118 138 138 122 144 128 132 134 122 122 114 122 138 128 130 154 168 158 180 160 166 152 142 158 158 172 267 345 344 345 318 293 253 259 251 273 291 297 332 336 332 382 402 400 400 345 259 234 259 259 261 249 259 253 255 235 241 216 202 168 88 144 158 158 136 150 152 142 124 144 214 255 291 312 344 340 318 318 300 308 
142 148 126 132 126 138 130 126 132 134 132 118 126 130 146 194 310 340 345 328 314 265 188 162 166 210 314 322 304 297 297 287 277 287 263 222 198 194 198 220 255 312 361 382 388 378 312 220 247 251 255 267 265 277 259 241 255 230 192 152 36 144 164 166 152 148 134 120 128 152 214 237 265 291 342 326 328 318 302 265 
124 144 116 130 128 148 130 132 128 122 126 128 146 142 196 312 448 440 452 483 487 466 398 273 222 324 340 330 302 295 289 287 295 297 220 178 158 158 172 170 204 259 302 355 363 361 340 243 216 224 267 273 287 275 271 251 251 245 198 190 152 162 168 156 146 154 148 134 142 188 204 230 259 283 300 289 275 259 232 192 
130 144 122 120 136 116 124 124 126 124 118 132 132 140 253 378 454 464 489 531 489 462 468 417 390 411 378 330 304 298 281 287 285 232 172 150 138 150 178 182 192 237 251 277 334 342 334 295 204 204 251 271 281 277 263 263 245 222 226 214 184 174 174 164 152 150 168 158 160 168 172 182 160 160 150 140 134 144 132 170 
136 142 132 118 120 136 128 118 116 130 130 124 132 158 269 406 446 483 527 562 471 404 398 446 433 425 384 336 312 287 287 263 249 212 168 128 118 154 192 206 200 214 220 235 285 330 324 302 239 192 224 273 293 283 293 287 245 232 226 210 200 204 178 174 158 176 142 152 152 154 140 110 102 104 82 90 88 116 108 140 
134 142 124 132 120 136 122 110 106 118 122 120 136 136 237 380 415 479 514 531 481 334 365 382 400 400 378 300 298 283 259 273 214 206 180 126 112 174 194 196 202 206 216 220 245 285 310 314 285 210 224 267 312 310 310 314 275 224 222 208 194 182 180 170 130 134 132 130 128 114 118 98 78 98 110 88 100 110 108 134 
124 144 126 128 136 136 126 130 134 124 114 124 130 138 194 336 398 433 489 516 456 376 392 380 406 390 361 289 281 269 261 243 218 212 168 122 144 186 206 218 214 206 210 210 230 241 293 318 298 275 265 316 326 328 344 361 363 245 196 180 176 162 134 122 118 114 124 116 108 116 124 102 90 96 110 104 126 118 124 136 
124 142 122 136 134 132 120 124 126 128 128 120 138 124 148 261 355 388 444 479 442 438 438 404 404 396 365 302 267 230 232 234 202 196 150 106 138 164 198 220 212 210 198 192 210 214 220 300 326 318 310 320 328 338 351 344 302 202 162 142 136 134 126 122 116 140 126 130 132 114 122 106 110 102 104 102 114 126 116 138 
114 124 118 122 136 142 134 132 136 118 126 114 142 126 136 146 190 210 249 300 344 328 275 230 275 355 334 308 275 247 243 226 204 160 118 80 72 124 194 200 230 241 196 176 190 200 210 275 332 355 324 324 357 342 275 222 222 198 196 158 150 164 162 170 148 156 142 126 128 124 130 124 108 110 104 128 114 122 122 138 
124 122 138 122 132 130 134 122 116 128 122 126 140 126 128 128 122 126 132 150 146 146 132 156 166 269 330 330 277 257 249 232 206 178 104 70 88 134 180 216 239 232 186 188 192 210 245 291 332 347 334 338 340 293 239 192 190 196 200 198 194 192 206 204 218 220 208 174 158 148 126 128 104 120 112 126 124 120 122 152 
128 142 136 136 148 122 126 140 120 140 124 116 126 120 114 116 124 122 120 146 140 128 134 144 168 214 310 310 273 257 237 241 232 188 142 92 96 126 192 228 245 224 204 200 208 255 320 340 342 345 332 351 287 232 214 214 214 206 204 210 204 218 216 224 214 220 235 202 186 162 168 174 166 158 172 170 150 162 138 172 
132 144 130 144 136 140 130 134 126 130 122 130 134 130 110 112 122 122 124 118 142 126 122 136 134 176 318 342 298 255 237 239 235 226 164 110 90 128 220 237 251 245 255 271 320 344 357 340 336 349 349 298 263 228 222 216 222 206 218 204 208 230 198 196 180 186 218 170 134 132 168 196 230 249 251 269 247 247 220 172 
134 146 132 128 138 122 126 122 128 126 126 122 140 130 128 120 114 118 126 120 126 126 112 122 128 134 308 347 314 277 235 226 218 224 204 176 178 192 245 273 269 310 332 361 373 378 351 336 283 330 342 259 263 243 239 222 224 214 232 220 212 200 172 188 186 198 192 136 100 106 156 180 243 259 285 297 320 310 300 273 
116 130 146 128 138 130 126 120 126 120 118 122 128 112 138 110 122 124 112 114 128 108 114 116 110 132 241 363 326 265 241 249 253 267 277 275 283 347 351 344 347 371 396 388 396 380 340 257 218 245 261 263 267 251 237 251 220 222 239 220 214 196 190 194 166 184 170 142 112 120 162 214 239 285 316 328 344 338 326 318 
122 130 130 132 134 152 132 116 116 122 122 128 126 126 118 116 124 116 108 112 118 112 112 106 118 120 178 314 297 304 310 314 295 302 297 289 342 400 388 386 406 417 417 404 365 322 224 212 198 234 234 259 261 261 257 261 239 228 228 232 218 190 182 186 172 156 148 158 126 162 208 243 295 342 332 322 347 344 344 320 
116 152 138 128 126 148 124 128 118 134 130 122 124 134 124 110 124 114 110 112 120 114 120 112 126 106 118 172 263 320 318 308 300 289 295 300 386 431 423 404 433 421 384 330 247 162 144 174 214 226 247 261 265 255 263 253 232 234 210 218 208 188 178 150 124 128 110 140 128 150 200 263 312 330 338 340 334 338 322 300 
138 132 124 126 126 128 110 114 138 120 120 120 130 122 128 122 130 108 112 108 120 116 96 110 112 94 106 112 136 174 237 277 271 283 283 293 369 417 409 396 402 367 265 146 108 98 98 112 178 226 235 243 220 228 226 212 216 200 168 180 164 162 168 152 120 104 100 118 98 102 122 156 188 243 247 247 228 220 218 208 
132 130 96 122 108 126 122 112 112 112 116 126 124 120 104 98 126 106 96 96 116 112 108 108 106 82 100 80 88 88 134 124 138 166 202 222 277 267 255 241 222 178 122 88 88 92 100 94 108 130 156 134 122 128 130 136 142 142 150 152 146 138 122 138 114 96 94 98 98 106 118 100 108 122 144 136 122 140 128 150 
112 126 120 104 134 120 110 106 102 102 102 108 126 110 104 110 98 92 104 100 98 104 100 100 90 70 86 82 74 82 106 80 92 108 120 124 142 112 114 100 112 104 76 70 72 66 74 72 96 90 102 104 98 104 96 102 100 102 94 92 90 96 98 82 94 76 84 86 66 84 88 86 92 96 112 112 110 112 108 152 
118 124 104 120 118 122 110 108 104 106 100 114 114 106 102 104 102 84 100 84 94 86 92 94 110 84 70 78 66 78 86 84 90 74 92 116 98 90 82 78 88 84 60 62 54 68 66 74 82 94 92 98 92 90 88 96 90 94 72 84 72 76 82 78 68 72 82 70 64 74 82 68 44 90 112 122 114 108 114 140 
106 116 102 110 104 116 94 108 96 92 94 102 110 102 96 104 88 110 96 84 80 78 88 102 94 66 56 70 54 66 82 84 66 78 80 98 92 76 74 58 62 60 58 42 48 50 74 68 80 72 74 88 84 88 82 82 84 78 80 66 64 72 78 62 58 72 74 68 68 74 76 50 50 86 94 98 108 92 104 112 
120 124 106 90 102 112 82 102 102 92 102 88 122 94 100 102 90 90 86 94 80 78 90 86 86 52 54 70 50 54 72 80 54 84 96 94 104 90 90 88 94 100 80 74 50 58 74 68 72 88 80 80 70 86 76 82 86 76 90 70 66 62 70 52 62 62 62 74 46 52 72 48 44 88 86 94 102 88 106 106 


