P2
80 60
699
61 85 71 71 65 79 89 81 85 91 79 87 93 95 83 91 108 97 91 85 87 100 85 102 79 89 93 83 93 100 91 106 89 97 93 83 93 89 106 104 89 110 110 108 112 97 100 118 104 106 116 104 120 110 116 102 118 100 106 110 110 134 166 270 391 448 420 258 108 102 77 59 55 32 55 47 47 49 138 218 
61 83 67 89 73 77 89 83 81 77 87 91 81 85 81 93 93 91 91 87 102 97 89 87 71 81 100 91 79 87 89 91 89 97 91 116 89 106 95 97 102 108 108 108 108 108 112 118 110 120 108 106 110 102 104 97 114 114 112 124 118 186 330 477 514 506 469 328 140 97 73 41 49 39 57 47 57 61 186 357 
45 55 81 79 79 83 79 73 79 85 65 73 71 71 85 93 75 100 85 95 83 89 89 100 91 89 83 83 93 108 104 100 85 97 93 95 114 100 97 120 97 108 114 120 112 106 114 120 114 116 108 134 126 112 120 120 140 132 128 154 180 354 489 529 528 524 473 302 122 102 83 71 45 35 37 55 65 91 268 399 
53 73 75 83 65 63 87 79 83 79 89 81 69 91 93 91 93 85 85 102 95 102 93 110 104 114 104 106 102 100 106 100 93 93 97 106 118 104 114 108 110 112 120 106 122 112 118 116 120 120 124 118 124 140 130 122 140 154 164 202 354 483 524 526 531 526 456 208 122 100 97 51 59 45 61 69 77 134 363 438 
55 73 75 67 87 85 85 87 73 83 77 93 97 89 91 108 95 104 87 112 97 95 106 95 114 104 108 116 110 120 100 114 93 116 110 108 114 100 102 110 108 116 110 118 118 120 124 124 124 130 130 138 152 144 140 136 158 172 212 365 487 526 547 564 545 529 367 152 116 118 100 53 79 53 73 73 106 206 458 438 
53 71 87 85 73 81 81 83 89 95 95 89 97 93 87 97 100 100 95 104 100 104 100 108 110 118 118 118 102 110 106 100 102 118 110 110 122 106 112 112 100 120 116 108 110 104 116 132 122 128 134 140 140 158 174 166 196 262 403 500 524 543 526 555 543 462 244 136 120 100 112 75 75 69 69 97 136 300 504 462 
53 93 83 93 79 97 89 87 102 85 85 108 85 83 104 108 100 110 87 104 110 110 104 104 116 118 110 97 97 110 114 104 106 110 110 114 112 114 110 122 124 114 116 112 114 120 134 132 124 128 150 202 278 310 350 363 373 475 537 557 528 485 456 529 520 340 190 140 146 130 112 87 77 85 106 120 174 387 508 473 
51 69 79 75 83 79 89 89 75 91 85 85 100 108 97 104 93 91 102 100 106 93 91 106 106 110 108 97 108 102 112 100 106 118 106 102 114 116 114 100 108 118 118 114 116 114 116 120 114 152 274 395 460 497 516 500 518 518 531 537 481 475 460 485 420 268 212 158 156 142 136 130 116 116 138 186 296 456 498 487 
47 67 57 71 87 79 85 89 85 89 89 95 91 95 95 108 108 97 106 116 91 102 108 116 100 93 106 102 93 118 102 100 104 118 95 104 116 110 106 112 108 114 114 97 120 124 108 134 132 186 383 477 497 495 533 528 528 498 479 471 450 475 475 504 456 395 342 310 286 274 266 300 302 268 276 344 438 475 514 481 
51 65 77 61 77 81 93 75 77 91 93 104 112 110 87 106 95 81 106 85 114 85 97 104 100 104 100 108 110 100 95 97 89 110 122 106 114 100 104 116 114 97 108 108 114 106 108 130 124 236 369 458 440 481 498 506 487 356 438 460 460 456 424 434 434 444 446 424 424 407 417 436 458 417 403 383 462 495 512 493 
59 71 67 77 91 89 81 81 112 89 77 100 85 85 97 106 97 102 120 102 102 108 100 93 97 93 100 91 104 97 100 104 100 97 112 95 114 97 108 126 108 114 106 116 93 120 114 118 130 150 242 312 316 302 389 446 332 250 444 487 479 487 456 471 456 467 473 450 442 448 428 438 487 466 401 377 446 466 510 479 
63 81 77 65 102 102 97 95 91 93 93 95 87 102 85 100 85 93 106 104 116 104 100 100 95 97 93 106 100 108 102 106 114 102 102 104 110 110 100 110 110 106 108 120 110 114 114 114 118 130 168 154 146 192 342 246 196 254 438 489 479 473 464 479 466 467 483 434 440 454 444 407 483 489 407 356 391 419 495 460 
69 71 71 69 91 93 89 89 85 89 77 108 87 95 83 100 87 106 97 95 100 91 100 89 97 97 104 93 106 104 95 97 93 95 93 104 116 102 104 97 104 102 95 104 108 114 118 118 118 128 136 142 162 212 278 190 190 260 415 469 397 403 452 456 454 462 467 442 434 450 448 420 444 483 395 346 336 361 444 436 
53 81 79 67 71 97 83 89 87 87 83 89 100 91 87 104 93 89 97 108 102 97 93 106 104 91 97 87 93 95 91 91 97 102 93 100 104 102 93 108 110 110 110 114 93 120 108 132 130 140 158 190 234 338 419 442 344 354 442 417 332 367 475 510 485 489 460 428 415 442 436 452 442 446 379 340 334 340 426 438 
57 59 67 71 75 83 81 83 81 85 93 85 85 79 75 89 93 93 89 112 87 106 85 77 79 79 87 91 102 91 91 95 87 91 89 91 104 91 100 91 110 106 112 106 118 100 106 124 142 210 314 438 528 574 578 634 564 557 647 634 553 452 464 479 483 495 462 430 424 428 424 448 452 411 383 342 330 352 450 430 
67 79 73 71 67 91 79 83 91 91 73 100 89 91 93 95 93 100 104 93 89 93 95 87 83 79 85 89 95 81 91 95 89 87 91 97 83 100 97 100 91 110 104 106 108 110 110 128 218 493 626 642 655 680 659 684 621 624 670 670 667 632 487 444 411 415 430 420 422 420 413 448 460 401 377 348 324 369 497 485 
65 69 69 69 67 77 83 93 95 79 67 73 89 75 85 87 93 87 77 87 83 71 73 75 79 71 83 91 79 81 73 85 97 79 81 95 100 89 100 104 108 100 110 100 97 114 120 154 300 593 686 663 691 668 682 653 632 613 697 680 665 659 562 434 426 428 460 434 430 411 413 464 495 446 385 354 336 395 529 495 
57 63 65 59 63 85 89 87 75 75 71 67 79 75 83 93 85 85 95 97 100 75 81 89 85 91 91 85 100 93 102 87 87 100 89 87 114 112 106 104 95 104 102 102 102 120 128 170 282 512 680 651 680 670 665 638 630 622 699 678 686 647 510 477 454 469 434 417 403 409 401 467 491 471 407 391 379 436 539 529 
47 73 69 69 59 75 73 81 91 89 91 79 87 93 87 93 102 89 100 102 83 95 81 93 100 81 104 91 91 100 100 102 110 89 100 116 108 112 106 124 106 106 102 122 128 118 124 170 300 397 638 665 674 665 638 605 615 646 665 687 640 502 428 489 485 473 460 426 403 397 399 450 500 475 430 436 464 469 531 506 
49 69 57 79 75 73 75 81 93 91 87 95 83 102 85 104 95 95 97 95 104 102 97 87 100 95 108 106 91 110 104 102 114 97 104 108 110 110 97 118 114 122 118 112 116 120 130 146 282 316 393 529 603 593 613 582 560 456 498 514 415 352 357 460 483 485 458 436 428 401 407 403 481 475 448 479 508 479 520 514 
69 81 65 79 85 93 73 83 95 91 79 93 100 108 95 95 95 100 100 108 100 106 100 95 100 104 104 100 118 106 104 110 108 100 102 112 110 114 118 120 116 126 110 126 132 124 130 140 200 294 320 399 466 518 560 420 266 206 266 326 365 417 419 475 454 442 420 389 401 417 413 428 440 479 464 508 531 514 526 487 
71 93 73 69 71 71 81 71 89 93 81 89 104 106 87 106 100 95 91 100 114 110 102 87 118 91 93 108 102 114 106 102 110 97 102 106 118 116 116 114 114 112 110 120 120 122 134 134 150 230 286 328 338 334 260 178 174 154 162 292 458 508 473 469 444 434 434 393 405 430 419 454 452 475 475 518 539 506 529 514 
79 83 73 83 87 85 91 83 93 87 97 106 112 97 83 100 104 112 95 100 108 116 95 100 116 108 91 104 108 110 104 112 118 104 91 106 120 126 120 112 118 116 118 124 114 126 118 134 134 158 190 202 196 160 156 140 148 146 150 226 438 524 479 462 424 409 409 397 401 442 485 467 413 379 497 516 543 514 539 522 
63 89 73 85 91 85 81 73 85 87 85 83 106 95 102 106 97 108 89 108 112 120 106 108 93 108 102 97 108 116 102 102 126 106 91 112 104 114 110 118 114 128 132 114 122 124 126 130 120 140 130 146 132 140 136 130 138 132 146 178 330 456 448 479 448 477 473 460 444 514 568 547 514 477 520 524 543 524 555 508 
61 93 69 93 79 97 85 93 97 97 89 93 112 104 97 102 112 102 114 104 106 112 104 97 102 102 106 102 104 95 114 104 116 106 104 116 106 114 114 116 126 120 130 118 114 128 134 132 122 136 138 132 138 142 128 132 138 138 146 148 190 350 432 487 467 466 450 401 407 500 560 584 595 566 539 539 493 506 545 498 
69 71 57 71 89 87 85 93 83 97 102 102 89 106 100 89 102 104 87 106 110 102 106 100 118 100 110 108 100 106 100 110 102 106 110 104 114 116 116 126 122 122 128 124 112 130 118 126 124 126 136 132 128 134 130 116 148 144 128 148 142 186 270 367 415 415 393 361 397 514 533 549 551 559 553 522 389 462 497 469 
59 79 65 73 89 81 75 89 83 81 100 81 91 104 102 89 95 97 110 95 108 102 108 102 102 89 118 100 110 97 108 106 100 112 112 124 108 126 120 120 132 126 124 130 120 144 136 136 126 132 130 132 134 126 120 128 136 152 134 136 136 146 162 196 268 332 357 363 389 467 489 487 491 500 491 442 385 430 452 446 
69 83 69 83 81 89 83 91 95 87 81 93 83 108 104 95 93 104 102 102 102 97 97 100 93 102 95 106 110 102 106 114 102 104 106 114 122 128 120 116 116 128 136 130 124 130 124 136 128 126 120 128 122 138 134 130 136 136 126 134 138 156 186 270 342 395 428 422 428 456 475 506 481 483 506 491 456 450 460 460 
67 65 75 81 87 95 71 83 89 87 104 93 100 93 97 112 97 93 87 106 93 114 87 93 93 91 106 108 102 95 97 106 102 87 100 104 114 114 112 122 136 122 128 132 134 140 128 132 122 126 126 132 124 126 114 124 118 136 142 136 144 218 346 405 426 448 448 440 436 444 464 497 489 483 500 510 535 487 481 475 
57 79 71 79 87 75 71 87 91 95 95 87 81 85 95 91 81 91 110 102 97 95 93 93 93 93 112 91 104 100 95 85 102 97 100 116 104 118 102 126 132 116 126 122 134 136 132 130 116 128 122 124 126 124 110 118 128 130 136 126 184 330 379 399 411 446 454 438 436 450 466 495 491 510 504 500 533 512 500 448 
51 71 71 61 71 75 71 81 85 85 85 87 77 89 87 95 100 87 95 95 93 97 93 104 87 91 97 97 104 91 95 97 102 93 110 100 97 126 108 120 130 132 126 128 136 128 124 134 136 134 126 126 136 118 126 114 140 118 132 140 248 379 369 397 405 393 424 430 450 466 491 504 489 506 487 483 516 500 504 448 
53 65 59 73 77 89 71 89 81 71 83 85 97 91 89 95 87 104 83 89 93 83 100 87 81 89 95 97 91 77 104 95 87 102 89 106 102 112 114 126 134 132 136 130 124 130 118 134 126 126 116 128 126 122 130 122 138 134 136 154 302 389 385 379 375 399 387 407 422 434 446 436 413 420 442 458 473 458 440 422 
63 71 61 85 83 79 91 93 77 83 79 79 93 81 91 93 93 81 102 97 100 102 91 100 89 79 102 102 93 95 89 95 106 100 112 100 106 114 104 138 132 136 130 138 130 134 130 134 128 146 152 182 180 170 158 156 142 152 154 214 344 393 346 318 302 328 371 399 387 381 361 354 375 424 454 456 462 424 411 399 
73 75 79 83 75 89 89 91 89 97 93 87 91 110 91 108 93 108 106 97 93 106 106 93 89 106 106 102 104 118 97 106 114 112 110 112 114 126 122 130 120 152 132 132 140 136 138 132 136 160 312 438 467 456 440 415 286 198 166 322 346 342 302 288 296 334 373 373 375 354 322 324 365 405 444 456 462 407 401 391 
63 71 77 83 89 91 93 93 97 104 95 91 91 95 93 104 93 100 116 104 108 104 114 102 91 97 104 110 100 106 114 102 112 110 104 112 120 122 122 128 136 132 144 136 134 132 128 146 154 232 440 580 549 559 578 560 591 504 365 424 397 365 318 294 286 324 334 300 361 373 346 352 379 481 506 471 467 417 407 381 
59 69 85 77 91 85 91 106 95 100 97 85 97 114 89 95 106 110 114 95 110 110 106 110 116 95 104 114 100 104 120 97 116 108 114 114 110 118 120 136 130 132 136 144 132 140 142 154 216 314 493 568 574 605 597 568 557 560 547 562 467 417 338 304 276 274 272 274 369 344 346 354 361 444 489 487 473 432 413 397 
57 79 77 89 77 95 83 87 100 95 79 95 104 97 95 108 100 93 114 95 116 112 110 106 89 108 110 108 104 89 112 106 100 95 97 120 120 108 122 116 126 130 146 130 136 148 130 150 246 326 456 531 566 597 597 574 466 506 485 541 471 381 332 300 238 236 262 316 350 344 352 350 367 420 456 504 483 424 422 395 
59 75 75 89 81 87 93 91 95 95 106 91 89 110 102 126 106 100 106 102 104 114 110 102 97 95 112 100 95 108 110 114 106 118 102 116 114 108 114 124 126 132 132 142 134 130 130 140 196 286 420 467 539 599 605 553 442 475 460 506 446 356 312 278 258 252 268 324 306 336 340 367 354 413 477 504 491 409 411 393 
57 75 83 71 91 89 91 100 95 106 91 108 100 104 108 132 102 97 112 114 114 114 118 102 112 104 118 114 106 124 110 110 102 100 114 114 118 128 110 122 118 128 132 130 126 130 128 142 180 284 407 487 495 555 586 562 539 526 495 535 417 344 282 262 254 280 264 304 288 342 326 361 363 397 450 498 464 361 403 383 
51 83 69 81 85 93 91 95 85 104 83 104 95 93 100 112 116 114 108 118 102 118 118 104 106 110 108 95 112 110 118 116 112 112 102 114 122 124 120 124 130 128 128 124 142 136 120 134 128 180 286 393 471 524 537 547 555 512 512 497 367 330 268 244 246 242 224 244 266 310 302 332 354 375 432 504 401 342 391 342 
53 93 63 77 77 89 89 79 97 104 85 102 118 112 116 114 114 108 110 118 116 110 106 116 106 120 116 112 112 112 120 114 108 122 108 116 114 118 112 134 128 122 124 132 124 126 118 128 142 126 146 178 206 268 324 304 266 254 346 350 294 270 252 246 218 218 216 236 260 308 286 316 344 356 401 466 373 352 375 356 
65 83 73 77 95 77 89 81 106 81 95 102 100 95 114 110 108 104 108 106 110 112 100 100 110 114 114 108 108 108 112 108 118 120 118 114 124 112 124 126 116 110 124 134 124 116 120 122 118 126 128 122 134 150 138 148 146 208 304 278 224 230 250 264 232 236 252 230 246 292 280 298 320 320 371 391 357 371 385 363 
53 77 65 67 81 85 100 95 89 91 93 83 97 104 97 118 102 100 120 112 100 97 100 110 108 110 100 97 100 97 108 104 118 112 106 116 112 106 120 128 120 118 108 128 118 114 118 114 104 112 122 110 120 116 116 108 162 254 286 266 210 218 254 298 256 256 226 202 234 264 272 292 306 312 350 361 344 369 405 354 
45 71 73 67 59 79 97 85 83 85 83 83 95 102 95 95 106 110 102 104 102 97 79 108 106 126 104 112 102 102 104 110 91 110 108 120 110 122 104 122 114 128 120 124 110 114 116 122 120 120 134 116 130 120 122 126 264 294 272 242 230 240 256 286 256 230 190 216 236 282 286 272 288 320 352 328 326 340 373 367 
41 53 63 55 71 57 89 85 73 85 83 89 93 83 85 91 102 87 116 108 100 97 93 100 87 91 108 87 97 95 108 102 114 106 93 87 106 104 104 100 104 97 124 122 116 124 120 116 110 116 118 110 108 112 132 234 342 330 280 218 174 190 252 288 252 228 228 208 222 286 280 262 276 314 318 318 316 336 375 365 
30 67 37 47 75 69 71 91 83 73 83 63 81 77 83 79 104 93 93 85 85 77 89 83 89 93 85 79 102 144 170 120 158 186 102 110 97 102 106 112 108 97 118 120 104 110 114 114 116 102 122 130 148 212 310 332 342 336 320 260 168 142 134 186 202 218 218 178 234 254 262 262 280 312 310 302 326 361 369 356 
35 55 51 47 49 53 65 75 75 67 67 71 69 77 73 75 73 89 87 83 81 81 89 77 83 91 100 95 106 218 348 342 282 348 196 108 97 104 102 120 95 104 106 112 102 120 134 126 140 172 252 330 399 438 473 446 417 375 288 216 152 150 156 112 132 160 164 154 194 222 238 244 250 278 308 308 320 336 342 324 
30 41 47 43 65 53 45 71 49 55 73 81 73 77 65 65 83 67 65 83 79 79 83 81 73 77 83 79 116 264 399 434 448 442 389 170 97 106 95 106 100 114 136 170 206 290 336 324 356 409 434 460 491 489 483 481 473 407 280 176 128 110 61 53 39 43 89 120 128 138 162 168 200 240 288 288 284 292 330 320 
37 61 53 51 49 57 69 63 61 63 67 63 55 79 65 73 67 81 69 77 79 79 75 65 75 67 83 71 83 188 352 415 446 466 475 369 206 190 194 218 242 268 365 424 454 462 481 477 481 479 473 489 481 473 471 469 464 422 258 126 37 26 0 10 22 8 18 30 41 65 71 69 85 132 216 260 244 256 300 282 
47 75 69 63 61 59 85 91 61 71 61 102 81 79 69 85 85 85 75 93 93 77 87 87 89 89 87 91 97 132 266 344 420 475 495 508 466 430 434 450 458 436 489 516 514 512 498 491 489 487 479 473 452 438 405 338 268 180 110 69 45 28 20 24 20 32 22 16 28 28 24 10 10 14 63 152 220 250 294 260 
47 71 73 75 77 73 75 77 77 71 87 73 71 83 85 97 77 95 93 85 102 83 85 89 87 81 95 93 100 120 166 228 304 399 436 475 471 473 473 473 446 438 481 506 493 483 467 458 446 393 342 274 228 210 170 142 122 93 81 41 32 32 22 32 24 39 43 32 28 24 41 18 8 16 32 104 164 200 280 238 
53 77 77 57 81 75 77 71 79 87 85 89 83 79 81 87 93 89 93 97 97 89 116 110 95 110 93 91 108 102 106 136 142 158 238 274 264 274 286 278 264 304 318 318 306 272 244 234 216 190 178 160 160 144 122 134 120 97 87 63 32 41 35 57 41 73 61 51 51 61 63 49 59 71 53 65 106 154 256 218 
49 67 67 81 81 87 77 97 75 79 79 91 89 87 87 102 85 87 100 93 97 104 112 97 95 95 91 97 104 95 100 106 114 128 122 142 144 140 136 146 150 172 170 186 182 178 178 168 162 176 160 168 150 152 148 136 144 134 114 83 53 57 45 63 79 89 73 71 79 79 102 100 91 79 63 59 85 87 142 166 
49 83 55 59 73 85 67 85 89 83 100 110 89 93 93 108 110 95 112 100 114 112 118 93 102 110 110 116 95 114 104 128 124 114 116 158 138 148 146 144 160 156 184 178 180 168 168 178 170 172 174 172 162 168 154 148 166 148 122 97 81 73 79 79 75 95 87 81 81 95 104 89 81 61 65 75 75 55 106 100 
65 79 55 75 69 87 75 73 87 93 89 93 102 95 106 100 102 91 106 97 91 102 97 106 102 108 108 95 102 106 126 138 150 146 150 158 152 152 148 158 168 166 160 158 158 152 156 162 154 152 148 152 160 170 146 148 162 142 112 102 77 89 77 89 97 108 89 89 85 87 79 57 73 61 59 89 79 75 106 95 
45 69 65 71 83 91 73 79 87 79 81 97 93 104 97 116 110 91 106 108 112 102 108 91 104 100 122 102 106 112 130 136 150 156 158 162 166 158 148 160 144 144 138 144 152 150 136 140 134 136 138 154 130 138 140 124 142 118 112 81 79 65 71 93 106 112 106 73 93 95 83 67 83 77 85 102 87 63 114 91 
61 73 79 79 77 81 91 91 91 91 83 100 89 104 104 110 106 108 114 108 108 104 114 106 112 102 112 112 116 122 140 136 152 160 152 148 150 136 130 136 116 126 116 122 128 132 126 122 120 116 132 126 120 118 114 126 134 128 118 104 63 85 71 93 102 112 118 100 91 97 85 65 83 77 77 97 100 75 110 93 
47 73 91 89 93 89 83 85 77 91 102 100 93 110 93 106 114 112 114 116 95 112 104 91 110 114 104 102 108 124 128 124 134 146 140 142 130 116 108 112 116 128 110 120 120 116 116 104 118 118 112 122 104 116 102 116 128 126 106 93 73 89 81 87 102 91 118 91 102 89 87 69 83 77 106 102 97 85 100 95 
51 77 69 69 83 77 85 85 87 79 89 89 81 110 106 112 87 106 114 110 114 102 95 106 122 104 102 102 108 114 114 130 124 138 126 118 116 106 112 118 112 104 116 108 102 110 108 120 114 114 120 112 104 128 126 124 130 134 126 97 79 97 87 93 95 93 114 77 104 116 104 73 91 87 104 108 118 75 104 97 
43 97 75 73 83 97 87 114 108 87 85 102 102 110 110 108 110 110 124 116 100 116 108 116 104 110 112 106 112 95 132 122 120 110 114 130 116 112 112 108 100 128 116 124 114 118 128 124 110 122 112 120 128 136 130 126 142 142 140 112 71 93 91 108 118 116 118 110 106 116 112 95 87 110 81 112 118 104 120 108 


