P2
80 60
594
140 160 166 164 142 136 152 156 168 160 158 156 162 174 164 138 154 164 152 128 144 140 150 140 116 122 130 116 120 120 134 122 116 126 146 142 142 132 106 108 86 104 84 82 82 94 110 120 116 138 120 138 122 120 126 124 132 110 128 124 138 124 126 140 140 134 132 114 130 132 136 114 126 120 114 112 114 122 116 108 
150 144 140 152 150 144 134 144 162 162 158 158 148 158 140 146 148 138 134 138 156 124 126 122 110 106 120 130 108 120 114 136 110 116 138 156 142 132 102 100 100 88 94 76 90 92 106 108 106 124 126 122 124 136 142 136 144 130 130 116 138 136 134 126 122 138 142 126 130 136 132 122 118 124 112 100 112 118 118 96 
142 138 144 138 166 144 140 138 156 152 146 142 146 156 146 140 146 128 132 132 144 132 130 116 124 116 124 120 122 104 120 114 122 122 154 152 144 134 120 114 108 98 94 94 106 112 108 122 120 142 140 138 128 134 136 124 138 140 122 138 142 126 140 126 130 132 142 142 144 144 122 134 126 118 118 112 116 112 118 104 
152 150 140 154 142 148 146 154 150 146 138 160 160 132 140 140 142 130 140 138 142 148 136 126 132 128 136 140 138 128 146 142 136 140 154 148 160 142 126 134 108 108 100 102 102 104 110 114 132 130 138 138 148 138 128 128 152 142 124 134 128 134 138 142 150 144 148 148 146 132 144 140 136 124 120 108 124 124 108 100 
144 136 140 152 150 144 148 150 152 142 164 148 158 158 142 146 148 144 140 132 132 130 126 140 142 128 134 134 136 152 150 158 122 146 170 154 160 146 136 120 120 118 100 100 102 112 108 134 136 146 136 156 150 158 134 150 142 126 124 144 138 122 132 146 138 148 138 140 146 156 146 140 146 142 122 122 122 108 126 102 
142 132 148 150 144 148 150 144 170 144 154 176 152 150 154 152 152 142 140 138 142 140 140 142 134 152 144 148 150 144 150 144 134 156 170 174 174 168 134 130 116 120 110 108 116 118 114 138 132 148 150 154 148 158 142 150 148 130 136 146 134 128 136 142 146 140 150 150 136 144 144 160 154 130 136 132 126 128 152 90 
126 128 154 136 156 156 144 142 164 160 156 162 164 156 152 146 160 154 144 146 146 154 150 138 136 142 146 142 150 148 148 158 160 160 178 166 180 184 154 150 138 130 122 116 122 122 114 138 136 144 160 144 160 154 148 154 150 140 138 136 126 154 156 142 156 156 154 148 154 144 136 148 138 152 158 142 128 132 140 126 
142 136 132 160 154 146 148 164 168 156 154 158 166 174 154 164 146 146 146 150 160 148 146 148 136 140 146 140 144 152 160 154 160 168 182 166 174 168 154 140 122 126 134 118 126 120 136 142 146 168 164 166 166 170 148 148 154 148 150 142 150 140 148 138 154 152 140 152 154 138 146 154 146 136 154 152 134 122 134 112 
134 132 140 152 148 150 158 156 158 160 170 174 160 184 160 150 154 156 138 152 150 144 156 148 138 152 154 140 140 162 164 154 154 176 190 192 186 162 158 152 144 160 144 132 150 140 138 150 160 164 156 156 160 170 166 148 150 136 150 150 152 140 148 150 162 146 152 154 144 154 156 152 142 134 132 134 136 132 130 134 
162 152 148 162 158 150 150 156 144 176 168 176 172 168 170 158 166 166 152 154 176 154 154 150 152 142 160 154 150 164 166 166 160 176 210 198 210 190 192 220 220 242 268 246 214 150 142 166 158 166 164 158 170 162 150 148 152 150 154 148 152 154 146 144 154 152 170 160 160 154 146 158 154 150 122 146 132 138 142 138 
152 144 154 166 152 154 150 154 152 140 148 168 150 162 164 156 160 144 148 160 156 162 158 150 158 146 154 148 150 156 172 166 168 180 220 234 260 292 282 331 441 447 455 465 416 228 150 162 158 162 162 160 158 162 148 142 154 136 132 154 146 142 142 144 160 144 156 166 150 130 136 164 172 146 138 148 140 150 132 114 
168 142 164 154 166 146 162 160 150 154 156 166 166 154 154 140 160 146 148 156 162 158 156 166 140 152 150 148 158 150 184 170 182 226 290 363 379 363 324 333 437 465 478 501 494 302 160 160 160 160 170 164 162 158 162 144 156 164 144 164 172 156 160 148 152 140 152 146 152 156 166 164 162 156 154 156 148 136 156 138 
148 158 162 152 160 150 162 164 162 142 152 166 154 184 150 148 156 150 150 146 170 150 154 154 136 140 152 144 158 172 176 178 238 363 412 388 353 349 335 331 379 455 451 492 507 375 174 174 166 170 164 146 154 160 154 160 182 186 190 212 232 210 200 170 162 148 160 156 168 158 148 166 154 148 140 144 134 144 152 132 
152 150 152 166 138 150 158 130 158 150 156 154 154 168 152 138 144 158 150 168 148 156 148 152 148 144 138 150 152 166 170 252 379 383 349 238 184 196 282 331 351 347 379 478 501 428 206 180 176 168 182 186 178 188 200 228 284 308 292 312 300 286 284 300 256 180 172 172 178 180 154 152 168 162 148 152 130 132 150 132 
168 164 150 154 164 154 154 146 160 160 162 164 152 166 140 158 154 148 146 148 146 156 160 148 140 152 156 164 160 170 208 347 424 410 379 306 232 240 266 325 296 230 282 434 470 428 264 202 200 200 210 216 214 222 244 262 306 341 333 341 314 280 318 351 322 248 196 174 178 184 172 178 176 164 158 156 152 136 148 156 
140 156 160 162 140 160 140 146 148 154 152 150 150 158 150 152 146 162 146 162 170 166 168 150 138 166 174 176 166 174 210 371 398 400 404 381 392 345 300 282 258 234 244 381 426 408 312 288 254 212 216 206 186 202 246 260 341 329 337 335 306 292 306 335 341 290 218 186 186 174 180 180 168 172 162 142 154 146 136 154 
156 142 158 142 146 140 156 140 146 152 162 156 174 164 156 160 166 152 156 148 158 166 170 186 180 178 198 192 196 188 248 371 408 404 424 406 377 290 232 198 208 214 268 351 379 388 363 335 286 244 218 204 186 194 238 280 343 345 355 345 318 306 333 337 351 292 212 192 186 198 192 192 184 168 162 154 138 138 142 134 
144 156 160 144 150 142 154 136 162 158 158 154 160 168 160 154 164 164 164 166 192 208 242 268 276 337 375 260 236 246 329 394 420 441 463 414 347 268 198 200 262 312 324 339 355 379 367 347 316 258 232 238 222 226 270 310 345 347 351 333 331 292 349 359 345 268 228 210 212 220 204 194 182 174 168 166 164 168 142 140 
160 150 152 164 166 150 164 156 162 162 172 168 162 174 158 174 178 166 164 172 224 300 327 373 441 525 534 497 459 451 418 400 435 435 435 375 300 166 138 200 324 363 365 357 365 367 353 345 312 258 200 256 254 278 296 304 347 353 357 347 333 325 320 369 359 276 282 258 288 262 224 206 204 182 188 172 190 200 190 172 
162 160 158 156 168 148 162 146 170 166 164 172 154 164 160 168 168 166 156 172 292 390 396 474 528 528 519 559 511 538 443 363 439 424 373 316 234 124 106 228 347 377 373 359 365 363 353 335 272 224 198 222 286 296 302 306 329 339 337 327 310 298 310 324 331 369 410 428 441 406 324 238 214 200 218 218 236 252 276 266 
154 172 144 174 166 156 150 168 162 166 160 178 168 174 162 158 166 174 162 188 306 404 474 575 561 484 394 501 497 530 426 345 449 414 379 304 192 128 130 276 343 375 359 361 343 339 339 318 254 196 212 204 254 288 296 310 300 314 316 310 298 280 306 320 327 310 357 361 420 412 363 288 278 310 329 359 371 371 404 379 
164 166 176 160 170 158 158 160 166 166 150 170 172 168 164 162 160 168 174 202 290 398 465 563 561 519 435 523 468 523 455 432 441 404 379 312 212 150 178 300 353 379 373 369 367 339 331 306 242 164 174 192 262 276 284 278 284 292 280 280 288 280 288 296 290 258 276 294 351 373 347 327 341 353 385 404 410 406 406 394 
156 162 144 170 166 144 162 154 160 168 174 168 168 176 162 156 170 172 176 188 268 349 408 484 507 534 546 525 466 492 463 466 449 420 379 327 244 164 194 314 353 369 377 402 402 367 304 292 204 96 114 184 246 280 298 284 286 282 278 292 270 280 282 294 274 272 268 286 324 345 327 335 347 371 394 408 406 394 383 343 
146 154 148 148 162 156 138 150 158 154 162 154 160 178 174 166 160 170 156 178 230 258 294 322 367 441 457 355 298 302 428 439 432 422 416 375 280 196 198 298 351 385 390 392 387 365 306 276 212 17 49 140 208 264 276 274 290 286 294 292 288 294 294 308 284 258 268 262 320 357 325 351 357 375 387 400 375 324 280 210 
150 158 170 162 154 146 162 162 162 178 164 166 154 174 156 162 178 158 182 170 182 192 204 206 226 222 240 210 216 240 363 410 414 424 412 400 363 300 216 244 327 400 406 402 394 359 318 276 220 186 118 63 144 216 264 280 310 292 292 296 306 290 290 292 288 266 260 270 320 357 333 345 367 357 361 316 274 228 198 182 
154 158 174 164 158 162 160 152 168 174 166 162 166 178 164 142 168 160 160 176 172 180 182 176 172 174 182 190 220 226 325 408 361 388 394 385 347 318 278 276 298 371 404 408 390 361 316 268 240 190 110 0 41 174 274 278 300 294 278 266 276 274 280 290 290 260 242 254 274 286 254 268 264 244 234 206 180 180 164 168 
150 154 158 154 152 152 164 142 150 150 160 158 156 160 152 148 164 172 158 166 170 174 170 168 182 168 176 178 188 214 329 416 339 286 316 324 341 310 286 290 298 367 432 410 398 367 300 258 234 216 172 74 13 172 242 256 230 246 234 242 236 244 258 270 266 244 236 242 230 218 210 214 198 200 198 170 172 166 164 172 
152 168 156 160 148 154 156 162 168 164 172 156 154 174 152 150 156 156 160 160 160 168 158 166 168 170 162 180 174 208 292 410 262 146 92 72 236 306 312 308 298 410 459 451 422 343 288 244 232 224 202 156 168 228 240 234 190 166 160 196 196 208 246 254 262 240 230 234 210 214 208 190 192 182 168 144 164 148 166 148 
156 160 142 150 158 156 148 146 152 158 170 158 152 166 152 152 160 160 156 160 152 160 148 142 158 158 156 172 172 188 226 375 294 61 31 142 260 312 402 373 324 457 486 470 418 286 274 246 220 240 222 198 168 204 200 160 174 150 138 154 184 190 222 250 242 242 234 246 202 208 194 182 186 174 162 156 158 166 160 146 
158 148 144 146 156 142 138 150 158 172 160 162 154 154 144 140 152 150 146 144 162 164 164 144 158 160 166 166 148 176 194 248 324 288 252 278 244 288 451 451 447 509 521 472 375 208 200 210 204 208 220 202 178 178 108 98 148 164 158 160 174 194 184 204 220 226 236 226 226 188 192 194 182 170 150 164 158 144 160 154 
150 162 166 146 160 144 148 150 146 160 146 164 160 164 162 154 158 166 152 166 170 176 168 158 156 156 176 174 176 192 196 218 246 357 410 390 343 353 482 476 496 534 513 480 296 188 182 202 194 198 200 196 202 180 146 166 176 158 164 164 164 172 194 220 238 244 232 238 220 206 190 182 186 166 168 140 150 152 140 140 
152 168 164 160 166 152 158 166 156 160 164 156 172 170 154 158 158 162 162 166 174 176 166 178 176 160 180 174 186 202 192 202 212 250 306 377 379 412 492 480 515 534 503 412 224 176 184 204 198 182 190 198 192 194 188 182 182 166 158 166 168 166 194 210 236 238 238 240 230 216 210 188 182 182 162 152 166 142 148 156 
138 148 160 154 154 156 142 150 154 158 162 150 172 182 162 152 156 160 170 156 182 176 178 178 164 168 186 184 172 188 190 212 218 256 304 318 312 325 343 367 430 465 451 282 182 172 160 184 186 194 188 198 202 200 196 180 174 160 158 158 162 162 196 220 238 234 234 228 232 214 192 192 178 166 166 156 162 160 152 138 
148 172 142 156 154 166 156 158 170 154 168 154 176 178 160 156 168 172 168 170 170 174 176 166 174 164 186 180 198 212 270 322 353 390 418 388 375 394 406 357 325 284 254 180 174 164 164 178 184 192 194 196 204 200 194 178 186 182 170 172 168 182 194 222 224 226 228 228 226 226 206 204 194 172 176 166 162 154 152 150 
150 152 140 166 174 152 148 154 162 156 164 168 162 176 166 162 152 180 176 158 186 180 172 174 186 190 188 212 278 375 410 416 394 406 426 422 424 451 476 457 468 434 373 252 174 158 160 182 186 188 200 200 202 204 196 194 176 160 172 210 202 190 188 212 212 206 222 230 240 218 218 232 232 214 218 198 174 190 174 164 
134 164 154 162 160 156 158 156 164 166 170 154 160 184 164 162 186 182 170 166 176 184 168 182 194 186 194 284 373 367 396 394 388 416 430 424 428 457 468 455 447 455 430 385 288 190 170 192 194 198 198 208 216 220 206 198 192 188 228 244 234 210 206 208 200 192 202 232 244 232 268 314 333 347 355 335 320 278 284 268 
158 140 142 160 154 154 162 168 166 166 164 158 170 170 180 168 176 180 164 168 190 174 180 184 176 202 230 359 394 379 377 367 388 404 412 418 408 437 459 449 457 466 463 435 408 329 234 250 252 254 230 232 240 238 220 206 196 224 248 250 246 240 226 210 208 204 222 242 264 298 322 359 394 406 414 375 379 365 351 327 
152 146 150 164 150 148 158 158 156 168 162 162 152 172 158 176 170 184 168 170 176 188 178 192 188 186 274 375 371 387 392 353 339 359 383 398 412 412 441 447 439 447 439 445 443 410 345 274 264 270 262 256 260 258 252 246 256 264 266 256 240 240 230 208 198 202 220 230 220 268 296 345 379 400 422 392 387 377 367 355 
152 154 148 156 154 158 162 174 176 158 152 166 172 184 178 192 228 242 226 206 210 202 184 190 202 230 351 418 394 388 375 367 325 331 333 314 314 345 363 390 394 418 426 432 449 428 373 349 322 304 292 292 286 304 318 294 296 284 270 200 140 210 210 204 200 202 214 204 194 226 288 324 357 396 416 398 392 392 375 327 
148 170 156 150 156 154 160 154 174 164 162 168 162 188 200 268 430 466 472 430 428 367 250 220 222 300 416 414 388 388 381 355 333 337 312 266 280 280 266 276 290 343 371 410 428 428 404 383 363 316 304 310 322 341 333 329 324 284 270 162 47 204 208 192 198 190 194 192 202 226 272 300 347 367 383 379 361 339 318 296 
132 168 152 162 146 160 160 154 156 162 166 162 168 196 264 430 554 527 536 554 534 511 457 371 312 432 447 426 414 408 379 349 345 341 266 242 250 250 250 240 256 286 302 351 402 410 402 390 381 341 318 316 327 349 347 335 322 296 260 240 224 202 212 198 202 208 198 214 204 240 258 272 278 268 260 236 212 184 164 164 
136 156 162 138 152 148 138 152 158 162 152 164 168 192 349 511 540 540 581 569 534 494 509 503 484 486 461 412 402 406 369 359 325 282 242 222 226 236 246 242 250 258 258 290 327 388 385 400 375 349 316 310 335 331 333 331 322 306 270 266 238 228 222 214 210 196 222 230 232 220 210 188 172 122 92 100 122 134 138 140 
146 154 146 152 136 156 156 148 166 164 162 168 158 200 359 515 528 559 594 575 532 414 457 455 494 488 461 402 377 351 361 329 296 262 220 210 234 262 256 246 254 270 254 264 292 314 361 387 369 349 345 325 335 345 329 329 316 298 288 280 254 240 244 222 218 208 210 196 192 194 176 170 138 104 104 96 118 132 140 140 
156 154 150 160 142 156 158 160 158 148 160 162 160 180 310 465 496 536 577 563 517 416 439 432 465 463 447 383 371 345 320 306 266 256 210 196 232 274 278 268 260 274 262 262 264 270 324 357 365 359 365 349 341 347 345 341 337 314 290 274 252 230 232 222 196 198 170 180 174 170 172 156 140 128 122 112 128 138 148 138 
146 156 146 162 150 144 152 152 170 158 154 160 162 180 232 424 488 496 561 525 515 486 447 470 465 457 422 367 343 318 292 280 252 234 186 170 238 258 282 284 276 260 270 260 250 264 300 329 337 359 365 365 363 357 383 369 392 320 290 266 242 208 178 162 168 156 166 160 158 158 158 134 136 124 160 122 152 158 158 148 
140 168 158 162 158 160 144 150 168 146 160 154 152 170 188 276 402 432 482 490 476 472 443 408 428 445 412 359 335 312 296 284 236 218 148 138 254 264 286 294 278 270 266 258 252 246 262 306 324 357 377 375 379 398 390 367 335 280 248 200 210 178 180 166 180 172 174 184 174 176 150 154 170 136 146 148 156 172 174 162 
136 146 152 150 166 156 152 154 164 148 168 158 164 172 172 190 210 222 240 278 304 280 236 220 258 420 406 388 355 349 316 308 236 188 136 138 216 286 290 298 284 284 254 238 240 244 236 276 304 353 371 379 406 410 373 316 312 244 226 194 196 216 224 214 208 184 194 168 186 176 166 174 170 158 162 164 178 160 188 180 
142 148 150 158 166 156 162 172 162 168 164 174 172 174 168 172 176 156 182 190 184 182 172 184 204 357 422 406 377 363 335 300 252 174 110 106 166 246 284 290 294 282 258 242 240 238 248 284 314 373 383 398 410 390 304 262 276 268 258 220 228 242 244 244 266 258 240 224 206 190 172 180 168 166 168 172 166 180 188 168 
138 150 154 166 162 156 164 162 162 166 168 158 164 164 158 164 160 162 162 164 170 188 170 162 186 274 428 408 375 365 339 316 264 192 126 134 172 228 278 288 284 272 252 232 246 258 268 327 345 363 404 416 412 363 304 292 300 292 254 244 254 266 270 282 284 282 278 280 252 238 204 212 218 206 224 226 196 198 192 204 
146 148 150 154 154 154 154 152 164 168 154 162 170 184 164 150 166 168 162 156 164 170 158 162 162 232 398 404 392 353 324 327 292 234 174 168 208 248 276 300 306 282 270 264 284 294 337 385 373 369 404 410 404 375 353 312 292 264 258 260 266 280 268 270 256 284 296 260 220 230 220 250 284 310 335 353 322 304 264 258 
142 148 166 158 158 150 162 158 164 150 166 176 160 166 162 156 158 160 172 148 164 162 164 150 164 210 410 408 381 333 316 306 304 274 258 204 222 290 322 329 325 333 325 339 373 388 387 396 367 361 359 349 355 343 312 296 268 244 256 270 282 264 228 238 240 262 272 224 186 176 208 248 296 331 371 387 379 361 367 341 
138 160 158 152 156 154 150 150 158 162 154 164 150 162 164 166 156 170 158 152 160 152 154 158 150 194 343 398 367 327 310 310 322 351 373 351 373 394 396 390 381 412 400 420 420 412 375 349 347 347 327 322 308 288 272 282 278 260 242 254 234 244 226 226 220 230 234 200 174 166 218 274 327 367 408 396 398 404 404 375 
146 164 142 146 146 162 156 140 160 160 168 152 160 168 170 146 154 156 170 152 164 160 162 144 144 166 274 371 369 353 355 365 363 367 394 396 435 459 447 428 432 447 443 443 432 414 329 322 314 294 286 298 300 292 292 304 280 250 248 254 240 224 220 216 186 210 206 216 194 190 240 304 367 379 392 396 390 394 398 383 
146 152 140 162 162 150 138 156 152 152 156 150 164 170 152 148 160 144 144 146 160 160 154 146 148 152 180 248 335 375 359 361 375 385 408 449 480 474 457 451 461 470 445 408 377 292 238 238 246 248 272 276 278 284 296 302 308 258 246 242 236 226 226 182 164 188 184 180 172 212 252 312 363 361 375 379 385 357 351 349 
144 168 142 146 142 156 134 152 152 150 156 154 154 166 158 144 154 156 128 140 160 170 140 148 130 146 156 160 178 244 298 339 355 365 396 408 484 472 449 439 445 424 373 276 206 162 148 160 166 190 210 220 216 230 232 246 260 262 242 246 240 242 216 174 162 182 164 158 150 160 164 192 234 268 280 278 270 264 234 258 
148 148 148 140 144 140 142 150 132 144 148 160 138 160 146 154 140 152 140 138 156 138 142 134 140 128 156 142 138 150 172 194 220 254 306 325 371 349 343 347 329 278 172 136 136 138 130 142 142 146 152 152 152 148 150 166 174 178 190 200 212 224 222 210 158 162 154 154 144 140 140 150 156 182 188 182 166 170 184 160 
136 140 140 134 140 130 128 148 134 138 144 152 140 154 144 148 140 138 130 138 136 138 146 134 126 118 126 136 124 132 142 150 150 150 198 202 194 164 168 154 156 148 126 108 108 126 114 120 126 134 142 138 142 144 124 142 138 136 136 130 140 146 164 156 154 128 126 142 130 120 124 126 132 150 164 146 152 156 164 154 
114 122 138 126 130 132 122 120 132 134 132 132 134 140 146 144 134 140 128 134 124 126 130 118 112 116 118 108 124 130 134 132 126 132 160 148 136 142 120 106 110 98 92 102 102 104 102 126 114 120 120 122 122 134 122 126 132 128 108 116 122 118 108 120 122 106 128 124 116 108 98 106 102 136 164 128 144 154 158 168 
128 148 118 120 108 122 136 112 124 124 128 136 130 146 138 114 128 140 120 124 130 142 122 126 120 128 106 126 120 116 122 120 124 120 140 144 142 116 112 106 104 92 86 78 100 92 110 114 104 112 120 132 124 142 122 108 118 106 110 104 114 114 106 104 108 110 122 108 112 110 102 98 96 134 158 138 140 148 150 138 
140 138 128 132 112 134 132 134 134 128 120 114 126 136 124 126 124 116 124 124 112 120 118 122 120 112 112 112 106 110 132 132 128 152 150 152 156 142 120 126 116 110 98 102 118 120 124 144 134 128 130 126 136 142 134 130 120 112 122 110 108 124 110 128 118 96 104 104 100 92 102 94 96 106 120 134 122 134 138 132 


