P2
80 60
853
124 132 142 124 126 132 130 132 136 115 113 124 121 107 101 107 119 113 99 97 99 91 97 101 101 103 83 83 75 89 87 85 91 87 103 115 117 126 152 189 306 414 462 508 549 549 543 545 513 480 394 288 219 207 336 504 580 641 660 645 618 600 594 578 565 547 555 573 600 606 614 596 517 374 334 316 290 278 262 247 
117 132 97 130 115 109 111 130 109 97 115 109 111 113 107 117 113 119 99 99 83 89 89 81 101 93 87 85 75 93 75 93 93 97 99 117 130 195 245 358 438 468 486 506 553 547 551 549 553 565 565 557 498 394 328 376 531 618 621 590 580 586 582 565 551 541 547 551 578 604 610 612 588 418 340 324 298 276 262 247 
105 121 126 124 115 117 117 126 111 115 109 109 99 103 126 107 111 103 97 107 89 95 97 81 89 95 83 81 75 85 75 83 77 103 146 182 264 364 378 376 446 476 498 527 576 537 531 531 547 561 578 582 596 582 582 563 549 584 590 569 567 555 569 549 555 537 539 547 561 596 584 578 578 430 322 292 268 262 239 229 
115 121 128 134 119 121 130 132 119 105 111 107 107 111 113 97 113 117 95 85 97 97 85 85 91 89 85 85 81 87 99 105 117 172 302 392 428 446 414 384 404 472 519 533 511 474 462 474 482 504 533 561 565 569 586 592 594 576 580 559 551 555 557 553 547 539 529 527 537 563 561 574 561 390 264 237 205 174 156 166 
109 130 124 130 128 126 140 148 111 107 111 113 111 109 105 105 101 117 95 87 91 85 91 97 97 93 87 95 91 89 93 121 195 380 456 454 466 458 448 420 390 464 500 376 193 158 172 199 256 292 304 328 370 424 484 513 565 586 576 567 545 555 559 545 549 537 541 537 523 527 521 553 545 344 168 146 144 124 140 158 
111 126 126 128 130 121 130 138 117 97 121 117 101 115 124 101 95 107 85 83 93 93 79 91 99 97 83 85 83 107 130 233 436 519 527 496 462 452 442 440 406 410 312 162 126 111 95 93 103 107 109 107 136 180 225 304 424 563 563 559 543 555 547 543 551 535 543 531 515 519 496 525 519 344 150 150 132 136 162 150 
105 113 119 117 124 128 132 140 132 105 109 115 105 109 111 107 111 109 99 101 95 89 79 77 93 91 85 93 97 134 235 450 498 525 551 515 506 478 452 454 420 328 170 126 132 109 115 105 103 121 132 168 223 231 270 290 326 430 561 519 541 535 551 547 549 547 551 525 517 517 486 490 480 370 205 211 182 160 164 162 
109 105 101 115 121 121 115 134 117 107 111 121 105 109 99 113 101 101 91 87 85 93 95 72 87 97 87 89 111 197 422 484 488 527 557 545 533 476 450 446 416 304 243 247 247 211 170 180 233 304 314 308 316 308 336 328 312 338 432 464 450 521 533 549 553 553 543 529 510 506 464 468 470 380 258 254 237 213 203 227 
117 119 107 117 103 124 113 121 119 103 103 103 115 113 113 103 97 105 83 85 79 95 91 77 91 93 83 105 132 352 531 537 519 502 482 474 502 492 442 452 464 446 446 426 430 396 374 362 376 406 424 382 350 316 326 344 324 306 312 304 308 408 502 531 537 539 539 525 519 523 476 456 440 372 268 260 241 227 233 225 
107 119 117 103 115 111 121 121 113 115 105 105 111 103 97 91 101 95 97 85 87 83 87 89 91 97 87 99 178 462 559 557 553 535 525 484 468 466 474 484 500 488 476 444 436 430 402 412 426 386 400 432 402 358 338 334 346 328 296 266 278 302 392 494 529 543 549 527 525 511 486 460 458 398 274 276 235 241 227 241 
117 128 128 113 115 119 107 121 113 107 107 109 101 103 105 101 105 107 95 107 75 99 89 89 97 93 89 117 215 508 551 586 551 539 531 486 474 460 462 480 480 470 454 460 442 418 400 406 422 416 398 408 418 386 374 350 344 342 314 278 256 280 290 384 480 547 549 527 521 525 500 466 460 402 284 272 239 241 241 233 
111 111 121 113 130 109 117 113 115 103 101 111 103 109 103 103 97 95 97 97 87 93 91 89 97 101 87 113 304 539 557 582 561 547 531 478 464 448 432 438 446 438 442 452 452 430 416 416 434 426 424 432 430 404 418 406 386 364 328 306 256 251 262 298 356 494 551 545 531 517 488 486 452 406 288 268 237 239 245 233 
105 121 111 105 117 119 113 119 130 111 99 109 109 103 105 101 111 107 101 97 99 85 93 91 97 93 107 146 378 539 569 559 521 498 508 482 470 436 430 450 450 458 444 444 446 444 438 442 444 424 424 442 442 408 410 404 408 390 344 304 270 251 254 290 314 370 468 519 519 525 486 496 472 424 288 266 243 254 251 258 
103 115 109 107 109 117 105 124 105 103 111 107 101 105 103 99 107 113 93 101 91 105 95 89 99 95 101 166 430 563 561 541 527 519 490 472 462 452 446 460 468 460 448 432 444 440 450 432 446 426 428 446 454 418 412 396 390 394 370 312 260 260 260 306 350 348 346 424 486 511 488 482 474 422 300 270 260 258 245 237 
111 107 121 111 113 113 124 111 126 101 109 105 93 113 101 103 101 101 101 109 115 117 126 105 107 109 128 209 456 523 450 422 404 416 486 508 480 448 462 468 476 472 426 414 448 444 444 420 440 442 434 458 448 412 430 402 386 378 366 322 270 249 254 318 370 328 310 302 342 432 464 482 480 422 308 272 245 241 237 245 
107 99 107 99 103 111 99 119 109 103 97 101 107 91 107 113 117 121 136 150 178 189 205 215 219 184 168 284 416 374 334 304 270 249 342 468 490 454 454 440 438 446 440 418 440 442 438 422 428 442 450 454 440 412 414 398 382 368 350 316 272 245 219 286 340 308 274 241 180 217 362 438 446 426 304 268 241 251 245 231 
103 103 111 111 111 109 107 130 124 95 97 111 109 105 109 130 168 268 322 396 460 521 508 523 531 492 456 480 547 612 604 573 527 418 376 432 448 444 426 412 396 368 374 412 428 438 432 430 418 436 440 432 408 392 386 370 366 356 336 310 268 233 225 260 296 274 264 264 211 164 191 306 416 420 276 260 256 243 237 225 
103 99 109 101 101 107 97 117 111 107 109 109 103 107 121 144 288 416 567 656 707 676 660 565 590 645 670 682 629 672 711 701 709 674 627 488 384 422 366 298 251 207 249 380 438 444 428 414 442 438 430 404 406 362 382 356 348 356 352 304 274 241 215 249 260 245 264 284 308 308 229 207 258 352 270 258 243 243 235 217 
101 113 111 105 107 107 111 117 115 107 111 111 103 111 130 215 388 482 567 724 678 623 683 666 666 709 699 744 682 616 680 728 711 685 682 643 539 364 256 227 201 203 251 376 444 442 414 424 432 440 418 398 400 382 376 366 356 374 348 310 264 227 227 272 270 262 310 338 366 376 344 322 262 256 254 243 243 237 231 231 
101 111 101 93 111 109 107 115 109 93 105 126 111 99 158 268 378 508 567 687 666 639 718 714 734 713 703 726 711 594 606 726 711 689 678 666 627 406 274 280 322 352 372 430 432 428 418 430 426 440 426 394 388 384 360 360 366 374 372 314 256 229 245 288 276 290 362 376 380 414 406 402 382 344 262 256 254 243 233 225 
87 117 91 101 107 97 101 109 109 97 97 111 121 119 197 264 330 408 541 709 720 716 744 709 695 656 676 685 687 612 580 709 720 697 689 672 521 326 362 372 426 440 448 416 416 430 422 418 418 438 438 408 390 386 362 376 370 394 374 300 247 233 278 272 266 300 342 384 402 426 412 432 424 400 280 270 243 247 221 225 
95 111 107 99 109 105 111 119 107 109 103 113 115 134 203 260 280 306 398 699 747 736 680 625 637 641 678 678 697 594 569 711 714 707 689 584 372 388 428 430 436 438 422 404 398 410 404 400 422 428 430 424 396 352 366 382 394 406 356 294 251 272 268 264 262 298 332 360 384 420 418 420 442 418 290 274 247 239 233 231 
101 115 109 101 109 109 115 105 109 99 109 111 117 124 219 284 318 286 344 596 728 716 720 685 728 718 683 732 689 627 635 730 703 695 612 366 374 436 462 460 438 422 398 406 388 414 412 410 426 434 446 438 368 352 378 386 388 358 318 284 272 276 258 245 254 278 304 314 340 374 392 408 436 414 292 262 243 235 231 233 
101 111 97 101 109 91 109 107 113 111 111 115 111 117 197 290 328 316 308 543 670 643 680 695 693 685 680 693 651 618 670 691 637 472 290 229 380 476 482 458 446 428 418 402 414 436 430 410 406 434 424 408 364 364 366 364 362 324 312 296 274 270 258 260 268 270 290 286 290 310 322 386 426 404 282 258 225 249 231 245 
101 115 111 109 115 105 128 105 121 105 99 115 111 119 146 256 326 314 298 567 649 610 612 643 592 616 612 547 442 456 515 508 350 249 205 237 396 470 464 456 454 444 418 412 432 458 444 414 418 434 416 384 354 344 360 332 318 306 292 292 272 266 264 276 284 290 302 292 272 282 280 346 386 380 258 241 229 237 233 243 
93 103 93 97 111 117 113 101 115 107 115 101 105 105 115 162 286 266 294 496 612 643 629 588 531 519 354 209 152 245 390 380 362 402 458 468 458 468 452 446 452 440 432 422 456 462 438 428 430 430 368 292 274 268 258 237 251 266 258 304 346 326 290 280 272 286 304 286 272 270 258 346 374 368 229 197 193 207 233 227 
93 91 111 95 99 95 111 113 101 105 93 107 117 101 105 132 195 237 237 308 370 434 406 318 282 199 111 79 93 152 374 508 511 545 535 492 484 460 452 440 454 464 450 440 450 436 420 406 390 308 221 152 126 85 105 95 119 152 296 502 545 541 496 268 229 258 286 260 256 256 262 322 374 336 184 142 150 160 184 199 
93 105 95 101 93 95 101 111 101 103 101 95 95 101 97 97 113 140 150 180 146 138 119 93 91 95 85 91 85 111 213 496 561 569 573 537 511 466 458 450 460 444 342 360 366 290 231 166 134 107 93 64 81 66 99 115 160 302 521 592 578 543 521 225 79 85 132 158 176 205 205 272 318 308 180 136 121 117 146 156 
87 105 101 103 105 105 81 105 99 103 107 89 101 95 107 99 93 101 91 91 83 79 77 79 85 75 75 89 79 91 117 330 559 594 618 584 510 470 452 444 374 217 193 251 140 107 89 64 103 128 144 172 219 270 336 406 506 600 635 637 600 571 511 178 42 27 35 29 46 54 68 75 109 111 189 211 184 174 166 160 
93 91 105 89 107 87 97 111 107 107 93 105 91 101 101 97 91 99 85 89 87 81 81 68 89 87 83 87 83 89 95 168 476 598 614 582 515 484 440 382 306 243 284 372 382 221 195 243 384 486 523 549 563 553 567 580 592 596 584 490 420 356 245 93 31 25 29 27 27 35 25 46 60 64 211 288 282 251 245 229 
97 83 103 97 99 95 83 103 105 95 87 87 85 89 89 81 87 83 75 83 85 81 81 72 77 81 58 75 68 81 79 121 268 543 598 569 523 480 460 432 390 384 390 410 549 543 563 559 549 563 574 553 559 555 565 553 492 392 245 117 79 60 52 54 19 29 17 25 25 33 29 29 44 52 229 298 282 284 276 266 
89 91 75 105 101 83 103 121 95 101 93 95 101 89 89 85 83 79 79 81 77 77 85 58 75 75 68 66 66 77 77 91 148 392 502 500 504 504 506 480 488 476 452 456 600 618 641 586 559 586 598 602 588 549 426 247 164 144 105 75 54 48 39 17 8 8 23 29 15 25 21 25 35 37 225 302 292 280 272 249 
85 95 91 101 87 83 97 103 103 93 85 97 109 81 95 87 85 83 75 68 83 75 79 68 81 79 66 79 64 75 56 79 91 164 310 476 480 476 468 484 490 470 458 504 576 604 643 592 586 590 576 535 420 209 121 109 103 109 95 68 39 50 39 23 8 0 17 2 29 23 19 29 42 42 160 249 254 278 272 260 
81 97 87 89 81 89 83 97 103 97 107 93 99 81 85 77 87 83 79 75 72 68 77 56 83 70 64 70 81 72 66 81 91 95 144 237 308 366 398 434 436 402 426 502 517 551 567 527 498 456 370 251 156 111 93 77 101 105 89 64 60 44 39 12 6 2 17 15 17 29 21 29 42 37 111 170 191 205 215 254 
89 93 91 89 79 87 91 101 111 111 105 105 91 89 83 99 81 91 77 81 72 75 70 68 79 81 70 62 66 75 70 83 83 91 146 247 396 462 488 484 488 440 400 414 430 392 348 320 292 264 302 292 294 272 223 144 128 121 95 64 50 58 42 23 8 6 17 21 25 25 31 33 39 37 144 203 184 193 197 201 
85 103 109 97 89 103 109 111 117 115 109 97 105 91 95 87 87 95 79 79 75 70 85 72 75 79 70 81 64 77 66 85 79 119 374 511 567 565 523 513 531 515 498 442 442 418 372 340 312 322 344 348 360 388 356 332 316 262 195 107 85 93 72 64 46 33 37 27 50 50 42 54 58 52 160 207 209 223 211 193 
103 93 95 107 95 91 97 107 115 113 97 101 89 81 93 81 83 81 64 75 75 77 87 72 72 77 68 85 72 72 87 97 101 233 537 594 596 596 553 508 529 549 535 494 492 496 480 448 408 346 374 400 384 408 390 380 376 380 342 274 245 215 152 83 56 85 95 134 99 75 50 42 62 68 191 241 225 225 211 227 
95 101 91 91 103 87 101 103 107 119 105 93 87 93 93 87 85 91 72 87 75 77 81 81 72 79 72 83 68 83 83 105 170 448 588 614 610 606 574 525 460 446 468 450 502 511 513 525 517 442 444 466 458 464 460 456 432 424 398 372 394 394 376 370 370 378 374 338 268 193 93 56 58 87 201 262 247 243 245 260 
89 101 113 101 91 103 101 132 130 103 93 99 97 89 93 95 95 91 77 89 81 85 87 77 75 83 70 75 70 77 91 121 354 555 598 600 608 600 563 549 531 470 424 388 404 468 515 504 510 472 476 482 468 454 474 450 462 452 440 404 418 410 436 494 484 454 444 394 378 318 180 72 87 87 219 254 258 268 264 270 
107 111 99 103 95 99 95 111 126 107 103 97 107 95 95 87 97 93 91 103 77 81 91 81 97 89 91 91 79 95 101 225 517 578 592 592 586 588 567 533 511 504 472 438 442 440 468 484 472 472 444 448 460 458 436 324 350 384 356 310 338 388 412 480 488 482 434 422 408 408 231 115 95 117 225 256 260 256 249 245 
95 124 107 107 103 109 105 105 109 124 113 113 109 107 95 93 101 93 93 103 99 115 162 154 162 176 138 158 136 103 130 368 561 573 580 561 571 565 569 571 559 531 510 486 474 468 460 438 460 466 448 466 468 476 458 464 420 418 432 420 460 466 490 486 502 480 448 418 434 426 364 314 282 272 258 266 256 254 264 239 
89 113 95 85 103 93 101 113 111 121 115 101 97 91 105 93 93 89 83 103 162 300 410 450 456 502 474 486 420 260 186 448 571 600 571 539 537 555 571 582 582 561 543 513 510 498 474 430 414 410 402 416 442 502 500 474 412 392 422 420 472 474 498 496 502 494 494 430 424 426 414 402 400 372 280 272 239 251 237 251 
109 105 97 89 101 89 105 109 107 107 121 103 91 111 109 91 101 99 107 154 304 424 521 625 726 780 753 683 685 616 547 620 742 742 676 563 533 561 567 582 580 571 555 533 519 506 494 448 438 410 410 406 428 466 510 490 392 356 402 424 482 486 510 504 527 531 510 434 410 428 422 422 428 412 286 258 239 247 247 239 
85 105 99 91 101 103 103 105 107 105 126 97 105 89 99 97 97 121 148 310 432 486 527 685 803 828 722 691 718 749 744 759 776 824 845 801 616 537 574 571 555 543 543 523 533 515 504 468 450 430 410 398 416 472 521 476 390 340 374 428 474 490 500 492 480 490 456 406 406 414 430 432 438 422 284 254 229 241 247 258 
101 95 107 113 119 89 105 99 107 109 121 109 99 95 97 91 107 121 280 442 422 410 458 625 832 845 782 736 763 780 801 792 755 747 809 840 807 606 551 553 559 555 539 529 533 525 510 470 466 452 424 416 428 468 515 486 396 354 372 396 430 448 440 404 374 370 380 390 438 438 438 446 460 406 308 264 256 264 264 264 
91 107 95 107 103 113 103 121 117 111 126 103 103 111 105 107 107 158 332 396 366 390 418 543 815 847 830 805 811 803 824 815 718 761 801 784 830 734 557 531 539 576 571 529 529 527 527 480 464 444 444 436 444 466 502 476 398 356 368 376 378 386 392 364 354 362 394 416 450 492 476 484 486 428 300 270 262 264 266 262 
87 101 91 93 107 109 107 117 117 107 121 107 109 105 93 105 119 195 352 372 354 390 408 426 740 824 832 822 757 780 811 761 680 747 755 716 767 767 573 521 535 547 555 545 529 525 502 476 448 436 436 442 454 480 480 468 416 344 344 340 326 328 336 322 340 402 450 446 450 478 504 506 494 450 322 304 256 241 256 264 
83 81 101 97 103 105 109 113 101 117 126 121 126 97 81 95 115 184 348 382 336 404 388 394 687 853 830 830 778 775 800 751 709 730 709 682 736 769 561 519 513 506 510 519 515 517 490 468 446 428 418 424 442 484 482 456 432 348 340 306 316 332 306 312 378 494 498 482 432 424 452 474 474 408 312 290 247 251 256 258 
97 95 105 107 103 105 95 121 111 111 119 117 101 93 93 81 113 168 340 378 342 424 406 370 627 832 807 803 830 821 830 761 685 738 751 699 738 738 559 502 510 488 527 511 496 488 470 464 450 452 430 432 438 484 496 452 420 372 376 360 372 386 330 328 400 464 476 470 464 486 458 468 468 398 294 302 258 270 264 268 
95 105 105 101 99 95 105 119 113 103 121 115 103 119 101 91 111 142 270 376 348 424 416 330 436 627 623 734 796 830 821 776 720 747 740 726 788 652 571 525 551 553 543 537 510 480 450 436 448 464 458 446 440 474 488 438 436 386 386 376 374 370 352 346 400 488 510 480 517 531 498 490 496 446 294 290 260 274 264 272 
115 107 107 111 105 93 111 117 105 111 126 117 107 121 101 99 107 132 170 322 368 400 460 412 426 547 641 757 776 815 786 775 749 763 798 784 689 584 586 569 592 582 573 551 527 515 466 448 462 454 464 452 484 496 500 432 430 352 378 352 356 364 384 444 486 527 539 511 504 510 515 539 541 452 310 310 266 274 251 266 
101 113 113 95 105 113 103 117 119 113 117 134 113 107 111 99 97 109 132 221 336 412 464 504 623 738 747 776 757 757 716 711 728 773 761 697 610 600 602 596 602 592 578 545 541 529 504 468 448 456 446 460 492 500 488 404 390 342 360 338 350 384 448 511 504 490 504 490 490 513 506 533 502 426 324 306 268 243 256 254 
101 117 93 105 111 105 111 119 107 119 134 121 117 105 97 97 105 111 107 152 223 342 410 482 576 592 672 701 651 618 436 510 625 643 596 557 574 590 608 590 600 578 578 545 531 504 486 464 430 430 432 458 490 480 420 372 348 338 346 354 370 400 450 484 472 460 472 498 513 525 515 498 414 312 312 308 276 243 243 262 
97 111 103 109 101 111 93 115 103 124 140 126 124 113 103 91 103 109 105 119 124 189 256 264 310 318 398 430 366 268 193 352 549 567 535 506 557 588 588 578 574 565 561 521 515 494 480 456 432 426 436 458 496 490 378 362 330 336 350 374 378 420 428 442 454 496 533 545 537 545 508 486 372 264 300 304 262 231 229 249 
103 124 103 101 115 111 115 117 117 132 132 134 119 103 109 107 115 99 95 99 99 132 124 148 119 148 150 162 140 126 130 245 494 541 539 517 578 592 596 598 584 563 541 515 525 521 498 456 446 448 452 462 480 456 386 422 362 372 374 390 418 432 436 464 490 519 545 545 551 504 466 414 336 280 300 302 276 249 260 251 
117 128 107 107 103 101 101 124 99 111 126 144 121 109 109 91 101 99 93 99 95 99 103 97 109 91 95 103 97 89 117 172 420 519 535 531 573 584 600 588 588 565 557 531 513 490 482 474 458 454 472 466 484 420 392 434 394 396 402 404 428 420 462 464 470 494 529 531 502 454 408 364 310 286 298 296 266 245 256 270 
95 101 121 101 111 105 107 117 126 117 130 140 121 103 87 97 83 89 85 97 83 87 91 72 97 81 81 97 77 89 87 111 290 488 537 565 582 592 580 553 547 533 508 464 450 476 444 342 245 288 362 434 410 356 308 332 344 350 340 338 350 390 410 416 406 436 510 521 533 527 438 378 296 272 276 288 254 239 249 256 
93 107 101 117 109 111 97 109 109 124 121 142 128 107 103 107 107 101 91 85 81 81 89 83 83 95 81 60 77 81 75 95 162 432 551 586 616 629 618 563 500 480 438 424 456 511 511 446 300 260 278 400 472 464 450 450 462 468 444 414 416 446 472 460 442 488 557 559 573 519 468 416 310 286 276 258 199 191 178 209 
91 103 93 101 121 124 111 111 109 105 138 142 136 115 107 105 101 117 70 91 89 83 79 79 81 81 70 77 70 91 77 83 107 268 513 578 610 598 567 525 490 484 468 496 519 513 490 486 464 440 444 517 543 510 511 517 547 519 510 474 426 438 462 450 432 468 506 484 466 436 410 358 308 306 330 302 241 209 245 266 
89 117 113 107 97 111 89 128 121 115 134 126 134 113 119 124 117 109 91 99 89 97 83 83 85 91 77 83 81 79 107 124 134 170 396 541 586 598 569 573 561 561 535 510 494 517 506 502 519 539 529 551 545 515 527 525 525 547 529 498 472 454 468 442 382 358 292 237 221 239 221 223 282 292 342 324 280 274 282 282 


