P2
80 60
659
79 91 99 89 87 83 81 79 81 93 67 85 81 79 83 75 89 79 87 97 71 91 85 93 77 67 79 73 75 71 83 93 95 89 75 91 81 87 91 95 85 101 75 87 85 85 75 75 79 99 77 105 79 83 89 89 91 83 95 87 109 119 113 125 95 91 95 93 103 95 113 79 83 101 95 91 123 157 239 426 
79 85 97 95 71 75 69 69 79 91 81 81 73 69 77 77 81 89 69 81 69 77 85 75 75 79 67 83 61 73 79 83 93 93 85 105 81 109 101 89 73 85 81 75 85 89 85 75 83 101 91 99 83 87 103 95 81 95 111 93 111 135 123 125 127 107 125 113 117 113 101 93 113 95 113 139 203 265 377 463 
55 87 93 93 107 83 75 77 79 79 65 81 81 75 83 71 81 91 83 89 75 83 81 73 83 83 85 89 89 79 75 81 99 83 87 99 103 83 97 93 87 91 83 97 87 93 91 101 81 103 95 103 97 101 107 107 127 121 107 133 145 135 131 145 159 155 147 159 143 159 161 165 169 189 213 237 285 383 486 480 
85 97 87 99 91 73 91 99 83 85 75 85 77 75 73 83 85 75 85 77 77 71 87 93 93 89 89 105 97 89 101 99 103 95 93 93 97 109 91 105 89 103 101 87 121 93 95 95 89 115 87 117 115 107 127 131 127 125 151 143 167 181 173 187 205 217 249 249 255 275 316 306 316 312 312 291 369 477 504 492 
77 91 81 85 85 73 85 87 89 85 73 85 85 83 81 77 85 89 91 97 79 85 85 85 95 83 79 99 93 101 91 95 87 117 103 107 109 93 105 93 85 95 93 87 93 103 95 95 85 111 99 143 141 155 171 191 201 245 255 233 247 265 303 344 366 430 432 409 385 397 379 375 381 364 332 360 438 517 523 508 
91 91 89 93 85 83 87 75 83 85 81 97 83 77 87 81 83 87 81 91 87 85 89 87 105 109 99 101 107 89 107 81 107 101 117 103 105 107 99 111 99 105 109 89 103 103 103 107 101 129 145 195 247 303 373 420 457 508 521 387 369 420 401 415 418 438 461 444 415 428 428 418 428 434 371 383 463 515 515 517 
61 97 95 87 91 87 95 85 85 87 85 91 83 85 85 85 89 91 83 83 85 93 95 83 91 99 97 101 93 97 85 95 109 95 111 111 105 107 101 103 105 107 97 103 109 109 103 105 101 149 281 391 432 465 490 513 533 579 571 422 391 455 422 426 440 442 436 432 428 415 413 428 416 430 383 389 442 508 513 494 
79 81 79 85 103 97 85 95 83 95 89 79 93 103 81 91 85 83 93 87 97 83 81 89 85 87 91 95 95 101 97 95 109 111 101 91 117 105 113 105 109 115 105 103 109 109 115 119 107 265 451 492 486 508 500 521 552 585 570 480 440 455 420 440 444 436 416 407 420 438 434 432 430 446 387 369 407 461 480 482 
75 71 85 83 97 91 83 79 83 93 85 87 95 75 81 89 85 79 89 89 89 87 91 85 91 95 71 83 99 89 81 109 103 103 113 105 109 113 99 93 107 105 97 103 111 117 107 107 139 377 509 508 496 480 488 502 519 535 564 521 455 455 420 438 438 428 415 391 415 428 453 438 420 409 385 358 366 401 430 473 
65 87 107 87 83 95 95 85 89 95 91 91 97 89 101 87 85 87 97 85 97 93 103 81 91 95 83 91 103 95 87 105 93 115 111 101 101 93 91 101 105 95 107 103 111 109 101 125 199 486 537 513 451 306 308 318 418 449 471 453 430 438 411 434 436 411 418 399 383 395 430 432 393 391 356 322 334 354 387 415 
65 81 95 97 93 83 93 75 95 85 87 97 73 79 93 83 97 79 87 91 85 87 83 101 83 79 89 99 103 93 111 107 101 95 97 105 95 99 99 101 105 105 91 105 105 117 109 127 273 542 540 533 314 165 177 197 303 389 395 364 403 420 409 424 422 397 395 383 393 389 381 391 379 369 330 295 328 344 360 391 
73 85 91 99 97 97 83 91 81 87 91 99 89 83 91 91 87 91 75 85 93 83 95 85 93 103 81 87 103 85 97 101 101 107 107 107 113 109 99 87 105 97 91 109 107 113 111 137 348 579 550 521 245 217 235 277 399 513 509 490 477 449 434 415 389 391 405 415 413 426 411 383 344 369 326 289 328 350 375 381 
63 91 103 87 91 87 83 77 87 81 93 93 77 85 91 75 89 91 79 85 71 77 95 91 91 83 89 81 89 87 89 93 91 91 101 99 101 109 107 95 101 101 105 105 113 109 109 139 401 570 562 455 377 496 506 548 570 600 617 638 636 506 428 391 389 424 418 434 418 426 420 399 358 366 362 334 352 366 395 407 
73 95 99 95 77 85 85 79 81 85 105 83 87 83 79 73 89 95 87 79 79 85 73 85 73 75 75 75 83 89 95 97 95 95 99 89 103 93 99 91 101 109 103 111 107 111 115 161 449 583 537 480 535 606 619 619 617 604 593 616 648 646 500 490 502 471 459 442 413 407 416 407 375 405 385 354 373 379 397 411 
77 81 97 93 101 87 91 73 81 87 95 77 77 71 83 83 77 85 77 71 69 89 87 81 73 85 79 89 85 89 97 95 101 97 103 107 83 103 101 103 119 109 107 89 107 97 107 189 471 575 519 494 602 640 610 621 606 610 566 579 659 633 509 533 490 461 471 453 418 403 415 399 379 405 391 362 399 387 395 426 
87 81 87 89 77 95 83 79 85 77 81 73 85 73 85 87 71 93 79 73 85 67 85 83 65 79 67 77 83 73 85 93 91 95 99 85 79 93 101 101 107 109 93 99 101 103 115 179 465 568 478 589 642 625 648 619 593 571 579 568 623 492 442 509 494 463 449 432 415 401 387 379 375 430 389 358 393 399 420 446 
77 65 105 77 97 77 73 77 83 65 73 87 87 69 77 87 77 77 63 71 79 67 69 83 75 59 67 73 65 69 71 89 103 89 91 97 83 95 101 105 117 101 101 91 89 113 127 215 478 542 403 573 648 629 659 625 625 577 560 515 486 422 436 509 490 453 422 395 397 399 381 369 371 405 389 373 399 415 453 465 
59 75 73 65 63 75 69 73 79 79 73 71 85 75 85 75 69 85 87 83 73 69 65 79 75 71 83 79 77 81 87 85 89 97 101 89 93 93 113 113 105 119 111 97 95 105 119 271 482 521 338 459 646 642 657 644 595 500 326 399 492 523 504 498 469 436 432 432 416 418 381 350 285 320 354 387 444 451 477 477 
63 95 83 89 79 85 77 75 83 73 75 69 75 87 89 73 75 81 81 73 63 65 83 75 77 81 81 79 81 95 85 95 93 103 109 101 99 93 101 105 121 101 109 103 115 107 121 285 465 478 310 342 540 636 606 533 358 227 187 255 451 509 488 494 500 519 552 548 521 430 305 247 181 181 209 306 449 484 486 486 
73 83 83 91 89 75 87 87 83 81 85 87 79 63 81 87 81 89 89 69 89 77 81 85 89 87 83 95 89 105 87 91 97 97 111 109 105 113 107 105 109 111 113 107 127 107 137 241 478 504 322 303 346 509 442 235 167 155 175 187 330 480 513 531 513 550 570 587 573 537 459 334 215 159 155 223 451 492 502 498 
71 101 77 97 95 87 83 83 85 83 95 91 91 95 83 75 89 81 91 91 95 97 103 101 99 91 89 101 99 107 97 107 115 105 117 101 101 119 115 113 107 111 107 113 117 119 125 221 473 535 340 237 227 237 177 153 165 259 358 312 306 395 496 527 537 529 570 585 564 556 540 519 383 167 143 191 424 506 515 500 
65 87 81 91 81 83 83 85 95 91 85 85 87 99 93 93 81 85 87 89 85 87 101 83 83 89 87 97 93 97 111 97 103 85 95 103 105 113 105 107 111 119 115 105 109 109 117 207 473 533 463 211 147 129 161 165 223 424 488 508 508 490 506 552 552 568 577 568 562 556 568 544 407 165 153 165 387 515 506 490 
65 79 85 91 81 73 93 87 83 83 81 83 77 75 81 85 91 89 77 75 73 91 85 93 89 83 85 89 101 93 101 99 101 109 105 107 119 95 105 105 103 113 99 101 111 109 115 149 401 531 513 265 157 187 253 334 438 490 509 490 486 484 484 523 540 558 558 562 550 540 511 418 243 143 119 157 389 504 475 486 
81 87 93 91 95 81 75 83 99 91 97 83 89 97 97 81 89 93 83 85 89 93 101 97 85 85 87 89 103 93 97 99 115 93 97 103 103 101 107 115 105 119 105 109 119 119 117 125 229 480 459 241 177 342 449 416 354 342 377 336 291 267 336 480 529 502 498 488 399 330 257 187 143 121 105 145 326 469 451 471 
71 91 95 99 83 99 89 87 93 87 93 87 79 93 99 87 93 89 83 89 83 95 91 87 87 93 91 87 95 83 93 105 115 107 115 107 111 101 95 99 107 117 111 109 107 117 111 127 133 338 447 344 207 143 183 153 135 167 169 179 205 285 453 509 511 477 461 434 285 183 163 135 125 113 101 125 350 436 428 461 
69 83 83 97 89 101 93 101 97 93 95 89 85 95 91 73 97 91 71 99 91 85 93 95 91 89 87 97 105 107 93 105 99 105 105 97 101 103 115 111 113 109 113 117 107 119 119 113 113 185 350 207 137 143 151 135 149 151 163 179 314 457 484 506 496 451 469 457 332 249 233 225 209 189 201 177 350 393 420 438 
71 91 85 95 81 89 87 87 91 85 97 79 93 89 89 93 87 85 89 77 79 93 85 99 93 91 93 85 93 89 103 91 97 95 107 117 105 107 111 121 107 105 109 111 119 111 115 115 111 151 199 161 143 129 155 155 133 165 225 364 455 475 461 471 484 465 465 447 308 312 320 314 289 293 283 306 387 407 411 403 
71 91 81 93 85 77 77 101 81 81 83 85 85 95 93 77 73 91 87 85 81 83 71 81 75 89 89 103 93 89 87 97 95 91 105 109 95 111 117 113 117 115 113 115 115 111 119 117 107 121 135 133 135 171 261 277 255 285 395 426 467 478 463 471 478 467 459 383 285 320 340 326 312 308 310 310 368 446 415 413 
75 91 89 91 79 81 79 89 91 85 103 95 91 87 93 91 91 81 79 85 83 83 73 83 89 81 75 93 91 73 79 97 95 85 89 107 107 95 99 111 129 113 95 113 115 117 113 115 109 121 123 137 199 287 328 346 366 411 428 453 469 486 447 469 488 446 426 330 279 306 310 312 312 306 316 308 348 451 426 399 
61 61 95 89 95 77 75 81 89 93 83 71 91 71 93 79 83 77 83 79 79 81 77 79 71 87 83 89 75 69 83 95 85 73 99 103 87 107 95 107 127 97 99 105 125 109 115 101 93 119 117 135 151 205 308 354 399 418 399 428 451 424 391 418 459 426 409 403 375 324 314 314 318 308 310 324 336 371 395 389 
75 79 89 91 75 85 69 77 89 83 87 77 67 69 73 75 71 81 79 75 79 77 77 79 73 87 71 79 69 77 73 81 79 87 99 83 85 101 93 97 115 103 115 97 119 103 107 99 113 125 125 107 129 121 189 225 285 271 267 399 418 399 393 366 381 362 397 389 368 334 330 324 344 354 358 366 368 334 316 350 
73 83 79 85 95 87 83 87 85 71 83 77 75 77 83 81 73 87 75 69 85 81 79 71 69 67 69 63 87 75 87 65 89 83 93 91 81 91 101 113 105 117 109 113 117 103 117 103 109 117 109 129 125 119 145 163 169 161 289 416 413 379 334 344 346 326 373 368 360 330 330 334 356 379 379 381 373 334 336 338 
75 85 85 87 89 87 79 87 75 81 83 71 79 83 71 67 81 77 71 83 75 81 83 85 77 91 75 81 83 87 79 93 87 101 117 95 101 99 113 121 115 121 111 119 113 109 115 113 105 125 143 211 253 237 308 387 301 217 326 377 409 369 354 328 324 308 366 369 350 324 336 350 358 383 395 387 358 356 330 338 
65 97 83 93 85 103 93 89 79 95 95 75 85 87 87 85 95 89 91 79 73 85 93 83 93 89 95 83 99 89 89 91 103 93 105 97 95 113 109 115 121 119 115 117 127 121 129 117 111 167 249 350 399 403 498 570 533 509 519 480 434 389 336 330 301 320 342 328 336 330 356 360 344 379 371 366 356 350 326 338 
67 91 79 99 83 87 75 79 101 89 103 99 89 93 87 87 89 95 93 93 85 83 79 85 85 85 97 103 97 89 91 91 109 89 103 99 101 115 113 119 121 129 107 111 125 109 115 119 149 213 273 328 420 490 535 560 556 571 598 589 517 411 368 348 314 305 297 297 324 362 389 375 358 373 356 338 324 346 328 322 
81 79 89 89 85 83 101 89 91 95 93 89 77 87 89 81 97 93 93 89 89 93 81 95 99 87 87 91 95 97 97 103 95 97 115 103 109 113 107 117 115 115 115 119 123 107 125 97 159 253 277 275 403 523 535 529 544 540 558 548 508 411 354 344 306 291 267 279 324 368 397 373 364 368 336 295 310 318 305 306 
75 63 101 95 93 103 89 83 97 87 73 79 81 81 85 95 83 87 79 87 85 99 85 95 93 93 95 91 95 83 97 91 97 95 99 93 97 105 113 115 129 113 121 111 117 113 105 111 185 251 271 293 387 502 509 527 544 523 515 478 444 377 336 324 285 263 267 277 344 377 399 381 354 360 322 293 293 295 291 305 
81 77 83 91 81 95 87 87 89 81 87 93 77 83 97 91 87 97 97 97 79 87 91 87 107 91 85 99 93 95 105 101 101 95 99 105 101 99 103 105 111 111 101 117 113 103 107 115 121 241 285 314 342 420 477 517 519 482 449 440 413 371 316 306 281 255 271 273 352 375 381 368 348 348 310 293 279 281 269 283 
83 75 81 95 87 93 93 95 81 87 83 89 85 95 115 93 95 95 95 89 93 89 95 97 91 107 93 103 99 93 95 97 109 95 105 101 107 111 109 107 103 109 99 105 105 113 103 113 113 199 271 281 308 381 416 475 521 494 434 405 393 356 308 285 265 257 273 253 334 348 344 336 334 330 299 277 289 287 269 267 
89 91 93 101 85 83 85 99 77 97 87 83 79 85 91 99 83 95 95 89 95 79 95 89 91 85 89 93 91 91 91 107 103 95 109 101 111 101 103 109 107 105 103 101 107 97 97 91 99 111 163 217 265 332 352 366 389 368 379 387 358 332 291 279 259 241 245 243 305 330 306 308 322 308 291 287 295 293 273 263 
79 93 93 87 85 97 81 93 87 85 83 91 97 101 89 107 97 85 83 105 97 83 97 93 93 91 87 89 113 91 101 93 91 107 99 105 93 105 103 101 93 99 87 115 99 101 99 87 95 117 107 125 131 137 153 163 163 223 324 346 312 293 265 267 257 243 245 245 297 332 277 291 297 287 281 287 334 283 267 277 
69 81 73 95 91 83 81 107 95 99 93 87 87 79 89 95 81 89 87 89 91 85 81 79 89 77 85 107 87 87 97 93 99 95 91 99 95 103 101 91 101 89 103 95 87 91 85 95 83 97 93 101 91 95 99 107 135 195 305 305 299 269 245 263 251 261 263 239 275 308 255 269 273 277 297 411 395 303 267 271 
73 73 91 81 91 85 83 83 91 87 81 95 79 83 85 91 87 95 95 85 93 77 95 83 93 91 85 73 79 69 85 83 105 101 97 101 103 87 97 91 81 91 77 81 85 79 79 77 73 91 89 95 95 83 97 103 97 255 324 316 318 289 267 263 265 285 277 245 265 293 243 249 265 277 316 508 473 326 285 279 
67 77 79 73 75 87 89 57 77 65 75 77 79 79 77 73 63 71 83 79 69 75 75 75 83 85 83 89 75 75 75 79 79 93 101 97 89 91 83 91 85 101 71 79 85 65 81 91 83 87 83 79 87 81 77 73 105 229 322 297 314 306 312 289 277 269 289 259 225 239 251 247 257 275 316 550 478 344 295 281 
57 61 79 65 73 71 95 71 71 83 79 77 79 81 83 67 93 77 87 81 79 71 87 91 71 91 77 75 91 77 81 75 85 93 91 87 79 83 81 77 83 81 83 79 73 85 83 85 65 85 69 71 69 49 75 69 87 233 326 362 369 342 306 303 279 263 241 215 183 191 237 247 251 271 305 535 475 338 308 275 
46 59 77 61 71 61 67 81 73 69 73 77 73 71 79 67 73 81 71 77 67 61 75 81 79 71 67 71 69 59 81 79 73 77 83 81 87 85 83 77 85 69 73 71 71 63 63 69 69 67 69 73 65 67 59 65 85 231 375 436 440 391 316 269 149 85 135 177 189 187 203 235 251 259 293 463 397 316 295 316 
44 51 65 53 61 57 67 61 59 65 71 55 79 51 75 65 69 67 63 67 67 77 63 61 69 65 65 61 69 75 63 77 65 77 87 79 81 83 87 87 85 85 67 63 69 65 69 75 71 79 75 71 63 53 63 61 97 277 428 434 426 411 332 175 75 55 89 177 195 189 197 225 219 245 283 407 358 322 299 277 
18 53 65 53 63 55 38 53 57 53 59 61 53 65 55 51 46 57 59 59 55 59 63 67 69 63 53 75 57 61 55 73 73 71 67 73 65 69 79 79 79 69 61 67 63 63 67 57 63 55 53 69 63 51 65 69 205 383 446 434 418 360 261 93 59 40 81 155 165 167 169 217 215 215 263 393 316 299 289 273 
36 71 65 71 73 67 59 53 69 61 63 55 55 65 61 44 51 49 51 59 59 63 42 63 61 53 57 53 40 46 63 49 61 44 69 65 61 63 69 61 57 55 53 44 51 44 49 49 38 40 38 53 36 24 40 111 334 422 424 420 389 227 107 36 44 0 61 79 87 113 121 131 143 135 193 354 281 279 273 251 
67 75 69 75 65 81 73 61 63 73 59 77 83 75 71 59 69 67 75 59 71 65 59 75 57 81 71 75 75 69 73 71 65 79 77 79 73 67 63 55 69 53 55 57 67 63 51 49 38 59 36 49 53 32 55 187 389 407 415 415 336 103 53 38 55 26 53 53 44 59 65 65 59 67 69 163 153 241 255 243 
59 83 71 77 81 67 81 75 67 85 75 59 69 69 79 59 69 81 83 83 77 67 69 71 77 73 71 85 75 81 91 71 85 83 77 81 67 77 65 75 65 69 61 65 65 73 57 59 53 59 61 49 79 49 93 269 381 395 418 391 217 87 59 69 63 57 63 61 67 75 67 59 73 69 71 69 85 153 213 195 
59 71 69 71 83 87 73 79 71 91 77 77 63 69 77 77 75 83 79 79 83 77 79 83 71 83 65 89 83 79 69 79 77 87 89 85 81 69 79 63 85 73 61 75 61 69 63 65 67 83 71 61 63 61 141 330 373 385 391 287 121 69 65 77 71 73 75 99 105 103 103 115 113 107 79 89 87 93 119 151 
53 81 89 95 87 91 87 81 69 89 79 79 75 73 85 79 83 89 83 89 85 87 81 89 79 81 89 91 75 79 81 93 87 91 95 91 81 75 77 77 89 81 67 73 81 81 61 69 65 69 67 83 91 77 195 318 356 364 293 157 103 83 85 87 93 69 79 105 97 101 105 111 103 121 85 83 93 81 103 89 
57 75 75 93 75 101 73 79 87 89 77 87 81 97 93 93 93 83 93 83 85 83 93 89 85 87 93 93 79 77 81 97 79 91 99 85 81 89 85 85 89 77 73 75 85 71 61 73 63 77 75 81 75 95 229 324 338 314 167 111 93 93 101 105 107 83 95 99 93 101 101 107 111 89 79 107 91 91 73 89 
65 89 85 89 97 85 73 83 91 89 71 83 93 89 91 87 87 83 85 81 83 91 69 91 83 91 95 83 85 89 75 95 83 93 107 83 85 85 89 79 83 75 77 63 79 61 79 63 67 99 79 87 87 123 269 326 310 207 117 105 131 115 99 117 109 95 97 101 91 91 85 97 97 93 91 87 99 107 85 97 
75 73 83 91 85 81 79 87 99 83 95 95 89 87 93 85 99 91 101 87 103 83 95 93 89 81 89 91 97 85 105 97 99 93 105 105 111 89 95 97 91 83 87 85 83 69 73 83 75 89 87 99 103 197 314 334 314 177 107 113 117 113 93 125 113 91 115 99 113 111 95 97 101 109 101 91 105 119 93 85 
77 91 93 77 83 83 91 77 91 95 71 99 97 87 89 97 99 83 105 95 93 93 89 87 89 95 93 93 101 81 99 91 99 93 95 93 111 93 105 91 87 101 81 85 91 83 75 77 81 79 103 113 199 299 303 338 308 225 135 113 109 119 115 111 135 105 113 111 103 97 103 99 97 87 89 97 113 111 91 83 
67 75 113 91 107 93 95 85 77 105 109 89 89 85 107 101 89 87 93 99 93 93 95 95 91 97 99 91 85 103 91 95 93 97 113 97 87 95 101 81 97 107 75 89 87 87 85 75 77 101 89 137 273 310 251 213 153 153 123 119 115 117 99 121 129 109 117 105 95 101 97 93 93 99 107 109 105 113 87 91 
57 95 99 99 95 93 101 73 81 73 79 85 103 87 99 99 91 99 99 95 97 91 93 93 89 93 79 103 95 83 97 95 99 113 103 111 95 93 95 91 107 91 93 85 87 69 91 87 73 91 85 181 247 310 267 211 131 115 103 89 121 107 111 127 115 107 107 103 99 99 103 103 109 101 119 109 109 117 77 91 
75 95 93 97 81 91 83 93 99 87 87 101 95 95 91 99 93 89 99 107 99 97 93 97 103 91 87 105 95 93 109 103 101 95 125 105 103 107 89 97 95 103 91 97 83 87 89 105 79 109 103 205 203 247 297 279 145 119 117 109 121 109 101 111 125 111 117 119 107 97 115 113 117 101 111 129 115 135 109 109 


