P2
80 60
656
93 97 85 81 91 81 85 79 83 101 85 83 93 93 83 73 97 83 93 79 71 91 79 87 79 83 97 73 83 77 97 95 91 85 85 85 77 83 83 89 79 89 85 85 93 93 83 75 77 83 81 87 89 89 89 79 87 89 91 97 135 147 183 191 181 225 249 251 221 263 291 318 318 305 267 201 163 159 243 451 
91 91 83 93 81 81 81 71 79 97 97 83 93 87 87 85 107 103 63 81 73 81 91 77 81 95 83 95 59 85 89 87 99 93 83 101 85 99 101 89 81 79 87 81 97 95 99 73 87 87 93 85 97 85 109 95 85 95 119 137 215 312 358 397 415 447 469 455 449 478 467 488 519 521 504 455 418 346 395 513 
71 89 87 85 95 89 73 77 87 83 77 91 83 81 83 73 93 89 89 101 85 85 81 81 85 99 101 81 87 83 93 99 93 93 87 99 99 83 91 89 99 85 91 97 97 91 103 97 83 109 97 89 103 103 95 99 113 125 131 283 420 461 447 473 486 529 533 521 519 540 533 515 523 540 542 523 527 515 500 527 
89 101 85 93 81 69 77 93 83 79 85 97 89 83 79 85 89 91 83 83 93 81 83 93 87 101 97 107 105 97 119 109 97 105 101 93 107 105 89 95 97 97 113 93 119 99 105 89 97 113 103 107 113 109 115 113 121 133 225 364 455 467 473 484 492 529 554 562 560 535 533 496 480 511 517 496 521 535 527 539 
81 99 73 77 85 73 79 81 89 75 87 95 91 85 91 87 89 95 95 93 79 91 77 93 97 99 89 95 101 105 105 105 93 127 99 105 109 93 97 95 91 91 107 93 91 99 101 97 83 103 99 115 117 121 111 117 109 141 273 395 463 461 484 477 490 542 550 527 513 496 463 436 438 434 416 403 478 525 548 562 
87 87 81 83 91 81 85 85 81 87 85 105 87 79 99 91 95 101 89 95 99 89 83 83 101 109 107 107 107 105 113 107 113 99 111 97 111 97 95 99 95 91 121 91 107 107 109 107 99 111 109 121 123 117 119 123 135 171 338 436 480 447 453 451 442 465 478 475 455 447 413 418 440 438 420 409 473 523 533 552 
89 99 95 87 81 85 97 89 83 81 91 105 93 97 89 103 83 103 97 97 101 101 89 89 97 101 109 113 99 107 99 115 111 107 111 111 111 105 95 95 105 107 107 103 111 111 109 109 103 115 137 139 131 151 145 141 147 205 413 513 527 482 471 459 461 442 442 438 455 407 403 422 418 430 401 381 451 509 517 531 
89 85 85 81 91 107 75 101 79 91 91 87 99 107 85 101 93 97 91 97 101 97 89 91 87 101 109 107 111 117 117 109 113 117 111 97 123 115 109 111 115 107 119 105 113 115 115 115 109 159 205 201 237 291 249 179 207 301 407 500 517 478 459 451 469 484 467 434 449 403 389 430 432 440 411 379 418 453 482 513 
85 81 71 75 85 89 77 79 89 91 83 95 101 79 85 95 91 83 87 93 85 89 93 89 99 99 99 89 93 103 105 101 109 109 109 103 103 107 91 93 99 111 109 105 113 123 107 115 153 279 358 369 490 544 517 449 420 509 579 511 486 463 480 471 459 511 513 444 434 393 399 428 424 411 397 354 369 391 424 486 
83 93 87 77 81 97 93 91 85 101 91 95 103 105 99 103 93 87 101 95 109 93 109 91 95 103 99 99 107 99 107 111 109 111 111 109 99 95 95 97 95 105 123 109 117 117 109 141 229 371 440 498 600 617 602 585 585 591 619 631 627 463 451 475 475 486 509 463 434 407 422 395 391 397 366 328 356 354 399 446 
77 87 109 101 87 79 93 73 99 81 79 107 85 89 93 95 97 85 93 93 93 87 85 99 93 91 107 97 105 97 115 109 93 101 99 105 99 105 97 101 105 103 97 103 107 121 123 155 277 375 438 606 614 642 612 604 606 593 587 633 640 579 438 434 403 436 453 449 434 415 415 381 383 373 338 305 332 334 364 416 
85 91 107 85 85 97 89 93 75 89 91 89 93 91 105 97 83 93 79 87 99 89 93 87 93 111 99 91 103 91 107 109 113 103 99 107 111 103 103 91 113 97 105 111 111 117 127 159 285 375 415 616 614 636 619 602 591 595 591 595 636 571 447 413 387 413 426 438 451 420 411 381 352 383 348 295 342 354 385 420 
81 89 97 77 87 89 75 81 79 83 95 91 83 91 91 87 91 97 73 79 87 83 93 91 93 95 105 85 97 103 107 103 111 103 105 99 109 103 113 93 103 105 105 103 119 111 119 151 279 334 409 583 646 646 635 617 581 591 546 585 570 517 457 411 373 399 395 422 428 432 413 383 368 391 379 336 358 369 415 424 
91 99 97 91 77 91 85 73 77 89 105 91 101 89 89 79 97 95 89 83 81 87 77 81 79 89 93 91 91 93 113 121 103 93 101 91 107 97 101 95 113 115 115 113 103 109 119 131 255 340 334 502 648 656 642 608 583 566 509 465 409 480 461 446 413 401 405 411 393 409 409 399 387 426 397 356 373 387 415 438 
91 85 89 93 95 77 83 71 85 77 91 85 85 71 77 89 91 89 85 81 91 85 89 75 77 95 85 97 95 103 109 117 93 99 99 101 79 105 99 109 115 109 113 95 111 109 115 113 181 303 316 409 525 459 453 393 360 442 447 411 397 422 420 401 381 413 399 399 387 393 413 405 399 438 405 369 383 385 413 449 
101 89 85 81 79 89 89 75 85 85 83 71 91 87 91 85 79 83 81 73 93 71 85 85 65 85 81 85 85 91 99 103 93 97 91 83 79 95 101 107 117 101 101 105 107 109 123 103 121 171 245 243 225 165 183 165 231 420 461 444 426 397 401 371 385 391 395 395 385 389 409 397 383 444 387 366 393 405 436 467 
79 81 95 67 95 81 77 75 81 71 83 95 95 81 87 87 89 81 67 71 85 73 71 87 91 73 85 85 81 81 83 97 103 95 89 101 87 93 99 111 125 101 105 105 101 113 125 111 123 127 143 135 143 145 151 163 215 428 486 509 535 461 434 415 393 401 397 387 389 389 377 369 371 420 387 371 415 416 459 509 
59 81 71 61 77 81 73 71 73 65 69 79 103 85 89 75 81 93 83 87 79 81 79 89 83 81 91 89 89 91 95 97 99 101 99 89 97 103 101 109 105 111 117 109 97 107 115 151 171 135 125 127 141 139 143 163 293 494 554 558 550 517 449 415 383 358 336 332 310 316 320 320 332 364 366 368 440 440 471 496 
71 95 89 89 71 79 75 81 89 63 83 83 79 93 99 81 89 83 91 73 67 69 79 77 81 97 107 79 89 97 101 109 97 103 101 107 103 93 107 101 111 105 119 113 113 115 139 191 318 155 143 147 139 159 175 253 463 562 552 548 558 515 358 273 219 241 237 221 195 185 183 185 189 231 247 310 457 477 498 508 
83 77 69 73 83 71 79 85 87 85 91 99 83 75 77 103 87 93 99 77 89 81 83 85 87 97 99 99 97 105 93 111 99 105 107 103 105 107 109 105 107 113 115 113 123 133 197 285 459 241 147 167 211 305 373 478 556 546 525 519 455 338 227 185 185 207 199 187 181 161 159 135 129 147 163 217 449 490 511 519 
87 103 75 97 95 87 79 97 87 85 93 99 91 97 89 79 97 91 85 89 95 99 93 101 99 105 101 103 101 117 105 119 115 109 117 99 99 109 115 107 99 111 101 121 139 181 393 511 537 438 283 371 475 542 546 537 544 511 478 389 241 201 177 175 177 195 175 185 181 139 145 131 123 131 143 193 449 525 521 523 
75 89 87 89 85 89 77 83 85 87 83 97 103 99 87 101 89 91 89 97 93 91 87 83 91 103 95 107 103 103 123 115 109 95 99 103 105 115 109 107 111 111 121 117 133 277 517 525 511 529 523 540 577 568 554 521 480 389 239 171 161 143 161 179 165 177 169 147 155 137 143 111 119 113 149 163 407 523 521 506 
81 95 89 85 79 79 93 79 89 89 93 93 89 91 91 91 91 89 87 75 89 91 97 97 89 95 97 87 107 101 107 127 109 107 107 103 123 101 103 101 103 105 115 107 151 401 537 523 508 502 527 537 539 529 504 426 306 165 139 153 159 161 147 143 157 177 161 147 151 135 121 113 113 111 121 135 399 500 484 515 
89 87 87 87 91 89 79 91 93 97 97 91 99 101 99 91 99 95 87 93 91 97 101 91 93 101 105 103 111 103 111 107 123 103 101 109 109 103 111 113 107 121 123 125 179 444 494 453 381 356 344 330 305 277 239 161 149 129 137 151 155 157 155 157 157 175 171 157 163 139 135 113 111 105 113 131 352 457 455 486 
93 101 93 95 79 95 97 91 91 91 97 103 91 93 103 87 97 95 85 87 93 103 99 89 93 111 105 87 95 91 97 107 119 117 117 107 113 95 99 99 113 113 121 123 133 195 207 183 141 153 155 143 147 143 147 133 133 127 131 139 165 169 159 159 153 181 155 153 173 135 123 111 105 113 121 123 360 426 442 477 
91 99 83 81 91 91 97 95 97 105 105 95 107 107 99 75 97 89 79 101 103 93 99 93 89 97 101 103 105 105 105 111 101 111 103 99 101 111 115 117 111 107 121 123 113 121 125 127 129 139 141 133 145 147 147 133 153 143 137 139 161 159 167 161 179 177 175 151 207 211 203 205 199 177 189 171 346 375 416 438 
79 103 87 87 79 81 91 81 85 89 101 83 101 97 91 97 93 89 99 97 91 97 93 91 93 99 115 93 105 97 109 101 97 107 109 117 99 113 113 121 115 113 127 131 139 131 147 147 159 189 197 175 183 165 189 187 191 189 191 191 207 189 183 165 175 177 171 161 227 261 295 277 265 285 285 275 387 395 411 430 
81 97 87 95 81 79 87 103 81 87 91 91 89 99 83 85 81 101 89 93 89 91 85 81 87 99 97 101 101 101 99 117 99 95 103 123 129 207 201 159 151 137 145 169 197 211 273 318 381 409 430 413 420 389 381 375 411 420 411 411 430 340 223 181 179 185 179 181 223 281 305 303 291 295 310 301 389 444 411 436 
81 93 83 77 81 79 87 87 81 85 105 107 97 89 101 87 89 83 83 91 91 97 83 91 97 89 89 99 101 83 97 109 97 93 89 113 135 199 291 271 285 259 285 338 358 399 430 442 451 467 461 477 465 447 436 455 461 467 465 473 478 401 369 328 257 233 201 189 217 271 291 289 291 303 310 299 354 446 430 422 
85 69 87 79 87 79 85 85 87 91 89 85 103 73 85 85 87 79 81 87 89 89 91 85 77 89 85 87 93 79 97 105 93 89 109 107 109 131 175 368 405 369 399 381 389 389 432 436 447 484 461 461 453 451 449 455 447 461 478 490 455 387 420 403 358 344 295 267 281 289 299 308 306 301 312 316 334 371 407 411 
93 73 89 83 77 77 69 79 95 87 87 85 83 79 79 81 75 73 79 81 87 91 79 83 75 93 85 81 73 79 85 99 87 89 95 101 99 121 113 314 432 411 399 369 316 251 318 334 360 395 438 426 409 409 428 428 447 451 442 415 391 395 373 360 362 356 316 301 293 310 334 326 348 352 366 350 362 318 336 375 
85 79 79 77 89 77 75 91 89 75 75 79 85 81 83 77 79 81 79 83 85 77 81 69 69 71 87 73 83 81 99 79 93 91 99 103 101 105 119 306 405 393 358 255 167 129 131 157 147 151 177 191 165 171 227 261 324 403 395 369 379 354 352 369 368 356 322 293 299 318 338 344 362 375 381 379 360 316 334 354 
87 89 89 79 103 77 85 93 79 79 91 77 89 93 85 79 87 77 81 85 87 95 93 79 85 91 91 87 89 87 87 97 93 97 109 111 105 131 125 167 233 301 213 161 129 135 139 133 125 135 151 155 155 159 167 165 209 362 356 336 330 324 336 346 348 342 320 334 320 316 356 362 362 371 391 375 354 330 328 342 
71 97 97 91 85 103 93 85 87 101 99 79 87 103 85 87 89 97 89 85 85 93 91 81 99 95 107 89 107 103 97 105 105 101 107 99 109 121 129 143 147 147 127 127 129 137 133 133 135 215 303 336 320 366 389 271 203 328 373 316 314 297 291 312 328 324 318 348 330 330 368 369 358 379 373 354 350 342 322 358 
83 97 83 97 87 83 71 79 93 87 107 99 89 99 89 87 89 95 101 87 91 81 77 79 89 101 99 103 101 89 103 97 111 93 99 95 105 105 125 129 139 145 119 131 135 121 129 135 201 350 490 509 531 548 548 537 467 475 438 348 324 299 289 312 299 279 322 360 340 368 383 362 354 375 366 342 338 342 318 334 
87 79 87 85 81 85 95 77 89 91 89 85 95 101 91 87 89 93 97 93 95 87 85 83 101 97 103 91 89 107 107 113 107 103 115 111 105 119 107 121 117 115 121 119 123 127 139 141 239 447 539 513 539 573 552 579 581 579 540 428 366 324 279 285 281 277 301 336 358 377 393 375 371 369 346 310 324 324 303 308 
85 81 89 95 79 89 93 87 91 93 81 79 93 83 85 103 89 93 79 89 97 93 85 99 91 103 101 97 113 93 107 97 111 99 97 101 99 107 109 117 125 119 129 123 129 123 123 181 297 467 508 519 566 552 540 500 506 506 540 480 389 342 318 263 249 253 279 310 362 371 385 381 362 371 336 303 305 287 277 289 
85 81 81 83 75 81 89 89 89 91 85 89 87 85 91 95 79 103 87 97 93 83 97 89 105 93 97 97 101 99 107 109 97 103 93 103 109 103 95 111 113 115 115 123 119 119 127 171 271 420 463 523 546 498 500 438 469 428 478 430 360 338 305 257 247 261 273 308 356 371 377 371 350 350 320 306 297 283 269 279 
87 89 107 85 85 83 91 99 85 95 83 99 97 95 107 97 91 99 87 93 95 93 99 97 93 109 99 105 101 93 103 113 115 109 103 101 109 121 109 107 105 113 109 111 105 121 127 133 221 348 401 475 554 558 517 449 455 415 473 391 350 306 269 249 247 261 289 305 334 340 344 332 346 336 322 299 295 279 265 285 
93 107 89 93 79 79 83 87 75 103 95 89 85 89 99 97 91 97 93 99 97 79 93 93 99 93 97 99 101 97 97 115 111 105 109 101 109 109 93 107 107 111 105 99 121 99 115 103 149 233 371 407 482 521 517 502 492 409 434 375 338 308 279 269 235 225 249 281 291 316 308 293 320 305 312 297 297 279 261 285 
81 95 87 81 69 95 77 89 83 87 91 95 103 97 103 101 91 83 87 103 99 85 97 85 89 101 101 103 103 107 101 111 95 105 97 99 93 101 109 95 99 97 93 111 101 111 117 101 109 143 191 221 255 301 324 295 231 219 299 312 293 275 269 247 233 213 217 255 267 301 269 271 283 287 297 299 328 279 257 277 
73 79 77 81 89 75 75 95 91 85 91 89 91 85 101 93 93 87 87 93 91 85 79 77 91 91 97 105 87 101 101 99 97 97 87 95 89 95 99 89 99 91 101 97 89 97 95 101 93 103 105 107 111 123 123 121 129 207 285 265 265 235 227 251 253 231 231 241 245 267 227 245 263 267 303 407 415 295 253 285 
75 81 85 69 81 81 87 69 79 91 87 97 93 81 85 99 93 97 91 89 91 83 95 83 93 105 107 77 79 93 97 89 109 101 89 91 107 89 93 89 91 93 87 85 89 85 93 83 79 91 101 87 107 97 97 115 129 281 303 275 267 239 213 239 257 247 219 207 229 247 223 219 247 269 314 500 478 332 281 279 
79 85 81 71 65 87 89 61 77 69 79 79 81 87 79 83 73 85 87 103 77 83 81 81 91 95 87 93 83 85 95 87 89 95 103 93 95 97 81 85 91 97 87 79 95 87 87 95 87 89 89 79 93 83 83 89 159 306 322 285 279 237 215 235 241 227 211 195 189 209 225 223 245 265 308 537 484 348 291 322 
55 77 71 77 63 75 89 67 77 83 83 87 97 91 87 73 97 81 85 87 81 73 83 91 75 103 87 75 97 85 85 89 93 87 91 89 75 87 81 77 85 87 97 97 81 93 91 89 71 89 81 73 79 81 97 99 235 336 336 301 277 225 163 219 231 231 189 171 147 171 199 203 229 253 305 519 477 342 305 312 
57 63 67 61 59 63 61 73 63 67 83 67 89 77 81 79 79 91 71 77 75 55 79 85 85 83 77 83 77 75 85 93 73 83 81 83 79 77 77 87 91 75 93 83 65 65 83 75 81 81 83 73 69 91 99 221 387 420 407 342 287 227 177 185 151 111 139 139 131 161 171 201 213 233 289 455 395 305 295 312 
57 61 57 53 44 57 67 63 59 65 75 61 85 59 75 65 79 75 63 75 81 75 73 73 73 81 75 63 69 83 79 93 65 83 77 85 89 93 97 87 95 83 95 75 81 83 79 79 83 81 79 81 83 117 285 393 428 424 405 405 360 263 161 81 49 63 83 155 175 155 171 187 179 227 271 397 340 289 289 297 
40 61 57 46 55 51 42 53 51 49 63 69 65 73 57 65 63 61 59 75 57 71 67 65 67 71 65 79 61 73 69 89 69 83 65 81 75 81 93 87 81 79 75 81 65 81 83 61 75 75 113 143 203 306 395 411 436 420 395 391 377 245 85 38 28 38 71 145 157 139 157 191 167 191 257 381 314 257 267 269 
49 65 61 65 67 55 65 63 65 53 61 57 69 63 67 53 57 65 55 57 63 67 44 61 63 61 61 59 49 61 73 61 67 53 73 59 63 65 75 75 75 89 59 65 75 59 81 75 113 223 318 360 395 399 399 418 411 409 358 297 245 145 40 0 4 14 46 85 101 97 107 119 119 131 181 346 275 239 225 249 
67 81 65 67 73 79 73 63 57 63 73 73 85 79 69 71 77 65 79 61 75 69 61 75 67 85 77 75 85 77 69 81 71 81 73 75 73 69 73 149 261 267 155 119 89 85 133 209 308 411 411 413 411 391 393 369 344 251 147 93 93 59 32 28 34 30 32 46 55 65 59 44 36 53 73 159 151 205 209 221 
59 77 67 73 79 61 77 63 75 81 69 69 73 71 75 71 65 83 75 77 85 75 69 79 75 77 85 85 81 91 101 85 89 85 83 89 109 115 131 291 356 342 320 261 215 273 344 371 373 409 401 383 371 344 299 195 135 69 69 55 67 49 40 44 38 53 55 55 77 65 55 44 59 65 69 63 81 127 175 197 
71 71 71 63 77 81 85 77 71 89 87 83 77 79 89 77 69 85 83 81 81 75 87 83 77 89 81 93 87 97 79 93 87 81 79 89 115 159 237 289 358 366 348 332 303 352 362 362 366 379 358 301 223 155 105 95 75 69 63 59 65 61 61 65 63 73 75 89 91 87 95 97 97 97 91 77 75 75 113 161 
87 75 71 83 75 81 93 73 69 83 93 91 87 77 81 97 87 89 83 83 89 87 83 91 79 97 97 91 87 89 87 103 95 89 89 97 89 145 159 171 245 271 281 291 261 267 253 277 237 179 153 115 107 87 89 79 79 73 71 75 77 75 81 75 73 85 87 95 97 85 97 97 95 105 85 73 91 77 91 123 
83 81 75 91 79 91 85 69 91 95 81 89 79 91 95 89 103 85 91 93 95 87 97 95 97 93 95 103 91 97 89 107 89 95 99 93 85 99 83 101 127 117 127 131 133 117 117 111 91 91 93 101 91 101 93 95 103 97 95 103 91 95 97 95 93 123 113 99 87 85 91 89 97 81 93 89 91 87 81 105 
77 83 75 81 87 89 79 75 93 87 77 85 83 85 97 85 91 89 83 85 93 93 73 97 93 95 93 95 99 97 87 99 87 101 105 87 93 87 89 83 103 93 81 79 87 79 99 87 87 99 89 93 91 105 95 95 115 111 105 105 103 105 101 109 93 111 105 97 95 85 71 87 89 83 99 93 101 99 99 119 
83 83 77 77 77 83 81 83 85 83 95 99 97 93 91 95 103 91 99 93 103 95 97 97 93 85 105 103 101 99 99 105 97 99 107 99 113 87 89 97 89 91 95 95 93 85 87 91 95 93 107 107 101 105 115 103 125 111 99 95 109 97 81 99 99 93 97 103 111 95 93 91 85 93 101 89 107 111 85 101 
87 93 83 83 77 73 81 75 77 97 77 101 109 95 89 95 97 89 101 103 97 79 91 91 95 91 105 107 109 97 99 99 101 105 87 85 107 93 107 93 89 111 97 91 95 97 105 99 93 101 133 121 123 113 105 123 121 115 97 99 93 83 103 83 97 107 91 117 97 81 95 87 93 87 93 91 115 85 85 121 
75 89 101 83 79 87 87 85 77 109 107 103 99 85 115 105 95 85 97 89 101 109 105 95 103 107 105 101 99 115 105 107 101 93 109 107 95 97 97 77 99 103 85 101 101 107 109 97 91 135 123 129 115 113 119 127 115 123 95 97 103 91 85 101 105 103 105 95 93 89 89 79 87 89 107 103 123 113 99 109 
73 95 87 89 81 101 97 69 75 81 83 89 107 97 105 101 93 99 95 97 103 91 101 99 97 91 95 113 99 97 109 107 103 107 101 105 99 87 101 85 107 89 109 101 109 99 123 103 119 117 123 107 107 125 113 101 121 103 91 73 115 85 99 107 101 101 99 89 85 85 85 95 97 95 127 109 119 121 89 113 
89 99 91 85 73 97 75 87 93 85 93 97 97 101 95 111 101 97 107 109 105 99 91 103 109 101 99 113 99 99 117 113 109 95 107 99 113 105 95 103 99 105 109 119 111 107 127 127 115 137 113 109 127 133 113 107 109 113 99 95 105 89 89 101 109 107 101 105 91 93 97 107 109 115 115 123 119 125 107 107 


