P2
80 60
665
231 227 245 239 215 227 223 243 243 229 229 229 237 239 227 229 217 223 221 201 203 209 219 223 201 195 201 197 195 185 195 191 199 203 197 219 195 193 181 197 173 183 175 191 183 197 201 221 205 213 215 225 205 205 207 215 225 203 211 209 217 189 203 217 209 193 207 199 201 211 207 185 193 199 191 199 189 203 219 199 
221 219 209 227 223 219 217 217 227 237 237 229 227 215 217 233 229 219 209 215 213 187 203 213 203 185 181 209 191 185 179 203 201 199 187 221 191 191 181 189 179 173 187 181 187 185 199 211 205 213 213 219 203 207 219 231 225 217 215 195 207 217 213 201 193 201 213 201 199 215 211 187 177 203 177 177 185 193 199 183 
227 211 227 219 241 217 205 213 225 225 221 219 225 219 235 225 215 201 199 203 193 193 207 205 203 183 201 205 203 169 185 189 199 203 211 219 201 187 201 205 183 171 183 195 209 203 195 213 199 233 229 227 221 217 215 213 227 241 207 213 209 201 215 191 197 201 199 211 217 215 207 205 187 187 191 187 199 195 211 187 
233 217 221 223 209 219 211 229 219 225 211 231 245 205 221 215 217 187 213 199 207 213 213 215 209 203 209 215 215 189 213 215 215 211 217 225 213 205 195 209 187 185 193 209 199 195 209 213 215 225 223 225 235 225 213 219 235 233 217 203 211 213 211 205 213 223 217 227 219 211 217 195 185 197 199 179 199 203 209 203 
219 215 225 219 225 223 215 219 225 229 219 225 223 233 221 221 219 217 215 207 199 191 213 233 225 207 195 215 225 213 215 231 203 217 231 229 213 213 221 207 199 189 201 219 203 215 211 235 223 233 229 245 237 239 211 231 221 231 225 219 213 211 209 213 211 219 207 219 229 229 231 211 205 213 199 193 197 205 213 203 
217 203 223 225 227 227 215 229 229 225 223 245 219 229 239 235 223 211 219 213 207 207 221 225 217 227 213 231 223 209 215 219 217 231 225 243 215 227 207 213 203 195 215 207 211 215 207 225 227 235 243 245 237 235 225 223 235 229 227 217 221 205 211 219 221 203 221 225 229 221 221 223 217 207 211 207 217 217 219 191 
205 211 237 215 233 239 219 221 233 235 231 235 239 225 237 241 241 233 215 217 209 227 229 223 231 221 215 233 229 207 209 233 249 235 235 233 231 237 219 223 209 195 211 217 213 217 213 237 227 229 255 241 243 249 241 239 241 239 237 221 209 229 235 213 223 223 233 235 223 233 225 223 205 227 219 223 209 215 215 201 
219 207 219 227 231 225 213 251 237 233 223 237 245 249 225 253 217 217 227 215 217 217 233 231 223 231 223 231 233 217 223 223 237 239 241 235 235 227 227 219 205 211 219 223 223 213 229 251 243 253 267 291 303 317 291 267 255 251 247 227 225 227 233 217 221 219 213 225 231 227 229 225 219 215 211 221 213 217 231 209 
213 211 219 223 235 231 239 231 235 237 233 235 249 241 241 239 219 225 219 215 215 215 229 233 227 227 231 237 223 217 231 233 241 255 243 253 243 225 235 219 213 215 229 235 241 257 257 273 293 323 359 416 467 467 420 385 281 253 239 227 229 217 231 223 223 217 217 243 227 239 235 225 217 227 211 219 223 237 223 211 
237 217 231 239 233 231 221 249 221 253 249 253 255 239 243 237 243 229 231 223 237 221 243 233 229 219 227 241 231 225 223 251 243 245 267 273 239 235 235 243 227 239 267 271 313 349 381 426 432 448 495 508 493 463 414 400 345 281 243 229 221 233 227 217 223 231 241 247 247 239 251 249 255 257 213 239 233 229 239 225 
221 215 243 239 237 241 239 237 231 223 223 249 231 227 241 251 235 213 223 233 215 237 237 235 237 219 211 225 231 209 233 233 249 261 265 283 265 255 263 273 273 323 406 497 534 522 507 514 473 458 454 461 481 428 406 359 295 259 237 235 229 211 217 213 233 217 233 245 239 239 259 283 291 279 243 257 245 259 245 245 
239 219 235 221 241 233 235 245 229 229 237 243 245 223 233 237 247 221 217 221 231 231 239 253 217 225 211 227 239 219 247 243 265 291 301 345 321 317 333 387 454 518 557 551 555 532 536 516 460 327 289 315 307 313 299 249 279 263 235 249 239 235 245 239 251 231 241 275 283 319 363 432 414 420 387 363 329 337 337 329 
231 223 243 223 239 223 231 243 247 219 231 241 237 257 233 237 237 219 229 211 233 225 233 235 233 209 213 227 243 245 247 267 331 410 412 412 375 381 450 541 561 567 536 547 551 536 477 383 301 255 269 269 261 267 239 247 249 261 265 279 263 245 299 285 289 271 305 339 363 381 416 454 463 481 448 452 420 461 471 440 
235 213 231 235 221 229 235 219 239 229 235 231 239 247 219 221 221 227 237 229 209 233 231 231 227 211 213 241 247 267 295 408 418 404 339 333 385 408 418 538 557 543 520 522 512 426 325 283 265 247 271 267 249 251 245 261 267 279 289 317 311 309 303 315 337 295 305 337 406 418 408 436 469 507 469 473 450 471 481 491 
241 239 221 231 245 239 237 237 241 231 231 245 241 231 221 233 231 223 239 217 221 223 243 237 221 217 237 253 291 387 481 428 379 317 273 203 263 363 377 475 485 420 400 381 402 357 317 281 281 269 285 289 283 277 277 281 273 285 295 327 321 315 317 331 333 315 315 335 412 438 430 463 461 499 467 463 454 448 424 393 
229 233 233 227 225 241 225 233 245 225 229 227 241 231 233 235 221 243 231 231 231 235 245 231 219 225 235 271 379 526 479 452 436 422 377 337 285 295 287 289 245 239 267 299 365 373 341 317 297 263 283 275 291 283 287 277 275 277 299 329 327 325 309 317 327 317 335 347 383 410 426 448 428 438 397 351 329 315 273 257 
233 203 243 221 231 221 239 225 233 243 235 229 249 241 233 243 239 227 235 211 225 231 229 247 245 233 243 303 485 512 469 475 461 461 467 408 281 245 199 219 255 243 291 297 325 357 359 337 293 283 277 277 293 299 289 289 297 329 331 343 341 345 337 323 343 333 329 355 361 375 353 369 335 303 265 271 255 261 249 223 
233 225 223 219 217 227 221 229 235 239 231 221 245 243 237 231 247 235 245 229 255 229 245 261 261 243 255 315 460 467 479 485 471 495 477 377 257 189 201 307 357 361 357 341 345 349 359 339 317 287 253 239 283 303 315 337 335 355 339 333 341 341 343 349 339 343 343 341 345 309 313 293 259 279 251 265 253 267 235 225 
243 227 235 223 233 235 233 239 243 245 245 235 245 243 243 253 255 243 255 257 265 257 283 283 267 277 269 341 460 454 473 501 475 467 442 335 209 141 229 339 410 412 408 395 357 337 367 363 329 309 261 257 265 301 331 343 349 357 341 363 349 367 351 373 369 357 369 353 361 303 307 277 267 261 257 271 273 295 259 239 
243 237 239 219 231 233 231 233 251 243 241 249 239 245 245 257 251 263 267 269 337 400 458 389 331 299 355 483 463 432 512 487 450 432 365 289 201 157 261 377 438 418 424 402 345 329 367 373 329 287 263 249 267 305 339 355 353 347 353 351 367 363 375 365 373 351 341 353 327 279 285 281 263 257 261 247 271 267 263 263 
235 249 233 237 243 225 221 249 231 231 235 243 245 241 247 239 269 309 331 373 487 588 598 574 551 549 586 580 420 367 491 501 418 393 343 279 169 195 269 393 426 430 432 393 323 345 351 355 317 243 126 249 265 311 331 363 353 361 377 373 377 387 383 377 363 343 343 345 309 287 279 275 255 267 249 253 267 251 281 271 
243 239 251 225 245 239 235 233 245 233 223 243 249 237 251 261 307 373 436 507 598 619 617 634 594 574 594 621 436 473 532 489 428 385 343 277 181 219 239 373 397 422 412 381 315 365 369 347 331 229 69 219 257 297 337 347 367 387 385 369 371 379 381 375 387 347 351 341 325 309 283 261 255 255 259 271 269 277 287 279 
235 229 227 237 229 219 233 227 237 241 245 243 249 241 245 263 361 469 514 582 631 586 477 555 594 578 623 601 505 495 526 497 467 465 400 367 249 229 223 327 355 398 400 363 329 379 381 385 315 263 223 120 213 287 303 345 383 377 369 363 371 375 375 381 383 387 391 395 383 353 335 313 307 317 319 329 369 381 398 369 
219 227 229 217 241 227 229 235 247 231 237 227 239 249 257 275 333 469 549 632 640 603 520 576 596 570 619 592 514 514 538 499 491 475 458 434 329 259 209 277 321 363 379 335 335 397 404 391 317 249 213 67 29 183 295 349 361 355 371 371 351 365 365 365 375 357 398 391 393 416 391 400 379 381 391 432 448 471 499 454 
235 231 249 229 227 227 227 241 239 257 237 247 247 261 233 265 335 452 551 605 654 609 619 603 613 570 623 586 524 512 501 508 508 501 491 491 402 301 195 203 301 333 351 327 359 391 420 397 309 259 243 161 71 159 265 317 341 345 343 327 343 343 335 343 349 351 365 377 379 395 400 385 410 418 436 454 487 495 489 454 
231 235 235 235 243 231 231 233 249 247 245 237 249 263 247 241 307 416 469 497 582 598 658 631 528 412 424 505 512 475 469 497 483 497 487 463 385 349 267 201 249 309 331 297 355 393 412 367 303 265 247 209 187 243 291 297 297 311 309 295 301 283 291 301 321 321 329 321 341 404 410 428 424 458 495 493 497 489 469 420 
227 237 241 235 227 229 233 217 235 231 235 245 239 247 235 243 273 343 389 393 436 465 503 463 345 271 301 436 501 469 456 456 458 452 460 456 410 369 365 283 335 299 323 323 369 395 424 345 323 291 263 241 239 281 305 287 269 227 247 265 263 255 269 297 311 303 295 297 309 381 434 416 430 463 483 473 452 424 363 295 
225 243 237 231 229 235 223 245 237 237 245 237 241 255 231 239 237 263 293 289 291 287 293 281 267 259 271 418 524 510 458 454 402 361 295 373 349 387 363 343 333 315 327 361 385 410 385 329 331 291 309 287 309 351 377 408 383 337 263 237 251 247 273 271 295 295 291 291 289 359 381 375 383 385 381 347 321 285 267 251 
227 237 237 225 243 235 225 231 223 229 243 233 239 243 241 245 229 241 243 227 235 245 239 249 247 243 243 379 524 530 489 379 227 112 122 249 331 406 375 387 341 305 317 367 385 402 347 317 317 303 303 309 361 461 450 410 422 430 387 301 267 255 283 289 281 283 289 295 275 293 299 279 289 271 259 267 247 255 261 231 
241 227 231 223 249 223 221 233 241 251 233 231 227 231 239 237 227 227 229 215 237 241 241 235 243 241 237 321 485 514 477 311 41 0 128 299 303 389 473 473 397 293 309 379 420 424 387 381 353 371 398 410 501 491 481 460 432 450 424 337 297 293 293 285 289 277 283 285 297 275 275 267 251 243 225 243 259 245 239 221 
227 235 239 211 235 227 223 235 221 231 219 233 237 237 249 233 231 243 239 235 237 243 247 251 239 245 241 283 418 514 514 489 391 343 329 293 235 385 541 557 528 477 463 489 495 497 499 501 503 514 518 510 541 528 491 471 450 420 347 297 285 289 293 301 303 295 285 303 289 283 271 247 253 239 221 223 235 235 235 221 
229 241 237 237 241 229 237 243 237 243 221 233 243 237 233 243 249 235 241 239 243 243 257 265 261 239 245 263 315 438 539 530 505 479 428 408 341 426 567 569 561 559 547 545 549 526 538 557 555 514 516 510 503 526 493 465 385 335 277 253 247 253 273 285 309 311 317 313 303 295 289 261 253 255 231 231 259 235 241 225 
227 233 239 229 233 243 207 237 247 241 229 231 247 249 243 243 233 243 237 221 239 251 263 265 259 251 245 273 269 287 381 501 497 481 450 406 367 508 563 565 584 590 588 594 603 580 582 561 526 448 387 365 361 365 333 319 273 281 247 251 249 255 269 287 323 315 317 323 321 305 275 263 253 245 237 231 243 243 239 215 
225 261 233 231 241 247 231 257 255 229 233 227 249 251 243 247 253 245 249 229 235 247 259 259 267 249 265 267 295 321 406 481 499 479 432 397 408 549 567 567 590 586 596 572 549 520 485 397 333 295 305 305 317 309 291 283 283 287 267 241 253 273 277 301 317 321 311 329 303 313 285 261 249 247 237 231 239 239 227 235 
225 231 219 235 237 235 225 239 249 237 241 235 241 247 255 249 231 249 241 225 239 235 255 257 263 267 259 305 397 479 516 526 514 501 487 448 434 528 555 539 572 557 530 477 335 291 293 291 283 285 291 285 301 289 275 277 267 263 251 261 257 263 267 301 315 311 301 313 325 285 285 265 261 255 225 233 233 243 227 233 
217 239 233 237 239 229 233 241 235 239 243 233 237 255 251 249 263 243 247 231 249 245 247 267 263 267 275 375 491 469 497 495 497 505 516 514 477 518 539 549 547 547 559 547 454 319 273 291 295 283 291 293 297 293 291 287 295 271 279 291 267 271 267 275 289 277 275 305 309 297 293 281 269 247 229 243 257 239 247 217 
237 217 215 233 237 243 241 253 251 235 243 239 243 243 249 249 239 251 245 235 249 243 261 273 265 273 287 454 518 487 499 456 481 499 507 526 479 512 536 553 551 545 572 569 543 454 355 345 333 325 315 319 325 321 303 313 287 285 299 305 297 299 289 287 277 275 279 299 303 301 289 285 271 259 237 233 229 241 223 235 
235 235 233 231 229 235 239 253 239 239 239 243 253 253 245 247 247 253 249 243 263 267 267 273 273 269 345 491 508 493 520 463 426 438 465 465 450 467 520 520 499 516 545 569 555 522 460 381 349 339 339 347 343 341 329 327 325 323 329 327 327 323 307 287 295 279 277 303 295 291 267 271 235 205 205 191 213 229 233 227 
239 231 229 225 237 243 235 243 245 223 235 251 261 269 247 269 305 301 327 267 281 281 269 287 281 313 422 516 505 493 501 460 432 440 414 408 369 402 436 430 463 491 512 532 559 539 497 458 424 381 373 369 355 367 359 365 361 363 341 317 297 305 301 285 271 275 277 285 283 291 289 295 227 209 185 141 175 207 243 229 
227 253 243 219 225 233 229 231 257 235 235 245 249 259 281 345 489 555 555 485 467 440 389 327 307 367 491 516 491 485 487 465 438 446 400 335 319 331 349 371 389 412 467 501 528 534 514 491 469 406 385 387 381 395 381 375 367 359 357 261 157 313 299 279 273 253 295 319 319 339 365 381 408 393 349 295 263 225 249 297 
211 251 253 231 223 243 229 243 239 231 231 243 253 261 323 483 632 615 625 634 613 588 559 467 397 518 526 514 501 491 485 461 456 426 345 311 301 307 323 331 339 361 395 428 471 493 522 491 495 436 410 402 397 416 404 404 400 381 353 307 217 335 337 295 291 281 273 327 273 311 365 385 422 454 454 446 410 351 329 335 
227 247 255 207 229 229 217 241 239 235 221 235 243 251 377 545 656 642 656 665 625 530 553 563 570 580 570 503 489 473 471 467 440 375 303 285 283 297 325 337 347 345 371 391 408 460 499 499 481 430 400 381 402 404 410 426 408 406 373 361 339 351 377 347 315 293 285 293 285 293 351 377 414 438 458 454 400 375 363 343 
231 233 231 225 225 225 219 229 243 231 233 241 247 275 402 570 609 625 654 665 636 479 463 530 526 582 567 491 473 436 428 418 398 357 289 265 261 313 347 347 345 349 357 379 400 391 458 495 465 430 416 398 391 400 402 404 408 428 426 416 381 373 375 373 357 353 323 305 299 313 349 377 400 430 416 395 381 359 367 357 
235 233 225 227 217 229 231 237 229 211 229 229 231 247 341 522 576 611 644 656 648 497 483 534 526 551 541 469 446 416 400 379 349 343 289 253 243 311 339 363 367 369 379 385 379 363 395 471 461 463 458 446 412 440 420 416 420 422 418 406 414 391 385 387 389 412 361 355 313 329 359 375 391 397 371 371 377 377 395 351 
233 225 223 227 233 227 229 227 233 223 229 237 243 257 293 465 588 578 615 638 596 574 586 582 559 555 526 467 440 389 369 371 341 335 287 233 261 323 319 373 383 367 393 387 379 377 367 428 467 467 477 499 483 489 463 414 426 385 355 361 367 365 371 381 387 385 373 335 317 303 327 369 391 387 402 371 402 422 397 377 
221 241 237 229 233 241 225 235 235 215 233 231 229 237 261 355 487 536 584 603 582 561 553 510 501 534 516 460 424 377 377 363 339 303 227 201 235 323 357 387 383 383 393 383 373 373 355 402 460 460 495 539 516 512 452 412 363 337 305 287 285 279 289 293 287 277 281 289 283 295 349 397 410 397 408 404 424 428 353 325 
205 223 221 217 237 229 233 223 245 227 237 235 251 251 255 285 299 307 343 379 381 339 327 299 311 481 497 493 461 436 410 397 341 293 209 195 201 295 371 385 395 385 371 375 375 359 347 391 436 465 495 505 530 510 444 373 367 297 285 287 277 253 245 235 245 251 259 259 289 363 400 416 420 436 442 450 456 363 305 291 
225 225 237 235 247 229 241 241 239 251 239 237 237 247 243 257 257 245 255 259 253 251 257 269 287 383 503 499 477 442 456 412 369 315 209 181 187 271 337 375 395 381 379 377 373 353 355 418 448 487 501 510 518 493 393 347 359 331 327 323 339 331 291 251 255 245 261 285 351 400 398 440 448 458 477 469 385 309 291 263 
217 213 239 237 239 239 235 231 237 235 239 227 239 243 245 251 235 239 239 245 233 249 255 259 263 305 485 508 473 438 440 426 393 323 217 197 191 265 331 385 395 381 379 375 381 379 373 428 473 497 508 516 499 479 385 369 353 359 355 343 347 343 349 339 291 255 269 341 395 398 408 432 458 448 460 410 297 281 263 257 
233 227 219 223 235 239 227 233 221 233 247 243 235 253 239 239 239 245 237 229 233 239 241 245 247 287 448 507 487 430 402 408 393 373 287 223 217 271 333 400 412 381 397 397 402 416 454 491 487 497 501 497 479 428 375 347 363 369 355 345 341 349 347 365 329 321 327 371 387 391 400 410 438 446 397 311 267 275 263 243 
221 225 243 235 235 219 231 237 225 223 225 235 231 235 237 239 227 235 239 227 229 239 247 235 245 265 428 507 481 432 398 383 395 400 389 355 303 361 398 436 432 436 461 479 495 493 485 499 479 456 450 463 438 408 377 355 365 347 365 349 355 357 341 345 347 359 365 375 361 361 379 379 410 389 287 257 251 257 243 239 
231 229 235 229 235 243 231 229 233 229 235 229 233 225 239 253 223 235 233 233 233 225 229 241 231 263 369 491 483 432 442 444 454 442 440 440 434 471 485 487 505 530 541 551 530 526 487 463 430 395 406 428 404 397 381 369 377 361 367 367 363 379 357 347 347 359 343 353 341 329 333 351 345 281 255 255 265 245 245 231 
221 225 211 217 213 245 229 219 225 241 233 229 241 239 247 237 235 225 231 211 223 237 239 221 227 233 297 432 485 469 487 481 467 465 487 501 538 551 534 551 551 557 563 547 528 489 418 371 349 339 373 402 389 393 375 365 375 371 373 379 369 361 361 371 369 363 357 345 317 291 305 299 251 227 223 229 241 239 241 233 
221 221 221 229 227 221 217 225 225 221 223 225 231 237 239 233 229 221 223 223 221 229 223 231 235 229 237 285 385 438 448 469 469 463 481 539 557 545 538 559 561 547 547 512 456 361 315 283 285 295 331 347 369 381 373 400 400 375 377 369 369 369 389 385 400 371 365 327 287 265 273 237 221 209 235 247 255 233 251 243 
223 243 223 219 215 221 207 227 223 227 225 233 239 225 237 227 225 225 199 209 219 227 223 229 221 233 219 231 247 273 323 375 406 414 434 497 547 543 534 541 507 463 436 349 293 249 241 235 237 247 267 261 271 313 347 387 379 383 371 389 373 391 397 397 400 375 341 321 265 243 229 211 207 223 223 235 235 253 239 229 
213 217 227 217 219 203 217 225 205 211 217 231 221 221 225 229 221 217 215 207 217 203 223 215 229 197 215 217 219 207 233 251 261 281 321 373 422 412 428 420 375 321 257 237 229 233 231 223 233 223 239 231 231 233 237 283 319 339 357 377 369 389 393 406 393 381 349 303 259 225 225 199 203 225 225 231 227 223 253 221 
211 221 211 205 211 195 201 225 213 215 215 225 213 217 215 229 217 203 197 201 197 207 213 217 215 205 197 201 203 197 215 223 221 219 225 257 223 245 251 245 235 219 211 197 205 215 209 203 213 211 231 233 223 221 207 223 237 253 261 269 295 303 315 317 327 307 281 269 213 203 199 181 185 203 215 215 229 213 247 231 
199 191 209 197 213 199 193 203 205 197 205 203 207 217 223 215 215 201 203 197 195 195 207 193 205 197 177 191 207 197 201 205 205 211 211 223 185 203 193 201 191 179 181 199 201 197 201 213 201 209 207 217 213 211 203 211 219 225 213 211 213 207 205 219 215 209 213 223 205 189 185 171 165 201 221 201 225 219 239 225 
199 205 195 189 193 191 195 185 197 193 211 203 209 213 213 205 205 205 199 185 193 201 195 205 207 193 175 197 199 173 193 195 201 195 195 215 187 177 183 187 177 161 183 181 185 179 203 199 193 195 197 223 203 209 199 201 207 203 199 189 195 187 185 173 191 189 191 191 175 195 195 161 167 215 213 211 219 235 229 229 
217 213 203 201 199 201 203 207 205 205 205 197 207 201 205 217 213 191 189 187 181 199 197 213 201 179 171 177 189 179 199 209 199 221 209 225 205 207 183 201 197 185 189 195 203 213 229 231 225 205 219 217 217 217 205 219 209 209 205 195 195 193 185 193 193 165 189 189 173 181 173 167 179 189 193 211 207 219 229 229 


