P2
80 60
608
203 211 193 197 201 185 197 183 201 195 201 195 193 191 171 187 187 187 183 163 163 171 179 159 157 151 139 143 139 149 129 139 143 137 141 149 143 149 121 143 137 131 117 115 127 127 131 135 161 171 151 161 151 155 161 147 145 139 159 155 163 151 151 159 153 161 159 161 167 157 151 153 161 135 133 139 121 135 161 139 
193 197 185 193 197 197 187 191 195 193 207 191 193 175 181 173 167 175 151 157 165 163 173 161 157 133 137 151 135 145 129 143 143 133 149 165 145 143 137 141 123 141 135 115 129 125 137 137 169 163 161 149 161 149 157 143 147 161 155 157 153 159 155 145 147 151 159 153 161 161 157 149 163 133 141 125 121 117 145 141 
205 189 193 191 193 189 201 203 181 195 193 181 181 179 179 179 173 169 167 165 147 165 165 167 167 139 131 143 145 145 137 139 149 145 161 169 171 155 149 141 127 135 139 131 139 135 145 163 157 173 163 167 173 165 167 161 163 163 153 163 165 171 171 159 155 161 163 155 173 169 165 171 159 133 133 137 123 141 133 147 
211 191 195 179 193 199 205 191 183 191 183 197 179 171 169 163 171 173 173 167 155 171 159 159 173 153 147 157 151 157 141 161 157 145 173 177 173 165 145 147 135 143 153 143 145 153 137 135 165 175 171 173 173 155 175 167 155 159 159 157 161 177 161 173 155 153 167 165 177 157 173 175 167 135 145 131 135 135 167 157 
215 195 183 187 205 181 203 195 191 203 187 185 179 183 181 191 181 191 179 175 163 179 173 175 183 157 159 163 165 169 151 163 163 171 185 181 181 165 161 157 145 143 137 159 143 157 143 157 171 181 165 187 183 179 181 171 151 161 167 171 175 169 167 183 155 163 171 161 187 177 169 181 173 153 141 141 141 141 153 143 
205 187 187 201 179 187 205 187 183 187 193 185 179 177 201 181 189 179 179 171 169 167 179 165 175 161 159 163 157 159 165 159 169 165 185 181 171 175 163 147 137 153 145 141 143 145 157 161 169 175 173 181 171 175 169 177 169 165 159 167 165 167 163 177 169 169 169 183 167 167 175 169 171 161 145 149 153 141 169 163 
207 187 205 181 187 209 195 199 201 193 179 201 185 183 197 193 179 189 173 175 183 181 189 179 177 157 175 171 161 163 157 165 179 167 179 189 187 173 169 155 155 153 151 153 157 149 159 163 169 181 173 187 171 179 179 177 173 155 161 155 177 171 177 153 173 175 161 177 181 181 181 165 165 175 155 147 147 161 169 155 
203 177 185 201 207 201 193 185 193 197 185 187 179 191 175 183 171 179 171 173 167 183 173 181 175 171 169 169 155 173 167 169 189 169 195 179 199 181 167 171 165 159 161 159 157 165 163 167 173 187 195 185 191 183 181 171 173 161 165 175 177 171 159 171 181 177 177 191 177 173 179 185 187 173 173 159 179 157 197 161 
205 189 183 199 197 195 187 183 197 191 179 199 181 185 183 195 175 175 175 167 175 171 177 177 179 165 161 171 163 179 165 179 189 179 191 183 197 183 177 173 167 183 167 181 189 181 167 169 189 185 181 181 175 173 167 171 153 163 165 173 177 161 177 171 173 189 181 199 183 187 203 197 195 179 193 205 215 221 233 239 
191 193 177 195 195 201 197 187 191 201 195 201 181 183 177 185 173 179 189 175 169 177 175 177 171 175 171 165 177 173 167 185 175 179 201 203 203 195 199 219 203 241 300 344 302 221 167 177 195 193 193 169 183 189 163 163 159 159 159 165 167 165 175 181 169 189 193 183 197 189 211 211 265 279 304 326 330 354 361 369 
199 195 205 185 203 201 191 187 193 181 183 181 179 183 189 187 189 181 175 179 169 179 191 179 175 171 163 171 175 183 185 181 185 189 199 213 229 253 243 251 361 447 461 492 469 361 209 185 201 193 185 185 191 179 173 163 157 167 161 187 183 199 179 205 187 193 217 221 237 259 281 304 338 369 391 387 369 387 410 397 
197 197 199 201 193 197 199 181 183 185 181 185 169 181 181 175 169 179 177 175 177 193 181 177 175 167 167 177 173 181 183 175 193 201 253 295 308 300 297 287 322 438 463 482 488 405 255 171 187 195 189 181 181 167 171 169 189 185 195 207 217 211 227 253 259 269 287 297 291 324 344 344 348 373 401 407 385 387 410 367 
191 191 195 187 195 195 195 199 183 189 187 189 167 177 169 175 175 183 175 177 167 171 173 181 171 155 169 175 169 183 173 195 215 275 373 360 304 279 295 295 291 379 408 416 401 420 283 191 185 193 199 189 201 203 215 225 223 219 197 223 233 231 245 267 283 310 320 310 316 356 360 352 358 385 395 393 393 377 381 302 
213 197 187 183 189 197 185 175 181 189 193 183 179 159 167 177 189 183 175 177 163 177 163 177 169 157 153 171 163 179 165 213 318 395 367 271 243 193 181 227 247 273 231 318 385 395 330 219 221 215 209 205 191 223 241 237 229 227 225 227 241 247 275 263 279 298 322 316 318 371 356 358 377 358 358 354 356 291 263 189 
215 181 189 181 191 191 185 177 175 189 179 179 165 173 171 157 183 173 167 175 155 187 187 171 167 165 161 167 179 191 185 267 441 424 414 375 328 308 221 201 179 173 163 265 358 391 375 314 275 251 245 229 213 225 233 227 223 221 235 241 263 265 281 279 285 298 298 295 306 326 346 338 342 336 302 263 231 197 183 173 
193 187 179 181 193 189 195 179 185 193 177 181 157 173 179 167 171 179 165 173 165 185 191 161 173 183 165 183 183 189 199 295 434 407 408 412 428 360 259 197 115 131 183 360 403 379 373 377 334 239 233 239 197 187 251 245 241 245 251 257 265 255 265 298 302 306 300 297 287 275 289 263 241 231 211 183 171 167 179 173 
195 181 199 183 195 169 177 191 185 189 181 187 185 165 189 179 175 175 181 173 179 187 181 207 189 181 177 189 191 193 205 314 428 393 422 432 428 348 237 117 93 141 235 297 385 401 369 371 334 283 249 237 185 175 219 279 281 287 291 283 273 267 279 281 281 275 302 285 261 243 233 213 215 187 171 173 177 159 185 165 
195 195 189 175 197 189 195 189 185 185 177 187 181 183 189 177 187 203 193 191 187 193 189 197 193 201 195 207 203 225 237 314 375 393 432 430 407 322 175 81 59 171 318 350 375 397 371 393 354 295 247 233 191 161 213 263 277 289 300 293 275 277 273 297 283 291 285 241 219 229 223 217 209 189 181 183 161 177 193 185 
195 201 207 207 201 187 191 183 189 173 185 179 179 189 183 169 195 195 189 191 189 187 211 209 237 275 336 326 293 310 336 397 356 399 426 408 330 269 147 69 87 219 277 318 369 383 403 389 350 287 251 215 181 175 219 271 283 302 295 297 281 275 263 277 267 269 233 223 231 229 213 221 199 193 171 165 179 167 185 185 
189 195 177 189 207 189 189 199 193 193 189 195 183 171 179 191 187 193 183 191 187 209 237 247 326 474 513 540 476 488 536 443 304 403 428 352 293 227 131 69 107 241 300 334 381 410 412 403 350 291 233 153 117 171 223 285 308 310 298 298 281 261 249 245 247 247 223 245 237 221 207 213 199 201 181 183 153 171 187 187 
191 207 187 183 201 187 185 207 183 179 187 193 179 185 173 177 203 191 179 189 197 239 310 360 476 562 554 538 532 482 511 474 338 391 461 361 320 243 147 87 105 249 320 328 371 424 434 395 352 293 243 117 34 165 231 293 306 298 297 295 287 265 253 271 253 241 231 225 219 221 211 207 205 185 181 167 179 171 193 183 
183 195 187 177 201 185 201 185 187 185 181 187 181 181 191 187 177 203 187 185 213 267 387 420 527 575 472 407 513 470 519 484 401 465 484 391 346 326 237 177 151 233 289 330 360 410 418 379 326 295 235 163 105 99 187 267 281 300 287 281 277 275 279 291 271 245 235 221 241 233 215 199 195 169 185 173 169 167 181 189 
201 193 177 177 191 195 197 187 187 183 191 191 177 181 171 183 179 185 181 189 209 318 436 488 588 573 498 426 511 496 525 498 434 478 457 407 403 385 346 291 217 223 277 304 346 412 420 371 318 306 271 207 165 77 69 233 261 287 285 283 269 295 306 300 295 293 275 253 251 243 219 215 213 183 179 171 179 175 187 193 
191 197 193 183 195 189 175 189 185 191 191 191 181 181 193 181 183 209 183 189 211 295 430 470 550 569 548 501 540 500 457 459 436 424 443 414 407 393 369 281 217 219 283 293 344 430 428 377 314 306 247 243 201 95 69 203 259 263 267 289 279 316 304 326 297 295 300 297 291 273 255 225 233 199 173 185 187 181 193 187 
191 203 189 197 205 191 193 193 189 197 181 181 179 181 191 175 199 181 181 185 197 285 363 393 403 451 490 501 434 279 263 363 410 389 391 403 403 377 350 291 237 191 253 297 365 436 445 395 318 291 281 265 223 127 165 215 253 237 231 271 265 291 295 298 297 304 320 310 310 306 338 300 267 255 255 229 217 197 199 195 
191 189 189 173 201 193 189 175 177 187 193 189 177 191 173 173 197 185 181 197 191 245 275 267 265 267 257 249 229 239 237 310 414 412 379 322 297 283 287 297 277 253 237 295 410 476 492 420 348 304 306 261 227 173 229 249 245 237 217 223 245 247 249 263 253 287 306 304 304 332 363 371 354 346 346 354 356 328 308 249 
183 187 193 175 171 191 185 177 187 183 181 183 181 171 187 183 201 197 185 189 181 197 211 201 215 199 189 211 195 209 219 261 401 428 373 302 157 73 165 255 304 338 320 336 461 525 511 426 344 295 312 255 243 213 257 261 227 203 165 183 205 219 241 245 259 273 275 279 263 330 363 352 346 354 371 375 397 389 405 363 
197 183 187 175 179 173 175 195 165 187 185 165 179 181 167 163 173 183 173 179 167 173 183 181 177 191 183 195 195 203 199 221 371 434 428 336 81 0 171 275 314 373 393 383 513 544 519 438 322 283 298 255 251 201 229 167 185 201 191 185 211 223 251 245 251 255 265 261 259 320 338 336 344 354 373 385 389 403 407 408 
189 201 187 191 181 183 195 181 177 175 181 179 173 179 167 181 173 171 167 173 171 183 179 179 175 167 163 183 171 185 181 207 263 401 443 430 352 338 334 328 304 408 486 488 531 560 519 354 257 253 267 247 237 221 211 127 179 209 201 185 215 227 251 261 247 241 263 253 235 316 322 322 356 354 369 385 395 412 416 399 
189 191 179 173 185 181 189 173 193 179 185 183 171 167 165 169 173 167 167 173 165 177 183 185 187 185 175 177 175 187 181 199 209 247 405 438 414 389 344 346 332 486 492 511 538 554 503 275 225 237 217 219 223 201 181 189 197 201 199 199 207 217 227 251 249 255 257 237 243 247 265 281 300 320 354 361 383 358 354 334 
195 191 189 185 197 181 193 177 177 197 179 177 181 165 179 179 179 181 177 181 179 181 183 177 187 173 173 175 189 189 185 205 209 215 277 361 403 373 344 334 385 470 496 503 548 536 407 243 233 243 245 237 227 237 233 259 291 293 235 199 189 205 219 221 245 259 247 247 247 225 243 215 221 211 221 221 223 209 211 191 
185 179 173 171 193 183 177 189 177 177 181 169 181 179 181 181 181 187 173 179 177 187 189 183 181 179 179 179 197 205 193 205 219 215 239 265 287 318 312 322 371 422 407 416 422 405 377 281 291 320 318 322 308 291 338 375 371 377 365 261 187 183 205 217 249 253 243 241 241 225 229 221 195 179 169 157 163 169 197 179 
187 201 189 195 199 181 191 179 183 173 183 177 181 189 189 173 179 189 189 183 183 191 193 193 195 185 181 199 189 199 197 209 245 261 304 336 334 340 342 318 336 320 346 369 403 424 361 408 426 426 428 385 367 348 373 381 379 405 408 342 191 181 205 221 241 247 259 241 249 229 219 219 197 189 175 157 161 155 181 163 
173 187 171 187 195 207 199 179 183 181 197 183 181 183 175 187 179 195 191 179 181 191 193 185 199 185 197 195 221 235 275 324 365 363 381 385 371 354 445 441 430 449 453 457 461 418 430 428 430 428 403 383 360 344 373 387 385 401 397 304 209 211 213 217 233 231 247 247 251 231 217 215 201 189 167 155 151 163 165 175 
191 179 193 185 179 187 179 167 185 187 193 191 173 177 185 183 191 183 191 179 177 191 195 195 197 191 191 213 271 346 367 383 373 361 373 367 356 348 451 463 443 467 472 457 432 445 418 422 403 379 324 277 245 245 267 275 308 310 328 314 259 241 225 217 217 209 213 237 239 235 225 231 225 211 197 185 151 167 187 181 
181 185 193 191 179 175 187 181 177 191 193 187 193 171 181 185 179 193 193 181 195 185 199 193 201 187 201 287 385 361 336 348 373 363 389 377 360 375 438 463 455 472 469 445 414 373 354 310 267 253 263 271 275 300 352 360 338 295 295 298 293 263 233 235 227 199 209 233 239 239 249 267 275 289 275 261 249 207 227 195 
177 179 189 189 199 193 187 179 185 179 187 177 185 173 185 189 177 177 183 197 183 185 209 191 189 205 233 377 414 389 352 342 348 360 395 399 387 377 412 453 387 371 342 320 324 293 304 308 293 285 271 300 308 320 352 361 322 300 279 279 283 267 267 237 217 213 223 225 253 261 291 336 381 381 379 373 361 344 352 320 
181 187 175 185 183 183 181 171 177 179 177 187 181 175 191 177 177 189 185 193 187 205 199 201 197 209 277 410 397 395 361 342 308 289 344 365 363 346 361 369 306 285 308 314 328 300 318 324 318 314 310 297 306 293 330 336 312 302 283 269 251 247 251 233 227 219 211 227 223 243 295 332 369 393 408 391 375 377 360 336 
183 189 191 175 203 193 193 189 193 173 171 183 181 189 189 201 205 199 203 203 187 207 209 213 221 239 328 395 373 387 346 326 298 289 283 293 289 293 281 271 239 273 306 277 295 285 302 306 326 334 324 324 336 322 338 330 322 298 269 195 145 199 225 223 219 221 215 211 189 203 293 322 361 381 407 407 371 371 375 354 
201 191 189 183 175 191 191 187 193 191 185 177 167 173 201 227 283 289 293 293 302 255 217 219 225 285 363 379 358 346 332 334 332 330 312 257 235 241 221 233 239 283 295 275 285 261 259 283 302 322 328 340 340 350 340 310 310 285 251 191 85 197 227 229 219 211 205 189 209 221 277 308 332 361 401 397 373 375 377 318 
189 191 189 201 191 197 181 177 187 191 183 193 187 195 231 326 449 465 492 509 521 478 381 259 261 401 395 377 356 346 322 330 356 340 289 221 203 213 223 223 245 269 291 267 259 243 241 251 275 285 328 318 356 348 344 316 295 289 255 259 219 231 231 233 233 229 225 205 205 251 267 295 320 342 346 334 312 293 283 227 
185 197 179 161 195 173 175 187 195 183 177 181 175 197 310 407 511 509 546 575 534 523 523 474 447 470 428 379 360 348 318 324 344 291 243 217 191 223 231 251 257 281 281 253 263 249 247 245 249 259 295 306 320 322 316 297 289 279 269 269 249 237 255 247 229 219 229 235 229 247 227 229 211 203 185 189 187 181 195 205 
193 189 185 179 177 195 187 175 185 185 199 183 179 221 342 461 513 534 588 602 529 490 498 492 480 484 428 377 358 330 320 314 308 259 233 191 203 245 263 289 263 271 277 255 269 251 255 233 227 247 271 285 295 295 304 289 275 269 269 261 247 255 243 241 235 241 209 221 223 211 197 185 165 159 137 155 151 169 185 175 
187 189 179 189 183 193 187 167 171 177 183 179 183 207 334 445 507 560 581 596 503 377 412 432 439 457 424 342 342 322 304 308 279 253 231 185 205 275 285 289 271 263 281 269 275 251 257 257 241 237 265 251 281 273 287 261 259 265 271 269 249 255 245 231 189 197 187 193 203 185 187 175 151 169 161 161 149 153 173 191 
187 187 191 179 183 187 185 195 199 189 177 187 173 197 300 418 476 540 560 608 507 375 407 441 447 463 405 334 324 306 287 285 267 253 213 189 233 281 289 302 285 261 281 265 277 261 253 271 225 233 275 271 273 273 281 255 257 259 265 251 237 223 213 185 173 169 185 177 185 183 185 169 159 161 157 175 183 173 195 169 
197 191 185 191 195 193 173 177 193 189 193 189 175 185 233 375 463 480 523 565 505 470 461 426 445 461 397 344 322 289 281 285 263 243 201 165 233 275 273 297 275 263 275 253 267 251 245 251 227 217 259 283 267 281 279 265 255 239 225 195 191 185 199 179 179 191 185 195 203 181 183 183 171 161 165 161 167 181 183 173 
181 179 185 175 201 189 201 191 207 173 181 173 189 189 203 249 344 367 401 441 430 412 385 287 342 424 395 377 336 295 283 289 269 211 179 159 185 239 287 295 310 293 267 237 249 247 225 253 237 241 269 289 283 263 239 219 237 223 221 199 201 217 221 229 211 213 205 193 197 189 185 197 171 177 173 195 165 167 197 189 
195 179 193 181 201 189 183 183 181 187 185 191 185 189 191 197 197 229 233 237 237 239 229 221 247 346 385 375 334 314 293 291 271 225 155 101 135 227 269 306 310 285 245 245 245 247 229 239 215 211 221 249 227 223 215 197 217 225 233 233 241 239 257 259 271 267 261 249 233 219 195 207 179 181 171 189 173 183 203 205 
197 197 193 169 199 179 179 189 175 195 177 163 169 175 175 187 193 193 175 203 177 205 197 199 221 277 367 358 332 310 291 285 291 229 183 123 139 199 273 297 300 277 259 249 243 235 231 259 235 227 197 225 215 215 211 221 235 237 233 255 255 255 263 271 265 273 291 269 257 227 233 245 239 231 245 237 209 215 191 193 
199 197 189 183 191 189 195 181 193 191 189 189 183 191 187 167 187 185 183 175 181 185 195 187 197 235 369 361 338 320 293 281 297 261 203 149 141 187 259 285 277 267 267 249 253 247 247 285 243 219 205 223 233 227 235 231 251 243 257 245 255 269 259 251 241 239 273 247 213 205 233 263 306 326 334 348 330 316 304 225 
201 203 189 199 203 187 199 185 193 189 191 179 181 185 189 173 173 187 193 177 181 193 175 181 193 209 397 387 342 324 297 271 291 277 235 189 183 231 279 295 279 279 263 269 253 257 265 285 263 241 233 231 239 251 265 251 253 245 275 265 271 257 237 243 241 251 261 213 179 185 227 261 318 340 371 375 403 395 403 350 
201 189 199 187 199 185 195 177 183 183 185 179 171 177 193 171 183 187 187 171 175 175 173 183 175 201 330 430 373 320 293 267 261 257 259 253 247 257 263 267 277 273 273 251 261 255 285 267 269 271 243 249 249 249 259 271 247 245 281 253 247 259 237 225 201 219 227 205 189 197 243 297 332 371 391 397 418 414 428 387 
179 189 187 189 193 197 193 177 183 189 181 189 169 185 191 173 173 175 177 165 173 171 179 175 169 185 257 387 352 324 297 287 239 213 267 277 257 239 201 197 203 225 243 221 259 263 265 263 265 281 271 281 277 265 273 257 241 231 241 251 243 217 205 211 201 197 215 221 201 223 277 316 387 410 408 393 416 418 422 371 
183 201 187 179 191 211 183 187 185 203 183 179 171 181 183 177 183 181 165 175 165 175 185 171 179 177 179 245 300 334 326 318 310 285 310 306 320 328 295 223 203 193 177 193 197 187 227 265 302 291 332 334 314 291 281 259 237 241 229 227 221 203 215 195 183 187 177 197 187 207 249 302 373 379 389 393 385 389 385 320 
199 187 185 197 187 179 169 183 201 189 169 183 175 167 179 177 185 167 177 169 165 179 167 179 165 157 163 175 207 261 300 312 302 295 318 304 314 381 424 393 302 281 285 287 285 289 295 308 350 330 348 350 328 308 275 251 247 231 193 223 213 209 225 221 185 173 159 183 177 161 177 209 243 289 291 289 267 263 277 233 
191 183 161 179 175 179 179 171 183 179 171 193 161 167 165 163 177 165 169 151 155 159 175 167 165 143 149 147 155 177 207 235 261 267 297 293 342 441 432 441 426 407 410 412 397 377 371 358 348 320 279 257 249 223 197 197 205 199 197 203 197 197 189 203 193 161 161 169 163 169 171 157 177 175 195 185 177 189 195 193 
171 175 173 167 175 163 165 163 171 171 163 167 157 149 165 167 153 149 175 155 157 161 175 155 165 143 141 153 137 151 159 143 173 185 233 263 342 441 436 441 436 430 416 416 414 397 387 318 265 221 179 179 165 167 159 159 149 155 145 149 155 159 157 147 161 139 145 151 129 141 157 153 157 161 163 169 165 173 177 171 
171 173 163 175 171 171 165 159 169 175 167 179 151 161 163 163 161 145 157 153 153 145 159 157 159 145 129 141 127 141 127 135 151 127 171 201 205 257 293 377 403 408 387 379 322 281 233 183 171 181 147 159 155 161 151 149 137 139 117 141 137 133 153 143 131 133 143 137 145 135 145 131 131 157 153 167 161 159 187 179 
179 171 155 163 163 177 165 159 165 161 149 169 153 169 159 161 149 161 153 137 149 139 163 153 157 133 109 145 127 135 145 135 143 133 159 165 163 167 139 183 185 189 171 183 163 147 155 145 149 143 143 157 139 143 151 139 139 135 135 117 133 133 129 127 121 141 135 129 141 143 141 127 115 133 149 145 163 155 181 155 
193 173 161 157 171 163 143 155 167 153 157 153 157 143 153 147 147 153 153 153 141 143 149 141 145 127 115 143 125 123 141 131 131 131 147 151 143 129 125 151 151 153 133 149 121 131 141 135 139 161 149 143 131 145 131 137 127 131 143 125 121 117 133 119 127 117 131 133 125 115 135 113 119 141 143 153 141 149 169 165 


