P2
80 60
788
257 275 257 271 267 271 245 245 251 243 255 249 257 255 239 249 247 217 233 223 215 229 215 235 217 225 213 219 211 221 211 207 197 199 197 215 215 201 223 221 207 223 221 213 231 219 217 227 221 225 223 213 239 253 273 265 267 255 255 255 263 259 255 251 245 241 231 241 245 247 233 205 225 215 233 251 219 281 406 543 
259 265 263 251 251 257 247 241 237 233 265 255 241 251 253 243 233 229 207 211 225 223 231 223 221 215 217 219 199 211 199 203 211 185 199 215 205 223 221 217 209 213 217 209 221 209 221 221 235 223 229 257 281 369 387 359 349 311 297 289 281 285 283 255 263 263 251 247 257 269 253 225 245 223 251 279 279 367 538 576 
255 261 253 263 243 253 237 245 245 249 251 225 237 229 241 239 231 231 229 223 215 215 217 229 223 221 237 219 211 221 217 207 215 207 207 225 217 223 229 231 213 221 209 209 223 221 233 239 221 233 259 323 471 574 574 578 557 543 469 420 365 307 297 285 287 285 271 293 275 285 279 267 285 319 361 377 385 491 621 605 
263 263 243 257 261 245 245 237 245 249 247 243 237 249 243 225 245 241 225 223 219 229 221 233 237 243 239 221 223 217 225 223 217 207 219 221 235 235 227 233 217 213 227 221 231 229 235 241 229 257 305 534 609 640 605 627 617 631 636 666 613 473 420 399 387 422 416 414 422 432 428 436 458 473 481 479 511 594 642 605 
253 251 253 257 255 253 237 251 249 231 245 245 265 241 245 233 237 237 223 227 223 221 235 221 231 241 229 227 237 239 223 213 223 213 215 235 229 225 229 225 221 229 233 229 235 239 237 245 249 293 460 611 633 633 629 638 644 664 666 673 633 574 588 596 563 578 551 571 563 563 555 551 538 561 542 542 557 619 656 617 
255 259 261 249 257 261 259 243 261 247 253 249 261 247 259 237 253 235 233 221 229 225 227 229 241 245 251 241 241 243 245 249 231 221 227 237 233 231 227 247 233 247 259 263 257 249 251 253 257 385 578 638 648 590 464 532 631 652 638 627 609 588 596 605 607 611 588 586 573 586 573 590 576 590 553 559 590 642 666 638 
255 269 265 251 255 257 247 241 263 247 245 255 247 251 263 251 225 243 239 233 239 241 235 247 235 241 245 251 251 253 251 253 249 249 243 257 247 255 233 255 259 281 317 305 293 277 269 287 319 538 642 642 600 412 313 371 565 602 617 594 598 596 605 609 621 605 580 576 576 596 586 592 604 602 543 549 582 658 650 640 
241 249 257 253 255 253 247 249 255 249 247 233 253 241 251 241 237 233 225 247 227 229 239 229 231 241 251 239 249 249 253 259 259 251 247 251 251 243 249 267 297 305 317 315 315 295 293 319 448 617 638 580 371 285 285 319 422 559 573 573 578 586 605 611 602 592 565 578 582 596 588 596 617 594 534 547 580 623 642 633 
269 255 255 253 255 239 237 247 257 249 249 243 249 227 229 237 235 229 229 225 233 225 235 231 231 239 239 251 255 247 247 249 249 241 259 253 249 249 245 261 283 301 317 327 323 309 331 440 600 640 592 359 283 287 295 329 430 538 509 487 569 621 623 638 625 596 565 574 586 586 602 598 621 598 545 534 532 598 621 617 
255 253 253 239 257 259 259 247 251 251 247 241 241 249 243 239 231 227 231 237 225 227 225 227 239 227 229 237 249 253 223 237 221 235 245 255 243 241 241 259 255 269 309 349 359 420 469 578 633 629 420 343 365 438 389 412 547 685 638 555 582 605 592 617 586 576 559 586 584 607 607 602 607 588 522 503 516 569 600 623 
271 245 255 259 271 239 247 245 259 247 249 251 249 231 247 231 241 223 239 229 229 227 229 239 229 245 247 247 251 257 241 231 241 229 237 255 243 239 241 263 265 265 289 387 511 573 578 611 602 536 462 555 638 687 679 691 698 765 763 752 627 574 567 538 530 557 555 569 576 590 600 590 594 580 524 495 509 543 594 598 
253 261 261 253 263 245 249 253 253 251 237 261 241 243 245 233 237 233 221 217 243 237 217 213 237 239 251 241 247 255 243 239 231 235 251 259 247 251 243 253 263 261 283 406 573 578 594 598 543 522 640 708 723 723 687 727 700 744 776 784 719 588 534 526 542 596 588 567 557 586 582 598 588 574 505 481 485 545 578 590 
253 247 263 257 257 261 249 247 257 237 261 251 241 239 227 237 233 235 229 225 245 225 211 221 223 229 243 237 257 261 255 261 259 239 255 255 245 253 251 251 283 289 311 375 563 547 573 580 469 590 748 729 736 696 673 717 704 717 788 780 742 605 582 600 636 640 580 565 557 576 580 592 596 592 540 526 520 543 617 600 
247 249 251 255 245 251 243 221 243 247 249 247 251 231 237 233 229 233 217 217 219 219 211 217 233 221 235 239 249 263 265 275 275 259 243 255 235 241 255 259 285 287 299 323 442 501 538 512 410 607 755 753 727 698 700 721 736 694 757 742 648 633 646 666 662 652 605 578 565 571 567 578 592 596 542 534 526 565 602 611 
245 247 243 233 245 249 237 221 241 233 235 233 243 237 235 225 227 225 215 223 229 215 217 221 215 231 225 235 237 253 273 267 255 243 245 243 233 241 243 273 307 295 301 283 297 315 402 397 369 545 746 755 750 746 736 744 685 625 576 522 520 631 652 642 623 625 613 590 580 584 582 571 594 604 557 557 543 559 615 619 
247 251 249 245 245 249 249 225 233 239 235 241 237 239 227 229 215 221 219 209 213 213 215 207 217 207 215 205 221 215 231 233 233 235 233 229 229 227 263 293 291 309 295 273 255 263 353 369 333 430 640 734 712 738 704 636 450 383 487 600 588 619 625 604 594 615 613 594 582 578 573 569 578 586 559 574 553 573 580 609 
229 243 253 245 231 239 243 241 235 225 245 233 239 243 211 219 221 219 209 215 217 211 201 219 233 215 219 221 223 213 209 213 223 211 229 233 225 235 255 279 291 303 277 261 249 257 275 287 275 353 456 650 635 590 450 345 279 289 458 633 633 621 611 578 576 600 592 600 586 580 582 574 573 576 553 584 596 596 576 600 
239 239 245 237 237 231 245 229 231 225 235 233 243 227 217 221 225 229 225 219 219 215 215 219 237 229 221 221 219 213 217 219 213 205 219 223 237 243 253 263 279 301 287 251 251 259 261 275 269 257 317 349 357 295 251 251 255 265 381 621 656 607 596 619 617 636 605 613 611 592 565 540 540 538 549 594 621 617 615 596 
235 255 251 261 251 233 237 225 243 235 235 239 239 227 235 231 233 221 233 217 213 217 221 221 233 241 231 221 225 221 215 235 229 213 227 229 225 237 239 253 255 293 277 267 263 261 257 257 239 241 237 241 237 249 251 253 251 263 289 497 602 629 631 629 631 636 596 631 683 611 518 438 434 465 578 629 646 633 613 600 
241 245 247 237 259 231 239 237 237 245 237 237 253 225 239 227 237 231 217 225 229 227 219 215 229 235 241 239 237 237 235 229 237 225 235 229 227 241 249 259 261 275 273 259 275 269 269 273 247 241 231 239 233 231 239 249 261 259 275 323 471 580 619 623 605 607 559 621 664 698 683 619 540 571 607 631 631 633 648 619 
245 253 259 251 271 253 233 247 235 237 237 247 231 247 229 227 245 229 219 233 229 231 227 239 231 237 247 243 241 245 241 253 243 215 233 231 235 251 251 255 251 283 277 261 263 267 273 265 245 245 229 229 229 241 245 257 255 251 265 263 291 357 438 514 549 547 528 607 654 679 694 669 623 619 625 592 613 627 629 604 
239 259 255 243 249 239 235 229 237 231 249 237 241 245 241 231 229 221 237 225 215 227 217 235 239 235 235 231 237 237 257 249 247 217 233 231 243 243 263 259 249 275 273 259 249 243 245 259 239 231 225 223 225 237 249 245 241 239 247 267 257 267 277 317 369 412 414 448 485 543 600 613 623 594 557 487 586 625 611 609 
249 261 263 243 257 245 247 239 241 247 239 253 239 243 231 229 237 231 235 221 219 229 213 235 239 237 239 225 241 245 251 241 241 221 217 227 237 237 243 243 237 251 253 239 233 237 237 247 221 227 227 217 241 231 237 245 245 245 253 269 255 265 273 269 275 277 285 285 287 323 335 367 436 401 339 347 557 611 613 609 
247 253 259 255 255 235 231 235 233 239 243 243 253 237 241 231 241 229 225 223 223 223 225 233 233 237 243 223 243 229 225 229 227 217 223 223 225 237 231 235 223 229 239 225 243 235 233 233 225 229 219 229 219 225 243 239 247 253 255 261 259 267 249 269 259 257 255 267 265 275 259 241 241 243 249 297 524 574 590 574 
243 253 247 241 255 253 239 235 251 249 251 251 249 243 255 231 257 233 227 221 217 233 213 221 229 233 237 231 223 223 209 223 223 205 215 215 219 229 225 219 219 219 235 213 231 223 227 229 239 237 229 233 229 235 235 241 251 251 249 259 263 245 247 265 251 269 259 257 273 321 317 287 269 275 259 325 487 542 569 569 
233 257 251 235 255 235 241 229 233 249 243 241 249 247 235 233 241 227 227 219 229 229 225 237 223 227 225 235 229 221 215 225 207 203 215 217 223 217 225 231 233 221 217 223 219 233 231 227 229 225 227 227 221 225 229 255 243 243 249 265 261 261 265 259 259 269 253 255 251 355 383 371 381 375 375 399 497 526 547 551 
241 247 255 249 243 241 239 229 243 241 243 247 255 247 243 249 231 243 241 221 227 217 219 231 233 237 235 221 217 233 223 209 209 209 227 225 219 233 243 231 241 237 245 233 227 243 231 217 217 227 219 229 215 229 239 237 251 253 243 257 257 255 265 257 265 269 261 263 249 349 381 399 395 408 404 440 516 538 543 542 
253 239 241 249 249 241 241 237 231 239 237 245 249 249 243 235 233 237 217 213 223 223 219 231 231 245 229 237 213 221 225 243 217 241 267 275 297 295 311 311 339 333 351 343 339 309 247 245 223 215 211 223 215 229 225 241 259 249 257 255 271 255 271 261 267 259 261 277 265 349 389 412 410 414 422 432 518 573 549 520 
237 251 237 249 251 237 241 239 249 255 245 239 225 253 251 259 247 247 233 233 251 245 255 261 297 309 291 279 271 271 313 335 333 355 387 363 353 383 385 375 363 337 383 402 416 373 311 265 229 235 225 215 215 225 225 241 243 237 263 265 265 269 273 265 283 277 265 281 265 359 408 404 410 412 416 414 465 551 549 497 
245 253 253 251 243 227 233 237 243 253 261 257 249 237 265 253 261 289 283 285 279 301 309 337 367 369 355 369 353 359 391 393 391 402 395 383 393 395 406 438 414 387 426 424 442 442 406 377 321 295 247 223 223 227 225 241 245 249 245 253 265 273 263 279 285 279 273 277 281 355 385 389 391 393 391 404 410 456 505 458 
239 255 251 247 251 233 237 229 241 253 249 247 255 259 283 353 377 367 347 359 345 351 363 385 373 377 385 389 381 379 408 397 404 416 402 391 408 408 410 477 475 393 426 442 456 434 416 401 395 379 321 295 293 279 253 243 255 259 237 253 251 265 273 303 299 299 285 291 289 343 371 371 389 389 402 393 365 391 389 391 
235 241 249 231 251 229 233 229 235 235 239 241 261 345 450 446 422 442 402 438 410 438 406 391 383 391 383 402 391 389 399 383 418 402 397 383 430 408 424 444 452 393 430 452 448 418 402 404 391 393 347 361 373 365 345 331 323 301 273 269 283 295 305 321 333 343 359 383 410 434 469 464 456 446 454 444 414 404 391 371 
261 245 241 253 265 235 235 233 229 243 247 263 349 518 507 507 545 582 559 588 573 534 454 408 389 393 371 410 404 410 399 381 397 397 387 389 448 434 424 422 412 383 383 402 412 404 414 404 406 383 349 377 363 365 353 345 363 373 359 335 319 337 375 393 414 458 483 505 526 538 551 545 528 520 509 501 473 465 452 438 
261 249 249 253 255 251 251 233 243 255 253 279 432 528 543 580 582 602 580 611 565 509 481 426 393 391 385 401 412 418 387 391 406 399 387 389 448 460 422 363 373 373 381 393 410 406 414 418 408 387 381 379 355 347 345 347 355 383 379 371 373 412 410 414 446 465 487 509 532 532 542 532 526 512 497 503 483 460 454 430 
241 251 243 245 247 253 251 221 269 261 265 325 499 532 555 567 576 613 605 607 592 547 469 438 399 399 383 402 401 420 402 414 426 406 397 420 464 481 452 397 379 371 381 395 430 420 412 428 418 412 393 391 357 339 339 323 339 339 375 359 393 438 404 412 426 469 469 501 507 530 518 495 495 487 475 465 454 438 446 402 
247 247 239 245 245 247 261 239 263 265 273 339 507 540 567 555 586 609 613 619 563 540 514 454 399 395 399 402 414 436 424 428 452 432 412 412 473 475 483 416 395 371 404 414 434 422 436 436 412 404 410 385 353 341 339 333 357 351 357 361 387 432 391 387 410 442 452 465 479 495 503 479 467 460 444 428 402 385 402 381 
263 245 257 265 249 267 269 251 279 315 414 569 586 571 567 551 569 586 598 592 528 460 446 428 399 426 404 412 428 428 467 452 446 456 420 424 465 467 481 379 391 377 414 424 446 464 460 442 408 408 416 401 361 343 343 329 341 343 371 335 367 408 401 369 339 381 426 458 460 493 491 471 446 399 359 307 295 319 343 365 
241 255 253 265 263 263 267 289 397 542 700 732 727 673 596 569 578 571 605 609 574 512 464 446 401 428 412 444 410 450 475 458 456 469 438 422 465 464 458 406 375 375 393 414 446 462 475 465 416 399 410 393 339 337 337 333 347 341 333 317 329 373 365 365 335 377 402 454 452 460 458 414 331 241 205 211 239 277 315 311 
235 255 253 259 255 263 307 412 592 708 740 761 757 748 698 592 588 563 545 536 514 499 487 456 402 397 401 454 444 467 483 471 469 465 456 440 452 477 434 420 389 369 367 387 397 412 422 418 428 401 428 393 371 355 337 329 335 335 309 301 335 367 349 351 371 401 420 440 426 369 283 207 173 138 122 163 239 269 289 273 
245 257 247 263 265 277 377 551 702 723 748 732 731 704 656 604 596 469 452 489 495 491 483 464 395 381 393 446 465 485 495 481 454 456 467 450 464 481 438 399 401 367 341 385 408 381 373 375 379 397 412 424 401 381 381 347 357 339 317 295 331 345 325 343 361 377 355 289 191 120 98 75 82 71 88 142 215 263 279 261 
243 245 251 247 275 275 399 576 725 729 734 732 712 619 547 596 507 329 323 361 395 458 458 467 404 361 385 465 489 503 497 495 479 464 473 450 440 456 442 391 387 395 347 391 399 385 381 373 365 381 377 385 404 416 422 395 389 369 347 307 305 315 309 313 297 291 231 122 100 80 53 35 19 29 51 159 241 255 265 253 
245 239 245 249 257 267 377 592 740 704 713 732 681 617 557 582 493 406 355 357 367 383 397 464 401 393 408 464 489 505 489 481 483 473 467 446 424 438 410 361 339 371 335 341 349 355 361 361 365 359 335 331 369 365 367 365 383 365 331 301 293 299 309 305 289 273 209 86 53 49 29 12 27 35 69 191 245 271 249 207 
241 255 249 247 261 267 329 505 696 692 704 725 673 638 549 473 462 545 573 547 530 505 503 512 509 497 448 385 369 381 418 422 438 438 438 430 393 361 331 271 247 249 229 235 237 257 257 277 269 293 287 295 287 271 289 279 263 267 265 265 291 291 285 273 263 251 155 47 43 27 0 12 37 82 134 211 245 257 229 169 
245 243 245 245 235 253 291 422 621 675 664 673 650 528 391 295 371 507 600 590 551 563 520 495 452 404 319 247 241 235 245 249 249 251 275 275 259 231 221 213 205 209 213 205 205 217 213 221 217 213 219 209 211 209 211 223 217 207 239 227 243 239 227 221 207 199 151 49 27 4 6 31 69 136 201 237 241 257 229 173 
231 245 223 237 235 245 247 315 469 547 563 505 410 303 257 251 279 351 426 491 514 518 458 383 289 255 219 217 211 217 201 205 205 205 209 211 209 213 219 205 199 219 217 201 213 199 215 213 193 203 199 199 199 187 203 193 205 207 203 211 215 205 199 185 183 167 136 69 21 33 63 100 159 209 245 255 257 261 233 191 
223 243 225 233 237 235 227 239 289 323 343 285 267 233 231 235 247 297 299 319 359 385 321 255 233 227 213 215 215 197 199 201 201 185 203 201 191 203 203 203 191 205 207 193 189 199 199 213 203 187 191 189 183 177 189 199 191 189 177 187 181 177 177 167 181 157 145 122 104 106 126 159 207 231 263 247 235 251 227 189 
225 235 213 217 237 221 231 241 231 223 241 229 235 227 231 219 233 217 205 227 223 241 209 217 205 223 209 209 193 193 183 187 175 181 195 193 183 185 205 213 191 205 205 195 189 199 201 195 185 195 197 181 175 183 177 187 187 179 169 175 181 169 173 140 151 161 167 169 181 199 205 219 219 237 251 249 243 223 207 161 
213 221 201 217 221 217 189 211 225 217 223 217 211 213 219 203 201 201 203 201 181 201 183 203 195 213 195 203 175 185 161 173 169 177 185 183 183 193 189 195 199 187 183 197 183 195 193 183 177 173 173 165 175 165 173 163 171 163 165 173 153 157 149 128 145 136 167 205 199 217 213 219 209 219 215 213 197 189 191 153 
223 235 225 231 213 217 209 225 229 225 219 215 215 213 205 219 211 207 193 197 199 193 195 207 199 207 193 185 171 177 175 161 169 151 167 165 177 177 175 179 173 165 175 171 171 169 169 169 169 161 163 153 161 157 157 153 155 171 157 167 147 145 132 122 130 128 138 163 171 173 179 179 175 171 163 181 140 157 132 149 
235 241 229 237 225 229 227 213 231 223 217 227 229 213 215 213 203 207 201 213 211 197 197 219 211 213 217 209 199 191 181 181 173 175 187 185 181 189 175 181 181 167 173 191 185 193 183 173 173 157 163 159 163 163 167 179 173 169 167 171 147 153 147 145 142 147 142 159 155 157 138 132 120 124 136 126 118 114 132 136 
245 271 247 237 233 245 215 223 243 241 227 227 233 227 223 223 219 215 215 211 217 219 225 221 221 219 217 213 213 211 197 191 183 189 187 181 189 201 185 199 183 195 177 197 191 191 175 191 187 183 191 171 177 179 183 185 183 183 175 173 175 163 151 155 159 177 183 185 185 185 163 151 145 145 155 153 134 142 140 151 
243 243 229 239 257 231 223 237 235 239 229 229 233 225 233 215 229 227 215 223 209 217 217 221 221 221 209 201 205 207 195 191 197 179 185 185 183 207 199 191 205 191 183 193 193 187 195 185 183 193 189 177 179 163 183 195 171 185 181 179 185 177 181 167 159 169 185 193 211 227 211 219 219 205 179 187 165 163 161 136 
249 247 239 243 253 255 241 241 231 243 247 245 233 241 241 237 231 221 225 213 229 223 237 215 215 223 227 219 211 201 203 199 213 195 217 205 207 209 203 199 193 211 189 203 197 205 197 199 183 201 191 191 191 185 197 205 199 197 187 209 203 189 193 195 187 195 201 207 223 229 221 221 223 235 219 195 185 185 185 155 
249 259 241 237 247 255 223 245 245 247 239 259 249 251 249 237 243 233 235 221 227 233 231 225 245 235 229 221 219 217 207 213 203 191 211 211 197 203 197 207 211 199 187 193 203 199 203 209 193 189 197 197 203 193 197 215 217 219 205 223 223 207 207 199 211 211 197 215 215 219 209 197 211 199 211 229 207 195 205 187 
249 249 251 261 275 243 251 257 243 247 237 257 235 245 237 243 235 239 239 235 227 233 227 243 241 239 241 227 225 213 205 211 203 195 199 205 207 209 205 199 209 199 191 185 191 193 203 207 191 193 189 193 207 195 209 201 215 225 211 219 211 215 211 215 213 215 189 205 213 201 189 189 203 205 211 227 211 233 223 191 
253 259 249 245 263 253 237 241 255 241 245 251 253 257 235 245 257 239 241 231 237 257 257 239 245 245 245 223 215 233 215 223 207 197 213 225 225 203 215 205 211 191 199 211 209 211 207 213 205 199 209 205 211 205 217 211 209 211 213 229 215 221 209 217 223 203 209 197 211 193 199 199 197 201 215 225 223 221 223 177 
251 257 261 243 263 245 251 239 249 255 257 255 259 241 247 255 261 235 249 253 249 251 261 255 251 257 251 245 243 241 231 203 221 213 219 203 225 211 219 221 205 213 201 203 197 217 199 207 199 207 197 203 201 209 209 215 207 225 211 225 219 213 217 209 223 213 205 193 193 203 195 179 191 197 221 245 233 219 211 197 
255 275 251 251 273 243 253 249 239 253 253 253 245 257 259 259 249 241 237 245 249 267 261 259 255 267 245 255 243 251 241 221 223 205 219 217 205 221 215 221 221 203 209 209 211 211 201 197 203 207 197 215 207 203 211 215 223 229 215 229 229 207 223 213 213 201 209 207 193 201 197 181 191 229 241 243 223 225 207 203 
237 265 259 263 267 271 247 247 259 271 255 257 265 263 259 263 245 245 257 247 263 253 251 253 249 263 259 269 241 257 247 245 231 227 221 209 213 211 227 217 215 209 217 221 217 217 215 213 215 211 217 209 203 213 217 219 221 233 223 235 241 219 223 217 209 221 227 211 217 217 215 199 217 207 249 263 237 257 227 215 
247 267 247 249 269 255 243 239 259 263 251 283 283 289 273 261 253 241 235 255 249 253 251 257 251 253 243 261 257 255 255 237 237 223 233 227 213 207 227 213 213 221 223 227 219 223 223 225 221 213 207 209 219 231 219 223 225 227 239 241 241 231 233 223 225 229 215 221 223 225 213 211 225 237 235 261 245 247 233 209 


