P2
80 60
631
135 126 124 120 104 108 130 132 130 126 161 147 147 132 145 128 137 139 118 112 128 132 128 128 128 98 108 112 126 141 130 137 110 124 137 130 126 124 104 83 86 94 112 128 135 135 130 141 157 153 132 159 151 141 161 137 135 132 135 137 141 135 139 147 122 137 145 135 124 120 122 118 116 102 110 98 98 94 112 114 
139 124 128 126 135 132 130 145 126 137 147 147 143 145 145 145 126 116 124 102 120 112 114 110 98 92 110 94 106 96 106 116 116 120 132 157 147 137 110 98 102 108 104 126 159 163 153 147 173 177 163 163 165 151 149 145 143 149 141 149 159 153 145 128 137 143 132 122 118 122 126 128 112 104 104 102 108 81 128 106 
120 126 143 153 141 122 132 147 135 155 147 141 157 139 143 132 130 130 122 110 122 122 118 120 122 104 92 100 114 135 114 120 132 153 153 165 141 151 122 106 124 128 114 126 149 159 163 157 163 185 173 159 169 157 173 161 155 147 157 149 163 151 157 147 151 130 139 128 141 132 139 145 122 126 118 122 118 98 130 122 
135 128 139 139 132 118 139 147 139 139 149 151 132 143 145 124 135 122 126 116 124 128 130 122 112 96 120 106 139 135 126 126 147 151 173 175 155 159 130 120 120 143 130 147 163 167 165 183 179 202 185 157 165 175 181 171 165 151 173 165 159 145 155 155 132 137 153 143 143 126 147 139 118 126 130 110 120 141 135 112 
128 128 139 137 124 124 153 139 132 151 165 149 159 151 153 143 130 122 128 110 128 132 128 141 128 128 108 116 130 135 139 141 153 165 175 181 161 157 153 132 128 147 149 141 169 171 181 181 179 191 187 179 173 167 165 171 169 153 163 173 175 153 153 153 141 153 161 132 135 139 153 147 143 126 141 114 122 135 161 126 
128 124 137 151 128 149 135 143 143 161 161 153 151 167 153 145 155 145 141 132 124 132 145 145 128 120 137 130 130 149 147 143 139 165 179 191 169 163 149 143 141 141 141 163 169 181 181 181 177 204 177 183 185 183 181 177 171 153 171 165 161 167 153 161 151 139 145 151 149 149 155 167 153 137 128 143 118 122 137 124 
147 153 149 147 145 139 141 169 151 143 169 155 153 161 153 149 149 141 139 130 147 149 153 128 139 132 151 141 145 149 141 169 155 161 183 193 179 167 149 145 149 149 137 171 179 200 179 175 185 197 195 179 187 181 189 181 165 167 159 173 177 157 171 157 157 157 161 151 159 159 161 169 161 139 147 143 130 122 135 137 
143 151 128 139 139 139 147 161 135 175 155 153 169 169 155 149 145 147 132 130 139 139 143 151 139 137 141 137 135 149 149 149 157 173 187 191 169 187 155 147 149 157 157 167 189 189 191 189 193 195 189 200 193 175 191 173 159 159 173 171 169 175 169 157 163 161 157 159 151 159 165 165 143 139 149 149 124 122 155 128 
135 159 132 135 153 128 155 155 145 155 175 165 155 157 157 149 151 137 159 145 137 149 151 153 143 143 153 137 147 157 165 157 165 179 189 187 195 179 159 141 145 169 175 177 181 191 197 206 202 210 189 202 202 183 183 171 171 161 165 173 171 155 175 171 161 171 163 163 165 171 179 185 157 151 155 141 149 139 153 151 
155 145 145 153 145 151 149 147 159 159 163 171 157 153 153 161 157 157 145 137 149 141 151 151 149 145 137 149 153 159 157 163 159 183 177 204 187 185 181 159 161 175 179 200 216 206 204 200 204 202 204 197 195 181 177 177 165 167 163 161 175 171 177 183 155 167 167 149 165 163 167 181 173 157 157 147 153 155 167 163 
132 139 155 149 143 157 151 149 149 151 163 157 165 153 165 161 137 147 151 147 145 151 151 157 151 149 155 137 157 173 159 173 171 183 214 210 208 197 226 193 191 214 222 254 240 242 204 200 212 216 204 200 193 185 181 175 179 163 173 167 177 165 177 157 165 173 151 181 177 173 175 193 197 189 191 187 189 191 202 191 
128 155 155 153 137 145 151 153 139 169 165 163 169 161 171 159 149 151 163 151 155 151 149 153 153 157 149 139 145 165 169 181 183 193 212 232 252 303 301 277 341 433 501 521 473 333 256 224 214 224 206 214 206 189 187 185 171 147 173 181 169 171 167 175 173 173 169 183 187 191 204 232 283 297 323 319 313 317 333 315 
145 143 149 124 143 151 149 149 145 157 173 167 153 165 155 151 153 145 145 151 167 163 155 151 153 153 153 139 159 171 167 175 171 208 250 339 373 373 357 391 487 526 560 597 584 509 365 240 226 216 212 216 204 204 197 187 195 189 212 206 210 222 212 187 200 204 216 228 262 277 319 353 419 445 433 417 407 405 435 417 
139 153 147 143 155 147 153 161 153 161 161 149 153 161 153 153 155 143 153 143 139 157 151 151 147 145 151 149 157 167 171 179 208 289 377 419 385 385 345 371 465 534 515 546 576 574 489 303 265 236 214 214 234 252 248 258 254 256 277 273 275 252 232 220 232 238 252 283 337 349 359 377 413 425 443 427 435 417 447 417 
153 151 151 145 135 145 139 143 145 159 171 163 173 155 149 157 147 153 135 143 151 155 151 159 149 145 147 147 155 179 175 214 287 387 407 377 383 375 391 361 419 387 309 385 495 536 479 423 341 291 254 254 273 291 305 341 361 371 353 343 295 275 254 226 240 281 275 289 349 399 389 393 409 433 457 435 427 427 417 361 
151 155 157 157 151 169 167 159 137 159 167 157 167 155 161 151 159 161 161 157 161 143 161 153 149 157 157 159 165 181 189 309 337 333 341 331 317 383 403 379 327 262 230 232 341 451 485 471 425 391 355 285 279 311 341 383 415 407 397 357 285 279 293 281 254 279 279 303 379 427 403 401 413 425 419 397 359 309 258 238 
153 175 161 145 147 165 155 149 155 149 167 169 155 165 153 153 165 185 165 157 151 157 163 169 171 167 169 173 183 200 228 381 399 395 365 339 349 401 391 329 254 281 305 291 339 411 479 465 477 405 361 281 303 313 355 367 369 375 347 345 303 262 273 271 271 260 283 301 353 397 381 375 365 343 301 256 214 195 210 183 
143 165 147 157 139 153 153 161 145 165 175 171 179 169 159 155 171 163 167 161 167 167 159 167 169 181 189 189 179 222 260 407 407 383 389 387 409 401 361 319 291 285 254 277 315 349 397 437 443 417 359 301 275 287 323 329 285 305 277 299 293 283 271 271 248 265 275 293 301 319 297 260 236 212 210 191 179 183 200 191 
145 169 163 147 159 153 153 169 167 183 183 165 169 165 165 173 169 173 167 157 169 175 177 187 197 195 193 183 183 224 279 371 383 377 387 417 419 383 361 315 377 399 323 281 319 349 375 427 445 431 385 287 202 281 309 301 291 287 273 289 283 267 271 283 281 275 275 285 246 230 260 230 222 200 195 183 185 197 197 189 
147 155 149 151 153 139 161 173 155 173 181 173 149 183 177 181 177 169 173 159 185 212 240 269 301 325 301 238 228 279 369 355 377 405 407 417 375 297 220 248 443 483 443 319 295 329 375 413 425 435 377 273 220 275 287 279 273 273 275 267 262 265 279 283 275 277 254 238 222 216 236 226 208 193 195 169 181 195 204 189 
153 159 157 167 161 153 169 163 153 169 191 185 181 175 177 167 161 175 177 177 228 301 333 351 415 477 493 483 469 503 491 311 337 399 359 329 279 224 169 240 437 503 459 339 301 309 357 377 391 389 305 252 240 271 285 277 287 267 275 256 265 291 291 305 273 252 240 220 230 224 224 202 212 185 181 167 183 193 197 189 
145 159 163 163 167 155 159 167 177 161 165 179 173 173 161 175 173 167 177 185 291 389 397 445 530 568 568 568 570 627 542 307 317 403 329 287 265 197 177 271 441 501 411 331 315 289 341 339 365 319 252 244 246 262 323 297 309 269 252 262 277 283 267 267 236 216 220 220 234 228 212 214 208 208 195 189 179 191 208 195 
159 171 163 159 157 153 141 157 157 161 171 181 195 167 171 175 167 181 177 202 347 443 415 507 562 552 526 562 548 607 562 351 301 419 349 325 281 183 126 283 483 511 423 317 305 285 303 323 313 297 197 208 283 313 349 319 295 275 262 265 267 299 303 277 265 267 248 220 236 238 238 212 220 204 195 183 189 197 206 208 
157 173 149 167 171 173 159 159 159 165 189 185 189 183 175 173 175 169 177 210 325 453 491 603 593 519 431 524 530 601 542 411 443 461 373 307 244 179 155 281 477 491 407 343 315 295 333 315 321 301 137 177 309 327 351 343 317 273 277 271 258 295 297 317 301 299 281 262 301 305 267 246 238 226 230 242 202 206 220 208 
175 187 155 151 163 163 169 165 169 153 181 179 185 171 183 175 177 177 171 200 307 405 493 576 564 515 465 536 524 564 505 431 445 443 401 375 351 287 242 313 457 453 397 375 331 311 337 339 357 337 315 343 359 383 329 343 311 291 275 291 287 317 299 297 325 309 319 319 353 415 395 361 359 373 379 367 355 325 315 275 
177 169 155 165 159 159 175 173 165 163 171 175 169 169 177 173 169 185 175 189 289 345 407 473 532 505 542 501 419 341 379 423 395 413 421 403 397 375 343 371 431 443 375 357 349 339 351 351 355 353 351 455 445 381 321 315 315 289 289 295 305 329 329 287 291 305 311 309 345 425 417 395 397 409 423 421 443 441 449 419 
155 169 163 165 167 179 167 165 157 167 183 169 173 175 175 171 159 159 181 175 206 250 265 277 305 327 321 242 230 240 305 421 393 389 395 409 401 379 359 411 431 409 355 329 333 377 377 341 371 439 461 457 447 367 303 291 295 289 299 285 307 299 315 301 303 293 299 313 331 401 403 405 401 401 415 441 445 467 469 453 
171 165 157 161 165 157 153 169 165 159 167 191 175 153 173 173 169 167 149 161 161 179 167 189 200 195 195 177 200 204 254 419 413 377 341 351 373 397 391 425 435 339 323 337 361 393 365 413 475 507 519 459 395 319 313 285 267 262 269 285 273 244 279 269 271 279 279 277 303 369 353 373 385 403 427 443 431 457 455 423 
159 153 171 155 165 171 153 153 151 163 163 165 171 161 163 153 163 161 155 161 159 167 165 167 169 155 163 163 187 193 220 393 387 341 311 311 317 363 445 451 419 345 293 291 307 407 467 519 530 507 421 337 258 256 275 244 244 202 179 210 212 210 228 252 248 265 260 252 265 319 343 345 365 399 423 409 405 385 343 303 
147 139 159 165 159 161 163 161 153 159 159 165 173 161 159 151 157 163 161 157 161 169 171 159 159 161 153 155 179 187 204 333 425 395 269 252 285 285 399 487 485 449 363 345 441 532 521 534 548 427 299 260 232 214 216 147 153 187 120 139 187 159 208 232 242 220 238 226 232 234 246 250 244 267 273 250 242 230 224 206 
141 141 139 165 167 145 149 145 155 167 171 173 161 165 159 149 157 159 163 161 153 167 161 173 169 153 165 163 191 195 185 224 363 435 413 407 367 277 353 503 507 530 528 542 566 580 582 536 423 291 267 236 214 191 135 137 163 175 163 126 171 167 204 208 246 216 234 230 228 230 228 218 214 189 191 179 163 163 191 181 
135 151 149 159 151 169 165 159 155 171 177 151 171 175 159 167 167 167 157 167 157 177 179 171 169 161 177 163 179 191 189 202 234 341 445 465 433 425 423 509 524 536 568 591 603 629 562 369 291 260 240 236 236 214 214 200 195 189 187 183 185 195 228 254 269 275 265 275 256 232 240 210 212 181 185 165 161 167 191 169 
130 163 157 157 153 151 165 163 157 161 177 169 169 177 171 175 163 159 169 163 169 169 177 171 163 165 175 167 181 206 202 220 228 281 371 453 435 425 443 495 536 532 538 570 570 487 333 258 248 252 234 244 236 236 222 222 195 183 189 189 187 204 226 248 273 275 262 293 265 246 236 218 208 181 187 173 175 167 181 169 
153 153 159 183 157 141 165 163 149 159 171 177 175 181 157 175 179 171 155 161 159 183 175 177 177 165 187 167 204 220 232 269 351 407 435 419 393 463 431 477 521 546 491 363 287 273 240 220 230 232 240 230 238 224 226 210 208 183 191 193 191 197 220 260 269 250 248 267 260 248 242 226 195 193 167 167 157 171 183 177 
161 157 151 169 163 149 157 167 165 159 179 177 171 173 179 169 177 177 173 169 165 177 163 171 163 163 185 202 222 293 379 423 423 403 381 355 299 471 475 483 517 536 538 461 289 224 228 226 228 250 244 240 230 226 224 226 195 185 204 210 214 218 204 210 228 210 226 254 273 250 244 228 228 204 173 167 169 177 179 181 
137 155 173 143 157 157 167 167 157 157 175 179 163 185 177 167 171 169 169 159 169 187 177 177 173 171 195 242 365 413 413 395 373 367 353 345 317 447 441 369 455 497 522 495 385 234 224 236 236 240 240 230 234 226 228 208 181 189 234 248 250 250 230 218 220 197 195 252 267 252 240 236 226 228 195 195 179 177 183 193 
139 157 163 155 149 153 157 171 165 167 175 183 175 183 177 177 169 177 175 159 175 169 175 187 185 187 244 399 399 389 365 345 307 301 325 343 323 307 252 228 295 443 459 407 361 283 265 277 267 262 252 246 252 254 240 218 202 226 246 260 277 275 240 244 222 218 210 220 273 267 273 287 335 335 329 297 283 236 236 228 
145 149 147 159 141 165 157 173 161 163 183 173 183 185 173 175 177 169 179 175 185 185 171 195 191 202 345 463 435 403 393 381 327 339 343 355 315 283 277 291 319 361 379 393 365 315 269 256 256 265 250 289 283 271 267 267 242 273 285 273 260 267 262 240 218 224 230 287 289 301 339 381 409 421 423 427 393 393 363 327 
163 169 132 153 159 163 163 163 161 163 159 175 177 187 185 175 183 185 197 187 179 193 179 206 206 236 423 433 393 377 373 373 355 375 333 307 323 377 377 371 373 391 359 387 357 305 285 277 283 269 262 291 301 291 295 289 293 297 319 258 157 256 254 260 228 218 236 297 269 265 333 381 413 433 429 441 435 421 411 377 
151 159 161 175 159 157 155 163 161 167 185 175 183 175 187 189 238 315 349 381 351 285 238 216 222 256 425 419 395 381 363 365 365 347 319 281 303 333 371 367 365 351 345 351 341 301 273 273 283 275 285 297 323 315 317 317 315 323 341 185 0 222 277 250 230 220 242 256 248 248 309 373 385 413 443 461 455 455 461 415 
141 145 155 159 143 157 159 159 159 175 177 173 185 183 195 242 373 540 564 566 558 522 385 307 262 311 411 407 383 377 359 367 371 319 283 265 265 311 347 343 359 341 327 337 331 265 256 250 262 269 283 293 317 331 321 327 329 333 319 267 197 254 275 254 238 236 234 265 256 269 317 341 357 389 421 445 453 451 459 403 
145 147 159 157 147 155 137 151 167 171 175 165 173 181 206 293 447 580 582 584 597 528 353 419 405 379 423 385 357 367 363 387 339 281 254 242 262 305 321 343 341 335 319 311 317 267 267 234 240 248 267 279 315 325 313 337 311 315 311 303 279 269 262 273 269 271 285 315 281 289 301 321 337 349 375 383 387 355 329 275 
143 149 145 151 159 143 161 165 157 175 171 171 161 175 214 351 503 611 603 599 578 546 487 505 493 532 485 407 385 351 351 359 299 265 228 246 275 325 331 343 353 357 333 313 309 265 285 250 238 240 269 275 285 301 307 313 297 307 311 311 295 291 267 269 289 293 299 319 321 297 273 256 204 143 100 96 143 149 143 118 
143 141 147 145 151 155 165 163 153 147 169 179 169 175 212 363 489 580 615 617 595 605 574 591 564 558 511 429 401 375 331 313 267 246 242 244 283 321 337 325 349 355 335 325 307 271 275 232 226 244 258 265 260 260 283 287 277 271 299 295 293 271 275 265 271 265 265 256 236 222 200 187 147 83 38 23 77 94 114 83 
149 132 149 159 157 159 155 165 153 157 173 165 171 181 214 319 455 534 584 615 623 631 599 607 597 566 513 383 379 341 299 283 271 250 226 224 230 315 329 333 337 349 339 337 313 287 289 232 234 244 271 265 277 260 275 265 262 246 254 258 260 260 244 234 210 202 200 208 193 200 193 175 147 128 100 102 102 116 155 147 
143 159 143 151 155 161 163 173 169 165 167 165 181 173 187 271 387 461 526 574 584 605 613 595 593 564 503 367 367 343 297 260 246 256 216 226 269 295 329 333 323 341 339 325 321 307 283 246 234 250 279 301 305 293 273 234 230 212 204 191 248 267 260 258 238 242 236 238 224 218 197 189 177 185 185 187 181 175 191 179 
139 147 155 165 143 155 153 167 141 165 169 167 161 159 175 195 265 343 403 429 457 489 485 519 532 544 489 377 357 345 307 275 244 218 183 200 295 339 339 319 305 321 317 315 303 299 277 265 244 234 265 293 301 297 244 244 222 191 202 187 236 269 285 301 305 325 299 305 293 269 254 248 265 281 317 319 333 297 309 269 
139 147 155 145 149 155 149 177 157 163 177 163 175 169 163 177 187 200 216 222 252 254 234 244 295 445 491 413 381 355 321 297 275 222 157 175 262 345 345 341 327 299 309 309 299 285 273 271 254 254 262 281 297 254 238 254 240 224 240 234 289 307 325 335 323 347 341 335 291 248 271 265 301 331 363 383 407 405 415 389 
124 153 153 139 141 139 161 153 161 151 169 163 181 179 165 163 167 177 171 159 195 179 181 193 202 287 401 393 359 347 339 323 275 208 147 181 242 325 347 333 329 311 299 295 299 295 271 252 238 244 246 254 256 210 254 258 228 238 254 269 303 331 323 305 311 323 349 311 248 200 246 287 307 339 369 401 417 423 441 415 
139 141 155 157 155 151 163 167 153 161 165 163 165 167 163 163 173 173 157 155 171 163 167 167 175 200 331 355 343 329 341 335 287 218 159 179 222 319 345 353 341 325 301 299 301 269 267 256 252 230 236 248 262 250 267 256 226 242 267 301 321 307 297 293 283 321 337 285 226 204 238 305 341 371 403 421 427 429 453 413 
137 161 147 145 149 153 159 151 171 171 173 171 161 173 163 159 157 153 169 151 167 179 169 173 157 179 315 373 345 307 305 325 313 248 165 161 189 277 327 335 349 339 301 297 297 273 313 271 256 250 258 271 283 271 267 260 269 260 279 303 289 293 303 285 299 297 307 279 234 202 256 317 361 415 433 419 433 433 425 391 
155 141 153 141 145 155 139 151 155 153 165 177 163 163 169 165 161 167 163 145 165 163 161 169 159 165 297 415 379 335 305 303 291 293 267 234 206 275 311 309 333 333 331 327 317 301 345 277 273 287 277 289 307 291 289 307 299 289 279 273 293 295 297 305 285 277 262 248 206 210 248 271 349 401 419 391 387 365 353 309 
137 151 137 151 153 147 141 167 157 159 165 167 161 145 167 151 153 149 139 157 153 155 145 139 147 155 244 425 413 337 301 295 277 319 305 309 271 246 256 265 281 317 327 333 321 315 313 281 273 291 273 285 319 309 327 317 301 293 279 291 281 269 279 267 248 228 230 202 165 187 179 189 216 230 248 244 232 224 224 216 
126 137 139 145 143 147 165 143 141 157 149 169 155 141 155 151 165 143 149 132 141 161 147 151 139 141 197 349 427 377 337 321 307 281 299 303 269 252 195 169 206 319 409 445 383 283 246 250 256 277 260 277 293 301 303 281 291 269 271 248 234 228 252 254 230 208 193 181 165 163 191 165 149 171 169 177 177 157 193 191 
145 141 147 143 137 147 147 128 143 139 165 157 153 153 151 151 132 147 145 135 163 143 147 145 139 128 149 206 341 393 387 363 359 325 311 299 277 256 335 295 281 425 487 534 471 267 202 193 197 214 216 210 218 220 216 214 200 189 189 220 187 195 214 197 200 181 175 169 171 165 155 139 145 141 151 163 163 139 169 163 
130 130 118 130 120 120 122 124 120 149 157 141 145 147 163 153 141 135 130 132 137 147 141 128 128 120 137 143 173 265 345 375 351 341 341 313 295 321 425 441 481 485 519 509 367 206 169 163 173 183 177 181 177 171 175 163 161 155 159 155 153 151 151 151 153 135 145 149 159 145 155 139 126 147 151 147 155 149 149 145 
102 137 126 132 126 141 124 124 122 135 151 161 153 147 159 135 132 132 126 139 120 132 128 132 122 124 139 124 143 171 185 252 309 337 339 329 317 387 483 471 477 515 499 419 228 189 165 169 167 171 167 163 155 169 163 155 149 147 147 147 132 155 139 145 145 135 135 139 130 137 128 132 135 155 145 147 151 135 149 151 
96 106 116 118 124 114 124 118 126 137 137 122 124 143 149 120 120 126 110 118 122 118 130 132 124 110 120 112 128 143 143 137 153 189 242 279 305 417 473 459 477 495 453 262 195 159 151 163 157 167 151 167 159 151 153 141 120 132 141 130 139 132 118 126 112 112 116 116 116 128 124 110 118 126 149 145 135 153 171 147 
110 128 110 108 112 110 104 112 108 128 116 132 130 143 128 128 122 126 120 114 126 116 118 118 128 110 110 106 130 137 120 122 139 147 171 185 200 265 321 363 403 405 319 181 157 151 155 153 165 165 153 147 153 151 143 132 118 130 130 128 116 137 126 116 110 102 124 106 92 108 108 104 106 137 143 128 132 118 157 139 
126 124 116 120 128 114 120 132 114 118 122 132 120 120 118 124 114 108 106 110 108 122 112 116 128 112 112 104 124 128 128 147 147 155 171 185 167 163 163 169 173 197 163 159 161 151 165 163 167 165 169 141 165 163 137 135 139 135 137 143 120 126 116 108 124 126 130 130 112 106 108 104 94 114 122 126 122 153 139 137 


