P2
80 60
572
193 165 159 157 165 159 183 163 173 157 161 169 173 175 137 167 157 141 149 133 135 133 127 117 121 119 111 101 99 97 97 99 109 115 103 111 105 121 91 91 99 93 83 89 89 99 97 103 123 139 115 123 119 135 117 101 109 101 113 113 131 103 109 115 115 115 117 125 143 123 119 133 133 95 89 103 87 115 103 85 
171 161 155 161 149 153 159 161 161 165 167 165 173 151 149 143 137 143 113 133 145 125 127 119 109 103 105 107 95 95 93 101 107 103 111 123 107 129 101 93 99 91 97 87 93 95 97 99 125 125 127 115 123 111 109 103 95 121 109 117 127 125 115 103 105 107 115 123 123 127 125 115 117 89 101 95 101 85 99 95 
181 153 153 161 161 167 159 171 151 165 159 157 153 151 147 157 141 137 131 139 129 125 117 113 117 113 103 103 109 97 103 107 105 113 117 131 139 119 109 99 111 101 103 97 103 109 99 113 109 127 135 125 131 137 121 119 115 125 115 121 131 133 129 107 115 125 123 121 135 129 127 143 121 99 91 109 103 111 91 89 
179 151 161 169 153 155 163 145 157 149 159 161 157 133 149 145 139 131 139 135 137 131 129 119 123 119 121 121 119 109 107 131 113 125 123 135 131 131 117 105 115 101 113 99 107 117 107 103 125 141 129 137 141 131 125 117 115 131 127 117 125 149 121 129 123 125 135 135 139 129 139 127 121 103 113 113 103 119 111 95 
187 145 159 167 167 155 171 169 177 163 159 149 161 161 149 167 147 147 139 143 145 135 129 133 135 127 117 123 137 131 125 129 127 143 151 147 141 131 127 113 125 115 109 119 111 121 107 121 123 145 131 151 147 143 133 129 113 123 129 133 137 133 127 137 125 129 131 123 151 139 137 145 135 117 105 111 113 119 119 109 
185 147 165 173 151 159 171 159 163 151 169 159 167 167 173 161 155 151 141 141 139 135 131 121 127 135 131 127 129 115 135 133 129 129 131 149 139 149 127 117 115 115 107 113 117 121 127 123 141 137 143 149 133 139 129 137 123 131 115 137 133 143 129 129 133 129 135 143 133 127 139 145 133 129 117 119 137 107 135 129 
175 147 169 159 155 183 173 181 175 169 155 179 161 155 171 171 149 159 143 143 151 135 145 129 141 131 137 129 123 119 123 137 137 139 139 149 149 151 135 125 131 111 115 127 123 121 129 123 131 145 149 153 149 153 139 135 137 121 127 125 129 141 129 115 139 129 131 135 139 149 151 145 125 135 125 119 117 127 133 121 
179 147 155 173 173 171 163 171 165 163 159 153 157 163 157 155 151 139 141 137 139 139 129 121 133 141 129 131 125 127 141 129 139 141 149 143 159 155 139 125 129 125 127 129 131 139 131 139 149 157 167 157 161 165 153 155 157 159 153 135 141 133 123 125 141 137 135 155 145 135 143 151 131 127 129 133 129 127 153 129 
179 157 159 167 159 157 157 163 177 165 151 171 161 167 155 167 159 149 145 143 143 125 143 119 129 143 133 131 135 135 137 145 151 159 157 159 157 147 137 129 135 133 129 135 153 179 147 179 179 185 183 189 187 201 209 268 288 272 235 173 141 137 139 131 137 147 141 159 157 161 157 145 143 131 139 149 151 171 185 171 
173 157 153 173 165 167 171 167 165 171 161 169 167 155 147 161 151 143 151 145 143 137 135 131 133 145 141 123 139 127 131 139 143 145 159 177 169 167 149 163 173 151 163 177 179 247 292 335 365 363 337 331 337 369 406 417 388 361 328 249 161 137 133 133 131 139 141 139 161 145 155 159 185 181 211 249 266 261 284 282 
179 155 169 159 173 169 169 165 171 151 167 165 157 151 157 167 163 147 147 149 145 143 147 133 133 141 139 135 145 143 157 151 147 163 165 181 185 197 203 217 227 237 290 349 396 446 444 460 468 450 406 378 376 392 409 415 376 353 339 302 193 145 121 143 145 149 153 161 181 191 199 243 282 320 343 353 353 347 363 359 
171 163 167 165 171 163 177 161 155 155 153 155 147 157 165 159 153 145 143 149 147 151 137 135 133 145 141 139 135 133 147 143 159 175 201 241 272 290 266 235 241 355 423 454 452 440 438 440 427 435 394 316 257 235 276 306 339 331 300 284 219 169 171 185 203 207 209 235 235 259 290 294 296 335 361 367 359 353 382 359 
185 177 171 159 169 165 167 173 167 153 149 151 149 163 147 155 153 149 145 141 145 139 133 141 137 123 135 139 143 139 147 159 169 233 302 345 298 270 270 266 294 326 431 450 444 415 400 365 331 282 217 179 187 189 197 213 249 270 249 237 221 205 215 225 237 261 257 272 274 312 314 316 304 339 355 367 359 359 373 326 
187 167 171 161 149 173 167 161 157 175 161 151 161 151 145 151 157 141 129 143 139 147 125 127 129 133 123 131 133 135 139 169 243 367 353 278 211 157 115 171 235 266 357 349 304 257 223 187 189 179 173 179 159 183 207 217 225 223 223 219 221 231 233 235 259 266 280 284 290 312 322 320 328 337 341 351 349 310 272 187 
185 145 169 163 161 157 157 157 157 163 149 145 151 159 141 141 151 131 133 141 137 149 149 131 127 143 125 129 147 155 157 191 363 384 373 351 294 268 225 183 177 191 185 185 187 203 193 201 207 221 223 205 199 199 221 225 213 221 219 229 253 249 255 245 268 261 272 266 278 302 310 320 314 326 300 280 241 193 163 143 
167 151 153 153 159 161 153 151 161 165 145 153 143 147 143 159 145 143 127 151 135 145 155 131 139 153 143 155 157 145 165 223 365 373 361 355 361 326 253 171 117 77 77 119 165 207 215 223 247 223 229 207 187 173 221 217 219 211 227 239 253 239 255 274 280 266 266 261 261 263 263 272 233 227 189 163 159 147 157 137 
169 149 165 151 157 137 153 159 167 151 155 157 159 149 155 153 145 145 149 143 147 145 135 163 149 151 163 163 165 157 175 253 337 353 380 394 411 324 213 113 71 85 171 191 213 229 233 225 239 231 217 215 173 161 179 245 241 241 253 253 251 247 266 272 265 265 274 261 245 221 207 207 187 169 149 145 147 133 157 135 
173 159 157 151 159 169 159 167 167 153 149 169 165 151 151 161 165 157 159 163 165 151 161 167 173 213 245 231 187 201 223 294 335 361 378 400 380 312 185 63 47 125 223 245 259 249 239 245 270 245 241 225 183 147 199 245 247 255 253 263 259 259 266 278 284 280 272 229 205 195 197 183 175 161 149 157 145 153 159 137 
175 165 175 169 171 153 163 169 167 147 147 161 159 165 155 151 165 155 171 159 159 161 189 193 280 398 462 448 375 396 442 396 298 367 380 351 298 233 105 25 77 165 245 270 276 259 257 237 265 255 231 211 175 165 191 231 243 266 259 259 259 272 272 276 272 257 213 203 203 183 183 195 167 161 145 147 163 145 157 151 
181 159 151 155 167 143 171 171 165 161 157 163 159 147 145 163 153 151 153 155 171 177 233 316 448 530 518 520 452 481 528 433 263 355 382 316 247 165 75 33 95 197 261 278 288 268 231 253 259 241 219 197 163 147 189 233 268 266 257 259 265 268 247 243 237 225 203 205 205 179 187 173 157 161 149 151 133 147 145 143 
169 167 161 153 177 155 151 179 161 157 161 171 161 173 149 151 171 149 157 155 183 251 371 433 539 535 433 485 456 477 524 440 288 347 392 296 243 157 73 51 109 235 282 296 290 263 245 233 243 245 201 93 111 165 207 257 274 255 255 249 261 261 239 249 223 223 201 207 201 187 181 179 171 149 149 145 159 147 175 147 
161 159 163 155 163 157 167 159 177 149 155 163 171 177 161 171 153 161 159 147 181 263 380 481 539 520 435 469 469 471 528 446 380 429 409 335 276 227 103 49 109 245 286 306 280 257 243 245 251 239 193 49 21 151 199 245 245 259 268 261 266 282 274 272 245 203 199 203 219 193 183 185 159 143 159 153 145 149 147 155 
173 155 155 155 155 159 169 157 167 153 161 169 159 165 145 161 153 151 153 157 175 282 404 438 514 537 493 520 497 471 504 421 407 411 371 347 331 298 201 137 157 205 257 306 282 257 255 272 280 263 205 151 109 95 167 225 243 259 257 270 270 302 296 296 290 255 219 219 209 203 189 175 173 145 147 143 161 153 155 119 
169 157 165 153 165 155 147 171 155 169 161 165 161 163 157 165 157 173 145 165 181 225 316 329 367 454 520 489 396 310 318 375 384 367 378 375 365 349 292 211 183 219 243 286 288 286 278 302 274 268 213 173 121 23 47 221 268 274 280 284 284 308 294 294 282 282 284 263 235 223 199 183 191 157 149 149 147 157 161 141 
165 157 157 171 173 157 165 167 171 165 153 153 161 157 159 151 171 145 147 157 163 183 185 207 211 251 276 266 195 177 205 322 359 341 341 378 357 337 284 221 191 199 235 265 278 266 286 292 272 255 231 203 181 67 95 272 333 300 298 292 278 298 286 290 274 288 292 280 274 265 268 231 207 187 199 173 177 163 169 165 
149 143 151 157 165 151 165 145 165 161 159 165 145 173 147 159 163 157 145 155 163 157 161 159 165 161 171 173 171 189 199 304 371 351 304 304 288 294 276 253 199 189 235 272 280 266 290 282 292 261 251 233 221 241 343 363 331 298 302 294 265 253 253 263 263 272 288 274 270 298 328 331 300 290 300 290 280 249 227 189 
151 153 151 155 153 153 163 149 153 147 155 149 159 159 141 159 167 163 145 143 159 153 161 149 159 151 159 159 159 171 183 257 384 361 290 205 123 169 247 249 282 259 259 278 274 316 310 290 306 284 304 314 375 427 409 390 328 322 296 268 223 205 213 223 249 255 241 239 231 296 343 326 316 322 343 353 367 353 355 300 
173 147 155 143 155 139 153 165 147 149 151 133 153 169 147 149 153 143 139 141 141 135 145 135 141 157 141 159 153 157 159 215 367 394 318 113 0 107 274 300 328 376 396 316 282 308 367 384 392 419 409 404 423 415 404 376 341 296 245 201 195 199 219 209 233 223 233 225 241 292 322 314 310 316 339 361 378 384 400 390 
171 157 157 159 163 151 165 159 149 141 151 141 161 163 143 161 145 137 125 135 139 139 135 141 133 129 133 143 135 143 141 171 278 386 378 312 286 335 312 294 357 456 464 452 444 454 464 454 460 446 417 396 357 316 266 221 191 231 193 137 183 207 219 225 215 209 233 223 211 280 302 320 310 312 335 371 378 390 407 378 
167 147 159 147 159 161 153 153 165 147 149 155 141 153 137 143 141 135 135 153 145 141 149 137 133 147 149 147 141 143 155 163 195 276 404 392 353 331 308 306 407 479 468 460 462 499 512 479 469 460 353 257 223 191 163 155 163 187 193 175 185 207 217 219 223 221 225 205 207 223 241 272 288 304 335 361 386 365 357 329 
171 149 161 157 161 157 165 147 155 167 147 149 155 139 149 149 159 141 139 153 155 155 149 137 147 147 137 137 153 147 157 175 177 197 255 331 345 324 304 304 448 442 438 456 483 508 497 454 378 274 205 207 207 201 181 169 175 177 169 159 157 167 177 185 221 227 215 213 207 193 213 213 205 191 211 225 219 215 211 203 
159 147 153 151 161 147 155 155 161 157 153 141 151 153 149 163 145 149 139 149 155 155 145 135 141 149 161 145 153 159 151 169 175 185 195 203 241 265 274 300 270 237 233 241 229 243 205 213 189 199 179 199 189 181 189 286 318 255 197 149 153 151 167 183 215 223 211 221 211 195 187 185 155 155 137 141 145 139 157 149 
159 155 169 167 167 155 157 149 157 149 155 161 157 171 161 155 163 153 143 153 153 157 151 159 153 155 163 169 159 161 157 169 189 195 217 237 270 266 266 215 211 191 185 183 183 195 221 205 237 251 257 266 270 261 300 390 411 378 239 169 149 147 173 187 207 225 219 215 215 197 181 187 165 153 141 145 141 133 137 131 
145 157 163 165 153 167 165 155 161 159 173 151 157 159 147 161 159 151 159 155 157 159 157 155 159 161 165 157 183 183 209 245 278 296 316 333 326 300 333 270 290 312 359 373 384 375 390 375 396 394 373 369 355 367 373 415 421 398 314 181 171 165 179 191 203 217 231 225 221 205 185 183 163 149 137 141 129 133 133 133 
167 139 171 161 153 163 159 149 159 155 169 167 157 169 163 163 161 153 147 153 155 171 151 161 163 165 163 181 235 274 333 341 341 345 341 328 294 294 390 417 421 425 440 429 407 406 394 400 411 423 406 384 369 369 386 371 310 314 286 243 195 187 189 197 203 211 207 221 211 199 203 203 189 171 161 157 125 139 177 143 
165 149 161 157 157 149 165 159 163 155 163 153 169 165 151 167 163 169 161 145 159 157 155 159 159 157 173 245 357 322 310 318 339 335 357 347 308 310 388 431 452 452 454 429 409 415 411 425 413 400 343 310 288 314 341 329 302 306 288 274 237 227 205 201 211 205 215 213 221 209 217 249 255 259 229 221 207 173 207 167 
159 143 157 157 155 155 161 151 153 157 155 151 155 157 163 173 153 145 143 155 161 155 169 153 157 175 195 341 386 345 326 318 322 345 353 345 335 345 413 431 438 427 444 417 400 398 390 369 320 296 298 312 324 339 357 322 280 284 296 280 284 263 247 203 201 213 213 209 227 237 282 326 373 359 353 337 326 290 312 263 
165 151 149 155 141 141 153 139 153 149 147 161 151 151 157 157 161 153 159 163 173 175 157 173 159 183 237 357 357 353 343 326 286 300 347 337 345 326 351 347 363 353 355 347 331 306 298 290 268 288 296 292 304 306 337 316 298 284 278 233 237 257 251 223 211 211 207 219 209 241 284 322 357 359 380 369 347 337 331 308 
165 169 165 149 165 163 161 165 151 147 143 153 161 159 159 181 189 175 195 181 169 171 173 179 181 203 292 365 357 351 324 302 265 270 259 261 261 270 270 235 239 274 286 288 300 266 274 268 284 314 292 292 306 296 312 302 304 290 263 131 169 229 227 217 219 217 205 189 175 191 265 302 331 343 371 386 351 343 347 314 
167 157 169 161 141 149 159 151 161 163 153 151 149 159 177 219 312 339 339 326 308 270 211 177 185 255 329 335 324 312 308 306 308 310 274 229 201 215 183 189 223 263 266 266 274 247 251 253 274 300 302 302 310 308 290 278 294 278 251 171 185 251 247 239 223 219 191 165 181 191 237 274 290 318 357 369 353 347 333 286 
171 153 167 171 153 165 157 161 157 157 153 167 173 173 231 328 454 435 487 516 497 466 378 263 229 357 363 345 324 300 302 298 322 308 249 183 153 161 173 179 233 249 261 251 237 235 235 231 251 278 306 306 318 310 296 292 292 290 259 263 243 257 268 259 251 237 209 179 181 219 237 257 272 306 326 306 290 259 253 209 
163 155 149 149 171 141 153 161 167 149 147 159 159 183 306 390 473 493 543 551 512 460 475 435 404 442 396 345 329 312 298 282 296 259 203 173 161 199 203 233 247 263 255 247 247 235 241 227 229 261 298 298 304 306 290 284 270 276 278 270 259 249 263 272 245 239 223 219 211 211 195 201 175 165 171 169 169 165 167 155 
169 157 155 153 149 171 165 151 153 153 159 157 145 201 304 417 471 499 543 572 491 316 361 407 427 456 406 341 328 296 294 276 259 229 195 157 185 233 243 265 251 253 241 261 243 249 255 211 213 235 272 276 288 286 274 282 265 276 266 270 251 247 245 233 221 225 177 197 197 187 167 153 133 135 107 127 125 139 157 149 
171 147 151 167 147 155 159 141 151 143 153 159 163 181 284 409 448 483 545 556 479 384 386 415 406 444 406 314 314 294 272 272 233 221 191 159 187 259 257 255 259 239 253 259 249 227 235 237 213 221 286 255 274 274 265 259 249 268 259 249 237 237 219 201 155 157 157 165 169 151 151 137 111 129 137 131 139 127 141 151 
157 161 155 163 159 155 155 169 167 153 159 153 161 165 247 390 450 456 506 524 475 495 477 450 413 421 378 304 302 282 270 243 231 213 181 159 203 239 251 268 263 243 247 259 266 247 241 253 197 219 286 265 274 280 272 259 255 259 239 219 215 187 155 143 143 139 161 155 161 143 149 143 123 127 141 147 151 141 169 145 
173 161 149 173 165 159 151 151 159 157 163 151 165 157 193 300 396 423 485 512 487 489 481 442 433 433 373 314 294 253 253 247 215 207 163 125 199 243 235 265 274 241 249 243 253 235 237 239 213 209 292 282 270 284 274 261 247 235 209 177 169 153 159 147 147 163 155 171 173 145 143 143 145 129 137 149 147 153 163 145 
165 147 155 161 171 157 175 163 169 147 153 153 173 159 161 187 233 221 278 339 375 329 270 229 308 402 365 339 304 261 243 255 231 187 129 97 141 205 251 257 298 276 241 223 229 225 211 227 213 225 284 288 296 276 227 233 251 229 225 201 197 211 217 197 195 185 165 163 177 157 149 155 139 137 147 179 159 155 169 143 
183 159 167 153 167 157 153 159 151 165 155 161 169 159 159 165 159 155 171 181 191 183 173 167 201 331 359 351 300 268 261 263 227 189 107 73 109 195 243 280 300 268 227 231 225 223 219 219 215 203 241 263 249 239 221 225 245 249 265 241 247 239 253 255 274 272 251 237 209 185 155 173 141 147 149 167 169 153 183 153 
171 159 153 169 165 151 157 163 155 161 159 145 149 153 149 157 157 161 151 163 157 167 145 163 187 280 339 316 286 265 249 259 261 191 133 89 97 195 251 265 286 259 231 227 221 215 205 237 219 211 213 235 229 229 217 239 247 259 266 270 261 280 282 274 282 280 294 255 251 211 207 211 217 199 215 221 193 193 177 183 
179 159 155 165 159 163 169 155 161 151 153 169 161 159 157 153 165 145 143 145 147 147 145 139 151 235 343 316 294 268 253 257 266 239 159 119 123 187 253 268 278 257 251 239 227 233 229 245 213 207 197 215 237 229 233 243 263 265 282 270 276 284 276 265 261 255 268 227 199 181 205 243 274 290 306 322 310 290 270 191 
187 167 155 171 165 151 167 159 161 153 161 153 159 157 153 163 151 147 157 139 149 157 143 129 147 197 367 343 296 278 257 249 251 249 197 161 155 213 263 268 268 265 259 259 227 249 233 249 229 221 231 227 243 253 266 247 263 266 290 276 296 272 255 255 259 257 239 179 153 159 203 235 290 312 347 357 373 365 357 310 
163 147 179 153 185 161 163 153 155 157 155 159 151 157 173 157 151 149 147 139 153 137 147 141 137 183 333 375 308 266 241 245 253 255 213 231 209 225 237 237 265 266 261 249 241 257 270 235 245 249 221 225 241 251 237 261 239 249 278 268 253 261 263 243 207 199 201 171 163 171 217 263 294 349 363 384 396 390 382 357 
155 149 161 151 157 159 157 155 151 157 151 171 145 161 155 161 141 141 135 139 155 143 143 141 131 159 266 363 306 286 265 245 215 193 227 235 203 197 171 157 187 195 225 213 237 243 239 237 243 251 243 266 259 251 245 247 231 215 229 229 241 227 209 201 175 165 181 185 177 179 233 274 341 375 375 369 386 380 398 343 
153 163 163 145 165 155 151 157 159 161 161 153 147 165 161 161 155 143 131 139 151 143 139 141 141 161 165 247 288 300 298 274 266 261 261 263 270 276 247 159 173 155 145 149 149 173 191 227 266 263 304 314 296 286 261 245 207 207 205 217 223 203 199 157 153 155 137 163 157 187 229 290 339 341 339 357 351 347 355 298 
171 147 153 159 157 157 145 145 173 151 149 149 155 149 151 157 159 129 131 133 137 143 131 133 125 125 135 145 187 235 280 284 280 278 268 266 278 361 390 326 265 235 239 237 247 263 266 296 329 304 318 316 294 292 243 215 217 193 181 205 195 199 199 171 143 133 125 141 145 139 153 183 217 233 259 257 241 231 245 219 
167 155 133 137 137 145 161 149 145 141 137 169 151 149 141 151 147 133 131 127 137 131 133 123 119 119 135 111 133 127 189 219 235 249 257 257 322 423 402 404 398 361 371 371 361 365 359 335 326 278 253 225 211 203 169 153 175 171 173 179 171 161 155 165 141 119 127 135 141 139 139 141 145 137 173 163 159 153 191 181 
151 141 141 139 153 141 155 145 143 137 135 139 139 135 133 151 125 121 127 127 119 123 139 115 119 115 121 107 113 109 125 117 133 153 191 229 333 429 404 413 425 396 388 394 398 384 345 261 221 175 149 149 137 133 121 115 121 111 115 129 121 127 119 105 127 107 109 121 111 111 115 125 119 127 141 151 141 135 165 145 
139 139 143 139 133 149 135 139 135 131 135 141 131 129 133 145 135 113 115 117 121 111 119 115 107 117 111 101 103 91 103 99 119 91 131 159 171 239 308 371 400 396 369 361 296 257 189 139 131 133 115 131 117 123 97 113 101 109 87 103 97 99 99 99 99 101 101 99 109 101 101 95 89 117 135 143 141 133 163 143 
155 131 139 131 133 141 131 133 141 123 127 135 135 139 121 145 119 131 103 109 121 101 111 113 107 99 89 107 93 89 87 91 95 103 111 119 123 141 129 137 177 179 185 157 141 119 125 111 105 109 113 119 113 125 103 101 93 103 97 83 95 103 97 83 81 93 101 89 103 111 101 83 81 103 121 115 135 117 133 127 
157 149 135 133 125 131 115 127 143 109 139 113 141 139 121 131 129 109 109 121 113 105 103 99 97 99 91 99 95 81 99 105 91 97 107 107 101 97 109 99 117 127 117 119 95 109 103 91 111 119 113 103 107 121 89 97 97 91 103 93 97 91 87 79 91 77 85 91 93 83 95 91 75 107 115 125 109 123 127 131 


