P2
80 60
599
209 201 181 201 191 193 197 193 199 199 211 203 201 199 171 197 185 175 181 165 169 171 163 161 159 157 147 133 133 131 129 135 149 137 121 133 157 157 123 131 123 121 107 123 129 133 137 121 149 165 145 151 145 161 153 143 137 143 145 149 157 137 141 149 145 153 145 149 169 151 139 143 157 143 129 133 125 139 159 139 
193 199 187 189 187 197 187 191 195 201 199 201 205 181 179 177 167 167 149 167 167 163 161 155 157 131 137 133 125 133 123 133 135 131 133 151 147 161 135 129 131 121 131 115 125 119 137 135 155 165 157 147 155 145 143 133 125 151 145 153 159 145 147 137 133 137 145 153 151 157 145 131 143 133 137 129 131 111 147 103 
197 183 179 189 197 205 193 205 183 201 187 189 181 183 187 185 165 157 163 171 159 159 151 153 157 143 139 133 135 131 131 137 143 141 141 155 173 151 151 131 131 129 137 121 133 135 131 141 147 163 151 159 167 167 155 147 147 161 143 151 167 153 155 135 139 157 153 153 163 163 155 167 149 139 121 135 145 127 149 135 
203 179 195 191 187 177 193 189 193 189 185 195 185 169 177 169 173 161 167 159 161 161 151 155 171 149 151 143 147 141 139 155 149 141 149 155 177 167 147 141 139 131 143 131 139 153 137 129 157 169 159 157 171 163 153 151 143 161 151 147 159 171 155 159 147 147 163 153 167 161 159 159 155 147 141 143 133 131 157 119 
205 173 185 193 199 181 199 199 207 197 193 187 193 193 175 183 171 179 177 165 169 165 171 173 185 155 155 153 165 159 145 161 159 169 167 165 183 159 159 149 151 137 139 145 137 165 141 161 149 181 155 173 169 173 165 161 133 157 157 157 163 159 159 169 157 155 163 149 177 175 163 167 167 155 141 135 141 145 159 135 
213 177 185 197 181 185 201 195 193 189 199 189 203 183 195 177 185 179 171 177 169 181 179 161 179 165 163 153 155 147 165 151 161 161 165 165 183 173 153 151 149 143 131 135 137 157 163 157 159 165 173 173 165 171 155 169 151 163 147 163 165 161 157 157 159 161 155 173 163 155 169 169 159 161 145 151 155 131 165 153 
201 169 201 187 189 205 205 203 207 207 191 207 195 193 201 189 179 185 173 173 183 177 181 165 179 149 171 161 155 159 153 157 171 161 155 177 189 177 159 153 159 149 147 153 163 159 165 159 157 175 173 181 167 187 171 167 169 147 149 155 169 169 169 157 167 173 161 165 171 181 171 161 161 177 153 151 147 155 181 165 
191 165 185 195 201 191 197 193 195 203 191 197 187 197 191 179 167 171 175 173 171 183 167 169 163 161 163 155 155 165 169 155 167 165 171 161 201 179 151 161 153 147 157 155 155 177 153 169 167 181 197 183 185 177 169 155 161 157 157 165 173 161 161 163 171 163 159 177 165 167 163 173 173 169 159 149 163 147 185 159 
199 187 183 195 189 193 189 193 211 199 177 199 191 199 181 195 181 181 177 171 175 163 177 169 167 169 163 155 163 169 167 163 181 179 181 179 199 179 171 157 155 165 159 161 187 201 173 171 181 183 171 173 171 179 161 163 149 163 161 173 169 161 165 169 171 179 171 193 183 195 187 171 171 175 169 175 185 187 219 197 
191 175 179 195 193 199 195 197 191 213 195 195 195 177 179 187 175 169 183 175 169 175 177 173 171 167 169 151 167 163 165 173 173 175 179 189 207 193 173 195 177 185 195 225 193 197 177 171 189 193 197 171 175 191 157 165 157 163 155 161 163 161 173 165 155 171 163 177 191 189 197 187 217 237 241 275 290 292 324 314 
195 179 191 187 205 199 189 189 193 185 195 193 185 179 193 187 193 175 171 179 173 171 183 175 167 165 169 157 171 163 179 181 181 179 175 193 211 215 225 245 267 348 391 435 404 348 181 173 189 195 177 173 189 179 163 151 145 159 151 167 165 177 149 163 169 171 187 189 201 221 235 265 310 365 385 379 379 379 389 377 
193 185 191 195 199 193 209 187 185 187 177 189 169 177 189 187 169 175 169 171 179 185 179 171 173 173 173 167 169 167 179 173 185 185 205 239 294 296 281 265 300 449 455 501 519 503 288 181 177 195 183 167 177 163 157 157 155 163 163 169 183 191 203 205 219 237 235 265 283 298 324 320 330 381 393 395 404 397 418 375 
183 193 193 193 203 187 197 201 195 187 185 187 177 183 183 171 173 183 177 185 175 163 165 173 171 153 167 165 167 175 175 187 181 215 300 371 369 336 332 316 310 363 459 480 495 521 443 215 183 187 187 177 189 193 187 181 169 187 205 243 239 231 255 263 267 288 271 279 310 357 342 334 340 385 397 395 395 389 402 330 
207 187 191 181 177 201 189 177 181 197 193 179 191 167 171 175 183 175 169 171 157 177 165 165 163 161 153 155 155 167 163 197 243 348 348 300 237 163 171 243 275 312 379 367 451 493 466 326 217 199 203 191 181 209 241 237 239 239 229 237 229 229 245 255 281 290 298 296 316 369 369 350 367 381 377 375 385 338 296 227 
205 171 195 187 191 191 191 177 179 193 179 173 177 189 167 167 175 159 165 171 161 173 181 169 165 165 155 149 177 185 191 227 375 400 365 326 271 235 187 183 221 233 239 219 320 416 428 381 265 235 253 219 217 225 239 229 221 237 229 233 259 255 255 259 283 287 300 302 310 340 342 348 355 375 330 306 265 207 189 169 
195 179 185 183 185 191 191 181 193 201 183 185 177 183 175 177 175 173 169 175 169 179 175 165 171 175 169 175 187 169 195 271 420 400 367 348 353 316 281 213 177 135 113 141 187 328 377 395 334 285 249 225 211 209 251 233 235 237 237 243 273 255 265 281 290 290 283 283 292 316 300 296 269 255 215 193 191 169 183 153 
189 175 195 185 187 171 187 187 197 193 181 191 187 171 187 177 163 169 179 169 183 171 171 195 177 175 179 183 191 189 207 290 389 385 383 397 414 365 281 191 107 81 145 157 187 287 383 397 389 320 259 253 201 189 213 253 249 243 263 271 275 265 281 279 281 281 298 288 287 259 229 217 207 199 171 167 175 155 179 155 
193 185 183 183 185 193 185 197 185 197 175 193 193 191 181 183 189 199 189 189 189 183 185 191 189 187 197 187 191 207 227 304 363 381 406 414 449 367 263 133 59 111 201 235 263 292 393 457 433 383 322 273 221 169 211 263 263 277 273 287 269 269 279 292 298 316 310 281 253 243 229 217 209 195 175 183 175 177 189 167 
193 191 197 201 191 185 193 197 197 187 179 189 185 203 191 177 191 191 193 185 193 187 215 201 219 239 283 235 245 241 273 369 342 387 402 400 404 336 209 79 57 145 233 287 300 308 383 400 416 379 350 277 211 187 199 261 251 290 283 287 281 288 285 300 290 287 269 255 237 227 219 221 201 193 171 169 183 161 193 161 
195 185 179 187 193 175 193 191 199 201 197 205 193 179 183 187 181 195 185 183 191 197 227 235 287 416 464 435 406 476 488 451 296 377 412 363 342 257 157 89 71 175 255 292 322 338 379 387 404 381 344 267 189 179 211 269 285 292 283 283 285 288 287 271 269 267 231 233 233 215 207 203 199 201 177 177 165 171 189 177 
193 193 183 191 199 191 183 203 197 193 197 203 195 193 179 169 195 179 183 185 199 213 287 336 460 559 559 553 507 530 555 474 273 328 422 330 298 225 125 77 85 225 281 306 312 324 363 385 391 410 353 231 153 173 233 279 298 283 275 271 283 265 255 271 241 249 239 227 223 221 213 209 201 185 181 163 185 171 207 169 
185 181 189 183 187 183 193 193 205 193 183 195 187 195 189 187 175 193 189 179 201 273 353 412 542 555 486 505 478 509 565 476 355 387 437 353 294 223 103 57 91 231 312 312 310 296 342 383 387 395 365 141 0 167 229 273 300 283 271 269 273 275 269 273 255 223 221 223 241 225 211 197 187 173 179 171 171 173 189 175 
203 183 179 191 189 197 197 181 201 199 191 193 179 187 181 177 173 173 177 193 209 308 416 497 586 565 470 491 484 509 567 468 418 449 422 363 334 277 181 81 103 199 287 326 316 287 312 381 429 422 371 173 131 135 207 271 269 269 265 279 257 296 294 287 283 257 229 233 237 235 215 199 201 185 165 177 191 171 201 163 
189 177 189 187 199 181 175 191 185 199 193 195 189 191 199 191 175 197 179 193 219 290 424 499 577 546 509 507 507 476 540 472 437 429 412 393 387 361 304 221 189 211 267 318 328 318 300 371 429 437 320 193 139 77 129 229 271 269 287 294 277 308 298 312 288 288 288 263 247 243 233 201 213 193 171 179 179 181 207 183 
181 191 185 191 201 183 185 199 197 205 181 191 191 187 187 175 185 179 173 183 201 277 398 433 474 521 540 530 451 338 332 404 414 393 385 402 410 381 351 269 209 213 253 285 312 296 336 391 429 416 287 213 189 45 22 193 271 269 267 287 271 312 306 306 298 306 314 290 290 281 287 233 227 221 213 203 199 187 195 177 
177 171 183 181 193 179 197 173 195 193 191 197 177 193 177 179 187 189 181 185 189 227 279 288 277 326 365 330 253 229 237 330 397 385 351 369 398 367 340 281 217 183 229 283 306 302 336 391 404 385 275 249 207 127 125 203 245 263 263 265 265 277 279 288 283 298 312 302 304 318 353 332 310 314 318 318 310 271 257 217 
177 171 189 183 175 185 185 187 181 181 185 189 185 171 175 183 191 201 177 173 187 187 207 205 207 205 195 189 195 205 219 267 395 395 340 326 314 314 312 275 285 245 227 269 290 324 371 410 428 330 298 247 219 161 207 247 241 231 231 229 227 233 243 249 277 281 281 285 281 324 369 340 334 355 371 375 391 377 377 328 
191 167 185 179 183 171 175 191 167 187 189 169 181 185 183 171 173 175 171 173 179 167 179 177 185 181 173 179 185 189 197 229 387 416 334 247 121 83 203 273 304 338 306 249 275 365 437 468 418 300 290 245 237 211 225 249 237 205 181 215 227 231 233 227 257 251 271 271 273 316 353 336 338 357 367 389 404 408 429 389 
193 185 183 191 175 187 183 191 177 183 185 189 181 183 179 185 165 165 165 173 167 177 181 171 167 165 167 165 165 181 173 201 312 426 389 322 113 169 298 338 342 400 441 391 393 478 505 495 361 277 288 255 249 235 235 205 181 215 191 169 223 225 241 247 243 233 257 261 231 314 334 338 338 350 359 379 402 414 426 414 
183 185 177 177 183 183 185 191 191 183 185 187 171 177 171 173 171 165 171 185 173 167 173 181 179 173 177 173 169 179 183 201 227 330 422 398 357 359 363 351 326 460 484 482 476 524 552 460 275 255 233 227 225 207 175 149 151 213 213 193 211 223 239 243 245 243 251 235 239 287 290 302 332 342 359 377 406 393 385 367 
193 177 185 193 191 187 181 181 189 199 175 181 179 165 183 171 177 181 173 177 177 197 183 175 183 177 167 171 189 171 183 205 207 229 338 420 420 408 443 406 393 499 495 499 517 548 532 340 227 235 213 217 221 221 203 191 183 195 187 183 189 199 211 213 247 261 247 241 241 233 241 219 237 247 253 259 279 243 251 227 
179 175 167 183 185 179 183 195 183 183 183 171 183 179 181 179 169 179 169 189 187 195 177 163 179 177 183 165 179 185 183 191 209 213 229 277 344 389 451 443 426 457 431 480 505 484 359 225 205 227 205 209 199 197 191 191 179 181 187 171 179 177 197 201 245 245 243 245 235 227 223 205 195 187 173 173 185 159 191 169 
183 187 181 195 193 187 181 183 183 173 187 191 191 189 187 171 181 181 179 185 185 191 179 195 197 189 177 187 187 191 189 199 225 233 245 283 314 367 445 443 441 412 383 320 263 231 217 183 205 221 221 217 219 215 203 191 185 169 167 177 177 175 203 211 233 245 245 243 245 231 217 193 193 195 169 167 167 149 163 169 
163 177 179 187 175 191 197 187 193 183 197 181 193 183 187 183 179 185 189 187 183 183 201 179 195 187 191 183 215 231 271 310 334 342 340 350 348 361 478 464 422 385 328 287 219 203 193 193 217 223 233 215 219 209 201 197 199 187 183 179 193 199 201 219 239 249 253 247 239 229 221 203 183 191 163 161 159 159 169 173 
181 173 195 181 175 187 179 171 189 187 201 199 185 189 189 179 183 185 179 179 183 197 197 193 193 191 193 211 287 322 340 361 359 371 357 357 334 367 464 472 445 375 324 294 197 187 187 193 213 209 227 201 225 217 225 213 231 285 267 267 245 235 217 213 231 227 211 241 241 225 225 219 211 203 191 181 157 161 189 161 
181 183 193 187 175 175 191 187 173 195 193 189 195 179 183 183 187 195 191 181 183 187 195 195 195 191 209 271 406 377 330 324 359 348 359 351 359 371 443 470 443 391 350 290 217 205 189 205 235 223 247 257 261 308 336 328 306 288 300 298 279 251 237 227 229 215 221 235 237 239 241 255 271 287 263 251 253 213 223 195 
165 175 177 177 177 183 183 175 181 185 193 189 187 177 189 191 185 169 175 191 191 181 199 187 187 207 227 359 422 387 361 344 336 353 393 379 381 371 414 418 318 273 261 261 273 251 285 279 277 277 288 314 310 324 351 348 304 290 296 279 298 281 271 241 221 219 217 223 241 245 281 318 373 375 379 367 363 330 338 306 
179 183 171 185 173 169 179 179 179 183 179 195 183 179 189 181 187 189 187 189 189 205 193 205 205 223 273 375 385 383 371 348 306 292 330 357 387 359 350 336 308 292 304 314 332 306 308 298 296 304 300 296 306 308 334 332 300 292 288 285 273 273 265 249 241 229 209 227 215 243 290 330 367 389 402 393 385 367 369 340 
175 193 187 173 189 183 187 201 189 183 171 189 189 189 187 219 237 271 267 241 227 223 221 225 217 239 328 381 369 371 336 326 302 298 263 259 281 300 287 267 259 279 298 294 312 287 292 294 306 326 310 312 310 308 318 296 310 288 279 215 191 225 239 243 237 245 221 207 191 205 290 318 350 367 393 404 385 373 383 338 
193 179 183 179 169 181 195 179 193 199 181 179 181 185 223 275 400 447 464 486 453 416 361 259 221 296 367 359 351 332 322 330 340 340 288 231 225 223 215 223 239 277 287 285 294 279 279 281 298 320 316 318 308 324 306 283 300 287 263 179 95 223 251 245 229 243 219 197 209 223 263 296 314 359 389 395 381 365 369 322 
193 177 181 201 177 191 185 185 177 191 185 193 193 205 287 389 490 495 546 599 530 488 451 371 296 408 406 369 351 334 324 326 350 328 255 199 183 191 207 217 255 271 279 271 263 257 251 249 271 292 332 312 322 334 326 306 294 306 271 261 223 247 265 247 241 251 245 215 207 257 267 277 302 334 342 332 314 275 288 201 
177 185 169 179 195 165 175 187 191 181 179 187 183 201 336 408 495 524 575 596 530 435 418 418 445 462 431 375 369 346 328 312 316 271 207 193 193 227 245 265 271 279 275 263 267 255 265 251 255 275 300 302 314 326 316 304 290 298 296 290 273 259 285 283 261 253 253 249 229 235 225 213 193 187 179 177 189 183 197 181 
199 181 183 187 185 193 175 175 187 181 199 191 179 223 306 426 464 511 561 592 536 381 395 443 441 476 428 367 357 328 316 296 292 251 217 187 227 263 277 288 273 275 259 279 275 267 277 247 237 245 287 290 300 292 294 288 285 300 285 288 271 265 263 263 247 265 227 231 219 215 199 177 163 159 133 153 153 169 185 185 
197 175 173 193 177 189 185 171 169 175 181 189 193 203 275 420 462 482 538 573 515 507 505 488 449 466 424 336 351 324 298 294 263 239 209 175 219 283 288 283 281 267 269 279 275 255 257 261 233 229 294 265 283 292 277 279 271 281 283 283 275 269 253 241 201 201 191 201 195 181 175 159 139 163 159 155 161 153 175 175 
171 191 189 193 187 185 185 191 197 193 193 181 185 189 231 365 474 474 528 553 517 534 524 524 484 455 404 336 338 302 283 267 253 239 189 167 239 281 279 298 287 273 271 281 288 267 261 269 235 229 285 273 285 292 300 271 273 281 267 259 251 231 199 177 173 173 185 179 179 183 181 157 151 151 159 165 185 165 203 165 
183 183 177 195 195 189 185 179 185 191 197 183 191 195 191 249 322 369 406 484 491 445 387 367 418 464 395 344 326 300 288 283 251 233 173 131 225 267 275 298 298 267 261 261 281 265 243 265 241 217 283 285 281 302 290 277 267 261 233 207 199 181 189 183 183 191 181 197 197 175 167 163 161 149 161 175 167 165 187 173 
173 167 175 183 191 191 195 191 203 179 181 175 195 187 175 179 223 217 225 253 269 207 209 229 273 412 397 379 344 302 290 277 259 201 133 115 163 221 285 288 324 298 259 243 251 249 231 243 235 239 279 310 298 290 245 235 255 239 239 217 225 231 241 229 215 211 199 197 207 179 187 179 167 161 165 191 175 149 199 161 
185 177 193 179 195 179 189 181 181 197 177 195 189 187 185 181 183 193 189 203 201 205 189 211 227 340 389 375 334 308 290 290 261 207 123 89 131 225 275 308 316 290 243 251 247 253 245 241 233 217 241 265 257 247 227 223 247 251 267 261 263 267 275 267 288 290 273 255 231 215 189 195 173 181 171 189 181 173 191 209 
183 183 185 179 199 179 191 191 181 189 187 177 181 181 175 181 181 191 173 197 183 199 187 195 213 285 367 340 316 304 283 285 294 215 147 107 139 225 288 298 298 277 255 253 245 251 243 275 237 227 219 231 229 233 231 245 255 261 269 281 275 287 288 288 290 300 310 285 275 239 237 229 231 237 237 245 219 201 207 205 
201 185 177 193 187 197 189 187 187 183 185 187 195 189 181 169 181 171 181 171 171 177 183 185 179 245 377 350 324 306 287 285 290 259 175 139 165 207 283 296 292 277 269 257 257 257 265 287 247 221 213 227 245 253 255 261 275 269 292 279 287 292 288 275 273 271 294 263 225 215 233 249 308 326 328 346 318 296 302 221 
189 193 179 199 191 183 193 197 197 185 189 185 195 183 185 183 181 175 191 175 177 183 173 177 181 225 410 377 332 318 298 281 287 271 225 183 217 249 292 292 288 285 273 277 255 275 277 294 261 243 245 239 255 271 281 267 279 279 296 292 304 290 269 267 265 277 267 221 177 181 221 257 318 351 373 371 391 369 387 338 
191 177 201 179 207 191 191 187 193 189 183 189 177 185 201 175 181 187 181 167 179 171 177 177 171 211 346 414 379 318 298 277 273 269 243 257 249 249 265 261 285 283 283 269 273 277 302 267 263 275 255 253 259 271 267 277 257 277 290 271 267 283 277 249 223 229 229 213 191 199 245 306 330 383 377 395 402 395 412 373 
187 183 185 183 195 193 183 183 179 191 185 195 181 197 191 177 167 177 179 169 179 181 183 169 167 185 269 393 357 330 304 283 229 223 249 257 261 229 193 183 211 221 241 235 267 277 279 269 265 283 265 281 287 277 273 267 259 251 253 253 257 253 239 217 211 191 209 215 203 217 261 306 381 422 400 393 408 398 426 367 
185 191 185 181 189 179 179 187 185 199 193 187 181 195 193 173 179 171 163 165 169 175 177 167 177 177 185 239 298 330 336 316 300 292 290 287 324 328 316 209 197 179 167 175 187 197 227 269 300 290 322 336 322 302 283 269 245 245 231 241 237 225 209 187 183 181 161 185 181 207 257 308 367 379 371 385 381 365 383 314 
191 171 185 185 187 181 177 179 197 195 181 179 185 177 185 175 171 161 165 169 165 169 165 171 167 151 169 169 195 237 290 312 298 292 277 273 324 404 422 383 324 298 298 296 306 314 312 332 350 338 342 346 332 320 275 247 257 237 207 233 219 231 227 201 169 159 151 181 175 159 179 191 237 271 281 292 277 261 277 259 
195 183 159 171 173 177 173 175 175 179 175 197 177 181 169 165 167 157 161 161 155 171 169 165 153 151 159 135 155 165 199 213 237 253 277 271 377 445 433 439 429 397 397 406 398 391 379 355 344 314 283 255 251 231 209 187 199 207 207 209 197 205 187 191 171 147 155 159 171 167 171 151 167 183 197 187 187 183 207 171 
179 173 191 183 183 173 181 181 179 169 169 177 179 169 175 169 157 147 173 157 149 159 171 155 147 141 147 135 147 143 157 143 157 165 189 229 348 418 429 429 445 424 414 420 416 404 361 288 245 209 175 173 167 169 159 147 147 149 141 161 149 163 147 133 155 143 131 149 131 147 151 141 151 161 163 173 183 161 191 169 
165 161 171 193 163 175 167 157 167 167 175 179 161 171 179 169 161 143 159 151 143 141 157 153 143 135 131 135 131 131 131 123 135 115 135 175 189 217 281 351 383 383 357 346 287 255 187 159 155 163 137 151 141 151 135 137 127 143 109 133 137 123 133 139 145 127 127 123 141 135 131 113 117 155 151 165 175 151 195 177 
169 153 161 163 159 169 155 173 155 149 153 163 161 161 159 161 145 159 145 133 149 133 159 157 141 123 115 139 121 125 131 127 125 123 129 147 159 153 151 161 155 173 167 157 147 139 151 147 131 139 133 137 141 151 137 123 125 131 121 109 131 133 129 109 115 127 119 127 137 135 131 107 109 135 149 143 163 139 179 157 
185 155 171 147 153 161 145 163 171 141 159 155 167 165 149 151 147 147 149 151 143 141 145 141 133 119 121 131 123 111 129 129 123 119 133 133 147 131 123 127 131 145 127 141 109 125 133 127 137 157 135 135 137 145 129 119 125 113 133 115 123 121 125 105 117 101 113 127 113 107 119 109 103 143 139 149 145 135 153 157 


