P2
80 60
655
117 135 115 107 107 123 123 117 131 149 113 115 125 137 129 139 137 143 127 113 121 105 113 135 141 179 413 520 508 493 403 415 376 369 365 369 367 378 376 367 361 372 372 390 400 427 442 477 489 485 462 450 396 359 343 324 290 251 237 241 294 306 310 327 310 243 225 243 268 259 272 253 264 292 288 266 302 324 365 353 
121 117 97 107 107 109 115 121 137 137 131 131 127 113 111 121 129 135 125 123 131 113 113 121 127 183 413 518 512 510 431 403 367 347 335 347 339 367 357 351 349 327 347 331 337 331 361 378 415 442 464 462 448 438 436 419 405 382 357 363 353 298 276 288 302 268 245 257 298 300 312 268 270 312 292 306 325 327 347 347 
113 121 121 107 131 121 97 111 113 125 115 115 135 123 115 127 121 139 155 173 139 149 155 147 153 247 365 415 510 516 467 446 415 382 365 367 353 369 359 363 347 345 337 335 325 327 318 327 325 337 374 417 444 465 469 454 452 433 423 386 361 308 272 261 286 284 306 308 341 343 325 288 259 276 284 312 335 345 361 343 
113 113 123 103 107 111 127 123 117 129 123 111 115 125 113 117 137 161 247 320 302 365 372 253 215 371 405 421 491 554 516 496 456 421 388 390 388 390 378 349 347 339 339 349 329 329 320 316 310 316 304 339 353 415 464 489 450 429 450 440 413 376 324 302 286 325 367 345 341 347 331 296 270 264 280 302 324 331 331 318 
109 121 115 107 123 103 113 125 115 123 123 115 127 117 113 127 143 274 429 504 537 539 529 510 502 585 573 510 500 514 496 483 464 436 386 376 378 390 378 351 341 341 345 355 329 329 314 306 290 278 284 308 302 327 335 402 411 407 433 436 462 458 396 331 304 341 343 335 327 324 308 296 312 288 308 318 367 357 331 298 
111 109 101 105 109 99 125 117 115 119 123 119 131 111 129 131 203 413 533 575 583 587 598 606 642 648 631 633 583 510 415 433 429 388 384 380 372 384 384 361 365 365 369 353 347 314 298 294 286 272 274 278 266 280 282 296 324 359 380 378 400 394 353 324 329 320 325 341 335 306 300 276 310 300 294 306 308 290 245 175 
111 111 113 107 105 119 115 137 131 119 125 129 123 123 133 153 268 438 562 572 600 602 598 608 621 638 655 648 642 621 471 436 398 363 361 369 353 382 378 392 419 409 394 363 355 339 324 304 296 270 272 280 249 243 253 253 284 300 294 294 268 270 272 320 347 320 335 325 329 316 253 255 259 266 209 189 165 155 165 169 
109 103 121 123 127 123 113 135 123 139 127 113 139 139 131 167 264 438 581 608 606 585 533 568 579 596 612 634 644 600 469 464 417 427 415 425 421 431 419 431 444 436 405 386 388 371 327 331 306 290 288 286 266 245 249 235 257 280 274 261 272 268 286 322 312 300 312 288 272 247 201 207 179 175 151 141 147 129 147 159 
101 123 107 121 119 115 121 125 123 117 125 127 137 127 125 147 253 396 522 608 592 564 496 535 524 493 541 539 572 485 400 448 477 477 448 450 433 421 417 423 423 413 398 398 394 394 371 335 337 294 300 282 268 247 239 243 270 282 296 290 294 286 288 298 284 264 229 219 207 195 181 171 169 161 135 141 151 145 141 169 
123 117 117 109 117 133 123 131 115 125 131 135 139 133 135 149 175 329 434 518 570 556 539 510 363 243 207 233 324 363 419 518 533 514 464 440 423 419 411 407 398 392 400 390 396 376 353 347 335 320 314 312 296 284 276 259 257 288 312 290 284 266 221 189 179 177 175 167 185 179 183 169 187 169 147 159 137 141 139 153 
119 111 129 107 115 123 119 123 113 119 121 119 131 127 125 127 141 177 278 369 400 376 367 286 169 139 155 165 179 239 376 522 516 495 452 427 417 413 411 409 402 402 396 394 398 407 386 384 386 367 374 367 371 351 310 264 266 292 308 308 343 357 219 169 171 163 171 165 171 175 181 191 195 191 163 153 157 155 149 149 
127 105 117 111 125 123 113 111 115 123 119 127 115 127 129 113 121 137 147 153 151 149 139 137 127 151 149 161 161 171 296 491 500 467 444 419 429 421 421 409 409 403 396 496 527 531 529 522 522 516 524 537 529 481 403 325 369 429 438 371 327 384 237 175 163 151 161 173 167 191 179 197 199 205 183 167 171 143 153 157 
101 123 125 109 127 127 107 121 117 111 121 117 117 127 113 123 117 143 121 129 131 119 103 131 133 137 141 155 153 165 193 392 481 465 436 413 421 421 415 398 376 359 347 467 522 512 493 500 512 508 524 524 508 485 469 473 471 460 438 372 361 371 217 163 161 165 163 183 191 195 187 197 213 209 199 183 183 157 155 161 
123 105 117 121 107 127 125 123 123 137 135 123 129 117 111 109 123 127 125 127 123 111 117 119 117 129 121 149 147 175 257 456 462 438 429 427 427 431 415 386 331 318 329 434 502 467 384 333 372 423 438 465 462 448 440 436 427 419 413 403 394 331 253 217 187 193 205 213 211 213 201 221 237 229 207 193 199 177 167 185 
129 123 127 119 123 123 125 115 113 125 133 109 115 117 103 109 129 125 125 125 117 105 117 117 121 127 125 153 159 213 411 495 469 456 452 479 469 473 469 427 372 353 376 462 483 467 438 423 419 423 444 467 465 456 448 400 392 367 351 345 359 363 353 349 327 308 294 276 276 268 270 280 288 298 278 280 261 268 245 261 
125 109 121 119 113 123 111 115 117 127 111 99 111 111 123 109 119 133 129 123 131 107 113 123 123 131 125 161 175 257 460 504 506 518 493 495 491 458 431 438 419 421 433 467 473 487 467 475 493 462 444 456 456 438 431 380 384 386 359 355 376 376 374 365 361 343 322 308 290 288 310 310 324 333 327 329 363 365 349 359 
117 111 111 101 115 103 109 127 111 119 119 119 125 117 107 125 113 117 119 123 121 115 113 131 143 133 151 187 211 284 429 512 508 508 524 504 485 454 456 452 427 425 405 411 471 471 475 510 518 500 433 415 421 402 374 376 371 384 388 369 398 398 372 388 386 365 347 337 320 300 298 324 343 345 333 333 351 371 388 361 
103 105 117 111 105 123 117 113 121 117 101 111 119 113 117 117 139 131 141 133 143 123 131 151 167 169 169 205 349 390 403 516 516 508 502 483 462 456 462 462 442 440 438 403 429 425 452 489 423 465 411 374 396 374 367 363 380 403 409 417 421 396 396 409 409 400 386 384 363 320 327 353 371 371 345 343 357 357 376 361 
99 111 127 121 117 109 123 127 129 131 123 125 123 127 135 133 133 139 155 149 163 209 221 268 314 268 255 296 496 570 467 496 491 483 477 465 454 452 452 456 458 458 442 413 429 433 402 411 329 363 386 355 382 365 351 329 357 392 409 423 409 405 411 423 427 415 405 398 363 345 349 367 365 371 343 341 351 347 331 339 
121 121 119 109 115 109 117 119 109 121 125 119 129 113 115 131 123 135 145 177 300 423 477 504 537 516 491 573 585 602 526 487 460 425 415 409 419 423 431 433 454 448 442 425 433 475 460 388 351 361 361 361 361 345 335 320 369 376 396 390 382 380 369 359 359 359 363 351 316 308 298 288 290 288 276 276 280 288 300 335 
129 133 115 121 133 119 117 141 125 121 131 129 139 137 123 133 139 163 149 270 452 510 531 531 552 545 558 592 604 602 541 491 465 440 442 425 429 436 446 450 454 450 427 423 462 504 498 456 394 371 372 349 343 351 347 343 402 427 394 324 282 261 235 233 235 231 251 259 247 239 243 235 227 229 233 225 255 259 292 308 
109 127 123 105 121 121 123 129 123 137 117 125 141 121 111 143 129 145 201 365 493 493 520 498 502 518 541 562 608 606 502 506 506 491 487 460 440 436 448 469 460 460 452 452 469 506 495 496 405 388 371 365 371 363 371 388 405 425 419 415 384 367 335 308 314 292 290 286 286 284 272 276 292 296 322 324 333 351 353 367 
113 123 113 119 125 121 123 125 127 127 135 127 131 127 113 129 143 157 197 376 516 506 510 535 526 535 520 575 575 560 458 514 518 496 481 458 444 431 427 427 433 440 442 467 471 481 477 446 382 384 372 374 386 376 403 413 434 431 438 442 450 446 444 436 440 423 423 407 372 359 345 351 372 371 376 394 400 384 380 378 
117 117 133 113 123 113 113 117 113 125 133 127 123 127 131 141 135 157 177 327 483 491 526 560 541 531 475 446 485 433 431 510 495 493 485 462 438 429 427 398 390 388 423 475 483 493 429 423 392 398 411 390 411 394 405 407 415 431 436 433 446 452 444 454 458 436 446 425 372 361 331 329 367 371 380 390 396 386 396 378 
101 127 121 115 111 117 113 133 139 129 129 131 129 123 129 127 139 139 165 213 369 475 491 510 487 421 306 239 302 396 444 479 471 460 456 438 429 388 365 372 407 415 427 479 475 464 411 433 398 438 415 396 419 392 396 384 388 427 425 429 436 444 434 431 440 427 427 398 369 320 314 333 337 359 351 353 365 363 374 363 
115 107 113 119 121 131 123 127 125 131 127 121 119 129 129 129 137 137 137 161 235 320 339 318 255 205 203 209 221 365 471 469 442 433 409 392 357 369 339 363 421 446 458 479 469 440 436 423 427 434 415 384 411 421 405 380 376 400 421 427 423 411 403 417 421 411 413 390 337 322 320 327 357 325 341 314 329 320 302 288 
101 105 113 115 107 113 111 131 109 117 119 115 127 113 111 125 127 139 137 137 143 151 145 157 165 157 173 185 187 339 491 458 409 388 355 359 343 365 363 440 458 456 469 469 467 452 436 407 413 400 380 374 394 419 421 382 363 365 394 411 413 402 400 394 388 382 378 365 337 312 329 298 278 276 262 235 213 215 219 221 
107 115 107 113 117 103 113 135 111 111 131 107 113 125 115 115 121 135 121 123 123 111 123 137 151 149 153 175 181 280 444 429 388 382 361 355 363 372 421 467 469 473 498 469 483 413 357 372 386 369 345 361 347 396 392 378 347 351 353 369 355 345 316 298 262 255 243 276 280 278 261 247 235 223 209 185 181 191 193 195 
113 129 119 117 115 127 105 131 121 121 129 115 127 123 115 121 121 119 121 123 129 137 121 129 133 147 139 169 161 227 349 394 355 357 345 386 378 394 444 495 506 481 489 483 450 333 280 286 266 262 253 257 257 268 237 225 211 215 201 193 167 179 177 183 187 187 215 247 245 259 259 245 225 209 185 173 169 175 181 167 
105 115 127 111 115 103 117 123 121 135 123 109 113 107 117 111 107 103 119 131 125 145 127 131 135 147 135 167 165 251 380 369 318 304 290 335 369 398 452 500 485 471 464 462 425 288 264 237 243 231 253 247 211 209 211 223 233 237 245 229 213 217 217 243 243 239 241 251 261 251 239 243 225 195 167 163 169 155 165 163 
125 107 111 113 123 101 109 115 117 131 121 119 111 121 99 103 123 121 131 189 262 247 195 177 165 155 125 159 187 324 372 351 294 308 298 300 347 425 471 458 464 394 339 347 320 274 272 284 294 294 284 296 249 223 227 251 312 347 337 306 282 270 272 266 274 259 235 259 261 257 243 229 233 201 195 151 165 157 159 167 
119 111 129 115 125 115 113 135 111 117 119 117 121 119 121 125 133 133 181 324 363 286 253 333 394 264 157 183 215 361 367 367 331 339 329 331 361 409 429 427 427 268 185 276 286 259 243 296 245 294 272 276 245 225 241 276 333 374 382 335 322 335 282 237 227 231 213 241 237 261 247 257 272 276 223 205 191 167 175 167 
107 113 131 113 121 117 111 125 119 115 123 107 123 137 125 125 137 151 294 347 357 324 349 442 520 434 284 243 288 374 347 388 384 402 376 349 367 345 413 384 302 247 169 177 241 259 255 302 257 245 243 262 255 247 235 261 304 331 353 351 324 316 288 219 213 197 191 193 207 235 272 302 335 339 339 316 302 264 239 191 
103 133 141 125 123 131 117 121 119 127 135 135 133 133 123 127 145 225 353 365 355 372 442 527 552 537 477 417 405 386 372 394 411 450 423 390 382 372 324 249 223 235 189 181 197 243 264 282 257 253 243 239 253 261 237 255 262 288 300 322 316 300 268 217 215 195 195 187 197 235 300 329 331 345 347 351 371 359 351 300 
109 109 119 125 125 127 121 115 125 127 137 133 119 133 133 131 153 264 345 339 392 467 533 541 516 531 543 512 438 394 384 429 396 438 434 388 351 286 257 249 245 233 219 239 205 266 261 280 262 261 247 223 247 247 247 243 239 266 270 292 300 310 270 229 217 213 203 195 203 257 306 314 324 327 343 357 357 374 359 349 
109 121 121 115 117 115 125 117 121 137 135 129 131 131 121 141 151 282 343 369 409 496 537 531 427 436 529 471 450 458 444 471 452 436 394 324 261 217 215 235 262 237 262 268 245 255 262 272 247 253 241 221 239 259 257 259 243 255 261 266 261 253 247 229 223 207 215 203 209 237 284 288 280 286 308 312 312 306 306 314 
109 109 131 119 117 119 115 125 127 123 117 125 119 121 131 141 147 221 300 371 403 454 508 508 444 469 514 450 433 413 423 465 413 349 261 191 207 167 189 239 280 280 280 306 308 278 270 264 237 257 227 233 237 266 262 272 255 245 243 261 253 261 264 245 243 207 215 211 213 231 243 237 259 247 237 223 223 217 209 229 
125 117 125 119 113 121 119 111 123 119 113 123 121 115 131 137 133 159 195 268 300 318 440 516 502 526 454 398 423 386 417 444 371 304 231 173 191 159 183 215 270 282 288 298 312 276 266 264 223 237 219 207 221 245 278 278 264 255 257 270 261 261 268 235 235 225 221 207 209 227 217 223 207 203 177 175 159 161 155 197 
97 113 115 109 115 117 121 139 125 121 125 121 119 143 131 141 139 139 147 169 173 179 219 286 318 284 215 266 425 415 411 462 374 318 272 185 213 167 181 245 272 274 284 278 282 264 266 259 219 223 217 177 153 225 280 270 249 239 247 268 270 251 233 227 215 217 201 217 217 209 207 193 203 195 175 167 171 173 195 203 
99 123 127 115 115 113 113 127 119 127 129 119 133 123 129 133 129 137 145 147 131 129 141 167 165 173 175 207 355 405 419 464 433 398 347 209 183 163 205 262 274 276 290 284 249 237 251 249 223 211 197 173 191 251 284 268 266 249 262 272 243 235 217 213 203 199 203 203 201 213 205 191 195 199 195 191 223 223 231 223 
97 131 129 121 117 133 121 121 137 115 117 121 131 131 135 131 129 149 129 147 131 125 135 125 145 155 157 183 320 407 440 448 448 433 392 296 219 215 241 282 296 296 292 300 257 245 257 247 205 195 185 189 213 259 270 280 270 278 270 272 251 245 253 257 255 239 217 219 161 197 201 189 173 185 197 225 225 241 239 227 
113 129 129 111 125 125 111 129 125 125 113 109 121 113 135 127 125 129 135 131 133 115 119 135 145 143 153 181 276 386 347 371 390 390 400 363 345 306 282 280 306 308 288 292 261 257 257 251 203 165 165 185 241 245 266 264 266 259 261 259 259 266 292 284 262 272 261 249 181 195 189 177 187 185 191 205 199 207 213 219 
113 105 117 107 123 119 133 113 119 129 111 117 101 125 127 121 117 127 131 123 123 119 125 133 127 137 137 159 229 345 298 274 327 351 365 382 378 365 369 351 345 292 284 276 255 233 211 209 199 161 177 189 211 235 239 245 251 257 253 245 253 264 282 294 278 300 278 257 253 251 213 225 241 245 229 231 201 191 181 187 
115 117 121 119 109 123 117 115 113 121 121 123 119 119 121 109 111 121 129 115 119 113 119 121 137 137 131 165 189 320 306 292 262 288 327 386 386 384 392 386 365 310 296 286 270 253 199 211 237 189 165 177 201 191 211 219 229 215 241 229 253 284 286 296 288 292 300 278 288 322 298 296 306 304 296 294 290 296 282 284 
101 109 131 105 135 115 121 125 121 127 127 129 123 113 127 115 127 123 125 131 117 109 113 129 131 135 129 147 169 225 314 357 347 353 367 398 382 413 423 400 396 320 241 207 193 207 193 205 217 197 175 175 215 211 213 197 195 207 209 205 225 266 264 284 276 286 292 261 296 343 322 310 320 312 314 320 335 325 325 316 
119 125 127 117 131 125 129 133 131 115 125 119 127 127 117 135 123 133 121 119 117 113 107 127 139 141 129 157 157 157 173 264 312 347 341 372 407 419 444 442 448 386 233 149 133 133 133 161 167 175 187 183 237 215 215 205 197 167 171 197 193 213 243 259 264 261 249 245 284 343 325 316 337 322 327 325 335 345 335 337 
107 107 113 115 117 131 127 133 145 125 125 113 145 123 129 131 135 135 127 125 117 121 123 121 143 143 151 165 169 175 165 219 227 339 372 423 460 475 477 473 454 423 280 135 129 129 127 149 155 147 147 161 171 161 161 175 181 165 177 171 177 191 199 201 213 221 223 197 268 322 314 322 324 325 329 314 322 278 290 266 
97 117 127 111 131 129 127 119 131 137 133 123 111 137 123 133 129 123 129 131 111 117 121 135 153 169 209 290 314 333 318 353 341 388 458 458 469 483 475 483 479 440 310 167 127 129 125 149 163 149 157 159 157 149 147 135 171 159 179 171 165 175 155 165 189 169 165 159 268 292 286 290 306 274 266 223 195 185 183 191 
113 109 133 127 119 117 121 125 129 133 137 117 123 133 133 135 119 135 129 119 113 135 131 155 217 300 322 339 363 386 349 353 357 421 456 481 506 520 479 465 452 429 384 251 165 183 179 185 193 183 189 205 199 203 177 165 159 151 153 163 147 161 159 153 167 147 147 171 233 247 243 233 221 173 165 155 139 137 155 205 
119 121 125 131 115 129 125 143 129 139 127 141 131 127 131 119 143 129 145 133 131 121 139 185 351 376 347 324 318 343 327 357 353 405 467 491 500 496 475 458 431 405 369 325 266 219 203 211 225 219 215 233 221 211 207 189 179 153 165 171 165 167 165 165 173 155 177 215 235 227 225 225 219 153 127 121 125 131 183 237 
123 125 133 129 127 137 123 139 133 153 155 143 143 137 141 135 127 149 141 139 125 127 147 294 390 396 347 341 337 296 251 282 327 353 388 372 378 413 425 438 433 411 376 341 310 262 213 233 245 249 266 262 241 237 223 215 211 175 177 201 187 179 183 167 175 165 183 209 221 223 215 207 195 145 141 135 133 157 239 229 
119 121 133 121 125 139 137 131 153 179 233 259 247 193 193 155 139 159 145 143 135 133 209 357 369 359 327 363 322 223 145 181 211 237 278 304 333 353 359 372 403 402 378 351 316 294 257 257 245 261 270 266 247 249 233 237 219 203 197 203 193 191 195 189 181 169 179 211 201 201 217 245 261 257 253 197 205 211 247 219 
97 129 111 127 121 133 135 145 165 288 376 440 440 446 440 433 302 177 157 147 147 165 294 359 376 343 345 337 259 145 103 139 179 227 282 316 331 353 345 341 349 374 361 349 331 345 304 304 253 235 266 286 262 251 262 245 245 217 219 237 213 211 203 187 193 175 181 183 179 179 193 253 290 290 280 223 235 233 257 261 
99 123 121 125 119 135 129 167 237 329 473 533 520 531 554 541 495 386 217 163 159 229 347 359 359 339 324 294 213 133 61 111 207 241 286 316 333 349 341 339 331 349 353 337 337 353 324 325 302 270 272 282 276 251 268 284 257 249 241 261 239 229 227 217 215 211 209 197 177 191 205 251 276 270 266 261 274 243 276 268 
111 135 107 113 123 125 129 193 284 384 514 547 539 560 568 547 547 533 411 327 310 365 361 371 341 300 270 261 203 111 57 159 241 262 288 314 329 333 353 337 341 327 325 312 324 341 333 325 347 322 331 327 282 259 253 257 261 247 251 266 243 231 259 237 241 241 245 227 203 217 225 253 270 262 270 274 296 280 274 278 
93 115 109 111 115 113 133 197 304 390 522 539 547 570 564 510 433 448 465 469 471 427 371 347 335 284 253 241 209 141 69 175 243 284 290 298 310 316 331 343 343 325 329 316 329 345 351 343 349 349 371 357 278 261 243 245 266 237 243 245 231 231 243 251 243 239 257 239 255 245 249 253 276 294 278 274 300 298 302 286 
105 113 123 121 119 107 135 177 290 382 481 527 560 566 551 485 324 371 444 427 483 400 318 318 280 243 243 245 183 131 83 159 239 259 278 290 286 259 290 318 324 325 306 310 306 349 357 335 374 372 386 345 272 249 229 211 233 227 227 213 201 217 221 219 225 177 181 261 266 259 268 261 264 262 259 268 306 300 310 270 
87 97 105 97 115 113 121 145 264 363 458 473 524 568 556 469 337 411 444 419 448 365 310 280 261 239 219 201 101 57 53 153 201 245 280 292 257 262 247 276 306 300 304 298 290 312 329 320 386 394 365 329 280 227 199 197 177 167 161 163 161 173 195 205 209 141 179 229 239 264 261 247 262 251 247 266 300 296 249 207 
87 95 89 95 95 107 105 117 191 308 425 448 498 537 545 504 429 458 460 454 423 345 296 282 272 261 211 193 101 55 47 127 175 262 270 278 268 241 272 284 284 274 292 276 284 308 308 302 361 376 339 300 229 221 197 197 189 155 157 157 167 167 159 173 161 145 165 185 223 251 268 231 241 229 251 264 298 245 187 181 
87 97 99 83 87 99 85 103 139 169 231 288 400 502 543 537 510 487 456 446 382 327 302 298 290 274 221 157 67 17 0 57 107 247 280 292 278 286 298 306 306 300 316 327 320 306 298 292 325 298 266 201 195 217 199 215 199 193 217 199 217 221 199 203 229 217 207 229 249 249 249 235 231 225 227 259 261 177 175 177 


