P2
80 60
623
64 88 66 82 64 80 86 74 98 106 80 76 76 78 86 92 98 96 100 66 76 84 76 86 96 110 308 462 466 446 402 359 310 297 285 283 285 289 275 289 289 316 330 346 371 423 450 452 456 442 419 384 332 291 275 255 259 239 222 204 220 216 234 226 218 196 198 226 279 271 257 220 216 220 214 226 204 200 192 198 
78 78 50 80 62 80 88 78 96 90 94 86 76 66 80 88 92 94 94 82 80 74 92 82 82 106 314 456 471 448 421 373 346 320 310 314 293 312 300 293 304 302 330 320 326 330 359 369 398 423 442 415 394 377 355 336 322 293 269 245 247 236 234 218 212 230 241 263 314 297 273 220 202 220 228 257 263 271 263 263 
64 86 66 74 88 72 64 64 78 80 76 82 84 70 84 90 90 90 96 98 70 86 104 92 98 150 322 365 439 466 444 378 342 310 297 300 302 291 285 291 281 304 314 316 322 332 336 334 330 336 373 406 423 423 415 378 380 347 324 300 304 283 269 253 251 299 297 299 324 308 255 247 202 190 220 245 255 275 285 285 
58 74 80 62 82 78 100 72 74 82 74 80 76 78 68 70 80 106 114 120 110 138 152 126 134 224 365 378 417 502 508 435 377 338 318 322 324 318 310 293 320 330 347 359 351 347 330 302 283 277 281 308 367 425 435 429 411 406 406 367 332 304 300 297 279 300 318 324 306 285 283 257 228 206 220 251 257 287 281 277 
46 70 64 72 82 74 82 80 90 96 74 72 80 88 88 90 102 128 200 322 326 377 413 326 245 409 514 477 452 458 473 421 404 359 336 312 326 324 316 312 304 308 320 318 308 310 300 279 269 253 263 279 289 344 406 394 411 411 423 417 402 318 318 297 273 314 328 322 314 306 275 263 279 251 247 251 265 253 251 253 
58 52 62 58 58 58 90 70 78 76 78 84 80 74 86 96 122 243 409 489 508 535 547 526 533 575 615 608 562 479 392 375 351 328 324 310 318 318 318 322 320 338 338 300 295 287 279 271 243 232 251 251 255 261 291 330 377 417 413 413 371 277 285 291 324 330 338 328 316 279 287 263 271 273 267 261 245 210 212 245 
58 60 64 62 74 74 84 94 104 88 92 90 74 94 106 110 178 363 499 514 535 562 592 567 596 592 619 623 608 573 491 386 363 330 346 342 336 336 322 322 363 369 342 334 328 308 285 293 265 237 247 243 224 224 247 251 281 320 334 304 249 249 257 306 322 318 328 314 312 287 239 228 222 232 196 176 138 122 134 182 
58 72 68 84 94 90 80 80 84 88 84 80 88 86 94 128 176 388 520 518 566 566 604 550 558 543 577 592 602 583 479 406 380 380 373 365 367 361 371 369 371 378 365 351 361 351 299 306 271 257 265 255 239 224 220 218 218 261 253 237 263 267 271 306 295 295 293 267 251 214 192 182 146 136 130 112 108 102 122 146 
58 90 52 86 68 84 86 82 88 82 84 86 98 84 100 100 188 386 518 562 564 564 592 550 533 495 531 579 585 548 413 380 378 394 382 367 390 367 346 357 344 353 340 357 367 373 351 316 304 271 271 267 259 251 239 236 230 253 279 291 304 300 291 299 283 267 245 212 206 174 154 160 144 132 126 120 126 114 102 120 
76 70 68 70 72 92 80 94 76 104 84 112 100 100 114 106 144 324 470 533 543 577 575 518 506 396 330 308 409 404 367 411 456 460 425 377 353 344 332 336 338 336 353 351 365 361 340 320 304 287 289 287 293 293 281 267 261 279 320 340 369 367 351 306 300 289 275 243 220 178 172 156 168 154 122 146 118 114 108 118 
84 76 84 74 74 84 84 90 80 80 82 84 80 90 98 96 124 222 384 475 495 522 501 466 322 148 152 140 154 212 330 431 454 442 413 373 351 332 326 351 334 334 326 336 373 394 388 361 367 346 344 346 349 357 334 326 349 365 408 425 429 400 392 371 386 357 361 308 283 247 259 249 212 190 166 156 142 140 112 120 
88 56 72 66 78 90 86 78 76 72 86 94 78 88 94 92 88 118 172 255 299 285 257 204 118 106 120 120 120 132 261 408 435 425 425 377 375 357 336 320 324 326 347 427 504 535 522 493 489 481 477 497 485 471 444 417 433 442 444 421 390 404 404 404 386 384 371 330 291 279 279 310 310 318 275 232 180 142 124 140 
54 74 70 66 78 82 70 78 80 78 86 80 82 92 76 96 90 104 96 110 108 106 92 100 102 94 124 114 128 152 208 382 456 450 415 384 382 365 363 346 344 334 324 409 439 477 491 495 487 487 499 481 470 435 421 415 427 448 415 382 398 417 398 409 402 409 378 336 314 314 314 330 342 342 336 342 308 253 186 176 
70 64 68 76 68 90 82 80 68 92 82 88 78 76 76 92 94 90 94 108 72 90 102 90 88 94 96 120 140 230 386 446 456 429 392 380 371 373 336 322 314 308 295 310 390 411 409 396 384 386 415 431 417 396 378 357 371 375 396 404 398 402 396 404 400 404 388 361 338 342 347 361 361 363 357 340 351 332 287 263 
90 72 78 66 78 96 94 80 68 84 90 78 76 78 76 90 88 92 90 92 78 80 100 78 86 86 108 116 178 394 454 442 442 456 446 458 437 431 398 392 361 351 355 386 444 448 406 373 346 334 367 396 384 357 346 340 357 373 380 396 396 388 382 392 378 359 344 306 320 322 328 359 334 340 342 340 326 314 273 283 
86 70 72 56 72 78 72 78 80 84 68 66 66 70 84 78 86 88 84 94 88 78 90 90 86 88 108 134 237 477 487 475 458 485 468 473 456 439 421 444 442 398 404 417 415 431 394 346 347 340 342 378 371 347 336 328 346 369 386 404 378 365 334 314 285 239 234 226 230 230 251 285 289 295 302 283 293 289 277 265 
74 60 70 66 76 60 74 80 74 84 72 80 78 84 80 84 80 78 82 88 82 90 86 86 126 96 122 140 263 471 481 468 470 477 487 464 439 408 413 435 444 435 423 409 406 388 365 328 320 338 326 355 363 322 310 318 328 351 365 353 349 267 202 180 176 176 188 194 198 196 194 200 196 202 200 216 222 243 228 259 
76 76 78 84 66 88 74 68 82 76 68 80 78 66 80 84 90 92 92 104 90 84 98 106 118 126 152 168 271 431 504 470 477 479 473 440 415 411 415 427 442 437 435 402 390 380 347 326 326 328 306 344 338 322 310 312 349 378 378 312 230 168 156 168 174 194 198 194 190 194 190 190 196 182 186 192 180 196 210 241 
66 66 92 78 78 64 80 92 90 86 88 80 74 94 100 96 100 90 110 106 104 112 140 142 136 138 166 226 351 380 481 479 470 475 454 419 402 396 390 396 417 413 396 377 394 353 353 338 320 320 326 342 330 326 322 338 394 404 334 206 172 184 206 216 237 249 241 249 237 241 234 243 234 253 251 261 255 287 275 295 
76 80 78 70 88 66 78 74 90 86 90 84 88 78 84 94 82 92 104 140 166 226 261 279 241 196 222 386 512 485 466 454 450 421 398 380 388 386 373 371 390 392 384 373 398 342 332 338 320 332 326 306 326 347 342 388 394 396 377 359 338 346 361 375 392 392 390 355 338 326 299 304 326 320 320 328 326 322 320 322 
70 96 74 82 98 74 86 80 90 82 96 86 98 96 88 96 96 114 110 220 347 440 481 485 464 442 470 535 562 556 471 435 404 388 369 351 367 384 390 396 408 415 388 384 377 340 338 330 332 336 326 326 326 365 367 384 394 398 394 398 408 419 421 419 402 396 384 363 346 302 328 310 330 332 336 338 324 334 324 314 
76 92 92 66 84 84 84 82 96 104 92 92 106 88 86 104 94 114 182 318 448 487 499 493 527 501 527 550 554 552 501 419 427 435 435 402 390 394 404 413 411 409 404 388 365 347 324 347 363 332 342 328 349 371 388 373 375 384 380 392 406 413 406 400 400 384 363 324 312 302 302 314 322 300 300 314 302 302 308 326 
66 86 78 92 96 84 94 88 96 88 100 90 96 90 82 100 108 124 210 390 442 485 487 475 479 473 504 539 543 529 446 417 450 464 462 421 406 394 394 394 386 382 357 371 371 338 346 377 359 353 369 340 361 353 369 357 344 369 384 400 409 415 388 388 375 377 346 306 271 287 291 277 302 267 273 302 283 265 265 232 
80 86 88 72 80 88 70 76 76 88 102 88 86 80 104 100 106 128 234 415 452 468 479 458 458 452 470 495 539 485 439 437 454 471 456 433 404 377 380 371 355 349 365 355 371 363 390 384 373 384 363 344 351 363 353 346 328 347 382 388 396 384 375 377 367 340 326 275 265 267 281 255 249 228 218 222 190 186 176 186 
64 82 92 72 78 80 84 88 88 90 96 92 82 84 98 92 114 106 206 373 462 456 487 456 473 473 406 375 431 380 378 440 439 446 427 411 386 357 351 367 346 340 365 384 375 394 437 386 398 400 369 353 342 369 375 371 357 359 353 359 363 367 346 330 314 291 267 241 243 224 228 212 186 192 192 166 170 162 158 164 
92 76 82 76 84 86 84 88 86 100 96 90 88 86 90 94 106 102 148 302 380 413 471 464 440 363 243 192 255 334 413 439 421 429 404 384 369 351 347 371 378 375 409 429 413 435 450 398 419 402 388 353 353 390 411 421 433 390 336 299 314 277 251 230 218 208 198 196 196 200 188 202 184 182 170 170 158 150 146 164 
70 72 74 80 72 76 84 86 82 90 80 84 98 72 82 88 98 104 108 146 206 269 263 224 174 134 144 150 176 267 452 417 375 361 328 344 371 413 423 471 489 473 495 487 468 477 450 440 452 435 450 440 423 431 450 442 421 394 367 306 210 172 166 166 160 180 182 190 204 194 204 188 172 172 170 156 134 144 140 160 
76 92 82 76 82 70 82 86 78 72 90 76 72 88 80 72 86 102 86 102 96 108 108 112 120 116 134 140 154 212 394 378 353 347 351 363 411 431 462 499 499 522 520 512 493 495 489 495 489 477 464 462 429 413 417 421 415 392 375 204 146 128 140 154 152 162 168 190 202 216 198 200 182 170 166 148 126 134 136 134 
74 82 76 82 72 88 70 88 80 82 92 98 74 78 78 78 84 94 80 94 86 108 104 84 106 112 118 130 128 140 287 353 369 390 361 361 369 384 460 487 501 504 516 529 506 516 504 497 481 471 439 375 275 218 234 324 367 306 214 114 120 126 114 130 136 148 172 196 196 208 212 198 188 162 150 130 130 128 132 148 
86 66 78 68 76 76 66 80 82 94 88 80 80 72 72 76 74 82 84 88 74 92 100 86 102 106 106 118 122 120 154 234 304 338 332 310 304 342 466 497 491 493 502 522 510 527 483 406 338 241 204 172 156 130 124 130 148 132 108 110 118 118 112 126 138 138 170 188 202 206 186 208 180 148 140 144 126 116 118 138 
68 62 74 80 92 68 84 82 90 98 88 88 76 70 80 74 82 84 94 80 84 90 96 98 98 108 110 116 128 116 112 118 134 241 332 357 363 361 394 365 394 456 452 448 460 470 442 373 277 206 166 156 142 130 120 116 104 94 112 112 116 114 132 136 146 166 174 198 200 208 208 194 172 152 136 120 116 116 126 142 
70 84 78 82 92 86 76 88 76 86 88 84 88 68 88 86 90 86 76 88 84 102 100 96 108 100 120 114 132 114 114 100 184 314 361 357 342 320 297 279 299 413 417 413 406 409 404 406 380 318 300 267 234 230 251 237 166 128 128 130 114 136 136 158 154 170 176 198 198 212 198 190 168 140 118 126 120 118 124 132 
64 80 84 74 80 92 80 72 84 84 92 78 76 96 94 82 90 78 94 96 96 96 100 98 118 102 124 128 134 114 122 164 283 316 336 295 275 265 275 277 267 359 390 406 365 365 377 369 371 340 340 373 409 421 421 421 357 277 271 259 234 222 198 184 176 188 182 198 204 198 190 192 168 150 142 134 120 122 122 154 
46 86 84 92 86 102 90 82 84 82 88 98 96 82 92 84 94 88 94 110 82 98 100 100 112 102 118 124 130 126 152 255 285 275 257 247 228 239 228 249 263 297 330 291 299 279 299 326 318 310 338 365 429 409 421 402 417 373 338 326 306 261 194 174 190 202 196 212 198 190 204 220 220 230 226 208 200 186 158 148 
70 78 76 86 74 100 86 90 94 80 98 102 76 88 96 86 104 90 88 102 106 130 154 134 138 132 148 140 142 126 212 320 306 281 251 257 263 263 234 228 277 228 220 202 239 228 245 261 271 271 261 261 340 394 396 413 437 375 332 304 302 279 224 214 212 204 188 212 226 253 251 263 275 285 308 308 291 293 267 212 
60 74 74 76 74 86 74 72 80 94 106 98 86 86 86 88 90 100 108 110 146 249 289 247 263 281 289 200 150 150 271 336 308 310 299 349 347 324 236 206 230 251 174 146 200 239 234 259 253 257 241 228 232 334 413 371 363 361 293 269 259 230 214 228 214 204 200 204 236 279 275 287 263 275 316 318 310 310 293 273 
60 62 72 84 76 82 80 82 86 90 80 88 88 84 90 100 94 90 96 120 232 314 334 359 442 473 510 433 287 194 322 312 297 324 324 415 411 328 210 154 94 152 176 218 172 230 208 234 251 236 234 200 224 239 281 302 247 230 222 218 214 226 226 224 200 200 200 192 249 273 265 263 247 249 271 293 293 287 289 304 
78 78 92 88 80 86 86 72 86 84 78 84 84 92 96 102 104 96 114 162 251 312 367 460 504 508 479 501 466 355 353 289 297 330 336 377 378 277 176 120 64 28 100 182 174 190 186 198 234 218 204 188 220 228 239 243 228 210 216 202 206 222 230 216 198 204 200 194 257 281 259 249 230 245 263 279 275 261 257 269 
76 86 76 80 80 88 84 84 90 86 80 90 78 92 88 98 104 92 116 208 265 332 390 487 508 489 435 448 481 361 373 295 263 310 314 300 261 200 116 74 58 4 0 106 134 152 176 190 226 202 190 162 194 226 232 247 216 192 196 204 237 220 214 228 210 192 174 200 255 267 226 208 200 200 212 218 194 190 204 234 
76 86 86 84 78 78 82 88 86 90 90 98 92 84 98 92 100 98 120 196 253 310 338 435 506 504 487 485 458 375 380 300 269 302 328 289 239 202 168 104 38 82 10 124 112 122 178 184 216 198 194 154 160 198 232 241 222 188 200 241 232 237 239 224 226 212 202 204 255 249 220 200 196 196 208 200 212 210 212 226 
62 86 86 82 82 104 82 68 90 64 78 100 88 92 108 104 100 100 106 162 214 267 300 365 495 510 527 510 452 390 386 281 265 318 320 293 267 291 340 332 297 164 32 140 114 156 184 172 198 196 196 126 120 182 222 241 210 224 239 271 261 267 269 261 251 247 234 249 265 297 271 257 243 249 259 277 279 297 293 312 
76 96 90 70 82 90 72 94 92 86 80 80 82 76 104 90 96 90 100 118 124 176 236 281 429 460 454 423 394 392 378 287 306 342 344 328 357 404 421 398 351 322 102 138 124 206 170 174 198 182 160 122 156 192 214 208 204 200 228 249 243 253 255 265 241 243 247 237 232 279 269 273 273 279 275 308 312 326 310 295 
66 64 84 66 90 78 92 80 82 88 76 90 66 96 96 88 84 86 96 102 84 110 144 158 198 230 200 180 228 304 353 310 322 320 306 308 322 351 351 342 326 243 118 138 142 188 178 162 184 156 164 124 164 194 194 194 206 224 234 232 220 230 236 243 220 251 234 202 208 283 265 287 302 297 291 308 330 312 291 304 
72 86 82 86 84 88 70 86 76 72 90 88 84 92 76 82 82 84 90 98 84 94 100 100 120 148 212 295 330 338 344 306 291 281 275 300 318 316 342 330 277 178 146 138 134 172 174 166 150 148 158 146 164 178 184 202 214 186 202 190 190 216 220 236 220 214 202 162 154 241 269 291 285 281 293 293 293 271 218 214 
60 74 74 74 82 78 84 86 88 96 98 92 88 70 96 78 100 90 96 96 86 96 110 96 128 243 353 342 338 316 300 257 279 271 259 267 302 334 342 293 194 170 224 160 138 140 164 174 138 162 154 142 162 188 190 186 196 168 156 162 184 186 182 190 188 180 148 108 126 186 206 208 230 222 230 224 206 172 158 166 
76 90 74 86 92 92 86 76 98 78 94 90 92 92 100 116 102 98 96 102 78 92 94 106 170 346 367 361 344 295 302 265 275 281 285 306 320 346 328 302 236 206 228 188 162 148 162 176 168 178 182 190 194 194 188 190 146 130 142 144 170 182 190 172 144 124 108 88 96 146 154 142 152 134 142 144 150 142 136 152 
76 72 72 84 78 98 94 94 100 90 100 98 122 130 158 142 126 124 102 98 92 98 98 118 281 375 377 363 328 330 332 283 245 255 265 279 287 324 340 316 279 263 263 247 208 184 182 178 212 206 222 232 226 210 192 140 126 114 122 124 144 148 170 148 126 120 108 68 116 160 160 152 134 126 134 120 126 108 144 146 
60 76 94 68 82 86 92 94 82 100 108 140 210 275 330 289 255 218 170 124 96 108 112 186 330 347 349 344 332 347 304 259 202 172 224 245 279 328 332 344 312 289 281 234 192 184 196 212 226 230 237 237 243 222 182 158 156 130 128 130 146 142 126 132 138 126 124 112 160 164 166 166 156 110 120 114 102 116 130 144 
64 72 82 90 74 82 100 80 92 98 124 224 316 394 417 452 466 470 394 198 112 132 124 239 320 336 340 330 328 328 261 116 106 146 230 261 289 318 330 336 312 273 259 212 168 200 206 222 237 241 251 247 228 204 180 168 168 168 140 158 160 152 144 136 126 126 124 152 170 166 168 166 156 108 120 126 104 108 104 128 
64 80 74 94 86 96 90 96 98 110 176 259 346 452 501 471 493 501 526 462 316 245 277 328 351 332 332 308 304 245 148 90 114 212 257 293 306 300 297 318 302 271 251 190 168 188 200 216 230 218 239 251 226 218 208 200 176 152 158 162 170 178 146 152 126 126 130 136 140 122 132 146 174 178 186 188 168 158 138 108 
74 94 90 90 90 90 92 86 100 122 236 255 353 460 473 487 510 524 510 510 473 458 427 384 346 322 324 287 261 186 100 68 168 241 271 287 291 300 297 320 299 263 232 180 176 188 186 188 210 220 237 234 237 232 224 210 206 180 176 176 168 160 150 156 144 142 156 150 124 124 142 128 156 200 236 281 289 277 257 194 
72 86 92 84 88 100 92 88 98 120 230 289 380 446 487 506 527 539 510 442 382 411 392 363 324 302 300 263 239 166 108 132 206 243 271 283 287 291 304 306 287 261 224 182 164 172 172 168 192 200 226 237 234 234 220 222 194 212 208 192 194 170 164 168 136 148 180 190 150 126 146 154 174 204 247 277 297 295 297 300 
60 92 64 88 82 92 98 84 98 118 204 285 355 406 475 510 514 502 435 334 310 380 388 334 304 269 263 234 206 132 100 164 220 259 275 269 281 289 285 287 275 251 222 190 174 160 164 178 184 194 220 230 232 234 222 216 226 208 210 208 190 180 164 170 150 142 184 200 184 180 170 176 198 226 253 277 281 295 297 299 
66 86 78 94 84 104 84 96 92 112 146 249 342 396 442 489 514 502 435 351 361 357 380 314 291 245 257 226 182 112 74 96 214 241 247 247 263 275 277 271 251 245 230 194 180 182 184 180 196 204 230 234 243 224 222 232 216 212 206 204 202 180 168 178 162 182 196 214 210 206 212 210 216 222 243 281 320 318 328 320 
52 86 72 80 70 88 72 92 96 86 92 152 269 340 409 452 499 479 439 421 380 371 332 330 265 230 226 196 178 64 52 78 186 228 226 210 224 239 267 255 243 247 241 192 188 212 214 194 222 226 224 216 228 210 216 196 188 196 174 204 198 210 186 188 196 210 236 224 224 214 194 206 232 232 243 279 291 302 320 322 
58 80 72 74 84 84 78 70 80 66 90 98 106 148 206 261 334 346 342 302 236 304 344 310 291 247 261 220 194 92 98 80 164 230 220 196 202 228 239 253 249 265 267 222 206 232 232 226 226 216 228 218 194 180 168 164 168 146 142 148 172 172 170 170 178 196 202 186 198 176 156 154 158 178 208 232 249 243 237 237 
64 74 62 80 80 74 80 78 64 78 66 94 88 78 98 126 124 132 130 130 102 220 318 310 295 251 261 226 259 198 237 156 156 216 226 202 206 216 239 241 228 253 243 222 194 234 228 216 236 210 216 208 184 164 144 158 168 120 108 100 116 126 116 114 118 122 136 140 142 126 122 116 106 92 96 132 154 164 168 174 
56 62 54 56 72 72 56 58 62 78 68 60 60 66 88 82 92 88 94 82 100 176 293 310 300 257 283 308 322 287 257 208 156 206 230 228 208 228 210 228 237 243 241 208 190 178 184 180 190 186 192 200 184 166 160 168 156 144 112 104 108 108 112 112 92 92 104 90 96 108 100 88 88 88 100 106 112 126 124 172 
44 52 40 56 58 62 44 48 66 60 56 64 78 80 92 88 88 90 80 74 74 158 302 330 300 261 277 318 330 318 304 210 222 230 228 234 234 226 230 249 228 230 220 166 156 160 174 172 190 178 184 186 180 186 180 166 170 156 148 138 170 172 148 154 144 126 118 106 104 110 98 88 94 106 88 122 124 126 128 160 
42 64 44 44 36 68 42 54 70 60 48 64 94 104 122 112 126 116 108 78 48 134 312 324 293 236 261 261 289 275 269 245 232 204 230 234 236 259 237 247 218 228 212 152 146 154 188 200 210 180 198 178 174 176 178 166 152 156 158 154 150 160 158 160 154 154 142 146 158 158 154 168 176 192 174 192 174 184 176 162 


