P2
80 60
722
157 159 165 145 155 171 175 167 173 171 175 171 177 171 191 187 185 181 173 169 175 177 175 236 396 465 436 404 406 380 356 346 334 334 324 332 336 346 386 390 358 356 328 320 296 282 310 296 298 288 298 300 276 288 280 282 318 354 364 364 350 378 338 320 312 302 290 292 252 258 244 258 274 268 290 278 266 296 334 338 
159 143 124 147 171 167 171 165 169 175 159 163 173 169 167 183 206 202 200 191 187 193 220 384 475 448 408 402 370 354 346 308 302 298 298 372 442 455 479 463 453 452 424 410 356 336 336 344 352 348 338 322 288 280 262 260 302 316 308 326 348 350 356 332 324 302 294 284 276 262 262 278 280 276 304 306 316 320 326 304 
145 151 141 151 163 165 155 169 181 167 173 163 191 181 202 230 316 354 348 334 314 270 350 491 491 438 422 400 360 350 316 298 308 292 306 382 505 548 546 513 507 511 483 511 497 473 457 434 414 388 374 346 306 300 266 294 312 300 288 302 336 388 362 376 346 304 290 298 268 276 308 310 292 272 306 370 366 354 328 298 
157 155 151 165 159 173 151 163 179 171 169 181 177 191 266 402 450 452 457 424 452 497 455 475 471 410 410 398 376 352 338 310 324 312 312 350 479 560 552 569 567 577 579 596 567 575 565 544 499 446 422 382 328 312 296 314 310 292 286 278 306 340 330 326 306 306 294 282 274 294 312 316 300 272 312 334 336 296 256 238 
157 149 143 157 169 155 171 167 165 171 171 177 200 240 424 513 516 505 501 507 558 662 538 475 473 434 426 418 400 386 356 340 334 342 326 340 416 479 499 522 562 573 596 602 616 614 620 600 593 546 505 440 396 368 354 346 342 314 316 312 318 324 322 316 304 306 314 304 298 332 320 286 292 242 224 212 193 161 163 198 
163 151 133 161 157 165 169 171 173 169 185 189 204 288 493 548 534 520 540 581 680 705 682 573 499 461 438 442 426 402 392 368 372 368 376 384 408 452 475 485 475 487 522 548 567 575 604 593 598 591 571 528 475 438 418 450 463 440 394 386 394 380 344 348 320 304 334 328 328 324 278 240 204 181 151 171 169 137 169 163 
161 157 145 147 163 189 177 169 185 175 181 196 202 330 524 536 538 524 643 655 697 722 722 687 614 503 374 408 485 475 471 450 440 418 420 442 457 459 467 469 469 453 450 467 442 453 477 495 542 558 579 560 516 528 495 503 491 479 446 434 463 428 322 284 252 230 234 248 234 212 196 185 167 165 175 173 167 161 179 173 
155 153 155 147 179 185 175 187 171 185 177 179 214 298 518 548 520 554 643 680 682 705 717 666 556 298 220 232 310 354 374 392 406 424 422 442 432 440 452 479 481 455 444 430 428 426 424 406 408 424 461 497 485 497 515 560 532 483 455 461 471 374 246 226 238 234 238 224 208 202 196 191 189 179 175 179 155 161 173 171 
155 149 151 147 189 171 183 187 179 175 183 202 208 264 469 530 540 645 693 672 676 699 676 620 354 196 224 208 212 230 214 208 240 270 308 342 336 344 356 368 374 366 398 400 392 380 386 378 368 360 370 376 372 390 428 455 542 505 483 487 450 318 260 266 304 318 320 274 232 218 224 224 196 193 200 191 169 169 179 177 
135 145 155 161 189 177 183 167 183 191 187 196 196 220 360 483 534 653 639 641 655 668 629 560 326 200 196 204 191 191 202 173 206 216 236 236 238 240 242 256 232 226 226 230 228 242 246 240 256 272 276 282 270 268 288 318 432 467 477 471 442 418 410 426 453 432 398 354 282 240 234 224 212 212 214 200 169 167 183 175 
161 147 161 159 185 165 179 171 193 177 175 189 202 198 240 352 479 583 573 560 618 587 463 316 216 185 196 200 196 204 204 181 204 234 216 222 220 220 234 228 222 206 212 196 191 210 214 228 238 240 254 254 254 264 292 346 422 440 455 453 483 493 479 481 475 467 420 404 340 294 286 262 230 244 240 222 200 181 183 179 
155 153 169 163 183 185 183 183 189 193 196 196 189 179 202 246 358 420 370 300 366 358 226 187 196 185 198 210 206 200 204 202 230 230 234 246 246 248 236 230 222 214 200 196 196 212 238 244 262 244 276 296 324 400 420 434 457 463 450 485 503 495 499 481 499 493 453 402 386 322 310 300 276 274 268 230 230 206 198 196 
157 139 165 155 175 175 179 175 179 196 191 189 187 187 196 193 222 210 200 189 198 198 185 183 191 185 198 191 208 208 240 306 366 408 416 382 320 248 250 242 230 220 206 220 230 240 282 292 288 292 354 404 416 430 450 465 481 477 477 505 513 503 509 497 507 469 446 394 388 374 350 338 340 314 312 286 244 218 218 216 
155 147 165 169 155 183 173 171 183 187 185 177 177 193 179 189 185 177 173 167 173 175 175 171 175 185 189 193 198 252 378 507 560 554 526 509 489 410 430 394 338 328 344 380 356 384 400 418 406 370 412 444 446 446 452 442 463 483 503 495 499 495 495 491 475 453 418 402 354 386 370 360 356 352 334 322 320 260 230 246 
153 151 155 169 173 167 177 169 175 185 187 193 187 179 179 189 177 187 179 167 171 177 177 171 171 185 187 212 220 326 540 573 596 548 562 542 579 554 540 513 489 497 483 467 448 444 430 432 438 396 430 457 453 436 436 434 440 491 489 497 485 491 465 461 446 438 394 400 374 372 376 376 392 372 356 332 332 340 310 290 
173 155 159 171 177 181 177 173 171 175 177 185 187 183 179 175 161 171 171 169 171 171 189 181 179 189 198 234 280 524 581 565 587 569 579 563 589 550 528 518 522 524 524 509 483 477 459 448 426 426 446 459 463 459 440 424 426 485 493 487 463 467 448 434 346 304 310 340 334 352 386 394 404 386 372 364 346 340 328 324 
173 163 165 173 173 185 181 163 171 183 159 185 173 177 169 165 179 171 179 163 173 171 183 179 204 200 216 292 491 569 583 540 579 581 593 604 581 544 513 518 522 544 536 513 493 477 459 442 438 426 426 444 450 436 412 410 430 469 489 473 489 420 320 278 270 260 296 290 288 294 342 384 398 398 390 382 364 336 354 348 
167 159 169 173 173 193 185 163 181 187 179 181 183 179 196 185 181 181 171 181 191 183 187 198 206 238 316 513 563 567 554 550 585 594 618 614 569 524 513 532 548 534 536 495 487 475 452 444 434 434 424 432 412 384 374 396 426 489 522 495 406 322 286 276 294 320 338 354 348 358 372 390 426 436 416 384 370 376 374 372 
153 167 181 149 179 173 171 167 187 179 181 175 187 189 177 183 185 183 189 167 200 252 290 306 340 380 499 528 538 550 581 526 567 594 602 585 542 501 493 532 536 532 497 467 461 459 450 436 418 430 434 418 398 378 380 416 475 513 518 461 442 428 438 434 465 469 483 479 440 426 444 426 420 444 452 432 388 368 378 366 
167 159 153 159 185 183 179 175 185 171 196 196 181 181 191 177 189 187 193 177 250 382 452 479 509 528 524 556 589 647 651 554 530 530 536 548 524 511 489 524 532 516 509 499 479 461 442 446 434 440 432 422 410 426 398 446 477 532 518 540 538 530 524 518 503 493 495 455 432 414 428 402 398 420 440 432 434 396 374 354 
177 175 171 171 187 179 191 179 181 198 177 196 189 185 206 196 193 196 196 216 380 493 509 509 505 515 528 575 651 691 684 562 503 511 515 546 548 528 513 552 562 538 516 513 489 487 453 446 434 416 422 404 424 428 455 501 507 548 542 538 550 542 522 505 477 473 463 455 446 402 388 344 382 374 384 410 404 414 380 324 
151 157 181 179 167 183 183 179 189 179 187 189 185 196 193 189 191 187 208 328 501 518 522 526 528 528 560 612 639 687 680 567 538 569 577 589 569 548 522 552 554 528 513 505 487 485 469 459 434 416 430 428 450 461 516 497 489 509 518 524 516 520 487 461 459 440 440 450 394 368 374 340 326 348 332 342 336 320 292 272 
145 167 173 167 193 198 181 183 189 181 183 183 202 177 183 185 193 200 210 362 491 530 548 565 598 585 606 643 622 682 676 542 594 608 633 608 591 560 546 546 562 554 518 487 489 471 473 461 452 442 446 438 469 465 475 453 457 452 467 481 499 511 465 438 450 434 432 416 362 324 346 330 300 294 282 288 260 250 256 258 
155 175 167 177 189 187 198 185 183 193 193 196 193 202 198 189 202 193 220 350 414 509 600 608 668 653 660 614 534 585 558 573 602 606 631 631 614 575 562 536 542 556 548 511 475 483 487 475 465 471 459 436 450 477 481 457 450 420 440 446 467 479 459 438 424 404 380 354 324 302 284 280 270 268 252 254 252 250 250 256 
159 167 159 185 189 175 185 183 189 177 198 202 189 181 206 187 187 187 202 258 322 412 524 577 600 554 526 400 314 386 446 581 589 585 600 610 589 589 563 550 546 569 552 556 495 495 491 493 489 491 467 436 436 453 477 477 450 420 400 420 414 416 386 370 344 306 296 298 308 278 272 274 256 266 256 254 230 232 228 232 
169 161 171 173 191 191 202 173 200 191 204 198 189 185 187 187 198 198 189 200 238 288 336 368 352 290 262 256 246 258 388 573 600 577 598 589 596 591 585 563 560 577 565 577 526 501 497 495 497 475 461 422 398 440 455 467 444 406 360 338 308 290 278 266 264 278 298 284 274 284 288 270 266 254 266 252 222 230 244 246 
175 165 173 181 185 175 183 177 181 183 202 193 183 189 191 187 193 187 191 191 196 202 206 210 214 218 234 232 236 244 352 583 585 565 532 495 520 600 618 618 587 573 585 587 552 505 493 479 479 432 440 430 380 404 390 366 322 278 246 244 238 252 254 248 252 268 276 288 298 296 292 288 274 268 250 258 224 228 236 238 
175 167 165 167 169 177 173 175 189 198 189 191 181 177 191 187 183 175 175 189 187 185 200 187 196 206 214 222 232 238 306 538 596 534 505 485 520 583 594 608 610 579 587 610 571 467 414 368 314 294 296 298 300 300 266 248 250 238 218 218 214 238 216 222 238 258 264 302 302 316 300 288 276 254 260 246 206 218 216 226 
161 157 173 163 187 183 175 179 193 181 191 191 185 187 189 179 177 183 173 175 183 185 187 179 198 200 206 210 242 272 438 596 602 589 552 538 556 625 631 620 596 593 581 606 596 390 278 250 270 264 270 252 234 238 242 236 242 240 222 220 228 232 224 216 222 258 264 280 294 330 316 298 264 262 244 226 214 204 208 216 
167 153 173 165 181 187 187 175 187 181 187 183 185 189 187 171 169 189 183 179 183 183 177 183 189 196 202 214 252 459 635 649 641 608 598 594 585 625 633 625 604 591 589 616 579 453 346 310 344 352 320 332 302 316 302 302 298 282 260 236 222 258 234 222 218 238 236 228 294 308 310 296 274 242 234 228 214 196 206 216 
169 155 179 177 189 177 179 159 181 177 181 185 185 177 189 181 175 187 185 187 220 240 226 196 202 193 202 212 330 589 649 643 637 593 593 589 587 589 637 637 610 594 593 591 589 546 444 380 368 362 352 376 318 298 282 306 320 308 294 248 234 252 234 212 220 224 224 224 272 300 306 294 280 252 234 218 208 202 212 208 
159 165 169 155 185 198 181 183 189 191 181 193 189 175 189 202 181 196 200 246 380 428 418 312 256 222 212 246 380 620 627 600 573 563 558 565 567 577 620 594 596 598 587 593 594 593 554 436 350 338 312 332 326 256 214 252 296 348 330 248 230 256 246 212 220 216 216 222 256 304 332 338 344 324 302 280 230 212 218 236 
143 151 167 177 173 191 193 183 187 196 187 181 179 200 198 189 189 198 230 368 565 540 475 428 481 428 286 268 483 641 618 550 532 493 507 524 530 550 567 534 511 558 577 612 614 614 591 528 338 312 296 326 348 284 212 224 294 324 358 310 290 312 240 220 212 210 226 230 250 332 374 390 418 442 465 446 412 362 300 276 
161 163 181 177 193 181 189 193 189 200 198 179 181 191 191 187 193 206 302 448 552 532 507 524 594 606 530 444 575 635 622 556 507 467 469 503 532 495 499 457 448 485 493 558 606 616 593 581 430 266 260 296 334 316 252 236 286 324 336 340 324 352 264 228 230 214 234 236 242 324 386 396 422 442 475 483 485 479 448 388 
157 163 153 157 185 171 200 177 191 181 185 196 193 183 202 206 206 234 370 473 548 544 565 596 674 639 645 616 624 618 620 544 532 524 528 534 503 493 459 344 392 388 386 446 556 596 602 593 530 368 242 258 294 336 298 270 296 326 328 324 328 338 258 232 230 216 242 242 244 334 372 402 428 440 469 481 479 475 477 446 
161 159 169 165 187 189 189 183 185 183 175 204 185 204 198 187 204 264 422 499 544 577 618 635 680 680 656 627 604 591 614 563 554 534 532 532 532 459 344 282 328 332 338 432 507 511 542 587 552 481 302 266 270 326 330 288 296 296 288 296 328 318 256 254 250 238 256 262 262 344 376 408 396 418 452 444 444 442 455 422 
171 157 161 187 200 189 189 193 198 183 191 196 202 202 202 193 208 252 402 505 573 608 614 633 625 678 633 622 581 571 598 598 583 548 546 507 465 356 308 292 360 336 356 491 507 452 469 546 554 544 450 312 248 332 334 326 304 310 328 318 308 302 302 302 308 308 316 314 326 336 340 340 330 346 332 342 326 300 354 328 
145 157 181 173 185 173 185 187 196 198 202 198 191 200 196 189 202 218 276 410 515 560 575 579 575 627 583 579 577 546 579 587 618 585 532 499 406 356 316 318 396 338 360 515 526 426 428 487 520 552 563 448 274 348 370 342 322 342 356 328 302 292 298 296 302 324 326 320 308 306 304 294 286 276 264 264 260 240 260 264 
161 149 163 169 198 191 187 189 196 191 185 187 181 198 202 196 189 198 204 248 292 376 540 589 591 594 516 499 526 520 544 575 616 596 565 520 402 348 272 292 378 374 394 516 507 420 453 481 491 513 579 532 340 352 376 366 322 328 314 314 294 282 272 280 326 312 290 282 288 280 286 278 272 264 260 250 246 252 264 288 
151 159 163 179 193 196 187 171 183 185 191 198 191 196 193 189 193 202 196 179 216 242 316 416 477 446 324 276 310 412 536 587 618 591 563 528 424 362 274 280 324 330 412 499 495 430 444 475 475 483 589 571 366 348 384 350 294 316 330 302 274 282 300 354 374 358 324 260 256 274 282 296 280 304 344 340 332 354 380 372 
139 151 173 161 177 173 175 183 191 183 189 183 181 193 181 187 189 191 181 193 202 206 224 220 228 242 238 222 242 288 505 604 641 594 579 542 479 394 310 314 370 338 392 453 467 412 424 461 483 487 598 596 483 420 388 352 306 330 318 338 312 338 360 398 436 414 398 324 306 322 326 346 378 414 444 442 428 440 467 453 
161 157 161 169 183 177 169 183 193 193 187 191 187 191 181 191 183 181 175 189 200 206 193 202 200 200 218 218 234 248 386 587 622 602 591 524 446 350 216 266 346 328 372 459 479 424 418 479 536 571 593 612 573 516 402 364 338 342 306 338 354 414 420 448 461 473 453 428 434 448 422 434 457 438 457 469 465 457 475 479 
161 153 157 173 175 181 189 179 200 187 179 187 185 183 187 189 185 177 185 175 187 189 187 185 198 204 204 210 212 224 300 530 581 579 550 513 428 346 266 282 376 394 422 426 507 469 487 538 589 602 627 600 558 479 402 356 348 370 334 354 398 461 457 471 471 487 479 485 481 461 455 450 444 457 463 479 463 455 465 442 
151 155 175 175 181 183 200 187 189 187 173 198 185 183 183 187 185 177 183 183 196 185 181 181 202 196 210 214 214 214 238 364 556 550 538 516 471 442 450 426 479 495 455 434 532 552 538 550 600 637 622 614 589 440 348 336 338 392 368 404 452 479 475 479 493 467 493 491 479 471 452 442 469 469 453 465 453 418 388 326 
145 147 167 159 183 185 189 196 183 181 173 193 185 183 187 185 189 179 181 179 187 183 191 183 181 187 200 196 204 189 216 234 362 400 457 493 520 522 515 530 562 522 509 544 546 548 567 552 596 614 596 550 452 354 304 286 292 322 328 358 414 452 457 465 485 479 487 473 452 438 432 430 432 436 410 400 344 310 296 268 
165 153 173 161 196 187 200 189 185 185 191 193 193 181 191 189 189 187 185 177 175 175 193 193 200 193 204 200 216 204 208 191 228 260 302 414 475 505 511 530 567 558 548 565 563 567 562 513 452 416 386 326 306 298 268 274 296 302 276 318 334 388 402 434 448 432 444 444 416 392 386 366 332 314 284 262 232 244 268 236 
159 159 163 187 173 187 187 187 193 191 183 193 193 185 189 179 196 185 191 189 196 193 193 198 200 214 208 218 218 220 230 206 218 224 248 278 320 420 442 406 422 471 493 518 513 497 418 308 300 292 288 280 268 290 332 374 406 338 294 290 312 348 368 386 410 390 376 356 328 300 296 268 256 218 212 208 198 200 218 202 
161 183 167 179 183 196 179 189 189 187 181 189 185 198 208 191 204 179 181 189 169 206 208 196 208 216 222 232 222 212 226 196 230 254 268 250 250 258 262 250 258 252 254 272 272 274 280 260 272 284 324 378 404 416 416 410 420 382 350 374 368 370 374 360 352 364 360 348 302 290 288 272 246 218 212 198 169 175 191 181 
153 169 155 179 175 171 191 175 214 193 179 179 187 206 222 218 226 230 252 232 224 206 181 204 212 218 226 234 232 228 240 258 324 300 290 284 292 318 320 332 300 310 302 290 276 262 296 356 428 485 501 467 434 400 408 410 418 388 376 366 378 370 356 338 342 342 356 354 330 316 320 306 268 212 193 189 169 167 155 135 
155 151 177 177 171 175 173 177 189 181 181 200 191 200 282 368 414 479 518 469 394 288 206 222 212 220 226 242 240 266 342 332 304 272 308 362 370 386 372 364 370 368 348 348 332 332 334 380 414 398 410 372 348 370 372 384 396 392 354 366 354 356 344 334 326 348 354 384 364 354 350 336 324 264 202 153 106 124 110 102 
157 171 165 169 177 187 177 175 179 191 189 193 198 218 344 463 520 544 616 594 499 384 344 288 222 216 242 240 278 356 376 308 270 250 320 382 386 386 368 360 348 358 336 334 348 352 338 342 330 354 380 364 336 342 336 344 350 340 328 334 322 356 350 338 318 330 348 384 376 354 366 360 328 336 300 191 102 88 74 63 
159 149 153 161 177 185 169 175 187 185 175 196 204 264 420 499 528 589 624 624 571 536 487 386 240 214 238 312 370 380 342 248 228 254 320 400 386 380 364 346 340 332 320 320 344 326 310 312 302 314 350 350 344 326 338 326 334 296 302 314 314 342 324 324 298 244 286 382 380 366 358 354 344 350 342 300 191 94 29 0 
145 163 163 173 175 175 173 179 181 185 187 185 214 262 448 528 560 624 625 624 614 627 593 516 334 256 302 384 384 356 286 198 208 181 310 390 400 392 364 340 316 314 300 300 308 298 268 280 274 290 316 346 320 306 292 286 298 244 248 280 290 310 288 298 278 169 159 322 368 360 360 356 358 340 332 324 302 226 94 2 
147 159 161 163 165 173 165 163 179 171 169 191 200 258 442 513 544 618 641 629 647 645 618 560 536 452 410 398 396 342 248 171 175 147 312 396 386 376 358 350 324 300 284 312 316 258 254 266 266 268 286 320 284 278 294 278 264 216 173 216 226 274 278 292 280 163 143 254 262 328 344 352 356 338 330 336 326 306 288 163 
151 151 155 161 161 167 179 167 179 175 181 175 196 242 412 505 530 596 641 641 643 631 620 600 542 467 430 422 408 328 228 161 131 165 312 378 400 370 358 340 332 294 278 348 304 250 258 238 246 244 252 270 250 270 316 324 288 236 175 208 226 268 284 298 288 260 234 244 224 246 280 312 332 322 322 330 330 302 306 290 
145 153 147 155 163 171 165 163 171 179 163 177 187 206 296 432 489 546 620 618 627 614 602 554 485 444 422 418 378 352 252 163 112 187 318 372 378 360 356 364 340 294 298 350 274 252 254 256 228 189 226 264 234 312 362 356 354 318 292 282 256 284 286 298 288 252 242 232 240 232 268 246 244 248 292 312 306 296 314 300 
149 163 145 151 169 169 163 155 159 173 161 177 175 173 212 262 342 390 438 489 513 520 532 473 465 434 398 404 380 342 288 187 187 268 334 364 350 348 376 364 330 308 314 322 272 266 260 252 187 167 252 268 274 342 370 392 364 364 316 324 306 320 292 300 288 262 258 208 208 240 228 193 163 139 163 189 230 256 300 298 
145 147 143 135 161 157 157 151 161 161 175 165 181 171 193 183 198 212 220 226 256 268 366 467 455 422 414 404 392 360 306 242 292 326 338 362 366 350 392 370 370 328 336 308 264 264 284 250 198 240 352 390 386 408 432 424 382 360 324 296 302 290 266 272 272 264 246 187 189 196 202 202 187 163 173 169 187 196 238 274 
135 131 137 141 151 143 149 143 145 161 151 165 169 165 183 181 165 167 175 163 191 185 264 432 453 424 392 368 360 360 324 310 340 330 334 346 364 354 384 384 366 342 352 310 266 272 276 246 218 298 400 412 422 420 396 392 392 350 306 272 254 250 230 248 230 226 238 224 210 191 200 236 262 278 310 312 296 308 324 310 
133 135 139 120 155 139 139 153 151 139 145 165 155 169 159 171 165 159 157 155 165 185 258 438 461 426 394 302 302 376 336 306 328 328 324 334 344 356 360 376 352 336 334 294 268 270 270 266 254 324 374 376 360 372 370 368 374 322 266 258 240 230 224 216 220 230 216 234 202 224 228 242 282 324 338 342 358 334 334 342 


