P2
80 60
581
17 33 19 9 21 21 37 43 43 49 39 53 53 55 39 67 51 59 53 57 59 59 65 59 55 61 69 61 65 67 67 63 71 83 77 71 75 71 87 81 61 61 63 83 73 57 59 57 71 43 69 117 155 185 304 425 432 467 475 454 431 392 405 489 527 535 487 400 325 310 347 378 405 376 337 322 300 304 296 294 
33 29 13 23 17 21 41 47 35 47 49 51 37 41 47 63 59 59 57 59 61 63 69 55 55 59 71 53 55 61 57 61 61 63 69 81 61 69 75 73 63 61 67 57 57 53 55 57 77 61 73 93 161 211 382 469 462 494 504 504 477 448 456 465 552 568 541 537 487 357 320 349 322 318 314 310 296 282 286 260 
23 29 31 13 33 23 35 21 33 39 31 43 45 37 51 61 47 61 51 59 35 57 61 61 61 51 63 63 61 49 61 51 65 59 67 67 59 53 67 71 53 63 61 53 53 59 47 55 55 55 51 89 161 264 452 506 498 535 541 522 469 465 465 460 533 564 562 556 531 485 378 384 365 306 280 294 276 278 262 260 
29 35 45 13 21 31 43 49 33 33 39 55 33 45 45 53 51 63 61 61 47 57 47 55 53 55 61 55 53 67 53 63 71 53 69 63 73 77 53 71 51 67 61 65 77 69 75 61 67 69 77 81 151 215 440 516 537 533 550 533 508 454 458 448 518 545 556 564 552 471 409 370 355 329 329 322 300 288 253 249 
17 27 45 21 39 29 49 49 35 51 51 43 41 49 47 49 47 57 49 49 57 55 51 43 55 61 59 65 71 61 59 65 57 73 63 63 69 65 69 69 71 77 71 59 89 65 65 67 87 77 73 95 153 161 323 493 516 537 558 529 512 460 467 448 510 570 562 560 496 417 419 376 380 353 345 339 322 306 304 251 
31 19 37 39 23 13 37 29 41 29 45 57 33 61 51 53 55 51 61 57 49 59 55 45 51 55 63 65 69 63 59 65 57 63 79 61 83 77 71 67 77 85 87 79 73 77 71 81 75 77 65 87 107 151 207 419 469 502 524 516 487 485 434 450 510 535 537 506 386 343 359 331 341 325 323 339 327 304 300 302 
31 31 43 13 29 57 29 47 49 37 31 49 37 41 55 51 45 67 57 59 67 67 59 51 59 59 63 63 57 63 69 77 71 69 65 81 83 83 83 93 79 81 87 91 95 87 71 63 91 81 79 87 83 95 169 316 415 467 493 489 436 367 245 231 353 398 386 325 304 325 327 349 359 361 345 343 329 300 292 300 
15 11 25 35 37 41 35 47 39 47 45 43 35 57 45 67 37 55 59 67 65 71 55 59 53 77 57 69 59 73 71 67 83 69 79 69 81 83 83 87 79 89 77 83 99 81 89 85 89 99 91 87 81 91 97 127 205 235 298 320 249 125 77 97 215 255 251 225 262 369 394 388 369 353 343 341 323 310 290 304 
17 17 27 21 27 31 35 53 45 33 53 47 53 59 43 55 59 61 61 67 65 63 73 51 59 67 77 65 69 79 75 73 87 83 77 83 89 93 89 87 79 87 91 87 93 81 81 79 95 79 87 87 79 73 75 71 89 77 85 93 53 37 75 109 251 316 282 249 310 431 442 427 374 345 351 335 322 318 308 306 
29 29 27 31 27 43 31 47 47 43 55 59 51 57 73 65 49 63 69 63 55 55 75 61 69 73 67 67 67 75 57 71 77 75 87 93 83 93 87 89 75 91 83 75 87 93 79 79 97 85 79 77 87 65 67 63 71 71 77 49 55 57 59 111 278 339 396 363 382 417 436 415 372 361 341 353 335 329 337 320 
11 13 39 37 41 33 27 41 47 39 45 59 41 59 53 59 59 53 61 63 45 71 65 63 63 75 69 65 75 73 85 77 53 79 75 83 83 83 87 77 77 89 91 83 77 83 89 85 97 79 81 77 81 83 71 61 71 61 55 39 45 55 53 131 302 316 390 436 429 421 415 386 369 339 347 370 372 369 372 361 
23 31 39 25 41 45 61 53 39 51 55 43 41 55 55 59 65 65 67 61 61 71 71 61 71 81 69 77 69 67 69 71 85 71 73 79 81 93 85 73 71 75 89 95 83 79 85 79 93 73 81 83 83 71 73 65 63 65 63 53 53 53 65 165 288 323 351 429 423 405 386 351 367 349 359 361 361 365 357 341 
29 31 41 15 43 43 49 53 49 47 43 47 47 55 53 61 59 63 67 57 71 55 49 63 63 73 69 69 63 75 69 73 81 83 69 85 77 71 95 83 85 73 73 83 87 89 81 83 89 81 91 83 79 83 73 71 63 53 61 45 49 55 91 141 290 288 304 396 376 357 351 349 353 331 339 343 323 355 343 323 
19 25 35 29 31 57 45 49 39 53 51 55 57 59 43 45 57 65 53 67 59 71 59 63 67 73 67 73 69 69 67 77 67 79 71 69 73 79 87 75 79 75 81 85 93 85 83 87 95 85 85 87 83 79 85 73 67 55 75 71 75 129 145 143 233 262 294 282 259 276 327 345 355 341 325 327 320 310 320 286 
29 29 39 33 41 45 43 39 43 45 47 51 53 45 39 45 55 63 67 59 71 75 59 57 63 71 63 57 73 71 83 71 75 75 73 69 75 85 75 73 77 83 83 85 79 91 81 73 79 73 89 97 97 73 71 73 83 87 121 159 237 325 374 306 298 355 390 349 329 292 306 349 341 337 320 306 308 288 286 290 
29 35 33 27 39 59 43 59 41 43 45 39 59 53 61 55 47 69 61 55 63 63 57 61 55 73 63 67 55 57 61 65 65 73 69 65 71 73 75 83 75 75 71 83 79 85 87 65 97 77 83 87 79 61 73 77 111 167 243 333 419 479 475 475 471 427 508 545 547 518 372 335 329 314 302 314 316 327 341 333 
21 31 65 43 51 47 51 59 39 37 45 37 49 63 63 63 45 63 53 63 57 59 55 61 65 57 53 81 59 51 65 79 65 55 65 67 67 75 87 81 81 85 69 73 73 81 85 73 81 75 81 89 77 77 73 107 145 193 419 510 491 510 510 533 543 529 460 541 558 556 487 353 304 310 318 335 331 339 363 351 
25 35 37 23 31 37 39 31 35 39 45 35 47 49 39 43 47 57 59 61 57 55 57 55 53 63 55 69 61 55 59 53 67 71 65 61 79 75 79 89 83 83 85 75 73 79 79 87 91 81 79 83 89 79 81 129 155 207 456 533 494 543 531 547 539 564 481 508 543 541 425 337 323 339 339 323 343 361 372 335 
29 31 55 33 25 31 31 45 39 43 43 45 43 55 43 61 57 53 55 53 53 61 59 49 61 57 65 53 65 71 65 77 75 69 77 81 85 79 83 85 85 97 89 83 81 85 85 89 85 95 89 97 87 87 95 157 151 237 506 562 535 529 518 533 524 537 496 479 506 409 312 339 347 333 322 333 367 369 386 401 
29 33 49 29 43 27 33 49 47 37 51 41 47 41 47 71 33 59 51 61 65 57 55 45 65 59 59 63 65 75 77 71 89 75 81 73 85 79 91 95 89 95 99 81 91 91 99 87 107 103 95 105 87 91 105 149 195 255 510 581 556 562 556 573 556 570 504 417 335 262 282 333 327 318 331 369 398 421 429 421 
45 51 47 51 27 29 27 51 37 37 61 53 49 51 51 43 51 65 57 65 71 61 65 67 67 79 65 77 75 81 69 79 81 85 83 89 83 87 85 91 85 91 83 91 93 87 95 93 87 101 99 101 105 95 99 135 189 213 409 541 527 549 547 556 566 545 434 343 308 290 302 310 335 339 365 454 483 491 494 456 
27 41 57 35 41 27 41 51 45 37 45 37 47 61 41 67 53 59 69 63 65 77 63 57 77 81 65 73 73 83 83 81 87 79 83 85 97 93 99 91 89 95 87 91 91 93 87 91 103 91 91 103 101 95 101 103 157 199 284 440 481 450 429 444 413 427 452 427 425 400 331 351 367 372 405 481 491 520 502 454 
41 35 51 37 39 45 47 39 41 47 47 55 41 55 57 59 53 63 69 63 55 83 65 69 67 79 65 69 79 73 75 79 79 89 77 77 89 85 91 83 77 87 89 93 97 87 91 101 107 87 99 103 97 87 105 99 99 119 181 201 203 157 139 175 201 312 423 417 401 361 363 376 376 384 415 493 512 502 473 423 
23 37 49 31 33 33 39 49 35 45 45 49 57 61 57 59 61 65 61 65 73 73 75 75 63 71 75 69 75 79 69 73 89 85 77 99 77 85 87 103 81 93 93 87 95 103 95 101 109 101 89 109 97 93 87 81 103 87 107 93 91 111 115 141 177 229 372 382 378 374 369 398 400 396 409 465 432 376 322 276 
13 51 49 61 25 47 41 51 39 39 51 61 51 49 71 49 67 57 71 61 71 69 73 61 73 85 83 75 69 65 75 69 81 91 91 91 87 85 91 83 87 89 97 89 83 85 103 89 103 91 91 113 109 103 93 93 93 85 103 101 91 97 119 147 169 217 292 372 411 407 413 415 401 388 363 329 268 264 225 207 
31 29 51 39 47 49 37 45 45 47 53 51 57 55 67 51 65 55 49 67 63 65 77 79 73 75 73 81 77 75 77 79 83 87 79 87 77 75 81 87 93 95 103 91 93 83 97 105 103 103 97 101 89 103 107 95 93 95 105 87 95 105 115 135 173 215 237 264 288 322 318 337 327 304 290 276 245 251 217 203 
23 31 61 25 41 39 37 53 39 43 53 55 47 55 53 57 67 75 77 71 57 71 75 69 83 75 79 77 71 69 81 87 85 85 83 97 83 85 87 91 85 87 101 91 97 95 93 105 99 101 97 91 101 83 87 93 103 97 93 87 95 103 113 151 209 255 306 260 243 257 278 280 278 268 253 270 233 245 205 231 
33 41 53 25 31 31 29 59 31 47 47 49 47 53 61 53 61 69 51 57 47 59 59 59 73 75 73 61 73 71 71 75 75 81 81 83 87 85 81 89 85 91 97 85 97 87 85 103 101 79 97 93 97 89 91 89 87 89 95 91 87 119 179 282 353 388 384 361 312 276 282 288 284 266 268 259 235 247 237 241 
39 35 49 37 41 43 39 47 33 49 45 53 51 65 55 65 51 53 55 69 51 73 57 67 71 69 57 71 69 63 75 65 79 81 73 79 73 79 85 83 81 85 91 91 95 87 79 93 101 87 87 89 89 79 79 83 81 89 117 101 125 235 367 388 436 427 419 407 370 329 329 318 300 288 282 296 312 335 308 296 
31 33 37 35 45 33 31 59 51 37 55 55 51 41 43 55 47 53 57 59 55 57 73 49 61 69 63 61 65 65 71 69 75 79 79 77 87 83 75 89 83 81 85 73 97 83 97 85 93 91 85 95 79 81 67 97 75 83 93 131 249 357 390 400 436 417 425 405 409 401 384 357 282 264 292 325 357 374 343 353 
33 25 45 43 29 43 27 39 35 35 37 59 45 49 41 47 49 63 51 59 63 59 55 65 61 63 49 51 63 67 59 65 63 67 81 69 77 75 71 87 77 75 79 79 91 67 87 83 93 95 83 93 79 91 95 115 95 105 165 290 343 369 380 394 409 398 386 388 396 380 335 298 286 296 323 370 388 382 382 355 
25 35 43 25 43 25 37 45 33 25 49 45 49 37 41 47 47 55 57 65 61 67 57 53 49 61 67 59 57 53 55 55 61 63 55 65 67 77 75 85 63 79 73 89 75 79 85 93 93 79 81 85 93 101 173 235 235 229 302 343 337 355 361 386 378 369 388 335 367 339 304 322 331 343 384 382 370 376 369 369 
37 53 55 37 33 31 49 37 35 37 33 35 37 49 39 41 55 49 55 49 53 55 53 65 57 73 59 61 53 63 55 61 63 67 69 65 69 79 71 75 71 87 81 91 77 79 85 83 85 81 95 99 113 181 280 343 339 333 357 378 376 403 384 341 335 322 337 329 341 304 327 349 363 376 403 382 361 372 372 367 
31 41 43 41 21 49 55 39 59 41 49 47 45 59 51 51 43 55 61 59 49 63 71 57 65 77 67 63 55 61 67 65 75 83 65 75 71 77 83 77 79 99 87 83 87 91 93 89 99 97 109 153 231 335 369 392 411 405 380 407 438 483 448 367 343 286 341 322 378 306 355 369 355 353 363 369 369 355 359 392 
29 33 37 37 31 43 37 37 51 39 43 45 45 47 49 59 65 71 69 49 61 59 69 59 67 67 55 67 69 55 75 63 77 73 69 69 83 83 73 79 81 87 89 99 97 87 87 93 103 89 173 345 444 454 452 431 432 392 357 442 477 483 479 448 390 318 310 325 353 337 374 386 382 367 349 347 345 359 369 398 
19 29 59 33 33 27 57 31 35 37 49 51 53 69 67 53 63 71 71 61 61 65 67 71 65 61 61 71 59 65 71 79 75 75 83 77 77 85 83 85 85 89 89 91 85 95 93 107 113 155 325 444 479 475 483 452 411 372 454 487 469 434 448 479 436 369 318 335 353 341 394 413 425 411 400 367 361 363 392 405 
27 37 53 47 33 43 51 53 47 47 45 49 51 59 57 57 53 57 65 69 69 63 61 71 59 75 73 71 77 75 83 77 79 83 79 89 83 77 85 99 83 99 101 95 107 97 89 97 131 221 394 489 487 473 463 431 382 337 444 467 431 388 405 462 425 386 314 333 355 327 365 405 444 421 405 401 407 411 429 409 
23 51 47 43 21 51 39 33 43 37 51 41 65 57 61 57 59 67 67 75 77 73 65 69 73 73 73 83 75 79 69 73 85 81 81 77 85 77 89 79 85 85 89 99 97 107 99 99 129 270 417 376 351 462 450 349 359 343 384 462 438 413 403 429 382 369 345 347 335 339 367 380 392 407 401 415 425 475 508 432 
21 43 47 27 37 47 39 57 39 45 41 47 49 69 65 65 61 65 69 71 55 65 67 63 83 93 61 79 73 71 73 75 85 79 77 89 85 95 85 99 103 95 105 93 99 105 107 107 125 111 149 151 316 367 266 257 298 253 292 421 438 409 409 359 349 363 369 353 347 339 349 339 351 370 367 386 436 407 489 448 
21 41 33 35 43 41 41 43 53 59 51 59 59 57 65 63 65 51 77 63 57 61 67 69 83 75 65 75 73 69 77 77 93 71 89 83 85 79 87 91 95 89 111 97 99 117 101 99 147 125 123 125 149 137 145 149 187 257 296 345 318 314 331 345 359 367 361 339 349 367 345 339 351 335 361 386 429 386 400 429 
9 41 47 37 21 39 31 41 45 53 37 51 45 63 71 75 69 59 67 73 75 79 67 59 63 81 85 75 73 77 75 67 85 83 93 83 85 93 95 95 89 91 111 99 99 117 85 113 123 117 233 121 111 103 105 119 235 323 331 337 323 333 361 329 367 369 384 367 361 361 343 347 341 355 363 398 427 365 398 388 
31 41 39 29 49 33 41 47 53 59 51 51 41 59 71 69 61 63 75 71 63 69 71 67 71 71 71 73 79 75 77 81 89 75 83 83 87 81 97 109 83 91 109 117 117 115 101 121 123 111 229 323 141 105 99 99 159 298 339 331 322 345 384 365 365 359 367 349 339 374 363 359 365 378 400 440 421 394 413 382 
29 29 37 35 31 53 49 49 57 51 47 59 43 51 53 63 59 71 67 61 69 69 69 59 89 79 71 71 63 65 67 71 85 79 85 87 83 93 93 89 87 97 105 103 117 101 95 113 125 103 209 409 355 137 95 97 93 123 207 310 320 347 357 357 370 363 363 349 353 369 372 357 323 392 438 442 405 409 411 405 
11 41 43 37 25 49 45 53 43 53 49 75 59 65 53 61 57 73 73 67 75 73 59 61 65 85 81 77 55 61 77 85 71 87 95 89 85 95 85 79 95 117 117 107 115 111 111 123 147 115 294 444 442 302 91 99 97 101 107 209 322 339 359 363 376 386 367 372 367 367 349 329 349 419 436 448 398 415 423 403 
29 33 29 39 47 41 33 47 49 47 51 55 51 45 63 65 65 67 75 73 57 63 83 67 67 73 63 63 59 69 63 85 77 77 73 79 79 87 81 89 79 101 109 109 119 101 115 121 135 109 282 444 471 380 179 103 87 101 91 145 296 347 369 380 376 370 378 372 353 363 323 316 378 423 436 423 429 409 409 390 
23 35 47 35 41 51 41 45 57 37 47 29 53 45 49 67 47 65 59 59 59 63 65 67 67 63 59 67 57 57 53 73 71 83 67 87 91 79 79 87 83 97 109 107 111 111 121 125 145 139 239 388 450 452 363 201 111 95 95 147 312 380 396 388 380 386 351 323 329 335 296 323 361 440 448 386 378 390 419 388 
29 41 43 57 33 49 47 57 51 47 53 51 49 37 57 47 59 61 55 55 61 73 45 63 61 67 75 63 63 61 51 71 65 77 75 63 75 79 95 85 87 97 101 105 99 101 113 111 153 223 347 409 460 473 452 452 327 139 97 187 347 384 378 374 357 331 294 308 316 320 308 323 345 436 425 380 365 359 396 365 
13 35 35 19 39 35 31 45 35 45 53 49 45 51 49 57 63 49 65 69 63 63 53 59 65 71 63 57 49 59 59 69 65 71 61 67 71 77 85 79 81 85 97 103 103 105 113 119 181 300 483 502 514 518 524 529 491 427 282 298 323 351 337 349 318 316 286 292 286 306 292 325 353 403 407 369 349 341 349 323 
31 35 39 33 35 35 39 39 47 47 57 41 37 53 65 63 61 65 55 63 57 71 59 53 57 81 65 61 51 71 69 57 79 79 77 69 73 83 93 91 85 99 105 119 113 115 113 141 262 401 504 502 512 550 537 531 531 522 485 427 421 417 386 341 312 300 282 255 251 259 290 318 322 363 380 361 367 331 323 323 
33 43 41 45 29 43 41 59 37 53 41 57 51 61 49 65 75 63 59 49 69 67 57 67 63 79 75 59 73 75 73 83 75 83 81 83 87 95 87 99 97 93 113 125 125 133 123 177 312 413 489 500 529 550 518 500 471 483 481 485 465 450 355 335 300 278 266 259 249 249 270 302 339 367 384 337 331 333 318 308 
15 39 37 43 37 39 45 49 51 53 49 49 41 55 63 57 53 67 61 63 75 69 61 65 65 69 67 79 79 77 81 71 89 93 93 81 83 85 95 103 91 107 111 123 127 127 125 181 308 423 465 512 535 506 516 481 454 446 415 442 421 400 316 312 304 304 264 259 253 237 251 272 341 386 403 365 333 341 323 312 
29 17 41 23 43 49 49 49 51 55 39 47 47 49 79 63 51 63 73 73 79 63 71 71 57 75 65 71 85 79 67 87 81 73 85 91 81 83 99 99 97 97 103 109 113 115 133 149 264 378 411 487 525 535 531 463 454 446 425 423 405 369 341 325 294 272 253 249 253 241 237 282 347 396 419 409 337 325 314 278 
25 25 41 53 39 47 47 57 41 63 57 55 67 51 63 77 63 61 73 61 81 77 77 71 65 79 75 89 81 77 85 83 89 99 89 103 85 105 87 91 91 101 117 115 119 113 107 141 191 306 388 436 477 522 516 479 477 456 438 427 413 351 327 320 286 276 264 249 235 251 268 292 369 425 442 440 339 294 290 276 
13 45 35 37 35 47 29 43 43 51 55 51 45 63 45 73 53 61 65 77 75 77 77 65 61 81 69 83 79 73 77 71 81 79 91 93 83 93 91 87 91 99 105 97 103 97 99 115 151 169 253 300 341 382 427 440 473 465 405 345 337 325 314 294 292 272 245 233 237 266 282 298 335 403 432 440 365 264 272 241 
21 41 41 31 35 47 23 41 49 41 37 53 61 43 45 61 63 77 61 63 59 81 67 69 67 63 59 67 73 75 79 87 85 87 81 81 83 95 93 85 83 93 91 89 99 101 101 103 127 107 117 135 141 149 163 169 191 300 322 320 335 327 322 302 288 274 260 245 221 241 294 294 345 400 429 446 405 282 268 239 
27 27 33 19 23 25 17 45 25 35 55 53 29 45 45 61 67 71 67 85 73 71 81 59 71 59 67 67 75 61 81 77 91 75 69 73 87 91 95 91 99 93 93 97 109 109 91 111 111 87 87 97 99 103 103 111 113 219 327 337 337 337 322 320 320 288 288 276 268 280 337 365 384 409 438 454 421 335 288 235 
21 29 43 21 31 35 35 33 31 41 39 51 47 47 47 63 55 51 71 75 77 63 67 61 71 77 63 75 75 63 81 79 91 75 71 83 85 89 85 83 77 105 91 97 103 97 95 93 111 85 89 105 95 89 91 81 83 185 318 355 343 337 325 331 345 308 310 308 312 327 382 413 431 436 431 446 421 369 274 209 
11 27 41 13 21 35 3 45 31 41 57 47 39 49 53 69 57 55 67 57 65 67 67 53 77 67 69 61 75 71 69 71 77 77 79 71 77 77 97 79 83 89 89 95 89 83 85 91 103 87 87 95 85 83 77 89 69 129 274 337 343 345 357 335 333 323 337 312 308 335 405 429 442 432 409 446 436 386 276 217 
15 25 21 13 19 21 23 29 33 29 41 45 43 47 51 63 47 69 59 63 71 71 63 73 61 63 63 67 67 73 77 73 63 89 75 77 81 81 89 81 77 87 93 87 91 79 81 83 89 75 77 91 77 75 77 63 53 99 259 331 351 355 363 351 339 337 331 320 323 335 415 425 446 417 425 427 400 349 259 205 
17 23 5 13 0 19 13 35 31 11 33 35 35 43 39 53 41 45 63 57 55 63 59 57 61 49 59 73 57 57 71 57 63 69 65 83 77 73 83 81 75 87 97 73 85 87 79 83 89 75 57 71 51 61 55 49 37 83 231 333 365 361 370 353 367 353 327 318 308 318 396 398 427 413 390 367 298 245 241 207 


