P2
80 60
593
37 45 29 17 27 19 41 43 51 45 41 59 55 45 39 61 53 51 43 53 53 51 63 65 61 55 65 61 71 79 71 65 69 81 69 73 71 67 77 75 81 81 63 67 71 63 65 57 69 49 75 99 125 145 179 187 324 448 481 497 500 504 491 460 458 386 306 282 272 308 373 435 413 388 373 339 324 333 308 294 
43 33 4 27 33 37 47 45 41 49 43 49 45 37 43 53 47 45 49 55 53 51 53 53 55 57 67 57 65 61 59 55 63 67 65 71 63 59 71 71 73 59 65 49 67 57 57 49 63 61 67 75 107 179 181 185 227 398 473 510 522 529 529 479 524 508 450 444 407 337 312 335 351 367 373 335 320 314 292 286 
31 39 31 19 35 23 41 27 33 41 33 49 49 31 47 57 47 55 37 57 43 53 59 61 59 51 47 57 61 51 57 51 71 63 59 59 61 53 61 63 55 65 65 49 53 63 45 51 51 65 53 63 123 187 183 171 189 326 466 491 514 537 549 529 564 537 491 528 524 493 398 335 343 308 274 270 296 290 264 249 
49 45 33 23 25 25 39 47 41 29 51 55 37 33 33 47 49 63 53 49 55 55 51 53 57 49 49 59 53 65 55 59 57 53 55 59 77 69 55 71 57 61 55 67 71 69 73 55 51 63 71 63 139 171 175 157 189 326 483 502 537 545 547 547 593 543 537 545 568 543 531 421 373 363 320 288 290 276 249 263 
33 33 33 19 39 33 43 49 39 49 49 41 55 39 51 45 47 59 37 45 55 47 47 37 51 49 45 55 67 55 63 55 53 73 61 61 67 59 75 67 73 71 65 63 75 75 65 65 69 65 69 79 141 193 207 169 203 341 493 512 545 535 547 553 562 562 566 564 562 551 498 405 390 339 347 331 331 310 302 302 
35 21 27 43 21 35 43 33 37 25 51 47 35 47 39 45 37 39 49 53 45 47 59 43 41 45 57 65 65 65 59 53 59 65 75 57 75 67 63 71 69 79 75 67 73 75 67 71 65 77 67 77 113 187 223 201 209 331 390 498 541 528 533 537 522 566 570 564 551 497 409 421 398 363 361 359 353 326 302 308 
33 27 31 21 35 57 25 51 39 31 45 49 37 27 47 49 37 55 45 55 59 49 53 51 51 51 55 71 57 65 59 67 75 73 67 83 75 83 79 91 83 79 83 83 93 85 69 69 77 81 71 79 79 157 225 237 231 296 326 386 473 483 454 483 522 556 553 535 504 392 331 365 343 335 339 331 337 314 320 335 
19 17 25 35 31 43 39 37 39 41 37 35 41 35 39 53 35 45 49 63 57 53 53 55 45 67 53 69 69 71 71 63 85 59 75 67 83 75 77 83 81 81 77 79 93 87 93 85 79 87 85 87 79 121 189 213 245 255 263 314 440 425 318 251 298 369 361 329 310 298 331 341 347 351 359 339 331 314 314 326 
25 35 19 41 27 45 37 51 43 37 47 45 53 41 29 45 53 55 57 61 53 55 61 51 57 63 67 63 71 81 73 61 77 85 75 81 91 83 85 77 81 83 85 89 89 81 77 85 89 85 87 81 77 79 107 167 209 195 191 233 268 203 135 121 251 268 239 231 235 274 390 417 382 363 361 341 326 324 326 329 
37 31 33 33 27 47 41 51 47 39 51 57 53 47 57 55 51 59 59 55 55 63 69 61 67 67 65 65 71 75 61 71 73 69 87 93 91 85 77 81 77 95 83 79 95 85 79 79 81 91 81 73 93 71 81 79 99 95 95 73 89 67 65 117 282 312 324 284 257 310 431 436 396 371 349 357 343 327 337 322 
13 27 31 35 39 43 31 45 45 33 39 59 45 49 49 49 47 45 57 59 45 61 69 61 57 59 71 63 77 69 81 79 65 75 85 77 83 75 77 75 71 83 73 81 65 85 91 81 89 79 79 77 89 81 75 65 77 45 49 25 61 51 59 133 308 326 376 417 371 376 429 429 405 361 373 357 345 341 308 318 
39 43 41 25 49 51 57 51 43 45 45 41 37 49 51 53 59 53 55 59 63 73 59 61 67 75 67 73 75 67 73 73 85 67 69 81 89 87 81 77 73 71 73 93 77 75 79 85 87 73 85 85 83 69 75 69 67 53 55 51 65 51 63 167 286 318 355 427 446 466 436 400 376 341 351 353 371 374 357 355 
31 27 39 31 57 51 47 51 53 47 41 53 47 51 43 51 59 61 53 59 65 53 51 59 61 65 69 71 63 81 69 79 77 85 73 97 73 71 85 81 91 75 67 75 75 99 85 87 81 77 95 89 81 83 81 75 65 51 47 45 49 45 73 137 300 304 310 405 446 435 423 382 369 367 371 355 351 371 373 339 
37 33 31 33 31 63 43 51 37 53 57 57 55 49 39 35 51 53 43 63 61 63 53 63 63 69 55 65 79 69 69 79 67 77 69 73 75 77 73 71 79 73 77 79 83 79 83 79 87 77 89 85 75 79 85 79 69 37 59 65 63 99 113 123 235 270 296 306 335 376 376 371 374 367 357 343 353 361 365 337 
41 39 31 39 43 45 49 41 51 51 43 51 47 29 31 37 57 63 53 55 63 71 67 57 59 61 59 55 75 77 77 65 79 75 65 67 63 77 69 71 73 83 79 77 67 75 79 69 77 89 87 99 85 79 77 79 87 73 95 131 205 278 329 266 292 333 320 302 312 298 327 363 343 333 331 306 314 306 312 339 
29 31 27 29 31 55 41 59 49 49 43 35 47 39 51 51 49 63 43 55 61 65 63 57 49 63 49 53 61 65 67 71 71 71 73 67 59 67 67 79 83 73 59 77 75 83 85 67 93 79 83 75 73 57 81 75 109 149 193 263 392 442 456 438 452 444 514 520 526 485 357 345 329 310 304 306 300 304 296 308 
25 33 49 39 49 43 55 61 37 39 37 39 41 47 49 47 43 43 39 47 53 53 45 57 49 45 55 65 57 57 69 69 63 55 59 63 65 67 79 71 75 73 65 67 75 87 85 77 71 79 79 81 75 65 71 99 151 189 361 487 495 504 493 520 539 506 460 528 560 553 483 343 302 300 316 324 329 324 308 288 
29 35 29 23 35 39 37 37 33 33 33 23 47 31 33 25 39 47 39 45 43 43 55 51 47 61 51 55 77 61 57 49 61 69 61 55 75 73 71 77 83 75 77 71 71 91 73 83 87 83 81 77 77 71 89 125 157 183 427 535 493 526 529 537 541 549 469 508 551 545 450 345 318 341 337 322 345 351 355 333 
21 39 39 33 33 33 39 49 41 43 51 31 55 49 39 47 51 51 43 43 49 49 59 57 57 49 61 53 69 73 63 75 79 71 71 73 85 71 77 79 81 85 75 81 83 85 83 89 79 91 85 97 81 87 101 155 149 201 462 551 533 541 526 529 514 535 473 477 529 446 339 337 339 324 329 320 351 371 378 380 
25 45 39 35 49 23 37 51 37 37 43 31 51 37 39 57 33 53 43 49 55 57 49 53 59 53 59 65 69 73 71 67 85 71 73 67 83 73 85 97 85 85 97 77 83 87 97 85 95 97 91 93 87 83 107 155 179 233 497 583 564 539 535 551 531 554 491 433 367 276 284 333 327 308 343 359 392 417 421 423 
31 55 37 53 45 33 31 55 39 47 59 49 45 33 45 49 51 63 51 61 61 59 67 73 63 79 59 71 73 85 75 75 87 85 85 81 81 89 89 87 87 91 83 85 79 77 95 91 83 99 101 99 89 85 101 147 195 217 415 543 543 556 556 560 549 564 433 335 288 270 284 318 320 320 371 438 481 495 497 466 
23 51 47 43 51 29 33 55 43 43 41 37 45 41 41 61 47 49 47 57 59 65 59 59 73 65 67 77 75 87 85 75 69 73 87 77 83 89 81 83 87 91 85 91 85 87 83 89 93 95 93 97 97 93 111 107 163 201 284 467 498 481 481 491 473 471 435 405 407 400 339 347 359 378 415 469 495 524 512 471 
39 37 41 41 47 47 45 47 39 45 43 39 31 47 49 49 45 57 53 55 51 65 47 59 63 71 67 67 87 75 77 79 73 93 73 71 81 77 85 85 79 87 83 91 89 87 97 105 101 93 97 97 93 91 105 101 103 135 193 255 290 213 183 203 215 327 413 411 417 369 373 378 374 374 423 481 510 500 485 435 
13 37 45 21 35 39 39 57 41 41 39 39 45 45 43 53 55 53 47 57 73 67 75 73 65 63 69 67 79 79 69 67 87 85 77 91 71 73 77 97 81 89 93 85 95 91 93 101 93 103 87 103 99 91 101 89 103 81 99 99 101 105 105 137 179 241 363 376 378 376 361 396 392 404 423 483 473 396 329 290 
21 53 45 51 39 57 49 63 47 33 49 59 47 41 57 49 63 45 53 55 69 61 71 65 65 77 83 63 79 67 79 69 75 93 87 79 87 87 87 77 93 81 93 91 79 77 101 85 91 91 87 105 105 101 99 101 95 77 83 105 97 101 109 149 167 231 288 380 413 405 417 429 417 415 402 433 388 318 247 225 
35 37 47 37 49 43 37 51 43 47 53 47 51 59 61 41 67 69 43 63 57 63 67 67 69 67 71 71 79 81 81 77 85 97 67 83 73 73 75 85 95 89 103 81 85 83 89 97 99 105 93 95 91 101 105 99 95 89 89 85 103 101 107 129 175 233 268 329 365 396 386 415 429 431 438 433 435 326 229 235 
25 39 45 31 29 47 33 55 31 35 55 41 49 45 49 51 65 65 69 55 47 67 69 71 71 69 75 71 81 63 85 77 75 77 77 81 89 81 83 83 85 79 91 93 91 83 89 99 97 107 91 83 97 93 93 99 105 81 89 83 107 103 103 141 239 329 345 327 331 347 371 407 435 464 456 409 355 302 243 251 
25 33 53 37 35 27 39 67 25 39 45 35 39 45 37 47 57 65 55 47 41 53 63 59 59 75 67 65 77 71 79 69 71 77 79 73 81 89 87 85 75 81 91 79 89 81 83 95 95 91 91 89 97 83 89 93 81 81 87 91 93 91 111 187 349 337 306 286 288 339 382 423 427 413 402 355 363 357 327 327 
43 35 51 43 37 43 47 49 41 49 53 57 49 55 53 51 49 55 59 59 49 69 61 67 81 69 57 71 73 69 81 69 75 79 75 83 75 83 87 83 83 79 81 87 89 91 97 91 99 97 93 93 91 83 103 97 115 79 91 93 99 131 173 282 404 367 304 290 298 341 390 380 345 355 355 355 390 402 369 369 
35 41 37 45 49 47 21 57 53 47 59 55 45 43 39 39 53 49 61 61 51 61 71 59 59 69 73 73 73 69 71 67 71 83 85 83 69 85 81 89 85 79 83 63 97 77 87 77 83 85 83 93 87 93 157 201 193 123 119 91 103 119 233 373 417 398 345 326 333 357 326 331 318 349 374 386 415 407 382 374 
35 31 47 57 33 53 35 41 33 37 39 57 47 45 43 41 49 65 55 57 65 63 57 65 63 63 51 59 67 75 75 65 65 75 79 65 79 69 89 83 77 75 83 83 89 81 85 81 83 91 79 83 95 149 274 280 280 270 253 205 233 211 235 371 435 435 398 394 378 347 339 345 363 376 404 398 404 398 384 392 
33 35 33 37 41 35 33 55 49 31 35 37 45 27 29 37 37 53 47 49 61 53 51 57 55 57 63 57 65 57 59 47 61 71 53 59 61 71 75 73 63 73 69 89 69 81 75 77 79 77 81 91 129 253 314 326 298 266 298 324 419 411 400 423 436 458 419 394 384 351 349 359 353 386 407 373 359 374 376 400 
39 51 47 37 35 33 33 53 37 35 33 33 37 37 39 21 51 43 57 43 51 43 51 57 47 65 55 57 49 67 55 61 57 75 65 65 71 67 67 73 71 79 77 81 77 73 77 73 77 91 95 87 177 261 316 294 326 288 320 407 448 442 419 415 440 446 417 382 353 347 359 355 371 371 402 371 355 386 388 380 
41 45 39 41 29 55 45 55 49 31 61 41 45 51 39 41 43 47 55 65 47 59 67 49 59 63 73 59 61 59 75 69 73 77 71 75 67 83 79 81 79 93 75 75 85 85 91 83 91 105 99 97 175 257 284 276 333 316 316 388 464 452 427 427 462 438 351 304 355 363 376 404 396 369 376 363 378 390 386 388 
41 49 31 49 39 45 45 53 45 33 45 43 33 41 39 51 53 59 59 47 57 55 57 61 53 59 59 71 69 71 81 59 71 67 73 71 85 73 71 75 79 79 81 97 85 81 83 83 95 89 85 93 157 233 243 209 268 312 292 331 456 460 421 446 436 365 304 333 351 376 394 413 423 402 374 367 402 438 409 413 
29 39 51 45 49 35 51 49 41 35 53 47 49 55 53 45 65 67 57 49 65 57 59 67 61 61 55 67 57 63 85 71 69 81 89 75 77 81 83 81 89 91 85 89 89 97 89 93 103 93 97 99 113 173 201 183 217 237 318 388 495 500 495 464 413 327 326 347 337 339 392 413 440 429 417 400 440 460 466 448 
41 39 41 45 37 49 63 51 51 53 49 51 55 49 45 47 65 53 51 53 65 59 69 71 61 69 67 71 81 77 85 73 69 89 81 91 85 81 81 91 87 99 89 93 107 105 93 91 91 109 89 93 111 99 137 171 219 229 282 333 417 435 433 411 347 335 353 357 333 337 316 322 371 359 374 405 446 518 514 431 
23 47 35 35 27 47 43 33 41 39 57 37 55 53 55 47 61 73 55 65 79 63 57 71 65 69 71 69 81 89 81 71 73 79 79 79 87 69 83 81 81 87 81 97 89 97 103 99 87 97 99 111 101 103 121 111 145 199 207 169 167 237 327 347 331 369 361 347 337 376 298 304 312 310 337 382 417 471 529 481 
31 39 43 31 41 53 47 47 41 47 35 43 45 53 51 61 57 61 71 67 59 67 53 61 67 79 67 81 77 71 77 71 77 77 77 85 85 81 81 89 89 93 75 91 83 97 95 95 99 111 103 97 97 97 115 91 99 83 97 97 107 187 282 322 333 355 367 382 396 373 316 284 292 288 331 376 413 384 450 460 
25 43 31 41 29 41 33 43 49 51 47 49 43 49 57 49 65 51 63 55 61 59 71 61 67 61 69 81 77 65 87 69 89 69 83 77 77 71 85 93 91 91 93 101 93 95 95 91 99 95 101 105 99 95 121 107 115 71 87 81 91 159 266 298 333 361 371 380 369 374 351 306 314 302 363 392 398 373 402 433 
21 41 39 37 27 43 41 47 39 43 47 53 51 53 53 61 69 51 53 63 69 67 59 63 53 71 87 77 79 81 73 63 77 81 79 79 81 81 95 87 81 97 91 109 111 97 95 101 111 109 85 101 93 91 109 101 105 75 89 83 103 141 278 318 363 390 394 390 388 392 369 382 376 423 413 405 405 361 413 417 
29 45 29 33 49 33 47 49 49 67 51 43 49 43 57 53 55 45 71 61 59 65 65 63 67 65 67 73 85 73 83 81 87 75 77 79 85 71 93 99 79 101 87 107 99 111 97 105 115 121 101 103 107 95 101 99 111 75 113 199 197 213 331 363 404 405 405 390 384 413 402 411 454 491 479 427 398 394 419 402 
41 39 49 47 41 55 51 53 55 51 57 45 47 49 49 51 65 67 61 61 69 59 59 65 75 67 71 69 73 69 73 65 85 79 83 83 85 87 99 83 97 111 93 103 125 97 101 103 103 113 101 107 107 97 97 87 93 89 147 284 343 320 347 382 417 405 374 373 378 380 402 431 464 502 481 429 409 423 421 409 
23 47 47 45 31 53 51 71 47 41 51 63 53 61 47 49 57 65 65 71 69 71 63 69 59 83 87 77 69 79 73 81 81 89 91 87 87 85 87 79 93 131 91 111 95 105 111 117 125 121 97 111 101 101 109 113 101 87 197 329 392 380 384 376 400 378 365 371 361 369 400 436 454 485 473 440 413 433 435 429 
29 41 39 43 39 39 37 53 45 41 47 47 55 35 45 51 63 53 57 69 55 55 73 63 61 65 73 63 73 73 65 81 71 83 69 79 79 81 81 85 87 99 97 111 107 101 121 119 113 127 103 117 121 105 115 73 85 91 213 327 359 343 339 347 355 345 359 363 339 382 394 429 436 450 460 409 415 423 398 400 
31 43 41 29 35 41 35 41 57 27 43 33 47 41 41 53 43 61 47 57 55 47 53 65 63 51 59 63 67 63 59 71 65 69 57 77 81 69 71 83 93 103 97 105 111 105 111 119 111 119 93 105 97 103 113 99 87 85 165 318 365 320 310 292 331 345 322 329 347 347 343 365 392 458 444 371 363 396 407 402 
41 35 37 51 33 51 57 55 53 41 35 43 49 35 43 39 53 51 45 47 67 55 49 59 51 59 69 65 71 61 55 69 65 73 69 57 61 73 85 75 83 89 91 99 93 111 107 107 107 113 113 107 111 113 105 97 95 69 139 312 384 339 306 300 310 320 316 306 349 357 333 351 353 423 411 361 353 367 390 359 
29 35 31 11 31 41 33 49 39 39 45 45 43 47 35 53 55 37 59 63 65 55 57 57 51 63 61 55 63 61 57 61 63 81 63 71 67 69 81 75 79 87 89 103 101 117 121 117 181 276 284 320 314 312 314 153 103 91 199 308 333 320 290 300 294 284 272 314 326 345 329 322 322 369 398 357 351 343 331 329 
37 43 33 31 31 33 41 51 41 39 55 37 39 47 49 53 55 51 49 59 53 69 61 53 57 61 61 59 61 69 67 61 71 67 75 65 73 77 89 83 81 97 93 103 115 121 113 135 290 466 467 495 495 514 512 438 333 243 337 349 335 298 259 259 270 272 276 274 278 274 296 296 274 306 355 335 343 318 304 292 
47 41 37 49 23 47 47 65 37 51 37 55 59 59 53 67 65 41 55 41 65 69 55 69 67 75 75 61 83 75 81 79 73 91 77 77 83 85 73 89 97 95 103 115 117 135 131 217 382 495 475 500 533 518 541 528 516 483 462 446 374 314 266 259 255 247 245 237 227 229 257 263 263 268 278 288 310 318 294 306 
19 45 39 49 37 45 41 51 45 47 57 47 45 47 61 53 47 57 55 49 67 67 61 63 65 75 69 83 81 75 79 75 95 91 91 75 79 79 87 93 89 105 101 119 119 135 159 292 421 510 489 516 535 529 516 524 518 495 477 456 405 302 249 253 239 259 225 219 219 199 233 235 233 235 253 272 290 312 290 284 
35 37 45 23 43 55 49 61 51 55 41 47 53 45 61 61 53 63 63 57 69 63 67 79 59 69 61 73 81 75 71 87 77 79 83 85 81 71 99 77 101 95 113 113 111 121 177 278 400 506 497 539 545 506 471 438 452 425 462 413 361 290 259 253 227 239 221 219 223 203 219 229 225 223 245 272 270 298 282 245 
29 41 45 55 47 55 47 67 45 65 55 53 67 49 53 65 61 65 65 59 79 77 79 81 63 65 73 79 81 83 91 77 85 91 95 105 85 95 83 85 95 105 119 111 119 121 155 292 402 462 477 535 529 520 475 438 440 404 427 394 349 278 261 263 233 249 225 209 201 185 197 207 213 213 247 263 243 272 278 229 
23 41 35 37 35 57 47 39 39 55 57 49 43 53 53 61 63 55 65 63 73 77 83 73 61 81 71 83 79 79 79 69 79 81 93 97 81 91 79 85 97 103 103 93 107 109 113 225 351 433 440 500 533 526 493 460 442 394 425 402 365 292 272 245 233 239 199 201 197 183 197 219 199 193 235 233 247 255 235 235 
41 43 43 37 41 47 39 49 55 43 35 53 59 45 53 65 71 69 61 63 65 83 69 71 71 63 61 65 75 75 83 77 87 87 93 89 89 89 91 85 87 95 93 93 97 111 105 159 253 353 384 427 469 473 475 450 388 347 374 378 374 316 296 247 235 241 227 223 203 181 197 189 195 191 211 213 219 231 219 203 
39 39 33 35 29 27 27 53 37 33 49 49 25 51 43 55 63 63 71 71 69 75 75 67 73 61 77 67 73 63 81 75 87 79 71 83 83 83 89 95 95 85 97 101 107 111 119 141 149 181 209 201 199 209 243 183 155 147 292 302 300 284 243 253 251 231 225 205 193 179 195 187 183 171 191 197 193 213 215 197 
23 35 49 21 31 45 37 47 31 47 41 47 47 45 39 51 59 53 53 71 75 63 65 65 71 71 53 75 77 67 75 73 81 75 75 75 85 85 83 83 79 91 97 99 113 147 189 221 217 225 191 153 133 123 111 115 109 107 243 292 308 280 255 245 251 233 211 217 207 189 181 191 177 179 179 173 205 227 197 207 
15 33 39 19 23 45 29 45 33 51 49 45 35 39 51 65 59 47 69 59 63 61 69 59 73 67 65 67 77 79 79 69 69 65 75 71 73 77 83 79 87 89 81 85 97 169 290 316 292 296 282 294 163 107 95 89 83 83 231 302 300 266 255 239 237 237 227 211 213 181 187 185 169 179 179 171 203 235 195 205 
25 35 19 13 27 23 33 35 45 29 29 41 39 37 45 53 51 49 51 61 69 57 65 71 69 61 65 69 67 81 73 71 61 79 69 73 79 77 89 79 81 85 93 87 93 153 270 316 312 278 286 326 300 227 121 65 79 83 245 302 324 292 259 245 243 241 211 199 221 239 209 191 179 167 177 179 209 245 205 191 
15 27 4 11 0 21 21 57 37 17 33 25 31 31 39 43 37 39 51 47 51 57 53 59 59 49 57 67 71 65 67 57 69 63 65 67 75 61 77 85 83 89 89 79 85 113 203 284 306 322 276 318 296 268 213 83 83 131 264 312 341 296 276 257 259 247 225 225 241 245 221 189 173 177 193 187 215 237 193 207 


