P2
80 60
710
106 120 126 126 130 126 132 147 142 147 132 142 136 144 147 140 142 147 140 138 144 118 140 118 126 201 407 479 463 443 409 411 401 389 397 403 405 393 399 375 357 383 415 413 407 397 417 415 477 527 550 544 548 523 499 481 449 433 423 355 311 313 295 274 274 272 266 270 303 335 293 268 274 301 303 321 337 357 375 353 
104 112 106 134 136 126 136 140 128 142 120 128 130 132 140 142 142 120 134 128 136 124 126 136 144 205 453 540 511 483 455 433 433 401 409 421 403 383 389 363 361 359 377 375 365 373 383 359 383 425 465 517 560 546 511 491 463 439 431 395 367 343 341 301 297 297 297 317 355 355 301 266 264 277 321 341 341 347 367 343 
114 116 118 136 151 126 126 136 149 130 149 138 151 147 151 132 147 130 134 140 144 126 149 151 153 201 433 566 544 556 505 469 447 405 407 415 391 373 387 369 373 361 383 385 393 391 381 375 379 401 403 417 459 505 503 511 509 485 477 475 435 375 369 363 339 337 341 353 351 337 307 287 285 307 313 349 347 355 341 317 
114 128 126 136 132 140 126 130 144 140 138 151 134 153 128 149 147 126 144 136 167 134 175 175 173 203 379 509 564 548 533 503 471 413 407 395 415 389 409 397 403 407 433 431 417 407 399 397 379 379 373 377 391 397 423 445 459 457 477 453 425 399 389 369 361 395 389 365 341 321 301 303 321 305 335 361 375 395 365 319 
116 130 126 130 130 122 132 138 124 140 136 136 138 149 142 134 136 142 165 185 228 246 305 335 274 287 405 465 542 596 586 568 513 445 429 415 419 407 417 417 419 421 423 415 415 401 401 375 365 375 365 367 351 339 349 361 395 379 395 395 373 371 359 337 361 403 393 373 347 347 313 285 339 323 327 333 341 313 270 234 
122 132 126 122 118 130 126 130 140 134 142 155 149 157 153 144 153 171 209 331 427 469 548 578 529 536 588 576 544 554 574 574 540 477 455 431 419 405 421 419 409 423 427 417 397 395 395 379 361 381 365 343 339 325 309 325 361 353 343 345 317 315 319 353 395 377 395 377 361 335 289 262 289 274 226 216 199 165 179 181 
118 138 136 130 128 151 142 138 153 144 144 157 147 179 153 144 157 173 323 423 538 599 633 619 641 679 681 703 674 601 536 505 495 451 449 439 441 431 439 439 429 427 415 417 393 409 427 409 385 397 371 337 337 327 325 325 363 363 335 311 315 315 319 361 359 365 343 347 319 266 209 209 199 167 179 153 153 165 157 159 
122 124 126 136 136 161 144 167 138 151 149 153 169 159 155 179 159 218 401 455 596 580 644 641 643 654 664 710 701 687 625 505 475 439 449 455 445 435 433 427 445 471 473 427 417 417 427 429 417 417 411 391 375 361 345 343 351 347 335 339 339 339 325 327 327 307 295 254 228 197 171 167 169 161 155 163 161 177 175 153 
116 138 140 116 151 147 153 167 153 147 161 175 157 169 163 163 171 228 377 505 625 615 656 666 609 625 631 652 656 670 611 546 533 509 515 523 515 481 495 469 465 465 467 461 467 471 471 465 443 427 411 407 407 385 375 379 373 373 353 351 323 303 289 254 250 230 224 195 201 195 171 197 179 175 173 177 167 173 175 144 
118 130 142 136 155 153 161 142 155 161 161 167 157 175 169 169 189 212 333 417 582 633 627 633 597 588 546 481 403 465 471 483 544 566 552 533 511 479 487 457 447 439 445 465 493 562 578 517 501 495 483 499 495 489 485 481 457 445 409 333 335 347 333 333 232 212 218 195 201 195 181 195 195 205 191 179 175 167 179 171 
106 128 147 142 153 142 153 149 157 159 140 173 173 165 167 144 157 169 270 375 483 576 621 621 570 552 371 240 207 240 262 381 586 590 574 544 521 491 489 471 457 475 499 515 588 644 658 623 625 629 652 646 662 625 603 582 546 519 515 497 431 387 425 309 222 212 212 205 205 203 207 224 226 218 214 205 177 181 185 183 
120 134 161 128 171 171 151 165 153 149 177 175 167 153 169 161 175 167 199 260 369 459 473 439 387 283 207 218 203 207 238 299 505 578 568 550 534 507 517 509 507 485 463 481 499 550 564 550 582 601 609 601 592 574 578 550 546 546 538 509 453 437 409 274 240 230 222 224 244 214 216 222 238 234 224 218 224 220 212 226 
112 118 147 138 159 153 151 153 153 165 161 165 165 175 165 159 167 153 163 165 191 195 203 177 183 191 191 199 209 222 266 419 560 574 586 560 533 525 523 501 475 453 425 413 393 379 389 385 417 483 495 503 505 491 493 467 475 475 515 483 457 439 387 373 325 274 240 234 226 242 228 244 266 260 248 256 242 248 277 337 
104 130 136 138 149 157 161 167 157 155 155 163 151 179 157 161 163 151 165 155 165 153 159 159 171 177 175 207 201 232 365 586 596 566 572 560 544 546 574 560 513 439 391 457 463 487 475 477 431 469 517 519 517 534 533 489 455 443 489 473 465 465 441 443 421 395 331 315 293 303 295 317 343 337 317 307 309 325 371 371 
132 132 142 165 159 142 163 153 149 165 163 165 169 157 165 173 163 157 155 155 165 151 169 163 167 173 163 216 205 256 471 619 619 584 615 627 629 594 588 554 536 538 538 515 523 503 469 485 431 451 493 507 517 501 525 501 491 449 445 481 467 461 471 453 449 457 393 353 363 375 399 413 435 421 429 401 401 419 421 377 
134 140 144 142 157 155 149 159 147 153 151 163 161 163 169 161 153 144 155 161 163 161 165 173 173 189 175 222 232 274 529 611 623 619 637 613 613 596 601 572 564 556 538 505 479 463 459 465 443 439 459 463 493 487 485 469 461 477 467 487 495 473 491 479 481 465 441 413 379 389 453 455 481 461 425 411 409 415 419 373 
140 149 144 140 136 144 157 153 155 159 130 163 165 169 153 155 157 142 161 165 169 161 179 185 201 205 199 234 293 361 507 586 641 644 635 611 603 588 576 566 548 533 519 505 469 457 455 423 427 431 437 443 471 457 445 439 439 501 503 477 499 495 487 503 497 487 479 425 419 429 463 467 473 457 433 419 423 403 405 377 
138 147 151 153 153 165 165 153 144 161 159 163 167 167 173 165 173 157 165 179 212 230 277 285 272 260 234 299 409 578 523 609 641 646 625 613 619 594 586 586 570 556 542 511 489 475 449 431 415 419 417 423 443 453 409 419 415 463 509 495 463 493 501 495 487 481 487 457 425 447 433 463 459 457 451 435 423 423 381 335 
122 149 159 134 144 149 161 167 151 169 177 151 165 175 159 177 175 171 195 203 345 475 540 548 540 485 421 449 529 656 650 601 639 601 611 617 615 582 592 586 588 574 550 546 509 483 461 439 419 437 413 399 419 409 409 403 407 431 461 459 449 429 425 445 435 439 445 427 433 427 459 451 461 463 455 427 411 383 353 303 
140 159 159 153 169 157 161 161 163 155 175 175 161 177 191 181 177 187 203 285 519 588 590 605 613 613 605 650 654 683 675 633 601 570 594 609 607 599 603 601 588 576 529 529 513 499 475 449 445 445 431 417 417 429 419 409 431 489 473 419 343 309 315 319 307 333 337 353 443 457 453 449 471 469 449 423 385 319 285 246 
138 163 163 163 153 161 167 159 153 177 169 185 169 179 183 187 185 181 214 389 596 601 599 607 582 615 611 675 687 670 648 592 605 623 625 625 639 627 627 619 603 586 572 542 525 503 481 451 445 447 449 441 451 457 451 447 445 461 417 347 321 391 461 489 451 471 457 449 463 459 455 443 459 435 423 369 291 262 248 232 
140 144 169 169 157 155 159 169 179 173 161 181 171 179 165 173 171 175 228 419 617 580 582 596 558 560 570 631 662 674 621 603 637 646 637 605 615 596 578 544 529 529 517 517 507 489 471 447 445 455 469 465 469 489 473 487 439 477 431 401 457 487 503 517 519 511 507 473 437 449 411 431 429 411 359 281 268 258 246 226 
134 165 163 161 165 171 163 173 175 171 161 185 183 179 165 185 181 191 218 377 590 596 576 552 568 570 562 582 601 605 538 643 643 623 631 613 594 592 568 548 521 495 483 477 469 477 465 451 445 495 529 483 531 527 523 521 489 511 533 507 507 497 515 513 525 523 540 479 439 411 407 411 387 311 260 264 244 244 238 205 
140 151 163 155 169 169 173 157 151 169 167 179 185 181 179 169 193 181 191 289 453 538 554 609 597 594 517 419 399 487 501 625 619 605 601 592 594 560 566 533 533 519 523 511 491 487 479 477 471 523 513 548 568 554 542 521 523 534 560 517 515 513 509 509 509 534 533 493 455 421 371 359 307 252 248 232 222 250 236 209 
128 149 151 161 159 159 173 169 147 153 175 175 171 169 193 173 175 179 179 205 301 387 439 437 393 339 285 279 289 373 540 605 590 560 550 542 542 556 544 523 517 507 503 529 542 554 556 533 521 544 525 574 572 556 534 529 527 554 560 527 507 505 511 511 513 507 499 479 447 367 299 266 258 240 240 234 230 236 238 201 
140 144 179 161 175 173 173 165 175 167 173 181 175 175 171 181 177 163 179 177 195 212 236 226 238 226 224 264 244 291 519 613 568 509 519 493 513 542 560 536 560 566 576 560 550 584 603 586 584 582 586 558 548 521 523 517 509 542 552 523 507 505 513 501 481 473 485 429 363 301 268 248 254 230 254 228 220 232 228 197 
134 144 161 175 169 159 165 151 151 167 175 181 163 177 169 167 175 165 169 167 175 173 181 185 197 197 212 226 230 268 481 599 540 525 501 475 531 580 625 625 613 625 613 613 588 586 592 588 597 582 542 475 473 453 467 473 445 447 483 465 455 435 427 409 391 361 325 309 297 283 268 252 268 254 240 234 220 226 234 222 
132 157 153 161 151 165 151 163 171 179 171 171 165 179 171 175 175 163 165 163 181 175 179 171 183 199 203 230 216 248 365 564 568 556 588 566 570 570 599 596 596 605 617 625 607 578 580 582 558 453 329 274 311 268 277 272 268 283 277 264 240 248 238 244 252 264 266 285 289 299 272 264 254 238 246 218 209 224 224 195 
140 136 171 157 161 171 159 149 169 144 167 175 175 181 173 163 171 163 157 161 165 159 177 175 179 189 185 216 216 230 252 387 538 576 603 603 572 556 601 594 562 568 576 578 584 556 515 417 303 283 260 248 236 230 218 224 205 199 201 207 209 216 205 220 228 250 260 268 274 301 268 262 248 234 226 212 207 193 205 183 
136 151 159 163 142 161 157 157 161 155 151 163 169 175 169 159 161 163 163 153 165 161 169 171 173 185 179 205 205 220 224 246 299 417 592 599 572 574 556 461 393 351 347 365 327 293 274 250 250 246 250 250 248 232 236 220 207 197 201 197 199 207 216 222 224 242 266 266 293 283 264 252 248 222 218 205 203 203 209 197 
134 155 169 171 179 161 163 159 161 157 171 169 163 167 173 163 157 157 159 147 165 155 171 169 173 179 183 212 220 226 226 252 383 487 550 576 562 403 311 279 236 232 232 236 234 234 252 250 250 264 262 254 254 244 234 240 224 222 209 203 214 220 226 226 246 260 272 274 299 283 260 248 244 228 199 191 197 191 214 199 
142 155 163 161 169 163 165 153 167 179 159 179 175 173 171 185 175 175 167 159 171 157 173 175 185 187 181 224 222 226 258 393 534 540 586 588 536 323 274 246 244 234 232 236 238 238 252 279 260 266 297 301 333 317 279 329 389 367 339 295 303 289 274 268 277 295 289 279 291 289 272 254 248 224 201 199 185 201 224 201 
130 147 163 165 151 155 169 163 171 167 171 165 161 201 189 189 171 171 173 169 183 157 173 175 181 189 187 224 214 248 357 527 548 536 576 558 491 357 293 274 252 266 240 283 303 329 359 407 351 345 381 395 401 337 321 377 465 463 449 429 427 379 313 305 313 305 311 321 281 285 279 256 258 226 220 209 209 207 216 205 
124 165 165 167 169 165 167 183 171 171 171 169 169 179 171 179 181 177 177 169 175 177 175 173 185 195 197 224 242 293 479 548 540 540 544 515 493 505 469 401 357 399 365 357 383 421 449 429 411 349 357 365 381 333 327 389 437 461 453 461 463 417 357 347 331 313 301 321 289 289 291 268 281 254 240 234 238 230 214 197 
124 159 147 157 163 142 171 167 167 171 167 181 167 183 183 181 177 171 183 173 179 165 183 181 201 193 212 238 274 461 525 536 536 513 497 473 475 455 497 461 457 453 369 321 313 373 383 409 367 301 313 319 365 331 325 365 391 413 415 417 425 401 363 357 365 343 337 335 337 329 319 339 373 375 375 355 333 287 254 220 
114 147 171 163 175 177 169 167 163 171 169 181 173 195 185 173 173 175 187 187 195 197 185 191 209 222 224 268 381 471 513 521 525 505 467 475 483 469 481 461 457 437 367 327 291 345 385 397 355 285 307 301 349 341 335 333 357 345 357 385 401 383 373 373 371 371 359 357 349 361 363 365 391 417 417 429 429 423 397 317 
138 159 159 175 177 159 169 175 169 185 181 177 181 187 181 177 181 175 191 189 256 287 307 313 359 403 331 427 431 461 505 540 511 515 529 469 477 463 489 465 425 405 403 379 337 373 407 403 359 295 309 313 349 351 371 373 379 355 371 393 375 363 377 367 365 399 385 379 377 371 357 367 367 383 399 411 423 427 433 401 
136 173 171 169 157 155 169 171 181 173 173 181 179 185 181 175 187 183 185 228 357 427 451 503 566 578 513 505 487 463 509 536 550 568 548 493 447 477 467 461 407 403 403 417 425 419 411 407 345 317 331 325 345 365 377 403 417 393 373 397 419 389 387 423 413 403 405 401 383 365 335 349 333 359 383 393 399 399 417 395 
140 140 161 167 167 171 169 177 171 173 167 175 173 179 183 181 183 177 209 258 387 427 517 576 578 546 560 564 536 493 499 534 519 507 529 473 475 473 451 445 417 435 419 415 443 445 417 395 363 355 347 321 345 369 393 377 353 363 367 365 389 427 399 439 429 457 413 393 387 349 313 299 301 329 349 365 345 363 361 365 
124 153 151 153 165 173 167 157 169 159 177 191 195 187 183 185 181 183 197 303 369 459 473 536 572 566 564 603 560 513 509 523 511 477 487 507 519 548 513 491 463 435 461 447 459 433 411 393 393 387 327 319 319 351 385 365 337 333 353 361 365 365 403 429 425 383 347 313 287 272 230 264 230 224 256 283 283 297 323 305 
126 142 155 163 151 159 161 171 171 169 175 171 161 183 161 177 187 179 203 337 407 419 465 499 560 586 613 625 572 501 495 499 513 477 477 507 584 572 527 523 517 475 479 471 453 425 391 389 407 381 329 323 297 357 377 375 349 359 363 381 363 377 387 403 427 437 411 369 365 339 283 274 274 287 295 343 341 343 339 319 
136 144 161 153 159 153 163 165 175 173 177 177 183 171 159 177 183 169 187 277 361 395 405 487 566 584 586 619 534 497 501 527 517 497 515 546 578 542 477 523 511 491 479 485 497 431 373 415 435 371 345 343 333 345 379 371 357 359 347 379 379 381 385 407 403 409 407 399 397 395 353 361 373 365 387 405 413 393 417 373 
136 144 153 153 161 161 173 163 167 167 161 179 169 175 165 175 173 163 191 181 293 343 367 423 534 554 505 461 381 431 507 525 519 499 534 536 529 479 469 523 511 489 483 483 491 433 393 435 445 383 357 323 317 363 375 365 345 349 343 353 373 369 379 383 377 377 361 367 377 369 365 379 391 411 397 421 437 429 441 401 
130 153 169 157 159 163 173 169 171 155 151 175 167 173 179 175 171 173 183 179 212 244 287 311 395 375 274 262 246 311 475 511 487 483 467 433 425 467 479 505 477 503 505 453 491 427 385 443 453 387 303 279 313 333 355 343 331 349 343 323 341 357 359 357 367 343 341 325 339 367 353 381 397 401 393 399 427 435 441 375 
140 140 149 159 153 157 159 165 167 163 151 171 179 171 179 173 183 159 163 177 189 179 187 209 222 220 197 228 236 262 423 485 487 463 461 445 467 499 479 455 409 449 421 393 435 389 397 433 421 325 270 258 268 301 299 305 305 303 319 285 303 325 325 335 321 301 297 254 323 337 329 351 359 361 365 365 339 331 331 260 
140 157 151 142 153 155 165 167 159 169 171 187 187 175 171 169 183 187 171 165 173 153 181 181 199 199 201 220 234 252 425 469 453 449 449 465 477 479 399 299 254 315 295 301 379 409 423 419 359 313 272 238 250 281 270 262 260 270 266 274 274 283 291 303 281 258 240 220 268 260 272 281 287 262 258 248 238 236 236 216 
124 155 155 165 153 167 165 171 173 179 173 179 187 183 183 171 169 173 181 179 201 165 183 179 189 209 199 232 240 281 497 527 481 389 347 355 385 369 305 234 246 240 262 277 291 353 359 347 335 323 309 289 291 309 266 260 232 238 258 268 258 272 281 262 250 240 232 222 244 240 216 220 207 197 187 191 212 214 195 175 
120 159 157 153 153 169 161 169 169 165 173 187 197 244 289 254 220 177 187 167 173 157 179 173 193 197 189 232 240 281 477 515 377 260 226 201 266 301 305 297 283 268 268 260 258 250 270 246 248 264 256 248 260 268 248 230 228 201 214 220 222 224 232 218 222 238 254 260 248 248 224 220 216 189 177 175 165 167 169 163 
118 147 153 159 149 161 177 161 185 171 167 207 301 427 529 495 429 301 240 185 189 163 171 175 191 197 216 258 337 367 421 461 431 393 387 385 411 447 479 465 455 453 435 431 377 311 262 222 232 236 240 220 230 207 203 203 193 173 189 175 185 201 193 212 224 248 268 285 283 254 246 242 220 173 163 165 140 151 153 128 
130 147 169 149 144 155 167 171 147 159 189 295 371 538 564 562 586 562 489 373 216 179 177 177 191 199 228 369 425 423 411 393 393 403 439 451 455 542 564 556 552 529 491 491 461 441 389 313 260 232 226 224 212 195 203 197 185 191 183 181 181 185 185 205 203 242 272 272 277 250 250 230 230 171 142 126 114 132 126 130 
116 159 155 153 169 165 157 163 159 171 214 339 427 556 570 617 631 584 562 542 429 209 185 181 183 205 341 403 395 387 371 321 268 234 266 319 397 515 570 574 564 536 501 495 477 459 441 405 397 323 252 236 248 230 222 228 234 205 197 197 191 189 197 191 201 197 242 252 268 230 224 226 212 163 134 102 91 106 116 93 
130 142 142 136 151 163 161 157 157 165 212 341 457 499 580 613 603 570 493 483 503 389 228 205 242 333 387 383 365 351 301 246 205 201 246 307 353 409 441 433 435 451 469 525 515 485 469 433 419 425 383 331 313 281 272 258 248 228 214 207 185 214 199 203 187 189 216 244 250 228 222 216 199 142 91 58 73 79 91 83 
120 138 149 147 157 155 151 151 161 167 189 333 459 501 552 621 615 529 413 431 445 481 453 361 349 395 363 373 335 319 281 199 163 189 293 341 381 379 391 367 373 371 395 419 415 403 391 389 421 429 411 393 335 301 281 272 258 242 226 218 214 216 216 207 197 207 207 209 209 207 199 193 167 112 79 33 40 38 67 85 
118 142 138 136 155 142 157 138 153 165 161 287 429 505 542 603 588 538 451 455 445 499 525 443 381 363 329 349 313 291 226 171 149 207 281 337 341 353 337 335 337 353 363 363 345 341 333 353 427 431 421 411 393 337 313 297 277 260 248 236 201 220 214 207 197 209 197 212 195 199 201 201 203 155 149 114 98 71 67 73 
114 151 144 130 132 155 159 151 161 157 167 199 301 405 511 599 578 586 558 540 499 515 475 379 365 361 321 325 293 234 167 142 161 189 277 317 339 313 305 277 307 335 347 339 331 323 299 343 397 427 425 401 409 349 317 309 281 264 248 250 240 240 232 234 214 240 222 214 216 209 244 264 305 303 313 307 301 258 228 205 
112 128 144 138 130 134 136 140 144 165 147 159 165 220 279 445 523 552 568 564 536 495 417 377 351 337 317 317 256 171 93 102 155 189 279 315 323 309 301 283 289 319 317 321 307 295 299 389 401 405 423 423 407 345 309 277 274 266 254 246 226 252 248 244 242 248 258 240 226 232 262 285 325 345 355 361 351 347 333 303 
104 126 128 128 138 140 126 128 132 140 138 163 157 157 181 214 262 256 303 367 465 439 393 357 339 337 327 309 220 124 87 112 83 173 287 317 337 307 293 305 279 299 295 297 299 335 371 409 407 411 417 417 373 319 293 270 262 266 240 240 248 252 258 252 254 260 281 264 250 264 274 291 337 345 369 377 365 363 357 301 
98 114 120 120 124 128 126 116 110 130 140 138 151 159 159 171 165 163 173 181 349 395 389 345 327 341 361 347 230 147 118 62 0 185 293 333 343 319 315 283 270 277 299 307 339 353 383 401 395 389 363 357 319 274 252 238 218 207 214 207 232 234 238 246 230 205 258 281 272 293 293 307 341 339 363 351 353 359 341 317 
79 118 114 118 106 112 122 108 110 122 124 140 142 140 147 155 149 153 167 228 407 403 395 331 299 307 329 333 248 173 114 85 98 226 301 329 345 319 327 287 291 297 329 359 357 357 371 357 349 337 289 260 258 246 242 236 214 199 181 191 201 232 234 230 205 120 250 281 291 309 295 307 301 311 321 325 301 305 307 291 
93 108 110 100 114 110 120 118 110 108 122 138 153 175 177 187 199 179 185 315 497 445 407 331 293 274 270 307 244 163 102 108 134 173 252 295 307 299 301 262 293 337 377 395 377 339 345 311 274 252 222 169 171 205 228 254 240 236 242 238 248 248 240 234 218 181 254 268 272 238 258 258 274 272 272 270 277 260 238 203 


