P2
80 60
604
50 48 36 60 44 46 60 52 58 80 50 54 60 54 66 62 70 60 74 40 48 40 46 54 64 70 211 397 437 403 339 335 292 294 296 296 313 317 302 284 270 278 310 341 379 401 408 414 405 395 350 335 302 270 278 259 223 202 215 190 235 217 239 239 213 182 168 188 221 205 209 190 219 259 235 247 265 290 313 288 
60 24 16 46 44 40 46 56 66 78 74 58 54 42 48 70 58 64 58 56 72 38 44 52 50 72 253 447 451 439 385 346 323 300 292 280 284 302 276 265 266 268 288 282 300 315 331 348 383 397 401 387 364 344 329 337 321 294 308 272 219 219 203 211 209 200 203 209 247 243 227 184 221 247 257 259 288 300 315 325 
44 42 24 42 60 48 30 52 48 50 48 48 56 46 54 60 68 58 64 60 54 46 54 48 64 82 253 395 451 445 410 368 339 321 296 296 294 274 286 278 261 268 266 259 251 261 257 265 272 319 374 391 397 399 401 383 385 370 346 352 290 239 215 225 227 265 261 247 286 257 221 211 182 221 251 274 302 317 312 298 
50 4 36 26 44 36 54 56 60 58 52 46 42 56 40 44 56 58 70 62 68 82 76 86 88 114 288 343 428 484 453 410 366 331 312 306 323 300 308 292 296 282 294 292 268 259 257 227 245 247 290 344 387 420 414 418 397 385 381 364 337 290 274 259 263 294 298 266 265 253 265 227 202 219 253 278 296 306 288 290 
50 34 32 38 54 38 56 62 46 64 58 60 60 58 56 58 60 70 92 150 205 221 274 272 176 215 379 379 414 488 474 441 414 375 343 327 337 329 337 333 329 335 346 325 302 315 276 251 235 233 265 268 286 341 387 393 387 399 403 391 397 327 288 261 247 286 292 270 263 247 241 229 239 247 282 308 344 339 323 266 
38 6 24 46 36 24 60 52 44 52 56 52 58 46 58 58 46 94 194 360 434 472 472 467 474 476 560 537 474 436 416 422 406 370 354 331 327 327 337 325 323 329 354 327 327 315 276 259 235 215 243 249 237 241 272 310 335 358 362 387 379 312 259 255 280 286 310 266 261 233 231 227 268 253 276 290 308 282 255 174 
34 26 32 38 42 50 60 70 70 56 70 70 58 62 72 74 88 142 372 478 503 514 539 532 566 581 604 585 575 524 408 381 362 325 319 317 315 339 335 339 341 343 331 302 288 276 257 243 221 209 223 237 225 225 221 233 253 265 255 282 221 227 231 266 306 290 294 268 278 259 209 203 225 255 227 207 172 140 130 122 
36 16 38 50 58 50 48 64 52 64 62 48 72 68 76 88 80 211 459 484 528 530 539 539 543 558 600 593 593 574 507 385 348 331 329 354 377 374 364 358 360 368 339 313 312 306 274 263 237 215 231 235 229 209 205 203 207 221 223 213 219 227 253 284 272 280 278 237 217 186 170 186 154 150 126 120 116 94 96 114 
42 32 16 52 48 46 52 72 50 50 52 64 74 62 68 66 100 270 484 505 545 537 511 495 514 492 553 558 577 551 451 428 405 391 383 381 399 375 346 352 343 344 339 335 335 339 315 278 270 225 237 227 225 205 196 207 203 233 255 251 251 255 265 266 263 259 223 178 154 134 132 132 120 104 100 104 96 102 86 106 
48 30 28 48 50 62 50 74 60 58 66 70 76 72 74 74 92 241 472 492 541 535 495 493 474 418 472 443 480 445 350 364 418 441 401 381 370 358 350 343 327 315 327 319 343 348 339 317 288 261 253 247 249 223 219 213 205 261 286 276 294 286 290 209 172 160 140 112 118 106 120 114 116 120 112 116 92 94 100 102 
56 28 44 48 48 48 44 64 42 44 50 58 56 70 66 74 96 146 381 461 511 505 484 484 434 213 170 136 176 231 280 430 445 449 422 389 366 335 327 329 313 308 321 317 348 387 389 372 339 317 312 308 313 296 265 237 229 272 339 350 343 306 306 154 126 104 120 90 98 102 120 124 122 122 120 120 112 106 102 130 
66 22 32 32 48 56 58 52 50 50 54 68 52 64 70 58 62 74 144 225 319 350 308 253 190 98 96 94 116 122 184 385 465 432 412 370 360 346 335 323 333 325 343 387 465 495 493 468 461 451 445 468 461 420 368 315 339 387 410 360 257 292 282 134 116 98 118 110 100 110 114 136 136 156 138 132 126 108 116 122 
36 28 34 40 54 48 42 48 54 50 56 50 60 66 50 62 58 82 74 88 106 90 64 78 82 66 90 82 94 98 114 284 445 439 424 372 370 348 356 344 341 341 315 381 459 468 472 465 453 434 463 463 451 416 405 401 403 418 395 350 325 319 221 142 124 122 114 110 114 124 114 138 148 158 152 148 128 126 140 211 
42 34 28 56 42 54 60 60 50 66 60 56 56 52 46 58 60 60 64 66 52 56 56 50 66 58 74 78 94 108 124 284 420 412 387 362 370 368 368 341 308 304 294 296 436 480 480 437 391 381 403 408 397 379 362 364 352 344 346 335 308 292 263 251 223 215 213 190 166 178 148 174 166 178 168 162 164 172 227 261 
62 30 46 48 60 56 60 54 34 62 56 60 54 58 46 48 60 54 64 48 52 44 64 50 66 52 86 92 102 124 241 403 403 391 366 375 395 393 374 362 341 308 268 312 443 488 486 470 408 358 385 406 414 395 377 346 327 306 290 292 284 298 304 308 310 298 268 219 200 200 221 243 231 239 237 239 231 257 268 263 
56 28 36 46 34 46 46 54 50 58 48 50 56 50 56 50 50 68 64 48 62 44 56 46 68 58 78 98 116 146 329 437 416 406 391 399 420 403 368 358 344 329 333 356 387 447 451 443 443 412 428 451 434 420 383 350 337 323 306 302 313 323 312 325 321 331 298 259 231 219 241 276 284 292 266 257 268 276 280 272 
52 18 36 38 46 32 46 56 48 56 46 60 68 50 42 60 48 68 62 54 60 48 48 52 72 68 96 106 124 156 356 424 439 430 434 426 434 377 368 358 333 341 337 308 333 366 383 418 418 420 445 445 443 424 377 354 339 343 343 319 325 335 331 337 348 343 329 298 286 274 257 310 310 308 280 266 272 280 276 265 
34 24 34 50 32 60 40 44 52 50 40 48 72 44 58 68 68 68 68 72 70 48 60 54 94 100 130 124 158 217 341 436 439 437 443 434 420 399 393 408 406 408 389 362 375 370 341 362 383 443 453 461 439 436 397 356 343 366 381 360 360 352 344 366 356 362 350 333 327 282 288 313 312 300 298 288 284 272 272 249 
42 42 48 48 38 42 52 60 58 56 60 56 54 68 72 74 74 72 76 64 68 76 100 98 124 120 134 122 263 364 356 443 455 449 445 432 441 426 426 422 418 389 358 317 312 302 308 333 370 434 461 459 445 434 422 408 348 341 370 377 368 362 375 372 368 358 358 339 310 296 290 310 290 302 296 290 288 292 263 257 
44 46 28 36 44 40 50 38 52 52 54 60 64 56 46 74 58 64 76 74 106 140 221 245 317 217 215 243 360 511 463 434 434 418 416 412 406 387 370 358 348 348 346 315 315 284 294 341 391 432 436 432 424 418 422 439 385 333 343 331 331 313 327 308 278 272 274 255 266 292 308 300 323 319 312 286 265 235 209 227 
48 46 38 54 64 48 50 62 52 52 60 58 70 72 60 66 68 80 72 100 213 344 445 465 480 461 447 470 530 537 501 424 408 387 375 348 364 379 385 399 395 397 354 343 327 298 315 393 412 405 389 414 434 408 437 443 397 381 374 319 274 223 205 196 184 190 219 243 290 300 315 323 321 310 300 268 219 178 166 174 
48 48 46 36 52 50 54 66 60 64 54 56 72 58 54 80 78 68 106 150 354 451 463 463 480 461 467 488 537 528 474 424 420 424 414 408 403 387 405 437 430 414 377 356 368 348 362 426 414 368 335 341 331 310 377 424 393 391 366 366 348 321 298 315 302 302 300 300 284 308 312 319 312 294 280 213 164 142 154 156 
36 36 34 54 56 50 52 46 62 52 68 60 70 52 50 56 84 76 104 227 420 422 449 447 434 439 439 470 513 511 451 430 439 443 434 410 401 387 385 397 416 399 372 368 387 391 412 428 405 331 308 304 325 325 341 375 397 391 375 389 368 377 374 383 393 374 356 310 280 288 282 294 298 251 217 170 144 146 142 146 
48 24 44 40 52 42 46 42 44 56 72 58 60 66 72 76 76 82 96 266 453 434 432 432 424 428 447 406 480 484 410 457 437 432 432 403 401 362 360 343 346 352 375 393 430 445 418 432 387 325 313 308 312 331 360 362 389 395 377 375 385 379 383 391 405 393 397 335 266 284 270 276 253 196 160 154 138 132 134 140 
38 42 44 44 58 50 48 58 66 66 68 72 74 56 74 62 76 68 102 202 414 461 430 447 474 455 418 304 323 368 341 437 428 414 385 379 389 350 344 343 364 387 420 441 443 459 449 437 364 325 315 319 333 356 377 364 366 375 368 368 375 374 374 370 395 403 395 354 290 259 251 265 190 162 150 150 138 138 148 148 
44 16 32 50 48 60 50 50 60 66 62 64 68 70 68 64 72 64 72 128 282 372 385 414 426 333 251 162 190 221 403 426 412 381 352 354 358 346 358 362 383 414 457 465 455 463 467 406 354 323 327 321 331 368 362 333 323 356 364 352 379 370 370 385 377 387 393 344 300 249 211 190 156 150 152 138 136 138 138 138 
34 28 40 50 36 46 42 58 54 52 54 46 80 52 60 62 68 74 68 72 128 203 251 219 190 120 132 124 144 186 391 399 360 344 319 360 393 395 430 470 478 476 484 472 476 480 439 360 329 317 327 313 310 335 366 333 294 331 362 337 358 368 370 370 364 370 358 325 276 203 174 158 132 152 148 130 128 122 130 134 
40 42 30 46 58 32 44 64 38 42 62 42 56 58 50 46 56 66 50 54 70 80 82 78 88 82 90 102 124 160 341 372 352 341 337 360 381 399 457 465 468 474 492 478 484 434 344 315 323 317 315 300 280 298 333 319 294 296 337 341 337 329 331 327 298 276 251 235 207 190 164 166 140 148 142 132 114 130 128 126 
46 38 34 50 56 60 32 56 46 48 54 58 58 48 46 46 52 58 52 46 58 60 62 46 62 74 82 94 98 120 231 366 354 358 323 325 335 401 470 465 465 457 480 482 468 268 196 180 158 162 198 200 202 200 196 202 176 192 203 190 168 166 160 146 134 150 162 164 170 164 170 168 148 140 126 118 112 116 122 122 
42 30 38 46 46 34 40 46 48 62 56 50 44 38 44 46 40 50 58 46 44 50 54 42 70 72 78 86 86 100 120 233 343 350 337 315 298 414 478 468 445 455 459 449 408 391 354 323 243 162 142 146 132 110 106 104 90 96 98 102 104 104 104 100 100 124 148 140 168 168 156 178 152 130 106 110 112 110 104 138 
42 14 34 64 58 36 42 56 56 64 52 64 52 56 44 50 52 48 66 52 54 48 50 50 70 74 80 78 94 86 78 108 144 245 278 327 315 375 399 343 362 405 406 379 379 377 379 374 354 348 321 274 205 202 203 186 176 170 160 140 132 112 100 94 98 128 146 152 170 170 170 154 150 118 118 100 108 112 110 132 
48 28 42 68 60 52 44 64 44 54 58 52 68 36 64 62 60 60 54 62 66 58 56 50 72 62 90 88 100 90 72 92 136 261 315 302 290 280 259 223 233 341 368 374 329 331 337 348 327 321 304 276 251 278 296 325 344 306 284 247 209 176 114 100 102 124 134 142 156 164 166 158 144 116 100 108 116 110 128 172 
32 32 60 64 54 50 44 60 52 48 58 42 58 68 66 62 62 54 70 58 68 56 56 48 84 68 88 96 104 96 86 154 270 265 274 249 247 217 223 235 217 259 298 249 221 286 323 329 362 329 276 249 261 278 294 346 375 377 372 321 276 227 170 140 134 134 122 140 150 162 170 168 166 164 138 130 124 126 160 245 
30 34 60 52 42 54 54 40 46 46 60 56 66 58 64 58 68 66 66 66 54 56 46 54 88 68 94 90 112 96 126 280 308 290 278 251 120 34 78 166 227 276 239 192 276 257 304 274 249 241 241 211 227 278 278 294 350 352 370 370 312 203 170 176 172 150 132 154 182 174 205 231 243 265 249 237 198 178 253 298 
30 26 28 54 48 48 50 44 56 62 62 66 64 62 66 66 66 64 70 66 74 52 68 64 84 76 104 108 112 104 172 315 268 266 294 245 170 186 292 282 259 266 282 144 259 259 255 233 245 237 213 174 186 205 211 247 270 259 276 286 261 225 192 188 188 168 168 188 219 243 249 261 268 280 292 306 270 268 286 310 
34 32 42 52 46 44 52 48 52 66 66 56 70 72 62 68 70 68 78 68 92 114 156 148 140 128 142 114 126 142 239 292 265 257 268 249 237 284 333 292 261 268 261 128 156 205 192 227 257 233 192 192 172 192 176 196 211 203 225 211 207 219 215 209 198 170 196 196 233 249 270 270 261 292 298 278 268 272 282 288 
32 26 42 56 50 50 58 56 68 62 52 64 62 60 60 66 66 74 70 78 168 265 259 205 268 366 354 207 156 154 282 288 290 296 339 333 288 284 253 276 223 265 205 132 104 136 170 205 231 237 172 190 186 182 192 198 190 180 211 219 198 235 257 243 221 203 221 217 261 243 231 243 241 263 257 261 263 272 284 298 
58 38 50 48 44 44 56 44 58 56 50 56 64 66 76 66 68 68 90 116 237 310 282 343 441 478 449 395 323 278 290 272 278 292 366 368 306 263 219 207 211 221 142 130 136 120 188 196 194 233 194 174 198 184 207 241 227 174 192 243 265 300 300 255 237 229 237 219 245 213 203 239 247 284 261 272 286 302 268 251 
36 26 38 36 48 52 48 62 60 64 60 60 64 70 62 78 74 68 90 142 270 310 323 414 486 499 499 455 408 368 292 253 261 274 308 313 265 261 180 184 168 154 148 148 160 160 196 198 192 235 209 162 178 184 205 235 217 170 192 298 335 325 304 278 245 229 203 176 194 156 202 245 266 274 282 284 294 261 196 176 
42 36 40 42 42 32 48 52 42 56 56 62 62 48 66 74 66 66 94 148 253 306 403 499 499 441 499 457 406 383 310 257 266 245 243 231 241 239 164 164 124 158 180 172 162 164 178 202 202 221 215 162 152 168 209 227 221 166 219 298 237 278 268 253 225 198 170 140 150 184 263 270 268 276 286 288 272 209 176 162 
34 44 52 48 48 60 54 42 64 48 50 64 64 54 66 66 58 78 80 160 245 313 426 470 474 403 420 428 368 358 302 257 284 261 245 215 205 196 164 104 142 152 170 184 150 176 178 190 196 221 198 166 144 202 223 239 213 196 194 270 213 241 265 268 259 253 223 158 160 231 266 270 249 270 270 294 211 166 162 160 
40 44 48 42 52 58 40 62 46 64 58 50 58 54 66 66 64 62 82 124 203 284 317 418 467 410 459 401 339 360 300 286 312 257 241 207 184 182 152 118 140 178 172 172 146 200 166 174 180 178 184 194 198 190 211 221 209 168 188 247 235 223 235 257 243 255 241 239 249 263 257 261 257 259 255 217 150 144 150 142 
42 28 46 42 58 52 62 54 54 56 54 58 46 74 68 58 60 58 72 72 118 144 174 249 360 420 397 286 203 225 286 294 312 272 227 215 174 174 106 116 148 144 168 180 166 172 172 170 174 150 188 202 192 186 188 205 196 188 190 223 233 233 241 237 241 263 253 280 306 278 261 259 265 255 207 154 128 132 138 140 
40 52 42 60 42 48 46 56 58 52 62 56 64 64 68 56 56 62 64 52 64 76 94 84 128 132 132 112 124 140 237 317 300 249 247 231 200 150 124 108 136 152 190 205 174 150 162 176 178 176 184 178 158 138 156 184 194 172 182 217 229 241 239 239 233 251 268 302 315 292 276 255 239 190 152 132 126 148 134 136 
34 32 42 48 64 44 54 56 54 60 74 62 70 50 64 64 84 54 62 56 60 48 64 70 82 78 86 86 106 106 186 286 261 241 237 257 241 225 209 138 168 170 211 213 180 172 174 164 164 170 158 146 114 130 152 162 198 202 194 203 235 227 227 233 229 249 259 288 308 278 243 229 182 116 118 130 138 132 124 116 
46 50 42 52 70 52 60 58 66 54 72 60 68 58 64 70 66 62 58 62 60 52 64 62 76 70 92 86 100 92 148 274 259 265 266 312 337 341 327 315 255 174 241 223 178 166 186 164 154 170 156 138 142 124 166 168 182 186 203 207 219 213 215 227 235 231 249 265 284 259 231 180 114 98 102 110 118 124 122 128 
42 36 28 52 54 64 52 68 68 60 74 58 80 58 68 70 76 66 60 56 62 54 60 52 82 76 104 122 138 156 219 302 278 306 358 374 391 383 381 377 374 321 253 154 116 98 106 104 114 108 122 124 122 128 142 122 146 164 168 174 196 186 209 198 209 219 233 221 245 217 174 136 102 100 104 106 110 82 120 118 
42 38 50 38 72 58 54 60 54 68 60 62 52 66 68 64 74 66 70 68 58 62 68 60 80 106 188 249 286 286 263 276 263 313 366 379 418 410 383 377 370 362 308 178 82 80 98 110 114 116 122 134 150 152 130 118 116 106 118 120 116 110 118 112 138 138 158 184 186 162 146 148 126 86 92 82 84 92 106 114 
42 26 48 60 46 40 52 50 56 64 64 58 48 62 68 70 56 64 66 60 58 62 74 72 140 239 249 247 280 312 300 261 270 308 374 391 416 412 387 374 350 323 310 261 178 160 134 128 126 130 152 176 178 162 144 134 128 134 118 116 102 114 118 106 102 110 114 156 168 156 168 152 118 82 82 82 82 80 92 104 
44 28 38 56 52 62 64 72 58 58 62 80 70 68 66 56 72 56 82 64 70 62 78 110 255 294 286 249 265 249 235 249 257 268 327 339 360 341 343 352 344 327 310 268 233 202 186 162 162 170 194 209 184 178 158 164 166 140 136 128 122 128 110 122 108 112 120 144 162 148 164 156 136 84 80 74 76 82 98 96 
58 44 48 60 58 58 52 60 64 86 88 78 82 66 70 76 68 76 74 70 76 60 80 192 286 298 288 292 253 168 122 124 160 196 213 245 270 274 278 282 302 315 313 268 251 243 219 198 182 200 274 268 225 192 194 186 192 152 136 142 132 132 142 122 120 128 130 138 146 144 152 142 132 104 102 100 78 90 124 138 
42 34 42 60 56 68 64 64 70 98 148 170 154 124 110 96 84 84 82 70 76 62 122 245 286 280 278 276 215 120 72 100 136 168 221 243 263 270 268 255 253 280 298 276 265 251 243 255 249 261 308 313 280 225 205 215 205 184 172 162 142 136 144 152 114 126 128 140 120 116 162 188 203 231 239 213 190 150 172 166 
22 36 34 50 46 56 56 72 100 186 263 364 370 356 331 321 257 142 106 70 72 80 196 268 302 274 284 249 178 58 34 92 166 202 233 235 257 268 255 265 243 241 245 259 263 266 257 290 286 300 327 323 284 239 221 225 227 200 192 182 156 148 146 140 132 132 136 102 96 102 118 186 217 237 257 239 196 178 170 188 
42 40 38 54 46 60 56 92 146 249 354 437 420 434 467 482 441 387 272 136 100 154 270 292 306 268 263 211 164 62 46 118 196 205 219 237 255 266 255 255 253 237 219 225 253 259 272 306 323 313 339 317 278 217 205 225 223 211 192 205 178 176 180 174 160 168 174 132 108 124 138 182 207 217 227 198 213 202 209 209 
46 50 32 46 48 60 48 126 215 294 374 461 472 490 499 493 451 420 389 310 280 302 294 286 292 229 205 178 156 52 46 138 190 203 219 209 231 229 239 247 261 233 219 217 253 278 306 317 327 327 331 306 247 219 198 182 196 188 180 176 174 188 213 198 198 203 205 156 134 138 146 178 202 211 233 223 233 231 225 207 
34 32 34 30 42 40 48 92 211 280 375 430 476 495 499 495 443 358 370 362 395 352 288 268 265 192 186 180 154 40 44 102 178 194 196 198 203 198 205 225 239 225 221 223 259 290 288 317 331 325 331 286 225 209 172 166 174 146 152 148 164 164 178 196 184 178 184 186 178 176 170 190 207 231 233 235 245 257 241 223 
50 36 40 46 38 26 64 92 190 296 362 410 453 490 505 509 406 362 372 335 399 335 265 235 213 176 184 172 94 38 62 100 172 182 202 194 205 166 209 219 221 217 202 217 239 274 284 310 298 296 288 280 213 174 148 152 148 116 108 106 112 130 148 154 178 138 120 192 172 176 172 200 194 211 200 231 261 263 257 207 
24 14 28 30 36 40 38 68 146 261 358 381 426 463 513 478 428 379 403 346 387 304 249 209 215 188 190 146 68 20 52 98 150 186 203 190 180 168 188 203 213 205 213 215 239 245 253 253 237 239 225 203 184 156 124 154 134 118 94 110 94 102 132 134 136 122 128 132 116 156 194 186 184 186 196 217 249 263 217 158 
28 14 0 20 28 26 34 36 106 233 313 393 420 467 509 468 445 459 437 406 364 284 257 229 229 213 207 164 72 8 44 74 104 198 202 200 205 182 213 213 221 213 225 225 229 215 223 205 198 174 172 164 146 158 134 150 154 142 142 112 134 140 130 144 138 142 150 140 136 188 176 164 168 174 192 221 233 233 150 140 
22 18 12 12 2 28 18 38 60 112 168 259 333 428 472 461 449 426 383 375 325 294 255 235 243 223 207 146 74 22 38 54 66 180 209 211 227 231 231 243 233 259 265 263 251 209 202 162 154 108 112 112 110 148 144 164 148 152 160 142 150 164 166 178 170 180 180 158 176 172 162 158 154 162 190 241 211 170 150 146 


