P2
80 60
633
105 113 99 95 91 109 107 115 103 105 113 117 131 121 117 123 157 277 379 418 479 548 513 480 459 531 436 455 475 440 444 446 430 418 415 415 409 420 436 463 473 455 446 453 438 405 391 340 332 310 297 277 265 261 245 297 283 293 305 291 299 305 293 273 257 187 175 175 157 143 125 129 115 109 119 107 109 93 99 93 
97 101 83 113 91 109 115 117 101 117 115 121 125 123 119 151 235 391 486 572 589 572 597 600 606 616 568 490 502 461 449 440 426 409 409 420 428 418 413 459 469 451 449 440 417 418 395 338 324 305 293 267 265 235 239 273 251 271 289 281 287 281 299 271 289 255 215 227 187 157 145 111 117 99 105 115 97 85 103 99 
97 99 101 115 115 95 119 115 121 103 115 115 119 121 121 155 303 442 525 562 575 587 600 602 606 618 633 593 511 484 480 453 418 385 393 403 418 417 422 469 479 442 442 420 432 391 389 348 312 299 277 263 253 251 243 279 285 259 251 269 291 291 287 267 281 261 281 312 291 237 197 179 159 155 153 171 181 153 147 137 
99 121 89 121 103 105 109 117 93 97 109 127 123 117 113 153 316 446 552 554 595 608 600 560 562 539 577 568 552 461 453 430 403 387 407 409 405 407 424 473 455 436 428 420 426 403 385 330 312 301 293 257 247 233 253 273 261 243 247 257 257 303 289 308 291 271 281 277 293 275 261 271 265 261 289 320 344 348 322 285 
107 109 93 101 107 91 113 113 121 99 105 107 127 115 119 149 267 426 535 589 595 583 587 544 513 430 328 265 308 389 399 362 364 370 368 379 373 389 420 480 471 432 405 413 424 401 375 354 312 307 283 285 269 237 255 291 291 251 267 257 257 265 338 362 314 295 303 279 283 283 279 273 273 275 295 332 352 368 371 356 
103 99 85 105 93 97 105 121 125 117 119 127 131 129 139 131 189 344 428 542 558 577 558 506 405 207 149 133 151 185 269 320 336 377 399 379 346 362 453 494 480 453 407 417 385 393 403 368 340 316 299 277 251 269 271 303 275 251 271 283 271 283 326 332 338 356 324 318 340 310 307 299 281 293 330 364 375 375 383 358 
97 109 115 101 113 117 99 123 117 111 123 135 127 123 135 141 147 233 312 409 461 448 399 279 159 135 137 141 133 141 127 135 185 259 449 469 415 469 513 515 502 467 362 318 291 289 293 283 281 281 273 281 283 285 305 297 289 281 289 279 285 287 295 316 360 328 330 334 320 295 281 305 285 305 346 383 381 379 387 352 
109 101 87 129 127 137 109 139 119 135 121 127 133 131 117 147 125 141 157 209 197 165 139 123 109 125 137 155 137 129 135 139 209 383 486 465 488 519 513 498 492 473 471 455 413 328 249 215 201 213 201 203 231 281 307 312 312 283 316 301 293 293 336 354 377 350 334 316 301 269 275 275 285 322 332 356 338 318 312 291 
111 111 105 101 119 119 117 147 127 125 115 129 143 137 119 123 127 131 119 135 119 123 123 129 111 135 141 145 151 139 157 215 385 438 420 449 490 502 496 484 486 467 523 544 554 550 479 354 261 229 255 299 381 370 332 322 324 346 354 346 342 354 375 395 411 403 360 330 287 275 293 297 291 293 297 289 283 271 239 217 
109 103 117 107 111 121 111 119 103 119 115 127 139 125 125 123 133 139 125 125 119 123 127 123 121 153 161 169 191 201 299 411 455 455 422 434 471 529 494 492 482 479 480 504 531 548 542 521 451 399 401 424 424 385 366 338 342 352 342 342 371 387 383 409 420 399 362 350 320 299 318 322 305 291 261 263 271 281 265 267 
95 111 115 117 123 115 107 123 111 95 99 125 119 123 115 125 115 119 119 133 123 123 123 141 163 205 253 277 332 395 440 451 442 422 418 436 446 504 486 471 444 436 342 350 440 484 508 519 498 506 498 496 494 461 407 340 310 297 318 346 364 352 360 379 387 366 340 330 308 308 308 299 301 281 277 263 273 287 261 249 
107 105 125 111 123 119 119 115 123 121 107 131 117 133 127 133 141 119 135 137 123 119 131 159 257 420 432 480 513 473 467 451 430 407 413 463 453 455 446 415 405 448 426 424 426 436 448 440 453 500 513 508 496 498 436 324 287 273 293 297 265 243 259 261 285 277 285 265 263 261 245 203 207 229 275 263 257 263 265 233 
101 109 119 101 125 121 109 123 109 115 127 115 125 123 107 131 121 141 115 117 121 119 123 219 379 448 432 475 513 513 511 492 467 451 484 498 432 403 409 420 442 448 432 422 420 426 415 405 393 420 473 480 484 444 397 336 318 338 364 344 312 301 259 187 181 185 207 201 217 205 199 203 189 197 207 223 227 243 245 217 
107 121 103 121 115 119 113 115 131 125 121 117 127 129 117 119 125 143 109 127 121 121 137 211 312 303 303 397 395 475 521 504 492 504 500 490 420 415 422 434 449 440 434 432 405 399 399 375 360 364 387 391 407 395 358 330 330 368 379 358 324 247 165 143 169 191 201 209 217 207 195 197 195 193 173 171 165 195 183 211 
105 111 117 119 113 115 123 115 113 125 115 119 115 115 111 115 131 135 99 129 121 127 131 155 175 181 310 303 271 399 494 510 500 504 510 471 413 407 424 444 469 446 415 395 375 362 368 356 344 342 354 348 346 344 336 344 360 393 348 287 213 175 165 181 177 193 213 219 229 229 213 215 201 195 195 187 189 205 217 243 
105 117 99 115 107 123 111 129 117 121 119 125 133 117 117 127 111 127 121 125 129 131 141 143 133 157 191 249 393 395 459 500 498 508 498 463 407 399 393 417 428 411 389 371 370 370 375 346 344 348 330 318 352 354 342 371 387 383 340 289 249 241 237 271 297 301 297 285 287 281 285 283 287 297 269 269 259 281 293 285 
105 125 103 107 123 109 127 121 127 121 121 127 127 125 119 133 131 129 123 137 145 155 163 227 249 227 239 344 535 554 477 473 488 467 440 399 377 368 381 395 422 415 403 407 393 385 379 362 352 334 332 308 352 370 368 383 389 430 428 413 401 389 393 391 397 375 379 346 324 312 305 312 314 318 316 307 295 295 310 285 
109 113 111 113 123 105 113 125 123 121 121 111 133 121 117 127 139 153 143 163 233 312 399 486 506 519 513 566 600 591 523 449 465 448 407 391 385 377 417 420 451 430 409 403 387 397 389 377 364 346 344 320 348 383 407 393 393 415 411 413 405 397 393 377 368 362 350 342 316 295 291 283 293 307 301 305 297 307 312 267 
111 131 107 101 115 123 121 127 119 115 119 119 127 135 135 135 135 147 155 241 417 510 556 544 544 552 552 566 593 556 511 473 498 482 467 446 393 375 397 409 399 407 391 383 379 375 379 385 368 358 360 360 379 407 385 368 354 375 385 387 385 383 354 336 332 336 344 338 301 281 279 277 295 273 275 277 279 275 273 257 
121 115 101 109 119 123 131 129 135 131 139 125 119 107 119 139 135 149 169 334 511 517 562 537 519 544 548 579 583 566 486 484 486 471 488 455 399 371 373 368 364 360 352 364 364 368 381 385 370 373 393 389 375 371 356 342 338 336 364 358 362 350 322 316 316 299 312 307 257 257 289 237 249 259 257 243 233 233 205 203 
119 141 111 125 135 117 109 139 127 119 139 133 145 129 121 125 127 151 187 385 550 550 529 550 556 579 566 541 542 500 477 482 473 479 490 465 413 401 381 375 348 356 352 370 381 395 405 391 381 397 403 370 368 368 348 366 346 320 334 334 342 328 305 307 299 289 289 271 253 239 259 231 209 185 189 177 185 173 175 199 
111 131 127 121 133 125 127 125 125 105 129 129 145 137 131 147 147 153 177 354 510 554 517 587 570 564 486 387 366 371 434 459 482 498 515 479 451 442 415 395 377 368 377 405 442 430 430 434 430 409 383 364 358 354 346 348 346 324 338 332 310 299 289 271 253 237 239 241 221 223 215 207 191 187 193 177 161 157 159 167 
117 125 111 127 111 123 121 131 125 117 119 125 133 135 119 143 135 151 149 283 403 475 486 531 515 471 324 227 231 289 453 455 455 448 471 486 473 475 482 469 432 420 418 426 453 442 438 440 434 397 358 340 328 360 356 334 308 287 271 239 229 209 191 195 207 217 211 219 217 221 219 197 193 171 173 173 175 171 167 183 
105 103 109 123 117 107 121 121 117 119 129 121 143 129 131 139 127 145 143 201 314 332 387 377 285 215 197 189 207 243 449 438 420 395 370 383 442 484 496 498 486 463 465 420 422 413 393 366 373 370 352 320 299 299 283 229 201 179 193 173 157 165 175 179 193 201 207 203 209 213 205 201 193 179 169 157 155 163 173 161 
115 127 123 125 121 109 131 131 129 119 127 129 127 127 121 127 133 141 125 143 173 197 201 187 173 161 179 169 183 191 413 453 428 426 424 424 430 438 494 494 519 521 519 492 375 295 297 285 279 281 275 249 233 213 207 179 165 165 159 161 159 167 175 183 183 211 207 213 221 211 209 191 201 179 183 171 169 173 181 161 
113 115 115 117 127 113 129 143 129 117 133 133 125 139 125 127 127 125 129 145 135 141 131 147 153 165 159 167 175 189 307 430 469 471 442 426 381 399 500 515 515 537 542 531 455 273 241 233 213 225 209 207 199 181 173 163 159 157 161 149 157 153 165 165 179 197 199 193 199 203 199 199 203 189 167 167 149 157 151 165 
117 111 123 113 115 119 131 145 125 113 109 125 139 125 113 119 129 123 129 135 129 123 123 129 127 141 161 165 177 165 215 328 413 434 407 379 354 383 486 488 475 511 531 496 379 221 225 213 201 195 191 179 187 161 173 165 161 167 173 161 163 157 169 157 191 191 175 171 195 209 205 199 191 191 175 167 137 151 151 161 
111 133 107 121 109 121 135 149 131 115 127 121 125 129 125 125 119 133 115 125 125 121 115 121 123 139 149 169 161 223 340 370 356 366 364 368 326 358 375 287 281 312 326 283 223 231 229 215 241 239 213 197 197 187 193 207 219 207 219 205 203 181 163 155 165 173 159 155 179 211 209 201 183 185 169 155 141 149 149 151 
113 117 127 119 127 121 115 135 135 125 119 125 133 127 119 111 117 129 113 129 115 115 117 129 123 121 143 155 183 326 370 332 328 354 418 417 318 312 285 245 231 211 247 253 237 247 243 235 243 273 245 191 203 201 189 217 241 243 253 221 233 207 185 153 171 179 177 165 171 215 219 203 201 185 159 155 141 149 141 153 
109 121 115 129 131 115 111 143 125 111 121 121 115 105 113 115 109 133 111 125 125 135 133 133 133 145 151 153 177 312 356 328 346 442 461 469 368 307 271 251 245 257 209 207 255 259 219 213 211 221 217 197 237 229 213 205 225 247 263 241 239 231 207 185 175 181 175 171 159 201 217 219 221 213 185 155 151 137 151 149 
119 113 119 117 127 109 113 129 119 129 117 129 125 107 115 113 121 127 117 149 195 227 249 326 305 338 303 245 235 334 338 330 368 424 459 465 413 297 239 233 187 187 173 159 165 197 193 221 211 213 219 199 213 215 201 201 223 227 235 235 237 227 215 195 203 199 173 173 173 205 257 269 289 310 307 279 237 181 185 177 
115 121 103 111 123 121 117 129 127 115 113 115 119 119 119 119 123 139 131 173 291 352 407 515 531 469 420 465 397 377 373 322 366 413 449 465 442 299 191 177 141 145 147 129 133 169 201 211 239 207 221 239 229 229 207 197 225 237 257 221 219 219 221 209 201 201 193 171 165 241 293 301 305 324 336 332 330 293 263 213 
109 107 117 115 121 113 115 143 119 123 129 119 137 133 137 125 129 129 155 243 312 366 379 511 546 515 546 546 488 418 385 370 403 428 457 471 407 253 161 143 169 191 189 185 155 185 239 225 249 229 237 259 251 237 233 227 223 251 255 229 241 225 237 213 213 213 219 205 179 245 279 316 283 291 305 308 316 310 303 273 
97 123 113 117 113 129 127 117 121 131 125 127 127 125 125 125 135 143 179 326 336 362 399 490 548 562 568 537 473 415 397 381 424 432 446 475 364 149 113 93 133 183 229 205 189 221 261 247 255 239 249 275 269 291 289 281 269 261 251 259 251 237 239 231 229 221 229 243 207 237 259 269 257 265 269 271 261 277 267 267 
111 121 111 123 117 125 109 109 127 139 127 129 133 131 137 123 129 137 167 291 326 320 356 413 494 548 544 529 482 403 391 385 420 449 444 424 223 107 109 135 173 207 217 215 203 227 263 251 263 271 279 269 247 293 299 279 261 261 247 237 261 247 251 255 279 253 237 261 215 227 223 227 231 243 231 233 219 229 229 219 
103 119 127 133 125 143 119 119 119 117 131 131 139 129 125 135 129 143 161 273 330 371 352 432 517 539 544 525 479 409 377 387 422 430 432 360 177 101 129 177 187 213 249 245 233 235 271 265 249 261 261 233 213 273 277 277 273 249 241 231 231 235 233 239 241 235 221 221 231 227 235 223 201 175 151 163 169 145 159 167 
99 115 105 113 109 121 129 123 127 133 131 115 129 133 129 129 127 137 139 223 338 385 387 463 508 515 523 506 461 391 366 366 403 415 377 267 153 131 149 201 205 235 255 249 237 253 271 273 263 239 235 223 209 263 297 287 275 247 227 215 241 243 243 225 217 203 207 209 199 221 213 209 209 195 167 157 151 151 147 135 
117 117 109 111 107 129 117 141 115 127 127 123 127 127 139 139 121 129 135 171 253 334 350 432 467 494 467 457 436 385 362 346 377 358 314 291 231 183 183 199 225 245 261 247 233 249 267 281 241 221 219 205 183 255 289 301 271 245 257 243 255 263 283 255 253 263 251 239 219 207 213 207 191 199 175 153 145 139 149 149 
99 139 107 117 131 127 125 135 135 117 113 127 133 131 121 127 135 129 137 157 161 191 227 267 285 354 453 453 444 409 360 328 352 330 301 281 249 225 223 221 233 247 259 269 249 243 279 285 261 213 205 205 207 269 271 253 249 255 269 241 253 263 285 287 281 312 295 287 259 245 223 209 221 211 199 191 177 165 183 183 
111 123 117 121 125 121 121 129 129 121 121 129 135 129 131 131 125 119 133 135 131 131 147 159 163 285 438 438 426 350 360 322 297 334 344 305 295 277 265 243 229 261 295 271 269 271 269 281 221 209 219 249 229 263 259 237 241 237 267 251 269 275 297 283 271 289 307 295 287 314 299 271 287 273 267 263 267 267 267 253 
99 117 119 133 121 129 113 125 131 119 121 127 141 137 131 137 131 131 127 135 129 123 129 137 137 197 354 371 332 209 263 330 281 318 338 322 305 301 285 255 241 257 303 291 257 245 249 259 227 215 247 249 233 247 243 255 243 239 281 281 265 281 293 265 265 289 299 281 267 310 308 281 285 277 273 295 314 305 316 297 
107 113 109 107 113 107 109 121 113 119 117 119 129 117 119 135 119 129 125 127 125 123 129 135 131 165 205 269 239 199 257 308 291 310 352 368 354 352 354 320 322 308 285 253 245 259 271 261 239 237 255 217 205 253 277 259 225 219 235 251 233 255 257 253 273 277 293 267 241 293 287 289 279 289 287 312 310 308 301 283 
111 111 107 115 123 105 121 131 127 125 127 129 123 129 117 123 123 135 113 125 127 133 127 127 135 163 247 305 328 318 326 308 305 395 461 461 442 436 451 430 432 413 375 368 334 312 342 312 253 219 223 233 249 312 332 322 301 231 217 211 199 209 215 235 245 245 239 237 235 285 285 297 299 297 287 307 299 287 261 227 
111 121 119 117 109 113 121 131 115 117 113 135 137 113 113 115 117 125 111 125 105 119 127 141 209 312 358 368 358 354 354 346 344 403 455 444 432 453 471 453 444 444 428 401 371 362 368 342 324 287 279 289 299 356 391 389 379 344 237 199 203 187 203 193 199 195 213 215 203 233 247 251 257 271 253 243 209 189 197 189 
101 111 117 113 123 105 109 129 121 121 117 129 145 121 119 121 133 135 113 129 103 109 131 211 344 338 328 340 352 344 328 340 348 401 438 446 449 432 417 428 424 407 407 393 375 379 371 344 314 316 318 310 348 356 393 395 387 326 205 193 187 183 159 153 159 173 185 173 177 181 179 165 147 175 175 169 165 159 163 153 
111 119 109 123 115 129 119 137 119 127 121 129 139 115 127 125 117 135 115 121 113 117 155 308 354 362 326 310 287 283 297 324 338 362 409 432 391 352 318 348 366 346 375 381 370 371 352 338 332 344 350 342 330 344 364 356 271 225 189 171 173 185 183 175 169 173 171 191 191 175 169 161 151 129 145 141 139 135 143 159 
109 115 111 119 119 115 125 149 133 133 123 183 201 169 145 145 135 145 133 127 135 133 205 350 360 338 336 324 295 285 255 233 211 243 277 322 324 322 293 295 307 275 253 299 297 287 312 312 310 307 318 310 308 295 301 283 211 191 191 185 191 185 185 163 177 181 175 201 207 191 171 181 149 133 127 129 137 131 143 153 
109 125 107 135 121 129 121 155 143 155 201 291 377 358 279 241 213 165 133 129 137 159 269 342 336 340 354 336 330 259 193 151 149 171 221 285 299 312 299 308 299 257 241 269 233 241 255 271 281 295 289 281 273 249 247 237 215 199 213 205 185 191 197 183 185 179 195 215 213 201 193 177 157 125 133 127 121 125 157 131 
107 127 111 133 135 119 131 135 135 195 303 401 492 484 477 492 455 389 199 161 137 199 320 354 346 356 358 324 285 217 147 117 119 173 247 291 293 307 307 301 285 251 243 231 229 223 229 223 261 277 299 271 271 257 251 249 235 225 243 219 197 205 195 183 179 185 181 231 213 199 211 199 181 123 129 139 101 127 127 127 
113 119 117 117 115 123 137 159 151 247 356 480 496 506 533 558 529 511 438 324 251 314 358 366 344 322 320 273 237 177 121 95 137 187 259 283 289 285 289 269 269 249 251 227 233 205 209 195 227 263 271 275 275 247 271 257 253 239 237 223 215 197 187 201 189 191 187 195 189 189 201 217 223 197 191 173 153 137 145 149 
109 119 117 119 127 121 141 153 175 297 411 498 504 529 541 570 537 506 475 459 405 417 387 350 326 305 285 247 231 171 121 75 147 217 255 281 263 267 287 277 267 257 245 233 237 201 205 187 191 225 257 265 273 267 281 265 275 243 253 229 231 213 203 195 195 199 169 149 141 151 203 231 253 263 291 287 275 229 217 191 
115 105 117 121 123 123 119 135 177 305 383 455 488 556 546 554 515 430 428 434 453 436 362 350 322 281 257 221 211 153 99 77 159 215 261 277 261 265 283 249 261 263 253 235 221 203 201 189 207 237 249 263 267 255 265 263 261 255 255 225 217 219 213 219 209 211 191 179 171 197 203 227 261 279 301 320 303 287 281 255 
123 111 111 129 117 129 125 137 159 277 387 434 461 511 573 554 486 424 440 415 436 405 350 328 287 261 245 223 193 131 73 61 171 219 267 275 249 255 257 241 251 249 245 231 231 219 205 207 231 237 239 257 263 241 255 249 239 249 237 231 229 221 219 215 211 225 231 211 201 213 217 223 251 277 293 312 322 301 303 281 
105 121 109 123 127 119 121 141 135 213 340 453 473 496 554 515 494 492 467 422 449 383 326 307 281 255 241 221 161 75 38 63 119 223 247 253 239 233 219 223 233 233 215 219 249 217 217 217 231 231 237 265 271 253 271 247 247 245 231 229 223 215 223 213 217 197 211 239 221 231 251 251 257 269 310 324 314 305 310 295 
109 127 95 115 119 123 117 121 131 153 195 285 368 448 500 513 480 502 463 448 428 356 308 299 275 259 253 215 135 38 10 53 99 211 253 261 245 217 227 233 225 215 221 205 259 209 191 205 231 245 255 257 249 253 257 239 221 215 203 209 203 211 201 205 201 157 211 221 231 231 231 249 271 269 277 293 291 285 281 265 
103 111 105 91 97 111 109 115 105 117 127 167 175 221 249 332 320 305 259 314 334 310 287 287 285 273 269 213 129 0 32 61 129 205 261 267 235 229 211 225 229 227 227 213 235 193 169 165 203 217 213 211 207 217 223 227 213 193 179 183 171 169 163 165 173 141 205 203 203 191 175 193 201 225 213 215 209 211 207 201 
93 105 103 97 95 91 99 109 97 111 105 123 143 143 145 163 149 145 167 249 289 310 303 291 275 279 277 239 115 12 42 61 115 205 267 267 253 227 225 235 227 225 225 247 235 183 169 151 181 183 187 189 181 195 207 223 223 211 207 173 159 139 133 129 137 131 153 159 149 153 133 121 131 137 135 147 137 131 137 145 
91 95 85 87 91 107 95 101 87 105 115 99 119 117 121 125 117 143 199 283 301 342 326 312 279 269 299 263 187 89 79 65 131 211 267 265 245 251 245 213 227 221 195 263 207 177 143 143 167 179 185 175 177 187 207 215 223 233 229 209 215 203 177 175 185 155 169 157 141 119 117 103 93 111 121 123 105 107 125 141 
77 97 71 89 77 79 93 113 95 93 95 115 117 109 127 121 107 149 143 157 211 328 324 312 279 297 293 289 247 145 89 69 137 175 253 293 267 247 241 225 227 205 209 261 189 163 135 135 151 177 185 187 183 209 219 231 225 231 245 213 233 225 221 215 209 217 199 185 141 135 113 119 103 125 125 129 131 141 143 133 
87 105 69 75 83 91 85 107 101 79 97 123 145 141 123 137 107 133 123 121 167 338 320 303 267 283 299 281 285 211 129 97 137 179 255 289 247 253 257 223 221 195 203 233 183 179 139 143 151 187 201 199 203 199 225 215 209 231 245 229 221 223 219 207 215 209 205 197 181 159 163 161 159 175 177 187 221 223 185 143 


