P2
80 60
591
34 58 34 32 26 40 42 28 52 60 28 36 44 52 50 54 54 56 42 18 28 34 30 44 42 96 287 437 446 419 346 351 311 274 254 270 295 284 266 262 268 264 270 282 282 328 361 380 404 408 373 351 282 215 183 175 160 138 144 166 227 223 221 225 199 156 128 164 181 160 179 160 172 185 213 185 185 225 284 262 
46 34 2 22 28 28 36 34 50 40 38 48 32 34 34 32 44 52 48 48 50 38 36 40 38 108 282 406 452 431 340 332 322 270 244 252 270 274 244 240 250 233 250 250 260 270 316 322 344 373 386 373 361 326 318 301 278 246 223 223 201 193 191 201 201 179 158 160 205 217 225 183 170 215 215 225 231 246 282 262 
50 44 20 28 48 44 26 34 36 22 28 34 42 40 36 52 40 56 80 110 102 124 150 78 66 183 280 330 440 450 396 367 318 274 258 262 272 260 260 258 252 246 238 237 237 238 254 270 289 315 330 355 361 373 375 367 338 332 318 307 270 207 175 172 187 203 209 211 242 252 254 209 150 199 205 242 262 264 313 264 
44 14 26 20 32 36 54 26 26 30 26 28 22 46 28 34 52 106 238 320 320 377 388 307 223 349 408 377 392 469 435 402 349 282 264 260 291 291 284 278 293 280 262 274 254 244 235 229 238 268 274 284 309 349 375 392 361 349 346 316 284 252 207 203 193 246 272 252 246 252 242 201 166 175 209 223 240 252 260 248 
46 30 14 18 44 30 42 34 28 36 28 30 36 36 40 42 68 254 437 469 496 479 483 500 509 553 532 504 448 421 408 400 375 332 293 309 301 297 284 280 289 287 295 305 278 272 260 240 233 209 211 211 205 219 266 332 322 326 349 353 375 357 272 233 205 260 258 248 250 238 223 219 221 191 229 237 258 254 260 207 
44 14 12 28 38 20 52 30 32 24 28 30 40 32 40 50 144 390 475 494 494 509 526 530 547 591 565 559 523 442 334 363 338 291 293 303 311 315 309 289 293 305 313 307 291 264 235 227 219 189 187 193 168 177 172 201 242 295 291 318 338 305 260 235 238 233 252 250 254 219 219 199 225 217 227 233 231 207 189 102 
28 22 24 16 30 50 48 50 46 24 38 48 32 44 52 74 217 419 477 509 523 511 509 521 534 580 557 546 557 530 373 347 311 280 299 268 276 301 297 324 336 320 295 280 268 266 258 217 215 193 195 195 162 172 170 162 181 211 211 237 207 183 175 207 262 238 248 242 252 229 179 174 175 191 170 122 94 66 98 78 
36 20 18 28 50 40 38 38 38 34 32 24 40 50 54 76 209 427 513 511 494 469 485 469 456 521 507 536 546 485 378 384 355 355 342 336 326 313 293 307 334 344 301 284 276 256 246 244 221 195 195 191 174 162 162 156 181 191 179 166 158 166 193 237 235 237 227 205 193 164 132 144 90 88 90 56 46 44 78 70 
44 34 4 32 36 38 50 42 26 16 38 46 56 38 40 54 170 347 479 507 498 460 442 435 367 349 318 320 402 355 311 384 404 384 351 353 357 346 328 347 347 326 311 315 301 285 274 254 246 207 199 193 177 156 158 172 175 193 199 199 201 197 195 201 209 205 160 152 128 114 94 96 78 72 56 54 58 60 68 60 
54 36 10 24 38 56 50 44 34 34 38 52 44 44 48 48 68 195 349 400 427 425 421 351 189 108 70 86 146 231 349 437 440 413 373 349 338 338 324 324 318 315 315 316 340 332 303 278 268 248 233 225 209 201 189 181 160 205 229 217 215 201 146 118 118 110 94 82 92 82 94 88 92 68 74 68 44 62 72 66 
52 26 38 26 36 42 36 44 28 16 30 28 30 44 44 40 52 64 106 134 154 136 118 102 62 58 66 70 72 120 287 433 425 380 332 322 332 332 318 318 307 297 307 320 361 382 346 320 326 303 287 291 280 260 227 205 197 223 242 237 268 266 102 72 76 74 86 80 80 86 96 112 100 96 78 78 58 70 86 62 
46 18 24 24 44 54 48 30 26 26 32 44 20 40 52 46 56 48 60 56 42 42 40 28 26 70 58 62 72 78 191 408 425 384 347 316 340 342 332 332 342 322 334 433 462 473 464 454 446 440 431 446 433 378 303 246 293 347 359 280 254 295 122 86 80 76 78 92 80 88 104 114 112 110 108 92 78 58 86 78 
30 28 28 20 50 44 48 48 36 16 34 40 24 42 28 46 42 58 34 42 40 32 16 38 34 56 58 62 62 74 88 295 392 361 346 324 355 336 326 305 289 266 282 400 444 435 400 404 390 415 429 427 408 390 377 390 382 369 340 293 268 270 104 68 76 86 92 92 108 104 104 120 122 108 124 110 96 66 86 80 
42 18 18 34 36 48 52 40 34 38 48 36 30 34 32 28 46 40 32 40 22 28 28 28 16 42 34 54 52 78 154 371 380 351 340 340 340 346 336 262 223 211 227 357 413 377 280 223 272 318 347 365 359 344 344 342 328 313 318 320 291 235 152 108 94 106 120 124 122 130 112 140 124 124 124 114 102 88 98 90 
54 24 36 22 36 42 48 34 18 30 38 28 24 30 32 30 40 36 30 42 36 22 24 20 26 36 34 52 62 108 309 406 394 369 363 377 388 388 367 305 270 262 316 382 400 378 338 307 262 297 332 357 359 342 355 307 272 270 250 258 266 266 250 252 233 215 207 189 183 177 174 193 191 195 197 197 170 164 181 154 
58 22 24 24 26 26 32 30 38 28 18 12 20 26 46 30 38 60 44 36 44 32 32 28 30 48 40 66 74 136 349 411 425 427 408 408 408 363 330 332 318 311 334 378 398 380 357 349 313 274 328 340 344 336 330 289 268 276 250 256 274 272 278 272 270 254 233 209 193 187 217 227 221 235 254 242 254 248 262 274 
52 18 18 14 24 14 44 38 26 24 26 22 28 28 26 36 34 44 36 26 40 32 26 34 52 60 60 94 132 189 320 417 423 409 431 413 398 359 347 355 330 315 316 338 382 404 394 394 363 276 282 311 313 291 285 287 274 285 293 282 285 295 280 284 301 287 258 246 221 217 207 242 248 240 246 246 248 256 311 282 
44 28 24 34 20 44 52 26 28 12 24 26 26 22 28 34 50 46 58 58 68 84 82 92 118 126 106 138 287 320 320 423 433 408 404 390 367 346 344 349 347 336 338 324 363 386 402 408 419 326 256 272 295 278 264 262 278 315 315 326 316 303 307 320 313 318 295 293 268 225 240 276 270 272 260 248 246 258 291 270 
58 28 28 38 36 22 54 50 44 32 30 38 26 40 46 54 50 60 64 90 189 285 299 309 357 330 246 254 417 500 386 409 398 361 361 347 344 344 338 349 351 332 324 297 328 346 377 378 404 346 260 254 278 270 248 235 254 295 316 326 311 309 311 324 338 326 318 305 270 254 256 278 268 268 264 242 237 244 240 227 
52 42 16 12 34 28 38 32 30 36 28 32 34 32 28 42 42 58 74 197 346 404 439 417 446 450 433 498 517 521 437 394 367 318 311 299 315 311 305 316 322 318 322 311 313 315 353 361 392 336 270 264 254 238 233 223 262 270 301 303 291 287 287 276 262 270 270 252 227 215 203 203 197 205 199 191 199 193 229 233 
46 36 18 34 48 32 44 52 46 16 30 38 34 52 34 36 64 84 116 278 408 400 452 413 409 417 429 486 513 507 444 402 378 351 324 316 322 318 326 322 316 305 301 305 342 378 377 408 365 282 270 235 231 252 235 250 299 318 284 227 174 166 144 144 142 146 164 170 154 150 146 150 126 138 156 146 168 166 213 205 
38 36 28 16 38 34 46 48 36 42 32 40 38 32 30 56 44 70 146 285 427 404 406 396 386 417 425 465 509 507 390 419 419 386 377 344 326 318 316 318 320 324 320 332 380 398 402 421 357 274 268 252 254 252 248 282 303 324 318 316 274 268 244 213 213 201 193 193 193 183 179 183 191 197 221 229 238 252 280 268 
48 32 26 26 38 30 42 44 38 18 46 38 42 34 32 44 56 70 124 252 400 402 454 444 442 464 419 464 469 437 373 427 427 404 384 336 342 320 311 307 297 297 293 322 371 384 386 392 307 268 280 270 284 266 284 324 330 330 340 347 353 340 355 342 346 338 322 315 276 258 258 258 280 270 284 297 282 284 309 266 
52 32 38 26 38 40 44 32 32 26 46 24 32 40 46 54 52 70 80 221 316 369 413 450 437 419 336 284 351 320 355 411 396 398 404 371 330 309 303 282 268 262 287 318 388 396 373 338 276 285 287 276 293 276 291 320 320 340 336 344 346 353 342 359 349 344 349 324 276 262 237 248 270 276 282 297 287 278 318 270 
38 42 42 40 32 36 52 42 42 32 40 40 32 34 44 42 64 54 68 100 191 303 324 315 289 244 152 130 166 311 361 386 400 402 396 392 349 309 301 301 280 274 313 355 375 394 351 299 274 301 287 274 305 282 291 293 280 334 336 332 332 336 330 332 342 338 328 297 262 215 217 238 227 252 250 254 268 262 293 276 
50 30 26 36 34 56 54 44 44 32 44 30 26 46 40 38 58 50 42 72 86 126 124 98 96 98 98 126 199 344 375 390 398 402 377 377 344 315 301 287 285 285 332 382 371 373 338 299 291 311 287 266 295 295 282 274 258 299 318 322 320 301 297 318 313 313 311 285 246 229 219 238 248 221 235 221 238 221 225 197 
34 28 20 32 28 24 42 42 16 20 30 28 38 26 28 42 54 68 52 46 40 48 44 50 62 78 94 170 326 375 363 371 357 363 359 357 293 328 315 297 305 313 363 388 367 355 318 287 289 287 260 242 258 282 291 278 235 248 284 307 295 289 289 282 274 282 272 262 227 207 233 201 181 179 174 146 124 124 156 122 
36 38 14 32 32 16 34 48 18 16 42 14 16 32 30 30 36 58 42 40 36 32 38 44 64 96 170 285 351 365 351 369 338 316 328 316 274 338 406 351 311 309 367 386 380 326 264 276 276 260 229 233 231 278 278 258 235 242 250 264 238 235 209 199 181 168 154 179 181 181 164 166 138 126 128 102 84 94 116 100 
50 38 20 26 40 40 26 48 28 20 34 32 32 28 24 30 28 50 34 28 42 60 54 52 118 240 278 309 347 357 315 316 287 268 248 285 293 344 421 421 340 240 353 404 386 254 160 168 150 152 148 154 150 170 142 128 114 118 100 94 92 86 76 70 84 110 128 146 150 162 162 160 130 108 100 74 76 84 106 68 
52 22 34 32 28 26 32 42 28 36 30 22 18 20 24 28 22 44 36 38 66 90 140 231 307 332 284 223 183 227 223 219 199 179 177 201 280 274 320 375 386 378 377 400 357 152 102 86 94 106 104 140 146 138 124 118 140 164 183 185 175 158 106 70 70 96 120 128 156 158 142 162 130 92 82 76 70 62 86 74 
56 18 26 34 32 28 38 40 32 34 34 40 20 28 22 34 46 42 50 86 213 318 334 313 334 328 138 96 134 284 250 266 268 240 221 164 181 114 112 112 140 142 152 146 138 126 160 154 154 177 140 152 158 158 140 136 152 185 183 203 203 197 174 110 114 108 92 94 118 154 160 158 140 96 92 64 72 70 84 84 
52 20 30 32 46 38 30 42 36 30 34 24 28 28 36 44 48 56 58 158 313 311 299 262 295 150 80 80 152 318 266 297 346 313 250 146 118 116 100 114 124 126 134 126 114 142 172 177 144 148 150 140 130 154 166 160 154 172 177 168 164 197 152 120 110 108 88 86 82 130 138 148 120 88 66 68 66 62 94 80 
50 28 36 32 36 40 40 50 30 14 40 22 24 46 38 44 62 84 189 262 256 276 342 324 244 148 74 102 205 307 274 295 311 266 207 150 142 46 60 110 148 150 140 166 168 179 187 177 142 132 142 130 140 166 195 199 162 152 166 160 148 136 142 116 118 120 112 100 94 108 146 156 122 112 86 72 68 74 102 82 
40 36 44 42 38 56 56 38 38 30 34 38 44 40 40 48 70 183 289 254 215 332 425 437 394 322 185 189 295 307 289 285 205 118 102 112 96 58 28 58 130 162 162 160 203 175 175 170 130 106 138 110 114 160 195 195 154 158 166 174 170 150 134 140 148 138 116 100 92 126 191 221 199 189 177 150 100 102 92 62 
42 26 22 48 38 40 44 34 40 36 48 44 24 44 46 50 94 235 299 293 365 456 452 433 421 400 349 342 326 287 268 260 175 120 50 68 80 54 62 82 120 156 164 185 142 164 158 162 132 116 120 76 76 134 195 191 156 150 164 174 164 156 150 162 166 156 144 128 102 160 191 221 211 217 238 248 217 199 168 94 
42 34 26 36 40 36 50 40 30 46 46 40 40 44 36 70 110 270 303 349 444 485 481 465 427 411 369 342 320 274 262 233 170 118 78 76 102 48 82 126 152 166 170 181 142 130 166 150 128 114 92 76 120 154 191 191 175 160 168 172 154 177 177 193 193 185 189 170 140 175 209 213 181 211 235 258 244 242 248 215 
34 34 26 40 40 48 54 40 44 28 30 38 30 40 58 68 124 250 316 425 462 437 450 465 442 400 363 351 303 268 268 225 154 122 98 98 124 84 100 142 179 181 158 183 150 152 175 158 98 96 74 100 150 166 181 201 177 162 164 164 156 189 197 187 189 191 181 177 160 187 209 209 207 217 235 237 240 229 254 235 
48 28 36 36 34 34 50 40 36 30 30 36 32 42 52 64 110 240 336 435 450 373 400 396 417 398 363 344 291 276 235 229 175 146 136 140 152 134 130 170 172 179 142 187 138 142 177 168 102 72 98 106 162 152 170 195 174 154 146 156 140 170 177 152 191 195 170 158 146 189 225 223 209 227 223 233 235 242 266 264 
34 28 24 30 40 38 42 38 36 28 42 28 30 50 42 60 94 158 240 334 409 377 396 394 378 344 318 342 297 258 201 242 242 215 223 207 146 177 146 181 183 168 122 175 132 136 152 142 118 74 102 112 126 128 162 128 116 104 90 98 106 90 106 126 126 146 122 122 106 158 219 229 242 242 237 237 238 246 305 287 
32 24 28 26 28 24 38 28 24 24 30 22 36 32 36 62 60 68 102 138 215 330 361 326 237 187 166 299 303 252 199 256 264 225 237 217 185 195 124 195 177 140 112 158 140 112 102 112 136 72 50 100 120 98 112 108 102 82 70 110 88 80 82 90 100 100 84 70 50 150 221 229 240 238 248 242 246 258 297 274 
22 36 34 26 34 42 44 26 50 16 16 28 32 42 40 58 56 70 48 72 80 80 118 78 68 98 102 258 311 268 193 229 256 229 235 217 191 191 136 181 172 148 128 140 142 124 94 122 140 92 60 102 118 130 136 158 118 96 102 134 114 106 86 78 72 60 54 36 14 130 197 219 215 235 246 270 262 274 285 266 
36 40 26 22 46 42 40 40 28 34 20 26 26 32 48 44 48 54 54 40 48 42 48 46 58 68 84 185 291 274 195 175 160 108 162 199 223 195 158 207 179 174 138 148 152 144 114 138 148 118 104 148 183 238 311 299 213 148 150 120 114 90 76 72 70 62 62 30 8 98 172 201 221 227 246 252 248 240 254 240 
32 32 34 22 42 48 56 26 32 36 22 26 16 40 44 44 40 42 46 30 32 40 48 40 34 66 66 140 284 276 211 183 170 130 193 266 276 268 237 252 219 223 185 193 191 164 146 156 152 144 152 242 303 346 353 340 305 301 219 132 112 98 98 96 84 78 54 26 50 86 106 122 142 172 189 191 179 166 185 156 
46 50 34 34 28 40 34 30 28 26 34 36 32 32 32 34 32 32 38 28 26 34 34 24 34 62 58 100 266 293 258 252 225 211 260 280 284 324 326 299 266 276 254 242 240 240 209 209 215 235 287 347 367 361 342 355 318 280 183 134 110 100 86 98 90 80 82 66 62 66 96 100 78 108 140 126 122 140 158 124 
30 26 34 30 54 28 46 42 36 34 40 38 28 30 40 28 52 36 34 36 32 18 26 34 34 60 46 78 193 291 272 285 276 248 278 287 287 396 378 344 320 305 307 297 287 276 270 285 254 270 284 357 377 378 371 361 334 205 102 68 66 72 54 72 74 68 80 66 92 72 82 78 70 66 106 112 126 110 122 96 
48 56 22 36 52 46 48 46 50 26 36 28 30 34 28 56 36 42 30 36 32 28 28 36 36 66 46 74 108 185 268 264 250 244 254 260 301 384 380 361 351 330 326 328 313 303 297 307 272 256 280 318 365 349 353 311 238 64 36 30 16 34 52 58 64 72 82 100 104 84 88 84 72 58 76 82 88 88 106 80 
46 34 26 30 38 40 48 62 62 38 44 34 48 28 40 54 38 48 40 28 44 38 36 30 42 60 64 68 84 106 170 248 229 237 309 336 386 404 396 361 338 330 336 330 316 301 272 205 162 104 104 126 138 128 132 100 66 20 14 22 20 28 46 50 64 80 112 120 138 108 100 100 72 58 78 78 66 44 90 88 
36 24 38 28 52 46 40 40 28 42 42 42 16 44 36 64 40 44 48 42 32 34 42 40 44 64 86 142 175 205 238 278 284 336 363 365 392 419 408 400 365 237 195 175 126 120 114 104 98 66 68 90 80 78 70 60 54 26 30 46 38 46 42 50 88 82 94 132 132 120 114 114 96 52 68 60 36 46 80 62 
50 18 34 38 26 36 46 36 44 32 46 28 24 34 42 46 42 50 40 24 32 48 42 46 102 177 215 268 291 289 270 287 322 365 373 386 408 406 402 394 373 309 209 160 124 128 110 96 106 108 100 124 130 110 92 78 66 52 40 52 40 52 58 56 70 70 86 132 140 128 128 130 90 52 58 46 28 40 66 82 
42 32 20 48 42 54 62 62 48 28 46 50 34 44 40 36 46 36 50 44 48 44 50 76 219 258 231 244 274 274 260 297 334 363 396 413 429 386 363 359 361 297 244 207 166 148 132 126 138 130 132 148 132 118 110 100 78 70 58 62 64 70 56 70 78 78 92 130 150 132 140 146 104 46 50 36 20 28 88 110 
58 40 38 40 48 50 54 52 60 56 78 60 54 42 52 60 48 58 52 52 48 40 50 144 293 307 248 242 242 219 199 246 262 278 324 340 365 373 353 336 324 246 248 237 215 162 132 144 160 170 172 172 154 144 134 130 122 86 70 90 80 72 84 74 86 96 104 122 124 126 132 132 100 58 72 56 34 48 158 134 
44 38 40 36 50 58 60 48 78 96 142 174 148 98 92 64 56 68 52 50 48 38 92 227 289 284 240 264 227 136 90 156 166 193 282 293 316 315 315 307 311 274 252 244 223 189 120 136 154 175 183 183 175 170 154 158 132 108 102 100 96 86 90 102 88 94 98 118 104 102 122 156 166 170 197 183 128 114 181 132 
44 36 28 38 34 58 60 72 108 195 332 384 373 332 278 219 158 96 66 50 60 58 148 248 280 274 262 246 168 72 48 134 170 229 289 282 284 291 280 266 282 274 252 256 215 181 118 108 114 138 170 183 179 203 197 174 154 132 130 134 102 106 94 98 98 86 100 98 92 78 92 158 187 201 221 193 138 140 172 150 
44 32 30 42 40 54 58 94 191 284 423 431 421 442 465 444 404 291 126 88 80 98 244 270 280 282 256 195 108 36 24 150 215 242 258 254 282 293 262 252 252 252 238 235 213 203 170 136 114 110 142 174 177 189 217 217 179 160 148 160 140 118 130 124 106 114 122 110 90 84 120 158 179 193 187 156 154 148 181 160 
46 42 18 38 44 54 48 124 229 320 417 458 448 498 464 439 406 396 307 170 126 215 280 274 244 235 181 152 78 10 24 170 221 229 240 248 264 268 252 235 240 233 211 231 231 227 217 191 154 140 170 174 166 160 175 175 170 156 140 158 142 146 158 146 154 168 172 144 118 108 126 160 175 162 168 166 181 168 185 187 
38 26 22 24 40 36 54 114 225 322 386 440 450 473 464 392 353 347 334 380 357 330 299 264 233 197 152 138 88 14 54 177 205 215 229 233 254 264 250 248 240 211 211 238 233 229 231 235 199 189 231 205 158 160 142 132 140 126 126 130 130 142 179 174 162 164 179 175 164 146 152 177 172 185 189 183 191 201 207 185 
38 22 22 30 34 36 60 136 215 332 388 437 460 496 479 406 347 346 336 404 392 313 266 223 179 174 152 140 64 30 60 168 225 203 217 219 229 237 262 272 223 213 183 205 221 246 262 237 238 225 227 217 164 134 102 108 112 102 90 102 90 124 138 140 156 128 92 179 166 172 175 181 162 181 201 203 215 215 238 174 
30 16 18 20 40 36 50 78 203 315 392 415 446 477 465 442 415 415 392 390 373 254 231 183 168 174 134 92 6 12 84 175 199 197 215 221 209 289 287 278 250 201 177 185 233 244 250 248 260 252 237 217 160 114 82 90 62 62 54 50 38 80 102 118 120 98 60 138 126 130 166 179 166 172 179 193 207 215 191 134 
28 20 6 22 18 26 38 46 140 240 338 429 454 481 464 442 448 452 419 392 322 242 211 189 177 185 122 86 10 22 100 172 207 233 227 229 278 320 320 311 246 177 181 187 195 213 250 246 250 207 172 168 114 94 74 84 74 30 36 28 24 50 36 44 42 56 58 70 76 140 179 191 168 172 183 185 203 199 144 118 
36 20 8 0 2 22 12 28 44 76 130 233 349 475 500 477 467 473 419 371 274 242 221 207 209 197 114 76 0 14 82 132 177 229 242 262 338 361 332 305 242 175 185 177 187 158 195 197 168 138 98 82 66 66 58 76 74 68 78 74 86 78 64 58 76 76 72 96 150 195 199 187 177 166 170 183 195 128 120 106 


