P2
80 60
686
96 84 92 86 92 92 105 94 98 101 111 101 105 115 115 105 109 135 119 129 103 101 113 117 107 241 487 492 475 427 399 379 363 371 375 385 371 377 385 371 373 397 415 435 461 496 524 551 550 512 443 397 347 319 289 305 283 255 222 224 253 265 275 271 255 245 218 224 235 269 273 241 237 249 261 281 321 319 333 335 
94 64 66 96 94 94 103 90 96 115 90 84 92 101 94 107 115 111 115 131 107 119 107 131 125 263 502 506 492 475 447 407 383 365 373 385 367 367 373 359 381 371 371 399 413 429 467 502 536 538 488 447 427 385 361 341 339 297 281 249 243 239 251 233 224 226 224 237 263 301 279 279 233 222 243 301 331 303 327 349 
98 82 82 96 103 113 92 92 103 109 107 84 119 111 105 92 115 131 149 182 172 168 161 163 157 301 449 490 500 506 483 443 395 379 369 381 349 341 359 349 367 361 361 343 349 367 365 423 471 514 510 475 467 439 423 453 405 341 331 319 297 281 297 287 261 235 245 269 279 305 319 273 235 228 253 313 333 323 301 315 
107 84 90 105 86 107 90 94 125 98 105 105 101 117 94 119 123 190 297 329 343 393 395 307 243 383 433 467 542 522 500 463 413 391 367 369 353 351 375 369 369 379 353 339 357 353 369 385 387 413 463 496 502 492 461 451 421 373 369 345 331 315 347 329 291 295 307 307 299 307 311 269 257 245 277 315 349 351 313 313 
113 92 80 90 94 92 98 92 103 107 96 80 103 115 117 121 161 317 435 477 516 575 579 579 559 610 548 498 514 550 544 526 475 423 399 401 373 375 403 425 443 439 429 407 409 395 395 373 345 361 373 455 520 504 475 435 423 393 391 385 383 345 365 353 309 339 359 341 297 309 293 243 289 265 279 297 325 283 212 224 
111 84 92 88 88 86 96 94 115 117 107 107 111 119 127 137 233 411 467 597 624 591 614 629 653 670 657 597 536 500 510 526 508 461 413 411 389 381 409 435 457 447 427 427 411 399 389 361 339 345 329 371 498 522 473 459 449 419 363 369 367 329 325 303 333 341 341 347 333 285 283 237 269 247 210 206 186 141 127 182 
123 96 96 101 94 111 107 103 127 113 103 115 111 127 133 141 277 401 550 577 602 602 637 643 651 686 676 655 641 553 494 475 457 419 399 403 393 397 405 409 429 409 379 373 373 367 349 335 317 315 305 303 401 494 477 481 475 441 357 323 305 281 271 315 339 327 321 319 291 247 222 174 176 137 139 121 123 113 127 170 
119 96 90 109 101 121 113 121 119 113 121 109 125 127 125 157 237 405 585 602 616 624 600 608 587 591 629 608 626 577 479 453 409 419 415 427 383 383 407 423 459 431 393 361 387 351 351 339 327 303 301 299 333 459 455 479 488 449 369 287 261 263 273 289 287 275 259 222 192 176 161 141 133 131 117 121 117 121 117 135 
96 90 101 88 111 101 117 125 119 117 123 117 117 137 121 151 212 371 550 616 579 604 553 546 540 443 417 363 441 439 457 504 465 479 471 467 421 417 445 453 463 439 409 419 423 393 407 403 361 327 317 301 339 429 411 465 490 435 337 291 285 277 261 249 231 206 196 180 166 149 163 159 135 131 129 129 135 127 119 135 
113 92 103 94 111 113 123 96 123 123 121 125 117 133 131 137 168 279 387 540 561 585 504 485 405 275 194 176 212 281 467 553 534 510 471 455 429 399 425 413 433 413 407 435 445 437 421 403 381 371 365 353 365 437 475 481 473 435 279 233 216 206 192 182 157 153 166 157 149 147 172 166 153 155 149 139 123 121 129 141 
103 78 119 105 111 115 121 96 127 109 113 115 125 127 125 119 117 151 228 297 317 349 323 226 155 166 174 149 157 190 339 536 546 520 485 457 419 415 419 419 425 423 435 490 534 488 475 459 467 492 530 477 492 514 500 465 471 435 255 186 190 166 176 163 163 159 174 172 157 170 188 194 182 170 174 145 139 143 133 163 
115 90 125 96 113 125 127 111 131 123 131 135 123 125 125 125 135 133 145 155 137 149 141 151 141 141 174 163 159 182 303 536 555 510 463 433 429 435 437 411 445 435 441 555 571 561 583 587 591 595 571 538 534 524 485 461 473 427 331 285 243 226 224 208 196 190 182 186 194 180 198 196 194 188 182 159 180 161 137 172 
113 84 115 105 109 113 121 115 113 121 125 119 131 131 121 123 133 131 117 137 115 123 139 127 133 151 178 153 163 212 451 567 540 506 488 477 455 449 425 403 387 363 369 483 551 548 573 593 591 595 546 530 516 477 453 425 417 381 379 375 359 369 359 359 337 277 241 218 200 218 212 208 224 220 204 204 194 178 157 196 
105 94 107 103 111 111 125 115 121 117 127 115 113 137 117 121 123 123 131 131 111 113 123 133 125 151 157 161 172 239 502 561 565 555 563 553 532 498 483 441 429 391 389 451 477 490 496 536 512 526 469 439 457 431 429 409 399 387 393 395 403 391 403 413 387 399 351 327 277 297 293 285 289 309 269 257 271 204 208 208 
109 105 107 117 115 101 121 107 107 129 133 121 129 123 117 129 121 135 119 143 115 125 125 129 127 143 159 166 188 269 506 565 581 579 569 571 538 522 520 488 498 473 465 459 477 463 449 455 421 407 375 395 427 413 429 427 425 407 383 389 431 401 415 431 405 435 395 335 321 305 337 333 341 337 347 337 355 353 315 327 
125 103 101 117 111 115 107 111 113 115 119 119 117 125 119 121 117 125 125 139 129 127 133 151 141 155 176 178 283 373 437 559 577 595 579 557 559 526 526 516 532 522 508 494 479 463 429 413 403 383 363 365 419 421 411 427 419 443 441 423 415 439 449 437 439 413 413 387 345 313 315 343 345 333 321 345 345 345 357 339 
125 107 105 109 103 115 115 101 117 119 98 107 125 135 119 107 119 125 123 141 125 135 166 168 172 186 204 214 383 538 500 553 583 598 587 569 555 538 538 548 565 553 528 522 502 463 441 411 403 387 361 367 413 405 379 395 387 435 455 467 441 431 461 453 447 429 433 399 379 335 343 351 361 361 331 313 329 325 349 349 
121 113 117 117 125 119 117 103 105 127 117 115 119 129 139 121 127 135 139 159 182 224 289 325 367 361 349 387 498 614 593 557 561 553 559 579 557 544 548 565 575 532 526 520 494 467 453 443 413 393 373 371 403 393 349 353 375 371 445 447 441 435 437 445 425 415 409 407 373 337 343 343 347 353 325 315 337 327 317 323 
113 113 125 105 113 109 119 127 123 139 131 107 127 141 127 137 137 141 143 192 325 488 561 561 569 569 579 565 600 633 628 532 530 528 571 585 565 548 561 577 577 559 518 514 498 492 469 467 423 413 379 385 389 363 365 353 377 381 397 405 401 395 355 331 337 347 367 357 315 289 301 271 261 283 271 267 289 285 305 333 
129 123 119 115 117 119 119 119 121 119 141 123 117 139 137 143 135 147 159 281 494 579 557 557 538 555 569 565 598 614 579 561 567 577 583 585 561 559 550 546 551 536 506 494 488 492 487 473 449 429 403 453 431 399 385 377 391 423 403 363 285 245 235 226 220 237 239 237 233 235 218 214 220 220 222 206 233 228 265 313 
135 121 135 125 117 121 121 117 123 131 135 133 125 137 141 145 137 151 170 351 536 555 551 557 506 526 550 551 585 598 522 563 577 587 581 550 530 538 536 520 506 502 485 467 479 506 516 506 463 443 419 492 473 423 401 413 407 417 437 449 417 351 301 257 231 235 239 241 239 231 251 212 239 239 224 241 261 289 303 313 
127 94 151 125 121 123 127 121 137 123 127 131 125 145 129 137 135 149 174 345 524 583 550 550 528 532 550 522 563 542 498 579 567 583 577 557 536 538 518 510 490 475 475 471 471 483 514 483 471 459 447 520 492 461 441 445 435 453 461 469 459 445 431 383 373 347 317 305 273 291 289 321 337 345 333 327 331 333 327 329 
115 121 127 121 127 131 123 127 135 125 133 131 141 137 129 143 139 159 174 277 453 516 542 567 583 583 555 421 377 391 496 555 548 557 546 544 536 520 512 502 498 500 483 469 475 467 469 483 477 487 524 559 526 496 496 492 488 467 455 419 403 389 409 473 469 473 461 441 403 379 413 401 409 397 359 353 329 317 315 297 
137 119 125 117 127 129 141 101 119 131 147 135 133 143 137 135 151 149 153 206 351 417 510 514 532 443 341 237 241 315 544 567 532 510 492 516 526 528 542 522 506 490 498 490 492 488 479 494 490 508 571 571 555 542 536 506 520 451 395 309 305 355 375 427 481 490 494 483 439 405 411 399 385 375 369 331 319 301 277 275 
125 113 115 135 123 123 123 129 127 119 149 129 123 135 145 135 139 143 153 163 198 281 325 329 287 216 228 210 224 263 524 557 498 481 457 437 475 555 571 571 583 567 528 540 492 490 500 498 528 530 536 571 557 534 512 506 479 427 355 351 395 377 381 425 465 457 451 455 439 399 383 363 361 365 359 319 279 241 202 239 
135 105 141 129 129 143 147 119 131 143 143 131 135 139 137 137 139 147 143 161 141 163 172 186 188 190 210 196 194 231 483 536 516 506 479 441 500 557 598 593 614 606 579 573 536 516 536 544 571 550 551 528 534 522 500 483 485 487 471 465 463 455 477 457 457 433 445 421 391 387 367 359 347 317 297 239 214 198 194 204 
133 107 123 133 129 121 125 115 123 127 135 133 127 145 139 133 145 147 143 151 131 145 147 151 153 157 192 168 186 208 347 514 538 544 536 550 542 508 498 546 593 600 595 583 542 548 555 573 597 561 542 504 455 443 463 459 475 451 405 427 435 445 455 445 435 421 403 405 385 363 357 303 285 253 208 212 202 180 186 192 
127 119 123 117 111 125 113 125 139 133 139 125 117 135 131 125 143 139 139 137 131 139 153 139 143 163 184 174 166 188 218 331 487 557 587 557 498 471 469 512 579 585 591 573 557 540 553 557 530 469 367 283 243 216 263 313 325 281 267 269 279 297 291 303 317 313 311 327 311 289 263 247 224 204 200 194 170 174 170 174 
117 98 127 119 131 131 125 115 129 113 127 117 133 131 135 123 131 143 129 139 117 123 147 137 145 157 170 161 176 184 198 214 263 419 540 522 506 490 477 490 542 551 548 532 542 469 413 363 299 265 218 210 192 194 176 172 178 172 174 184 172 184 178 190 182 218 237 245 249 273 257 228 214 200 180 163 172 155 161 174 
125 109 115 135 115 123 115 119 129 109 117 111 125 133 127 117 117 131 129 133 115 121 129 145 139 143 168 149 159 163 192 237 417 520 551 534 510 502 479 479 542 530 502 514 490 429 259 233 226 224 214 206 196 208 202 194 210 202 182 186 182 192 204 214 198 220 237 233 263 249 241 228 208 192 172 163 166 155 159 186 
125 119 129 129 129 125 125 121 131 121 131 125 119 119 131 121 113 135 125 125 117 125 129 147 145 147 174 151 166 180 202 405 512 524 518 526 504 496 477 473 504 504 487 500 514 512 409 273 255 247 237 247 259 279 261 307 391 389 347 325 331 313 305 293 281 263 265 257 263 241 249 233 220 198 174 170 170 159 176 196 
121 117 123 111 123 121 135 107 131 133 135 131 137 121 127 145 127 145 135 145 129 121 147 147 155 157 176 172 174 186 271 498 504 488 437 437 463 487 500 481 498 483 467 483 506 508 514 455 433 353 379 329 347 305 261 335 403 417 413 411 419 369 347 341 313 305 275 285 271 273 277 279 279 287 267 267 247 237 222 226 
111 111 115 127 113 129 127 125 137 119 143 117 127 153 143 141 129 141 137 151 137 133 143 145 141 166 176 166 178 202 347 534 522 471 453 447 417 405 375 379 373 383 409 483 477 488 477 492 494 421 375 341 337 309 293 327 403 409 411 415 397 343 329 319 317 307 301 295 295 317 331 343 343 357 371 367 371 363 357 343 
119 117 129 131 127 129 127 135 131 133 143 113 129 135 135 129 143 141 131 159 139 204 228 216 204 216 208 176 192 249 469 565 559 530 506 512 451 395 365 307 277 305 361 405 441 467 471 459 453 371 349 321 325 329 305 297 321 335 327 369 355 325 335 335 321 311 311 301 299 317 343 351 333 353 373 379 391 401 361 349 
123 119 111 117 133 107 133 123 141 129 127 129 127 139 139 141 139 151 145 176 261 365 375 363 425 455 385 251 235 333 514 530 542 522 551 542 471 375 343 281 273 259 263 275 383 455 467 461 445 363 305 293 323 337 335 315 315 321 295 295 327 329 331 327 335 315 315 307 311 319 313 323 305 327 343 357 359 361 315 335 
117 111 133 117 145 133 127 127 127 133 139 131 135 145 149 129 135 151 170 237 391 461 429 479 555 581 540 465 449 459 512 498 514 538 534 518 431 359 313 245 216 168 196 257 339 379 415 443 459 439 365 303 337 383 423 395 369 337 329 325 343 353 351 349 317 317 319 305 307 321 301 295 289 325 323 317 311 301 293 267 
121 111 107 135 123 125 131 131 137 143 131 123 141 157 149 131 147 161 174 309 449 429 445 528 575 608 614 563 502 502 492 496 475 516 508 477 411 321 275 163 139 127 192 239 275 323 379 437 459 504 494 425 427 481 514 425 371 361 355 347 325 325 345 351 307 317 299 299 317 315 271 263 271 279 271 251 241 218 208 214 
121 121 131 137 125 121 131 129 139 133 149 121 147 147 141 137 151 161 170 321 441 455 514 573 579 522 595 553 500 483 475 490 485 483 455 435 397 345 299 200 188 194 218 247 271 301 359 419 487 532 550 524 502 506 526 447 313 325 331 323 311 313 321 303 319 331 311 295 281 247 249 237 222 235 220 212 224 202 226 228 
125 103 125 125 123 143 131 123 141 143 143 127 135 143 139 133 139 153 163 313 401 457 540 555 555 508 550 546 455 487 477 514 477 399 445 417 369 321 293 235 257 263 243 271 275 301 311 381 512 555 544 544 528 502 500 417 303 313 319 315 313 313 331 357 355 373 363 349 339 323 295 277 283 289 303 317 341 335 333 363 
119 113 119 121 125 143 135 113 135 137 143 133 147 157 135 139 139 161 170 283 343 451 481 551 557 526 569 504 433 477 516 485 496 477 425 433 367 333 301 202 263 233 257 279 275 293 291 365 488 546 551 546 542 526 485 417 331 317 321 321 319 345 371 367 355 373 359 363 331 365 345 379 357 359 365 387 387 387 395 387 
119 96 129 121 113 127 127 125 127 133 145 121 129 147 125 133 143 159 155 212 255 333 349 407 475 550 488 345 261 389 500 477 490 463 423 399 363 313 239 123 168 180 231 269 251 275 299 399 492 565 546 530 528 492 405 351 327 325 329 329 337 337 357 349 345 337 327 303 293 345 337 347 357 363 381 381 385 387 363 363 
117 109 129 119 121 115 121 113 147 133 143 127 135 145 117 131 143 147 135 170 153 184 188 212 218 235 226 208 202 305 496 471 461 445 403 383 381 357 275 208 161 176 226 228 218 295 353 441 473 544 563 512 469 375 365 353 335 321 303 325 297 293 303 295 281 285 245 214 231 325 313 339 351 347 359 363 363 331 307 281 
117 105 107 117 129 119 135 115 139 133 123 129 123 131 121 121 141 137 139 151 139 147 153 153 155 172 180 172 182 222 445 469 445 427 367 397 377 357 279 143 105 153 233 243 261 363 417 447 451 449 359 327 337 309 303 305 299 275 265 267 253 253 239 249 241 214 170 170 200 263 289 287 281 297 289 281 255 237 212 214 
115 111 127 129 115 125 133 131 137 119 113 127 123 133 123 133 135 135 147 147 131 133 129 149 153 172 180 176 176 204 377 469 457 411 345 367 373 361 261 166 133 159 212 212 343 415 441 453 457 369 287 208 233 259 255 231 235 237 224 220 239 220 239 235 200 163 139 139 153 188 204 200 196 190 192 190 204 202 186 218 
119 96 123 121 119 127 119 129 131 121 109 123 129 123 139 137 131 137 129 151 131 129 143 141 145 161 172 159 170 188 315 453 445 365 317 373 397 363 313 333 333 301 285 347 411 437 471 449 405 313 277 251 239 261 226 212 218 216 214 214 212 216 220 231 174 149 135 149 172 172 182 170 153 145 159 170 174 168 174 196 
121 111 123 113 125 121 119 127 133 129 133 127 135 133 129 131 133 151 131 133 125 121 135 139 147 155 172 163 172 176 241 409 431 393 325 369 369 343 361 433 433 405 377 425 459 465 475 419 327 307 271 210 214 251 210 196 202 194 202 220 220 200 208 214 168 163 151 174 180 186 182 163 149 135 141 151 159 163 166 168 
109 103 117 127 103 129 119 113 139 137 133 129 143 133 127 119 117 133 135 153 137 125 145 143 145 168 182 163 174 190 210 265 365 423 389 361 341 349 369 479 488 475 445 475 481 477 411 277 241 233 214 184 204 210 180 168 178 153 157 159 157 159 176 182 178 174 196 188 192 194 184 168 153 131 125 121 151 133 125 141 
119 111 117 125 121 131 123 125 133 131 133 127 125 139 151 135 147 133 123 137 119 127 145 141 151 168 188 178 178 184 204 204 208 279 351 371 375 375 417 510 516 500 469 485 487 373 273 226 235 233 216 200 186 184 163 166 163 135 139 151 159 170 176 170 184 200 220 243 220 204 196 178 172 145 133 135 113 96 94 131 
115 107 113 127 115 125 125 115 151 131 117 117 139 151 145 137 133 133 141 139 145 133 137 141 145 166 194 170 178 182 190 200 200 214 237 315 345 357 389 411 425 431 419 425 345 226 208 200 208 194 194 188 159 180 149 168 174 163 149 137 145 166 182 196 200 210 216 245 231 216 226 204 180 137 117 123 105 90 88 109 
111 105 119 109 105 117 137 135 121 129 147 151 141 149 145 143 139 141 125 141 127 129 139 145 141 168 180 170 174 188 210 204 206 218 245 351 371 369 293 283 305 309 277 265 198 188 192 206 218 210 196 180 202 188 188 178 192 192 172 166 174 151 174 190 176 226 241 231 231 226 235 208 188 133 92 74 64 64 35 86 
111 121 119 117 123 127 127 119 143 155 170 202 228 249 204 255 157 133 131 149 123 135 131 141 143 159 196 176 186 214 218 237 245 243 293 375 375 377 299 281 279 293 271 263 251 218 200 210 235 202 212 210 224 263 259 253 245 235 208 218 210 204 220 218 210 218 226 224 231 210 224 202 176 147 96 49 45 35 37 31 
117 92 107 101 107 139 131 131 176 241 313 359 441 500 471 427 277 233 161 149 121 133 145 151 151 166 184 170 214 220 204 190 153 245 317 395 415 403 331 293 289 285 271 249 269 261 237 243 261 267 279 285 279 279 269 253 261 231 224 237 226 231 235 247 224 214 239 243 233 239 239 216 216 155 103 39 23 19 0 29 
121 105 115 117 119 123 137 137 255 365 435 477 544 559 538 516 443 411 305 172 121 131 137 137 143 182 208 261 255 194 139 98 88 253 327 419 451 425 363 307 283 253 249 245 239 226 241 263 261 259 251 275 265 273 255 233 247 220 222 233 228 218 231 237 202 190 257 267 257 271 277 265 265 261 214 180 145 98 60 39 
119 94 109 107 107 121 135 159 331 417 481 516 583 579 557 550 555 544 439 196 139 125 139 161 180 241 289 295 267 174 121 98 153 249 319 429 459 457 385 325 273 220 235 239 239 210 224 228 237 224 204 222 218 255 249 231 218 180 186 212 206 202 233 222 194 119 261 301 287 287 293 279 281 285 255 251 267 245 220 235 
111 109 105 109 98 117 149 190 361 429 475 522 591 612 597 598 581 579 508 281 137 145 168 218 243 283 299 275 271 182 101 107 188 224 335 463 479 463 421 319 261 239 257 241 226 192 216 210 198 214 218 218 216 249 263 243 235 206 166 186 200 192 214 218 170 107 184 311 323 303 281 267 287 267 259 269 267 247 241 291 
96 90 111 103 92 115 129 204 373 439 443 500 557 614 587 595 579 579 542 477 283 202 263 281 249 259 297 267 239 200 135 145 184 243 365 469 483 481 433 323 245 247 249 237 192 194 206 212 204 204 265 295 289 301 291 273 273 204 188 166 168 178 180 184 151 115 157 295 309 287 299 271 271 297 259 257 249 253 241 271 
90 86 107 74 94 111 103 188 345 427 439 483 563 598 565 577 583 567 520 449 367 321 299 283 261 247 299 261 228 188 176 178 200 249 403 477 488 492 421 305 214 267 249 231 212 206 194 206 206 237 335 361 373 367 321 285 261 257 188 170 155 145 143 147 149 145 131 149 182 212 233 226 281 281 243 233 231 228 235 216 
94 64 92 70 80 92 113 151 327 391 429 463 510 551 540 561 542 532 451 399 375 345 317 295 261 202 180 259 253 206 198 216 210 285 435 502 492 496 419 259 218 275 247 231 218 184 204 200 222 301 353 369 393 387 327 265 233 222 190 141 151 135 135 147 143 129 127 121 109 153 157 137 161 172 174 147 168 147 168 174 
78 70 80 76 80 84 94 103 214 359 395 429 465 492 502 508 490 479 423 413 385 345 307 287 255 231 200 200 253 218 224 265 275 351 435 500 490 463 391 253 251 279 245 218 194 188 190 202 212 297 381 357 397 399 315 247 235 222 174 147 127 139 135 131 131 125 121 107 107 107 113 129 141 176 206 231 216 208 210 233 
80 68 84 74 76 82 76 103 129 200 257 333 373 437 451 445 439 473 431 441 399 397 339 341 299 297 279 263 239 239 275 377 391 419 415 463 471 421 341 235 239 247 243 218 202 204 210 231 212 239 285 331 337 359 315 247 216 202 155 129 137 123 119 127 109 115 121 125 155 147 147 147 176 220 267 271 295 295 289 313 


