P2
80 60
586
48 68 34 48 36 50 52 58 64 80 36 56 56 62 52 54 52 54 46 34 44 30 28 50 54 40 50 82 134 209 213 190 144 142 182 209 237 272 282 410 404 408 427 455 451 437 422 435 408 373 300 266 237 229 217 219 213 203 190 186 201 174 188 191 178 182 180 245 254 221 193 154 180 182 154 150 126 124 110 140 
42 46 22 42 42 34 42 58 62 74 52 62 54 40 46 64 50 56 50 56 44 26 36 42 42 38 80 201 288 319 303 288 256 227 266 301 309 296 258 274 272 292 340 385 410 414 406 400 416 418 414 375 360 321 309 315 313 278 256 225 219 215 199 191 217 241 258 247 272 233 217 162 174 186 197 188 209 223 199 174 
28 52 38 48 68 54 32 40 52 48 36 48 56 48 52 58 36 40 40 60 28 40 38 48 56 64 98 331 352 342 317 303 270 254 247 249 266 249 254 256 239 243 262 262 276 301 319 350 381 400 408 410 422 398 383 363 369 371 360 317 292 266 262 245 258 282 262 274 278 249 237 207 164 170 197 207 239 251 245 225 
30 28 36 30 40 40 54 52 44 44 38 44 38 48 32 40 42 38 50 40 32 38 24 40 46 58 205 396 400 383 363 309 266 247 245 251 264 260 251 239 229 233 239 264 266 268 272 266 290 327 344 375 425 420 406 398 387 379 387 375 325 288 266 253 256 268 284 280 262 233 241 203 195 176 195 217 227 258 239 227 
22 32 36 36 56 36 58 54 54 48 48 36 54 56 44 52 36 56 48 52 48 40 22 58 56 90 253 418 435 414 362 323 290 282 268 256 260 253 243 243 223 249 251 262 258 266 260 249 245 256 272 294 334 381 396 383 383 387 402 400 365 315 303 256 231 260 278 282 268 235 223 221 217 223 219 213 233 247 227 223 
32 26 26 38 30 30 64 62 48 46 48 46 56 48 52 46 46 66 58 56 48 50 44 46 80 94 249 404 431 433 404 356 307 276 270 262 268 276 264 245 249 270 280 272 264 260 247 247 233 233 247 264 280 288 309 338 352 375 383 398 363 266 247 233 253 249 278 253 241 217 239 225 239 241 254 258 266 245 239 207 
36 50 40 30 42 54 58 80 80 46 52 64 58 62 68 66 78 66 72 86 90 68 66 64 94 134 298 365 445 466 453 387 344 300 290 276 256 270 264 272 280 280 276 274 253 249 239 235 229 227 223 231 223 227 233 260 298 315 303 329 258 217 239 239 290 272 278 274 274 262 227 219 245 243 231 229 223 170 154 180 
30 34 44 50 58 56 66 70 56 58 54 50 68 66 68 86 62 60 86 92 90 80 92 102 98 243 360 381 406 458 425 379 334 301 260 258 278 278 268 278 272 296 288 264 237 229 227 247 237 233 239 233 227 209 223 235 223 233 237 221 197 195 219 264 298 264 284 286 266 237 221 199 186 190 158 122 106 94 102 110 
36 54 28 64 36 52 58 64 62 48 44 60 66 62 66 68 80 90 108 203 217 245 307 213 142 342 456 464 441 425 373 356 323 292 260 235 272 266 260 288 301 323 294 288 249 227 227 256 254 241 237 237 235 219 217 219 213 227 223 193 203 203 247 266 268 282 253 282 245 195 160 162 126 126 100 86 96 88 78 96 
52 44 36 56 62 60 58 76 56 70 60 70 70 66 72 80 78 144 313 416 445 480 478 441 412 502 575 565 560 518 396 363 313 301 288 292 321 311 309 332 336 329 323 307 298 276 231 268 258 253 245 241 245 213 213 207 199 213 211 213 227 243 256 237 262 247 235 203 156 136 156 118 134 106 96 98 78 82 80 98 
40 42 46 58 62 58 56 72 44 52 46 48 52 60 62 72 122 274 456 480 501 512 516 520 541 521 581 586 558 544 398 394 327 319 329 323 331 315 319 346 331 327 311 307 319 334 303 282 286 274 266 258 270 245 237 221 219 213 258 292 272 260 276 278 303 274 258 231 193 148 166 160 154 134 106 112 104 104 88 84 
54 36 40 44 54 56 66 54 52 52 44 62 48 64 72 68 152 360 458 502 508 521 510 483 504 499 533 571 556 556 425 396 365 346 338 338 331 323 332 323 329 309 301 317 321 334 319 309 303 309 298 286 296 266 251 249 243 239 280 292 296 303 317 329 325 315 307 290 231 207 227 239 233 231 199 162 144 112 116 110 
38 44 44 40 58 48 60 64 52 42 52 54 60 66 50 72 128 354 445 510 520 529 497 466 480 451 497 563 560 521 377 391 394 404 375 338 342 311 319 315 305 307 305 325 336 323 317 346 356 367 383 363 340 307 301 296 292 282 288 332 342 358 346 350 358 342 321 292 266 247 247 262 282 294 303 311 268 213 152 132 
40 46 38 54 42 60 64 56 54 60 56 60 54 56 50 64 120 331 439 502 512 535 510 470 458 420 418 466 497 408 342 408 437 418 375 344 327 329 307 307 296 309 315 340 360 398 431 439 456 447 437 414 391 362 338 321 317 342 373 373 358 362 365 360 356 350 352 329 294 284 290 309 327 327 329 329 342 317 276 233 
44 62 56 52 60 60 64 62 46 54 48 44 56 46 54 46 92 221 354 464 485 514 481 462 391 219 144 154 211 309 377 410 424 387 371 342 325 325 305 325 331 346 360 437 478 514 499 493 481 480 485 470 466 412 393 371 389 406 394 375 363 367 373 369 371 363 336 317 309 294 309 332 323 340 319 325 321 317 274 241 
46 48 36 48 42 50 56 64 60 50 38 40 44 50 56 52 66 94 188 313 416 406 362 294 142 70 72 102 182 410 418 402 391 398 365 332 340 332 332 363 350 367 369 443 487 514 499 481 489 476 474 464 455 416 398 394 400 422 408 373 332 346 340 323 338 294 292 280 264 251 284 305 286 300 292 268 280 270 249 254 
42 46 36 40 40 42 56 60 46 46 44 46 62 52 42 58 52 66 78 92 128 130 86 92 86 64 86 114 229 439 420 420 408 398 362 331 356 342 331 350 309 329 305 387 443 451 439 447 443 445 456 433 420 358 334 358 344 348 354 334 319 280 237 203 197 172 188 197 176 180 188 195 197 207 205 213 225 233 219 229 
24 32 36 54 32 50 46 46 46 36 34 48 48 40 46 52 62 52 60 72 72 64 60 76 96 94 104 136 221 408 439 427 422 398 354 338 352 350 331 332 292 292 274 268 338 348 332 329 323 311 309 346 332 282 278 290 315 331 334 280 213 152 136 146 156 156 172 178 172 158 170 174 168 166 154 164 174 190 193 231 
26 42 50 48 44 40 62 78 58 56 52 48 46 60 64 66 72 56 72 78 68 68 80 88 102 106 118 168 266 371 456 455 429 412 394 354 365 344 331 321 296 288 268 272 309 292 309 298 278 288 290 325 334 309 294 323 354 367 331 215 154 180 211 217 254 247 251 258 237 229 241 237 233 253 239 245 245 264 249 266 
38 58 34 42 48 46 60 58 50 56 44 54 50 54 46 72 60 70 70 94 104 110 124 158 162 146 154 358 429 393 439 443 424 394 373 346 371 363 367 387 377 365 352 352 346 292 298 298 288 298 292 298 340 327 336 348 352 356 329 245 274 334 356 371 375 365 354 344 292 286 290 272 303 311 294 290 288 292 294 294 
40 56 34 56 60 42 68 74 50 44 46 58 72 78 60 66 70 76 94 191 254 311 367 416 400 387 323 453 520 493 427 410 360 346 340 354 371 391 400 422 427 396 367 363 344 321 321 288 301 298 303 305 340 334 332 348 352 301 253 233 264 348 365 369 371 336 325 327 294 254 288 268 294 300 290 298 294 305 296 294 
40 56 52 46 58 58 66 70 60 60 50 64 74 64 60 68 62 84 182 350 391 441 435 462 464 483 462 485 514 525 441 396 402 385 385 383 396 400 429 453 437 414 381 363 340 327 327 327 311 296 307 305 367 354 356 354 317 286 247 253 260 329 362 356 358 332 307 288 258 258 258 274 272 274 274 282 282 280 274 280 
36 54 48 70 60 46 66 58 58 56 56 62 68 74 62 64 82 102 245 369 431 422 412 449 437 449 422 451 470 501 424 412 425 424 404 396 424 416 422 424 414 406 373 373 362 336 334 332 317 323 329 348 410 398 418 391 323 290 262 321 342 362 363 363 338 315 294 284 243 249 262 233 262 243 249 262 258 245 223 205 
42 50 50 52 60 58 56 56 58 56 56 56 64 70 74 80 74 108 260 394 449 445 424 433 425 439 433 453 478 493 408 437 445 427 427 408 410 393 412 412 389 393 394 391 385 379 369 342 338 352 363 422 429 396 389 383 334 301 340 334 340 342 342 342 331 290 280 254 243 249 251 219 203 205 182 182 166 152 144 150 
30 60 46 60 48 62 54 72 62 58 50 66 62 64 64 66 96 92 278 373 427 451 431 445 464 451 453 435 449 410 365 424 416 425 422 402 385 375 367 379 377 391 391 396 385 389 379 356 365 385 427 439 439 402 373 348 301 264 307 331 317 313 296 296 264 229 205 205 197 174 190 176 146 158 158 132 148 140 130 160 
36 38 38 50 64 60 60 68 52 66 56 56 58 68 66 70 80 86 217 352 379 402 387 433 449 406 313 260 336 332 371 404 389 400 391 406 402 406 396 398 383 379 400 394 404 404 387 373 408 418 418 406 379 346 313 301 272 245 237 233 227 178 170 158 164 156 168 162 162 170 170 172 150 140 150 128 132 142 124 126 
26 50 40 56 36 54 62 68 48 52 44 42 64 48 44 62 56 76 126 264 321 334 356 286 225 148 126 144 172 288 435 391 346 348 342 373 408 449 441 468 449 458 427 420 414 416 406 404 404 410 385 317 264 274 239 197 136 122 98 84 90 100 116 120 126 140 154 162 162 156 174 154 136 144 130 118 114 114 114 130 
22 56 44 44 52 36 54 70 52 44 54 40 42 62 46 50 62 66 68 108 166 148 120 96 86 88 104 114 126 217 412 375 334 362 336 311 394 464 497 495 464 460 451 429 429 439 429 425 404 319 237 205 170 116 100 100 78 88 64 86 70 88 104 104 120 118 130 164 164 180 178 168 140 140 128 114 104 112 102 132 
38 44 40 48 50 62 46 72 44 42 50 56 52 42 42 50 56 58 46 54 64 76 60 60 70 84 76 100 86 140 346 367 356 381 340 346 381 383 420 478 480 491 487 476 453 439 439 381 229 140 136 126 120 86 76 86 58 60 72 78 74 78 82 84 102 106 144 174 166 174 178 168 148 126 112 106 108 108 98 88 
40 40 40 44 54 42 40 56 44 58 46 38 38 36 42 44 48 42 48 46 44 50 54 58 70 72 58 88 78 104 186 329 377 379 360 352 342 340 396 468 472 474 485 480 447 420 334 166 118 110 112 114 108 86 72 56 54 70 64 66 64 74 70 76 96 108 144 170 178 174 166 172 148 114 100 100 106 96 88 98 
32 34 40 50 62 38 54 52 52 56 40 64 52 52 38 42 48 42 54 50 44 42 46 62 66 68 64 78 74 78 82 132 227 315 331 350 350 344 371 371 394 429 449 424 360 231 154 120 114 114 108 114 120 86 72 64 64 72 74 70 70 68 80 102 118 132 140 170 174 178 168 148 150 120 100 90 104 92 92 108 
40 48 46 54 60 46 52 64 46 44 46 46 68 52 46 56 52 56 44 52 50 50 56 72 72 58 76 84 88 90 70 60 78 120 223 311 340 352 336 332 354 387 381 362 346 352 311 264 186 132 114 114 106 88 92 80 78 74 74 74 68 90 94 108 118 128 144 172 166 174 174 172 156 122 94 94 94 90 100 98 
34 58 50 48 50 52 46 66 50 48 48 44 62 68 64 58 64 58 64 62 52 52 46 60 80 70 70 94 78 90 76 80 108 211 303 311 344 340 315 340 350 398 389 389 362 367 363 338 319 280 233 188 170 156 148 168 162 148 170 162 162 130 120 120 152 156 154 170 168 186 201 223 223 217 186 152 130 116 102 106 
20 52 46 64 58 66 70 66 54 42 56 60 78 58 60 48 60 62 60 70 50 60 52 72 84 74 74 92 92 88 92 110 233 282 294 298 284 311 309 298 307 358 365 365 305 313 309 313 303 278 327 371 356 336 327 268 272 270 268 254 237 191 162 148 182 197 184 158 190 213 243 258 260 270 268 258 235 223 180 201 
34 40 36 56 52 60 58 66 54 60 54 52 56 60 54 56 60 60 62 62 62 52 58 66 78 76 80 104 88 86 102 213 243 245 243 258 280 296 292 309 323 325 313 307 258 239 270 280 303 280 340 410 414 381 383 383 344 298 276 266 254 211 197 197 215 227 205 180 205 251 253 251 262 268 264 276 262 262 245 280 
36 54 40 54 54 52 56 60 52 62 64 62 60 66 60 62 56 64 74 56 68 94 100 104 90 82 88 112 92 108 132 276 268 235 209 251 262 284 270 284 264 211 207 197 203 162 219 245 245 253 286 362 429 379 350 406 371 303 266 262 241 229 219 209 241 235 231 191 209 247 254 229 215 249 245 243 233 231 211 256 
24 46 46 46 42 56 56 72 54 54 40 56 56 58 66 70 58 58 56 60 108 182 229 219 182 203 193 150 108 104 186 296 280 260 276 298 311 264 203 191 178 134 128 158 162 162 182 205 211 237 235 239 377 358 274 307 323 274 215 233 235 227 237 231 260 247 239 207 229 243 241 219 229 221 190 172 160 134 130 178 
38 52 50 48 52 46 72 64 56 54 48 44 54 70 68 66 58 60 72 90 178 253 303 375 412 447 433 402 241 150 253 272 274 286 305 352 362 300 211 116 74 64 92 150 180 170 209 207 211 211 217 186 231 301 280 239 219 209 197 223 223 219 239 243 268 258 243 217 213 217 195 184 168 164 128 122 112 112 116 120 
24 50 48 46 42 58 52 64 60 56 44 46 52 74 62 66 70 64 78 120 211 282 336 427 474 462 387 453 410 300 311 266 278 296 311 360 338 251 172 110 102 54 80 130 156 201 211 203 217 207 219 172 191 211 231 229 219 193 182 215 213 211 229 258 247 219 203 193 176 174 166 152 148 130 124 108 110 114 136 130 
38 52 44 46 50 48 56 60 48 54 52 56 64 58 76 64 70 60 88 154 217 294 313 445 485 460 437 449 385 331 329 266 264 290 268 249 229 170 128 140 112 62 114 158 172 195 219 221 217 197 197 174 178 193 199 219 223 197 197 233 197 199 205 197 191 172 156 166 160 160 160 142 130 138 142 130 148 162 174 144 
22 56 46 64 46 60 52 64 62 46 40 56 66 72 70 64 74 70 76 154 221 260 280 389 466 483 474 476 377 350 325 266 251 274 264 227 199 122 88 108 116 56 112 150 168 193 221 215 211 193 205 174 138 168 201 231 205 211 203 239 219 241 231 217 227 223 211 215 186 199 186 166 140 166 170 201 211 225 237 233 
30 62 50 48 52 58 46 78 54 60 36 46 56 50 64 64 64 46 66 92 184 227 231 354 468 474 470 478 381 362 332 266 282 264 241 201 191 102 100 124 72 98 134 172 184 190 207 197 195 213 201 130 138 166 223 237 221 207 223 239 235 237 233 233 233 223 225 225 195 243 233 219 227 233 233 264 272 286 288 282 
26 30 44 36 50 52 72 66 54 50 44 52 46 70 68 52 56 54 56 66 92 164 229 305 402 433 416 400 373 360 323 254 300 276 201 182 168 102 128 112 92 128 144 184 174 221 207 193 219 227 199 144 162 207 227 241 223 219 231 237 219 221 237 237 223 219 205 190 190 235 243 235 251 241 247 266 288 290 280 280 
26 58 42 54 36 54 64 66 48 48 52 52 66 58 54 52 46 44 58 58 68 80 104 160 251 282 191 190 188 253 298 254 274 282 221 209 193 132 144 98 126 154 174 205 186 235 191 207 203 176 191 150 182 203 223 231 217 190 188 209 191 219 209 231 190 176 176 176 156 215 247 249 245 239 256 260 280 300 260 243 
32 50 42 50 66 52 62 62 56 58 58 54 56 48 64 52 60 42 56 56 56 54 74 86 92 102 88 104 100 132 272 262 266 296 276 272 286 235 178 112 150 176 205 191 176 203 186 188 170 162 172 156 190 213 225 209 197 164 158 150 178 168 182 174 172 156 132 126 132 199 213 219 237 223 245 258 260 227 188 162 
34 68 38 52 64 54 62 74 60 52 64 54 58 64 58 66 62 50 50 58 56 54 56 68 70 70 70 94 86 112 235 309 278 350 371 362 340 317 270 207 160 191 191 176 160 193 184 184 176 209 156 134 174 195 205 199 164 128 130 130 142 138 160 152 144 110 96 102 108 154 174 168 178 176 158 160 158 138 134 126 
30 42 36 56 54 74 74 82 66 54 56 50 78 62 66 66 60 58 56 52 54 60 56 68 68 72 84 94 86 112 217 329 321 350 363 344 360 365 325 233 201 219 217 188 172 193 203 182 193 201 170 142 178 180 164 152 118 92 104 112 124 118 138 116 114 98 84 88 110 128 138 136 108 106 108 112 122 88 118 102 
22 44 52 46 62 58 62 52 52 68 56 60 50 68 58 64 60 44 66 60 46 62 66 66 76 78 92 156 182 225 303 334 301 315 298 313 336 321 274 251 217 231 195 188 166 178 186 156 164 162 182 178 178 168 142 116 116 98 106 106 96 90 94 92 110 106 82 100 130 128 142 136 122 78 76 80 70 86 78 108 
26 42 54 60 36 46 66 68 62 64 62 52 50 64 70 70 56 56 56 52 52 66 64 76 102 154 223 288 280 280 298 276 264 272 276 292 321 288 190 217 199 237 221 260 229 190 166 154 160 170 186 193 190 166 148 146 132 124 118 112 92 100 112 106 98 84 102 132 146 148 166 150 124 72 68 62 64 92 82 118 
28 54 44 50 44 64 72 88 62 48 60 72 68 64 64 56 76 52 76 64 58 80 74 96 207 235 247 251 253 258 253 251 239 268 292 317 311 268 237 260 254 286 315 323 262 193 156 172 186 197 203 221 201 191 188 188 178 148 140 114 118 126 112 118 110 98 118 158 162 148 160 148 126 88 68 60 58 92 126 160 
40 56 42 54 68 68 56 72 60 72 80 88 78 90 86 76 70 78 72 66 96 108 142 215 276 231 241 254 239 229 197 166 186 213 235 270 274 262 247 262 253 266 284 292 262 217 166 148 152 195 223 215 227 201 213 207 203 184 160 160 126 120 128 112 122 130 122 148 148 142 162 140 130 100 110 94 92 136 162 136 
30 54 46 48 54 74 66 70 74 92 130 211 272 268 233 162 126 96 80 78 94 197 237 262 274 239 249 268 235 160 98 88 118 203 237 251 266 268 254 256 251 249 225 231 221 205 172 152 158 170 193 191 203 201 215 219 213 195 193 184 160 144 142 150 124 122 130 148 116 86 152 178 219 223 229 182 154 164 174 168 
18 58 32 52 50 66 68 76 74 146 245 381 402 427 447 412 362 254 142 100 148 251 274 274 262 272 274 274 217 86 36 68 162 209 239 239 260 260 260 268 243 235 209 197 186 191 195 164 152 156 170 188 205 182 197 213 207 197 195 213 182 166 156 154 148 136 146 120 96 96 120 176 211 215 193 172 172 174 156 164 
20 48 36 60 54 62 70 86 84 195 313 396 435 470 480 445 356 340 315 237 209 286 286 319 272 268 260 241 164 68 40 84 186 193 217 233 254 266 249 251 247 239 213 201 180 195 221 201 188 160 182 172 201 176 182 201 207 203 193 221 203 195 205 195 190 184 188 152 112 124 160 176 186 184 191 188 205 188 193 191 
32 60 30 52 58 66 44 66 118 243 327 373 439 489 495 443 315 332 331 303 282 329 317 342 284 253 209 174 144 72 46 110 182 201 213 215 225 227 233 241 249 215 199 188 176 195 225 223 227 219 213 219 207 180 170 166 178 170 166 190 184 201 223 223 219 209 203 180 146 146 158 180 188 205 215 219 233 231 211 201 
20 42 36 36 34 38 48 60 90 231 346 381 400 489 483 441 346 346 356 332 396 381 307 294 256 215 191 168 118 48 48 80 170 203 193 209 221 197 197 229 229 219 201 207 197 191 201 217 247 270 274 223 199 176 146 142 148 124 128 130 154 156 176 209 211 184 184 201 195 176 180 178 197 207 201 219 235 233 209 217 
26 40 44 42 50 36 54 62 72 235 342 427 460 495 472 458 420 441 404 398 387 352 260 237 211 172 178 166 98 24 44 70 138 178 184 190 203 168 195 217 211 225 186 211 199 195 203 203 227 249 256 227 191 134 124 154 142 110 98 108 98 130 140 152 172 132 130 205 190 172 182 197 188 191 195 215 253 233 191 201 
4 36 24 32 32 44 38 46 58 162 288 362 429 499 483 476 470 466 468 422 393 317 235 221 209 193 188 176 80 24 46 82 120 176 195 188 190 193 190 199 219 211 225 231 217 207 197 178 188 209 191 178 182 134 122 150 146 122 114 116 112 120 122 116 126 120 140 158 148 182 195 184 184 178 201 207 239 199 132 138 
0 24 10 24 28 36 44 38 52 68 136 241 325 418 458 466 447 451 445 425 363 296 239 253 235 225 191 199 96 10 14 38 76 193 199 207 207 186 209 221 221 219 253 247 219 201 182 134 150 178 158 152 162 148 140 160 168 162 156 128 152 156 146 146 152 150 154 170 174 172 174 162 152 138 188 225 213 140 108 144 
22 34 16 20 14 32 26 30 40 52 32 80 142 231 325 313 243 258 303 360 348 282 256 251 243 235 203 186 94 30 12 20 30 172 209 203 215 235 221 235 251 270 280 268 239 201 162 128 148 130 142 162 190 201 225 229 231 219 186 152 148 156 156 162 180 178 180 178 188 156 176 158 150 140 184 211 148 108 126 126 


