P2
80 60
579
52 46 36 44 16 42 60 48 50 58 42 50 44 48 56 54 52 56 54 22 36 36 32 38 44 52 176 360 350 350 346 352 327 292 286 303 311 303 323 385 393 425 451 460 485 464 439 400 327 254 178 170 152 154 134 140 172 176 190 199 229 225 227 209 164 122 114 134 146 96 122 134 162 162 170 182 191 207 239 245 
34 32 22 38 32 28 40 58 54 56 54 54 38 48 44 46 38 50 40 28 44 32 22 30 34 48 260 396 385 340 311 298 288 268 280 319 334 365 336 315 332 356 410 422 451 449 460 427 412 358 296 225 188 168 146 140 124 136 144 160 239 254 249 235 215 172 138 136 156 142 166 152 156 186 209 191 207 243 256 249 
26 34 34 40 50 40 22 34 34 40 50 46 54 62 50 48 30 38 48 44 36 38 38 30 40 66 280 410 425 400 394 338 307 298 282 305 317 317 329 331 321 346 360 365 389 414 431 429 427 404 377 315 256 233 184 197 205 184 160 172 191 207 199 217 221 193 166 156 180 199 207 191 158 195 199 219 231 239 254 268 
38 22 46 38 32 32 40 50 40 52 40 32 34 54 30 32 38 50 66 70 52 62 56 56 72 92 286 389 427 416 396 325 305 270 268 274 294 288 307 292 298 301 311 321 354 373 393 381 406 416 391 350 338 317 292 296 264 243 227 205 191 182 182 195 193 191 203 199 225 231 239 178 158 162 195 209 235 247 249 268 
30 28 34 38 48 30 54 58 36 46 38 46 46 50 46 46 36 72 88 166 176 191 256 207 136 201 292 348 424 449 422 387 354 307 280 284 296 309 325 327 331 332 344 344 360 360 346 334 336 369 387 373 360 371 342 332 325 300 286 247 225 207 217 213 184 229 251 235 245 249 223 193 191 176 203 231 258 247 245 239 
30 16 24 32 24 18 58 38 30 30 44 38 56 48 50 48 50 98 229 340 381 431 455 427 385 391 441 398 414 455 460 433 406 325 307 300 300 300 315 307 315 342 346 344 352 342 340 305 284 284 315 329 369 381 379 363 338 358 334 253 241 239 247 251 223 221 254 237 245 227 231 213 223 205 231 247 253 245 201 148 
30 28 40 26 20 48 54 70 58 36 52 58 46 48 68 62 88 197 375 453 502 501 516 523 544 565 579 533 474 412 429 404 391 350 317 315 300 319 327 338 363 367 362 371 362 344 329 286 270 264 245 268 298 352 385 383 377 367 342 274 249 245 247 241 262 260 251 256 256 249 209 199 219 221 191 176 142 106 92 118 
34 18 48 38 46 50 44 56 46 48 48 38 54 58 54 68 92 284 422 466 497 512 527 531 541 544 565 575 569 502 383 358 329 303 282 292 307 329 323 344 340 350 336 342 354 303 290 272 258 254 235 239 256 264 325 371 360 385 362 260 219 203 213 253 280 254 280 239 227 201 164 160 132 116 108 78 64 44 62 80 
40 34 18 42 32 42 48 54 48 30 42 44 58 54 58 54 108 286 445 497 539 537 520 491 508 495 523 546 556 520 420 356 319 296 284 272 288 294 298 319 346 344 303 305 301 284 270 247 241 221 233 209 211 213 211 272 303 327 319 211 197 197 227 258 245 256 233 199 174 142 104 94 80 80 68 74 58 62 50 68 
50 42 30 40 42 54 48 52 46 54 54 66 62 58 74 60 78 245 402 483 518 518 520 462 464 402 427 400 456 464 383 396 400 379 360 352 325 309 311 321 350 336 317 307 323 290 266 260 256 249 235 219 209 201 186 211 215 241 239 219 249 254 241 233 225 217 186 136 132 94 96 82 94 86 90 76 60 52 60 64 
36 30 56 34 42 50 38 54 36 34 48 42 52 64 72 52 72 162 332 408 493 491 455 439 406 209 138 120 158 225 288 404 445 420 365 344 331 325 319 338 342 340 336 331 331 325 313 288 278 268 247 229 241 231 231 225 233 235 262 278 292 284 270 278 286 284 280 221 158 116 104 112 102 110 90 82 70 74 66 68 
48 18 30 22 46 50 46 38 38 36 44 54 44 42 70 42 52 74 154 251 329 350 321 282 156 72 56 70 82 86 203 398 435 389 375 356 340 323 327 305 307 296 292 329 387 389 371 338 325 329 292 298 309 311 298 301 294 296 323 340 362 362 334 348 325 329 311 245 209 178 134 136 124 126 112 104 84 68 64 82 
22 34 34 36 50 44 44 54 38 28 42 46 46 60 38 44 46 64 52 80 88 72 54 56 52 48 56 70 84 72 116 298 406 394 360 342 331 323 327 325 321 332 323 414 470 474 480 455 435 445 458 462 481 443 408 408 393 387 383 379 396 389 356 344 344 356 325 258 217 203 186 190 164 134 122 118 98 78 64 72 
32 18 32 40 34 42 54 46 42 46 48 48 48 34 46 36 50 48 50 50 48 52 40 32 38 44 32 56 62 68 90 195 377 396 352 329 332 344 350 329 300 305 300 331 451 441 443 427 439 441 435 431 429 412 389 396 410 402 385 371 358 360 356 344 356 358 342 272 231 243 227 237 229 205 166 116 112 82 60 88 
46 28 44 40 44 52 56 48 30 38 46 38 34 44 40 30 46 48 42 42 56 38 38 34 46 40 42 64 74 84 191 362 381 371 358 358 352 365 363 338 307 311 292 321 427 394 398 331 307 294 329 375 394 373 360 340 363 379 373 352 348 358 358 356 346 331 307 253 239 251 258 276 262 262 247 205 136 104 80 112 
48 26 30 36 24 42 54 48 40 42 34 30 38 42 56 36 32 46 44 40 56 30 42 28 40 34 42 66 84 108 336 441 406 406 383 389 385 420 404 379 360 362 363 391 412 422 408 365 348 292 301 331 356 321 309 303 278 332 348 360 346 346 331 334 334 305 276 270 253 247 258 286 284 272 274 266 237 178 116 112 
42 22 42 26 34 24 48 46 36 36 40 40 44 42 40 42 24 24 34 34 48 36 30 38 60 38 52 82 96 130 393 445 414 410 418 416 425 443 404 369 340 354 362 385 398 410 422 410 348 303 272 294 331 311 262 270 249 290 342 332 336 309 305 317 272 221 215 245 219 227 233 266 274 270 274 262 253 258 217 164 
20 36 38 40 26 36 36 42 34 26 20 28 42 38 46 48 56 52 52 48 54 34 36 42 66 68 68 82 108 166 400 439 439 439 437 443 447 453 404 379 346 356 363 363 381 408 447 441 422 336 253 241 311 294 251 243 237 268 329 329 344 325 247 201 150 138 136 150 146 172 223 258 262 262 268 262 253 256 225 219 
28 44 48 36 34 28 46 56 48 38 34 42 42 56 80 52 58 50 66 42 50 46 54 50 76 68 76 88 132 205 344 367 406 453 443 456 455 427 383 365 344 354 389 412 425 402 447 445 362 400 276 239 286 254 237 223 209 292 360 362 309 207 150 144 150 154 154 166 150 160 172 241 254 249 241 245 241 243 225 231 
32 42 34 34 40 30 52 42 48 36 42 40 46 42 50 50 36 48 52 46 50 54 48 64 102 86 86 140 225 375 375 307 375 425 429 449 433 414 367 354 338 358 412 439 449 424 447 443 373 414 254 241 264 258 239 231 225 284 331 317 270 211 213 209 229 260 276 264 249 247 249 241 251 254 247 237 229 233 233 241 
42 40 32 44 52 32 46 50 34 34 54 50 50 62 50 54 50 74 46 50 68 70 100 102 146 186 176 219 358 501 521 480 387 396 410 400 385 365 360 340 325 342 389 416 427 396 393 362 358 398 276 195 233 249 211 225 221 274 352 329 350 348 342 334 346 336 336 315 288 268 266 233 239 264 290 231 219 203 211 243 
34 42 42 32 38 46 50 54 46 38 34 44 58 50 46 54 42 58 68 60 100 195 237 251 356 418 439 445 480 478 497 510 458 383 387 369 387 383 385 375 348 375 389 385 398 360 307 294 332 332 278 254 225 245 215 239 249 270 344 344 356 356 348 348 350 321 319 284 276 272 227 225 251 256 260 239 225 197 184 213 
34 32 30 40 30 38 56 42 40 38 60 46 48 40 42 42 50 50 66 74 172 344 406 377 387 466 449 478 466 437 443 480 468 387 402 427 431 429 412 393 373 404 412 408 387 315 300 292 280 276 280 274 253 266 284 282 321 319 356 358 360 365 354 336 329 303 301 272 245 205 193 225 235 215 205 233 229 205 184 168 
32 30 56 28 40 38 34 34 36 44 52 44 50 60 62 60 54 70 62 116 268 371 412 429 402 422 427 431 431 400 420 447 425 371 418 433 429 439 418 369 342 383 414 406 371 303 294 298 262 284 288 288 264 298 276 274 296 278 325 331 344 350 332 321 311 290 292 278 215 193 191 201 184 158 164 172 146 134 130 156 
20 58 40 44 36 40 38 48 44 44 46 58 56 54 60 46 68 54 70 110 278 342 375 350 373 424 456 433 424 416 416 412 342 385 416 443 447 437 410 367 325 350 400 398 344 284 276 288 266 303 321 298 282 336 296 290 282 272 278 311 344 338 313 315 307 296 268 229 201 184 168 172 142 132 136 112 112 112 110 132 
42 40 32 44 36 44 46 54 44 46 46 56 48 52 56 40 56 50 50 114 270 313 342 321 323 443 470 468 464 420 385 334 266 321 394 424 408 416 393 369 348 348 379 394 389 329 303 276 290 334 334 296 294 323 290 301 300 274 296 323 344 309 292 280 258 221 207 158 148 156 132 152 128 106 120 100 108 96 96 100 
14 26 40 44 24 44 40 48 36 38 40 34 52 34 42 48 54 64 54 86 233 305 342 311 284 365 402 420 373 280 276 274 331 367 383 398 383 385 373 332 321 327 358 385 402 387 367 331 311 348 334 290 296 319 315 329 296 301 300 294 254 205 168 146 130 132 136 136 142 134 136 132 122 118 124 102 94 88 104 108 
24 34 38 48 38 22 40 52 28 36 62 34 34 48 46 36 40 60 44 62 150 266 331 360 313 303 282 199 140 120 114 264 402 391 379 373 338 274 286 303 375 404 385 394 435 404 400 336 323 329 319 305 296 307 268 262 211 174 138 124 98 88 94 98 96 110 104 144 146 152 138 144 118 114 118 102 92 94 88 106 
38 34 46 32 36 42 32 46 36 36 50 50 46 44 42 28 44 44 42 42 76 152 215 227 227 156 90 96 86 74 94 186 402 389 313 309 274 213 268 327 383 460 456 441 445 433 429 251 176 174 203 180 168 188 106 94 64 68 70 54 60 68 74 74 74 90 122 132 138 144 154 140 120 102 100 84 88 86 82 92 
40 38 34 28 30 28 38 46 34 48 40 34 32 24 44 32 34 38 40 36 38 56 70 72 72 68 50 70 70 70 90 100 296 356 338 363 346 336 329 329 373 460 462 447 441 441 447 221 92 94 88 90 88 78 74 68 52 48 50 60 68 68 62 62 70 88 106 116 140 148 132 148 124 88 86 88 80 66 74 80 
34 20 40 38 44 28 44 32 40 44 40 42 32 42 46 28 48 34 48 30 46 36 34 42 46 48 48 64 74 72 74 78 112 254 332 373 350 323 276 278 398 447 445 424 435 433 394 182 102 102 90 80 84 88 70 66 60 64 60 54 66 62 68 76 96 112 114 136 150 148 144 130 124 86 94 66 76 78 64 84 
36 26 48 36 44 28 40 52 32 40 36 32 38 42 66 42 42 38 38 30 52 40 42 48 46 46 58 74 84 80 80 72 80 110 197 298 274 253 253 251 298 379 387 375 391 362 191 122 98 84 80 100 86 94 72 82 72 70 64 62 58 78 76 86 102 110 116 128 136 150 132 140 126 110 98 100 88 80 90 88 
26 32 54 40 48 32 30 44 34 30 38 34 40 60 62 56 44 42 62 38 38 36 44 32 58 64 52 80 84 80 86 90 154 195 247 247 264 278 298 288 241 290 348 352 348 336 262 142 114 110 108 102 112 102 106 118 124 140 144 124 116 114 136 120 136 148 164 152 160 144 144 170 182 193 201 201 197 184 195 180 
26 38 62 52 34 48 50 40 38 28 50 46 50 44 62 32 44 46 56 44 28 44 34 36 70 52 44 70 92 86 122 217 249 229 251 217 205 168 191 176 152 225 300 294 307 292 307 294 211 180 162 132 197 168 148 176 225 280 276 254 235 223 199 176 188 215 231 221 205 176 184 211 221 225 258 274 278 272 278 247 
28 22 32 50 36 40 44 42 32 44 48 58 40 50 58 42 46 50 60 42 48 38 38 40 58 48 58 88 88 78 209 323 284 253 258 126 66 0 68 102 170 205 221 227 243 294 358 373 383 375 282 239 251 197 164 168 233 284 276 272 260 239 235 201 209 217 235 264 258 225 197 197 227 231 258 272 274 278 253 215 
42 36 40 38 40 28 42 40 36 56 62 52 60 46 48 52 52 56 66 42 52 46 44 54 62 48 68 80 92 112 262 334 288 221 219 209 172 168 262 239 260 251 219 239 235 256 394 393 406 404 307 168 195 195 156 172 231 243 253 249 266 245 229 221 217 207 235 241 249 231 235 217 219 219 235 241 229 191 146 124 
28 32 46 38 34 48 54 50 48 42 36 44 40 52 58 54 52 50 48 48 58 40 50 50 60 66 68 92 102 132 284 315 256 217 223 237 229 251 311 296 205 253 223 209 217 207 379 441 441 425 329 174 154 150 146 180 195 188 182 207 239 243 235 219 227 201 227 237 241 221 227 215 215 180 170 154 118 108 92 108 
32 42 44 34 36 32 46 50 42 38 30 48 44 48 66 52 40 54 70 66 70 62 84 100 88 92 90 98 120 142 272 292 294 276 307 342 317 272 282 221 154 128 184 219 172 168 262 404 424 377 237 182 142 138 168 188 182 162 178 193 199 221 227 221 229 227 227 227 221 219 213 190 152 132 104 110 86 88 80 96 
26 28 32 40 24 44 36 56 40 42 44 50 38 60 66 60 68 44 64 96 180 209 207 231 300 363 286 231 186 227 290 286 311 300 342 375 334 239 199 197 150 96 98 180 160 154 182 223 247 235 180 162 134 132 160 178 158 154 150 166 199 186 193 231 217 231 221 205 184 174 170 146 124 110 104 92 80 92 106 104 
24 32 42 36 42 40 46 44 34 42 48 36 42 48 60 62 56 62 68 124 254 301 327 420 435 441 445 433 363 321 315 290 305 294 311 336 272 203 176 142 106 82 76 114 146 180 199 201 205 191 162 158 122 142 176 178 172 148 144 168 178 162 215 239 225 219 207 199 205 188 156 134 130 124 144 146 152 170 186 205 
30 52 54 42 40 46 40 38 50 36 40 46 58 52 66 48 50 68 80 170 276 321 422 456 462 425 391 431 389 313 334 292 315 319 323 294 237 184 116 100 64 44 138 128 104 178 221 201 193 178 178 138 98 132 160 191 184 172 156 180 168 190 219 221 219 211 215 211 197 213 205 195 191 205 213 229 235 243 256 258 
26 40 40 40 50 52 38 54 48 50 42 44 34 54 58 46 40 56 84 166 284 354 429 470 470 402 424 458 391 331 331 300 315 342 313 300 262 233 150 72 64 72 92 146 112 124 197 174 191 162 164 130 102 102 154 178 160 148 148 166 166 190 213 213 207 215 217 205 229 254 241 233 235 231 253 262 272 266 282 274 
24 22 44 30 48 40 58 46 44 44 38 48 32 52 62 42 46 44 84 178 270 309 342 433 453 476 474 468 393 348 331 301 332 329 294 288 276 249 213 122 90 122 66 140 152 118 178 158 172 164 164 122 92 142 160 199 172 172 164 152 150 178 203 191 199 219 207 195 201 241 225 227 243 249 251 258 274 270 268 247 
36 42 46 46 26 46 44 52 36 42 50 44 38 48 44 32 42 46 76 144 225 270 288 363 447 464 439 406 348 323 342 323 298 301 282 290 270 253 225 126 98 148 152 152 164 168 184 170 180 162 166 146 132 174 162 197 182 168 160 146 156 174 195 215 199 209 223 207 191 217 223 237 241 235 260 247 241 256 199 154 
32 26 52 42 52 50 58 52 48 56 58 48 48 46 58 36 58 40 64 76 136 174 191 268 352 377 294 174 142 152 301 309 270 282 249 272 264 280 260 150 164 148 182 170 168 191 223 170 174 164 146 150 158 182 190 186 182 174 154 136 176 186 207 209 213 219 215 174 152 182 178 182 201 176 190 168 170 138 134 116 
32 46 42 40 54 52 56 52 44 36 50 38 46 46 50 48 40 40 42 48 66 72 88 114 130 140 88 100 94 66 211 288 284 282 260 305 300 311 270 237 223 225 209 199 178 239 243 215 215 182 156 136 146 154 178 186 180 158 156 170 158 186 215 211 215 205 142 118 98 110 122 116 106 84 102 86 88 94 84 98 
36 36 38 40 46 52 54 60 58 50 48 44 66 48 54 62 64 46 50 40 46 48 50 44 76 70 70 84 90 94 170 276 284 278 278 319 338 356 350 331 303 286 274 221 235 251 253 237 225 180 138 96 104 154 150 160 164 154 158 158 166 188 184 166 160 130 90 66 96 106 96 104 76 64 74 66 72 46 58 68 
26 38 44 42 62 48 54 54 46 60 54 54 32 60 48 56 46 36 46 56 42 56 60 40 74 64 70 92 88 86 144 286 301 294 309 336 363 354 363 350 340 323 305 270 247 247 249 253 254 243 191 148 104 142 140 128 144 140 146 154 158 152 134 110 120 80 66 72 94 108 108 108 92 46 66 52 42 56 50 64 
32 40 60 66 62 70 94 80 70 58 64 58 46 64 66 52 40 44 52 40 42 58 66 76 118 154 152 96 84 120 213 254 296 284 268 280 307 309 332 323 315 329 296 262 243 235 264 264 258 274 268 253 174 142 130 120 140 128 124 132 134 122 128 98 84 74 64 90 120 126 128 128 100 48 48 36 36 36 32 44 
44 54 60 90 132 227 262 256 176 108 94 90 50 60 62 46 56 40 64 52 68 74 156 205 211 188 138 82 84 156 235 241 225 207 203 207 233 227 264 266 241 239 251 237 215 219 272 272 276 280 286 282 253 182 174 168 160 138 138 122 118 128 112 112 88 92 82 96 134 120 130 130 106 48 40 34 18 22 28 58 
46 52 82 174 241 404 449 439 408 385 334 262 150 62 76 62 64 66 72 62 92 168 237 213 186 148 98 80 116 193 207 205 211 190 156 170 174 195 225 213 217 258 249 239 207 205 249 278 284 301 298 300 260 176 166 168 176 154 134 142 140 122 118 114 110 108 100 90 106 108 120 104 94 50 40 26 14 12 22 36 
52 62 140 253 313 468 470 476 468 485 474 441 400 211 108 50 50 76 60 90 164 223 217 182 148 94 44 88 178 180 219 219 205 160 150 164 174 190 225 229 278 282 247 229 223 201 207 258 264 270 258 272 191 166 140 166 154 148 142 140 134 128 124 126 108 114 102 110 98 92 96 104 106 80 104 82 68 34 64 68 
28 66 176 249 348 462 481 489 501 502 460 443 418 394 243 70 72 72 110 180 249 215 186 140 112 18 16 96 156 150 219 223 201 180 170 184 178 213 258 294 298 290 251 223 195 154 154 182 191 215 213 201 168 156 134 144 144 140 126 138 134 118 126 128 110 98 110 104 114 112 92 102 134 162 207 221 213 184 201 126 
60 80 190 253 358 425 474 502 495 483 470 385 346 346 348 221 154 160 201 249 215 170 180 136 88 34 28 84 48 162 219 217 197 186 182 199 213 274 327 325 311 288 251 201 154 128 122 132 150 156 150 148 160 128 120 146 130 134 126 132 130 116 136 142 114 110 110 126 144 156 158 152 172 186 219 235 264 245 280 217 
48 76 152 258 336 402 439 491 508 504 445 352 346 377 360 387 367 294 245 227 205 203 217 176 108 38 22 26 38 174 235 215 203 182 201 239 305 348 352 323 311 292 223 142 114 102 102 90 110 120 102 112 118 122 104 98 102 92 90 96 112 108 124 122 110 106 112 126 146 170 152 178 197 195 229 251 276 276 251 284 
40 54 140 237 363 422 427 447 489 504 476 431 375 379 371 387 375 270 243 211 209 219 243 199 158 50 22 44 84 142 213 205 205 213 268 346 365 387 367 329 296 266 188 136 106 86 76 72 78 92 112 96 106 110 108 112 122 100 90 80 88 88 104 118 128 118 74 90 172 182 176 193 201 229 235 237 256 264 260 258 
54 46 96 229 342 408 458 474 497 489 470 464 480 455 425 389 311 268 247 197 186 184 209 193 166 102 64 78 116 120 174 211 254 298 354 385 391 377 356 309 268 243 146 122 90 62 66 56 82 78 94 108 98 112 110 130 132 116 98 106 86 98 94 104 106 106 24 76 180 201 195 213 207 227 225 231 243 235 237 239 
30 24 64 112 211 301 363 435 468 478 480 481 476 456 433 331 276 253 256 188 172 180 199 188 178 110 80 104 134 146 195 300 346 362 385 381 383 379 344 298 251 213 136 114 94 60 66 68 76 94 82 106 110 112 118 128 120 126 104 112 98 98 100 102 102 90 64 94 148 168 176 191 211 211 225 209 229 215 211 217 
20 20 22 40 52 106 132 207 327 383 389 408 408 416 383 319 278 278 245 178 193 188 195 190 158 96 78 138 158 182 298 360 358 381 377 369 381 350 329 288 227 174 144 100 90 58 82 64 86 110 108 104 108 146 134 134 124 112 110 90 108 92 78 96 82 84 88 84 78 70 64 96 116 116 136 132 162 166 146 144 
16 30 16 8 10 34 40 66 104 138 120 136 182 294 342 342 313 301 256 215 186 193 193 184 174 98 110 166 180 253 321 336 336 352 354 367 362 340 294 268 231 191 144 118 98 72 76 90 146 188 182 152 128 172 160 162 148 136 118 90 94 94 72 82 84 78 70 60 62 64 28 54 48 64 80 70 76 98 86 110 


