P2
80 60
625
105 105 93 101 99 101 105 103 105 111 117 115 117 123 115 109 135 173 201 267 295 403 352 281 308 476 428 445 478 445 414 428 391 381 387 403 408 428 461 474 453 430 426 434 426 397 377 336 344 320 310 289 281 247 223 287 285 296 291 295 304 324 302 283 251 177 159 163 169 139 125 129 101 105 119 95 95 99 103 115 
83 91 81 107 77 111 109 101 101 115 111 123 109 113 111 127 171 312 403 437 519 538 542 534 577 607 558 474 492 472 461 439 412 401 403 416 424 428 467 459 436 422 414 412 395 395 367 328 336 304 300 279 263 227 221 269 253 273 295 287 302 300 298 291 298 255 205 209 191 149 117 105 99 89 83 99 77 89 93 93 
91 109 99 103 105 105 115 119 127 115 115 117 111 113 121 135 247 399 486 560 556 565 569 575 583 586 625 585 523 476 480 472 428 395 375 393 426 443 465 451 432 406 420 410 406 379 359 338 324 296 293 281 269 251 233 281 277 267 253 275 302 298 283 277 281 273 269 304 279 235 189 175 139 139 145 133 149 147 155 131 
97 107 89 109 95 105 107 117 97 105 109 121 119 101 117 149 330 422 515 534 550 588 592 569 556 575 579 598 590 480 459 457 424 406 416 405 436 451 482 463 424 401 414 406 408 397 375 328 324 293 295 277 271 251 261 291 265 255 253 253 267 310 287 312 296 275 275 283 291 263 251 261 245 249 267 296 322 342 308 277 
117 103 97 97 103 101 107 101 103 99 115 107 119 105 121 159 316 422 532 585 592 577 577 579 536 519 468 430 410 416 414 393 381 373 371 381 403 434 480 472 434 401 401 408 410 397 356 324 312 291 285 298 281 253 251 296 287 249 253 253 271 271 338 365 312 300 312 277 287 283 261 265 259 263 287 316 354 361 379 346 
97 93 83 101 85 99 101 111 115 115 129 111 127 121 133 139 275 354 470 554 560 583 565 565 507 389 223 167 179 223 316 363 361 379 399 401 403 470 505 472 434 387 369 410 373 348 365 358 342 310 308 287 265 269 261 314 281 249 259 283 275 296 348 320 336 359 320 320 328 291 287 289 263 279 316 350 371 381 381 363 
99 91 115 95 97 111 101 109 99 111 119 119 121 105 135 139 199 320 389 455 515 532 536 490 326 175 155 141 141 147 125 153 191 255 441 461 501 505 498 482 434 293 259 291 287 310 332 330 332 308 310 308 304 283 298 302 279 275 265 275 281 283 285 310 336 312 330 328 324 283 269 279 259 291 338 367 377 393 381 383 
109 71 91 117 101 131 103 131 105 127 125 121 121 129 123 139 151 227 310 367 418 377 322 201 135 139 137 145 133 127 129 151 195 385 476 496 507 496 499 476 410 209 167 173 177 185 199 213 233 235 243 255 273 287 308 310 300 285 287 293 293 295 314 344 348 342 326 314 300 253 257 259 279 306 328 342 338 320 328 285 
111 91 109 101 107 129 113 141 119 119 131 127 131 131 121 119 123 149 145 177 159 145 121 121 119 131 139 135 151 137 153 231 403 470 463 461 459 480 480 459 361 179 167 157 167 173 187 205 217 211 265 287 359 365 336 320 304 332 318 322 336 332 352 375 393 379 346 322 302 273 275 287 279 287 293 293 267 265 239 205 
107 93 117 99 101 121 107 111 101 121 123 129 141 127 133 119 121 137 131 123 125 119 107 99 133 153 157 163 185 185 291 424 486 496 434 412 395 439 468 468 332 179 163 169 185 211 227 275 310 322 361 391 391 346 338 324 318 344 328 328 350 369 367 397 403 383 350 346 320 295 296 310 289 277 259 255 271 279 271 237 
97 93 111 127 105 113 107 105 115 101 103 125 117 111 115 107 119 125 127 127 115 111 105 123 179 221 257 275 328 395 451 488 505 501 467 449 316 336 365 418 338 215 231 273 310 352 397 403 399 373 361 391 395 358 348 342 334 328 338 354 389 373 383 393 389 369 346 338 318 318 308 316 322 298 267 255 263 277 261 265 
103 97 117 107 101 115 123 113 113 109 115 129 109 121 125 131 127 119 139 121 121 117 119 151 285 422 441 478 507 470 494 511 494 482 472 455 387 373 348 361 414 391 414 424 426 416 420 401 403 387 379 405 408 363 334 330 330 354 377 389 373 371 371 363 354 326 312 281 279 279 289 293 296 281 273 255 257 265 277 245 
97 93 125 99 109 121 117 123 119 103 119 117 113 119 115 121 127 131 119 113 117 111 115 223 401 432 436 482 503 488 480 474 468 455 488 463 445 424 410 424 432 428 432 437 420 416 399 397 406 426 418 385 393 369 348 318 326 359 393 379 350 332 308 241 217 189 199 205 221 201 185 201 197 213 215 225 227 245 251 215 
99 105 109 119 103 117 113 109 123 113 129 127 117 123 115 117 131 131 113 129 113 119 117 213 336 316 340 436 468 474 480 480 461 474 478 443 403 432 428 428 410 399 410 410 393 393 389 391 410 408 391 381 379 344 334 324 322 361 379 356 338 265 181 155 163 175 187 199 215 201 175 189 177 183 171 165 165 189 183 205 
101 97 115 119 109 109 117 107 101 109 119 119 113 111 109 105 123 113 109 121 119 109 119 153 177 209 389 437 467 472 498 503 482 482 476 443 424 416 412 420 424 410 414 405 385 363 365 352 383 361 363 365 359 348 344 336 340 381 338 293 225 175 159 165 169 187 195 207 219 209 189 205 187 177 175 167 171 181 201 229 
109 103 97 117 103 115 95 109 109 119 117 121 117 123 117 119 107 115 115 131 127 133 163 205 287 397 451 443 439 383 461 505 478 474 447 412 403 414 408 430 434 422 412 377 383 373 359 344 367 367 352 356 379 383 397 346 344 328 277 235 223 213 205 213 235 229 223 231 233 213 219 241 243 253 209 193 183 203 255 267 
95 111 105 115 113 109 121 117 119 115 123 125 119 115 117 123 125 129 131 159 199 223 342 428 449 354 416 418 486 434 461 509 494 463 445 395 401 395 381 391 420 418 405 391 389 381 371 375 375 356 369 405 494 492 472 348 285 287 291 308 314 322 302 283 291 273 291 291 271 253 237 277 281 293 269 245 221 223 263 285 
109 91 107 99 115 99 113 115 111 123 115 103 117 121 115 133 131 143 169 261 346 348 449 536 552 561 523 490 590 571 482 478 439 410 387 379 393 395 399 408 447 418 416 405 405 393 383 379 383 361 414 521 517 499 503 424 393 403 393 401 399 389 385 373 350 348 326 324 308 273 269 267 271 285 285 285 261 285 287 273 
103 115 109 101 101 125 119 111 111 109 127 125 127 123 129 131 125 149 223 318 399 410 486 534 554 550 569 569 581 569 530 449 410 408 424 424 414 408 412 428 437 437 414 401 383 383 375 399 399 405 490 527 515 492 459 393 359 397 387 385 397 389 367 340 342 330 322 326 296 265 261 263 263 251 259 263 275 279 285 255 
109 105 105 107 109 109 123 111 133 127 131 125 109 111 115 129 129 161 249 334 377 439 474 534 556 542 536 548 532 558 513 470 470 482 490 451 430 412 397 387 397 381 367 371 381 371 381 416 432 476 542 536 511 455 379 358 338 352 363 369 371 348 326 316 318 296 298 296 253 241 267 223 235 239 243 241 241 239 207 211 
111 115 115 123 117 119 99 123 123 105 137 127 125 129 119 111 125 159 247 346 375 437 534 519 529 525 523 538 529 538 463 501 505 507 505 476 441 406 381 358 340 352 346 356 385 399 418 424 484 527 523 468 432 403 369 375 356 332 332 340 350 330 318 304 293 295 281 263 249 231 235 217 189 175 179 177 187 181 171 175 
109 107 125 117 131 127 121 117 117 101 123 125 129 127 131 141 139 157 237 359 383 401 480 515 598 565 556 517 455 437 412 511 509 503 503 478 472 420 385 377 363 369 354 373 405 422 445 498 536 507 459 405 385 379 365 363 346 330 330 326 320 304 291 279 257 255 231 241 235 219 197 191 175 177 175 177 157 173 167 163 
103 119 115 127 97 125 119 119 121 121 117 129 117 115 117 133 135 143 191 295 352 381 401 459 521 499 393 281 300 322 410 468 478 461 480 459 439 405 385 377 367 363 381 397 432 463 511 534 523 463 410 381 354 363 365 344 312 295 265 245 241 221 189 193 199 215 211 215 225 211 205 187 179 159 181 165 169 185 173 173 
95 91 113 113 119 107 117 113 109 121 137 127 141 119 131 133 137 137 155 197 255 281 287 277 261 221 189 187 205 277 472 468 453 439 439 414 385 383 375 416 428 414 430 420 478 517 536 521 490 393 371 342 316 314 302 257 209 181 167 167 157 169 171 177 189 195 203 213 219 205 185 187 177 153 155 153 151 169 171 169 
115 109 121 117 113 115 121 119 119 117 129 129 113 125 121 123 133 133 139 135 157 167 167 139 161 161 173 167 193 229 461 455 408 383 363 358 377 367 403 430 441 432 441 449 492 509 521 482 354 295 300 273 249 223 197 171 153 155 145 157 153 163 165 179 179 205 199 215 221 211 191 193 191 165 169 157 159 173 165 167 
105 115 113 119 119 115 119 117 133 133 143 129 121 129 127 129 131 123 133 147 129 127 113 123 147 161 161 169 195 221 414 434 410 369 358 379 385 381 387 432 428 441 447 451 476 499 474 375 257 235 225 221 201 183 173 159 153 151 143 147 155 149 163 171 185 189 191 209 213 203 193 199 197 175 171 157 153 161 157 163 
111 103 117 99 97 119 105 125 125 123 117 119 119 115 113 123 125 121 135 127 123 115 107 117 131 143 167 159 179 179 322 391 389 389 367 377 381 375 340 340 395 406 420 428 453 463 430 422 291 215 205 195 191 165 159 159 137 151 149 149 157 149 159 163 175 189 183 197 207 209 199 197 189 177 167 161 143 151 143 165 
107 119 111 117 103 119 119 125 131 119 119 117 109 125 125 123 115 127 115 115 121 115 99 97 121 137 147 151 167 255 358 348 285 283 265 237 261 295 257 251 336 377 387 350 393 434 436 414 387 261 227 217 217 179 175 191 195 193 189 187 203 183 179 169 167 177 163 171 187 205 201 201 171 165 163 143 147 161 149 151 
111 107 121 109 105 119 109 111 115 117 115 121 123 121 117 113 119 117 115 129 117 121 97 103 125 137 143 141 181 326 391 326 255 201 239 265 295 293 293 263 261 261 261 259 312 371 403 420 397 354 344 279 239 217 207 243 245 253 247 227 245 225 203 165 167 187 187 177 165 199 209 199 191 167 147 143 139 143 149 127 
101 109 119 125 117 99 95 115 109 117 121 125 105 93 113 117 105 123 127 131 139 149 125 121 125 131 137 143 207 356 387 338 293 265 263 249 243 247 265 277 239 201 211 243 249 322 350 371 395 377 403 395 403 361 255 257 281 291 281 271 265 251 215 201 185 195 189 179 167 191 199 209 197 181 169 141 153 137 145 153 
117 99 107 127 109 127 101 105 105 123 115 117 117 109 111 113 121 115 147 237 267 269 231 265 273 197 151 155 281 410 399 358 322 340 324 277 235 199 245 287 239 235 225 267 235 259 281 336 373 387 428 443 457 449 363 237 235 257 253 247 253 247 245 229 241 233 195 189 171 179 239 251 265 275 267 233 217 181 161 149 
115 105 99 113 111 117 105 111 127 103 119 111 107 111 111 113 129 157 253 338 356 340 383 468 492 420 279 235 326 408 389 381 348 379 373 348 296 243 223 235 225 231 221 223 217 221 249 312 338 340 439 478 468 455 418 253 243 245 263 251 249 247 247 235 229 221 211 185 167 211 273 275 287 298 318 326 300 298 263 211 
101 105 117 119 115 119 101 111 119 125 121 119 125 123 125 123 137 185 324 383 359 399 494 521 534 507 467 412 408 426 373 375 387 416 405 334 320 265 209 205 199 213 201 225 175 189 269 296 314 312 354 459 463 445 416 306 231 249 249 237 245 231 239 235 219 211 205 205 181 199 257 295 285 283 300 304 302 318 308 263 
103 115 115 115 115 125 119 117 117 133 125 133 121 123 127 123 149 211 314 399 410 490 542 521 484 517 511 428 418 414 389 377 377 373 373 318 255 239 231 205 201 211 223 213 191 207 251 259 283 283 287 385 434 437 401 332 253 253 227 229 225 229 231 213 201 199 207 219 173 185 237 261 229 229 253 261 275 287 281 265 
107 103 109 129 107 117 95 97 115 123 123 119 123 123 125 123 143 231 306 373 418 501 511 474 416 453 480 405 418 403 389 389 354 338 330 306 255 207 197 243 235 235 223 221 221 231 241 259 279 283 298 367 379 336 379 291 241 243 241 229 257 227 219 225 239 225 205 221 179 203 211 229 203 229 217 225 223 229 235 233 
97 103 123 119 113 133 107 113 105 123 133 121 121 121 117 129 143 217 285 358 381 474 503 486 447 451 453 397 408 393 405 401 363 326 326 296 257 233 219 249 247 227 263 241 253 245 253 277 287 295 298 316 293 257 300 295 279 251 243 235 251 257 249 235 233 229 213 205 207 225 219 203 189 165 149 169 161 149 165 169 
101 103 103 121 109 127 127 109 119 127 139 117 117 123 123 125 133 163 225 269 300 352 451 482 486 484 401 369 405 391 399 401 350 304 312 287 247 237 229 257 259 259 269 243 249 269 285 295 310 300 261 271 237 213 291 298 271 255 227 219 233 237 227 215 207 199 201 213 227 227 203 207 199 175 155 153 147 149 157 147 
109 111 115 121 105 117 115 129 107 125 129 125 113 119 131 139 127 141 149 185 189 203 271 332 350 267 203 203 310 385 377 367 340 308 306 289 211 193 221 265 251 239 259 257 251 259 275 295 275 261 221 231 199 171 265 308 271 259 237 225 251 249 255 229 229 227 227 237 231 213 197 201 181 173 163 143 137 137 149 159 
97 121 111 119 119 117 125 115 127 133 117 125 125 127 125 125 129 127 135 133 145 123 131 145 149 157 153 161 209 336 348 338 340 324 334 310 233 187 183 251 243 255 253 259 251 255 265 283 293 263 217 219 205 159 255 295 275 273 253 231 245 249 271 265 261 283 271 277 253 231 205 201 199 185 181 169 171 163 175 177 
113 123 115 123 111 129 115 115 127 115 129 137 125 117 135 135 125 121 145 131 129 107 119 115 129 139 149 155 189 285 356 310 348 350 348 318 295 227 181 241 237 261 277 251 253 265 267 273 285 245 217 209 233 293 314 271 261 255 239 235 259 267 275 271 275 275 293 295 285 287 269 253 261 249 253 253 257 267 257 227 
105 113 117 125 117 127 105 119 127 121 121 119 123 125 123 135 129 121 129 125 127 105 103 99 121 139 151 159 189 247 361 310 332 340 346 322 289 259 249 241 245 245 267 257 255 271 273 281 295 257 231 340 439 455 391 283 271 265 237 257 279 251 281 275 265 265 253 269 255 308 287 261 267 275 267 287 306 304 318 289 
97 113 107 89 105 101 99 117 115 115 117 121 123 115 119 123 109 123 119 121 123 115 99 107 131 141 159 253 215 195 344 330 310 295 267 251 255 289 281 287 267 261 257 243 283 302 296 296 293 281 359 395 434 428 405 296 237 235 233 249 221 239 259 241 227 227 227 225 207 281 277 275 273 273 283 300 312 316 312 300 
105 115 99 101 109 103 119 123 121 121 119 117 119 121 119 115 115 115 117 117 115 111 93 99 127 129 149 235 233 281 261 318 302 235 181 195 283 346 326 359 361 326 304 291 346 352 346 336 354 365 403 439 434 436 371 243 221 213 215 215 205 205 205 187 195 193 197 165 195 259 273 279 273 281 271 287 306 304 289 257 
101 111 111 113 111 111 109 113 115 109 111 129 123 105 113 115 117 117 115 121 99 105 99 99 129 173 245 277 342 332 293 291 277 269 291 312 363 395 393 381 369 371 375 369 371 361 354 371 383 375 395 420 441 399 251 201 183 181 185 185 201 173 177 165 161 155 143 173 185 241 235 247 253 259 261 247 225 225 219 201 
87 103 115 121 117 107 103 111 129 105 129 121 127 115 117 117 131 125 123 129 97 95 97 99 161 293 324 312 346 328 322 296 273 275 306 336 385 397 408 399 373 371 377 373 383 399 379 359 289 239 223 237 253 205 167 143 143 147 175 185 195 179 159 147 137 149 145 167 183 181 169 165 159 169 175 169 165 169 169 171 
109 99 109 123 113 123 117 125 115 127 129 123 125 121 135 139 127 129 123 117 113 103 107 139 300 379 361 342 340 324 334 310 285 269 287 342 356 393 383 395 379 322 298 312 340 316 253 207 195 169 173 173 153 153 131 147 115 131 127 127 143 155 143 149 149 157 165 191 185 167 145 145 139 121 137 137 137 125 159 157 
105 99 105 113 117 115 125 135 127 121 143 175 209 197 175 145 161 151 121 125 117 111 123 205 344 365 354 344 330 324 332 291 261 283 296 330 348 354 348 361 346 207 163 151 163 173 169 201 225 215 197 181 189 181 155 153 167 173 151 145 169 165 159 145 161 161 175 203 205 185 157 165 143 123 111 115 127 141 139 143 
113 109 111 129 129 127 113 125 135 151 201 320 416 416 391 338 328 239 133 123 123 117 165 287 338 338 348 342 367 322 293 217 193 207 221 310 350 354 334 326 291 179 189 221 225 227 231 237 269 267 263 263 253 241 217 207 205 209 211 207 195 197 187 181 193 179 187 221 213 191 177 171 141 111 111 113 115 117 133 153 
103 111 119 123 131 121 123 113 147 207 330 449 484 486 523 529 507 468 283 165 131 147 243 326 342 342 342 316 318 267 205 153 131 153 185 259 330 344 334 300 293 263 231 251 213 223 227 255 271 275 291 275 275 239 243 237 241 231 217 221 197 221 211 199 191 199 199 239 209 197 197 193 155 109 103 109 99 105 133 113 
103 101 109 123 111 125 125 123 153 249 395 482 503 523 558 561 519 513 488 371 217 251 338 346 346 332 314 291 277 213 145 105 95 137 203 269 312 324 304 300 300 265 239 245 219 209 207 221 265 281 281 283 273 245 259 259 249 241 221 215 219 201 201 219 199 213 217 229 209 189 191 185 165 119 113 103 105 107 127 123 
105 97 125 111 119 119 119 131 133 267 399 470 501 550 550 546 494 472 451 451 424 414 373 356 338 302 285 261 239 177 123 103 137 171 235 283 304 302 298 287 275 269 267 239 221 195 187 187 231 255 296 289 279 275 275 257 251 229 233 225 233 217 211 211 205 223 189 175 167 155 193 201 213 197 191 191 159 143 145 119 
101 87 113 123 119 127 117 125 149 273 381 430 486 536 554 529 408 385 418 416 443 430 356 324 330 295 263 227 243 203 151 227 277 279 277 300 300 306 300 279 269 265 283 235 215 199 183 183 217 247 261 285 277 269 281 257 257 237 235 221 219 213 211 223 201 213 191 159 157 159 193 223 263 269 298 293 283 247 225 191 
107 97 107 113 119 121 113 121 137 221 373 418 447 507 560 519 445 430 430 397 439 401 322 312 287 249 235 221 247 211 217 273 298 298 293 289 283 291 293 269 265 269 271 227 217 195 175 181 221 235 257 283 271 255 271 257 239 251 225 233 225 217 217 207 203 209 211 181 169 173 191 229 259 277 289 296 296 273 261 257 
111 117 113 113 117 119 111 121 113 167 293 397 439 499 546 488 482 472 470 463 445 377 310 273 271 245 239 217 245 259 273 283 306 300 293 291 267 269 245 247 255 261 239 211 217 197 185 203 237 223 243 271 275 247 257 251 249 245 229 231 227 223 235 213 213 213 203 209 197 205 217 229 255 263 306 322 314 298 287 277 
103 117 101 107 99 117 113 99 121 135 145 207 259 348 408 470 447 467 391 403 422 348 304 287 263 251 233 205 171 83 165 275 298 277 277 275 269 245 217 231 221 233 223 203 225 201 179 203 231 241 249 269 267 257 255 261 247 245 221 223 229 235 213 217 201 195 219 223 219 223 219 241 253 265 298 306 308 310 273 273 
111 101 93 87 95 95 111 105 93 117 127 151 143 159 181 213 213 219 205 267 383 350 314 291 277 257 251 209 133 26 24 207 283 279 287 273 253 241 199 209 225 215 219 189 227 209 191 213 243 257 265 269 263 253 241 241 231 221 213 201 215 203 193 203 193 159 221 237 229 231 225 237 241 255 259 245 257 259 241 217 
101 97 101 95 95 91 93 105 93 109 121 121 115 119 131 133 139 137 133 189 332 344 300 277 275 267 281 217 119 0 10 139 257 279 265 265 271 241 203 209 207 199 209 193 231 193 181 199 225 229 241 245 221 225 219 243 217 217 201 183 181 167 157 169 161 149 189 215 171 167 165 173 173 175 179 181 177 167 165 139 
89 65 89 83 81 91 97 99 99 97 111 93 93 109 105 119 123 123 117 151 314 350 289 271 253 261 291 239 153 30 39 87 237 267 273 265 259 251 235 211 205 203 185 197 211 191 165 169 195 191 193 193 195 187 207 209 209 215 191 187 183 163 141 139 145 127 151 153 147 119 109 93 101 115 131 117 111 119 133 145 
81 77 65 83 71 73 93 97 91 99 91 109 109 103 115 111 105 113 109 137 293 342 295 259 233 247 281 261 199 97 67 109 239 265 295 295 279 265 241 217 211 205 203 223 203 179 159 159 179 175 181 191 193 203 215 221 209 217 209 207 217 205 183 173 169 181 173 159 129 125 97 101 97 115 115 121 123 129 147 137 
83 85 77 83 77 97 81 91 101 79 97 109 131 133 123 129 105 115 115 147 308 328 295 269 225 219 239 235 219 115 77 125 225 304 304 285 271 281 257 215 209 195 183 261 193 173 123 145 153 177 191 175 191 181 199 217 201 211 215 205 203 203 185 177 167 181 185 197 175 157 145 141 149 169 165 169 203 217 189 155 


