P2
80 60
620
39 45 31 23 39 35 39 57 49 49 45 59 61 84 66 55 70 92 70 74 72 53 63 72 100 346 448 453 438 410 382 352 346 342 328 326 342 322 316 302 284 306 318 334 318 314 338 368 422 442 438 442 416 394 376 328 282 258 232 200 175 198 189 189 181 177 167 151 191 220 206 175 177 220 216 232 276 296 276 292 
55 25 21 41 45 33 59 37 29 68 43 39 51 59 57 72 72 66 61 84 86 88 72 90 135 334 438 446 450 424 410 370 360 328 326 326 320 308 296 284 290 286 290 306 282 278 296 280 296 352 396 434 448 444 410 378 362 328 314 300 238 214 206 189 183 189 179 189 248 248 228 189 157 189 216 256 276 268 278 268 
41 25 29 41 47 33 33 49 43 55 59 45 63 59 59 47 74 96 116 187 183 167 145 131 230 318 346 450 459 471 434 424 380 334 324 330 308 292 298 280 284 270 284 290 288 292 288 292 272 302 306 352 410 440 430 440 406 380 346 324 290 262 244 256 218 198 212 236 248 250 242 175 175 212 214 260 270 280 262 242 
33 25 27 45 33 57 27 43 53 51 59 59 47 59 51 80 131 230 292 332 420 376 398 344 394 416 372 428 503 489 487 450 398 348 334 314 320 302 318 312 326 314 328 326 318 312 308 302 284 280 266 296 308 370 422 402 394 390 396 370 366 310 296 268 244 256 266 250 246 248 216 206 210 196 232 260 290 290 264 226 
45 47 31 43 43 41 49 57 45 51 55 45 61 72 80 116 254 360 364 438 544 550 598 591 604 593 511 459 463 483 463 453 446 404 354 328 332 314 330 342 348 320 326 330 340 322 312 292 274 282 274 270 274 280 292 326 360 380 388 392 362 306 284 254 270 298 294 264 236 242 232 196 238 212 234 242 262 222 163 171 
68 37 27 39 35 43 61 45 61 63 68 72 63 82 96 167 352 412 436 542 600 587 600 620 614 618 587 556 491 446 398 406 394 370 356 342 330 336 344 364 350 346 330 346 328 318 312 292 282 288 260 262 246 244 232 244 300 294 296 284 252 234 230 258 288 262 294 268 260 242 206 181 181 171 124 116 133 86 72 106 
66 43 39 41 35 59 53 43 66 78 90 78 66 88 90 196 358 412 550 581 567 560 596 614 598 614 585 581 593 518 424 388 370 326 332 326 334 340 368 400 394 364 326 336 328 322 322 308 284 286 274 256 234 240 228 238 270 266 250 212 212 210 216 266 258 256 248 248 232 189 143 128 92 70 86 84 86 70 68 88 
57 45 43 43 49 68 57 70 66 70 80 66 86 84 104 210 336 440 538 536 571 573 571 563 530 493 471 489 520 481 446 440 404 406 398 390 366 356 354 370 396 376 342 352 342 324 338 330 306 302 292 290 258 240 232 252 276 260 248 232 228 226 218 214 212 206 189 145 143 116 98 84 70 68 72 82 80 82 59 86 
49 33 43 51 70 61 72 74 72 68 84 78 78 86 98 145 292 430 530 544 556 577 515 522 459 250 183 202 298 364 420 465 453 428 406 394 370 372 378 364 354 358 362 394 396 386 378 358 328 326 306 302 286 254 238 244 272 258 216 204 169 161 149 131 137 118 124 112 102 92 102 106 82 70 76 94 82 84 70 84 
49 47 47 57 61 66 74 59 70 80 76 84 80 78 86 124 212 366 503 526 522 516 473 366 220 122 114 108 135 266 459 505 489 452 412 384 378 368 376 362 376 384 424 518 530 501 471 444 444 452 432 434 316 224 181 200 208 169 161 147 128 143 149 133 124 114 116 84 98 98 104 112 94 102 92 92 92 88 80 90 
57 41 55 41 66 57 76 59 66 63 66 72 82 76 88 82 102 216 304 378 364 268 200 143 80 88 96 102 116 159 368 487 491 450 412 376 384 412 414 402 398 414 446 515 518 516 522 524 538 575 577 554 518 398 310 278 328 338 328 292 266 282 179 126 122 120 108 106 110 102 122 128 118 122 114 106 102 104 102 139 
61 41 55 43 63 74 70 66 70 76 82 84 74 78 84 82 94 94 116 126 110 106 90 84 74 76 102 100 106 128 212 438 499 446 406 386 396 402 378 354 332 342 306 360 372 416 465 475 489 524 534 518 483 459 463 475 481 438 398 336 316 302 204 161 145 135 124 120 141 118 131 137 122 131 126 118 128 118 118 145 
51 29 49 39 66 59 63 63 63 86 70 86 82 82 82 86 80 68 76 76 78 82 72 82 74 78 94 98 118 143 294 459 465 426 422 438 426 420 414 388 338 336 300 288 272 244 336 360 358 430 473 495 452 444 467 475 469 422 414 370 344 322 308 300 258 196 153 143 155 147 147 149 157 161 151 155 155 157 179 248 
53 39 47 49 61 63 70 78 78 66 70 68 61 90 70 76 78 74 76 68 84 76 74 92 76 84 88 100 124 165 372 457 485 459 469 465 467 436 438 420 400 424 398 418 382 390 388 402 350 374 422 453 438 414 434 444 410 364 360 384 344 332 330 328 296 298 234 208 212 216 222 216 218 246 210 202 218 240 264 286 
47 57 59 74 76 51 61 57 57 76 80 86 86 80 76 86 82 92 66 74 88 84 76 88 84 82 86 116 143 204 378 467 515 481 481 489 467 453 446 426 424 422 404 402 392 392 380 366 358 362 374 402 402 320 328 316 338 338 326 372 372 338 352 328 330 350 288 252 256 270 292 292 288 306 310 286 294 322 320 276 
61 55 51 59 66 66 53 59 51 66 72 76 74 74 74 72 63 68 66 84 88 94 94 92 86 98 108 133 236 370 384 457 499 485 477 446 442 430 438 444 436 446 428 406 374 362 354 352 344 350 354 368 386 352 306 288 264 302 382 360 398 360 366 372 358 346 318 292 254 272 326 326 328 324 298 306 310 306 286 260 
57 49 51 53 53 68 63 61 59 61 47 70 63 72 76 63 66 68 74 88 94 102 116 137 163 157 159 179 350 528 538 467 493 465 446 430 436 424 428 446 448 450 438 412 372 356 360 340 328 342 336 346 378 354 324 312 284 324 406 394 376 390 398 384 382 366 374 334 304 316 338 342 320 324 312 292 310 286 266 276 
53 55 61 59 74 76 74 61 63 92 78 78 74 76 96 78 86 78 80 100 147 202 278 360 406 396 380 442 516 587 581 497 479 463 444 426 436 446 420 450 434 418 406 406 382 380 376 352 348 354 342 340 342 336 310 332 310 334 402 400 366 376 396 392 378 374 366 354 340 328 340 334 310 332 322 300 306 300 256 224 
49 57 63 45 51 57 70 72 72 94 94 61 72 82 78 102 84 82 96 124 308 424 475 493 513 509 522 530 579 581 573 491 475 475 461 424 432 430 442 446 432 412 394 392 394 394 378 366 350 344 360 340 342 346 354 378 344 402 376 362 358 330 324 332 334 312 316 306 342 324 348 330 324 350 320 308 292 262 226 212 
76 55 59 61 61 70 72 72 78 78 90 86 78 88 100 82 94 88 100 204 416 489 491 515 475 503 516 534 583 571 546 489 489 477 485 438 448 453 434 420 416 410 392 412 398 378 364 350 350 344 360 376 412 455 440 408 422 422 400 398 352 266 258 254 254 262 284 302 344 348 338 324 332 336 332 292 270 206 165 181 
76 78 68 88 70 76 88 70 76 88 86 88 84 96 102 100 100 88 114 268 459 485 491 497 475 489 516 524 556 565 489 475 505 475 459 446 450 436 416 418 408 404 400 386 372 352 370 352 354 370 416 461 463 455 450 469 453 455 422 428 404 422 418 440 410 414 394 358 362 350 340 316 328 306 292 246 183 163 153 161 
70 72 88 82 63 86 76 86 90 86 86 94 82 104 92 92 88 86 110 316 489 538 497 534 513 536 499 483 507 479 428 505 493 485 473 463 450 448 428 418 382 380 380 390 372 366 368 368 388 436 467 467 465 467 483 479 489 463 422 440 414 412 436 432 434 432 414 360 346 344 298 314 288 286 218 177 169 163 147 135 
68 70 70 68 74 86 78 76 96 88 86 92 96 90 92 94 100 106 110 246 465 516 495 530 534 501 487 318 276 320 418 471 473 455 452 444 471 453 436 426 404 412 394 388 388 370 392 426 432 469 479 467 479 452 465 477 461 436 422 420 424 416 428 430 444 434 428 358 330 302 306 306 258 200 161 151 149 151 137 133 
76 66 66 72 90 80 86 70 74 90 92 90 88 104 100 84 86 98 84 153 288 432 487 475 444 332 224 163 189 270 459 471 450 412 404 436 461 448 450 416 410 414 430 444 434 426 459 459 452 495 473 471 459 457 448 426 428 432 428 398 430 420 422 426 412 430 412 362 344 298 266 240 179 149 147 137 151 155 137 135 
57 59 53 72 72 68 76 78 63 74 92 86 82 82 116 86 84 96 84 104 143 206 274 232 189 137 153 145 163 208 428 446 414 400 410 434 473 513 505 509 489 503 483 497 471 465 487 501 485 461 428 475 457 446 448 422 412 444 420 404 412 414 416 422 420 390 382 348 308 256 208 167 141 145 141 133 141 151 145 122 
74 57 78 76 76 86 82 72 90 94 100 84 78 86 98 88 88 90 80 92 104 108 100 114 120 122 145 147 135 169 374 432 448 450 446 426 434 475 528 524 526 538 516 520 507 513 513 505 450 390 424 426 428 428 422 426 404 418 426 424 398 406 414 418 358 340 332 288 226 187 181 159 155 137 151 135 135 151 143 124 
80 66 68 78 76 66 76 66 63 80 100 84 78 82 100 80 84 86 92 88 96 100 98 106 104 106 120 120 131 137 246 400 465 473 452 436 432 465 524 526 528 550 530 530 511 499 499 368 278 262 260 300 330 304 300 320 306 308 306 294 260 260 246 232 224 206 183 183 196 191 198 163 155 157 133 139 135 133 124 100 
61 63 68 66 57 80 72 80 94 98 96 86 80 94 96 90 90 84 80 84 94 104 94 94 96 104 114 116 120 137 159 208 348 428 477 457 450 481 511 505 487 503 513 530 540 481 390 394 382 350 276 256 268 248 284 286 322 288 224 163 145 143 143 153 151 179 169 191 187 198 177 175 147 149 143 128 122 137 108 108 
66 53 80 74 76 76 70 66 86 82 86 82 80 86 90 78 88 92 74 88 82 96 90 108 90 100 102 116 118 122 131 137 165 200 334 440 444 442 408 404 398 418 450 469 493 430 434 412 412 418 412 404 368 376 428 463 440 428 386 316 163 131 126 135 133 161 173 183 189 216 191 175 155 149 122 122 120 112 102 116 
68 55 70 80 68 76 68 66 88 78 74 78 92 78 80 68 68 76 76 86 84 88 80 104 80 92 104 100 122 118 128 120 151 264 378 354 362 352 274 228 244 288 394 440 479 461 422 426 416 430 434 396 346 332 424 438 477 378 338 370 258 165 153 157 153 167 185 173 204 196 198 173 145 143 116 118 126 110 106 124 
61 53 82 76 84 78 82 70 78 84 86 84 76 68 92 78 72 78 70 84 90 112 90 98 88 88 92 102 120 118 116 135 264 414 352 294 332 382 402 278 236 310 328 400 442 434 422 428 404 388 318 300 254 264 302 370 450 461 382 288 274 228 204 198 208 191 193 175 204 191 189 173 151 143 116 110 124 106 114 126 
63 66 66 68 80 76 76 63 76 90 80 88 94 80 82 102 80 90 74 86 102 122 116 116 106 100 112 128 131 124 149 187 338 364 308 298 360 418 461 459 390 360 324 356 298 306 340 364 312 306 352 328 324 276 250 330 406 418 404 372 368 312 246 230 220 193 177 183 210 204 185 163 143 126 102 131 122 122 126 163 
59 61 53 72 61 86 90 78 82 80 94 70 78 98 106 94 74 86 86 100 133 206 262 262 232 294 266 137 143 155 163 298 374 354 344 364 396 412 434 446 348 344 312 344 308 334 370 366 388 316 300 318 292 262 254 310 412 406 410 392 392 362 268 256 224 200 181 185 187 193 181 171 157 143 133 128 133 135 145 200 
66 70 66 78 72 86 80 84 84 90 102 80 86 90 92 86 90 90 82 108 216 388 374 344 388 479 475 344 260 220 238 364 374 416 386 452 440 394 400 356 316 348 242 226 240 258 338 322 346 264 256 272 284 276 252 258 310 328 342 378 374 336 290 264 246 222 193 189 200 208 224 218 218 238 218 202 183 179 216 292 
61 63 51 66 74 61 76 76 82 86 92 96 76 70 98 94 92 88 96 143 296 380 376 406 489 524 550 518 461 444 404 390 418 408 416 475 434 374 340 322 344 196 153 216 220 242 296 310 328 282 252 228 252 272 254 248 250 268 274 270 296 292 264 274 278 252 252 220 240 260 248 274 278 298 306 300 274 264 272 288 
59 61 82 72 92 86 82 76 86 88 88 86 76 100 106 90 90 96 106 171 320 376 408 469 501 526 507 528 475 408 410 400 432 422 400 430 412 366 316 284 252 141 185 220 236 298 286 306 312 286 264 232 260 286 284 300 292 278 276 282 258 266 286 282 264 298 318 304 290 276 278 304 294 334 322 314 316 314 310 264 
72 63 74 82 72 78 80 88 80 96 90 94 92 106 104 88 96 86 108 177 306 346 418 491 493 495 457 481 434 388 386 410 420 420 436 418 404 316 214 246 204 153 224 214 230 346 318 324 308 310 262 220 230 300 304 290 308 286 290 290 264 246 244 306 320 304 338 358 342 290 276 290 286 306 308 316 324 320 320 304 
66 72 72 76 66 72 70 80 90 86 102 84 94 94 96 92 94 98 96 157 310 340 372 467 497 505 481 487 432 370 402 416 452 436 452 442 394 278 258 222 193 220 238 260 302 344 326 326 306 332 264 216 226 276 290 298 272 300 286 260 246 242 246 264 320 368 346 322 310 270 266 278 292 314 318 320 340 340 318 306 
63 47 53 70 70 80 74 76 84 90 78 76 76 82 94 92 88 82 90 145 252 286 334 350 440 469 520 444 394 366 430 416 436 410 450 432 376 334 252 216 240 238 244 286 286 298 312 316 322 376 246 222 181 230 260 272 244 262 256 254 246 264 284 304 268 272 266 238 228 230 272 294 286 298 310 324 332 298 232 228 
45 51 57 66 78 76 80 63 78 86 88 92 98 92 96 94 90 102 88 106 145 181 198 193 244 294 250 191 208 298 432 404 408 412 428 406 348 266 189 236 262 272 288 286 302 310 300 302 324 358 252 242 189 260 256 260 256 260 264 290 288 288 322 308 292 282 250 204 226 286 290 308 296 302 298 312 304 240 202 198 
55 57 82 74 66 70 78 76 76 86 88 82 78 94 82 88 102 100 82 104 112 102 100 116 122 155 149 122 151 246 422 388 372 398 386 360 318 272 214 238 284 292 294 306 314 296 290 302 332 328 310 264 196 226 264 258 268 256 246 308 310 322 332 330 342 332 324 312 314 308 290 284 280 300 294 290 230 189 185 185 
66 63 80 63 80 68 70 72 82 86 88 88 94 86 82 92 92 90 88 108 100 100 98 114 98 102 124 128 153 238 404 358 352 368 380 350 350 336 256 244 266 306 316 306 302 314 280 300 350 356 306 206 191 212 242 252 230 260 236 296 294 320 322 344 344 366 372 356 342 328 282 270 294 298 268 222 181 173 157 165 
61 63 51 66 72 72 72 68 78 88 84 82 80 78 86 86 86 78 82 86 96 90 86 92 96 112 118 112 143 232 374 338 344 370 366 370 354 350 286 226 254 312 272 242 276 298 264 308 362 328 210 122 139 198 214 232 220 248 258 268 284 298 296 312 326 362 350 368 364 312 282 270 272 238 183 155 141 147 145 149 
53 59 74 78 63 72 84 74 78 74 76 74 90 76 90 84 88 82 84 92 106 74 70 96 94 100 114 126 151 254 404 394 396 392 366 342 364 388 342 278 284 342 278 240 298 306 298 318 302 238 147 84 106 167 200 200 246 270 284 256 280 278 284 300 334 328 338 342 336 302 266 234 173 149 118 137 157 153 145 135 
47 43 49 61 66 74 84 76 80 92 76 80 88 88 98 84 98 76 72 94 92 86 84 96 102 108 143 187 292 352 398 400 402 374 344 348 442 452 436 416 410 392 386 380 396 336 274 234 236 222 137 122 122 157 175 183 204 216 254 244 278 284 276 298 302 314 314 300 300 276 226 149 106 104 110 112 126 133 135 128 
57 51 57 61 68 82 68 70 84 88 104 112 139 149 122 102 90 86 70 82 92 70 96 94 98 135 272 356 362 344 350 328 346 364 334 358 469 477 477 485 475 450 434 422 412 404 376 326 260 220 159 173 137 169 185 202 208 210 224 238 238 254 292 276 280 286 292 262 254 206 153 118 94 92 94 102 112 118 116 106 
45 55 49 70 59 80 70 72 86 126 131 198 318 354 320 242 206 177 108 110 108 88 96 100 112 244 338 352 350 312 314 302 282 290 286 342 430 481 473 481 489 452 428 434 412 404 386 378 348 314 254 236 238 240 183 189 175 169 175 200 187 206 232 216 216 202 183 177 179 161 139 126 94 90 76 90 110 106 86 92 
51 61 63 66 59 82 76 88 98 108 208 320 459 485 487 489 481 424 268 133 110 94 94 116 200 292 302 306 300 282 260 187 149 147 167 224 318 364 418 446 436 380 390 422 428 410 390 370 334 346 326 316 318 296 262 242 173 149 153 169 157 149 141 147 139 159 167 191 179 163 151 128 98 94 86 82 74 66 66 82 
45 59 51 74 51 80 92 72 104 143 250 380 491 524 516 528 503 522 461 362 175 114 86 193 290 296 292 276 264 236 159 106 100 120 147 232 258 282 306 306 308 290 306 328 314 332 304 270 304 312 308 332 304 300 276 268 240 206 187 151 137 141 131 124 128 108 135 179 183 161 167 145 106 80 70 72 59 59 47 55 
47 47 72 61 59 78 82 80 74 141 274 404 465 530 542 528 493 448 426 402 362 324 260 314 312 280 274 244 224 198 141 88 63 131 210 248 270 286 288 270 286 278 270 278 280 284 268 260 244 270 326 338 312 276 272 256 224 200 177 153 143 145 137 133 108 114 128 171 189 169 155 145 108 78 45 43 33 47 43 53 
43 68 59 55 72 68 72 78 82 157 264 390 426 503 515 532 481 352 384 372 416 438 364 326 290 256 248 218 210 175 120 70 68 159 230 242 240 246 244 260 258 264 270 266 230 228 222 246 220 270 302 322 294 284 228 216 218 189 165 163 143 139 149 135 124 122 143 153 171 149 153 139 100 82 51 27 14 17 39 21 
51 53 55 47 63 68 78 68 74 110 238 374 422 463 513 524 475 386 378 372 442 438 336 288 266 228 228 206 189 147 82 55 106 163 222 228 206 212 191 204 236 246 248 246 236 212 212 244 256 268 276 284 280 232 216 222 210 181 167 155 133 149 139 145 137 122 118 131 133 141 135 137 118 88 27 19 19 4 0 19 
49 45 43 47 55 68 68 66 70 100 173 290 400 450 503 499 479 471 452 434 444 404 298 270 244 214 204 198 161 112 76 53 122 159 232 236 240 193 206 193 224 232 222 228 212 216 196 232 254 262 286 298 262 216 208 189 200 179 175 171 141 143 139 151 143 141 143 131 110 108 126 153 183 196 179 145 120 59 31 29 
43 53 45 49 59 55 61 70 68 76 100 153 232 316 436 479 471 489 459 444 428 344 284 266 238 228 206 181 141 94 55 68 102 206 254 258 242 224 200 214 216 222 222 226 226 224 200 240 272 280 286 306 264 218 189 193 169 159 173 165 135 151 153 151 147 147 173 179 131 126 155 187 212 240 250 264 274 246 222 161 
53 47 43 49 47 53 68 53 66 72 92 100 145 155 200 270 280 284 278 350 376 304 290 276 228 234 236 214 137 68 68 59 57 191 248 264 256 228 236 218 234 230 218 230 224 216 210 262 272 282 268 308 286 208 167 165 128 131 128 141 135 151 157 161 133 141 155 187 167 167 177 185 212 244 254 266 290 266 268 254 
33 31 39 41 35 49 45 41 55 78 66 70 76 114 100 120 106 120 118 206 318 312 264 256 204 220 244 246 149 92 76 61 72 210 272 264 258 246 248 240 242 246 222 228 218 214 226 262 270 296 280 312 302 210 157 147 137 106 118 114 122 135 145 155 126 78 163 210 200 196 216 202 208 254 268 274 288 280 256 254 
25 35 33 31 41 55 31 41 49 72 53 51 70 70 70 66 74 72 90 196 330 324 284 254 187 214 242 240 187 102 59 59 133 191 260 258 270 254 262 250 236 254 242 252 238 230 214 244 264 296 296 320 308 242 175 167 157 145 112 126 122 139 135 153 131 59 175 206 208 206 214 212 232 256 256 256 286 282 246 206 
21 14 27 10 41 47 25 39 41 53 57 43 63 63 59 63 66 68 59 151 348 330 286 234 196 208 236 258 228 159 84 78 143 145 238 260 260 262 274 256 256 280 278 298 258 212 193 222 298 310 306 310 296 262 196 208 175 163 171 143 155 149 143 143 122 120 153 169 177 171 191 200 196 230 236 226 240 240 206 204 
35 29 19 19 27 29 37 29 21 49 39 59 53 61 61 61 53 59 72 177 358 324 294 240 191 214 254 262 246 185 108 92 135 147 210 240 254 266 302 298 322 310 306 302 248 212 232 274 328 320 298 304 294 288 236 202 202 173 173 157 141 145 135 137 122 137 163 104 92 112 112 135 122 169 187 210 210 208 177 200 
23 25 17 14 37 27 25 33 39 33 45 45 74 84 102 102 110 90 86 226 382 350 292 266 230 254 250 282 254 208 137 122 122 120 183 185 230 274 310 296 310 284 286 300 272 272 290 306 292 322 292 286 254 270 236 222 214 183 175 167 151 143 137 145 133 135 120 74 70 76 98 116 106 137 175 193 224 234 218 266 


