P2
80 60
726
161 138 169 145 145 153 163 163 179 177 181 171 179 179 177 169 187 199 179 177 169 177 167 193 189 275 521 562 558 538 485 479 459 479 483 473 463 465 473 465 453 463 489 503 515 517 544 588 594 578 564 540 461 419 411 413 393 361 345 323 305 315 323 319 287 295 289 281 291 347 321 305 309 313 325 379 371 383 387 377 
155 140 130 157 149 155 169 165 163 175 163 153 171 173 165 169 181 183 185 185 185 195 193 201 183 283 493 558 574 570 544 509 503 479 469 455 433 423 433 427 417 409 409 421 435 431 443 465 509 564 570 562 532 519 499 479 453 419 385 365 361 335 341 305 287 295 299 299 345 371 337 307 291 291 341 365 367 363 361 361 
145 138 147 161 153 151 140 159 159 169 177 155 181 177 169 163 179 191 222 264 275 305 311 240 212 341 445 503 572 588 550 525 499 455 445 447 409 405 427 431 437 431 435 443 457 453 437 437 435 457 519 562 548 542 544 544 495 469 465 463 423 371 369 367 335 325 337 341 367 379 349 313 301 297 339 379 395 383 349 359 
165 151 161 140 136 167 155 153 183 169 183 175 167 185 169 177 193 260 399 449 475 538 586 491 395 503 515 485 572 611 592 580 546 497 477 449 447 437 459 487 507 499 507 481 485 465 439 437 413 399 409 453 495 566 572 556 521 517 505 477 477 429 417 393 361 383 405 373 369 353 341 333 349 321 365 397 407 411 353 345 
163 142 128 145 151 149 163 159 163 169 165 157 179 191 189 193 212 385 495 609 644 660 660 660 675 716 701 607 556 564 582 588 588 542 499 465 445 441 461 467 483 457 455 439 439 439 421 411 405 389 411 409 401 425 503 527 519 525 534 523 534 477 425 395 391 427 431 397 369 373 353 315 369 337 349 343 329 279 244 246 
153 142 155 151 145 153 163 161 169 173 181 173 187 193 189 207 279 471 544 633 660 656 693 699 693 726 720 687 677 597 517 532 527 501 475 437 417 425 443 463 477 487 483 485 475 455 435 417 409 395 387 393 367 383 379 409 443 481 467 469 455 393 373 389 431 399 407 385 383 365 307 283 275 252 220 224 205 165 175 201 
159 142 159 145 147 167 163 169 181 173 187 179 177 201 191 201 299 455 615 623 673 673 664 666 668 703 703 693 716 683 572 513 497 463 459 443 419 415 421 449 497 487 433 427 433 417 433 427 401 381 377 377 357 365 345 343 371 403 377 349 359 349 359 401 379 375 365 351 327 297 230 212 201 189 199 191 181 187 177 189 
171 153 151 147 153 171 167 195 163 187 189 187 201 191 185 222 264 457 635 652 656 656 646 629 609 590 635 611 641 615 523 540 538 542 525 499 465 449 455 483 499 493 457 445 471 449 445 445 417 399 407 407 363 347 325 327 355 381 357 363 381 377 361 361 343 325 307 248 236 228 201 187 191 185 197 189 181 187 191 189 
165 151 159 159 163 157 179 179 173 183 191 189 187 203 195 207 244 397 527 633 650 648 617 599 529 377 339 277 351 421 485 576 609 586 540 507 467 459 463 463 471 457 463 467 489 487 491 483 457 425 425 429 405 383 357 361 373 385 391 401 387 387 351 319 321 327 309 252 234 220 216 218 205 195 197 207 189 183 187 187 
159 147 161 159 169 171 179 169 175 181 197 193 193 195 189 201 232 295 389 473 552 574 540 465 319 232 224 216 232 260 393 580 613 597 572 519 495 455 451 451 461 471 473 542 586 578 560 536 548 532 523 538 527 487 421 391 415 475 479 469 493 499 469 453 463 447 421 339 291 236 238 222 226 232 214 203 197 183 181 191 
171 136 165 159 161 165 173 167 177 185 179 185 195 187 193 189 189 201 236 256 264 262 248 230 197 207 214 207 205 224 279 497 607 601 562 509 479 471 475 483 479 469 465 515 560 588 605 619 609 619 639 641 641 603 568 564 584 576 568 536 536 507 525 519 499 483 445 381 341 311 275 264 248 250 244 228 214 218 197 212 
153 153 185 153 177 183 183 179 173 185 197 201 193 183 193 181 197 193 201 197 187 197 197 197 195 201 220 224 236 254 287 331 511 540 517 477 475 459 447 413 399 377 363 309 299 349 425 471 487 481 511 546 556 568 558 590 607 576 548 519 503 511 534 513 521 529 467 399 387 349 337 319 283 262 256 232 238 222 197 203 
167 140 165 153 161 175 177 179 173 197 193 191 197 191 191 181 191 205 183 181 179 187 187 191 193 203 234 224 341 475 483 475 439 413 363 323 305 311 313 323 311 295 275 277 270 272 289 329 347 395 443 491 505 515 503 511 501 515 523 507 513 521 529 531 527 499 445 391 391 385 375 365 357 317 281 264 242 238 216 212 
159 159 167 149 159 173 179 195 175 185 185 177 185 210 181 187 187 193 185 187 183 173 193 181 193 218 236 345 554 586 558 525 560 548 491 355 317 365 407 403 385 369 363 351 383 417 439 471 459 487 529 580 595 586 550 495 477 501 503 501 519 511 521 521 473 451 409 395 373 411 399 391 379 383 337 299 287 234 240 232 
167 167 171 173 169 157 191 177 169 201 189 195 201 187 191 203 193 193 177 191 183 185 185 187 191 236 307 542 615 603 574 556 568 580 556 568 562 592 578 552 527 519 521 515 521 505 509 493 491 497 562 582 582 564 564 505 459 505 489 503 503 479 477 483 449 439 395 391 377 385 409 397 407 387 373 357 335 297 254 230 
175 165 173 169 165 165 167 179 163 191 185 185 201 187 189 183 191 185 189 185 181 177 193 212 197 283 505 582 576 580 562 576 590 590 597 607 609 564 548 548 536 538 542 531 523 507 499 501 493 505 548 562 558 542 503 471 431 489 503 479 475 449 469 443 363 327 345 357 353 371 395 407 425 415 385 387 371 357 325 293 
167 165 183 161 155 179 175 179 177 193 175 183 191 191 179 181 185 193 183 197 171 171 187 224 238 409 558 552 542 574 558 572 603 599 609 605 601 554 519 542 521 531 527 538 529 497 503 481 483 483 497 534 527 479 443 425 421 477 495 481 503 401 359 309 281 277 309 287 303 349 401 411 403 411 419 377 393 367 363 367 
167 169 173 171 175 179 183 185 183 201 195 179 187 193 193 195 201 191 199 191 183 183 203 236 325 519 566 548 447 481 580 615 609 607 611 621 592 544 531 540 540 532 529 525 536 503 491 481 473 471 475 507 477 429 389 415 429 505 529 489 419 321 305 315 309 323 351 353 353 377 393 427 417 419 405 381 391 391 377 363 
167 169 187 157 167 179 183 195 181 195 199 175 189 203 187 201 203 210 203 197 207 210 242 303 489 566 564 359 321 429 515 605 633 629 642 619 582 534 527 546 544 532 531 532 521 503 479 487 471 469 467 477 459 417 409 415 453 499 499 479 441 449 473 469 463 475 483 459 431 407 439 433 435 431 409 373 381 373 395 389 
177 173 173 161 173 169 175 187 177 187 212 193 191 201 205 212 214 220 216 205 216 275 375 501 568 594 495 341 419 576 588 601 617 613 623 609 574 538 519 519 525 519 513 523 529 509 485 493 477 477 481 479 463 485 457 423 423 463 451 515 548 534 550 540 507 493 493 425 429 415 411 401 411 435 423 395 387 363 371 351 
179 177 181 171 175 171 185 185 177 201 203 201 201 201 216 218 214 230 218 238 321 479 564 584 595 617 621 594 635 675 685 599 578 556 523 548 538 546 536 534 531 548 532 513 527 513 505 507 485 489 497 501 501 542 497 467 447 493 457 529 546 546 544 536 485 477 451 421 417 385 383 337 389 383 377 403 381 355 343 315 
173 165 191 171 167 171 185 199 189 189 199 199 191 205 201 207 210 222 272 405 548 597 607 617 615 617 623 623 672 708 695 681 578 560 560 594 578 574 546 552 540 544 538 531 523 501 521 519 507 507 552 611 558 570 570 542 519 517 521 532 531 527 527 479 463 445 429 423 373 371 357 355 329 351 341 343 333 311 285 309 
177 175 177 181 181 181 181 193 187 193 189 201 205 189 201 214 232 315 457 556 586 595 621 615 594 592 627 637 648 681 699 666 588 607 623 621 613 580 568 550 538 536 529 519 519 505 527 517 505 532 621 609 574 544 554 509 483 473 481 489 509 513 493 463 457 441 415 387 347 323 345 317 295 277 268 281 256 262 264 264 
181 171 181 185 177 187 203 181 175 193 201 201 197 216 216 207 246 333 495 568 574 595 603 637 658 642 670 615 597 679 706 633 597 621 627 644 629 595 574 544 521 515 509 507 513 501 523 536 540 584 637 609 560 540 531 491 465 431 459 453 477 473 469 453 421 397 377 319 303 309 277 272 268 266 266 258 258 250 254 262 
167 173 165 181 175 175 185 187 185 191 197 193 193 201 214 195 260 449 519 576 546 562 592 621 673 662 670 590 527 586 580 515 588 594 609 623 597 605 570 542 513 505 503 501 495 499 527 560 588 588 592 564 509 499 475 489 445 433 403 419 419 405 391 375 341 305 283 275 287 279 281 281 268 260 262 252 246 258 248 254 
185 163 191 171 181 185 189 179 193 201 214 201 199 197 203 203 254 421 509 491 387 489 556 601 633 599 568 383 289 351 427 503 580 599 595 584 592 592 588 558 538 521 519 505 529 544 570 597 603 586 560 481 433 437 443 461 429 399 355 343 303 291 293 283 266 279 289 268 270 283 289 272 268 264 266 250 238 248 248 246 
181 173 179 171 175 173 185 183 175 181 193 205 199 203 199 207 224 297 343 252 228 303 367 421 413 329 315 254 246 258 335 570 607 572 558 576 601 572 597 617 609 558 538 532 527 558 595 609 613 554 501 463 409 387 387 359 311 266 246 246 256 248 246 254 260 272 268 272 283 297 293 281 279 281 254 266 252 246 234 240 
165 167 167 175 157 185 179 181 197 212 193 193 195 197 203 212 201 220 199 210 205 210 220 232 224 228 242 226 232 254 289 519 607 576 601 617 572 507 564 623 627 617 558 521 523 584 607 613 548 411 367 343 327 313 262 252 246 232 232 236 228 228 236 248 240 256 262 289 289 309 301 299 272 270 252 240 236 242 224 228 
173 163 187 179 171 179 179 173 185 185 193 187 199 191 197 195 191 214 191 203 189 195 207 220 218 212 214 218 218 232 264 399 588 605 652 623 586 574 556 576 607 625 619 648 639 595 611 556 351 293 287 275 250 234 222 234 220 228 222 228 220 220 234 240 216 248 266 281 297 335 311 293 272 266 246 224 242 224 228 240 
175 165 173 187 179 179 177 171 179 191 181 187 201 199 203 181 181 205 195 189 185 189 189 205 201 205 212 210 207 226 240 291 449 623 683 646 625 607 619 621 613 599 595 648 623 603 497 325 277 275 268 275 258 254 240 238 242 268 252 236 236 246 248 252 236 256 275 266 315 309 307 299 275 264 244 234 232 224 220 232 
175 171 197 187 189 181 185 177 177 189 193 197 193 201 199 183 193 199 187 185 189 191 187 210 203 210 205 203 220 238 242 351 572 660 642 642 619 601 619 629 611 605 603 495 449 379 291 281 279 279 283 303 317 313 285 299 375 437 437 403 393 371 337 313 317 307 291 270 311 309 305 301 289 270 246 254 246 232 236 248 
189 169 181 159 173 187 181 181 195 195 189 191 201 181 195 216 195 218 195 205 175 187 205 205 216 207 222 216 228 238 285 534 652 648 629 597 607 599 611 597 615 611 597 445 319 335 381 427 433 375 391 341 393 359 293 323 393 435 465 449 465 443 399 389 379 387 377 345 345 337 325 325 343 371 355 363 343 323 321 315 
171 171 173 169 167 171 189 183 193 191 193 191 193 214 207 205 193 201 207 199 191 197 199 203 197 210 228 207 230 246 311 601 595 564 568 572 572 597 607 615 607 601 582 501 317 333 415 467 485 439 367 353 381 409 361 351 423 437 447 447 437 413 377 409 389 361 413 423 411 403 391 405 433 437 477 469 469 475 465 487 
181 175 183 181 177 185 193 195 181 201 199 187 197 199 197 197 203 207 201 207 189 210 201 214 207 222 236 220 240 264 373 611 592 544 548 580 595 586 599 597 617 603 592 529 351 373 417 449 473 465 381 319 351 407 385 373 363 371 371 389 371 357 367 385 399 393 393 401 433 423 399 427 427 411 443 461 473 469 449 445 
169 173 171 167 179 169 181 191 191 197 187 199 201 195 210 201 201 207 207 197 199 212 244 240 248 244 258 230 248 285 481 631 629 580 544 550 546 550 534 554 625 603 580 538 459 471 449 469 483 461 429 329 317 351 381 371 361 379 361 351 341 343 385 357 379 365 419 423 443 431 401 403 411 411 429 455 457 433 423 407 
157 167 187 165 191 189 189 191 179 197 193 207 201 210 207 195 199 218 214 210 230 339 437 441 435 497 495 343 297 319 586 611 625 592 548 540 538 538 527 523 592 613 576 558 542 574 495 465 441 453 427 347 327 341 391 387 371 353 349 379 323 319 371 359 337 379 397 417 437 429 405 389 391 415 421 421 413 389 393 351 
181 155 175 181 183 177 195 195 191 201 199 197 203 205 205 199 205 207 214 230 363 531 540 531 578 648 656 633 570 570 590 590 550 558 582 536 475 457 393 391 473 594 588 550 554 580 511 489 457 463 407 369 327 331 381 399 379 347 363 361 309 323 325 341 367 405 389 405 427 411 361 337 349 345 343 343 309 275 270 258 
175 171 195 179 165 183 187 193 199 212 207 199 203 212 207 216 203 214 210 256 439 552 566 594 642 666 681 666 646 625 601 550 546 511 491 483 431 405 383 377 441 570 574 556 542 519 497 473 441 435 417 365 295 305 365 391 341 335 347 327 313 329 311 319 349 367 351 341 339 319 305 293 283 285 270 262 254 240 242 260 
169 153 181 175 171 181 191 195 191 199 191 197 191 205 214 203 205 207 220 268 441 562 582 639 641 642 627 619 627 592 584 532 519 570 513 423 417 413 369 343 395 552 548 546 513 483 431 439 431 421 417 337 232 246 327 377 315 309 333 339 367 363 359 361 329 325 311 303 303 305 293 272 272 266 262 258 262 248 240 283 
169 163 187 171 175 183 181 177 179 187 203 199 203 203 201 218 201 212 214 246 419 538 586 625 642 633 588 580 603 609 582 558 590 595 566 560 481 421 359 363 387 529 540 527 495 505 443 421 435 423 401 305 220 283 355 399 347 339 353 345 355 317 383 425 427 443 445 419 411 389 335 321 309 301 313 319 321 323 319 315 
155 159 185 169 177 165 177 187 191 197 203 191 185 203 187 205 212 205 210 250 397 473 544 564 611 619 611 570 566 582 566 568 582 595 601 582 532 509 441 445 499 538 525 507 491 483 445 429 449 439 385 285 260 327 391 389 359 355 373 357 367 419 461 469 479 487 497 487 491 491 445 413 419 437 441 439 439 447 439 423 
173 163 183 173 171 171 181 189 193 195 214 199 195 203 191 205 199 199 199 238 321 383 427 455 489 532 531 542 576 538 546 544 552 552 590 574 548 544 527 552 574 550 525 441 411 487 441 445 457 443 357 266 299 325 365 379 357 363 387 387 371 435 453 457 461 463 463 461 479 481 451 441 473 467 479 483 495 473 481 477 
165 165 177 175 175 173 189 177 189 195 177 185 191 193 187 199 205 203 205 210 224 250 270 272 285 303 379 433 429 387 417 548 556 548 540 540 548 566 595 658 605 554 525 367 323 443 427 407 419 357 291 258 256 307 313 351 353 351 355 389 361 403 405 417 419 449 417 433 447 425 415 423 445 461 461 485 479 485 477 467 
169 159 181 179 163 169 201 181 183 183 173 187 185 185 195 197 193 197 210 199 212 201 203 214 214 236 254 246 254 262 293 546 592 542 548 558 556 572 599 607 580 523 437 272 201 301 385 403 405 333 287 277 230 297 305 307 327 325 317 323 333 329 379 395 423 397 409 409 403 399 401 413 449 449 455 463 473 463 435 419 
167 140 173 177 171 169 191 185 183 181 175 195 195 189 199 203 197 197 193 199 199 197 210 210 212 216 224 214 228 218 270 509 580 538 544 564 580 578 595 605 584 509 349 222 205 289 327 403 405 303 299 285 240 311 283 260 285 264 264 234 270 272 319 357 353 387 389 363 333 329 347 373 391 405 407 389 371 353 341 305 
171 165 183 171 173 171 181 185 177 189 197 201 199 203 201 212 212 207 195 193 195 197 205 207 212 216 220 212 222 226 248 425 572 568 578 590 574 584 592 603 586 546 461 289 258 325 337 381 357 303 272 264 250 331 270 224 218 232 244 254 252 246 309 343 377 369 345 313 283 279 272 264 256 252 275 252 256 258 262 248 
167 163 179 181 161 183 185 189 189 195 191 195 207 210 197 216 238 256 238 220 214 199 218 218 216 230 228 224 228 236 248 343 529 607 607 601 584 584 586 590 578 507 323 246 238 250 256 268 293 277 277 262 297 299 250 248 262 262 281 301 315 323 349 365 371 365 337 289 272 270 256 244 240 201 207 207 216 212 203 183 
163 175 165 171 161 181 177 187 187 187 185 191 191 216 236 305 453 517 449 333 242 226 216 216 203 232 242 238 230 232 238 262 325 445 531 538 532 556 560 546 501 355 272 240 244 228 250 254 252 264 272 287 285 323 337 365 359 333 321 359 351 343 355 347 331 357 345 321 291 287 277 260 242 210 195 191 173 159 161 161 
159 161 171 175 161 181 189 167 197 195 185 189 193 242 325 445 564 595 580 566 544 441 299 236 220 236 240 236 236 242 248 289 363 409 377 391 409 447 463 449 409 367 367 355 319 272 250 264 256 279 305 337 345 349 339 373 367 349 349 323 345 331 331 337 323 327 343 323 319 325 325 321 291 228 201 193 159 151 132 118 
163 157 187 171 153 165 187 187 177 195 197 207 201 246 377 467 548 617 613 652 611 568 519 347 236 234 232 232 242 270 315 341 349 343 317 375 377 387 375 363 351 345 337 345 345 333 315 313 299 319 337 343 331 325 333 355 347 343 323 337 315 313 323 331 297 315 331 333 339 351 353 335 353 339 252 187 134 128 81 85 
155 167 175 175 163 183 171 177 169 203 193 205 201 264 385 459 513 611 644 631 580 501 517 487 307 238 262 246 297 339 349 321 277 266 305 347 367 365 351 349 337 335 315 307 327 343 363 307 297 333 359 355 341 335 329 329 323 315 307 303 297 301 313 311 297 268 311 345 353 343 361 355 355 377 373 297 159 98 56 48 
159 151 161 167 161 191 183 179 183 193 191 193 210 240 401 477 536 599 641 639 554 459 509 499 501 363 331 341 387 393 321 240 195 216 244 345 359 363 353 339 325 309 301 297 333 367 335 297 287 305 341 355 347 325 331 325 295 279 275 281 291 291 305 297 262 179 256 337 369 351 353 353 359 371 377 367 301 171 29 0 
147 171 173 163 163 171 169 175 167 197 187 181 201 222 341 453 532 592 631 617 592 558 531 544 560 479 401 395 401 381 285 181 145 96 246 343 355 351 345 339 315 295 279 295 371 367 289 277 270 268 291 327 299 291 297 305 272 240 228 262 266 272 275 281 244 126 147 228 301 333 343 347 357 359 359 359 357 299 151 36 
161 165 167 163 153 159 173 157 167 181 185 191 191 205 238 315 413 546 603 605 601 615 592 574 503 429 387 375 367 357 287 153 124 151 258 311 331 343 335 339 311 277 260 319 351 295 275 262 242 244 248 275 250 240 272 275 242 197 167 222 224 250 264 272 246 193 171 191 216 264 323 341 361 341 333 355 363 351 315 207 
142 161 167 157 147 171 175 167 179 185 183 185 201 205 214 218 264 343 483 536 560 594 578 527 439 413 371 351 333 329 281 138 177 199 277 307 321 313 333 329 315 260 268 347 325 270 266 254 230 236 250 268 236 264 289 315 270 236 183 212 207 246 260 266 242 226 218 187 212 248 250 275 315 321 315 327 353 331 341 313 
161 145 167 155 140 153 165 161 167 179 175 171 169 183 191 197 203 228 250 293 277 361 453 455 411 381 351 329 297 303 252 183 214 240 277 305 315 297 331 339 299 270 297 335 291 256 258 258 248 283 345 377 327 297 321 315 299 268 252 244 226 230 244 244 232 195 193 187 212 222 242 224 216 232 275 311 311 325 329 311 
151 140 159 136 145 171 149 151 155 175 163 171 177 169 187 177 197 187 195 203 203 234 377 447 403 389 321 258 299 275 258 216 254 260 291 303 311 303 335 329 287 279 313 297 277 277 275 313 361 399 407 395 367 357 365 387 325 295 236 232 224 218 193 189 197 191 183 153 171 214 197 185 175 161 181 210 236 283 331 327 
130 136 149 134 136 142 163 151 155 175 171 153 177 169 177 177 183 185 173 179 181 244 425 463 403 391 331 222 181 307 293 258 270 277 283 315 317 321 339 313 293 335 347 337 343 347 371 393 411 421 407 405 385 375 401 415 369 297 252 222 224 199 197 185 177 181 179 145 167 177 173 201 230 254 258 272 283 295 325 337 
130 136 138 128 128 132 140 145 142 157 157 157 163 177 183 169 177 177 159 173 177 289 449 433 399 401 397 347 272 258 299 281 301 293 303 333 339 319 343 369 337 399 397 399 415 395 379 391 397 427 413 395 405 415 377 391 365 299 252 226 214 210 205 189 175 163 193 179 175 183 185 226 264 317 351 357 331 345 337 323 
132 140 136 122 136 151 124 153 140 149 151 157 155 171 187 195 201 191 187 195 171 305 429 441 421 401 377 331 329 331 313 349 375 321 307 315 353 413 437 469 463 461 447 423 431 393 363 385 373 397 387 405 411 439 371 361 321 272 242 226 214 203 210 195 181 185 189 205 191 214 224 254 272 321 343 351 357 355 327 329 


