P2
80 60
722
99 95 105 105 111 126 136 148 130 140 122 144 156 144 144 148 156 142 134 152 134 148 134 122 162 362 527 557 545 531 474 448 408 422 410 428 422 426 430 482 521 509 442 424 426 440 452 448 452 432 416 388 324 290 272 302 286 294 282 258 252 258 248 258 258 243 229 219 237 282 284 276 248 245 262 302 322 318 358 320 
93 97 81 120 111 109 140 138 118 142 105 126 134 140 122 140 138 130 150 154 148 148 138 140 164 370 519 559 541 535 490 456 444 416 422 424 412 414 424 458 511 468 430 424 418 426 410 412 420 438 412 400 370 336 312 326 314 322 306 280 286 284 286 260 243 243 233 243 312 306 304 274 229 223 250 292 320 300 336 330 
87 109 95 124 126 111 107 138 124 124 120 124 150 152 134 138 156 185 199 254 245 241 199 172 243 368 434 541 529 537 509 509 470 430 426 432 400 416 438 478 511 474 416 378 374 376 364 376 386 400 418 394 376 338 318 368 356 332 332 326 320 318 318 318 292 270 268 282 324 324 312 262 237 233 264 318 342 340 340 324 
97 107 109 113 111 134 118 132 146 126 120 136 126 148 132 162 227 340 390 392 412 392 402 314 378 458 446 515 592 574 561 545 494 456 434 438 424 420 424 468 523 507 446 374 374 374 366 368 366 360 362 370 360 336 336 360 342 352 358 332 350 340 356 340 322 328 346 334 320 294 302 290 294 272 300 336 358 360 334 298 
89 109 89 107 105 93 130 126 124 126 128 111 140 150 158 199 358 426 454 468 513 545 574 584 617 660 580 551 545 588 576 557 494 458 430 424 396 416 412 482 545 525 476 406 408 382 386 354 350 336 342 340 318 312 322 338 334 342 344 348 368 350 356 342 320 354 374 362 324 310 304 278 318 278 282 292 294 235 209 201 
95 107 105 101 109 97 124 138 130 124 138 144 154 152 170 274 456 502 484 533 623 643 683 703 707 697 650 654 567 517 531 551 515 488 448 428 428 422 440 496 557 531 490 442 400 372 368 348 326 340 322 324 292 298 294 316 320 324 316 348 338 312 308 318 342 366 354 346 350 304 286 243 241 209 180 166 168 120 150 156 
103 122 95 113 115 124 136 144 140 138 142 142 152 156 170 292 430 480 555 650 666 650 676 676 714 722 668 681 676 557 523 498 462 440 432 426 442 454 460 482 521 525 478 428 384 360 370 352 334 332 318 304 280 274 272 292 322 330 302 306 296 280 292 318 342 324 318 314 304 250 217 187 162 132 148 138 132 115 140 144 
103 105 101 118 124 132 132 156 132 136 150 136 154 156 168 314 410 490 637 641 641 645 660 668 668 637 637 650 656 576 498 480 450 464 440 432 408 436 446 480 517 505 476 434 420 376 388 372 348 336 336 328 286 272 260 280 336 334 306 290 288 298 294 300 304 306 266 239 215 176 172 160 136 132 134 148 124 132 148 144 
99 113 118 107 124 122 148 172 146 136 150 144 150 160 164 239 398 519 606 625 625 654 646 645 608 442 420 488 525 484 511 547 521 515 496 498 486 478 505 486 509 492 502 476 444 398 420 414 380 368 360 340 312 290 260 286 326 318 302 310 312 300 280 258 264 215 189 170 185 166 183 189 150 152 142 144 134 140 160 126 
89 107 115 128 130 130 148 138 138 150 146 148 148 158 158 215 360 543 590 608 623 641 590 582 519 266 205 219 316 448 588 594 567 529 486 505 525 515 511 515 511 505 498 496 511 454 438 430 414 396 370 372 334 310 310 300 292 290 256 248 223 209 193 193 191 178 170 164 166 168 170 172 166 176 158 156 136 138 156 156 
91 111 118 126 124 122 142 134 140 138 138 150 156 154 156 158 252 414 541 563 563 565 502 398 298 203 170 199 213 360 576 582 543 535 511 511 507 511 496 494 529 513 504 496 505 484 488 478 410 402 368 324 302 284 278 276 260 215 176 178 187 172 185 178 174 174 168 176 176 166 191 205 187 176 187 166 150 160 158 166 
95 124 134 111 146 140 144 150 150 150 154 160 158 144 152 158 178 227 286 322 304 268 215 172 176 166 176 189 217 276 513 590 561 515 492 513 515 517 496 480 533 553 570 570 561 547 578 592 498 348 296 310 306 326 308 266 274 258 241 229 180 178 180 180 197 187 176 189 205 191 201 213 191 197 185 180 193 164 168 172 
85 111 124 124 138 118 138 144 132 156 152 154 158 152 158 144 154 156 144 160 152 164 166 148 150 172 172 176 211 346 565 602 557 517 509 504 511 533 513 492 511 541 598 592 563 551 559 578 565 561 484 448 450 470 452 420 394 406 420 382 318 306 272 245 237 197 195 203 203 209 223 219 219 221 207 213 189 183 185 178 
105 113 111 134 138 126 146 156 142 144 148 144 146 162 138 154 144 136 154 148 142 152 156 146 146 158 162 187 227 442 602 600 584 541 531 527 511 537 541 500 529 547 557 561 549 541 523 545 547 555 545 541 529 511 496 464 446 444 442 424 418 410 400 402 372 344 304 286 256 248 264 264 264 266 243 231 237 197 197 205 
99 130 103 140 130 111 146 144 136 158 150 154 162 144 140 160 146 146 148 162 166 168 176 152 152 164 164 207 227 488 594 594 598 604 598 574 567 568 563 511 533 515 531 519 500 476 478 470 476 505 533 539 533 488 494 509 500 470 436 424 456 430 456 436 418 430 376 338 324 304 320 316 310 302 328 316 316 326 312 296 
93 122 109 144 132 124 130 144 136 136 148 142 154 146 144 148 142 146 154 191 223 284 274 209 193 193 172 223 294 492 531 578 600 614 614 594 565 549 513 500 507 500 509 496 478 468 472 460 458 466 500 513 543 523 504 531 494 474 472 444 464 458 468 458 444 432 430 366 330 300 320 330 312 316 310 334 338 350 366 344 
113 122 115 136 120 134 146 144 138 142 122 144 150 162 132 136 138 148 176 310 420 494 502 438 420 382 284 344 460 490 444 494 612 631 625 602 580 563 509 480 482 488 486 490 472 464 470 454 436 430 462 466 507 517 474 456 450 476 486 478 472 474 458 470 472 446 444 398 372 328 342 350 338 350 334 318 350 326 386 344 
118 120 136 140 130 136 142 144 144 154 152 146 160 154 160 160 174 166 254 418 517 568 608 553 537 600 563 580 652 695 625 537 570 606 606 598 586 543 498 486 480 466 468 464 460 464 446 458 444 428 424 434 442 468 436 404 372 428 482 492 480 468 482 476 464 456 452 434 390 340 372 370 370 372 344 338 350 344 366 350 
89 140 132 130 122 136 150 168 152 160 164 138 162 156 156 164 172 185 316 458 549 598 639 625 631 627 646 672 672 687 689 608 559 568 529 521 525 507 496 478 474 490 480 470 462 462 452 464 432 428 432 416 404 382 384 388 398 422 468 490 480 472 454 446 450 452 452 438 394 334 364 348 334 354 348 358 362 350 362 356 
115 140 134 128 140 136 150 172 144 146 166 158 150 164 174 168 166 203 370 519 578 662 662 639 639 639 648 676 683 677 685 643 547 527 541 541 547 535 496 470 474 496 498 492 478 470 458 460 444 434 436 420 408 412 402 408 438 480 464 496 484 472 448 442 438 462 452 418 390 362 358 354 350 376 384 394 410 396 400 398 
103 146 140 146 136 146 148 160 140 152 156 168 156 156 172 162 176 221 418 509 610 641 645 637 631 631 650 668 679 670 666 606 559 600 598 590 572 549 515 490 464 492 494 470 466 472 470 468 458 450 450 448 440 458 454 464 470 504 505 511 511 517 511 519 502 494 468 448 424 392 430 414 422 434 432 436 426 426 422 406 
111 128 148 144 138 130 148 160 160 154 148 160 154 166 152 172 164 199 396 557 600 578 610 617 615 627 617 639 660 683 615 553 621 652 641 615 586 559 515 490 462 464 468 466 474 486 488 478 466 464 456 472 490 517 513 502 496 515 511 533 517 509 517 504 486 470 446 448 424 398 384 410 392 432 412 438 438 442 432 420 
101 142 134 144 152 150 142 164 154 148 156 166 178 154 160 168 176 195 326 468 582 570 592 572 555 561 567 600 598 572 496 488 627 633 635 621 602 565 533 498 496 488 474 474 498 507 511 502 478 488 496 502 531 533 531 515 484 500 525 513 507 523 519 490 478 462 436 426 428 362 372 384 382 386 390 434 420 398 420 404 
109 134 134 144 152 148 172 154 142 156 158 158 172 172 168 160 176 174 211 352 430 480 490 468 502 470 422 422 422 511 515 555 594 604 584 600 588 572 533 504 494 488 490 482 507 521 525 511 496 525 533 531 545 543 525 490 450 464 511 498 519 504 496 482 454 460 448 426 410 396 380 352 366 350 368 380 382 382 362 346 
107 132 122 148 138 132 150 156 138 146 154 162 158 150 185 160 156 164 176 189 207 203 239 233 270 245 237 256 302 515 623 582 549 555 541 545 543 568 547 531 525 505 515 513 523 545 547 539 533 565 537 535 523 523 507 486 416 438 458 476 484 478 458 458 446 424 390 378 370 332 336 336 302 318 304 296 276 266 256 260 
120 130 150 146 146 148 160 160 152 158 162 158 158 154 156 162 154 158 158 174 166 170 189 176 209 199 201 237 278 480 586 541 523 539 533 525 537 553 549 515 561 553 537 553 578 545 557 537 539 531 504 460 462 488 468 444 398 396 414 442 428 418 404 358 328 300 284 276 268 266 270 262 239 229 235 225 207 213 225 209 
126 136 136 156 142 130 148 162 144 144 152 158 146 164 158 156 156 140 164 158 158 162 164 164 168 174 199 217 245 400 574 576 543 561 553 543 545 543 561 529 574 580 559 545 529 488 466 468 486 490 458 434 374 416 392 378 326 308 306 298 266 243 248 239 245 250 225 250 268 260 274 266 245 231 213 217 197 209 217 207 
113 140 132 146 126 140 146 162 152 160 168 154 154 158 158 162 156 146 146 152 156 158 174 152 160 176 191 211 219 280 484 563 565 551 541 541 521 551 582 561 578 584 561 553 551 505 354 294 308 336 314 296 282 268 239 221 201 199 199 199 189 193 199 201 219 223 219 252 262 266 268 262 229 209 209 197 178 189 201 193 
111 122 140 134 142 144 148 150 150 132 158 152 162 158 148 152 146 150 148 152 158 154 162 150 170 160 172 193 207 217 280 394 502 547 545 535 519 570 561 576 580 600 567 515 547 533 502 356 270 254 250 237 215 199 199 189 166 170 180 185 174 180 180 185 191 211 219 243 252 276 268 250 221 207 191 187 187 170 185 187 
109 126 138 142 140 140 148 154 158 150 148 148 154 152 162 142 140 146 140 146 150 156 148 154 170 160 162 183 189 199 219 229 276 448 592 600 561 568 543 521 549 551 521 513 492 504 515 490 364 256 245 243 221 189 205 189 180 176 180 187 168 193 191 191 189 205 223 235 268 252 272 245 219 199 185 176 180 170 180 183 
120 136 148 144 146 138 154 154 136 148 156 158 150 146 148 144 132 140 142 152 162 158 166 158 180 158 168 185 199 213 199 243 398 586 588 610 600 570 504 555 539 500 380 270 376 424 468 490 496 454 364 322 252 248 233 215 205 185 191 180 180 189 201 197 211 217 233 245 268 254 250 252 229 201 170 170 162 156 201 187 
120 128 138 138 146 140 150 150 150 162 158 160 170 156 154 164 152 160 150 168 150 154 170 158 183 174 178 203 197 217 227 298 511 578 590 494 568 681 633 584 462 352 245 248 245 276 374 500 547 586 568 539 464 406 336 296 316 306 302 274 260 254 256 248 262 250 235 248 268 256 270 245 217 193 174 172 174 166 211 203 
101 132 126 150 132 134 164 162 158 154 166 144 152 176 174 170 150 150 154 168 166 180 211 205 205 217 209 209 205 225 233 322 525 541 557 586 602 625 588 580 521 408 410 414 372 418 420 480 568 588 590 584 537 500 436 354 396 420 432 388 390 358 294 290 284 260 233 268 254 256 266 245 227 189 185 189 180 176 207 223 
109 140 142 152 142 140 152 174 154 158 160 144 156 166 164 158 160 152 160 168 180 231 346 446 440 402 396 348 239 252 276 452 549 561 559 574 580 602 541 511 476 404 402 398 456 432 440 484 545 576 608 586 561 547 484 416 412 430 442 454 438 402 334 310 292 262 229 243 260 258 264 252 219 199 176 183 193 195 213 250 
101 140 113 136 142 122 162 160 156 156 146 158 150 154 170 162 160 158 164 154 201 358 521 476 488 545 559 541 422 314 370 567 590 543 551 551 539 549 442 450 466 390 362 416 505 466 486 515 519 598 561 521 523 533 498 394 334 370 386 406 424 378 322 296 282 266 258 252 280 276 280 296 288 290 250 243 225 225 258 372 
97 138 136 140 152 146 154 164 140 148 154 156 152 164 168 144 154 166 174 174 254 502 533 474 519 596 612 608 563 511 543 565 580 559 545 578 549 521 418 424 450 406 398 460 509 482 521 535 476 492 525 384 446 486 428 334 308 314 326 348 346 332 302 298 286 270 252 258 282 310 332 340 356 374 382 376 340 330 396 420 
107 134 126 152 144 142 156 166 156 166 154 158 162 174 176 164 162 156 172 191 338 496 492 486 561 627 633 648 623 586 525 561 586 561 576 574 482 422 414 410 478 442 458 492 500 486 492 492 424 434 454 360 366 422 392 360 340 342 356 362 334 320 314 304 296 280 260 260 320 332 340 372 392 412 416 394 380 384 422 424 
109 146 138 144 128 134 152 162 154 152 162 158 164 168 174 170 162 160 160 178 338 476 500 531 588 641 637 635 635 568 511 570 627 543 517 507 414 388 426 412 470 486 478 505 500 458 456 462 402 402 390 334 352 364 386 358 334 356 346 324 312 312 308 322 308 302 290 302 328 334 356 380 366 382 400 408 408 402 436 410 
111 126 134 138 140 146 158 172 154 154 154 154 158 183 166 166 166 166 168 178 306 456 509 567 608 625 664 645 610 555 515 584 617 511 505 476 414 406 448 460 470 505 484 476 460 440 432 426 390 378 350 302 284 332 340 324 300 338 332 324 312 306 296 310 306 320 330 352 370 352 358 386 392 406 396 398 406 400 402 398 
97 130 130 128 140 146 150 152 148 144 150 166 172 162 160 166 168 172 168 156 233 368 488 568 619 578 598 610 576 507 545 604 610 533 502 466 408 382 452 482 498 509 474 466 430 418 400 400 358 338 274 243 258 328 320 292 286 336 338 330 310 298 316 316 312 306 298 298 290 294 336 406 386 404 400 400 384 356 342 340 
105 126 138 138 124 134 154 162 150 150 166 152 156 170 152 154 164 156 158 174 183 237 300 412 505 517 521 551 444 328 523 590 596 531 505 448 384 344 420 470 507 507 482 452 418 402 394 390 320 332 260 262 282 342 330 348 330 348 336 338 318 334 364 382 384 362 330 290 241 306 382 384 390 384 382 370 340 294 264 250 
109 128 134 132 132 124 146 158 158 154 162 152 162 166 152 160 150 164 154 172 164 183 197 215 243 300 310 330 266 272 464 559 557 505 496 426 352 322 388 422 484 454 448 444 420 408 402 364 306 334 300 310 310 328 344 342 308 340 318 332 350 376 370 406 398 392 380 366 352 384 398 390 408 382 356 354 304 243 241 221 
105 124 124 134 132 134 156 148 152 152 152 152 154 148 150 164 160 142 162 154 162 166 178 162 193 195 207 213 211 237 422 525 519 496 478 434 356 296 318 384 464 396 412 450 420 438 426 364 304 304 322 332 316 346 328 332 300 324 322 340 368 382 374 386 386 390 398 432 420 398 402 390 374 360 322 286 221 223 221 199 
107 136 136 138 130 140 170 160 154 152 148 156 150 150 154 156 152 142 170 158 166 162 168 156 178 176 187 195 203 235 432 504 513 509 517 466 362 286 284 364 442 348 428 448 442 440 448 362 336 326 396 386 346 370 330 294 302 316 336 332 378 402 402 394 380 386 414 418 416 430 394 368 366 334 258 215 219 207 215 191 
97 113 120 134 134 138 148 170 152 142 138 146 152 148 166 164 148 144 154 168 152 158 166 162 170 172 174 185 213 225 408 537 513 488 561 535 488 432 402 450 466 316 410 426 396 388 416 362 348 442 494 428 386 434 358 290 278 284 330 318 342 380 390 376 368 396 398 388 402 390 376 336 306 227 199 193 185 178 207 185 
107 120 124 130 132 138 144 166 152 146 158 150 158 150 162 160 164 191 227 221 191 150 160 150 168 174 174 197 205 217 300 470 472 462 553 578 531 519 482 412 378 312 332 348 358 386 406 406 470 519 549 521 460 470 410 298 245 268 274 306 330 344 354 362 380 388 390 364 372 370 366 292 221 168 164 168 172 170 205 168 
93 124 128 138 128 138 150 142 148 160 154 152 162 158 148 146 160 211 316 278 262 211 197 158 183 195 193 217 203 223 248 324 434 416 388 346 372 436 519 460 350 274 243 294 374 422 446 482 545 576 563 539 515 458 382 266 243 245 250 260 268 300 338 358 380 372 376 350 344 334 298 233 199 150 148 154 170 148 150 126 
99 132 118 128 128 146 144 160 158 146 152 144 154 166 168 158 183 195 300 284 280 290 219 178 170 180 193 225 207 211 219 243 272 334 344 312 322 392 494 492 476 434 390 396 422 438 456 482 523 567 570 553 515 450 390 245 211 211 229 254 245 290 310 326 336 336 324 316 290 262 245 215 195 148 140 138 128 99 120 120 
95 130 120 132 122 140 166 144 160 150 140 144 162 180 174 164 170 178 231 318 312 308 306 258 231 193 203 213 217 217 215 237 225 254 282 366 350 422 511 502 490 478 458 452 462 462 412 388 382 406 432 432 456 422 358 332 286 239 227 213 199 223 219 231 235 256 276 284 274 245 258 237 191 138 130 138 107 101 111 87 
89 126 140 128 120 126 160 160 132 144 156 168 170 176 168 201 237 288 270 266 278 282 286 284 300 221 221 250 229 235 274 268 318 294 268 296 320 392 408 486 505 488 476 468 476 418 378 388 424 456 450 470 428 400 390 370 370 336 239 193 170 180 183 180 197 231 262 274 272 241 252 229 203 150 103 99 75 85 73 77 
93 126 132 128 132 126 148 138 136 154 156 178 158 217 266 322 400 466 448 418 292 252 306 312 328 314 262 252 282 338 330 322 314 268 268 332 348 380 374 382 402 420 436 426 440 444 462 436 410 420 444 440 398 378 354 326 334 316 266 233 211 195 191 187 174 195 221 229 262 215 229 237 191 134 89 62 36 44 64 103 
95 122 120 120 134 150 146 146 148 144 152 162 183 296 406 448 492 533 590 549 432 374 378 342 380 346 338 340 368 374 346 322 266 219 254 342 330 370 350 326 336 346 364 362 372 352 358 378 334 334 348 368 342 322 320 316 304 280 262 260 233 237 199 199 189 187 197 231 231 217 231 213 180 103 40 0 6 15 109 134 
85 124 122 124 132 128 140 146 144 146 140 162 223 356 438 496 563 592 592 588 547 521 496 342 382 378 374 414 380 362 334 288 215 201 258 296 330 356 350 296 294 300 314 322 308 320 326 304 302 316 334 354 318 314 326 310 316 298 282 286 245 237 215 205 199 187 183 185 191 195 193 189 156 85 40 13 38 122 189 189 
89 124 126 126 126 122 144 144 140 156 140 170 272 398 432 478 531 580 598 606 602 594 561 438 410 432 420 428 396 366 328 256 174 219 237 282 332 358 328 302 288 298 294 292 314 306 314 288 314 344 354 354 326 326 314 304 300 290 280 274 233 243 233 207 221 211 172 176 174 183 197 205 191 154 148 160 199 193 205 205 
91 126 124 111 107 130 144 154 134 146 150 174 278 400 412 468 521 598 596 604 612 596 592 513 480 472 478 476 432 382 310 203 120 162 156 264 338 356 326 298 308 294 282 276 286 294 282 292 326 360 354 338 332 318 290 278 262 270 268 262 256 239 223 223 237 243 207 185 174 211 205 217 237 223 221 217 209 237 231 166 
83 113 118 128 115 111 124 134 138 138 124 144 217 350 400 432 468 561 586 598 602 594 572 519 444 462 486 492 464 422 298 150 107 44 52 243 332 356 340 318 320 300 248 270 264 290 282 282 292 332 308 296 282 278 284 254 243 221 239 233 219 227 229 219 241 215 233 209 213 207 264 258 262 280 272 264 254 248 266 221 
89 111 107 95 107 122 115 126 122 128 126 144 168 270 372 410 460 496 543 588 584 559 519 454 422 446 494 502 488 466 364 207 115 19 83 217 326 338 328 332 318 280 266 256 284 304 272 256 260 282 274 282 262 276 262 286 254 250 207 217 213 215 207 219 239 219 195 180 205 199 225 245 264 270 274 286 282 280 324 286 
71 95 91 91 97 103 126 124 113 118 144 134 144 174 268 338 364 378 434 480 513 498 442 412 418 390 498 539 515 490 402 268 148 77 120 195 310 340 332 310 324 280 306 280 316 296 258 248 231 237 241 272 270 288 290 294 227 221 207 191 207 197 199 195 183 178 146 113 128 142 191 229 260 286 272 286 308 306 326 318 
71 95 83 87 93 89 107 109 103 109 124 134 138 136 158 197 207 205 227 266 280 330 426 416 414 384 460 507 507 462 410 328 180 140 164 203 306 314 312 316 344 292 304 294 300 278 248 245 213 256 270 282 294 290 268 258 217 223 199 191 172 187 189 189 142 103 105 91 115 115 185 229 250 258 270 266 252 264 282 264 
58 89 89 85 93 99 101 120 115 105 105 126 132 140 158 185 197 162 185 176 176 294 416 418 408 374 424 478 500 444 406 332 176 134 138 189 276 288 292 300 324 272 282 292 288 252 252 260 250 320 356 350 324 326 298 274 243 237 207 197 191 189 180 183 150 118 85 126 120 118 195 227 235 268 243 243 237 227 223 243 


