P2
80 60
565
50 64 48 48 34 38 46 40 54 52 38 44 34 36 40 48 48 38 50 44 30 28 36 40 32 40 48 30 34 34 28 30 28 30 12 24 24 30 42 30 46 34 22 32 18 16 20 20 8 18 30 70 74 96 96 94 88 60 38 60 118 108 94 191 315 347 380 357 361 375 380 357 373 365 324 334 344 347 394 390 
54 44 22 38 42 46 44 46 54 42 46 54 42 44 44 50 48 46 30 44 42 36 42 40 30 30 36 34 30 24 22 20 26 24 22 16 24 14 42 14 22 24 22 8 20 16 10 24 22 30 28 38 52 54 62 48 24 24 36 30 102 100 98 185 301 334 334 369 377 386 355 344 342 349 351 361 363 361 402 423 
38 54 48 44 52 36 48 44 52 50 38 36 46 36 50 42 46 48 40 42 20 46 28 36 28 28 34 20 18 26 20 10 14 8 14 6 30 12 32 26 24 24 24 32 16 12 14 28 14 16 26 34 38 22 24 38 32 30 12 46 90 92 112 175 242 278 330 380 378 402 336 346 303 313 346 355 349 347 386 413 
44 56 38 46 38 36 48 48 48 42 46 50 40 34 40 26 26 24 30 40 32 24 32 30 28 16 18 20 20 20 10 10 16 14 4 2 10 12 26 20 14 16 18 20 14 10 16 6 26 32 22 30 46 30 44 24 42 30 32 50 80 120 108 174 197 240 266 340 365 378 336 311 303 287 278 262 289 299 330 377 
30 52 54 46 50 38 54 44 48 44 42 34 50 36 38 46 26 34 30 28 22 28 36 26 30 24 14 24 28 26 12 18 14 30 16 22 16 18 32 32 28 30 28 16 12 16 30 22 22 28 32 46 44 56 42 50 40 60 74 102 100 116 136 189 252 293 303 315 334 361 344 299 285 266 266 270 284 262 301 309 
32 46 34 44 52 44 46 34 36 42 40 48 36 40 48 38 24 26 34 22 24 8 18 28 32 30 28 40 28 16 22 20 20 22 24 22 24 28 26 30 40 34 48 16 16 32 26 32 20 30 30 54 46 56 50 74 102 138 160 244 301 334 330 355 413 492 486 446 392 340 330 328 309 291 285 303 315 295 332 330 
24 40 40 34 42 56 46 34 46 36 36 54 40 28 38 32 26 40 42 30 16 36 30 18 32 38 32 38 22 34 24 28 32 22 30 36 36 48 42 36 32 26 46 32 28 34 42 40 36 30 52 54 58 54 84 142 264 344 431 475 496 485 473 467 458 519 553 540 519 448 347 340 326 313 291 320 322 316 322 346 
24 26 38 44 56 56 46 48 40 42 40 56 46 48 50 50 28 34 32 40 42 18 32 40 30 40 26 38 48 46 36 24 36 30 36 34 32 30 50 38 32 46 36 32 34 42 52 48 34 44 48 62 60 74 138 309 442 473 517 534 542 525 538 509 507 523 544 559 538 496 392 342 324 344 316 318 324 297 305 346 
42 46 40 44 20 54 48 50 56 44 52 36 52 42 50 34 46 32 32 46 36 28 42 30 34 40 38 34 32 44 38 32 32 30 30 34 38 24 42 34 38 48 36 30 42 44 44 34 44 48 56 56 70 116 175 270 386 479 530 521 540 549 532 549 511 528 546 547 553 460 423 377 330 326 328 322 318 326 338 369 
34 40 44 42 46 60 48 50 46 44 54 68 50 44 62 46 32 32 42 56 44 24 40 34 40 46 40 32 40 26 30 28 28 34 44 32 42 36 34 34 50 36 44 36 38 48 42 52 48 54 56 56 72 128 164 215 287 408 500 528 542 544 536 551 521 536 559 563 528 404 396 369 349 347 326 336 334 336 369 402 
16 48 48 52 58 46 38 44 44 46 42 58 42 40 46 48 40 34 34 38 26 34 48 50 34 38 40 38 34 30 44 34 36 28 30 28 28 28 44 40 38 36 44 36 38 52 50 44 48 54 48 54 76 130 164 177 252 320 456 504 532 547 538 538 507 509 496 483 409 369 369 369 353 357 320 328 330 344 369 429 
38 46 48 28 50 60 66 40 44 48 56 50 34 36 42 42 46 32 36 42 40 34 46 46 30 44 36 34 38 36 38 30 22 26 34 22 32 32 34 30 38 36 24 32 22 40 34 44 38 36 46 62 90 132 183 189 235 326 450 521 540 538 496 504 519 421 336 289 293 347 392 373 342 353 351 357 365 386 417 444 
34 46 44 44 68 48 46 50 50 44 50 50 52 46 48 42 30 38 40 30 26 28 40 40 32 36 44 32 22 44 36 32 30 36 32 30 40 28 46 36 42 40 34 32 34 42 40 40 48 44 52 68 120 197 223 215 221 295 394 464 502 505 440 486 462 446 369 330 311 369 378 371 351 375 378 404 404 419 450 475 
34 48 46 52 44 52 42 38 40 50 54 50 46 40 38 34 28 42 22 44 36 38 36 40 26 28 28 38 34 26 30 40 28 24 28 22 32 38 36 36 40 42 34 36 34 34 40 32 34 48 66 62 154 223 326 260 223 254 309 330 363 425 431 477 498 450 380 386 377 371 382 378 373 371 388 431 427 452 469 481 
38 52 60 56 66 44 46 38 44 42 42 48 46 32 34 26 24 26 36 40 26 38 34 30 22 24 30 30 30 24 30 20 28 28 26 22 20 22 34 34 32 28 24 34 36 34 46 32 36 40 60 66 158 217 423 462 326 278 276 299 380 402 467 542 515 404 365 353 382 365 346 355 373 380 411 427 440 464 481 479 
34 44 36 40 24 66 50 44 40 42 40 28 44 44 46 30 30 30 38 36 32 36 32 18 20 28 22 24 26 12 22 28 20 22 28 28 22 18 36 34 32 20 20 18 38 34 38 36 40 46 62 72 140 209 380 565 523 490 450 427 490 433 448 481 353 285 324 316 349 340 347 346 361 388 392 446 465 486 488 462 
36 52 42 44 42 44 56 44 48 46 46 44 36 42 28 40 22 34 24 22 24 20 14 28 34 8 16 22 30 12 10 24 18 6 12 30 26 34 30 40 40 22 30 32 18 50 50 46 96 134 124 86 148 199 285 530 538 523 515 504 456 363 382 318 270 293 318 318 340 336 340 340 347 355 371 417 439 454 475 469 
26 46 26 36 38 30 54 52 30 48 38 26 38 36 28 26 28 30 28 40 32 14 26 24 36 22 26 24 26 26 16 16 26 22 28 20 24 28 42 36 36 48 42 28 34 46 34 86 262 380 400 256 177 187 217 413 481 448 400 353 217 160 244 328 342 398 386 346 332 357 346 338 344 349 363 390 357 390 419 442 
36 30 38 36 46 32 40 42 42 34 46 38 28 28 40 40 26 22 46 22 22 16 28 24 34 32 22 22 26 34 38 34 30 30 24 30 44 30 38 50 42 36 42 48 36 50 58 132 390 456 473 439 361 252 213 231 237 185 126 110 94 126 209 357 400 413 357 330 347 396 380 363 361 359 332 313 268 248 274 287 
40 54 34 38 46 46 46 44 34 18 32 64 32 30 30 26 18 36 30 26 38 34 28 36 40 26 28 26 14 40 22 28 32 22 38 28 34 30 46 50 44 40 46 46 50 48 58 130 404 440 462 494 462 442 361 248 168 116 126 92 90 124 203 349 382 417 415 377 384 371 328 289 276 264 262 262 221 179 172 152 
26 66 34 42 40 36 26 44 42 30 48 36 34 34 40 26 34 40 40 42 24 34 36 38 28 26 20 32 32 34 30 28 34 26 28 34 28 36 42 52 44 42 44 38 46 46 54 70 252 394 448 423 409 452 450 450 373 266 201 152 132 134 170 347 404 431 454 439 380 284 221 203 227 260 311 328 307 195 168 144 
30 68 62 30 36 40 48 46 40 38 30 32 36 34 32 48 32 28 46 38 30 36 26 24 48 18 40 34 30 32 28 30 36 22 46 26 52 36 44 40 42 44 28 40 36 40 50 56 84 203 276 233 199 262 371 437 440 437 411 388 324 250 207 353 419 439 444 419 307 237 227 237 295 326 334 344 336 268 154 164 
42 60 32 44 30 44 62 38 32 36 40 50 32 34 36 34 40 44 30 36 18 34 28 42 42 34 30 34 44 38 40 30 32 36 22 18 32 38 40 52 44 48 44 28 48 46 56 54 62 68 82 82 80 102 98 213 363 429 444 446 437 444 398 429 444 448 452 386 250 262 291 324 324 315 340 347 336 264 179 168 
26 44 52 40 32 38 44 42 38 28 38 34 36 32 54 36 30 42 40 42 42 40 50 40 36 40 34 24 44 32 36 32 36 36 24 28 28 32 44 52 48 46 50 36 42 44 54 54 62 64 60 82 76 80 64 86 144 246 382 431 465 492 473 477 469 479 431 320 282 307 307 330 347 380 340 367 330 238 191 152 
38 62 48 58 44 54 46 40 40 44 38 46 38 38 36 42 28 36 42 26 42 34 32 38 42 36 34 36 38 38 34 34 30 34 32 38 36 28 54 34 52 42 40 42 30 46 66 60 62 50 76 74 82 84 74 90 88 96 160 291 411 488 488 519 494 471 373 301 291 291 299 342 359 363 382 392 398 322 227 156 
34 36 48 42 52 44 56 54 34 46 46 28 38 32 50 30 38 34 36 48 32 34 46 40 22 36 50 44 42 34 26 38 30 30 22 40 34 42 42 50 40 42 50 34 40 38 44 44 42 66 62 66 72 76 84 80 96 92 80 94 146 254 359 429 417 357 282 266 238 233 235 311 326 309 390 427 425 373 284 193 
40 58 52 30 28 54 46 46 44 36 42 44 36 34 32 50 38 40 34 50 38 30 30 44 30 32 34 28 22 32 28 40 26 28 26 30 36 32 36 42 42 32 40 28 46 36 46 54 56 66 54 66 80 72 62 88 94 90 94 88 92 120 136 193 223 291 221 193 185 221 280 320 301 313 396 433 435 394 318 209 
40 56 48 36 34 32 34 46 36 32 42 42 28 46 46 38 26 42 26 30 22 26 22 20 42 44 36 32 30 24 22 30 28 30 26 38 36 38 38 44 36 38 44 32 30 40 34 48 48 48 60 70 74 58 68 76 90 78 80 98 100 124 118 148 221 266 215 174 185 238 289 324 264 324 417 398 425 378 336 256 
38 56 40 46 28 40 28 28 32 34 34 28 42 40 38 40 34 26 24 36 18 22 32 28 32 24 22 28 20 22 24 22 26 26 22 34 26 28 40 30 48 42 34 32 34 48 44 46 48 54 50 62 54 60 42 76 76 76 74 74 92 108 122 181 268 250 205 183 211 278 274 258 246 235 330 365 338 313 244 268 
32 56 52 36 40 34 34 52 42 32 32 36 34 20 40 32 30 20 30 30 22 34 32 28 32 30 20 28 18 22 26 12 16 22 22 20 24 28 32 40 26 28 34 24 30 38 40 32 38 30 44 56 60 42 52 76 74 76 78 78 70 100 102 191 270 237 209 201 278 291 256 278 237 181 211 336 303 276 246 260 
46 44 42 38 42 42 42 42 32 36 32 30 34 24 34 30 34 26 20 26 28 22 32 24 28 20 14 20 14 8 2 18 8 22 16 14 14 26 22 18 34 24 30 22 28 28 38 42 24 36 46 56 58 64 82 92 92 76 86 152 156 132 136 215 276 268 205 237 305 316 289 250 246 244 191 246 303 313 235 246 
34 68 42 42 56 34 42 34 44 30 30 28 34 20 22 24 16 24 24 28 22 28 18 24 26 10 24 6 22 10 18 14 6 8 8 10 16 22 24 30 42 28 28 32 30 36 42 42 54 34 46 64 54 98 158 205 174 205 238 240 365 413 338 326 301 291 229 252 301 301 315 254 231 246 268 244 289 344 315 299 
42 62 44 44 38 24 40 38 24 26 26 34 34 30 32 24 22 18 26 28 32 20 26 24 28 18 18 10 12 12 16 14 26 18 20 10 24 28 20 24 28 32 38 30 32 28 44 42 54 42 36 44 74 150 250 303 293 223 266 351 435 462 406 423 353 291 233 237 287 289 322 262 264 309 303 256 256 324 332 320 
18 54 52 38 30 48 40 36 46 32 32 20 24 30 38 30 26 22 32 28 26 30 22 14 24 30 26 12 30 30 26 20 26 18 24 20 26 30 28 32 32 34 34 38 36 40 46 44 46 48 54 46 92 179 242 291 287 254 237 349 454 458 402 411 404 336 285 252 303 303 316 289 252 307 315 285 266 309 351 342 
30 54 40 54 38 40 38 28 52 46 32 38 34 32 48 40 28 42 40 26 26 30 34 26 36 26 34 36 32 22 16 30 36 32 24 34 38 40 38 40 40 36 42 40 34 36 40 46 46 54 62 60 90 181 225 285 282 299 278 268 448 471 421 450 437 384 328 256 305 305 332 285 256 334 322 301 274 268 322 316 
22 44 52 42 44 46 54 26 44 56 44 36 42 42 42 38 24 34 38 30 28 22 36 34 44 30 22 42 30 32 24 34 32 28 30 30 30 38 32 48 40 44 46 36 40 42 46 50 48 62 56 72 74 189 203 258 262 256 272 280 406 486 505 498 421 392 353 260 309 301 328 248 223 307 322 295 272 254 301 315 
26 42 52 44 30 44 58 34 52 42 40 32 36 34 42 40 32 30 32 30 34 20 34 38 34 30 38 36 36 26 24 34 28 30 24 38 34 38 40 38 42 46 54 30 38 34 40 54 58 54 48 60 80 142 219 223 238 213 219 285 382 460 464 446 400 398 347 274 322 344 315 260 225 262 307 301 264 252 284 313 
24 44 46 42 30 44 42 40 40 46 28 42 30 32 44 36 26 28 46 38 42 30 38 34 34 26 30 30 32 32 32 34 38 24 20 30 26 26 46 42 50 36 42 38 42 40 46 38 48 52 76 62 74 74 132 195 221 209 248 270 256 244 254 351 371 396 340 330 353 357 340 293 179 289 320 295 233 223 266 268 
24 46 40 32 40 42 46 46 42 34 40 36 46 44 42 42 40 26 40 44 28 34 42 36 32 34 28 28 24 28 28 30 32 36 30 32 32 44 42 34 40 42 38 42 38 42 48 54 54 60 62 70 72 76 76 96 124 132 160 166 144 138 132 268 320 355 326 326 363 371 349 318 301 380 361 285 244 199 233 211 
30 48 38 40 34 46 36 28 48 28 40 38 42 40 52 50 40 28 40 38 32 10 46 36 38 36 42 40 38 28 36 34 38 36 28 32 36 30 34 48 50 46 42 40 46 42 42 44 44 50 70 72 64 64 68 78 86 76 70 86 84 102 120 221 303 311 322 324 353 390 367 371 382 413 415 382 289 229 237 179 
22 48 56 46 36 52 36 34 48 36 46 38 46 42 50 38 40 46 40 54 36 28 40 34 38 32 40 42 42 34 32 28 38 34 34 30 30 24 48 36 44 50 42 54 48 46 50 52 60 54 54 64 56 68 66 74 84 68 70 82 94 98 108 172 287 332 301 315 332 382 390 402 421 419 402 413 338 244 242 197 
34 52 50 36 48 30 28 48 52 36 42 50 42 30 48 42 28 32 38 32 26 26 38 44 32 32 30 46 32 38 32 32 40 34 24 34 28 28 40 46 44 50 52 56 44 60 58 58 64 58 58 62 68 66 62 80 74 66 64 74 70 90 86 142 225 295 328 307 322 363 373 380 411 413 400 423 375 295 260 219 
38 46 40 40 38 44 46 42 42 50 46 48 30 40 46 38 28 48 38 38 30 20 34 36 44 36 38 34 28 26 28 36 28 26 24 36 36 24 46 38 46 46 54 54 56 58 56 56 56 60 74 66 82 80 72 70 70 72 64 72 82 92 102 132 170 254 313 332 349 347 382 408 423 411 394 400 361 347 315 262 
38 48 58 50 38 34 54 34 48 28 38 40 42 36 34 28 32 48 50 36 20 28 36 18 38 36 34 32 26 26 22 28 20 36 32 38 30 32 42 38 44 66 54 60 58 46 62 68 68 78 82 64 72 60 58 78 82 60 66 72 78 92 98 112 140 197 256 336 357 355 363 417 406 382 367 367 373 377 340 272 
34 40 54 44 46 42 44 40 40 40 44 50 52 32 34 40 46 34 38 36 28 22 34 28 28 30 24 22 38 14 16 20 26 22 18 26 34 28 32 32 38 50 46 48 56 64 68 60 62 70 74 68 66 60 68 64 68 62 68 60 76 90 98 128 162 268 336 349 380 367 365 431 433 415 388 375 404 411 382 324 
32 40 32 48 40 42 38 46 28 24 46 30 44 26 28 22 28 44 34 42 16 20 26 42 36 18 16 28 28 12 14 18 20 26 12 26 26 24 30 32 34 34 44 56 48 48 56 54 74 60 76 74 66 58 48 62 58 60 64 60 76 100 138 211 278 313 342 355 365 371 363 435 450 429 427 413 409 406 423 363 
24 30 42 42 32 42 44 40 36 36 24 36 50 34 40 32 28 20 32 22 26 20 28 24 20 26 30 12 16 18 16 24 0 4 26 14 16 20 34 36 40 34 40 36 38 52 58 58 66 62 78 66 76 62 52 54 66 54 54 56 64 144 246 285 299 322 318 322 346 347 390 448 454 439 425 406 394 384 402 361 
24 46 48 44 34 40 32 32 46 42 38 40 50 38 34 30 32 26 28 36 36 30 32 28 32 34 22 28 24 26 24 24 10 24 16 22 20 30 30 28 36 38 54 48 46 72 68 72 72 74 66 70 82 54 80 82 84 80 80 70 84 237 313 328 301 311 311 322 328 330 386 415 413 384 357 346 347 347 388 340 
28 52 44 52 60 38 42 32 54 32 30 42 36 38 48 20 30 32 36 34 22 36 24 24 34 24 38 22 30 20 40 22 24 26 20 28 28 30 34 42 40 50 66 56 60 72 66 80 58 74 86 140 199 195 209 264 229 144 130 130 116 295 322 336 328 309 299 299 297 315 336 338 322 289 303 287 311 318 355 332 
32 58 44 42 48 48 50 46 36 32 32 46 34 42 42 30 42 40 44 32 28 34 32 24 34 36 34 26 32 26 24 30 36 20 26 26 40 36 36 40 56 48 58 58 60 74 76 86 86 88 130 252 297 295 297 357 402 371 384 268 211 315 324 330 305 299 291 305 285 291 301 289 284 272 268 287 289 295 316 344 
32 38 52 42 52 38 50 48 40 40 40 36 40 36 44 30 34 48 54 38 38 58 36 46 26 26 36 38 28 34 42 28 26 38 36 30 34 38 44 52 52 56 54 66 72 78 72 86 90 108 248 282 307 334 369 431 431 454 454 373 353 353 316 336 307 332 305 274 268 264 238 235 246 268 250 248 272 289 305 326 
30 40 52 42 54 46 42 48 56 42 36 46 44 32 36 42 32 40 42 42 48 30 40 34 28 34 38 36 44 24 32 36 40 28 24 36 34 30 42 44 58 54 68 56 52 68 72 66 94 168 252 307 322 332 373 433 479 471 467 458 464 408 346 365 322 307 282 254 248 242 213 205 254 246 231 235 268 266 309 320 
32 40 36 46 50 48 42 36 36 44 44 44 52 42 40 40 30 38 40 44 40 34 50 42 40 36 40 36 34 36 28 40 28 38 38 44 40 34 54 38 44 38 52 54 60 62 60 58 98 197 254 316 344 353 380 465 479 486 471 462 490 446 413 363 297 282 274 254 244 229 215 205 233 215 221 219 238 254 287 291 
28 56 48 42 46 54 46 52 46 46 46 36 44 52 58 52 38 30 38 54 44 36 48 38 42 40 46 42 48 42 32 40 36 32 34 40 36 48 48 42 46 44 44 52 50 68 68 70 118 193 258 293 316 326 355 464 496 486 486 492 477 444 388 346 297 297 280 240 219 221 207 215 201 193 205 223 205 221 270 278 
22 60 36 38 34 52 40 36 46 46 42 38 40 28 48 42 46 44 34 40 46 40 36 40 30 40 34 32 34 22 16 36 20 36 36 32 38 40 50 40 46 40 44 34 42 42 54 48 88 132 205 280 311 301 347 413 485 494 490 475 448 450 361 313 262 291 244 213 197 215 191 189 209 207 207 237 242 203 237 242 
30 42 20 40 48 46 50 42 42 36 50 44 42 42 40 48 50 46 42 34 42 26 44 34 44 40 52 30 30 32 34 44 26 36 36 40 44 34 48 44 42 50 48 38 46 50 64 58 72 96 174 254 305 313 351 452 467 471 458 448 439 415 382 320 293 289 237 203 193 209 195 207 237 237 252 285 258 246 219 240 
54 52 36 32 50 30 36 42 32 54 24 48 56 38 34 44 32 46 44 28 30 24 40 30 40 30 34 40 30 20 40 36 30 26 32 30 36 30 48 42 40 46 40 40 36 48 52 42 52 54 116 168 227 262 285 297 320 347 371 413 373 375 328 315 311 282 238 211 189 199 219 215 231 233 258 295 322 291 278 229 
18 38 42 22 34 40 40 30 28 46 38 38 32 28 42 46 40 22 34 26 26 16 40 30 24 30 36 32 26 24 30 34 20 20 26 24 18 30 40 34 50 44 32 32 36 42 48 26 48 46 46 90 90 114 130 156 138 126 172 291 344 313 270 299 295 274 229 201 201 215 225 246 266 258 289 313 355 324 336 260 
16 30 18 26 38 52 42 20 36 24 30 22 40 32 42 38 30 34 20 26 34 24 28 34 32 38 32 40 38 20 36 24 34 36 30 30 28 28 28 36 34 34 42 24 16 42 36 28 12 40 28 62 58 68 60 76 60 54 78 177 252 262 242 301 276 254 258 221 191 201 240 272 276 256 285 326 378 367 363 315 
8 32 20 14 10 32 18 22 30 12 22 14 28 24 34 32 26 18 28 34 20 38 28 24 16 22 16 26 10 16 22 24 16 16 16 26 18 10 24 26 26 28 46 28 14 28 28 28 20 22 20 54 58 50 56 62 44 56 72 94 211 237 270 307 280 280 262 237 217 209 256 289 305 295 301 367 382 398 377 357 


