P2
80 60
569
44 68 46 42 30 50 40 38 46 52 50 44 52 54 52 62 62 64 42 48 46 56 50 60 62 82 153 333 387 414 403 381 321 304 294 285 285 267 246 244 224 242 269 294 310 310 300 308 331 364 395 381 348 345 331 329 292 267 248 226 208 208 191 177 171 163 179 205 234 224 199 201 201 210 244 214 199 167 163 187 
24 46 30 44 24 54 46 48 46 66 50 58 42 62 46 64 64 78 66 86 106 80 88 84 70 82 214 290 337 414 412 389 352 335 312 290 279 263 255 224 222 246 279 298 296 300 288 267 273 267 292 341 362 370 376 366 339 337 325 308 255 240 236 207 199 201 214 244 259 252 250 254 259 281 290 283 246 216 203 197 
24 40 36 42 56 52 50 48 56 46 44 40 46 60 58 64 56 68 94 195 267 286 317 263 181 167 339 335 329 414 447 437 393 354 321 310 294 279 265 246 254 279 302 317 321 308 300 283 254 236 238 244 277 345 378 376 360 370 337 347 350 288 259 244 222 207 232 257 261 263 248 230 224 234 261 275 271 234 205 210 
36 46 34 46 36 36 48 54 40 46 42 48 40 42 50 60 58 96 246 366 372 456 468 479 468 460 523 500 422 383 412 443 403 393 352 310 294 288 286 275 298 317 335 337 333 323 300 269 257 240 220 226 220 228 279 341 333 348 370 376 352 316 246 244 208 226 267 238 230 218 224 226 216 216 259 281 265 250 199 191 
48 40 38 36 52 32 50 56 44 46 42 44 40 52 54 60 70 201 362 458 498 504 498 536 538 561 569 546 527 462 368 364 360 354 335 316 283 277 271 275 300 321 325 339 337 316 273 267 246 230 216 218 203 191 201 218 254 277 310 296 261 224 254 273 277 254 261 252 250 238 201 234 220 203 218 222 189 134 112 88 
48 30 36 36 30 44 42 64 50 56 50 54 48 64 64 68 90 254 409 456 481 508 516 538 536 536 544 546 535 510 468 370 339 331 312 316 300 273 271 261 285 312 314 316 306 283 267 269 240 228 218 195 165 169 171 167 195 224 207 199 187 203 216 269 265 244 257 240 238 205 179 159 159 142 104 94 68 56 50 68 
48 36 52 34 40 52 42 62 50 62 46 56 44 44 74 86 92 238 414 466 508 529 519 472 485 491 483 479 506 489 410 372 341 339 348 339 348 323 319 323 325 312 312 302 308 294 281 288 252 226 220 218 179 169 159 153 183 201 208 193 205 205 208 222 218 210 214 207 187 134 88 84 62 54 56 68 50 58 54 62 
48 26 32 52 40 56 44 62 44 72 52 60 56 68 58 78 86 195 389 470 495 508 495 443 434 414 306 218 232 312 298 354 385 412 387 366 366 331 325 316 312 300 298 314 341 343 327 306 273 269 238 222 193 189 165 155 191 216 224 228 234 238 201 189 175 153 142 116 106 90 86 76 58 52 50 60 48 40 52 66 
40 42 40 40 40 58 54 74 64 74 56 62 62 56 56 68 82 134 306 416 441 489 455 420 364 232 100 66 76 104 212 387 428 445 420 393 352 321 296 275 267 267 288 310 329 354 356 339 306 279 288 261 236 218 203 207 220 275 290 306 286 255 167 118 98 94 106 92 98 96 100 82 76 62 78 54 62 78 50 58 
56 42 64 40 48 64 52 52 40 60 50 50 58 56 72 68 64 76 122 191 224 240 214 175 104 76 66 42 62 62 100 323 420 407 407 372 352 310 283 283 263 283 294 379 437 474 441 435 403 389 376 389 376 362 306 275 327 368 352 273 248 306 140 98 98 92 100 102 114 112 114 118 90 92 80 80 72 74 58 76 
34 38 52 56 50 52 44 52 44 36 36 56 56 50 54 50 58 54 60 60 52 58 46 52 56 50 54 42 36 44 86 163 360 418 399 374 348 323 298 269 257 250 257 323 352 403 422 441 428 428 414 414 399 389 376 387 397 376 350 294 296 314 183 161 153 147 153 142 147 140 159 151 155 128 116 110 104 94 72 94 
52 50 52 52 50 54 52 44 42 44 44 68 38 56 48 62 70 56 60 46 68 46 38 50 56 66 52 44 62 60 90 130 207 325 364 391 410 405 376 286 207 193 197 165 122 163 203 222 252 285 281 354 368 368 376 376 372 356 325 317 312 298 263 273 271 269 259 230 224 236 236 232 232 232 226 216 218 193 175 159 
40 52 60 44 56 52 46 58 60 38 54 46 48 52 42 62 62 66 46 42 50 32 24 52 50 52 64 42 60 116 208 308 310 302 414 462 472 453 407 335 185 112 122 130 116 130 126 144 255 335 354 370 356 337 333 325 308 275 269 288 275 285 285 283 298 285 261 212 232 228 218 232 228 234 230 246 242 244 242 240 
24 48 36 40 36 48 34 48 56 62 60 56 44 52 54 52 66 70 28 42 44 44 24 40 42 50 44 50 88 283 372 387 347 360 443 472 472 443 401 333 244 175 214 222 214 246 263 257 298 335 354 343 343 335 319 286 265 257 246 267 273 269 285 302 306 288 267 228 207 210 201 220 226 228 210 214 224 255 257 236 
34 28 58 58 52 46 58 32 46 60 46 44 26 44 42 42 54 48 32 44 38 52 36 42 48 50 50 54 134 350 370 412 399 447 458 458 468 439 399 350 319 312 321 339 331 325 327 277 283 312 350 319 298 288 286 273 273 271 275 267 271 279 277 296 302 296 279 232 226 210 199 226 226 205 203 201 203 216 208 224 
56 50 44 50 36 64 46 44 52 70 40 56 48 44 38 48 44 48 42 52 58 46 46 44 46 54 58 56 122 347 379 409 430 435 435 418 412 391 356 323 310 310 310 316 310 296 279 238 261 279 331 314 285 259 259 269 288 294 316 296 279 279 283 300 294 279 255 230 232 207 205 201 195 199 177 185 169 185 201 201 
48 46 48 50 58 50 52 52 54 62 42 56 46 64 50 58 66 50 44 52 50 52 46 70 84 76 76 94 147 319 374 387 399 399 399 385 376 348 321 302 292 275 271 273 271 265 259 238 232 246 275 304 254 238 232 263 283 302 327 296 265 273 254 240 216 197 208 181 173 151 140 153 136 136 134 136 136 140 147 167 
42 32 42 44 48 46 52 42 54 58 36 40 46 48 52 70 64 74 66 70 62 80 86 104 120 138 163 207 317 335 350 366 383 393 379 345 333 337 343 325 312 296 298 271 255 250 236 234 236 232 236 259 228 218 218 254 271 296 288 286 232 185 145 149 132 140 145 132 149 145 134 122 116 128 114 124 120 142 155 175 
34 54 62 48 42 54 56 34 50 50 50 54 50 62 64 64 70 64 82 122 183 177 246 348 385 358 383 387 378 350 350 385 391 391 358 343 316 321 317 296 273 275 288 279 257 252 230 216 232 207 212 240 222 230 226 257 281 312 285 207 144 167 161 181 187 203 214 205 201 197 179 185 191 193 197 205 218 232 230 242 
50 42 42 38 52 46 48 54 58 70 56 48 44 38 50 76 58 72 120 267 362 339 383 451 462 449 412 395 387 439 401 379 343 335 319 316 310 308 310 308 285 273 275 281 263 261 250 244 240 232 214 214 236 230 224 252 271 304 321 314 306 310 310 321 319 302 304 285 267 277 263 246 257 265 265 271 279 271 254 236 
52 50 50 48 64 50 50 60 46 54 54 56 56 62 58 56 64 82 187 325 374 360 430 449 462 456 420 401 389 449 432 368 354 362 362 319 314 310 306 302 294 294 277 267 255 248 254 242 228 224 216 214 240 254 230 304 304 321 323 329 319 329 310 323 316 296 277 267 269 242 257 238 259 246 244 244 257 252 236 218 
42 48 46 34 46 52 64 50 54 44 50 56 60 60 58 78 60 94 208 331 356 335 441 453 443 445 416 407 397 449 403 389 387 381 362 325 314 302 279 265 252 250 254 252 234 238 240 238 236 222 228 226 257 244 271 298 283 302 314 319 304 306 302 285 279 269 263 244 240 226 210 218 246 228 232 228 228 212 216 212 
50 34 40 50 38 48 56 36 48 48 48 56 32 48 52 66 56 88 183 306 335 321 405 437 464 474 453 441 397 393 362 409 412 397 389 354 337 319 304 288 263 273 263 254 242 238 242 242 242 226 244 252 263 255 252 255 234 263 283 281 285 285 244 238 248 250 269 238 185 191 199 173 210 185 201 197 197 179 161 147 
40 26 40 44 54 42 34 32 42 54 52 52 48 60 60 80 72 86 142 275 343 317 329 387 397 441 414 306 327 296 335 399 397 397 381 354 316 302 292 265 257 254 279 281 275 263 261 254 255 246 269 267 269 273 265 259 232 252 261 273 267 261 248 246 240 240 254 197 189 167 177 157 155 136 138 128 116 108 128 124 
62 48 46 48 42 46 52 44 48 46 44 56 42 52 48 64 74 66 82 179 288 325 255 304 302 267 177 136 169 304 368 391 366 352 360 350 304 232 240 246 246 238 240 250 250 269 259 283 312 275 286 250 263 285 290 286 267 263 259 269 259 252 228 230 207 201 191 161 167 157 151 130 132 114 110 102 112 112 92 102 
32 38 34 40 60 50 52 52 48 56 54 60 42 68 48 60 64 58 66 92 153 191 173 128 102 110 98 100 128 321 403 376 348 341 335 286 248 252 267 343 339 337 316 298 273 294 279 290 321 298 279 263 267 310 325 317 288 273 250 214 201 163 140 126 128 124 136 128 136 132 122 122 124 102 102 86 88 98 82 84 
34 32 54 36 42 46 46 60 46 58 38 36 48 54 38 60 72 52 62 66 58 66 64 74 76 82 92 82 116 306 395 352 306 290 271 246 257 317 366 370 370 385 372 345 329 316 310 312 325 319 327 316 294 323 360 372 358 360 230 124 84 88 88 96 120 116 110 110 138 136 122 116 108 110 98 88 72 82 72 74 
52 50 40 52 36 50 44 50 46 50 42 42 34 52 56 52 54 54 38 34 52 36 32 50 68 66 62 66 82 203 345 350 308 283 277 273 267 327 393 381 368 397 395 374 333 348 347 348 345 341 347 360 364 385 391 374 358 331 234 128 94 86 72 86 102 96 102 112 144 132 126 126 100 102 88 82 72 80 70 72 
44 40 54 42 40 48 48 36 50 60 38 50 48 58 52 52 54 54 34 48 40 40 28 40 56 58 48 52 60 96 232 306 286 277 304 304 288 348 391 370 368 389 456 451 426 432 439 445 437 416 407 345 271 234 236 228 220 214 159 118 124 124 114 108 116 114 118 120 134 147 147 122 108 94 76 68 80 74 72 72 
44 44 50 38 54 30 46 52 46 44 48 48 36 42 50 56 42 56 38 44 38 42 46 42 42 54 48 42 38 102 228 254 214 234 248 304 331 347 368 366 337 329 331 360 393 389 345 350 364 319 210 134 128 147 157 197 207 216 216 197 193 161 122 112 112 108 100 108 132 130 142 136 122 118 104 94 94 74 78 88 
50 34 52 50 54 50 32 46 48 76 40 52 46 48 40 52 62 50 38 46 48 42 40 54 50 58 52 40 52 165 265 244 191 183 149 144 281 331 354 343 294 165 189 199 226 203 189 163 234 189 144 116 149 155 181 216 263 296 279 281 232 195 147 122 124 120 104 86 92 120 157 167 189 208 224 205 203 169 126 124 
52 48 56 58 56 48 40 62 52 46 50 56 48 52 42 52 52 54 44 44 56 42 44 56 64 66 68 58 72 177 275 242 205 220 207 193 290 316 312 288 159 128 157 169 128 159 187 126 208 175 116 179 142 153 218 250 277 290 298 269 226 189 145 108 108 100 98 56 72 165 201 216 210 218 236 236 232 234 230 226 
30 50 50 62 54 48 42 48 52 58 48 60 66 62 62 56 66 56 56 64 84 82 66 74 80 72 74 62 90 240 265 273 275 273 252 269 296 275 265 145 96 120 90 132 153 179 169 106 161 142 106 147 126 134 181 218 240 228 216 191 179 147 128 108 104 86 78 52 68 145 169 208 183 181 195 203 197 205 195 197 
30 56 60 58 46 64 54 42 54 64 64 56 48 66 64 62 70 58 80 153 201 195 159 238 292 197 120 78 124 261 285 304 356 368 317 345 327 275 163 94 88 110 104 167 171 159 114 80 144 116 84 104 128 140 153 157 147 136 116 128 128 130 104 124 100 76 56 60 56 147 199 189 165 175 183 185 183 181 171 195 
42 30 44 52 42 56 32 42 46 66 54 50 54 52 60 64 64 84 142 224 265 248 279 379 441 426 376 246 267 290 279 317 360 385 385 376 347 195 134 145 110 116 144 189 140 138 112 108 106 100 94 116 147 134 140 120 110 96 108 112 138 122 120 118 126 78 50 44 64 145 165 159 147 161 128 124 114 114 116 108 
46 42 62 62 54 50 56 52 48 62 60 48 48 62 56 66 66 120 226 250 273 269 308 437 458 424 455 376 323 304 285 329 362 381 393 378 290 126 118 124 147 151 203 201 163 147 147 140 80 104 108 120 142 159 140 128 118 80 96 118 136 136 120 120 118 98 84 68 110 145 155 142 122 104 88 96 92 64 92 82 
48 48 44 54 36 50 70 46 56 76 64 42 52 54 54 64 56 106 240 218 259 298 430 449 439 381 393 366 321 329 374 414 412 407 393 366 232 94 84 126 161 189 195 167 155 157 161 153 98 102 100 124 147 147 167 153 130 110 96 120 136 149 134 120 118 106 110 106 124 140 134 134 122 102 94 78 68 72 70 70 
28 40 52 40 44 54 44 60 44 56 48 54 44 64 68 74 66 112 236 195 252 302 412 464 437 409 387 379 341 362 470 475 432 414 409 358 161 114 128 136 163 181 175 144 144 149 167 147 98 108 116 100 108 155 173 175 149 138 130 116 108 108 102 96 100 94 110 116 140 132 124 124 94 104 84 68 76 50 44 58 
24 62 52 58 50 56 60 56 62 68 44 60 48 68 56 60 86 100 203 187 240 246 310 426 437 455 453 341 339 362 474 481 430 437 410 379 193 70 140 145 153 183 161 144 136 151 163 140 132 130 118 120 128 149 173 153 138 138 126 98 108 112 126 128 122 128 124 128 126 120 108 110 100 88 68 70 78 70 76 74 
54 54 50 56 54 60 50 44 54 60 52 48 48 52 66 70 64 74 126 171 161 193 244 345 409 385 304 203 187 327 416 453 426 424 426 358 179 62 118 155 163 179 157 142 126 151 155 120 126 138 120 136 144 159 151 142 145 126 112 104 116 128 153 120 122 138 145 147 161 130 122 118 82 92 86 84 88 100 104 80 
38 52 52 60 42 68 44 44 66 58 46 50 54 64 58 72 66 60 64 92 106 108 118 147 175 171 142 134 187 255 310 378 385 399 401 376 195 114 145 149 179 183 153 171 128 153 145 122 134 136 118 108 153 147 136 167 145 144 108 116 116 122 136 138 126 122 122 120 161 187 169 128 120 116 106 98 110 102 114 122 
30 40 42 40 32 38 26 40 54 54 46 48 50 52 60 62 58 62 58 58 46 66 82 92 155 208 240 283 290 306 296 306 372 385 393 378 292 246 255 252 255 236 224 203 157 167 134 142 138 138 126 118 140 134 145 132 120 108 94 102 84 98 114 114 104 90 96 88 126 195 197 177 179 175 183 197 175 171 161 157 
58 50 42 44 42 44 56 58 56 62 52 54 46 58 46 58 58 66 58 48 64 94 187 244 281 304 271 298 304 302 323 354 343 374 372 370 368 356 345 323 317 312 308 296 265 234 222 222 208 216 230 232 230 212 226 212 147 80 70 66 44 66 70 68 74 76 60 40 62 159 197 189 201 193 201 238 246 232 238 224 
52 46 56 44 40 56 62 46 42 56 50 52 54 50 50 48 44 50 62 68 151 238 255 275 296 306 292 294 290 302 337 403 366 366 381 383 385 370 362 347 343 343 331 314 273 263 257 254 275 279 283 273 259 242 252 259 248 145 72 26 42 42 26 56 36 28 14 0 26 140 189 189 197 201 207 214 248 244 265 246 
38 44 60 52 56 46 44 62 64 70 52 46 56 50 48 60 64 54 60 114 259 255 255 283 286 302 288 302 283 296 335 383 366 366 387 416 409 374 360 323 308 300 310 302 285 269 254 261 240 281 275 267 255 246 261 267 259 238 144 96 72 74 48 34 16 16 28 2 22 140 179 203 195 205 224 230 250 234 226 218 
48 46 40 56 58 60 52 58 52 58 54 50 48 48 58 68 52 70 72 175 302 265 238 283 281 319 300 292 304 290 321 354 368 378 376 409 372 370 347 314 298 283 283 250 228 226 234 246 252 254 283 279 252 263 244 273 250 240 171 124 114 132 106 90 84 68 48 22 26 68 116 128 145 142 159 159 159 153 140 145 
38 34 40 58 64 62 54 62 62 46 46 46 58 52 50 56 60 66 78 242 321 302 244 281 269 296 319 302 312 286 271 267 265 292 277 325 358 343 331 286 224 218 201 189 144 118 161 175 201 234 246 254 248 240 271 240 185 181 134 130 132 132 132 102 104 94 102 64 86 92 96 118 70 70 82 96 100 94 96 94 
46 44 58 56 62 66 46 58 70 72 58 78 74 64 52 66 54 66 102 263 335 329 248 273 236 294 300 286 232 153 157 151 185 195 208 269 331 329 314 261 203 173 163 151 126 132 138 142 173 205 193 205 228 212 207 177 128 110 138 142 138 136 132 128 114 110 134 114 122 114 108 106 80 72 66 62 56 58 66 76 
48 54 44 60 64 66 78 98 159 145 157 132 134 116 90 84 74 80 145 267 337 325 273 259 230 285 300 254 175 90 116 138 203 205 207 261 316 312 302 271 203 157 147 157 138 98 120 134 157 197 191 171 175 157 145 134 128 112 132 144 126 149 128 122 112 118 130 128 114 102 122 120 102 88 76 96 74 68 60 76 
54 52 44 56 56 80 142 222 341 337 383 354 383 350 222 112 92 106 210 290 302 302 269 240 228 288 279 201 108 90 90 151 203 197 230 267 283 304 292 257 226 163 147 159 122 100 110 130 138 165 181 165 165 149 159 142 126 110 120 138 124 142 114 124 102 122 140 110 86 62 84 132 149 167 177 201 195 155 145 114 
56 60 62 48 70 128 222 331 416 424 462 474 456 481 428 321 193 195 296 310 306 290 257 242 246 279 240 134 88 84 104 193 218 222 228 250 269 288 283 263 208 177 145 159 126 116 84 126 120 145 199 175 167 173 159 142 120 116 126 130 132 140 122 134 120 128 128 96 64 60 68 106 151 187 207 240 257 240 222 218 
64 50 50 62 74 171 285 395 416 441 464 500 472 464 472 453 416 391 366 314 312 283 248 254 240 261 201 100 78 74 167 224 230 220 234 248 252 269 283 250 207 175 157 145 100 106 98 145 157 165 183 181 157 153 149 149 112 120 118 124 116 144 132 134 120 128 140 108 82 72 66 120 159 181 222 242 255 230 224 238 
44 44 40 58 80 183 285 416 437 449 487 489 483 456 441 474 439 451 387 337 312 281 255 236 240 238 189 84 56 104 212 238 240 222 228 230 226 232 252 228 191 165 161 144 128 102 108 153 169 181 179 197 157 144 145 147 118 120 122 134 136 136 130 140 124 110 130 136 100 96 106 132 159 181 203 230 250 240 232 246 
42 60 50 44 76 161 257 387 437 470 487 491 477 405 387 401 428 451 405 335 269 269 242 212 230 218 167 108 84 136 252 267 242 226 214 195 189 193 203 193 187 155 142 140 138 108 136 173 181 183 195 189 159 159 142 136 124 124 120 130 124 124 138 116 108 86 108 145 120 122 132 151 165 177 203 240 244 236 232 236 
52 50 42 58 64 118 228 347 383 437 466 485 470 409 370 405 399 414 379 304 244 250 222 208 187 210 169 112 80 122 232 244 244 214 199 165 163 165 177 179 153 147 136 147 153 114 136 161 183 195 199 183 169 165 151 138 106 98 102 116 108 126 116 116 96 80 114 136 149 122 116 124 116 144 161 195 203 210 199 185 
40 36 34 54 52 42 149 273 366 395 435 477 458 428 381 405 403 414 370 281 236 238 205 195 187 193 165 94 74 102 210 261 236 205 203 169 149 145 159 163 155 134 145 151 151 124 116 128 138 157 167 144 142 142 142 128 114 94 106 116 112 108 98 100 92 66 110 108 94 94 78 60 58 48 54 76 82 88 70 52 
46 42 46 34 48 30 74 175 259 323 350 403 418 410 397 323 281 325 337 283 242 222 187 165 197 203 157 96 32 74 163 230 246 230 212 161 171 161 173 165 171 167 155 173 142 126 94 112 122 124 116 126 110 120 138 140 126 122 120 118 108 102 88 114 126 118 110 116 78 82 78 44 36 32 42 46 58 66 58 66 
30 28 42 18 40 54 54 60 98 118 128 161 163 181 151 124 128 147 294 296 250 228 199 183 189 207 163 54 10 68 142 222 242 234 220 171 171 185 189 189 195 177 163 177 134 122 88 96 98 98 108 120 94 124 136 132 120 126 120 124 118 112 110 106 108 90 128 104 96 68 56 58 38 54 70 78 106 116 108 84 
14 20 12 32 24 28 30 28 44 62 50 70 86 74 82 80 64 88 175 271 279 222 197 183 185 208 163 76 36 50 126 183 234 248 214 189 208 189 214 189 203 175 171 161 126 108 88 104 106 118 124 116 102 144 151 144 128 124 126 108 116 116 90 90 90 54 74 74 60 42 24 50 44 68 106 126 145 159 169 171 
24 36 14 10 18 36 18 26 38 44 26 30 50 32 52 64 84 92 112 203 259 226 189 177 181 199 167 92 40 40 88 112 199 236 228 193 212 214 230 210 226 179 169 165 132 98 84 100 90 108 104 102 108 145 147 132 138 120 132 122 110 106 90 70 82 44 68 40 44 36 22 16 44 74 98 128 165 185 179 177 


