P2
80 60
609
49 33 29 35 23 29 29 49 51 43 49 53 55 49 43 55 49 59 47 63 61 45 67 63 63 61 67 65 75 73 71 65 65 75 81 69 85 83 85 81 67 81 61 81 83 63 67 67 71 67 69 101 123 135 139 121 101 87 73 73 123 133 145 111 151 195 199 255 277 318 379 443 406 406 400 363 330 306 294 308 
49 27 18 49 27 35 27 47 43 59 57 63 49 55 55 65 53 45 65 53 63 57 65 51 57 59 67 67 61 57 63 61 61 63 69 77 69 71 73 87 77 59 77 63 65 61 65 49 69 69 75 63 71 103 81 81 49 89 75 121 187 219 229 167 249 326 351 387 345 359 330 371 402 398 396 371 343 320 310 302 
43 23 33 29 37 37 31 43 31 47 53 45 47 35 43 67 53 63 63 71 41 67 65 57 55 47 55 65 57 43 57 65 67 65 65 61 69 61 67 75 55 71 61 59 61 69 51 57 65 73 63 69 77 75 81 75 97 141 169 201 336 334 383 363 458 516 532 555 522 470 371 373 353 363 340 334 326 314 314 288 
37 29 49 31 37 45 45 47 29 37 49 51 31 39 43 45 53 47 55 51 53 57 45 61 53 53 45 65 63 57 47 61 67 57 65 65 79 75 61 75 57 63 61 65 79 69 73 69 79 75 81 69 87 81 115 163 201 219 245 275 328 408 445 451 452 482 516 572 555 559 528 404 342 330 324 308 296 310 284 286 
35 27 25 25 51 33 35 45 37 49 45 35 45 43 41 39 51 49 41 43 51 51 37 49 57 55 47 57 71 59 63 69 57 71 75 75 65 67 71 75 75 71 75 69 75 69 79 75 83 85 79 85 87 107 183 249 292 263 284 271 369 466 518 482 482 505 530 526 570 595 578 499 400 345 365 357 345 336 345 347 
49 16 39 49 27 31 33 37 39 29 43 49 33 43 39 43 53 37 61 49 49 51 51 53 57 57 59 69 61 61 61 67 63 65 89 63 87 89 69 71 75 81 89 79 81 77 73 93 77 87 75 87 95 131 269 298 349 267 275 284 385 478 497 466 503 491 501 513 536 582 514 437 394 373 369 383 365 347 328 328 
57 29 33 35 49 41 29 49 49 47 49 53 51 37 57 47 55 53 45 53 63 65 55 55 57 59 61 69 49 69 73 67 73 75 81 89 93 89 81 97 81 83 93 99 93 87 87 81 89 85 87 99 111 145 277 342 330 318 316 298 349 466 499 474 522 532 509 507 505 528 408 441 394 392 389 369 349 324 324 340 
31 14 27 55 33 41 39 55 39 57 57 49 45 49 39 55 41 49 51 57 65 57 55 69 49 77 59 71 71 75 75 87 79 71 83 69 91 83 83 97 83 91 85 91 93 79 101 105 89 89 99 97 101 171 265 275 322 306 298 231 251 396 485 505 520 534 497 480 443 410 340 389 353 349 369 373 357 330 340 343 
23 27 23 37 31 41 35 51 47 51 59 49 51 43 45 45 63 57 59 83 61 57 69 59 69 73 69 73 69 79 73 79 81 75 85 93 99 95 87 97 85 91 85 91 93 91 83 89 99 97 105 105 109 241 261 275 279 271 241 191 187 312 478 499 520 526 458 406 340 338 343 400 371 387 389 390 363 343 349 353 
45 31 37 35 33 53 39 49 51 51 63 53 53 47 61 55 55 63 63 55 53 59 69 67 69 77 77 75 71 77 67 71 69 73 101 91 101 95 95 107 87 95 87 83 87 91 79 83 99 95 91 101 143 336 373 249 263 257 233 175 167 231 365 474 489 437 363 342 292 316 408 478 462 421 390 385 357 347 345 355 
16 16 37 39 35 39 35 49 47 53 51 55 47 43 49 47 65 47 65 65 41 61 63 69 69 75 71 73 73 71 81 69 55 75 89 81 91 89 91 87 87 85 81 87 75 81 103 87 95 83 99 97 163 389 445 288 257 221 191 175 181 235 334 365 342 308 351 385 369 359 443 447 441 402 383 371 375 369 379 377 
29 41 51 45 47 49 51 47 43 57 65 51 41 53 59 63 61 57 69 65 57 69 75 67 71 89 67 73 75 65 75 83 75 67 81 87 89 97 85 89 75 81 87 101 81 91 85 83 89 89 97 99 181 394 437 363 153 181 189 175 219 292 318 306 306 338 371 454 443 462 462 443 439 390 371 369 379 394 410 394 
23 31 45 37 57 57 43 53 55 55 53 49 43 59 43 63 61 53 55 65 63 49 53 59 61 75 73 71 67 83 67 73 75 87 85 87 89 87 89 93 93 85 73 87 93 97 91 95 87 89 103 103 205 421 443 237 121 121 129 129 229 288 332 257 298 322 347 398 445 470 456 443 408 371 381 390 373 396 396 379 
41 25 43 49 31 57 43 59 45 57 55 53 47 51 39 45 53 51 61 67 53 67 55 71 67 79 63 75 65 75 61 85 69 79 79 77 91 89 85 83 79 79 79 93 87 89 89 83 101 93 93 101 219 385 402 191 133 123 129 133 153 263 298 259 282 300 312 320 330 406 385 365 371 377 379 392 379 373 387 383 
41 37 27 51 45 45 45 37 49 51 55 49 55 43 33 41 65 57 69 55 63 61 59 61 61 75 67 63 73 75 79 69 69 79 65 71 73 79 81 77 81 91 79 81 77 77 87 73 77 83 101 117 223 387 394 332 310 324 363 369 330 398 489 483 489 396 314 286 316 373 347 340 349 359 377 373 383 394 420 441 
33 25 39 41 41 51 35 59 41 53 49 33 53 39 53 57 57 59 63 57 63 65 61 63 57 77 53 63 61 57 67 77 65 67 81 79 85 79 79 87 87 75 65 87 79 87 91 79 91 89 95 99 217 414 462 509 483 493 514 507 474 487 470 487 544 513 433 349 375 375 334 349 342 351 357 367 394 435 474 501 
35 27 41 53 51 41 47 57 39 49 43 37 41 43 49 55 51 53 43 47 51 51 55 57 65 61 55 75 59 57 63 75 61 49 61 75 75 73 79 83 87 77 67 79 75 83 93 87 83 81 95 111 292 472 549 597 551 542 538 513 483 505 460 443 536 518 449 385 410 355 330 353 345 357 375 394 400 435 458 497 
33 33 33 43 35 37 25 31 41 39 51 33 43 27 37 35 55 57 55 53 55 47 53 59 65 73 55 67 67 63 57 67 61 71 75 69 85 77 79 89 95 81 75 91 77 83 79 103 99 91 95 123 369 483 557 603 582 574 532 507 478 487 501 456 538 441 336 379 367 375 359 365 359 377 396 398 420 462 487 485 
29 31 39 49 31 35 43 45 41 49 51 43 47 45 43 57 57 51 61 63 53 61 59 53 77 71 63 67 67 79 71 83 73 73 83 83 93 87 79 93 87 95 83 91 85 95 91 103 85 99 105 143 377 476 559 609 588 570 588 549 516 507 487 437 495 357 308 349 385 389 347 369 361 390 447 462 507 511 522 480 
39 37 47 39 51 35 35 49 39 47 63 49 51 33 45 63 45 61 53 63 61 59 57 63 75 69 61 63 71 73 79 77 85 79 89 85 95 95 93 105 93 95 107 89 91 97 111 101 107 115 107 119 292 454 509 580 570 553 553 547 524 435 355 322 304 310 340 381 355 365 349 357 379 404 478 511 518 534 513 431 
47 57 43 65 51 35 39 47 47 53 73 59 61 47 49 47 55 67 63 59 69 55 69 65 77 83 69 69 79 79 83 83 87 69 91 101 97 95 95 109 87 91 85 103 93 89 107 93 97 111 113 125 139 253 373 485 514 501 493 439 336 199 159 155 209 316 336 383 371 369 383 398 400 402 476 503 489 458 392 322 
31 51 53 31 49 49 47 61 55 53 59 49 59 61 43 65 63 59 75 73 65 65 71 73 85 79 69 79 77 85 85 85 73 77 85 87 101 103 99 99 99 95 91 97 89 93 97 109 105 103 113 113 125 127 183 239 267 312 273 219 145 123 131 131 157 245 353 359 345 394 389 396 373 387 443 420 342 279 227 173 
41 45 49 59 57 47 51 51 41 57 57 47 57 45 51 57 55 71 63 71 55 69 63 75 77 79 69 75 83 83 77 87 77 89 79 95 101 89 103 101 83 95 89 101 95 93 105 113 111 107 107 115 117 109 133 141 133 143 302 357 251 147 125 111 153 203 282 359 369 394 387 390 363 349 334 282 245 217 195 159 
25 35 49 41 55 41 43 55 37 43 53 57 55 59 49 57 61 55 63 65 67 69 71 77 73 75 69 67 81 77 75 73 91 83 81 91 93 87 83 107 81 93 91 95 95 101 99 109 109 109 101 113 119 103 113 125 165 334 421 412 381 304 191 113 165 203 235 342 375 398 357 336 286 265 241 247 227 203 201 223 
25 45 51 65 57 69 47 61 43 51 63 57 59 57 67 61 73 51 69 65 73 71 85 69 81 85 83 81 77 73 83 85 77 83 95 85 105 93 103 101 99 97 95 101 91 93 113 99 103 95 103 125 127 121 131 195 320 390 402 389 379 389 312 171 155 191 233 316 353 396 326 279 245 231 249 247 237 227 207 233 
55 45 49 63 59 55 51 51 53 53 65 55 59 59 63 57 75 57 59 69 65 71 73 73 81 69 73 89 93 83 79 83 83 89 81 87 83 87 89 109 105 103 93 95 97 89 93 107 107 109 101 113 111 117 149 296 377 402 387 379 351 343 373 257 201 189 223 304 343 385 300 265 245 239 233 247 241 227 231 239 
31 45 57 45 51 71 47 55 47 53 69 55 59 59 47 57 69 71 77 77 65 65 73 83 85 71 81 81 83 77 79 83 91 79 95 93 105 95 93 107 93 95 95 97 103 95 101 105 101 109 103 101 111 109 197 371 400 392 351 292 310 336 351 338 275 227 219 267 324 363 306 247 231 243 253 233 247 225 229 253 
41 37 49 47 33 43 39 67 39 53 61 47 41 49 51 53 63 69 57 59 49 59 53 67 79 75 73 77 75 79 79 79 79 73 77 87 89 101 91 103 89 95 97 101 95 97 95 105 101 93 103 103 117 125 296 377 390 343 195 205 308 361 347 328 334 282 273 314 308 359 310 253 249 245 265 231 237 219 247 324 
53 41 55 53 39 59 43 49 39 49 57 59 53 53 55 65 53 57 55 61 53 69 55 77 79 73 59 69 67 59 83 69 73 77 75 89 75 85 89 97 103 87 85 91 91 87 93 103 103 97 101 109 109 191 349 377 304 155 127 143 245 294 304 275 286 288 298 338 318 357 308 273 247 253 269 231 243 251 300 320 
35 35 37 49 59 49 35 57 59 41 59 49 47 35 39 57 53 55 63 69 55 65 63 57 75 81 75 73 63 67 71 73 67 75 85 91 81 75 83 95 93 87 85 85 89 89 91 79 89 83 93 143 155 273 316 298 143 107 91 117 213 314 308 267 284 300 334 338 343 351 332 300 215 239 249 277 273 300 336 353 
37 35 45 55 41 55 39 41 39 49 53 59 41 47 37 47 51 57 57 63 65 57 57 59 63 73 61 63 63 79 69 69 73 73 85 77 89 79 75 97 75 81 79 85 93 81 93 89 85 97 85 111 231 326 286 135 93 79 93 81 165 296 318 223 205 261 304 340 351 367 342 359 257 203 261 255 259 330 377 338 
47 41 51 55 61 35 41 47 39 37 53 47 47 25 35 37 51 51 57 71 53 63 57 59 69 57 65 61 65 61 65 57 61 69 59 73 75 81 83 95 73 87 71 97 75 85 85 89 91 81 79 131 298 394 284 113 81 81 81 79 111 255 233 179 189 263 294 342 369 381 365 361 328 211 259 237 290 343 375 336 
45 41 53 49 43 37 43 45 39 39 37 33 53 37 47 45 67 51 59 47 49 49 57 67 69 71 71 67 73 71 63 71 69 79 79 77 89 91 81 83 83 99 81 107 81 95 103 89 89 95 105 127 271 416 439 231 109 79 89 79 99 221 247 286 197 288 314 373 387 396 363 347 381 275 275 269 330 340 347 340 
35 45 51 51 33 63 53 47 57 47 67 63 53 55 49 55 39 55 63 65 49 61 73 55 69 73 81 65 73 69 79 71 75 73 75 75 83 93 91 95 81 95 77 87 83 95 105 91 97 95 105 135 235 416 480 396 197 115 87 73 89 213 282 275 229 269 304 371 383 404 347 343 392 314 306 294 336 334 330 330 
37 33 43 57 41 47 45 59 47 49 67 47 35 47 51 63 55 67 71 59 47 57 65 67 65 63 63 71 73 67 81 69 71 69 81 81 95 83 81 85 89 91 85 91 91 95 95 87 97 93 101 113 211 328 420 385 263 137 89 99 91 163 243 231 227 279 322 383 390 412 332 277 343 334 296 314 343 318 322 328 
20 35 53 49 49 37 55 41 39 45 59 47 49 69 57 55 65 65 65 61 59 65 63 75 69 71 57 75 71 61 81 81 71 87 89 85 85 83 91 95 85 95 91 97 87 93 101 101 105 93 109 101 121 165 237 195 165 93 115 113 155 235 288 330 340 351 318 394 398 414 318 267 288 302 330 314 326 314 318 318 
41 37 39 51 41 43 57 49 55 47 59 43 47 51 47 55 61 47 59 67 69 69 65 77 65 73 73 79 83 73 85 83 65 79 85 87 99 89 89 91 97 91 97 97 101 95 93 99 101 99 99 101 109 101 123 121 97 97 161 284 363 441 437 414 456 418 389 406 404 398 318 300 284 280 314 320 271 304 294 312 
29 53 45 45 39 61 51 49 41 43 63 43 69 63 57 55 59 63 63 73 73 69 59 71 71 79 71 77 85 85 69 75 81 83 79 93 89 79 91 87 87 101 89 101 107 89 107 95 97 99 111 111 117 105 121 137 149 137 237 312 349 454 487 507 493 443 400 431 420 392 324 349 273 207 273 279 235 292 279 304 
39 41 47 41 35 55 47 55 61 53 43 53 49 81 57 61 71 65 79 81 57 69 57 63 75 81 71 87 75 81 79 81 89 93 83 99 89 105 87 103 99 101 97 103 97 101 103 105 99 99 101 111 123 121 147 227 320 247 298 322 271 398 483 507 499 451 437 447 427 387 314 355 282 185 221 249 241 279 247 275 
35 51 41 45 49 53 39 51 61 61 65 45 55 57 55 61 67 55 81 67 63 61 79 71 83 73 73 91 81 75 81 75 93 87 85 81 93 83 89 111 97 101 103 111 89 97 107 93 97 109 115 111 103 115 151 247 316 324 284 302 286 340 439 466 452 439 423 437 423 359 312 332 316 195 177 229 245 237 215 261 
31 53 43 49 41 57 43 43 49 45 59 57 45 59 59 71 79 63 57 71 73 71 67 65 67 83 81 77 95 83 77 73 75 83 83 85 91 101 93 95 95 85 89 105 107 103 99 97 111 107 91 103 107 107 163 259 294 359 288 296 279 310 385 406 427 410 412 441 427 369 338 324 334 215 201 219 221 201 221 237 
29 45 45 39 47 47 41 53 57 69 61 53 53 49 63 73 71 51 73 65 57 63 63 71 77 81 61 81 73 77 83 85 89 83 83 89 101 85 101 109 87 95 87 111 95 111 109 109 107 113 97 113 109 99 139 233 247 286 275 290 290 324 396 394 400 418 416 474 427 396 367 349 349 239 259 239 239 231 207 209 
35 39 55 55 33 53 49 49 45 57 57 49 43 55 53 59 69 69 69 63 71 57 65 67 83 81 77 69 69 67 61 73 79 77 73 87 101 93 95 93 91 99 89 107 105 101 115 105 95 109 111 125 109 105 117 207 249 259 280 292 302 371 414 355 385 400 412 421 421 392 398 371 367 290 320 261 245 284 263 231 
31 39 59 47 35 49 53 57 41 49 61 59 67 57 49 51 55 63 73 65 67 61 63 65 79 85 83 81 61 69 77 71 63 85 91 93 95 97 81 89 99 113 101 105 107 103 117 107 111 119 113 117 111 101 111 143 237 253 255 265 263 267 304 355 355 363 412 435 383 336 338 361 355 300 269 279 269 263 267 255 
35 41 41 47 47 53 39 61 51 51 67 49 53 39 57 57 71 57 73 79 61 61 75 67 71 77 73 73 61 67 67 79 59 85 81 79 87 87 79 99 85 95 91 113 97 105 117 107 113 117 119 121 115 97 107 93 149 183 187 173 149 155 294 326 345 336 353 353 334 312 267 275 253 221 241 247 267 253 257 257 
33 57 51 45 59 49 37 47 49 41 59 33 59 33 43 57 55 51 51 65 43 53 65 77 63 59 55 65 53 55 61 67 67 69 59 75 93 85 81 87 83 97 95 105 109 105 111 109 113 121 117 121 103 101 91 89 85 107 103 103 113 215 349 338 340 322 357 342 320 280 183 131 175 191 221 247 263 261 263 273 
37 49 43 59 49 53 43 69 45 55 51 53 53 27 57 51 49 45 63 63 67 61 51 65 53 67 77 71 51 57 55 69 61 71 73 67 81 85 95 91 81 91 103 99 99 101 105 97 121 113 113 115 109 107 91 89 81 63 65 77 129 294 343 334 334 316 343 369 359 211 93 85 137 181 223 261 271 269 277 300 
33 20 39 23 41 43 39 49 45 47 61 49 45 45 49 47 59 41 55 63 55 59 55 69 57 69 59 65 59 55 55 67 63 71 65 71 75 81 89 81 89 89 91 101 107 111 111 117 119 105 115 125 117 99 111 81 81 73 73 85 195 312 314 318 326 334 406 443 400 261 181 201 209 221 255 286 282 296 304 324 
43 27 37 41 45 41 41 45 43 51 67 51 37 47 59 45 57 51 53 67 57 67 57 69 65 69 71 81 73 71 61 65 61 73 91 81 99 91 89 89 89 103 99 109 113 129 113 113 119 111 111 121 105 97 97 85 71 85 79 107 247 322 353 296 312 330 351 363 355 288 245 253 253 253 261 286 298 300 312 322 
37 37 49 53 37 47 45 61 35 53 53 59 51 57 45 61 69 53 59 57 67 61 59 63 61 83 61 61 69 71 83 89 69 81 93 97 95 103 81 89 97 101 107 127 123 131 121 127 135 111 109 107 121 115 97 87 85 87 85 119 251 347 361 318 298 306 296 310 286 275 237 261 277 273 261 263 286 304 308 306 
31 47 45 57 53 49 45 53 45 49 69 57 49 51 59 63 65 63 73 55 69 59 63 77 63 67 67 75 71 79 83 75 81 85 99 87 85 91 103 113 97 109 105 127 123 125 125 115 131 129 117 119 109 101 117 97 103 83 87 109 261 355 365 340 312 304 280 269 255 245 241 265 288 257 235 257 306 316 290 282 
41 27 35 25 49 53 45 47 47 55 63 51 51 45 57 55 49 63 75 65 63 65 69 77 61 63 67 79 75 75 71 81 75 67 81 95 89 89 95 91 101 109 109 109 105 111 135 115 125 119 125 129 111 105 89 105 77 99 87 129 282 320 328 342 312 288 265 271 257 249 241 253 271 239 235 275 282 280 284 267 
33 29 43 57 53 53 55 53 39 63 63 49 59 43 61 61 59 53 69 67 71 73 83 77 69 75 73 85 83 69 85 93 75 89 87 101 99 99 99 91 95 105 111 111 111 115 105 131 121 119 113 117 119 97 135 125 123 155 129 197 320 324 330 342 298 294 273 269 247 231 231 249 255 219 219 251 267 253 280 245 
18 35 47 43 47 49 41 49 45 49 53 49 43 55 49 67 63 61 71 75 73 75 73 81 61 73 73 89 79 81 75 77 79 75 93 101 105 99 91 93 87 87 93 101 109 97 103 119 111 115 119 145 153 219 330 379 383 398 310 306 320 330 336 330 320 296 267 263 259 245 231 227 219 203 191 223 231 225 239 221 
37 33 45 49 53 57 39 37 49 47 41 49 65 47 57 63 69 65 71 55 63 85 73 77 71 73 61 65 73 71 85 85 83 87 93 85 89 97 93 89 91 91 95 95 91 95 99 103 103 111 175 277 365 385 433 437 458 487 427 377 367 347 410 359 328 300 275 249 245 225 193 189 211 173 183 211 221 207 209 199 
33 31 35 33 29 37 27 53 37 35 61 53 31 43 47 55 67 65 69 77 67 79 77 75 81 71 69 73 77 65 79 75 71 75 83 81 97 91 83 101 91 97 95 97 105 97 99 103 109 129 251 342 416 389 425 435 474 507 480 456 445 416 425 387 347 296 263 249 233 227 209 211 199 179 163 183 185 191 187 189 
27 31 51 31 35 43 37 41 27 39 39 43 39 39 49 45 61 55 73 65 73 71 67 61 79 75 59 87 67 61 75 77 79 83 83 77 89 87 89 93 75 103 95 101 105 95 101 91 109 147 292 345 383 390 402 431 483 516 491 491 489 466 427 390 322 275 239 241 239 237 225 217 205 165 149 163 159 163 163 155 
12 29 31 33 18 35 25 37 31 41 49 33 39 25 53 65 65 49 61 57 57 57 59 63 83 71 63 65 69 69 67 75 63 75 79 79 81 73 87 75 87 95 85 95 91 81 85 93 105 185 286 330 371 390 420 452 509 509 497 483 482 460 445 387 302 263 227 241 239 243 233 219 183 163 143 143 139 147 143 145 
14 31 20 27 18 31 27 27 29 29 41 27 35 23 55 49 43 47 47 61 61 55 53 63 57 65 67 75 63 69 59 65 69 85 87 79 83 83 101 83 83 83 93 77 83 73 83 71 101 187 271 314 369 416 423 437 495 505 497 499 480 456 435 359 280 261 259 237 245 233 201 201 199 175 159 139 115 139 133 161 
14 16 0 20 14 16 8 35 35 23 33 27 33 23 35 43 45 37 57 59 45 59 47 57 71 55 53 67 57 53 55 53 69 63 75 83 93 79 89 87 81 89 91 83 91 83 87 83 101 177 296 367 383 408 425 447 493 526 522 493 466 427 394 298 269 288 253 253 235 227 171 197 199 203 193 165 141 143 153 161 


