P2
80 60
864
251 265 272 253 261 268 272 282 282 280 270 280 274 274 286 288 290 294 276 282 274 282 282 286 308 480 657 669 657 638 592 578 570 576 572 566 574 576 584 572 582 614 634 624 642 655 667 687 683 661 642 590 514 482 452 468 460 444 420 402 389 406 420 406 412 398 391 381 381 430 418 424 408 404 436 474 474 466 498 486 
259 263 249 276 259 268 278 282 270 294 261 251 263 272 280 282 292 270 282 270 278 284 282 292 310 492 675 707 689 675 644 592 590 570 574 562 554 548 548 542 564 570 596 584 586 600 644 669 667 673 646 614 564 538 518 512 496 488 458 434 432 430 442 408 391 391 391 395 434 450 426 422 393 371 408 462 468 438 452 462 
253 282 259 274 261 276 245 282 278 278 276 261 284 284 284 274 282 290 286 282 296 306 298 304 339 504 602 693 685 685 655 622 592 562 556 566 540 550 566 560 554 566 566 542 534 544 558 654 699 697 715 665 618 566 534 568 548 508 482 478 480 470 466 466 436 422 430 436 442 472 448 410 400 377 418 472 494 478 462 470 
268 280 268 270 253 282 253 276 288 282 272 270 263 290 272 292 294 310 339 345 408 404 373 341 402 534 580 654 738 717 689 650 620 582 576 566 566 558 544 530 528 546 554 516 518 516 512 552 669 728 732 707 648 640 592 584 548 524 520 484 512 496 512 478 466 484 506 472 456 450 442 438 440 410 438 500 512 504 468 452 
263 272 247 263 255 255 261 276 278 284 278 263 270 294 292 292 324 430 536 556 612 689 624 568 586 717 654 652 689 746 720 687 648 592 570 566 554 552 556 568 600 612 610 572 562 538 520 520 562 711 705 689 646 640 604 578 548 520 506 510 524 510 514 476 460 514 536 510 482 468 456 424 470 432 440 452 448 385 341 343 
276 272 257 270 255 259 249 272 278 278 280 282 290 298 292 322 416 586 638 713 767 777 773 800 822 831 793 750 693 671 675 681 655 620 588 570 570 556 578 588 592 604 600 580 546 514 504 502 516 644 699 679 630 634 584 588 552 502 474 504 504 468 458 464 496 512 512 496 484 452 422 391 398 361 330 328 308 251 292 306 
278 278 270 255 261 272 274 284 286 286 286 282 274 300 302 343 496 578 724 765 787 789 802 818 827 864 829 820 820 724 681 644 610 568 564 560 580 592 586 598 604 598 572 548 534 522 518 510 508 558 654 618 582 608 594 582 556 500 468 460 452 436 442 454 488 470 484 476 446 400 357 335 316 272 296 292 284 241 278 304 
280 265 274 282 265 286 276 298 280 286 290 278 296 296 296 385 518 636 744 742 783 796 781 791 785 795 812 818 822 738 675 628 596 604 608 596 584 570 566 598 622 606 560 546 552 546 532 532 514 500 584 610 498 494 552 568 520 500 452 436 450 460 462 456 462 444 430 389 353 326 298 298 294 276 280 302 286 276 298 292 
276 278 272 268 268 282 284 306 280 286 294 296 290 304 306 347 502 657 775 775 771 793 754 758 728 687 699 697 717 640 659 673 655 644 638 634 614 616 606 604 606 608 606 590 592 572 576 572 542 512 576 548 490 462 434 464 490 480 448 458 454 448 436 402 393 369 353 335 322 312 324 330 296 292 298 312 288 284 296 294 
272 284 276 278 284 276 280 282 272 296 290 288 286 310 310 341 464 600 720 750 756 771 722 705 624 422 371 395 474 574 722 730 736 685 648 620 618 598 606 598 594 592 592 604 632 628 604 574 568 546 550 526 486 490 458 460 448 446 393 385 361 365 363 330 335 328 333 314 310 316 320 324 316 318 314 314 292 278 300 296 
272 272 294 282 270 284 272 284 290 298 288 290 296 298 304 300 357 482 602 663 705 701 634 526 369 326 335 335 343 426 654 720 707 689 659 618 608 588 592 578 600 624 644 685 720 705 582 480 488 496 482 454 414 398 379 381 379 351 326 318 326 320 330 320 318 322 320 330 326 328 337 349 345 333 337 333 310 304 298 300 
261 278 292 274 278 300 284 298 294 298 314 306 290 282 300 298 320 341 377 400 430 395 363 330 322 312 328 330 345 363 520 715 730 681 648 612 612 620 624 624 650 661 661 746 764 746 693 572 440 408 422 420 400 418 398 375 383 375 347 339 322 328 341 316 337 345 333 345 349 333 345 365 351 353 339 339 333 316 300 314 
280 272 284 278 294 282 286 298 286 302 300 296 294 300 298 298 320 320 306 296 304 310 310 306 308 312 326 320 339 365 464 693 713 669 652 614 620 620 614 590 588 616 638 726 717 709 703 707 612 508 532 560 580 608 580 548 538 548 524 488 446 418 408 377 363 357 351 353 339 367 357 365 381 373 371 371 345 341 337 318 
274 282 284 282 284 296 300 314 296 298 306 288 290 306 294 302 298 296 294 282 290 296 296 294 302 308 306 318 343 391 584 746 713 671 659 667 661 665 652 632 638 644 663 679 648 663 659 693 705 677 655 632 679 687 659 628 606 606 600 572 562 554 550 542 506 484 450 430 395 412 406 416 418 418 395 389 389 337 355 359 
278 294 272 294 290 278 290 294 290 308 304 298 312 296 288 306 300 310 284 288 298 306 298 298 302 298 304 326 347 428 693 748 756 734 722 764 752 709 675 654 657 683 689 652 628 644 644 657 673 685 697 675 687 673 667 665 665 638 596 568 598 580 624 584 572 570 522 492 484 460 462 470 468 464 486 472 468 464 444 446 
280 290 280 294 288 282 282 302 280 294 298 286 288 288 288 292 288 292 298 288 290 304 300 312 296 300 324 328 361 452 705 750 754 769 781 765 748 693 665 659 669 683 669 652 616 618 624 628 673 685 689 677 695 681 675 673 655 640 616 578 618 616 632 612 596 608 586 524 480 452 460 478 472 470 472 500 490 486 502 482 
288 290 284 286 265 292 284 292 296 294 272 290 288 304 284 284 292 286 296 290 290 300 300 310 324 316 343 345 408 524 610 717 785 791 773 765 726 679 650 659 679 707 669 657 642 620 608 608 655 661 675 642 673 673 630 624 638 644 630 628 618 632 612 604 620 600 614 554 520 470 470 496 478 496 486 478 498 474 518 514 
292 298 296 294 284 304 290 292 290 306 302 296 302 302 304 304 308 302 312 300 306 302 322 316 341 351 353 395 536 654 679 713 762 775 777 764 718 665 655 671 685 687 671 650 632 634 602 626 646 636 636 671 665 669 626 596 600 606 636 634 628 620 646 634 612 608 618 584 520 480 492 502 508 506 498 492 502 484 498 486 
263 296 296 280 284 292 294 310 300 306 316 286 294 312 296 306 320 302 316 298 324 330 328 363 406 414 464 524 705 816 781 705 691 675 689 691 657 642 646 655 663 681 648 636 618 624 602 648 691 673 679 699 661 582 548 556 560 574 618 616 598 596 598 572 574 574 578 560 516 456 474 458 458 470 474 490 492 468 480 492 
288 306 292 296 286 294 286 300 292 294 322 302 294 312 314 312 312 316 318 304 330 379 442 588 693 717 758 810 814 835 818 732 685 667 695 711 679 654 632 644 663 685 659 644 630 620 602 681 711 709 691 687 630 566 520 534 554 586 558 564 544 506 462 440 432 460 464 434 418 412 389 385 383 395 414 428 470 462 486 488 
284 308 294 300 294 292 298 304 292 304 304 310 298 302 316 314 312 312 308 324 450 622 724 734 742 746 777 796 847 826 802 732 728 748 730 730 687 659 644 648 650 673 652 620 620 624 620 713 718 707 685 618 588 572 560 570 568 616 588 512 414 387 400 398 385 398 402 395 398 377 395 381 408 438 470 476 474 484 500 474 
276 292 310 302 290 296 288 298 320 300 302 308 290 312 304 312 306 298 330 387 614 760 740 728 718 732 777 781 851 837 693 760 793 795 789 748 713 665 636 646 630 636 632 630 632 628 661 695 726 669 626 614 616 628 600 592 596 620 614 632 536 438 412 381 393 383 391 398 373 383 404 474 498 530 530 526 526 510 494 472 
274 296 298 300 296 296 296 310 306 300 302 304 314 300 304 324 324 324 337 438 705 781 760 732 734 771 785 795 804 728 685 779 787 773 777 767 732 681 659 640 634 655 654 652 657 661 671 703 673 612 630 644 669 667 689 655 630 640 646 638 634 612 556 456 446 442 440 420 428 448 522 566 590 574 560 570 522 484 474 416 
280 288 288 298 300 300 308 294 292 306 308 298 302 310 316 310 326 318 333 446 659 777 744 764 779 765 767 699 648 620 709 765 781 762 752 781 744 703 685 648 634 638 654 657 679 695 695 701 640 630 669 689 697 707 726 689 652 659 671 648 675 671 671 636 620 618 608 578 546 544 574 584 584 574 564 528 492 430 402 369 
280 304 284 306 296 290 290 306 298 288 318 306 304 308 324 308 310 322 333 375 584 736 736 754 771 740 685 508 434 584 793 781 744 715 689 715 699 726 718 711 685 687 663 661 665 703 720 705 677 695 717 738 724 762 752 715 646 642 669 667 669 671 681 673 675 659 644 618 578 556 556 554 536 534 512 470 402 375 375 369 
308 290 318 298 304 310 312 302 310 316 326 300 310 298 318 318 318 310 322 337 452 614 718 726 726 588 432 393 391 516 769 722 695 667 646 640 677 718 744 742 740 756 738 722 717 734 732 732 715 720 738 724 726 738 732 669 606 616 667 689 677 669 681 661 665 646 667 628 592 558 526 512 500 464 438 389 367 369 369 351 
294 294 300 314 306 280 286 298 292 292 310 304 296 316 316 312 310 300 320 310 341 420 496 506 456 349 365 359 369 450 720 722 711 705 659 654 697 715 742 765 779 779 748 715 713 722 707 683 675 663 673 636 598 640 648 616 572 582 616 652 671 661 659 648 640 628 624 610 594 556 500 470 448 410 377 379 343 353 353 349 
290 308 294 298 284 290 288 304 298 314 312 308 288 300 312 310 306 310 306 302 312 318 328 324 324 333 349 357 363 406 548 709 726 736 713 707 681 717 752 748 756 777 769 726 726 715 584 522 490 506 524 530 522 552 566 556 538 538 578 622 632 640 636 616 634 620 602 600 562 512 460 430 389 375 371 355 339 335 339 337 
278 288 302 286 300 308 284 292 308 296 306 294 304 306 306 304 304 312 306 298 304 316 326 312 328 320 335 351 359 385 424 482 576 689 697 713 693 740 756 744 738 764 760 740 742 530 398 410 398 398 418 406 373 385 375 398 404 420 458 492 518 534 556 568 554 562 538 506 472 460 428 408 379 365 349 341 339 322 333 335 
288 296 298 292 288 300 284 294 308 294 300 290 292 302 312 288 296 304 304 288 302 304 304 312 316 310 326 343 361 466 518 504 514 616 724 724 715 728 734 736 744 740 754 740 590 406 375 389 387 377 385 385 371 363 363 357 369 357 349 347 341 357 369 373 369 383 408 404 430 428 424 402 385 359 341 349 339 316 328 333 
284 288 308 302 300 298 280 298 294 296 304 302 292 292 308 298 296 302 302 288 308 304 306 312 326 314 337 375 536 709 699 661 626 663 657 665 679 689 726 730 715 728 744 697 486 373 365 387 389 387 395 406 416 389 379 395 416 408 379 383 375 375 395 379 395 400 404 410 426 416 398 404 383 347 328 337 322 302 341 341 
280 296 292 286 294 294 286 288 298 306 294 300 306 292 302 314 308 308 306 298 294 304 318 318 333 322 345 448 697 720 715 713 663 652 655 632 644 679 705 689 713 717 717 628 492 383 389 438 448 456 498 508 488 438 410 478 560 580 568 558 568 514 474 454 456 448 430 442 426 406 408 387 367 349 330 335 318 314 363 375 
278 288 286 302 280 296 298 310 312 296 308 290 298 320 314 316 306 308 310 302 312 330 330 328 333 330 345 398 534 624 640 687 689 683 709 697 679 718 711 713 697 705 681 608 560 528 512 572 554 538 544 530 510 468 448 492 574 586 590 594 592 550 498 488 480 472 462 490 420 414 412 398 381 355 343 351 333 337 377 504 
282 302 302 292 302 304 298 316 290 300 304 286 294 306 314 312 314 310 314 314 343 464 486 484 478 484 492 440 448 436 500 695 685 699 709 718 715 705 685 681 659 655 628 632 671 614 582 616 554 488 510 478 510 512 468 486 510 528 516 560 554 534 524 500 486 480 468 484 444 424 414 404 377 355 343 357 367 387 488 586 
265 304 280 286 292 280 304 310 300 298 302 300 298 298 310 320 314 314 322 318 448 640 667 697 715 699 715 679 538 454 586 728 742 691 681 689 677 669 650 622 650 624 598 630 659 608 608 618 558 494 474 458 494 518 504 496 516 532 524 520 530 522 510 490 492 488 490 492 482 450 452 476 460 442 418 416 446 500 560 564 
261 294 308 284 310 296 292 310 288 296 300 310 286 308 314 302 312 318 337 361 512 681 681 726 756 713 697 722 683 608 695 703 732 707 657 673 665 624 608 602 638 624 600 592 608 604 598 602 560 484 474 478 498 532 552 520 526 524 520 526 518 526 512 502 490 492 496 506 498 490 496 516 514 536 532 520 506 534 562 548 
290 298 290 306 296 290 284 312 310 324 318 308 312 318 318 308 322 318 337 395 548 648 612 697 748 748 756 765 703 722 697 687 677 663 644 655 646 570 514 596 600 648 618 570 604 592 598 600 558 512 478 474 490 496 518 502 522 534 522 528 504 512 518 510 500 502 514 520 526 522 516 528 536 552 552 554 550 544 574 544 
286 308 302 298 282 294 294 308 306 308 320 306 310 306 314 310 320 314 335 371 528 566 608 677 750 789 798 773 738 705 667 659 709 659 610 614 544 484 440 592 610 624 608 562 608 576 578 582 546 528 466 424 432 480 502 458 480 530 522 504 500 500 504 504 516 546 544 548 550 536 536 540 540 550 554 552 554 528 566 548 
286 286 286 288 282 308 302 308 310 314 316 302 304 306 314 320 322 314 324 347 474 528 548 642 724 752 769 756 746 703 661 673 709 654 600 560 526 512 462 568 610 604 608 574 576 542 550 566 568 518 444 424 442 494 494 472 496 520 522 516 496 518 526 524 538 542 538 518 532 536 546 546 556 558 562 562 534 506 546 566 
276 290 284 294 290 310 292 290 294 298 304 312 308 304 312 320 326 316 324 300 381 510 592 618 724 736 722 695 689 665 683 699 697 679 588 550 514 480 428 512 562 588 618 594 584 560 602 620 560 504 444 438 466 522 514 520 518 530 518 528 532 548 578 574 570 568 578 554 546 546 544 576 564 558 558 542 474 440 470 466 
280 288 296 300 276 298 294 302 298 298 310 300 294 304 298 306 316 308 312 310 330 387 462 522 608 636 570 470 480 554 707 681 701 661 586 550 520 476 426 484 556 592 596 596 618 657 683 669 580 466 438 454 474 516 514 532 528 538 516 546 568 586 598 590 614 598 608 594 580 572 552 556 554 548 542 486 402 398 408 400 
292 292 296 282 294 288 296 302 310 304 310 300 300 306 298 316 306 316 312 300 320 339 337 367 381 373 383 379 369 472 673 687 703 652 636 580 532 480 458 436 502 572 536 562 667 679 675 703 624 434 402 422 476 494 510 502 504 518 514 534 544 560 570 570 582 592 582 552 578 576 534 534 576 530 460 418 383 375 371 361 
280 290 280 290 300 296 302 294 306 308 300 302 292 300 300 302 312 304 316 294 308 318 318 316 339 330 335 349 363 408 608 687 652 618 657 620 570 542 458 418 474 568 506 562 661 695 687 689 614 406 389 373 424 464 462 468 482 480 482 498 522 534 540 554 568 564 544 538 550 540 518 512 504 432 377 371 353 353 371 341 
280 302 304 298 286 296 312 304 306 292 286 296 302 294 304 308 308 302 320 302 308 314 304 320 320 324 339 335 357 406 558 657 610 622 701 687 632 552 470 424 492 574 512 572 655 701 697 663 510 420 408 359 422 430 424 438 434 446 432 450 494 500 526 532 546 524 530 506 520 536 492 448 383 359 343 353 353 355 351 359 
274 290 278 288 278 290 298 312 306 292 284 294 294 296 310 314 310 296 302 298 300 304 304 320 328 314 328 328 351 377 526 655 646 646 693 773 750 673 624 548 574 556 512 592 628 644 628 550 428 434 393 377 404 398 369 381 398 383 400 408 438 460 484 494 492 500 504 466 490 466 410 367 333 322 322 337 324 328 347 337 
278 306 284 294 288 294 298 312 298 302 310 302 314 302 302 308 308 306 296 296 294 296 308 306 324 318 330 328 361 375 486 657 667 655 659 722 722 713 699 646 582 492 522 612 594 580 570 514 446 432 395 395 383 359 330 349 367 381 402 412 416 440 450 460 472 464 466 412 408 389 373 349 322 302 316 314 314 308 341 316 
272 296 284 296 282 298 296 302 304 304 294 296 314 298 302 294 300 304 312 304 310 304 320 310 330 330 337 341 361 371 422 586 661 598 566 584 620 620 693 681 548 506 596 624 612 562 456 442 438 422 412 391 395 367 357 373 375 365 361 361 369 385 393 381 393 385 393 393 400 385 357 347 330 300 292 300 310 288 302 282 
268 296 278 298 272 302 284 310 304 306 292 294 292 320 310 308 312 298 296 292 292 308 316 312 322 330 335 347 369 377 395 414 512 564 576 568 542 572 695 685 640 632 652 624 618 508 408 434 456 470 504 516 502 476 504 510 498 414 333 341 337 347 359 341 349 367 404 418 398 383 365 351 335 302 296 290 263 243 263 247 
268 284 290 298 276 296 304 292 314 294 296 288 304 318 314 308 308 304 312 302 320 312 314 308 326 328 353 349 365 375 381 416 412 462 524 558 548 568 711 699 683 683 681 675 657 572 560 588 622 634 616 576 538 498 488 530 530 450 351 316 312 337 337 341 337 369 400 424 408 391 387 385 347 290 288 290 255 237 235 206 
268 292 298 288 276 290 304 302 294 296 306 306 296 314 306 324 326 335 308 304 306 318 312 314 326 322 345 367 402 428 448 474 448 456 522 576 552 572 681 681 671 671 654 636 630 638 644 640 634 576 544 508 482 484 440 438 476 438 373 355 339 349 349 328 322 351 402 410 402 389 385 365 347 294 261 249 216 221 190 200 
259 290 284 290 280 284 292 304 294 316 308 330 343 375 365 428 514 556 488 466 442 357 341 322 333 326 367 416 504 526 514 470 414 395 462 524 540 552 576 562 576 576 578 558 572 576 584 582 532 524 510 502 482 500 476 468 454 430 398 406 375 357 359 335 320 339 371 377 395 369 367 371 339 278 247 212 177 165 156 161 
272 294 284 278 276 306 286 296 294 304 308 361 426 432 494 570 624 667 691 685 632 502 502 391 343 333 416 502 524 524 496 448 383 414 476 516 502 522 502 480 482 500 518 496 490 508 500 498 492 492 530 522 492 484 482 494 480 458 412 416 375 387 367 357 330 335 355 377 379 369 361 351 316 251 186 125 121 119 104 127 
257 290 288 278 286 288 286 284 286 306 304 404 470 472 512 610 612 646 695 713 697 657 618 460 322 385 496 526 510 500 466 383 355 391 462 480 500 498 490 460 448 488 494 468 452 488 474 464 478 486 522 522 492 482 484 486 488 464 442 436 404 381 373 353 345 347 341 335 341 347 335 330 298 212 161 96 63 42 34 63 
276 284 280 265 280 278 292 282 284 302 304 404 482 476 508 554 620 681 740 730 728 730 711 566 428 494 508 500 486 468 428 310 318 351 406 474 500 494 474 458 446 476 464 456 454 486 454 466 498 526 524 512 494 482 470 480 484 468 440 424 391 398 391 379 373 373 353 343 320 337 335 324 296 216 179 121 63 13 0 21 
257 294 276 268 261 286 284 286 294 296 320 420 504 536 556 582 584 640 732 750 756 762 742 683 582 526 512 496 510 440 375 263 294 255 395 482 504 484 480 460 464 478 464 438 456 476 446 468 502 518 504 468 462 452 442 432 432 432 408 404 414 408 404 377 389 398 377 351 349 363 383 406 414 387 379 339 270 150 102 90 
259 278 280 278 257 280 276 276 288 292 298 349 470 530 568 598 592 598 630 663 724 758 738 661 546 516 512 516 514 420 310 241 200 263 371 470 494 482 480 472 456 472 454 422 468 470 444 460 464 468 440 434 418 432 444 412 424 377 387 391 373 385 387 379 383 371 400 375 367 379 430 448 450 484 484 480 426 391 371 328 
263 278 268 255 270 280 263 272 272 292 284 316 410 486 580 606 642 612 616 606 644 711 681 592 536 492 478 492 492 385 294 247 204 265 343 438 490 478 482 478 464 468 436 442 504 482 438 428 422 408 402 410 402 422 422 442 416 422 367 373 371 357 351 353 361 373 379 371 379 414 422 442 478 486 484 484 478 444 448 422 
261 261 257 253 257 265 257 251 261 274 282 274 318 426 526 600 634 608 588 562 586 604 616 568 520 482 458 482 448 379 312 276 278 284 345 420 470 482 500 482 480 486 484 514 522 470 436 418 385 371 387 406 389 422 436 444 414 391 379 351 367 347 345 347 341 359 316 290 278 312 351 391 420 432 442 442 452 434 448 432 
241 261 253 247 259 253 257 257 251 276 270 278 298 318 398 488 614 612 592 564 600 566 598 566 512 416 442 484 434 377 333 318 326 308 363 436 472 482 520 522 518 508 508 516 490 456 414 404 375 369 402 414 414 450 432 432 430 416 379 363 341 343 347 339 322 328 306 239 263 276 290 345 379 393 432 454 452 442 462 438 
237 263 245 239 253 247 253 259 261 257 255 268 278 302 324 365 486 606 614 570 574 586 590 586 550 393 369 422 428 391 357 318 302 300 357 400 426 462 494 504 508 488 494 494 474 430 408 418 410 389 486 492 488 502 488 486 462 430 387 365 359 347 349 341 322 335 294 286 288 294 308 351 383 426 456 464 470 464 474 470 


