P2
80 60
565
90 116 88 72 72 82 98 72 96 110 80 96 98 102 110 102 92 100 90 74 90 84 78 98 108 140 361 436 320 255 253 310 314 296 275 259 261 277 285 281 275 277 261 216 182 186 178 176 196 180 158 180 168 202 223 214 178 194 194 212 273 263 281 281 237 202 186 214 227 206 218 204 210 229 227 235 239 261 314 322 
92 88 68 76 70 64 82 80 94 112 92 106 100 86 92 104 86 98 84 86 98 90 82 90 96 164 341 430 395 339 382 401 341 312 330 320 300 337 339 339 374 378 388 314 281 251 222 194 200 194 184 170 194 265 310 304 281 241 204 196 222 259 259 269 257 233 210 214 245 261 255 223 229 261 249 265 283 298 318 312 
84 90 90 72 84 76 64 82 70 86 82 90 104 94 108 106 76 100 98 110 114 118 100 96 124 263 374 411 475 469 440 407 332 322 318 330 330 343 364 355 337 366 363 374 351 343 314 283 241 233 208 190 243 374 403 372 363 328 271 259 271 231 218 229 251 247 241 259 283 298 283 253 220 243 251 292 306 312 326 308 
84 74 82 62 80 74 94 84 94 94 86 84 80 92 94 84 94 116 124 140 210 324 294 208 218 417 479 510 498 504 436 388 332 320 322 320 333 330 351 320 322 314 318 332 332 335 337 330 326 353 312 304 330 388 407 419 390 349 316 283 271 249 249 247 239 273 316 306 316 306 298 245 220 220 243 277 292 300 320 298 
84 78 80 72 88 74 90 90 80 94 80 92 94 84 88 102 104 174 233 332 388 461 450 430 425 459 490 508 492 483 399 374 347 335 349 332 324 341 347 326 304 304 320 302 294 292 306 320 318 324 306 314 328 324 337 382 372 353 337 294 310 304 294 273 257 310 322 312 310 306 288 279 259 231 249 288 330 316 306 263 
78 72 76 72 66 60 102 74 78 86 92 96 94 82 106 106 142 328 392 434 440 456 432 436 434 423 434 473 471 454 421 407 368 341 361 343 345 359 361 335 330 339 337 294 283 277 249 251 255 267 286 318 285 241 245 312 316 341 339 277 296 302 318 306 288 288 312 312 306 267 271 251 285 263 269 292 302 288 249 186 
84 78 80 58 62 80 92 84 86 84 94 106 94 98 114 128 223 397 450 438 463 440 446 452 436 448 473 494 521 506 442 415 382 376 394 382 333 366 368 380 386 380 366 308 290 283 271 235 239 223 227 237 210 196 225 249 286 285 285 279 273 243 247 261 320 304 304 308 322 300 249 229 247 255 216 198 158 144 150 138 
70 64 72 70 84 86 94 82 70 78 86 86 104 104 112 140 245 399 442 436 440 430 436 450 502 463 471 457 519 456 419 450 428 446 432 409 376 386 392 392 394 395 359 328 316 312 269 257 243 227 225 233 212 198 204 227 267 271 245 225 218 208 241 286 296 288 304 277 265 241 196 202 158 154 126 126 108 98 116 126 
86 94 72 86 72 80 98 80 102 76 86 100 106 98 102 130 261 419 461 471 440 444 456 504 498 436 312 216 306 366 411 483 483 465 421 403 397 397 407 405 392 376 374 370 345 332 302 259 271 239 247 225 220 194 210 223 263 255 241 223 233 225 265 271 271 265 239 231 210 178 154 140 134 128 104 116 118 114 104 120 
94 100 76 76 76 94 100 92 86 100 94 108 102 108 122 114 223 411 430 473 485 492 508 512 461 283 128 144 170 298 434 502 488 469 425 399 382 390 390 376 363 353 374 363 368 343 314 290 283 281 275 273 247 239 245 235 233 267 275 267 259 241 220 210 194 182 170 156 164 140 152 144 154 128 112 130 108 102 118 102 
94 82 96 74 84 96 86 82 86 88 90 96 88 88 108 106 172 310 401 485 488 479 407 292 170 102 134 134 116 188 399 488 457 428 380 374 368 368 384 376 370 372 372 370 384 386 359 337 328 308 300 310 296 281 263 241 257 265 257 243 214 184 134 136 146 132 142 148 144 136 150 162 162 140 130 136 124 124 130 126 
102 76 86 68 88 78 92 78 84 84 84 96 92 98 108 102 98 182 285 376 394 285 166 102 90 116 116 134 122 142 294 473 457 419 395 370 366 384 394 384 370 370 428 487 508 504 492 481 479 469 448 444 386 286 235 204 286 335 314 326 345 261 118 140 124 130 142 156 152 158 152 168 174 172 148 148 138 108 122 134 
70 92 92 80 92 94 90 80 92 82 92 100 92 108 90 106 94 124 110 154 142 110 84 98 94 102 112 130 118 144 222 419 440 403 397 382 380 386 382 361 333 332 394 502 508 504 485 488 487 490 508 508 481 428 397 397 425 430 374 304 324 263 128 126 132 140 152 164 158 170 156 170 182 174 162 166 144 132 134 144 
80 78 92 82 78 80 94 80 80 110 96 100 92 88 92 96 94 94 94 96 92 92 84 86 78 90 94 128 128 172 372 438 417 395 403 392 374 374 357 318 286 281 281 415 473 457 411 382 413 440 459 456 456 440 448 461 457 425 372 386 357 300 202 170 156 166 184 186 192 190 176 188 192 178 170 164 168 134 150 150 
94 88 102 74 78 84 96 80 72 96 94 90 84 92 88 90 88 88 90 90 84 80 76 90 90 88 104 132 130 263 477 467 442 428 426 452 442 448 423 394 366 343 361 419 461 448 409 368 337 370 399 421 426 415 425 388 382 376 351 343 330 332 310 314 294 275 271 261 245 243 235 257 247 261 243 251 231 218 222 227 
102 88 72 76 72 74 82 82 86 94 80 86 84 90 100 88 84 100 88 80 98 82 82 86 88 94 106 140 166 290 473 475 471 479 461 473 463 423 403 394 376 380 392 401 452 454 417 403 363 339 386 401 407 401 394 347 341 343 322 322 339 345 347 345 341 318 302 285 261 261 275 285 285 290 294 310 324 318 328 330 
96 76 78 60 74 66 88 86 74 82 94 100 104 82 86 102 86 92 90 88 96 106 80 90 118 102 140 178 227 310 397 467 469 477 481 479 454 419 423 411 388 394 384 372 409 456 438 423 382 335 339 364 382 363 345 351 339 347 343 343 361 353 341 359 351 353 332 318 296 269 265 304 316 302 294 304 308 318 355 341 
76 82 86 78 66 82 90 78 94 80 80 92 86 86 100 94 102 104 112 110 116 108 114 130 138 130 158 255 409 395 372 465 477 465 469 456 419 407 415 417 403 409 419 372 394 434 469 469 446 384 312 330 343 345 332 322 339 370 370 386 384 359 364 372 372 380 363 357 332 285 286 322 337 328 298 310 306 316 335 330 
76 88 94 80 70 70 94 80 92 100 82 100 84 96 114 106 104 102 128 170 212 245 298 366 347 285 265 374 531 565 448 450 452 436 436 430 403 401 403 407 403 407 417 370 366 376 436 446 463 440 332 308 335 330 310 292 312 359 368 386 376 366 370 378 390 382 376 370 337 318 308 333 332 330 300 302 300 298 288 294 
92 90 80 70 80 82 92 76 82 94 92 96 92 86 86 114 92 124 184 347 382 450 496 492 513 498 488 536 555 561 531 440 432 392 386 376 372 368 376 372 384 384 395 372 370 337 308 332 423 454 355 316 306 294 296 277 328 333 347 357 341 333 335 330 330 330 341 314 300 275 259 251 255 249 241 241 247 253 275 271 
96 102 86 82 92 76 90 86 88 82 96 100 100 112 94 102 108 156 255 409 438 487 498 502 488 512 487 504 536 557 525 452 426 403 397 380 378 384 394 386 386 382 366 353 353 335 320 337 386 421 353 302 288 310 306 300 353 386 349 283 233 220 200 198 208 204 229 229 227 204 208 202 194 202 202 204 220 223 263 283 
78 92 94 70 82 72 92 86 98 106 92 94 108 96 96 110 98 152 308 361 448 477 475 469 467 463 456 481 513 561 477 459 454 448 446 423 390 384 394 392 392 384 388 368 378 374 376 440 454 386 337 316 312 316 316 333 370 384 378 376 345 328 300 279 277 257 259 251 257 249 239 237 255 259 275 288 304 308 318 326 
82 92 94 84 80 78 84 80 88 82 108 106 98 94 100 102 106 154 285 328 457 513 473 481 490 508 500 504 521 513 425 477 481 469 465 434 407 386 380 374 363 368 372 370 372 397 442 481 490 395 353 326 343 330 341 372 394 395 395 395 417 394 403 405 405 397 394 380 347 322 322 318 335 333 328 357 349 345 351 330 
70 88 98 78 78 74 90 76 74 92 102 98 94 104 110 108 110 146 279 333 411 481 459 523 500 498 467 397 436 394 388 481 459 457 465 444 397 388 390 363 337 341 361 357 384 440 450 477 452 376 359 332 364 337 351 368 374 397 399 397 401 407 405 413 405 405 413 386 339 320 306 304 320 330 332 359 351 343 368 347 
84 102 86 82 74 78 84 86 94 86 102 104 90 94 110 102 118 118 200 312 357 446 432 426 411 324 227 231 273 370 411 436 440 438 432 419 413 399 386 363 345 343 364 382 419 444 436 446 388 380 368 341 374 353 349 351 341 390 382 380 380 386 384 388 392 378 380 351 324 275 271 292 292 310 302 316 328 328 347 339 
92 76 74 80 80 94 94 94 90 100 100 98 94 96 114 100 100 102 112 174 275 290 243 188 158 152 164 188 198 368 448 426 409 411 403 407 390 372 361 353 366 357 403 426 438 426 415 384 378 390 368 345 363 364 347 343 332 363 376 364 376 353 353 378 363 366 364 339 296 279 279 281 308 273 292 285 298 281 267 265 
70 78 82 74 56 72 84 86 80 82 82 88 98 82 86 100 92 104 104 110 130 128 106 108 112 116 144 168 174 337 469 411 388 399 366 341 345 357 370 368 382 382 436 450 440 428 395 355 366 359 337 316 326 355 359 339 306 322 341 359 353 337 355 339 333 339 330 326 283 263 283 261 247 241 222 200 178 180 188 178 
76 88 80 80 74 62 78 94 74 68 98 70 84 94 102 88 84 108 80 86 96 86 86 94 106 102 126 150 160 261 463 428 380 380 326 182 257 363 450 392 376 366 426 430 446 405 341 335 347 339 292 320 292 345 347 324 302 302 296 318 292 279 265 253 222 222 208 251 251 243 220 222 192 178 170 160 148 154 164 148 
86 90 78 76 78 88 76 80 82 82 94 100 92 88 98 90 88 104 90 80 96 102 90 78 98 110 104 146 124 162 318 413 452 465 372 341 370 421 471 421 395 318 401 432 409 370 251 245 245 223 218 220 210 225 194 194 188 174 154 140 124 128 136 142 140 156 190 210 214 223 225 218 196 168 140 138 138 144 146 146 
86 78 98 66 76 68 78 74 86 92 94 80 78 78 92 80 76 80 82 74 80 84 84 78 92 102 104 134 106 132 148 286 397 450 444 428 421 432 430 417 442 423 426 425 392 267 160 142 134 136 136 128 130 140 118 104 108 102 86 88 110 92 100 118 132 154 196 202 216 210 190 206 180 144 122 132 126 112 120 122 
90 68 98 74 84 66 78 74 82 92 84 92 86 90 76 80 86 82 90 76 94 82 76 84 82 108 104 122 110 118 106 132 150 339 419 417 440 426 425 401 421 405 425 386 318 160 122 128 136 148 124 138 138 134 112 106 110 118 104 104 116 108 116 126 152 158 152 194 204 216 194 180 192 148 138 106 132 120 124 130 
86 80 84 76 96 76 74 90 80 90 92 90 94 92 100 94 88 90 78 84 102 98 92 100 96 102 122 130 128 118 102 130 174 281 333 386 421 405 394 388 392 401 388 374 261 134 132 128 134 120 140 162 164 160 170 184 214 225 229 210 206 184 132 130 130 148 170 182 184 214 192 200 190 162 120 132 126 126 128 148 
74 82 94 80 84 86 78 80 84 84 90 80 88 108 104 94 92 90 110 94 100 104 90 86 108 110 116 144 114 114 132 210 281 277 271 288 318 310 330 349 368 363 366 285 158 124 140 136 152 180 214 225 206 194 192 239 263 263 277 265 249 218 146 136 136 130 136 156 192 222 223 243 249 241 220 190 150 142 142 134 
78 86 98 80 76 84 94 68 76 86 96 100 102 98 100 86 94 104 110 138 180 174 122 106 114 116 124 134 138 134 206 326 283 283 296 312 265 267 265 261 253 275 206 128 154 176 180 204 216 212 188 196 218 214 196 212 218 239 208 227 231 206 150 126 136 140 134 150 188 237 283 294 290 302 304 308 267 243 206 178 
86 84 86 86 80 86 80 68 78 94 90 98 92 90 104 100 100 112 160 263 306 277 249 239 225 212 158 166 132 148 300 357 304 324 390 339 288 259 186 182 204 196 182 184 136 190 218 231 220 233 196 188 186 186 212 210 196 204 192 202 210 192 162 158 164 160 146 152 180 243 269 271 267 281 296 306 292 306 281 277 
74 84 84 72 86 82 90 72 90 100 96 108 96 104 96 114 106 152 279 330 341 318 288 332 368 456 407 277 202 273 335 351 337 364 403 368 255 198 188 194 196 186 204 212 190 182 218 223 214 216 208 176 210 214 222 229 212 200 198 202 188 184 172 184 186 168 162 156 182 253 257 249 241 267 267 296 281 265 285 298 
78 86 88 80 90 90 96 80 92 90 88 96 88 102 108 116 112 178 292 296 320 306 292 363 456 448 496 456 382 353 328 353 326 312 302 265 190 196 174 172 178 225 225 235 259 235 239 225 210 184 182 176 188 216 235 247 214 204 216 220 212 204 204 202 186 172 174 174 220 253 235 239 259 257 239 243 223 202 247 243 
92 80 90 80 86 84 96 82 90 82 84 96 88 98 116 116 110 202 316 339 333 320 341 386 469 463 454 436 438 363 332 343 332 286 249 174 148 142 146 140 152 214 231 225 261 243 231 233 206 184 188 166 168 192 241 247 225 218 233 233 208 188 188 172 176 190 200 186 208 210 202 204 188 204 166 172 150 156 170 188 
74 90 82 72 70 86 84 92 88 94 106 98 90 116 110 122 120 196 302 353 316 320 326 326 407 504 469 459 475 380 337 359 310 269 239 160 142 128 130 134 178 222 231 222 257 225 222 229 220 180 182 148 114 170 241 243 210 214 222 223 218 180 188 186 170 192 188 198 194 186 184 176 168 162 142 148 150 146 186 172 
72 86 92 80 78 72 82 82 80 84 90 90 94 96 110 118 98 146 235 283 306 294 304 351 434 508 534 534 494 347 339 380 332 265 225 142 150 134 132 168 204 235 253 241 222 200 202 231 200 192 160 146 150 186 235 231 220 216 214 218 200 198 229 245 225 214 210 204 200 200 186 160 170 164 176 168 184 188 218 200 
68 84 100 78 78 90 88 78 106 82 84 96 96 104 100 112 98 122 136 204 251 296 355 434 463 475 498 483 415 370 345 341 310 269 243 190 170 118 154 178 231 265 263 253 243 218 214 216 180 156 144 144 154 202 204 227 206 225 208 212 200 225 261 275 283 249 271 257 216 245 202 190 180 192 196 225 194 212 225 214 
76 98 90 66 80 86 94 88 86 100 82 98 92 92 106 102 94 98 112 118 146 172 223 296 277 255 294 378 401 374 326 304 324 288 273 257 214 160 212 218 237 298 265 253 231 223 218 220 188 134 134 166 174 184 208 188 188 188 194 196 196 202 239 263 259 275 277 281 222 255 253 245 267 269 265 292 269 279 285 273 
74 70 80 62 82 88 104 68 92 90 82 92 76 116 104 98 86 98 98 90 106 114 120 138 122 122 166 273 397 366 324 288 337 339 316 324 312 233 233 223 269 283 261 235 243 202 206 174 174 138 128 158 154 178 196 196 168 186 186 188 172 162 210 229 229 257 253 249 223 237 275 285 306 300 296 306 310 296 294 302 
90 94 88 64 70 82 84 80 82 82 100 98 98 104 96 88 90 90 92 92 94 104 92 90 100 116 126 206 359 390 335 290 285 333 339 339 326 292 259 212 263 285 247 200 233 204 188 158 186 178 148 120 182 271 296 288 263 170 162 158 148 152 158 198 190 190 227 229 184 196 275 292 300 290 290 286 294 310 318 277 
70 80 80 76 98 82 90 76 94 94 106 110 90 92 104 90 102 88 90 92 92 86 80 104 96 110 122 166 302 366 322 294 233 281 302 308 330 306 302 245 265 263 265 225 223 202 184 150 188 166 166 220 337 401 394 390 335 223 156 160 178 162 142 160 160 154 158 152 128 176 255 285 294 273 269 286 281 239 259 200 
94 96 88 82 88 98 94 88 106 84 106 114 96 98 104 114 92 96 88 92 114 116 88 110 104 116 124 156 257 349 324 294 271 304 359 405 401 347 320 281 273 253 271 227 212 216 225 188 214 222 312 388 413 430 411 403 382 241 168 170 170 174 168 158 150 138 122 126 108 142 212 210 251 235 231 204 180 166 180 166 
90 78 80 76 72 88 94 94 108 98 108 106 138 122 112 112 110 104 96 94 158 237 208 188 164 158 214 231 267 335 337 366 363 397 428 454 456 432 395 326 249 229 247 229 223 239 251 231 253 286 357 425 417 413 405 378 312 192 154 142 164 152 152 132 146 122 130 88 98 158 168 176 150 154 140 156 132 110 150 152 
82 86 112 66 90 96 90 80 92 118 120 162 188 239 231 180 110 98 100 112 126 222 288 290 290 275 283 314 320 339 355 384 363 388 411 426 438 436 413 384 283 214 184 196 237 271 233 204 222 271 333 361 345 312 275 212 174 138 122 128 122 116 110 122 138 138 136 142 158 176 160 174 168 122 116 126 102 110 130 144 
84 80 102 82 64 88 88 82 100 110 166 249 265 324 419 409 239 128 94 100 116 253 292 312 302 294 306 324 332 345 353 345 351 355 364 380 403 421 426 415 341 292 294 275 229 216 170 164 178 194 208 225 216 196 180 152 134 126 118 120 108 112 130 130 126 124 138 180 190 194 182 174 154 110 100 104 90 94 114 134 
92 86 86 84 82 98 100 100 96 126 214 302 326 421 488 473 423 223 116 108 146 237 279 286 281 283 308 316 322 335 324 347 326 343 372 376 395 403 425 397 357 324 339 261 212 180 174 178 206 196 196 220 196 186 180 172 154 138 136 136 128 132 124 132 130 132 148 190 206 198 188 188 178 120 98 96 84 92 136 180 
92 94 96 72 88 98 96 80 106 184 290 332 386 425 494 529 494 448 255 124 124 178 249 290 290 312 314 328 314 269 243 261 302 310 322 300 324 341 359 355 355 359 343 286 222 192 170 182 214 231 229 227 218 198 198 184 182 166 146 156 142 128 150 138 136 140 156 180 190 186 184 174 160 118 112 112 94 104 192 206 
76 92 100 62 82 96 100 86 130 198 318 407 436 440 500 512 525 519 430 225 124 162 239 314 320 326 318 341 255 168 134 158 192 229 275 296 302 314 328 316 330 337 320 271 208 192 170 176 192 222 245 237 227 220 204 216 196 186 172 164 154 142 160 160 132 132 152 186 168 154 170 194 227 231 235 233 180 178 222 194 
72 94 78 86 68 86 104 96 118 184 333 428 469 471 490 550 540 517 448 394 206 212 277 332 343 330 326 294 196 106 88 128 188 222 277 292 302 320 320 302 300 314 279 261 216 188 172 154 172 192 216 241 229 231 227 227 223 206 188 194 168 160 156 160 148 140 156 160 138 130 120 176 241 259 257 235 208 194 206 216 
72 92 86 82 80 80 98 96 94 138 279 425 485 525 529 544 534 483 382 397 368 275 320 333 330 320 308 255 164 82 68 152 216 237 277 300 298 326 322 298 292 285 255 245 231 196 188 174 178 190 204 237 229 222 233 251 239 227 208 223 200 184 196 186 166 176 178 176 152 144 170 194 233 227 227 210 218 210 216 229 
76 90 66 74 86 86 82 92 98 118 150 328 471 548 538 527 504 428 372 363 380 370 347 339 306 273 249 218 156 66 90 198 249 255 281 286 296 312 328 302 288 281 251 231 227 202 206 202 227 237 259 249 235 222 223 225 231 222 198 216 206 188 231 212 214 212 223 208 176 176 182 214 227 220 210 229 237 227 247 245 
66 96 74 60 74 68 82 76 82 90 126 192 399 527 544 527 512 475 395 337 376 384 333 300 281 239 216 204 152 78 114 200 247 263 263 269 269 281 302 306 304 275 265 243 225 206 222 245 265 283 308 285 227 216 200 202 200 192 188 186 190 186 223 223 222 206 227 225 227 212 216 222 231 243 241 243 249 261 275 245 
88 76 90 70 74 74 84 76 68 90 94 136 239 417 459 531 523 533 454 361 357 328 292 261 225 229 223 206 104 72 114 170 243 241 261 247 245 233 273 296 277 257 241 239 229 241 253 271 306 322 310 279 233 194 170 174 176 170 150 150 154 166 174 188 188 166 140 241 231 233 233 227 220 233 229 245 269 273 275 255 
62 68 66 66 70 76 74 62 70 78 86 100 114 166 212 343 448 487 428 343 330 296 263 233 222 202 188 134 40 56 102 156 220 231 271 251 202 233 247 261 265 251 239 233 245 271 263 283 324 339 296 286 231 172 148 152 140 126 106 110 102 126 152 176 160 120 132 196 202 198 229 223 233 220 222 235 273 283 239 176 
54 56 56 54 54 68 74 46 78 58 62 84 96 114 134 156 206 341 339 333 318 286 263 237 229 208 164 130 38 14 92 134 214 257 253 245 223 223 253 259 241 223 227 231 239 241 253 257 292 294 229 231 168 164 142 152 150 108 106 88 96 104 94 112 100 112 124 128 144 200 241 237 227 208 218 243 267 255 170 180 
66 74 56 48 34 58 52 54 70 74 66 84 118 130 142 148 148 253 326 343 320 281 257 263 257 222 156 94 6 0 30 32 180 259 275 261 255 263 275 275 255 247 257 253 261 222 225 229 243 218 176 156 120 150 138 164 144 150 162 146 150 138 134 136 152 148 142 174 210 249 251 223 218 200 202 243 255 168 158 160 


