P2
80 60
580
38 46 28 28 32 22 32 28 50 50 52 56 60 46 42 52 48 60 56 52 58 56 70 60 58 48 60 52 76 68 68 56 58 64 60 58 70 62 62 70 64 84 64 68 76 68 68 58 56 56 76 94 126 118 122 162 216 178 158 186 314 346 279 313 406 462 445 404 342 330 348 385 423 398 381 360 342 334 311 309 
42 38 12 34 34 40 30 42 38 52 50 52 46 44 46 50 48 56 52 52 54 54 56 54 44 52 64 50 66 56 58 46 42 56 56 62 54 56 56 68 62 68 68 56 64 46 56 52 66 54 70 80 96 134 136 232 295 238 204 273 367 431 418 445 518 561 553 541 515 433 365 316 348 354 367 356 332 326 314 277 
42 32 28 20 30 28 30 28 38 38 34 42 44 26 48 48 48 52 58 52 40 46 54 62 48 38 56 60 62 50 62 48 54 50 52 50 44 44 46 62 50 52 58 50 58 58 50 54 52 62 50 54 98 186 204 218 352 316 334 392 449 451 441 478 522 568 574 564 555 551 534 387 332 314 277 287 297 295 291 281 
52 48 34 30 24 40 36 42 36 32 32 60 28 40 40 36 40 52 54 48 60 56 46 46 48 42 48 58 56 64 48 60 54 44 54 48 56 62 38 60 46 60 66 62 74 58 70 64 60 64 76 52 118 238 226 212 314 416 485 480 497 485 480 489 518 545 580 566 568 566 570 482 379 348 324 293 279 279 226 255 
36 32 34 22 38 36 38 46 32 40 34 34 34 50 40 34 40 48 50 40 48 36 38 38 54 48 42 58 70 58 52 50 46 64 56 50 56 46 58 62 66 62 70 60 74 60 74 72 74 66 70 68 126 255 242 200 293 437 497 489 499 485 503 528 530 541 536 562 559 559 528 425 412 367 379 361 338 299 291 281 
42 20 22 54 28 24 30 28 32 34 44 40 24 40 42 38 38 46 56 50 40 48 44 44 32 42 50 54 72 64 54 50 44 52 72 44 52 70 50 54 60 72 78 68 70 66 76 78 72 72 66 72 92 202 251 200 285 433 464 484 478 507 509 534 522 528 507 528 541 509 385 402 394 367 361 377 356 328 309 293 
42 26 32 16 34 56 26 42 48 36 38 36 34 28 46 32 34 54 36 48 62 64 58 54 54 48 50 64 58 64 62 66 64 60 52 66 70 84 62 82 76 74 78 80 82 78 68 72 72 78 80 86 80 154 216 186 279 464 491 478 484 538 540 536 507 526 453 418 396 363 311 336 336 342 354 365 344 328 303 324 
28 20 20 38 48 46 28 44 36 46 38 38 38 50 34 48 28 48 54 54 66 70 54 56 50 64 52 62 74 74 64 60 78 56 60 50 76 66 72 82 82 80 74 78 98 82 90 94 88 94 90 84 86 108 166 150 275 456 480 491 493 526 507 522 458 470 400 273 267 271 338 361 379 367 375 363 348 334 309 313 
24 38 20 26 34 48 22 54 44 36 58 36 44 48 30 42 56 58 50 60 62 54 68 54 56 58 64 64 66 68 62 60 62 72 64 72 82 86 66 80 72 76 82 82 86 80 72 80 86 82 92 90 82 86 110 136 180 363 464 447 453 478 489 489 429 394 363 277 230 271 396 435 414 385 371 361 344 334 326 303 
42 34 20 20 22 38 32 40 44 38 46 44 44 48 56 38 38 52 62 48 56 64 62 68 52 72 68 58 64 76 54 64 62 60 74 76 74 74 62 80 66 92 74 64 76 86 72 82 92 82 80 70 90 72 72 88 104 178 305 318 271 246 196 212 311 324 373 358 311 330 422 422 414 389 369 373 360 340 320 305 
24 32 24 30 32 24 22 34 50 34 32 50 38 44 60 48 50 48 58 56 46 46 58 56 56 56 64 54 66 58 76 68 46 56 64 64 68 62 68 74 72 76 78 72 64 72 80 78 94 80 82 70 92 82 70 58 70 60 70 46 58 72 54 140 297 313 346 416 408 425 441 418 420 381 361 365 350 352 340 354 
40 34 34 24 38 40 56 52 36 40 58 46 34 46 54 46 44 58 70 50 64 64 62 62 58 76 68 80 72 62 72 68 64 58 62 74 72 78 72 72 66 60 78 86 68 76 80 76 88 66 82 76 82 76 68 60 62 62 62 48 54 50 52 158 273 313 324 406 431 447 435 387 389 354 365 371 383 373 369 352 
34 30 42 30 50 50 36 38 54 44 40 52 44 50 44 48 50 56 60 62 64 52 50 60 54 56 58 60 60 74 58 68 72 70 64 68 64 58 76 78 72 76 62 74 78 88 78 90 80 78 94 78 82 90 70 72 44 60 56 44 40 50 76 142 299 297 293 392 402 387 373 365 381 367 365 363 358 381 365 358 
50 28 34 40 28 58 34 46 42 48 58 42 50 46 38 36 46 56 56 62 56 58 54 62 56 56 64 72 78 62 58 70 60 68 62 56 62 70 70 68 74 68 76 82 84 80 84 84 82 82 84 80 72 84 78 70 56 46 66 56 48 86 86 124 222 259 299 318 277 283 332 350 379 361 352 350 348 342 348 307 
66 36 34 38 52 42 40 20 42 52 48 40 42 34 28 38 54 60 60 52 66 64 56 62 58 60 62 58 68 72 66 58 66 74 52 58 58 64 64 66 70 80 72 76 70 86 76 76 72 80 86 90 84 74 78 72 70 70 94 120 166 257 287 228 259 303 305 279 279 257 307 334 344 356 348 318 318 311 297 293 
46 32 34 36 38 44 36 48 42 44 64 34 50 50 56 50 40 68 54 48 72 60 56 52 48 68 54 60 66 56 56 60 54 60 56 62 54 68 62 80 80 66 52 72 78 82 82 68 90 84 94 82 72 64 68 62 96 124 184 234 342 433 435 402 402 435 516 507 516 466 340 336 332 316 299 318 330 342 340 328 
34 30 50 40 38 36 38 50 34 34 44 48 44 48 46 40 36 52 50 42 52 50 54 64 48 40 50 62 46 50 50 66 52 40 46 56 52 60 62 64 74 70 60 68 78 72 78 76 64 78 84 86 72 74 68 92 138 196 361 443 474 507 480 515 507 466 474 528 570 551 464 326 305 291 311 340 342 344 344 346 
48 36 22 26 24 48 26 20 32 28 38 32 46 36 38 20 32 54 56 54 48 48 54 48 44 52 52 58 62 58 48 54 52 54 52 50 62 66 56 74 78 72 80 70 66 76 62 80 88 80 80 76 88 76 76 122 170 212 464 524 484 515 509 522 524 538 472 528 551 545 456 342 338 330 360 342 338 360 371 350 
48 38 38 48 20 30 30 48 36 32 46 40 36 42 42 46 44 44 46 46 56 54 54 54 66 54 64 54 72 70 60 64 62 54 60 66 72 68 66 72 68 80 84 80 76 78 80 100 76 92 90 86 88 90 100 144 138 232 505 543 511 528 513 505 509 530 466 482 534 474 350 334 360 338 328 338 358 373 371 392 
52 42 34 40 42 22 22 42 40 44 48 42 42 36 42 52 26 52 42 46 58 56 54 52 60 48 58 56 64 72 56 60 74 64 70 60 70 68 64 86 88 82 92 68 80 92 96 90 96 98 92 96 84 90 100 144 170 273 536 572 545 528 511 520 493 545 485 447 404 299 293 332 334 318 336 373 387 422 422 427 
54 50 34 50 34 26 22 36 42 34 54 38 42 32 48 32 46 62 44 58 60 58 60 66 62 66 54 72 74 78 70 78 72 68 80 76 76 76 70 84 84 78 74 78 80 78 98 94 82 104 98 90 102 104 102 132 194 242 499 559 536 574 545 551 526 555 431 344 283 281 293 318 318 316 356 441 470 491 487 472 
24 46 56 32 36 38 22 42 40 50 40 40 50 50 40 54 42 64 60 62 56 62 56 58 60 64 60 68 70 84 78 68 72 76 70 72 86 76 72 84 88 84 84 88 84 86 76 96 98 96 96 92 98 98 104 98 162 222 346 501 480 499 495 520 487 472 423 379 398 406 348 338 358 369 398 485 501 522 511 491 
48 40 52 50 36 40 32 36 32 50 58 40 38 50 50 50 38 58 66 52 58 70 48 58 58 62 56 68 84 76 64 70 74 86 66 68 82 80 78 86 66 84 80 82 84 82 88 104 102 96 106 96 94 96 100 90 106 152 224 307 326 259 230 242 236 330 404 408 423 377 387 375 381 367 400 491 505 513 484 441 
40 40 42 40 32 30 24 38 40 48 42 44 54 52 42 50 50 62 58 60 66 66 74 66 66 58 62 58 70 74 64 60 74 76 68 80 62 68 76 88 74 76 86 78 92 90 90 100 98 100 86 102 108 96 88 70 94 92 116 108 94 112 88 126 158 224 350 379 381 379 369 392 394 398 404 476 458 404 334 313 
34 42 44 52 46 52 38 46 38 42 54 46 46 60 56 44 54 62 58 46 68 66 76 56 60 72 78 62 66 62 76 70 70 72 76 70 80 72 76 74 84 76 86 80 80 82 98 92 86 92 90 110 110 114 98 88 88 78 88 100 88 102 106 140 160 208 291 373 404 404 420 423 420 391 383 371 303 271 232 232 
52 32 36 44 54 48 32 34 40 34 50 36 56 50 60 42 56 56 44 62 62 62 64 66 62 58 70 72 76 72 68 66 72 70 64 70 64 62 66 82 86 78 94 86 88 86 96 100 90 102 90 92 86 108 98 86 88 92 92 84 86 90 98 118 158 196 220 275 332 367 389 389 361 336 313 285 255 248 220 224 
36 28 46 26 36 44 32 28 34 34 56 34 52 54 42 56 60 64 68 60 56 64 60 66 66 60 72 66 74 62 80 78 66 66 76 76 80 76 76 86 84 74 84 82 94 88 92 92 90 100 82 86 100 94 84 90 88 90 92 76 80 100 90 124 164 200 226 253 309 326 348 361 352 311 277 265 248 248 220 228 
50 40 52 40 28 26 20 56 38 40 50 48 44 50 42 44 46 70 48 52 48 56 50 58 62 58 64 62 74 60 64 70 66 66 68 66 70 76 74 84 74 80 90 74 82 86 86 94 84 92 90 84 104 82 74 82 74 88 90 82 70 104 104 122 166 240 303 322 346 354 379 423 429 392 338 289 279 291 275 301 
56 54 50 46 32 34 28 34 40 50 52 56 46 68 58 58 46 54 50 52 60 74 50 62 66 58 48 66 80 56 72 66 78 74 68 72 70 74 74 76 92 76 86 84 86 84 86 92 92 96 94 88 86 90 86 68 76 78 100 94 100 108 114 140 216 307 328 332 342 360 406 435 431 408 358 340 352 392 385 363 
50 42 40 42 52 42 12 44 50 48 60 52 48 38 42 46 50 60 54 54 70 62 70 54 62 62 62 62 72 64 66 68 60 66 78 66 66 70 68 86 82 74 80 70 92 72 92 82 94 82 84 84 82 86 84 76 74 78 116 110 148 146 122 146 230 301 271 291 352 400 412 404 375 346 334 360 402 402 379 379 
38 34 42 42 32 40 24 34 36 46 44 44 40 46 44 46 40 64 52 54 60 66 58 54 50 60 52 52 66 68 58 68 62 60 66 56 70 62 66 80 74 74 76 86 94 70 84 82 82 88 76 82 88 84 118 130 116 114 122 130 224 309 232 158 277 344 326 348 400 408 392 336 346 336 371 392 392 392 389 363 
36 32 38 22 42 24 34 38 26 30 36 42 40 30 32 34 44 50 46 54 56 58 58 50 46 46 58 48 54 54 54 48 52 56 52 56 48 58 64 74 58 72 72 88 64 76 76 86 82 72 74 78 78 106 222 281 295 301 287 279 295 361 360 311 320 356 354 371 408 396 354 342 369 387 408 400 383 381 377 377 
26 46 38 28 42 26 32 40 22 28 40 34 36 36 44 26 48 46 58 38 50 50 44 56 52 66 56 48 52 58 48 60 52 64 52 52 60 56 68 72 68 78 66 84 80 86 76 80 74 86 88 74 98 192 316 318 389 394 396 383 369 387 408 402 342 369 369 387 381 367 363 356 379 391 410 394 361 381 383 369 
36 44 46 36 26 50 40 48 46 30 44 42 38 50 36 32 30 48 56 50 48 54 62 48 56 60 66 54 62 58 58 58 62 60 62 66 58 72 74 70 74 90 78 80 84 90 88 90 84 94 104 84 142 248 311 320 385 398 412 418 396 406 408 427 392 367 307 324 346 356 365 356 358 360 398 389 361 371 356 389 
46 32 28 46 38 36 32 46 38 42 42 42 28 40 38 44 48 64 68 42 48 52 54 50 56 52 46 60 64 52 68 62 66 50 66 62 72 70 58 72 78 72 82 90 80 86 86 98 86 76 92 84 154 255 332 283 348 389 414 422 396 410 408 396 379 373 263 267 289 354 377 377 398 356 367 383 361 379 381 387 
22 32 50 42 34 26 44 30 40 38 50 46 46 60 48 46 56 58 68 46 58 58 46 68 54 52 54 66 60 58 74 76 66 76 82 70 62 72 72 80 82 82 80 86 90 94 84 100 98 82 96 90 136 226 277 261 328 318 344 427 433 454 460 445 377 373 277 257 263 346 398 402 433 408 377 371 404 427 422 402 
44 34 44 42 30 36 34 34 54 36 40 36 46 42 44 44 42 52 50 48 58 54 50 62 56 58 60 74 76 62 70 68 66 66 74 78 78 68 60 80 80 82 90 80 88 86 90 104 88 96 86 96 108 188 208 218 226 255 330 431 474 495 474 447 367 373 303 265 322 338 346 402 425 425 410 422 447 474 472 420 
42 52 36 34 26 46 44 30 40 34 44 42 56 46 54 46 54 56 56 56 76 56 52 58 54 58 68 70 76 68 60 68 68 74 72 72 64 62 74 72 76 82 84 82 92 98 104 96 88 92 98 102 104 128 168 174 200 246 309 369 352 391 400 394 377 350 316 301 360 311 305 305 350 328 344 396 437 499 541 425 
34 38 48 34 30 48 40 42 44 44 34 44 42 62 54 56 54 54 60 62 54 58 56 58 62 72 64 72 72 74 70 68 74 76 64 76 72 76 78 86 82 86 88 92 90 94 86 96 94 94 100 94 102 112 114 104 108 154 206 160 124 158 305 369 367 340 299 344 369 311 309 269 311 305 313 369 408 439 511 449 
34 32 34 38 32 48 34 36 54 48 48 42 48 50 56 48 52 46 68 56 60 56 66 62 70 60 62 70 72 58 76 68 80 70 80 72 72 68 74 82 90 92 94 86 88 92 90 90 98 100 96 98 90 104 108 92 82 70 100 84 70 134 244 324 309 334 340 354 348 361 344 293 289 289 313 391 391 391 402 425 
22 36 42 40 22 46 24 24 42 44 46 44 44 56 52 56 56 52 62 56 66 64 58 54 52 68 76 60 80 72 68 62 70 68 74 66 74 74 74 80 82 86 86 94 92 92 86 106 100 106 88 88 96 96 106 90 94 84 82 80 66 142 263 307 344 346 295 324 367 365 358 318 307 303 330 371 383 354 387 389 
38 38 32 38 44 30 34 44 42 56 44 38 40 46 64 60 48 46 72 60 52 54 62 64 60 66 58 72 74 78 72 72 76 72 64 70 72 62 80 92 76 78 84 98 94 106 102 104 102 104 100 92 102 110 92 78 92 74 90 80 66 112 236 295 363 365 297 346 371 392 381 354 379 346 348 369 369 373 404 392 
38 36 50 38 20 52 40 36 42 42 48 48 38 46 48 50 44 56 60 58 60 56 60 54 68 68 68 56 60 60 56 60 66 72 66 70 72 74 86 72 80 84 90 92 104 94 92 104 90 100 106 104 112 112 86 74 86 80 98 82 68 100 255 363 383 375 332 356 371 371 361 379 404 392 356 348 369 387 404 392 
24 44 44 40 32 42 46 50 34 42 48 54 50 48 52 36 38 64 60 56 64 64 58 50 62 76 76 66 58 68 78 70 56 84 74 78 76 82 66 72 86 106 92 94 98 90 102 106 110 112 116 104 104 106 84 80 108 158 158 106 100 148 318 373 367 379 367 387 381 387 369 361 334 320 354 404 389 404 416 402 
36 40 28 42 38 30 32 48 46 44 46 52 38 40 48 40 54 52 70 60 58 50 70 64 60 64 56 56 58 66 58 72 64 70 62 68 72 74 68 80 72 90 88 98 96 96 102 106 106 108 114 118 108 102 82 72 84 156 222 166 182 277 320 346 377 400 404 379 391 391 340 277 261 265 381 408 416 414 414 414 
38 32 48 30 40 38 30 38 58 34 48 24 38 42 44 48 36 62 42 46 52 48 52 66 52 46 48 52 52 50 58 70 60 68 54 68 72 70 66 78 76 82 94 92 100 88 106 112 112 116 126 124 110 104 96 78 98 124 168 242 279 332 318 338 365 387 387 398 396 387 360 228 285 318 429 404 369 392 422 391 
38 36 34 54 28 40 34 52 50 52 42 48 40 32 46 44 40 50 48 48 62 58 54 66 56 56 66 48 62 62 50 64 58 64 58 58 64 64 74 74 72 84 98 88 92 92 100 108 118 134 176 250 261 224 198 148 184 168 218 305 291 338 336 326 336 361 358 379 381 356 360 305 344 412 425 389 360 365 402 375 
28 32 40 12 34 42 30 40 46 46 46 50 40 42 40 50 56 38 60 58 56 56 54 64 50 58 54 54 56 46 56 64 48 62 54 62 60 62 76 74 76 86 84 96 96 98 112 114 124 168 251 361 476 439 453 425 427 391 340 330 311 344 318 344 338 360 291 307 340 354 377 383 394 402 404 389 346 352 330 350 
40 38 26 34 32 36 26 32 44 50 56 40 36 48 44 42 48 54 46 54 52 68 54 54 54 60 64 58 58 56 58 56 64 64 78 62 66 78 76 78 82 88 96 106 110 120 106 122 148 250 301 480 503 499 509 515 495 509 516 354 316 320 311 334 326 311 277 273 299 334 381 383 373 361 371 356 352 330 313 324 
50 34 36 48 28 50 36 50 46 54 44 54 54 58 36 58 58 54 62 44 68 64 52 58 56 74 76 56 80 80 76 74 56 68 70 72 72 76 62 84 92 98 104 118 116 130 116 126 186 255 360 476 487 520 520 505 489 505 538 441 330 322 314 332 289 285 261 259 277 297 352 326 330 313 311 336 316 326 322 314 
24 46 32 44 32 50 42 32 46 44 56 46 52 44 56 52 44 58 60 50 72 60 58 66 58 60 70 68 76 82 80 66 82 80 84 66 68 70 78 88 86 102 100 114 122 120 118 130 190 287 360 449 487 518 528 509 507 482 491 470 389 309 287 307 271 279 230 222 248 275 289 253 255 261 273 297 293 318 346 338 
36 28 44 32 44 56 36 34 48 50 42 48 56 46 60 52 42 54 56 44 64 54 70 80 46 64 58 68 82 64 68 82 70 64 74 74 78 72 78 80 84 96 110 108 104 110 122 122 158 263 363 422 468 501 526 509 472 427 427 416 414 314 250 275 281 265 226 234 240 230 232 222 234 244 244 293 295 293 324 299 
32 32 34 54 42 42 32 48 40 60 56 52 54 50 52 60 40 54 62 54 66 60 80 60 56 60 68 72 76 74 74 80 72 78 80 82 74 86 80 82 84 98 106 106 116 112 102 120 142 216 350 423 427 478 538 499 470 451 447 375 389 305 230 269 277 271 242 224 212 218 220 214 224 244 240 251 240 275 318 289 
42 40 30 44 28 44 24 38 42 56 62 38 48 60 58 52 44 56 58 62 68 70 76 64 56 60 72 76 80 70 78 64 66 68 78 80 70 86 72 78 80 84 86 88 106 96 100 110 118 138 240 352 404 460 499 497 472 454 437 381 412 344 271 242 279 281 220 218 210 222 218 204 214 210 216 226 232 269 299 261 
52 46 56 48 38 38 22 40 50 50 40 46 50 42 58 48 54 74 62 58 64 80 64 72 58 50 50 56 76 70 70 66 68 72 78 70 72 84 82 76 70 88 76 82 98 88 94 104 106 118 132 154 204 277 377 418 431 433 416 396 394 314 299 242 271 291 238 226 208 210 206 172 186 182 190 212 255 236 261 251 
40 34 24 34 30 22 14 46 32 42 58 46 28 50 44 38 52 60 66 58 66 64 70 64 74 54 74 46 58 60 72 76 72 62 60 68 78 72 80 88 90 84 90 90 106 100 88 106 102 94 110 104 110 120 148 162 170 198 314 303 303 318 265 248 285 261 248 196 206 212 214 186 168 176 182 216 232 214 230 226 
28 44 42 26 32 42 22 34 34 52 44 40 48 48 36 42 36 48 58 64 66 58 62 60 62 66 54 68 78 62 68 58 72 58 62 70 76 76 72 80 80 86 84 88 94 96 94 92 102 90 104 98 84 90 92 86 86 178 322 369 316 311 299 271 287 281 257 212 214 224 200 162 164 164 182 208 224 212 210 212 
26 28 28 30 14 40 18 44 32 40 50 46 32 38 50 56 52 40 62 42 64 58 72 50 78 60 58 60 70 78 66 66 56 64 72 56 62 72 68 72 76 88 82 88 86 86 90 98 94 88 84 86 80 98 68 82 78 194 316 311 311 287 287 295 287 289 273 238 222 222 198 166 174 178 202 198 202 212 198 212 
28 38 24 24 22 30 26 30 34 26 36 44 42 36 48 44 36 50 60 46 72 60 66 64 68 62 68 66 66 82 68 70 60 78 60 62 72 64 80 70 80 82 82 78 82 94 84 90 88 82 82 74 86 90 74 50 88 228 334 334 324 311 316 340 293 309 287 253 218 232 204 172 184 198 218 212 210 220 194 212 
24 32 0 10 0 32 12 38 30 20 34 40 26 28 28 36 30 48 66 46 58 62 42 60 64 52 48 62 66 62 76 64 68 60 62 58 68 58 66 80 74 84 90 88 80 90 78 86 84 80 80 48 78 80 58 42 68 234 358 344 314 313 318 358 336 326 285 271 222 228 208 196 192 184 208 208 208 204 190 184 


