P2
80 60
585
18 40 44 18 36 30 44 30 52 60 46 54 62 46 44 52 52 74 50 60 54 52 70 70 66 60 66 60 62 70 72 60 66 70 74 66 64 70 78 74 64 68 60 76 84 58 66 54 62 64 84 108 118 122 136 118 112 94 58 74 100 100 112 112 120 152 160 186 230 340 406 413 417 419 396 353 314 301 297 299 
30 32 2 34 32 34 40 36 42 54 48 52 44 42 36 62 54 54 52 52 56 56 54 60 56 52 64 58 56 48 62 56 50 62 62 76 58 60 62 66 60 50 64 60 58 48 54 46 62 56 72 80 80 100 106 100 88 84 72 120 218 164 136 112 150 194 188 194 243 283 377 427 421 396 394 373 344 322 310 297 
22 30 20 20 42 36 34 32 36 46 38 36 38 26 38 50 42 56 48 60 38 50 54 56 48 44 60 52 42 52 64 46 60 46 48 62 54 44 46 70 58 60 62 56 56 40 46 48 46 56 48 58 68 64 98 140 146 136 162 251 373 340 259 243 324 386 381 351 320 306 336 375 398 402 384 363 340 310 316 293 
30 40 40 28 26 30 44 34 26 40 42 48 34 34 30 38 38 46 58 50 56 52 34 58 54 50 58 60 60 60 56 60 58 50 44 46 66 54 38 60 58 54 50 66 68 60 66 46 66 74 76 44 62 80 144 263 299 318 398 437 439 412 404 431 495 554 547 535 489 437 373 322 310 301 346 340 318 324 304 281 
18 32 36 16 38 28 36 44 36 46 40 46 34 40 36 36 40 58 34 40 36 44 42 46 56 40 46 54 60 44 64 56 50 66 58 56 50 42 58 66 68 58 64 54 66 52 66 68 78 74 74 76 84 156 192 251 400 456 475 477 481 460 503 487 491 545 564 566 560 556 524 406 318 308 291 273 277 261 291 287 
24 22 22 38 20 32 22 28 30 34 38 46 36 46 34 36 36 52 50 48 38 40 46 40 40 52 56 70 58 52 66 52 46 50 68 54 68 60 64 58 74 62 78 72 66 64 64 70 72 80 64 72 108 228 218 275 421 452 435 462 501 508 531 512 503 485 549 570 585 577 573 510 392 336 328 316 306 265 261 281 
12 22 28 22 36 58 40 34 42 38 32 36 28 32 52 46 36 66 42 50 52 58 48 58 50 52 46 70 50 52 72 66 64 64 68 68 72 76 70 86 80 70 78 80 76 74 64 72 74 76 72 84 124 236 210 287 439 470 474 518 541 539 530 470 526 514 516 541 568 575 554 448 408 369 369 357 330 306 310 289 
10 16 16 38 38 36 36 40 44 48 34 26 32 48 38 54 32 54 52 58 64 54 52 54 48 66 44 68 62 66 76 66 70 64 68 64 70 66 70 90 86 80 68 70 86 72 86 92 84 82 92 86 108 198 170 263 456 497 505 533 547 547 506 468 493 493 460 522 568 560 444 379 386 361 363 340 322 299 310 306 
14 24 18 30 38 38 38 50 44 60 58 38 50 50 38 46 56 58 52 64 52 42 72 52 56 58 66 70 60 60 76 66 68 74 64 78 80 72 80 82 80 82 82 80 74 74 78 74 92 92 98 90 86 150 164 206 386 470 506 508 516 520 524 485 464 456 421 452 462 419 330 304 303 303 326 332 312 310 324 318 
22 22 32 22 32 42 42 44 46 48 50 54 40 52 60 52 52 64 52 48 48 50 64 70 64 70 72 72 72 68 72 62 64 70 82 82 86 78 74 80 76 78 70 74 74 86 74 78 96 86 86 80 86 94 148 132 218 427 487 512 537 505 489 444 452 373 291 293 291 271 293 357 365 369 357 355 342 314 336 322 
12 18 32 42 24 26 22 40 40 40 32 48 34 48 48 48 54 54 54 60 40 38 58 64 60 56 78 66 70 56 80 72 44 60 74 70 70 70 74 68 88 76 74 76 68 78 88 80 88 82 76 74 88 88 104 110 154 269 388 423 454 452 406 344 361 318 261 255 245 234 306 384 412 379 361 348 328 334 328 332 
24 38 48 26 38 42 54 50 34 40 48 44 34 48 52 52 50 54 54 66 48 60 60 70 64 64 68 70 58 62 66 68 72 56 66 76 68 76 62 70 76 68 78 88 66 82 84 78 90 76 82 86 84 76 76 80 98 144 194 208 196 152 126 186 293 312 318 371 355 295 361 408 415 390 367 344 320 328 334 318 
12 32 44 32 40 46 44 32 54 48 38 40 36 48 46 48 48 54 44 58 64 44 48 62 66 56 58 70 56 72 62 64 72 76 72 80 68 62 80 78 82 86 76 80 82 88 74 88 78 82 98 82 74 80 72 78 70 78 82 62 58 48 88 166 297 301 314 410 423 404 410 433 410 386 363 346 346 361 355 342 
18 22 38 30 20 52 38 46 40 54 52 44 48 38 38 34 42 70 40 54 44 52 52 70 60 62 60 74 78 64 66 84 58 74 62 64 66 82 78 68 80 66 66 72 80 80 86 80 84 84 86 86 82 74 76 76 70 56 58 62 48 72 94 142 253 275 330 359 379 431 439 412 396 369 379 369 357 330 359 340 
38 34 34 48 48 44 38 30 46 48 46 42 42 40 28 40 50 60 62 62 56 64 50 56 60 66 62 60 62 66 70 66 64 70 64 62 62 72 64 64 78 76 68 70 68 78 76 62 70 86 84 100 86 72 78 82 68 68 72 94 112 160 178 182 253 261 263 269 297 373 400 381 365 353 377 342 340 320 332 348 
26 26 30 36 40 52 44 42 48 42 44 40 54 46 48 42 44 64 56 54 62 56 60 56 46 70 54 60 56 54 70 64 56 68 68 62 62 64 62 66 78 64 50 76 68 78 80 66 88 82 92 84 70 48 72 74 86 102 128 166 289 384 402 338 375 425 477 452 444 406 334 344 324 326 322 326 308 312 322 336 
16 34 46 40 52 50 52 56 40 44 26 38 34 44 50 54 58 60 40 50 48 38 40 60 56 46 54 76 42 48 56 74 58 46 50 54 68 56 70 66 74 64 50 66 62 68 82 72 72 76 76 84 66 68 78 88 122 164 259 324 458 485 477 485 462 450 501 552 579 541 410 310 291 285 318 326 340 324 328 324 
22 32 22 28 34 34 40 34 46 34 36 36 36 40 40 32 38 60 36 56 54 38 42 52 52 48 48 54 62 52 66 56 50 56 54 54 68 62 62 74 78 70 64 76 66 82 68 74 78 88 80 80 72 66 80 110 194 220 433 493 477 505 505 530 518 512 479 535 568 558 458 326 301 314 350 340 344 365 371 367 
26 36 46 42 28 38 46 36 48 48 42 40 42 48 46 46 48 56 48 60 54 52 62 44 64 50 50 52 58 72 68 76 58 64 66 78 86 74 74 76 76 82 82 80 78 86 86 98 84 106 90 98 76 82 106 136 148 241 487 520 501 530 535 516 526 530 466 493 560 512 367 318 334 330 336 338 357 361 373 388 
34 32 36 24 48 32 30 38 44 36 42 48 38 24 52 60 34 56 44 50 58 50 48 56 60 60 58 58 60 72 70 70 70 66 68 64 74 76 82 82 90 74 84 72 82 80 96 104 94 110 104 98 86 88 112 156 168 275 530 551 539 524 522 514 497 537 462 474 439 324 295 330 328 301 336 351 384 398 425 431 
34 40 50 50 34 28 38 34 44 44 60 44 44 32 46 36 48 58 48 62 64 50 60 64 78 64 56 66 62 82 72 80 74 70 74 70 82 80 78 90 88 74 74 80 78 74 90 96 88 108 96 104 94 98 106 158 188 283 541 556 552 556 537 531 520 535 423 348 299 275 271 308 299 301 338 419 460 474 505 456 
12 36 56 30 36 34 46 40 48 58 42 42 48 50 42 56 46 54 64 66 50 60 52 62 82 70 62 78 66 74 78 70 66 58 70 68 82 78 80 82 92 78 74 86 86 78 78 88 100 96 110 100 100 96 106 124 188 230 431 530 518 547 541 535 524 505 408 350 367 365 324 306 332 353 388 470 499 528 522 497 
38 32 36 36 36 42 54 38 50 60 54 46 38 52 48 48 46 70 58 60 50 64 44 68 78 68 62 60 74 66 78 80 72 78 64 70 80 72 78 82 78 74 70 82 86 84 88 110 98 90 106 100 92 102 108 112 146 180 279 427 443 371 365 369 326 353 413 419 429 390 344 344 361 355 413 483 516 506 508 495 
10 30 26 32 36 44 34 48 40 56 40 32 42 46 44 54 64 64 58 58 68 66 68 66 72 68 64 66 66 74 76 70 76 68 62 90 74 70 70 90 76 82 84 86 78 94 90 90 96 102 96 106 98 94 94 92 110 112 150 164 154 134 136 146 172 249 361 394 392 371 359 369 367 386 419 501 489 441 396 365 
14 32 40 56 40 40 50 42 44 46 44 52 40 46 62 56 54 44 56 60 70 66 80 58 72 68 68 68 66 58 82 78 72 76 84 84 82 68 76 68 86 80 82 86 74 78 96 88 88 96 96 114 104 104 100 92 86 98 100 102 94 96 108 136 160 208 304 359 388 388 398 388 388 377 400 419 379 351 375 381 
26 24 40 46 44 48 48 32 46 48 50 52 50 54 60 46 70 54 40 68 62 56 62 68 76 60 68 80 66 78 80 74 84 84 74 76 82 66 72 82 86 84 86 82 76 82 88 94 100 100 88 98 98 102 106 94 98 92 86 82 92 86 112 120 158 204 226 289 353 384 373 365 355 350 404 410 412 408 404 404 
18 32 46 36 40 48 32 30 34 46 52 38 48 52 34 56 56 66 68 68 56 60 58 72 74 60 72 72 66 62 90 80 72 68 78 80 92 74 70 86 96 78 84 80 86 88 90 86 94 104 96 92 98 94 80 100 102 88 86 78 96 102 100 136 168 182 208 228 299 342 326 293 283 297 394 431 417 413 404 410 
20 34 46 42 38 38 36 50 36 50 52 32 36 48 54 54 56 72 44 52 50 54 52 58 70 68 64 66 64 60 72 72 72 76 66 76 74 82 74 82 78 76 84 90 90 84 84 94 92 96 92 92 88 84 82 86 88 84 92 82 92 94 108 142 156 192 216 299 346 326 269 226 230 240 336 392 384 382 381 382 
40 24 48 52 42 48 32 40 48 44 54 52 38 54 48 56 52 52 46 56 54 68 50 62 78 58 62 84 68 56 80 66 70 74 62 74 70 72 70 66 88 64 80 86 78 76 80 92 98 94 88 86 76 80 74 72 80 82 88 78 86 98 120 132 170 222 269 291 261 275 212 182 238 279 338 371 382 394 386 408 
28 36 40 42 48 40 26 42 50 46 54 54 42 38 38 42 50 58 52 50 52 60 62 60 64 68 74 78 62 62 64 70 60 62 70 78 68 68 72 88 76 68 78 78 76 76 92 64 86 92 84 98 72 84 84 80 80 86 84 76 80 96 96 112 162 271 334 301 275 228 204 255 285 330 367 396 400 384 392 379 
24 26 40 42 22 40 28 32 36 40 30 50 38 46 36 44 46 58 48 52 58 52 54 56 56 52 54 60 56 68 72 68 62 60 62 56 70 68 62 80 74 68 76 82 88 74 86 86 82 94 80 84 82 76 84 78 76 72 74 70 70 70 88 102 170 293 306 338 320 257 299 316 367 394 406 402 396 367 382 386 
22 44 44 36 44 26 40 38 30 36 32 34 36 28 32 38 32 44 40 52 52 56 52 46 54 56 58 48 52 54 60 56 52 56 44 56 56 64 62 66 66 70 56 84 60 80 74 82 76 82 70 88 82 68 70 62 68 70 58 62 62 76 78 108 216 283 283 314 332 328 330 350 379 386 384 357 386 384 396 375 
26 30 46 36 30 26 30 34 34 42 30 22 32 32 36 22 52 50 54 42 48 54 44 56 48 60 64 48 54 52 60 66 50 66 56 48 70 64 60 66 66 70 64 82 64 76 88 82 66 84 84 90 78 84 80 98 152 172 148 136 136 100 96 144 240 240 240 281 299 330 320 330 365 373 382 363 375 390 375 373 
32 34 40 46 26 42 44 32 52 42 42 38 34 44 38 40 38 42 58 56 50 58 60 60 66 66 74 62 58 64 68 62 66 72 54 64 60 78 70 72 66 82 72 74 70 80 86 80 86 96 94 86 100 86 122 222 308 299 279 351 379 287 198 230 320 265 255 236 303 357 353 357 355 338 346 357 375 381 379 359 
18 26 28 46 34 48 26 40 40 38 32 32 28 38 38 42 48 62 56 48 50 44 52 60 52 50 50 62 70 66 78 62 60 62 60 58 78 66 64 72 82 74 78 90 80 76 86 78 94 88 88 72 94 90 212 287 293 318 398 454 470 458 410 373 361 287 241 257 261 359 382 388 381 359 346 371 398 406 394 377 
0 20 48 36 38 30 46 32 40 40 42 28 34 52 50 44 58 56 70 52 56 46 48 62 54 40 52 52 50 66 74 68 66 70 76 62 68 76 74 74 84 76 80 84 74 84 78 100 90 90 92 82 106 106 259 386 348 382 462 470 479 485 460 425 406 338 245 228 216 269 379 402 406 396 402 400 439 446 429 390 
20 30 36 42 36 48 56 40 50 38 44 30 34 46 40 56 48 58 52 64 70 56 60 70 50 70 62 62 74 64 82 70 58 74 76 80 82 74 72 76 88 88 86 86 92 82 90 94 92 100 84 96 106 128 310 396 410 503 520 456 377 443 452 423 429 357 271 289 220 257 277 350 324 344 332 388 475 528 489 421 
24 50 36 34 28 56 54 38 42 38 46 40 54 60 52 48 48 60 50 70 80 68 58 70 72 74 66 70 76 78 76 70 76 72 70 72 76 80 74 76 88 80 82 98 94 100 100 92 90 100 102 118 108 144 310 417 400 472 481 435 344 412 429 439 448 367 312 312 267 277 318 338 299 344 336 379 441 530 535 452 
26 50 44 32 30 44 44 40 52 48 38 40 40 78 62 68 60 60 54 72 54 58 54 66 70 72 68 74 68 72 72 78 78 76 74 74 68 74 84 82 100 84 82 92 84 94 82 96 94 94 100 102 104 122 220 355 351 340 452 466 433 433 408 412 410 363 312 303 318 316 357 289 318 312 346 373 410 454 470 441 
16 44 46 38 40 42 32 32 50 50 48 46 42 48 56 56 58 40 62 62 64 46 62 62 68 60 60 80 74 68 78 66 74 68 78 66 72 68 70 90 96 90 88 90 84 92 94 90 100 98 102 106 94 98 128 162 202 192 273 379 384 320 255 293 346 328 283 310 304 398 346 324 351 320 350 365 400 431 408 423 
2 50 44 38 26 40 30 32 40 44 42 38 36 54 52 60 58 56 54 64 68 58 62 60 56 70 74 70 74 78 78 62 64 74 80 66 74 70 84 78 86 80 80 100 86 92 90 94 106 104 90 98 86 90 102 98 106 104 104 126 124 116 148 230 289 304 322 287 357 413 359 369 377 322 324 381 413 439 425 425 
26 40 28 34 54 30 44 42 62 58 50 36 34 38 56 56 64 42 72 60 56 64 60 74 66 64 62 74 74 64 76 82 70 72 72 68 78 62 74 90 82 78 84 102 82 100 100 104 100 100 96 98 96 96 84 84 90 84 82 82 84 84 136 196 283 340 324 334 392 417 419 396 417 350 355 373 382 408 427 427 
24 30 46 42 30 44 48 30 44 56 48 54 42 44 52 50 50 62 54 62 64 48 48 58 70 66 60 68 60 70 62 66 74 72 70 80 74 80 82 76 90 80 74 96 98 78 94 92 92 102 104 100 104 94 76 72 70 70 76 66 76 74 104 224 351 361 355 400 443 452 444 433 441 396 394 350 384 413 439 425 
22 38 40 42 28 42 50 38 50 46 40 70 56 50 42 46 54 66 62 60 60 48 46 60 62 74 70 68 56 62 80 78 58 78 82 76 68 72 70 78 92 104 88 98 96 86 100 98 110 112 114 108 96 98 84 92 86 74 74 66 76 64 114 271 386 384 373 390 439 439 450 452 472 456 427 421 398 415 450 425 
32 44 34 36 36 44 44 36 52 50 48 56 42 40 50 48 60 60 60 68 56 46 76 72 62 64 52 58 58 70 60 74 64 72 62 66 66 76 66 78 78 88 84 98 86 92 108 100 106 118 112 110 112 90 90 78 72 76 82 64 72 74 104 247 363 379 415 379 365 412 441 448 479 479 464 433 421 410 419 415 
26 46 32 44 48 40 36 30 48 38 40 30 46 40 40 46 42 68 50 56 52 50 54 66 64 42 48 54 56 56 58 70 58 68 50 72 76 68 72 76 76 84 92 100 100 80 100 106 106 114 112 108 98 104 108 92 90 78 66 62 74 86 128 275 355 398 412 392 373 344 369 427 444 468 466 394 373 398 437 417 
16 40 32 54 38 50 44 42 54 46 38 48 28 30 52 48 46 54 56 54 58 56 44 60 54 50 66 52 60 50 50 70 58 60 60 58 64 68 78 72 74 86 94 88 84 88 94 102 106 118 120 106 146 228 271 253 226 116 90 66 84 80 176 332 361 394 382 388 392 369 342 340 384 441 431 392 363 363 392 396 
26 32 38 14 42 42 36 44 42 42 50 50 48 44 40 50 54 40 54 64 52 48 52 62 62 50 52 52 46 54 58 72 56 60 52 62 64 70 68 76 78 80 88 92 92 92 104 98 104 108 110 150 220 261 381 443 423 396 353 312 182 120 238 320 346 379 363 377 371 377 342 328 332 396 415 377 351 346 350 348 
32 26 32 44 34 40 40 38 42 46 60 42 36 40 58 50 50 52 48 58 50 68 60 62 54 60 58 52 54 64 70 66 70 62 70 58 74 72 72 72 84 86 96 106 100 104 110 114 112 128 126 241 261 316 479 499 474 470 495 472 421 287 314 316 330 338 328 306 301 316 301 303 291 324 375 359 371 322 328 336 
26 36 38 48 26 48 38 50 34 50 32 54 42 46 42 56 70 56 60 54 52 60 56 66 62 72 72 56 64 66 82 82 62 72 78 68 84 74 64 78 98 90 94 108 106 128 118 116 126 116 150 265 304 371 493 470 475 477 518 489 501 491 443 431 400 365 338 308 306 295 299 277 287 299 348 338 326 318 357 373 
22 40 44 56 42 50 42 46 48 40 46 48 40 44 54 54 60 60 54 56 70 60 58 68 68 68 62 70 68 72 76 72 78 84 86 70 76 76 76 92 84 110 98 114 110 116 114 110 126 132 158 275 320 381 466 487 516 526 505 479 485 495 508 491 491 443 363 330 308 281 283 257 271 283 318 308 308 295 348 367 
28 38 36 26 54 50 42 52 50 68 46 40 42 42 64 54 42 58 62 66 56 62 66 76 64 66 64 80 72 62 80 82 86 58 88 72 90 72 90 68 98 90 102 110 106 114 122 108 118 130 140 263 316 359 410 470 508 501 452 466 429 427 446 470 491 460 361 322 316 304 265 243 263 273 275 275 259 243 326 310 
22 38 32 54 50 48 58 64 34 62 48 50 48 58 58 66 48 54 68 60 72 74 78 70 68 74 70 82 76 74 90 84 74 82 74 100 86 88 80 80 90 94 104 110 104 110 98 116 116 122 124 232 320 386 410 444 491 530 497 458 404 402 396 410 446 452 330 295 328 334 314 273 251 243 247 241 240 255 314 303 
24 40 44 36 38 54 44 30 32 50 42 44 28 54 52 58 54 54 64 66 70 64 68 68 58 70 70 80 88 72 74 58 68 68 82 74 74 90 74 82 80 84 84 92 100 92 90 98 114 112 128 158 263 388 427 429 470 512 489 448 412 400 367 412 429 396 273 275 330 328 277 243 238 243 247 232 234 230 281 301 
18 42 48 38 52 46 24 36 48 52 30 46 54 46 48 64 64 70 64 62 66 70 64 74 76 62 56 64 72 76 78 64 74 84 82 74 70 80 84 86 82 80 88 80 82 88 96 96 102 104 102 110 136 186 269 342 439 470 464 450 462 419 410 435 412 355 318 310 299 279 277 257 273 257 232 230 220 216 247 273 
26 40 38 34 34 36 22 58 50 48 56 46 26 46 48 60 50 62 58 74 68 56 70 76 86 60 76 62 68 76 78 70 72 76 68 74 78 78 74 88 94 80 86 100 96 94 92 96 96 96 110 116 102 106 122 120 186 247 299 304 365 373 367 377 369 369 353 303 303 293 283 275 259 245 234 216 186 202 222 249 
18 30 44 26 38 42 40 40 34 46 38 40 44 52 48 52 52 54 52 74 72 62 60 64 80 70 54 78 72 58 78 68 76 66 76 68 82 80 72 84 84 84 82 88 92 100 92 78 96 86 104 104 98 98 84 96 88 100 106 136 249 281 281 297 320 328 299 285 273 255 249 241 255 232 206 182 192 188 226 218 
10 22 42 32 18 42 28 42 44 38 54 36 36 52 46 60 62 56 62 66 60 64 66 56 72 62 70 64 66 72 76 66 64 68 78 64 66 78 80 68 88 80 70 98 84 80 84 90 94 104 84 90 72 80 72 94 78 66 68 86 234 269 273 279 293 301 301 285 265 241 238 224 241 226 192 190 186 212 210 218 
10 36 18 20 36 28 30 30 56 34 30 38 40 40 42 54 38 58 52 62 66 62 54 72 66 62 62 68 66 70 86 68 62 78 70 58 74 68 84 78 84 86 84 88 78 90 74 76 78 82 80 92 68 68 82 58 56 58 72 154 336 342 295 303 306 303 273 241 236 230 220 200 241 236 230 200 190 222 224 226 
14 28 6 10 16 26 26 42 50 32 34 24 32 34 32 50 46 50 54 52 52 70 48 70 64 50 58 70 58 60 70 54 62 56 74 60 72 56 70 84 72 88 96 92 90 74 64 78 74 76 64 70 58 60 72 58 58 70 94 297 431 406 371 342 334 310 308 312 279 224 202 202 232 259 255 216 196 222 224 226 


