P2
80 60
603
65 37 31 12 20 29 39 41 41 43 33 69 51 55 47 57 51 63 41 61 49 55 67 59 59 45 77 63 65 67 69 73 67 73 79 73 81 93 97 79 75 69 57 71 71 51 65 67 55 57 65 105 111 129 119 119 107 135 149 141 119 79 133 143 165 273 410 412 381 367 347 346 408 441 418 363 336 332 288 284 
55 37 12 37 31 31 29 37 37 47 41 65 49 51 47 57 57 57 47 55 59 65 61 53 53 55 65 55 47 53 55 67 57 65 71 91 67 73 73 67 67 51 57 41 51 43 49 51 57 53 65 65 61 101 77 93 101 167 231 205 183 145 161 203 279 357 530 561 584 534 451 353 344 379 400 379 342 326 298 284 
41 31 33 20 29 31 35 22 31 39 41 45 53 53 53 49 49 57 43 67 45 55 59 53 47 41 53 59 51 43 57 53 65 49 65 67 55 57 61 69 61 61 63 45 47 47 39 49 47 49 49 41 65 51 75 93 141 175 229 249 225 175 195 263 322 406 528 555 595 588 603 517 342 324 296 294 306 308 281 273 
65 35 49 29 31 31 33 45 39 33 51 67 33 41 45 41 51 51 45 41 51 63 43 55 49 45 53 65 47 63 53 69 59 57 71 57 71 63 57 65 51 59 55 65 67 59 63 59 47 57 71 49 69 71 113 145 181 199 241 237 235 197 215 326 371 453 561 582 603 603 590 580 451 369 365 284 257 259 239 259 
35 35 29 16 43 29 39 43 31 49 37 51 49 59 47 33 53 41 33 37 41 41 43 45 53 45 45 51 61 55 65 59 51 79 69 55 51 67 75 65 59 61 67 69 69 51 71 59 59 59 67 79 69 85 131 199 177 193 269 253 265 215 298 425 487 480 569 590 594 595 578 534 445 396 346 330 306 286 269 269 
51 20 27 35 29 35 27 20 22 16 43 65 39 57 43 43 45 37 43 43 51 51 55 45 47 45 63 65 59 61 69 57 49 61 87 69 69 71 75 69 65 69 77 69 77 67 67 79 61 75 65 67 71 77 147 245 219 199 273 275 292 241 332 455 505 486 534 548 553 576 480 422 433 410 369 359 342 320 306 294 
39 35 41 29 45 41 39 47 47 39 41 71 43 41 55 39 47 51 31 47 69 59 57 49 57 63 71 65 51 67 79 79 75 79 75 85 85 93 85 87 77 75 85 93 87 85 81 79 63 77 81 79 75 73 145 263 249 217 277 322 316 306 369 456 478 489 524 524 497 433 371 361 365 377 353 349 342 314 304 294 
45 31 29 31 37 35 51 43 37 45 47 57 35 63 49 49 39 41 51 61 61 59 55 67 51 69 73 67 61 81 93 71 69 73 89 75 91 83 93 81 73 87 75 71 91 79 93 89 79 91 91 87 79 95 121 237 261 225 239 373 418 398 476 522 503 499 526 520 478 349 342 369 328 353 357 353 342 340 316 302 
47 35 31 20 29 45 29 37 45 41 61 61 55 53 35 45 51 67 61 65 59 49 81 73 65 49 75 69 59 81 81 67 79 87 93 99 93 87 93 83 71 81 79 79 89 71 83 91 79 83 91 87 97 93 87 195 265 221 223 346 427 484 532 520 511 526 546 551 487 367 396 445 383 385 363 365 336 340 314 306 
73 49 45 29 41 45 39 41 47 47 51 81 53 49 69 49 63 77 69 61 65 69 75 65 65 59 69 69 71 81 73 81 71 77 101 99 97 95 83 89 77 93 69 73 91 85 77 87 77 87 81 79 95 75 73 123 207 201 213 353 472 489 501 505 515 532 536 536 484 396 441 439 393 369 353 355 344 324 330 328 
47 29 27 24 27 22 27 47 49 31 41 75 43 57 59 53 67 51 57 71 43 61 79 59 61 51 75 59 63 69 99 81 59 75 89 83 75 83 87 73 73 79 79 79 79 73 89 83 85 73 83 81 93 81 71 79 155 167 175 269 441 449 425 458 511 505 495 486 478 466 460 422 383 361 365 371 349 373 336 318 
47 35 47 20 41 33 55 39 39 43 55 61 39 47 65 61 71 61 67 73 57 69 77 67 61 79 71 75 61 69 87 85 85 65 75 83 71 95 85 71 65 71 85 91 73 81 85 79 81 77 91 99 97 81 61 71 93 123 149 239 286 277 243 355 484 439 379 453 464 486 468 424 377 355 363 367 363 377 367 351 
51 31 49 29 47 39 51 39 65 47 45 59 51 61 63 55 53 55 57 61 67 63 61 69 57 61 67 73 63 77 67 73 77 77 73 85 77 71 89 77 79 67 69 77 77 87 79 93 67 75 99 79 81 91 71 81 71 77 87 85 93 75 111 189 349 326 306 387 422 412 383 383 373 365 371 371 363 406 385 373 
49 39 33 37 22 57 47 41 49 49 45 67 47 63 49 37 49 55 45 77 49 69 71 69 67 65 57 75 75 65 57 89 65 67 79 73 79 85 89 75 83 77 65 69 81 75 79 85 91 89 87 81 85 83 81 79 73 61 77 97 91 119 153 211 284 265 265 277 296 351 369 373 381 379 373 383 383 377 355 363 
67 35 35 33 49 47 51 31 45 51 43 57 53 49 29 45 69 61 57 69 75 69 69 67 69 59 67 55 77 79 91 75 73 75 75 73 75 83 77 77 79 81 75 69 67 71 87 79 73 85 97 97 91 79 77 81 75 77 123 173 151 179 306 387 420 371 402 420 412 377 349 336 336 349 332 342 357 357 346 340 
55 41 39 41 37 47 51 53 45 43 43 47 61 45 53 51 53 71 53 67 63 67 77 57 57 71 57 71 59 67 85 71 63 67 79 75 61 77 75 77 77 69 59 79 81 69 93 75 73 73 87 85 83 61 73 89 87 121 161 215 308 361 460 472 493 449 451 491 549 574 515 383 314 332 302 332 322 338 338 330 
51 39 53 41 57 37 47 55 39 39 41 41 45 57 55 59 55 57 41 49 55 59 69 79 65 55 57 75 51 69 67 77 63 59 59 65 65 83 81 69 79 85 71 81 71 69 87 89 67 77 87 93 87 79 75 89 113 141 183 231 441 515 493 511 513 532 511 480 532 578 565 493 338 338 332 353 353 355 330 330 
41 35 22 20 31 29 35 22 43 39 39 45 35 45 47 35 51 55 39 53 45 59 63 65 67 59 65 69 75 61 73 59 63 69 85 69 77 79 77 97 89 79 89 79 67 77 75 93 81 85 87 89 87 79 77 95 143 171 145 243 476 517 489 513 522 534 559 536 493 551 542 489 404 418 422 408 389 418 377 387 
53 43 43 33 29 37 37 41 51 47 41 51 47 49 51 59 61 59 49 55 59 53 69 63 67 65 61 63 65 81 77 79 71 85 95 77 95 87 99 93 85 95 91 79 85 79 85 107 75 89 101 97 91 95 99 103 167 217 185 322 526 528 555 532 534 522 536 526 501 513 503 499 486 503 526 513 522 518 501 474 
57 49 49 37 49 29 45 53 41 55 61 59 57 57 59 67 43 65 53 55 59 63 61 59 63 57 73 67 69 77 75 73 91 87 93 77 85 85 97 93 97 89 99 79 89 83 105 91 91 107 101 107 95 97 111 99 175 251 215 336 542 548 557 534 520 526 517 517 493 489 449 424 455 501 526 532 546 567 542 526 
77 65 53 49 47 35 43 49 47 49 65 69 61 43 39 47 55 59 51 73 71 67 63 69 77 77 73 73 75 87 79 89 81 85 99 85 87 89 91 93 91 87 83 83 81 75 91 103 73 95 97 97 103 107 97 109 147 203 203 300 517 534 532 555 551 518 553 534 482 427 355 344 344 414 451 509 544 555 540 532 
57 49 45 22 53 41 45 35 41 45 43 53 57 53 45 59 55 55 55 67 67 59 71 67 75 63 71 71 69 81 85 81 75 87 87 89 85 87 91 95 89 81 81 87 91 75 81 99 93 97 97 91 105 103 113 103 111 151 189 257 449 453 425 462 507 505 530 486 451 447 408 365 346 391 406 441 499 546 532 518 
51 45 43 47 55 41 43 31 31 53 41 47 47 53 51 59 61 69 59 69 51 67 57 65 73 67 67 67 79 73 81 83 71 89 83 83 89 85 95 89 79 89 85 81 89 85 95 107 83 93 93 105 103 93 101 109 99 103 103 141 165 165 147 197 306 365 391 410 400 412 389 387 361 375 391 414 472 509 482 503 
39 39 49 39 43 35 39 39 35 47 45 51 55 61 47 61 65 67 61 61 73 65 75 69 67 67 71 65 71 83 75 81 89 87 83 99 75 75 91 101 79 83 93 73 91 77 97 97 97 91 109 103 107 101 95 99 107 89 93 99 89 109 119 129 165 191 243 336 394 393 371 371 334 342 326 340 373 408 420 455 
43 53 47 53 43 39 47 47 37 41 63 75 47 53 69 57 75 63 55 57 73 67 73 69 71 73 93 77 73 73 87 77 83 97 99 91 95 91 101 89 97 91 93 89 77 77 101 105 99 101 103 113 101 101 105 105 93 89 97 109 101 103 119 133 157 197 255 318 393 408 383 361 330 365 379 365 359 391 389 410 
63 45 49 55 57 45 45 37 47 39 57 59 63 49 65 41 81 57 43 71 67 57 69 75 71 67 75 73 69 73 81 83 81 93 83 85 85 79 81 97 85 91 91 77 81 75 91 105 89 101 95 93 91 101 99 105 103 95 89 91 105 91 119 103 155 215 306 365 391 402 379 347 328 385 408 393 379 393 387 406 
45 45 55 35 49 57 29 39 41 49 57 59 57 61 49 55 65 65 69 63 61 57 69 67 79 63 79 71 75 71 81 83 79 87 93 95 85 87 97 93 89 75 81 85 91 87 87 97 77 97 87 89 99 103 97 105 101 91 97 87 107 109 105 125 203 296 330 310 316 351 375 383 344 377 373 353 346 373 367 393 
63 47 45 47 37 27 35 61 31 43 59 61 47 53 59 55 55 79 47 55 59 59 59 67 75 65 73 65 71 85 79 83 83 97 83 89 87 91 97 99 89 81 87 85 89 85 85 103 87 85 97 93 115 95 89 99 91 91 107 103 101 111 117 133 263 328 314 277 290 314 347 398 367 369 353 351 338 363 357 367 
71 45 55 47 47 39 35 35 27 45 49 61 49 59 55 59 55 63 53 61 51 75 59 63 85 63 63 73 71 71 87 65 73 87 87 93 83 77 89 89 91 69 81 83 93 79 89 101 93 87 91 93 87 87 87 95 93 79 93 105 101 99 131 137 284 316 294 288 300 302 326 389 385 402 361 351 379 398 353 349 
61 49 57 43 61 37 37 47 47 47 53 65 53 37 45 49 57 55 47 53 47 63 69 55 75 61 75 69 65 67 75 65 69 81 103 81 75 81 81 87 85 71 77 67 89 83 97 85 75 83 87 97 83 85 81 99 83 83 89 81 89 103 121 151 302 320 286 294 326 286 324 375 338 361 373 396 424 427 400 375 
55 35 49 53 45 45 35 39 35 45 49 75 43 51 51 43 49 67 51 53 67 71 51 61 65 63 63 63 63 79 67 77 71 73 75 67 75 73 73 77 71 71 77 83 87 67 93 81 71 81 83 81 91 83 75 99 131 149 145 145 145 103 103 173 296 332 314 288 306 292 322 363 302 290 355 414 435 468 437 408 
43 45 45 37 53 31 45 41 37 39 53 59 49 37 39 45 59 63 53 65 59 67 61 61 61 57 61 53 57 69 75 61 67 73 63 61 61 77 71 87 73 75 61 85 71 77 83 97 71 71 81 85 85 87 95 187 271 255 269 328 379 286 209 269 340 346 344 284 322 336 342 361 281 312 410 447 474 468 447 414 
47 31 47 39 45 31 35 39 33 45 47 43 51 53 39 41 65 55 61 49 59 57 57 63 63 55 65 61 57 67 63 63 75 81 65 73 77 79 81 79 75 79 77 81 79 73 85 91 79 93 87 85 87 85 163 273 283 298 347 433 468 462 445 424 385 379 377 334 355 359 330 355 316 429 503 495 489 482 441 402 
59 57 47 45 27 53 51 37 49 43 51 59 51 67 53 51 53 59 63 63 55 69 73 57 65 61 77 57 65 69 73 59 73 79 75 75 81 87 89 83 79 85 73 79 83 83 95 99 83 103 101 97 111 111 205 344 371 326 425 470 468 480 489 451 439 393 371 349 367 322 351 300 326 472 482 489 491 435 396 402 
51 43 31 49 35 45 41 39 37 43 47 53 41 45 63 63 57 59 63 49 47 59 61 61 69 51 55 71 65 65 73 67 67 79 81 77 89 81 81 89 77 87 71 91 91 79 91 95 81 81 95 87 103 113 245 326 357 420 509 484 441 385 449 429 408 406 379 363 349 336 320 257 314 367 387 422 416 406 396 404 
39 37 61 49 43 31 49 29 31 45 55 77 57 65 59 57 69 67 61 51 55 59 57 61 67 59 63 63 55 69 83 83 71 87 89 79 83 85 83 95 91 85 85 89 87 93 103 105 91 81 95 89 107 121 229 314 371 369 480 478 429 377 429 402 420 408 383 351 326 357 300 292 306 361 389 431 439 441 418 393 
59 35 45 51 37 41 47 35 47 53 51 61 61 51 55 49 63 45 41 61 67 65 57 63 67 67 67 75 71 71 97 85 69 81 77 83 89 89 87 95 95 89 93 89 89 85 99 113 89 93 87 89 105 111 217 298 383 298 412 451 462 456 449 383 385 381 363 310 322 318 322 349 391 437 435 480 472 458 427 391 
47 57 39 47 39 49 55 35 39 35 47 53 55 73 65 53 51 69 47 67 71 73 57 69 75 71 65 63 73 85 75 83 75 85 81 87 81 75 87 87 81 91 81 103 101 87 107 101 95 97 103 103 105 111 143 201 229 255 257 357 414 375 314 284 283 300 322 320 318 353 408 422 424 470 476 484 470 455 422 408 
51 39 39 29 37 49 41 37 45 35 27 63 57 67 59 69 63 59 61 79 55 67 57 61 69 79 67 75 73 75 77 83 79 83 79 91 89 87 87 81 89 87 87 87 95 89 85 111 97 93 103 101 107 109 107 115 113 123 123 139 151 121 123 181 251 281 314 344 373 402 447 439 433 468 478 464 462 437 439 400 
39 45 43 37 37 35 41 24 53 47 53 65 43 59 63 59 69 49 57 61 59 59 73 61 73 65 65 73 69 63 87 75 85 85 91 85 91 85 87 89 89 87 91 99 93 83 97 87 85 103 105 105 95 99 97 99 97 93 79 87 91 87 97 141 267 310 347 351 375 427 443 470 443 462 455 455 425 443 414 412 
47 43 47 45 22 43 41 35 53 41 47 67 49 65 63 69 79 69 55 65 73 71 67 65 69 71 81 75 79 87 75 69 79 77 93 85 83 91 95 85 85 95 89 99 101 87 93 105 105 101 93 91 99 97 95 99 101 91 81 85 85 89 107 121 251 318 351 353 367 400 408 437 435 449 433 420 400 427 431 414 
57 47 37 39 55 31 39 49 61 63 57 53 55 55 65 71 81 53 65 73 53 65 75 83 73 71 63 75 77 71 81 83 83 87 85 85 79 73 99 103 77 79 89 105 101 109 103 111 91 97 97 97 107 95 91 95 93 85 73 85 79 79 117 119 185 284 334 351 353 379 357 391 435 445 418 420 422 433 414 429 
43 39 49 41 41 43 43 41 51 47 53 61 47 51 57 65 61 67 55 63 65 67 65 53 75 71 67 67 55 69 67 71 79 75 85 87 89 89 107 83 89 93 87 97 113 89 105 107 85 97 109 111 107 95 95 91 85 85 81 87 81 75 103 99 147 227 328 346 361 371 375 427 441 431 420 412 427 429 404 393 
55 47 45 39 31 41 59 57 35 49 55 77 59 47 49 51 55 67 57 53 65 67 55 55 67 81 75 67 69 73 87 79 67 93 89 85 85 97 97 79 89 103 95 93 99 87 109 105 91 113 115 107 109 107 95 105 87 77 75 93 83 73 105 115 159 205 312 367 357 385 396 431 406 391 381 410 420 425 393 387 
43 53 35 35 37 53 57 41 41 53 53 63 59 33 45 57 75 63 63 59 57 63 69 69 59 67 73 55 67 77 67 79 67 91 81 81 83 91 85 89 75 93 91 99 101 81 101 101 93 107 117 127 153 123 113 97 111 117 91 93 85 97 143 233 300 316 371 379 371 371 391 394 369 361 359 400 439 408 383 367 
45 47 47 33 55 41 43 31 57 24 53 39 43 41 41 57 57 77 55 51 47 47 61 57 57 47 59 59 53 65 71 73 69 77 75 83 93 89 81 75 81 89 93 87 95 95 101 115 101 117 121 227 306 288 177 117 165 253 149 71 91 115 288 336 332 347 365 357 369 355 369 379 351 361 361 373 404 404 373 357 
55 61 39 61 51 51 43 53 51 47 47 51 47 29 55 47 59 55 55 57 57 55 49 51 55 49 69 51 51 59 69 77 55 77 83 65 75 85 87 79 75 85 89 79 91 89 95 109 101 105 129 199 304 324 290 241 177 239 235 149 105 195 347 371 373 359 344 340 351 340 347 387 367 346 336 336 369 375 371 369 
53 49 45 18 53 45 39 47 39 35 57 59 41 55 45 53 59 39 59 73 57 53 65 59 59 59 61 55 51 49 75 85 61 71 67 61 65 87 91 81 87 81 81 91 99 101 111 115 109 105 111 151 257 283 330 300 284 273 277 265 187 275 361 377 361 357 340 324 326 330 349 379 425 398 363 367 363 377 381 377 
51 51 43 45 45 39 45 43 31 45 59 55 43 47 63 57 51 49 39 67 59 69 67 61 61 69 75 71 57 67 81 63 71 77 93 73 87 91 91 83 75 87 85 99 119 107 103 117 113 121 123 151 213 292 314 283 288 304 296 283 286 308 375 361 347 342 338 318 304 316 342 369 369 363 334 349 369 375 373 353 
57 43 57 49 35 41 41 51 33 45 47 69 43 61 45 63 59 55 55 43 61 65 65 63 61 71 73 57 71 81 81 87 77 89 99 79 83 87 79 79 101 95 95 117 115 119 123 127 127 157 243 328 394 451 474 425 326 273 273 277 298 318 347 349 322 304 310 292 308 312 318 316 322 312 302 300 294 322 318 332 
45 55 39 45 49 43 47 37 43 55 67 69 55 51 57 57 59 65 59 51 67 59 61 73 59 63 71 77 71 81 77 73 95 93 97 87 89 91 93 101 87 97 93 115 121 115 121 131 163 265 338 416 424 474 503 486 476 342 257 207 267 306 324 316 296 302 275 269 292 292 294 275 261 267 269 279 265 290 273 300 
55 41 49 33 51 55 41 37 51 59 55 61 59 39 61 53 45 67 51 61 67 63 67 75 53 69 65 71 73 67 71 85 75 77 95 83 91 85 99 87 99 99 109 101 103 113 117 133 217 316 346 400 404 443 487 518 497 445 344 243 221 237 322 314 286 281 255 247 257 271 257 245 245 251 251 265 267 290 267 275 
51 31 41 57 51 41 45 53 41 59 59 55 55 45 57 65 53 53 67 61 73 69 81 67 63 63 73 79 71 77 87 81 71 81 91 95 81 89 91 83 95 97 111 93 105 103 99 159 251 298 346 394 412 439 503 520 493 499 445 316 217 225 267 298 288 263 263 221 225 233 255 253 237 255 273 279 239 267 255 253 
43 37 45 49 39 47 37 39 37 53 53 59 45 69 59 59 67 67 57 71 71 71 71 61 61 73 73 83 77 81 83 79 73 81 85 91 79 93 91 77 83 85 81 85 97 93 97 159 249 302 359 429 437 478 530 540 524 515 484 429 245 223 255 251 261 251 233 229 231 255 245 243 239 251 261 267 235 259 227 221 
57 49 47 47 55 51 37 39 43 47 47 65 63 53 59 59 77 71 57 67 61 79 65 55 75 57 65 61 79 83 97 83 89 89 87 89 89 93 99 83 85 93 81 79 97 89 99 145 249 284 353 420 437 487 532 526 515 518 482 439 353 249 257 253 273 249 241 211 225 243 247 229 237 241 263 247 225 245 229 185 
45 39 29 33 33 24 22 45 33 41 51 59 31 51 53 49 67 67 77 67 59 69 73 71 69 51 71 63 63 63 87 75 77 71 85 79 85 87 89 93 87 95 85 89 99 97 99 125 211 275 338 379 424 460 505 505 486 480 470 418 369 255 221 271 286 283 251 205 209 239 231 213 225 237 245 217 195 205 193 163 
43 22 53 20 37 37 31 29 33 57 39 51 41 57 57 51 65 49 41 63 69 63 63 63 67 57 55 69 73 57 79 73 73 65 79 73 85 79 81 81 77 97 73 89 99 85 85 111 137 209 286 328 373 408 447 455 369 383 383 385 346 310 279 265 283 271 267 213 195 227 227 231 225 229 221 191 173 171 161 157 
33 18 39 20 31 39 4 33 33 43 53 51 35 37 55 57 65 43 51 43 57 59 77 45 79 57 65 61 67 67 83 81 59 73 83 63 71 93 73 77 79 75 81 83 79 75 77 83 99 119 153 205 205 231 211 217 155 137 241 296 300 269 306 304 306 284 294 247 209 221 247 237 217 225 205 177 141 173 179 189 
31 41 18 18 37 24 22 20 24 33 45 41 45 39 63 51 55 51 45 49 63 73 71 63 63 61 67 65 65 67 83 71 59 75 83 75 85 85 91 77 85 79 81 69 77 73 83 71 77 85 99 107 99 117 101 83 83 87 167 273 306 292 322 312 304 298 320 281 261 275 261 241 211 213 201 167 121 165 151 195 
41 31 10 14 0 14 18 35 35 24 43 33 45 39 45 63 57 43 55 53 41 65 53 59 63 55 55 67 51 61 75 53 67 65 77 75 83 73 111 89 89 85 87 73 81 77 77 79 65 69 89 95 87 95 69 77 87 101 161 294 304 292 314 318 328 324 320 296 298 306 273 247 219 221 219 161 119 165 153 187 


