P2
80 60
581
60 72 52 40 20 42 54 40 56 70 34 52 56 62 60 56 62 68 56 40 52 48 38 62 82 134 356 389 325 265 176 178 203 310 304 280 292 278 263 247 237 233 200 184 166 166 158 146 128 156 130 142 132 172 203 182 142 146 142 160 229 237 255 251 207 174 156 170 192 176 180 172 174 200 202 188 202 223 274 294 
56 46 36 50 34 38 46 50 66 72 58 66 60 52 48 54 56 70 54 60 70 70 56 66 72 168 331 406 399 319 215 251 344 313 304 308 304 312 296 306 339 319 312 235 215 182 182 156 158 152 156 108 132 146 249 272 247 215 168 160 188 213 227 233 225 202 178 178 219 227 229 190 186 223 225 233 245 259 280 288 
54 66 56 44 58 52 34 44 44 46 46 54 66 64 52 56 48 76 78 96 110 138 108 92 112 270 362 377 443 437 321 344 375 352 327 306 302 312 315 319 308 313 313 319 304 290 266 229 209 194 172 128 136 190 335 323 319 284 233 225 233 198 188 202 217 221 209 227 259 270 253 219 170 202 213 253 263 274 300 294 
46 40 56 36 48 44 60 48 48 56 52 58 56 64 44 44 72 102 172 249 331 401 366 323 337 472 520 474 432 482 432 420 393 377 333 308 329 323 321 288 302 294 298 312 310 310 288 268 247 249 221 196 198 249 313 356 329 298 274 245 235 223 221 215 209 253 284 272 274 278 257 207 182 182 211 239 247 268 282 292 
58 44 46 52 56 40 54 54 48 56 48 54 70 58 50 68 92 255 377 482 495 492 495 505 524 549 581 553 503 441 430 455 401 372 335 339 325 327 315 302 292 296 308 290 284 286 284 266 241 233 223 203 198 202 272 317 319 302 294 257 274 274 268 241 225 286 286 272 274 270 251 233 229 203 227 257 288 278 278 265 
56 48 40 56 40 30 58 40 46 50 52 62 70 54 62 72 170 416 493 513 507 532 530 511 499 490 520 581 553 503 459 474 397 360 352 317 335 337 325 310 312 323 319 278 257 261 243 237 211 186 203 202 200 186 217 263 268 286 296 233 259 270 278 266 247 261 278 276 270 231 239 209 247 225 235 259 263 249 217 152 
50 46 64 46 36 54 52 54 60 52 60 74 72 62 72 98 270 437 503 513 526 526 532 514 499 480 492 535 533 507 472 447 406 379 372 362 317 344 333 343 364 360 323 282 272 266 261 223 215 192 205 202 182 178 190 227 247 237 235 235 231 213 215 229 288 272 272 274 292 266 207 190 203 211 184 160 124 108 116 130 
46 40 48 56 52 54 54 56 52 54 54 48 78 78 78 106 270 412 513 532 514 528 547 526 501 455 420 480 478 478 426 430 383 395 389 381 364 379 391 383 389 377 325 302 298 290 263 239 219 203 215 200 188 184 184 209 237 229 209 186 186 180 211 261 268 265 274 249 235 207 162 160 126 114 100 88 78 68 86 102 
58 60 34 60 38 48 56 44 62 40 58 64 64 64 62 80 221 348 437 507 514 524 518 509 457 247 178 298 447 436 420 434 449 430 385 375 377 377 399 391 375 366 350 343 325 310 286 241 239 219 229 196 196 176 184 200 233 221 200 188 202 200 231 235 237 231 202 196 170 152 124 104 102 88 76 76 72 68 78 92 
64 56 36 50 42 64 60 54 46 56 60 74 72 66 70 72 128 276 364 439 499 492 497 401 257 223 296 401 412 422 426 472 451 434 391 366 356 364 368 352 339 337 350 346 346 329 290 263 255 253 247 237 227 207 217 203 207 227 237 227 223 207 192 168 154 142 120 110 130 116 124 108 112 92 76 90 70 60 90 96 
68 50 62 56 48 66 46 50 48 52 54 60 60 62 66 58 88 150 313 341 389 343 241 207 270 358 422 406 331 278 375 463 428 389 335 343 350 358 360 350 344 344 350 352 374 379 360 315 304 284 280 284 274 255 239 211 231 233 219 207 188 160 100 100 106 102 110 102 108 112 118 122 128 108 94 94 92 86 84 98 
80 46 44 48 58 54 60 44 48 48 46 64 62 74 74 50 64 82 134 144 136 110 122 207 348 410 437 370 253 162 239 441 436 395 354 333 348 364 370 364 358 346 412 467 488 493 476 467 459 447 428 424 364 259 200 168 270 312 294 298 325 233 92 104 88 100 108 112 112 128 122 132 130 132 116 110 102 72 108 98 
52 58 46 50 50 58 42 38 48 40 50 60 58 72 42 54 62 60 60 66 90 86 134 274 374 385 395 319 196 130 140 315 389 374 360 348 356 344 343 321 298 296 350 461 470 465 451 453 449 457 470 467 443 397 375 381 399 391 331 257 298 233 106 92 92 104 116 116 132 136 128 126 138 132 134 126 106 84 88 110 
58 40 48 56 50 54 56 42 40 66 58 68 68 54 44 48 60 56 44 66 60 62 78 146 205 276 265 180 122 122 229 389 387 379 375 362 350 364 329 245 233 247 243 379 424 397 360 335 366 399 410 416 422 401 401 412 410 379 331 339 315 261 178 142 124 138 150 148 150 162 140 144 142 140 146 134 132 106 116 136 
64 52 56 50 52 54 58 40 30 58 66 48 58 56 42 36 66 62 50 56 54 48 54 52 86 78 106 92 96 156 368 422 408 387 387 403 397 414 383 319 296 296 337 397 422 391 377 337 296 333 362 389 387 370 375 348 331 331 298 302 284 296 282 284 266 247 239 211 209 205 205 209 203 209 207 215 198 182 176 207 
66 44 44 54 46 54 46 46 52 52 48 44 46 58 56 38 62 70 52 50 58 46 46 52 54 60 64 90 96 190 406 432 432 439 416 426 408 375 354 344 339 339 358 383 424 412 379 364 321 302 358 368 374 350 354 308 296 306 280 280 306 308 312 304 300 288 263 241 223 227 237 243 239 249 259 278 280 278 284 310 
58 44 52 40 34 34 44 52 32 38 58 60 64 54 44 52 50 48 44 54 62 52 38 56 76 60 80 112 122 215 385 439 434 434 449 420 406 379 381 377 354 354 350 356 414 432 420 391 331 296 312 331 339 327 308 302 294 317 308 302 323 323 306 317 321 312 288 268 255 241 233 265 268 265 261 266 276 280 312 300 
54 54 46 56 34 48 44 44 50 36 40 52 54 52 46 42 68 68 66 74 72 50 56 72 94 94 102 142 261 313 366 443 449 434 428 408 370 372 377 389 372 374 374 348 389 432 447 434 395 308 278 294 319 310 298 286 296 337 339 333 339 327 339 344 346 344 327 317 292 257 263 282 286 288 266 272 274 278 312 313 
36 50 66 66 42 36 56 64 52 50 50 54 48 60 72 56 68 70 72 72 80 92 92 122 178 168 160 190 393 493 405 424 416 406 395 379 364 364 368 379 381 374 360 323 337 377 410 405 397 296 280 274 294 292 276 255 270 319 333 344 337 337 350 352 368 356 344 331 298 280 284 294 284 286 263 261 263 263 268 286 
62 56 46 54 56 48 54 52 42 56 56 60 56 64 46 62 56 72 74 84 160 249 300 356 436 420 399 488 518 530 468 410 395 350 343 331 341 339 344 346 360 358 358 325 321 280 372 401 372 310 288 280 268 263 265 249 280 298 317 319 313 310 313 296 288 306 308 276 261 243 231 213 211 209 213 209 209 211 253 280 
70 66 54 66 66 50 66 66 48 40 64 66 68 76 56 46 72 90 64 142 308 418 449 449 465 451 480 520 526 535 486 410 385 362 350 333 343 350 354 352 352 350 329 321 341 358 436 447 344 302 300 261 255 272 259 263 313 348 312 249 203 196 182 162 176 176 196 198 186 174 178 168 146 156 164 168 182 184 237 261 
52 68 62 46 60 64 72 56 56 70 52 62 76 68 56 66 56 82 90 231 381 422 455 424 432 439 467 495 516 528 445 432 428 412 397 370 343 344 354 356 356 356 346 356 403 420 439 449 350 284 300 276 282 280 274 300 331 352 339 335 312 296 282 247 247 231 239 219 227 217 203 200 213 213 245 259 265 276 282 304 
60 52 56 54 54 58 54 48 50 48 74 56 68 56 46 48 82 84 104 263 437 447 426 439 465 480 470 497 503 495 403 453 449 437 412 366 364 352 344 344 331 343 335 352 412 406 414 405 315 288 315 288 308 294 304 343 354 358 356 358 375 372 377 377 379 377 366 350 310 288 284 270 288 288 294 319 312 302 315 302 
58 52 62 48 46 56 38 44 40 60 72 54 58 64 66 66 66 88 84 257 399 443 443 490 484 484 455 393 408 377 377 451 432 422 420 385 348 343 339 317 308 315 335 348 412 418 383 356 292 306 319 294 321 302 315 333 339 364 360 352 364 377 377 383 374 374 375 350 300 278 265 247 274 282 300 315 310 315 341 302 
42 62 56 58 38 52 48 36 56 46 64 68 60 56 66 48 72 72 78 168 312 410 414 459 449 414 290 202 225 323 385 406 410 414 428 420 405 356 335 327 312 317 343 364 399 416 364 335 302 335 329 300 333 310 312 306 300 348 346 335 348 360 354 354 358 350 337 308 278 239 231 249 237 278 268 276 290 286 315 294 
56 46 46 58 44 62 60 48 52 62 64 58 58 60 66 48 64 58 56 112 223 304 350 337 282 203 142 150 146 274 403 391 387 408 410 408 385 354 329 325 333 329 377 403 405 381 368 313 321 346 331 296 325 321 313 290 278 321 333 327 343 319 315 337 325 333 329 298 259 239 245 237 263 239 251 239 255 237 227 227 
42 54 48 50 44 50 50 52 46 48 50 56 66 50 44 52 58 62 58 70 92 112 132 126 102 100 116 128 142 261 401 385 377 426 406 408 383 354 346 327 344 356 410 412 403 383 350 315 323 323 296 276 292 312 323 298 261 284 300 313 312 312 313 302 300 308 300 292 253 233 249 217 207 200 188 162 138 138 150 156 
48 56 56 56 58 34 40 56 38 38 66 44 50 56 58 36 46 70 48 62 68 58 62 76 96 84 106 150 263 343 401 383 362 360 375 372 331 354 428 381 352 354 397 408 405 356 294 300 296 282 265 268 257 304 304 290 259 266 259 274 263 259 245 225 198 198 184 215 219 213 192 184 150 144 138 128 102 106 130 140 
58 50 46 50 50 70 38 54 46 50 58 66 60 56 54 42 50 68 54 66 78 88 66 64 92 134 213 280 327 374 356 368 354 354 339 341 312 354 447 434 387 255 377 426 405 280 196 202 180 174 178 178 162 174 164 154 130 144 124 114 102 114 114 104 114 124 144 172 176 190 188 182 148 132 108 102 100 106 108 116 
60 34 64 42 46 44 38 50 52 58 54 54 52 44 44 34 34 50 54 62 88 136 126 150 213 282 348 339 331 325 292 308 280 272 284 276 310 341 410 451 453 455 439 430 379 188 112 98 90 100 104 106 120 126 114 108 118 124 128 124 144 146 98 96 102 116 138 156 178 174 162 172 144 112 94 98 88 86 86 98 
58 36 58 56 46 36 36 32 50 54 48 62 54 50 38 42 46 54 68 112 259 354 344 377 374 358 331 296 172 168 249 261 215 257 255 245 274 207 202 249 282 327 327 327 251 130 124 116 120 144 134 170 176 174 158 162 178 211 219 215 215 205 170 128 126 128 110 130 158 178 172 156 148 118 104 76 86 82 92 106 
46 44 62 54 64 46 42 58 42 46 62 44 56 54 56 50 58 68 64 194 323 329 348 370 383 348 255 118 154 243 266 270 251 296 241 235 184 148 110 170 172 188 178 207 170 178 188 196 164 178 162 152 156 184 207 180 158 182 182 160 182 203 158 150 136 136 120 116 126 172 160 154 130 108 80 82 86 82 82 118 
50 52 68 56 52 56 38 48 50 46 60 48 56 70 52 54 68 86 144 247 308 288 245 298 368 312 172 132 120 298 302 276 284 313 253 207 160 140 94 140 164 162 174 166 215 203 198 200 176 172 176 138 152 180 239 229 190 182 182 172 170 180 192 168 166 166 144 120 120 158 172 168 140 144 110 98 88 92 100 104 
42 48 70 60 46 58 56 42 48 50 58 66 70 70 54 54 72 118 223 341 331 325 261 255 312 350 375 354 237 344 325 306 317 274 162 138 140 136 74 98 152 188 203 200 205 196 184 184 146 138 150 126 136 188 288 315 257 282 231 192 188 180 180 180 190 172 160 124 126 172 217 227 207 211 217 198 176 138 128 100 
54 46 50 60 52 50 54 42 46 48 60 64 48 60 54 52 88 156 268 360 323 339 315 251 339 432 434 422 403 362 325 313 255 196 156 96 120 118 72 110 158 190 202 196 196 186 176 180 162 140 144 110 202 306 364 335 339 312 237 194 178 182 174 186 184 176 178 166 128 200 215 223 213 231 245 266 259 253 203 160 
46 50 42 48 46 48 58 52 46 64 64 76 62 70 50 64 90 200 288 317 333 331 266 270 329 420 463 432 395 424 315 302 263 198 178 154 128 124 104 150 186 192 205 188 196 176 180 174 170 126 132 237 331 372 383 356 327 331 251 186 170 182 192 200 202 202 217 170 150 219 223 211 194 225 229 255 249 245 261 259 
40 52 56 54 46 60 60 44 56 58 50 66 58 68 72 68 82 166 268 268 321 346 263 266 282 377 470 461 430 439 333 315 276 211 223 233 186 148 148 182 203 231 205 202 202 172 182 164 148 124 233 352 403 383 383 383 356 313 200 164 182 184 190 196 194 174 192 160 202 221 219 217 231 235 233 235 245 231 259 284 
64 54 60 50 50 54 56 48 56 56 38 58 58 70 72 60 76 120 255 313 290 290 266 272 337 436 478 486 468 428 313 292 278 261 286 290 266 184 186 200 202 207 207 196 190 152 178 166 178 229 288 341 387 383 395 377 335 245 146 160 144 158 180 164 168 166 160 144 144 223 221 229 227 245 225 229 229 237 253 282 
44 56 54 50 42 62 50 52 54 56 68 56 54 80 56 68 74 88 186 294 282 259 265 278 360 424 451 472 414 352 286 259 280 263 284 290 288 241 202 186 213 231 202 184 211 184 198 225 270 282 296 341 377 348 339 286 198 160 106 118 136 118 124 120 116 122 90 102 96 202 239 211 257 215 219 217 239 257 292 308 
54 46 56 50 40 54 44 46 46 52 60 58 60 64 62 72 66 68 106 190 207 247 265 335 377 335 341 368 374 335 284 243 253 253 274 278 290 253 247 196 225 213 194 211 255 288 290 313 310 292 274 233 215 203 182 164 136 116 102 132 104 92 104 106 92 78 70 48 66 182 237 247 265 247 249 243 278 284 312 294 
38 62 62 46 50 58 48 44 64 46 54 58 66 76 60 66 70 74 62 100 106 128 174 172 160 128 146 261 370 344 286 243 196 190 209 255 278 294 288 263 272 263 284 310 327 339 350 325 304 257 184 140 158 174 166 176 138 150 128 158 124 132 128 100 84 76 62 54 64 198 217 229 225 247 247 266 272 296 294 302 
58 52 62 48 52 56 44 50 42 54 46 52 58 58 76 60 58 70 66 70 76 64 76 72 108 82 112 162 333 344 282 247 205 186 182 243 304 319 399 375 344 358 360 356 364 360 325 300 253 186 156 148 184 152 174 172 142 128 128 130 128 124 108 100 98 96 88 72 90 144 176 207 229 237 227 249 247 259 265 274 
40 34 56 48 58 56 56 38 52 52 42 50 42 78 62 50 50 56 56 50 64 56 62 70 70 70 94 124 245 331 290 265 268 266 276 278 304 327 424 399 389 377 377 368 358 352 319 231 188 166 140 124 164 166 162 150 122 138 148 128 124 106 110 114 104 110 94 76 116 134 122 124 160 196 215 231 233 211 219 233 
54 60 60 52 42 50 52 48 46 44 56 62 62 60 54 42 48 52 52 56 54 62 48 54 68 68 82 102 160 327 313 321 306 300 304 265 296 315 408 403 368 372 356 341 298 274 237 221 200 190 164 134 166 140 146 150 138 150 140 106 98 82 86 94 88 84 108 114 118 108 112 112 108 128 150 166 180 192 202 202 
44 38 52 46 60 44 58 42 54 56 64 64 54 54 52 40 58 56 50 60 62 46 40 62 60 66 78 86 102 280 288 308 280 306 302 276 294 333 406 391 339 266 219 211 184 200 225 215 205 190 150 156 148 128 140 120 108 98 60 32 60 62 54 70 82 90 112 114 122 102 122 88 100 86 122 150 168 140 144 132 
56 66 58 52 54 62 60 56 54 46 64 56 58 62 48 64 54 62 48 54 56 48 42 60 66 76 76 94 100 209 286 266 237 288 290 323 364 356 393 280 134 104 98 96 64 84 122 128 122 138 124 112 112 84 92 96 44 52 22 32 30 44 68 84 84 94 102 120 134 104 122 92 92 78 104 108 118 114 124 120 
54 40 42 54 38 58 46 64 56 58 68 58 80 58 52 62 60 66 60 52 62 58 50 48 68 66 86 106 118 205 278 313 292 366 362 408 437 418 381 251 112 88 76 66 58 66 70 74 86 68 88 88 86 68 58 52 42 36 28 26 40 46 88 78 88 114 118 136 146 134 134 116 92 76 96 82 86 66 110 134 
36 46 68 46 60 62 46 48 46 60 64 68 48 72 60 56 52 56 54 60 60 52 52 58 82 86 140 231 282 321 286 306 302 356 375 393 410 410 368 235 100 90 80 68 40 78 84 96 102 84 94 104 110 110 84 70 58 60 68 68 62 76 74 84 104 104 112 142 174 146 136 134 120 76 88 76 54 64 84 104 
48 46 66 58 34 50 48 46 54 56 64 56 52 68 54 66 46 58 52 56 56 76 60 82 142 211 265 300 310 321 304 308 315 348 352 358 372 377 323 160 102 118 116 132 116 130 136 116 120 126 146 156 148 136 114 106 88 88 70 76 74 82 96 92 90 88 106 150 174 156 152 138 106 68 70 64 54 52 80 110 
56 56 54 64 56 50 56 60 44 54 58 70 56 76 58 38 60 54 64 58 66 62 84 146 270 265 265 251 259 286 288 296 288 317 339 343 350 341 298 245 188 237 263 213 162 160 142 142 158 156 162 172 160 142 140 134 106 100 86 82 94 96 94 102 108 108 118 148 174 154 156 148 132 74 66 56 54 46 106 156 
62 60 72 50 54 56 48 48 52 72 74 66 64 64 68 58 58 74 70 70 80 74 116 253 306 302 276 270 266 237 223 249 272 288 296 308 304 298 306 286 298 284 280 237 178 154 136 142 172 198 196 192 176 168 164 152 148 118 106 104 104 96 116 108 118 116 120 130 150 150 142 144 118 82 86 76 58 84 166 172 
50 46 70 54 52 68 56 44 64 58 64 72 68 58 76 42 44 80 60 76 86 110 156 284 290 282 280 298 257 198 152 215 245 257 300 308 282 280 284 270 280 280 263 223 158 156 134 140 142 182 209 200 196 190 168 184 158 142 130 124 118 112 120 132 108 112 118 134 124 118 138 162 190 200 215 196 146 130 170 164 
46 56 44 56 50 68 54 44 64 66 76 64 72 88 74 54 60 76 72 72 78 112 205 268 292 270 288 302 253 182 205 237 249 259 280 282 278 290 280 265 261 270 221 207 166 144 136 118 126 148 182 203 186 198 198 192 188 166 150 154 132 132 122 124 124 112 124 116 106 100 84 132 200 217 217 186 154 154 172 203 
38 56 58 58 50 56 56 58 54 72 90 74 68 106 88 94 76 74 84 80 84 144 255 278 290 278 284 296 265 247 239 257 272 265 272 278 278 302 282 268 261 247 209 205 180 158 150 134 130 162 172 192 188 184 202 217 202 190 170 174 166 150 164 156 144 150 144 138 116 116 128 148 188 186 182 166 178 158 190 211 
58 54 44 54 56 60 48 74 72 104 116 136 166 255 288 249 245 170 98 122 156 253 288 280 274 253 259 261 263 251 288 290 276 265 263 263 274 282 290 265 265 241 207 178 176 162 168 156 188 209 223 203 198 180 182 186 182 178 162 170 166 158 200 180 186 194 198 172 142 148 146 162 176 174 188 198 202 194 215 217 
36 50 50 40 36 36 58 72 112 211 304 348 401 467 445 449 434 366 304 313 337 313 300 266 259 245 233 233 243 304 296 292 294 286 265 239 249 249 263 272 276 229 213 198 184 168 180 200 217 251 268 237 176 174 154 154 154 154 140 142 152 156 194 188 188 176 188 186 186 178 184 182 188 196 207 213 219 225 231 239 
58 46 46 46 44 34 52 118 209 366 453 461 486 513 470 434 341 364 335 424 414 327 268 235 213 205 227 233 243 280 278 290 308 278 274 249 227 209 239 255 247 219 194 188 178 198 207 211 257 274 263 229 190 146 122 118 122 114 96 88 94 128 144 152 158 138 100 196 192 190 192 186 180 186 194 205 227 235 241 217 
30 34 32 44 42 52 62 148 245 377 472 463 495 513 480 405 354 375 385 397 379 282 249 223 207 184 203 233 225 288 266 288 286 265 266 225 184 213 215 225 237 211 200 200 196 200 207 237 284 292 241 229 172 126 110 104 92 78 64 58 58 90 112 130 132 102 90 156 136 160 184 188 196 182 188 196 221 249 198 168 
22 18 26 38 18 48 68 174 259 381 468 476 490 530 484 463 453 453 410 405 344 257 223 221 205 194 172 225 239 298 261 245 263 266 243 213 205 207 227 227 213 186 200 192 196 184 202 202 227 231 182 158 124 114 110 100 106 68 68 52 72 76 58 80 70 82 94 92 112 164 198 182 180 166 192 202 229 200 124 138 
38 40 14 24 0 38 30 152 263 339 420 445 503 562 539 465 459 406 465 387 304 265 231 231 229 202 172 196 255 274 243 249 241 249 255 225 227 247 239 243 219 209 225 221 211 164 184 176 192 152 126 102 76 100 92 118 110 112 126 108 122 124 112 124 136 144 132 150 184 213 203 170 168 152 168 205 211 124 124 136 


