P2
80 60
712
120 112 122 112 118 137 132 132 157 149 130 157 151 149 161 143 159 155 155 159 143 155 147 145 199 443 556 572 554 528 445 441 421 435 427 425 447 501 532 546 507 453 435 425 427 427 435 449 445 431 409 387 329 297 287 329 323 303 281 264 256 273 260 254 258 246 232 234 246 281 279 277 260 258 271 311 333 333 365 345 
114 114 100 134 122 130 141 147 137 159 120 134 141 143 145 157 147 141 157 153 159 165 151 161 208 433 534 560 552 528 479 461 455 435 441 433 439 499 526 509 477 437 435 425 419 409 405 409 407 433 409 387 367 343 327 337 339 331 307 289 291 293 293 262 254 250 242 256 297 315 299 275 244 238 252 309 335 319 341 339 
114 120 120 122 130 128 110 149 141 134 134 134 155 161 153 134 153 181 185 212 230 234 183 169 297 397 449 558 544 544 511 513 475 437 431 439 445 513 542 505 445 415 405 369 373 367 359 377 379 397 401 385 377 345 329 381 375 349 333 329 333 331 325 319 305 277 287 289 301 327 313 262 250 242 273 325 349 361 349 329 
128 132 130 128 120 139 130 137 167 134 137 153 141 161 145 165 204 337 403 407 485 463 393 301 429 499 463 540 601 589 568 542 501 463 441 445 481 542 532 485 413 405 393 365 377 371 365 375 361 367 365 371 367 343 349 371 357 367 357 333 359 355 365 351 327 331 365 339 321 305 299 295 307 279 301 345 365 371 351 313 
118 122 106 118 122 122 137 139 143 139 141 128 155 161 167 175 323 455 532 605 603 613 631 607 667 658 584 556 556 601 582 552 509 465 447 487 542 572 556 489 463 453 451 413 405 383 379 355 359 349 349 343 321 317 331 343 353 347 339 353 379 363 363 345 323 361 387 373 331 317 313 275 327 285 287 291 297 250 220 202 
120 120 114 118 124 126 132 139 163 139 149 155 167 167 189 254 447 536 623 650 644 656 679 687 700 696 662 660 564 519 517 532 511 493 517 544 570 574 558 499 459 463 437 403 391 365 363 353 341 357 333 327 299 303 305 323 331 337 315 353 349 319 299 315 347 363 357 359 349 311 279 240 246 216 177 177 173 132 159 179 
139 128 120 128 132 143 145 145 159 151 149 155 159 169 187 315 431 566 611 646 640 642 644 634 660 710 677 693 685 568 521 497 451 465 503 513 548 548 521 493 459 443 399 373 365 359 373 361 343 345 333 313 287 279 285 293 339 341 307 311 303 289 289 309 343 317 317 319 303 252 210 183 169 130 155 145 147 130 153 151 
120 124 120 130 124 141 139 159 151 151 159 151 173 169 187 329 431 607 638 640 656 597 591 593 587 625 648 656 625 564 509 485 471 499 501 528 542 536 524 491 471 453 413 391 407 387 399 381 361 349 349 339 303 283 271 297 351 351 315 293 299 309 293 297 305 303 269 240 216 183 157 151 141 145 149 159 139 151 155 149 
118 137 132 120 132 134 153 175 163 153 159 165 165 179 179 254 411 568 625 642 627 595 558 548 437 349 403 517 499 491 526 550 528 534 517 524 536 540 507 495 473 477 475 443 431 407 421 419 385 369 355 339 321 295 264 295 349 329 303 311 311 305 283 256 258 216 195 185 177 165 177 179 159 157 145 161 149 157 157 153 
110 128 124 134 153 143 153 151 157 165 165 165 161 179 179 210 325 435 554 599 591 584 513 391 260 208 214 244 363 507 611 597 576 536 523 511 542 519 485 469 451 469 481 483 481 463 443 427 417 395 363 365 335 313 313 301 313 293 264 246 222 216 199 199 197 191 185 175 173 173 179 177 175 181 167 169 149 159 167 167 
120 118 145 139 147 137 149 141 157 159 155 161 175 171 177 171 187 256 349 407 379 379 271 202 185 179 185 212 238 439 597 578 542 554 526 513 542 526 521 495 463 467 475 485 487 477 493 515 461 413 381 335 327 303 305 295 289 226 185 185 189 185 185 185 185 187 179 187 187 179 199 208 193 191 189 181 169 175 171 167 
112 132 141 122 163 161 151 155 157 163 175 175 181 155 167 161 173 183 193 193 175 183 175 163 177 173 189 199 226 295 530 586 568 507 503 503 536 513 534 530 493 526 554 556 544 548 584 609 564 447 329 323 319 343 313 285 291 273 254 240 199 195 185 191 208 202 189 202 212 197 204 218 204 204 206 191 204 177 179 181 
118 120 134 137 149 143 147 151 147 165 165 171 171 165 175 159 169 159 157 169 169 181 171 167 169 179 191 193 214 256 479 595 556 511 501 485 509 524 517 519 521 523 560 570 574 548 509 536 580 597 536 483 475 485 465 437 433 429 423 401 353 327 289 273 250 216 214 218 216 218 220 216 226 228 224 226 204 197 202 199 
122 141 130 137 153 143 157 167 171 159 161 157 167 181 159 167 157 151 171 175 181 202 204 183 185 187 187 214 242 293 515 599 587 566 532 523 503 519 572 517 536 544 566 566 554 524 467 489 524 570 568 562 548 528 509 487 467 461 453 437 435 433 405 421 391 361 321 301 271 262 262 260 275 275 264 252 252 220 212 206 
120 149 126 151 147 132 149 155 161 171 167 169 181 163 161 169 155 161 175 212 295 357 335 289 279 242 224 252 377 441 511 580 623 619 609 597 601 586 568 532 534 528 530 526 523 503 493 479 469 524 554 562 552 507 509 528 517 489 453 435 467 447 463 449 429 445 389 355 335 321 327 313 319 321 335 335 335 345 335 321 
130 147 124 153 145 145 141 151 155 149 159 157 169 163 163 157 157 153 214 335 493 542 560 507 495 523 449 415 554 658 530 587 607 629 623 599 578 548 532 526 526 523 511 491 479 471 467 457 469 491 523 530 566 540 517 540 517 493 479 449 477 469 465 457 451 441 437 381 331 309 331 331 337 325 331 347 347 367 385 353 
141 147 128 141 126 155 153 157 157 151 137 161 169 173 149 149 157 161 236 427 511 546 597 607 625 615 665 648 679 702 650 560 617 638 607 584 558 540 519 511 507 517 497 465 437 419 423 437 447 463 495 513 532 526 461 463 465 495 501 487 473 487 471 475 477 457 461 413 375 331 343 355 349 363 357 333 357 347 389 365 
141 139 145 147 141 157 155 139 157 169 165 159 175 169 177 171 169 183 275 437 507 554 611 646 654 642 650 687 689 712 658 570 572 572 562 560 564 524 515 517 509 483 467 433 431 423 409 427 437 447 467 493 473 473 445 401 413 457 503 501 489 485 489 491 487 465 473 457 391 351 381 371 387 387 363 357 365 359 367 369 
124 155 147 134 139 147 155 165 171 175 181 151 177 181 167 177 173 191 319 457 524 568 648 656 673 656 665 675 673 695 667 562 560 550 550 538 524 505 505 513 491 501 465 435 433 417 421 437 435 435 453 457 427 401 403 409 435 463 489 497 487 487 473 467 469 467 467 453 395 355 355 357 347 371 371 379 377 371 371 383 
141 159 143 145 149 147 151 163 165 161 187 175 171 183 191 181 179 208 295 449 526 591 656 646 652 652 654 665 667 664 595 597 554 523 530 523 509 517 505 487 483 477 453 441 433 407 421 429 447 453 449 471 453 433 423 441 483 513 481 501 497 487 465 465 455 471 473 427 391 383 369 365 377 407 411 405 427 417 413 407 
137 161 151 161 149 161 155 165 157 171 175 185 173 185 191 187 195 236 297 427 491 591 593 623 619 617 652 636 609 560 568 629 634 607 552 528 507 509 515 499 483 493 471 447 433 417 425 439 459 457 457 499 487 483 493 495 515 524 517 519 524 530 521 534 509 493 483 453 427 413 429 417 441 461 449 451 443 453 441 427 
143 147 165 161 149 153 155 163 179 167 165 183 171 189 179 187 206 299 317 343 439 570 570 544 562 528 517 501 523 540 584 619 619 611 546 507 509 515 509 497 491 485 495 457 451 427 441 463 475 479 489 556 530 544 526 513 511 548 523 538 524 526 519 507 495 475 455 461 431 409 389 407 411 437 429 449 457 457 441 439 
132 155 145 151 159 161 159 159 169 167 159 177 193 179 179 191 279 395 371 248 317 375 325 301 359 313 325 333 499 536 534 566 544 536 523 513 530 528 530 523 513 524 515 487 455 449 459 487 495 501 554 591 572 546 534 507 499 528 534 521 517 532 517 485 481 471 451 437 419 367 375 381 397 405 401 447 431 419 429 417 
145 157 149 151 161 163 173 157 157 163 179 181 185 185 183 191 317 435 405 258 214 222 202 204 226 236 256 329 534 580 546 477 524 550 562 574 574 568 546 524 517 524 524 495 481 467 475 509 511 536 576 613 580 558 532 477 447 469 503 505 528 513 493 471 465 467 455 429 407 403 373 349 383 365 383 393 393 393 363 353 
128 147 132 151 153 149 161 157 161 159 177 175 177 167 195 175 230 385 401 351 252 195 189 202 220 230 264 393 580 552 528 499 513 584 593 591 584 591 560 544 538 536 524 503 493 485 503 519 521 542 540 593 556 528 507 469 419 441 463 487 493 485 459 457 457 433 409 385 365 341 341 337 311 321 311 305 299 289 269 260 
147 149 161 155 157 167 171 157 183 177 183 179 177 165 171 173 206 297 385 403 369 287 226 210 238 228 254 321 530 558 574 570 556 607 593 572 591 580 560 536 550 548 521 499 499 477 503 505 483 459 477 503 485 483 471 437 403 403 421 445 429 419 405 365 335 309 303 287 267 275 273 260 248 240 254 234 224 228 232 234 
141 151 153 161 157 143 151 149 157 159 167 179 163 175 177 169 167 214 293 405 473 465 379 281 240 214 252 299 503 593 631 640 627 501 381 327 343 347 311 327 331 327 345 327 323 327 355 373 379 391 431 473 423 413 397 383 343 327 295 287 275 252 246 236 250 256 240 256 275 269 277 260 254 244 226 234 208 220 224 220 
134 157 141 153 141 159 153 157 167 173 181 173 169 169 173 171 163 183 226 281 391 523 524 479 437 349 295 321 523 609 621 611 593 425 281 293 321 339 397 477 419 311 311 319 337 327 293 275 275 291 293 313 291 264 250 234 234 214 202 202 199 204 204 204 230 236 234 264 269 281 273 258 240 224 224 210 195 204 208 202 
141 139 149 143 153 159 153 151 169 151 173 173 175 171 163 153 161 173 171 181 226 355 536 538 548 532 528 483 546 587 580 572 455 325 273 331 481 586 619 576 528 538 526 505 536 528 485 369 277 267 260 250 226 216 210 202 193 193 185 189 187 195 183 191 199 220 228 256 260 287 275 256 234 218 199 195 202 187 189 202 
137 155 145 149 151 157 155 161 175 159 163 165 171 169 177 153 159 169 169 169 181 222 321 521 580 562 603 595 587 591 568 461 311 291 443 589 629 617 582 554 542 546 544 554 524 538 560 542 451 321 264 252 238 208 216 204 197 193 195 202 183 206 191 197 199 216 236 250 273 273 271 254 228 214 195 193 195 189 193 187 
128 145 165 157 155 155 163 159 155 163 171 171 169 163 169 163 151 167 173 159 167 185 208 285 455 534 607 601 613 576 507 369 315 542 615 629 609 540 513 521 507 526 509 519 487 499 515 542 507 465 367 323 291 240 240 228 220 206 202 195 202 204 199 202 226 234 250 252 279 264 256 242 236 210 185 183 181 175 199 212 
137 149 147 145 159 155 161 141 169 177 171 175 187 167 171 185 165 169 169 181 171 179 193 195 260 311 447 550 582 528 409 327 489 601 609 530 552 621 562 538 528 487 377 307 289 345 453 524 556 558 574 546 524 403 301 307 325 315 291 271 269 260 252 248 252 252 244 250 267 271 264 242 222 202 187 187 193 187 212 222 
128 139 139 153 143 151 163 161 169 167 179 159 169 187 183 181 163 169 177 181 189 210 199 195 206 220 242 283 345 363 285 295 538 546 586 562 613 638 597 603 554 505 459 459 371 389 413 461 507 544 591 589 562 528 363 369 433 447 433 395 389 367 291 289 289 267 246 281 256 264 264 242 236 204 195 202 199 193 222 242 
134 157 157 165 157 153 157 171 169 173 175 165 171 177 177 167 171 169 173 183 193 244 323 359 353 347 329 271 258 250 267 407 540 589 572 584 625 627 574 580 526 521 497 449 455 449 457 495 491 532 593 574 574 564 449 403 441 451 453 461 451 417 331 321 301 271 240 256 262 269 264 256 238 210 191 195 210 212 224 260 
126 155 130 147 159 149 163 151 171 171 161 175 171 171 189 181 171 173 181 179 210 357 503 519 503 511 532 473 339 299 335 566 617 578 572 572 587 578 513 501 511 477 433 435 507 467 483 521 473 509 517 556 556 552 463 363 373 417 417 425 437 395 327 311 293 275 260 264 287 281 279 293 299 291 260 246 236 244 279 377 
124 151 151 149 167 159 161 159 159 165 167 177 175 181 185 163 175 179 195 195 277 523 548 497 523 617 609 587 552 475 521 584 619 591 564 584 607 587 481 495 507 471 429 483 521 503 519 536 489 425 439 451 461 457 403 347 339 337 341 365 369 347 315 307 301 285 271 273 295 325 335 347 371 403 397 377 349 343 403 427 
139 151 137 163 157 157 159 171 177 183 177 179 183 187 193 175 179 169 189 212 339 580 544 479 534 617 636 640 607 586 542 574 601 591 597 605 550 517 471 471 475 469 503 515 528 497 507 513 455 427 373 391 365 375 389 373 363 367 367 375 349 333 329 319 315 299 279 277 325 347 351 377 411 427 437 417 391 397 429 433 
139 165 149 147 143 155 163 165 177 169 181 173 185 177 179 183 175 175 183 204 377 511 513 503 582 648 644 640 648 593 526 580 652 587 572 562 475 413 439 453 489 501 511 519 536 475 469 469 433 421 389 361 301 311 397 369 359 373 363 343 325 333 321 329 331 321 307 311 333 347 353 387 375 397 411 427 427 423 455 445 
141 145 145 147 153 171 159 169 171 169 169 169 175 185 183 181 171 175 189 208 353 503 501 526 617 648 677 656 636 593 526 587 638 552 536 501 437 425 455 463 481 526 509 503 487 447 441 455 453 413 361 321 275 321 357 347 331 353 335 333 319 325 307 317 321 333 355 369 375 363 359 373 401 409 409 411 427 433 425 405 
128 147 145 141 155 173 165 149 169 159 173 179 189 177 169 181 171 181 183 189 315 471 509 578 633 625 656 644 623 574 546 607 631 572 532 513 445 417 461 485 495 523 501 485 459 441 415 443 425 387 319 262 232 319 337 307 309 359 351 331 323 317 321 317 319 325 319 319 303 311 329 405 393 409 409 413 415 393 371 349 
126 143 149 151 141 159 157 159 169 161 177 163 171 183 165 169 173 173 171 191 232 341 399 517 589 586 572 609 534 427 530 601 611 572 558 509 425 367 415 457 509 528 511 489 465 413 405 417 391 361 287 285 238 339 341 345 345 363 343 345 331 349 375 381 379 361 321 285 238 299 373 385 395 389 405 407 389 337 281 264 
130 143 149 145 149 139 149 157 177 169 175 167 177 177 155 167 163 179 167 187 183 226 236 299 381 431 433 437 357 311 485 566 582 542 532 467 391 325 371 417 485 491 483 485 479 423 407 423 377 353 309 317 295 353 375 361 329 351 327 343 361 387 373 411 411 397 377 365 333 371 391 393 417 391 399 401 341 260 252 236 
130 139 126 147 147 149 161 139 175 161 157 165 171 161 159 171 169 159 173 181 169 187 189 185 232 232 240 238 226 254 419 544 540 517 489 471 423 319 337 383 483 441 445 463 449 433 435 431 381 367 319 333 315 365 357 349 327 343 321 351 379 391 383 405 405 407 411 447 423 403 403 393 393 387 367 319 246 234 232 216 
124 153 155 151 141 145 165 149 165 157 149 165 167 173 171 161 165 153 185 181 183 171 165 179 181 195 202 206 216 252 401 511 532 517 513 509 453 349 309 371 459 381 457 451 453 425 451 451 393 377 303 305 329 339 337 313 323 335 337 339 391 411 401 399 405 397 435 439 431 433 395 375 381 363 297 238 234 226 232 214 
126 139 134 147 147 147 155 169 171 153 143 161 167 163 183 161 165 157 157 175 171 165 169 183 187 179 195 202 216 230 387 538 538 519 552 523 511 441 377 451 503 347 419 441 451 407 439 423 365 351 325 319 317 315 323 297 299 305 333 319 361 401 393 393 387 407 415 409 421 417 401 357 345 262 220 214 204 204 228 210 
134 141 141 143 141 153 163 165 175 163 157 161 173 181 179 167 153 173 157 159 159 173 171 161 193 189 197 195 208 234 301 495 503 467 479 538 523 519 499 477 453 373 375 389 395 385 417 413 411 447 473 467 417 365 295 291 262 287 281 325 345 371 371 371 395 395 401 381 391 383 377 301 238 191 195 179 189 195 226 173 
124 143 143 149 141 155 163 139 173 173 163 171 185 173 169 155 155 169 173 177 169 173 177 171 189 193 191 214 204 242 262 343 465 417 389 329 353 391 513 507 451 385 317 315 371 403 433 467 481 536 540 540 497 439 260 244 260 256 248 281 287 321 351 363 385 379 391 359 365 353 307 240 199 169 161 163 179 175 187 167 
130 149 134 143 147 165 159 153 177 167 163 161 165 161 187 167 171 161 163 163 151 179 177 167 191 197 202 212 212 224 234 248 289 383 421 351 355 379 505 519 513 515 507 461 475 457 459 487 503 568 568 566 556 427 275 240 244 228 230 269 267 301 323 341 347 353 355 341 305 277 250 222 204 163 157 157 141 139 145 118 
110 139 141 161 139 183 163 143 185 165 151 159 179 193 187 167 165 173 183 171 175 179 175 171 195 189 204 220 222 224 218 244 246 279 339 443 459 441 523 536 511 511 503 495 503 489 477 469 473 519 515 519 503 381 353 341 305 252 224 234 230 244 234 244 248 254 287 299 275 254 262 236 204 161 149 151 139 137 139 120 
118 139 165 139 153 165 171 161 159 169 167 185 185 195 177 181 185 199 179 179 179 187 179 179 208 193 208 238 228 242 256 281 303 289 291 341 413 435 447 465 445 449 431 423 437 441 433 425 413 407 421 413 381 363 355 339 335 307 252 262 244 230 210 199 202 222 271 281 271 252 260 234 218 175 124 118 104 112 110 134 
137 173 169 157 157 173 175 163 171 189 163 187 169 204 262 285 349 393 365 341 210 189 177 181 204 189 210 234 260 313 325 323 273 260 277 351 381 399 373 357 341 349 363 347 355 355 359 367 335 355 357 351 361 367 349 341 345 325 293 295 269 250 242 214 189 202 232 244 260 224 232 234 204 159 126 108 71 79 118 171 
189 177 195 130 161 189 153 153 167 153 153 185 208 299 429 445 503 562 562 511 347 297 252 189 212 199 226 299 347 369 331 275 220 232 281 345 351 377 349 321 311 331 333 307 321 331 335 323 325 351 359 369 351 335 349 349 349 331 293 289 260 262 234 232 206 195 208 244 228 226 230 220 212 165 120 124 83 114 177 199 
250 325 262 228 183 169 143 163 155 169 157 173 258 373 469 513 562 601 599 576 485 457 389 230 202 210 293 379 349 347 291 206 179 199 260 317 363 367 355 305 303 319 309 283 299 323 313 309 317 347 351 357 335 307 321 321 333 315 309 299 267 250 230 224 224 206 208 197 195 210 226 222 248 234 226 202 206 195 220 222 
327 343 305 307 240 191 167 155 161 177 137 183 323 421 495 524 587 619 613 589 589 580 501 295 228 279 355 361 319 325 246 149 132 143 208 313 357 373 343 321 301 313 287 273 297 321 291 303 319 351 329 315 309 299 295 305 301 313 283 273 236 250 238 234 238 224 216 204 167 183 218 230 248 258 267 254 264 244 256 214 
315 319 319 341 293 273 187 143 171 141 189 179 337 441 461 530 572 627 631 615 611 599 548 439 395 373 363 345 331 287 181 94 40 0 206 313 355 349 341 313 317 311 285 256 303 307 281 287 295 301 271 269 273 281 297 299 287 291 264 246 240 236 228 240 242 212 173 155 118 139 137 179 242 256 277 293 283 258 228 137 
238 299 291 305 353 351 271 189 173 161 141 173 329 423 443 483 532 615 621 611 607 605 572 501 423 365 341 355 339 283 161 108 40 77 173 287 341 347 349 335 329 311 271 264 299 309 275 279 242 258 242 260 271 283 323 303 297 256 242 206 206 210 214 214 230 165 120 90 112 100 143 185 248 299 293 303 287 305 287 244 
193 214 236 234 317 391 347 305 230 169 141 181 271 367 435 449 505 578 595 605 591 597 532 443 391 331 309 313 313 254 151 132 106 118 171 262 325 327 343 345 317 295 277 289 317 325 269 260 244 256 256 279 289 297 323 307 283 289 222 220 208 195 177 199 218 191 132 100 112 116 130 181 254 281 297 301 323 327 323 291 
130 143 130 167 248 343 377 343 323 226 185 177 177 283 355 393 439 475 517 534 550 542 483 419 383 327 293 299 273 228 161 153 165 147 197 264 311 345 343 321 313 287 293 303 337 309 260 269 240 250 317 403 407 379 375 365 291 279 238 212 212 175 155 183 197 181 134 149 122 151 167 218 267 277 295 307 321 319 313 307 
100 112 102 116 147 252 337 341 365 343 293 191 177 187 212 250 267 313 375 371 415 471 445 383 345 295 256 279 238 199 165 165 185 177 222 281 311 327 339 331 317 289 313 297 331 295 250 273 244 309 391 439 449 405 337 335 317 287 236 204 177 177 157 165 183 165 161 153 139 175 197 242 260 267 281 283 279 273 281 281 
92 112 114 108 128 173 260 327 337 411 393 359 269 210 202 199 208 202 244 256 258 371 423 373 317 254 193 222 234 195 167 167 157 163 202 240 285 295 311 309 277 260 289 315 351 283 248 281 271 307 393 433 437 393 337 335 311 279 212 191 165 171 145 151 155 145 122 137 102 145 128 159 183 226 222 224 236 208 222 240 


