P2
80 60
562
39 31 21 25 27 31 31 41 45 37 49 45 45 47 37 47 39 57 51 49 53 43 53 55 51 45 71 51 67 65 49 57 67 75 63 59 67 69 69 63 49 65 51 61 67 53 53 47 47 55 59 87 109 121 153 239 292 274 231 269 355 322 318 396 493 481 491 520 522 559 560 534 437 361 377 316 263 225 231 255 
41 43 6 35 19 17 23 39 35 53 43 51 45 55 39 53 45 41 51 45 53 45 47 53 45 41 63 53 55 47 55 51 59 65 55 73 55 53 61 59 47 47 61 43 59 51 53 41 49 49 57 55 71 97 85 199 274 267 221 237 335 392 408 477 512 501 516 535 562 508 487 437 417 367 332 304 288 280 259 245 
37 27 27 23 27 29 29 31 27 41 47 27 33 29 47 45 33 57 35 45 35 53 49 49 47 35 53 51 47 41 55 47 57 45 53 61 41 45 47 63 43 53 57 53 49 51 35 47 41 51 35 31 53 55 63 135 241 247 207 213 308 442 501 508 495 495 528 560 547 468 392 433 410 380 345 326 314 296 284 280 
41 31 37 21 31 29 23 35 31 31 41 41 25 41 35 33 37 47 49 47 49 51 45 49 49 47 45 57 55 57 41 59 61 45 47 45 59 55 43 59 39 55 49 57 69 57 63 45 45 53 59 33 59 45 57 83 209 215 207 185 310 450 481 472 470 503 539 551 545 481 357 335 328 324 330 300 304 292 276 276 
27 31 31 23 37 29 27 41 31 51 37 33 35 47 35 35 35 41 33 29 43 43 41 29 39 47 35 43 63 53 57 57 55 71 49 53 45 53 69 55 55 57 59 61 73 59 57 53 55 51 53 61 61 59 45 57 143 169 165 165 343 450 479 452 472 537 560 508 495 458 404 351 341 324 341 324 304 272 280 284 
37 21 29 33 37 37 35 31 39 25 39 43 19 45 39 33 41 25 49 43 39 51 55 39 45 49 49 55 57 61 49 49 45 51 65 57 53 59 61 57 55 69 75 67 69 65 63 67 59 69 57 61 55 53 47 57 71 119 129 175 359 454 460 423 466 510 506 413 355 410 413 371 355 341 332 332 314 288 276 282 
27 33 37 17 41 47 39 45 45 43 29 37 31 37 43 31 37 53 37 49 63 51 51 41 41 51 53 59 57 63 63 71 75 65 59 69 75 75 79 83 63 75 77 87 83 77 71 67 63 69 63 73 65 59 59 53 59 61 93 117 189 318 353 263 339 464 483 411 386 371 371 349 328 333 322 324 310 284 276 304 
29 15 25 31 33 35 37 45 39 41 41 33 37 45 33 53 25 47 49 55 59 49 45 49 41 63 51 55 65 67 69 67 77 57 69 57 71 61 81 69 71 77 67 71 87 69 83 87 71 73 87 77 73 73 61 45 61 43 55 59 69 79 87 111 304 404 454 460 452 413 382 347 316 312 320 306 292 274 274 282 
35 23 19 25 31 45 33 51 43 37 55 35 35 53 29 35 47 55 53 61 51 53 67 51 57 53 63 55 59 69 59 63 77 73 73 69 73 71 77 71 67 79 73 69 83 73 69 75 69 81 83 69 81 75 57 55 63 43 43 37 29 43 49 135 286 379 415 437 431 419 392 367 326 330 337 326 314 304 300 298 
43 29 31 19 25 45 39 39 33 35 39 53 43 51 57 39 41 61 49 39 53 57 63 49 51 65 61 61 75 67 49 65 65 69 77 71 71 67 77 67 65 79 65 69 75 93 69 77 71 79 71 65 83 67 53 55 63 57 51 33 37 41 45 143 265 286 347 375 363 339 345 335 343 361 359 343 322 306 322 324 
25 19 19 29 27 31 19 37 43 29 31 49 33 39 53 45 49 47 43 47 39 47 51 53 49 51 61 55 61 57 77 67 53 59 67 63 55 71 63 63 63 75 71 71 55 63 79 83 67 67 73 59 81 69 61 53 65 41 33 43 37 45 35 145 292 261 276 337 355 347 361 333 349 367 382 367 357 324 290 324 
39 33 51 17 35 35 45 35 31 37 47 33 37 43 55 47 49 51 53 55 55 51 61 61 53 71 55 63 67 61 63 69 79 61 59 67 55 75 65 65 57 59 77 83 63 69 75 63 63 59 79 77 85 73 53 51 57 57 41 45 33 47 49 157 255 280 286 322 337 349 359 343 349 353 363 359 343 335 300 296 
33 23 45 27 41 41 47 33 49 35 39 33 33 41 47 45 39 45 49 41 57 43 49 65 41 53 57 67 65 71 51 69 77 73 69 71 67 51 79 63 65 69 67 71 69 83 65 77 57 67 81 69 73 77 57 57 53 55 45 35 37 33 55 121 247 239 237 300 306 294 310 333 339 357 384 384 349 357 339 302 
23 29 41 33 23 53 37 33 35 45 45 43 51 49 43 37 53 45 45 59 43 55 47 57 49 49 55 63 71 67 43 69 57 65 63 53 75 75 73 57 73 71 59 73 75 71 71 65 77 77 81 67 83 79 63 67 57 37 39 41 31 53 51 83 227 263 300 355 330 326 306 314 337 361 382 390 384 369 382 330 
51 39 35 33 45 35 41 15 33 45 47 29 43 37 29 39 51 57 53 49 59 61 57 51 49 51 55 51 67 59 65 57 65 73 59 65 63 65 73 65 65 79 69 65 63 71 71 63 57 67 75 75 85 67 67 59 51 41 43 53 29 47 57 149 247 312 333 373 427 462 475 343 308 332 345 361 384 413 448 373 
39 33 43 37 37 55 39 47 35 43 49 31 49 37 39 39 39 55 51 55 57 51 59 51 43 59 53 59 67 55 59 65 61 67 63 67 57 61 61 69 65 67 53 75 71 69 77 57 71 69 77 61 65 49 47 63 55 33 51 37 47 59 75 129 163 179 201 272 411 442 506 448 324 314 314 320 369 481 489 433 
33 35 43 39 43 45 45 45 35 37 41 27 43 45 41 41 41 63 49 41 53 39 41 61 45 37 45 67 43 49 59 61 59 51 49 57 55 61 65 55 71 65 59 71 69 71 77 67 59 67 75 71 75 59 69 59 51 37 63 51 75 119 147 171 241 231 193 243 380 466 487 415 339 324 330 332 444 483 487 477 
31 31 23 27 23 29 31 17 35 31 27 15 35 31 29 27 39 45 35 51 45 49 43 45 41 51 45 59 63 47 45 49 67 51 65 51 67 59 61 67 67 69 67 69 61 81 57 75 71 75 71 75 73 71 65 63 75 57 55 51 105 219 223 233 316 296 229 302 341 499 503 419 353 359 363 373 458 501 487 483 
29 29 39 35 27 35 27 33 33 41 39 33 31 43 39 35 49 55 39 39 39 47 57 47 59 57 51 57 67 71 61 67 75 75 67 65 79 65 65 67 75 81 83 75 75 79 71 85 63 81 79 77 81 79 95 77 81 73 73 55 111 257 312 221 304 314 288 288 326 495 520 452 382 359 341 386 493 503 489 479 
53 31 43 33 47 31 21 47 27 39 49 33 41 33 47 55 35 47 41 43 49 43 49 49 61 51 49 57 67 67 59 61 83 71 73 63 69 67 75 79 83 75 83 69 83 83 91 75 81 93 89 91 89 83 83 69 87 89 81 83 171 270 339 263 276 312 302 288 339 470 518 441 402 417 425 452 518 518 501 497 
71 51 47 51 49 33 41 39 31 35 59 37 47 35 35 23 49 61 41 59 61 51 57 61 63 65 55 65 69 77 75 75 73 65 75 77 69 75 71 79 75 81 69 75 75 71 87 83 63 93 85 83 97 93 89 89 99 83 81 101 139 221 296 314 379 413 419 458 479 497 520 508 491 489 491 501 534 512 503 510 
37 45 53 21 43 41 55 47 43 47 35 29 49 47 33 53 43 59 59 61 57 55 59 57 61 57 55 71 67 83 77 71 71 65 67 73 83 79 79 83 83 77 77 75 79 79 69 85 79 85 85 83 95 93 103 99 133 111 121 145 209 235 284 320 425 444 473 481 475 501 518 514 491 508 493 487 520 528 510 522 
43 39 45 41 43 37 41 41 27 53 39 39 35 37 39 45 39 61 51 53 43 59 45 55 59 53 57 59 85 73 69 81 65 83 63 71 75 71 83 85 67 81 69 75 87 81 79 89 79 83 91 93 85 83 93 157 235 227 274 296 330 274 249 339 406 462 477 485 479 497 512 483 448 448 479 501 497 464 491 504 
29 43 31 29 41 43 31 39 29 43 41 35 45 41 39 45 49 51 47 49 53 53 71 59 59 65 59 61 69 67 63 67 75 77 63 83 61 65 75 91 73 83 73 71 83 83 81 79 85 81 85 87 93 95 109 181 339 408 417 415 361 284 221 270 286 353 431 472 470 462 419 410 377 411 483 503 448 359 386 413 
31 45 37 69 33 41 49 41 33 35 43 43 39 45 59 39 61 49 61 49 61 55 67 55 63 69 75 67 75 61 79 71 79 77 79 75 81 65 79 69 89 79 79 85 75 69 89 81 79 81 81 97 117 181 197 241 357 435 429 398 261 163 175 314 306 272 306 382 410 410 404 373 367 441 510 508 435 375 361 411 
47 37 43 49 45 45 39 41 45 41 51 39 45 41 59 39 67 51 43 59 57 53 63 69 69 61 69 67 63 67 73 79 83 85 69 77 61 73 67 75 83 85 81 69 83 77 77 89 81 89 81 87 107 183 237 298 373 415 398 314 175 113 221 312 322 304 337 384 417 365 373 377 396 477 518 524 485 398 380 380 
31 41 57 35 41 51 29 35 33 41 53 35 45 49 33 53 59 61 61 59 47 53 65 67 65 65 65 67 75 63 73 73 71 71 75 77 73 69 77 71 79 73 79 77 83 91 79 87 75 91 73 85 105 111 139 157 243 306 284 211 139 119 255 349 330 300 312 335 388 363 390 400 437 481 506 508 470 388 357 380 
35 35 51 39 35 23 27 53 23 49 53 35 33 49 45 45 43 67 45 51 41 47 53 61 69 67 67 63 67 67 67 73 67 71 61 75 77 73 77 75 69 73 81 75 73 77 77 89 79 91 89 85 95 81 65 93 123 143 145 143 115 131 255 292 312 276 274 308 306 333 351 410 444 481 477 512 472 402 353 363 
55 33 51 47 37 41 31 49 31 39 45 37 39 55 41 53 45 59 53 55 41 63 49 57 67 61 59 63 69 53 77 65 69 67 63 75 73 71 73 67 75 69 71 83 79 73 81 75 79 83 85 79 81 81 65 69 89 83 107 107 117 133 312 294 270 247 249 284 276 302 347 365 423 473 485 501 473 410 369 359 
45 37 47 35 55 37 31 41 37 45 53 45 41 33 33 43 43 39 49 55 51 63 61 49 61 55 69 61 61 61 59 63 63 67 77 73 71 69 63 71 73 65 67 59 79 71 79 61 67 85 83 83 79 81 69 77 73 71 83 95 87 159 272 243 261 269 257 278 308 306 304 314 394 477 464 468 466 437 386 375 
39 23 43 49 25 43 33 33 35 41 37 51 31 45 41 33 37 63 43 51 57 55 51 55 59 61 53 53 63 75 61 63 67 63 65 53 65 61 59 67 61 67 73 75 75 63 73 71 63 75 69 71 75 71 63 69 73 65 77 73 69 117 257 304 286 276 284 298 355 324 270 267 388 450 429 400 425 446 435 408 
39 39 37 37 47 31 33 39 33 27 27 35 41 25 29 35 35 43 43 57 49 53 57 49 55 55 59 53 53 55 55 53 53 63 41 53 53 55 63 59 57 63 61 79 65 81 69 75 63 73 59 67 83 75 51 59 59 67 71 101 93 105 157 255 274 255 280 304 339 322 259 276 359 415 421 384 404 466 446 417 
29 35 47 31 41 27 33 37 25 37 39 19 37 43 41 29 43 43 55 31 43 41 45 59 51 61 49 47 55 57 51 61 63 61 57 57 59 63 59 61 59 71 63 73 67 71 71 73 59 79 75 75 73 79 75 79 81 81 129 243 294 330 343 332 306 280 298 351 328 312 274 288 379 394 413 392 402 466 458 396 
45 43 47 35 21 55 51 37 43 41 51 39 37 49 43 37 37 47 57 55 51 53 59 43 57 59 63 55 57 59 65 55 71 63 61 61 61 69 79 59 59 79 61 69 73 77 79 77 71 85 83 77 95 95 75 95 153 215 353 413 373 390 402 365 363 314 318 347 324 300 259 280 324 355 369 371 361 382 382 410 
47 37 31 45 41 43 31 33 47 45 45 29 23 47 47 45 47 51 53 37 43 47 53 45 55 47 45 63 61 57 65 57 57 65 69 67 61 67 63 67 67 71 67 91 73 75 73 71 65 77 87 85 99 97 119 203 330 427 441 425 365 363 415 398 396 349 332 345 322 270 241 280 302 326 318 347 308 341 355 398 
31 29 49 43 37 31 51 39 35 41 47 41 37 63 45 37 49 63 71 57 57 51 43 57 63 51 55 61 55 65 69 77 61 77 77 67 67 69 75 75 77 77 75 85 81 89 85 89 83 89 91 89 101 113 187 333 396 442 442 454 423 439 454 427 413 394 351 328 314 296 282 304 316 300 345 322 316 308 343 394 
47 27 37 45 35 35 45 39 47 43 43 29 37 39 43 43 41 41 49 47 59 53 49 59 51 59 63 69 73 59 67 67 67 77 65 75 73 71 67 71 71 83 81 73 93 75 79 85 75 91 81 99 95 99 211 349 408 402 452 442 425 454 444 419 398 377 308 316 306 292 284 292 304 282 296 302 324 304 349 369 
29 49 29 37 35 51 45 27 31 35 37 37 49 47 55 39 41 59 45 57 63 65 47 59 61 63 63 59 77 75 55 65 73 81 73 69 77 57 71 69 73 81 63 91 83 87 91 83 75 79 93 91 97 103 231 341 406 396 377 415 415 392 415 410 386 359 300 270 270 292 328 308 290 282 290 330 286 286 357 367 
33 45 49 35 37 55 41 39 49 47 31 31 39 57 51 51 59 49 53 67 51 61 47 55 65 71 57 71 73 81 61 71 77 77 61 79 79 79 77 77 81 91 79 85 81 83 77 95 79 95 115 99 117 105 199 280 332 335 380 392 363 353 349 353 351 353 349 333 333 314 339 298 286 298 292 308 314 332 419 404 
33 49 47 33 37 47 35 37 49 49 39 39 41 57 47 45 53 41 55 47 57 53 63 59 69 59 63 65 69 57 73 63 83 69 71 73 81 73 69 77 83 91 89 89 85 87 83 87 79 91 99 107 101 97 121 191 221 207 241 292 308 280 231 272 339 355 380 377 355 335 333 308 282 282 326 332 379 404 421 429 
41 51 49 37 29 43 39 37 45 43 43 33 41 59 51 51 59 53 51 57 65 69 51 57 47 65 73 67 71 71 67 65 67 71 77 75 75 75 79 73 75 77 77 93 87 85 87 89 91 95 97 89 105 83 101 107 131 159 161 157 123 135 127 159 300 355 377 384 359 306 304 282 290 326 377 390 394 402 441 452 
51 63 35 35 51 29 37 45 45 65 53 35 45 43 53 59 55 39 59 57 49 53 69 65 55 61 51 69 77 67 65 77 73 65 65 73 75 61 83 79 67 79 75 101 87 107 93 99 81 91 95 95 95 89 95 95 93 93 91 95 85 97 109 141 237 328 377 419 392 306 278 265 318 398 408 404 406 423 431 425 
37 29 41 39 35 51 39 39 43 47 57 45 41 49 57 53 57 69 47 55 57 61 61 53 65 61 59 61 59 61 55 71 77 63 71 81 77 73 89 69 79 93 75 89 101 93 91 93 75 101 107 113 119 103 89 91 83 79 83 77 73 77 103 119 229 333 367 384 392 333 294 278 324 421 415 406 415 410 400 419 
41 53 45 41 29 39 53 43 35 49 61 49 59 51 47 39 51 59 61 53 61 55 59 49 61 71 61 59 61 61 67 73 59 75 77 77 79 83 79 67 79 105 87 93 95 89 103 93 103 113 159 191 276 294 280 274 165 107 95 87 79 67 107 223 337 343 357 373 373 339 280 253 284 359 384 406 410 419 388 400 
35 43 35 29 39 37 49 39 39 45 47 45 55 35 43 51 57 51 53 55 47 41 63 63 47 59 63 55 59 61 59 73 61 69 61 63 71 73 75 77 73 79 83 93 91 91 105 105 97 151 259 292 382 404 444 472 437 359 233 117 83 89 161 316 361 335 341 337 341 333 286 245 282 312 343 382 411 390 365 355 
51 41 45 35 47 41 29 29 49 27 39 15 41 39 29 47 45 59 51 43 37 47 53 55 57 41 57 59 51 57 53 67 53 59 49 79 77 71 69 67 75 77 77 97 93 93 103 113 117 219 304 353 382 408 454 487 491 437 326 255 145 145 265 341 359 343 347 353 330 312 278 263 278 304 345 355 380 365 341 347 
37 49 37 49 39 45 51 49 43 43 27 43 39 35 49 39 47 51 49 55 45 45 43 61 47 57 63 53 51 63 51 55 59 63 69 61 63 59 71 61 67 69 85 85 79 87 89 99 143 253 330 400 400 408 442 501 497 460 359 353 312 274 306 339 343 330 312 322 320 298 280 286 312 308 333 314 330 320 335 361 
37 35 33 15 37 35 33 41 39 25 49 41 31 53 33 43 49 31 51 49 53 57 47 49 47 59 61 61 53 45 53 61 59 59 51 63 51 65 75 61 63 73 73 91 95 91 95 103 149 257 330 413 425 442 477 504 489 468 442 429 349 365 333 332 326 310 296 298 282 278 292 284 314 308 310 294 290 312 341 363 
43 41 31 41 35 37 39 41 45 43 51 35 41 45 49 49 43 49 51 51 57 65 55 51 59 73 61 61 55 55 61 63 55 65 69 69 71 73 79 67 71 83 85 97 107 107 95 103 133 243 316 406 423 483 514 514 485 491 503 479 406 400 415 369 326 292 294 286 257 265 304 326 351 335 306 286 304 292 314 335 
43 43 45 45 27 41 31 43 29 37 35 51 47 63 35 55 57 45 51 33 67 59 55 51 61 67 63 55 67 73 67 73 63 67 67 75 75 81 71 67 89 89 89 111 111 113 109 111 147 207 308 359 421 472 506 518 510 504 510 489 433 417 388 343 282 265 276 274 261 267 308 355 398 394 339 267 257 261 288 304 
37 45 21 45 45 37 43 45 35 43 47 47 43 51 51 49 43 49 55 43 57 59 47 71 55 57 63 69 71 75 65 61 79 81 85 69 67 65 81 81 73 95 89 107 107 111 109 111 127 149 241 322 394 439 514 483 497 487 464 446 415 402 380 308 278 280 263 259 241 253 328 375 400 396 357 302 253 259 276 261 
39 31 41 25 49 49 39 39 43 47 35 43 49 45 51 43 37 59 61 53 51 61 65 75 57 61 57 63 75 67 67 75 79 67 71 73 75 71 85 61 81 95 89 101 97 105 107 101 109 129 139 173 231 282 355 369 400 425 415 400 390 373 316 298 284 251 243 267 249 259 324 384 427 404 361 310 259 241 253 251 
35 39 37 49 41 51 41 61 39 59 61 43 57 53 59 51 49 49 61 53 67 61 79 57 55 61 61 75 75 73 83 79 83 79 79 83 69 83 81 73 69 93 101 93 101 105 95 115 103 103 105 123 135 137 135 131 147 217 292 339 316 310 298 308 270 257 255 247 231 247 318 406 437 427 377 322 239 223 261 217 
31 39 53 47 39 41 33 37 37 41 49 43 41 63 49 57 53 57 49 57 63 65 71 63 57 63 59 77 71 77 71 63 79 81 73 79 71 83 83 73 79 77 81 83 93 89 89 97 91 105 93 103 119 99 95 107 99 119 225 272 270 282 290 294 267 245 221 225 213 249 324 398 427 429 390 312 223 217 231 205 
29 41 49 47 49 43 37 39 39 49 37 51 55 57 51 49 53 67 53 47 61 79 65 63 65 57 61 61 69 67 79 67 83 79 69 77 75 83 81 75 75 79 73 83 89 91 83 89 81 97 87 93 97 105 87 77 73 97 197 263 263 280 284 278 243 233 233 251 257 278 361 406 423 435 386 290 195 161 193 183 
35 39 35 31 29 31 19 45 27 27 55 51 23 45 45 51 55 51 61 49 57 61 59 57 59 53 61 53 53 55 75 71 75 69 65 65 71 71 81 83 65 85 89 97 93 89 91 79 75 79 91 79 91 91 65 67 69 73 177 257 269 267 259 263 259 261 278 332 351 369 380 413 417 427 392 306 159 131 161 155 
33 25 47 31 39 35 31 43 35 49 37 35 39 49 39 43 41 51 59 55 63 57 55 51 59 59 53 67 75 59 61 65 67 69 65 71 75 71 75 69 67 89 77 91 93 83 79 83 79 79 85 79 87 93 61 65 67 75 177 269 286 282 257 259 284 270 294 382 384 398 398 413 427 425 380 294 149 103 147 159 
21 23 35 21 13 31 23 33 33 39 49 43 31 33 53 47 53 47 59 41 53 47 47 49 67 53 61 61 65 71 53 71 55 67 65 59 59 63 63 53 63 73 69 75 81 75 73 73 73 75 75 79 65 65 57 61 63 47 131 247 304 278 286 270 280 257 308 377 390 398 390 396 402 408 330 223 93 113 139 155 
19 37 13 17 29 29 25 19 25 33 27 31 43 43 33 31 29 43 43 45 53 55 51 67 61 57 53 63 63 65 65 61 55 75 61 61 61 59 75 63 63 61 71 73 63 65 73 63 61 69 67 69 61 69 55 37 47 43 113 261 290 298 290 288 274 263 290 332 386 394 384 373 377 324 233 147 91 121 121 153 
23 15 0 10 10 25 19 25 27 17 41 25 35 25 27 39 35 45 49 45 37 47 47 51 59 43 47 65 51 49 55 55 61 55 57 65 77 71 79 63 61 73 79 75 75 67 65 63 51 61 69 83 81 63 61 61 69 71 109 282 292 302 294 292 270 270 276 284 357 379 380 328 282 217 181 139 121 125 153 157 


