P2
80 60
620
39 37 21 41 31 14 41 39 41 55 33 59 61 51 51 55 45 53 49 53 59 59 63 69 65 63 73 63 63 69 69 71 71 81 73 75 81 87 91 69 71 79 63 77 75 55 67 65 55 69 73 103 121 127 141 139 123 147 169 223 209 199 177 195 241 351 458 549 591 620 597 597 483 367 347 308 312 304 288 292 
39 43 16 43 39 25 47 41 41 55 43 65 55 49 49 65 57 49 53 53 69 61 53 59 57 53 75 61 57 53 59 65 69 75 67 79 71 75 81 73 65 63 71 65 57 57 57 57 65 65 73 81 87 101 105 161 139 157 161 207 203 205 201 221 320 450 516 588 603 595 589 586 553 396 390 355 314 271 265 298 
37 33 35 23 37 25 31 29 31 39 33 41 45 25 55 57 37 53 35 49 47 55 55 63 47 47 57 57 53 49 61 55 65 61 57 61 55 49 57 75 65 67 67 63 61 55 51 57 61 65 51 55 61 59 111 173 201 145 143 215 219 221 209 265 425 509 516 572 586 584 591 578 503 437 375 338 345 332 341 375 
55 37 31 27 29 33 39 51 33 33 43 57 43 35 45 41 45 53 57 47 55 65 39 61 49 51 45 65 51 55 45 65 61 65 57 51 67 59 55 71 51 77 55 67 71 61 69 57 65 71 75 55 67 53 125 195 247 173 181 199 239 253 215 312 419 487 522 530 540 565 538 474 497 462 421 390 425 427 433 480 
35 37 29 33 43 25 37 55 35 51 39 39 47 39 53 51 45 45 35 37 49 51 49 47 55 57 47 55 71 61 61 69 57 83 59 59 53 59 75 73 71 75 69 81 73 59 69 69 71 71 71 79 73 73 93 195 271 229 189 215 282 257 269 343 439 478 514 524 520 464 427 452 526 511 518 516 507 485 481 489 
45 16 33 33 27 18 25 41 33 23 39 53 37 43 55 49 45 31 49 43 41 49 53 49 43 53 59 61 63 67 61 59 53 57 73 61 65 65 73 73 77 73 91 79 79 73 69 83 75 83 65 79 73 67 79 121 261 229 171 203 330 326 343 449 478 516 530 542 516 472 464 499 538 551 555 536 530 483 466 462 
29 33 39 37 41 41 37 51 43 41 39 45 39 27 55 45 37 53 39 45 65 51 45 63 59 57 57 71 55 69 79 73 83 81 63 79 79 85 83 97 77 81 89 103 91 79 75 75 75 85 79 87 79 73 73 89 187 205 195 215 292 408 468 526 514 524 547 538 491 439 460 497 536 559 553 542 518 468 406 363 
23 16 23 41 49 31 43 49 39 45 47 49 45 35 57 57 33 47 61 65 73 55 53 73 57 73 61 63 67 75 75 63 79 69 77 61 87 69 87 85 83 85 81 93 97 79 95 95 83 91 99 89 85 93 75 77 129 195 185 173 304 435 491 474 495 512 528 501 478 419 476 503 524 532 522 509 489 400 332 320 
35 25 29 27 47 51 33 53 43 43 57 49 47 43 49 49 57 57 61 67 65 57 73 73 63 59 77 67 65 75 75 77 83 91 83 87 91 83 87 87 79 87 93 93 91 79 83 89 91 93 95 89 85 91 83 77 97 119 125 147 277 347 414 381 456 526 464 480 441 445 466 501 520 497 499 458 398 357 312 318 
41 33 31 33 37 43 49 51 49 49 43 51 45 43 73 55 49 65 53 41 63 65 73 71 61 71 75 73 79 81 61 77 67 81 87 87 87 81 87 83 81 93 83 83 85 89 79 87 91 93 89 89 91 77 73 77 67 81 87 95 121 121 161 185 347 412 394 456 458 456 468 478 474 445 431 418 377 365 338 349 
21 21 25 39 31 27 29 51 47 45 35 61 35 35 69 53 61 57 57 59 49 53 69 71 67 65 77 59 69 61 87 77 59 73 79 73 75 83 81 77 75 83 83 83 75 81 93 91 93 81 87 89 93 89 75 73 69 65 51 51 63 63 65 119 292 320 347 445 445 443 437 390 416 375 398 383 351 377 355 365 
33 33 49 27 37 37 59 53 33 43 47 51 41 39 71 65 55 45 53 59 57 67 65 71 65 85 67 73 69 65 73 71 81 65 73 85 69 97 81 73 67 71 93 101 73 79 91 85 79 75 79 99 99 93 71 81 71 73 51 53 57 47 65 149 290 332 320 373 400 404 383 398 419 385 377 369 365 383 385 371 
51 31 41 33 47 47 57 53 53 41 37 53 37 51 53 53 45 53 51 61 69 57 61 73 63 67 63 73 73 81 63 71 81 79 71 79 75 73 93 81 83 85 85 83 85 91 81 93 81 85 97 81 75 91 83 87 65 63 55 51 51 41 77 155 286 304 308 349 392 377 359 396 414 377 363 361 359 390 371 377 
35 31 37 41 35 51 49 51 39 45 49 59 51 45 53 45 43 45 45 63 55 67 57 71 61 67 65 79 73 75 61 77 59 73 81 73 87 81 87 75 93 89 75 85 93 81 89 83 91 95 95 85 79 87 85 95 69 55 57 59 51 69 83 131 245 282 282 330 328 294 294 340 371 341 340 343 363 357 371 387 
45 43 35 41 55 41 47 39 41 59 47 47 51 35 39 55 45 61 59 55 65 65 59 63 63 63 69 57 71 69 79 71 79 75 67 63 67 79 75 79 77 95 89 83 79 85 81 93 75 85 89 103 91 83 79 85 75 61 59 97 91 111 205 277 280 278 273 278 277 263 265 318 357 369 338 330 355 340 359 390 
35 31 35 57 43 49 51 53 43 41 45 31 61 43 55 53 45 67 53 57 67 69 69 61 51 77 61 65 65 65 65 77 63 73 71 71 65 67 73 75 87 85 77 89 91 91 91 69 89 85 99 91 87 75 91 111 85 79 133 137 163 257 385 421 437 394 433 470 480 462 404 351 355 353 322 328 340 341 355 383 
33 29 47 51 49 33 65 57 41 39 41 41 51 55 55 57 47 61 41 37 59 55 57 69 59 57 55 67 49 53 55 77 69 57 47 59 59 73 85 75 83 81 85 85 73 77 101 87 79 91 95 115 119 153 213 239 181 131 221 245 398 476 499 497 499 520 489 487 542 576 555 452 355 326 320 328 357 341 349 388 
23 31 29 29 39 29 51 41 47 27 29 31 45 35 59 39 49 39 41 61 57 61 53 63 61 63 61 65 65 61 59 63 67 65 65 73 75 87 81 83 83 83 97 87 79 81 79 95 87 103 133 203 273 412 464 450 392 205 213 338 534 505 505 526 528 557 555 516 516 578 574 516 375 355 373 351 367 383 379 406 
33 37 51 41 39 31 43 45 41 47 37 41 43 39 51 59 53 49 45 53 57 53 63 61 65 69 67 59 69 77 65 79 79 71 71 81 91 91 89 81 89 95 95 89 87 79 91 99 85 117 231 277 433 485 501 474 388 223 207 373 532 507 538 547 547 542 553 528 518 536 538 511 472 468 483 456 474 468 478 470 
33 45 45 41 51 27 47 45 35 45 43 51 45 35 53 61 21 51 45 47 55 55 55 61 73 67 57 63 67 77 65 73 91 77 77 79 89 83 81 91 95 93 103 85 87 97 109 93 113 161 135 187 365 509 491 441 304 211 197 421 568 545 555 540 522 543 540 547 505 507 522 501 528 516 542 532 543 547 557 542 
45 55 49 59 47 27 33 51 45 37 61 51 53 39 57 51 49 57 51 71 73 73 61 69 79 75 69 71 81 89 77 89 93 79 83 91 81 87 81 95 95 89 89 95 85 91 101 101 91 151 294 365 385 379 447 377 183 181 187 343 553 565 553 563 563 559 543 555 518 514 487 493 511 509 514 543 555 553 549 542 
29 53 55 29 51 35 49 43 45 45 47 41 59 41 55 61 43 57 75 69 65 65 67 61 79 63 71 85 71 85 81 79 87 77 87 85 91 87 91 93 101 87 85 101 93 87 87 95 113 157 211 201 151 251 308 189 133 163 175 239 447 543 514 555 555 565 536 514 501 493 414 383 402 443 452 483 534 553 540 534 
39 45 47 53 59 41 49 45 43 53 47 47 49 33 51 63 53 59 63 61 59 69 55 69 79 71 73 69 79 77 81 85 83 99 75 81 85 89 87 89 85 95 89 99 95 87 103 113 97 103 107 115 109 131 133 123 101 121 147 199 302 419 383 396 462 509 511 505 470 443 404 390 423 402 427 450 505 511 514 528 
25 43 41 47 51 37 41 51 35 37 41 51 49 47 51 57 57 59 55 67 67 67 73 67 73 71 75 61 75 79 81 69 87 85 81 89 77 81 85 101 85 91 89 95 97 89 93 99 107 105 101 115 115 121 109 101 111 95 109 141 141 159 149 197 343 392 458 456 418 400 377 416 433 431 431 447 480 460 437 454 
33 35 43 65 43 43 51 51 43 37 51 49 51 41 69 51 57 49 59 63 71 67 79 69 69 79 87 73 77 69 81 81 81 91 83 79 89 85 87 81 93 91 93 101 83 83 105 99 97 99 107 117 117 131 109 115 97 93 89 101 105 107 123 217 330 338 351 336 383 392 414 441 433 429 412 371 347 314 251 275 
43 33 49 47 53 47 51 41 47 41 53 45 63 41 75 49 67 51 47 69 73 67 69 73 77 69 79 79 79 77 83 73 85 87 77 79 71 75 83 87 95 91 103 83 91 83 89 97 99 107 101 101 111 111 109 107 105 99 87 89 103 99 127 217 318 341 269 207 318 383 363 365 355 341 310 273 265 235 221 233 
27 39 55 45 45 53 41 43 43 43 57 45 55 55 51 67 67 59 63 73 61 71 67 77 83 71 85 77 73 69 75 79 83 85 87 85 89 85 89 87 93 83 93 89 95 93 101 99 95 101 107 101 101 105 101 113 111 101 81 85 105 105 115 241 332 302 235 211 286 340 306 294 292 290 269 249 247 229 207 223 
41 39 45 49 43 25 41 61 35 43 55 57 49 49 73 59 49 73 45 61 55 57 55 65 79 73 75 77 73 73 71 83 87 77 77 85 83 87 89 91 99 95 93 93 89 91 93 97 95 99 107 103 115 101 91 107 99 97 87 95 89 101 129 298 351 330 302 243 257 296 310 310 302 300 271 243 243 237 213 239 
43 45 55 63 55 49 41 51 29 47 53 57 59 57 67 61 49 57 59 59 63 77 57 73 83 73 61 75 77 65 81 85 93 87 71 75 83 75 83 87 99 79 89 87 87 85 79 95 113 95 103 91 87 89 95 93 97 85 93 89 101 107 155 308 369 385 355 332 304 302 322 332 298 330 292 267 259 296 267 328 
53 49 55 47 53 35 33 57 49 49 55 57 47 33 55 55 51 45 49 69 51 69 73 67 83 77 83 71 61 67 69 73 75 79 81 79 75 85 85 95 93 81 97 79 97 89 97 77 81 91 91 103 95 97 99 115 103 107 93 95 111 107 131 257 345 340 340 320 328 341 343 341 304 332 302 320 294 330 345 400 
51 43 57 59 41 51 43 47 33 43 35 55 47 41 53 55 47 57 49 57 63 65 55 59 59 73 67 67 73 77 61 75 71 71 65 61 75 73 77 77 81 81 83 83 95 71 101 85 85 95 81 95 91 83 93 171 225 241 235 284 275 163 143 249 320 341 314 300 341 375 334 361 351 357 304 343 338 373 396 408 
37 43 45 41 49 31 45 45 41 43 33 41 49 31 41 53 45 51 43 67 53 63 65 57 67 59 65 63 55 63 61 61 69 77 53 63 63 65 79 79 69 79 71 93 71 77 79 93 91 81 77 91 95 91 147 277 306 310 310 406 460 412 371 357 334 322 357 271 351 387 332 349 381 355 334 332 351 388 402 421 
43 29 41 53 55 23 39 47 41 51 41 33 49 41 55 41 55 47 59 45 53 55 55 63 57 67 65 57 59 57 63 69 71 75 63 67 73 91 81 77 73 87 79 89 85 83 87 87 79 91 97 97 91 111 211 308 304 324 385 460 493 507 493 458 379 338 369 304 318 343 324 347 371 361 361 338 351 398 383 414 
37 45 45 55 29 49 51 51 55 47 43 47 45 47 55 51 41 49 59 55 51 65 67 57 65 69 75 65 63 69 69 75 73 79 69 77 77 87 89 79 83 97 73 89 85 89 97 93 87 101 101 101 107 137 247 340 369 353 472 470 464 449 478 466 404 355 367 296 318 341 298 334 338 347 367 338 347 379 371 390 
37 37 31 57 43 51 43 55 43 49 49 35 37 33 57 59 47 59 65 53 55 57 65 57 69 65 71 67 65 71 71 65 67 75 79 79 77 81 73 87 89 89 77 103 85 81 95 91 87 99 99 95 99 137 284 330 353 435 505 481 454 365 390 452 404 383 345 290 332 359 273 302 314 320 396 345 336 377 355 373 
31 37 51 61 45 31 59 37 45 35 57 55 51 61 61 57 63 61 71 55 59 57 57 71 65 71 67 71 59 67 83 79 73 87 91 75 81 87 89 87 93 93 87 99 85 91 99 95 91 91 101 95 109 149 265 324 369 369 470 480 474 406 452 443 412 388 320 288 341 300 253 282 263 284 385 320 336 340 324 371 
51 43 43 45 37 39 51 57 53 51 43 43 47 49 63 59 51 45 53 65 67 63 65 79 61 77 75 71 75 73 83 79 77 81 77 85 93 89 85 85 93 93 97 101 95 87 97 101 97 97 89 101 101 117 239 288 359 282 371 412 468 466 449 416 410 347 294 328 312 253 271 296 263 302 349 340 343 328 320 369 
33 55 39 53 45 53 57 49 53 47 49 49 67 63 67 59 45 67 65 73 75 75 71 81 75 75 79 69 81 85 69 79 83 89 79 85 85 75 85 93 85 95 95 109 105 95 111 105 109 107 119 109 111 111 143 173 167 177 185 229 265 223 235 275 316 338 334 300 267 292 336 347 290 349 340 338 375 349 355 363 
47 41 47 39 45 45 47 55 63 59 31 51 59 69 71 79 57 61 63 81 71 67 69 67 77 85 79 81 77 83 75 83 89 89 73 87 87 93 91 97 107 101 105 107 93 107 95 109 107 103 111 111 113 105 107 111 91 105 93 105 95 101 167 255 298 290 278 278 320 330 365 357 347 387 347 326 363 332 385 383 
29 57 51 47 45 39 33 43 57 63 45 45 47 57 65 55 57 45 65 71 75 63 69 73 75 71 71 79 85 63 81 79 93 81 83 79 93 83 83 89 91 99 107 111 89 89 101 93 101 109 107 107 101 107 111 103 93 85 75 87 79 99 213 286 284 267 292 330 365 385 392 404 394 402 357 340 351 328 343 369 
39 45 59 59 31 35 31 47 45 47 39 45 41 59 71 75 65 59 59 65 79 75 65 63 67 77 91 69 79 79 77 75 73 83 73 77 81 89 93 95 87 89 97 121 103 91 89 103 117 105 91 99 97 99 97 105 89 93 79 89 93 93 259 316 341 359 347 375 402 404 418 402 418 406 351 316 336 330 330 383 
37 45 37 47 61 25 39 55 57 65 49 45 51 43 81 77 61 51 71 69 63 63 69 75 69 73 75 87 87 79 85 89 79 79 73 87 85 69 93 101 79 93 97 125 107 111 101 115 107 121 107 105 109 103 107 125 115 97 91 97 91 99 261 353 361 355 392 425 418 425 418 410 419 410 373 353 347 306 314 343 
33 31 37 59 37 43 53 55 49 57 51 49 49 51 63 61 57 71 65 65 65 63 65 63 71 81 81 73 67 65 79 79 79 73 81 85 91 81 97 83 93 101 95 115 115 91 105 113 103 113 119 117 125 137 213 277 284 221 133 107 107 109 255 375 445 400 394 425 437 410 414 402 441 435 412 404 373 322 304 332 
31 49 45 45 33 49 59 51 41 45 51 63 69 55 59 51 51 65 61 59 73 71 67 63 71 79 79 71 63 71 75 75 67 85 83 89 87 87 85 83 97 115 107 109 111 103 119 141 205 209 151 135 163 259 330 443 447 416 351 273 191 133 267 385 406 390 398 423 402 387 388 435 449 421 414 400 410 427 408 351 
43 43 39 39 39 47 47 41 43 53 51 53 57 37 47 61 55 59 63 69 63 65 71 75 67 73 75 65 71 73 65 85 67 85 73 79 77 89 87 95 85 95 89 107 105 97 109 143 247 359 359 290 257 330 410 464 452 450 458 485 439 324 341 402 383 383 406 408 402 410 400 418 456 425 387 381 398 408 418 400 
29 49 45 39 57 41 35 29 53 33 41 31 53 31 49 59 51 63 45 57 53 51 63 67 61 57 63 57 61 59 65 79 63 67 59 81 83 85 83 85 85 95 91 107 107 99 109 137 141 227 433 450 320 361 431 476 466 478 495 495 474 470 460 367 363 359 373 375 385 400 394 437 427 423 379 345 379 406 396 404 
35 53 39 59 47 53 43 57 57 59 37 55 57 29 57 57 45 49 51 53 49 59 61 67 57 63 77 57 61 59 57 81 59 67 63 67 67 81 101 83 89 97 101 97 99 95 107 121 161 308 462 447 341 359 421 425 478 503 501 483 470 421 418 353 363 351 334 369 371 343 361 388 404 402 379 408 396 398 416 408 
33 35 45 18 43 41 41 57 43 43 49 55 51 47 51 63 45 37 61 67 63 65 65 71 61 69 71 57 51 59 67 75 69 67 59 73 65 79 77 89 85 99 89 107 105 109 113 167 302 387 450 449 336 375 427 406 454 507 466 480 437 387 394 336 355 379 330 371 353 363 345 371 408 381 379 388 375 375 377 396 
39 43 41 51 47 41 43 45 43 41 55 49 59 49 65 67 47 55 51 65 55 71 67 61 61 73 91 61 65 71 71 71 81 67 73 75 79 85 91 85 83 101 95 117 121 117 119 139 161 183 237 388 355 406 435 429 450 520 499 462 416 381 357 338 334 353 341 349 345 355 332 345 387 353 343 349 363 365 332 383 
49 61 51 59 43 45 49 55 39 49 35 59 59 61 51 69 61 47 55 45 73 65 69 75 69 81 79 65 71 77 83 85 75 79 73 85 83 91 83 89 99 101 101 129 121 133 117 127 139 123 137 157 211 296 408 435 462 497 501 483 441 419 394 322 324 345 306 326 310 324 320 312 341 345 328 296 284 284 306 338 
41 57 51 63 53 49 57 51 47 47 53 59 59 51 59 65 53 67 59 49 77 67 73 83 63 73 71 79 83 85 83 77 93 95 79 89 79 91 89 107 87 115 97 127 127 129 127 131 129 129 129 131 153 165 205 286 427 480 468 470 468 441 412 363 302 338 284 292 336 312 288 273 300 286 294 273 255 255 286 300 
29 47 57 35 55 43 61 51 47 57 51 53 57 43 59 61 43 61 63 75 63 65 69 83 61 73 69 73 87 63 79 81 77 83 85 83 87 81 101 79 101 103 103 119 109 107 119 117 127 131 111 123 117 121 113 141 161 296 351 416 437 425 402 400 343 300 280 280 306 265 271 277 278 278 267 288 263 249 300 290 
37 31 43 63 57 47 59 65 39 57 53 51 71 41 61 67 57 51 63 57 69 71 85 71 67 65 77 85 87 79 89 81 85 83 85 81 71 91 95 85 93 105 115 111 111 107 101 123 117 115 107 121 121 105 121 107 95 115 131 205 326 320 320 353 336 290 251 247 257 261 282 275 292 267 235 271 249 253 255 273 
35 43 49 55 49 53 45 47 49 53 45 45 59 63 65 71 51 49 61 69 67 69 79 69 65 77 79 81 87 83 81 75 85 83 85 83 81 89 79 81 101 91 91 95 107 101 99 111 105 109 113 105 113 99 101 105 89 95 89 163 282 280 290 296 306 273 221 241 257 249 241 267 275 251 249 247 280 267 249 288 
31 41 39 49 57 51 39 45 53 49 45 53 69 43 69 63 55 69 65 63 67 91 71 75 75 61 71 69 81 81 89 85 91 89 83 87 85 91 95 83 89 99 99 93 97 93 99 107 99 111 105 105 107 107 109 91 71 77 85 171 298 286 318 330 316 304 271 265 282 251 247 239 277 257 253 251 278 280 273 288 
29 37 43 45 35 23 21 57 37 37 45 55 35 49 49 61 51 55 69 63 57 71 73 67 71 61 79 69 69 63 83 75 79 85 73 79 81 81 83 91 89 101 93 117 103 101 109 103 95 95 105 101 103 91 85 79 77 69 67 155 271 292 300 328 338 318 310 273 259 284 284 278 286 263 251 275 290 294 259 273 
33 31 53 37 39 31 37 43 35 49 29 33 51 47 59 47 51 53 57 63 71 61 63 63 71 65 67 71 77 63 73 71 79 81 73 75 87 79 89 89 81 107 97 107 101 99 95 97 97 93 99 93 89 89 85 79 63 63 65 191 253 288 296 294 304 300 300 284 269 312 312 334 347 290 284 261 288 269 227 247 
29 35 41 39 18 27 18 43 33 35 43 47 37 39 51 61 57 47 61 55 63 65 81 63 81 67 67 61 61 77 69 81 65 77 75 67 71 79 81 73 91 81 79 97 89 83 87 93 91 93 89 95 85 81 65 93 59 51 65 197 290 296 318 292 273 273 290 300 308 322 361 340 349 302 292 265 284 247 227 263 
25 41 25 33 23 27 35 25 27 37 31 37 43 29 59 59 31 51 55 61 61 65 69 73 61 71 67 63 67 71 69 71 63 85 71 71 71 81 89 81 89 85 91 85 79 81 85 75 81 81 87 81 67 79 67 59 51 53 65 177 284 290 308 290 277 290 316 316 340 343 357 336 328 275 269 271 241 259 241 241 
25 25 0 14 4 10 25 43 35 18 33 37 39 27 47 57 35 33 53 63 45 61 49 63 67 61 55 63 51 59 61 49 63 67 63 73 75 79 91 85 85 87 89 85 83 75 85 79 61 73 75 67 69 69 59 65 45 59 55 121 235 267 306 296 296 318 330 334 353 371 334 328 316 237 231 259 273 223 249 257 


