P2
80 60
720
132 128 142 122 132 142 155 155 149 155 132 161 142 153 159 153 159 169 147 159 151 147 161 159 165 250 513 556 562 527 479 443 415 419 413 415 415 429 435 421 413 425 447 451 473 493 550 596 599 566 519 481 409 369 345 347 323 299 293 268 274 289 285 281 281 274 252 262 279 315 313 293 289 305 301 339 361 371 393 379 
138 118 118 144 136 126 149 144 144 157 132 134 142 149 136 157 163 147 163 169 175 169 169 179 183 285 473 540 562 544 521 467 435 419 421 421 403 407 415 395 405 393 397 407 421 439 467 507 548 572 548 529 491 467 441 435 389 353 333 315 309 305 309 260 260 258 264 283 329 351 329 323 283 272 301 341 363 351 379 381 
140 128 132 147 144 140 134 144 144 138 147 140 155 165 151 147 167 189 214 270 311 315 291 254 240 373 445 489 566 582 536 497 447 421 417 417 389 393 413 399 409 395 401 377 387 399 403 441 459 519 548 548 536 505 481 523 463 401 393 377 361 337 329 321 301 279 285 313 349 365 361 309 281 285 307 351 379 375 369 365 
138 124 134 159 134 153 136 144 165 142 155 159 149 153 140 163 179 277 405 417 457 536 546 511 461 536 536 497 576 607 596 566 505 467 443 425 419 419 447 455 469 471 473 455 453 451 435 439 419 425 453 534 560 554 521 493 467 431 425 407 401 369 381 359 325 339 357 357 355 349 347 323 321 295 333 367 393 393 369 335 
153 134 120 142 136 132 147 138 142 147 149 140 149 165 159 165 226 395 491 540 613 633 646 656 691 720 703 627 578 570 578 584 550 511 467 449 437 435 449 475 487 495 495 465 473 459 449 413 393 375 381 455 564 550 519 489 475 449 437 447 439 393 387 353 351 387 397 381 363 355 343 299 343 309 315 303 327 268 222 242 
149 132 136 128 134 136 147 142 155 147 159 163 155 173 167 179 289 443 525 641 666 644 672 679 699 718 714 691 677 582 525 536 507 489 463 441 437 429 447 455 465 481 473 455 441 431 413 397 367 367 349 387 519 546 509 511 503 467 409 413 387 335 325 337 385 375 393 391 373 333 305 270 272 242 203 193 189 157 177 197 
159 140 136 138 142 155 157 157 161 151 157 171 159 169 167 179 325 435 590 611 656 643 672 675 674 701 685 677 708 664 548 507 469 443 449 435 423 437 449 473 499 483 429 403 393 389 387 383 359 355 337 333 409 517 495 521 519 485 435 347 323 311 299 345 357 357 355 361 315 272 230 209 199 169 185 161 165 159 169 175 
163 140 124 147 147 165 155 179 159 169 175 173 173 171 171 203 270 429 615 607 668 668 625 621 629 570 572 534 599 570 521 533 511 531 513 499 457 453 479 479 517 503 463 419 449 419 423 407 383 355 361 363 363 473 467 501 527 495 433 343 331 333 309 321 325 307 291 260 228 201 195 189 177 169 167 169 167 179 175 169 
138 138 140 138 165 153 159 181 161 161 175 175 165 185 171 179 240 377 582 643 617 635 560 554 533 411 281 246 303 393 497 588 578 562 525 511 491 481 493 479 477 475 467 471 485 479 457 461 419 389 391 393 405 447 467 509 538 491 399 333 311 293 258 246 244 220 220 214 205 191 197 214 189 181 179 173 173 173 167 161 
153 147 144 144 161 155 161 147 169 171 167 175 163 179 177 175 207 303 417 534 574 566 503 417 307 222 222 209 228 246 421 590 588 574 542 503 471 453 473 461 465 461 465 515 517 509 485 477 461 457 453 467 453 525 536 475 497 481 309 240 230 220 205 209 203 205 214 199 203 195 199 212 199 203 199 181 175 173 175 187 
151 122 161 144 159 144 161 153 167 159 163 163 171 171 169 173 177 185 220 254 281 260 254 201 189 191 207 201 214 222 307 523 588 580 523 481 465 463 481 485 495 497 503 597 635 617 599 605 609 619 617 588 584 560 523 495 529 469 295 226 228 212 205 205 209 203 207 214 205 207 220 234 228 222 216 195 193 189 183 183 
149 142 161 136 159 171 167 171 171 167 183 181 167 181 167 165 181 169 181 183 179 185 183 181 183 185 201 212 214 234 353 550 592 550 507 479 493 491 481 445 447 425 421 497 542 576 619 643 629 601 588 576 566 556 511 493 485 409 355 311 274 246 238 224 230 236 226 236 248 220 234 240 246 236 236 207 226 207 209 201 
151 138 155 151 159 163 167 171 155 167 173 167 169 177 165 173 185 165 153 169 161 167 181 169 179 197 212 199 222 274 529 607 580 576 584 560 536 531 513 491 469 405 401 419 459 509 564 619 609 568 531 519 501 467 453 441 431 415 429 411 395 407 385 393 373 319 289 264 258 264 252 264 277 268 266 258 234 226 224 244 
157 134 144 149 161 155 175 173 167 159 171 167 155 185 155 171 173 161 167 155 165 159 173 179 169 195 205 209 230 331 592 623 605 613 617 617 597 584 578 556 544 531 515 527 538 550 538 590 552 497 473 485 493 461 451 441 441 433 441 437 445 439 439 437 435 439 391 375 329 341 331 335 339 363 319 299 305 250 266 270 
163 149 153 157 171 147 165 169 163 179 175 177 177 163 159 183 167 173 155 169 171 169 173 177 169 185 195 214 242 355 584 617 619 621 627 621 597 584 574 554 558 548 546 525 544 515 483 507 461 441 431 463 481 457 463 477 477 449 435 431 475 443 459 469 441 487 441 383 371 351 383 385 393 377 401 383 395 395 375 369 
159 149 149 163 165 167 153 165 151 161 163 171 161 171 157 171 159 163 171 163 167 169 167 185 185 197 212 230 311 397 501 611 617 643 635 611 611 594 594 576 578 566 552 534 527 507 485 471 451 425 413 437 467 469 453 485 475 493 487 465 469 489 485 469 477 471 467 429 395 355 363 397 403 393 383 403 399 383 395 385 
167 149 144 149 134 159 155 167 161 155 142 167 161 175 159 155 173 163 163 181 169 171 199 197 209 224 228 262 457 556 519 609 637 662 641 623 615 601 590 609 609 601 584 574 566 527 497 475 451 427 415 431 467 451 437 459 445 497 507 507 491 483 493 485 483 483 477 439 429 381 379 401 403 415 395 365 389 371 397 379 
163 151 157 161 165 169 169 165 159 171 165 163 169 169 175 167 177 177 175 185 189 199 232 244 272 283 285 343 515 666 629 613 615 625 623 639 613 601 603 627 625 592 594 574 562 534 509 503 467 439 421 439 455 441 403 415 425 431 505 503 493 479 481 479 461 455 449 453 431 385 381 395 397 397 389 365 379 375 375 383 
161 159 169 142 151 149 167 181 163 179 179 155 173 185 163 185 181 175 185 195 254 347 445 501 548 540 552 574 637 683 674 578 586 566 619 633 619 611 615 635 623 615 582 578 568 544 525 531 473 455 433 449 441 403 399 401 419 427 449 457 461 451 403 387 389 399 401 405 373 337 339 319 319 335 325 317 337 331 359 361 
165 175 165 155 163 159 167 179 173 165 185 181 167 189 183 183 183 185 183 232 413 582 629 619 617 631 625 643 675 674 650 613 584 613 639 639 619 623 615 611 611 601 570 556 558 542 540 534 509 477 455 515 479 437 413 415 437 471 449 399 327 287 272 266 254 272 293 281 285 279 266 260 264 264 270 252 274 274 315 339 
175 171 173 169 163 163 177 175 163 179 179 187 173 183 181 195 191 189 193 301 540 623 607 625 588 596 599 613 637 656 594 603 619 633 619 597 584 594 594 588 578 568 552 525 534 554 560 572 513 491 481 570 523 455 435 453 457 471 485 487 443 379 309 299 266 283 283 283 291 272 283 260 279 287 268 281 305 335 355 345 
165 147 179 173 157 155 165 181 183 169 175 183 169 183 165 179 189 183 212 369 592 603 592 613 568 556 574 580 619 633 560 631 625 644 635 611 594 594 578 572 542 527 531 517 533 558 601 560 513 507 513 580 534 483 467 479 477 499 509 509 503 479 439 395 399 363 343 327 319 319 317 361 375 377 375 373 381 383 365 343 
159 171 177 161 171 165 169 177 189 169 169 187 183 177 171 189 185 209 212 343 576 621 605 584 611 607 617 562 517 483 527 617 609 623 619 603 594 578 568 564 560 560 542 521 525 533 552 540 515 517 570 607 572 523 515 527 529 513 509 479 489 501 483 501 507 505 501 489 427 413 453 453 461 449 413 403 375 357 349 323 
171 155 175 165 165 165 185 151 161 175 181 185 185 189 181 177 197 185 195 285 475 548 586 597 619 584 540 371 313 373 582 603 594 586 560 578 584 576 578 558 536 529 550 533 548 540 531 538 534 542 619 627 596 566 580 548 548 513 467 365 373 389 411 495 531 527 534 519 475 453 457 455 441 425 417 379 369 351 321 301 
149 157 161 167 169 153 167 175 163 159 191 183 173 181 189 173 177 179 191 220 367 435 491 527 495 365 301 266 274 305 560 621 566 556 527 507 534 586 603 603 615 601 566 580 540 542 544 552 568 572 588 627 607 584 562 556 529 477 383 355 395 409 423 439 517 503 499 509 483 451 433 413 417 417 409 375 325 289 260 258 
173 155 187 171 181 179 181 169 173 185 189 183 181 175 179 185 187 183 183 209 236 311 343 337 285 240 258 262 250 277 511 601 560 550 529 457 515 596 652 633 664 654 631 617 594 568 578 582 599 570 599 599 588 558 540 529 519 517 503 487 507 495 483 475 491 479 489 473 451 441 411 409 403 377 359 287 248 246 252 264 
177 157 167 175 177 163 171 169 157 171 183 181 169 181 181 175 189 177 189 185 197 212 212 220 207 214 238 228 240 258 411 576 576 586 550 546 582 576 570 605 643 646 641 635 599 594 611 635 646 594 592 576 527 507 515 511 515 515 473 479 495 499 479 479 473 463 443 453 447 427 397 365 347 311 266 248 228 234 240 220 
171 165 169 167 167 169 167 171 171 183 179 177 167 181 177 175 185 177 177 175 189 195 193 189 197 212 228 230 232 240 270 407 546 607 629 619 566 538 523 564 625 631 635 631 611 594 611 621 599 540 465 379 329 274 341 395 403 345 351 353 353 367 375 379 393 373 369 383 377 363 319 303 277 260 256 228 214 228 222 220 
165 149 169 163 169 177 177 163 183 163 181 181 185 183 177 163 175 185 167 179 175 177 195 183 197 197 207 220 232 228 246 287 345 550 597 584 554 554 523 538 586 605 603 588 611 586 525 457 391 319 277 274 240 234 222 230 238 228 222 222 224 228 216 238 234 268 279 297 301 327 305 287 260 252 232 218 214 201 212 201 
159 153 153 167 161 161 163 165 171 161 161 167 171 177 173 165 169 171 175 171 167 169 179 181 191 187 212 197 216 218 250 301 493 588 613 588 568 556 521 534 580 576 566 564 554 521 345 301 287 262 262 266 254 242 238 232 236 232 228 228 222 230 224 232 236 260 279 279 303 293 295 281 258 246 222 207 212 201 209 207 
163 169 177 175 177 171 173 171 169 165 179 177 161 169 177 167 167 171 161 165 171 175 177 191 191 187 214 205 226 232 262 479 562 572 556 566 546 548 523 542 554 546 542 550 574 580 479 343 309 299 287 301 319 309 297 327 393 379 349 341 343 333 325 295 317 299 301 287 309 283 279 281 254 242 218 205 203 199 226 218 
169 161 163 161 175 163 175 163 179 181 171 175 175 177 175 189 177 185 173 183 175 175 183 195 203 203 214 226 226 238 339 572 554 542 485 459 487 527 538 527 536 509 517 521 558 576 572 533 485 409 427 389 405 345 303 373 441 453 457 437 451 403 363 359 353 339 317 311 307 303 309 295 285 277 262 250 238 230 254 226 
153 157 155 173 155 165 179 179 173 171 185 169 167 191 189 191 175 179 187 193 195 195 199 207 209 222 228 222 232 266 421 599 572 531 507 493 467 467 431 417 397 403 455 511 519 538 536 552 536 457 425 409 403 347 333 391 463 459 463 461 443 393 361 359 359 349 347 339 331 335 353 371 375 397 411 395 389 363 335 295 
163 163 173 177 177 165 179 185 177 179 181 167 173 185 179 175 193 179 179 209 230 317 327 313 317 313 270 232 254 313 544 609 597 592 576 570 495 447 417 363 325 339 409 433 489 513 527 536 499 411 405 373 385 365 349 355 383 399 393 433 409 373 371 365 361 361 357 345 361 373 393 407 403 427 443 443 449 453 435 407 
159 165 151 163 167 153 181 175 181 169 173 179 171 179 185 185 187 185 195 248 393 493 443 435 533 556 487 355 325 417 570 568 586 572 613 590 511 429 405 345 337 313 323 329 431 493 507 519 501 423 373 369 381 375 369 365 363 367 349 345 367 369 359 359 375 365 363 349 361 361 367 389 369 389 405 425 431 433 405 369 
161 161 183 165 189 175 181 181 175 173 173 189 177 193 201 177 179 189 228 317 475 525 485 538 621 641 611 558 550 519 574 542 552 580 584 556 475 407 365 303 268 218 258 303 391 427 451 489 513 503 473 393 395 423 467 443 421 381 369 361 389 393 381 375 371 377 365 341 345 357 353 345 337 375 377 383 371 373 377 343 
171 161 153 183 175 157 177 185 187 183 177 185 185 193 195 187 193 187 226 367 503 485 499 584 627 646 660 623 556 540 538 536 513 552 554 505 461 369 339 238 201 193 252 299 325 367 415 485 511 552 566 529 483 509 550 477 429 401 391 379 379 375 385 381 365 359 351 343 363 361 319 317 319 335 331 329 307 303 299 309 
169 175 179 173 159 171 177 191 191 179 191 185 187 183 185 191 197 195 218 359 491 505 568 609 627 588 623 594 556 519 529 542 525 513 507 513 445 379 331 242 220 220 268 295 319 353 403 459 523 572 601 592 550 540 566 489 365 387 385 369 373 367 363 355 359 373 359 347 341 305 297 289 281 281 268 264 258 246 274 277 
175 149 175 165 173 173 181 177 191 177 181 173 179 185 181 189 189 189 214 347 447 505 580 605 603 566 607 594 499 523 525 556 517 497 529 491 429 377 325 272 287 272 287 311 317 349 363 421 536 596 596 597 582 544 544 457 353 365 377 373 367 361 363 377 385 415 403 395 397 365 335 331 335 329 341 347 359 361 363 347 
163 163 163 169 171 175 177 163 171 167 181 185 193 197 173 187 185 197 207 297 349 463 479 554 596 590 625 534 453 519 542 519 519 533 531 519 437 359 325 242 291 264 287 321 313 337 343 421 529 590 597 603 588 560 525 465 383 369 381 371 369 385 397 395 401 407 399 413 401 409 383 417 399 397 399 417 417 435 441 421 
159 151 171 163 161 165 173 171 171 173 181 173 169 187 169 179 187 189 185 242 260 313 317 371 449 489 405 309 293 469 536 519 529 525 511 489 437 361 295 185 207 214 266 289 293 333 347 459 527 592 596 582 574 527 435 395 375 375 385 381 383 385 393 389 391 379 369 367 353 391 373 399 409 417 429 429 435 441 437 405 
169 157 165 161 165 149 163 171 183 173 185 179 185 183 157 181 187 183 173 203 187 209 218 234 230 238 240 228 260 381 546 525 507 507 505 455 423 375 309 228 185 222 283 264 291 363 429 511 521 568 584 542 505 389 393 399 373 367 359 367 347 341 351 331 327 335 291 274 291 365 351 397 411 409 413 413 419 389 379 337 
163 147 161 159 165 155 175 163 181 171 169 179 167 179 171 171 187 175 179 179 191 191 191 195 199 209 224 224 236 293 495 513 471 469 449 429 405 359 293 175 147 191 279 272 307 443 481 525 509 469 351 325 355 345 345 343 339 327 315 311 299 305 279 289 299 272 216 218 258 307 331 349 345 353 345 335 313 289 270 254 
161 159 173 167 157 159 175 177 177 161 155 171 173 179 173 181 179 163 193 183 183 179 177 195 201 212 224 226 228 268 445 523 471 417 339 279 281 301 283 220 169 191 266 256 411 485 489 505 489 377 305 246 272 301 274 270 270 279 277 268 289 272 274 279 262 218 193 201 212 240 252 254 250 246 246 232 242 242 236 238 
157 136 149 161 157 169 175 173 171 169 159 167 171 177 181 181 175 163 165 187 179 177 183 183 193 205 209 209 228 244 379 511 473 371 260 226 293 333 341 405 373 347 359 415 491 495 505 489 419 339 317 297 264 301 260 256 260 256 264 256 258 268 258 258 220 203 183 205 220 218 212 216 193 187 201 216 203 205 224 218 
165 163 165 157 157 165 175 179 175 171 183 179 185 183 183 187 183 189 169 175 175 173 181 189 203 203 220 218 232 230 297 463 465 415 331 323 359 381 401 515 489 461 463 485 505 503 493 441 355 341 317 270 244 293 244 236 244 246 256 268 264 262 244 246 216 201 189 230 242 242 230 212 197 183 191 187 193 201 220 203 
151 157 153 175 157 169 169 175 183 183 177 191 191 207 224 216 191 183 185 199 191 181 189 197 199 220 224 224 242 246 258 315 409 461 451 443 431 429 461 546 521 507 503 509 515 511 427 313 283 274 266 238 252 242 230 216 218 197 216 214 212 214 218 220 216 220 228 246 256 244 228 222 205 185 171 169 189 181 177 173 
157 153 157 165 157 169 167 177 183 165 177 195 242 337 423 445 351 260 214 191 173 185 187 193 203 214 224 232 240 236 248 258 258 347 405 429 439 443 469 519 517 495 501 501 499 375 289 270 262 260 260 256 230 226 228 228 218 193 216 214 216 222 214 216 226 236 256 289 274 254 240 230 212 187 173 175 149 134 147 165 
155 159 151 171 149 167 177 163 187 169 183 240 355 475 562 562 542 534 465 337 234 191 185 193 199 199 234 218 242 240 254 281 281 270 291 361 381 395 399 387 355 373 385 387 379 291 250 258 260 248 266 289 303 291 297 319 313 289 297 281 274 274 266 256 266 244 272 293 287 256 262 264 220 171 167 165 144 138 128 124 
157 140 159 151 149 157 181 181 159 159 207 325 383 481 542 592 611 590 536 503 413 258 185 199 199 205 224 240 264 297 305 289 264 266 287 335 347 359 327 317 323 321 325 309 325 277 283 299 317 307 321 339 325 331 339 339 333 323 305 289 277 260 238 226 205 183 155 185 224 254 256 254 224 165 136 110 100 108 95 100 
151 149 149 157 167 169 167 169 163 181 214 365 389 471 507 597 615 592 507 447 453 345 212 199 199 218 268 317 343 321 297 277 205 224 297 371 367 355 349 333 323 325 309 283 321 309 279 301 317 319 309 311 309 309 301 295 299 272 254 250 232 189 183 167 169 159 124 120 153 161 199 226 212 175 136 89 71 79 62 102 
155 132 151 144 155 167 163 169 169 167 216 351 433 495 515 556 603 603 489 445 451 429 377 244 256 285 357 357 375 327 238 163 140 149 305 359 353 359 353 337 321 309 303 285 287 277 285 291 283 260 258 272 283 293 283 277 266 234 218 216 191 185 167 171 163 161 138 144 155 165 155 185 197 144 89 42 42 29 23 38 
151 147 155 157 165 163 161 159 163 177 191 347 459 509 546 590 621 594 562 548 507 483 505 401 351 371 351 375 371 321 234 142 114 175 317 345 355 351 365 339 317 297 293 279 274 256 264 270 248 220 242 268 260 277 268 244 254 228 218 195 183 173 155 173 161 153 144 159 142 151 144 175 195 193 191 95 69 40 0 10 
155 136 144 149 159 159 161 161 161 171 175 256 379 467 519 594 609 596 590 584 580 531 483 405 375 357 343 345 339 301 242 144 155 238 281 331 331 343 347 343 307 270 268 287 270 256 258 264 246 283 365 397 389 373 323 321 283 228 209 195 173 185 169 171 165 157 161 193 169 169 181 191 232 250 285 272 254 187 126 108 
147 147 142 140 140 147 153 149 165 157 173 189 234 303 393 527 580 594 603 601 546 473 405 405 379 357 337 319 311 297 232 142 169 224 262 321 315 331 349 333 323 258 274 279 254 246 248 254 240 341 423 417 423 363 313 295 285 242 205 185 173 179 167 165 171 173 159 181 181 181 171 220 252 266 311 299 319 279 281 279 
130 120 149 138 128 134 153 147 149 159 142 161 167 189 212 297 381 357 423 489 459 431 427 401 369 359 329 327 289 264 236 187 191 230 274 307 315 325 335 339 283 262 289 274 252 236 252 281 266 361 405 431 419 389 311 272 268 232 197 173 155 161 147 173 151 124 140 195 212 201 209 256 266 285 313 313 317 319 323 315 
138 126 136 118 142 142 138 140 138 144 151 163 159 153 175 173 209 193 216 325 435 473 431 395 365 347 289 254 309 246 242 220 216 228 270 297 309 317 337 325 252 256 291 266 254 240 240 268 252 337 411 417 423 393 303 272 242 216 167 169 161 147 126 147 132 142 120 171 234 242 222 234 281 295 309 323 333 327 325 315 
144 118 132 106 136 126 132 124 124 138 142 144 144 153 151 159 163 167 171 250 437 437 403 391 363 341 285 144 277 283 250 244 240 246 272 309 299 315 315 283 246 281 301 283 258 236 246 256 256 305 331 381 383 347 277 252 205 173 167 142 149 134 108 112 112 126 126 161 193 246 214 242 262 274 279 274 295 301 299 272 
134 110 118 116 124 114 130 118 124 136 138 142 149 144 155 153 151 157 159 248 409 457 457 439 401 369 337 256 220 279 248 260 248 258 264 291 291 281 291 268 260 291 311 268 238 252 252 270 250 240 228 252 248 232 224 207 197 161 142 136 128 138 108 112 112 112 130 142 151 179 151 193 201 205 224 228 216 220 228 232 
112 108 110 114 112 108 112 132 124 124 120 138 124 138 173 167 187 177 189 272 425 487 479 457 423 401 347 307 279 285 260 236 216 234 226 250 260 236 248 250 236 277 301 260 262 256 254 285 264 228 199 209 187 191 201 193 173 155 136 126 140 132 114 112 106 124 124 144 155 161 140 108 128 147 151 151 177 189 205 199 


