P2
80 60
575
62 88 46 48 60 58 50 52 64 68 64 64 64 74 54 48 66 36 64 48 40 50 44 46 44 40 42 22 22 32 30 34 30 30 24 32 22 20 26 20 34 26 24 32 28 20 30 28 34 24 38 78 173 262 355 463 482 497 510 485 516 516 487 514 562 556 565 567 544 384 324 331 343 378 370 347 335 302 302 287 
46 66 36 34 44 52 44 52 58 48 62 58 56 52 56 60 62 52 44 56 52 46 34 40 38 32 26 26 14 24 18 18 20 24 30 10 20 30 30 2 18 28 30 12 28 14 24 24 32 26 30 58 153 211 387 464 463 493 499 512 522 529 518 504 535 554 567 567 565 489 351 353 345 296 294 300 300 314 300 275 
56 72 44 46 52 44 56 48 60 72 54 46 68 54 64 48 54 48 42 50 30 48 32 40 34 30 34 16 12 32 34 18 18 10 22 12 30 14 28 16 18 22 26 48 28 26 22 34 18 30 30 44 128 207 409 483 480 522 527 533 514 514 514 487 518 541 567 575 562 520 447 356 349 320 314 281 273 281 267 277 
56 68 32 50 34 48 52 46 56 58 56 50 50 56 38 34 46 40 48 26 40 40 26 28 36 26 22 16 8 32 18 10 12 16 8 10 26 28 14 10 8 16 20 32 24 36 22 20 36 42 32 34 104 163 325 468 487 529 529 539 476 493 480 478 489 529 552 541 487 417 378 347 316 302 304 296 310 310 293 277 
46 66 44 44 54 54 58 52 46 56 66 46 56 46 38 40 34 48 34 30 26 20 32 28 30 24 12 18 26 30 28 20 12 24 14 26 28 18 16 18 22 14 34 40 28 40 34 28 28 42 30 52 72 153 220 415 478 527 529 512 451 491 445 445 451 493 497 464 382 403 360 339 322 327 312 306 324 304 322 310 
42 48 46 44 50 54 50 36 48 50 66 52 52 48 48 38 48 12 34 26 24 26 22 28 32 28 32 44 30 18 34 22 24 28 22 30 22 30 30 22 30 30 46 38 34 38 32 42 38 42 34 44 42 100 146 240 362 442 434 440 376 393 376 353 335 368 364 351 351 347 376 325 314 316 316 324 339 320 331 316 
28 62 44 32 38 58 52 44 50 48 54 52 58 36 56 46 52 46 44 34 36 42 32 28 38 22 24 26 18 32 30 30 34 24 34 40 42 38 34 24 40 32 44 40 42 48 48 58 38 44 50 46 48 66 98 106 124 153 155 173 161 153 209 337 293 277 293 316 374 349 341 329 333 349 333 316 329 329 327 308 
28 44 44 44 52 62 44 44 38 48 62 66 54 62 52 54 46 44 40 44 40 32 28 32 26 32 32 26 40 44 36 28 34 36 34 28 44 24 50 30 32 40 44 36 40 50 46 54 46 58 62 62 56 70 84 110 126 112 102 102 96 118 252 374 391 353 296 349 436 442 418 384 356 353 322 296 312 306 322 322 
48 62 42 42 32 60 48 32 58 54 52 52 60 48 52 44 48 34 42 42 44 28 34 22 28 34 28 24 30 36 34 28 32 26 36 34 34 30 28 32 32 38 40 40 44 50 38 34 56 48 60 44 68 132 201 260 271 275 265 187 130 161 252 298 347 424 418 422 449 426 386 353 312 298 324 304 316 314 331 339 
42 64 36 40 50 64 52 46 40 58 54 58 54 50 58 46 46 40 40 44 40 34 46 24 28 38 34 18 34 30 28 30 18 34 50 38 40 36 24 26 30 34 52 42 40 52 54 62 52 50 64 54 108 209 265 403 485 489 476 436 356 339 413 463 434 432 426 445 434 422 386 343 325 339 360 364 364 374 366 333 
36 54 48 44 52 58 32 32 34 36 48 56 46 52 46 48 56 44 48 38 28 34 48 50 38 30 36 26 18 24 46 34 26 30 30 32 30 32 24 22 32 28 36 44 28 50 42 46 62 54 54 64 167 224 246 418 531 504 503 501 491 499 468 512 535 485 442 409 405 391 358 343 339 337 366 364 372 380 386 353 
32 46 38 28 52 62 50 42 34 44 52 56 44 46 50 34 54 36 44 32 40 38 36 26 20 36 32 16 38 44 46 30 26 28 30 30 26 28 32 20 32 20 22 54 28 40 42 46 42 44 56 68 195 260 244 449 552 541 520 504 483 489 461 470 546 506 407 358 358 351 337 355 343 364 380 368 370 384 389 355 
40 46 48 40 46 46 46 38 50 42 44 52 50 54 42 38 40 50 40 38 30 28 40 38 22 28 32 20 22 40 28 34 32 28 40 26 32 22 40 20 38 32 28 38 36 42 34 36 46 44 58 90 260 384 283 455 567 564 546 524 485 503 466 485 531 470 343 325 339 349 337 351 331 353 387 395 399 413 409 403 
44 48 46 46 32 36 32 32 34 58 58 48 60 48 38 32 42 48 26 36 26 38 30 26 20 14 22 20 24 24 24 34 16 16 32 14 20 26 24 18 28 28 34 46 38 36 34 32 48 44 66 144 395 447 343 434 552 539 543 529 518 525 464 514 487 356 339 312 345 364 356 345 324 366 387 401 424 461 443 442 
42 54 46 42 54 52 42 26 42 46 42 40 36 34 38 28 32 32 34 32 18 44 34 30 26 16 22 10 20 16 26 24 22 20 34 28 18 14 6 26 24 26 22 40 32 30 40 34 44 44 78 236 445 470 426 384 483 485 470 447 420 386 455 420 302 275 329 355 370 351 329 333 333 360 374 389 413 434 443 428 
42 38 20 42 34 58 40 34 50 44 38 46 56 52 50 34 24 32 44 20 28 28 24 4 20 26 20 20 16 16 18 20 18 18 18 22 24 16 18 28 22 22 16 28 46 24 34 46 32 44 78 296 447 480 457 252 199 213 230 171 142 216 285 291 291 294 335 318 337 347 358 356 355 360 356 378 413 432 436 405 
34 58 52 30 52 42 52 44 40 50 46 46 46 46 38 36 34 28 18 14 26 24 16 32 32 6 10 18 18 10 8 26 14 2 16 28 22 30 22 32 24 20 28 32 34 52 44 30 34 42 70 287 445 464 459 230 110 96 90 90 84 130 294 362 364 362 341 335 345 337 351 364 364 355 356 374 405 417 424 380 
30 52 30 14 28 46 50 40 32 50 44 40 44 38 36 18 40 30 18 36 38 18 20 12 30 20 16 14 12 20 14 4 30 8 26 18 20 30 34 28 24 28 34 36 40 44 26 48 46 58 58 175 382 438 445 389 199 130 98 102 92 142 298 399 422 391 228 209 283 358 378 387 380 360 378 355 364 372 407 345 
36 52 32 44 28 38 44 38 44 46 42 42 30 40 42 34 36 28 40 14 24 10 40 28 32 38 26 10 24 34 28 30 24 26 24 28 34 24 30 32 32 36 34 44 46 36 40 42 52 46 62 70 153 300 434 464 430 308 136 100 94 134 300 380 395 370 308 254 308 376 389 386 370 358 329 279 271 263 289 294 
36 50 28 34 50 50 34 38 38 40 40 56 36 38 30 30 24 38 24 16 32 38 22 22 34 26 18 18 18 36 22 24 32 30 38 40 34 32 24 30 44 34 44 48 58 54 50 42 54 48 54 70 70 106 269 432 464 447 355 193 128 157 291 393 432 418 424 360 347 335 312 269 246 230 201 187 179 177 175 163 
34 60 40 40 46 38 26 48 46 40 54 46 44 50 38 32 46 40 30 40 28 52 30 28 28 34 22 28 36 36 30 30 34 20 44 36 30 40 26 30 38 40 42 42 44 54 62 54 54 62 66 58 66 88 98 244 399 451 447 424 331 236 314 428 434 434 442 370 287 232 216 213 197 193 185 163 175 159 159 167 
20 66 50 32 40 36 42 46 36 38 34 50 50 42 34 46 30 38 42 36 38 44 22 22 50 10 32 30 18 26 36 24 28 26 44 36 38 30 26 32 40 40 30 46 42 42 44 56 62 56 60 62 64 74 68 96 211 397 432 443 447 434 413 451 442 428 376 252 230 216 211 203 195 195 195 175 173 175 146 150 
36 58 36 42 44 36 40 40 28 40 54 48 36 34 34 28 24 32 34 32 30 44 34 40 34 32 30 22 30 34 34 34 26 30 22 20 36 38 22 32 30 34 40 36 42 38 58 58 58 60 62 54 66 72 64 74 84 203 380 443 453 474 461 440 438 403 289 220 222 226 207 215 213 203 193 177 187 177 153 157 
26 42 40 34 34 34 32 28 32 36 42 44 50 32 52 32 40 44 30 34 36 38 42 30 36 28 28 18 30 30 34 22 34 26 28 34 26 30 34 30 44 32 48 42 50 42 48 50 50 60 56 66 58 72 60 66 88 106 148 349 457 501 480 472 415 283 213 226 236 246 226 232 224 226 191 181 197 173 171 153 
46 72 42 42 34 40 30 36 52 48 46 42 48 44 32 40 30 24 34 22 28 36 24 34 36 28 26 16 22 26 30 22 32 28 24 30 40 26 34 18 32 34 42 36 32 46 54 62 52 54 68 48 72 76 76 76 80 82 76 132 275 430 457 447 279 207 263 287 316 306 285 277 263 254 240 201 211 191 175 167 
28 48 30 38 50 36 42 32 28 38 48 40 42 44 42 24 42 24 26 32 32 42 40 38 14 20 32 16 28 26 38 24 26 20 22 36 24 30 22 28 34 30 46 38 40 40 44 52 50 58 60 42 54 60 72 68 78 88 68 84 98 163 234 213 179 263 324 314 364 358 353 341 372 366 335 262 234 230 191 183 
44 48 34 36 34 46 42 30 32 36 46 42 44 44 40 34 42 42 32 46 40 34 28 40 32 30 32 20 14 30 32 36 24 24 38 32 30 34 30 26 44 24 28 40 46 48 50 56 52 62 56 60 66 58 64 72 82 96 92 86 80 108 126 146 215 310 302 320 343 368 360 386 415 428 434 374 331 275 234 222 
44 52 54 32 36 30 32 36 44 38 40 44 36 48 40 38 38 44 28 26 24 24 26 18 24 22 24 26 22 30 26 26 14 32 20 46 38 30 30 24 22 30 40 28 34 36 40 50 48 46 56 56 54 58 54 66 68 84 74 96 102 159 132 152 244 302 285 285 360 378 382 415 428 440 443 413 401 355 273 228 
32 56 34 40 52 38 44 28 34 52 50 28 40 46 40 32 42 32 24 28 34 30 32 28 18 26 18 26 20 10 18 18 28 24 26 30 32 20 34 18 36 28 40 44 36 48 48 54 42 46 50 56 50 64 50 68 80 94 92 96 116 293 258 248 296 320 279 289 343 387 403 430 417 434 440 443 405 349 289 252 
36 64 44 32 46 24 38 44 44 40 36 42 38 30 38 28 32 24 42 26 24 24 34 14 22 26 20 22 2 12 18 10 16 24 24 28 18 32 10 24 22 18 36 22 30 32 46 40 44 42 46 38 50 46 46 100 146 177 165 165 177 312 397 395 384 384 360 358 343 387 401 422 417 409 430 411 337 362 312 267 
42 46 40 42 38 44 32 38 42 32 30 26 34 42 38 30 40 24 28 24 36 26 18 12 28 18 4 14 4 12 12 26 2 18 18 10 14 26 8 6 28 18 26 22 34 28 40 42 30 28 46 42 48 46 68 157 189 201 218 296 384 418 440 426 378 372 345 351 374 368 364 364 353 349 341 312 291 366 322 289 
38 54 30 40 46 40 38 38 36 32 40 38 32 26 22 26 26 26 18 26 22 28 20 14 26 6 18 6 16 14 12 8 8 2 16 12 16 14 20 14 28 20 30 28 32 36 30 48 44 36 32 48 40 52 122 218 283 275 296 399 459 493 485 470 432 393 372 347 351 325 318 283 296 283 308 308 302 368 358 304 
42 60 28 44 46 26 22 42 22 42 26 34 40 38 28 28 34 22 26 16 32 24 22 24 32 20 20 8 14 8 14 8 12 18 30 10 20 26 16 14 26 28 32 34 30 28 44 42 46 48 42 38 50 66 177 226 283 308 393 459 466 461 464 455 420 407 378 358 353 335 322 314 298 306 316 310 306 347 364 322 
22 56 52 38 36 42 44 32 38 44 52 22 28 46 38 40 38 22 36 30 26 22 30 8 26 14 28 8 24 24 24 14 24 16 32 32 26 16 20 18 32 30 32 40 50 36 40 46 48 44 52 46 50 66 191 207 256 339 426 453 434 395 403 459 432 418 391 384 382 335 316 341 304 304 308 322 341 329 345 335 
24 48 30 46 42 46 28 28 48 40 48 42 46 42 46 32 32 32 36 28 24 26 28 18 26 20 24 24 24 10 18 30 24 20 20 34 36 30 22 26 26 32 24 42 32 46 32 44 50 42 52 52 44 74 193 222 296 310 386 451 443 426 417 453 424 413 393 380 399 358 335 366 308 300 291 329 335 329 347 339 
14 46 34 36 28 36 50 22 34 48 44 44 44 46 44 40 28 36 40 28 30 32 14 30 32 16 24 18 10 30 26 22 30 22 26 30 28 36 32 24 28 32 40 40 50 36 44 48 46 50 52 54 52 74 128 183 267 260 296 417 476 476 436 415 401 391 411 413 415 376 376 395 335 325 310 324 347 337 351 333 
42 54 48 46 36 50 54 28 50 40 40 40 52 44 38 44 32 32 28 38 32 26 36 30 28 26 40 30 34 24 26 18 36 32 32 54 28 24 22 26 38 28 48 42 44 40 32 60 54 48 58 46 58 60 62 110 128 157 163 294 405 442 413 370 393 403 407 401 403 391 387 382 376 370 364 366 370 356 349 327 
28 56 50 44 38 36 36 28 44 44 30 46 32 50 40 36 32 36 40 44 40 42 28 42 40 28 38 18 20 36 32 30 38 24 22 28 26 26 26 20 44 26 44 42 42 42 52 44 52 50 72 48 54 62 66 76 92 92 84 144 281 397 403 397 399 405 391 382 399 407 391 401 403 411 420 413 418 407 364 343 
20 54 32 38 40 44 52 48 42 40 42 46 42 52 42 46 42 30 30 46 34 42 38 38 34 34 22 24 18 34 28 16 26 32 22 38 26 44 32 24 30 24 50 38 42 44 36 52 58 64 66 60 56 68 58 62 80 74 78 80 136 322 374 393 405 382 378 368 397 395 411 413 422 438 426 428 428 418 386 337 
38 60 30 40 44 42 34 40 46 44 40 36 40 42 46 52 38 34 42 46 42 28 34 34 36 44 30 36 34 30 34 26 38 22 24 26 30 38 28 28 42 30 34 40 52 52 44 44 58 46 68 58 46 48 62 56 78 70 64 76 82 181 234 254 300 353 366 391 415 415 420 432 432 449 442 449 438 422 380 337 
36 58 42 46 44 48 36 26 62 44 50 40 54 56 46 42 48 40 46 44 42 38 34 44 30 34 38 30 22 30 34 18 40 40 52 40 28 28 30 32 42 46 46 50 46 48 42 50 62 52 58 58 60 58 74 64 68 78 64 72 92 102 120 144 199 304 395 409 449 445 436 449 447 466 438 415 374 345 337 306 
40 64 40 34 52 32 30 42 62 44 50 40 44 36 54 44 28 44 42 40 34 26 36 32 28 24 18 38 26 24 18 22 28 34 28 32 28 32 32 28 38 46 50 62 44 50 60 64 62 60 74 56 62 74 68 50 70 72 66 78 70 108 114 148 209 306 395 432 464 472 451 461 443 451 401 302 267 281 285 285 
28 52 30 34 42 54 50 24 42 64 46 42 40 56 42 42 44 54 42 44 28 34 36 24 34 38 36 30 14 26 26 34 30 30 30 40 32 24 38 26 44 40 44 48 52 54 56 56 60 74 58 46 66 70 78 62 66 70 52 82 84 96 122 203 310 362 349 386 432 445 438 440 434 438 411 376 345 314 296 263 
40 56 48 44 36 36 50 34 40 38 44 42 38 38 30 24 38 40 36 40 22 34 34 24 30 30 28 26 22 28 24 32 20 28 32 28 28 32 30 14 32 46 46 56 68 58 58 70 80 62 84 48 46 80 60 62 64 62 52 76 90 104 165 316 347 353 353 368 389 411 399 417 401 417 457 443 401 397 355 395 
32 56 36 50 50 42 40 32 40 50 52 42 48 50 24 28 58 34 36 36 26 40 28 32 28 24 22 14 16 20 16 22 24 20 16 32 38 38 44 22 32 38 44 52 58 62 58 66 70 54 84 48 50 60 68 58 72 76 80 70 68 148 287 374 376 366 356 351 356 393 382 387 376 411 463 434 455 449 436 415 
36 58 42 40 38 42 36 48 32 46 56 38 34 36 20 24 28 44 32 34 14 16 18 26 30 28 16 28 10 6 18 30 18 24 16 24 30 26 18 26 32 30 42 52 52 58 46 66 92 64 78 64 48 48 54 62 60 70 60 72 90 238 331 397 378 353 318 325 327 353 364 378 372 401 451 424 436 449 438 426 
26 44 44 36 32 50 46 44 50 52 44 42 58 38 42 36 48 30 30 38 22 20 18 20 30 20 20 14 28 18 24 12 0 8 22 34 24 24 28 28 48 30 44 54 42 60 64 74 86 86 106 100 96 92 72 76 78 70 76 76 140 304 353 374 382 339 325 327 333 314 335 358 364 391 418 403 409 426 445 407 
38 62 46 38 40 50 36 44 42 46 52 48 48 54 48 38 32 26 30 44 36 28 36 26 30 40 26 28 10 30 22 30 8 22 20 18 18 30 26 18 34 36 42 66 48 74 84 72 86 104 226 285 289 287 240 260 224 112 82 98 228 341 358 368 347 324 302 316 308 310 304 351 356 343 347 362 341 358 411 401 
48 56 38 50 48 48 38 38 56 44 58 48 44 54 50 30 38 46 32 40 32 42 38 28 40 28 28 16 28 18 44 18 20 28 22 22 26 24 24 28 36 36 58 66 72 68 78 78 104 201 360 422 405 432 447 455 440 320 152 199 339 386 386 376 329 285 285 291 293 298 296 325 347 318 314 322 312 316 325 339 
40 56 46 44 48 56 52 40 36 38 52 48 42 56 42 34 44 32 38 36 30 40 38 28 34 36 46 12 40 28 18 34 32 30 26 30 46 28 30 24 48 36 60 68 66 82 86 78 167 269 389 395 420 466 470 449 476 449 417 376 415 432 426 343 331 291 277 294 287 291 291 304 308 296 294 294 273 306 289 300 
36 46 48 42 46 40 52 36 48 54 56 46 56 52 54 32 32 50 48 42 50 48 34 34 38 26 30 36 30 44 50 26 32 32 38 32 36 28 32 48 46 64 58 76 74 78 70 106 209 287 384 407 443 491 461 449 430 445 428 420 438 442 418 351 312 293 281 269 279 289 269 279 263 254 293 265 256 287 273 267 
28 52 56 46 56 58 46 44 52 50 52 50 50 54 52 50 40 46 40 40 48 28 40 40 38 40 24 32 44 30 36 32 36 28 24 32 38 26 34 26 52 44 60 70 70 72 80 82 187 254 341 384 432 493 482 440 403 386 374 380 411 440 403 308 287 265 271 273 277 269 238 230 230 244 265 238 222 236 265 265 
26 50 38 42 56 42 42 48 42 56 62 56 60 52 50 42 44 48 40 40 44 32 50 32 40 42 28 42 26 46 26 38 40 30 42 44 40 30 40 28 42 42 64 64 66 50 66 70 142 220 325 360 424 495 482 453 426 397 378 380 389 391 370 262 236 250 263 252 240 236 234 224 218 230 224 195 226 248 252 263 
34 58 42 54 52 62 42 52 52 56 70 60 54 64 68 48 48 40 34 58 42 46 54 42 46 48 46 34 36 40 38 34 30 32 36 44 38 46 38 28 46 40 50 54 56 66 74 88 98 171 312 343 395 480 472 461 434 424 366 380 382 395 329 244 244 236 242 248 250 256 236 248 224 185 187 187 209 250 240 240 
34 64 38 36 52 46 44 50 58 56 46 48 46 44 56 50 52 52 38 56 44 56 24 48 28 44 40 28 24 38 24 28 26 48 32 24 34 38 32 40 26 44 52 46 56 28 50 56 70 122 218 285 333 407 432 466 438 432 386 374 384 389 304 285 260 232 220 226 236 250 234 228 203 161 169 183 211 236 232 222 
36 54 22 42 54 46 46 42 48 52 48 52 46 56 44 52 62 44 44 38 40 48 42 38 42 36 40 22 22 34 38 40 28 34 44 56 48 32 28 34 32 44 46 60 52 58 70 72 56 64 114 104 118 199 240 293 252 234 222 294 310 329 275 300 263 226 238 215 228 248 232 220 191 161 161 171 203 232 207 209 
30 58 54 36 50 42 40 52 44 64 48 50 54 58 42 46 40 50 52 38 38 48 42 26 40 30 38 40 38 32 30 26 34 34 34 36 46 42 38 30 38 40 50 68 60 56 52 50 50 56 66 82 62 78 96 114 96 96 134 230 267 273 275 271 263 228 213 213 228 230 236 218 173 163 163 179 254 230 224 213 
22 60 48 36 36 54 48 46 32 52 44 48 46 46 64 60 54 28 56 36 38 40 48 36 32 38 34 34 28 40 26 32 22 26 34 32 14 38 28 30 54 60 30 58 42 64 52 54 50 40 62 48 48 52 58 54 64 54 90 205 252 279 273 267 250 205 228 199 232 244 244 256 195 183 193 205 240 205 226 228 
28 40 32 30 38 62 44 30 40 42 42 30 42 48 54 36 54 42 38 28 48 34 36 40 44 38 26 30 22 30 36 28 28 34 26 28 44 30 24 30 32 22 40 44 26 34 34 50 34 52 36 36 44 60 42 36 42 40 76 163 265 310 306 279 246 228 224 211 238 258 254 263 207 203 207 216 211 216 232 222 
16 56 22 18 12 42 16 26 50 32 34 38 50 38 34 54 50 30 44 40 32 44 42 28 34 28 14 30 14 24 28 28 18 28 24 42 26 14 30 18 20 38 38 48 30 38 40 42 52 50 50 44 42 64 56 44 58 54 76 118 254 310 287 293 258 226 220 197 218 240 260 265 199 197 207 201 215 228 228 234 


