P2
80 60
708
134 111 134 111 120 124 136 148 146 138 140 152 152 158 160 156 160 166 154 146 142 152 158 162 170 264 498 547 535 515 474 452 448 452 466 442 442 448 430 426 414 436 446 468 484 486 511 539 563 555 549 521 458 414 396 384 374 346 322 298 278 286 286 270 264 262 250 268 278 314 302 292 272 296 304 342 350 366 382 366 
134 109 99 122 115 118 138 138 136 150 122 134 140 144 138 150 150 154 160 164 160 174 176 178 174 280 468 531 553 535 525 484 466 442 432 412 398 400 408 384 380 384 394 396 412 410 416 426 464 523 535 541 523 509 484 454 432 406 364 338 328 310 314 278 264 258 254 282 322 334 308 298 266 262 302 336 338 342 358 362 
113 113 118 130 132 126 113 140 134 144 142 132 154 148 146 158 156 178 239 280 296 332 326 237 239 366 420 490 549 568 533 490 468 432 412 402 370 382 394 396 400 406 420 408 438 426 420 398 400 418 474 513 529 529 531 545 494 464 452 442 410 354 354 338 314 292 298 320 336 346 326 300 278 276 304 344 354 362 354 356 
134 118 128 130 115 140 124 134 162 146 142 150 138 152 142 154 166 278 432 458 486 541 588 513 456 551 505 492 559 584 572 533 529 470 448 412 414 414 434 434 464 470 476 452 458 428 426 412 382 386 386 394 452 531 549 553 507 502 488 464 462 410 394 356 344 366 374 362 344 326 314 322 332 310 332 348 372 386 348 318 
138 136 107 128 128 128 126 140 134 146 148 144 148 166 158 172 211 390 496 596 631 641 654 652 685 708 679 615 559 535 561 537 553 507 458 422 414 432 436 430 444 436 424 420 410 396 398 372 368 358 374 362 370 384 448 492 500 500 500 484 498 464 392 358 382 404 396 388 340 342 322 296 344 310 304 294 292 258 219 223 
132 120 122 134 128 124 128 132 152 138 158 154 156 174 170 193 298 456 535 614 635 629 670 677 679 708 689 679 668 584 496 494 492 456 438 406 408 408 426 432 434 442 444 448 442 422 408 378 366 368 358 356 342 362 346 358 404 438 428 426 428 378 338 360 412 362 382 364 358 326 278 256 270 231 191 176 166 152 176 197 
136 115 118 124 124 144 130 152 162 144 148 162 142 176 168 191 304 432 590 594 648 646 654 646 648 674 662 666 681 652 539 470 468 446 434 420 406 398 390 402 460 456 410 400 406 402 408 382 370 356 350 338 324 336 324 310 334 364 344 320 328 324 328 370 358 338 332 328 292 260 205 185 187 158 162 156 140 154 154 170 
150 126 124 128 134 144 138 170 152 152 156 162 172 170 164 205 245 430 604 627 633 639 641 600 588 545 563 527 570 543 492 494 515 529 504 486 448 428 430 436 462 452 418 416 450 434 420 406 382 366 368 362 336 318 296 294 324 360 328 340 352 358 336 330 324 300 282 229 203 187 174 176 174 162 164 156 144 156 185 166 
120 122 142 138 140 134 142 170 148 152 160 172 160 172 172 191 219 370 502 594 610 615 590 563 486 318 256 233 272 338 470 539 588 553 513 482 454 438 444 432 426 420 438 444 464 464 476 458 424 410 404 400 392 364 330 328 352 374 380 370 372 358 330 316 334 356 342 272 211 187 193 207 189 185 178 178 154 164 183 180 
130 128 132 144 140 142 154 152 158 156 162 170 158 166 164 183 191 252 342 422 500 517 488 390 272 195 185 191 191 229 380 537 584 559 533 484 468 432 432 424 420 432 446 517 572 563 541 513 504 515 502 515 502 486 410 372 410 470 476 456 476 488 464 464 468 442 420 354 298 225 211 209 203 199 191 168 156 166 166 168 
142 118 144 136 142 140 142 150 168 150 146 164 170 162 164 156 158 156 191 197 203 217 209 180 166 180 178 183 178 191 243 426 568 555 511 474 458 444 450 452 448 438 448 543 600 586 574 570 574 586 608 602 608 588 547 537 568 557 539 511 509 488 504 490 480 478 428 372 328 292 272 252 227 215 213 191 178 199 189 189 
130 136 140 136 146 154 146 158 156 154 176 178 168 170 172 164 168 158 160 162 152 176 170 168 170 168 185 191 187 185 203 241 440 505 507 470 490 494 468 422 400 386 384 511 557 416 366 378 404 416 450 500 521 539 533 551 570 555 515 486 472 490 505 490 502 486 446 380 376 330 326 310 284 248 237 199 205 201 191 203 
142 105 134 132 140 142 144 166 160 168 168 168 174 168 170 158 158 162 148 142 138 166 170 162 158 172 176 172 189 201 221 298 454 517 555 521 539 543 541 517 414 348 336 527 527 430 334 312 320 348 408 462 492 511 476 472 464 492 502 480 482 488 474 484 476 448 408 364 356 364 358 352 348 316 260 233 203 211 195 199 
142 132 128 130 134 142 146 168 154 152 154 164 166 168 164 160 154 154 150 148 146 146 168 160 154 170 162 183 183 207 268 474 547 523 551 565 568 565 557 515 438 408 456 525 519 498 488 484 464 452 494 531 557 557 527 466 432 474 482 474 478 470 462 460 426 410 368 374 334 366 372 374 364 356 318 284 264 213 203 195 
144 136 138 148 142 138 146 152 146 170 162 162 183 152 162 176 146 166 150 150 142 150 162 160 156 168 158 185 187 207 338 533 576 541 553 565 572 557 517 494 470 482 488 515 525 513 513 486 476 448 490 519 541 529 507 466 424 468 462 472 456 438 436 440 406 390 352 360 350 348 374 388 394 370 340 322 308 290 245 213 
150 142 130 148 138 150 128 152 146 156 150 162 178 152 168 158 152 144 158 154 134 148 168 172 154 168 164 193 195 231 380 539 580 578 576 574 572 527 492 482 486 494 502 498 507 511 521 492 464 462 466 505 507 484 454 438 402 452 474 450 446 424 434 368 296 264 288 302 302 334 374 382 394 374 358 346 326 332 316 272 
148 140 148 134 132 142 144 160 162 158 140 156 170 168 156 148 150 148 158 160 136 160 176 185 185 189 187 189 201 268 398 492 592 600 596 576 563 519 480 482 484 504 498 502 494 480 511 531 500 466 446 466 474 430 402 394 382 442 472 456 456 356 298 258 256 245 266 254 260 298 366 396 390 384 384 342 352 336 354 354 
142 150 150 152 148 152 150 168 170 174 152 154 162 166 183 176 168 162 172 164 162 197 231 221 219 239 239 243 268 424 498 517 582 580 584 582 549 507 480 476 490 486 500 496 482 462 488 511 505 504 442 460 438 410 376 382 398 476 504 456 374 296 282 304 306 322 344 352 330 342 362 414 408 402 374 344 352 362 360 350 
134 146 162 150 142 138 148 178 162 170 168 152 174 174 168 185 170 172 170 172 205 314 430 468 474 486 470 374 406 574 668 537 568 551 535 527 507 490 480 486 478 486 482 482 474 476 486 535 547 549 500 472 462 426 414 418 452 482 474 462 448 460 478 464 456 462 462 432 396 376 418 430 402 412 382 346 346 338 356 348 
146 144 148 156 144 146 144 170 150 150 180 174 172 170 183 183 174 174 174 191 300 523 590 602 592 602 604 629 645 670 695 617 547 490 509 517 519 511 486 482 492 492 478 476 482 504 531 547 553 557 513 462 472 464 450 452 476 523 505 511 535 513 513 509 476 468 454 390 396 376 378 380 394 408 412 370 346 342 354 340 
148 158 152 150 148 150 156 168 158 174 164 178 180 176 189 193 172 172 183 219 422 608 615 623 574 574 592 631 664 681 672 578 541 545 547 549 537 521 513 504 505 523 509 488 494 517 555 543 557 527 492 466 494 496 478 496 496 529 509 513 511 519 500 494 450 444 408 394 388 352 346 314 366 356 354 368 348 338 324 314 
136 132 160 164 148 142 158 174 170 174 170 174 174 172 170 180 164 164 193 243 430 621 627 627 592 592 604 619 652 691 676 563 570 615 602 588 567 543 509 505 500 504 494 498 502 515 572 563 541 498 484 488 521 535 527 496 476 474 480 494 498 488 480 432 438 418 390 394 338 340 328 336 310 322 302 296 292 290 272 280 
138 154 152 170 170 162 152 172 160 162 160 174 183 164 174 191 185 180 199 209 392 590 619 652 645 648 643 610 627 646 608 519 594 604 608 594 574 541 517 498 494 490 472 484 488 517 561 580 515 504 515 505 525 523 494 458 436 432 432 448 468 480 446 432 428 410 378 354 306 284 314 294 280 258 241 260 223 239 245 268 
158 150 156 172 156 158 164 150 144 160 172 172 180 180 180 180 193 178 185 209 310 502 612 625 646 633 588 490 414 494 484 486 574 574 596 584 578 553 513 486 474 460 476 476 490 531 557 547 504 517 513 502 492 476 468 440 420 412 422 412 432 426 420 402 382 354 326 288 260 274 252 256 248 233 239 221 221 233 229 250 
146 156 144 168 162 150 162 172 160 164 174 176 178 168 187 170 172 180 187 189 209 322 460 494 509 436 392 282 260 310 412 541 578 545 553 561 561 570 537 507 480 482 480 486 500 521 539 521 517 531 498 454 420 436 450 448 402 396 358 376 372 352 334 314 282 268 248 250 258 250 252 258 250 235 239 221 211 225 223 237 
154 148 162 158 164 160 168 170 170 174 189 176 189 168 174 178 178 178 183 176 168 197 239 266 266 235 225 229 219 241 334 533 557 541 557 567 561 559 567 561 541 505 502 523 547 549 561 513 505 476 464 432 390 400 416 416 386 346 308 280 250 252 258 229 241 252 264 243 248 252 260 252 250 241 248 217 211 231 237 223 
156 150 150 160 160 148 150 156 162 152 170 180 176 174 180 176 168 170 183 168 162 183 189 193 205 187 201 205 215 209 288 500 559 551 602 559 492 492 572 592 582 543 494 474 539 561 553 494 464 434 428 402 376 360 326 298 260 231 213 203 225 219 221 223 237 248 235 243 260 270 270 266 270 260 239 229 207 223 225 229 
138 146 146 146 138 150 146 160 164 174 172 168 172 170 172 178 162 168 160 166 158 166 178 172 176 185 193 199 203 219 237 378 557 590 621 568 511 496 525 584 594 588 496 492 568 568 529 362 318 302 292 282 286 276 233 219 215 213 201 195 199 201 201 213 221 235 227 256 266 280 270 278 258 235 239 215 199 215 209 221 
134 136 156 148 156 158 158 148 168 146 170 170 172 172 166 164 164 170 160 160 156 160 180 185 180 176 170 193 197 205 221 245 410 596 641 586 580 539 521 561 578 600 612 586 592 567 444 252 229 243 248 233 217 217 205 207 193 211 191 189 191 193 209 203 197 219 241 256 270 300 286 274 256 245 219 199 197 209 205 219 
146 140 148 152 144 160 146 152 172 154 158 160 176 166 172 164 160 160 172 150 152 158 176 172 170 174 170 195 187 197 213 215 288 420 627 612 598 590 598 588 580 578 592 627 608 547 302 239 237 241 245 250 237 237 225 217 225 252 237 205 205 213 209 219 207 227 245 248 278 274 282 274 262 233 215 197 197 199 217 221 
144 142 164 162 156 154 162 156 164 150 174 164 166 166 174 166 160 162 158 152 160 162 176 180 180 172 172 187 197 211 221 314 537 612 615 604 588 584 596 592 582 588 576 480 472 334 256 252 243 248 254 278 296 298 274 290 368 426 428 380 368 352 308 284 294 276 266 248 290 280 282 290 276 260 219 205 201 207 223 219 
152 140 156 148 156 162 160 160 172 166 164 176 178 158 174 189 166 176 168 174 156 160 183 185 187 170 187 203 191 215 280 529 641 619 606 568 584 584 580 559 580 584 567 408 338 360 386 388 400 348 376 316 362 344 286 322 382 426 446 428 450 432 366 354 358 358 358 336 324 316 310 316 328 348 342 330 314 310 302 284 
128 148 150 154 144 146 164 166 172 160 168 168 164 185 183 185 158 164 176 166 172 168 183 178 180 180 189 191 201 229 334 588 572 549 547 537 547 572 574 570 563 574 553 458 302 330 394 416 448 402 342 330 364 394 352 348 404 426 436 428 416 396 336 366 362 338 380 396 392 378 372 396 406 416 454 438 432 454 442 440 
148 150 162 158 156 158 166 180 172 168 176 156 174 172 172 172 174 174 172 172 160 189 187 185 183 185 205 205 211 248 364 576 539 505 529 535 557 553 568 565 582 578 553 478 314 358 390 394 428 412 356 298 338 398 380 354 354 356 348 366 358 328 322 346 374 350 354 372 392 382 376 412 402 380 420 418 434 438 432 414 
142 148 136 152 154 140 166 170 174 180 162 174 180 168 176 187 174 176 187 168 166 191 219 211 223 213 217 219 225 278 450 608 615 549 531 521 517 517 509 519 582 568 555 505 448 460 434 430 434 422 390 304 308 346 366 366 352 360 336 338 318 312 348 328 348 326 380 394 412 390 366 386 388 386 398 418 418 416 418 404 
140 140 168 154 164 152 166 168 162 166 162 178 178 180 176 174 168 189 191 183 199 316 408 408 400 444 446 320 276 294 563 580 592 539 519 507 509 504 480 476 555 567 549 543 545 557 478 430 422 418 394 320 324 328 376 370 362 336 316 340 302 288 326 326 316 358 376 390 414 410 376 368 380 390 396 388 386 392 378 356 
142 142 146 158 152 154 154 168 164 172 180 174 183 185 180 183 178 176 189 197 296 513 533 502 543 604 623 604 531 543 572 549 523 527 545 484 442 408 342 336 460 563 555 535 547 541 480 452 420 426 366 348 318 318 356 384 362 332 338 334 286 282 280 310 330 378 362 382 404 382 334 318 330 328 320 300 282 268 268 245 
144 150 164 160 142 152 152 172 178 172 176 170 180 178 187 185 185 180 197 211 378 545 539 543 604 621 621 658 625 608 582 515 531 480 450 448 412 362 324 322 410 531 539 533 527 507 470 430 412 392 380 338 278 282 352 378 322 330 322 294 278 288 258 278 310 328 314 314 306 284 274 278 278 272 241 225 219 221 235 231 
146 136 162 150 146 166 172 178 174 172 166 162 168 178 176 185 168 178 191 229 394 521 568 596 610 606 568 588 600 580 570 505 504 541 472 380 388 390 334 294 362 515 505 515 496 456 412 396 406 412 398 312 205 235 314 356 294 298 322 314 332 328 294 312 300 288 292 276 274 270 260 260 258 239 235 221 221 229 229 268 
142 138 154 148 144 168 164 154 164 158 168 183 180 178 178 193 174 185 195 211 390 505 559 584 623 606 549 586 590 568 570 494 567 572 519 515 464 400 320 314 344 490 484 488 466 482 408 382 418 416 374 276 205 270 332 366 340 338 338 316 324 284 342 380 406 416 408 390 368 350 308 310 292 276 276 284 276 288 296 284 
144 136 164 146 154 152 162 168 176 170 172 162 168 172 170 185 178 178 189 250 390 442 533 505 568 610 596 561 559 551 561 527 578 590 580 549 500 472 394 376 444 504 482 452 434 454 404 380 410 406 358 258 243 320 370 374 346 350 354 320 342 392 424 440 464 454 458 470 464 464 422 390 406 406 412 406 402 412 420 396 
152 148 164 142 152 160 154 172 178 166 174 176 176 172 160 180 170 178 176 215 288 366 406 424 468 533 537 547 570 549 557 505 525 523 523 535 529 519 488 492 531 529 490 382 352 430 394 386 416 412 322 219 276 308 342 352 340 348 362 360 338 410 424 430 438 418 430 444 460 462 424 432 462 458 460 450 460 450 482 456 
134 140 152 154 150 158 154 152 180 172 166 166 168 164 164 183 178 166 180 172 207 225 258 270 290 296 290 412 527 525 498 525 529 509 500 494 521 543 568 615 572 515 470 306 256 350 360 360 372 318 248 211 231 290 302 322 324 334 328 370 330 372 370 390 400 420 380 404 424 408 394 408 446 454 448 444 444 470 494 464 
128 142 156 166 148 150 166 160 162 148 146 170 166 158 170 183 170 160 183 168 168 172 191 189 209 213 225 262 306 292 326 539 586 509 513 515 500 527 549 559 543 496 396 213 142 235 330 364 358 284 235 215 197 272 276 276 302 302 296 300 304 298 336 364 396 366 372 390 382 370 376 390 442 438 432 428 436 470 454 418 
130 118 148 144 140 146 150 162 162 150 146 164 170 160 168 187 170 170 166 162 154 166 187 187 189 185 199 203 211 211 264 470 565 496 502 515 527 531 559 565 549 484 310 176 150 227 286 360 352 245 248 227 207 284 250 237 266 252 245 211 250 252 296 318 322 354 366 338 312 292 322 352 386 386 384 374 344 362 334 304 
138 142 146 136 146 154 156 168 170 160 162 170 183 174 170 180 183 172 172 158 164 160 191 187 193 187 185 205 205 213 245 372 553 515 517 545 529 545 557 557 557 529 448 286 229 286 306 342 312 262 229 211 215 314 245 195 205 223 225 233 237 229 272 316 356 354 326 296 264 237 239 241 252 229 237 223 219 243 272 213 
138 138 144 156 146 158 158 168 162 174 166 170 183 170 176 215 248 250 258 209 185 170 193 191 201 201 197 215 213 223 233 304 517 549 561 549 549 545 541 533 543 533 382 235 233 235 237 239 252 239 248 227 268 280 237 219 243 258 260 282 292 294 312 322 348 334 306 272 250 235 231 217 217 185 193 174 185 189 199 176 
138 152 144 146 156 160 146 168 189 166 164 168 168 178 221 322 398 442 474 444 320 248 207 207 209 209 205 229 217 217 231 223 308 422 517 527 525 539 521 515 498 412 288 250 278 296 288 252 231 227 243 243 258 294 308 326 346 324 304 336 330 326 314 302 312 332 322 312 268 258 248 239 227 191 176 170 138 146 154 140 
144 144 140 160 146 150 164 148 189 164 162 160 174 203 300 396 458 527 584 586 555 460 336 231 213 213 215 219 215 221 227 241 328 390 382 360 380 424 430 414 368 350 352 336 322 314 294 284 256 243 268 290 316 330 322 336 338 328 316 304 308 302 306 300 302 304 316 306 302 294 298 304 278 201 168 162 134 146 128 107 
122 134 158 146 124 140 152 160 150 164 164 180 176 201 322 436 460 555 576 608 574 498 414 356 270 207 213 219 219 245 298 314 340 318 288 324 342 356 342 322 322 338 342 328 324 334 348 324 292 318 326 310 292 304 300 310 308 312 288 300 282 290 282 298 272 286 302 304 326 314 322 326 344 312 221 144 107 113 73 89 
107 140 146 152 150 154 148 160 154 166 172 180 178 203 332 472 505 547 615 614 576 563 507 472 314 215 211 219 256 324 326 272 252 223 264 308 330 346 334 308 320 354 364 322 326 334 356 306 286 312 340 340 324 308 288 276 280 284 268 266 264 280 270 274 266 219 270 312 330 310 328 334 356 364 350 258 128 89 60 50 
120 136 130 134 138 158 138 158 162 162 158 170 178 195 354 462 504 584 621 629 617 602 635 541 494 290 272 308 344 366 308 197 152 152 174 292 324 334 326 302 332 344 356 338 346 342 306 292 250 274 306 332 316 302 280 272 256 250 237 243 254 266 256 258 231 142 213 322 324 320 324 334 348 358 354 336 264 144 9 0 
122 132 150 142 136 138 138 172 162 160 158 170 183 183 298 430 466 535 606 627 617 629 633 582 533 450 360 362 362 352 276 146 122 46 158 290 328 324 320 306 324 354 368 346 334 326 282 248 207 221 248 290 235 252 270 258 229 213 193 211 235 237 231 252 221 107 120 221 282 300 312 328 340 350 326 330 320 270 150 11 
130 134 140 140 136 138 152 154 154 156 164 162 166 174 219 338 430 505 598 588 615 602 617 582 509 410 366 354 348 324 276 132 85 87 195 254 300 314 304 308 320 356 366 348 328 286 241 215 193 219 213 256 205 229 270 258 213 170 138 183 201 219 229 245 219 170 148 178 193 237 288 312 342 328 308 312 318 322 306 185 
130 130 132 140 124 144 148 154 158 146 166 156 174 178 187 225 258 362 448 486 521 549 576 509 448 408 368 340 306 294 266 120 109 152 233 256 294 284 316 314 348 356 320 342 306 262 248 221 174 185 203 209 205 250 274 308 248 239 195 203 185 223 217 237 217 203 178 160 172 211 219 252 288 288 292 306 304 306 316 294 
124 132 142 140 120 130 134 146 148 148 152 150 154 160 166 178 178 199 227 268 296 376 482 428 394 380 344 316 284 272 243 132 172 199 241 258 284 280 322 364 364 342 348 302 250 233 237 211 189 209 302 324 294 324 344 314 298 264 245 215 195 203 205 219 193 166 172 150 172 183 209 203 193 217 256 276 280 302 312 298 
128 124 136 126 126 142 118 130 138 146 140 144 160 136 162 148 154 156 164 174 189 207 332 410 388 360 312 270 276 274 250 168 219 227 250 260 290 302 374 390 370 368 334 288 241 239 237 225 211 324 456 430 398 374 366 364 314 282 219 207 199 195 180 178 174 162 164 128 140 162 166 178 180 152 176 207 229 292 326 312 
113 115 118 107 124 124 126 134 132 144 140 130 168 132 156 142 146 152 142 140 144 211 394 426 392 364 314 254 126 256 268 205 248 250 256 270 298 354 394 390 372 426 364 306 290 256 260 266 245 374 480 464 416 366 366 334 304 274 227 197 209 180 164 158 168 162 154 144 148 150 144 197 245 282 296 290 280 306 328 302 
103 113 109 107 109 111 109 128 113 134 122 132 156 142 148 150 134 132 138 128 146 201 406 394 378 368 354 312 148 144 256 231 256 264 276 288 342 414 460 446 430 412 388 368 336 330 296 282 290 384 450 440 440 396 348 310 274 274 229 199 187 180 168 158 146 146 170 168 168 154 166 215 258 296 324 322 298 326 330 300 
93 111 103 93 115 113 95 140 140 113 118 124 132 140 158 172 156 142 158 154 136 217 400 420 408 382 348 320 286 272 278 266 310 276 296 294 388 458 482 462 456 436 416 406 368 332 294 282 278 330 402 438 438 410 334 276 254 241 215 199 193 176 172 166 156 164 160 185 176 180 203 245 272 310 296 308 316 330 318 312 


