P2
80 60
774
204 186 194 190 192 200 206 202 202 219 204 217 213 219 227 206 217 231 227 225 227 208 219 286 521 599 599 579 547 529 511 521 533 539 505 501 513 501 503 517 515 547 569 595 608 618 640 660 642 632 587 523 461 407 397 395 407 383 381 361 338 336 334 351 338 322 310 304 310 359 373 375 365 320 345 363 423 427 443 419 
200 186 182 196 198 192 206 198 200 223 188 198 200 210 213 227 217 215 225 217 227 217 235 326 545 612 610 612 599 567 551 525 535 513 497 481 477 473 473 479 493 491 491 511 521 545 553 608 616 628 606 587 565 523 505 485 475 439 427 411 381 361 379 363 336 320 314 320 343 385 397 393 351 308 312 367 409 409 423 407 
182 190 186 198 204 204 180 208 208 213 204 200 223 219 229 223 239 257 259 286 294 243 249 326 497 531 604 610 600 593 543 539 525 501 481 495 457 463 469 465 473 459 459 469 467 473 469 497 527 575 604 600 610 589 575 591 543 497 491 479 443 409 413 427 395 340 365 367 365 401 413 385 359 334 340 405 429 443 429 403 
200 192 188 202 186 219 198 206 221 213 198 217 215 225 227 302 393 441 469 523 513 347 415 467 541 521 583 638 652 634 577 547 545 519 503 485 489 479 479 491 505 487 511 503 493 485 475 481 463 479 495 557 591 606 620 606 569 547 543 521 485 465 445 441 399 385 421 419 399 397 389 389 409 369 381 425 449 453 413 363 
194 200 170 196 196 194 202 200 200 210 204 204 231 233 286 449 527 604 685 699 673 662 687 716 716 604 587 608 612 640 624 608 597 557 517 509 497 489 495 525 537 521 523 515 499 479 479 463 445 431 435 451 483 539 608 600 575 567 573 561 553 503 451 427 407 451 455 441 425 419 403 361 407 363 361 357 345 292 265 261 
194 186 182 202 194 188 204 192 204 204 213 219 233 255 389 527 618 703 691 701 726 712 749 757 759 732 687 632 612 593 614 602 585 551 521 505 509 499 519 541 529 519 511 515 491 477 473 465 439 439 405 415 425 425 481 549 535 549 549 541 535 441 391 407 441 413 425 419 427 401 367 332 318 269 229 235 221 198 229 247 
202 192 182 184 194 213 200 204 210 213 206 223 223 282 447 543 665 665 710 712 730 705 716 734 771 763 732 720 654 577 573 547 525 503 487 493 511 521 503 533 551 519 467 477 473 471 477 465 439 433 411 393 393 387 393 421 453 483 495 491 433 381 373 405 417 385 389 381 371 322 286 255 231 204 213 213 202 206 221 225 
206 194 196 196 202 219 210 231 215 225 219 217 243 282 431 616 697 716 724 710 720 679 691 677 718 710 726 712 656 595 553 539 549 557 529 513 505 495 503 551 559 521 473 483 497 475 479 463 433 427 417 417 405 377 369 379 421 423 415 391 407 407 379 387 369 345 316 282 267 251 235 231 215 213 204 219 202 221 237 221 
200 186 196 178 206 215 210 215 221 225 231 239 237 265 411 563 665 724 710 726 710 662 642 589 507 425 537 565 533 569 608 618 602 585 555 539 521 539 541 559 543 515 523 525 529 489 489 481 451 437 427 419 417 389 373 377 427 417 417 417 401 361 330 312 296 273 263 247 241 241 253 263 233 233 233 231 213 221 241 227 
198 200 196 206 210 215 217 219 227 225 225 243 237 257 363 489 581 707 722 703 679 646 513 334 282 278 288 334 493 656 675 660 642 593 555 525 537 525 531 539 525 523 525 541 559 545 529 511 505 497 469 487 483 457 415 397 451 443 407 419 421 403 290 280 261 245 249 241 243 245 249 275 249 253 243 243 219 227 237 221 
204 184 208 200 219 196 215 204 221 225 210 227 241 239 273 361 439 563 636 595 557 423 286 239 239 255 255 273 351 585 638 630 624 595 541 531 533 521 525 537 533 527 589 600 626 616 646 632 624 638 652 646 654 624 575 563 614 579 547 515 561 451 284 261 249 235 241 253 247 259 265 288 282 271 257 261 247 253 245 239 
198 204 213 194 213 229 229 213 223 227 235 241 237 229 245 245 278 306 312 300 269 251 233 235 239 239 263 275 300 345 547 616 620 579 557 573 585 561 551 539 535 535 509 447 471 497 539 531 525 495 487 505 529 557 579 618 628 597 573 529 513 409 280 255 263 257 247 259 271 269 275 304 286 284 271 257 280 263 267 255 
202 188 204 202 215 204 213 219 213 223 227 233 241 231 233 231 235 239 229 229 225 239 235 231 237 249 255 265 292 385 549 595 599 593 581 606 618 622 606 628 628 624 640 622 503 377 355 353 340 347 340 347 336 328 355 375 423 467 517 495 385 308 278 261 267 269 265 271 280 292 288 310 326 314 304 302 271 286 298 263 
202 194 198 202 213 210 221 223 221 229 227 223 231 239 225 227 215 223 223 225 217 223 227 221 231 245 247 275 365 555 600 591 610 581 575 622 652 650 660 656 654 669 656 665 658 563 469 413 389 409 437 453 439 425 413 391 399 399 457 443 425 401 383 369 343 359 343 357 332 349 336 353 355 377 340 357 330 306 296 318 
210 194 206 208 208 200 223 208 217 231 221 231 245 213 231 235 225 239 221 233 235 225 227 221 241 251 249 320 533 616 599 599 606 591 587 634 673 667 654 640 591 571 624 652 677 663 638 555 475 485 501 511 521 475 477 477 487 475 483 485 475 463 481 483 461 469 453 423 397 397 377 389 389 393 395 389 393 399 379 381 
202 204 198 204 217 210 210 208 208 225 215 217 233 217 227 231 217 225 231 233 223 223 235 233 227 249 263 361 581 610 602 602 583 593 600 634 665 640 624 614 575 571 608 632 642 634 663 654 610 573 531 543 551 531 523 521 513 497 513 513 517 493 523 515 497 485 489 457 405 381 371 377 385 375 373 393 385 397 419 395 
217 202 206 206 190 213 221 210 217 219 206 223 227 235 217 225 225 235 231 241 227 227 237 237 251 261 275 399 610 624 608 575 595 620 620 616 636 612 595 595 599 597 589 585 571 555 583 614 612 620 591 587 571 521 521 533 529 525 519 545 533 519 517 521 505 479 487 447 407 381 365 389 397 407 403 389 401 391 433 399 
213 202 217 208 210 225 225 206 221 247 227 221 237 237 237 237 241 247 249 253 261 245 259 241 257 282 306 453 628 636 634 612 599 610 597 602 610 581 587 612 608 589 577 569 575 575 545 547 602 630 634 624 608 589 571 567 539 515 515 541 543 537 521 535 515 487 469 453 415 405 385 423 419 441 415 409 413 431 425 417 
200 213 219 196 202 206 210 227 221 243 235 219 247 235 227 241 245 259 296 347 385 375 355 316 292 318 407 509 622 644 665 624 646 646 632 589 585 575 585 595 587 579 563 559 569 563 533 525 549 622 636 634 638 593 589 553 541 521 517 535 547 527 541 539 511 501 509 473 437 395 403 407 409 429 419 401 409 403 417 411 
208 221 210 213 215 210 208 227 231 239 241 235 235 239 253 257 251 320 453 551 624 638 612 563 431 519 541 583 634 648 663 665 667 650 626 591 579 591 577 575 577 569 567 555 547 531 519 519 539 581 612 616 622 620 606 543 549 555 531 531 499 465 467 405 361 361 375 357 347 334 320 330 349 349 355 349 371 377 433 361 
229 233 223 217 217 219 221 217 221 239 231 245 233 243 257 265 294 443 618 681 675 685 705 673 656 716 707 710 650 644 642 640 667 642 587 557 549 565 573 589 565 567 555 539 527 507 505 509 513 525 555 595 620 597 571 549 525 527 515 475 397 403 425 445 433 415 399 385 393 373 389 397 407 409 419 417 419 435 447 421 
208 200 237 227 217 210 227 223 239 231 225 243 231 247 245 261 326 529 673 675 677 665 663 663 697 728 738 757 728 624 632 640 660 632 593 545 555 571 579 597 573 571 547 523 523 489 501 495 507 517 507 549 557 547 523 493 539 535 517 527 489 473 489 501 499 495 477 469 447 437 435 481 497 521 493 513 511 499 485 483 
202 227 225 210 229 229 213 225 227 225 229 243 249 241 247 271 359 567 718 687 681 638 642 640 663 699 753 755 728 616 579 589 608 589 557 537 549 563 575 583 577 565 537 529 517 493 497 495 495 489 507 507 479 465 491 497 529 557 579 563 565 565 575 543 549 545 523 493 455 435 491 497 525 547 537 557 535 527 533 485 
219 219 221 215 229 221 231 227 219 231 237 233 241 247 245 259 328 469 675 689 703 669 673 665 648 660 740 774 755 671 585 557 593 583 553 541 543 547 569 579 569 555 549 529 523 501 503 491 483 501 507 493 491 497 507 499 549 591 593 579 587 577 575 561 553 545 533 477 453 455 461 463 489 511 533 511 505 503 477 419 
208 217 210 221 221 225 223 231 227 225 247 243 241 239 253 243 275 393 585 662 697 669 679 660 565 485 549 669 679 595 652 642 662 632 591 559 531 563 575 581 563 551 549 541 511 499 505 495 487 489 471 503 527 521 555 553 567 593 587 581 589 565 561 567 543 507 487 449 453 427 421 435 431 435 443 427 381 363 351 316 
223 202 225 217 235 239 231 223 235 239 247 239 239 229 241 253 253 310 407 513 551 529 495 445 353 324 395 531 505 565 650 652 683 665 626 573 555 557 571 565 579 555 553 551 549 533 517 519 519 507 507 547 591 583 565 559 549 559 583 575 563 549 553 535 493 481 463 425 405 391 377 367 371 328 334 316 288 296 300 282 
217 213 225 227 229 219 221 215 213 227 243 245 241 249 243 239 235 251 263 286 288 269 257 265 269 278 300 361 457 561 638 658 673 673 640 602 606 575 565 567 573 559 549 545 531 545 527 533 547 529 513 579 606 595 565 537 505 497 553 547 549 535 507 473 447 411 359 351 353 363 347 345 338 314 296 302 263 284 288 286 
215 215 204 223 204 233 219 225 237 247 227 233 231 233 245 247 235 233 233 247 243 237 243 243 259 267 278 306 427 632 632 608 614 602 626 620 626 593 569 585 604 585 569 595 614 626 614 589 593 581 557 626 658 573 509 531 501 467 489 503 469 415 369 334 312 306 308 326 343 349 345 330 316 290 290 267 259 271 261 269 
215 200 225 215 217 227 221 213 229 219 229 235 243 243 239 237 225 239 235 231 233 237 241 251 249 247 255 288 359 604 608 583 604 575 640 665 679 654 638 644 640 650 630 642 667 675 669 665 662 632 638 644 632 539 515 527 411 387 377 347 302 288 269 284 259 280 302 318 332 369 347 336 310 294 271 259 261 255 259 257 
210 210 215 219 221 221 213 210 225 229 217 227 229 231 241 229 223 227 235 223 233 231 229 243 245 245 253 265 284 385 541 600 650 671 701 681 669 660 642 650 646 646 644 660 652 675 663 685 677 652 636 618 593 543 481 373 324 324 316 294 286 298 280 280 271 273 304 308 347 336 347 332 314 288 261 255 255 247 265 267 
208 213 229 227 225 217 215 219 219 225 241 237 227 229 235 235 219 239 225 225 239 229 229 231 251 237 267 265 280 306 343 537 718 720 677 677 677 663 654 656 634 634 644 650 602 604 610 622 604 553 499 461 455 421 361 349 429 467 479 455 431 419 385 349 340 322 314 304 343 345 336 340 310 282 253 249 251 245 265 273 
219 219 213 221 229 219 217 215 233 237 225 233 247 229 235 237 229 237 235 243 241 227 255 241 263 247 257 278 269 292 336 585 683 663 614 622 642 644 640 624 642 640 634 650 475 477 513 567 585 521 453 395 449 427 369 365 439 477 529 513 531 527 467 459 449 431 395 363 363 361 351 345 322 310 292 275 267 265 310 286 
202 215 213 221 215 221 227 225 231 231 239 233 237 249 247 245 221 243 243 243 255 253 255 261 271 269 278 280 284 294 361 608 671 616 600 600 618 632 630 610 624 642 632 638 493 435 497 549 503 525 399 375 411 431 409 389 447 473 503 521 515 509 447 489 473 473 503 481 431 411 405 401 419 431 453 441 415 395 373 326 
219 219 223 225 229 229 221 231 225 247 227 221 235 237 241 247 243 237 233 251 278 367 377 373 349 357 371 351 318 322 451 662 671 652 589 575 593 600 577 551 573 648 636 626 543 463 521 529 505 523 467 359 385 415 411 395 389 397 421 457 449 455 443 481 503 455 489 507 499 465 435 451 465 465 499 497 525 515 499 425 
213 219 200 219 221 213 229 225 239 241 225 231 237 243 247 253 229 241 245 253 345 507 569 547 587 630 669 648 535 441 563 646 669 642 597 571 563 555 523 483 535 632 644 630 600 555 561 543 517 511 479 361 363 393 439 435 415 415 415 407 407 445 425 453 455 459 483 487 483 461 421 463 463 465 463 481 507 499 505 465 
204 213 221 225 227 229 217 217 223 237 229 239 229 241 245 243 233 257 257 271 425 567 595 634 663 663 612 640 679 563 597 606 604 618 585 567 539 505 437 385 439 600 618 610 604 587 571 545 515 509 461 375 387 381 427 447 445 443 457 447 389 423 465 437 463 441 483 483 477 437 431 445 449 429 441 435 445 455 475 423 
217 206 206 229 229 221 227 231 237 245 241 241 241 247 249 247 245 251 259 300 453 563 600 636 687 667 602 618 656 587 589 585 557 513 539 543 529 467 383 322 326 557 614 599 591 521 557 545 515 543 465 417 369 383 421 431 421 419 457 447 409 407 457 473 473 485 463 479 503 475 435 431 435 421 433 433 435 429 433 397 
215 227 221 221 215 225 227 233 237 247 241 233 239 239 253 259 261 245 261 310 489 569 599 589 663 671 656 712 681 620 591 553 533 525 553 525 479 437 383 349 371 545 589 575 583 493 555 525 487 515 471 405 322 322 393 409 363 383 419 413 407 417 463 505 523 551 535 529 499 439 393 369 357 343 340 343 338 334 353 336 
213 202 219 208 221 231 235 231 231 241 225 227 235 245 251 245 241 241 255 298 471 527 577 557 632 695 738 724 693 644 595 575 604 614 600 585 575 511 435 361 314 537 557 561 517 513 537 479 481 491 481 389 280 308 385 407 363 377 429 433 437 417 463 515 539 551 547 547 547 509 453 409 391 379 361 381 391 383 391 429 
210 206 210 217 227 219 229 210 225 229 231 241 245 235 237 241 239 249 251 249 367 439 473 501 599 669 669 632 626 589 591 652 654 667 648 604 573 521 431 389 363 499 543 531 481 545 529 457 475 479 475 371 326 363 409 413 405 417 451 445 479 489 523 533 529 531 535 537 539 523 481 497 491 485 469 487 491 505 519 503 
210 206 221 221 208 219 219 227 229 235 233 229 233 241 235 237 243 239 249 251 265 316 371 421 509 630 616 557 567 571 569 612 652 648 640 610 583 537 443 421 499 565 567 513 443 505 475 449 495 511 461 328 326 367 407 437 427 441 451 441 489 519 519 519 521 511 515 523 527 499 457 459 491 493 495 499 503 541 537 515 
213 219 210 206 219 208 210 217 243 233 231 239 239 231 233 241 229 239 241 255 253 259 265 294 383 567 591 581 563 569 537 551 587 600 624 599 604 579 551 543 587 579 577 485 389 471 457 443 491 487 377 294 345 353 407 439 415 425 441 437 485 479 483 495 485 497 489 469 483 459 433 471 515 483 493 505 515 513 519 477 
210 210 204 210 219 217 219 215 235 237 227 229 235 229 231 229 229 227 241 237 241 243 247 247 302 377 431 453 421 427 473 551 575 591 589 587 616 612 614 634 612 589 541 415 296 371 369 419 459 421 308 282 267 334 343 361 385 377 399 389 423 431 435 461 469 475 449 443 431 399 397 433 459 455 451 461 455 455 447 381 
206 213 225 221 196 210 235 219 225 213 206 231 225 221 233 235 223 213 241 235 239 229 233 243 263 267 282 286 290 310 308 503 589 597 595 593 610 622 622 622 620 551 419 304 263 365 409 443 447 375 312 298 267 320 314 316 318 316 330 310 340 345 399 429 439 431 433 417 359 318 312 332 351 353 345 369 355 355 343 318 
204 194 210 206 213 225 223 219 219 227 206 223 231 223 241 235 217 229 223 237 237 225 225 243 259 245 251 259 275 269 292 461 616 610 599 597 614 636 632 622 608 547 455 306 338 355 401 419 391 330 280 267 273 349 298 267 275 255 288 269 298 312 353 383 383 383 361 330 294 278 292 278 267 243 251 282 267 282 306 284 
206 204 208 200 215 223 233 223 225 229 231 233 235 225 235 235 221 237 231 225 229 213 235 239 251 247 249 263 278 278 280 343 541 602 604 597 612 632 648 632 543 407 300 286 278 288 312 343 322 318 286 273 288 324 261 217 229 241 271 284 282 286 300 298 288 269 267 249 265 284 288 261 263 231 231 237 239 263 290 237 
196 204 206 215 204 219 221 221 227 241 231 241 241 225 227 233 227 233 241 235 237 227 233 249 249 259 257 275 275 292 300 310 375 483 539 539 597 606 600 555 371 306 267 278 282 290 306 314 330 324 290 275 292 290 273 253 257 249 259 259 251 259 269 275 284 284 280 292 302 294 284 269 259 221 204 219 225 231 245 229 
202 221 215 210 223 221 210 237 237 231 229 233 235 239 249 239 235 229 231 229 223 227 235 243 253 255 269 278 282 286 286 280 302 322 336 332 395 465 451 365 318 310 306 296 306 320 363 363 393 429 363 288 306 271 284 275 273 249 257 265 265 284 288 278 275 290 304 326 310 302 288 290 259 233 204 217 196 188 206 176 
194 204 210 213 194 221 227 208 235 247 257 286 343 312 300 267 231 233 235 235 245 235 241 231 253 253 275 278 284 296 282 300 308 314 310 312 343 343 359 373 359 381 439 491 471 461 457 443 455 459 421 332 308 286 298 318 314 302 330 308 306 306 302 296 294 294 312 314 314 302 322 312 278 217 200 202 186 184 182 159 
202 217 229 204 202 208 227 229 227 271 355 477 539 557 515 429 355 300 235 241 239 235 221 243 259 247 263 286 314 340 338 308 316 326 334 349 373 379 367 395 391 393 415 443 463 479 485 479 453 453 455 391 379 377 375 375 379 359 355 357 334 322 314 320 290 308 334 310 302 306 318 322 304 237 172 168 141 155 155 141 
194 221 210 210 213 221 210 225 239 320 463 559 626 646 644 665 595 523 403 282 245 239 245 243 247 253 284 343 385 381 328 292 312 316 371 379 397 383 367 369 373 373 375 389 427 465 475 461 435 451 457 417 403 391 391 385 375 361 353 361 345 322 316 318 316 314 310 306 320 302 316 334 282 245 184 133 108 116 118 112 
202 200 204 202 215 235 210 217 273 357 469 565 648 658 701 654 610 583 541 445 278 245 249 247 263 308 377 377 379 349 263 253 261 306 369 399 393 379 371 365 371 359 363 381 399 425 443 435 437 427 421 409 395 371 373 387 371 347 338 340 320 326 316 328 306 314 320 324 314 294 322 336 320 249 153 72 39 51 37 62 
194 202 202 204 215 227 219 219 253 373 473 525 628 673 689 660 537 467 497 485 399 306 275 267 316 373 387 397 332 271 208 172 157 296 399 395 399 391 379 359 369 365 349 371 421 431 423 431 413 439 399 405 395 377 367 351 347 330 345 334 314 310 302 308 298 302 320 334 338 355 361 381 385 351 326 231 137 64 0 4 
194 200 208 196 210 206 198 213 239 334 461 565 616 667 679 671 559 491 521 569 563 507 385 361 383 387 419 395 314 227 196 141 184 324 377 387 379 375 369 371 345 355 351 421 457 437 417 431 453 435 391 397 391 377 365 347 322 300 296 304 284 296 296 304 271 192 271 369 371 375 379 389 393 387 389 391 351 255 153 76 
194 223 200 204 206 217 210 221 243 310 459 553 618 697 687 677 646 646 612 624 597 547 447 423 391 383 405 389 332 245 184 164 227 290 355 389 399 387 379 379 397 417 449 475 465 467 449 451 409 373 334 347 351 343 351 343 326 288 259 280 286 296 306 310 290 180 194 345 371 391 373 383 387 377 377 379 403 363 357 286 
186 200 200 196 198 204 208 215 221 261 322 445 545 646 671 689 667 669 644 599 557 467 447 407 363 349 369 387 343 263 204 208 251 300 347 367 381 395 449 509 515 505 463 467 447 453 423 405 334 290 284 312 330 345 385 365 379 343 318 288 267 292 290 312 288 221 245 334 375 359 371 401 391 391 383 389 387 397 397 365 
188 190 198 182 192 210 190 202 202 221 255 298 355 415 585 614 624 618 589 547 499 471 445 403 361 355 383 363 312 249 243 247 292 314 387 431 501 545 551 565 533 503 457 463 443 403 338 312 275 284 314 334 357 401 391 405 377 379 359 332 292 290 269 304 290 271 278 286 312 330 338 369 393 399 371 383 363 379 409 369 
180 184 182 178 184 190 186 184 188 215 225 225 249 261 324 393 365 413 511 479 481 469 445 425 397 379 405 381 310 296 302 304 328 417 517 543 577 575 591 567 531 493 477 463 391 330 324 300 255 332 397 463 479 459 455 439 393 363 347 308 322 286 282 296 280 271 259 247 233 261 247 298 324 338 355 336 322 316 371 334 
172 184 184 174 178 182 176 180 178 202 194 206 223 233 241 253 235 265 340 483 499 457 451 441 429 401 395 405 365 359 409 417 493 531 533 543 587 579 565 553 503 483 453 373 330 302 300 294 304 405 445 469 515 479 447 467 419 389 353 324 312 296 300 280 263 243 263 215 208 200 174 221 208 225 223 247 223 261 278 292 
168 172 174 157 172 174 170 194 182 182 192 198 208 204 237 247 243 247 328 511 495 495 463 443 435 421 393 405 411 509 521 485 513 501 481 499 527 537 515 511 489 447 375 336 322 316 316 318 343 435 459 471 487 455 403 379 381 377 349 294 310 288 282 257 245 243 247 217 190 188 184 192 176 200 190 202 235 241 267 269 


