P2
80 60
616
52 70 44 48 42 46 68 64 62 80 62 58 68 60 66 60 64 68 64 46 74 62 58 74 72 90 272 438 443 414 347 349 308 302 284 282 280 280 280 278 284 280 296 343 399 403 411 426 428 428 416 391 352 316 288 251 229 204 182 194 225 243 245 259 221 190 158 176 202 190 204 184 204 233 237 233 257 271 318 333 
52 36 26 40 46 46 66 58 68 82 84 64 56 54 62 62 56 68 68 72 98 68 54 68 62 96 288 455 465 447 389 364 323 296 280 276 271 282 280 271 282 274 286 298 329 327 349 362 393 422 432 414 422 395 370 354 333 298 263 255 225 219 209 215 211 200 182 192 229 243 235 184 200 245 243 271 272 282 302 323 
36 54 38 54 62 50 44 62 50 72 62 56 60 58 62 62 48 80 88 104 112 118 110 90 92 142 294 366 463 463 428 378 333 306 278 278 271 265 276 278 274 280 290 288 300 302 296 288 300 335 385 403 430 434 428 395 397 380 364 370 316 261 215 217 221 241 241 221 267 271 229 213 176 206 249 288 296 298 306 296 
42 26 50 28 48 48 66 72 62 66 68 60 52 62 54 60 66 82 154 223 278 312 298 251 211 237 385 385 445 507 471 443 397 362 343 316 327 319 323 319 358 366 376 381 350 337 300 272 263 272 294 327 380 428 455 432 414 409 399 381 350 296 257 257 245 280 294 271 269 265 257 229 208 204 241 278 300 300 286 298 
46 46 44 40 58 50 74 78 52 70 72 64 56 64 64 60 78 142 316 401 393 451 499 467 501 494 570 505 457 469 480 459 426 399 360 323 329 321 343 345 364 376 389 389 380 376 339 306 274 269 290 290 310 366 412 395 389 399 409 401 397 349 294 274 241 288 298 278 271 253 229 231 253 241 286 310 335 327 296 274 
46 38 42 44 48 36 68 58 50 52 72 64 56 50 62 74 88 245 438 478 509 530 522 549 597 602 599 593 549 467 376 409 407 376 360 335 327 314 329 333 335 354 360 364 366 335 284 278 251 237 257 257 263 282 349 391 381 397 380 380 372 310 255 265 282 294 304 296 274 245 251 219 269 261 271 290 294 259 225 162 
40 42 42 38 50 58 68 80 64 72 80 74 62 68 72 82 124 316 490 543 557 530 562 555 593 616 610 597 591 555 440 385 354 298 312 302 314 321 339 360 372 374 349 329 331 314 286 271 227 229 233 237 219 221 267 333 350 354 335 323 239 209 227 276 302 286 300 280 274 257 194 204 206 237 194 178 148 126 126 132 
42 40 56 46 66 52 56 70 56 70 74 60 70 84 68 90 110 327 488 505 538 536 566 580 597 574 555 549 560 547 436 414 385 383 380 383 358 321 312 312 352 370 343 319 319 302 274 280 247 239 241 237 233 194 206 243 265 261 271 225 213 219 253 286 274 274 255 237 206 180 154 162 128 116 114 114 98 96 112 122 
46 52 30 50 44 60 60 70 60 58 68 78 76 70 72 78 102 304 478 503 545 545 536 534 551 496 428 364 403 426 350 389 420 424 399 391 387 356 343 335 347 343 325 337 349 339 292 288 267 237 251 245 229 206 188 211 221 243 257 251 247 235 247 253 251 245 200 168 140 140 120 114 108 100 104 100 108 92 84 116 
68 48 42 48 50 64 58 62 54 74 82 78 74 82 82 76 82 235 426 478 513 524 496 473 463 337 152 122 158 182 300 428 471 469 420 381 368 341 333 321 321 302 329 360 389 383 331 327 290 288 272 261 257 243 235 223 215 257 267 239 209 208 188 162 148 152 130 106 116 108 126 110 120 106 112 114 96 96 98 114 
48 40 62 58 50 62 52 68 40 60 68 66 56 72 74 72 80 118 257 370 409 399 366 350 233 120 106 106 102 106 160 420 461 459 428 399 378 350 352 331 318 316 310 349 403 445 399 376 362 352 350 333 282 280 251 213 219 204 176 150 116 116 118 108 118 112 120 108 106 104 114 122 124 122 118 124 106 110 102 126 
60 32 42 42 56 58 64 50 56 62 72 68 58 74 74 60 60 78 94 116 120 112 96 90 68 86 96 100 112 98 116 296 451 440 434 395 378 362 364 339 349 343 341 422 501 511 496 492 482 519 517 480 352 217 206 164 176 164 184 208 134 96 110 122 112 120 114 122 106 126 118 136 146 150 146 144 124 116 112 142 
44 52 56 48 62 60 60 60 70 60 74 64 62 68 54 68 70 92 62 76 92 74 52 76 74 80 96 102 92 100 124 327 438 442 418 391 401 387 370 345 331 319 294 333 451 480 471 474 469 478 505 480 474 438 409 381 358 343 335 333 231 192 182 168 156 148 138 130 126 138 134 140 152 154 156 162 148 144 152 233 
50 40 48 46 42 56 78 66 60 78 74 66 62 58 52 60 68 74 72 76 70 76 68 64 58 74 80 96 96 106 150 418 447 436 416 405 411 395 368 349 347 321 294 306 401 473 484 476 461 434 443 436 438 422 412 403 399 380 352 339 290 284 286 280 271 253 241 208 188 188 174 182 192 182 178 172 188 200 241 269 
52 52 48 58 60 68 78 60 42 64 60 62 58 52 50 58 76 62 60 68 78 68 70 64 66 72 92 104 112 128 237 445 455 463 447 451 445 412 380 374 366 358 337 341 356 395 436 455 453 438 445 455 449 426 418 397 387 372 325 298 302 306 323 321 319 333 284 247 225 223 237 255 251 251 263 255 249 269 271 276 
58 36 44 50 52 52 56 56 54 64 58 58 50 54 66 50 60 74 66 68 90 76 78 78 92 92 92 106 148 229 276 428 461 492 473 465 447 407 380 374 393 381 356 354 362 356 356 389 438 443 461 449 447 438 397 358 349 345 329 325 312 337 316 327 337 341 316 286 272 241 253 282 292 294 280 274 274 288 280 276 
54 38 48 40 60 28 60 62 42 60 58 72 62 56 50 66 56 66 66 64 102 110 164 192 255 192 164 170 237 405 364 418 445 469 482 463 447 412 430 442 447 440 393 376 376 368 339 352 370 449 453 455 449 428 403 366 352 374 374 360 345 327 350 360 358 358 358 331 331 292 272 312 310 284 286 272 269 272 261 284 
40 52 50 54 38 48 46 50 50 56 48 56 58 48 58 64 68 70 78 108 192 302 416 440 486 465 436 445 457 520 490 430 443 453 461 453 436 416 407 391 378 370 354 316 318 312 304 329 374 459 455 453 451 432 412 387 356 380 397 389 372 362 360 364 366 372 362 360 339 300 300 314 298 302 304 298 288 271 267 263 
38 54 70 58 56 40 76 76 68 64 62 66 60 70 78 72 64 78 94 130 306 449 486 492 509 515 507 520 543 543 509 440 426 411 401 385 383 383 376 385 401 385 364 337 339 314 316 368 420 440 442 428 443 434 438 436 378 350 378 385 360 350 366 358 350 356 349 345 314 314 306 321 314 314 306 302 280 284 257 259 
50 60 42 50 54 48 58 56 56 64 66 72 64 62 62 80 70 78 94 182 378 473 478 480 498 503 498 534 524 524 499 443 432 428 430 426 424 395 412 430 453 424 368 364 372 335 352 420 418 418 385 420 434 430 445 445 436 391 366 331 302 278 269 255 247 255 259 280 306 314 314 316 335 321 300 292 255 209 209 239 
58 68 56 58 72 56 68 68 64 62 60 74 74 84 68 68 74 94 80 198 411 480 455 463 443 457 451 509 526 509 453 467 459 469 451 422 411 397 414 420 432 422 389 393 397 374 416 436 399 354 341 339 339 370 434 430 428 381 385 347 337 290 272 278 276 292 294 310 306 314 323 316 308 298 296 257 184 164 160 186 
54 62 60 40 62 52 70 56 58 74 64 68 78 70 64 84 68 74 102 180 393 461 426 457 442 418 426 430 469 453 409 484 469 459 453 422 395 362 362 376 385 395 401 403 428 440 430 443 391 325 327 312 316 319 391 412 412 412 376 389 360 372 374 387 395 383 356 321 290 316 300 292 296 280 231 180 154 140 144 180 
40 60 56 62 56 50 64 56 62 56 74 74 72 62 60 70 86 88 96 142 302 424 420 451 457 445 372 274 306 354 383 471 449 438 409 397 397 376 380 387 393 405 399 424 451 449 438 440 356 327 331 318 347 364 380 383 424 399 383 405 383 381 395 389 405 401 401 325 271 286 278 276 272 202 174 174 144 154 144 168 
52 56 60 56 44 52 58 52 54 60 76 62 58 68 78 76 68 90 82 110 178 253 343 335 286 180 162 156 194 290 453 451 412 385 383 381 364 347 360 364 401 434 476 467 476 486 436 412 339 341 335 345 376 385 383 362 387 393 387 391 385 381 389 399 399 403 411 350 267 280 269 263 211 160 146 162 140 144 138 152 
40 58 62 44 50 60 58 58 72 64 68 78 70 54 72 66 88 70 82 74 112 114 142 110 130 122 136 146 168 284 424 401 358 335 343 380 393 385 426 430 430 434 465 484 486 492 430 383 345 349 358 366 391 391 383 335 349 395 378 380 376 381 370 376 391 387 383 335 280 249 208 182 160 156 158 148 138 142 140 164 
54 54 48 52 56 66 64 64 60 74 76 68 66 70 72 60 76 68 70 86 102 78 84 86 100 112 134 136 166 249 407 395 395 380 372 383 389 445 471 473 496 486 490 505 496 473 409 368 366 358 356 360 362 383 376 325 335 374 372 374 368 366 383 368 381 374 362 314 255 209 172 176 162 146 160 138 134 144 142 140 
44 52 46 48 44 54 66 72 56 66 66 62 72 58 54 70 60 80 72 82 80 76 64 72 80 98 110 114 130 180 347 407 389 395 356 356 381 449 471 463 474 490 505 501 484 416 381 383 372 362 347 335 329 350 372 341 316 337 345 349 347 339 341 321 314 294 271 231 192 172 166 146 142 150 146 144 128 128 134 140 
40 58 58 42 52 40 56 76 46 58 76 56 58 66 64 60 60 74 58 66 76 54 58 76 84 80 96 106 120 132 168 310 362 370 364 325 385 471 480 449 449 459 484 453 424 407 391 414 389 368 325 312 302 286 271 255 249 251 233 219 192 194 190 166 160 168 164 178 180 186 176 166 148 148 146 136 116 138 126 136 
48 50 54 46 58 58 56 76 50 52 64 66 66 58 56 66 64 72 60 56 76 74 58 54 68 86 88 108 96 98 82 124 166 243 327 327 358 442 416 376 370 414 397 403 383 370 376 399 366 370 352 314 241 251 235 221 180 150 138 136 112 128 124 116 128 134 168 172 160 178 184 168 154 140 130 126 118 124 120 136 
52 40 50 42 46 54 54 64 56 70 68 54 58 48 56 52 52 54 64 62 64 64 54 56 72 84 84 94 88 90 88 94 162 263 280 302 319 310 286 265 247 316 362 391 370 345 337 345 345 366 331 272 280 278 280 312 337 310 267 241 231 202 136 104 114 124 162 158 172 178 164 172 156 128 120 124 118 108 108 136 
44 34 52 56 60 44 58 62 62 68 64 68 48 60 56 46 66 64 70 66 72 66 72 76 92 86 84 96 98 90 82 162 294 280 292 302 233 116 128 160 206 251 316 267 263 269 316 327 354 383 296 255 255 280 298 308 364 389 397 358 321 276 188 158 158 150 142 158 174 176 174 160 154 126 126 104 106 114 116 166 
48 48 60 48 62 48 52 76 50 58 58 64 64 62 66 64 68 60 58 70 98 102 92 110 114 96 106 110 114 104 88 223 286 263 276 280 208 172 237 263 265 267 251 202 267 263 269 288 267 251 237 215 209 253 269 288 354 376 376 370 350 304 208 188 198 178 146 154 168 186 178 164 158 128 114 122 116 122 160 259 
34 46 72 54 56 54 56 72 54 58 68 66 56 62 74 64 70 52 90 76 112 164 206 180 180 178 180 144 124 114 144 296 302 284 290 274 261 271 331 300 288 271 278 186 180 231 202 229 267 241 213 209 200 196 211 245 286 302 304 302 306 282 219 196 194 190 162 172 198 211 202 219 221 229 206 180 150 174 251 335 
32 52 62 60 56 68 66 60 54 56 72 64 74 60 72 58 72 78 74 100 184 278 280 253 329 401 403 288 168 144 217 280 312 314 356 383 310 292 267 280 274 276 243 166 132 132 172 209 239 229 196 196 209 204 200 202 225 247 253 247 239 235 231 217 198 180 184 206 223 235 257 276 288 294 282 288 257 241 272 308 
32 42 54 54 58 58 58 60 56 64 76 78 60 68 70 62 72 74 80 118 251 314 335 412 490 490 503 459 349 272 302 272 284 296 349 362 296 280 231 227 229 221 164 138 150 156 180 192 202 231 184 192 208 196 204 221 215 202 204 255 225 247 251 259 251 221 213 237 239 272 267 271 272 286 284 286 259 269 269 272 
32 40 54 48 54 52 58 60 50 76 78 66 72 70 64 70 74 84 88 124 255 325 401 480 484 436 498 461 385 381 312 276 282 294 319 335 286 284 209 202 172 164 154 160 180 184 198 194 182 231 184 166 194 198 200 225 223 188 194 251 237 274 265 267 278 267 267 255 265 249 251 239 239 269 276 288 290 278 280 290 
36 48 60 48 56 58 68 56 66 66 56 80 72 74 72 70 74 78 84 134 257 339 414 478 474 411 447 412 387 368 308 278 302 288 272 269 263 237 204 154 142 166 172 176 166 200 188 206 190 253 176 160 168 172 209 233 206 180 209 276 302 333 335 325 312 276 257 237 259 223 217 251 269 267 280 282 302 292 272 280 
48 54 70 50 58 60 66 60 54 60 58 68 76 72 76 68 68 78 90 112 217 304 333 463 474 473 473 389 383 383 312 298 325 274 282 257 255 245 194 158 186 170 176 184 166 200 188 202 188 247 182 144 158 170 213 231 219 192 235 286 282 325 321 296 274 245 221 190 200 209 245 271 269 282 282 300 294 243 190 208 
42 56 52 50 52 60 62 70 64 72 72 68 68 68 72 76 76 74 82 96 144 174 231 337 463 488 436 385 378 364 302 319 314 276 288 269 229 241 160 174 180 164 176 170 184 211 178 188 186 215 180 174 158 202 217 219 213 194 237 265 253 257 267 274 245 231 188 174 196 233 261 257 272 267 288 306 253 180 160 164 
48 56 44 52 44 54 60 68 44 68 64 64 68 54 66 72 76 74 86 72 102 98 110 156 237 269 253 200 217 267 306 323 310 259 274 245 211 172 104 166 162 158 198 188 188 200 174 194 182 186 188 219 190 200 213 225 231 206 209 253 237 235 247 263 251 255 237 235 247 272 261 261 272 265 280 261 198 168 168 168 
32 50 50 48 50 62 66 58 70 52 64 70 76 64 76 72 66 86 76 92 94 78 92 76 114 118 122 126 148 182 306 304 274 263 274 263 235 188 142 150 162 156 194 204 176 186 172 190 202 196 217 204 162 184 213 229 211 213 208 253 251 249 241 259 271 267 267 310 292 280 253 255 251 265 233 208 164 156 160 148 
44 62 58 48 60 64 58 76 52 70 56 66 60 64 72 66 64 72 74 72 88 68 72 82 88 94 92 116 126 158 272 280 263 261 284 284 255 231 180 184 186 174 206 194 200 190 180 198 209 198 188 152 142 150 184 198 204 184 204 243 257 245 235 249 247 251 272 318 296 276 241 251 263 225 170 164 140 144 142 148 
46 28 52 38 60 54 82 70 58 72 58 64 54 64 68 66 56 66 68 62 82 72 74 68 78 106 100 98 130 120 253 271 274 276 276 292 306 269 239 198 162 208 213 184 184 192 202 194 198 192 176 116 104 146 156 168 178 196 211 237 239 221 231 227 245 249 239 296 308 286 243 235 211 162 132 138 128 122 128 134 
48 58 54 58 48 58 58 68 50 64 76 72 62 62 50 60 56 60 64 64 82 78 64 68 82 78 80 96 110 124 271 288 272 290 288 271 294 280 251 202 176 192 192 168 182 196 172 168 162 164 156 136 138 144 134 146 184 174 196 237 243 227 217 229 223 219 237 271 276 263 243 178 128 128 124 126 122 148 124 148 
54 40 58 42 62 46 62 68 62 78 90 78 64 50 70 52 72 68 70 72 78 56 52 68 78 82 106 116 108 112 237 288 272 267 184 128 231 316 292 192 146 130 130 132 112 106 104 108 124 138 128 142 152 150 140 144 164 180 176 192 209 209 215 202 200 208 221 233 239 217 166 116 110 88 112 118 140 130 132 132 
42 56 44 54 64 60 74 70 66 64 74 62 60 60 62 74 60 64 66 72 86 70 64 74 80 82 104 108 114 92 190 286 245 204 211 269 290 319 358 306 152 90 70 82 64 56 68 76 72 94 106 108 116 116 126 118 120 120 146 160 158 176 194 192 192 186 180 204 178 146 142 112 94 92 98 118 118 120 122 128 
40 54 48 56 62 70 78 78 76 72 74 66 90 66 82 76 78 78 68 76 86 80 78 68 86 108 116 144 126 170 241 316 290 327 372 354 349 383 366 316 184 116 88 82 72 74 68 92 82 86 102 112 114 102 92 86 98 92 102 112 128 132 128 128 134 152 152 146 162 144 120 128 102 96 110 116 114 82 118 122 
38 50 62 56 72 64 60 70 58 78 80 70 54 78 80 76 68 76 82 84 76 80 74 88 110 132 190 278 304 292 280 306 292 329 387 374 333 331 325 312 251 136 80 108 106 108 110 126 126 122 128 142 152 146 118 114 110 100 102 104 114 98 102 86 122 124 116 150 156 152 136 144 138 88 96 102 88 92 100 110 
40 50 72 62 54 58 66 76 70 80 98 82 70 80 84 76 60 84 72 70 86 86 78 102 198 265 263 267 302 316 308 300 298 331 397 378 310 306 296 292 255 168 209 245 206 166 148 140 144 152 162 176 174 158 138 140 132 138 108 120 102 110 122 106 112 110 110 142 160 164 156 148 132 84 84 82 82 94 94 114 
52 50 46 58 50 66 82 94 68 94 126 152 144 182 174 148 106 86 88 82 94 70 84 192 302 296 286 292 282 251 255 286 272 300 339 316 280 292 276 284 282 267 296 288 245 178 142 150 154 184 198 192 186 174 166 172 160 146 128 108 96 128 114 114 110 108 116 146 168 160 184 162 138 92 80 82 70 90 98 102 
60 60 60 58 72 68 72 80 76 136 245 319 339 424 440 383 227 148 112 94 108 80 116 271 302 300 288 286 202 150 130 160 211 241 253 269 271 300 278 269 280 276 292 290 272 229 146 138 148 182 206 208 211 211 211 208 196 170 142 142 132 126 142 120 114 126 126 130 144 154 154 152 158 102 122 128 94 94 110 156 
52 62 72 66 60 74 74 82 102 221 372 412 465 492 484 432 341 331 255 154 104 92 182 282 294 286 267 219 164 114 98 160 206 204 261 259 276 288 278 272 284 269 259 298 271 257 166 162 146 156 192 202 204 219 213 229 211 198 180 166 154 140 144 134 122 126 136 134 122 132 152 176 219 213 229 227 182 146 160 196 
36 54 48 60 58 66 78 92 128 310 426 461 505 515 496 490 467 463 368 233 122 148 271 290 296 276 235 190 120 64 96 198 229 225 267 261 276 290 267 276 274 300 280 286 292 243 172 180 146 146 172 196 217 219 219 219 227 208 186 196 170 172 154 142 142 150 150 134 118 108 108 162 221 235 249 231 196 184 182 190 
48 54 46 58 60 68 70 102 154 345 426 474 524 520 515 519 503 499 455 366 194 235 310 286 265 241 221 186 100 78 132 217 233 227 253 243 269 298 302 304 304 314 302 294 272 225 176 178 166 154 176 190 223 213 215 225 217 217 202 215 182 188 196 184 168 182 188 162 116 128 150 174 208 208 225 225 215 192 192 204 
50 54 44 50 58 60 60 98 188 358 411 463 519 511 526 534 503 496 451 420 374 319 300 267 241 202 182 158 66 46 102 215 231 231 221 213 241 290 296 298 329 312 304 302 237 190 194 194 202 202 202 213 213 206 209 188 200 198 180 200 184 200 204 200 194 198 206 166 152 146 136 174 198 194 217 221 225 221 200 200 
38 56 48 40 54 48 56 74 138 319 391 412 492 519 513 513 509 480 451 424 395 314 282 247 237 190 176 132 60 40 96 178 206 196 215 208 219 257 286 312 335 325 310 280 196 184 184 196 198 223 239 237 204 188 168 158 160 148 138 146 162 172 178 186 188 180 186 176 184 178 180 184 200 217 223 227 229 229 215 223 
50 46 46 40 40 40 58 82 92 274 362 407 445 459 526 520 480 488 461 407 358 272 267 235 204 186 156 102 50 62 138 162 211 221 219 213 223 249 282 318 335 300 263 227 208 182 180 188 198 217 219 227 184 168 156 148 148 124 100 106 104 132 138 144 168 132 134 182 176 174 176 188 202 215 206 221 257 261 245 223 
32 32 36 40 50 42 50 62 54 162 286 352 374 420 447 459 451 451 443 393 319 265 257 229 211 198 144 72 44 44 86 150 206 204 206 184 208 259 249 255 251 225 213 219 213 182 174 174 166 186 162 164 174 164 158 152 142 122 106 112 112 104 122 132 136 132 144 150 152 172 192 172 204 184 196 213 241 247 229 192 
18 30 16 26 32 34 34 46 46 70 104 196 253 310 318 352 354 381 420 387 321 267 251 229 227 215 148 86 0 18 44 58 186 237 225 215 237 247 259 247 257 223 217 213 204 168 166 146 124 122 130 134 156 158 152 158 158 142 134 118 138 134 112 134 130 142 138 140 136 174 194 174 172 166 172 215 235 225 164 154 
24 32 28 24 14 40 30 52 44 54 66 90 132 164 178 182 178 208 310 378 304 276 237 229 225 217 150 90 38 24 14 32 180 227 229 219 251 278 276 280 265 235 225 215 202 158 150 124 128 88 100 100 130 160 158 174 158 154 160 138 150 152 148 152 158 170 174 158 164 172 188 174 166 152 164 223 223 180 150 136 


