P2
80 60
725
155 153 167 157 153 165 175 179 179 175 177 171 185 183 189 175 187 189 177 171 177 175 169 216 352 450 438 406 404 392 368 354 340 346 334 344 334 352 378 390 356 348 324 316 282 286 308 304 304 300 298 294 276 286 282 282 322 358 372 378 358 370 342 330 314 310 296 300 262 264 248 260 282 264 298 280 274 304 348 346 
159 145 132 157 169 167 173 171 173 175 159 153 177 177 175 183 214 201 199 197 189 193 212 358 473 471 426 414 380 370 364 322 314 300 298 370 442 448 475 469 450 448 426 388 346 330 336 342 358 352 344 322 288 290 270 266 308 318 314 330 342 350 356 338 328 306 296 288 284 264 266 282 274 276 300 306 318 322 344 322 
145 155 145 153 165 167 159 169 175 167 177 161 191 187 201 234 318 354 342 328 296 254 340 485 499 446 430 408 364 352 314 300 306 288 302 406 509 540 538 519 499 501 491 501 483 469 458 432 416 384 370 344 306 294 272 298 316 300 288 306 344 386 368 382 350 308 292 296 274 282 310 312 290 272 300 364 364 354 340 314 
163 157 149 159 161 175 155 169 185 175 175 183 177 193 262 394 446 444 448 426 448 461 444 493 471 394 390 386 366 344 346 308 320 310 316 364 521 562 573 570 570 577 579 583 568 579 568 542 487 436 424 376 334 318 298 318 314 296 292 280 308 344 336 334 312 312 300 286 272 294 318 314 302 274 308 330 342 306 272 260 
157 149 147 147 167 159 173 169 171 177 171 171 197 246 418 509 511 503 497 497 546 645 515 477 456 418 424 412 398 384 362 340 336 344 328 346 450 523 534 560 577 587 612 610 618 622 624 601 587 538 501 434 386 372 352 332 340 308 310 308 310 320 308 314 308 310 318 306 304 328 316 288 292 246 220 218 201 159 181 187 
163 155 139 157 157 163 169 167 177 173 185 183 208 286 479 540 532 517 523 568 680 692 666 550 497 458 430 432 410 396 388 360 366 364 370 378 400 440 493 507 501 515 558 575 579 595 618 608 610 597 566 526 460 430 410 438 456 426 380 374 388 370 338 334 322 310 340 340 340 320 278 234 210 183 157 175 163 139 179 183 
161 155 157 155 161 191 175 177 183 181 181 201 204 332 507 534 542 523 626 655 701 725 721 688 606 497 410 430 471 460 467 440 442 420 422 444 461 467 481 477 467 448 458 471 458 475 519 534 573 581 579 556 519 526 483 493 493 469 436 446 461 422 316 286 256 236 240 254 240 210 199 189 169 175 181 173 167 155 191 183 
167 161 161 149 179 183 179 187 179 187 185 179 218 306 515 538 524 542 633 676 688 711 719 670 583 344 248 268 344 390 406 416 424 440 430 454 446 434 452 483 483 463 458 442 438 432 434 426 424 454 485 513 497 509 524 548 528 489 452 469 473 388 244 232 244 240 242 230 214 201 199 193 187 183 179 185 159 161 175 181 
157 151 157 143 189 177 183 191 179 183 191 199 216 272 469 528 544 620 695 678 684 703 682 630 400 204 224 222 212 240 242 230 258 288 324 370 364 368 390 396 416 408 430 414 398 390 400 404 392 370 384 380 384 418 463 491 544 501 485 493 456 322 262 272 302 318 316 274 238 224 220 220 197 197 204 193 173 169 199 183 
139 147 167 161 181 185 183 167 183 195 195 199 201 224 364 481 540 661 657 641 657 672 637 570 376 204 199 210 195 197 208 181 210 218 234 246 246 242 250 264 240 254 246 250 256 266 270 268 286 292 288 290 278 278 312 322 422 471 479 473 438 412 412 422 454 438 404 358 288 242 234 228 216 222 218 206 173 173 204 187 
163 147 169 159 181 163 179 173 193 181 181 195 206 201 244 356 491 597 579 575 628 597 497 382 224 187 199 216 193 208 212 189 210 234 222 228 224 224 238 236 220 208 214 191 189 212 220 232 242 250 260 258 262 266 300 348 426 444 456 454 475 477 481 485 475 473 422 410 346 298 290 266 242 244 242 226 206 189 210 201 
163 151 171 159 179 183 179 191 193 197 197 197 195 185 204 240 378 446 382 314 394 374 234 185 193 189 199 214 210 204 210 206 246 236 238 248 244 252 240 232 218 212 201 191 195 210 242 250 268 250 280 296 324 404 428 436 458 460 452 493 503 487 503 487 505 501 450 410 394 334 314 304 284 272 264 236 232 208 218 197 
163 136 171 163 179 175 179 183 181 195 189 189 189 191 197 187 228 224 201 191 199 201 187 183 185 185 195 195 212 214 238 302 384 412 414 372 306 246 256 244 226 212 206 218 226 246 288 294 294 296 356 400 424 436 454 465 479 467 477 511 519 495 507 499 509 477 448 402 394 376 350 342 338 314 310 294 248 220 226 226 
161 153 171 167 163 183 177 187 181 189 189 179 183 201 183 181 183 185 165 169 177 175 177 169 175 187 189 199 201 260 384 511 571 560 532 507 483 394 410 386 326 308 322 362 346 380 404 424 406 374 410 444 448 450 456 448 461 483 497 499 509 493 489 493 479 460 422 408 358 392 368 364 358 358 336 326 320 262 240 232 
159 157 159 179 173 165 171 177 179 189 189 191 193 187 177 179 173 187 175 171 173 179 173 171 169 187 187 212 232 356 562 587 612 556 566 554 577 554 540 519 483 491 467 461 438 442 434 438 442 400 436 460 452 438 446 440 440 489 491 501 487 487 463 467 452 450 396 406 382 378 378 378 394 370 356 336 334 340 324 304 
181 155 159 167 177 177 177 183 177 181 173 181 187 189 179 169 167 177 165 169 173 165 179 175 181 189 201 246 332 570 612 583 601 577 583 558 593 552 536 524 523 521 513 501 469 473 461 452 430 424 448 463 469 465 448 428 428 485 499 491 461 461 450 442 356 312 312 346 342 356 386 388 404 388 368 366 344 344 336 324 
177 169 161 163 159 191 187 167 177 185 161 187 183 185 167 157 173 175 177 169 177 169 179 181 206 208 242 368 538 608 602 548 585 575 587 604 585 550 521 526 523 538 523 509 493 477 465 450 444 428 428 448 454 444 420 414 430 473 493 471 487 422 326 288 278 272 300 296 296 298 344 380 398 404 394 380 364 340 364 346 
169 161 175 161 179 185 187 175 181 191 187 181 189 189 197 173 183 187 173 187 195 179 185 195 210 258 400 560 593 583 566 556 587 589 614 620 579 526 519 536 548 544 540 495 491 477 458 452 442 436 428 434 414 392 386 398 428 487 521 499 410 322 290 284 300 326 344 360 352 364 372 390 430 444 418 384 370 376 372 354 
157 173 189 151 175 173 177 177 185 189 187 175 191 195 179 189 185 195 191 175 204 244 262 272 324 396 542 570 546 554 573 540 591 601 616 602 552 503 499 542 532 540 515 469 454 460 454 442 426 432 438 420 398 378 388 412 481 515 517 458 432 416 440 440 473 475 489 485 446 426 444 434 422 450 454 434 390 366 394 376 
173 167 161 163 181 181 181 181 189 179 201 195 187 187 195 181 193 187 193 193 258 392 440 465 509 530 544 566 595 643 651 556 554 566 570 562 534 509 495 521 530 524 517 499 461 460 446 450 442 446 438 424 414 422 406 448 479 532 523 542 532 530 532 526 509 509 497 461 438 420 436 410 402 420 440 436 430 404 392 380 
189 181 183 173 183 173 191 181 177 201 183 197 193 191 208 191 199 193 201 254 446 519 513 497 499 523 558 602 657 688 690 554 515 505 511 548 548 526 515 550 548 536 519 509 491 485 460 456 440 420 428 406 424 426 452 501 517 556 544 544 550 544 528 517 487 481 469 456 452 402 396 352 390 378 386 422 410 414 388 326 
163 163 193 185 169 181 179 187 193 187 199 197 191 199 191 191 204 191 242 398 534 521 523 517 523 540 587 626 645 692 690 587 534 558 571 585 571 544 524 564 560 540 517 503 485 485 481 469 448 424 436 432 448 463 519 503 503 524 528 528 519 523 495 467 463 454 446 456 404 374 378 356 338 354 338 350 338 332 318 286 
161 175 181 171 181 179 179 183 189 187 189 189 206 185 179 191 201 204 238 400 493 544 566 568 601 581 599 653 624 686 699 554 595 608 628 610 587 558 546 552 570 560 515 485 479 477 479 465 460 448 454 436 475 465 481 458 465 458 471 483 503 515 475 446 456 442 440 422 370 330 350 338 312 294 284 294 270 258 286 266 
175 175 175 171 183 181 189 177 179 193 193 197 204 210 197 183 208 195 220 346 426 534 637 626 674 653 666 637 566 630 597 575 612 610 635 639 614 568 562 544 546 552 528 491 467 481 489 479 473 479 463 436 448 477 479 458 452 420 440 450 471 483 463 446 428 412 388 362 328 304 290 284 268 268 260 258 252 256 268 246 
165 167 163 183 179 179 183 187 187 181 204 197 197 189 204 179 199 183 204 288 364 450 581 581 637 604 606 487 346 424 446 571 595 595 622 620 593 589 558 548 536 570 538 534 477 501 493 497 493 491 473 436 436 454 479 479 450 414 396 420 420 416 394 380 350 314 302 306 310 280 276 278 258 264 256 258 232 240 250 238 
175 167 187 175 191 193 197 177 199 193 199 197 193 191 187 187 195 193 185 206 266 322 402 450 444 354 324 284 252 270 384 566 608 589 597 589 577 591 585 560 556 570 552 562 513 499 501 501 503 481 465 420 400 438 461 475 444 402 358 344 314 296 282 270 272 282 302 290 278 286 286 274 266 256 264 248 224 234 264 248 
183 173 181 181 189 177 185 189 185 189 204 195 185 197 195 177 195 189 191 195 201 212 218 224 224 224 244 238 236 244 342 579 595 568 534 495 493 575 626 624 581 571 577 577 534 501 499 485 483 442 446 428 380 406 404 378 336 280 242 244 244 258 252 248 260 272 280 294 300 298 298 290 276 272 252 266 228 230 246 226 
175 171 177 169 167 183 177 187 195 201 185 191 189 183 193 189 183 183 179 193 185 191 206 189 195 201 216 226 228 238 306 540 601 558 526 501 509 585 604 616 606 581 577 597 560 479 424 382 330 306 308 304 310 302 276 260 250 236 222 228 222 236 216 230 244 264 266 302 310 312 306 296 270 262 258 246 212 220 224 226 
165 165 185 165 185 185 181 179 189 179 193 187 187 195 191 181 183 189 177 179 185 189 191 181 195 195 206 214 240 258 394 595 628 620 591 570 560 626 641 628 599 595 577 597 597 396 282 252 270 262 274 254 230 234 240 240 234 238 222 238 230 226 222 222 228 258 264 294 304 328 318 302 266 260 238 230 214 206 212 210 
171 165 183 165 169 187 189 169 179 187 187 183 187 189 189 175 177 189 183 177 189 193 181 185 189 193 204 214 238 396 620 651 651 622 606 612 591 614 630 630 602 585 587 608 577 460 344 292 320 328 304 314 292 290 292 300 294 280 260 244 230 252 226 226 226 240 238 238 304 308 312 296 266 244 234 228 212 193 222 199 
167 173 195 181 189 177 179 157 189 183 183 183 185 181 187 179 173 189 185 185 226 268 266 220 208 197 208 214 282 548 659 647 643 602 587 599 587 583 637 632 599 597 593 597 593 556 454 382 366 368 348 370 316 288 288 308 322 308 292 256 240 252 234 214 222 226 220 234 278 302 304 296 274 258 228 222 212 208 226 228 
165 171 185 175 185 185 187 193 187 197 189 191 197 183 189 199 183 191 197 244 380 460 469 382 302 240 222 240 324 610 622 604 581 548 552 566 575 573 616 595 581 597 587 601 599 601 575 456 366 346 316 332 330 256 222 268 298 348 336 262 240 262 248 216 224 224 226 226 260 308 332 334 342 328 298 270 232 216 240 226 
155 163 171 181 171 181 193 195 183 197 195 181 193 206 201 191 193 193 228 354 538 552 505 432 465 471 346 264 394 641 637 568 515 481 497 523 526 550 568 532 489 532 560 604 616 620 602 548 372 318 298 332 348 288 224 234 298 316 352 314 306 322 246 232 230 226 238 236 252 334 382 404 426 444 463 436 402 338 302 292 
165 163 185 173 181 171 189 199 187 199 197 175 183 201 195 189 191 195 280 416 517 540 519 524 587 618 581 438 517 633 632 570 552 491 475 511 530 485 505 458 426 469 446 523 595 614 601 593 483 282 262 298 338 318 264 256 294 324 332 340 326 348 264 238 240 228 238 234 248 330 384 402 430 448 475 481 481 467 450 404 
163 159 157 161 175 157 193 183 189 187 185 191 199 193 206 204 197 220 354 446 532 556 552 583 666 651 641 620 626 616 628 562 542 530 548 536 491 479 458 344 364 370 366 448 546 589 602 599 564 414 254 258 296 342 304 284 300 330 328 324 324 332 252 242 244 228 246 248 252 336 370 392 416 446 469 479 477 469 485 442 
157 159 173 167 183 181 185 185 185 189 179 204 193 208 199 181 206 254 408 481 534 585 620 624 663 692 678 639 606 595 618 575 556 546 532 526 517 424 344 290 324 326 336 448 515 521 546 589 562 519 350 270 272 330 332 292 300 292 290 298 326 314 262 262 262 252 268 268 270 344 378 406 404 424 460 456 446 452 465 442 
171 167 169 195 191 179 189 197 195 187 195 197 204 206 199 189 206 224 346 469 548 591 610 612 616 655 670 633 585 568 602 610 597 562 538 499 448 348 310 304 366 330 362 501 511 465 489 550 558 556 505 338 248 336 342 328 310 316 334 322 306 302 302 314 324 326 326 316 338 342 346 356 346 352 340 350 340 316 354 326 
169 163 189 173 175 175 177 187 195 201 204 199 201 206 199 185 208 204 220 336 465 495 583 583 570 608 610 579 579 536 575 599 635 593 538 511 400 356 320 330 398 342 380 526 523 438 460 509 517 554 579 473 292 346 376 346 326 342 358 328 308 288 302 308 320 336 336 334 322 304 302 300 286 280 270 268 252 232 256 250 
163 155 175 179 185 187 189 191 199 197 191 189 185 208 201 187 191 187 197 218 242 304 479 597 599 610 534 515 546 530 534 575 628 604 579 519 392 324 272 296 382 370 414 526 505 428 463 497 489 526 593 556 368 356 384 376 324 334 320 316 294 288 268 284 322 314 310 298 302 288 282 282 278 264 272 252 254 254 272 306 
167 161 171 179 177 189 189 193 191 193 195 199 199 210 199 191 191 204 189 189 212 224 272 360 456 461 348 294 336 448 556 608 632 601 562 530 420 356 278 290 328 338 434 505 481 432 454 479 481 501 602 601 394 340 396 362 294 312 328 306 278 286 310 358 378 366 336 286 278 296 288 308 290 310 334 350 350 362 404 394 
151 159 179 169 163 183 187 193 193 185 195 189 189 208 187 185 189 199 181 195 201 204 214 208 222 242 242 238 256 312 550 624 663 606 579 554 477 386 306 326 378 344 420 463 458 412 424 469 495 507 612 606 509 444 398 370 308 322 314 344 326 332 358 402 432 428 418 362 344 346 332 356 412 418 440 458 432 440 493 465 
169 165 173 177 177 175 185 179 195 191 197 199 204 193 187 189 195 195 171 195 199 199 197 201 195 195 218 230 236 264 442 604 641 606 601 532 434 342 210 276 352 344 410 469 479 420 424 491 548 587 614 608 579 519 414 372 338 338 312 354 368 412 420 456 463 483 473 450 458 460 444 452 467 458 465 479 465 454 497 477 
177 153 159 167 171 189 197 175 197 189 187 183 185 187 189 183 187 185 187 177 185 181 187 175 195 199 199 214 212 220 344 579 587 585 560 523 422 336 258 284 364 392 424 434 513 465 485 558 606 612 637 606 554 467 410 368 350 364 332 364 406 467 463 477 479 501 491 497 479 471 452 452 454 467 463 481 461 461 479 414 
161 157 177 175 169 177 201 189 185 183 171 181 191 197 187 181 187 181 181 185 189 175 173 175 197 201 212 212 208 222 264 442 575 560 544 513 461 420 420 414 452 479 432 394 530 556 550 562 608 637 630 606 575 424 360 360 344 392 368 406 452 489 473 485 499 485 505 489 485 481 458 444 467 471 463 475 469 442 408 344 
155 155 169 169 167 183 189 199 185 183 175 193 195 199 195 181 195 191 175 177 195 183 181 179 185 191 197 197 210 201 232 284 452 460 483 467 487 487 511 515 540 523 507 515 544 548 571 562 608 614 595 521 420 358 316 300 304 338 340 366 430 461 454 471 489 491 491 483 461 454 436 418 446 454 424 420 362 336 302 288 
167 159 179 171 177 171 193 191 191 187 195 193 197 195 195 179 195 191 173 179 177 175 185 179 201 199 201 204 214 210 222 210 260 304 412 511 515 509 523 558 575 554 548 556 562 568 568 544 487 454 392 322 330 322 270 276 266 296 280 326 348 396 418 442 456 444 463 463 434 416 390 366 346 326 284 264 238 254 290 246 
159 165 173 177 163 175 185 183 193 197 185 193 199 189 183 161 193 181 187 187 199 191 191 189 201 210 210 220 214 224 240 216 238 242 270 332 418 481 497 501 530 550 538 554 546 564 493 350 318 306 286 272 260 256 254 248 258 256 264 286 296 344 374 400 426 404 386 368 348 312 298 266 258 224 218 206 201 206 236 214 
163 183 169 173 179 187 177 193 199 187 187 193 183 206 201 195 224 189 183 191 171 201 208 201 206 212 226 240 222 216 228 204 232 250 266 260 274 296 346 292 298 332 354 364 372 342 294 264 260 252 278 254 254 246 288 296 338 296 324 352 360 368 376 370 364 370 362 344 300 294 290 274 250 218 212 201 173 181 199 177 
147 159 159 177 157 173 191 175 210 193 181 187 195 214 218 236 268 278 294 262 228 199 183 201 218 216 230 238 220 224 240 244 318 304 286 284 284 292 302 316 268 278 268 262 246 244 248 258 256 268 292 316 322 352 368 396 408 374 364 364 376 372 352 342 350 356 358 342 320 310 312 302 266 216 191 187 169 171 161 130 
151 157 179 175 161 169 183 181 181 183 185 206 195 208 268 378 473 503 536 530 434 342 220 212 210 212 230 242 240 256 330 336 322 292 302 346 356 372 380 370 362 370 344 340 312 298 300 322 358 370 388 364 332 358 374 394 414 408 374 370 360 352 336 334 326 356 350 362 340 342 344 318 316 262 183 153 108 122 122 98 
157 169 169 161 169 187 179 175 171 191 197 199 199 226 330 473 497 544 599 612 554 430 344 284 226 220 240 242 264 376 408 340 292 252 310 382 392 388 374 370 346 356 342 334 344 340 320 324 340 362 376 362 328 348 346 358 370 356 346 348 334 344 330 338 322 340 348 372 360 354 358 346 330 346 298 195 102 69 94 80 
159 155 155 157 165 191 183 181 181 187 185 189 208 260 412 485 532 589 620 624 589 511 446 430 282 230 238 300 374 400 384 276 250 262 318 390 384 378 366 352 336 336 326 326 348 354 330 326 308 322 358 350 346 318 340 336 344 322 320 334 328 342 336 336 316 286 324 384 378 368 368 356 356 360 350 316 197 90 37 6 
151 165 169 167 171 171 171 179 183 183 189 187 214 266 436 523 564 612 624 624 608 616 571 509 372 256 294 392 384 374 338 214 216 222 302 384 402 386 370 342 324 324 304 304 312 322 296 294 286 290 322 352 328 316 304 306 324 288 296 318 302 314 312 320 284 212 250 356 398 376 364 350 370 354 344 336 326 238 116 0 
163 159 167 159 161 169 167 163 175 173 189 193 206 264 430 503 552 614 630 635 645 641 614 571 544 473 416 412 392 360 274 185 199 153 292 400 392 370 360 348 318 310 290 306 316 278 266 274 282 278 298 326 296 296 292 284 278 236 212 252 248 284 286 304 284 169 141 268 302 348 352 352 366 346 334 342 344 318 306 159 
155 163 167 155 165 171 189 183 183 183 187 179 208 246 400 487 524 593 639 633 637 632 616 595 552 479 438 428 422 348 252 175 159 122 302 394 408 370 366 344 324 298 276 332 316 260 266 258 254 266 280 282 258 266 318 320 274 226 161 222 234 264 286 314 294 250 220 248 258 272 294 324 342 338 328 336 334 314 322 310 
139 159 165 161 147 173 167 169 175 183 169 177 193 210 280 404 469 536 587 591 608 614 602 564 495 446 430 426 386 360 264 175 114 161 306 386 392 366 366 376 342 304 286 344 284 256 256 260 242 210 244 264 228 302 364 354 346 302 266 256 236 264 280 312 290 252 238 238 254 252 270 252 270 294 312 332 320 306 332 308 
143 155 161 145 155 167 157 159 163 181 163 173 175 173 197 220 290 358 394 452 481 503 530 479 473 440 406 410 376 352 296 193 175 246 332 366 360 354 378 368 332 306 298 326 272 258 262 254 195 171 232 244 246 328 370 380 358 352 312 316 296 312 284 306 298 270 260 218 214 242 228 193 165 157 183 222 248 256 306 322 
141 145 149 134 157 151 155 147 159 165 179 163 179 173 181 187 201 197 210 214 230 262 368 461 454 422 406 404 390 366 314 250 264 316 334 364 368 346 392 370 362 330 328 302 256 266 282 258 199 226 306 326 320 382 426 430 380 364 326 306 314 292 272 288 276 270 248 187 189 204 199 195 161 153 167 167 185 204 256 270 
130 139 134 132 147 143 149 143 143 165 155 167 173 169 175 179 179 171 175 163 191 187 256 422 444 418 380 376 370 360 324 312 332 330 338 354 366 346 392 382 358 338 336 298 256 268 276 244 220 288 386 384 398 426 420 418 396 346 314 288 262 266 238 252 244 240 240 218 208 189 197 232 242 268 290 282 276 298 324 302 
139 139 141 124 155 143 145 157 149 141 149 167 159 171 157 159 169 153 151 153 159 183 232 416 456 430 382 292 308 382 338 310 338 320 326 338 338 344 360 370 352 334 328 296 256 272 272 270 250 318 368 364 348 380 386 374 372 326 282 264 246 238 224 224 230 240 220 232 189 212 220 250 278 330 328 332 348 334 334 334 


