P2
80 60
584
26 42 12 14 22 12 34 32 32 38 32 32 50 46 34 38 26 52 34 58 54 42 54 50 44 48 58 50 58 50 48 50 58 58 60 58 60 62 62 54 48 62 50 58 60 46 58 50 60 56 66 98 106 108 102 120 166 188 116 92 106 146 144 170 287 351 330 324 275 283 338 394 419 400 371 361 322 316 295 302 
22 26 6 28 24 20 28 22 20 38 38 42 42 40 36 52 42 42 38 50 60 42 46 42 32 42 58 50 56 34 48 38 40 44 56 58 46 52 64 56 50 50 54 46 50 34 50 48 60 50 68 72 88 112 94 172 204 198 134 118 192 224 265 296 446 520 523 539 467 367 340 324 382 380 349 359 336 308 295 269 
16 24 14 10 24 14 18 18 22 24 24 34 38 26 38 44 32 50 38 46 34 42 46 46 46 40 44 50 48 36 40 36 54 38 44 46 46 42 44 54 42 52 50 44 48 54 46 50 50 58 40 56 86 144 134 196 233 192 140 162 253 394 394 495 523 571 554 565 546 522 452 324 312 318 316 332 318 304 287 289 
30 40 26 24 14 24 28 32 18 22 32 48 32 28 30 30 38 40 50 40 44 46 38 46 42 44 46 56 42 46 38 48 50 44 40 36 58 50 36 50 32 48 50 56 56 58 68 52 54 54 68 48 118 184 162 194 271 235 198 182 340 456 464 467 516 584 567 569 556 558 552 446 343 281 275 281 287 296 271 273 
30 30 24 20 36 22 38 38 30 30 24 24 32 38 32 30 34 46 42 46 36 48 38 36 52 44 36 42 64 50 44 42 36 58 52 52 44 44 50 50 54 48 52 58 72 70 68 74 66 60 66 70 130 235 178 170 306 271 239 257 369 415 450 495 497 556 565 573 558 563 537 433 394 342 322 310 281 249 237 245 
36 22 10 42 20 18 26 22 28 10 34 34 26 40 32 30 28 26 50 48 50 44 46 32 36 44 56 58 54 46 46 40 36 42 54 42 48 54 44 46 52 58 68 56 56 66 78 78 62 68 64 70 104 210 190 186 269 369 334 394 491 477 460 483 504 531 525 543 543 527 427 404 380 359 351 365 349 310 287 287 
30 32 22 14 26 34 30 34 32 22 30 28 30 28 40 32 24 42 30 40 56 50 36 50 48 50 52 58 52 36 42 54 56 50 52 62 64 66 54 76 64 56 70 74 76 70 60 82 66 62 66 74 88 166 210 192 257 429 473 483 493 489 493 522 529 506 467 440 444 388 316 373 351 359 361 363 343 306 293 265 
18 14 4 26 38 34 30 28 28 34 30 28 34 40 26 46 24 36 44 48 58 46 46 48 44 58 42 52 62 64 54 44 66 52 64 52 70 50 60 64 56 70 62 66 86 76 80 88 76 76 80 86 70 138 170 204 279 438 458 477 479 500 506 506 533 487 332 283 277 283 302 324 324 343 343 345 330 324 304 298 
18 30 10 22 30 26 26 40 24 22 44 36 34 52 26 40 48 48 44 60 52 44 58 48 52 56 56 56 50 58 58 46 60 68 60 72 70 72 62 58 60 68 70 78 72 70 76 74 78 70 90 82 74 102 118 162 332 452 450 452 454 502 518 495 504 481 306 251 230 277 388 402 369 374 357 363 340 316 312 306 
40 38 14 22 26 40 30 32 40 22 44 38 42 46 52 38 38 46 46 36 44 46 68 52 50 60 62 62 56 60 42 50 54 54 72 72 66 62 64 64 56 74 66 68 68 68 70 76 80 76 70 74 78 70 74 102 232 369 388 357 400 481 514 413 452 429 369 338 279 340 425 411 398 382 345 357 342 326 328 312 
16 18 18 20 28 22 16 32 32 22 22 38 28 40 38 44 56 34 52 58 38 42 52 52 58 50 62 48 52 46 62 48 34 56 58 54 56 58 58 56 54 68 66 68 58 68 76 76 78 66 70 68 70 74 58 66 90 106 132 122 162 343 367 263 343 326 343 425 398 409 417 394 390 371 349 353 338 338 310 322 
16 28 28 18 40 30 48 38 22 24 40 30 34 46 42 40 46 42 50 56 46 50 54 60 62 72 66 58 58 50 58 54 60 52 58 60 60 68 56 58 48 52 62 90 60 70 74 66 72 66 78 76 76 70 60 64 60 74 54 50 58 86 96 148 287 302 322 423 427 442 417 367 347 332 334 355 351 351 349 343 
16 30 28 24 28 38 34 30 40 28 28 48 38 56 36 28 40 48 42 42 50 38 44 50 52 58 56 52 54 60 44 58 58 60 58 60 56 54 62 62 60 58 60 68 66 84 64 84 72 70 90 68 68 78 62 66 48 66 54 32 40 34 70 122 291 295 293 402 419 400 367 343 338 334 338 359 334 363 361 359 
22 30 18 26 10 44 30 28 20 36 46 44 56 42 34 20 38 40 42 50 38 48 42 58 44 54 48 64 60 48 40 64 46 58 52 50 60 66 64 52 66 60 52 68 68 72 70 72 78 76 78 80 70 76 68 74 54 50 48 50 46 70 76 114 226 261 295 342 289 302 326 330 345 355 336 347 345 355 326 304 
46 30 12 24 40 32 38 18 26 34 40 32 32 26 18 26 40 44 48 52 54 56 40 52 56 64 48 44 54 58 54 48 54 56 48 48 50 64 46 48 58 70 66 62 62 72 68 68 62 70 76 86 72 66 58 68 50 68 64 94 108 160 190 178 241 255 237 247 249 241 298 324 322 345 336 312 318 312 285 306 
34 30 14 36 28 36 34 38 34 30 28 24 42 38 38 30 30 50 46 48 54 48 50 44 38 64 50 58 54 40 48 48 40 54 52 52 48 56 50 64 60 60 44 72 62 70 80 62 76 66 78 72 50 50 52 60 76 114 132 168 277 357 411 349 365 421 462 454 446 400 306 324 316 320 291 320 322 338 345 351 
14 24 42 34 40 24 38 38 24 18 30 26 42 38 38 36 30 42 28 34 48 34 42 48 52 42 46 60 40 40 36 52 42 28 40 48 44 56 56 48 60 56 52 58 60 68 76 74 58 66 66 76 58 68 56 82 126 188 277 369 456 485 473 487 477 454 471 535 556 543 435 318 296 287 291 328 343 347 332 355 
40 28 8 14 22 28 30 16 22 24 22 20 36 26 30 18 26 32 30 42 44 40 34 40 46 52 50 54 50 42 38 42 38 42 42 36 52 58 48 62 64 58 66 62 52 66 64 76 76 78 78 72 68 56 66 116 164 206 429 512 485 500 500 506 520 512 469 531 544 546 462 330 308 306 332 320 345 359 351 361 
14 34 30 26 18 18 30 30 20 32 30 24 26 38 30 42 38 34 38 42 42 38 50 42 62 44 44 42 52 60 46 58 46 48 56 60 62 58 62 54 50 66 70 68 68 72 72 98 74 88 84 82 70 80 84 138 134 218 477 520 520 520 518 504 512 523 454 491 550 502 378 314 328 326 320 328 349 371 380 376 
24 32 28 22 44 14 22 34 22 24 36 28 34 28 34 48 26 48 36 46 42 38 40 38 60 50 50 48 54 56 48 46 64 56 58 56 60 58 62 68 64 70 80 70 68 72 90 84 90 102 90 98 76 82 86 146 162 259 516 560 541 520 506 514 498 535 466 460 435 314 304 330 330 318 326 353 382 413 409 433 
38 44 24 42 32 10 28 36 24 22 44 32 36 28 44 36 42 50 42 66 58 56 54 52 58 66 50 56 62 66 58 68 60 62 62 64 66 70 70 70 68 64 66 70 66 68 96 84 74 90 90 100 84 90 94 144 182 249 500 552 539 546 537 539 527 537 423 347 293 263 273 308 298 306 334 423 460 485 485 487 
14 42 30 16 40 32 38 42 24 26 26 34 44 44 30 38 40 42 58 56 52 56 48 48 66 64 52 68 52 70 62 56 56 58 60 60 72 70 72 66 74 68 66 78 68 76 72 94 94 80 88 92 82 88 94 104 172 218 369 510 508 529 539 516 522 498 398 363 361 369 324 306 336 357 384 466 493 523 510 491 
32 32 30 30 38 34 32 28 18 34 40 32 32 42 36 38 28 48 52 56 48 54 42 52 62 58 58 54 66 58 56 62 56 70 58 56 68 68 70 70 60 70 70 76 74 70 84 96 92 76 84 98 82 88 92 92 110 170 233 369 436 359 343 332 318 340 398 404 415 371 351 349 357 357 392 487 508 520 489 467 
22 28 28 18 30 20 20 32 20 28 30 28 36 52 32 48 52 50 44 54 50 56 58 58 56 62 58 58 68 68 54 54 70 64 56 70 60 66 72 70 62 68 70 70 76 78 80 90 94 92 82 102 88 84 84 74 88 104 118 148 142 126 114 128 168 232 340 376 380 365 349 371 376 388 396 483 497 477 421 367 
28 36 30 42 32 34 40 34 30 32 36 42 42 52 52 34 48 40 52 44 52 54 62 48 66 74 74 64 66 50 64 60 56 64 80 60 70 70 68 56 70 72 74 78 64 72 90 78 80 90 82 102 92 94 90 90 84 90 88 90 98 86 104 130 160 206 281 355 380 390 396 402 386 382 394 452 469 475 417 378 
30 38 36 38 40 40 42 22 32 30 44 36 46 42 58 38 54 40 36 58 46 52 54 62 68 62 68 68 70 60 64 58 62 68 58 68 62 62 58 60 74 76 84 74 78 72 86 94 96 98 78 88 74 94 92 84 84 98 88 90 100 88 100 116 152 194 210 267 336 373 380 380 349 342 376 435 462 466 419 431 
34 32 36 32 34 46 30 44 24 28 44 38 52 48 38 42 58 52 64 58 50 54 52 64 74 62 68 66 68 48 68 70 62 60 74 74 78 70 68 66 74 64 70 74 82 82 84 98 90 94 80 88 92 90 80 96 108 132 168 180 150 98 100 132 164 190 196 235 291 340 359 326 310 308 353 433 460 448 433 405 
40 40 42 44 36 22 22 44 26 26 40 26 38 48 40 40 40 64 44 60 42 50 44 56 68 60 58 54 66 54 52 62 58 60 58 60 60 70 72 76 58 68 80 68 72 74 80 96 84 82 76 92 96 82 74 94 172 259 255 253 190 166 134 130 152 190 233 285 285 249 283 289 293 306 340 402 429 421 394 367 
52 40 42 44 36 34 22 28 20 22 44 42 30 56 46 60 48 58 58 52 42 66 48 52 76 68 54 70 62 48 60 50 60 62 56 66 66 68 62 60 76 58 68 80 72 72 74 102 100 90 82 90 84 74 80 148 261 285 316 334 306 249 218 148 162 237 306 330 314 249 293 320 318 324 345 378 376 382 361 342 
34 50 32 34 46 20 16 24 38 30 42 40 40 24 36 28 42 42 46 64 52 54 62 36 66 68 64 58 52 56 54 56 52 54 68 60 62 62 60 66 66 56 74 58 78 68 82 80 80 78 76 94 74 72 88 202 279 338 326 310 304 324 369 263 182 291 308 324 328 285 273 353 349 316 328 371 384 378 361 382 
44 38 34 40 24 32 26 20 18 24 26 36 40 38 36 28 32 48 42 50 60 54 40 46 52 64 54 52 56 54 46 50 48 48 56 44 60 56 54 62 58 60 74 66 74 68 84 90 78 74 68 72 74 70 124 235 247 343 367 382 423 440 456 446 330 332 291 300 291 298 318 334 332 342 361 378 394 373 369 357 
20 40 26 20 28 22 32 28 14 14 22 30 32 20 20 24 30 32 40 52 44 46 44 44 52 44 54 50 44 40 40 38 40 46 42 42 52 48 52 56 50 64 50 70 52 76 78 90 80 72 62 66 66 68 84 140 202 320 310 367 466 458 466 469 454 353 275 255 267 314 338 322 351 365 367 380 386 371 353 349 
26 36 38 22 28 8 26 24 14 22 20 14 34 32 26 14 50 30 46 32 32 38 34 48 42 56 50 38 42 50 38 44 36 54 38 46 54 54 52 46 52 66 58 64 62 70 74 82 76 66 76 70 68 70 80 114 172 259 287 384 454 433 448 450 446 386 287 259 247 328 326 332 351 386 405 384 345 369 343 351 
26 36 40 34 22 30 36 34 38 24 28 30 34 40 28 30 26 26 48 46 26 50 50 38 54 54 60 44 44 50 44 40 48 60 48 48 52 60 62 48 64 74 64 62 72 76 84 88 82 84 94 82 88 80 78 76 136 228 338 431 462 446 417 438 423 347 263 224 230 330 342 338 338 343 384 369 345 353 330 373 
26 36 12 30 30 30 18 24 22 22 28 22 22 32 38 32 40 40 46 38 34 38 50 36 50 48 44 46 54 40 56 48 42 50 64 52 60 68 50 60 62 62 60 74 74 68 74 90 78 70 86 70 84 70 86 84 108 228 343 417 448 425 467 405 398 332 253 198 208 343 371 351 355 353 349 342 345 367 373 407 
4 28 34 40 34 12 36 22 24 24 36 32 40 58 48 36 48 50 62 48 46 46 32 54 50 54 50 50 52 52 62 56 54 62 72 54 48 66 66 58 70 74 70 76 68 82 82 90 82 74 92 74 90 86 92 80 118 267 334 363 343 384 458 400 376 326 259 208 232 316 376 376 392 388 382 373 382 390 400 390 
32 42 38 42 30 30 40 28 32 16 32 24 46 40 34 36 34 34 46 50 54 44 44 48 52 58 56 52 60 56 60 56 52 58 60 64 72 60 56 62 64 82 80 74 78 78 86 92 78 84 80 80 94 74 76 114 206 384 404 342 154 156 304 374 347 312 267 243 287 310 361 376 407 394 369 419 427 438 425 400 
28 50 24 42 30 30 36 28 36 22 26 32 50 50 50 32 42 48 52 58 60 50 42 50 60 54 56 58 62 62 46 52 56 60 62 60 58 64 60 58 66 70 66 78 72 76 86 90 86 88 96 98 94 90 90 156 369 442 431 295 106 142 259 318 316 308 289 287 318 306 308 367 380 376 384 407 469 533 506 436 
18 34 26 26 20 36 38 30 34 28 14 34 38 56 50 50 40 42 48 60 48 52 44 44 62 76 52 64 62 58 58 54 68 68 60 72 72 72 68 64 74 78 72 74 78 84 78 102 92 88 100 98 96 90 88 214 431 454 444 247 98 112 230 289 312 314 295 336 340 281 298 283 306 336 357 384 452 467 489 450 
16 28 20 34 28 36 22 20 38 34 36 40 38 46 48 48 48 34 58 50 60 44 54 50 64 58 56 66 62 44 62 54 70 58 68 64 68 54 66 68 76 72 76 86 72 82 82 88 90 92 94 92 80 86 102 208 433 458 415 202 92 218 265 279 296 324 312 342 334 336 324 287 287 322 349 396 417 415 390 415 
14 46 26 32 30 32 28 24 38 20 34 44 40 54 38 52 52 42 46 60 56 50 50 46 50 62 76 62 66 64 56 48 60 62 64 60 66 64 80 68 68 70 74 88 76 82 72 102 98 90 82 92 88 72 102 180 417 467 271 146 136 318 328 298 338 376 384 402 390 376 367 285 296 324 342 415 409 396 386 405 
32 40 24 22 38 20 34 44 42 36 32 34 36 36 52 60 48 34 60 56 46 46 60 56 58 56 54 66 70 54 50 56 58 64 62 64 70 54 68 78 64 64 68 90 78 104 86 104 100 100 84 88 100 90 90 130 390 442 226 126 245 347 386 380 427 435 394 392 396 435 411 349 361 332 322 382 396 398 404 411 
26 48 40 40 22 44 36 20 28 34 36 48 34 48 38 44 52 56 50 52 52 44 48 46 64 62 60 60 58 44 42 54 58 70 60 64 68 66 72 56 86 76 72 90 96 80 94 104 86 102 98 110 122 150 152 148 320 427 208 160 365 392 415 378 361 388 380 376 365 411 425 423 419 423 390 388 398 409 413 415 
12 40 46 36 22 42 32 44 26 26 32 52 52 50 38 30 42 60 56 54 54 58 48 40 58 70 68 56 46 50 54 58 50 74 70 78 70 68 78 66 80 98 78 88 90 92 96 120 106 114 122 138 208 267 306 365 390 392 247 287 413 436 458 400 345 386 402 400 355 359 423 427 436 460 436 440 405 417 421 400 
30 48 18 34 38 30 38 42 24 26 28 50 40 32 38 34 46 44 62 54 54 50 66 54 56 58 56 46 56 50 46 64 52 70 54 62 66 64 58 74 72 84 76 112 100 92 94 120 102 104 144 210 255 369 479 471 475 467 435 417 450 458 436 367 347 402 396 378 359 361 374 423 440 448 440 435 423 413 402 407 
50 50 32 42 44 30 32 26 42 18 34 18 40 32 26 38 34 50 42 52 42 52 48 52 58 44 40 54 50 38 46 56 48 50 48 58 68 58 70 72 68 74 78 92 126 116 136 122 124 106 168 255 306 448 458 444 504 518 497 500 500 442 367 322 342 382 367 367 374 357 342 338 409 435 450 398 367 388 404 402 
36 44 36 56 40 36 40 36 40 34 28 46 34 24 40 30 32 38 48 48 46 54 44 46 56 62 70 54 54 44 38 56 48 44 50 48 62 56 76 70 58 76 78 90 148 184 214 118 114 112 202 271 338 405 483 483 518 498 471 489 522 452 388 359 342 349 304 316 328 308 306 308 334 423 413 386 357 361 380 402 
28 36 28 14 34 30 32 38 20 16 38 42 36 42 36 46 44 34 54 58 42 46 44 50 52 62 58 50 44 38 40 56 34 48 36 48 52 58 56 58 56 68 70 86 124 222 208 130 112 112 176 287 345 388 477 506 504 487 462 436 467 481 464 446 419 373 289 298 271 291 279 300 334 382 409 376 351 342 334 336 
36 36 18 34 28 24 30 24 22 34 42 30 46 44 40 44 38 44 38 54 44 60 50 44 56 62 58 54 50 44 52 44 44 52 60 50 66 62 80 74 72 82 82 100 126 214 222 170 120 120 166 300 349 384 446 491 504 498 411 396 413 394 460 471 446 378 306 287 257 267 281 308 316 357 365 363 355 340 298 330 
34 36 28 42 30 32 32 42 26 36 26 44 50 50 32 46 54 42 46 42 60 56 50 50 54 68 56 52 72 60 62 66 44 58 66 62 68 74 58 62 82 84 100 114 134 220 293 243 190 138 154 267 396 407 438 475 522 498 419 421 400 380 423 454 435 351 291 271 251 245 255 267 312 324 316 334 326 332 308 342 
20 42 26 34 30 30 36 36 30 34 38 40 44 38 54 46 44 52 54 44 60 54 48 62 56 58 58 70 68 62 64 56 66 68 78 60 62 68 78 84 70 88 86 112 130 243 312 328 285 245 200 182 267 374 423 493 500 495 460 444 413 390 417 388 332 293 245 261 263 249 243 237 253 261 261 293 304 340 342 353 
30 26 34 26 50 42 44 28 38 42 36 40 42 42 54 52 46 48 52 60 64 58 60 68 54 60 52 60 70 50 62 64 64 52 70 64 62 66 76 68 84 88 98 110 124 255 332 349 324 302 261 184 224 222 239 336 427 473 466 458 435 419 411 334 285 271 245 259 251 230 230 228 237 232 232 302 316 296 314 300 
14 36 20 48 40 46 34 50 24 48 52 44 60 42 50 58 46 42 62 58 62 68 72 54 66 64 56 66 70 60 68 62 64 72 68 76 68 82 72 72 70 90 96 96 132 283 355 367 345 326 302 308 302 241 164 124 182 224 312 365 351 342 345 318 291 277 259 251 230 226 232 218 222 228 263 277 259 253 269 285 
18 34 30 42 40 40 36 30 24 38 46 36 40 46 48 50 54 58 54 68 70 60 72 56 62 66 66 72 72 64 64 52 54 52 72 70 64 74 68 68 84 90 88 88 108 154 320 357 334 357 340 247 186 142 106 108 110 142 261 300 285 263 279 271 271 257 210 220 214 220 224 218 198 212 257 241 214 249 239 275 
32 36 32 40 42 34 26 36 32 34 26 36 46 36 46 52 58 60 52 66 58 70 58 60 60 48 46 52 62 68 62 58 58 68 72 62 62 82 82 62 74 78 74 86 76 96 222 340 363 342 265 152 120 96 110 90 86 196 302 310 296 273 298 279 261 245 226 220 218 200 218 182 178 192 198 237 241 210 228 224 
30 40 26 24 30 22 18 46 20 30 44 38 16 40 36 48 48 52 56 62 60 54 66 56 62 58 64 50 60 52 62 62 58 64 64 64 72 72 74 76 82 78 78 96 102 100 180 330 351 298 214 150 108 86 86 88 160 283 324 308 300 289 275 267 259 257 226 224 232 224 212 170 178 182 188 233 222 198 218 210 
28 42 38 16 28 36 26 24 14 28 20 24 40 52 32 42 34 42 48 56 60 54 64 46 62 58 48 58 70 42 52 54 60 54 66 62 64 70 68 62 70 84 80 94 80 98 152 285 345 302 249 172 110 104 148 245 273 293 308 316 269 265 263 226 232 212 172 202 218 222 210 172 162 156 168 170 182 178 182 198 
8 26 16 12 8 44 20 28 16 26 30 30 30 44 44 56 56 30 46 42 50 52 70 44 74 54 56 60 60 60 50 58 52 62 68 54 54 74 64 54 70 74 76 96 82 76 152 275 328 336 326 310 245 261 312 365 349 310 259 247 269 245 245 196 178 182 198 206 196 190 204 152 156 152 128 160 170 190 200 184 
10 40 10 24 22 28 24 22 22 16 24 26 36 38 36 42 36 42 44 54 56 52 60 74 70 66 64 66 62 60 54 56 44 64 62 54 66 58 70 64 62 70 72 82 70 92 126 226 342 351 374 376 359 363 384 384 388 373 295 239 237 235 210 184 144 152 178 188 186 194 178 142 134 138 162 180 164 214 180 180 
14 34 0 20 0 20 8 26 18 4 26 22 26 32 18 44 34 34 50 42 36 58 48 58 74 50 54 64 44 40 56 42 42 52 58 54 60 54 60 68 64 78 84 78 72 86 106 160 310 359 365 371 353 359 382 376 392 394 357 247 188 176 192 178 164 138 148 188 178 178 146 118 142 172 140 146 170 190 158 178 


