P2
80 60
759
151 157 169 167 157 165 180 178 171 167 157 163 171 173 194 186 188 192 176 186 182 190 178 190 226 498 585 569 573 558 506 512 496 496 488 478 470 468 458 464 454 470 494 500 504 528 563 585 611 611 597 563 466 430 392 406 396 366 346 312 291 303 312 303 283 283 263 273 281 336 346 328 297 289 303 344 364 372 388 386 
163 149 131 165 165 163 182 178 169 182 145 157 161 165 184 184 186 169 176 178 182 192 180 202 236 492 597 577 593 583 540 508 502 474 470 450 442 436 430 428 428 430 452 456 464 472 482 494 544 597 609 607 571 522 498 482 444 406 378 354 342 336 350 312 285 283 277 279 308 362 344 324 283 259 301 332 358 336 356 384 
147 159 149 176 171 171 153 171 169 163 157 153 178 176 192 165 188 206 192 204 228 243 212 208 312 446 522 593 593 587 534 514 500 468 456 470 446 438 454 434 426 424 426 408 410 414 414 422 440 488 554 623 607 571 524 522 484 432 412 406 390 376 366 368 336 320 332 332 340 358 358 310 297 289 314 374 390 384 372 372 
171 165 145 180 165 192 151 165 190 163 163 178 173 196 186 192 228 330 378 368 458 484 360 277 414 462 488 581 640 628 583 552 532 506 490 472 470 444 438 430 432 438 454 432 434 440 432 418 414 412 450 567 615 593 563 526 474 440 440 410 436 412 400 386 360 372 400 388 362 362 350 348 348 318 348 378 398 408 376 348 
157 161 143 169 165 163 165 165 173 182 163 163 171 194 208 206 342 476 562 640 632 640 626 595 658 660 585 562 609 648 601 583 562 516 480 482 458 462 456 480 486 472 480 456 450 446 436 406 408 404 420 504 577 575 544 516 476 448 416 424 438 406 396 380 364 416 422 414 384 378 360 316 360 328 322 322 324 269 238 265 
167 153 163 165 159 159 159 161 190 169 171 178 180 196 206 287 460 583 625 654 675 685 691 712 730 730 704 656 591 563 552 567 546 510 492 478 482 470 482 488 464 470 462 460 430 416 418 400 392 408 392 440 538 532 526 526 506 438 380 388 378 346 342 360 388 396 398 390 386 362 338 291 285 241 208 206 190 161 196 214 
178 173 151 161 169 188 186 186 178 178 169 184 180 210 222 340 462 634 626 668 697 689 701 695 722 759 722 710 720 599 552 518 492 464 464 454 476 494 480 494 502 480 422 436 428 418 434 418 410 426 402 380 434 542 530 526 496 424 360 350 334 334 324 360 370 358 356 358 330 293 259 230 204 180 190 173 173 157 180 210 
171 163 157 182 173 192 176 198 182 178 192 171 196 202 216 348 492 668 668 666 691 662 666 658 644 685 712 704 708 595 536 514 510 524 526 512 492 474 470 498 510 490 440 452 464 438 454 430 436 524 494 430 428 530 432 404 428 382 354 346 346 354 336 340 348 320 295 273 241 228 214 208 186 176 178 180 169 184 194 206 
167 173 163 167 188 186 194 198 184 198 194 190 190 206 212 301 448 573 670 675 664 648 634 619 542 567 571 611 591 526 536 569 563 556 546 534 512 508 504 504 494 486 490 492 492 478 490 472 464 544 591 538 508 526 408 358 380 374 364 356 342 336 306 281 273 249 228 226 212 218 226 234 200 190 200 192 186 184 200 200 
163 169 171 182 192 184 206 180 190 190 188 196 194 208 214 265 388 492 579 638 654 636 603 498 308 267 281 318 412 528 630 638 613 571 536 510 508 494 498 490 476 478 478 494 508 524 532 524 550 583 579 599 552 512 422 374 366 338 275 263 234 245 226 234 218 216 220 210 208 212 230 234 218 212 208 190 178 190 194 208 
173 159 184 182 180 190 184 186 206 192 171 192 202 198 212 206 232 328 430 490 482 484 394 257 220 232 236 228 271 440 617 607 589 581 530 508 498 490 488 484 482 494 520 581 626 625 646 642 628 619 619 573 544 458 308 291 293 265 232 226 224 226 218 214 214 212 212 220 216 236 249 259 232 236 214 218 202 206 208 206 
159 167 188 167 184 200 194 184 180 192 194 204 190 186 210 208 208 222 218 236 232 241 224 206 204 214 228 224 255 320 548 599 611 560 516 498 506 506 516 526 550 552 575 675 662 648 646 662 652 619 601 542 418 362 299 285 275 275 259 247 224 226 226 226 228 232 218 232 247 245 257 265 241 249 226 214 224 214 210 222 
180 167 180 176 192 184 192 188 184 194 188 190 192 202 214 208 210 202 180 194 210 220 212 204 202 218 232 208 236 275 388 609 581 534 522 502 506 500 498 484 482 472 536 628 636 630 644 626 550 480 462 494 496 540 508 478 444 458 442 384 340 326 303 293 265 245 243 253 249 267 267 261 267 261 251 255 224 232 228 238 
161 169 176 188 188 182 194 208 198 188 186 173 180 208 190 196 202 196 186 188 216 204 214 210 206 216 222 216 247 285 398 585 583 567 554 540 522 488 458 446 426 418 446 562 583 575 536 484 446 478 512 526 575 599 575 534 512 516 526 466 454 452 446 438 404 380 346 344 293 314 310 312 306 310 277 271 275 230 241 255 
173 176 163 192 180 167 196 190 176 198 184 190 202 190 194 204 194 208 188 220 261 310 326 275 238 226 232 236 277 364 432 573 623 613 615 636 611 560 530 500 492 478 500 546 560 565 528 512 474 478 516 552 565 573 579 558 540 544 514 468 474 476 498 466 456 456 424 394 376 358 354 354 350 354 360 352 346 350 354 346 
176 178 171 192 184 192 182 192 182 178 178 182 188 194 198 196 190 188 208 279 402 514 526 482 424 396 324 289 434 571 484 542 617 625 634 625 595 554 526 524 516 532 528 552 556 540 534 482 476 508 490 528 550 565 542 558 522 526 516 468 498 486 512 494 480 474 458 418 370 348 358 374 360 362 358 366 370 374 398 386 
188 184 173 186 169 184 190 188 182 186 159 186 188 206 192 178 200 204 226 376 496 552 613 619 638 615 621 554 628 722 652 546 617 632 625 605 581 544 514 544 546 562 552 563 579 556 536 496 474 506 494 496 520 516 514 510 484 512 518 500 504 520 502 496 502 484 490 440 408 374 382 390 382 392 390 358 376 364 420 412 
184 188 188 198 190 204 200 186 182 200 182 186 198 204 218 210 214 216 271 420 554 599 675 677 666 670 685 704 726 743 720 599 583 585 569 577 573 532 524 542 542 550 548 563 591 577 538 506 482 478 496 488 472 506 482 496 468 512 516 520 508 514 522 514 488 482 486 458 400 388 404 400 400 402 388 374 390 382 398 398 
165 186 182 176 180 186 194 206 194 206 192 180 202 208 204 208 204 218 291 438 565 656 693 681 691 677 699 683 697 730 706 599 552 516 538 526 524 506 508 524 522 528 538 546 542 563 567 498 470 476 488 460 460 444 444 450 452 488 508 496 480 498 486 454 454 456 462 440 400 376 388 368 358 374 368 374 386 372 396 400 
176 188 186 198 198 188 194 206 192 192 200 198 192 206 224 220 214 232 289 430 583 670 660 675 673 681 704 693 699 718 681 603 587 589 607 587 546 534 510 516 522 536 548 560 560 567 579 510 494 488 470 458 450 432 420 422 450 482 470 468 452 408 340 316 332 336 348 320 310 306 303 287 283 299 308 320 362 368 390 408 
180 196 190 202 194 194 204 196 188 208 204 208 192 202 238 220 222 224 271 412 583 656 656 658 642 642 673 656 672 691 573 601 650 650 623 577 548 536 520 534 530 546 536 532 562 571 563 528 502 500 484 448 462 482 472 468 470 524 504 400 308 303 285 287 271 289 289 287 291 291 303 291 303 330 356 360 368 392 412 406 
171 182 206 202 196 186 194 208 208 198 186 200 198 212 210 214 210 216 236 348 518 658 628 595 585 589 599 550 577 542 518 638 652 656 652 603 567 538 510 530 496 510 510 512 522 532 530 512 496 492 494 496 526 540 518 506 482 510 514 514 414 342 295 279 287 279 281 295 289 308 328 386 390 418 406 418 422 420 414 382 
186 194 200 192 202 200 202 202 206 190 194 206 212 198 204 220 214 234 216 243 368 466 446 418 428 424 366 332 398 496 548 625 644 626 625 617 569 552 532 528 510 514 490 494 514 506 526 508 500 514 540 558 579 567 567 552 514 540 552 518 526 504 436 366 372 348 334 336 356 370 442 452 474 466 460 472 434 406 382 330 
186 198 192 190 198 200 214 192 188 204 196 198 206 210 218 212 220 204 200 224 245 247 251 232 257 253 277 269 340 573 623 617 597 587 601 630 589 569 560 538 510 514 506 510 526 530 536 528 528 560 569 591 587 609 595 552 536 544 558 534 556 552 544 516 504 502 490 468 432 434 460 474 464 476 476 438 398 344 308 287 
173 196 180 204 198 190 200 194 196 184 210 202 208 210 234 198 204 210 202 206 222 216 222 212 232 251 267 271 348 601 605 558 534 550 599 619 589 595 565 562 540 536 530 542 536 548 575 554 562 581 599 619 611 603 569 524 490 536 540 530 548 546 544 548 536 536 514 470 450 432 454 456 434 440 424 368 291 263 265 283 
176 182 200 200 202 210 204 194 208 200 202 204 200 200 196 204 206 210 192 206 212 230 228 224 247 241 267 259 303 502 577 558 558 577 607 625 609 623 605 565 565 575 575 573 575 587 601 575 583 599 583 554 575 552 534 490 472 504 530 542 534 538 550 522 512 522 526 478 436 426 420 388 386 348 322 273 253 251 263 261 
182 190 192 202 196 182 194 184 188 186 204 204 200 220 204 202 204 200 200 196 206 220 216 212 216 216 243 228 263 346 514 575 575 583 601 601 599 621 593 587 579 581 544 532 542 556 569 540 546 532 482 460 462 504 504 472 446 462 500 524 534 524 520 496 502 500 480 474 448 416 378 364 340 297 261 259 232 234 261 249 
178 192 184 198 186 194 188 198 208 206 204 200 188 208 214 204 202 198 196 198 208 218 218 206 208 228 241 245 255 279 314 446 546 571 599 583 575 591 605 599 591 609 456 364 398 416 424 406 412 408 398 402 424 434 452 442 434 442 470 486 508 508 490 490 486 486 468 464 432 400 356 320 287 269 259 238 222 238 238 257 
178 171 200 198 194 190 194 190 200 176 196 196 194 208 202 196 194 204 194 196 200 216 208 206 216 212 232 228 245 255 253 279 338 438 567 595 591 609 597 617 609 630 554 308 253 273 285 281 297 291 301 291 297 297 291 310 324 350 366 390 398 420 426 428 430 434 410 390 354 352 320 314 265 259 238 224 224 212 230 247 
176 182 196 204 200 194 194 186 208 186 176 188 188 208 212 194 196 202 188 184 198 208 204 216 216 216 224 208 230 253 251 263 310 382 548 583 579 562 508 597 625 591 504 324 257 263 275 283 299 293 316 356 364 312 316 342 412 436 416 396 408 410 384 384 388 386 388 354 360 334 334 310 281 249 236 224 226 212 220 236 
167 176 192 206 196 192 192 200 196 192 190 192 186 194 218 198 188 194 186 188 202 208 198 208 212 208 222 220 241 275 265 382 522 593 636 636 626 601 605 607 504 340 297 277 279 322 348 384 390 386 390 424 394 346 328 374 452 474 478 480 506 462 430 424 432 440 442 440 400 320 312 320 271 241 218 218 212 204 232 247 
180 184 180 184 200 200 190 200 200 202 186 198 208 196 208 212 196 204 196 206 202 206 210 204 230 222 228 232 249 283 444 625 623 644 636 623 626 613 619 607 585 466 376 390 452 496 500 466 404 358 396 398 420 378 340 360 404 438 462 476 486 448 438 468 456 434 440 456 432 372 346 332 310 275 247 232 214 216 241 257 
163 176 180 196 182 196 202 206 192 196 194 182 194 214 218 212 194 204 198 196 212 218 212 206 214 222 228 224 249 324 532 615 589 589 607 599 597 615 605 605 605 544 412 422 478 500 506 498 426 358 374 362 378 378 368 350 364 368 384 390 400 414 412 436 438 432 458 474 438 410 388 392 396 384 380 314 257 249 247 249 
176 186 190 208 196 202 202 210 194 198 196 178 188 208 206 194 204 204 194 204 206 228 210 204 216 218 238 224 255 336 587 577 540 575 587 607 597 595 611 617 583 556 458 438 470 468 474 458 464 476 404 358 356 384 388 396 372 388 390 396 384 430 424 434 436 430 454 466 452 434 418 422 408 400 412 422 414 380 312 263 
182 200 173 192 198 186 198 212 198 200 186 196 198 210 216 214 214 210 210 206 216 236 241 228 247 238 261 247 275 364 554 575 546 534 567 575 573 585 613 607 591 563 528 500 468 456 478 550 589 621 550 422 378 372 396 396 370 408 398 374 380 432 422 424 458 460 486 494 474 450 420 430 410 404 418 434 438 418 404 374 
173 178 188 188 202 206 206 204 190 196 198 208 192 210 218 200 210 218 210 214 271 350 382 366 380 394 360 277 279 358 595 579 538 524 520 478 504 546 623 619 601 579 510 486 464 458 524 595 617 601 591 406 360 350 382 364 350 380 380 380 380 434 440 450 476 508 526 516 482 460 438 422 404 430 436 426 412 408 428 406 
173 180 176 210 202 192 208 206 204 222 192 202 206 222 220 208 216 208 208 257 436 522 518 530 615 652 630 518 424 450 581 565 544 504 460 408 394 476 621 607 579 558 474 434 440 428 504 607 615 625 522 314 297 338 374 350 324 368 396 404 390 420 432 464 472 502 482 448 418 394 370 358 382 382 374 354 344 354 380 404 
180 196 200 196 188 184 200 208 202 204 204 194 204 210 224 220 214 220 218 308 548 567 573 619 626 652 691 648 632 587 550 506 514 458 432 432 390 440 589 599 558 512 448 430 426 416 486 603 613 512 380 301 334 368 388 370 368 396 412 414 420 402 430 478 484 486 440 434 402 376 346 322 295 299 291 287 277 267 299 316 
171 173 190 190 194 198 202 212 202 200 194 188 192 204 218 214 204 212 222 340 554 577 619 634 638 628 652 636 605 603 536 504 524 502 430 402 386 400 563 579 546 476 434 434 422 394 512 565 579 454 324 316 338 386 388 384 378 396 400 424 444 452 446 462 470 486 490 488 498 464 422 370 356 360 362 354 364 344 356 384 
165 180 186 200 200 202 198 192 190 186 196 200 202 206 212 218 206 220 236 346 518 595 615 648 646 623 617 621 597 591 540 528 542 528 476 386 348 382 540 550 516 462 414 414 412 472 526 558 520 374 308 348 358 382 390 404 394 408 398 400 442 430 456 458 448 456 488 492 486 468 432 450 434 432 440 438 458 456 476 478 
171 178 198 198 184 192 200 198 204 196 198 194 190 208 206 208 212 208 218 334 460 563 552 599 634 660 670 621 583 569 556 556 562 532 506 462 420 466 532 522 508 446 392 400 482 506 532 514 452 310 285 308 330 356 370 404 402 402 382 364 396 404 442 432 450 464 456 454 428 452 428 426 448 448 456 466 466 498 488 492 
178 178 184 184 188 186 192 194 200 190 192 192 200 210 198 212 204 214 204 257 364 444 462 506 593 628 587 480 460 476 591 575 563 538 585 546 526 520 540 530 490 456 420 488 530 548 534 462 386 287 275 245 316 312 326 328 324 332 318 308 326 370 382 402 432 422 394 370 354 398 414 422 460 446 452 454 462 466 464 428 
169 176 176 196 196 190 200 196 206 198 186 194 190 194 202 196 202 196 206 208 251 283 314 344 378 380 332 265 273 312 528 583 546 554 650 630 621 597 583 560 522 524 532 556 542 546 510 392 326 344 314 259 295 314 277 283 261 275 257 277 285 320 334 368 376 386 336 314 297 330 380 396 412 422 418 414 400 398 378 326 
178 182 194 196 188 186 198 196 196 190 171 200 190 196 204 204 194 194 204 192 218 222 220 232 238 241 251 234 257 308 476 560 556 560 611 640 660 630 632 605 567 562 565 575 569 532 482 384 310 340 289 263 306 281 214 228 228 241 263 267 285 297 332 346 354 326 299 275 257 269 293 316 320 332 318 322 308 301 293 269 
169 178 184 196 186 186 190 204 198 190 176 186 190 190 218 202 200 196 188 202 210 210 202 220 226 230 232 220 251 271 382 518 562 558 544 599 664 630 632 617 589 579 577 569 554 490 490 396 364 328 291 291 301 265 198 190 226 220 261 279 295 303 316 308 287 275 261 257 257 247 261 257 234 234 241 241 228 247 253 243 
180 176 184 188 188 192 202 202 202 186 200 202 206 200 214 206 198 208 196 192 206 202 208 210 228 226 232 222 257 275 334 522 556 538 536 562 656 658 640 625 609 617 583 508 390 344 336 310 299 291 285 279 253 253 224 222 228 238 238 253 251 245 245 249 245 249 255 251 261 257 265 249 216 198 198 192 200 222 245 241 
167 188 184 196 182 200 196 190 200 208 196 200 202 192 202 204 186 200 196 208 216 214 218 218 222 243 247 234 247 277 291 462 538 556 528 526 601 636 617 611 571 577 560 346 271 285 289 293 312 293 303 275 263 249 238 245 234 224 228 214 206 226 230 230 243 247 265 271 273 269 261 263 224 188 180 176 188 188 200 180 
165 186 178 194 190 196 186 202 202 188 184 192 190 204 234 222 220 218 188 202 194 224 218 214 220 243 238 238 253 267 271 303 362 422 490 508 540 589 571 480 446 424 478 386 374 394 420 400 410 400 408 388 336 236 241 234 232 210 208 218 212 228 230 218 236 255 285 306 287 283 267 261 220 192 184 178 151 139 159 149 
159 178 190 198 188 200 202 192 202 198 182 184 198 241 303 338 306 324 310 243 243 232 222 218 230 232 249 243 265 277 267 332 348 328 352 442 486 506 464 434 472 490 490 508 508 504 490 460 446 422 438 428 392 265 247 267 261 220 226 214 214 232 226 230 236 253 291 320 299 291 306 283 238 176 171 169 147 133 139 133 
163 178 196 184 171 184 206 206 184 196 198 204 208 289 402 464 510 563 540 492 416 287 241 226 234 230 249 265 293 364 370 352 322 283 295 382 420 430 414 406 410 414 412 428 440 476 466 478 454 416 412 432 386 350 342 326 316 303 277 277 265 257 226 224 208 228 281 306 301 297 295 277 243 192 139 133 102 108 89 102 
157 184 176 184 184 190 186 192 188 198 196 216 238 384 460 508 544 585 630 611 498 412 366 251 226 247 273 297 394 414 368 332 263 257 310 348 376 386 386 360 344 348 364 364 372 382 396 420 422 414 436 428 380 374 364 350 346 332 301 301 287 265 255 234 218 230 255 283 289 271 277 267 238 180 120 91 54 60 60 81 
163 180 178 173 180 208 182 196 198 196 190 216 269 418 506 550 565 613 632 625 593 563 514 348 241 245 330 378 400 394 340 259 212 257 308 344 374 376 364 340 334 336 364 340 346 376 402 422 412 412 444 422 380 348 360 364 358 328 303 299 287 285 259 255 232 222 245 269 269 275 265 257 224 151 79 0 0 12 2 25 
151 182 171 186 190 188 186 196 190 192 182 202 273 422 480 542 587 654 636 642 630 642 601 478 328 340 402 398 402 372 310 208 182 218 253 334 384 382 374 348 328 332 344 340 338 390 396 396 396 428 420 408 358 348 336 338 334 332 310 303 291 277 253 249 249 245 228 236 228 247 247 255 230 165 127 52 33 39 27 44 
163 169 176 171 192 176 192 190 186 194 176 196 253 412 466 492 589 654 644 650 662 652 619 567 502 416 402 400 416 380 289 186 163 143 220 338 380 392 370 358 328 340 346 360 380 418 400 394 420 422 386 350 330 330 322 330 318 324 299 287 267 279 271 277 269 271 251 238 216 218 243 257 261 265 263 245 222 226 243 232 
161 176 165 165 165 180 186 190 192 184 180 186 228 388 462 482 538 634 646 638 656 656 621 571 472 420 410 374 398 368 295 200 147 124 245 310 378 382 368 348 350 372 400 430 440 432 418 400 402 362 314 289 297 318 348 342 324 316 291 283 275 277 279 291 273 265 222 214 190 212 224 234 261 277 289 303 312 303 314 279 
151 161 176 182 171 171 178 176 182 194 167 178 186 273 380 452 494 593 597 615 626 623 585 518 442 416 390 352 352 370 310 210 139 149 251 285 346 366 386 408 452 494 472 472 434 436 416 356 340 299 285 303 308 340 362 334 342 320 301 271 251 283 281 289 261 210 176 155 161 157 198 220 265 306 334 348 328 352 342 346 
159 163 153 155 169 173 153 171 165 178 155 178 178 194 241 287 340 380 418 426 458 522 508 446 454 424 402 346 342 350 312 214 200 190 251 283 366 414 470 538 540 532 494 462 424 416 350 314 287 261 308 312 324 340 356 360 336 338 279 265 265 265 257 261 245 206 163 131 145 153 173 212 279 312 344 348 342 340 342 340 
141 143 149 145 165 153 157 155 159 161 155 157 163 180 200 192 210 214 216 208 238 336 446 462 448 426 392 364 364 372 285 234 257 261 279 348 466 532 575 563 526 520 490 442 422 352 322 303 269 310 388 424 422 404 412 396 344 318 283 243 267 236 218 226 222 196 161 133 143 167 173 212 261 320 336 324 320 318 326 316 
137 149 149 151 161 143 161 155 147 167 153 171 171 171 184 188 188 180 178 178 202 259 444 460 456 438 440 408 390 402 342 320 360 382 390 474 542 562 565 556 540 520 474 454 374 328 306 287 289 366 450 482 482 406 384 398 366 320 281 249 224 230 212 208 192 190 204 167 176 186 216 245 265 281 301 306 287 285 312 336 
135 151 151 137 163 141 155 165 147 147 149 159 167 182 196 208 204 188 186 204 188 279 444 490 484 464 456 412 426 438 398 390 476 470 462 508 512 512 510 518 508 468 442 428 346 316 306 303 324 392 454 472 474 398 336 328 346 306 253 230 224 210 202 196 196 184 184 178 153 167 204 200 198 247 243 236 249 236 249 251 


