P2
80 60
651
96 100 80 90 74 88 100 82 102 108 100 96 108 112 100 98 108 112 104 80 98 98 70 84 90 120 304 475 458 436 380 371 320 322 308 295 310 302 316 318 300 328 338 388 427 452 458 464 456 450 436 417 380 345 304 253 247 210 220 212 269 273 289 295 251 206 186 218 232 212 230 218 233 255 265 251 298 312 361 347 
90 74 64 84 82 84 80 88 104 108 114 110 96 100 100 100 94 104 102 92 100 92 74 84 78 122 316 497 479 471 421 382 340 318 304 300 291 314 322 318 310 310 324 342 365 367 405 413 429 440 454 448 448 417 392 365 324 289 265 255 245 251 241 253 253 224 214 220 257 263 267 220 224 273 267 289 308 330 336 338 
72 82 74 82 102 104 68 88 82 90 100 96 102 102 98 96 80 102 112 108 104 112 90 86 94 142 318 402 475 477 440 384 349 328 308 308 295 291 314 326 306 308 316 328 322 330 334 336 334 369 409 435 452 462 446 413 413 380 342 334 295 271 251 247 249 255 253 255 293 310 277 241 210 230 265 296 324 326 330 336 
68 56 76 66 82 78 86 90 86 88 100 92 92 104 84 80 88 104 134 164 184 208 198 150 134 228 376 405 460 523 485 446 400 382 357 343 345 343 355 349 351 351 349 361 334 326 312 291 281 298 314 369 415 458 454 454 442 405 409 367 328 302 291 281 267 300 316 300 291 302 291 249 224 216 247 279 310 342 322 316 
78 64 70 68 92 78 88 96 88 92 96 102 100 102 88 92 106 168 265 351 357 425 458 398 342 404 552 495 460 500 506 460 435 419 371 357 347 349 373 390 378 398 394 398 390 394 365 338 298 283 300 320 336 382 425 438 446 421 384 369 378 353 338 306 273 318 318 312 304 295 261 259 275 255 289 320 363 361 328 281 
76 56 66 80 78 66 86 86 84 88 96 94 108 86 96 112 112 271 444 487 525 544 539 556 592 619 636 619 546 483 404 421 421 394 376 353 342 347 369 367 361 388 374 380 380 353 310 304 283 259 281 293 300 320 371 435 442 452 415 382 369 347 312 296 296 314 330 322 302 275 279 241 287 275 295 316 330 318 281 200 
72 68 88 86 80 88 84 102 110 88 108 112 100 96 110 120 164 355 512 539 554 554 583 583 615 642 651 632 607 581 452 404 361 320 322 324 328 351 374 386 388 388 365 349 351 340 308 295 269 253 261 273 257 267 308 376 427 427 378 378 296 269 261 281 336 322 324 320 316 293 237 222 239 257 243 212 200 178 160 170 
72 64 88 86 96 90 82 94 88 96 102 96 108 112 100 130 168 384 531 529 556 581 590 584 584 598 611 615 594 588 467 409 367 376 373 380 357 357 338 351 380 388 359 345 340 316 296 300 275 261 267 275 263 239 247 295 359 378 316 279 259 243 263 310 306 310 296 283 261 224 196 206 170 158 146 134 128 132 132 138 
74 70 58 96 78 88 86 96 98 88 102 106 108 102 104 112 174 388 535 554 569 573 563 550 565 544 537 537 537 516 396 419 419 417 396 396 404 382 380 394 378 380 359 361 359 330 300 306 295 271 271 267 253 241 226 243 263 275 271 267 265 271 289 295 296 283 255 239 194 172 154 146 140 134 122 124 138 142 128 122 
96 60 78 84 94 100 82 98 84 98 106 112 116 112 100 110 140 342 498 533 556 573 556 525 498 435 239 202 259 318 359 440 471 473 419 388 376 371 367 365 353 349 359 378 396 396 357 338 304 291 283 281 277 275 265 243 253 289 306 306 300 287 283 241 214 190 168 154 150 144 158 140 150 130 122 128 132 136 128 140 
86 60 96 98 94 94 74 100 72 82 96 100 96 110 106 102 126 210 409 491 512 520 485 444 343 200 154 144 132 170 263 458 469 466 436 409 386 363 367 357 334 330 334 369 411 419 386 367 355 324 316 322 328 330 304 263 279 296 324 320 334 320 322 188 160 140 146 136 138 136 154 154 144 146 144 142 144 164 142 152 
100 54 76 86 94 94 102 84 82 92 108 110 90 110 108 88 98 114 172 222 232 222 176 150 104 126 132 130 126 132 168 374 464 452 431 398 388 378 384 347 353 357 367 429 523 537 527 497 471 467 469 485 493 446 347 267 298 380 421 392 326 359 351 184 150 142 150 150 138 148 152 162 162 166 162 156 156 144 154 174 
78 72 78 78 94 86 82 90 90 80 104 94 92 108 82 100 98 112 96 114 126 108 78 88 94 106 126 132 116 138 156 310 458 462 431 398 396 402 411 378 365 353 336 405 493 506 502 508 497 483 500 510 500 469 458 444 450 462 431 380 318 365 326 188 164 168 156 164 156 172 156 168 174 162 172 166 180 172 190 247 
82 60 70 90 78 90 100 90 88 108 116 96 98 92 98 100 100 100 100 108 94 94 86 86 82 98 108 124 116 138 226 429 444 436 404 386 392 404 380 361 336 324 312 326 479 504 529 520 498 469 467 475 469 458 446 438 442 433 413 394 371 359 326 302 289 263 259 237 208 218 192 208 208 200 198 180 200 224 265 302 
92 72 82 96 96 94 100 90 78 96 110 92 90 100 86 88 98 92 98 90 94 86 84 76 86 96 118 132 124 162 343 483 460 444 419 446 444 431 402 398 371 363 355 390 435 473 502 495 489 469 446 493 473 471 440 392 380 361 340 343 351 345 361 349 349 347 308 277 245 241 271 277 279 273 279 273 277 295 304 304 
90 68 74 82 78 86 84 88 88 96 90 80 88 92 100 84 84 98 104 86 104 82 82 72 90 100 112 136 136 180 382 483 485 491 462 460 471 425 398 382 359 351 353 373 378 398 423 440 469 464 473 467 477 477 444 380 367 361 343 336 351 371 351 365 365 367 336 314 293 261 283 306 314 310 302 277 296 312 316 302 
84 62 78 82 86 84 88 94 80 88 88 96 100 98 88 100 92 92 98 88 108 98 80 84 112 106 130 160 162 224 353 475 493 500 500 491 473 425 429 442 442 452 433 407 419 404 384 390 390 460 477 483 477 477 458 402 374 390 398 371 374 367 392 384 386 374 376 359 345 314 304 340 340 316 300 293 300 312 295 302 
78 62 78 94 74 96 80 82 90 84 84 90 102 88 94 104 104 104 110 110 114 92 98 100 126 134 162 176 249 369 371 471 493 514 514 489 467 462 473 481 466 444 415 382 382 369 353 351 365 456 475 491 479 466 469 464 402 407 425 411 413 400 386 402 398 396 398 394 374 330 332 347 330 328 322 320 314 308 296 306 
70 74 90 86 82 80 100 98 90 88 102 96 90 104 114 110 102 106 122 102 108 104 122 138 176 182 180 200 345 523 471 475 479 491 500 491 475 448 427 421 396 398 392 361 353 324 342 357 396 462 471 464 454 462 464 475 394 376 396 413 390 380 400 392 384 382 388 386 357 342 328 342 318 332 326 322 316 318 287 277 
84 78 74 82 84 82 88 84 86 96 104 100 90 96 90 108 94 106 120 120 158 198 285 355 419 409 435 510 533 563 546 460 446 436 433 411 407 405 419 429 442 448 409 388 384 347 359 396 440 460 429 402 452 427 450 444 402 386 382 365 353 345 334 293 289 287 300 304 322 343 345 336 353 342 324 320 291 253 249 245 
94 82 80 94 98 86 96 106 94 84 98 108 116 116 102 94 96 122 116 136 275 392 479 491 512 529 508 560 556 556 527 475 448 469 460 452 448 438 452 473 471 462 407 405 400 374 394 442 450 427 365 340 345 332 343 373 388 398 417 374 349 285 253 249 243 255 275 316 338 330 353 349 345 330 318 287 243 204 194 200 
90 84 90 72 88 88 86 90 92 106 94 96 118 98 96 114 102 108 130 180 376 502 475 498 487 483 487 523 558 562 489 479 479 497 485 458 436 413 429 446 462 466 452 444 448 442 442 475 448 392 340 334 349 357 345 332 378 413 402 409 388 394 382 402 402 390 373 355 326 342 336 332 338 304 277 220 202 186 180 198 
82 82 78 90 90 90 94 90 94 96 104 108 112 96 88 102 114 120 140 212 431 500 462 481 475 475 477 493 520 533 436 514 493 497 477 469 460 421 398 398 390 425 413 442 454 456 471 479 440 374 353 347 367 369 380 390 423 415 417 436 419 415 431 423 427 411 413 363 306 312 306 310 316 253 206 194 188 186 178 188 
88 80 92 90 88 90 88 84 84 90 110 94 90 100 108 106 104 114 130 220 436 508 471 466 502 487 510 440 433 438 400 504 489 473 473 444 433 413 421 417 413 440 452 456 491 497 471 479 417 359 353 359 365 392 413 392 413 423 415 423 429 415 429 435 438 433 442 394 298 312 310 304 271 194 168 184 168 184 168 184 
76 90 82 86 86 92 94 94 104 100 98 104 104 94 98 94 110 104 132 162 338 479 464 433 497 487 452 310 245 295 435 475 454 444 421 409 419 394 392 396 396 431 475 504 495 506 495 464 390 374 363 384 404 417 423 384 378 407 402 413 411 413 415 423 425 429 435 382 308 287 263 245 194 168 176 172 172 178 186 178 
80 68 82 88 90 96 92 94 88 96 106 104 102 102 100 96 106 102 108 134 249 361 405 407 429 320 232 202 190 230 446 466 419 407 382 407 433 436 456 485 483 475 481 510 518 520 502 425 402 386 374 392 402 427 415 359 349 390 409 396 411 404 411 411 419 411 413 365 310 269 220 200 184 164 170 156 172 176 172 186 
72 70 74 88 78 92 84 96 94 88 92 88 108 96 90 94 94 116 108 122 128 204 249 241 194 140 162 168 162 202 409 440 421 436 405 413 423 442 495 510 504 512 512 527 525 510 435 394 390 378 373 374 359 386 407 361 328 357 388 388 394 392 396 390 380 361 353 318 255 204 198 180 176 176 166 162 158 170 174 166 
72 86 82 86 90 70 86 110 82 80 110 86 96 102 94 92 90 112 100 96 102 110 102 112 118 124 140 156 150 178 306 429 421 423 404 398 413 454 512 500 483 489 523 520 522 407 349 342 355 340 338 340 328 340 351 324 314 316 324 340 318 300 289 261 245 224 218 224 222 220 208 194 182 178 168 156 148 174 160 172 
86 78 78 90 88 92 74 94 82 78 100 106 98 96 84 88 88 100 96 84 98 102 88 82 100 118 124 142 116 138 160 306 392 411 398 386 376 471 518 500 483 473 487 493 458 405 411 380 300 257 228 214 198 196 178 168 170 178 162 160 148 168 162 152 172 180 202 210 198 202 212 198 180 168 150 146 150 168 150 158 
88 72 84 88 90 84 80 92 86 94 120 98 94 84 82 86 82 88 98 86 88 94 92 82 94 110 120 126 114 132 126 140 226 336 353 345 351 435 469 425 417 442 436 427 413 415 419 409 390 376 353 285 255 267 255 245 253 251 216 200 192 194 168 150 158 174 220 196 208 206 200 204 182 154 140 146 152 148 132 148 
82 66 76 92 100 78 86 84 88 92 108 112 90 94 84 84 92 92 104 88 98 88 82 90 96 112 112 122 124 128 108 132 154 267 324 353 351 342 314 283 277 380 407 404 371 361 365 357 365 361 308 261 273 304 308 334 382 384 343 322 283 214 180 164 172 178 196 204 212 214 214 194 186 150 142 124 152 150 150 148 
90 74 78 86 98 86 82 100 86 84 96 100 98 94 88 94 96 92 92 92 104 92 86 88 92 104 138 128 126 128 114 160 289 293 320 322 253 212 267 291 267 324 332 296 285 332 349 357 382 324 271 245 249 295 304 336 390 411 411 382 343 310 230 192 192 174 174 188 202 210 200 190 178 154 130 134 154 152 152 164 
80 66 94 88 90 84 82 94 92 82 100 90 98 112 98 98 100 82 120 94 100 98 88 90 108 112 136 138 128 130 140 263 330 300 295 283 172 118 162 235 265 291 265 232 308 298 310 298 281 259 259 235 233 263 291 316 365 365 382 398 388 306 235 220 216 184 168 212 218 214 233 239 222 232 210 180 172 176 190 241 
70 74 94 100 90 110 94 82 82 88 108 98 112 108 110 94 104 104 112 102 102 118 112 120 136 122 146 146 136 146 176 322 310 312 332 281 214 271 334 295 253 304 283 192 269 253 247 241 259 239 233 226 247 243 249 259 296 298 304 326 340 296 253 224 208 210 196 220 249 249 273 287 304 324 314 291 273 251 283 285 
88 72 82 102 88 94 88 80 96 96 114 108 102 110 104 98 106 106 122 100 132 162 239 263 251 226 208 194 150 148 232 338 293 316 302 293 300 359 359 306 302 289 263 162 164 206 202 235 265 226 216 243 245 237 224 239 245 255 273 279 285 300 295 296 249 208 232 251 289 293 298 308 320 332 326 320 310 328 298 298 
82 72 94 92 88 82 80 90 88 100 116 116 118 102 96 108 108 108 126 102 182 332 340 300 322 435 433 336 208 184 281 326 322 343 382 376 336 338 322 318 308 285 210 172 146 150 210 218 239 228 198 222 222 239 251 243 253 233 259 285 296 306 300 308 298 263 265 287 279 289 302 293 293 304 316 316 338 338 328 330 
76 74 94 88 78 88 92 84 98 98 102 106 102 102 98 106 104 110 110 122 257 400 332 289 398 491 510 477 382 291 318 324 328 345 413 396 336 328 281 257 251 245 178 202 196 216 218 220 214 247 190 210 230 235 249 267 251 214 226 300 302 334 336 326 320 298 287 275 298 279 267 291 310 310 316 322 343 351 334 324 
94 72 96 86 90 86 102 80 92 84 96 102 108 108 110 102 100 118 126 144 271 369 357 409 518 527 531 506 433 388 332 300 322 330 351 328 320 316 265 241 198 196 202 216 212 224 235 235 210 255 224 194 204 198 241 259 249 226 265 324 320 345 369 340 340 316 289 261 261 261 289 298 296 306 316 343 361 347 281 273 
76 76 82 90 88 96 86 100 102 94 100 102 104 110 96 108 112 116 120 170 293 357 380 477 537 543 527 512 469 419 338 296 306 316 298 293 304 302 245 230 178 210 212 214 210 239 224 230 216 263 230 172 184 218 257 253 239 233 259 293 269 275 298 314 296 298 283 293 304 287 295 285 298 304 326 326 342 285 214 206 
74 70 82 92 98 94 84 94 88 90 108 100 106 94 96 104 100 112 124 160 275 373 436 516 529 552 554 504 460 417 355 314 322 306 300 285 304 275 245 210 198 210 216 232 202 232 212 216 212 247 202 192 198 241 263 253 269 235 241 281 271 269 289 304 302 304 308 342 343 318 300 293 304 302 312 291 271 220 208 212 
78 76 92 98 94 98 94 94 104 88 104 104 98 102 110 108 104 120 114 144 212 324 458 493 462 475 502 458 413 398 347 322 336 324 308 293 281 287 220 206 222 216 204 226 220 247 204 206 208 208 212 233 210 237 241 255 275 267 237 277 285 285 293 295 302 295 306 367 359 324 295 285 293 300 271 235 204 206 200 198 
86 86 98 78 100 100 80 102 90 94 96 94 94 96 114 108 98 110 110 110 146 180 239 338 448 436 417 369 251 283 330 324 349 328 304 281 271 232 190 206 198 198 210 232 230 226 206 202 212 198 220 253 226 202 239 245 249 228 241 259 281 273 273 293 275 283 291 326 334 310 291 281 279 222 190 180 180 192 180 182 
82 58 88 70 94 98 100 102 100 92 106 104 82 110 106 96 94 96 108 98 106 120 122 148 208 259 222 186 158 166 259 332 340 316 295 285 275 222 214 218 224 208 220 253 230 204 214 200 208 204 232 198 154 188 210 232 239 249 259 267 271 257 251 255 269 267 265 283 304 289 271 214 196 162 162 162 158 154 170 192 
88 88 88 104 90 98 86 98 94 92 110 102 96 100 90 88 88 96 100 98 100 96 98 98 118 128 140 146 126 152 220 336 296 298 312 306 291 265 265 235 241 230 239 247 228 220 210 216 220 208 218 164 142 162 198 194 228 220 241 257 281 267 247 259 247 233 257 273 269 255 208 162 128 144 152 142 160 176 174 174 
84 68 90 92 104 98 100 102 92 106 126 112 108 92 98 98 108 106 102 106 102 92 86 96 112 118 132 144 136 142 210 312 296 302 312 330 353 359 347 296 230 214 263 218 208 200 208 190 176 186 182 172 178 184 208 176 224 230 224 222 253 241 230 245 222 222 226 214 202 174 166 132 142 122 142 148 178 178 174 176 
82 92 92 90 102 100 96 108 100 88 120 104 102 102 96 106 98 110 100 96 106 98 86 96 106 128 144 160 154 160 263 320 310 349 382 404 402 423 427 413 304 200 196 174 154 134 148 128 154 164 170 170 178 170 188 184 192 188 198 196 206 200 212 188 182 164 162 194 166 148 164 138 124 116 122 134 166 170 164 178 
86 74 76 92 110 98 102 102 106 96 118 110 120 100 100 116 114 102 104 96 100 108 100 86 110 142 206 281 295 308 349 349 336 396 419 411 431 435 435 442 402 332 178 126 114 104 116 116 116 114 124 144 148 138 142 122 130 114 122 148 164 150 154 138 140 160 180 180 188 166 154 148 122 116 124 136 150 140 144 168 
72 76 100 96 108 100 88 96 94 102 128 118 102 116 112 128 104 96 112 106 100 106 96 106 162 243 310 359 367 373 330 320 316 373 417 419 454 438 413 436 419 398 328 190 136 132 156 162 154 154 164 188 204 198 172 140 150 132 128 136 140 136 138 120 146 142 152 206 198 174 162 170 154 108 118 120 136 142 142 172 
86 76 102 110 92 82 88 98 106 112 124 116 108 136 136 132 94 110 108 100 106 114 112 138 281 343 322 300 300 328 343 330 326 355 417 425 444 433 409 413 392 374 355 318 255 208 178 166 172 166 192 210 210 204 182 156 164 162 136 140 136 138 146 132 140 130 144 202 196 190 192 176 156 112 106 110 118 146 132 172 
94 78 84 104 102 102 108 112 104 108 148 194 202 243 279 192 170 126 130 104 118 110 126 226 340 347 338 306 308 281 251 255 287 324 334 332 355 345 367 392 371 357 342 316 298 228 196 186 196 202 216 224 214 216 204 190 186 160 154 140 146 162 154 148 138 138 150 192 204 192 198 184 166 118 102 100 114 144 180 184 
94 78 92 110 102 106 102 100 108 158 271 343 388 450 483 458 376 245 160 122 130 118 136 298 334 357 343 347 281 206 152 144 164 208 245 273 298 310 304 320 324 336 324 300 293 243 188 176 188 214 249 269 247 241 230 210 214 178 164 164 160 154 168 148 152 154 158 178 178 174 188 184 178 146 152 140 138 184 218 214 
98 86 104 106 102 114 94 110 134 220 351 423 444 475 531 500 423 345 334 243 154 130 218 326 338 342 322 324 239 150 104 130 144 198 249 281 295 310 312 302 293 322 316 300 300 279 237 196 204 247 310 334 279 253 249 245 235 208 194 178 178 170 174 174 156 152 170 178 158 148 184 222 245 251 267 241 212 224 232 216 
80 84 76 102 90 108 98 114 162 285 409 462 485 520 537 520 471 446 458 349 210 194 298 338 345 328 324 302 206 106 76 108 184 235 273 283 293 300 287 300 271 287 291 320 316 300 263 247 245 277 310 353 310 267 257 253 263 235 220 224 214 188 192 188 168 176 164 146 128 136 138 188 232 245 239 212 216 239 230 243 
94 76 82 106 86 102 102 124 170 310 425 485 493 560 541 537 529 527 527 448 345 298 320 332 326 304 293 249 182 110 80 140 214 237 265 275 277 298 279 295 265 269 271 300 328 304 277 271 269 291 326 338 338 273 243 253 247 251 226 249 228 222 230 230 202 218 220 184 136 152 174 204 222 214 218 222 255 245 247 253 
88 86 76 98 90 100 94 108 182 322 407 458 514 571 562 565 548 548 535 493 435 411 326 328 295 259 239 224 178 94 52 144 212 239 253 247 251 265 273 281 269 261 265 308 310 296 300 287 295 291 295 322 312 269 253 218 232 210 192 214 214 226 263 249 245 239 239 204 164 174 176 198 216 218 233 239 273 273 261 253 
84 80 80 88 86 84 82 94 144 291 413 458 498 554 544 558 569 548 535 481 456 405 302 281 273 243 237 222 174 84 66 114 196 235 239 235 232 237 239 255 251 259 263 326 330 308 304 326 324 314 314 300 251 247 196 192 204 172 164 166 186 188 214 232 230 216 214 218 208 210 204 202 216 245 243 249 285 289 287 273 
92 68 80 86 74 74 84 102 116 245 367 429 475 520 541 535 535 546 529 489 460 392 281 265 249 218 222 212 114 68 58 96 170 220 241 228 239 216 233 245 239 253 239 326 312 304 328 342 332 328 289 296 241 224 188 176 176 144 136 140 122 138 176 184 206 164 164 243 210 204 210 220 218 220 230 245 296 296 275 255 
78 56 74 90 92 84 70 80 86 150 271 334 374 415 460 460 481 481 497 464 446 357 287 267 241 233 222 204 102 60 66 118 160 226 239 237 224 216 210 224 232 243 263 326 320 316 328 340 318 265 218 233 216 194 188 176 158 146 126 138 120 130 140 148 152 134 180 190 164 198 212 184 202 210 222 239 277 279 198 214 
52 70 52 64 80 72 60 70 80 102 110 168 218 253 285 295 263 287 361 427 419 338 293 273 275 253 241 214 96 30 46 74 90 232 241 241 233 210 235 253 253 285 300 304 281 269 281 259 212 190 170 176 158 192 164 164 172 164 168 156 166 158 154 174 174 178 194 182 184 198 178 178 172 184 216 249 245 200 176 180 
68 64 58 72 52 70 48 64 72 78 78 104 156 156 160 150 164 160 176 271 382 342 296 281 269 255 232 196 90 42 26 26 0 182 247 261 261 253 263 285 285 318 304 312 277 237 220 186 172 136 118 122 134 178 172 178 182 180 186 194 196 190 178 188 192 212 210 192 218 178 188 156 180 190 228 247 208 178 166 176 


