P2
80 60
742
301 335 303 299 316 322 331 322 331 327 331 346 344 331 333 331 331 338 335 325 359 361 359 333 357 322 355 387 381 394 361 348 329 322 333 407 432 441 450 435 424 422 396 290 110 51 31 42 53 73 104 249 318 331 333 325 333 338 338 340 344 363 366 417 592 704 661 460 366 363 338 316 325 338 344 327 322 314 297 318 
327 322 307 318 318 318 320 320 327 329 338 344 342 346 335 351 348 346 351 357 374 379 370 379 379 346 368 344 342 312 342 329 338 318 351 432 435 445 445 437 439 432 374 197 84 22 8 15 39 77 122 166 225 288 329 329 342 344 355 348 355 372 404 609 692 615 443 385 366 342 342 316 320 333 338 327 320 312 305 318 
310 314 303 316 318 314 322 318 314 322 331 342 342 338 348 351 368 368 363 394 394 398 374 361 394 391 398 344 322 305 322 338 333 327 342 435 445 445 454 458 439 413 264 157 113 37 4 0 15 46 108 110 146 192 331 366 370 363 370 363 374 409 594 674 605 430 383 355 342 340 340 331 325 338 342 322 322 312 303 318 
303 322 301 307 316 307 312 307 310 320 333 325 329 338 338 363 368 363 359 368 391 370 376 374 374 368 387 374 335 312 338 335 338 329 357 430 432 452 443 452 432 344 161 126 62 11 17 42 28 28 93 126 203 331 407 409 417 413 404 411 435 600 686 605 424 368 344 351 348 342 344 329 312 329 335 338 325 320 310 318 
297 312 294 303 312 307 303 299 301 318 329 312 333 342 335 355 366 359 359 363 383 372 357 366 368 363 366 361 329 312 327 333 325 312 355 372 368 404 407 422 398 238 119 86 71 71 57 64 71 133 155 173 333 413 439 439 443 441 454 480 632 700 611 420 374 361 353 333 340 344 344 329 325 342 346 346 338 320 299 329 
305 314 294 305 310 294 301 318 327 325 329 327 301 340 329 346 353 363 355 370 363 372 348 361 353 357 346 340 318 312 322 325 325 333 363 379 372 381 372 383 359 273 258 316 279 258 238 216 221 221 236 327 420 428 435 430 450 458 494 655 694 594 432 385 361 353 357 368 361 357 351 340 333 338 348 348 340 325 320 340 
307 307 297 303 312 299 299 303 322 312 314 294 284 320 312 325 357 361 353 348 355 342 342 325 348 357 359 346 333 318 316 329 335 344 359 353 351 366 359 387 363 344 344 370 355 359 351 340 314 338 346 383 430 435 448 454 471 531 690 738 603 460 391 370 355 366 379 389 387 385 376 359 355 366 370 353 338 318 307 342 
292 310 286 290 307 290 303 305 292 314 316 288 288 310 288 310 292 294 316 318 329 310 327 338 340 344 348 344 346 346 338 353 346 368 368 366 357 372 363 361 361 368 372 348 353 359 351 351 344 361 357 351 374 376 424 441 531 723 742 594 465 428 379 363 391 396 413 420 417 398 402 387 381 363 385 368 346 335 318 342 
297 335 299 301 312 301 322 312 292 307 322 310 318 325 333 320 331 325 312 316 305 316 316 322 322 329 325 331 335 340 363 366 363 370 359 361 359 376 368 361 359 376 376 366 361 361 353 357 329 340 327 346 381 374 394 448 719 725 533 428 396 417 389 396 417 420 417 430 437 430 417 413 396 409 415 402 379 366 346 355 
282 331 305 307 310 305 314 325 305 310 335 333 338 361 357 376 376 353 344 342 331 322 322 327 322 318 307 316 310 303 331 338 344 344 338 351 348 353 353 361 363 372 361 361 372 368 344 340 333 322 340 333 366 372 428 638 667 499 391 387 366 376 363 387 404 413 426 430 432 432 424 430 415 422 430 430 402 400 381 389 
303 320 303 322 320 312 305 314 314 316 307 322 329 346 366 366 368 351 340 355 344 348 325 327 338 327 331 310 320 318 322 333 322 316 327 320 316 325 338 353 351 353 353 355 361 359 338 335 325 331 338 331 363 450 619 649 458 381 355 357 344 348 340 357 366 379 383 394 426 415 422 430 437 439 452 443 443 443 441 486 
314 325 305 299 301 303 297 299 312 314 316 316 331 338 368 363 351 338 338 342 353 338 338 344 348 340 338 327 329 322 344 340 335 314 307 327 310 312 307 312 320 322 344 338 327 340 320 312 310 329 340 344 376 586 573 450 357 340 340 340 333 333 335 348 342 357 342 359 370 361 389 385 415 430 450 450 469 505 554 651 
305 327 294 297 307 312 299 301 307 310 318 312 320 351 351 351 338 342 333 340 327 327 342 338 331 344 331 331 335 348 344 344 344 340 327 333 327 329 331 329 322 327 325 318 314 307 294 299 310 301 335 351 471 428 372 346 342 340 327 327 322 327 338 331 338 344 344 348 357 355 353 355 374 389 417 465 560 661 711 644 
297 329 286 294 307 307 292 303 303 310 316 305 314 351 353 355 333 335 333 327 327 333 340 331 331 346 333 338 331 346 346 344 353 338 342 338 333 344 344 346 346 346 338 327 327 310 301 297 297 294 322 327 368 357 322 329 327 320 325 331 325 327 325 333 331 340 333 340 346 353 342 357 374 396 463 600 702 649 516 428 
297 318 286 305 301 305 305 310 303 314 307 307 320 346 335 340 325 346 322 327 331 331 322 329 327 335 333 340 342 340 344 344 344 340 331 329 320 340 340 344 351 344 353 357 340 314 286 312 314 305 320 325 327 322 320 333 329 338 351 351 329 327 327 338 325 335 340 338 353 351 344 363 417 558 642 617 494 441 372 376 
299 320 275 290 292 299 299 297 299 310 303 312 307 348 342 329 329 344 333 335 331 331 331 329 331 331 327 338 335 327 344 340 325 329 340 329 320 325 333 346 335 346 351 344 327 290 320 314 333 312 314 320 322 327 340 335 342 342 351 342 333 329 333 335 331 333 329 331 335 340 366 477 603 571 482 409 385 342 331 359 
301 318 305 294 297 305 294 297 303 301 292 305 305 325 331 335 335 338 325 329 327 325 325 340 335 335 322 333 333 333 348 353 344 329 333 333 333 333 342 329 338 329 333 335 284 275 322 316 312 318 305 312 329 322 333 335 335 340 346 342 340 340 327 322 331 327 331 320 355 351 409 528 448 407 381 361 327 316 320 331 
299 320 288 301 290 290 292 290 307 305 290 292 299 292 299 310 318 320 307 314 318 312 329 329 331 333 333 335 329 340 331 338 340 338 329 333 340 333 342 335 327 333 303 299 269 312 320 329 310 312 322 322 333 312 331 342 346 342 340 340 338 333 331 318 314 312 322 331 353 340 335 342 333 338 338 335 320 318 310 329 
305 307 292 297 301 277 290 286 288 297 299 286 294 294 284 288 303 294 294 279 288 294 299 310 314 316 312 314 325 335 329 333 331 320 320 316 331 331 329 331 316 292 284 262 260 307 325 333 316 322 331 307 329 297 314 342 338 338 338 335 322 329 316 310 325 331 322 333 344 329 327 322 312 325 342 340 322 327 305 316 
303 312 292 292 292 271 284 297 288 282 284 286 273 279 277 284 290 294 294 288 286 282 286 297 294 294 299 297 310 299 299 305 303 297 312 312 301 320 327 316 294 303 314 279 247 310 318 322 290 322 327 312 325 288 305 318 320 322 327 318 305 314 316 316 320 325 331 322 335 320 331 318 312 318 338 320 331 318 299 325 
292 305 277 290 273 277 279 282 277 284 282 279 284 279 275 286 282 277 292 277 275 284 273 286 269 284 284 277 284 275 277 284 288 279 279 290 260 273 286 299 294 292 299 282 266 305 307 303 307 307 301 288 275 288 286 288 290 301 301 305 299 322 327 333 329 327 322 322 327 318 314 303 299 316 338 333 320 314 305 312 
294 299 279 286 288 288 294 286 284 284 277 277 282 292 275 290 279 273 288 284 279 277 273 271 277 277 264 271 264 275 282 275 273 273 269 277 264 253 262 269 279 279 269 264 251 258 271 297 286 286 262 238 279 284 290 277 284 288 292 294 297 314 325 325 327 325 320 327 320 322 318 314 305 318 329 327 318 316 299 301 
288 307 277 297 290 286 282 284 286 279 273 284 282 275 266 284 286 273 286 292 290 292 288 279 279 279 273 271 266 269 277 269 258 258 258 256 245 260 258 251 260 247 260 236 236 234 256 284 271 258 260 262 275 277 284 284 286 288 294 310 310 331 320 325 335 331 322 325 320 325 325 307 303 316 329 333 325 314 279 310 
290 312 284 290 294 290 284 286 277 286 277 273 286 288 290 284 279 277 282 288 279 286 288 277 292 290 271 275 275 273 284 273 275 251 249 236 238 258 247 256 240 238 240 243 238 238 260 253 262 266 271 273 286 284 282 290 294 303 310 320 314 331 327 329 333 325 338 325 320 329 320 312 301 312 331 318 314 316 292 314 
299 314 286 284 299 297 288 292 290 282 282 273 282 277 290 279 292 284 294 290 305 286 299 297 310 303 297 292 292 288 284 288 269 275 262 249 256 256 247 253 249 247 245 251 249 243 258 260 262 260 271 271 264 282 292 297 322 335 331 329 327 342 338 338 333 333 333 340 325 329 322 312 312 320 331 327 325 329 292 310 
303 303 284 297 282 286 301 299 297 284 284 275 277 284 286 282 294 284 286 290 294 277 286 297 297 294 294 284 282 290 297 290 288 284 284 273 264 264 256 253 243 245 247 240 249 253 260 266 266 258 269 262 282 299 327 329 342 333 338 346 335 346 351 351 333 331 335 340 342 331 329 327 322 329 331 331 325 314 303 316 
301 307 294 288 290 288 294 297 303 284 284 275 286 279 279 282 286 284 292 269 279 275 286 286 279 277 275 282 282 282 282 294 279 279 275 264 258 262 253 251 247 256 253 251 247 253 264 251 243 262 269 275 279 277 297 303 318 325 335 344 351 351 340 346 344 340 335 348 342 338 333 314 335 338 342 338 327 325 316 316 
284 312 282 290 292 294 290 316 301 282 286 288 279 284 290 286 282 292 286 284 277 277 286 290 275 288 284 279 279 277 286 286 290 284 279 253 251 260 253 256 245 238 247 245 247 260 260 230 260 275 307 294 286 275 286 288 290 279 318 353 353 346 342 333 340 342 344 346 342 335 327 327 316 331 344 346 340 338 314 316 
288 301 288 294 282 299 286 292 288 271 277 277 275 275 279 284 273 290 282 282 275 273 264 275 284 269 271 284 271 277 282 299 284 284 279 269 243 247 249 236 238 236 245 238 249 247 227 232 256 312 344 303 297 282 288 279 288 282 314 353 357 357 340 344 346 346 357 333 344 348 331 318 333 325 344 344 331 329 301 338 
284 301 294 297 290 290 286 297 286 275 266 271 277 279 284 277 279 275 277 279 279 288 288 275 277 284 273 277 275 269 286 292 290 273 286 264 258 264 262 232 240 236 236 243 230 236 247 225 251 329 346 310 290 279 288 282 282 288 322 366 366 372 348 338 348 344 355 342 340 331 344 318 331 338 338 340 320 320 292 320 
275 299 279 294 294 297 284 286 282 271 271 269 266 279 284 279 279 277 284 279 271 277 279 273 284 275 284 282 290 290 282 288 282 282 271 264 249 245 249 243 236 240 240 238 225 232 251 240 271 344 374 327 282 279 286 286 288 269 318 357 359 355 351 348 348 342 351 346 351 333 338 310 325 333 338 325 312 312 288 307 
288 310 277 288 292 288 282 292 288 269 269 271 282 264 271 275 279 282 286 275 266 279 271 275 288 279 284 284 279 282 288 288 277 277 266 260 260 249 247 243 243 234 232 243 232 243 269 240 269 357 374 344 284 282 279 284 288 292 294 361 359 368 353 355 348 351 344 359 361 355 338 331 327 331 320 325 307 299 282 307 
277 305 282 277 284 282 290 299 290 271 271 269 271 279 277 288 275 279 284 271 262 273 275 286 292 288 292 307 290 284 282 286 282 277 277 258 256 245 251 253 243 240 243 249 240 236 245 243 279 355 415 383 301 271 279 290 282 284 312 368 370 374 355 357 357 359 355 359 353 338 340 338 338 333 327 329 303 303 282 310 
294 310 279 297 277 299 299 301 299 273 286 262 277 275 284 282 282 269 279 269 266 275 282 275 286 290 301 292 297 277 282 275 271 273 273 253 256 266 247 256 245 253 247 236 221 240 256 238 266 344 407 381 305 279 275 286 284 275 307 379 363 383 379 383 363 368 366 366 370 361 359 355 329 329 318 322 303 307 290 294 
284 305 284 297 290 286 301 292 284 271 271 271 262 271 277 269 273 279 275 264 269 264 266 279 277 282 294 292 288 297 286 282 290 275 279 269 260 271 251 264 243 260 247 243 247 247 238 238 292 361 404 361 303 286 284 290 290 275 314 348 374 387 381 389 387 387 387 381 391 387 374 372 342 342 335 329 307 305 282 284 
273 301 284 297 297 299 288 284 275 271 288 273 269 275 271 269 275 271 286 266 269 282 269 273 273 277 286 282 288 290 286 292 286 277 269 269 262 253 264 253 247 245 238 234 227 236 251 240 314 372 411 361 301 282 282 286 290 286 303 331 333 353 361 372 361 346 361 359 374 366 361 361 344 346 329 327 301 292 290 282 
273 286 271 275 284 292 297 290 279 277 282 290 266 275 275 286 273 277 288 271 275 266 279 275 282 282 282 275 273 269 279 290 277 273 266 258 251 260 253 249 234 249 232 236 234 234 251 256 314 340 363 327 299 290 301 305 307 303 305 314 314 331 338 338 329 331 333 320 331 338 333 348 338 329 322 310 290 294 277 301 
264 294 273 284 290 279 292 290 275 286 284 266 282 284 279 290 292 290 279 284 286 294 288 284 286 279 279 282 288 279 269 284 277 271 271 264 260 249 253 249 238 240 227 236 230 247 271 297 305 299 318 310 303 310 318 318 307 312 314 314 305 318 307 310 307 318 325 335 320 333 327 333 335 322 329 318 297 290 279 288 
271 297 271 284 301 294 288 290 273 279 271 269 277 277 279 271 288 286 299 292 297 290 292 294 301 284 288 286 282 284 292 303 277 279 282 269 260 271 249 260 243 238 243 264 247 256 273 301 305 318 310 316 303 307 307 316 312 314 314 305 301 307 320 312 307 316 327 331 331 327 325 320 329 322 320 297 299 297 275 284 
266 292 273 288 279 277 277 290 286 297 305 286 279 271 282 273 271 279 284 277 275 277 279 286 284 286 279 284 279 284 290 290 284 277 277 273 269 277 256 262 251 247 249 256 260 284 284 294 305 305 301 312 320 310 307 307 310 305 310 310 305 299 303 305 310 316 325 322 314 318 318 320 329 322 316 310 297 288 284 275 
275 286 282 288 282 290 286 288 284 297 310 299 282 290 277 284 290 297 297 303 305 301 288 299 292 288 282 284 275 275 292 286 292 282 277 288 284 294 260 258 256 256 236 264 290 271 284 297 299 305 299 307 303 294 307 307 314 307 299 310 314 307 312 305 314 318 325 318 316 318 314 314 318 316 307 305 297 286 282 290 
292 301 271 279 290 286 269 271 269 286 279 279 277 292 284 303 318 320 320 329 320 325 294 299 292 314 314 299 288 299 301 290 292 282 284 282 282 277 260 266 249 249 247 260 277 277 279 299 301 303 301 301 310 297 305 310 312 307 316 301 303 316 305 316 312 307 318 316 305 316 325 310 299 310 307 307 288 290 271 271 
290 294 279 288 284 277 292 260 258 269 269 262 269 288 273 271 288 286 294 301 288 301 292 290 297 294 301 297 292 316 301 299 292 282 273 284 288 303 292 288 266 260 249 262 271 286 301 305 290 301 305 312 301 305 312 303 305 305 303 314 299 310 314 292 316 303 316 307 307 305 307 303 312 310 307 303 292 286 260 288 
292 301 297 301 288 279 290 282 266 264 253 264 258 275 269 271 273 262 269 264 286 284 288 284 290 288 297 292 284 288 288 286 277 279 282 288 279 297 290 299 269 277 273 275 282 282 288 288 290 310 301 299 299 305 312 312 310 307 305 310 312 314 312 312 320 318 314 303 301 314 307 303 305 299 303 299 288 282 279 288 
297 307 292 299 294 271 299 279 262 271 260 264 269 273 264 266 275 275 269 277 297 282 292 282 277 277 264 277 277 279 282 294 284 284 286 279 279 297 284 299 271 279 286 290 273 284 294 297 307 305 310 314 312 318 312 310 305 303 305 307 318 316 305 312 312 310 310 305 316 310 312 322 314 307 307 286 288 282 290 294 
294 325 299 307 294 288 297 279 273 275 269 262 273 258 275 271 269 269 277 279 297 292 290 294 288 284 282 266 275 277 282 279 282 282 288 288 294 290 279 269 271 282 279 277 273 279 299 307 297 312 303 307 316 316 316 312 310 310 322 310 312 312 310 305 290 297 292 301 310 312 314 318 310 310 310 312 286 294 282 284 
299 314 299 305 303 288 299 282 269 273 271 269 271 264 275 258 273 277 275 299 310 307 303 307 331 320 303 294 282 282 284 284 282 286 284 297 294 305 288 282 279 282 284 286 284 288 292 299 316 314 307 318 318 316 316 314 318 312 312 314 310 314 305 314 303 297 294 301 312 312 318 325 325 320 312 294 297 297 277 284 
305 310 314 299 294 288 284 288 277 271 264 266 269 264 264 266 277 271 282 320 329 297 297 316 314 312 318 310 297 282 284 282 290 294 288 294 292 292 277 290 286 282 294 286 290 292 303 310 303 301 310 316 312 316 316 312 327 322 318 312 322 327 307 316 297 282 294 299 318 307 314 312 310 301 312 303 292 301 277 288 
299 331 303 310 286 292 292 277 277 275 273 284 273 264 269 266 275 275 279 307 329 292 290 301 299 297 297 292 284 271 275 288 284 284 286 305 292 292 284 294 277 290 286 286 294 301 294 307 303 301 314 318 316 316 329 322 331 322 329 312 307 322 322 329 301 286 297 294 301 314 305 320 303 316 305 294 284 290 288 282 
303 320 294 284 288 282 288 284 292 288 297 294 294 292 284 279 292 307 292 299 307 292 284 279 288 292 299 307 301 303 292 282 282 286 292 288 286 286 277 286 286 294 290 301 299 303 299 307 305 310 314 310 320 325 325 310 314 320 329 316 322 322 329 307 305 282 288 288 305 316 325 312 305 314 307 288 282 286 262 273 
290 312 299 297 288 282 303 297 288 307 305 299 305 303 305 305 314 303 314 290 305 297 284 294 284 297 305 303 297 297 305 292 299 292 297 301 301 290 279 282 288 288 301 292 290 301 310 307 303 314 305 320 314 314 320 320 312 320 333 357 381 385 363 338 316 284 305 299 316 314 318 318 329 314 305 292 273 284 266 275 
282 297 303 286 294 279 294 303 294 292 305 292 301 297 297 305 310 310 305 299 303 297 290 286 286 290 294 290 288 299 290 294 292 294 297 299 290 294 279 279 279 273 288 288 284 292 294 307 297 292 310 310 318 301 299 307 310 353 381 387 396 407 391 424 383 335 305 299 322 310 316 305 314 320 310 294 286 277 269 288 
290 305 292 307 305 303 303 307 301 305 301 294 297 290 299 294 297 301 303 303 297 299 294 299 292 288 292 294 286 297 301 307 286 301 288 299 290 284 282 282 264 275 282 292 297 299 305 305 292 292 303 305 314 305 314 329 359 394 404 407 396 389 381 400 407 376 342 325 307 314 301 310 305 297 294 299 279 273 264 273 
297 320 303 307 316 299 307 301 301 299 297 284 288 303 307 307 310 292 303 303 303 294 288 284 282 292 299 310 318 310 320 320 314 307 297 294 299 294 288 275 284 284 282 301 292 297 307 292 297 290 301 297 305 327 325 357 396 391 394 376 372 374 376 368 381 366 348 348 316 297 299 299 284 290 282 277 275 269 249 264 
288 307 301 316 297 297 305 303 292 299 303 288 301 305 310 312 310 307 303 299 307 299 286 294 307 294 307 318 318 320 314 335 335 325 305 301 299 297 297 297 294 301 299 307 303 299 301 297 290 303 301 301 316 325 342 381 400 407 396 383 372 361 370 344 381 363 357 340 318 316 301 279 286 275 288 284 271 266 260 256 
286 316 294 299 301 292 290 305 290 292 292 292 303 307 294 312 310 303 307 301 299 294 292 290 303 299 305 322 310 316 325 329 320 312 297 299 299 301 303 327 318 322 316 303 303 310 301 303 303 318 314 316 320 348 379 366 409 428 417 398 385 355 368 353 376 372 353 348 340 303 303 297 271 284 279 282 269 266 238 269 
286 316 290 292 305 307 292 299 288 294 294 307 305 303 299 292 307 307 307 303 303 307 294 310 301 303 310 312 307 322 322 335 312 310 301 297 305 307 318 320 310 320 327 320 320 322 310 312 316 329 331 340 348 372 363 370 420 407 402 391 379 366 359 359 355 374 361 346 344 314 301 297 284 282 279 288 269 264 251 256 
297 307 299 286 294 294 294 307 290 292 286 290 294 301 303 297 312 310 301 312 305 303 314 307 312 314 316 310 316 314 329 327 320 307 303 307 310 316 322 312 316 325 329 320 307 318 314 327 322 327 342 348 357 355 348 348 376 379 376 374 376 366 351 357 361 357 346 346 342 329 318 297 288 297 297 286 262 264 258 286 
290 325 297 288 297 294 297 299 286 301 288 292 299 314 299 294 299 303 307 299 314 316 305 310 322 318 316 314 320 312 333 331 320 329 314 307 312 322 329 327 327 320 331 314 312 322 318 305 305 320 312 325 329 327 338 346 342 333 331 342 351 357 355 346 361 361 342 348 335 327 307 301 294 312 297 299 271 266 251 262 
305 312 284 286 310 286 301 305 279 286 286 292 286 294 292 290 299 294 299 292 305 301 299 305 318 305 299 294 305 316 322 316 307 303 301 299 307 316 320 318 307 305 318 310 307 297 299 305 290 294 305 305 318 314 335 348 344 370 335 329 327 329 327 320 342 344 353 342 338 322 297 297 294 297 290 294 269 262 258 266 


