P2
80 60
627
93 93 85 87 81 85 79 81 68 70 83 66 73 64 75 81 62 42 56 52 56 46 48 52 64 50 58 50 44 46 54 46 48 37 60 42 40 40 31 44 37 46 25 42 40 37 46 31 27 37 29 35 48 37 33 40 35 52 40 44 29 25 27 31 23 31 33 31 33 37 35 31 35 40 42 35 27 27 31 29 
33 25 29 27 23 33 27 25 44 27 37 33 21 25 31 23 11 21 29 21 19 33 23 31 27 40 25 40 19 25 27 29 31 27 48 46 33 31 37 29 31 37 33 42 35 37 35 42 50 44 46 35 33 42 35 40 52 37 37 37 48 50 35 44 46 40 46 31 42 44 48 40 46 31 44 37 27 37 23 31 
95 83 93 93 68 89 79 81 70 79 70 77 68 68 68 70 62 58 62 50 70 60 48 58 48 54 42 46 60 56 60 50 37 48 50 37 44 48 42 42 52 44 40 37 44 35 23 19 31 40 29 44 37 44 29 42 40 42 42 37 33 25 27 29 27 42 35 35 42 37 40 31 40 33 27 17 27 17 17 27 
37 31 29 25 40 37 25 27 31 31 25 23 19 27 29 17 9 21 21 23 25 42 25 25 31 25 25 27 27 27 23 35 35 31 37 35 33 37 29 21 33 15 29 37 40 27 44 35 44 48 40 37 35 37 50 44 27 44 44 37 50 37 37 44 35 37 27 23 40 35 46 44 46 37 37 25 25 40 31 37 
77 87 83 85 70 77 87 79 77 54 58 62 58 66 42 52 40 52 37 48 58 50 50 50 52 52 58 35 46 56 44 48 40 40 42 33 35 33 33 21 35 37 27 25 31 31 35 37 33 37 29 31 33 33 25 37 40 27 21 42 25 19 19 31 29 40 42 35 48 40 40 40 37 35 19 33 33 25 17 31 
27 29 31 29 25 37 29 25 29 25 29 17 17 21 17 29 25 19 19 11 15 27 31 31 29 25 27 37 13 27 25 23 25 23 42 33 23 42 25 35 17 21 35 31 46 44 46 33 33 40 40 44 33 40 37 37 31 29 37 27 40 33 46 46 37 29 46 37 15 35 40 29 37 42 56 19 9 21 35 23 
83 79 87 89 85 87 70 56 73 73 58 60 64 58 60 46 54 64 64 56 42 50 44 46 44 40 50 44 48 58 35 37 44 35 44 44 37 37 42 25 35 33 25 21 23 29 21 31 29 35 44 33 25 40 33 35 29 27 25 31 40 27 27 29 27 33 27 40 23 40 35 29 33 37 29 17 25 27 33 25 
25 25 37 23 19 29 23 23 40 21 25 21 19 13 25 19 19 17 19 11 9 21 25 31 23 29 23 23 21 23 31 23 33 42 31 31 25 27 33 27 31 33 37 31 40 40 52 37 33 31 40 42 35 21 25 35 33 37 35 33 33 33 44 31 23 40 21 37 25 37 42 31 29 44 44 46 7 23 37 37 
68 77 114 79 91 81 75 62 68 62 66 70 60 66 62 66 50 54 42 46 54 54 56 46 44 33 48 56 33 46 44 52 46 48 42 35 44 46 42 44 48 42 37 46 29 31 25 46 27 25 35 40 33 44 23 33 35 37 19 27 31 23 29 23 27 42 40 44 40 37 37 33 35 44 21 23 25 15 21 23 
31 37 29 25 25 25 27 35 37 42 21 29 11 23 23 27 19 29 29 19 19 29 37 31 35 27 21 27 37 37 31 19 31 42 37 25 25 40 31 31 37 37 40 33 42 35 50 23 31 33 44 48 42 37 37 23 40 35 35 44 52 48 33 31 21 29 25 29 33 17 29 42 23 46 27 25 19 37 29 29 
77 83 101 83 93 85 73 60 73 60 52 58 68 52 58 58 35 58 54 50 33 46 40 35 37 37 35 48 40 44 35 44 56 33 46 35 40 37 44 44 37 42 31 40 23 29 31 29 29 27 23 35 35 37 35 42 27 37 25 31 33 11 23 23 25 42 33 37 40 29 40 37 37 37 19 31 27 23 23 27 
29 27 25 17 21 21 19 33 31 25 25 21 25 27 23 27 15 23 21 15 21 19 35 35 37 15 17 27 17 29 27 21 40 31 33 13 17 27 29 23 33 29 27 35 40 37 46 25 37 29 42 44 33 33 31 37 44 37 42 31 40 42 35 19 27 25 29 19 29 37 35 25 25 19 23 27 25 33 35 27 
103 91 97 66 75 81 77 77 54 54 66 48 66 77 50 66 48 48 52 54 44 44 44 50 44 42 37 27 46 54 48 46 33 44 56 40 35 37 31 31 33 40 27 35 29 33 17 31 29 46 35 23 40 29 42 40 31 35 27 31 40 21 37 33 21 31 31 42 37 40 42 42 37 33 27 27 37 25 25 37 
35 37 27 17 19 31 19 31 31 25 23 23 19 29 19 15 27 23 29 33 21 25 27 15 33 21 31 33 25 25 29 29 35 33 33 37 31 35 31 21 23 29 31 35 33 52 42 37 27 37 46 44 44 42 42 46 46 42 44 48 54 37 37 27 23 25 19 17 17 46 37 23 25 29 35 27 23 37 44 31 
99 91 89 75 77 77 83 70 64 75 70 64 66 64 58 52 58 52 58 58 27 52 40 54 44 54 33 52 62 50 48 52 48 46 48 31 37 40 40 42 29 25 31 25 29 29 29 31 35 35 25 33 25 29 29 37 37 40 33 40 25 25 25 31 29 33 37 40 33 52 44 44 37 35 23 27 27 29 29 31 
29 35 33 21 23 27 21 29 11 31 29 21 29 7 23 19 19 19 25 33 27 33 29 23 29 23 31 23 27 21 33 35 27 40 40 27 31 31 35 27 40 25 31 31 33 40 46 42 42 37 50 35 48 46 31 42 37 33 44 42 31 37 19 25 23 15 19 19 15 37 21 48 21 29 31 42 29 21 29 42 
81 87 77 70 79 79 60 64 62 77 64 66 81 66 56 73 62 50 68 50 44 50 48 48 56 66 35 37 46 52 37 33 35 37 48 48 37 40 40 35 29 31 21 29 33 29 31 31 19 42 27 37 21 31 33 40 35 25 29 33 27 29 23 44 37 35 33 31 33 46 40 42 29 40 19 37 27 23 29 29 
37 37 27 29 33 29 29 31 23 29 15 19 17 11 23 25 33 25 29 23 25 37 27 33 29 25 25 27 19 23 29 25 35 33 44 37 35 35 29 35 31 31 44 52 35 37 42 50 46 56 54 50 50 42 40 37 48 27 52 35 46 35 29 23 23 19 19 19 21 19 19 19 25 29 23 21 19 17 33 31 
70 73 77 70 75 79 73 66 58 66 68 60 68 54 60 62 42 44 58 54 42 48 46 54 37 46 48 35 33 31 35 33 46 42 33 35 37 44 48 35 29 42 31 29 29 31 23 31 35 21 25 29 31 29 29 40 40 31 27 40 21 19 35 29 27 33 37 27 46 29 37 40 35 37 31 37 31 27 40 37 
21 37 33 37 31 29 37 44 29 31 23 23 21 23 25 19 29 31 31 31 27 37 31 29 33 23 19 27 19 31 17 19 37 35 35 44 35 33 37 33 33 44 42 56 35 42 40 44 40 54 52 25 40 35 37 44 46 44 44 37 31 27 42 25 15 27 13 27 35 19 31 21 23 23 33 15 29 29 29 56 
70 64 75 58 77 81 87 64 52 64 85 64 58 64 56 54 54 58 50 54 37 64 52 46 42 48 48 58 60 44 33 44 31 31 42 46 33 44 33 40 29 35 40 27 25 29 25 33 33 40 31 23 23 29 37 35 40 33 42 35 27 29 37 27 27 33 37 25 40 46 40 35 37 40 33 44 31 29 25 40 
42 40 35 42 31 19 25 29 21 31 29 25 35 25 25 17 33 29 35 25 29 40 42 33 27 25 33 31 31 21 19 23 33 27 37 37 44 35 40 35 29 46 40 37 48 31 31 42 37 46 44 48 33 42 33 48 35 37 35 25 40 33 23 19 17 11 19 15 17 23 17 25 27 31 23 29 17 31 37 42 
97 91 93 75 70 81 77 73 58 68 62 52 62 64 50 56 50 50 56 50 46 60 58 33 50 40 52 46 42 33 44 42 35 40 42 33 44 42 44 44 27 40 31 35 29 40 29 25 31 33 31 23 33 29 35 35 23 46 31 25 23 25 25 35 21 40 46 37 42 44 33 37 48 46 35 33 40 29 50 33 
40 35 37 33 35 31 40 29 37 42 31 27 31 21 27 27 29 40 27 25 25 31 33 33 27 27 33 33 37 33 35 29 33 33 42 37 46 48 40 46 44 46 42 50 52 52 48 56 44 46 50 48 35 42 44 42 37 40 35 44 27 23 27 21 31 17 21 17 25 31 37 17 21 29 29 27 27 27 35 37 
91 66 73 79 68 64 64 62 50 73 54 66 60 54 58 54 62 64 48 40 37 52 44 44 37 44 25 37 46 35 42 44 46 50 42 48 31 37 31 48 35 44 31 29 23 29 21 29 27 27 27 27 29 35 33 40 29 35 17 27 33 19 23 27 35 40 31 40 35 42 42 29 37 40 31 37 35 31 35 44 
48 42 37 46 35 35 31 40 27 37 29 37 31 25 37 35 25 27 31 31 31 31 33 37 40 25 27 27 31 35 31 35 40 31 42 42 35 42 40 37 33 48 40 31 48 35 37 40 46 46 54 50 50 40 37 48 54 33 23 27 35 17 21 31 21 15 27 0 29 27 17 21 31 25 29 40 19 40 31 33 
89 64 87 70 64 70 70 70 60 66 64 50 73 58 56 48 68 56 64 52 54 50 60 44 50 35 52 44 50 56 44 54 42 40 50 37 35 31 44 31 33 23 31 33 23 33 25 29 35 29 29 33 37 35 35 35 35 42 27 33 48 33 44 31 37 40 42 44 44 44 37 40 44 44 42 44 31 40 46 46 
50 40 46 35 35 33 48 31 35 35 40 35 21 33 31 31 23 33 33 25 37 40 35 29 27 33 29 25 27 33 31 33 37 33 58 46 42 42 44 37 48 54 48 48 42 52 42 46 48 54 52 58 58 48 37 50 44 50 25 25 23 27 23 17 29 17 23 7 15 17 21 25 23 23 46 19 19 37 44 42 
81 83 64 83 64 79 83 68 56 70 70 54 52 52 40 56 54 48 62 58 44 50 66 42 44 58 48 44 46 54 66 46 44 48 48 44 42 50 37 31 25 33 35 33 21 27 50 25 33 35 31 37 33 40 37 46 44 44 42 35 42 27 44 29 33 40 50 29 40 33 48 44 46 62 48 52 56 58 44 48 
73 66 58 40 58 54 42 42 52 40 44 50 46 25 27 35 35 31 35 27 33 37 40 27 29 25 33 37 29 29 31 33 37 46 44 40 50 48 64 48 37 46 52 46 42 56 50 50 42 48 56 60 64 52 44 48 37 27 17 27 17 27 21 17 33 27 17 2 19 29 31 31 37 31 31 37 33 40 44 42 
89 70 70 83 54 79 68 75 62 64 56 56 68 54 58 52 52 54 42 42 35 37 42 31 52 60 48 37 52 46 48 56 46 56 37 52 35 44 40 37 33 31 23 25 25 31 27 31 31 44 33 42 29 44 44 33 42 33 46 42 46 29 35 35 33 33 50 54 35 48 44 48 48 50 73 73 85 70 60 75 
79 93 70 58 64 54 42 52 50 35 40 44 31 48 33 35 33 31 31 33 29 35 33 23 27 35 33 31 25 40 37 33 17 31 46 46 44 52 54 35 50 50 52 64 58 50 46 52 50 58 52 60 44 56 40 35 35 27 25 25 25 27 31 25 27 17 15 13 27 13 19 17 15 27 37 29 23 25 48 40 
83 77 99 70 73 60 60 70 62 58 46 66 60 50 56 54 62 56 48 50 58 52 50 46 50 56 40 42 48 37 52 48 46 56 42 48 37 40 48 37 48 33 40 31 19 27 33 37 23 35 29 33 33 25 44 48 40 35 42 31 44 29 50 42 29 48 44 44 44 40 44 62 64 89 83 108 116 112 108 126 
130 126 101 122 101 89 66 62 66 50 52 50 42 37 37 44 35 42 33 27 35 33 27 27 40 40 35 46 35 37 31 35 31 42 52 46 44 35 54 54 50 56 60 48 56 58 54 46 48 58 62 62 46 40 48 44 35 33 29 33 25 27 29 25 13 21 19 11 21 21 25 31 33 35 37 33 23 31 56 50 
83 83 79 70 60 68 58 66 68 73 52 52 48 62 60 64 29 50 54 46 42 48 42 40 42 52 35 48 44 42 54 46 42 54 44 46 40 42 52 46 44 31 31 31 21 29 37 21 21 31 33 35 29 31 31 35 35 54 35 33 44 35 33 35 40 52 44 48 46 54 70 73 79 116 120 132 130 142 132 150 
150 163 152 146 152 150 138 101 75 54 60 50 52 48 46 44 37 42 42 37 25 25 29 31 33 27 27 33 35 42 33 48 40 33 37 48 35 50 44 64 62 44 44 50 60 44 60 50 56 62 56 52 37 37 31 37 31 35 23 21 27 17 19 21 13 15 17 0 17 29 31 21 40 29 31 52 40 48 48 50 
68 64 70 58 73 58 64 46 56 52 42 48 64 44 42 48 35 37 54 35 40 44 37 50 50 46 48 40 44 37 52 44 40 35 35 31 33 35 52 40 40 33 29 37 27 17 17 23 21 27 29 29 31 33 42 35 25 29 29 42 29 33 42 29 37 50 48 42 35 50 73 97 99 122 126 128 150 146 165 165 
179 177 183 187 175 173 181 161 157 97 87 68 60 54 40 35 35 44 35 44 40 31 35 35 40 37 29 35 33 42 37 37 35 42 44 31 40 42 46 58 56 54 52 60 52 46 52 40 50 58 50 52 33 27 40 25 23 37 35 27 11 15 17 19 21 11 13 19 29 13 23 29 25 23 27 48 33 52 52 56 
62 64 54 56 58 56 58 56 58 44 35 46 50 42 35 44 44 35 35 31 35 21 23 29 31 31 37 27 42 27 46 46 29 42 23 25 40 19 33 25 33 35 23 35 29 29 27 23 29 25 25 25 21 31 35 44 42 31 31 31 40 35 42 40 40 48 56 46 52 73 85 103 106 140 126 144 177 173 185 187 
201 213 228 230 220 201 205 209 199 183 167 120 79 42 48 40 40 50 42 33 35 35 35 33 42 46 33 33 23 29 40 37 46 40 35 46 35 44 37 40 44 44 56 48 50 62 52 40 42 50 58 60 44 33 19 31 23 33 23 25 25 29 25 9 13 4 25 27 23 23 35 17 29 27 25 42 40 44 48 50 
89 52 50 48 40 62 58 50 46 48 40 42 46 42 35 35 33 37 44 35 27 23 40 33 23 42 27 19 33 31 40 23 27 33 25 29 19 23 31 13 27 23 21 21 19 21 23 23 29 23 25 23 27 17 21 33 31 27 33 37 48 21 40 35 33 40 58 50 62 81 87 81 114 140 159 157 183 185 222 222 
220 248 242 274 246 252 232 234 246 205 199 187 132 77 60 44 44 46 40 42 31 23 29 46 42 42 29 42 31 29 35 33 29 33 46 44 48 40 37 33 52 56 44 44 50 48 44 44 54 58 50 44 44 31 33 27 25 33 44 21 11 23 21 27 7 7 4 11 29 37 15 23 37 31 31 42 42 44 46 58 
70 68 64 60 48 54 46 33 46 35 40 54 54 52 33 42 42 35 42 31 31 23 33 23 33 29 23 29 25 33 35 23 31 25 21 42 25 23 29 27 37 35 29 27 9 21 13 13 21 19 21 33 15 23 29 33 21 33 31 25 25 21 44 33 44 54 64 73 79 93 101 136 157 201 213 226 274 254 264 278 
280 282 274 301 297 291 303 278 266 266 246 232 201 138 95 66 54 40 50 50 46 42 42 48 50 33 31 27 31 35 44 27 44 40 44 42 31 46 44 52 50 58 50 54 42 52 44 46 48 46 56 44 48 37 33 31 29 27 21 25 17 17 42 19 21 13 21 15 29 29 25 21 40 33 54 40 33 44 50 46 
87 54 66 68 54 60 56 46 52 64 50 56 37 48 48 33 46 42 35 33 25 23 33 40 19 35 21 19 21 42 35 21 25 29 27 21 31 37 29 15 27 25 23 19 17 25 25 29 25 21 31 17 31 23 27 27 19 19 21 23 25 29 35 40 54 64 70 85 89 108 144 157 157 195 220 234 268 287 313 347 
357 361 351 355 343 377 369 349 319 309 297 282 258 230 175 130 99 77 42 46 48 44 29 46 48 42 40 37 50 42 42 33 40 40 50 46 27 42 56 46 60 50 58 54 58 60 58 54 44 56 52 50 40 37 27 29 29 27 15 19 25 17 27 13 19 13 19 21 13 29 21 48 52 40 35 44 52 44 42 37 
58 56 62 56 58 62 44 44 56 35 52 35 31 27 56 35 48 42 35 35 29 27 31 33 19 27 21 19 15 27 25 19 31 33 11 17 17 21 29 21 25 21 25 25 11 13 11 17 7 13 21 21 21 9 13 33 19 21 17 17 23 23 33 25 79 56 77 81 97 112 122 150 146 167 197 217 258 266 297 349 
387 409 420 414 444 454 440 430 395 367 353 313 289 266 238 179 146 87 46 48 46 50 42 54 46 35 33 46 42 40 37 40 40 42 62 44 37 37 44 37 35 54 54 60 44 62 60 52 44 35 48 44 48 37 35 23 37 25 9 17 23 17 23 11 21 23 31 21 9 40 29 35 37 42 40 50 44 46 50 40 
68 60 68 56 56 58 64 64 46 54 46 46 48 33 48 33 27 44 40 29 21 31 35 21 27 21 15 25 19 15 17 27 19 23 25 13 19 23 17 27 21 19 25 13 13 13 15 25 15 23 25 25 23 21 21 27 23 27 19 9 27 15 31 52 85 77 87 108 114 150 150 157 161 173 193 268 349 361 361 389 
424 456 500 514 549 549 565 543 526 480 444 397 363 325 291 213 201 142 75 52 48 46 33 35 46 33 29 35 48 37 42 37 40 46 42 42 40 46 60 40 50 35 48 58 54 48 58 50 50 48 50 46 35 19 42 27 17 29 23 25 27 19 15 19 19 23 33 19 31 42 33 52 44 37 48 35 37 44 46 37 
75 66 60 52 54 52 58 50 48 40 40 50 40 46 52 42 35 31 37 25 29 31 31 27 21 19 29 19 25 31 23 27 21 29 25 29 17 25 21 19 11 23 9 15 19 17 11 19 15 19 17 17 21 21 21 33 15 21 11 15 27 33 52 68 68 87 89 110 122 150 150 146 163 222 305 426 484 480 498 472 
496 530 563 596 612 608 604 616 602 587 563 510 450 399 347 282 254 207 124 77 60 40 37 40 33 31 25 29 37 37 33 27 33 42 42 29 46 46 35 37 48 42 48 42 46 48 50 46 44 40 35 29 25 15 25 13 31 21 29 19 23 19 19 21 17 23 33 23 40 35 27 50 58 46 35 42 46 37 44 48 
56 56 58 54 50 54 50 46 46 50 48 54 37 31 35 46 27 35 42 40 40 40 35 27 29 25 27 23 27 25 23 31 21 23 21 19 15 21 25 23 27 23 15 17 4 15 19 11 19 15 21 19 21 33 19 25 19 21 27 27 27 33 50 64 83 99 122 110 140 144 157 183 250 331 442 536 559 579 579 563 
561 587 592 596 614 627 608 614 614 590 583 585 561 484 418 367 311 254 169 122 73 60 44 25 35 33 31 21 25 25 33 27 40 48 25 31 31 21 37 35 42 40 40 37 48 62 50 60 42 48 37 40 29 23 21 35 23 25 29 19 17 21 25 29 35 33 46 40 35 48 62 46 52 40 37 48 29 40 48 46 
60 60 70 52 54 73 56 50 60 50 44 44 42 46 35 44 27 40 37 35 31 29 21 21 31 13 27 23 23 17 17 40 23 37 25 15 19 19 17 17 17 17 11 19 21 21 2 23 19 35 25 25 21 21 13 23 21 25 27 21 25 42 77 97 106 120 118 124 134 152 215 246 325 414 534 588 598 604 612 602 
608 608 608 608 614 614 608 602 600 592 592 600 604 571 478 399 341 287 222 152 91 73 50 37 33 40 42 35 27 17 31 23 31 25 29 21 23 33 40 29 35 40 35 42 33 35 42 31 35 37 37 35 31 27 29 27 25 29 15 13 23 13 25 23 25 44 37 33 37 42 50 52 46 42 42 31 29 54 40 48 
75 46 60 50 50 52 50 50 52 46 27 42 48 46 44 35 35 33 33 31 29 15 27 33 17 7 15 27 29 4 21 17 21 13 13 13 11 13 15 15 25 23 17 13 19 13 23 21 17 21 23 23 17 19 21 11 27 13 21 11 27 48 91 126 128 144 130 142 167 209 250 301 403 506 573 585 604 588 604 608 
602 608 608 602 602 608 606 592 594 602 587 594 594 600 549 448 379 327 250 197 99 46 40 40 35 31 23 25 27 19 25 27 21 21 25 17 29 25 25 35 21 35 29 40 29 40 33 40 21 27 25 35 25 23 21 17 25 23 19 13 17 15 23 17 29 21 35 31 31 40 42 48 42 40 35 42 29 40 40 35 
75 60 73 75 54 64 56 46 54 60 48 37 50 46 44 52 37 48 44 31 15 27 23 42 27 23 23 27 25 19 17 25 19 25 19 31 17 21 21 27 23 25 31 23 21 15 9 15 11 25 19 29 29 21 25 23 23 25 33 23 44 81 122 167 173 171 152 152 217 266 291 409 490 579 581 587 598 590 600 608 
612 602 608 606 600 592 587 583 588 596 592 604 598 592 596 538 454 369 303 222 110 66 29 40 40 35 25 27 25 23 21 27 31 29 25 21 29 42 31 29 46 31 35 35 33 42 37 42 27 40 37 33 31 27 23 31 23 19 21 29 21 27 29 23 27 29 40 37 27 52 40 44 37 40 52 42 31 37 46 52 


