P2
80 60
509
182 188 160 104 80 85 91 123 158 164 169 164 138 145 136 145 134 143 136 134 130 128 121 138 130 130 141 166 303 391 412 269 171 138 123 115 102 113 119 91 115 108 100 95 80 82 85 72 95 87 93 82 91 102 97 82 89 78 93 80 78 89 80 74 93 80 80 91 97 136 186 258 376 347 416 347 265 228 160 115 
186 177 141 97 93 100 132 136 173 177 169 156 145 156 147 134 136 138 130 138 123 134 117 119 128 145 188 324 424 410 220 130 134 123 104 106 104 100 102 97 100 110 104 97 85 89 82 78 95 87 89 97 89 89 85 89 91 87 82 78 80 78 87 89 108 95 117 149 201 288 385 366 416 355 241 158 117 128 104 97 
192 173 119 95 89 93 117 145 171 166 164 160 149 145 154 151 154 147 123 134 132 132 123 123 162 207 351 426 326 169 125 123 108 113 110 106 110 106 113 93 106 104 100 95 89 87 97 85 95 97 82 89 82 85 80 89 80 89 85 80 78 93 100 119 136 171 231 277 351 389 428 347 209 138 95 91 78 87 100 97 
171 147 119 91 100 106 115 130 171 188 158 147 147 154 164 154 151 141 151 136 143 147 138 162 282 408 441 286 166 128 123 108 110 108 104 106 102 100 104 78 104 97 97 110 106 106 102 102 93 87 104 95 97 87 78 89 78 80 97 89 91 115 149 182 290 381 418 405 345 245 177 115 102 93 93 93 85 93 91 85 
186 147 104 89 87 89 100 119 177 162 154 154 151 149 145 134 130 138 145 143 132 164 201 337 457 414 250 143 113 110 113 102 104 100 102 89 93 97 89 82 102 97 104 108 106 104 104 110 97 95 89 95 89 93 89 78 82 87 102 113 128 205 311 372 424 408 368 216 123 108 91 78 85 78 78 87 76 91 80 80 
222 184 82 93 87 97 97 136 162 149 154 158 147 149 149 141 145 136 143 154 162 237 385 455 428 235 151 128 110 108 106 104 100 97 95 91 93 91 85 87 85 106 106 113 108 102 113 91 95 108 85 100 95 87 78 95 113 134 154 228 326 422 412 424 294 190 143 97 104 97 78 67 82 76 80 67 74 69 72 72 
186 117 87 74 67 89 108 132 145 149 147 145 130 141 141 141 134 134 160 190 233 447 449 355 194 136 130 115 123 117 102 106 100 97 97 91 78 97 93 93 97 93 104 108 108 110 115 102 106 102 95 91 102 97 123 128 188 262 412 457 405 401 239 117 108 78 97 80 89 85 76 76 80 63 56 52 74 76 67 78 
121 100 85 69 61 63 108 147 154 154 177 164 162 171 149 141 158 154 190 275 453 430 269 164 145 128 123 119 123 119 108 104 102 102 89 95 95 102 97 100 104 104 106 113 121 108 91 102 110 117 102 121 132 145 207 324 482 509 467 376 228 134 106 91 91 65 100 91 93 100 85 72 76 63 54 61 72 80 87 85 
93 89 97 82 82 80 100 136 156 160 197 218 209 188 169 166 158 182 275 432 378 228 143 141 130 121 125 119 121 121 102 110 110 108 91 108 97 104 104 95 119 113 108 115 121 104 91 100 91 106 121 132 199 309 465 499 482 332 205 108 82 78 80 74 74 76 78 89 93 89 80 67 80 59 67 72 74 80 87 76 
102 95 97 82 89 93 100 91 104 156 201 235 224 235 224 205 218 307 422 376 199 162 128 125 128 132 121 123 119 117 106 106 125 113 110 125 100 106 91 106 108 121 130 119 110 95 95 100 106 158 203 326 410 457 459 258 151 108 97 69 69 91 67 76 72 59 80 85 87 85 78 56 69 65 56 67 67 85 89 95 
119 125 104 93 102 104 100 113 171 218 226 239 228 245 241 258 355 443 353 224 156 154 130 138 134 119 123 125 115 121 119 121 123 106 108 115 89 102 108 106 117 108 113 110 113 110 121 154 209 313 381 414 434 169 108 78 93 67 95 80 80 85 72 59 78 72 65 89 78 76 82 63 65 63 72 63 65 95 113 143 
203 173 138 115 91 117 117 171 207 231 226 243 233 252 275 387 430 362 231 177 147 156 143 138 154 134 136 151 128 123 115 108 117 113 102 102 100 106 97 100 110 117 132 132 156 177 286 370 355 416 378 205 108 89 72 63 65 76 67 63 74 76 76 76 72 76 69 82 87 74 69 61 65 74 59 102 115 179 211 260 
192 186 162 149 147 138 125 190 203 224 231 256 262 311 414 432 343 237 197 164 154 164 169 186 190 166 160 166 162 143 117 119 125 108 113 113 113 121 110 100 125 130 173 231 349 430 403 360 296 149 119 100 76 78 67 72 56 56 63 69 56 74 65 69 89 72 74 89 89 89 65 82 100 141 147 235 307 345 337 313 
190 173 184 175 160 166 199 175 190 173 190 228 330 438 430 332 226 222 184 156 179 188 194 209 205 166 179 190 160 166 136 121 128 123 117 115 115 119 123 136 173 228 353 416 447 368 299 132 100 106 85 102 87 87 69 74 59 63 59 63 56 74 91 74 76 67 80 87 82 100 123 160 235 322 345 345 330 288 216 162 
184 177 173 164 134 188 169 173 151 169 190 305 455 408 277 222 192 182 182 192 205 214 209 201 220 224 203 199 207 194 177 173 169 154 141 145 141 156 166 201 303 385 491 353 224 132 102 104 108 95 97 91 80 76 72 61 56 74 61 56 54 78 87 59 72 76 87 115 160 226 288 301 372 376 309 224 201 143 110 110 
179 179 166 164 171 169 171 162 216 175 299 430 339 209 171 169 175 164 173 190 197 203 214 211 239 220 220 220 226 243 207 207 220 211 197 190 201 265 368 362 447 307 169 134 121 106 108 106 100 106 104 102 89 59 63 61 67 63 65 50 61 72 76 102 121 158 245 292 334 284 387 290 228 151 106 121 93 74 87 113 
169 160 160 151 141 151 156 164 199 282 449 301 173 164 158 162 160 164 154 160 143 164 175 188 199 205 214 211 228 233 233 235 233 239 252 282 341 403 385 262 190 143 151 130 115 117 104 93 102 117 115 113 97 63 56 67 56 59 54 52 85 110 169 231 313 337 313 328 309 201 145 110 110 95 95 95 104 106 87 91 
160 158 149 156 134 158 147 175 267 416 273 177 145 156 145 154 147 136 151 149 141 147 138 162 171 162 173 205 220 216 205 252 286 349 389 399 424 322 216 143 182 158 149 134 130 123 117 100 110 123 121 128 115 67 48 33 41 63 91 151 235 320 360 318 326 311 228 147 106 89 95 97 85 97 97 91 95 91 97 95 
149 164 132 147 149 151 145 162 199 231 156 154 151 151 141 147 128 132 132 143 134 143 138 134 136 134 141 154 173 239 228 328 416 420 376 241 190 231 188 199 188 175 184 164 166 130 123 108 104 121 113 119 123 104 76 67 97 201 326 347 355 326 279 203 125 100 102 91 87 85 97 89 89 78 85 87 82 74 82 78 
130 130 138 138 130 158 141 149 151 125 117 134 123 123 130 125 125 130 132 138 138 141 136 149 136 134 138 175 190 290 385 428 383 243 166 154 171 188 192 179 188 190 186 186 182 158 145 121 119 125 119 130 141 156 177 256 207 320 328 334 184 123 97 91 97 80 93 80 85 91 85 82 93 93 91 85 80 85 78 56 
117 117 108 134 110 138 121 130 113 138 130 134 130 132 138 134 136 121 125 125 141 128 136 125 138 164 179 199 326 385 271 197 164 130 162 136 128 158 175 158 169 177 179 188 177 166 151 134 141 158 173 186 250 330 309 334 218 121 82 80 82 95 78 89 80 74 78 72 85 87 87 82 89 80 87 87 78 82 91 85 
128 125 130 154 138 154 125 121 125 123 128 130 125 128 132 123 125 110 130 130 123 136 115 138 145 173 296 360 271 145 106 113 138 136 121 128 121 145 147 149 156 179 177 173 177 162 173 171 216 288 311 282 347 284 177 65 48 24 54 69 80 87 82 76 74 63 85 87 85 91 82 85 85 85 85 78 74 80 89 76 
106 136 119 119 115 110 121 119 117 115 123 123 121 143 136 119 119 121 115 113 121 130 125 130 156 188 207 160 121 117 115 119 117 125 121 123 119 138 128 119 132 143 143 173 177 190 271 328 362 324 309 254 151 82 61 39 26 37 56 72 74 69 97 78 80 76 91 89 89 91 76 82 89 82 85 89 78 80 85 100 
138 141 121 143 132 141 134 119 128 123 128 136 123 128 125 123 108 117 119 117 119 130 119 132 121 123 121 123 106 128 121 130 130 119 125 119 113 136 125 108 136 160 177 192 279 374 358 316 299 192 123 125 108 61 48 5 28 26 52 65 69 74 80 80 69 74 82 87 78 80 82 80 85 87 78 85 93 78 85 95 
121 119 117 113 132 130 128 110 128 123 128 125 136 130 128 117 113 115 113 113 110 132 115 143 121 115 104 115 110 110 110 115 115 115 104 106 93 128 123 102 130 194 224 311 305 182 136 136 119 125 97 108 80 72 37 11 0 18 41 54 61 67 74 65 65 76 82 87 82 91 82 63 80 82 87 87 85 78 78 78 
119 132 123 125 117 119 121 119 115 132 132 136 130 123 117 130 113 125 119 115 119 136 130 119 121 106 108 106 113 110 125 113 110 110 100 108 106 117 121 100 160 239 245 173 132 115 134 117 123 97 100 82 67 44 28 24 13 16 56 41 54 78 82 76 78 89 104 100 74 82 74 72 80 85 85 82 87 72 89 67 
119 117 130 134 123 110 113 115 113 115 123 115 113 102 110 113 121 125 113 113 110 123 119 125 121 113 115 110 119 104 117 95 100 108 110 106 97 104 125 102 125 106 134 128 115 128 123 108 106 106 97 95 76 82 48 39 37 50 52 65 63 82 80 82 76 76 78 78 80 78 80 74 74 76 80 82 87 85 87 82 
102 113 119 123 97 106 113 115 100 110 123 113 100 108 123 128 128 128 115 119 108 115 108 117 106 113 106 119 113 97 104 106 110 93 104 113 91 106 115 89 110 100 113 110 121 106 117 91 110 110 89 78 67 80 82 54 50 59 74 54 67 78 82 69 76 76 76 85 93 95 85 74 80 82 87 85 80 89 82 89 
97 104 108 113 102 100 119 106 102 93 110 102 110 117 125 128 123 123 125 113 123 123 113 113 117 106 115 104 115 108 97 97 93 121 119 119 91 125 110 87 97 106 104 113 106 87 97 91 110 93 87 78 74 78 65 61 61 72 74 67 72 78 87 72 74 87 74 91 85 82 85 69 74 87 72 80 69 89 80 74 
97 100 104 106 91 102 102 91 104 119 117 110 125 132 143 130 121 134 115 117 125 121 115 117 113 106 100 119 115 100 91 95 80 82 100 104 89 97 108 93 102 102 102 110 106 102 97 82 102 80 87 76 74 69 63 72 72 69 69 61 69 72 67 72 76 80 74 80 80 82 72 76 78 82 87 76 72 69 65 63 
93 91 102 113 87 100 97 97 115 132 141 143 147 145 130 136 143 141 145 123 130 121 117 125 128 108 104 117 110 117 102 106 108 95 95 104 87 91 106 85 95 100 113 100 102 95 100 76 89 95 91 80 91 72 87 78 72 63 72 63 67 78 82 80 85 78 78 85 74 80 74 85 89 67 76 80 74 85 87 82 
87 93 97 100 89 121 106 115 134 141 138 154 138 147 147 147 143 143 138 123 117 117 110 132 123 106 106 117 121 125 102 113 110 100 104 100 78 95 93 91 91 93 91 93 102 87 76 85 74 91 85 91 78 65 65 78 56 69 78 61 63 72 82 69 74 82 82 87 95 85 82 78 80 78 76 76 74 82 87 97 
95 104 97 104 104 156 143 121 128 130 134 143 149 145 162 162 147 145 134 121 125 125 119 132 119 110 95 119 115 108 97 106 115 108 119 102 95 87 93 95 104 95 104 100 91 95 85 85 85 89 78 82 78 72 76 72 69 80 78 67 65 74 82 69 74 74 85 100 76 87 85 67 72 78 91 85 87 74 80 87 
87 80 102 110 125 169 136 125 125 123 125 143 149 158 173 175 158 149 151 138 132 128 143 128 125 108 117 117 115 108 93 106 108 104 104 102 91 102 91 85 93 93 93 104 93 93 95 74 85 91 91 76 87 87 87 74 78 65 78 63 59 72 80 76 74 78 91 93 89 82 91 74 85 78 74 82 85 87 93 95 
72 89 108 158 136 166 136 121 123 115 121 164 166 154 166 149 158 138 138 143 132 125 138 134 119 115 115 125 119 119 106 119 117 104 104 95 89 100 89 93 104 104 104 102 76 91 85 85 91 82 82 76 74 67 78 69 67 72 76 69 72 76 65 72 67 80 76 89 67 80 69 74 80 87 74 80 76 74 80 91 
69 100 95 138 128 156 121 115 123 113 115 138 158 169 164 154 158 147 130 125 143 154 134 130 130 104 113 117 106 113 106 97 97 93 93 93 97 91 85 93 97 91 106 97 89 91 80 74 89 87 76 72 67 72 67 76 80 78 74 65 59 65 80 67 76 59 82 76 89 85 80 67 74 76 74 76 74 76 74 72 
74 91 91 145 138 179 138 125 115 119 117 147 173 177 175 173 173 156 149 149 158 160 154 149 141 132 110 110 108 102 95 87 87 78 100 106 87 97 91 89 106 89 100 89 91 85 93 82 91 87 82 104 82 74 85 87 65 61 76 59 65 76 76 74 76 76 89 74 85 95 85 76 65 87 76 74 80 80 80 80 
85 91 104 138 143 154 121 108 123 108 134 143 156 173 171 162 177 160 162 164 160 162 166 171 171 138 113 106 97 100 93 85 85 87 91 85 89 87 102 78 95 80 100 89 85 76 89 78 74 85 89 78 87 67 72 72 78 65 59 56 63 72 76 63 72 72 72 76 80 80 80 72 69 72 72 63 50 69 76 76 
95 74 97 156 154 160 108 113 115 104 113 156 149 171 179 164 162 160 171 164 164 162 166 169 166 147 149 125 113 100 97 82 89 89 78 85 82 93 97 87 95 87 87 93 91 87 82 78 82 89 76 85 82 76 78 76 59 65 54 54 67 78 72 78 61 74 76 80 65 67 69 72 69 87 63 59 54 78 74 78 
95 104 119 156 154 162 110 108 104 115 106 149 138 145 156 149 166 166 166 169 173 160 151 162 179 151 138 149 110 100 97 89 76 74 89 89 85 87 95 89 108 89 91 91 87 82 85 82 97 82 89 63 87 76 74 80 76 63 61 59 65 72 97 76 67 63 80 78 63 76 76 85 65 85 72 72 72 76 82 78 
97 106 123 156 128 141 119 106 128 125 117 128 115 130 121 143 143 158 186 151 138 147 130 143 147 138 136 121 121 100 82 91 74 87 85 93 87 104 89 87 106 102 93 93 87 82 82 85 100 93 69 72 82 80 82 91 72 78 69 74 63 93 89 80 78 85 76 82 72 82 82 74 74 93 85 80 74 76 82 78 
108 121 143 138 130 141 117 119 125 134 115 125 117 113 132 143 141 158 158 141 134 138 128 141 149 123 121 125 108 110 91 87 89 91 85 100 95 95 91 93 102 93 100 102 93 87 95 91 82 76 80 89 82 76 82 97 76 69 72 65 80 76 91 72 65 89 89 69 76 89 78 67 74 78 78 74 76 95 80 85 
121 132 147 117 121 123 123 119 119 125 115 123 130 121 130 145 149 134 134 132 123 134 119 125 145 125 115 123 97 87 80 78 89 97 93 104 95 97 119 100 117 97 97 91 100 85 91 87 89 74 85 93 80 72 82 80 69 67 76 69 91 93 89 65 72 95 80 67 85 95 78 67 93 85 76 76 63 76 80 95 
132 136 123 119 115 128 119 113 117 123 117 123 113 125 125 125 134 138 138 125 123 123 117 123 130 128 119 117 97 93 82 87 82 93 100 102 89 89 104 85 110 104 93 100 89 87 91 89 97 85 82 82 76 80 74 76 63 69 74 67 74 72 85 82 61 72 80 76 87 80 87 69 76 80 74 63 76 82 87 87 
121 117 123 132 104 138 125 119 125 113 121 108 125 119 128 130 123 123 130 113 117 113 108 123 123 123 110 113 97 95 80 80 82 95 89 89 87 89 106 78 97 87 95 104 102 87 97 87 78 87 76 78 82 76 76 74 76 72 63 61 67 74 82 63 50 67 74 76 74 76 85 67 78 78 74 72 80 69 76 89 
138 119 130 128 115 125 110 110 123 108 123 113 113 115 119 130 138 119 130 108 121 113 108 115 117 115 97 121 108 91 93 85 74 85 82 95 91 97 104 82 85 91 97 95 87 102 87 87 95 82 82 89 87 76 78 78 85 65 59 72 78 65 95 63 67 76 82 91 65 69 93 78 102 87 72 69 74 85 80 67 
130 117 134 134 121 113 125 113 110 119 110 115 102 121 106 108 130 108 128 113 115 115 104 119 123 108 104 91 97 80 87 87 74 78 78 87 91 97 97 89 106 110 97 95 82 85 89 85 97 89 76 78 76 80 80 65 74 63 69 69 74 69 82 63 67 69 74 78 74 82 87 93 89 85 82 87 76 82 65 69 
138 125 128 136 128 130 128 121 125 115 119 125 110 121 117 125 132 117 113 121 113 130 125 115 115 104 102 100 89 80 80 85 80 82 102 85 80 104 97 91 106 104 100 106 93 87 93 85 100 91 82 89 89 87 72 67 59 63 65 63 63 76 80 69 74 80 80 76 87 87 91 74 91 78 76 85 65 67 67 61 
132 119 121 134 115 121 132 134 123 119 125 117 117 119 119 123 119 117 108 102 110 117 117 106 121 110 108 97 89 89 85 85 91 85 93 91 91 91 102 80 97 104 97 106 93 91 89 76 95 93 82 78 80 74 78 76 80 72 72 67 59 67 63 69 63 72 67 74 80 76 89 76 85 76 59 67 69 67 69 61 
125 128 132 128 119 121 117 141 125 110 130 121 128 121 102 95 95 95 97 106 106 117 117 121 100 106 100 95 82 85 95 80 78 78 87 89 87 91 91 89 102 100 102 93 97 91 93 93 91 87 85 74 80 72 74 74 76 61 63 61 56 72 67 67 69 63 76 78 74 74 76 85 78 65 59 54 56 52 56 69 
128 138 138 130 121 128 123 162 169 147 171 160 110 128 115 104 82 91 97 97 100 113 115 119 110 97 104 93 102 91 89 82 76 85 80 89 93 93 102 91 104 121 104 104 95 93 104 91 100 95 87 74 87 87 85 82 72 65 63 59 67 80 72 67 59 80 87 85 80 72 65 63 69 61 52 65 63 61 61 76 
136 138 136 143 130 149 149 218 241 271 303 294 237 179 128 110 97 102 106 74 102 121 108 108 119 115 97 89 106 93 93 91 89 85 89 85 85 95 104 85 104 110 121 110 115 100 104 91 97 95 91 82 80 91 67 89 61 59 78 59 74 82 63 78 67 69 76 69 76 78 76 63 76 78 63 85 74 85 74 65 
143 130 141 145 136 166 220 299 294 288 296 328 324 265 205 134 87 100 93 91 117 115 110 113 117 108 102 93 106 93 87 78 87 93 97 89 85 108 100 93 106 110 117 130 108 115 97 97 91 95 100 87 89 93 80 82 59 69 78 72 65 63 65 59 74 56 69 85 76 80 74 67 82 78 65 69 78 76 80 85 
147 138 151 145 145 245 292 301 305 290 294 301 275 269 216 190 115 97 91 97 110 117 110 113 123 97 104 100 110 91 87 82 93 87 87 82 87 100 102 91 113 123 123 119 117 95 87 89 93 97 113 106 100 97 85 82 65 74 67 61 52 69 69 67 65 67 87 82 74 80 95 80 78 74 65 85 72 85 67 85 
128 138 141 156 164 284 307 326 292 269 269 275 250 290 218 192 136 93 95 108 121 121 100 110 117 106 95 91 102 82 89 80 87 80 93 80 82 97 100 100 110 115 110 119 102 76 80 76 97 102 100 97 91 89 74 78 63 61 63 54 61 63 74 72 65 78 69 76 78 78 87 76 80 67 76 89 82 78 97 82 
128 141 128 134 177 273 301 277 258 245 245 265 256 275 248 222 156 106 97 100 110 123 110 110 110 91 87 97 93 97 87 82 100 91 85 87 85 93 100 95 100 106 110 117 117 93 93 89 104 104 95 95 89 87 87 74 67 63 59 65 52 69 63 61 69 72 78 72 78 82 87 85 78 78 85 85 74 85 65 72 
136 149 147 179 158 233 243 241 214 220 254 260 252 271 275 231 173 149 108 97 113 125 110 110 93 89 97 102 87 97 93 76 93 93 89 76 87 104 100 93 113 108 110 108 89 91 93 95 89 102 76 85 89 87 74 76 65 67 74 69 65 61 67 74 74 74 85 69 78 87 89 69 87 76 74 87 82 89 76 95 
138 149 162 203 194 218 186 169 138 173 271 279 273 265 254 235 197 143 102 102 123 123 110 100 95 87 97 102 95 93 85 80 89 87 95 93 91 110 106 93 108 113 106 97 91 104 95 95 91 89 80 87 82 80 74 97 87 76 69 65 69 74 74 69 72 67 91 59 89 85 87 78 95 80 87 93 100 78 85 87 
158 147 177 209 222 207 182 156 141 216 282 284 267 275 277 252 226 164 134 102 117 117 115 104 97 102 95 95 89 78 74 87 80 76 82 87 91 110 119 106 91 97 97 110 95 100 95 76 61 76 87 76 91 87 80 93 93 89 67 65 74 72 74 67 61 59 74 56 67 82 85 85 87 74 85 89 80 87 76 82 
162 149 175 171 164 166 143 138 138 248 286 318 271 277 258 250 239 188 108 95 102 115 102 106 106 87 93 87 78 74 78 78 78 82 95 100 97 106 97 67 82 100 100 102 91 72 85 76 72 93 78 82 82 89 78 80 74 85 72 69 69 65 76 72 69 61 65 72 69 72 85 82 82 89 80 72 89 97 93 97 


