P2
80 60
105
52 64 54 60 49 58 47 49 54 64 49 49 52 58 54 64 56 54 67 41 52 52 47 60 54 56 49 39 34 34 32 34 45 30 41 39 32 30 28 21 36 43 36 39 47 41 49 43 36 52 52 56 62 56 52 64 54 41 41 34 49 39 34 39 36 52 45 36 58 54 62 56 54 52 71 60 43 58 75 73 
39 75 47 54 49 62 45 52 56 67 43 60 60 56 56 58 49 67 36 47 34 45 39 41 49 41 36 30 34 45 36 47 41 41 41 24 36 32 36 32 34 30 34 36 32 36 45 47 47 47 47 67 58 45 69 67 62 49 30 39 34 26 39 45 43 43 41 41 47 56 58 52 54 49 54 56 49 52 67 79 
41 71 47 56 56 62 52 58 54 64 56 43 47 52 47 64 60 56 64 47 43 47 47 36 47 41 45 43 39 43 39 39 47 45 47 36 39 52 34 41 34 28 39 41 30 56 60 52 52 45 54 56 58 62 56 71 45 58 43 41 49 49 43 30 43 45 43 39 45 41 45 45 47 52 56 47 56 56 64 58 
32 47 69 60 64 71 54 54 56 73 54 52 54 56 56 62 64 64 49 49 47 56 34 47 52 52 41 41 41 41 39 34 32 32 34 41 34 32 32 30 36 32 32 41 39 58 52 52 49 36 47 54 56 56 58 69 49 52 43 47 47 39 47 30 41 45 47 41 47 36 52 47 49 58 52 54 54 41 62 64 
39 67 67 52 64 60 54 71 56 64 56 56 52 54 62 58 64 69 52 56 52 52 41 54 62 47 58 45 36 34 36 34 45 36 36 36 41 36 45 34 32 32 45 54 43 52 41 52 41 41 49 49 60 54 67 67 58 60 43 47 36 41 36 32 45 32 34 34 45 32 47 32 45 47 52 47 45 34 69 77 
39 64 67 60 77 73 49 64 54 52 49 54 52 47 58 64 54 58 49 60 56 54 62 52 54 52 47 45 34 39 32 52 45 49 34 39 43 39 41 30 43 43 39 43 49 49 49 41 41 43 52 49 54 58 56 54 62 54 34 30 41 43 47 34 32 45 36 41 43 39 41 36 32 49 54 43 49 47 64 73 
41 58 64 58 69 62 49 62 54 56 54 54 47 52 56 64 60 54 54 58 52 56 52 60 54 39 43 39 49 36 45 47 43 43 36 36 32 26 34 30 43 43 34 34 36 34 41 45 43 41 64 60 58 52 49 62 52 47 45 39 28 34 39 21 32 54 45 41 39 34 49 34 41 32 54 43 43 47 54 62 
45 64 56 73 62 56 45 54 60 34 64 52 62 56 67 49 60 67 56 49 43 56 54 39 45 47 41 43 49 45 43 49 45 34 43 26 47 30 45 30 39 39 39 36 43 47 41 36 39 43 54 54 49 52 56 64 60 54 32 39 34 30 41 43 36 36 45 34 36 47 41 36 54 52 47 43 52 41 45 64 
47 60 60 69 56 67 56 56 56 58 56 62 49 64 64 62 62 58 45 41 45 45 49 47 47 45 39 43 54 36 39 34 43 30 39 47 41 34 30 30 45 32 39 39 47 45 56 45 47 47 47 56 60 43 52 64 49 47 45 39 28 34 36 34 21 36 45 34 41 34 43 39 52 36 45 41 36 45 64 52 
43 58 56 71 71 73 58 69 64 60 43 60 54 49 56 58 45 56 45 49 39 52 56 49 49 43 45 41 32 26 28 45 49 41 41 39 28 36 36 36 47 41 43 47 41 39 43 52 45 36 49 47 56 56 64 60 56 49 39 41 26 28 21 24 26 28 32 36 49 32 54 39 45 45 47 49 47 49 34 58 
43 73 54 52 62 62 41 62 58 67 56 45 45 47 58 60 47 56 52 45 47 56 54 45 49 54 36 47 32 36 30 34 47 45 28 28 39 34 30 26 39 30 43 43 43 41 43 41 45 52 58 58 52 52 54 52 49 45 32 39 19 32 36 28 26 39 32 21 43 39 58 34 47 47 36 49 36 36 47 54 
47 64 49 67 58 58 60 58 64 58 56 47 47 67 47 49 54 54 41 49 39 45 43 49 52 39 36 39 36 41 36 47 36 34 36 26 34 28 32 36 41 32 43 45 41 41 54 45 54 56 47 54 67 47 49 58 62 49 24 17 41 34 43 24 28 21 36 36 21 30 45 36 47 49 32 49 47 34 49 49 
34 52 45 71 52 52 69 52 56 58 47 45 49 43 41 60 41 49 52 49 54 54 49 36 58 41 34 39 32 39 32 41 34 41 30 43 24 30 39 30 36 28 45 47 39 47 43 39 47 34 39 58 58 43 41 47 56 36 30 24 26 19 17 26 34 34 30 39 30 24 41 28 26 30 32 28 47 36 36 58 
45 56 41 62 52 54 49 47 62 64 52 52 52 52 47 49 41 52 41 43 49 58 34 41 47 39 34 39 26 34 43 24 41 47 30 49 26 26 34 28 34 24 34 43 34 34 39 45 43 39 32 43 56 52 52 56 47 52 32 34 17 17 28 24 32 21 30 26 30 41 45 39 24 30 45 52 49 47 47 36 
39 56 52 64 64 62 56 54 58 54 47 52 43 60 49 56 43 43 56 43 32 54 39 39 41 45 28 32 36 26 26 28 36 32 34 43 30 28 30 36 34 30 34 36 36 34 36 52 39 32 32 34 47 58 45 58 47 43 30 28 21 30 30 6 17 26 34 32 26 30 32 30 36 47 34 41 45 30 36 36 
36 56 49 52 71 56 49 45 52 56 47 39 36 56 45 58 36 36 36 43 41 45 36 28 45 34 36 30 32 39 26 32 30 34 28 28 39 34 28 28 36 36 36 41 26 45 32 32 36 36 32 49 45 60 56 54 52 45 39 34 21 24 26 21 17 15 34 32 28 34 45 17 36 28 36 47 43 36 34 32 
24 60 49 58 60 52 45 47 49 47 52 41 43 32 43 43 36 52 45 43 36 49 41 41 39 32 36 34 36 34 32 34 28 36 41 32 28 30 30 26 32 39 32 32 34 47 26 41 34 30 26 36 45 49 41 52 43 43 28 21 15 13 17 26 11 17 17 30 24 24 41 36 32 26 32 41 36 30 32 26 
43 62 56 62 62 62 43 32 49 47 43 45 45 39 45 54 39 41 41 41 32 47 39 36 52 30 32 26 39 41 39 34 34 26 34 34 28 30 24 24 41 30 34 32 36 43 39 39 36 32 28 30 43 56 56 45 49 41 21 30 17 24 15 17 19 26 32 19 26 19 26 19 26 34 34 36 43 24 32 30 
39 73 47 69 71 64 52 39 49 39 30 47 36 49 39 49 36 47 45 56 45 36 47 41 36 39 34 41 32 32 28 39 41 34 41 34 39 41 30 32 28 32 32 28 39 30 28 32 28 26 39 43 43 52 43 56 41 34 36 11 21 19 24 24 8 17 21 19 21 26 26 26 32 19 30 34 34 34 32 32 
34 67 43 49 56 56 45 45 47 47 30 45 43 49 39 41 39 43 47 43 36 52 47 41 47 52 32 36 26 32 28 36 41 34 24 28 30 30 30 30 28 24 28 19 30 43 26 41 32 26 28 36 45 45 43 47 47 41 41 30 15 24 13 11 4 19 15 19 24 21 30 24 32 30 24 32 24 11 19 39 
32 54 47 47 49 52 43 52 45 52 28 43 41 45 47 45 47 45 49 41 32 41 41 39 47 47 32 34 36 36 26 34 30 41 41 17 36 39 39 32 26 34 30 28 28 41 34 36 39 32 21 39 36 47 56 52 41 49 45 34 21 19 19 15 8 30 24 6 21 28 26 19 28 30 41 45 34 34 30 45 
36 56 45 52 58 45 43 49 43 41 39 30 36 36 49 52 49 56 41 45 45 41 34 32 34 43 32 26 36 24 6 30 36 32 39 21 32 28 28 39 34 28 34 24 28 30 34 47 41 36 26 32 36 43 49 49 36 45 36 30 26 26 21 15 17 19 19 17 28 26 28 19 34 26 34 26 34 24 41 43 
34 41 43 39 56 49 36 32 49 36 30 34 30 45 47 36 34 43 39 41 36 41 49 43 36 32 47 34 28 19 21 26 47 30 28 19 36 32 28 39 39 28 26 24 26 30 28 39 32 36 30 26 45 43 30 41 45 45 36 24 26 15 30 13 15 17 32 17 17 28 26 17 32 36 28 26 26 21 28 24 
28 56 45 52 47 52 32 41 41 43 32 39 26 34 43 39 45 41 41 28 41 36 41 32 47 34 34 24 26 32 13 41 28 39 32 26 39 32 32 32 28 30 34 26 32 26 28 26 19 32 24 28 34 54 52 52 47 47 30 32 19 17 15 15 6 17 17 21 19 17 32 24 28 28 26 36 28 21 32 15 
30 54 47 52 36 47 39 36 47 45 39 36 36 43 32 36 47 47 34 32 32 32 34 36 30 34 28 34 17 30 24 32 28 21 19 21 26 34 41 49 39 24 41 24 32 34 24 36 43 36 30 28 32 60 47 62 47 41 26 41 21 13 17 19 11 30 26 11 26 21 32 15 17 21 26 39 34 21 34 34 
24 54 45 36 47 41 26 39 34 41 21 41 43 39 47 36 45 49 34 21 30 32 45 36 26 36 24 21 30 17 30 24 19 34 28 13 30 41 34 30 41 43 26 32 28 32 32 36 36 30 24 30 32 64 54 54 47 49 34 21 13 13 24 15 26 30 30 26 24 24 39 26 19 19 21 34 34 21 32 28 
24 49 47 47 49 45 39 39 45 49 36 41 39 28 39 41 43 58 41 34 32 26 34 39 36 43 21 32 30 34 34 26 21 28 21 24 32 28 30 34 34 32 28 45 26 21 32 26 28 28 26 28 34 60 64 49 45 49 30 28 21 19 26 21 8 21 30 4 13 13 24 30 26 28 21 21 32 13 26 32 
21 47 41 36 43 45 24 26 41 36 39 32 32 24 26 30 41 47 36 24 28 41 39 32 26 34 32 24 30 32 21 32 26 32 21 24 32 15 21 21 41 26 28 17 30 24 24 28 24 34 30 36 28 54 54 43 41 45 32 26 24 6 26 24 6 21 11 6 21 17 36 21 26 17 19 34 28 24 36 45 
11 60 26 43 30 45 39 43 39 39 39 30 24 21 36 36 26 30 47 32 34 34 32 28 28 41 47 21 28 32 19 30 30 26 36 19 24 32 32 36 36 43 32 24 26 28 17 30 36 30 21 28 45 56 52 47 56 39 36 32 21 19 24 11 8 19 6 24 17 19 36 17 19 21 13 15 19 26 30 49 
19 52 39 32 41 32 36 24 45 52 36 36 28 41 39 39 30 41 28 30 39 26 28 34 39 39 34 32 32 39 17 26 30 30 28 21 24 26 36 39 30 41 28 15 26 32 24 26 26 28 32 30 32 58 41 39 43 32 47 26 15 8 15 17 19 28 6 17 19 26 32 26 13 8 30 26 26 19 30 15 
24 52 28 30 30 32 28 32 43 45 30 36 34 30 28 39 30 30 41 24 26 30 24 26 30 30 19 30 30 34 15 24 28 24 26 24 28 24 24 28 28 26 19 19 24 15 4 17 30 28 28 30 39 45 49 26 28 47 36 21 11 26 17 21 15 15 21 13 13 24 24 21 21 11 34 41 26 26 17 21 
11 45 30 34 30 36 24 28 32 34 28 45 26 28 28 41 30 34 21 28 15 30 34 32 24 36 28 21 21 39 19 21 26 13 28 13 21 21 26 32 24 26 26 17 28 17 8 28 11 24 30 28 36 30 39 36 24 30 45 28 17 11 11 6 19 8 21 11 24 13 26 24 19 15 15 26 15 11 30 30 
6 45 39 21 28 30 28 13 32 43 26 39 30 19 30 30 19 41 28 26 15 28 28 26 34 28 19 28 28 28 17 39 28 32 24 24 21 28 34 24 30 15 19 19 17 30 28 8 19 17 32 32 39 43 34 36 21 43 39 30 21 28 21 19 15 17 17 19 19 26 28 17 17 24 28 24 26 24 36 30 
15 47 30 34 36 32 26 26 19 21 24 34 34 26 43 34 26 41 36 28 26 13 30 41 26 28 26 30 13 30 17 24 19 28 28 19 19 30 28 19 30 26 26 21 26 26 26 28 36 34 30 36 45 30 34 28 28 36 56 30 13 24 17 19 17 0 11 19 19 13 28 8 26 15 24 32 32 28 26 19 
19 41 41 47 41 41 24 26 21 26 19 26 30 21 32 21 30 32 24 30 34 24 30 11 30 34 26 30 26 21 21 30 26 24 30 17 30 30 26 17 21 21 39 30 24 32 28 26 32 28 24 36 34 43 43 19 30 32 41 41 21 21 19 8 8 19 11 17 15 26 26 15 30 36 30 24 8 28 26 24 
11 39 32 30 36 30 19 34 28 19 19 34 30 32 34 32 41 34 21 28 24 28 32 30 28 24 24 24 30 28 17 24 32 21 26 17 28 26 19 21 17 17 28 34 21 34 30 19 34 43 41 41 58 58 54 28 34 30 43 32 26 24 17 13 15 15 13 13 21 17 32 15 17 19 26 26 30 26 24 24 
0 30 24 26 30 34 15 24 19 24 21 32 21 30 24 41 28 24 24 24 28 30 28 26 24 28 19 28 28 32 24 21 26 26 28 17 15 13 19 15 28 24 26 30 36 30 36 32 56 56 43 47 54 56 45 28 26 30 45 28 17 30 34 17 11 21 17 15 19 19 47 28 8 15 28 21 34 13 17 28 
2 21 24 30 24 28 24 21 24 24 15 41 13 30 28 30 26 26 21 39 24 21 30 34 28 34 24 24 26 28 30 19 21 28 32 19 26 24 21 21 24 19 34 17 21 30 28 43 64 45 26 30 45 36 49 26 36 24 39 36 19 26 24 19 26 26 13 19 24 15 36 28 21 17 17 19 19 17 28 34 
2 39 24 30 19 19 17 13 15 21 24 30 26 28 28 24 19 28 13 30 28 28 30 26 21 32 15 19 21 24 17 8 28 32 28 11 34 17 17 21 19 19 17 17 24 24 28 21 26 32 30 32 41 43 45 28 32 24 24 34 24 15 21 28 4 13 8 13 19 21 28 15 21 13 19 24 17 30 26 26 
15 36 34 39 39 39 28 32 21 32 30 39 32 28 28 26 30 32 19 28 24 28 32 26 28 24 21 19 21 19 19 19 21 24 30 21 36 30 26 17 28 26 26 21 28 24 47 36 43 43 26 24 36 39 36 36 30 28 39 28 13 24 30 26 13 24 15 17 34 19 34 26 24 19 34 21 24 17 30 34 
13 43 47 39 39 32 36 30 39 39 28 36 32 32 36 28 24 26 32 30 17 32 30 41 32 21 21 17 24 19 28 17 21 26 26 17 26 24 11 21 21 19 24 17 24 24 36 30 41 36 36 24 36 34 41 41 21 34 36 39 17 28 19 19 15 13 24 19 26 26 24 19 34 28 30 32 19 28 30 30 
13 36 32 36 32 43 43 34 43 32 32 32 28 34 39 34 26 28 30 26 28 34 21 15 32 34 19 26 21 15 15 26 28 24 13 13 24 21 19 17 28 32 24 24 19 30 21 30 39 32 32 32 26 39 30 28 26 30 34 32 26 13 26 15 15 21 21 15 28 15 24 19 19 24 32 30 30 19 24 34 
17 45 34 47 45 47 36 41 47 32 26 39 30 32 24 41 30 15 21 30 26 34 30 34 41 32 28 21 19 17 17 24 21 36 30 15 13 17 26 24 28 21 32 26 17 26 32 24 47 39 32 36 34 28 32 45 21 19 36 41 28 28 21 13 24 19 21 13 17 30 26 19 28 26 30 26 21 21 28 24 
19 52 30 28 41 34 34 39 52 47 34 41 30 34 30 26 36 34 30 28 24 36 41 39 34 32 21 26 26 17 15 28 36 26 36 26 15 28 17 24 21 26 17 24 26 41 34 24 45 41 30 34 24 39 34 30 24 11 39 39 21 19 21 34 24 32 36 21 26 21 26 30 30 17 28 26 21 30 39 49 
13 43 34 36 43 47 39 30 45 49 41 39 26 41 24 34 24 39 34 21 28 26 28 36 26 28 28 24 13 24 19 24 39 30 32 19 15 15 26 17 21 26 24 8 21 30 21 36 41 47 34 30 26 28 34 36 24 19 30 32 21 13 24 13 17 13 32 19 15 19 36 26 13 26 15 13 28 21 30 41 
15 43 36 41 45 43 47 32 39 52 43 43 28 43 43 39 39 36 39 28 32 28 26 24 28 32 21 28 32 26 32 32 34 39 34 17 17 19 24 19 24 32 30 19 36 41 28 19 45 45 39 34 41 28 34 34 39 19 28 45 24 26 36 21 17 21 21 24 26 28 32 28 26 28 32 24 24 30 30 28 
11 45 34 43 43 28 45 30 39 39 36 41 36 45 34 47 34 39 26 21 24 30 39 32 32 24 32 28 21 24 19 28 32 43 32 32 21 26 19 24 26 15 30 24 26 36 32 26 32 45 39 28 21 28 43 41 19 21 34 28 45 24 34 15 8 26 30 19 24 8 34 30 19 21 26 34 24 32 32 39 
11 47 36 43 45 39 39 34 43 49 30 47 45 41 41 47 30 43 26 26 39 43 41 43 28 36 26 28 26 21 32 30 32 28 32 28 24 28 28 24 26 36 32 36 39 43 26 24 43 39 36 34 39 34 36 30 28 32 45 41 32 24 39 15 24 21 28 17 24 26 47 41 39 24 43 34 34 34 39 34 
30 45 52 45 52 41 39 49 45 52 36 41 54 41 47 45 41 54 30 30 45 39 52 39 39 39 26 26 36 34 28 28 43 41 47 30 36 30 30 15 28 32 36 32 41 30 43 32 43 60 41 32 36 39 30 32 36 36 28 39 32 17 39 21 24 28 30 17 24 24 45 34 47 32 32 36 28 24 43 36 
32 62 41 64 49 54 43 43 52 39 49 45 52 49 52 49 36 36 39 32 45 30 52 49 30 34 36 30 41 28 28 28 32 36 34 34 24 32 34 30 30 32 34 36 39 43 32 26 56 52 43 32 30 39 43 32 41 32 43 45 26 15 26 21 17 24 32 30 28 28 36 30 41 36 34 47 39 30 43 45 
34 60 41 49 49 56 45 47 45 45 41 36 36 52 52 56 47 54 54 34 39 45 45 49 49 39 19 34 36 43 32 41 34 30 36 34 34 32 41 28 34 49 43 49 45 43 36 45 56 62 58 41 41 41 32 36 34 21 43 36 26 19 11 28 17 30 32 26 28 34 45 24 34 34 43 45 39 32 41 49 
24 62 43 62 49 49 49 47 56 47 36 54 56 45 45 49 54 64 47 39 39 49 49 52 52 34 36 36 41 56 41 30 36 28 41 30 32 39 39 39 47 43 45 36 47 54 56 49 54 56 58 43 41 47 41 43 45 30 39 41 39 24 30 26 15 34 30 28 24 28 41 21 26 39 41 49 26 28 39 32 
34 67 54 54 52 52 52 58 56 58 30 52 54 60 47 52 56 60 47 36 36 54 45 47 52 45 36 28 32 49 34 52 41 52 49 32 43 49 41 36 47 47 49 49 47 52 49 45 49 67 56 47 43 52 47 39 41 41 39 45 45 30 28 30 28 17 24 24 36 21 41 28 36 45 52 39 41 34 36 39 
41 77 45 60 64 60 60 49 62 62 56 60 49 49 56 49 41 64 47 43 47 43 49 56 58 52 34 28 21 28 45 45 56 54 54 39 39 39 52 45 41 58 54 47 49 56 49 47 56 62 71 49 45 52 54 47 39 41 41 36 43 34 26 32 41 28 28 19 34 39 43 39 32 28 41 41 47 52 43 28 
45 67 79 69 69 56 73 49 67 69 47 62 39 47 45 56 47 49 47 54 47 47 58 49 43 39 43 34 36 36 28 39 49 45 56 49 54 62 47 67 54 60 62 47 52 64 58 41 69 79 79 62 60 60 56 54 52 41 49 45 36 39 39 41 36 24 36 36 45 36 54 36 43 39 43 41 24 32 41 45 
54 73 62 58 67 54 69 62 64 54 52 58 60 47 54 43 67 64 45 49 52 47 49 56 43 43 32 21 32 47 32 34 43 45 71 77 62 81 67 67 60 64 71 69 73 71 62 64 79 84 86 62 60 62 73 62 52 39 49 47 34 36 34 34 34 28 30 34 43 32 32 47 54 34 41 52 30 43 43 39 
34 75 52 75 64 58 60 69 67 69 47 56 52 52 58 67 52 58 54 58 67 52 52 45 45 36 32 32 28 41 26 39 47 58 86 71 75 84 64 62 69 79 67 77 77 86 75 79 86 79 73 67 77 64 67 77 62 62 58 64 39 26 32 47 24 43 36 21 41 34 45 41 26 49 49 43 41 36 43 30 
45 77 45 56 67 52 49 47 56 64 56 58 64 58 56 54 47 58 54 47 58 54 34 47 45 36 30 30 28 36 30 56 43 64 86 77 67 86 81 75 75 79 73 69 81 105 84 67 81 79 79 69 71 75 69 67 69 71 58 56 39 36 41 34 36 41 32 41 34 28 49 49 34 43 36 58 52 34 34 41 
39 56 60 77 67 56 58 36 64 62 60 60 47 54 52 47 56 64 54 47 49 47 52 52 36 49 39 36 21 32 30 64 62 67 75 81 75 79 69 69 60 84 79 79 79 90 81 67 86 75 84 75 62 75 75 71 81 73 71 69 45 36 28 32 28 24 30 45 41 39 43 41 34 30 39 34 30 36 34 43 
21 69 71 75 43 54 60 34 54 67 60 49 49 45 49 45 49 52 56 58 39 36 32 52 39 34 47 21 24 24 26 34 64 64 64 75 64 64 64 56 75 75 81 84 69 79 77 64 86 88 75 67 64 73 67 60 71 64 56 41 36 19 13 13 4 24 17 26 21 24 39 26 45 36 41 17 15 17 28 36 


