P2
80 60
866
661 583 380 302 265 272 276 250 265 268 244 248 248 270 265 261 268 278 281 272 270 285 294 322 585 866 598 334 283 270 274 268 259 255 250 246 246 285 438 629 513 324 291 298 296 278 274 265 274 274 276 291 283 281 283 291 298 294 317 313 296 311 311 300 298 298 281 259 244 261 257 255 255 233 250 246 244 228 233 224 
667 521 339 294 268 265 278 263 252 263 250 259 242 272 268 283 281 287 302 283 300 306 306 419 796 771 410 337 291 265 265 252 257 248 246 263 268 345 623 572 347 294 302 313 298 298 294 300 309 300 289 281 289 291 287 296 291 302 302 309 317 319 306 300 302 300 291 274 270 268 255 244 233 224 257 244 237 222 226 213 
629 447 317 283 276 270 261 252 257 270 248 255 263 259 274 268 281 285 289 283 289 315 334 513 731 519 328 304 283 276 265 255 246 235 244 250 289 500 608 408 302 294 291 296 287 281 289 296 287 285 285 278 287 283 298 296 298 289 291 300 298 304 298 306 304 296 276 270 261 246 248 250 233 242 237 239 235 226 215 196 
585 371 311 285 255 263 261 263 272 263 263 274 255 272 278 283 276 276 298 281 300 319 380 694 652 341 306 285 276 274 268 252 248 244 252 270 401 568 517 309 298 283 294 289 291 281 289 304 296 276 281 281 289 283 296 289 298 283 287 294 291 304 302 315 287 281 283 283 257 259 248 244 248 250 242 215 222 242 202 204 
553 343 276 274 265 265 265 263 263 272 283 270 261 291 285 281 291 283 285 281 294 311 502 612 451 296 265 278 276 270 259 255 244 257 263 326 606 587 356 291 300 296 285 270 281 272 304 287 281 278 289 289 287 278 285 294 300 274 287 294 294 302 289 296 285 298 283 270 246 242 257 246 259 252 242 200 220 222 209 182 
485 322 281 289 265 265 261 265 274 278 274 283 283 311 302 291 294 291 285 265 300 373 677 585 337 261 257 272 255 252 250 248 248 250 304 489 604 406 319 304 300 283 283 302 278 289 285 283 281 274 276 287 285 287 278 289 285 272 291 296 285 287 287 298 287 281 276 265 252 248 255 250 252 228 222 196 222 213 209 196 
421 313 263 278 270 283 265 263 285 268 281 276 281 309 326 315 285 287 278 289 311 494 602 421 300 272 272 274 257 242 228 244 257 261 401 667 538 311 300 298 291 278 289 302 281 285 294 270 278 276 287 272 274 281 278 287 289 291 287 296 294 291 276 283 274 285 265 268 250 255 252 257 252 224 211 200 209 217 226 211 
403 289 268 276 268 268 263 268 255 281 276 285 287 315 302 294 272 268 283 309 380 636 523 306 285 278 276 274 255 226 207 220 246 345 741 704 337 315 291 287 283 278 283 278 278 283 289 283 285 272 283 276 285 281 296 300 298 287 276 283 276 278 289 285 281 283 268 250 257 246 239 239 224 200 224 220 213 235 224 200 
326 298 250 255 268 257 268 281 261 261 276 278 287 313 302 283 281 276 298 371 572 615 399 302 287 278 291 257 235 200 182 191 261 543 792 444 306 298 309 289 285 278 287 274 289 285 283 296 278 281 283 289 304 302 300 302 304 281 281 285 278 283 300 281 294 289 270 252 263 248 226 226 220 213 220 224 231 226 228 220 
298 276 263 281 272 272 265 261 283 270 283 294 281 309 291 281 296 309 343 447 663 536 339 300 304 296 265 237 211 142 140 149 306 762 600 313 294 291 300 287 289 283 285 287 298 300 300 291 294 274 276 283 296 294 298 291 302 291 278 287 294 291 294 287 294 287 294 276 263 255 239 220 220 193 220 226 224 222 220 193 
281 259 274 281 281 274 263 261 281 265 265 285 283 291 304 276 296 352 365 677 677 414 313 296 300 268 259 209 160 58 49 165 547 596 360 309 287 291 304 298 291 289 291 291 300 300 302 300 283 272 270 274 283 281 287 300 317 304 285 289 300 291 294 283 298 285 274 285 268 250 233 250 237 222 231 231 228 226 215 222 
285 268 289 276 268 261 274 272 281 283 278 291 289 298 306 309 324 367 500 748 540 352 317 306 300 278 281 257 129 58 56 309 560 289 185 281 276 298 285 289 291 296 315 294 294 306 311 311 294 274 289 298 289 300 289 289 291 300 285 291 298 289 276 283 302 283 287 278 272 259 259 246 237 222 239 224 220 217 217 202 
300 276 268 283 274 274 274 281 278 291 287 296 294 315 311 311 339 393 808 777 412 326 309 298 309 306 311 304 217 189 196 610 451 74 87 151 255 296 296 291 294 294 298 300 302 304 298 317 289 289 278 287 278 283 300 296 291 302 285 274 289 287 294 296 304 281 283 285 285 270 261 255 257 244 237 231 220 217 213 193 
294 283 276 270 283 289 287 302 300 291 296 304 298 328 306 315 352 530 819 591 326 306 313 304 315 322 319 319 315 334 551 589 156 23 43 63 136 263 259 283 296 298 306 304 300 311 306 306 287 287 300 289 289 294 302 285 283 272 274 272 294 294 274 294 283 304 270 287 283 278 265 252 261 237 235 228 233 222 215 200 
298 287 248 283 274 285 302 298 298 302 304 311 304 302 315 306 395 764 737 395 330 311 317 315 326 317 319 350 322 416 617 367 83 43 25 40 67 89 118 226 291 291 309 313 296 311 300 298 291 285 285 291 289 272 283 272 281 278 270 281 272 276 276 285 281 272 278 283 281 281 257 263 246 233 242 228 235 239 215 204 
289 274 278 289 289 291 283 311 291 291 300 302 294 302 328 313 479 681 523 332 309 313 324 339 317 341 332 347 365 600 534 319 167 45 36 23 18 0 149 274 296 289 306 302 311 285 287 291 289 283 289 287 298 285 283 268 285 268 278 276 261 272 281 272 261 270 281 272 259 261 248 246 255 242 248 233 237 239 237 217 
294 291 278 281 285 289 302 294 294 300 289 289 298 315 324 367 677 629 373 334 317 302 332 337 330 341 334 352 500 572 395 315 283 142 16 7 9 76 259 291 296 287 306 306 300 291 311 294 294 287 287 291 291 278 276 272 268 276 265 276 276 270 278 257 283 274 285 272 263 257 250 248 252 250 257 228 239 237 231 207 
287 283 287 300 294 289 304 294 302 311 298 311 319 334 360 481 642 500 334 313 324 324 347 343 343 356 365 447 612 506 324 315 296 257 54 31 65 237 294 294 294 291 291 304 294 294 291 285 287 281 291 298 278 268 274 281 265 265 270 263 278 268 276 272 263 272 276 265 263 244 255 242 265 274 263 252 261 244 239 224 
298 291 285 285 285 287 309 311 302 319 324 309 319 347 384 652 629 386 330 328 326 337 347 345 356 373 395 623 621 371 326 300 298 189 114 169 259 283 298 294 298 287 291 300 298 311 304 324 300 298 287 276 276 268 283 274 291 270 276 289 281 278 270 263 265 274 263 250 242 233 265 239 244 259 274 265 268 252 261 226 
309 296 283 302 283 289 298 315 326 322 337 334 326 363 496 623 492 371 337 337 347 341 363 358 380 388 532 696 462 332 315 300 272 246 296 289 298 309 296 298 298 291 300 306 294 296 298 296 300 294 298 285 274 291 276 261 268 278 263 287 265 278 274 263 268 252 248 244 244 239 250 250 248 250 272 250 272 268 250 239 
313 296 294 304 300 306 311 309 332 330 337 341 365 401 638 617 384 354 354 350 375 371 380 369 386 436 754 644 343 311 313 311 317 291 287 291 311 296 298 291 287 278 291 300 296 291 298 300 296 278 306 278 274 281 270 268 294 265 276 276 278 265 246 263 261 239 242 237 242 235 250 246 252 244 242 263 263 268 257 237 
296 294 300 302 324 317 317 315 350 332 326 343 363 504 608 502 380 367 384 395 391 408 408 403 427 612 688 434 326 326 326 326 317 306 296 300 313 304 296 294 291 276 287 306 298 296 298 296 298 276 278 291 283 278 278 274 283 285 274 274 263 250 246 246 242 246 224 224 231 246 244 259 255 250 239 246 252 257 252 233 
298 283 296 311 319 324 315 328 337 334 343 369 425 602 549 399 421 401 395 397 425 410 395 367 447 642 509 350 322 326 317 319 311 309 296 298 317 302 311 294 294 281 306 287 289 298 298 294 294 285 281 283 289 283 294 270 281 278 278 268 263 252 242 244 239 248 224 231 220 224 255 248 235 261 263 235 237 250 265 248 
302 294 300 319 322 330 332 332 332 371 388 395 534 627 492 406 412 414 410 395 380 371 367 369 587 566 388 358 332 309 328 309 306 294 289 311 311 306 306 315 304 298 289 296 294 281 285 298 296 287 283 289 300 272 274 272 289 274 268 270 265 259 261 252 248 233 237 226 224 231 239 244 250 246 257 244 231 246 250 255 
304 306 304 317 319 337 352 371 380 388 436 464 667 673 460 423 421 395 388 345 371 354 384 515 566 425 345 339 350 317 311 304 300 317 309 296 306 311 302 300 309 291 289 306 294 300 296 289 278 283 276 289 259 259 259 268 270 270 285 263 263 263 263 250 242 246 265 246 233 228 233 261 244 250 263 252 250 244 263 261 
315 319 341 345 347 369 382 393 419 432 462 606 681 572 429 388 375 363 354 347 345 343 386 612 498 352 360 350 326 322 300 309 311 304 298 302 298 300 309 300 287 298 298 300 300 287 300 304 289 276 289 296 274 278 270 259 274 274 281 283 270 268 263 265 263 270 268 263 270 248 268 270 244 246 270 263 265 263 263 259 
334 345 354 360 373 388 395 403 419 455 477 745 731 416 375 360 350 343 347 324 324 337 440 447 345 313 322 317 296 300 319 311 313 298 289 289 289 294 289 302 287 300 289 298 296 287 289 291 296 276 281 285 268 276 274 278 274 270 276 283 270 268 263 263 263 276 283 291 274 287 278 274 259 248 244 261 261 278 287 255 
352 360 360 386 399 412 425 434 451 466 540 741 581 380 365 354 328 330 313 317 317 334 341 304 313 315 322 317 304 306 311 304 317 304 304 287 291 302 302 306 298 294 298 302 285 306 300 304 306 287 272 268 276 270 291 289 274 274 285 272 268 265 252 272 259 281 291 281 283 276 272 265 250 255 272 252 265 270 291 270 
384 373 384 401 427 442 442 425 406 410 640 621 451 358 334 322 315 317 315 309 298 319 313 302 311 294 300 304 302 291 304 319 304 306 289 300 294 296 291 296 298 298 289 296 298 302 285 283 285 278 281 272 265 276 294 276 276 272 270 268 274 274 261 263 274 270 289 281 270 259 261 250 244 252 276 276 278 285 294 265 
397 397 397 425 416 425 386 382 358 410 675 528 367 334 322 317 309 309 311 309 309 324 306 302 298 300 304 311 300 300 304 304 315 315 317 291 296 291 294 291 298 285 278 313 306 300 285 291 281 270 259 268 276 270 294 283 283 285 268 270 261 276 274 276 268 270 304 285 259 259 274 250 259 261 261 278 285 291 291 252 
408 395 408 395 378 360 371 352 375 517 570 419 330 317 309 309 298 300 300 296 313 319 300 317 306 300 326 330 309 306 296 304 311 306 287 289 294 296 294 298 287 287 289 300 289 300 291 296 283 259 272 272 263 261 278 285 302 274 276 263 265 272 278 285 276 281 300 272 250 257 265 257 255 257 265 276 285 274 281 268 
397 365 345 341 339 328 339 339 408 636 475 341 317 313 298 294 306 298 309 298 309 306 313 302 313 311 326 322 300 291 304 309 294 315 300 289 302 296 306 304 302 281 291 304 289 285 306 289 281 259 281 274 265 268 276 278 274 289 261 270 257 261 281 285 272 283 296 265 242 248 268 255 268 257 283 270 283 278 276 239 
341 317 326 332 315 324 326 326 498 553 416 317 302 317 328 306 309 296 311 300 302 309 304 309 315 324 313 306 298 298 300 309 300 294 311 298 296 302 309 298 291 289 296 311 300 287 285 281 283 272 265 278 265 261 270 270 274 270 276 285 257 281 276 283 300 276 263 265 242 246 237 257 268 272 272 287 289 270 274 270 
328 309 300 332 319 306 330 350 502 419 334 300 304 309 304 296 304 300 298 298 294 309 304 302 313 306 313 300 283 289 296 304 291 300 306 274 298 306 291 300 291 285 287 289 283 289 291 278 281 261 270 274 274 289 274 268 287 265 263 270 276 281 283 283 283 268 246 246 235 242 233 252 257 265 272 265 274 285 274 268 
311 296 278 315 315 315 330 332 414 354 309 306 294 315 315 302 306 319 306 296 304 294 304 309 304 300 319 291 302 313 306 296 304 287 294 291 285 296 298 304 294 285 287 289 296 291 289 276 289 287 283 270 278 283 265 283 268 270 265 255 270 276 285 263 276 270 257 248 250 244 248 252 281 261 274 276 283 287 268 248 
291 289 300 304 306 313 315 322 324 313 313 309 298 324 302 296 306 289 313 311 311 322 313 298 296 324 306 298 289 296 304 309 304 306 291 289 294 304 296 298 300 287 270 291 281 300 296 291 285 281 287 285 276 259 278 268 261 268 259 281 278 285 278 270 265 255 252 252 246 255 252 259 242 276 259 270 274 272 268 248 
298 291 302 296 289 287 315 315 317 306 296 302 289 313 302 291 304 289 311 304 317 302 326 315 309 298 302 304 281 300 309 313 296 289 294 281 300 294 302 294 289 287 291 291 283 285 298 281 285 272 274 281 259 265 274 261 270 272 278 296 291 255 252 257 257 265 263 252 244 242 244 248 252 242 265 265 244 252 272 237 
317 300 296 289 278 296 311 324 315 306 306 289 304 302 304 296 302 304 300 311 337 324 315 309 311 300 298 291 304 302 296 306 298 309 298 285 287 300 289 300 294 287 291 285 291 281 283 274 283 270 272 276 263 268 259 270 272 278 289 283 285 257 235 235 228 244 259 265 252 246 226 246 261 242 257 246 259 263 265 244 
330 298 287 268 276 306 309 313 309 296 291 283 304 294 289 296 304 304 324 330 326 328 313 319 311 306 319 302 302 309 298 296 294 298 315 298 289 298 309 291 309 300 296 300 294 289 289 289 285 259 265 268 263 265 278 281 289 289 300 278 263 259 246 244 244 244 255 263 259 239 228 244 255 257 263 257 291 274 270 252 
311 287 289 278 289 300 306 296 311 306 306 306 302 302 298 304 311 315 332 313 313 330 322 306 309 306 311 304 294 304 306 302 309 296 302 298 278 285 304 289 298 302 309 306 287 296 283 274 287 276 265 274 283 257 270 294 281 278 283 272 270 259 248 246 255 255 261 259 246 257 252 242 250 255 257 281 270 274 272 263 
306 289 281 289 294 302 306 306 302 313 302 300 298 306 309 304 328 322 332 326 315 311 296 296 289 306 313 306 296 296 306 311 324 300 289 296 302 306 302 287 304 296 306 300 306 287 285 281 285 294 278 285 274 263 261 265 285 261 276 270 268 261 257 248 252 259 255 257 252 250 259 257 257 250 272 268 272 281 272 257 
317 289 283 291 302 302 296 319 302 315 304 311 304 304 309 322 324 317 326 330 315 294 304 291 287 300 300 298 302 309 313 313 313 304 317 289 291 296 281 298 296 289 298 294 291 283 276 274 268 274 283 287 283 270 287 287 276 257 281 274 261 285 250 244 265 255 257 250 255 257 259 268 265 263 272 263 265 274 276 255 
311 263 252 296 304 294 309 302 304 315 304 311 309 324 315 311 326 319 315 298 304 294 289 285 283 281 285 300 294 317 296 298 296 300 300 296 302 309 296 291 294 287 291 298 300 289 281 296 265 261 272 281 270 285 283 270 281 278 283 287 270 252 252 255 259 259 274 257 263 244 261 257 257 255 265 274 272 272 270 261 
298 259 268 309 306 300 309 315 313 300 294 306 311 311 311 302 306 306 315 302 322 294 294 296 289 287 285 298 287 300 302 289 289 294 302 296 289 298 296 298 300 281 283 296 289 287 283 278 252 276 268 270 272 272 283 272 287 274 283 281 270 259 261 255 268 252 259 259 257 244 263 261 265 257 276 270 255 268 261 257 
276 237 255 306 306 317 313 317 298 315 302 317 311 317 330 311 315 300 313 317 326 309 302 281 287 285 278 270 276 283 283 315 296 296 300 296 291 298 294 319 311 289 276 289 272 287 291 285 272 259 261 263 268 276 268 283 287 274 283 259 265 261 257 261 261 257 242 248 270 261 259 285 274 265 268 261 263 270 259 261 
248 242 233 289 304 317 306 315 330 319 311 311 311 322 332 315 317 317 328 315 306 304 309 285 294 296 289 276 272 285 272 287 300 296 291 291 300 298 289 309 300 285 287 285 272 285 281 289 274 272 265 270 248 289 276 276 281 283 272 270 283 265 263 265 257 252 268 259 265 281 274 283 268 289 296 291 287 276 285 270 
244 224 242 315 315 324 322 326 322 326 317 317 309 313 324 317 315 322 319 330 328 317 313 302 291 291 298 274 276 285 283 298 298 298 294 287 289 304 296 294 294 300 283 287 268 274 274 285 291 259 250 250 287 298 291 285 287 265 261 278 265 255 255 272 276 257 252 268 259 270 261 265 276 261 285 281 291 283 296 272 
239 220 261 313 313 326 319 350 345 326 317 326 319 326 324 324 339 326 334 343 345 330 326 309 309 283 270 283 302 276 287 289 289 287 296 294 298 300 296 291 298 291 304 285 276 268 278 278 268 261 268 281 291 311 291 298 276 261 263 259 270 268 255 263 265 252 257 246 265 250 259 272 270 281 283 285 289 298 287 272 
231 246 285 313 313 317 337 317 330 313 319 319 319 330 337 330 341 332 347 360 354 347 315 302 296 294 287 296 281 298 281 285 263 285 291 300 306 291 300 296 296 291 309 306 281 291 270 274 274 242 276 298 302 291 300 302 281 278 283 285 272 265 263 261 263 248 242 263 244 252 259 270 270 278 289 289 287 298 294 268 
244 252 296 311 319 324 345 326 328 322 319 326 332 341 337 339 352 371 367 367 350 343 326 322 311 298 289 300 285 296 291 263 272 268 300 274 291 300 296 291 296 287 283 291 281 261 268 276 263 248 263 294 300 302 300 298 278 283 291 289 283 265 265 261 250 252 233 257 252 237 268 276 270 281 296 289 300 300 285 278 
244 302 311 313 313 306 337 343 343 337 326 341 324 341 352 360 367 371 363 322 326 345 332 328 313 306 311 296 270 265 291 283 274 265 287 294 298 298 294 291 309 287 294 265 281 278 278 265 257 252 285 309 296 289 304 289 304 278 283 283 272 272 281 263 252 235 246 268 270 263 259 283 283 276 287 276 278 285 298 283 
261 285 281 261 244 272 324 354 354 341 332 317 352 350 369 365 367 356 324 324 326 315 337 324 326 311 315 298 281 274 274 291 287 281 265 276 281 289 291 298 285 300 309 291 281 263 268 274 265 263 306 302 315 306 313 296 298 287 287 272 252 268 252 259 250 242 255 252 237 250 270 285 294 287 291 289 294 289 291 268 
259 263 252 261 248 274 302 332 343 354 343 343 341 365 367 358 332 324 319 315 317 317 328 315 326 315 300 313 283 265 261 281 274 296 278 276 281 285 300 289 291 300 296 276 281 265 278 283 272 265 294 315 311 302 313 302 302 289 304 285 252 259 246 246 259 276 270 259 257 274 287 294 291 270 294 311 289 313 296 270 
239 250 246 242 252 252 287 283 332 356 343 354 378 373 360 334 304 304 315 300 322 319 309 306 328 313 309 298 302 281 268 283 289 298 278 274 278 298 274 283 283 291 278 291 278 281 268 257 239 268 294 304 311 302 317 300 319 294 309 276 255 263 255 265 252 263 272 272 270 270 283 298 274 296 287 291 317 311 294 274 
259 237 237 242 233 263 259 255 289 337 358 369 367 343 341 319 302 315 311 300 311 311 326 300 334 317 319 315 296 294 270 272 281 283 283 294 278 276 274 268 274 272 281 281 274 298 283 261 239 250 296 300 287 296 302 315 315 300 300 300 272 270 270 261 278 278 274 265 270 285 270 276 285 272 285 289 296 296 296 263 
257 242 250 255 246 255 250 244 263 311 354 324 306 306 302 304 306 315 313 309 313 304 313 309 324 326 328 319 313 294 289 281 274 274 268 265 272 268 263 274 274 285 272 276 268 278 287 274 276 270 294 319 306 300 313 322 322 300 317 298 283 265 287 265 287 272 281 285 298 278 294 296 281 304 289 287 289 296 294 270 
255 255 246 255 235 257 252 255 237 289 298 319 304 298 302 287 296 302 306 300 302 309 306 298 315 317 306 302 306 291 298 300 287 259 261 259 257 261 270 272 257 250 257 272 270 278 283 296 285 289 315 302 304 311 294 311 317 313 304 306 276 274 276 268 265 281 289 291 289 278 272 283 304 289 294 309 294 287 289 272 
257 239 246 244 244 255 259 220 257 276 285 298 289 304 300 291 306 298 296 289 300 313 326 304 304 304 309 326 317 296 322 322 294 270 272 257 259 259 268 259 250 252 257 274 296 278 268 281 281 274 294 309 311 306 311 313 313 302 304 289 281 274 276 265 263 283 276 285 285 287 294 278 285 278 298 291 289 298 281 259 
287 302 287 250 239 250 255 237 257 289 274 300 296 304 302 294 289 278 300 298 294 309 294 285 291 302 306 309 311 309 309 322 294 278 265 272 244 259 261 259 261 252 263 261 278 272 289 278 283 289 285 298 304 283 289 306 294 300 304 287 272 298 291 285 278 259 270 283 281 281 283 276 272 289 294 294 285 298 289 281 
319 322 324 274 265 248 259 261 281 285 285 294 274 302 298 296 300 298 291 291 300 291 287 263 274 298 304 300 294 300 315 322 283 261 268 261 263 257 263 263 265 252 268 274 274 257 274 274 289 268 285 287 296 283 294 311 309 306 306 294 285 300 285 302 300 268 259 274 263 278 278 294 294 276 285 278 283 294 298 281 


