P2
80 60
766
273 292 288 275 288 277 281 284 296 284 290 303 309 322 327 357 363 374 385 385 370 348 333 337 303 299 299 284 296 292 288 262 258 271 264 268 271 268 279 262 264 268 273 284 271 264 273 260 262 266 253 271 271 281 275 273 258 266 277 275 271 322 314 316 303 301 318 307 355 350 363 350 372 398 417 464 462 494 502 539 
260 286 264 277 284 268 273 273 262 268 281 296 290 320 318 346 361 374 376 391 387 374 370 365 346 316 294 296 305 279 301 279 286 275 277 284 281 273 281 271 277 266 273 268 266 268 277 264 264 288 303 299 322 337 342 333 344 372 396 400 419 460 492 549 524 581 591 610 593 549 566 566 577 581 602 598 558 581 600 614 
240 275 281 286 290 294 275 260 279 273 268 299 292 296 301 316 333 340 376 387 394 396 394 387 387 340 325 320 296 294 314 294 294 292 286 294 290 292 299 320 312 314 316 312 318 325 331 329 359 372 406 468 553 598 672 726 766 743 689 623 635 616 606 645 639 612 631 589 574 562 564 566 528 522 475 439 471 454 413 458 
245 281 279 290 279 281 268 264 266 266 279 294 268 279 290 292 301 312 335 374 385 383 398 406 385 370 365 340 307 305 312 312 325 316 325 314 340 346 381 413 430 432 483 481 517 541 587 577 581 589 623 568 695 743 749 705 641 650 618 513 454 426 400 447 456 385 374 359 333 301 314 281 275 271 286 271 268 284 271 275 
251 275 279 281 288 290 268 273 264 279 284 277 275 281 294 294 303 301 312 342 376 374 381 396 400 391 383 389 368 344 376 365 404 426 466 507 577 631 693 660 693 722 678 572 543 511 528 526 553 500 464 402 411 348 348 346 299 281 277 275 253 277 240 279 249 294 258 262 251 247 268 240 247 249 249 247 262 262 249 266 
247 277 275 279 290 292 266 275 271 271 279 279 273 288 288 279 294 307 316 329 365 396 378 417 451 460 490 496 539 539 577 579 556 539 500 562 562 593 656 600 477 409 346 337 335 348 340 296 286 249 258 258 260 277 279 273 256 253 251 260 230 249 247 266 253 258 258 253 230 251 247 247 247 240 236 260 262 245 243 243 
238 268 264 266 284 284 260 262 281 266 277 273 284 284 281 284 307 303 325 368 398 466 498 524 627 662 621 560 507 515 526 585 524 500 409 485 404 350 296 294 296 286 284 258 301 251 268 258 253 245 243 243 253 260 260 271 256 236 240 238 247 251 249 243 247 253 247 247 238 240 238 234 230 234 249 240 240 243 238 245 
221 245 223 245 281 264 262 256 247 256 251 253 266 273 281 288 296 337 409 441 402 439 566 621 560 462 428 434 437 464 402 387 348 329 307 318 299 294 279 264 273 260 271 277 262 271 251 247 236 245 243 240 264 253 262 260 249 249 236 230 234 227 238 236 238 238 243 234 243 227 236 219 221 223 230 238 225 227 232 225 
208 251 230 232 264 249 256 243 245 251 256 247 264 275 286 273 312 413 490 547 447 372 350 335 327 322 333 333 361 372 396 348 329 314 303 296 307 294 303 271 273 284 284 268 271 262 256 249 232 238 232 230 260 258 253 245 247 238 232 236 238 230 238 234 249 240 232 227 227 232 214 227 214 223 223 234 227 221 223 208 
204 245 232 245 256 258 262 258 273 258 275 279 273 284 286 286 286 292 307 281 294 286 299 303 312 329 325 337 346 355 374 363 350 350 320 331 318 288 284 286 275 266 264 264 275 266 253 245 236 251 245 243 249 251 253 243 251 236 249 238 236 232 238 238 238 236 238 227 223 210 201 214 219 214 221 230 221 221 214 236 
210 232 240 253 271 268 262 262 273 258 256 284 275 271 288 271 288 284 275 294 286 294 294 294 309 305 312 309 316 320 359 361 368 361 361 344 337 301 299 292 290 279 275 268 275 256 230 214 197 230 230 236 245 245 251 249 243 238 247 238 243 234 245 240 238 236 232 223 217 190 201 212 232 223 223 217 234 234 227 245 
234 258 258 240 253 258 262 260 262 260 262 275 266 262 275 275 277 271 275 286 288 279 275 292 296 296 290 296 299 281 322 335 350 359 346 357 350 307 286 286 281 273 279 277 245 247 184 155 120 164 208 227 225 243 232 240 236 245 236 234 236 225 230 247 236 225 212 227 225 208 210 210 221 221 234 225 236 238 230 247 
262 299 277 260 279 286 260 258 275 268 264 266 264 273 268 273 273 279 279 281 275 271 286 279 275 288 281 281 286 312 312 320 335 368 346 348 365 320 303 299 299 290 275 277 284 268 171 122 73 109 171 219 234 236 245 253 245 247 240 234 247 256 275 271 245 258 262 236 266 260 253 210 230 247 247 260 243 260 256 251 
266 294 279 277 290 288 266 275 281 262 266 262 264 275 260 264 271 264 279 277 264 268 279 281 271 286 275 286 292 294 312 314 335 353 348 348 355 337 331 322 322 309 294 307 299 305 260 118 109 155 188 262 320 327 335 333 322 318 312 316 335 333 357 363 344 359 357 368 381 391 400 372 389 365 333 346 337 353 335 355 
236 288 286 286 286 290 277 275 277 277 266 277 275 275 275 266 268 273 266 279 279 275 277 279 288 277 277 284 296 301 309 316 333 365 368 398 422 445 471 473 490 471 466 464 479 496 494 522 505 500 498 587 656 685 672 631 595 528 492 547 560 547 539 553 543 600 625 650 664 629 618 587 570 547 543 539 490 539 517 591 
240 284 288 290 288 294 277 264 268 271 273 279 279 268 268 266 268 279 286 284 279 266 271 273 277 281 277 275 284 275 299 396 468 464 426 439 462 492 589 570 530 530 524 483 394 424 363 322 365 402 428 585 566 568 490 519 464 490 443 387 361 350 383 411 381 370 348 353 365 391 406 430 441 409 411 400 417 411 417 437 
232 284 301 301 307 292 284 271 281 281 271 279 273 268 271 273 279 290 292 279 284 264 262 271 273 273 268 271 288 271 305 355 411 477 526 568 539 430 320 331 307 305 299 301 303 335 127 53 27 51 155 249 286 290 275 277 264 277 275 266 262 264 266 284 286 281 294 273 290 268 292 281 286 275 281 305 271 284 290 316 
221 299 299 305 290 288 284 271 284 271 279 281 281 268 268 266 277 279 275 279 275 260 277 264 262 277 266 266 275 266 279 271 286 296 294 318 318 284 312 277 284 279 281 273 286 206 49 40 22 49 171 264 279 258 277 258 256 258 262 256 264 271 279 266 247 245 264 279 262 273 273 271 268 275 284 279 260 277 256 284 
249 314 314 301 294 286 277 268 273 279 279 273 281 271 266 273 275 266 273 264 264 268 260 273 271 273 256 262 258 266 273 271 284 279 299 305 294 284 275 273 268 273 264 264 234 131 51 33 42 60 208 249 258 256 251 260 260 245 262 253 247 262 260 256 260 253 258 262 266 260 249 264 251 266 268 281 273 288 258 273 
249 307 307 301 305 281 284 275 284 271 273 281 268 266 273 275 279 286 277 275 262 260 262 262 275 268 264 262 271 271 275 266 277 281 290 292 279 284 281 273 268 262 258 247 166 45 38 38 40 73 232 245 251 258 262 260 262 249 258 258 256 258 260 264 260 251 249 262 256 251 264 268 253 277 275 262 288 271 268 262 
284 312 307 301 294 290 277 268 277 271 275 277 277 279 271 288 279 286 281 271 275 271 264 264 264 268 262 256 262 260 260 262 271 275 290 286 279 275 273 258 256 251 236 210 111 0 13 42 33 62 195 243 253 245 258 253 258 249 253 253 240 251 260 277 264 253 256 253 260 251 249 256 262 266 273 266 264 262 264 271 
292 320 307 301 305 299 296 279 292 281 268 286 277 279 275 288 273 275 273 292 273 279 264 258 266 266 262 262 256 260 275 260 264 279 279 281 288 266 262 258 253 243 227 238 227 149 71 47 47 100 149 212 245 251 262 253 251 247 258 247 256 251 256 260 247 251 247 251 247 253 251 253 260 268 266 271 268 268 273 271 
284 333 312 312 325 314 290 277 292 286 281 290 281 281 266 288 284 281 277 296 288 284 266 251 262 262 260 258 260 253 260 273 249 262 260 266 262 258 266 260 253 245 256 240 238 238 243 240 225 171 219 247 251 253 260 256 253 245 251 243 240 260 258 256 251 258 251 251 258 253 258 258 253 277 266 275 281 268 277 281 
273 312 309 337 335 333 312 292 288 294 301 290 288 273 271 273 260 268 273 279 268 273 271 249 256 260 256 260 262 249 262 256 258 253 260 253 262 258 258 260 243 240 238 253 243 230 249 260 251 245 240 251 264 253 258 249 245 243 240 240 240 251 262 258 253 247 251 243 245 253 256 251 268 264 273 266 284 271 275 281 
253 290 288 309 312 318 299 301 312 294 299 314 292 284 275 268 268 260 271 253 268 268 277 262 273 268 262 264 264 260 256 262 260 260 260 258 264 258 251 262 258 251 251 262 253 245 249 258 251 243 245 262 251 253 258 258 256 245 245 240 251 247 256 258 258 253 247 264 258 253 262 268 271 268 281 279 294 284 273 281 
256 275 271 275 281 290 277 290 301 305 314 320 294 294 284 260 262 253 262 264 256 260 266 271 271 266 275 258 249 266 249 249 260 253 256 258 268 260 264 247 245 251 260 260 258 258 258 264 251 253 258 253 264 260 260 253 253 245 243 251 249 247 258 251 266 253 251 268 258 258 258 264 266 277 279 286 290 275 288 288 
258 281 256 256 281 273 273 260 271 281 312 307 307 284 275 275 258 251 251 251 247 262 281 262 277 262 260 253 258 260 260 262 260 251 256 258 258 251 260 251 251 253 247 256 249 266 249 264 243 251 245 253 256 258 256 253 247 245 251 249 258 249 249 264 260 253 251 264 251 268 262 262 277 290 292 286 301 288 288 292 
232 275 256 260 273 277 253 260 277 292 307 303 284 271 268 264 256 249 253 251 251 256 264 268 264 268 271 264 256 258 253 251 260 264 266 251 256 271 256 253 253 256 258 258 249 256 253 256 258 253 251 247 256 256 251 266 256 258 249 253 247 249 245 253 251 262 256 251 249 258 256 266 271 284 284 286 294 294 286 294 
243 260 266 262 271 284 260 253 260 271 288 296 290 277 262 249 243 258 240 249 253 260 251 258 262 258 256 258 251 249 256 258 258 258 249 258 256 249 251 247 251 253 251 253 251 256 256 253 238 260 266 258 264 258 251 256 249 253 249 251 249 258 243 258 249 247 253 251 258 264 266 262 279 286 290 294 299 281 294 303 
232 258 253 264 264 273 256 266 271 271 277 279 268 268 260 245 240 245 243 253 249 264 260 256 268 260 260 262 251 253 256 256 262 251 258 260 249 251 253 238 253 247 251 264 256 251 256 236 247 249 256 260 258 245 256 262 245 251 247 256 247 258 251 258 249 251 258 262 251 251 266 251 279 292 294 296 284 299 281 288 
243 262 245 264 279 268 253 264 251 266 279 268 264 264 264 251 232 247 243 262 258 266 258 258 260 253 262 260 260 260 253 253 260 256 247 251 256 232 247 243 256 253 260 245 253 256 268 258 253 249 249 251 260 258 264 256 258 256 253 253 251 249 251 268 251 245 253 251 256 253 258 264 284 294 290 288 296 284 284 290 
245 260 256 251 271 273 258 249 262 273 271 275 268 245 247 243 240 240 245 245 247 266 253 260 273 258 258 260 258 256 258 253 253 258 258 247 253 243 253 240 256 247 253 258 253 251 260 249 253 251 258 253 253 258 247 256 249 253 238 262 249 249 247 253 251 240 253 264 258 268 266 268 281 292 296 296 292 279 288 290 
232 262 256 251 264 258 260 258 258 260 258 256 256 253 253 251 245 260 245 236 251 256 258 260 260 266 258 256 258 256 256 249 253 256 262 247 243 236 247 240 249 260 260 268 251 249 256 260 243 251 251 249 249 251 256 249 251 251 236 245 253 251 251 249 245 247 245 262 245 258 256 275 286 292 284 301 296 284 284 286 
230 260 247 264 258 264 260 249 253 260 262 247 260 238 234 240 245 243 249 247 240 258 256 251 258 249 266 245 243 249 247 247 251 253 258 247 249 258 247 256 238 249 253 258 238 247 251 247 240 238 247 247 253 258 243 251 251 249 234 251 249 245 258 256 240 243 243 258 251 251 262 268 273 286 281 286 290 284 277 284 
234 262 238 262 253 256 249 251 256 256 256 260 245 253 247 245 240 253 245 240 247 247 251 253 253 256 253 247 251 256 247 245 260 245 256 251 249 258 247 249 251 249 249 249 249 251 251 249 245 245 251 238 247 253 247 262 251 256 253 249 249 240 245 247 247 247 258 253 260 260 256 260 279 292 286 290 296 279 273 294 
227 262 256 238 251 266 247 243 271 253 258 264 253 234 230 232 240 238 240 256 253 260 251 247 251 253 249 243 251 247 249 247 256 247 258 256 251 243 249 253 251 247 249 243 251 249 249 256 249 251 256 247 251 247 238 245 245 258 243 258 253 260 253 258 251 240 251 253 251 258 264 266 271 284 273 294 290 273 279 281 
238 251 217 221 232 243 243 247 273 256 245 258 234 238 236 247 245 245 245 249 256 245 258 253 260 247 253 243 247 243 247 256 253 247 245 234 251 243 240 238 243 247 243 245 245 236 251 249 247 251 245 247 251 253 243 243 243 247 243 251 240 249 245 247 256 249 251 245 253 249 247 264 268 281 271 268 275 277 266 260 
232 245 219 225 234 236 236 247 251 258 253 245 247 232 227 247 243 240 240 247 251 247 258 260 258 253 247 245 258 256 249 253 260 251 247 243 245 238 243 249 247 245 234 238 245 234 245 245 240 247 247 240 240 247 240 249 221 240 240 240 243 243 243 245 236 243 249 251 251 258 243 273 268 275 266 268 273 273 264 253 
271 266 214 223 234 249 232 238 247 243 240 236 234 234 236 245 240 236 249 262 251 249 251 256 266 251 260 249 249 251 256 253 247 249 258 238 247 247 243 236 240 243 247 251 240 245 240 253 240 243 249 245 238 236 232 240 214 240 232 227 227 236 240 247 245 253 258 256 256 251 251 251 266 271 266 260 281 268 249 260 
322 312 249 217 234 247 232 243 238 247 256 249 238 223 232 238 219 230 249 258 240 256 253 253 262 262 262 249 243 251 253 243 258 234 243 240 243 243 240 236 249 253 245 245 234 251 240 238 240 243 247 238 247 240 227 238 232 230 230 238 230 227 234 240 240 247 253 249 251 266 258 266 264 268 256 266 271 266 258 260 
322 350 325 258 230 253 249 232 238 243 258 264 245 225 238 236 240 236 234 253 247 243 256 256 258 262 256 245 245 243 258 251 262 245 245 243 243 245 245 240 245 243 238 249 243 234 236 247 245 243 240 249 234 232 232 234 238 230 234 234 232 236 247 247 243 251 249 243 247 260 256 264 253 253 256 251 264 256 251 247 
340 333 316 296 258 247 236 249 256 247 256 253 234 230 230 234 232 230 240 260 249 253 247 262 264 268 258 247 245 251 249 251 260 253 258 238 230 236 238 238 238 234 245 238 240 236 236 238 240 234 234 238 227 240 236 251 238 234 238 243 230 245 230 249 240 245 253 243 256 256 266 256 258 258 260 251 262 249 253 240 
312 337 294 286 262 256 249 238 262 268 251 232 240 232 238 230 232 240 253 260 243 245 256 256 266 258 258 249 245 253 243 249 249 245 238 245 247 251 247 236 245 245 249 245 247 247 240 240 230 236 232 236 227 247 236 236 243 251 238 249 234 234 240 236 247 240 247 249 256 260 253 253 249 245 258 258 251 260 247 247 
294 331 303 281 271 251 247 240 251 238 230 221 234 232 236 227 230 238 251 249 243 240 249 251 256 258 273 247 234 249 243 243 236 243 256 240 238 245 251 245 247 238 245 249 251 245 245 236 238 247 245 236 230 234 243 245 238 243 240 234 238 238 243 243 253 240 236 240 238 253 256 247 251 247 243 247 240 236 240 243 
294 307 288 271 286 262 245 243 238 238 227 232 240 227 227 232 238 243 249 256 258 247 249 253 249 258 245 243 256 243 251 251 245 256 240 238 238 243 249 249 243 245 238 247 234 245 245 236 249 240 234 227 227 240 238 236 243 234 230 227 230 238 234 256 247 253 240 247 247 245 249 251 236 247 240 234 243 234 234 245 
279 314 296 275 290 266 243 245 234 225 212 210 227 225 232 236 238 240 249 247 240 253 251 253 251 256 256 243 251 249 245 247 236 247 240 232 245 245 243 236 236 232 225 234 225 232 245 247 232 245 236 234 236 247 251 243 230 230 234 223 219 225 240 245 247 251 251 253 247 253 251 247 232 230 243 243 227 238 212 219 
279 305 294 279 286 268 247 225 230 219 206 210 208 221 230 223 219 230 236 251 271 256 264 253 243 256 249 238 243 260 253 249 238 234 234 240 243 256 251 238 245 249 238 247 238 232 247 243 249 234 236 240 236 236 223 232 221 221 212 219 214 223 243 236 253 247 251 256 253 253 247 240 236 221 219 221 232 217 201 204 
281 296 299 273 281 286 243 234 223 217 210 210 212 206 217 221 232 232 236 245 260 236 249 245 247 238 240 238 253 240 260 247 238 249 234 245 232 247 232 240 240 230 240 230 238 232 243 243 232 230 238 230 234 243 234 225 217 223 212 214 232 245 234 240 236 236 249 258 253 245 236 232 225 208 214 214 206 208 182 173 
277 301 284 277 275 288 247 238 223 230 219 219 206 219 223 214 219 230 223 234 249 240 236 232 230 234 240 238 236 234 238 240 236 227 225 247 243 240 236 234 234 240 243 238 232 240 236 230 219 227 232 232 243 232 236 230 214 230 223 214 217 234 236 245 240 232 245 247 240 251 225 227 212 212 206 201 204 204 206 182 
260 301 290 268 292 260 249 251 230 234 236 219 208 225 206 214 225 230 219 234 238 234 234 230 236 240 232 234 243 243 253 227 247 236 249 251 253 247 249 238 240 238 234 247 232 236 238 240 221 230 230 221 234 232 232 223 223 225 227 223 223 223 232 232 238 225 243 238 240 243 240 230 217 208 217 208 201 212 204 197 
247 286 277 286 301 273 251 234 240 249 232 234 221 217 214 219 227 225 236 223 236 225 227 227 221 232 232 232 227 232 234 238 247 260 256 256 251 251 247 238 247 238 245 234 227 245 240 225 223 227 230 234 230 230 232 227 236 227 219 217 214 221 223 219 223 219 232 232 232 234 234 223 221 214 208 217 201 210 199 188 
227 258 277 281 296 273 236 227 232 234 238 230 223 221 217 223 232 221 230 234 236 227 234 223 223 230 221 223 212 234 227 247 253 251 247 258 245 258 251 238 236 232 245 236 232 230 232 234 227 225 238 234 236 221 230 238 232 238 223 217 208 221 217 232 214 225 214 230 227 214 221 223 219 212 210 219 221 204 197 219 
238 256 260 299 286 284 232 236 232 236 232 234 234 232 225 214 236 230 232 230 230 227 234 230 232 225 223 219 230 223 238 230 232 247 240 247 243 245 247 243 238 230 230 230 227 232 227 236 223 221 221 223 227 210 227 223 232 225 227 219 212 227 221 217 223 219 230 236 223 227 219 221 217 208 212 214 206 221 204 193 
245 264 290 290 303 264 249 232 247 238 234 238 236 240 240 243 240 227 245 243 232 232 221 219 232 232 234 234 240 230 240 251 243 234 238 240 249 253 245 236 247 236 219 238 230 238 243 230 223 223 230 214 230 232 234 230 227 225 221 208 208 219 221 223 210 227 236 238 221 219 214 212 206 206 201 199 195 199 177 179 
240 281 303 296 279 260 230 225 232 219 232 243 249 249 238 232 234 238 234 227 238 223 238 230 245 232 238 245 258 249 260 271 264 260 251 249 245 245 256 234 253 245 236 245 234 227 234 230 217 230 232 223 230 236 232 225 230 225 225 219 214 223 219 204 219 225 238 227 219 223 210 197 199 204 204 204 204 195 184 175 
232 305 314 301 301 247 227 243 232 236 238 238 243 249 232 247 245 230 243 238 232 234 234 243 243 238 253 275 260 253 279 256 266 275 256 247 247 243 240 247 243 249 234 238 219 225 232 234 232 234 232 225 240 236 243 240 247 240 230 225 225 217 232 208 214 217 236 217 223 208 219 210 188 204 212 210 208 206 201 219 
277 327 322 303 299 256 230 240 227 240 232 249 251 245 238 240 236 245 240 238 236 243 234 240 238 258 273 266 264 273 271 281 260 256 238 227 240 236 245 232 223 223 230 227 223 214 234 225 227 232 240 230 240 236 232 243 240 238 234 225 212 217 212 214 208 230 236 236 217 214 197 212 201 199 199 212 219 225 227 208 
305 342 322 299 268 245 236 232 238 236 238 232 243 234 247 256 245 236 236 243 234 240 247 247 266 275 273 264 271 271 273 268 260 240 240 221 232 232 238 214 219 223 227 227 212 227 223 234 223 206 219 225 238 238 238 243 234 243 236 223 214 225 221 214 212 227 227 225 206 210 197 204 190 186 197 214 221 245 210 234 
331 357 327 281 266 238 230 221 227 225 225 236 247 266 247 243 253 238 240 245 240 245 234 262 273 273 266 268 266 258 271 258 253 249 236 225 234 223 227 217 230 206 230 217 227 223 236 232 217 219 212 234 238 221 232 240 227 238 225 227 223 232 223 232 230 227 223 223 208 201 201 197 204 204 197 223 223 230 208 210 
368 346 301 258 268 225 234 227 234 217 221 232 232 243 232 238 247 227 230 232 236 236 240 262 264 273 262 253 258 260 258 245 240 232 225 219 234 221 219 214 221 197 217 219 217 217 227 217 210 217 221 217 234 225 238 240 223 225 217 217 212 219 210 240 221 210 210 219 201 199 199 208 195 190 184 223 201 217 208 214 


