P2
80 60
638
188 204 212 184 188 193 191 193 195 210 193 199 195 219 296 478 638 588 584 387 216 191 176 178 178 197 188 197 173 182 186 180 184 193 201 204 201 206 191 180 206 197 197 204 221 201 201 193 193 197 201 197 204 199 186 195 201 201 208 223 214 208 199 201 206 201 204 204 195 204 221 221 238 238 223 214 219 206 212 225 
176 186 195 171 182 191 186 191 201 191 178 182 191 197 201 236 362 611 627 617 446 255 206 169 176 180 188 180 180 199 195 206 193 195 201 206 201 197 193 186 193 195 204 212 191 197 197 197 195 193 197 199 204 195 206 212 216 221 223 229 212 210 204 206 201 210 210 212 204 219 216 223 225 219 216 208 208 201 201 223 
171 184 184 158 178 171 184 193 204 193 182 184 178 180 178 210 219 283 438 611 598 509 328 195 191 191 180 195 186 191 193 204 197 201 201 206 214 201 197 178 193 188 221 197 197 208 201 201 206 191 201 201 199 199 197 208 208 216 225 216 206 204 208 214 204 210 201 206 212 208 212 219 223 206 221 206 214 206 204 201 
163 169 180 143 154 160 171 178 191 195 184 180 173 188 182 195 206 206 234 341 561 579 552 396 245 204 178 193 186 199 197 206 193 201 188 195 199 191 206 188 199 193 195 212 208 214 208 210 206 206 195 201 195 197 186 216 208 214 223 236 219 201 216 204 201 216 204 201 214 201 208 210 214 212 219 208 225 199 210 212 
154 167 165 139 147 154 165 182 188 188 173 191 180 184 178 165 182 182 208 221 275 469 565 569 482 305 238 201 191 195 214 193 204 188 191 204 204 204 206 204 210 193 221 234 238 219 206 206 197 193 195 188 195 188 197 195 201 219 225 221 208 208 201 201 212 208 197 206 206 197 208 208 212 206 223 212 212 210 201 201 
152 145 145 141 147 150 165 158 171 171 180 178 173 171 184 182 191 178 193 212 216 240 349 532 561 540 387 242 210 204 214 201 201 199 199 184 186 201 201 214 219 225 199 219 234 216 214 210 199 204 199 186 193 186 186 188 206 210 204 210 208 212 206 195 206 206 197 199 199 193 201 201 195 210 229 204 206 204 206 214 
141 130 137 137 150 141 156 158 160 154 167 169 169 169 171 180 188 178 180 191 193 178 229 257 442 527 519 457 275 204 225 201 195 206 208 193 188 193 199 219 221 216 212 214 221 208 197 212 191 197 188 191 197 188 184 188 191 199 201 208 199 204 208 197 197 214 204 197 201 204 208 199 212 204 219 212 206 201 201 204 
135 145 145 141 141 145 150 152 165 154 171 154 180 169 178 182 191 193 191 193 191 193 216 219 229 322 505 546 467 273 225 195 191 193 195 201 219 197 208 221 227 219 214 219 208 197 206 208 193 199 193 188 188 182 195 188 193 199 195 206 201 195 199 201 204 208 199 204 201 223 206 204 214 216 208 219 212 208 188 199 
167 160 160 152 154 152 152 145 163 158 167 173 176 193 188 180 182 193 182 184 197 195 191 188 206 201 251 407 461 307 208 182 193 199 201 212 208 214 208 214 219 214 208 219 219 204 208 199 204 195 195 186 191 169 186 188 180 182 201 199 195 199 199 208 197 201 195 206 188 188 199 204 214 204 208 210 204 199 206 204 
178 184 154 143 132 122 154 169 160 163 160 169 171 176 178 186 188 178 186 197 186 186 195 195 193 199 214 206 223 225 204 204 195 201 204 208 201 210 206 212 221 221 212 212 206 204 195 197 195 188 188 182 184 193 188 176 176 178 188 191 195 191 180 184 195 195 186 199 191 186 208 201 201 197 199 212 216 210 195 199 
182 204 169 135 91 44 85 139 156 160 163 171 169 180 184 197 191 191 188 188 188 188 186 197 193 195 186 201 193 171 197 182 193 195 199 191 204 204 210 204 208 204 197 197 206 193 193 188 199 204 197 188 186 186 180 178 173 182 188 199 176 195 191 186 188 193 191 191 204 195 204 195 208 199 206 208 197 204 191 212 
169 180 182 165 94 24 52 109 147 152 156 165 173 201 180 195 188 201 188 204 197 184 186 191 188 184 199 186 182 201 193 201 188 195 188 188 201 195 206 201 206 201 188 204 195 186 201 197 204 191 184 176 188 186 173 182 182 182 191 182 199 193 204 188 191 195 199 197 191 193 199 206 199 204 199 208 210 204 201 206 
160 184 180 173 130 28 63 107 147 169 156 178 182 184 191 199 184 188 197 199 201 186 188 171 199 186 186 184 186 191 195 188 186 178 199 191 193 199 199 193 199 193 180 188 186 193 197 191 193 197 186 193 186 171 169 169 173 169 176 180 184 182 188 186 197 201 182 204 188 186 193 197 193 197 201 201 214 201 210 208 
197 199 191 182 113 44 57 91 137 145 156 171 188 197 195 208 193 186 188 197 191 193 184 188 193 176 186 182 184 180 201 176 191 193 188 188 197 186 184 186 191 178 180 199 193 195 193 193 193 193 178 180 184 176 178 167 169 178 173 184 180 184 186 184 195 193 191 184 191 197 201 204 184 191 210 219 210 212 195 199 
225 232 191 165 81 44 65 111 132 130 115 141 180 223 201 216 197 193 206 201 191 178 180 173 178 184 178 176 184 178 186 182 191 182 193 188 188 184 180 178 182 180 178 182 193 188 191 195 186 180 178 163 167 171 173 173 180 178 167 182 178 191 191 191 188 197 191 195 199 193 193 201 201 221 214 212 214 199 210 208 
436 334 204 100 44 28 46 37 96 87 85 91 176 212 201 221 191 197 178 186 180 176 188 171 193 188 184 180 186 186 180 178 184 184 184 178 197 188 178 173 195 186 176 184 180 197 191 191 180 178 182 180 163 169 178 169 173 180 188 182 178 188 188 191 191 182 197 193 188 188 204 199 206 199 219 219 216 210 206 204 
469 467 411 324 195 96 0 46 111 89 94 124 167 204 210 208 186 184 186 197 184 182 184 176 188 173 188 184 182 180 184 180 173 180 186 186 188 186 186 169 173 188 171 180 180 184 182 188 184 171 171 178 176 176 169 176 176 173 176 178 176 178 178 197 186 188 193 197 199 184 195 188 206 199 204 212 214 214 201 219 
113 334 455 494 472 341 173 91 109 111 107 128 186 210 201 201 186 182 186 184 176 173 180 173 176 176 169 180 180 184 188 184 173 184 176 182 180 182 178 180 184 176 191 180 182 178 186 188 180 182 184 182 182 176 176 167 173 167 169 184 180 193 180 184 186 188 191 186 193 191 188 195 201 212 210 206 219 208 206 201 
89 208 240 336 404 453 398 214 186 154 132 160 182 195 184 204 186 180 180 184 182 171 171 173 184 176 169 186 173 180 176 182 182 184 178 180 176 182 180 171 171 173 171 167 173 180 186 184 176 178 186 188 180 173 169 180 171 171 176 173 182 184 186 193 178 191 188 188 184 191 184 184 199 195 210 201 212 214 208 214 
145 208 219 238 229 232 268 165 178 176 156 184 204 197 195 210 188 178 186 186 167 186 176 176 180 182 171 186 167 180 180 180 182 180 169 167 169 169 169 165 178 169 167 169 176 182 178 186 186 184 186 182 178 176 176 173 182 180 178 180 186 188 176 191 184 186 191 193 195 195 193 186 201 216 201 216 208 201 214 204 
208 225 223 212 195 195 188 184 182 169 176 184 186 199 221 208 204 171 182 171 182 176 176 176 184 173 165 173 165 180 173 171 169 180 169 165 165 169 176 169 173 180 171 167 186 186 191 191 188 184 178 186 176 180 186 176 169 186 182 188 184 186 176 180 186 193 195 191 195 206 201 182 206 208 212 216 212 219 214 223 
206 214 262 247 232 204 188 180 178 188 178 188 201 229 249 208 199 186 188 176 176 171 178 169 169 167 173 169 171 171 160 173 173 173 163 167 160 173 167 180 178 165 178 169 178 180 180 191 195 182 173 180 180 186 180 182 167 180 173 180 188 184 188 186 188 193 197 188 201 199 193 188 212 204 214 201 208 212 214 225 
236 266 402 319 275 232 193 184 193 169 173 197 238 328 322 251 199 188 182 176 171 165 173 169 176 160 173 178 165 169 167 160 173 171 167 165 167 180 171 173 176 158 171 178 176 173 173 191 186 180 180 173 182 178 169 176 180 173 173 184 193 191 193 188 197 188 204 195 191 201 216 191 204 206 221 206 206 219 212 221 
232 370 569 317 343 238 199 193 184 184 182 229 328 561 490 305 219 178 182 176 169 176 176 171 176 173 176 165 160 180 165 178 169 180 180 178 169 178 171 167 167 167 184 188 173 182 182 180 176 186 180 178 180 180 176 178 180 180 182 197 193 199 193 193 188 193 197 197 204 195 210 199 201 212 214 206 214 216 225 232 
204 214 236 249 285 238 199 182 191 182 178 240 459 607 534 343 236 186 176 176 165 169 173 165 171 167 173 176 158 180 171 171 167 171 173 173 160 186 182 186 169 169 186 176 180 180 178 184 184 191 184 180 184 178 173 182 188 180 178 191 193 186 191 195 197 201 193 195 188 208 195 188 193 201 212 210 221 206 229 216 
191 204 219 221 201 199 193 195 176 182 165 249 407 511 519 326 219 197 169 171 167 180 182 173 160 171 169 173 176 167 182 180 169 176 184 178 171 193 176 180 178 182 171 176 171 178 180 180 188 188 186 186 186 182 182 184 182 182 184 178 184 195 204 191 204 193 201 201 204 199 208 204 197 199 206 208 210 208 210 212 
188 201 206 197 193 193 180 193 191 199 188 236 315 347 347 266 201 193 173 173 165 163 176 176 173 182 173 182 180 182 182 169 163 178 182 180 182 178 182 180 186 178 184 191 186 178 182 188 182 188 188 184 178 191 191 184 191 188 180 188 191 193 199 204 193 191 204 188 193 204 193 206 197 204 210 199 223 212 216 225 
193 191 191 193 195 178 169 180 178 182 186 197 216 234 236 204 193 178 182 173 173 173 176 171 169 176 178 186 184 180 178 193 176 182 182 186 173 176 184 182 182 178 184 176 193 182 188 188 201 199 197 195 184 193 186 180 188 188 184 182 197 188 197 199 193 191 193 193 208 197 208 210 208 201 204 212 216 216 208 216 
184 188 182 182 191 176 173 191 176 186 186 193 195 201 193 197 188 176 188 182 176 171 182 160 171 180 182 186 184 193 173 176 173 191 188 173 182 193 182 184 186 182 184 182 182 184 184 195 193 180 188 180 193 193 182 184 188 180 186 188 195 186 199 193 195 193 195 208 199 210 216 199 206 210 208 210 206 212 210 210 
171 188 193 176 180 171 173 169 167 188 171 186 180 204 201 191 178 188 169 180 184 171 171 178 173 182 182 182 186 186 178 180 182 184 180 191 180 191 178 182 180 186 182 178 178 182 180 186 193 184 201 184 188 193 184 182 184 184 186 188 182 182 182 195 199 206 182 193 191 204 201 208 193 204 210 210 210 206 223 216 
173 188 195 176 176 171 171 167 176 176 184 173 188 186 182 184 188 182 180 169 176 176 184 173 173 173 173 188 182 182 180 182 182 182 182 191 186 195 188 180 182 171 182 182 186 180 184 184 193 191 193 186 182 188 186 186 182 191 182 182 182 193 193 197 206 197 191 197 195 204 206 204 206 186 208 208 206 227 210 210 
184 191 188 178 171 176 176 176 182 180 173 188 184 188 188 184 176 180 178 171 171 173 182 182 178 186 173 186 191 184 184 186 188 182 188 188 186 182 186 184 180 184 186 184 182 171 173 186 182 191 199 184 180 184 184 188 182 184 184 182 188 188 188 186 204 191 195 191 210 204 199 208 210 186 208 208 204 221 214 221 
178 176 184 171 184 180 184 167 171 176 182 191 191 180 180 180 178 178 184 176 169 178 178 188 176 180 167 191 180 188 191 188 195 193 188 193 191 191 182 193 197 182 180 188 178 186 184 180 173 188 199 186 173 182 186 184 193 199 186 182 186 193 197 193 197 197 193 212 204 212 210 199 199 197 206 197 210 214 214 219 
173 184 182 176 184 178 178 176 182 180 180 178 197 188 182 186 193 193 195 182 180 176 184 188 188 188 184 201 178 195 188 186 184 188 193 188 195 188 182 182 184 188 188 186 191 178 182 195 193 193 188 178 191 180 186 184 188 188 206 193 184 184 186 193 197 201 201 208 193 206 199 193 199 197 206 199 206 206 219 216 
178 182 186 188 184 188 180 178 176 180 182 188 199 188 182 188 195 193 197 191 197 191 186 171 182 191 180 195 186 188 191 184 186 193 186 193 188 193 176 180 184 184 193 188 182 188 182 201 191 193 176 186 176 182 199 178 186 188 193 204 195 191 191 193 206 204 193 212 191 193 186 191 193 199 204 204 201 219 216 221 
178 178 176 178 184 186 191 178 186 184 186 199 199 197 197 201 206 195 188 197 204 195 199 193 184 193 178 195 186 193 188 193 201 191 182 188 186 199 182 188 188 186 191 188 180 186 180 186 193 195 184 186 191 184 191 184 193 188 191 193 193 191 197 193 201 204 199 204 204 195 199 201 193 193 204 201 206 204 216 206 
188 191 188 191 206 193 199 193 180 182 199 199 199 201 204 201 208 199 199 204 195 201 201 191 188 195 186 195 186 195 197 193 195 206 188 197 178 182 188 182 191 191 186 191 195 180 193 193 186 208 195 201 191 186 195 186 188 186 193 195 188 197 197 206 206 212 214 206 208 204 214 201 184 193 216 191 212 199 219 225 
188 184 195 197 197 206 197 191 197 188 195 212 193 210 201 201 216 204 195 210 212 204 219 208 193 201 186 195 188 195 197 178 193 201 201 197 188 191 193 184 193 182 193 176 188 188 178 195 199 201 182 193 197 188 195 188 191 186 182 191 191 191 195 199 216 219 206 208 204 204 212 210 199 193 197 195 199 208 221 223 
191 195 201 204 199 195 195 199 208 201 204 206 210 210 214 216 219 208 216 221 214 216 208 204 195 193 186 188 195 193 199 186 199 195 193 191 193 197 188 186 191 184 184 180 184 184 188 195 184 191 193 188 199 195 201 188 197 191 191 193 197 191 193 208 199 208 204 206 204 201 206 201 199 191 197 197 210 210 214 227 
199 204 206 208 204 204 214 199 210 204 204 216 210 225 223 219 236 240 242 249 257 238 225 208 206 195 195 195 195 188 206 193 193 193 191 193 188 191 188 186 199 180 180 176 193 182 193 195 197 193 191 186 186 195 191 201 199 186 193 191 184 206 208 208 210 214 206 206 214 206 206 204 191 197 199 195 210 206 216 221 
204 197 214 212 214 225 219 221 223 232 225 234 227 242 240 260 257 260 268 273 260 257 227 204 204 180 191 193 193 195 193 184 191 186 180 188 188 204 191 193 191 186 191 186 182 171 182 186 182 193 193 182 197 186 193 206 184 195 191 193 191 212 197 199 206 223 216 214 206 204 197 204 210 188 201 206 208 208 214 214 
204 210 214 219 214 236 238 229 262 240 253 255 255 275 270 275 257 264 257 262 260 281 232 201 199 201 186 204 201 191 197 199 193 186 188 186 193 197 184 186 199 195 191 180 188 188 199 199 186 195 199 197 201 201 193 191 199 193 184 195 199 195 210 212 204 227 216 208 212 204 193 201 191 188 199 206 210 210 214 225 
216 232 234 227 240 260 262 264 285 294 281 300 283 277 257 262 236 232 216 236 245 260 227 208 208 201 201 204 182 188 197 186 191 201 199 199 186 197 197 212 193 197 188 184 195 186 204 197 193 195 193 201 195 186 193 188 188 188 195 201 204 206 199 206 210 227 216 208 204 201 199 193 199 197 193 193 208 201 212 216 
221 240 249 242 275 292 279 281 290 298 285 266 234 236 229 225 223 212 219 219 238 277 247 219 214 204 199 197 195 195 206 199 199 188 199 199 186 186 186 193 191 197 176 193 180 184 188 199 201 195 199 195 201 199 193 193 188 184 197 197 195 206 199 212 223 225 223 221 221 212 206 206 201 191 201 197 201 204 225 208 
219 253 275 249 264 257 255 234 245 275 307 253 216 221 206 225 195 214 212 208 225 260 229 227 206 210 204 204 184 188 193 186 197 188 197 193 184 184 193 186 191 186 188 178 182 184 186 191 193 206 193 199 197 195 197 193 195 188 186 204 191 197 201 201 208 221 223 214 212 206 206 204 193 186 195 195 210 206 212 214 
225 251 247 238 232 238 236 214 232 255 283 227 208 221 204 219 229 219 223 212 229 247 227 212 208 212 195 206 199 193 208 201 191 193 201 191 193 193 197 193 188 191 195 188 188 191 191 188 193 199 199 204 195 191 193 197 204 184 191 208 201 210 208 197 204 221 210 214 219 206 208 208 193 195 219 195 206 208 214 227 
223 255 242 214 216 208 223 214 223 238 290 240 234 225 212 245 232 216 214 201 219 242 227 214 219 204 197 201 191 193 208 188 197 201 199 199 195 193 191 193 188 195 186 191 184 193 195 199 191 206 195 201 182 191 191 182 195 201 201 193 208 195 208 195 201 223 225 210 212 193 214 210 197 191 206 206 204 210 216 232 
212 240 227 212 229 216 221 214 223 249 268 236 236 229 236 251 229 214 216 225 225 253 240 219 204 204 193 201 182 191 210 186 195 197 197 201 193 204 197 188 193 201 186 195 193 195 191 191 195 204 195 199 193 197 193 186 188 195 206 201 201 206 210 208 210 204 216 212 212 208 221 216 212 195 216 212 212 208 214 225 
214 227 232 221 225 219 219 225 223 238 275 249 229 247 236 257 242 225 216 221 225 238 253 212 210 210 193 199 191 199 206 186 197 204 206 191 201 204 197 186 201 193 193 195 197 184 195 197 191 204 193 197 188 191 195 195 201 204 195 204 199 201 208 204 206 206 210 214 219 201 216 223 219 206 206 204 210 206 223 232 
221 219 225 221 225 232 232 212 219 229 288 255 232 229 238 247 232 212 212 212 229 236 262 225 210 193 201 195 188 180 201 188 188 199 195 201 188 197 199 186 201 197 204 195 197 193 191 199 197 195 193 199 182 193 197 193 208 201 199 201 201 206 208 210 204 216 214 223 221 210 206 221 223 206 206 214 221 216 240 236 
223 227 223 214 223 221 221 229 223 232 283 266 232 251 232 238 240 223 232 212 221 232 251 216 216 210 195 206 197 206 204 201 188 188 199 195 204 199 201 191 201 208 201 208 199 195 195 201 210 197 201 195 204 188 193 197 208 204 208 199 199 210 197 212 208 221 210 216 221 216 214 216 208 210 225 214 225 216 240 268 
208 221 219 219 225 216 229 223 219 232 273 262 240 232 219 225 232 212 208 208 206 236 251 223 214 195 206 199 201 201 208 191 191 199 199 195 195 199 204 204 206 206 197 197 199 201 210 206 197 195 195 206 199 191 199 197 208 193 206 206 208 204 206 204 210 208 219 212 219 206 206 201 206 201 216 221 214 225 242 249 
219 225 223 206 216 214 212 232 227 236 249 253 227 238 212 229 223 212 216 214 219 225 245 225 219 214 195 199 201 204 210 208 191 206 193 193 204 212 204 188 201 204 195 206 191 201 204 195 195 193 197 201 199 191 204 193 204 197 201 204 208 204 197 206 212 197 214 212 216 199 214 206 206 214 227 216 238 225 234 249 
206 229 214 219 216 221 219 219 223 227 212 227 223 219 210 210 214 212 214 210 214 212 238 229 219 206 206 193 180 186 199 193 199 199 204 188 201 197 195 184 197 210 195 191 195 193 195 199 195 193 206 199 201 201 197 201 195 204 204 214 206 206 214 208 227 216 214 206 212 210 210 221 210 201 223 223 234 236 229 229 
199 216 223 225 232 216 221 223 225 219 201 236 208 232 214 219 212 204 201 210 199 201 223 204 193 193 191 197 195 197 197 197 193 197 197 195 191 193 193 195 199 201 193 193 186 197 197 199 201 199 197 201 204 208 201 201 204 199 210 199 210 204 210 212 214 206 206 216 225 210 221 212 223 216 219 219 223 225 223 227 
219 221 212 212 225 216 227 234 229 216 201 227 229 212 223 212 219 206 188 197 195 186 193 191 191 184 182 184 186 197 195 193 206 210 204 204 184 204 193 191 199 188 188 191 201 199 193 197 197 204 199 197 193 199 204 191 186 188 197 208 204 208 206 210 214 204 210 214 208 212 214 225 212 206 221 232 229 232 212 210 
221 221 212 216 227 227 229 227 216 221 216 229 229 221 216 221 206 210 199 195 204 186 199 191 186 178 182 188 195 201 206 197 201 204 206 188 193 195 193 184 201 188 184 210 193 199 197 195 195 206 188 195 193 195 199 204 199 199 197 201 199 206 204 210 206 208 210 206 212 206 219 216 206 216 232 216 229 227 225 227 
219 238 232 225 238 229 240 221 216 216 221 225 236 214 210 210 210 201 199 188 197 195 195 197 193 186 173 186 191 188 184 188 188 201 204 184 184 184 186 184 197 193 199 197 186 201 191 199 188 197 201 184 193 204 201 195 199 195 195 204 201 197 212 214 216 210 225 219 204 206 216 225 214 210 225 221 236 227 219 221 
221 236 245 227 229 223 240 223 227 232 227 234 227 216 197 204 210 208 208 199 199 204 210 201 188 188 178 180 165 186 184 197 178 176 184 188 186 186 186 197 184 191 197 199 191 195 195 188 195 191 195 186 184 186 199 184 199 188 195 199 214 201 208 204 210 195 210 208 223 206 219 210 210 197 227 201 223 232 221 206 
225 223 240 229 229 227 247 219 208 232 234 219 214 206 210 201 208 201 216 206 186 188 195 193 184 169 191 167 167 160 178 167 171 169 171 178 173 171 180 167 188 180 201 191 176 182 180 184 188 208 186 184 182 201 188 171 191 178 182 182 195 191 186 195 186 197 206 199 199 201 201 204 221 206 221 184 195 208 204 216 


