P2
80 60
869
270 254 296 277 281 294 296 299 310 290 314 301 310 301 319 319 312 299 296 299 277 274 279 299 296 325 451 662 310 296 285 281 285 294 336 429 316 241 263 470 857 550 272 252 243 230 237 223 230 223 217 250 237 234 243 268 268 303 288 288 310 336 425 662 610 392 299 263 303 290 281 283 268 261 268 292 259 237 274 265 
285 270 292 274 296 290 281 305 321 314 294 305 305 303 299 314 325 290 290 299 272 285 288 281 310 308 367 630 405 277 294 296 301 296 303 367 303 237 239 310 775 713 292 248 250 219 239 221 225 212 237 241 250 243 252 261 259 290 308 281 299 325 403 686 662 429 323 283 310 292 288 285 281 281 277 257 283 265 272 257 
310 308 279 274 292 296 285 279 316 294 312 294 301 299 323 308 301 277 265 301 281 277 281 279 274 283 299 505 507 285 283 270 299 290 279 308 248 188 199 228 587 777 345 237 228 210 221 210 203 214 237 210 239 265 250 265 252 277 299 265 285 308 385 679 720 446 328 274 310 281 283 308 312 272 288 254 279 268 272 277 
290 283 285 285 303 308 274 305 310 294 292 305 310 330 310 319 328 310 281 299 288 277 292 294 283 294 305 363 576 334 288 305 296 303 283 277 281 179 134 154 405 773 444 241 219 217 212 186 163 214 241 254 259 274 252 265 245 292 303 259 294 305 370 649 756 500 328 279 312 305 296 294 305 290 288 296 301 292 299 290 
328 308 279 281 285 323 281 285 312 290 323 308 316 308 321 312 305 299 299 319 283 299 299 285 299 277 296 323 488 427 296 296 330 312 294 285 250 170 52 32 177 681 550 248 197 210 201 125 82 123 239 243 250 254 254 270 252 290 303 254 299 312 343 617 762 561 339 274 281 272 272 303 281 292 274 301 281 294 290 299 
314 319 290 283 299 272 270 299 310 294 310 279 305 316 301 334 308 296 303 330 279 319 290 294 299 272 299 281 341 350 283 310 332 328 330 301 281 208 41 4 39 496 645 248 148 154 132 46 4 68 223 241 245 265 254 279 268 281 294 274 294 308 345 563 773 617 350 283 288 279 283 268 285 277 274 301 305 303 301 299 
310 319 296 288 281 292 281 299 299 299 305 296 321 299 303 308 288 283 312 305 288 296 290 296 296 301 296 277 296 301 292 314 330 354 483 303 290 259 166 55 20 312 658 305 48 27 36 7 20 64 228 254 263 265 261 294 252 299 288 272 301 292 348 561 788 671 361 283 294 274 274 272 285 265 285 305 305 294 290 290 
305 314 325 288 290 290 296 279 316 296 314 303 310 305 308 319 308 279 290 285 285 296 281 279 288 288 296 281 277 303 294 274 250 259 268 254 277 270 270 243 154 221 638 468 75 0 9 25 55 84 206 245 265 277 261 299 259 321 305 265 281 299 334 488 806 756 374 272 301 292 279 285 279 283 263 268 283 288 294 299 
314 321 314 301 305 294 290 290 294 305 299 332 312 303 323 323 305 290 296 308 312 299 279 299 301 274 301 299 299 332 339 270 248 232 234 250 294 259 283 268 237 279 541 574 150 34 39 59 103 174 245 265 270 274 299 296 270 299 308 294 283 312 325 453 796 823 409 319 290 294 272 285 279 261 294 299 283 265 265 290 
303 325 294 316 301 290 277 270 310 296 305 310 303 303 332 321 312 299 299 303 283 292 281 305 305 290 312 312 321 350 352 321 299 250 230 257 296 277 316 305 279 305 446 654 268 87 89 136 228 203 217 248 265 281 283 301 263 288 292 281 301 308 312 416 773 869 440 283 296 294 285 272 277 279 274 274 277 290 292 308 
299 303 303 303 308 279 283 296 328 290 310 308 305 314 312 319 316 312 294 308 285 285 277 299 312 296 325 350 334 339 319 303 314 303 252 250 285 336 323 305 305 345 314 641 365 46 73 177 245 250 257 274 268 263 294 296 272 299 316 288 312 310 321 394 717 861 509 310 310 277 272 281 279 290 301 279 296 279 283 310 
268 299 308 288 312 294 292 290 296 290 305 310 321 316 316 323 312 292 299 296 290 296 303 296 325 334 339 312 334 314 314 303 308 277 270 283 310 496 518 332 319 301 296 503 451 143 141 152 228 250 277 279 301 305 283 274 261 301 301 290 290 325 316 361 656 834 528 308 325 321 283 288 279 279 299 285 292 285 290 299 
312 308 319 323 308 323 279 272 303 290 283 296 308 312 332 319 314 296 301 308 305 290 305 305 332 330 308 290 321 310 310 308 308 308 265 270 325 354 372 341 330 310 292 341 341 245 179 192 179 234 308 310 290 303 308 319 290 323 301 296 301 305 330 361 634 802 524 321 319 323 310 310 296 283 296 288 301 270 310 277 
321 305 301 283 310 316 285 281 301 279 283 294 303 312 310 321 296 296 312 299 310 314 294 314 312 294 312 303 279 303 301 303 303 285 272 294 316 312 479 363 312 301 277 270 241 257 219 201 208 201 272 303 305 321 321 312 299 314 332 290 303 316 343 348 593 771 541 321 325 299 301 303 303 303 321 296 310 301 308 305 
301 312 265 288 299 312 290 285 281 294 281 310 321 321 312 316 314 299 301 312 308 319 301 303 292 290 294 288 308 301 296 299 305 303 288 268 277 316 359 299 294 292 285 281 294 283 241 212 197 257 288 316 325 310 316 319 299 328 330 294 330 296 336 343 557 758 563 321 319 303 325 308 296 305 299 299 292 296 319 308 
281 308 310 288 290 303 312 299 292 281 288 296 303 310 314 303 310 314 314 325 334 325 301 314 294 301 305 301 296 292 296 288 296 305 312 301 301 290 321 290 299 294 283 290 294 283 288 257 294 288 316 325 341 345 332 319 312 348 341 301 319 321 325 348 490 745 585 334 330 312 316 308 312 299 305 296 314 292 310 303 
303 314 296 294 303 301 296 305 296 308 288 281 294 292 290 316 296 301 321 339 299 294 299 310 314 274 290 279 303 290 283 292 301 283 299 294 305 279 303 292 292 299 290 303 290 285 314 296 305 299 308 345 343 336 325 332 312 350 332 312 316 321 339 336 453 715 615 330 352 316 310 301 296 292 312 314 314 308 321 323 
281 308 303 319 290 301 301 310 323 310 281 312 301 292 308 334 328 328 330 330 301 303 314 296 301 283 292 281 294 312 296 288 294 288 301 296 299 303 314 290 296 299 296 308 319 321 312 325 290 299 328 345 339 336 316 336 285 310 319 312 345 352 352 361 422 711 621 345 328 319 316 325 316 312 325 305 310 310 321 328 
277 292 294 314 299 288 279 290 325 330 305 312 285 299 288 316 328 319 321 328 290 308 305 296 299 285 303 292 308 294 290 292 277 283 294 285 294 281 316 288 283 294 299 310 332 319 336 325 316 319 310 310 323 334 308 319 299 312 316 305 328 328 350 339 401 677 649 361 350 316 303 316 285 290 312 292 301 301 312 319 
263 303 277 292 290 312 299 283 305 325 308 288 323 305 316 345 325 299 323 301 301 314 310 294 308 308 308 303 308 292 310 288 312 292 310 292 305 312 285 285 310 303 343 414 431 361 334 352 339 321 303 314 305 339 314 319 301 308 319 305 319 323 341 345 381 643 641 363 359 319 301 316 310 303 305 312 316 294 314 323 
263 283 301 277 310 312 301 301 299 310 316 303 305 332 339 339 314 305 310 325 319 321 312 323 314 314 296 299 301 316 305 296 312 294 294 308 294 308 308 301 321 352 492 666 760 518 381 316 328 314 310 296 310 321 312 334 308 323 312 330 319 334 334 352 367 623 636 374 348 336 341 310 336 296 312 316 314 310 325 321 
270 270 281 277 292 285 288 281 303 292 305 274 292 332 336 312 285 290 301 319 310 314 316 325 319 308 303 314 314 312 305 312 314 294 283 288 303 290 312 299 308 425 578 666 737 492 367 328 316 299 310 299 288 314 312 316 288 301 316 314 303 325 332 336 339 580 632 376 341 334 336 332 328 303 308 321 308 310 310 323 
279 288 296 290 301 288 285 283 292 292 303 299 303 312 314 294 294 290 312 323 319 339 330 325 325 308 316 310 301 305 299 296 319 305 299 308 305 310 321 312 316 387 498 634 569 420 336 321 303 296 301 319 305 314 319 308 294 305 310 312 321 341 314 332 328 494 557 348 334 325 319 330 332 305 312 321 343 316 308 319 
308 296 283 296 299 299 292 288 288 283 296 270 283 292 292 301 285 285 301 305 321 352 341 341 336 325 328 316 319 332 323 316 323 312 301 312 328 296 330 305 319 350 396 422 405 352 316 310 299 310 301 303 319 301 308 325 292 321 341 310 319 321 330 345 339 376 390 323 345 319 325 336 323 305 321 310 319 319 319 323 
296 290 292 305 290 296 270 290 285 270 272 274 292 285 301 305 292 288 325 310 325 374 359 361 354 330 343 341 332 330 334 316 325 319 314 328 316 328 321 303 319 328 345 350 332 299 319 303 308 301 312 299 314 303 316 319 310 316 310 316 314 321 332 339 339 336 319 303 334 321 319 336 303 296 292 319 339 336 316 334 
292 303 310 299 301 290 277 296 290 283 288 301 294 288 283 296 294 299 305 294 299 328 367 396 374 350 345 332 330 332 325 325 332 321 312 312 323 312 328 314 316 310 310 310 316 308 312 303 314 314 290 319 310 323 328 323 296 305 323 308 328 328 330 328 323 330 323 303 336 319 323 350 321 279 294 299 330 334 316 339 
303 279 285 301 310 292 301 299 314 290 314 288 294 301 312 296 296 290 305 336 296 328 334 381 409 372 354 348 365 328 339 336 330 316 328 325 325 325 343 301 299 316 310 310 312 288 303 292 305 299 303 312 310 312 301 325 274 312 312 310 303 330 323 330 328 319 299 296 343 339 308 339 305 285 294 330 319 296 290 334 
310 285 288 310 296 299 272 290 330 319 321 292 288 285 283 305 296 285 292 310 285 330 312 336 387 416 379 334 372 332 350 339 332 325 305 359 323 312 341 325 305 312 314 316 305 299 301 296 296 303 303 312 310 312 308 321 303 310 321 296 316 301 330 334 330 319 305 303 334 336 310 345 312 288 319 343 336 296 323 312 
283 281 281 303 299 312 305 296 316 301 316 308 308 285 283 283 296 292 303 321 283 292 301 308 341 374 411 390 379 363 345 339 334 325 328 354 325 316 319 308 308 323 305 303 305 296 310 301 301 279 301 310 285 323 310 314 285 299 321 294 330 339 332 334 332 330 328 308 323 343 341 350 316 310 325 328 328 319 288 325 
301 294 296 281 296 301 288 288 308 325 325 305 301 299 319 292 285 296 292 319 292 312 308 299 301 330 394 416 398 374 374 348 339 334 339 323 334 323 325 316 314 323 305 305 305 292 312 294 310 308 303 288 301 299 305 316 283 301 305 283 312 303 321 314 314 314 325 301 330 336 336 343 323 323 354 348 356 294 314 332 
303 301 310 292 296 305 323 279 296 319 321 305 319 303 305 299 299 288 294 299 285 314 303 303 332 339 403 372 429 416 394 361 361 339 336 332 332 316 334 312 299 312 323 308 310 299 310 296 305 285 296 296 312 303 301 301 292 312 319 294 316 328 308 312 325 323 328 310 343 323 334 365 350 343 339 336 343 303 312 343 
316 308 296 285 288 305 303 281 316 312 310 323 308 312 310 316 316 314 305 292 288 316 308 310 365 363 374 354 383 414 416 390 374 359 345 345 336 319 345 310 316 321 308 312 314 299 316 314 308 296 294 310 301 310 312 316 290 292 314 288 325 310 314 321 323 334 330 319 341 330 339 345 332 354 341 348 345 348 341 350 
301 325 303 288 294 310 301 310 332 312 323 299 323 303 325 323 301 303 301 294 288 312 310 356 365 341 345 341 356 359 403 433 405 354 363 343 336 334 332 316 308 339 316 316 310 303 312 305 299 288 319 314 305 310 296 296 290 312 312 301 316 301 328 310 314 323 334 310 334 321 341 343 330 339 359 341 352 352 370 365 
299 299 296 296 301 305 301 303 325 319 314 321 321 336 314 325 325 285 285 319 288 328 350 370 336 328 339 330 352 356 359 379 420 403 363 352 363 330 356 325 321 316 323 316 328 310 321 303 299 281 316 319 314 314 299 305 290 305 314 292 312 303 332 301 314 308 316 303 334 323 334 341 339 316 341 365 356 361 356 359 
312 308 310 308 325 319 292 314 319 323 314 319 332 339 308 325 325 294 301 323 310 374 376 345 336 321 341 339 352 339 361 352 392 390 398 385 372 334 359 345 321 330 319 316 314 314 319 316 316 294 319 328 310 321 316 308 294 316 323 296 319 319 310 314 312 316 328 312 336 323 332 334 334 336 328 363 356 354 367 352 
312 314 310 308 305 319 314 290 308 308 314 296 323 321 308 328 314 314 299 314 299 328 354 319 341 325 359 330 343 339 332 330 345 354 367 414 381 367 341 341 339 325 336 336 336 294 316 314 310 319 325 328 303 314 321 319 277 296 325 294 301 312 328 319 316 316 325 301 321 334 321 328 330 339 332 348 356 359 343 350 
308 305 303 301 314 330 296 312 305 296 325 316 314 334 323 328 328 294 310 316 308 328 323 319 334 341 367 339 334 348 343 328 350 332 345 396 396 370 354 341 325 343 330 321 334 305 312 319 321 312 316 325 316 321 305 323 292 296 321 290 319 314 314 305 323 310 314 294 334 325 332 321 323 332 332 316 341 330 330 336 
303 305 314 299 316 301 310 314 323 310 323 316 312 310 310 314 328 308 310 319 310 310 321 314 334 325 332 341 321 323 325 328 343 354 374 409 392 356 350 334 319 328 325 328 325 308 316 321 305 305 328 314 330 325 316 321 292 308 323 292 299 314 321 328 314 319 321 296 314 319 316 312 336 341 341 334 343 332 325 348 
314 314 294 321 325 310 310 308 319 305 319 308 316 316 314 314 316 299 316 323 312 325 310 328 350 332 332 328 316 310 332 348 361 372 398 381 359 348 345 334 316 330 316 316 325 312 321 308 321 314 334 314 316 312 321 332 316 308 321 292 310 299 336 321 303 314 310 294 325 316 319 323 321 316 334 336 325 330 325 328 
294 296 301 310 310 319 303 301 308 303 316 301 301 314 303 316 323 301 321 314 296 314 303 323 308 310 316 316 348 352 339 350 372 383 363 350 352 323 325 294 314 316 316 319 330 314 328 308 336 319 319 316 325 312 319 314 292 301 321 294 303 299 330 316 312 310 305 274 316 314 323 325 330 314 312 325 319 325 332 328 
321 312 308 294 310 314 308 312 339 314 321 301 314 332 330 328 308 305 305 325 305 314 316 310 325 319 319 312 350 341 336 372 403 356 365 363 350 348 341 314 325 330 332 332 319 319 330 334 343 330 321 330 328 330 330 341 305 328 332 314 305 310 323 328 319 325 332 301 325 330 312 330 343 330 325 336 328 328 334 319 
299 296 296 305 316 292 299 294 325 312 314 301 310 314 319 325 305 312 312 325 301 305 308 314 325 303 325 308 348 361 381 390 345 310 336 343 343 330 336 319 323 316 314 336 319 310 319 341 332 321 319 330 325 334 334 332 308 321 332 312 319 330 328 312 314 319 303 299 316 314 303 323 325 316 310 312 328 323 336 316 
314 305 316 321 310 310 303 294 323 325 303 316 321 310 310 330 321 303 312 314 294 305 299 316 328 325 328 330 343 387 379 376 361 348 343 323 348 330 339 321 319 334 316 330 332 314 321 323 343 314 339 341 334 341 332 336 316 328 348 336 341 316 325 336 312 325 303 301 330 330 323 323 308 328 314 308 299 330 316 330 
312 301 292 292 323 296 305 310 323 303 310 308 316 321 310 319 312 288 296 296 285 290 292 281 296 319 321 348 394 392 365 339 332 339 332 348 334 310 341 308 319 319 336 321 339 310 323 323 332 312 341 325 330 321 316 314 305 330 350 310 341 314 316 334 319 332 319 312 321 305 319 321 321 299 314 301 323 323 328 334 
319 330 312 288 310 321 308 288 332 294 296 299 323 316 312 303 308 285 299 294 296 299 288 285 305 321 359 372 381 361 352 334 348 339 314 336 354 330 334 328 314 314 319 341 339 312 312 332 323 314 332 325 348 334 330 330 314 341 330 310 336 319 321 325 316 343 319 308 341 325 321 334 316 305 294 314 312 323 310 336 
330 294 308 308 314 296 299 294 332 299 321 305 310 316 288 305 314 294 290 290 279 279 292 290 305 314 376 363 367 356 343 323 341 328 319 330 328 321 334 321 310 336 319 341 323 310 323 332 336 325 323 328 336 336 336 339 321 325 345 316 352 332 328 334 328 332 352 308 332 316 312 310 328 319 323 325 305 323 332 330 
296 316 310 308 319 294 296 294 343 314 334 305 296 301 292 310 303 299 277 308 283 283 285 285 312 301 325 330 361 319 328 339 325 332 321 334 334 321 339 319 314 323 330 330 323 319 328 328 328 321 328 339 321 334 312 336 330 319 339 310 348 332 332 330 314 332 316 292 321 319 321 330 336 321 332 332 330 316 319 319 
330 341 303 312 319 319 296 299 332 288 323 321 296 296 301 314 305 285 292 319 272 310 301 301 310 292 314 312 330 341 341 321 336 321 334 328 336 330 325 323 325 330 314 339 319 319 334 339 339 316 334 332 334 325 321 334 323 332 361 312 343 345 352 345 343 345 339 319 354 314 325 345 321 321 319 328 328 332 339 321 
310 325 301 316 310 316 303 283 330 292 303 299 294 296 299 312 296 294 292 303 283 301 281 288 301 301 299 288 308 310 321 323 330 312 321 301 330 328 325 310 303 325 314 341 316 319 321 314 316 314 312 319 328 323 330 336 305 310 350 308 328 328 332 332 332 341 319 308 328 325 328 325 314 305 321 312 305 314 301 330 
301 316 308 299 296 305 288 303 328 303 296 303 296 316 319 303 292 285 290 301 288 292 292 292 294 279 288 296 299 303 321 316 323 321 310 305 323 328 334 325 301 294 321 321 308 314 330 319 328 310 316 321 330 321 328 330 328 321 330 325 325 330 343 341 308 330 328 292 339 305 316 323 316 301 296 303 303 292 334 314 
319 312 301 296 310 330 292 310 328 296 308 305 316 319 305 314 310 290 305 305 285 296 303 310 319 268 310 308 312 301 308 319 341 305 319 336 334 323 325 321 314 345 345 334 339 319 334 332 336 314 336 328 339 336 348 336 319 312 336 312 345 343 336 363 348 356 332 312 343 319 348 332 323 310 330 321 332 321 323 319 
319 316 312 296 310 312 299 303 303 321 323 299 323 314 290 328 301 301 299 303 268 305 299 299 316 281 303 277 308 303 323 325 328 305 325 314 323 316 332 323 314 319 321 323 321 328 328 321 332 321 325 336 330 330 325 356 294 312 356 334 339 341 341 345 332 336 339 305 328 321 314 316 334 301 334 316 310 325 341 332 
312 348 321 301 308 308 299 294 310 294 299 312 316 303 308 323 312 296 312 305 290 299 296 296 310 277 292 296 312 303 299 301 308 316 323 316 336 323 332 319 314 339 319 341 341 328 332 328 321 310 328 328 319 336 325 336 325 328 363 334 348 339 339 341 339 345 332 294 339 332 339 332 330 321 321 330 312 316 323 328 
323 316 308 312 305 314 288 279 303 277 296 314 312 325 303 319 305 285 294 314 274 294 303 296 299 290 303 303 305 314 301 301 319 323 332 336 328 339 325 332 314 330 316 341 339 316 319 332 332 323 325 332 336 336 325 341 314 323 356 308 334 339 356 352 336 341 352 310 336 334 334 319 325 325 314 316 328 330 332 354 
303 303 301 305 292 305 283 277 290 303 319 308 325 325 296 334 310 290 303 305 281 296 279 303 310 281 303 277 296 292 312 292 308 312 323 314 341 321 341 328 330 339 319 321 321 316 328 336 343 312 325 321 323 336 314 341 323 336 341 330 323 345 348 345 343 352 339 308 323 343 328 321 339 341 328 325 332 323 330 325 
303 312 316 292 292 308 283 279 308 321 310 310 323 321 301 314 301 285 299 299 290 285 294 294 305 294 288 299 299 301 310 285 310 308 316 336 341 316 350 319 330 328 323 332 321 328 321 343 334 319 339 316 339 332 348 348 312 323 339 319 341 356 339 354 348 356 359 308 350 328 339 332 339 330 336 334 339 332 343 350 
319 301 319 319 308 305 277 285 319 294 294 288 314 310 323 325 319 296 301 303 296 303 281 303 310 296 296 312 319 294 285 312 310 312 321 332 345 330 334 325 328 332 325 336 321 334 339 341 336 330 319 345 323 332 341 348 321 343 343 334 343 352 336 345 354 339 356 310 339 345 350 336 345 323 339 334 348 341 330 325 
308 319 292 308 301 312 292 292 303 292 296 301 301 323 296 319 310 277 283 312 277 296 279 301 310 290 301 294 321 299 310 321 308 310 301 336 325 316 343 316 312 323 325 339 332 336 341 341 341 341 341 339 348 328 323 345 305 350 334 339 341 343 350 356 361 367 350 314 348 341 341 345 348 339 356 336 336 316 341 348 
305 308 321 316 279 305 277 288 308 303 303 303 303 308 310 325 316 288 285 303 279 303 303 301 290 283 299 294 303 303 308 310 303 292 310 325 334 319 336 330 323 319 330 336 325 330 341 332 345 316 332 325 343 343 332 352 319 352 341 334 321 350 343 354 352 356 332 308 345 325 354 334 352 325 343 336 330 345 336 321 
328 296 305 299 305 310 292 281 301 308 290 277 299 310 308 330 303 279 285 294 285 290 288 290 308 283 290 301 316 296 305 319 316 292 288 323 321 310 348 328 316 336 323 316 325 308 332 325 323 328 323 341 336 339 332 339 325 352 350 330 334 343 339 345 341 365 341 316 343 332 339 334 343 321 332 341 325 325 341 330 


