P2
80 60
539
177 212 212 224 207 188 192 151 155 138 127 145 123 123 127 127 123 145 132 140 123 106 119 102 108 143 136 166 209 269 307 339 358 373 404 433 442 438 438 429 452 450 450 421 408 425 462 440 446 429 427 425 396 404 433 429 454 479 489 446 429 458 421 394 421 394 413 375 356 377 373 392 417 398 433 427 419 423 404 423 
147 190 199 216 233 209 231 184 181 171 115 140 121 153 140 149 162 250 263 258 271 297 314 295 329 381 440 446 483 527 539 535 487 406 358 314 305 305 292 280 265 275 252 227 196 201 199 179 173 164 143 158 143 158 153 127 130 125 132 125 115 143 125 130 110 110 110 123 121 104 86 99 99 99 127 132 136 138 155 186 
132 153 173 224 258 246 256 237 273 267 284 280 333 356 381 433 466 462 448 431 390 346 331 305 346 341 273 273 286 278 273 241 203 188 151 119 123 108 91 86 91 82 95 80 95 80 84 89 74 71 65 69 67 78 80 80 69 69 71 61 63 76 58 71 67 54 65 69 48 52 56 61 43 48 37 65 39 46 37 58 
231 265 309 362 369 348 369 356 367 377 390 348 337 269 282 286 290 305 286 229 196 160 138 134 155 119 91 102 95 86 104 95 110 97 104 80 82 74 78 65 63 67 76 84 80 84 71 82 71 74 63 58 61 65 86 74 71 63 67 63 71 69 56 67 46 46 61 65 61 52 48 26 50 33 43 56 43 37 28 17 
278 301 333 362 379 377 324 297 305 284 235 227 192 190 153 121 117 138 132 127 99 97 97 104 99 106 95 102 78 56 80 67 71 93 99 84 80 76 65 61 74 71 61 58 74 74 80 78 65 43 63 46 52 61 69 78 82 71 56 58 63 58 65 58 54 33 58 33 35 39 22 28 35 24 37 30 37 43 17 35 
252 246 218 218 175 173 160 164 212 224 192 209 188 171 149 138 136 136 123 125 110 95 110 93 93 97 91 102 76 78 74 58 84 74 84 80 78 78 52 71 61 74 63 71 65 78 69 67 69 58 46 56 43 56 54 71 69 56 69 63 58 56 54 52 43 33 46 28 26 33 22 37 48 26 7 17 26 30 26 30 
138 143 130 136 130 132 168 158 158 194 190 201 179 186 179 136 134 112 123 123 115 89 102 106 97 102 78 86 80 82 74 61 71 89 80 71 69 65 76 67 78 74 67 84 58 71 74 63 52 52 61 50 56 48 56 65 76 65 56 50 69 65 69 50 52 50 43 37 37 22 28 41 33 20 15 13 11 24 4 37 
106 112 110 121 115 104 136 134 134 147 153 181 194 194 186 168 164 132 125 127 130 95 91 104 99 89 63 76 71 82 78 58 78 67 91 84 82 74 86 86 82 80 74 80 65 76 67 54 52 54 65 61 63 61 67 76 71 63 74 67 76 76 67 61 56 58 37 30 26 15 30 43 28 17 15 24 11 35 7 41 
104 104 97 106 112 106 121 121 130 140 136 153 171 190 175 179 168 160 140 136 117 119 112 119 89 71 56 69 56 65 65 65 65 82 80 71 89 71 86 67 69 80 71 63 71 65 61 50 50 54 63 65 78 76 76 63 69 74 76 61 63 65 78 82 69 67 56 37 30 28 33 48 26 22 15 13 20 15 20 33 
104 115 115 110 99 104 99 106 110 130 123 140 140 171 181 184 184 164 143 130 123 121 115 97 104 78 39 61 48 65 58 58 65 65 86 65 84 71 82 89 76 86 71 65 71 63 56 46 46 48 54 67 63 69 69 63 69 80 58 67 71 76 74 71 61 56 58 37 22 30 30 28 28 26 4 0 11 15 13 24 
115 123 89 108 106 99 108 95 115 110 108 123 132 140 155 162 179 171 166 125 119 134 110 112 115 91 56 52 46 28 78 80 93 97 97 69 76 76 104 99 89 97 89 76 74 80 76 63 58 67 56 80 71 67 89 67 80 89 74 82 84 78 78 69 71 65 50 50 41 39 37 52 43 24 28 9 20 28 22 24 
110 117 104 104 99 108 104 99 102 125 134 143 147 173 184 188 201 216 201 196 188 196 190 171 207 194 207 196 181 224 263 273 261 252 267 244 267 265 271 269 269 256 254 273 290 303 309 280 248 222 214 203 168 177 166 162 166 171 155 151 153 166 151 153 125 115 106 86 84 65 63 46 50 46 30 22 24 30 37 37 
112 104 93 102 91 106 93 93 102 117 115 190 267 275 284 312 375 417 411 400 371 341 318 329 329 309 303 318 335 364 373 367 362 348 320 282 280 320 316 333 303 312 333 331 333 364 371 394 388 341 346 333 301 305 331 354 356 377 360 350 341 346 333 398 406 381 333 312 273 256 220 209 188 184 190 162 125 119 102 91 
102 117 99 106 104 104 106 104 123 106 119 184 237 227 237 209 233 229 235 199 168 173 149 171 143 108 108 82 84 138 147 127 134 115 115 108 121 115 127 119 121 117 112 121 123 138 136 143 147 145 145 147 160 188 199 207 207 222 222 239 250 284 316 358 309 329 320 322 324 318 286 271 252 282 303 341 326 309 290 292 
102 108 95 119 86 86 106 80 99 104 95 117 121 130 115 132 134 143 125 112 110 108 104 97 65 37 46 54 56 78 106 91 104 97 95 84 84 78 93 93 91 82 89 84 80 82 95 89 78 74 80 82 82 67 95 82 99 97 95 84 106 115 93 97 99 102 97 108 112 143 130 145 164 181 218 201 203 207 181 244 
108 117 91 104 108 95 95 93 99 102 89 97 95 121 97 117 130 125 119 115 110 102 97 86 61 46 28 41 37 84 86 95 93 82 86 89 71 82 93 91 91 84 82 78 74 80 91 78 82 74 76 82 84 76 93 99 102 99 97 93 95 99 91 97 80 86 91 82 76 76 69 71 76 71 74 78 65 76 58 80 
106 115 102 102 89 84 102 93 89 91 80 93 102 102 104 110 117 119 115 99 91 86 76 56 30 22 13 43 48 78 78 80 91 82 86 76 80 84 89 82 89 76 67 108 65 89 91 95 82 84 102 78 80 80 89 74 93 86 86 80 95 89 95 97 84 82 91 89 84 80 89 80 80 63 65 63 63 54 50 58 
102 132 104 115 95 99 93 82 95 97 89 99 97 93 99 102 106 106 104 99 86 80 63 37 24 33 20 33 46 84 86 74 82 99 89 74 89 74 102 86 74 84 69 91 74 84 80 86 76 71 74 78 89 84 80 84 82 86 82 78 97 91 110 99 86 82 82 95 84 86 65 78 74 67 61 61 67 58 24 39 
99 115 99 110 93 89 86 89 84 102 89 99 95 95 86 102 102 93 84 102 80 84 65 56 48 24 30 33 33 56 76 74 78 86 78 74 93 74 80 76 82 71 74 76 78 84 86 84 91 86 82 76 82 93 74 93 91 95 91 93 91 89 95 93 91 86 80 89 69 76 76 65 67 63 65 74 61 52 33 54 
91 99 97 108 93 82 86 84 104 80 84 89 80 95 89 89 93 91 93 91 80 78 84 65 71 54 58 74 46 65 82 80 86 89 97 61 84 86 84 84 89 84 80 80 78 74 80 78 84 80 69 80 86 102 97 97 93 97 104 99 95 89 86 93 89 86 86 71 86 82 76 76 69 56 76 69 56 54 35 35 
82 86 82 93 89 84 82 82 89 86 86 86 91 95 99 99 91 97 91 84 95 84 93 67 82 78 84 82 69 67 74 78 76 74 71 69 71 84 84 76 76 71 74 74 71 71 89 80 76 78 71 89 86 95 91 95 102 95 106 89 108 95 97 102 89 82 89 76 93 82 78 74 82 74 65 58 61 61 46 37 
67 82 84 95 93 71 93 76 91 91 80 86 84 86 86 74 82 82 89 84 76 84 76 69 74 78 76 95 76 78 76 71 76 93 76 78 89 76 74 80 78 78 67 76 80 80 86 76 91 78 69 91 99 95 108 95 104 99 95 99 104 108 102 104 86 82 80 89 84 91 78 78 84 78 89 84 61 50 39 41 
65 76 91 78 91 76 89 76 80 74 71 76 76 76 93 71 84 91 82 82 84 84 74 82 76 80 84 80 84 82 78 84 76 84 82 78 82 76 78 82 71 78 69 69 78 71 86 84 71 71 67 97 91 102 112 108 104 99 95 97 104 106 99 102 97 106 97 82 82 97 89 80 71 80 91 82 71 56 39 54 
63 86 76 91 91 97 95 78 82 80 80 80 76 82 78 65 78 89 80 74 71 80 74 76 80 63 78 74 78 74 82 80 80 76 78 78 84 71 86 82 71 80 78 74 78 78 76 74 76 74 80 106 104 108 112 108 112 102 104 110 112 99 112 110 106 99 89 95 91 102 89 86 89 69 78 69 63 58 41 35 
65 76 82 78 91 86 84 76 84 82 71 67 74 86 95 86 74 74 86 76 71 71 67 82 93 71 89 78 76 74 74 78 80 84 74 74 71 78 80 67 80 69 63 71 65 80 82 76 76 78 78 104 106 108 99 106 104 104 119 97 104 99 108 104 97 86 106 82 91 91 80 76 78 61 80 67 69 50 33 41 
69 80 82 82 86 84 97 84 86 93 74 91 78 82 82 80 89 84 80 80 84 76 80 78 91 76 80 86 71 80 80 76 74 91 78 84 84 84 84 74 71 78 78 67 82 67 78 76 78 74 86 102 99 104 119 104 112 110 110 108 112 104 117 112 106 97 99 99 80 95 76 84 78 61 61 67 63 48 37 50 
65 99 89 89 97 80 84 69 86 86 84 76 78 80 76 76 69 78 93 80 67 80 74 95 82 71 78 78 71 84 93 76 82 74 80 74 80 86 95 86 78 74 80 80 74 76 76 80 78 80 91 108 95 112 106 108 110 110 110 104 119 115 112 115 99 102 99 84 89 82 80 76 74 63 58 65 56 54 39 30 
76 74 86 91 99 67 78 86 89 95 97 84 74 74 84 76 74 80 67 71 76 82 65 80 74 78 84 91 82 78 69 84 82 74 89 78 74 89 91 80 84 78 84 76 69 82 71 82 86 99 95 106 99 112 117 115 99 119 110 108 115 117 119 115 110 102 82 82 95 95 74 84 69 61 69 65 54 63 41 50 
78 80 82 76 93 84 84 78 89 80 93 84 80 84 78 71 76 82 76 76 78 84 76 78 86 82 89 91 84 69 91 80 71 86 84 89 86 74 82 76 82 76 80 78 69 80 74 69 86 86 112 106 104 112 108 104 112 112 121 102 123 119 117 121 99 102 91 86 78 82 76 71 63 54 54 63 58 67 46 54 
74 78 102 86 89 84 84 82 78 95 89 76 76 86 84 71 76 80 69 84 76 86 78 82 76 74 89 78 76 69 76 67 67 78 93 82 71 86 84 78 86 71 69 78 76 93 78 61 80 80 108 104 108 106 112 110 99 117 108 108 110 108 104 110 104 99 86 99 78 80 76 65 67 52 50 67 58 63 39 50 
76 84 76 91 89 80 84 76 76 89 93 78 82 82 71 69 78 74 74 78 78 82 80 82 86 89 78 82 76 82 78 78 76 86 86 71 76 71 80 69 69 65 74 63 76 67 78 80 86 93 104 102 104 99 121 108 104 108 112 99 108 104 106 104 104 86 97 78 69 71 63 58 69 43 46 63 58 56 39 54 
80 84 82 80 80 84 78 89 86 86 71 91 86 86 76 76 76 78 78 65 67 78 69 74 76 78 78 84 80 80 82 69 84 71 76 71 69 89 86 86 76 71 74 76 67 65 76 78 78 84 97 119 104 95 97 110 95 104 99 102 115 102 108 102 91 91 80 82 78 84 65 69 56 48 54 61 52 54 37 56 
86 86 76 82 78 82 89 86 76 86 74 74 74 74 80 69 74 69 78 74 71 82 82 91 82 78 71 78 76 74 82 67 82 69 86 71 84 74 78 89 74 76 78 78 67 82 71 82 82 89 95 104 99 99 99 95 108 106 93 102 115 102 106 93 93 84 78 95 63 74 58 65 56 58 78 69 58 52 52 74 
74 91 80 86 84 76 80 84 82 95 80 80 76 86 80 67 74 63 67 84 65 80 78 71 80 74 84 82 78 76 71 74 69 58 76 69 56 76 71 86 69 78 74 78 65 80 74 71 84 99 95 86 97 97 108 104 99 108 93 91 102 93 104 91 86 74 76 63 61 67 63 65 63 63 58 71 67 67 48 74 
80 74 67 91 91 82 80 80 84 80 78 89 78 78 80 61 86 76 74 82 74 80 74 69 78 71 84 78 91 91 80 67 80 71 76 76 67 65 67 80 80 63 71 67 54 74 74 71 86 86 102 91 89 99 93 106 93 104 95 97 108 95 95 95 89 80 76 78 61 69 56 63 58 58 61 67 63 61 43 65 
67 89 80 69 86 93 89 82 89 80 84 78 89 89 71 50 82 65 74 67 69 82 69 74 71 67 89 82 78 71 82 78 69 65 69 67 67 65 71 84 76 67 67 76 67 86 71 86 86 102 86 93 97 95 95 99 91 99 93 95 93 102 104 91 84 61 69 71 78 78 58 52 56 54 63 80 78 78 56 43 
65 78 80 86 78 84 97 80 78 71 76 74 84 82 84 71 76 76 74 78 82 69 82 74 82 82 91 82 91 74 78 74 86 67 76 71 76 71 71 78 84 71 71 74 61 76 84 82 99 91 97 106 106 91 97 97 91 97 97 89 99 93 91 86 91 78 69 69 78 71 69 63 65 67 74 65 78 74 48 61 
80 78 82 84 84 86 86 76 78 78 82 80 71 74 76 76 69 71 69 76 74 71 65 71 65 78 65 74 78 74 69 67 74 63 74 80 71 61 84 78 67 76 76 65 69 69 69 84 84 93 95 82 86 95 97 95 82 86 84 91 99 97 93 89 80 69 67 78 65 65 65 67 65 58 82 69 74 56 48 54 
69 69 63 91 86 89 89 74 80 74 80 80 71 74 74 65 65 63 71 82 67 76 61 76 80 69 93 67 78 71 76 63 74 76 76 76 76 82 78 76 69 71 67 67 58 69 71 95 104 93 76 84 76 86 86 91 91 82 86 82 86 82 93 93 76 74 78 76 65 76 54 69 69 67 69 69 76 61 43 61 
84 80 74 82 86 89 95 84 82 80 67 71 67 67 82 67 67 76 78 84 74 82 63 78 69 76 84 74 71 61 71 67 67 67 74 78 71 74 80 89 76 71 67 63 69 69 76 82 93 84 91 82 84 82 80 93 84 82 80 78 84 93 91 97 78 71 74 65 67 71 69 71 58 78 71 76 74 63 56 63 
86 71 86 95 84 97 99 97 97 84 67 74 61 71 74 61 67 80 80 95 67 67 58 63 65 69 76 69 74 54 65 58 69 74 82 80 80 82 74 78 82 74 74 65 61 63 69 82 89 91 80 80 86 84 80 84 93 97 82 82 84 89 97 71 74 78 69 76 69 76 69 71 71 74 74 78 74 76 52 69 
76 78 82 89 91 89 91 97 93 93 71 71 65 65 58 69 63 80 78 82 74 76 63 71 69 78 63 74 69 61 65 69 76 82 86 71 86 82 71 78 65 67 76 63 67 76 67 86 84 82 74 82 80 78 84 80 78 91 80 84 91 93 97 78 71 80 80 78 74 69 71 67 78 86 91 97 78 82 61 86 
80 69 78 86 89 78 104 89 95 97 69 78 78 69 65 76 69 86 76 67 65 69 54 67 78 63 78 65 71 69 61 80 82 80 78 82 74 91 86 86 78 86 71 71 74 80 76 84 84 71 78 86 74 76 80 63 74 80 91 93 95 89 99 82 89 80 89 71 80 74 71 63 89 97 93 97 93 91 86 110 
61 71 82 80 69 71 86 71 76 78 65 84 74 71 80 65 67 69 69 61 61 52 48 65 74 71 71 78 52 56 52 63 67 71 78 71 63 74 86 74 69 76 76 69 71 69 80 78 89 89 67 74 65 78 76 67 58 65 67 89 82 84 89 84 78 69 65 63 67 80 63 63 76 89 93 97 95 95 91 97 
78 58 71 76 63 63 76 91 80 71 74 71 76 80 78 58 78 78 82 69 56 58 50 63 65 74 65 71 61 63 61 71 71 63 65 50 54 63 89 76 74 63 74 71 71 67 78 78 86 84 74 80 78 76 82 50 50 56 65 65 78 84 84 71 69 58 63 67 78 71 71 61 71 76 97 104 112 80 71 99 
84 74 86 74 69 56 63 76 76 71 74 65 78 89 95 80 74 80 80 65 56 63 63 71 63 71 67 71 69 69 69 61 56 65 78 58 58 52 52 65 54 54 61 61 61 67 58 71 78 71 80 76 67 80 69 46 33 48 58 69 74 76 80 74 69 56 67 74 61 61 67 74 84 74 102 115 121 82 69 80 
78 80 80 93 67 54 69 76 69 89 61 67 71 56 71 58 65 74 82 82 67 71 61 76 63 65 71 65 63 56 71 71 67 76 78 65 56 52 56 65 56 67 46 56 54 58 67 65 63 52 65 58 61 69 65 41 33 43 58 67 71 74 63 63 63 46 61 65 63 63 67 78 80 76 112 155 145 97 43 78 
95 91 84 76 67 58 56 63 78 63 50 74 65 71 71 69 78 74 80 82 65 71 71 67 61 58 69 69 71 52 74 78 71 80 91 71 52 65 63 67 71 58 46 54 54 63 58 48 61 52 43 48 48 63 52 54 50 52 41 56 78 86 84 69 61 58 56 56 46 41 54 74 102 84 110 158 149 91 58 67 
71 86 74 69 56 50 63 48 54 65 52 56 65 63 71 76 74 67 78 78 74 76 80 61 61 67 74 61 65 56 71 69 69 71 76 76 54 52 71 65 67 58 54 61 46 65 54 58 52 37 43 48 43 37 43 48 54 52 58 50 56 67 67 71 52 43 50 58 52 54 50 65 104 86 95 155 136 95 63 82 
91 89 84 71 69 54 58 54 50 56 65 74 80 76 61 67 78 84 76 84 74 78 74 78 46 58 74 69 69 58 76 71 63 80 80 71 67 71 56 71 69 61 65 69 58 56 54 67 58 46 43 41 39 58 56 43 41 46 35 43 48 56 50 54 50 43 54 50 37 52 50 71 76 78 104 115 106 89 67 86 
80 84 78 74 63 50 52 65 69 65 58 76 67 67 67 65 76 71 82 74 71 71 63 61 58 46 67 63 69 65 82 78 63 71 84 91 78 67 58 69 82 69 63 65 54 61 65 61 65 50 50 61 63 67 61 54 52 41 43 35 50 54 67 54 56 58 58 63 43 48 33 54 78 78 112 102 91 84 74 82 
82 91 84 65 69 63 50 61 61 61 65 74 74 74 69 71 71 78 76 71 65 65 69 69 54 54 65 67 76 76 76 74 80 78 91 74 80 71 76 71 71 67 76 69 67 61 67 69 67 52 54 63 78 67 54 69 54 50 35 37 46 54 56 82 61 69 50 56 43 41 43 41 82 82 106 115 102 97 80 89 
91 82 74 78 65 65 63 63 58 67 56 50 71 61 65 65 58 63 56 65 58 61 61 74 58 65 69 71 61 63 76 71 65 80 84 71 71 74 76 80 74 74 71 54 61 65 65 76 71 50 54 71 89 86 69 61 39 50 56 58 56 65 56 56 54 65 41 46 37 41 39 46 74 80 108 106 102 91 78 89 
74 91 74 67 69 69 63 50 56 63 61 65 56 56 71 61 56 54 58 58 46 63 54 67 67 61 67 67 76 71 69 67 82 76 80 65 71 80 67 89 69 76 61 67 63 54 58 65 61 50 56 56 82 80 82 71 63 63 65 52 67 58 61 67 56 61 56 46 43 39 48 54 71 76 95 95 95 95 80 104 
89 74 63 58 58 52 76 48 58 78 63 67 61 63 71 61 65 69 67 67 69 67 37 52 76 65 63 63 74 63 82 71 78 76 86 76 78 69 80 91 84 76 78 65 67 65 65 56 69 61 52 54 61 80 74 56 43 56 50 46 63 61 56 69 63 58 58 46 48 50 35 52 74 58 91 117 99 82 86 102 
78 74 61 50 56 46 61 48 71 71 58 58 65 61 78 65 76 61 67 61 67 63 58 61 61 65 69 67 80 76 69 67 91 80 91 80 89 69 74 82 80 89 80 106 95 89 86 74 74 67 67 63 65 74 71 76 65 65 61 58 56 67 61 67 54 69 71 54 58 43 43 52 63 91 95 106 86 84 82 99 
63 78 39 41 61 61 48 43 39 61 33 69 61 54 71 58 52 67 61 65 65 61 61 61 65 58 69 63 74 82 84 82 76 82 82 69 78 78 69 91 74 86 80 89 82 91 63 69 67 58 52 56 50 86 78 65 54 52 52 56 65 63 67 65 65 61 56 48 50 39 43 52 67 89 74 102 97 80 82 69 
56 74 52 52 48 43 46 26 37 41 33 35 65 54 58 30 61 54 41 58 67 67 65 61 61 58 61 67 84 71 82 74 82 76 80 74 78 69 82 63 65 78 78 84 78 78 74 82 61 52 50 65 52 82 91 106 86 76 65 61 78 71 54 67 67 54 63 52 50 37 41 61 74 76 91 97 97 95 58 67 
78 78 76 65 52 46 54 41 30 48 41 56 37 41 43 50 48 52 63 63 61 63 56 65 63 61 67 63 80 48 69 67 69 80 67 71 65 56 67 71 48 67 74 78 56 56 65 69 67 65 43 50 58 69 89 102 91 91 89 86 91 91 82 80 67 76 61 43 50 43 41 61 86 91 86 104 84 82 61 84 
74 80 78 82 63 48 58 43 30 46 35 63 35 43 46 48 50 52 54 56 52 63 61 48 61 56 50 54 54 48 74 65 61 52 58 56 65 56 65 58 46 61 74 69 48 54 65 71 63 67 52 56 43 69 84 84 91 91 97 86 108 91 102 104 102 84 67 67 48 52 63 74 84 69 84 91 89 78 89 91 


