P2
80 60
832
292 285 253 259 244 235 242 235 263 266 257 268 274 281 285 283 313 324 581 630 363 276 276 279 272 228 226 184 129 167 605 434 133 147 189 244 246 165 215 283 272 296 289 296 294 289 279 270 283 281 274 287 285 279 263 279 263 272 276 270 266 272 268 250 255 255 248 239 242 270 270 276 261 255 228 242 257 253 248 244 
292 281 261 279 235 235 253 242 257 266 272 279 259 283 272 294 311 315 583 626 378 289 287 298 248 222 220 156 87 131 575 358 62 38 76 122 98 54 220 300 298 289 296 292 300 300 294 289 298 300 298 285 285 283 270 279 279 272 281 266 281 272 261 270 257 257 259 250 257 272 261 259 237 222 244 244 250 248 250 237 
268 292 261 261 257 233 242 242 270 274 259 274 261 274 283 281 302 307 537 596 345 285 300 298 270 231 200 131 58 145 585 348 42 27 45 11 34 0 209 287 289 285 289 287 292 285 292 287 287 294 296 289 292 279 279 276 281 274 268 276 253 261 268 268 259 253 255 253 259 266 270 270 231 231 224 242 250 255 250 237 
266 294 259 274 244 233 257 261 270 266 257 289 270 289 285 279 285 300 547 581 371 292 315 300 270 237 228 160 180 235 528 311 58 36 42 36 29 36 244 289 292 289 285 292 296 283 279 294 292 294 287 276 285 285 285 268 283 268 270 266 263 268 263 279 261 246 261 248 253 259 261 257 231 226 233 233 242 268 242 257 
281 281 244 274 257 246 253 246 248 276 279 283 298 309 281 292 296 313 522 621 356 289 305 302 285 298 285 289 328 389 592 354 156 65 45 23 5 76 279 294 300 305 287 283 289 276 292 274 279 285 289 281 283 283 276 276 279 263 283 289 285 279 257 261 257 270 270 235 248 246 261 259 233 228 235 233 263 259 244 222 
285 287 268 292 259 257 248 257 272 276 274 287 300 339 296 279 305 313 528 672 395 305 305 305 298 302 298 328 337 408 617 419 305 244 176 40 38 165 287 298 305 289 302 305 292 296 281 281 281 287 287 289 287 285 268 285 276 268 285 298 289 270 266 281 263 255 255 246 246 242 276 257 248 237 231 242 268 255 257 255 
292 292 263 283 272 272 272 268 287 281 283 296 307 302 296 279 309 333 537 709 406 307 298 302 300 317 311 345 333 408 617 402 341 302 274 105 173 253 296 307 307 302 294 305 285 289 281 270 281 281 296 281 294 279 268 276 287 276 281 287 292 266 266 270 257 261 246 250 248 261 261 261 242 246 244 253 263 266 250 257 
296 285 250 285 268 261 274 279 272 298 287 294 300 294 270 287 307 324 588 707 438 292 309 311 309 317 322 339 345 410 602 393 341 309 302 226 274 281 300 296 302 296 294 285 283 287 279 285 276 285 296 281 298 287 287 279 285 266 279 279 279 268 268 257 255 263 257 237 268 281 259 259 237 228 250 261 248 248 246 250 
274 300 255 268 279 270 279 285 279 279 281 283 283 300 279 296 326 339 611 790 427 311 320 320 309 326 333 345 345 438 630 376 337 311 298 283 305 294 317 300 294 294 287 289 296 289 289 292 285 292 292 296 302 302 294 279 287 270 279 285 268 268 285 257 279 263 261 239 266 261 253 259 255 248 244 259 263 259 246 266 
296 305 266 296 292 274 274 257 281 281 289 311 287 300 305 307 341 345 594 825 440 313 328 326 320 335 326 356 369 496 634 382 341 322 317 302 309 302 311 300 296 298 289 298 315 300 307 285 296 294 294 294 307 298 292 272 287 279 279 276 276 281 268 272 272 270 285 272 272 257 250 250 246 239 246 255 253 259 266 250 
296 289 266 294 292 281 255 246 279 263 268 292 283 305 298 294 330 348 579 832 453 341 341 330 333 326 352 354 374 588 632 374 345 335 333 317 307 298 309 315 305 305 294 296 305 311 302 296 292 292 287 294 296 283 287 281 296 292 270 283 296 276 270 266 272 255 268 266 255 239 228 235 244 239 242 261 253 272 261 239 
317 294 287 283 283 261 270 263 274 281 287 292 292 300 311 317 330 341 549 765 477 343 350 354 335 337 354 386 393 649 636 371 356 322 326 322 317 313 309 313 311 307 317 298 305 305 317 313 294 292 296 307 296 300 289 285 279 283 287 287 281 283 274 283 294 272 270 279 266 246 250 248 246 246 246 259 259 259 255 255 
322 307 274 292 276 285 272 263 285 281 279 311 302 317 309 311 328 333 517 692 471 341 343 339 339 363 363 380 402 684 623 378 343 330 326 324 309 302 315 315 296 311 305 292 302 298 300 309 289 296 287 296 289 287 302 294 296 298 294 281 279 283 287 281 281 272 281 279 259 239 250 235 246 250 246 266 255 259 257 257 
376 305 287 285 289 285 279 292 294 283 292 302 294 328 298 300 326 328 509 690 466 350 348 356 352 389 384 421 412 632 579 365 350 333 343 324 317 313 307 322 307 311 298 294 302 315 300 300 298 296 298 294 305 294 300 296 285 289 289 283 287 281 270 261 274 294 268 272 272 257 253 244 250 244 242 257 259 244 250 261 
430 309 261 307 292 285 285 287 302 300 315 311 313 305 296 309 330 343 477 684 475 341 345 365 384 399 408 430 402 600 549 363 367 352 330 317 320 309 328 315 309 307 309 313 305 311 296 289 296 296 302 294 287 285 287 287 296 298 292 296 281 274 266 292 300 279 272 268 266 261 257 259 253 239 242 253 253 279 255 253 
492 315 281 287 292 292 279 305 298 292 302 302 296 305 307 315 348 356 490 688 492 348 363 395 397 419 406 395 391 607 505 350 345 330 317 315 307 300 320 315 317 307 305 300 305 289 289 276 292 300 289 289 309 289 292 283 300 296 292 292 272 274 276 272 272 268 263 266 255 255 266 257 263 261 253 246 261 261 266 285 
566 335 292 309 300 289 296 287 302 307 292 292 296 317 307 315 352 363 460 657 500 341 376 412 417 427 376 378 397 590 522 348 345 326 315 309 307 296 302 309 307 309 298 309 300 296 302 289 305 298 302 294 313 283 292 279 287 294 281 285 285 279 287 279 285 272 285 253 266 276 259 253 233 257 257 253 250 261 263 263 
626 367 287 317 294 296 305 296 302 324 305 302 317 313 315 324 361 341 455 649 522 374 408 414 408 399 363 378 378 547 486 337 324 328 305 311 320 311 302 307 302 311 294 309 302 298 298 285 292 289 305 305 294 300 289 300 289 294 287 274 279 285 300 289 274 270 261 279 272 274 266 248 253 253 255 261 263 261 259 261 
623 410 294 309 296 287 307 302 307 322 320 309 298 320 317 352 371 354 434 649 528 410 427 427 406 384 361 345 365 507 421 322 335 317 324 298 339 300 300 305 313 305 302 305 300 315 302 322 311 309 294 289 292 294 298 298 311 292 296 296 294 294 292 305 289 283 268 276 274 276 272 259 250 263 263 259 261 266 263 257 
651 526 300 315 292 289 285 309 322 302 317 307 296 343 320 341 354 358 440 636 541 406 440 436 382 358 350 348 358 376 352 317 322 315 343 317 313 320 307 305 307 305 302 305 300 302 309 296 311 309 300 302 302 309 298 285 289 305 287 315 285 294 294 305 292 285 274 279 285 279 259 263 263 259 266 257 255 263 259 257 
670 594 324 322 305 307 294 298 311 315 320 315 333 333 343 341 341 371 462 600 564 408 430 395 369 352 339 333 326 315 328 315 337 313 309 317 315 309 311 302 302 296 296 307 317 289 298 296 300 305 322 298 305 300 287 289 311 287 287 294 292 274 272 300 285 279 276 274 285 270 259 270 257 261 242 255 259 259 263 253 
701 670 391 320 307 302 309 292 324 313 305 333 320 348 337 352 374 384 486 647 598 434 414 374 369 337 337 345 330 330 328 333 328 328 322 326 335 309 300 302 313 300 296 317 313 298 298 287 302 292 296 296 313 300 296 289 296 294 283 287 285 270 287 276 283 298 283 274 268 266 253 285 272 270 263 272 261 259 268 250 
613 727 494 343 315 307 305 305 315 307 315 330 345 330 333 361 404 410 488 686 638 406 374 365 367 337 324 339 330 309 322 330 326 324 324 324 326 313 324 305 302 298 311 292 302 298 296 287 300 292 298 298 309 307 315 285 294 285 294 283 279 285 283 274 281 317 309 294 283 272 289 289 272 283 272 268 261 272 257 259 
528 761 575 343 309 322 320 307 305 317 328 322 328 337 348 382 406 423 500 732 644 384 371 356 339 330 326 337 335 298 328 315 324 315 313 320 328 313 322 326 309 309 298 305 307 296 294 294 305 289 302 300 317 292 281 279 298 292 285 274 287 281 283 283 285 305 305 298 292 294 289 294 276 276 276 268 253 268 253 274 
432 754 684 397 326 330 320 317 322 330 341 341 322 350 386 402 432 443 507 752 653 395 376 358 345 333 324 328 333 313 324 320 324 333 333 322 324 320 320 322 322 305 296 311 302 311 305 292 294 302 294 292 281 283 287 281 287 276 302 283 285 287 287 276 294 307 305 320 296 300 300 296 279 272 281 266 261 270 261 261 
391 754 723 468 328 320 315 313 343 335 341 348 330 365 391 425 449 455 483 752 640 397 356 356 341 326 339 337 320 315 313 330 324 322 326 335 317 322 333 322 298 311 309 305 320 305 298 313 300 292 305 302 311 311 294 274 294 289 298 298 292 292 283 289 305 322 309 324 315 292 298 294 287 289 287 276 270 281 279 268 
376 670 784 558 345 315 330 305 324 330 330 343 361 397 417 432 447 462 464 701 615 376 354 341 326 317 317 317 313 305 337 324 333 326 320 309 313 311 309 322 296 322 305 315 307 307 289 300 307 298 294 305 309 298 296 294 283 287 292 292 298 289 266 283 307 313 315 317 320 309 309 322 309 283 274 289 274 274 283 268 
356 515 782 661 365 339 313 326 335 348 350 358 371 412 421 438 451 430 414 634 585 395 341 333 320 322 330 335 320 320 341 328 343 333 335 315 317 326 320 324 320 309 307 311 307 324 309 315 317 311 307 300 313 298 307 302 289 298 289 281 285 283 259 292 300 320 313 302 313 300 309 317 300 289 302 289 294 285 268 263 
345 414 744 734 434 341 328 326 328 324 341 374 402 443 434 440 423 382 406 594 564 380 339 337 324 315 320 322 322 311 343 341 333 343 328 333 320 302 311 317 311 315 307 311 309 317 285 292 294 296 305 311 302 307 320 298 311 298 289 287 279 274 263 285 300 315 311 300 309 300 298 311 305 289 296 300 294 285 274 285 
335 384 598 723 530 363 315 337 339 333 356 391 408 434 427 423 391 380 389 579 579 391 337 333 317 313 317 330 330 315 337 326 337 350 339 324 320 298 309 305 307 311 296 326 317 309 300 292 298 283 292 300 298 294 309 300 296 317 285 300 281 283 272 279 283 302 333 300 309 298 322 311 309 313 289 307 302 300 281 285 
328 350 455 690 607 361 322 330 335 352 378 419 412 438 425 393 369 350 363 539 592 406 333 348 311 313 326 348 337 322 320 326 352 352 320 328 309 276 287 302 302 302 294 300 292 307 294 305 292 285 285 287 298 287 302 305 313 289 302 285 289 279 283 276 268 285 326 307 305 302 309 309 313 302 292 289 305 289 270 289 
335 339 374 680 661 391 326 324 350 361 389 412 427 438 380 367 356 352 356 466 530 395 328 333 330 315 328 348 326 313 339 348 335 350 322 307 298 292 311 294 283 279 283 292 309 296 313 294 300 281 305 300 294 292 292 292 300 315 285 294 287 276 283 296 244 255 313 309 307 309 315 300 307 300 311 305 300 298 296 294 
335 354 345 581 653 490 324 343 352 350 408 421 430 417 376 354 350 333 350 417 408 345 339 335 317 326 320 324 322 322 341 341 350 330 324 300 309 305 302 296 274 285 283 307 292 292 279 279 292 294 289 305 300 294 289 302 289 315 305 302 276 289 268 279 270 270 292 313 305 305 296 298 302 311 298 320 309 300 292 294 
339 350 333 481 692 581 348 358 361 367 406 421 412 361 345 339 337 335 333 348 333 339 328 326 322 317 326 322 311 313 341 345 343 333 326 300 307 311 300 305 287 300 292 276 279 283 283 259 276 279 292 292 311 320 292 300 307 305 289 298 294 289 287 289 292 285 274 276 294 302 296 307 305 311 296 300 307 313 274 292 
335 354 328 395 670 670 419 374 356 380 399 412 354 337 328 326 337 343 337 333 337 328 320 335 317 315 320 317 328 333 337 333 341 313 333 320 313 305 305 302 302 298 296 294 292 289 276 261 272 285 285 259 289 302 285 309 292 307 279 283 274 268 281 289 281 281 300 276 289 283 289 300 324 298 298 285 309 320 289 294 
339 354 341 378 585 697 498 404 367 395 406 378 335 326 317 320 333 307 322 341 339 345 326 315 320 339 326 330 328 324 339 339 339 345 328 320 326 326 322 309 300 285 261 287 292 296 289 294 285 279 281 285 289 261 268 272 270 289 274 300 281 274 292 298 287 279 279 300 298 287 279 294 300 311 279 285 317 322 302 298 
330 337 337 367 486 667 579 438 399 402 389 350 320 313 322 324 317 307 320 324 337 317 335 335 333 322 320 345 315 320 337 345 324 317 320 324 335 324 337 326 307 289 292 287 287 272 285 285 294 279 285 287 276 274 259 268 266 272 274 296 268 263 274 287 285 294 285 285 309 283 285 285 294 298 281 292 300 317 305 296 
339 348 337 382 443 667 678 492 453 404 380 324 309 320 326 341 320 305 305 326 352 330 324 326 322 320 315 328 343 328 341 341 333 337 328 330 333 341 341 324 305 320 313 292 298 276 274 266 283 281 281 294 279 283 261 255 259 268 270 268 263 261 259 283 268 268 285 298 283 279 279 298 300 289 307 289 305 294 285 294 
345 341 354 393 440 630 727 541 449 361 341 311 324 322 320 328 324 292 322 335 337 335 320 326 326 322 337 337 339 337 341 343 339 341 354 356 356 371 361 328 333 326 309 313 294 294 285 272 279 272 272 285 283 268 272 266 255 268 270 270 257 266 261 276 281 287 296 283 287 279 272 300 298 300 296 296 313 292 276 285 
350 348 363 417 449 532 748 621 410 358 326 309 322 337 326 333 326 307 317 328 330 341 339 328 333 335 339 345 330 337 354 345 356 341 356 367 374 365 358 341 333 335 320 322 305 330 287 285 287 292 279 279 296 261 255 272 253 270 283 259 268 257 270 287 294 283 309 279 281 287 289 294 296 305 285 315 305 305 283 274 
345 382 393 427 438 488 782 680 399 352 322 320 324 337 333 339 350 317 309 333 333 333 335 341 335 339 343 348 339 335 361 350 365 369 350 382 386 358 343 341 352 330 333 328 326 313 302 298 309 305 287 281 294 266 248 253 268 261 270 270 281 283 294 274 298 298 298 274 296 296 309 309 298 298 292 305 313 305 302 285 
276 399 419 432 449 464 585 752 460 363 302 309 309 330 333 345 345 313 307 328 341 322 337 356 333 337 345 345 354 348 363 354 356 369 382 391 374 337 320 350 328 315 320 317 330 313 305 294 307 302 309 302 287 261 266 270 255 250 274 276 272 298 289 285 307 294 281 272 287 296 307 315 313 313 287 287 300 294 276 281 
193 374 402 434 447 440 464 740 554 337 309 300 317 348 335 354 356 330 298 309 341 326 326 343 337 333 335 363 350 345 341 354 354 367 382 391 356 343 330 320 322 317 311 315 328 322 309 317 305 300 333 305 270 270 257 259 272 257 272 287 283 279 279 292 300 281 289 270 281 287 300 309 307 311 292 292 294 283 272 276 
125 339 402 436 423 421 382 611 607 365 296 309 328 337 337 337 345 315 313 287 324 322 335 343 337 365 365 365 348 352 367 350 356 369 393 374 333 320 328 313 311 311 307 305 320 320 309 309 292 317 315 317 287 257 263 266 276 263 259 283 287 276 285 289 311 289 287 283 266 276 298 302 311 289 294 287 285 300 281 274 
100 266 374 430 402 371 352 486 581 408 309 307 322 333 343 339 343 307 294 298 311 328 339 352 348 345 343 350 345 345 356 378 376 382 389 345 330 315 324 348 328 309 313 309 311 320 307 298 307 298 311 313 300 285 257 289 302 292 279 279 287 285 281 298 294 294 272 276 300 285 309 330 309 287 289 287 294 294 298 287 
107 204 341 393 371 343 335 430 496 363 298 311 326 337 348 333 333 296 287 279 302 328 350 343 350 363 345 361 361 363 358 371 384 404 358 335 320 313 317 317 309 305 305 313 305 311 305 305 300 307 307 311 289 285 268 285 292 307 298 296 307 281 287 287 274 270 287 272 266 285 300 322 296 296 294 313 317 307 302 296 
127 196 322 391 341 339 320 343 350 333 313 307 315 324 326 317 311 289 270 292 302 326 348 361 341 365 358 367 376 369 384 384 408 402 350 315 330 328 324 317 311 320 307 302 285 292 289 296 307 292 292 294 317 285 276 294 311 292 289 307 287 276 279 294 294 268 276 283 259 276 292 292 289 272 294 313 324 322 305 292 
142 270 326 350 324 343 313 343 371 348 307 313 294 302 309 320 298 261 263 259 294 337 352 345 341 352 365 391 386 367 399 397 414 358 326 317 324 320 317 324 313 317 326 287 289 279 274 285 289 309 311 300 302 300 279 302 298 289 287 279 298 302 289 289 287 283 281 276 279 276 285 289 281 292 298 322 313 326 309 298 
193 350 326 337 315 317 330 320 356 326 305 292 283 298 289 292 272 255 270 244 292 333 343 309 302 305 352 378 358 378 389 402 365 328 315 328 326 300 330 315 317 311 322 296 285 298 263 266 296 298 322 317 313 296 307 309 305 302 300 296 285 294 292 289 289 283 281 285 274 285 283 285 287 305 320 313 315 328 307 311 
296 348 326 322 311 313 302 315 309 317 311 313 307 300 279 270 268 270 250 259 270 335 322 296 285 272 294 324 341 363 380 389 348 313 337 322 313 317 311 311 311 311 292 287 292 268 259 298 317 311 311 302 313 311 324 313 309 322 315 309 298 294 292 298 274 287 270 274 283 276 296 292 292 305 307 315 311 322 289 296 
330 354 328 343 300 315 289 294 283 302 313 326 305 320 315 276 276 259 279 263 279 333 302 300 272 274 287 294 296 296 324 356 337 326 335 337 322 315 326 313 317 294 317 292 292 294 315 328 313 305 305 322 309 307 320 317 343 328 330 324 313 311 320 294 294 272 281 292 296 274 259 298 320 313 317 313 307 307 302 302 
335 337 337 328 307 296 270 259 287 309 292 298 305 315 317 274 272 270 261 253 276 287 285 294 287 274 283 294 285 279 283 309 330 324 324 328 315 302 322 311 302 302 315 326 307 317 345 337 322 307 326 313 326 326 320 320 322 317 326 330 326 322 315 333 317 270 270 272 263 257 285 292 330 326 317 317 324 324 298 300 
348 354 328 361 311 309 268 268 309 322 287 294 292 309 315 270 253 259 246 257 266 263 292 296 285 283 270 296 281 268 283 307 317 322 315 326 317 307 328 309 309 311 317 305 320 341 352 348 350 326 315 324 307 309 313 324 328 337 343 352 333 339 333 330 322 333 300 294 283 285 294 309 322 317 330 335 313 322 302 289 
358 358 350 333 328 285 272 266 294 320 294 296 296 292 311 268 239 244 261 239 272 272 292 296 272 274 268 279 279 270 289 311 322 333 311 313 322 328 309 317 300 317 300 320 337 358 345 343 339 343 328 315 305 302 309 300 315 339 361 354 358 358 358 343 324 324 326 330 322 320 330 320 330 352 322 320 337 333 300 320 
369 361 335 326 279 287 272 276 276 287 313 322 300 289 298 266 253 253 253 233 270 272 296 289 294 276 283 300 281 279 298 315 320 320 311 322 320 311 322 313 307 307 315 333 354 367 358 335 326 311 317 294 294 292 285 287 300 309 328 361 356 384 354 350 361 356 356 343 333 345 348 315 330 326 315 315 335 307 307 320 
348 358 330 313 263 292 309 283 263 242 294 320 302 294 292 272 250 246 244 237 250 292 313 296 311 309 279 294 300 270 309 313 317 320 313 309 320 317 313 322 307 328 311 335 348 367 341 326 341 330 311 315 302 289 287 305 305 305 313 335 350 358 376 402 421 376 369 348 374 382 399 386 343 345 324 309 315 322 313 320 
354 352 322 289 274 322 309 309 287 257 231 298 311 302 274 266 253 242 246 242 222 279 341 345 361 361 358 352 305 294 320 330 305 309 315 309 313 300 313 333 300 315 311 330 350 352 322 330 333 337 326 305 300 307 285 294 307 305 305 317 322 335 343 382 417 391 378 363 395 406 393 397 402 337 333 328 317 330 320 305 
350 337 285 283 294 328 326 307 315 257 239 233 268 272 246 259 257 250 235 213 233 220 305 352 395 389 414 432 399 333 333 322 324 307 309 305 322 313 311 307 305 324 322 328 345 333 320 330 335 322 300 305 305 298 296 298 283 296 300 287 300 302 322 348 369 397 371 384 406 404 393 393 391 339 339 320 320 335 302 311 
322 317 261 307 320 311 324 305 311 263 220 215 228 244 226 211 244 231 244 228 207 211 233 257 296 356 378 408 410 350 324 309 309 320 324 328 302 292 307 313 313 315 335 311 326 333 348 333 326 322 294 313 324 287 287 298 276 294 300 292 276 298 307 335 339 369 382 391 399 382 384 397 380 356 320 337 320 335 309 315 
333 307 281 330 339 333 326 324 322 248 246 250 231 222 200 215 211 218 244 231 209 211 218 233 228 266 307 380 371 324 322 328 313 320 322 322 317 307 326 317 315 322 317 311 320 317 345 341 330 298 317 345 326 289 289 287 298 298 289 298 292 292 296 315 345 363 412 427 404 404 393 408 389 339 320 320 315 335 330 309 


