P2
80 60
874
303 310 316 312 310 310 294 303 310 314 329 349 351 373 388 414 448 444 446 438 442 425 403 366 392 373 358 366 366 408 425 453 741 623 729 841 874 818 737 661 561 489 431 386 356 314 296 294 301 314 307 314 310 296 279 281 279 274 279 281 292 296 294 301 281 283 270 283 283 270 287 279 268 279 274 281 287 276 276 287 
310 310 314 314 310 299 307 327 316 316 323 327 329 349 356 379 418 425 459 466 451 455 451 420 446 412 436 500 601 612 614 574 614 710 684 631 565 464 397 362 336 329 294 314 281 299 276 265 276 279 276 285 296 274 256 263 274 261 265 261 276 287 276 276 272 285 254 252 259 256 263 259 274 254 274 270 265 259 270 265 
307 321 321 314 325 299 310 316 325 310 316 321 323 334 360 364 397 401 433 470 502 520 556 618 601 567 597 599 650 614 539 487 427 397 386 371 364 336 338 318 314 301 301 279 290 276 265 272 272 272 272 272 287 272 259 263 270 261 259 263 268 268 276 285 274 252 216 228 241 250 261 270 248 248 252 259 250 259 261 265 
314 296 316 325 312 294 310 321 323 305 323 334 321 364 356 369 410 425 574 712 760 743 747 699 659 569 511 466 431 390 353 358 347 349 338 338 336 327 314 305 318 294 312 287 276 259 270 270 259 265 279 261 272 256 265 261 261 256 263 245 270 272 250 259 243 219 216 232 243 248 261 254 254 248 265 268 259 281 272 294 
301 312 310 307 301 292 290 290 283 301 303 318 331 351 436 533 625 565 620 710 688 597 533 479 436 444 405 405 399 408 371 360 331 351 351 345 345 321 318 312 305 296 296 248 243 236 243 243 254 259 254 248 252 254 241 250 261 243 256 261 268 259 245 254 252 243 221 214 241 254 256 272 259 256 287 261 281 279 276 274 
299 296 285 294 287 290 279 292 307 301 312 323 349 498 558 618 597 530 492 433 420 405 401 392 401 414 420 429 414 408 399 369 349 349 349 338 323 325 327 316 316 307 283 221 201 221 221 232 230 241 243 250 234 232 230 243 252 239 243 263 270 254 261 268 241 241 239 212 230 245 261 292 279 290 294 292 294 307 310 296 
283 274 281 301 307 303 294 310 321 305 323 323 314 351 433 392 379 371 366 338 373 364 366 369 356 382 386 403 388 425 405 408 384 362 360 353 336 331 325 329 336 314 268 192 137 161 172 170 214 230 241 239 241 241 230 263 276 272 256 270 299 276 279 281 272 285 292 270 294 292 325 334 351 349 364 377 377 395 429 461 
236 272 283 303 312 303 307 323 321 325 321 318 314 336 327 325 334 334 331 325 353 329 347 347 345 364 369 379 388 397 405 401 382 375 377 362 338 356 336 347 347 323 259 126 56 79 139 139 203 245 263 265 287 292 274 307 310 329 331 347 373 364 408 423 429 515 565 582 627 625 618 603 582 582 614 648 642 637 684 671 
276 287 299 307 321 307 323 327 314 312 316 314 316 321 316 316 325 316 321 334 323 336 349 345 340 331 356 353 366 386 399 420 408 382 371 375 349 360 369 342 349 334 331 199 70 110 148 194 305 334 377 433 505 567 565 582 637 640 608 574 642 659 637 648 663 716 737 716 705 659 623 608 597 561 550 563 543 537 561 464 
287 299 305 312 314 314 305 314 323 321 321 325 312 316 312 318 327 321 325 323 325 325 329 334 338 327 329 349 349 366 377 377 420 414 410 390 377 382 408 399 425 494 554 595 650 659 682 714 718 720 674 691 648 614 578 550 576 589 558 539 533 502 487 468 448 431 416 418 401 395 375 364 373 371 366 371 356 360 351 351 
307 310 307 312 314 323 299 331 325 310 314 318 310 305 316 305 301 314 316 318 321 321 334 327 321 314 347 349 364 369 392 405 442 489 571 714 599 571 576 563 552 616 629 589 554 558 498 530 565 530 479 427 399 369 327 351 353 331 340 329 362 318 327 334 316 321 336 336 323 325 318 334 323 329 318 331 325 340 305 325 
318 325 336 331 323 307 323 334 325 314 321 331 316 310 314 325 312 331 329 327 329 323 327 329 314 321 323 373 459 584 584 606 606 589 648 775 752 671 599 554 487 451 379 212 114 92 106 197 327 316 321 312 305 318 296 301 301 310 316 305 321 316 312 310 321 307 321 325 325 312 318 331 334 318 325 325 316 334 349 327 
323 327 336 334 318 316 318 327 318 312 327 318 312 305 321 305 323 329 321 312 314 303 318 321 323 331 325 375 444 498 548 537 507 489 453 436 414 377 373 347 360 314 281 88 43 43 68 234 263 296 285 290 285 294 301 301 296 310 316 301 296 314 307 316 316 307 312 316 316 305 307 323 338 327 334 303 310 312 342 340 
325 321 329 327 331 318 327 327 338 316 327 314 310 325 316 321 321 314 316 305 321 310 312 312 310 312 310 318 325 338 349 349 360 358 351 364 336 342 336 318 321 327 232 65 34 47 88 234 279 283 287 274 276 290 287 296 292 296 292 290 303 290 287 316 301 314 303 318 310 307 325 318 329 323 327 310 318 312 331 349 
325 323 325 316 327 301 318 336 321 323 323 323 321 307 307 310 312 307 299 305 318 310 314 303 312 296 296 312 294 316 314 338 334 342 338 336 323 325 325 316 301 281 172 36 7 50 81 228 276 285 274 281 279 276 276 283 287 281 290 287 290 296 299 303 301 294 305 323 305 307 299 318 323 314 321 312 318 338 334 334 
345 327 336 321 321 318 312 342 325 314 318 316 316 321 327 314 316 307 307 316 316 301 307 316 310 303 305 305 303 323 314 336 321 331 329 329 303 307 321 292 230 134 36 0 13 29 36 170 265 263 276 272 268 276 279 272 285 281 292 285 285 296 287 301 294 290 301 299 307 312 314 318 325 325 323 323 327 310 329 327 
356 334 321 323 334 318 316 338 331 336 310 318 314 342 325 312 325 316 301 303 310 294 310 312 301 294 303 307 301 307 303 314 316 323 312 321 303 285 307 287 283 245 161 52 25 2 2 90 250 274 268 279 281 261 285 276 287 292 279 290 296 296 294 285 290 301 310 296 303 314 305 323 325 327 336 312 318 327 345 340 
334 345 347 340 323 321 325 331 340 316 314 325 329 329 327 318 323 336 325 323 307 303 314 312 310 310 303 314 310 321 301 307 325 323 310 318 303 303 287 303 314 305 270 232 185 192 194 201 252 274 285 290 272 274 276 294 283 290 283 265 303 296 299 303 294 303 312 314 314 314 325 327 340 334 334 334 338 331 358 340 
356 336 345 323 325 334 334 340 338 336 327 323 314 323 323 321 321 323 323 321 321 307 299 299 301 299 296 292 287 301 301 305 310 303 316 305 316 301 292 296 299 303 281 292 290 296 290 292 281 296 281 279 279 276 274 285 294 294 296 296 292 301 296 299 296 303 299 305 314 303 329 340 334 347 340 338 331 338 358 351 
349 342 349 334 342 351 325 345 353 327 321 325 296 323 312 325 310 325 312 316 312 314 307 310 307 294 303 292 287 305 307 307 310 312 321 307 305 296 276 281 292 296 283 279 281 268 296 283 279 285 285 283 281 290 276 279 290 292 279 296 281 290 301 299 305 287 285 305 321 310 329 336 331 349 349 345 345 345 353 353 
388 377 369 353 358 366 349 351 331 334 318 318 321 312 316 310 301 301 312 303 310 305 303 312 301 305 294 301 296 294 305 303 314 318 305 305 305 294 296 294 299 287 285 285 285 279 279 279 279 292 287 283 274 296 281 285 294 279 285 299 285 292 294 303 296 305 294 314 316 321 334 331 336 334 325 334 334 342 345 338 
360 379 369 377 377 360 358 351 362 342 325 325 323 323 305 303 301 290 299 307 303 314 303 314 312 301 312 301 294 312 305 312 321 321 305 310 312 299 292 307 301 281 292 292 290 276 292 274 285 285 279 279 292 279 279 279 290 290 281 294 294 287 292 294 301 301 303 301 307 305 323 342 334 347 345 338 336 342 360 347 
345 351 360 371 377 369 356 386 379 349 340 314 325 307 301 287 303 285 305 310 318 305 296 301 310 307 299 296 296 299 299 305 301 310 307 307 305 299 307 301 290 285 303 287 272 285 285 276 281 283 276 299 285 292 294 283 292 301 292 285 299 292 299 287 290 310 301 314 318 314 338 342 345 347 349 331 342 345 356 345 
318 318 334 338 334 356 377 382 373 369 362 329 318 310 303 287 285 274 292 312 303 307 310 294 296 299 301 292 296 292 301 301 303 303 303 316 307 301 301 305 301 301 283 283 287 270 276 283 283 279 276 283 303 281 276 276 290 287 294 292 296 294 296 307 305 294 307 305 316 334 334 334 336 351 345 331 331 342 349 360 
299 305 310 314 325 327 318 331 345 342 356 336 316 323 307 279 281 283 305 294 310 305 307 312 301 301 299 292 299 301 303 301 307 305 312 303 301 296 290 287 299 292 287 287 276 287 287 272 268 276 268 283 279 274 274 279 281 283 285 292 292 292 299 296 301 314 307 312 329 327 329 340 321 342 349 327 334 327 347 329 
294 303 301 307 321 307 303 329 342 338 349 340 307 312 290 281 290 276 296 307 314 303 312 305 303 303 307 296 290 287 292 299 299 299 303 307 292 285 305 292 301 287 294 279 281 283 279 283 274 274 279 281 279 290 276 279 290 285 290 301 307 290 290 299 301 312 307 314 334 314 336 338 334 336 349 334 347 347 342 342 
290 305 303 301 312 292 312 316 342 347 347 316 316 316 290 285 279 272 294 301 310 299 307 303 301 294 292 287 292 290 307 301 303 292 307 301 294 285 290 287 292 292 292 281 281 279 274 279 281 283 272 279 281 274 265 294 290 287 287 299 303 296 287 303 305 305 299 312 314 318 329 336 331 323 329 329 329 331 345 353 
294 292 283 301 312 301 307 318 327 334 329 323 301 294 276 270 279 285 294 299 310 301 310 301 290 287 292 290 299 292 294 299 296 294 301 290 283 292 285 294 301 287 287 279 276 283 276 285 272 285 265 272 274 272 276 276 283 281 294 281 292 285 276 301 301 303 303 305 325 305 323 331 327 318 325 323 325 338 336 345 
290 294 292 290 310 303 296 314 321 312 323 307 303 287 274 265 272 270 296 301 296 299 305 305 303 294 292 283 290 292 294 307 294 296 281 296 292 285 296 290 294 287 292 290 274 287 270 276 270 279 276 276 268 270 276 270 281 290 285 285 287 283 283 294 307 305 307 301 316 314 321 323 334 318 338 318 321 316 334 340 
283 279 292 296 312 310 301 325 329 305 312 312 285 285 276 281 270 276 296 292 299 299 316 294 296 294 303 283 287 283 285 290 292 287 301 294 292 287 287 285 299 287 287 296 285 279 276 272 276 276 265 279 274 272 281 274 272 285 276 281 292 287 281 301 290 294 307 296 305 316 323 318 312 331 323 329 307 331 318 314 
287 292 299 296 303 303 310 312 329 323 318 314 294 272 285 279 279 268 294 299 310 307 305 307 299 294 296 292 281 290 281 296 294 305 299 294 290 287 279 294 292 290 294 287 263 281 274 274 274 279 268 279 268 272 268 283 285 272 281 279 281 279 290 305 303 303 303 307 307 316 329 321 318 312 316 307 303 307 321 305 
283 283 285 279 305 290 296 323 340 321 307 307 285 268 265 279 272 276 292 285 303 310 318 296 305 296 303 303 292 290 303 303 301 301 301 290 290 296 292 296 296 292 299 294 279 279 281 270 283 272 272 281 276 256 263 256 279 274 268 270 274 272 294 303 285 294 312 316 312 307 331 323 310 305 321 305 314 310 325 318 
279 270 279 281 296 292 294 336 336 318 314 290 281 276 287 279 274 265 296 292 305 299 307 305 310 307 305 285 279 301 299 305 292 292 310 299 296 294 290 294 292 296 292 301 283 276 279 274 270 276 263 272 272 248 243 263 268 263 261 270 268 281 279 290 292 303 307 307 312 294 314 312 305 318 307 312 316 307 316 301 
281 265 265 268 287 276 299 338 334 318 307 301 272 274 276 268 259 276 287 290 290 299 296 287 314 294 301 287 279 292 303 301 292 287 292 285 283 303 287 283 285 290 285 281 268 276 274 259 268 261 274 261 274 274 254 268 276 268 259 270 279 265 279 283 299 294 303 301 303 301 299 303 307 305 303 307 303 307 310 310 
287 263 248 259 268 281 296 325 318 307 314 299 279 272 281 270 276 287 299 299 303 285 301 301 301 283 290 279 290 299 301 299 299 283 292 292 287 285 283 299 296 283 285 279 272 270 270 256 254 270 263 252 265 263 256 265 256 261 252 265 265 268 276 283 294 294 303 303 307 285 294 296 310 305 296 303 296 305 299 299 
276 272 259 252 290 285 290 310 318 301 301 283 270 276 270 254 274 265 287 292 299 305 301 296 303 294 294 287 287 294 301 292 292 294 296 296 279 290 281 283 287 279 259 265 252 268 270 270 256 252 259 268 261 254 256 259 263 268 268 276 261 270 287 292 294 294 294 301 316 299 285 292 292 305 294 290 303 305 303 294 
259 261 252 259 294 290 283 318 325 292 292 276 261 283 274 263 268 274 283 294 294 290 301 301 296 292 292 285 283 290 294 299 290 283 285 292 290 290 281 285 276 272 265 270 263 256 270 261 259 252 250 259 252 254 261 261 261 274 274 272 274 274 285 287 296 294 303 305 314 303 296 299 299 279 294 287 290 294 303 283 
292 265 256 263 270 283 287 323 323 303 294 263 270 279 276 268 265 283 281 290 299 287 285 301 296 281 285 274 287 281 276 292 290 283 283 285 281 276 276 276 268 270 263 272 256 252 252 252 256 245 256 259 241 261 254 261 263 256 268 265 256 272 279 287 285 283 292 305 303 290 274 281 274 279 290 261 283 276 272 285 
340 283 272 259 287 292 294 316 325 301 299 272 265 270 261 276 268 270 290 299 294 287 290 307 303 292 285 283 279 290 281 283 268 279 301 294 274 274 279 261 272 272 261 270 263 270 265 261 268 250 252 252 256 252 261 243 250 254 261 248 250 268 270 290 290 290 305 303 301 279 276 279 265 268 261 254 272 252 261 254 
323 314 305 299 287 292 299 321 334 318 296 276 259 261 263 276 270 285 292 301 296 299 301 296 303 285 281 276 272 272 285 287 281 274 292 285 274 274 279 279 270 279 259 265 254 272 259 248 265 250 259 252 263 241 243 252 236 234 252 248 261 265 270 281 299 290 301 299 296 290 276 259 250 252 245 243 243 241 236 243 
334 318 310 318 310 292 290 312 310 312 279 272 268 272 272 272 283 276 281 294 292 296 299 299 294 287 283 279 276 279 283 279 292 283 285 285 276 272 279 281 272 270 272 265 259 265 250 256 268 261 256 261 265 248 241 241 245 230 254 248 268 276 274 272 294 305 296 299 305 287 290 276 241 225 236 230 236 228 241 245 
336 305 312 318 310 294 276 296 303 290 259 263 265 261 270 281 285 290 296 303 312 301 299 307 276 285 279 281 272 283 287 285 285 301 303 285 276 270 265 279 272 265 270 254 261 259 259 250 256 256 254 252 252 239 250 248 248 225 252 254 245 283 272 287 303 292 299 294 305 296 270 263 254 239 245 236 239 234 243 256 
323 303 307 307 299 283 281 296 281 281 263 259 250 268 270 281 272 279 287 287 299 294 287 294 287 274 279 279 285 272 281 276 281 274 296 285 287 281 263 265 272 263 261 259 252 254 259 263 254 252 252 248 241 236 243 245 243 239 252 263 265 256 270 274 276 276 287 285 296 276 276 252 245 261 239 245 245 241 254 256 
314 303 301 305 314 292 283 276 263 252 239 245 263 252 259 261 261 268 285 281 303 279 276 279 287 276 283 287 270 283 274 276 270 268 294 283 281 265 272 265 270 268 259 254 245 256 268 254 243 265 254 245 243 241 243 243 243 232 234 241 263 256 259 263 276 259 263 290 272 261 263 250 252 243 265 236 245 245 252 256 
305 299 314 314 310 294 276 290 263 243 241 243 248 256 256 259 272 263 285 287 290 285 272 279 279 270 268 270 268 263 268 285 274 272 292 276 272 276 270 281 274 259 259 270 248 265 270 252 252 252 252 259 254 241 243 256 252 223 232 223 256 245 241 252 256 263 265 274 276 256 256 270 256 252 245 248 245 234 254 248 
316 312 303 305 342 294 285 307 301 259 252 245 245 259 265 268 272 272 287 285 279 263 276 276 279 276 274 272 263 272 263 272 281 281 279 290 285 272 261 265 268 261 270 256 243 250 263 259 256 265 245 252 245 252 239 279 256 248 232 239 261 250 252 256 256 261 274 285 279 250 265 259 256 259 252 239 252 236 256 228 
305 305 314 316 321 301 303 318 305 303 265 250 241 236 248 256 265 272 272 283 287 270 265 279 274 274 270 256 268 274 272 272 276 281 287 285 283 268 270 274 290 296 274 254 248 259 256 259 261 256 241 261 263 248 259 270 301 265 236 252 250 248 263 261 274 265 279 281 265 250 252 252 261 243 248 245 243 248 236 228 
303 292 299 303 312 321 287 329 310 299 265 270 248 261 250 239 272 265 268 272 279 276 272 263 261 256 274 276 287 279 281 272 279 274 287 279 279 276 272 272 283 283 294 272 270 263 272 259 259 259 263 279 270 285 276 290 292 268 245 248 263 274 261 259 265 265 287 292 281 256 259 259 239 239 236 239 228 239 239 230 
299 292 323 296 312 292 294 303 292 296 276 268 256 274 265 256 272 268 281 274 294 281 268 272 272 276 292 285 287 290 290 283 283 283 283 285 276 281 281 259 279 281 279 270 265 279 263 265 268 261 263 281 285 276 292 301 290 296 285 281 268 261 256 259 281 263 272 301 285 270 261 263 243 241 245 245 234 248 234 252 
285 296 307 310 316 303 292 301 285 285 272 281 263 281 274 272 265 283 283 281 299 276 256 274 272 268 285 290 299 307 299 290 294 301 307 283 276 287 287 270 276 281 272 263 256 254 259 274 270 256 265 272 272 283 276 294 281 287 290 299 279 261 254 272 261 276 274 290 294 259 268 252 239 239 236 241 234 230 252 248 
274 314 303 321 329 299 287 296 299 290 283 292 270 281 276 283 290 292 294 292 292 272 276 287 272 283 296 307 331 318 307 307 299 299 321 305 292 285 287 281 285 261 256 259 250 254 263 265 259 256 252 259 254 265 265 279 292 283 265 279 283 265 268 268 268 263 283 296 296 268 245 254 261 239 250 236 241 250 256 268 
290 316 314 321 310 287 283 287 307 294 281 294 290 274 287 285 287 303 296 279 292 281 281 292 281 303 314 318 321 312 307 323 312 307 294 303 294 270 281 261 268 270 274 276 241 236 254 263 250 250 259 236 252 263 250 265 279 256 256 250 265 263 259 272 290 259 283 281 274 259 256 243 250 236 250 252 250 248 263 259 
296 318 340 321 303 290 283 287 287 290 285 287 283 279 290 279 283 285 294 287 294 283 290 301 312 307 305 307 305 301 305 305 307 299 285 294 276 279 276 261 268 268 265 248 248 236 261 259 268 248 230 245 232 241 252 259 263 270 265 263 256 252 250 239 272 270 279 270 276 252 256 254 245 248 241 252 245 243 259 245 
279 318 360 307 327 285 287 292 292 276 283 281 281 281 285 285 279 292 303 281 303 294 292 307 316 312 305 301 305 307 296 303 305 305 290 292 281 290 265 259 270 265 261 259 245 263 261 254 250 248 241 248 252 252 261 265 272 270 261 268 276 261 272 254 265 276 283 272 287 263 270 261 243 254 252 234 245 250 245 250 
276 340 362 316 305 285 283 285 292 292 279 292 276 296 296 281 290 279 287 281 292 296 316 312 321 314 303 310 316 294 299 303 294 294 294 303 276 276 270 259 274 263 256 259 241 259 270 254 263 241 245 250 245 248 259 261 268 272 276 276 281 272 270 261 272 290 279 281 285 259 250 252 250 248 248 252 261 243 254 248 
303 351 362 331 323 292 283 292 299 299 283 279 279 279 296 301 294 305 303 301 307 321 312 312 329 321 314 323 307 303 296 290 294 290 290 290 283 268 274 279 265 281 263 265 256 270 265 248 272 252 243 263 248 261 263 285 285 272 290 285 290 310 312 296 290 281 285 296 294 261 270 272 254 259 252 259 252 263 261 245 
338 362 345 340 318 276 274 294 290 301 281 292 274 287 294 285 299 290 292 303 307 318 318 327 323 316 310 314 314 307 305 303 292 279 281 276 272 268 281 276 276 265 259 265 265 272 261 259 256 261 259 252 256 268 259 281 287 285 283 292 292 296 296 299 307 299 303 290 279 272 261 268 265 261 263 265 250 248 274 261 
390 377 342 327 329 285 276 285 292 281 296 294 274 294 301 301 296 294 281 290 316 299 329 331 305 318 314 323 303 316 318 303 287 270 270 281 268 265 272 261 272 268 261 268 268 265 259 256 250 243 252 261 252 261 268 279 279 283 283 279 290 283 292 285 285 299 290 294 279 268 276 254 268 272 265 270 263 259 281 252 
392 377 371 323 321 279 285 301 305 312 294 301 272 310 301 290 307 292 301 307 310 299 314 307 310 316 310 307 314 316 301 296 274 274 270 290 268 254 268 263 276 268 272 265 254 241 270 259 254 261 239 250 252 250 252 285 265 283 283 274 283 296 279 285 281 265 301 285 285 281 290 283 272 279 263 276 256 261 274 243 
386 366 373 336 340 296 290 290 316 294 279 299 292 314 312 307 307 312 307 312 321 305 307 303 312 303 305 303 312 312 287 292 290 272 265 274 261 261 265 265 261 274 272 265 259 254 268 256 252 259 239 256 254 259 254 272 274 287 279 283 276 279 274 281 287 279 283 287 287 285 283 281 272 276 270 268 265 256 281 296 


