P2
80 60
678
260 271 284 269 293 295 291 319 336 334 336 314 319 306 301 306 291 286 301 286 288 293 278 288 273 288 271 293 276 280 286 284 286 293 299 288 288 286 278 293 299 299 288 291 291 299 295 312 299 310 316 308 316 312 312 310 310 316 319 319 319 312 308 323 332 316 340 332 347 338 323 340 336 327 329 332 340 340 362 368 
256 254 256 243 265 269 297 319 325 329 329 312 308 291 299 295 291 282 284 286 278 278 288 271 280 258 269 295 284 295 288 288 282 286 284 282 280 284 278 291 293 291 286 295 288 291 291 295 308 293 286 316 295 301 293 301 304 301 304 308 304 301 310 308 327 310 319 321 334 319 334 336 345 323 332 321 332 342 353 321 
250 252 234 221 243 265 263 301 297 329 312 312 299 299 295 312 282 286 278 265 284 273 269 267 271 263 288 286 286 286 282 276 291 288 282 282 282 284 282 276 267 293 282 286 282 284 291 293 295 295 297 284 299 310 301 301 291 295 299 314 310 312 308 314 314 314 314 314 310 306 329 329 323 323 323 319 316 319 340 332 
164 208 237 232 269 260 208 247 276 293 297 312 301 310 293 306 301 291 276 280 276 276 273 278 269 280 265 282 265 282 291 269 282 295 284 288 273 276 284 286 282 282 288 276 282 286 293 301 295 301 295 304 297 291 293 301 293 306 312 306 316 306 314 308 319 308 304 310 327 323 338 329 319 321 310 308 327 329 338 321 
78 100 197 232 243 199 164 197 234 278 299 304 316 297 312 312 293 286 297 297 276 282 273 273 284 282 280 280 284 288 282 280 295 282 293 282 293 286 286 278 284 280 288 288 288 301 293 288 297 297 299 291 301 306 295 299 297 301 308 310 297 319 304 316 321 297 304 327 323 323 329 325 327 327 336 334 319 329 325 323 
38 49 142 208 180 173 180 210 217 278 297 291 319 321 323 314 310 288 286 284 276 284 278 269 273 273 291 284 276 276 291 273 284 278 278 271 284 271 282 284 284 282 282 284 291 280 276 299 299 288 293 299 297 301 295 286 295 299 297 310 306 319 304 312 310 306 316 316 329 325 325 319 325 325 334 314 323 342 336 319 
0 18 84 118 138 144 191 226 206 271 280 310 312 357 396 362 323 299 299 282 278 280 284 278 280 282 269 276 273 276 286 273 288 276 280 273 278 286 280 286 293 286 271 269 288 282 295 299 286 297 288 293 291 304 299 306 291 299 319 304 306 299 310 310 301 299 312 327 329 323 319 316 325 316 308 316 325 329 338 316 
0 33 82 82 62 158 206 245 254 276 297 299 306 390 559 520 416 329 297 284 276 288 269 273 271 282 276 282 278 295 284 278 278 288 278 278 286 284 284 286 280 293 278 269 278 284 278 288 282 295 293 286 295 301 278 288 286 293 297 301 297 308 306 301 312 299 304 310 323 325 301 325 332 334 316 316 329 334 325 312 
20 22 136 178 243 280 254 280 269 284 278 312 297 431 678 661 535 377 312 293 284 276 278 286 278 282 284 282 271 284 282 278 288 291 280 291 273 278 273 273 280 273 286 276 267 280 278 284 282 288 297 280 291 284 295 293 288 288 295 306 299 293 299 308 295 310 308 321 319 314 314 316 332 314 325 332 316 338 332 314 
131 219 370 499 501 422 265 267 267 265 276 288 304 398 649 620 546 398 319 288 278 276 282 273 273 280 280 286 280 278 280 273 273 278 280 288 288 282 269 291 278 271 278 267 280 280 278 286 286 288 288 286 286 304 295 295 284 288 295 284 295 299 291 297 304 295 301 310 321 301 288 301 306 314 314 327 323 334 325 312 
480 567 615 601 516 375 273 263 260 271 282 286 295 314 454 501 459 375 319 282 288 288 280 293 280 286 291 282 280 295 286 280 269 273 269 276 284 271 278 282 286 273 276 276 271 288 280 280 280 288 293 291 288 288 291 284 284 293 310 293 288 312 293 297 312 295 304 306 312 282 291 286 282 312 323 319 325 334 308 304 
620 537 424 362 288 293 271 299 286 276 271 278 284 295 327 364 362 306 295 291 291 288 280 269 278 288 284 288 293 284 273 286 276 278 269 288 271 280 282 276 276 273 263 273 286 278 271 276 276 286 284 284 288 291 276 280 282 286 288 291 293 291 293 295 291 299 286 301 297 265 263 297 276 297 314 321 329 325 323 299 
208 193 276 278 295 297 297 301 276 286 269 278 256 267 295 301 306 297 295 288 284 278 278 273 271 278 293 295 293 282 288 284 282 271 276 276 273 273 276 267 273 284 267 273 276 280 286 282 280 286 280 293 291 282 286 280 278 280 271 288 288 273 284 291 299 301 278 284 282 278 271 291 282 288 288 312 319 329 336 304 
78 189 250 269 284 321 314 342 299 288 280 256 280 258 278 278 297 284 278 263 278 278 276 265 280 267 282 280 288 291 286 284 284 280 269 271 269 271 280 273 276 260 271 269 263 260 269 276 291 276 260 282 271 288 284 278 280 276 282 288 258 280 299 278 299 267 276 267 271 245 265 293 276 293 291 306 332 336 327 306 
127 243 265 265 297 355 342 405 314 273 273 267 263 269 278 263 263 267 271 280 278 288 280 286 284 280 293 297 301 295 308 293 293 276 284 284 267 269 265 265 269 263 263 269 276 265 267 273 273 273 278 282 267 280 282 278 278 282 278 280 284 271 273 284 278 265 267 271 280 273 271 263 280 291 293 299 299 306 323 310 
193 267 265 271 295 452 357 377 327 280 273 280 269 263 267 273 269 265 273 265 276 284 273 269 282 286 295 295 299 301 323 310 304 299 288 280 276 273 271 273 263 271 265 265 263 271 273 278 267 278 278 278 273 273 276 260 269 276 267 269 276 258 276 293 267 265 265 263 284 265 273 267 267 282 288 288 297 297 319 312 
243 250 258 247 291 351 316 299 282 273 273 254 260 265 260 265 265 276 271 271 269 284 273 297 286 278 288 310 321 319 340 340 325 297 291 284 293 271 273 280 263 263 256 254 265 269 265 271 258 276 265 271 276 273 271 265 269 273 269 250 260 260 265 260 247 256 256 273 286 260 263 269 280 288 286 297 308 306 316 299 
265 258 260 237 241 254 276 271 258 263 265 254 258 252 269 256 269 273 282 267 276 284 273 280 286 282 304 304 319 338 342 329 336 308 299 282 282 288 280 282 271 265 269 258 260 271 254 278 278 278 265 263 269 263 269 256 269 269 247 254 250 250 239 250 250 256 265 267 278 276 280 284 282 282 282 282 308 299 308 282 
288 254 234 232 219 237 224 254 254 258 265 265 245 243 263 256 267 267 276 271 271 280 273 286 293 293 310 332 342 342 288 310 332 338 310 282 269 286 276 269 260 265 252 267 258 250 263 258 267 278 273 252 247 243 256 254 241 256 243 243 252 241 245 250 256 263 254 269 278 273 267 278 276 280 278 291 304 299 304 293 
364 273 226 224 252 247 252 250 258 276 258 267 256 243 263 263 263 260 256 278 280 284 286 286 293 299 323 338 334 304 265 276 316 327 301 265 265 269 271 280 271 256 258 256 258 263 260 276 263 263 247 250 243 232 241 260 243 241 247 254 245 252 254 254 256 263 273 271 286 280 282 278 284 286 276 304 301 280 297 297 
407 297 217 219 250 254 241 286 269 276 263 252 243 258 258 260 260 267 276 271 284 282 288 293 297 306 332 368 329 301 276 269 293 297 332 304 297 282 282 267 263 267 263 260 258 265 269 256 252 256 241 263 250 252 267 250 237 252 254 243 250 252 260 237 254 267 241 267 276 286 280 286 280 276 276 282 295 297 301 271 
316 269 237 241 265 265 265 273 258 267 269 260 256 254 256 265 271 276 269 276 291 288 284 297 316 323 360 338 293 276 282 263 280 269 297 316 299 293 280 282 269 269 263 250 245 247 241 256 252 252 239 254 258 247 250 245 243 247 252 243 256 269 254 269 271 243 258 256 267 276 278 276 286 278 269 282 293 291 295 280 
284 273 263 282 295 278 269 278 265 267 265 252 265 252 263 258 269 271 286 278 278 299 297 312 327 353 368 321 284 269 271 263 280 269 271 299 332 306 295 291 271 269 258 260 241 230 241 254 252 260 230 243 245 243 247 243 250 252 250 258 256 245 256 254 258 245 250 260 265 280 265 288 295 282 278 278 304 276 297 271 
263 282 276 319 295 291 267 286 271 256 263 254 265 254 269 260 267 273 284 276 288 293 299 327 334 355 321 288 276 293 284 271 278 271 273 278 276 304 314 288 282 263 245 243 243 247 245 250 250 245 241 239 234 254 243 243 254 245 258 258 256 254 241 267 263 256 252 271 273 278 284 293 282 288 282 288 276 288 291 276 
288 260 282 316 321 286 273 273 265 260 250 252 267 265 263 263 278 263 276 284 291 304 306 332 345 336 295 288 276 282 293 288 278 267 256 271 263 295 312 299 282 254 239 224 241 226 243 230 226 241 241 243 258 256 241 245 247 254 254 256 250 258 252 252 254 260 260 273 276 271 280 280 291 295 271 276 286 280 286 291 
267 256 267 276 301 284 280 260 269 258 263 265 260 271 265 271 271 284 280 282 308 319 334 342 360 314 291 299 280 284 278 288 273 267 254 258 258 269 288 306 297 241 234 232 224 243 234 239 239 243 247 250 247 241 263 252 247 252 254 254 258 260 252 254 263 276 276 267 265 276 273 276 295 288 286 282 286 297 288 282 
271 254 267 280 293 282 310 299 280 250 265 252 260 265 269 271 276 276 280 288 304 323 357 345 342 334 304 295 286 282 295 286 280 273 263 267 256 258 271 278 254 221 245 234 224 226 252 234 239 243 243 250 254 250 258 252 243 254 250 250 254 247 254 263 258 276 260 260 252 271 276 276 278 280 286 276 286 276 297 278 
260 245 267 273 273 291 304 286 247 254 243 260 256 271 265 260 267 276 291 299 308 336 360 291 271 301 295 297 278 271 276 286 276 258 245 258 256 250 267 237 215 234 226 230 234 230 228 241 239 247 243 247 247 241 243 252 234 252 252 258 263 243 258 252 269 254 252 278 271 271 263 269 273 273 291 284 280 276 301 273 
271 265 263 271 265 265 291 304 267 271 256 263 267 263 278 276 276 280 278 304 316 349 312 267 271 265 312 325 301 282 260 271 271 267 252 252 250 245 241 230 237 224 239 256 237 254 239 237 250 237 232 243 241 247 241 241 237 260 252 252 252 245 260 256 269 265 265 273 263 265 276 282 286 276 269 269 280 284 301 284 
265 260 267 273 267 265 276 286 282 273 273 256 265 269 284 273 273 291 306 319 340 321 280 256 276 260 288 299 297 288 271 260 256 258 263 254 239 230 230 226 219 230 239 221 243 252 252 245 243 247 254 241 241 247 237 252 239 243 247 256 254 258 256 258 265 256 265 263 263 271 265 276 280 271 276 273 276 291 291 293 
269 269 269 267 260 243 269 282 282 278 273 254 271 269 276 271 282 291 321 316 301 276 260 258 278 265 269 273 306 293 269 269 260 256 247 254 247 219 221 224 232 217 234 228 239 243 237 247 234 252 245 239 237 247 245 243 250 260 260 260 258 241 265 269 276 267 252 271 267 265 273 278 278 269 282 271 273 295 304 299 
276 263 267 265 256 256 254 291 280 280 288 269 258 263 288 276 284 293 304 304 260 267 260 265 267 273 271 263 273 297 291 273 271 256 247 256 239 226 221 224 232 226 230 245 234 237 241 256 243 245 237 243 232 230 241 245 247 252 252 254 260 254 254 265 254 263 265 260 267 271 260 276 271 280 269 280 280 293 310 288 
273 265 260 273 271 254 263 276 282 288 293 273 273 271 276 269 288 293 293 269 241 260 254 263 267 269 273 269 269 263 282 276 278 265 256 247 243 239 230 234 237 221 230 234 237 234 245 243 232 250 258 247 245 241 256 245 260 267 258 256 271 252 280 260 265 254 260 267 265 263 269 276 282 293 288 284 280 306 316 280 
286 265 273 271 260 267 265 265 271 280 288 276 276 278 269 276 284 278 273 267 260 260 271 263 250 271 267 260 265 258 278 291 273 269 256 241 232 234 234 232 228 234 234 239 239 241 239 247 243 250 250 237 245 234 241 258 256 271 267 258 254 256 260 260 258 263 269 276 280 263 276 284 288 273 284 312 299 306 314 293 
293 278 280 278 276 260 269 282 276 286 282 293 286 276 286 267 282 260 265 256 265 267 271 260 260 271 260 267 254 250 269 271 269 269 241 234 234 224 234 232 228 232 232 241 232 239 243 237 241 234 243 247 252 241 254 241 265 269 265 260 260 254 267 247 256 263 260 260 267 263 273 278 276 295 304 306 308 306 304 288 
288 254 265 273 271 273 263 280 278 280 269 273 288 278 276 273 269 273 265 250 263 260 263 265 265 245 256 256 250 258 265 256 276 258 252 237 228 224 239 230 237 232 234 237 252 237 239 250 254 254 256 254 252 260 245 256 267 267 276 256 243 260 260 256 250 260 260 263 267 260 278 282 293 280 297 299 312 308 310 291 
291 273 278 297 269 276 273 282 265 269 286 269 286 286 282 267 256 258 263 263 260 263 258 252 245 256 256 252 265 260 252 258 260 252 247 260 219 228 224 230 234 228 230 232 247 250 243 247 254 250 250 252 254 243 258 269 256 247 254 239 269 254 256 263 265 269 269 256 263 267 276 297 308 308 310 314 316 308 312 314 
291 269 291 286 273 265 271 278 271 276 278 278 273 295 280 269 256 254 256 254 254 252 256 256 269 258 256 252 250 267 260 243 250 256 250 245 234 224 217 228 237 230 241 239 245 234 243 256 250 256 258 252 250 267 267 256 252 271 254 260 252 263 263 256 267 263 254 263 269 276 278 288 293 312 301 321 308 323 321 334 
286 280 282 299 286 269 273 286 271 271 271 273 271 271 267 267 256 263 247 237 258 263 252 260 254 265 258 265 258 260 267 247 273 267 241 263 237 245 217 228 232 245 226 243 243 258 241 250 256 260 256 260 260 263 254 241 241 256 252 247 254 254 258 263 267 269 271 276 269 280 295 297 312 308 310 312 310 323 349 327 
301 282 280 293 288 273 273 295 269 278 269 256 258 247 241 250 245 245 250 258 265 258 256 265 252 254 267 273 263 263 271 252 260 247 254 247 247 219 237 230 234 226 234 232 256 245 245 252 256 254 254 256 250 256 239 237 254 256 252 260 237 250 245 258 256 260 256 260 263 260 284 293 306 304 314 323 327 338 355 353 
297 284 286 276 280 293 276 286 293 284 265 256 271 254 256 258 247 243 250 250 243 245 256 263 263 263 269 269 286 265 263 254 271 260 254 258 245 239 224 234 217 228 224 243 237 247 254 263 271 254 258 263 252 258 252 256 250 260 254 263 256 252 258 243 250 267 267 276 267 282 288 304 314 306 306 329 340 349 362 362 
291 280 284 291 286 276 280 291 273 267 273 258 265 271 284 284 254 243 256 241 241 247 267 247 260 269 271 280 269 260 260 267 263 256 245 260 239 256 239 230 234 241 230 239 247 252 254 252 258 254 250 250 271 254 250 252 247 254 256 258 265 252 258 252 265 271 271 269 273 291 286 316 312 310 304 327 345 370 366 377 
293 280 284 293 278 278 278 278 282 280 265 258 267 265 265 282 256 256 254 258 234 256 276 265 267 280 278 269 260 265 263 260 267 256 250 260 252 252 245 245 237 245 234 239 237 250 260 243 258 263 254 250 256 247 256 254 245 263 252 247 254 250 267 258 254 284 265 269 286 304 293 319 325 319 312 334 345 362 373 375 
288 278 286 280 269 273 276 273 260 269 267 254 258 256 252 250 250 247 250 252 252 263 263 273 280 265 269 265 273 263 256 260 263 252 260 256 252 252 247 250 250 245 224 226 250 247 258 243 245 247 258 239 254 265 243 250 247 252 263 254 256 258 258 265 254 267 252 278 288 280 306 310 312 308 319 319 334 355 385 390 
304 288 301 286 278 267 282 282 284 276 263 271 265 267 269 260 263 254 258 247 269 271 282 269 267 271 284 269 278 267 247 258 276 267 254 258 245 265 252 247 254 243 243 241 254 241 254 252 241 260 260 252 263 241 263 260 260 265 265 271 258 247 269 256 258 260 278 273 286 295 306 312 321 306 316 334 351 362 394 390 
297 284 304 271 280 260 258 263 273 265 269 269 267 271 273 265 267 260 256 260 278 284 276 278 278 273 278 267 284 260 254 254 265 267 250 263 265 252 260 254 265 260 254 258 258 234 254 250 258 247 247 247 250 254 252 267 258 271 271 263 260 269 265 254 271 273 271 276 286 284 299 314 314 312 334 353 364 381 403 392 
295 278 280 291 297 258 269 291 269 269 273 271 278 291 271 276 263 247 263 258 271 269 284 278 280 267 280 265 260 258 265 273 269 267 273 263 267 254 265 263 271 263 258 250 254 243 250 245 241 252 256 252 260 247 252 260 267 258 258 265 263 269 276 263 258 267 276 282 280 284 297 312 319 332 345 381 375 379 401 392 
297 293 284 291 288 258 243 286 276 265 282 271 288 273 271 260 258 260 263 273 276 278 273 280 278 282 286 276 267 258 265 265 269 260 252 263 252 252 258 263 271 267 269 260 263 269 265 245 254 252 258 263 258 258 258 258 260 263 271 267 280 260 265 263 273 267 265 282 284 282 297 316 321 332 364 392 375 398 401 396 
291 273 278 288 284 254 284 284 295 291 295 280 280 278 278 269 265 273 265 276 273 273 280 282 288 271 267 271 271 265 280 271 278 278 265 258 250 252 256 269 256 269 265 260 258 258 260 267 254 258 250 263 265 263 258 265 269 269 271 278 271 276 271 273 278 273 269 284 288 282 293 314 314 355 373 383 388 396 414 396 
293 282 286 297 282 271 276 297 301 304 288 286 278 267 258 276 269 276 269 267 288 273 276 276 284 271 276 271 267 278 278 278 267 269 263 265 276 256 256 267 276 278 273 269 273 267 271 265 265 269 267 271 263 258 256 263 269 265 265 263 265 276 282 280 269 282 278 291 288 295 293 312 332 357 368 388 401 407 407 403 
293 276 284 286 284 280 286 297 299 295 293 276 284 293 273 271 267 280 260 256 263 258 278 280 267 269 269 276 265 280 280 276 278 276 254 260 263 263 263 258 260 271 260 265 263 269 265 265 280 276 267 256 282 265 263 265 267 267 267 267 263 265 265 267 280 278 282 284 278 286 278 306 342 357 373 375 409 405 407 394 
288 295 284 299 293 291 304 312 293 295 288 256 293 291 288 267 265 267 263 256 267 269 267 276 265 269 278 282 282 269 276 269 273 258 258 267 263 254 260 256 267 276 263 260 273 260 278 265 273 276 263 271 263 263 271 273 271 269 273 252 267 265 280 271 271 282 276 291 293 293 304 304 336 360 377 383 403 401 405 385 
282 278 282 299 306 291 295 316 299 288 293 278 286 286 284 276 256 254 273 269 267 267 276 265 263 273 284 269 282 284 273 267 273 269 267 276 260 260 263 260 271 271 256 284 276 269 258 267 269 269 278 273 282 271 269 269 263 260 247 250 254 256 269 267 282 269 271 304 284 284 297 316 332 360 377 381 405 394 396 377 
299 288 295 308 301 308 284 297 291 293 293 276 273 282 286 282 271 271 267 267 263 269 276 271 278 286 280 267 269 269 280 276 276 271 271 269 263 260 267 263 273 276 265 271 278 278 267 271 267 267 269 271 271 263 265 258 260 269 258 265 250 256 258 267 278 280 269 276 291 293 295 319 351 353 375 383 392 388 383 388 
316 301 314 314 321 299 293 299 295 291 286 297 273 278 286 284 278 271 263 263 265 282 278 278 269 269 276 271 273 263 269 280 282 265 263 260 256 276 265 267 267 260 271 263 260 271 267 278 282 286 273 278 269 271 271 263 265 269 273 263 286 260 267 269 278 276 288 304 295 288 310 334 355 366 390 398 390 390 392 383 
323 308 312 310 310 280 286 297 323 304 299 282 280 280 282 286 286 280 282 267 271 276 282 280 288 265 278 271 269 278 288 286 284 263 273 282 284 278 276 282 278 267 267 280 273 288 271 282 276 282 288 280 280 273 267 269 267 273 260 267 265 276 271 269 278 284 278 295 295 310 312 325 357 383 370 403 379 377 373 349 
316 306 314 314 301 295 295 304 308 291 284 265 267 273 260 278 288 282 278 269 269 269 260 267 280 278 273 293 276 267 269 267 276 276 278 273 278 267 273 276 273 280 273 280 273 284 271 278 273 265 265 282 284 280 267 269 271 276 265 267 276 267 278 273 282 269 280 306 299 301 306 319 345 373 381 381 385 377 381 360 
312 312 304 310 310 301 299 301 297 273 273 258 278 273 278 269 278 278 286 273 271 265 256 278 276 269 278 276 280 278 267 271 271 278 282 273 278 276 286 278 297 288 278 271 267 288 288 276 291 286 282 284 278 271 286 288 276 278 260 273 273 280 295 286 273 267 286 291 301 295 299 308 316 353 368 370 368 355 370 364 
312 295 308 312 299 299 297 306 286 273 258 273 271 269 269 271 263 286 297 271 280 265 267 260 269 269 282 299 276 286 276 271 284 265 269 271 282 280 286 288 286 280 278 269 276 280 280 284 304 288 278 288 293 293 280 278 278 282 282 280 299 278 286 278 273 276 284 306 301 306 308 321 316 334 357 375 375 370 366 338 
308 291 304 295 306 288 297 299 291 267 278 269 254 265 276 278 260 280 267 276 267 267 267 263 260 263 284 286 278 278 271 284 284 271 271 280 276 267 280 269 280 280 265 284 280 280 282 293 288 288 295 278 288 288 286 278 286 282 282 278 288 286 295 280 278 288 280 295 310 293 314 319 316 336 362 357 364 349 364 345 


