P2
80 60
152
46 70 72 59 70 83 96 96 76 98 72 74 94 85 78 85 81 76 81 83 85 76 81 76 76 76 78 78 83 78 74 72 63 70 68 68 78 72 70 66 70 66 78 74 81 76 68 87 72 63 72 63 61 68 81 57 72 66 78 76 91 83 74 74 89 78 78 78 81 94 81 91 85 100 96 85 96 98 100 87 
57 50 63 66 61 72 91 85 85 94 68 89 81 104 81 70 81 78 74 70 76 76 72 81 78 76 85 74 85 81 66 66 66 74 63 78 76 78 70 63 68 61 61 76 81 72 63 83 76 68 68 57 66 72 66 59 70 72 78 76 89 91 81 81 85 87 83 78 76 78 83 83 94 94 94 89 91 87 98 87 
59 46 53 68 48 61 57 78 83 78 70 85 96 94 72 76 76 85 70 81 85 68 70 68 74 70 78 87 81 76 74 72 66 70 78 66 66 66 68 66 61 68 66 63 78 74 59 78 72 68 68 66 61 83 61 63 70 81 74 76 81 87 81 78 91 83 81 76 76 83 87 85 102 98 87 87 91 83 94 72 
57 50 70 63 68 53 55 66 87 89 78 78 81 91 94 81 83 74 68 66 66 68 63 85 74 76 83 78 85 70 76 70 61 72 78 72 70 63 68 59 66 72 78 72 74 70 66 81 70 63 74 59 76 63 76 72 70 74 70 72 96 83 85 76 89 87 72 81 81 72 89 83 83 94 87 94 94 104 96 87 
63 46 57 57 63 55 63 66 72 72 76 74 76 104 94 70 76 76 72 81 76 70 76 81 78 74 83 87 85 81 74 78 59 63 78 66 72 63 61 63 61 66 74 72 74 83 70 76 68 74 70 74 72 63 70 74 74 72 78 70 76 89 89 85 81 76 81 76 78 72 85 85 83 83 87 91 89 91 100 96 
55 53 59 61 59 59 57 68 72 70 57 76 87 91 81 83 76 70 70 78 72 66 66 83 74 78 68 76 85 76 72 63 70 61 76 61 70 59 66 68 63 68 70 76 81 78 78 72 66 66 61 68 61 66 63 76 81 70 68 72 76 76 81 78 68 83 76 72 74 85 83 81 76 76 89 89 87 98 85 76 
63 55 57 68 53 57 46 59 53 55 53 57 70 85 78 70 66 61 70 81 78 72 68 70 72 78 68 76 63 74 72 74 66 68 63 63 59 61 61 66 68 61 61 76 87 83 68 70 61 74 72 63 66 57 61 66 66 70 72 72 76 74 76 83 81 72 70 78 81 85 76 76 87 83 87 83 89 91 76 66 
63 50 40 57 44 46 50 66 55 48 44 55 74 83 76 72 63 70 70 70 85 63 61 63 70 72 85 63 72 68 70 61 61 61 63 61 53 66 57 53 57 61 66 68 74 70 68 68 66 74 57 74 61 70 63 63 74 70 72 74 74 76 74 76 81 74 83 78 76 78 81 72 89 87 87 96 87 91 89 76 
57 44 59 63 50 40 48 63 46 57 53 55 53 55 53 74 76 68 76 61 72 63 61 70 63 61 76 78 61 63 76 70 63 59 63 72 68 66 61 57 55 63 63 63 68 68 63 74 70 63 68 76 59 59 55 63 63 74 70 70 68 83 70 70 76 68 87 81 72 74 81 81 81 76 81 83 78 83 83 83 
48 50 61 46 46 50 48 53 61 42 48 40 55 61 57 48 78 74 57 72 68 68 70 72 66 63 66 72 72 70 68 68 57 68 66 68 70 68 59 50 66 59 72 55 70 63 61 66 81 66 66 55 66 61 61 63 63 66 63 70 70 87 74 72 78 74 76 70 85 85 78 81 81 83 81 74 89 89 96 70 
44 44 55 57 50 42 44 53 55 63 55 44 46 59 53 55 57 59 57 63 70 70 70 74 68 63 78 63 66 59 59 59 63 55 57 59 66 63 66 61 70 70 63 57 63 68 66 57 61 59 70 59 72 66 66 63 63 74 63 70 70 72 68 76 78 81 57 81 70 72 74 72 72 89 78 87 83 89 85 76 
46 35 50 44 57 50 42 44 50 48 48 35 40 61 53 46 55 63 48 68 81 68 70 78 70 72 66 74 70 61 68 68 70 53 66 55 66 63 57 63 63 74 66 57 74 72 70 46 68 63 55 72 70 66 66 66 76 72 63 68 70 68 59 81 72 81 78 72 74 74 83 72 70 74 83 94 78 83 83 72 
48 29 44 44 46 66 50 53 57 48 50 50 50 57 50 44 46 48 46 59 68 59 59 70 53 66 61 78 70 68 66 63 57 61 57 61 66 57 66 59 55 72 63 63 57 66 66 66 63 57 55 63 74 61 66 63 59 70 63 70 63 74 74 76 74 78 76 74 70 66 76 87 74 81 87 83 85 81 96 76 
46 35 48 46 44 59 50 50 53 46 55 40 46 48 53 40 42 42 42 66 57 74 50 63 59 59 68 63 61 59 53 59 59 59 61 57 48 59 59 55 63 57 63 61 53 61 70 72 57 59 61 66 61 66 66 68 59 72 68 61 61 63 63 70 78 81 66 72 68 70 81 76 76 87 96 78 74 91 72 63 
44 40 48 50 33 40 44 55 48 59 40 37 40 42 44 40 50 37 46 40 53 50 44 68 57 70 55 61 50 61 66 68 66 59 63 61 48 61 63 61 61 55 57 66 55 57 59 63 66 55 61 61 63 61 66 68 61 70 70 61 55 63 63 68 70 66 63 68 76 68 76 72 76 85 91 85 89 81 78 72 
40 42 61 48 44 46 53 57 57 57 46 42 37 59 37 48 42 37 44 33 44 50 48 44 61 61 53 57 59 57 53 72 53 48 70 70 55 59 55 55 61 57 63 66 72 63 61 68 50 50 61 68 53 66 63 59 61 70 66 66 68 76 61 68 70 68 66 72 78 72 81 74 70 87 91 87 83 85 98 96 
37 37 42 46 40 42 50 63 61 46 40 42 48 57 42 37 44 33 31 31 40 35 24 40 46 48 59 63 59 50 48 66 59 48 68 63 63 50 61 48 53 59 59 57 66 59 48 61 55 55 57 59 53 55 53 61 66 63 68 61 72 68 68 66 83 83 76 72 81 72 70 76 76 91 85 87 85 94 98 61 
44 50 50 48 53 44 46 59 40 37 48 37 46 57 53 35 50 40 40 33 42 35 35 35 37 35 53 57 57 59 53 61 53 55 55 57 66 68 68 63 55 53 59 48 50 70 42 63 66 59 59 50 57 59 48 57 59 55 50 63 70 89 70 72 78 72 72 76 66 70 68 76 83 83 76 78 85 89 89 68 
44 31 44 48 37 42 48 42 50 31 31 46 40 46 42 42 40 46 42 31 33 33 42 40 42 37 53 68 50 59 57 57 53 59 68 61 57 55 50 48 50 50 50 48 57 50 42 55 59 50 57 48 50 61 53 55 44 57 57 68 66 66 53 74 83 59 68 74 74 74 66 74 70 87 91 81 89 81 89 78 
31 33 35 44 35 29 40 46 37 27 31 35 40 44 48 33 42 35 33 42 33 31 37 33 40 27 46 48 46 50 53 44 37 61 66 48 53 53 44 50 44 57 50 44 46 46 44 57 46 53 50 53 59 57 42 46 46 44 61 61 72 63 57 57 72 61 66 63 68 74 76 74 72 78 76 78 83 87 85 78 
35 40 35 37 44 31 42 57 50 46 27 37 42 33 35 27 33 46 42 27 33 22 24 40 31 29 24 33 42 46 44 50 42 44 50 46 53 59 46 46 42 53 44 48 59 46 48 57 50 48 53 57 53 57 53 53 53 53 50 63 66 57 63 70 68 61 70 72 70 72 70 89 68 70 76 76 76 83 85 72 
48 42 33 42 40 31 37 48 55 46 35 31 27 40 29 27 40 40 37 22 20 27 35 31 33 27 37 29 33 42 44 48 35 42 48 40 50 53 46 42 40 42 50 57 48 46 57 53 53 61 44 40 48 53 42 46 55 46 57 61 68 59 55 59 68 57 55 68 63 66 61 74 74 72 74 76 76 81 87 87 
46 35 42 44 42 33 42 63 48 42 31 42 31 33 35 31 31 33 31 35 31 31 29 35 31 33 24 33 37 33 35 29 24 31 55 48 46 44 46 37 40 37 53 44 57 50 48 46 50 48 42 42 50 44 46 42 50 46 48 57 72 70 57 50 70 68 63 68 66 68 78 78 76 78 70 81 74 74 85 68 
44 33 53 55 33 44 46 50 50 37 44 42 50 44 42 44 35 37 37 33 46 35 37 31 40 31 31 31 44 29 27 18 20 31 42 42 42 50 50 46 50 46 63 46 61 48 48 46 42 53 44 44 55 55 48 50 50 53 53 53 57 70 63 59 74 63 70 70 74 83 70 66 81 68 78 81 72 78 91 70 
55 27 53 46 33 33 42 50 50 44 40 22 53 44 40 35 44 33 37 24 44 35 33 33 35 37 35 24 37 18 27 27 18 24 37 42 31 31 46 35 50 37 46 42 37 46 53 44 42 46 44 40 46 40 50 48 57 50 53 53 61 66 70 74 74 70 66 72 66 78 74 78 72 70 78 74 76 87 72 72 
78 59 53 48 48 37 37 40 40 48 42 42 46 40 40 35 37 46 31 44 33 35 37 42 40 31 37 40 37 37 31 24 22 22 31 24 31 40 35 40 40 33 57 46 42 46 46 40 44 48 42 53 46 50 48 50 57 50 53 57 68 61 63 68 66 70 70 61 72 83 78 72 68 61 81 78 81 85 83 68 
98 72 83 46 42 42 42 44 46 37 37 42 37 46 29 29 31 35 33 33 27 42 37 33 35 31 31 31 35 31 27 20 24 18 29 24 31 35 44 31 31 44 44 46 37 40 42 44 40 42 44 46 48 33 42 48 50 46 53 66 63 59 55 55 76 66 66 61 66 66 81 61 78 74 81 81 76 70 87 63 
83 76 87 76 55 40 40 48 35 40 46 35 42 42 31 33 33 37 24 37 31 24 35 31 29 24 31 27 33 27 24 29 18 14 27 16 27 35 42 35 37 46 44 40 42 42 44 46 53 48 44 37 46 42 48 50 59 55 42 59 59 57 53 63 70 63 61 50 66 61 70 61 70 70 83 70 78 81 78 74 
96 70 96 87 70 53 48 50 42 48 33 46 35 44 40 35 29 31 33 29 31 37 35 33 33 20 31 27 24 24 37 20 16 18 22 24 22 14 27 22 33 35 48 29 46 48 46 55 37 48 46 40 46 37 35 46 55 46 53 44 70 66 57 63 63 66 55 57 68 72 74 74 76 72 66 70 76 81 81 66 
91 83 85 109 87 74 61 61 46 46 46 50 35 53 44 27 31 40 35 37 20 35 22 33 22 27 33 27 24 22 20 20 11 14 33 18 11 11 11 14 22 18 35 33 48 40 35 46 55 50 42 50 40 48 48 42 55 40 48 53 57 55 55 70 66 61 59 72 70 66 68 78 63 72 78 76 78 78 81 76 
94 87 89 89 74 83 81 63 70 42 42 40 48 44 40 29 33 33 42 14 24 31 20 37 37 20 29 27 18 27 18 20 18 14 20 16 11 20 20 16 24 24 37 31 33 44 33 37 46 33 31 37 46 40 55 57 44 40 44 50 63 48 50 57 68 57 55 70 61 57 74 68 72 68 76 78 74 74 83 61 
94 85 85 81 98 89 89 89 68 35 31 33 35 35 42 31 37 40 33 29 37 29 29 33 35 24 31 22 27 22 27 22 16 16 16 22 14 11 24 11 16 20 22 31 35 40 27 37 46 44 35 37 48 37 35 50 48 42 46 50 63 53 61 53 59 53 66 59 57 72 70 66 61 63 70 66 72 61 83 72 
98 91 87 104 100 89 98 94 98 66 46 44 46 48 35 27 42 35 31 29 35 20 29 35 27 22 35 40 24 29 29 22 11 16 22 22 18 20 20 22 14 14 24 22 31 44 27 35 37 31 37 42 46 44 40 44 48 46 42 50 63 50 50 53 61 55 66 68 53 74 70 61 63 74 83 66 76 81 91 81 
94 76 98 104 100 98 87 89 83 87 68 53 50 50 40 40 35 29 35 35 29 27 18 31 29 27 37 37 37 31 29 22 18 14 27 14 24 31 16 18 7 7 22 11 14 29 24 37 37 35 33 33 44 46 40 53 46 46 37 42 55 48 53 59 57 61 44 61 53 61 66 63 81 66 70 63 78 85 85 72 
87 76 87 96 94 89 89 83 74 85 83 74 61 63 46 40 40 29 29 31 29 22 29 35 20 29 29 27 29 35 37 27 14 9 22 14 22 14 16 16 14 14 16 9 11 29 22 27 31 35 40 35 40 44 40 50 44 48 40 50 48 50 53 55 63 61 53 57 68 53 59 72 72 68 78 74 78 83 76 81 
87 66 83 85 87 78 81 96 68 70 72 70 94 78 61 44 40 29 31 20 29 22 29 35 40 29 35 22 33 33 27 27 22 20 27 18 7 16 20 16 16 14 11 11 16 18 11 29 27 40 35 44 40 40 33 50 59 40 35 53 48 55 48 53 72 55 50 53 53 55 70 59 70 68 74 70 96 94 91 85 
76 61 78 87 89 89 81 89 72 74 76 63 68 78 68 44 46 35 31 22 37 37 37 31 31 33 31 31 31 22 18 31 11 18 31 14 14 22 14 20 14 9 11 11 9 18 5 16 27 16 29 31 33 40 44 42 48 46 42 44 48 57 50 50 76 68 59 53 53 48 72 61 68 76 83 70 81 81 83 85 
72 53 74 72 66 83 74 87 83 61 63 76 68 74 72 66 53 33 37 24 31 24 16 20 35 29 33 16 16 24 18 9 18 0 14 11 18 18 9 9 5 9 22 16 11 7 9 16 11 20 20 27 31 35 37 48 37 35 35 35 44 63 57 48 55 57 48 46 48 55 66 57 55 78 78 74 70 85 83 74 
76 57 74 70 78 85 81 96 89 81 81 68 66 61 76 68 70 59 44 31 31 29 18 24 27 29 29 33 22 16 18 20 14 16 27 20 16 22 20 7 7 27 16 9 7 22 11 29 9 11 18 24 18 29 40 35 37 35 31 44 55 48 53 63 50 61 59 46 48 57 59 66 68 70 72 72 72 78 78 72 
76 57 63 66 70 70 78 85 85 91 76 89 59 66 61 53 50 63 61 55 33 42 22 29 16 20 24 22 14 14 22 20 20 14 14 11 11 14 9 9 11 16 20 18 14 20 5 5 18 16 9 11 16 20 27 31 24 22 22 29 37 50 42 35 61 53 53 57 48 53 59 68 55 70 76 61 68 72 87 68 
70 57 81 76 66 74 81 98 102 96 94 87 96 85 59 55 66 57 53 70 66 35 33 22 20 31 20 18 11 18 20 11 16 20 24 14 18 11 24 9 24 29 22 22 16 11 11 22 16 7 11 7 22 18 29 29 37 22 31 35 35 40 31 50 46 55 53 44 50 61 61 70 72 70 63 68 68 83 74 55 
72 63 61 70 74 61 83 96 102 104 87 87 81 81 76 61 44 61 55 55 61 53 35 29 29 22 27 16 20 24 29 11 29 27 22 18 16 14 16 14 11 18 27 9 14 18 22 29 22 20 7 16 7 14 18 22 40 24 37 37 40 33 35 48 50 40 53 48 57 55 63 68 61 66 66 72 63 78 70 50 
70 68 72 76 72 70 91 89 96 104 87 87 76 91 76 70 61 68 55 48 66 57 53 46 37 35 22 22 22 18 20 20 20 20 16 29 20 16 16 9 27 20 24 16 20 18 18 22 11 16 11 22 27 24 18 27 42 20 29 37 37 40 42 35 46 42 37 44 61 55 48 59 63 66 74 72 78 66 68 48 
72 55 74 66 74 66 78 96 100 100 76 83 76 91 81 70 63 61 59 46 55 50 44 44 46 40 35 33 24 14 18 22 18 24 22 22 16 20 29 9 7 24 16 24 20 16 24 22 22 14 18 22 22 18 9 20 16 22 33 40 33 46 48 31 37 35 46 35 50 48 57 55 59 66 59 59 61 72 68 70 
76 55 81 74 74 78 91 96 83 96 74 81 81 94 74 63 83 91 78 57 53 57 53 63 63 50 40 33 22 11 27 27 16 18 18 24 31 18 18 3 9 18 22 18 18 20 27 24 24 24 14 24 20 22 27 11 33 33 33 46 40 53 42 44 53 44 48 44 42 50 53 48 55 63 66 61 78 74 68 61 
91 72 87 66 66 83 70 85 106 104 85 72 87 78 89 78 74 81 83 61 66 57 48 59 53 53 61 48 44 31 27 24 11 24 27 20 22 22 11 11 16 18 20 27 24 16 27 18 20 20 14 16 18 14 20 20 27 31 33 29 37 35 53 53 63 44 55 53 53 50 44 48 55 55 53 61 72 66 72 55 
91 76 91 81 70 76 94 85 96 100 83 91 76 83 70 57 74 76 61 66 74 66 57 61 50 53 61 53 53 42 37 20 18 18 22 27 20 24 24 16 16 20 27 24 14 20 24 20 24 20 20 20 24 27 27 24 24 27 29 33 40 46 46 44 57 48 61 53 53 46 53 35 63 61 66 63 76 72 72 61 
94 78 89 83 81 83 89 102 94 100 81 83 78 96 85 78 78 72 66 74 66 68 66 59 57 53 57 55 63 63 48 22 9 20 31 11 11 14 16 18 24 20 29 20 24 22 27 27 24 18 29 27 24 33 22 20 24 29 31 33 46 42 40 53 70 61 70 57 59 53 70 53 50 57 57 68 66 72 70 78 
87 81 102 91 74 70 87 94 91 89 83 94 94 89 89 70 68 72 70 66 74 72 70 61 74 68 57 33 70 72 87 50 37 29 24 27 16 20 22 9 20 14 29 20 22 24 18 24 35 33 22 18 27 20 16 18 29 24 35 31 44 42 42 42 57 46 53 63 55 63 61 72 72 68 55 63 63 53 42 74 
85 83 89 89 81 83 74 89 94 89 74 89 85 96 91 78 85 68 70 63 83 72 68 66 72 63 61 46 61 76 72 83 53 46 31 33 31 14 18 16 20 18 22 24 24 18 16 22 16 14 29 27 9 27 24 20 29 22 37 33 37 46 40 42 55 55 61 63 66 63 68 68 66 68 66 70 66 63 61 57 
74 81 87 100 94 81 83 104 106 78 68 68 72 89 81 81 96 81 78 61 76 81 74 85 74 76 87 74 78 94 89 87 78 76 70 42 31 37 31 27 33 20 18 27 24 24 24 24 18 24 11 20 22 27 31 27 33 27 37 40 59 33 50 50 59 66 63 61 72 70 72 63 74 83 85 85 81 72 87 66 
83 68 94 100 89 85 89 104 94 94 72 81 91 85 78 85 98 89 94 74 70 61 63 98 89 89 85 81 76 106 91 100 100 85 109 87 46 31 31 33 14 20 20 27 29 31 29 37 27 24 18 35 16 35 24 31 31 31 40 33 40 48 42 53 66 78 63 68 72 76 76 68 78 81 83 89 81 83 87 76 
85 78 81 106 96 85 83 87 81 85 74 81 81 83 83 78 85 85 89 94 96 72 81 78 81 87 98 100 102 106 106 96 94 102 111 91 91 53 37 33 40 27 27 35 37 29 22 35 22 22 9 27 11 35 20 33 22 31 42 37 48 44 42 53 76 78 66 66 61 63 72 83 83 83 78 87 87 89 83 89 
83 78 87 76 94 91 81 94 91 87 85 85 85 87 85 87 81 85 91 85 106 89 91 94 89 98 98 102 111 111 96 102 100 102 106 96 98 85 83 42 42 33 33 33 31 27 22 29 18 9 20 27 27 29 33 27 37 33 40 46 44 59 61 57 68 72 66 70 59 68 72 81 78 72 74 89 87 89 85 74 
94 74 94 102 91 96 87 109 85 100 76 74 89 94 83 81 91 81 91 85 98 102 94 111 102 106 96 106 119 115 115 117 106 113 111 100 111 100 102 74 59 35 35 33 24 20 31 31 14 31 22 18 27 29 31 33 35 40 37 46 53 61 59 53 74 61 61 76 70 70 85 61 87 78 87 78 78 81 96 87 
81 72 87 104 102 94 98 94 96 100 85 72 78 87 85 78 96 81 87 81 98 119 128 130 117 122 113 119 124 122 117 122 109 109 122 122 106 96 94 96 68 63 57 44 44 37 37 35 27 29 27 22 29 40 35 35 40 37 55 46 57 61 61 63 66 61 68 70 81 76 72 72 81 81 81 96 91 106 81 83 
89 78 78 81 78 91 89 104 89 96 91 85 87 89 81 87 89 89 85 87 91 102 100 135 124 135 124 119 130 124 119 130 117 117 128 109 91 100 94 81 76 81 66 46 42 44 37 37 35 27 35 27 35 35 35 48 48 46 44 46 53 63 63 72 76 61 78 63 72 83 70 87 89 87 72 76 100 100 81 91 
94 87 83 85 89 81 89 89 89 76 72 70 87 96 83 81 85 83 83 98 106 106 109 143 117 132 117 135 139 137 141 128 119 102 115 124 102 94 89 81 89 89 76 70 70 57 42 48 22 20 37 31 33 31 33 44 46 46 37 55 74 70 72 70 78 74 68 68 72 61 70 78 85 76 87 89 96 106 85 70 
98 68 76 87 74 78 87 85 78 87 74 87 89 98 81 89 89 87 100 85 104 96 117 122 119 109 130 126 143 141 128 135 124 113 109 91 87 87 98 81 87 76 68 74 70 63 61 53 46 24 33 22 16 33 35 53 44 42 44 53 63 72 59 61 72 68 66 74 72 68 76 78 91 89 87 87 74 81 72 78 
83 76 89 85 85 70 66 83 98 85 70 83 91 106 81 83 106 98 91 102 100 113 119 141 113 124 119 143 152 145 135 130 122 117 111 102 96 96 87 74 78 81 57 83 81 85 72 68 55 44 53 22 33 40 33 53 61 44 44 55 61 59 63 50 76 63 74 72 68 70 70 70 78 83 72 91 91 102 68 68 


