P2
80 60
701
228 224 230 226 226 230 220 230 232 237 243 247 232 226 228 232 226 241 235 232 224 222 215 228 243 237 249 245 226 258 258 247 252 252 269 269 275 273 286 279 305 324 338 345 365 386 397 399 376 440 454 482 480 505 536 544 532 561 571 573 544 561 571 569 548 565 563 552 571 554 601 618 624 607 628 624 626 593 595 540 
226 224 220 230 220 220 230 230 222 232 239 222 235 245 254 249 256 252 241 218 220 213 222 235 249 269 262 286 313 334 336 361 378 423 446 480 509 530 525 542 544 565 579 563 595 587 587 552 546 591 605 620 626 626 624 612 595 595 599 597 575 593 589 591 624 642 620 599 597 630 628 638 642 630 640 618 618 601 583 550 
230 226 226 222 232 235 243 237 226 243 239 245 245 258 252 264 269 249 258 264 264 277 313 345 382 438 469 503 556 583 587 620 626 628 644 660 701 675 670 672 666 668 634 628 610 585 565 513 496 519 528 538 513 484 459 421 421 405 390 384 363 370 349 334 336 363 357 290 332 321 319 321 332 300 326 321 305 319 300 239 
239 226 245 232 224 235 235 226 252 262 254 266 290 298 319 338 359 382 417 459 498 511 550 554 577 610 642 664 662 668 685 691 666 660 646 644 638 605 571 534 496 448 413 380 326 321 309 277 252 273 279 269 239 239 252 220 220 235 226 218 226 230 205 207 218 224 207 203 211 196 198 186 205 213 209 207 211 207 211 175 
235 230 245 241 235 249 279 286 324 368 403 415 446 498 519 540 546 565 587 607 626 618 610 612 634 601 620 597 579 556 540 480 438 382 372 321 307 292 262 247 237 235 215 220 203 211 209 196 194 207 224 224 224 215 211 203 211 207 205 184 188 201 190 192 188 190 190 192 181 177 194 184 175 181 186 192 188 179 188 186 
277 294 319 355 395 448 471 503 530 554 561 607 622 624 630 614 599 605 575 546 556 519 471 428 403 357 347 294 273 271 243 254 230 226 228 218 218 215 215 220 220 218 213 207 194 192 190 192 192 203 220 220 209 213 209 196 205 201 205 179 190 198 188 192 181 184 190 186 188 179 188 179 188 179 181 190 196 179 186 169 
446 492 544 567 581 616 618 626 610 612 620 603 571 540 511 473 452 407 345 290 277 254 235 230 230 230 228 215 222 226 220 218 215 222 222 209 211 201 211 211 215 207 215 203 198 198 188 186 190 207 218 218 213 209 188 201 205 203 205 179 186 190 184 194 181 190 190 184 177 179 179 181 188 181 188 186 186 175 166 162 
597 607 612 632 597 603 577 550 509 469 411 376 347 305 279 258 254 237 235 218 209 198 194 205 205 203 211 215 213 209 205 205 209 209 211 215 218 215 213 220 211 215 198 209 184 179 177 194 190 203 213 215 222 205 194 196 196 205 201 179 177 190 184 179 188 184 190 181 175 186 190 186 171 173 181 190 192 181 173 162 
554 544 501 444 407 372 315 294 258 271 237 237 241 247 232 232 247 239 215 220 205 194 188 190 207 203 209 209 215 209 198 201 207 215 220 220 211 205 205 207 209 203 211 207 194 179 179 184 186 207 218 220 220 207 201 198 194 194 207 186 179 186 188 186 173 181 186 179 188 169 192 190 179 175 177 190 188 169 173 169 
324 321 286 252 245 243 230 232 230 230 228 235 222 235 230 237 230 222 218 213 211 196 186 192 196 201 205 209 213 207 209 205 201 201 215 211 207 198 209 205 203 198 201 211 194 188 186 181 184 203 213 232 209 203 201 194 192 198 201 181 179 192 188 177 177 181 177 196 181 188 184 171 173 179 179 188 184 177 156 153 
243 237 224 222 213 222 228 222 220 224 224 218 222 232 224 228 230 224 213 213 207 192 188 192 205 192 201 205 198 218 211 207 205 203 211 198 207 196 207 203 207 203 215 194 186 186 177 177 181 213 213 207 198 201 188 196 190 186 198 175 173 188 179 175 171 179 173 177 192 186 175 177 164 179 188 177 177 179 166 149 
218 215 218 207 215 220 215 222 226 220 228 228 230 235 222 228 226 230 211 220 207 188 184 188 190 201 207 203 205 207 207 203 205 198 196 198 203 190 190 201 213 205 203 192 186 181 179 173 188 198 209 215 198 196 184 190 186 188 194 190 184 184 179 184 175 179 184 173 162 179 175 173 173 173 169 175 175 156 160 162 
209 209 209 218 207 211 220 218 207 220 213 230 230 226 224 226 222 218 211 218 209 194 179 188 194 190 196 192 190 196 203 198 205 194 203 196 205 190 192 190 201 196 192 181 175 173 173 169 173 186 192 190 194 181 175 166 156 184 179 171 173 177 177 171 171 177 175 181 171 164 173 166 162 169 175 171 171 158 164 151 
222 198 201 203 205 209 213 228 220 215 213 213 215 230 220 224 226 218 213 207 207 181 186 186 190 190 198 192 188 201 196 196 192 190 196 186 194 181 190 184 194 184 175 169 160 156 164 169 177 173 173 179 177 164 171 149 143 169 166 169 151 166 169 171 171 166 171 166 177 175 173 164 169 164 184 177 177 156 156 151 
218 201 198 207 198 203 209 226 201 213 213 228 220 230 228 224 222 222 209 209 201 186 179 177 175 186 196 184 188 192 181 198 186 186 190 179 188 173 177 171 162 173 173 158 153 138 141 145 143 151 173 162 160 166 153 151 143 153 158 156 164 171 160 173 166 166 162 179 177 175 175 173 162 162 175 173 184 162 158 156 
205 194 198 203 203 209 201 207 209 207 211 218 215 213 218 213 228 213 207 209 196 177 166 173 177 175 186 184 181 190 171 181 171 171 177 173 173 158 158 160 162 147 156 151 138 143 141 123 123 136 149 151 143 143 136 141 151 138 149 158 173 179 177 169 171 171 164 166 162 177 166 177 164 169 186 169 166 158 145 145 
198 198 196 211 194 215 209 205 205 215 203 203 215 209 201 201 209 211 190 194 190 171 164 164 160 177 164 177 162 169 175 164 166 166 166 169 162 151 156 160 151 153 136 141 138 141 125 136 123 130 138 136 138 130 121 119 130 136 136 125 143 162 149 153 162 153 169 164 177 175 162 166 160 162 166 164 162 158 156 156 
215 190 198 207 211 196 205 211 203 201 201 201 207 201 203 198 201 188 190 171 164 156 156 160 158 160 164 158 164 169 153 149 143 156 164 151 151 147 160 151 147 147 141 141 141 132 130 117 119 130 123 134 136 128 121 128 132 134 132 125 132 151 160 153 173 153 164 162 169 164 153 160 162 166 166 169 166 153 143 151 
205 196 203 192 194 205 209 194 188 198 190 186 175 175 177 179 164 162 156 169 164 151 151 141 145 149 147 149 151 143 143 141 141 149 153 153 141 145 141 141 143 134 141 136 130 130 125 128 125 119 121 138 132 125 117 125 125 128 134 119 128 145 145 156 164 158 160 160 173 160 147 153 141 160 175 162 143 149 153 138 
186 175 175 186 209 203 198 188 177 173 169 158 149 141 158 162 156 160 158 158 151 145 145 145 138 138 138 136 132 145 123 134 128 130 123 106 132 125 141 132 128 136 132 125 138 130 130 119 108 117 128 134 134 134 130 123 130 130 136 138 132 143 143 151 160 164 151 153 160 153 156 153 149 151 160 153 164 145 138 128 
179 181 192 173 175 177 166 171 156 160 143 145 138 141 153 151 158 156 147 147 143 145 136 138 136 121 123 125 110 125 128 136 125 110 104 102 110 121 130 117 125 128 123 117 141 123 125 115 117 110 115 119 119 125 130 119 117 130 132 125 136 145 145 164 177 164 160 158 169 156 151 149 141 136 158 151 153 143 134 130 
166 166 177 149 156 164 153 153 143 145 132 130 134 132 141 153 164 147 141 145 143 128 128 125 130 115 95 97 91 84 82 102 91 91 97 110 123 112 121 119 128 119 123 123 125 123 134 125 121 115 123 125 115 128 123 119 125 123 128 117 136 145 138 147 160 162 156 162 149 156 138 141 143 147 143 149 143 134 145 136 
149 143 138 147 138 145 149 147 134 138 132 125 130 125 136 145 151 141 145 134 145 136 119 115 112 112 80 56 46 43 48 56 63 76 97 110 121 112 123 130 125 117 125 128 119 119 121 110 112 117 110 119 121 112 115 110 121 134 130 125 136 147 143 132 149 158 158 149 149 149 134 147 130 134 145 136 125 125 125 117 
147 138 141 143 132 138 153 147 132 136 134 125 128 125 136 143 134 130 141 136 130 130 117 110 106 110 78 61 48 52 54 56 65 65 82 100 112 115 115 128 128 117 119 115 119 121 119 106 110 108 112 125 123 117 115 115 123 125 145 121 130 143 141 138 158 153 156 160 147 141 132 138 141 132 134 141 121 125 141 130 
143 123 128 134 125 141 141 141 136 134 138 132 138 125 128 141 141 125 136 136 121 134 119 108 110 91 87 65 65 65 72 67 69 74 84 91 112 110 117 95 110 125 119 112 115 106 123 112 100 108 110 123 112 108 115 117 119 134 136 128 136 141 143 143 156 166 156 156 153 145 134 130 125 128 136 121 128 117 119 134 
136 123 134 130 132 141 143 143 145 136 143 130 138 128 136 143 134 138 141 128 128 123 117 123 115 108 106 87 78 78 65 80 65 74 82 89 108 97 108 97 89 108 132 108 110 115 121 110 106 102 106 106 119 110 117 112 121 134 143 125 123 143 147 141 153 147 158 151 149 136 143 132 123 115 138 123 123 119 132 117 
136 130 123 128 134 136 130 136 143 121 145 128 128 121 119 141 128 138 149 128 138 123 119 110 108 95 82 59 63 69 72 63 65 65 67 61 72 54 61 50 67 87 123 115 110 112 106 100 91 95 95 102 106 115 112 121 119 125 128 128 132 143 138 141 147 160 158 153 147 143 132 134 119 134 128 125 112 110 121 141 
141 134 125 123 121 132 125 134 130 141 141 134 128 121 128 136 134 145 134 136 130 128 112 100 95 82 69 63 56 72 63 59 50 61 43 54 54 43 48 54 41 61 104 104 110 117 128 108 104 95 95 100 104 115 115 123 121 138 130 125 117 141 138 145 138 149 149 153 147 143 143 147 123 121 128 121 121 128 117 121 
149 128 121 121 125 134 134 136 130 134 151 128 130 132 128 132 121 130 132 128 130 115 89 80 69 43 56 52 35 48 50 46 52 41 54 54 50 35 41 54 59 69 100 108 112 134 136 123 108 89 93 119 102 108 119 115 136 141 128 123 136 141 136 132 145 147 156 151 143 143 132 138 112 132 125 125 110 117 128 108 
134 134 121 117 108 123 130 138 136 143 145 123 128 138 134 125 125 132 138 138 125 130 97 50 54 35 52 43 28 39 37 31 33 41 52 41 33 39 41 39 56 69 104 112 123 125 136 130 117 93 95 115 110 121 123 123 136 145 125 132 125 132 125 125 147 138 151 158 143 134 132 145 117 123 128 117 119 125 119 121 
151 115 121 117 121 132 134 138 136 145 147 136 132 125 128 121 125 123 130 136 136 123 82 65 50 20 33 33 37 28 20 33 26 28 28 24 28 41 31 43 46 59 104 119 123 117 125 134 115 104 106 119 112 125 130 134 141 141 132 134 138 134 141 138 145 141 151 147 147 134 128 130 123 117 117 115 117 115 128 110 
128 134 130 123 132 145 132 145 136 145 149 136 132 128 125 128 141 136 141 134 134 130 93 67 56 26 39 22 33 22 18 20 20 20 28 22 35 26 28 43 39 63 87 125 125 119 128 132 121 112 110 128 117 123 121 141 143 156 132 128 132 130 125 136 138 145 145 153 145 136 138 136 115 117 115 115 117 112 115 117 
160 156 156 160 149 158 160 147 147 166 153 151 147 147 141 153 147 145 149 138 138 141 104 61 56 33 35 22 9 13 11 20 18 20 33 26 33 31 39 43 39 61 91 121 136 125 128 130 130 117 104 132 123 123 123 128 143 145 138 132 128 141 138 141 143 141 143 156 130 145 138 134 121 117 119 117 121 119 123 115 
162 164 162 166 158 160 160 166 147 169 156 156 164 160 156 156 158 147 151 160 138 143 125 54 41 11 26 15 15 9 5 13 18 18 24 26 26 26 35 48 39 72 82 112 134 123 143 141 117 119 110 128 132 145 138 143 138 151 143 134 132 136 132 138 136 141 149 143 128 128 136 130 141 125 128 119 123 130 125 130 
173 153 149 171 156 164 160 166 160 153 153 162 164 158 166 158 162 147 158 151 143 130 136 72 39 9 3 9 11 7 11 0 26 18 24 31 31 35 46 46 43 52 93 119 125 128 138 136 125 121 119 130 134 134 134 136 147 141 138 134 147 130 134 136 147 145 145 147 136 134 130 134 138 125 132 128 128 138 149 125 
162 160 160 162 171 162 175 158 162 160 156 160 158 169 156 153 166 156 143 153 143 141 134 82 39 22 9 18 0 9 13 26 28 22 24 37 33 37 54 61 54 61 84 125 123 147 130 125 125 115 123 134 136 145 134 141 151 147 151 145 130 136 130 141 149 145 145 151 141 143 151 145 134 132 125 132 136 130 147 132 
177 171 171 164 171 160 171 166 158 164 156 151 160 173 164 164 160 147 143 136 162 132 136 97 46 13 13 26 13 22 22 28 24 31 22 37 35 43 46 61 59 63 82 117 136 117 132 130 128 136 125 138 141 141 132 143 145 143 149 143 141 138 136 141 151 160 153 147 149 141 143 132 138 125 130 130 138 138 147 121 
156 166 164 166 162 171 160 156 156 156 156 149 160 173 151 158 158 153 143 145 147 134 138 100 50 20 13 11 13 33 22 28 31 28 37 35 39 46 48 52 52 61 93 108 123 125 125 136 138 125 132 138 136 143 147 134 147 145 151 130 128 147 132 143 145 158 149 156 141 149 143 143 123 132 145 134 149 151 136 136 
160 162 158 158 166 175 166 171 153 160 158 173 160 160 166 173 166 158 156 149 143 147 143 115 56 41 28 37 18 41 35 33 37 43 43 48 48 59 48 63 72 63 95 102 128 128 138 136 136 130 128 130 147 143 141 147 145 151 147 125 123 141 145 141 158 166 153 143 130 143 141 151 136 145 143 149 151 149 147 138 
173 162 166 175 175 171 173 164 160 162 162 171 162 162 166 160 162 162 160 156 160 151 145 138 97 54 35 37 20 35 39 41 46 50 59 65 54 56 61 69 72 74 93 106 119 132 143 134 136 128 141 141 145 143 141 147 151 160 151 141 136 151 138 156 166 158 162 145 128 145 145 143 141 145 149 158 160 162 169 162 
164 166 162 171 164 166 166 179 149 160 169 169 166 162 164 166 177 162 162 169 153 141 149 143 117 63 39 50 33 48 31 41 37 56 50 50 56 52 67 76 87 69 89 119 123 128 141 136 136 132 138 141 145 143 138 147 151 160 162 138 128 149 149 156 153 160 158 156 143 130 147 162 151 145 175 171 173 186 198 213 
169 158 164 166 162 166 171 171 166 156 173 169 162 162 169 164 169 158 164 158 151 141 149 143 117 76 48 52 31 50 50 52 56 65 65 59 69 61 82 74 89 97 112 123 115 132 138 141 143 136 136 149 143 151 136 151 158 153 156 141 136 147 149 162 156 175 160 156 136 149 171 160 190 201 205 224 273 324 349 423 
162 177 177 166 158 169 169 177 169 162 173 169 164 173 169 164 173 162 166 158 171 160 151 151 128 87 54 59 52 52 48 56 67 63 91 80 80 89 97 100 121 125 130 143 125 130 136 136 134 147 143 141 149 153 149 141 147 147 169 145 130 158 141 158 173 188 177 162 177 201 218 252 311 357 432 492 532 486 488 442 
175 177 164 164 158 169 177 175 162 166 166 166 169 181 164 169 164 158 158 153 153 143 145 143 143 108 69 65 65 72 80 95 89 102 106 115 117 117 134 132 147 128 138 128 121 136 145 149 147 141 151 147 141 158 147 141 158 160 158 166 151 166 177 203 218 239 292 351 430 490 544 573 569 550 538 542 511 467 421 288 
175 162 162 169 153 166 169 173 171 166 166 160 169 164 166 169 162 169 158 169 156 151 151 149 160 147 108 100 110 117 115 132 132 145 141 134 132 136 132 143 125 132 141 132 141 130 151 145 141 145 158 151 158 158 169 158 177 162 160 194 215 288 340 399 486 587 591 610 610 603 579 575 521 473 380 347 294 247 237 194 
179 162 171 158 156 169 160 175 169 164 175 158 171 177 166 166 166 164 164 156 151 147 147 145 147 138 145 156 151 158 141 141 132 138 153 138 125 134 138 141 128 128 123 132 123 130 158 149 138 145 166 162 160 169 186 184 241 281 349 442 492 554 550 569 569 618 591 552 515 436 359 283 279 209 232 207 201 190 181 153 
169 162 164 169 151 162 177 184 175 175 169 160 160 160 160 162 162 171 171 160 158 147 153 153 158 147 160 153 162 177 158 149 143 153 151 149 141 136 156 145 143 134 134 134 136 153 160 145 162 143 169 215 269 336 419 471 513 561 577 554 552 550 561 517 465 395 309 220 222 209 188 190 175 186 169 164 173 160 156 153 
177 160 162 169 151 166 177 177 173 169 160 171 179 173 181 162 173 164 160 166 156 147 158 156 158 143 153 164 160 171 143 149 141 153 156 125 134 119 145 149 156 149 147 147 190 211 222 262 303 388 498 546 579 569 548 546 552 523 509 463 384 321 277 228 218 209 175 162 158 160 158 171 164 162 169 162 173 153 158 153 
169 169 164 169 162 166 179 175 177 175 179 169 171 179 169 166 158 166 160 156 166 164 149 164 171 164 177 177 175 173 149 153 160 143 162 160 153 171 201 209 266 321 384 419 480 515 532 511 486 552 579 579 595 523 465 378 319 256 211 215 179 184 209 179 186 158 153 156 158 145 156 171 160 177 169 175 164 162 166 151 
181 171 171 171 162 160 166 179 171 184 181 192 177 175 171 164 162 175 166 173 169 162 169 164 162 171 192 173 192 186 181 211 218 260 296 340 382 450 509 546 577 581 567 550 546 544 498 484 473 434 384 309 258 224 211 196 171 164 158 162 147 173 166 166 160 171 160 173 166 153 156 164 156 162 173 169 158 151 160 125 
184 179 171 169 164 173 190 192 194 190 184 186 186 179 177 196 179 196 181 184 175 169 201 222 249 300 376 419 461 509 521 544 554 567 575 550 546 563 589 589 583 567 503 436 384 309 258 207 215 179 196 196 166 149 156 158 156 156 160 149 156 160 158 160 151 160 149 166 162 149 151 151 153 143 153 164 175 147 158 128 
188 173 188 186 169 162 175 198 213 207 201 196 201 218 188 198 226 260 262 311 372 423 498 563 620 624 628 579 585 595 583 589 569 565 534 507 492 452 382 309 279 256 228 175 179 177 173 169 151 141 143 149 149 153 149 153 153 156 162 145 143 158 169 166 164 169 141 156 136 136 141 149 145 145 151 145 158 160 143 125 
196 190 196 194 188 209 209 237 239 264 269 283 315 397 419 463 528 589 585 607 605 591 603 607 607 593 563 523 501 475 428 395 336 288 264 218 220 198 192 177 171 169 162 158 143 147 156 145 138 134 149 153 149 151 149 151 151 169 158 153 138 149 156 158 153 147 136 138 138 123 123 138 128 134 143 151 162 145 123 104 
279 328 361 376 382 413 469 486 494 554 554 542 542 530 579 601 581 612 573 581 569 530 482 438 390 345 283 254 252 209 198 190 181 177 177 162 166 164 166 177 156 162 162 160 153 141 145 149 143 138 147 151 158 160 160 158 164 173 153 147 128 156 153 149 145 134 132 130 130 138 130 132 134 130 147 151 164 147 117 84 
636 624 624 607 610 610 581 573 571 561 542 505 467 507 498 457 409 365 309 271 243 228 209 207 194 188 186 186 179 177 171 188 175 171 175 169 162 164 160 169 166 160 164 153 147 143 145 134 136 138 149 166 147 160 166 149 151 164 147 138 130 153 151 153 136 136 141 119 136 136 115 119 123 134 141 151 158 147 121 100 
616 607 599 593 546 521 496 467 411 401 340 298 264 256 243 218 215 203 201 184 181 179 177 158 175 173 179 169 175 181 171 164 171 173 186 171 179 158 164 166 156 160 153 143 138 134 141 138 136 138 153 151 156 162 158 149 151 147 147 117 117 143 149 151 151 138 145 123 125 132 128 138 130 143 151 149 149 149 123 106 
411 374 342 298 258 237 222 211 207 230 205 205 196 192 194 188 186 196 184 188 179 175 171 177 164 173 169 179 164 175 173 166 169 181 181 158 164 151 156 151 153 147 136 147 138 138 138 134 141 136 145 156 151 164 149 147 141 151 128 119 110 145 147 141 151 147 147 134 130 132 134 136 141 147 141 162 162 143 151 138 
209 205 196 192 179 184 181 184 184 188 194 188 207 190 181 186 186 179 184 175 184 181 181 179 169 162 158 173 162 166 171 160 169 166 175 138 134 138 145 132 138 145 134 128 128 132 141 138 134 136 151 158 149 151 147 149 147 151 121 117 130 143 145 149 141 134 145 130 134 119 130 136 138 136 145 160 162 156 147 175 
194 181 203 186 169 175 194 188 184 186 190 192 205 192 186 184 179 177 177 177 184 177 175 166 164 156 149 147 153 156 166 158 151 160 156 141 143 130 134 128 132 134 128 138 130 134 141 119 132 141 138 156 158 162 156 147 151 145 128 119 123 153 136 145 134 128 123 117 123 119 132 143 128 153 143 153 153 169 156 147 
184 175 190 173 160 181 196 173 173 181 186 188 188 194 186 186 173 169 164 177 173 158 160 145 156 136 151 151 141 156 156 153 147 138 156 149 141 130 141 132 123 143 141 138 138 134 149 143 138 136 145 149 153 151 156 143 160 145 123 125 134 149 149 143 136 134 125 115 128 130 117 151 134 138 136 156 166 151 166 151 


