P2
80 60
1009
435 433 450 424 426 420 420 426 426 433 420 420 390 394 394 403 409 396 396 400 413 411 405 400 407 411 405 398 405 407 398 392 385 390 388 388 411 433 411 398 394 413 407 407 409 396 388 396 394 396 392 396 403 413 418 392 390 398 407 409 403 409 400 396 388 396 394 405 403 398 403 396 390 388 409 405 392 388 394 370 
424 444 422 435 422 418 418 422 413 413 400 426 416 413 398 405 407 403 403 403 400 400 405 398 392 405 405 407 409 398 409 409 409 396 400 396 400 416 411 409 407 409 403 407 413 400 398 411 405 398 398 405 398 413 403 398 394 400 403 396 400 394 400 392 398 398 411 405 398 411 398 409 385 385 394 400 398 383 416 381 
424 428 435 435 422 416 418 431 411 426 405 431 420 418 411 407 400 398 400 396 396 392 405 409 396 409 416 405 405 403 398 392 400 398 400 398 398 398 413 416 400 405 411 405 400 398 396 405 392 388 383 381 400 398 400 400 403 413 396 400 409 394 400 400 398 409 398 405 418 416 416 424 388 400 396 407 392 407 433 392 
420 431 424 431 416 413 413 416 411 416 409 411 413 420 418 403 396 394 403 398 405 392 398 400 398 396 413 411 405 407 405 400 420 398 403 392 394 396 405 418 413 405 405 398 413 413 403 409 394 396 398 398 411 394 392 396 403 403 396 396 403 396 403 398 398 416 407 416 426 428 446 396 409 396 409 418 426 422 444 413 
428 426 416 422 426 413 413 418 413 433 420 422 416 426 416 407 409 403 405 400 403 400 400 396 407 407 400 398 398 385 400 390 407 400 407 394 396 396 396 413 424 420 388 416 411 413 394 403 394 396 407 407 400 407 426 431 416 418 400 396 398 411 416 403 409 407 403 409 420 444 452 420 433 437 444 435 446 444 491 482 
433 428 428 426 426 431 411 422 426 459 461 437 422 431 426 418 416 413 403 416 394 400 400 398 392 405 409 416 405 396 405 400 409 398 403 405 405 403 400 409 405 403 400 420 420 413 411 422 400 383 409 396 394 418 433 433 420 431 405 398 416 422 437 439 446 454 467 482 526 510 562 554 590 586 639 664 700 704 702 692 
431 437 426 424 424 431 409 416 420 446 450 433 428 424 416 437 424 420 394 405 411 407 407 394 405 400 409 403 405 407 409 411 400 403 400 413 392 422 400 424 422 435 411 413 407 413 405 413 428 400 431 448 444 450 476 487 476 472 493 526 543 564 611 658 688 727 759 788 794 829 825 837 865 835 839 827 815 790 800 784 
439 433 435 437 433 424 418 426 431 452 450 441 435 454 424 431 418 409 407 413 409 411 405 407 409 396 394 403 420 405 424 411 403 405 405 390 403 416 418 439 428 454 437 444 444 452 461 476 521 534 569 643 694 759 775 792 763 773 767 740 765 750 782 794 802 804 823 815 794 753 759 698 647 613 592 588 547 541 506 467 
452 437 437 431 441 424 426 431 433 424 444 439 416 426 431 420 416 409 418 426 413 407 426 400 411 413 416 416 433 413 424 439 424 420 426 435 435 461 459 482 500 549 560 658 719 748 750 786 790 875 921 956 913 892 829 788 744 709 696 664 639 588 575 543 504 517 467 457 480 454 482 426 426 422 409 422 407 428 413 394 
439 452 437 446 444 433 431 422 426 418 428 437 431 444 424 418 424 426 407 426 428 431 422 411 407 405 428 435 446 448 474 489 489 495 545 575 651 725 727 746 730 746 763 813 806 771 732 704 685 677 628 613 575 513 489 459 437 431 413 409 413 413 403 413 403 383 394 398 413 413 409 392 383 379 383 396 390 392 396 396 
437 433 441 441 446 439 431 428 437 435 428 433 420 405 426 420 437 439 439 454 437 454 433 444 465 480 519 541 603 673 746 784 780 777 734 759 769 804 763 734 664 624 583 564 519 474 439 409 411 400 418 413 396 392 396 398 392 392 392 403 407 388 390 385 388 379 388 405 407 403 405 381 379 379 388 372 385 372 398 390 
439 448 448 439 439 435 441 426 433 433 422 431 409 416 433 424 457 465 485 526 547 622 704 802 821 792 767 780 800 835 794 780 732 671 634 549 502 480 437 444 400 413 400 420 426 420 385 381 388 398 400 392 388 390 392 388 394 388 383 388 385 379 377 379 375 379 353 370 405 383 392 362 364 368 383 362 370 375 385 372 
437 448 446 422 448 465 452 441 450 444 444 437 463 454 469 536 679 746 769 852 910 1009 982 890 829 755 677 603 562 495 489 452 437 426 407 411 411 403 392 400 400 396 385 405 413 392 396 400 388 372 383 381 388 379 379 392 372 394 383 385 346 357 353 338 362 346 359 359 383 388 379 357 349 359 359 368 368 379 388 368 
459 472 457 457 454 476 487 476 538 528 600 658 622 675 696 736 850 842 810 784 721 630 551 491 454 420 409 394 385 407 400 405 405 400 396 390 398 400 396 388 398 400 377 390 396 394 379 385 400 379 385 385 375 379 390 398 381 375 372 357 344 357 364 333 351 351 372 359 377 370 377 362 368 346 364 355 355 370 390 383 
500 521 528 588 645 784 813 813 773 738 788 780 730 656 628 577 523 497 459 459 433 435 405 407 394 403 394 392 398 385 392 394 392 394 396 394 390 394 388 368 381 379 368 388 392 385 379 381 390 379 379 375 372 377 388 385 370 346 325 357 355 362 349 346 338 336 353 353 379 379 355 357 346 340 349 344 355 368 370 377 
666 692 734 780 827 844 806 734 681 583 534 474 450 426 394 409 409 400 400 413 403 409 400 383 383 405 394 383 392 379 381 381 385 388 390 388 381 370 370 362 359 383 364 383 394 381 375 381 388 372 390 381 390 385 383 383 372 342 309 344 355 336 353 320 344 320 362 333 357 351 342 325 256 285 292 303 338 364 366 333 
753 709 649 613 575 536 478 472 446 435 428 418 422 422 403 398 407 403 396 403 405 407 396 403 394 405 379 388 383 379 377 392 385 379 392 388 372 342 357 353 375 366 355 383 392 370 379 381 383 379 381 372 381 377 385 377 381 362 333 346 368 368 353 346 333 329 336 342 338 340 329 230 170 121 148 201 303 336 372 364 
523 489 495 474 469 461 454 441 448 426 428 437 418 413 411 398 400 385 366 396 379 390 392 388 388 396 390 383 379 390 375 383 385 392 390 383 370 344 349 362 370 381 362 390 379 385 377 383 388 388 381 383 400 392 383 394 388 372 340 344 379 368 377 353 327 301 320 349 344 327 303 174 114 74 112 185 329 370 383 383 
485 465 448 463 450 452 431 431 435 437 424 426 400 405 383 379 385 366 370 375 379 385 372 381 372 396 379 383 383 383 368 379 383 379 379 390 349 359 344 377 366 366 362 388 381 377 392 383 396 383 381 385 379 381 379 392 388 370 346 368 372 375 370 340 344 307 349 366 388 375 362 322 205 199 234 292 428 459 465 487 
493 495 467 467 461 437 446 428 439 431 437 431 416 381 362 357 383 396 379 383 390 392 370 377 388 383 396 375 379 385 390 398 385 383 381 383 362 346 353 385 381 392 390 400 392 394 381 398 394 403 400 385 394 400 422 431 420 433 444 411 428 459 454 465 469 480 515 564 600 617 564 560 613 613 660 721 736 694 709 723 
502 495 495 480 450 476 454 439 437 441 418 426 407 370 342 320 355 377 355 379 346 353 394 372 375 372 385 368 381 379 381 383 377 368 388 388 366 355 351 381 379 413 400 413 426 433 426 441 461 452 463 536 603 675 744 773 788 786 744 715 704 692 681 668 675 719 721 727 742 746 740 700 656 596 594 543 609 605 573 469 
515 508 485 497 506 465 446 446 439 446 439 420 392 359 298 245 270 283 353 394 405 368 379 368 372 381 400 390 392 413 413 418 422 437 446 444 459 489 508 600 556 538 547 579 658 683 685 723 719 688 688 765 839 848 877 858 819 782 704 673 656 611 571 554 536 530 497 480 480 469 457 388 274 170 137 150 318 409 422 405 
502 519 515 463 493 457 459 454 450 457 435 424 424 381 228 201 241 309 340 407 407 405 398 409 422 444 461 526 538 586 637 654 671 690 700 753 746 798 813 827 813 796 757 692 740 692 666 630 609 571 549 508 506 485 489 467 457 463 437 431 411 444 426 426 409 413 416 407 411 407 403 359 223 123 108 112 243 368 398 405 
480 489 508 510 478 476 457 446 448 465 439 457 435 400 243 241 303 398 450 534 575 611 641 662 675 643 647 656 688 706 715 736 675 700 654 622 586 573 515 502 463 461 435 444 441 428 433 422 441 413 418 424 424 418 420 409 409 418 424 431 426 420 418 413 411 418 407 398 405 400 390 329 228 92 68 54 203 331 359 379 
489 506 491 508 500 495 478 472 474 510 581 538 519 547 543 573 683 763 831 906 856 777 721 654 626 581 532 506 482 454 446 448 437 422 407 428 431 403 409 416 411 400 409 418 413 416 403 439 422 411 431 420 420 418 422 409 405 409 418 422 413 420 431 424 413 422 413 396 403 392 368 254 150 57 57 39 101 172 248 364 
575 600 581 598 643 711 734 711 694 647 668 723 727 628 569 506 448 465 513 508 495 463 439 424 416 400 407 405 400 403 400 407 409 405 416 413 407 420 424 405 409 403 413 413 411 416 407 416 418 416 428 424 431 424 422 424 416 420 418 424 426 422 424 433 413 420 433 409 416 388 320 103 25 0 18 50 50 54 201 303 
685 713 742 736 767 757 723 632 600 562 515 482 452 325 221 201 214 287 400 418 400 418 413 403 407 413 396 411 396 400 416 413 392 403 409 400 403 411 411 398 407 394 398 411 409 413 418 418 424 418 420 413 431 426 420 409 416 420 418 424 424 424 413 416 422 422 431 409 418 394 307 54 18 43 77 66 88 130 309 383 
560 549 541 532 517 489 463 446 452 448 441 431 383 283 199 188 199 270 388 409 400 411 405 405 403 413 409 396 394 403 392 400 403 400 405 400 403 405 403 396 405 407 411 407 422 420 411 422 431 428 420 433 431 426 424 413 416 426 437 424 426 426 428 420 428 424 426 428 418 411 346 223 199 223 250 265 285 314 370 400 
452 463 450 478 439 448 431 452 426 439 426 418 362 236 181 170 181 292 396 407 405 400 392 407 405 394 392 394 390 405 394 416 407 407 396 396 400 400 398 392 409 416 400 396 424 426 418 420 433 422 431 435 431 420 433 424 416 428 428 433 435 435 428 435 435 428 433 420 426 411 405 359 353 346 359 381 383 381 403 411 
431 437 441 467 446 441 433 439 428 424 405 353 301 183 161 157 208 307 409 407 392 418 398 403 383 396 388 392 398 400 392 411 398 398 390 403 394 407 403 398 407 407 403 418 420 437 428 420 422 441 437 444 433 428 446 444 424 424 446 437 446 444 439 431 424 420 426 420 416 392 394 392 383 370 370 375 390 390 422 437 
426 422 437 446 448 433 431 437 424 413 405 327 210 152 141 168 196 245 357 392 407 405 407 396 392 388 400 398 398 396 394 407 400 396 400 400 403 394 396 405 398 407 418 424 435 441 441 437 431 435 439 431 448 435 437 439 435 441 448 437 441 433 433 431 422 428 422 418 416 403 383 377 370 370 383 385 409 398 424 400 
422 424 428 431 422 431 422 431 422 411 413 381 298 199 177 143 188 263 331 392 405 396 398 392 390 396 383 390 394 398 413 403 398 400 398 396 396 398 398 405 409 416 422 439 435 439 441 441 439 424 441 437 437 441 437 441 433 446 433 437 444 439 437 431 413 409 409 409 407 392 370 381 377 383 390 396 400 400 403 388 
426 420 413 424 413 416 418 422 409 405 396 388 394 362 355 342 368 379 388 394 394 390 394 392 394 400 403 405 392 400 392 407 403 400 407 403 390 396 396 409 409 422 422 446 450 437 433 441 448 428 441 433 441 424 437 435 433 439 433 428 444 426 424 422 403 407 392 390 370 353 349 364 375 390 396 396 407 392 420 394 
420 426 424 424 416 422 413 422 409 403 409 394 394 385 394 385 400 398 394 396 388 392 398 400 396 396 396 383 396 394 390 398 400 403 411 400 388 398 398 407 409 428 437 441 431 439 433 435 437 431 441 437 439 435 441 448 431 437 431 446 441 422 420 411 394 383 375 351 359 349 359 353 388 390 396 398 398 396 407 388 
424 413 422 431 428 422 418 407 405 407 409 396 388 398 398 383 400 409 398 400 400 396 403 405 388 398 394 388 392 405 400 403 407 405 405 403 403 407 396 405 398 424 426 433 446 439 437 433 431 428 439 437 437 433 446 454 433 437 441 441 441 418 398 390 377 375 370 353 349 359 353 362 375 392 405 413 400 390 409 390 
418 428 422 416 426 422 405 409 418 394 405 418 400 400 392 400 398 396 398 400 390 407 383 385 392 394 385 385 394 394 403 407 403 405 400 407 390 398 413 405 407 424 426 439 439 435 435 439 437 433 446 435 435 441 437 441 426 435 431 444 424 418 394 370 364 351 349 346 357 340 366 353 362 383 409 400 394 385 400 379 
422 418 416 411 420 422 413 413 416 409 392 385 396 400 403 400 398 392 396 405 396 394 398 392 392 392 394 394 396 390 396 398 403 398 403 396 398 400 405 403 400 431 418 433 437 433 437 439 439 435 452 437 444 437 437 437 431 444 435 441 422 411 383 362 355 353 342 340 344 342 349 357 372 394 390 388 392 377 400 388 
407 407 409 411 416 416 411 411 398 409 411 396 394 390 383 394 396 392 392 411 383 398 385 394 392 390 385 383 392 392 383 400 403 398 396 390 392 394 403 405 396 411 413 435 435 426 422 435 428 426 446 444 433 441 439 437 422 433 431 418 403 385 379 362 338 338 340 346 351 344 340 342 381 375 385 388 392 383 416 400 
400 407 405 418 422 420 400 411 403 394 403 405 388 398 388 394 403 388 396 398 392 392 394 405 400 400 400 392 390 394 398 405 398 398 409 398 379 398 392 400 396 413 407 435 446 435 418 435 426 428 448 441 424 437 435 435 422 420 422 403 396 372 355 349 346 344 353 351 349 357 351 359 377 368 372 379 407 398 400 403 
411 411 409 413 411 411 390 416 413 388 394 394 394 383 398 388 388 396 400 405 394 385 392 400 394 392 394 394 377 390 392 396 403 392 403 396 394 398 392 403 396 411 416 428 439 441 431 424 433 428 444 424 433 446 424 420 418 411 416 400 394 381 357 351 338 333 362 351 351 355 359 355 368 362 381 383 407 400 413 388 
407 413 400 409 407 405 403 407 411 392 398 400 390 390 394 400 394 403 392 407 398 390 390 400 396 403 411 394 388 398 398 403 400 392 392 394 396 409 400 403 403 413 422 448 441 437 418 420 426 428 437 435 424 428 426 428 424 418 411 405 396 379 372 366 342 359 355 370 355 372 362 366 366 377 375 388 409 396 400 403 
416 420 411 407 411 416 392 413 413 403 392 405 392 400 398 383 392 400 398 405 405 407 400 405 392 403 394 405 388 394 400 398 396 403 407 403 394 394 390 405 405 413 418 435 435 428 413 426 428 418 435 439 426 424 424 422 409 411 411 394 392 375 368 346 346 359 362 355 370 368 383 368 362 375 388 381 392 400 413 403 
424 411 416 418 418 411 403 403 413 411 390 392 392 403 400 403 398 394 400 398 392 400 407 398 398 398 392 388 396 392 390 396 411 403 396 405 413 413 403 405 416 428 424 426 435 433 413 426 416 413 420 437 422 418 420 416 405 411 409 405 379 383 370 366 366 362 379 353 366 379 375 370 362 377 400 396 407 420 424 413 
422 416 422 411 407 413 403 409 405 392 388 409 403 394 398 396 394 398 388 383 403 394 394 394 390 405 400 385 388 392 394 400 388 398 405 398 400 405 409 409 409 431 431 437 433 418 413 422 411 426 433 426 413 413 411 409 411 400 405 390 385 368 379 370 368 366 353 359 372 368 381 364 377 379 390 403 405 407 431 400 
411 433 416 418 413 413 411 413 418 400 407 398 407 396 385 388 394 407 396 394 407 400 403 400 390 398 394 388 392 392 390 400 398 403 392 390 390 394 407 400 409 426 422 424 435 411 413 420 428 422 433 426 422 413 416 416 407 403 396 392 400 388 377 379 368 370 383 362 377 370 377 377 381 379 388 392 413 413 426 407 
416 420 416 422 416 416 403 422 411 416 403 405 407 392 405 403 400 400 396 394 396 400 392 394 392 400 385 394 383 385 396 394 383 385 398 400 392 403 392 396 411 416 422 420 422 413 413 418 413 416 418 424 422 413 411 407 388 405 407 392 383 388 379 364 355 370 375 372 383 375 388 372 383 392 405 411 400 409 413 411 
413 420 411 416 411 418 407 416 407 400 396 396 396 392 398 392 385 407 396 413 405 403 398 400 398 396 385 383 379 392 388 394 385 377 398 390 400 405 409 409 407 409 405 413 422 420 411 407 418 411 433 413 411 403 405 413 392 392 383 388 383 383 377 359 342 375 368 379 390 377 385 400 392 388 394 394 413 400 409 398 
411 405 416 420 424 422 407 431 411 398 403 409 403 396 394 394 409 413 396 420 409 398 405 400 392 385 383 390 383 392 383 390 383 390 388 405 405 411 409 416 411 411 420 405 411 411 418 409 405 398 409 413 411 411 403 405 390 392 400 394 392 394 383 368 375 379 372 370 396 377 383 390 392 385 396 398 403 400 403 394 
418 413 428 431 407 409 411 420 409 400 403 409 400 407 400 394 413 413 396 409 400 390 390 388 383 379 394 375 379 383 390 390 388 390 405 409 396 407 403 411 409 424 409 409 422 407 407 411 394 400 407 424 411 394 385 396 385 407 396 394 377 385 383 381 377 379 383 385 381 392 385 400 388 377 377 390 400 394 400 396 
424 435 433 420 416 407 403 409 405 392 403 398 411 416 392 396 400 398 392 405 390 392 392 385 390 398 383 375 381 394 390 388 379 388 409 398 413 411 400 409 413 411 403 405 422 411 390 392 400 381 385 392 394 390 388 394 392 394 390 388 383 381 381 375 377 364 385 383 388 385 390 390 379 377 403 388 394 394 403 400 
420 420 424 418 420 398 405 411 398 409 403 396 392 396 392 396 403 390 396 398 394 394 390 396 372 388 388 388 385 396 388 396 383 385 403 407 403 407 400 413 409 405 409 407 413 398 383 385 390 392 381 377 390 379 381 379 392 390 390 390 385 385 379 375 388 370 396 379 396 388 394 396 379 370 381 392 405 405 403 398 
433 424 433 411 413 411 411 418 409 405 405 403 400 388 394 394 400 394 400 400 388 394 390 405 388 383 388 388 392 405 400 398 398 400 400 416 416 424 403 418 409 418 403 409 405 398 381 372 362 364 375 385 392 381 383 398 394 398 383 388 385 385 379 388 385 379 396 392 400 403 400 392 392 381 388 396 405 409 413 405 
416 422 418 424 418 413 396 422 398 407 403 400 398 392 394 390 390 394 396 400 392 396 388 392 381 383 388 377 390 398 392 394 398 409 405 411 409 420 418 416 407 405 398 388 398 388 375 377 364 355 364 372 383 385 388 379 390 390 385 375 385 383 381 377 388 379 377 400 405 400 405 394 396 383 400 396 407 405 428 411 
431 424 435 422 431 413 416 409 409 407 403 409 392 409 407 400 385 396 398 403 396 394 388 390 381 398 390 383 388 388 388 394 390 396 403 413 400 416 400 409 409 416 390 398 379 394 379 385 362 355 357 362 370 377 383 377 368 377 385 366 375 385 362 377 364 379 375 385 385 385 403 383 385 377 385 411 407 413 424 403 
420 411 424 426 416 407 409 413 403 400 403 400 390 394 409 396 396 398 394 403 403 390 377 390 390 379 390 385 381 381 381 390 388 403 400 416 416 409 400 411 422 396 390 388 394 377 377 364 364 368 362 375 375 375 370 381 366 383 372 362 364 372 357 372 381 372 381 359 375 383 392 388 400 379 394 411 439 405 420 416 
422 426 426 420 403 396 411 420 398 398 403 396 394 398 398 394 400 390 394 396 388 379 392 390 379 383 394 381 377 377 390 381 390 398 407 394 411 411 411 413 409 407 388 383 394 388 379 379 370 362 362 355 372 368 364 362 372 359 370 366 364 362 370 372 357 370 392 381 383 385 388 392 388 405 416 413 431 433 433 403 
413 420 407 411 396 413 394 409 403 405 411 398 392 396 394 392 394 383 394 400 394 398 394 390 388 388 381 388 375 388 381 381 379 396 396 383 400 390 407 403 400 400 394 400 396 375 385 375 377 364 368 385 375 368 362 372 375 388 370 379 362 379 383 370 379 388 396 379 381 379 381 377 396 400 405 409 424 424 428 398 
405 420 418 418 400 403 407 409 407 394 396 400 379 375 396 392 381 377 383 392 385 379 383 372 379 394 383 366 383 388 392 377 379 368 383 364 381 388 388 381 385 377 375 381 383 366 366 370 368 359 359 366 362 370 364 357 336 362 357 379 370 385 379 375 381 385 390 379 383 385 383 379 385 383 407 400 428 418 411 409 
413 416 409 409 394 396 388 392 388 394 400 413 400 390 383 394 388 377 375 400 388 375 388 392 392 385 388 385 388 375 381 379 375 377 379 372 385 383 388 383 381 370 366 359 375 362 368 362 357 349 355 375 342 314 344 342 338 368 357 375 385 385 390 370 385 385 385 383 381 377 375 377 388 385 396 400 405 400 398 392 
403 398 390 396 394 385 407 403 396 388 388 396 398 392 390 377 379 372 381 385 381 388 394 379 388 368 379 366 366 375 372 372 366 372 362 355 372 368 377 381 362 370 368 368 375 355 359 366 344 336 357 353 327 333 336 349 325 359 346 357 375 375 370 377 385 392 379 375 370 349 366 364 370 359 390 400 405 403 420 390 


