P2
80 60
498
88 84 58 66 74 62 74 90 82 86 72 72 74 84 78 68 70 66 66 52 62 60 58 62 50 66 166 260 258 266 270 264 396 487 498 475 483 464 433 332 100 84 96 106 118 128 164 164 152 152 170 166 170 179 164 154 122 122 134 142 158 150 168 164 156 154 164 172 164 142 166 162 189 179 187 185 181 172 172 164 
84 76 62 78 70 80 68 88 74 82 80 86 68 74 74 78 70 80 58 60 76 54 60 64 68 130 305 334 320 334 334 326 322 439 460 431 464 471 441 319 176 179 176 162 152 181 211 197 197 185 183 203 191 185 158 144 142 148 158 156 164 174 187 189 193 205 189 187 185 178 160 191 191 187 193 178 187 199 187 187 
88 72 66 70 90 76 64 80 88 86 80 70 58 64 66 68 62 52 50 46 50 48 46 58 74 217 324 328 322 315 309 338 348 377 392 388 460 462 412 311 237 215 189 164 178 191 219 209 201 193 209 205 211 199 183 160 160 174 160 178 191 181 195 203 217 233 203 191 166 140 148 179 189 193 176 160 170 191 185 176 
84 78 56 68 78 70 68 92 80 76 64 68 68 54 78 64 70 68 64 52 48 48 52 66 100 256 311 313 293 272 266 301 311 338 350 359 437 443 379 293 225 191 183 178 174 187 193 170 158 179 203 213 203 185 178 166 172 191 191 179 189 193 199 205 211 215 219 193 179 154 158 158 193 181 191 158 185 183 162 166 
82 68 60 74 78 74 64 96 80 74 78 78 76 72 82 66 64 82 48 56 52 62 60 72 96 231 351 346 311 295 282 307 334 330 303 351 437 400 328 241 217 201 191 174 162 178 170 140 146 142 203 215 207 197 191 189 191 213 193 191 197 187 213 233 221 225 225 197 201 181 183 189 221 205 207 187 189 189 172 179 
78 64 72 78 84 66 70 84 74 84 80 78 88 84 80 84 84 70 62 64 60 76 68 94 100 207 342 373 350 324 328 320 340 291 272 338 400 348 320 262 227 215 179 174 164 162 160 138 126 152 195 207 187 205 199 215 235 227 207 213 229 227 231 254 284 268 266 246 219 201 237 246 231 223 215 205 197 197 191 185 
60 64 62 62 70 74 60 90 76 74 74 84 84 78 82 76 72 86 70 84 74 84 76 80 102 193 317 379 373 379 351 353 346 278 260 342 381 324 315 264 233 207 181 176 154 156 166 134 124 130 183 207 183 181 193 185 215 231 252 235 248 256 270 291 309 309 305 268 270 260 260 250 235 221 199 203 211 219 193 178 
80 68 60 70 84 90 68 86 76 78 60 82 76 84 70 80 66 76 78 84 106 88 88 108 124 254 274 350 384 394 394 379 336 272 260 346 394 340 322 266 235 219 181 178 158 162 148 142 134 134 195 207 197 164 154 174 213 241 248 266 270 280 299 295 305 305 301 266 254 242 246 244 221 205 193 193 185 189 183 164 
76 64 62 64 82 76 66 92 92 78 78 80 80 80 88 84 92 100 132 160 231 288 266 284 355 444 435 367 348 382 371 367 320 270 272 369 410 377 332 276 258 219 199 197 174 179 160 128 134 130 195 207 181 164 154 193 231 235 260 276 286 291 317 295 282 274 264 258 241 213 205 201 217 205 178 162 168 174 150 122 
70 54 66 64 68 76 74 78 78 82 88 80 96 78 82 90 106 164 254 305 435 479 448 425 423 462 487 377 297 344 320 293 284 256 274 363 400 379 357 319 266 237 215 213 176 174 154 132 128 134 172 217 185 183 174 213 207 254 303 303 315 324 319 301 288 291 272 244 229 189 189 179 197 187 144 134 118 100 72 86 
70 58 58 66 84 64 60 72 80 72 64 68 82 62 74 90 136 256 313 433 490 494 489 483 433 444 466 437 317 286 262 250 246 239 282 338 373 357 336 322 262 235 215 207 176 172 158 134 140 128 146 201 191 199 199 205 217 284 315 307 319 305 272 299 293 272 242 211 191 152 154 148 144 110 94 68 76 86 56 70 
74 62 68 68 76 68 90 76 88 70 76 76 62 90 86 106 181 284 386 386 492 475 425 427 406 382 423 427 338 315 334 324 326 291 297 334 334 330 330 322 295 264 225 221 195 185 168 144 144 130 130 191 199 225 225 219 239 272 270 286 272 246 254 264 227 195 193 183 146 132 124 114 106 92 94 74 80 72 60 56 
74 68 62 68 92 74 60 90 90 70 62 82 76 96 66 84 174 293 419 429 437 433 386 413 413 319 254 250 272 377 392 402 379 351 324 313 307 295 301 303 313 293 264 242 221 195 185 158 148 136 148 185 213 233 227 223 223 221 225 217 231 205 201 179 146 136 136 116 126 114 102 104 98 94 80 66 76 82 60 62 
78 66 60 74 58 74 74 80 88 80 70 80 72 76 80 84 162 260 412 443 439 477 448 441 413 195 102 136 176 320 396 398 404 373 340 307 299 291 299 330 317 313 317 297 242 211 199 174 168 146 150 172 213 223 197 183 189 181 183 179 162 128 130 98 98 108 118 114 122 110 112 102 110 102 82 60 78 62 60 70 
74 74 76 76 84 76 70 70 80 74 72 70 66 76 74 72 130 229 324 460 381 448 396 363 189 102 90 96 114 274 361 344 348 342 342 324 326 365 369 388 379 369 365 346 235 207 181 178 183 172 160 160 215 189 164 148 128 134 116 108 114 92 100 104 116 118 134 116 122 134 122 124 104 100 96 78 82 70 54 62 
94 70 66 58 82 76 62 74 86 66 58 68 70 76 62 72 78 134 219 286 322 241 160 126 88 82 86 92 94 172 322 286 284 254 237 309 350 406 421 417 390 371 386 382 244 160 154 148 166 162 158 148 136 100 90 70 90 84 84 76 96 92 92 98 116 114 124 120 134 108 110 110 106 100 80 64 78 78 78 62 
82 70 72 56 86 70 66 74 82 82 64 80 72 72 82 72 84 102 100 126 124 94 72 104 84 84 92 110 106 106 179 219 252 268 289 320 344 382 384 373 351 384 396 365 215 179 172 162 144 150 136 128 108 86 66 76 66 80 92 88 98 92 112 108 110 106 126 118 128 116 120 112 120 96 76 72 80 90 76 82 
78 72 74 66 78 62 64 78 74 78 66 62 68 74 74 84 88 96 86 90 80 80 78 90 88 86 98 104 110 114 140 134 183 260 305 313 396 402 350 330 309 377 386 379 317 246 201 166 166 156 142 120 104 102 88 78 98 88 86 82 96 90 102 110 96 108 122 126 110 130 118 108 104 96 80 72 86 84 70 84 
82 96 76 76 82 82 60 78 80 64 72 76 78 80 90 80 92 88 80 74 78 66 92 96 100 94 106 96 106 108 130 146 209 291 320 320 396 406 355 256 217 340 359 379 381 346 258 166 166 166 144 148 122 138 136 128 126 132 124 122 112 98 90 106 100 98 96 98 116 124 106 108 102 96 80 86 100 96 82 70 
84 68 62 56 74 72 62 84 94 76 68 78 70 78 70 88 76 86 80 72 84 86 104 130 122 122 106 106 92 106 136 209 291 307 288 248 355 394 311 233 223 291 328 334 305 260 233 219 223 219 164 164 156 138 158 166 168 162 162 152 148 134 100 90 94 78 82 80 90 120 126 108 110 104 84 90 92 90 86 92 
70 86 54 58 84 66 56 104 82 64 78 84 76 86 76 74 80 100 76 74 80 118 189 211 185 150 138 118 104 122 150 288 282 270 237 248 334 369 307 274 237 242 250 235 205 221 219 260 241 217 185 170 150 140 124 164 170 160 158 156 130 136 118 104 100 90 96 96 96 128 132 120 138 120 110 94 108 98 100 80 
66 82 60 64 76 62 84 80 82 66 70 76 80 88 86 88 70 76 92 86 112 189 199 268 272 221 231 201 146 116 205 286 260 244 282 295 311 313 286 256 211 183 183 181 205 233 205 241 237 199 191 158 136 152 128 140 162 148 146 130 132 116 98 112 110 96 94 118 150 197 193 179 211 223 233 193 162 130 104 94 
82 80 66 66 72 74 64 74 86 78 68 80 80 78 78 74 70 80 72 92 158 250 303 336 344 367 427 398 295 144 237 252 246 244 284 340 324 289 264 237 170 124 124 174 191 185 215 209 219 217 187 160 166 144 146 126 118 114 110 120 104 102 104 100 104 94 106 120 189 225 217 217 241 262 289 268 272 239 183 100 
76 64 72 64 82 56 52 66 76 76 68 70 80 98 84 76 70 78 80 98 170 274 351 412 458 490 483 477 398 268 258 235 239 254 313 351 297 272 227 211 168 162 156 179 185 168 189 191 207 219 170 176 148 148 140 112 106 94 96 112 100 102 104 114 110 106 114 120 191 221 207 213 207 246 266 260 272 276 272 248 
70 78 70 68 78 58 82 88 84 76 58 84 78 72 74 68 82 74 78 62 122 217 284 394 466 431 394 435 448 367 288 237 258 252 276 272 229 207 201 174 178 172 166 166 183 142 179 195 237 197 174 158 154 158 170 148 136 104 90 94 100 112 116 120 122 126 132 140 207 225 201 187 197 217 231 235 229 246 246 241 
70 80 66 60 94 62 78 80 82 84 80 68 74 82 82 74 92 84 72 74 100 130 233 351 452 441 363 412 417 381 363 246 270 276 231 174 156 140 172 146 148 168 179 195 195 160 162 174 254 205 168 164 179 176 179 160 152 122 124 120 128 160 166 162 160 144 156 140 221 211 185 174 205 213 225 217 237 233 237 233 
68 70 76 56 68 66 66 64 84 64 72 68 82 70 76 70 64 84 70 78 76 88 146 256 423 450 433 423 344 367 367 239 272 311 213 158 126 78 132 112 130 158 166 164 185 164 162 154 197 227 160 156 181 179 172 160 158 144 142 219 201 197 189 179 181 154 152 138 152 172 170 144 132 138 142 134 144 164 162 181 
66 80 64 66 70 64 64 88 86 72 72 74 74 68 76 76 74 78 60 76 66 72 80 118 239 359 412 361 353 388 367 254 315 322 231 189 122 68 102 108 134 158 164 172 207 166 156 183 187 191 158 144 170 181 166 164 166 148 150 213 213 195 193 197 205 185 187 189 179 176 154 152 138 142 142 142 134 152 130 136 
76 88 62 62 74 68 54 86 76 70 78 80 66 56 74 68 68 70 64 56 66 78 66 80 104 118 142 203 282 330 330 246 320 326 241 191 132 80 98 88 146 160 172 181 183 162 201 189 211 211 176 126 146 148 158 140 166 162 160 191 199 219 225 221 231 241 242 264 286 266 225 187 213 205 215 225 237 258 213 213 
68 68 54 52 90 54 52 80 82 66 64 62 56 52 60 60 56 74 72 52 50 64 60 68 76 74 72 84 94 179 297 264 297 295 254 241 203 160 132 106 134 158 189 170 168 176 193 181 213 227 191 144 132 140 142 136 168 187 181 195 201 215 205 231 235 239 246 248 280 274 239 237 227 207 207 227 266 266 256 252 
72 68 62 60 72 62 58 68 76 70 64 64 54 66 70 64 68 64 56 68 70 76 66 68 68 66 66 70 84 116 246 266 254 268 286 286 254 254 183 156 132 136 156 154 181 154 178 166 179 227 187 150 136 116 130 154 174 205 197 195 197 181 187 199 223 227 215 235 254 252 242 227 231 235 211 233 260 272 268 250 
76 80 70 64 80 70 64 84 72 66 64 66 58 66 76 76 72 74 62 78 76 76 74 72 70 62 72 76 84 96 235 262 237 254 270 293 268 254 225 199 162 144 158 162 164 187 193 166 181 242 183 168 152 130 156 172 170 187 203 168 174 183 179 174 193 193 219 213 242 235 223 231 225 227 250 246 250 237 225 179 
70 80 56 64 76 70 76 72 74 64 64 74 82 86 76 78 74 78 76 62 68 78 72 80 76 66 70 80 78 98 195 311 278 241 250 282 250 237 231 219 209 191 199 189 183 191 193 174 197 215 207 176 166 158 174 181 170 178 203 170 162 158 164 176 172 172 199 187 221 223 209 215 217 227 227 203 178 148 120 88 
58 82 66 62 70 70 62 64 96 76 80 72 82 80 82 74 74 62 72 66 68 74 72 76 80 74 82 72 90 104 170 305 282 246 237 266 223 242 256 254 235 227 142 146 140 144 154 203 193 162 197 179 174 168 225 256 274 237 197 178 148 138 160 156 150 158 152 146 156 146 150 154 144 140 126 106 96 94 78 72 
62 54 58 68 72 68 56 66 80 68 72 72 80 84 80 64 80 84 70 56 60 68 66 72 66 80 64 78 68 88 134 264 284 266 191 124 199 260 244 244 320 307 268 254 195 213 260 264 205 168 158 154 215 303 319 317 270 242 282 246 140 122 116 108 110 110 108 136 140 142 132 130 120 104 86 78 68 76 70 72 
46 70 66 72 68 70 70 72 84 68 70 66 74 76 72 72 78 78 78 70 64 76 60 80 70 62 76 86 72 82 118 154 262 289 301 303 305 268 219 286 363 353 342 369 330 338 340 332 315 307 289 289 328 371 350 328 332 309 288 168 90 90 84 84 102 106 128 126 136 128 142 114 116 92 84 70 82 56 52 64 
56 64 78 84 68 68 70 72 84 66 62 64 80 70 68 68 82 76 72 58 78 74 86 86 66 72 76 92 86 86 130 132 187 303 355 363 328 270 244 336 377 342 338 353 344 353 363 342 338 336 326 320 319 338 350 342 322 284 150 86 94 96 84 86 106 102 114 114 122 112 126 110 120 100 84 74 68 68 56 56 
58 64 66 64 74 62 66 78 72 74 60 74 58 72 76 74 70 80 72 64 70 78 66 82 80 70 70 94 102 168 242 276 328 357 357 348 324 284 332 351 334 262 270 289 320 340 348 320 274 264 209 189 168 166 187 199 183 138 86 86 68 84 86 84 106 108 114 120 136 128 120 110 102 106 78 60 60 64 60 64 
70 70 64 68 82 74 62 92 78 64 66 68 56 90 82 86 80 68 66 62 58 84 76 86 82 78 74 124 217 272 328 319 336 348 367 381 375 342 377 373 355 322 268 197 128 138 134 136 132 134 124 116 108 122 112 102 88 68 74 74 82 68 76 92 90 104 104 118 110 108 108 116 104 90 80 68 80 86 84 90 
74 84 74 72 80 60 52 84 92 62 70 76 68 72 78 84 76 86 82 62 66 78 76 76 80 92 106 209 307 280 284 305 313 348 369 381 400 369 386 373 342 342 351 344 250 128 96 94 106 114 118 112 102 116 110 102 104 84 102 110 98 114 116 110 100 98 114 104 112 108 124 110 102 94 72 68 100 112 92 86 
62 82 66 74 66 76 66 78 80 54 64 70 80 80 88 82 80 72 76 74 72 92 92 82 80 92 138 295 330 305 295 278 282 342 351 357 355 350 375 367 348 361 371 382 361 305 203 164 164 152 152 166 164 164 160 160 148 156 156 152 142 148 142 130 112 118 112 112 112 116 110 114 106 130 106 100 116 108 118 110 
58 72 62 66 74 52 66 74 78 66 78 72 60 66 84 86 82 86 82 74 76 78 86 78 92 104 205 309 320 309 319 291 252 278 307 342 344 340 363 381 365 375 357 363 363 379 324 254 189 179 181 195 181 183 174 160 152 172 176 179 166 162 162 146 126 110 104 110 116 128 158 183 229 227 246 217 205 178 154 146 
66 62 52 60 74 58 64 70 68 66 64 70 60 78 82 106 181 215 223 170 160 140 108 94 96 140 264 282 286 276 309 274 252 266 286 274 264 256 274 344 322 342 346 359 351 363 357 315 262 211 209 189 187 187 183 189 189 179 193 193 181 176 178 168 148 122 128 134 150 166 211 225 266 284 288 262 276 264 239 211 
82 78 62 58 58 66 60 68 76 54 60 68 72 68 94 168 315 367 371 396 404 388 258 134 124 239 313 311 299 291 303 286 260 293 284 221 170 158 168 244 244 258 282 332 338 332 340 330 315 264 246 205 197 197 183 185 189 183 199 179 207 193 179 187 142 136 128 126 122 120 187 209 231 254 288 282 278 268 276 242 
56 58 70 66 70 64 66 72 72 74 62 76 78 84 142 270 394 375 406 473 433 444 441 382 303 355 330 305 291 289 291 278 260 262 183 132 108 108 162 164 195 219 235 260 307 340 332 320 305 289 262 250 215 201 209 197 201 201 199 197 203 209 197 179 166 144 136 112 88 94 160 179 217 235 280 266 274 272 262 219 
68 82 68 58 78 80 62 78 84 70 70 66 84 82 185 309 394 408 435 485 437 425 429 443 427 386 375 307 288 256 250 233 221 211 138 96 98 114 164 187 213 221 239 258 262 305 330 319 295 297 264 248 241 231 225 207 211 217 209 207 191 199 195 187 178 160 152 112 98 126 134 154 207 205 246 248 246 260 225 203 
58 72 56 66 78 66 64 94 96 72 72 72 82 102 183 297 361 400 450 443 421 350 382 361 402 392 369 266 266 278 221 187 172 162 142 50 54 112 162 185 193 199 231 244 225 264 303 284 301 305 288 262 241 244 231 221 219 223 231 225 217 201 201 181 164 193 170 132 120 128 130 162 170 170 191 189 191 164 134 130 
60 70 62 70 82 66 58 86 82 66 74 74 78 84 142 274 353 390 448 462 404 363 394 342 386 382 344 268 242 225 183 170 128 154 124 66 46 134 152 187 185 203 239 268 244 258 264 268 244 293 291 313 276 252 278 276 254 203 229 231 219 179 205 189 181 187 174 156 144 136 118 124 102 100 106 100 104 100 104 108 
68 86 78 74 82 62 70 86 78 82 80 64 68 78 92 199 332 361 408 425 392 390 410 381 382 363 334 270 217 195 199 181 130 128 108 44 34 140 164 193 179 201 233 258 258 244 248 252 231 258 293 305 288 278 282 301 282 219 201 211 185 185 176 144 140 132 136 136 132 124 112 116 102 76 64 90 84 92 74 100 
70 72 68 72 72 78 72 86 76 74 68 72 84 90 82 108 154 203 244 301 326 338 303 248 270 334 309 280 239 209 195 168 116 120 76 26 24 80 142 166 195 183 205 223 237 246 244 233 217 241 284 286 293 289 317 313 242 207 197 191 164 144 132 138 122 140 126 142 132 130 116 108 100 84 92 66 90 92 76 98 
84 84 76 74 68 60 76 84 84 82 82 74 78 80 84 80 74 96 88 94 116 118 92 104 122 252 289 301 237 217 203 160 144 138 76 44 20 56 112 164 162 191 168 183 207 217 229 227 225 227 297 328 303 322 340 324 231 193 170 162 166 160 162 164 162 166 160 142 122 110 118 106 92 86 100 84 92 88 80 102 
74 70 64 74 80 70 72 80 98 76 74 80 70 76 80 86 78 98 76 70 80 76 66 80 78 205 241 268 235 211 207 203 170 126 68 50 40 70 158 154 172 176 166 170 187 213 235 231 237 274 297 320 353 338 319 241 199 176 158 170 160 178 185 205 179 193 176 156 140 120 118 150 160 162 193 181 183 172 112 108 
72 66 58 60 74 86 68 78 84 84 82 72 78 70 76 90 74 70 68 68 66 82 96 84 78 150 266 254 221 207 187 193 191 166 112 84 62 108 156 164 179 174 166 183 189 213 248 286 274 262 264 276 324 320 225 209 191 162 176 181 191 181 193 189 160 168 172 120 76 76 114 118 183 193 225 223 244 256 235 203 
66 68 64 66 66 62 54 76 64 68 76 58 70 80 72 74 66 68 62 64 62 68 64 66 82 126 288 297 239 209 176 166 178 185 152 128 130 134 183 195 199 199 201 213 223 270 309 303 288 262 258 244 231 223 199 205 203 193 189 181 199 187 164 152 160 142 108 66 48 62 100 142 185 183 237 248 262 288 264 246 
76 74 64 74 72 74 50 78 92 88 80 72 72 70 64 82 78 70 58 56 52 68 48 60 68 88 241 297 268 207 191 178 199 219 256 272 288 280 248 229 252 250 256 288 315 328 346 315 291 254 217 209 201 233 223 211 209 201 179 183 179 154 158 156 150 126 114 48 40 56 98 144 211 242 268 256 280 284 272 241 
72 68 62 66 70 54 60 76 78 74 78 96 54 72 62 72 82 72 58 54 52 60 48 62 64 66 152 250 233 211 229 225 233 254 297 328 365 361 320 338 324 313 319 357 357 369 350 295 229 185 207 189 201 225 225 205 203 179 170 162 162 170 152 148 128 110 112 60 66 60 112 150 231 241 262 239 248 252 235 227 
62 46 60 64 64 44 52 72 54 68 52 60 58 64 58 54 54 62 52 50 36 56 50 50 44 42 64 168 217 237 244 235 248 280 305 344 384 363 340 344 326 342 351 375 355 340 293 197 170 142 158 178 215 219 211 193 176 172 176 178 160 152 136 130 118 98 88 68 64 68 82 108 172 193 205 181 187 178 160 150 
40 54 52 54 60 54 58 64 66 64 74 54 60 64 48 66 76 54 54 40 26 36 48 32 34 42 38 44 98 179 233 250 264 291 320 365 402 392 346 332 340 346 355 350 286 205 126 106 118 122 110 138 172 193 179 189 183 199 183 152 154 130 112 122 100 90 78 54 68 48 62 58 60 96 102 104 90 100 76 102 
58 56 32 22 26 50 48 50 46 54 48 54 58 58 52 50 38 58 22 46 38 24 32 32 32 30 16 36 16 44 84 124 160 219 242 303 346 330 309 299 307 280 241 160 82 68 66 44 56 52 60 68 68 90 108 114 126 156 140 120 124 104 102 88 68 68 74 42 46 50 40 32 46 64 74 64 86 80 56 70 
62 52 34 26 44 50 20 56 60 32 36 34 50 38 24 50 40 42 40 34 0 32 24 36 26 14 16 26 8 12 38 60 70 88 126 168 156 128 132 148 132 122 90 78 62 66 68 62 60 54 58 38 24 52 40 42 36 62 76 58 56 62 42 58 40 32 38 42 32 20 28 18 50 54 60 78 74 90 56 60 


