P2
80 60
710
50 50 38 30 34 34 46 32 40 54 44 40 40 30 48 48 58 56 52 46 50 56 50 64 66 60 62 54 62 42 60 72 74 64 52 62 48 58 52 56 64 62 52 78 50 58 58 40 50 52 78 106 104 112 120 126 104 84 100 90 80 84 92 124 235 325 339 339 349 381 391 387 356 310 308 278 247 156 136 200 
28 44 24 26 40 42 36 36 36 50 50 40 48 44 46 42 50 38 48 56 64 44 52 50 60 52 66 58 42 48 52 68 66 60 56 54 40 50 68 58 58 54 70 52 54 48 54 42 34 48 58 68 106 100 118 98 74 66 60 48 78 90 70 108 243 282 329 401 385 364 347 329 318 310 294 263 225 211 211 227 
32 36 38 30 52 42 30 34 34 56 44 52 22 36 60 36 46 46 42 54 48 56 52 44 52 54 54 56 52 44 54 46 56 46 54 54 54 44 54 60 62 52 66 48 50 36 54 44 44 56 54 50 72 64 78 58 42 48 62 62 100 72 76 134 221 255 296 393 409 397 383 354 321 304 306 290 276 245 221 227 
22 24 36 34 34 22 26 36 36 38 36 36 48 30 48 44 40 46 54 50 50 52 46 40 56 36 48 50 38 46 52 52 50 46 52 40 56 48 44 58 36 52 50 46 48 42 50 44 36 30 32 28 44 36 62 98 108 134 158 249 239 150 98 198 247 261 314 339 372 418 436 428 401 352 325 286 298 284 271 261 
42 38 46 26 48 42 32 54 40 50 44 44 38 42 42 46 38 48 28 44 30 44 46 46 60 50 40 50 46 54 54 52 42 56 42 44 42 40 40 38 46 56 48 50 38 52 50 48 44 44 42 42 50 60 124 253 288 298 376 424 409 314 249 364 442 459 424 372 319 368 378 401 399 389 366 345 319 259 251 276 
40 44 34 30 32 38 48 44 28 42 42 46 38 40 46 28 36 36 38 40 52 44 62 44 48 52 42 54 46 40 56 44 46 52 50 48 60 40 54 50 52 64 56 54 52 56 56 64 50 60 48 60 48 130 200 318 414 442 463 478 467 474 482 524 559 543 536 498 376 325 364 343 327 316 314 312 300 298 274 294 
20 32 38 22 36 48 36 46 50 30 36 42 44 26 36 34 38 34 32 28 42 60 50 44 52 38 50 58 36 46 50 48 56 52 52 60 60 56 56 66 58 58 56 64 68 52 58 60 52 62 62 54 68 194 227 333 430 434 480 519 499 515 498 501 530 553 541 534 484 391 358 374 347 319 302 294 280 257 280 306 
20 30 24 38 42 42 28 40 32 38 24 42 36 36 40 32 38 40 30 32 50 42 46 52 54 56 56 54 42 52 60 48 62 62 54 52 64 56 62 56 50 52 66 60 62 58 58 70 60 62 66 54 104 217 184 345 459 473 522 536 517 498 494 515 501 534 538 539 459 374 345 329 318 321 333 321 306 288 280 294 
18 32 28 32 26 38 36 42 46 30 42 36 46 52 46 38 40 44 40 52 40 56 64 50 60 54 62 52 46 64 60 58 72 62 60 66 56 56 74 58 62 66 64 58 70 62 64 70 82 66 60 52 74 190 188 306 463 490 520 532 515 478 467 473 457 526 538 519 397 391 372 347 331 312 323 314 310 292 302 310 
40 40 36 34 36 40 34 20 30 44 40 54 46 52 36 34 52 46 56 48 54 42 56 40 46 62 52 48 62 56 58 60 62 54 68 70 62 56 70 70 56 56 68 66 60 68 62 76 72 74 66 44 62 146 225 251 364 476 526 517 496 455 469 473 467 519 494 440 335 345 337 310 318 325 333 327 310 284 300 292 
14 18 42 22 44 42 44 36 32 46 38 42 44 32 40 36 40 40 50 56 50 54 58 54 58 52 64 54 52 56 62 56 54 64 58 70 58 48 64 60 64 68 60 60 64 78 72 70 78 72 48 64 60 92 206 282 335 414 480 499 484 463 424 387 403 424 389 343 312 356 364 356 356 335 333 312 302 300 294 302 
28 18 34 30 42 40 38 50 38 40 40 46 50 48 48 48 36 40 48 52 54 62 46 60 44 62 60 60 64 54 74 62 58 58 70 66 52 66 64 62 56 70 60 66 68 68 62 66 66 60 52 56 52 60 100 188 274 337 385 414 393 329 186 188 253 261 269 300 350 383 397 360 335 325 319 318 312 292 272 302 
18 32 52 28 40 38 44 52 38 38 48 48 36 44 52 34 54 42 46 56 58 54 48 72 54 54 60 54 48 64 56 58 70 62 70 72 64 60 70 66 60 60 60 60 62 72 62 62 68 76 62 54 58 50 56 84 100 124 136 122 122 66 58 102 229 261 288 329 360 389 380 372 405 420 387 341 316 284 280 284 
20 32 28 32 26 46 40 44 32 38 44 32 36 34 28 38 52 62 50 46 48 68 52 66 56 58 48 50 48 62 60 66 58 54 60 54 58 54 56 54 48 52 76 70 70 58 70 54 66 58 66 50 56 54 56 42 54 28 36 46 22 46 38 98 217 341 372 389 401 422 385 405 438 442 403 325 316 271 269 280 
18 24 36 42 58 40 50 32 42 50 48 40 32 20 34 38 38 42 52 46 42 58 52 54 54 60 64 54 48 54 66 56 58 56 62 60 50 60 56 60 50 56 58 56 56 58 62 54 50 58 60 58 58 40 48 56 40 28 32 28 22 18 22 70 126 312 372 360 393 420 442 432 442 438 395 337 274 245 239 259 
26 50 36 34 36 48 46 36 40 50 40 38 36 34 42 46 38 44 48 44 54 52 54 46 56 56 48 52 46 46 56 54 64 58 58 52 56 44 50 58 58 52 42 52 66 52 56 52 58 52 56 44 34 30 36 48 28 20 22 26 16 20 28 58 86 259 318 341 391 438 461 471 461 471 463 432 380 302 180 160 
24 30 40 16 50 38 48 52 36 40 48 42 36 42 36 32 34 26 40 30 48 48 40 50 52 42 50 54 54 42 48 54 58 44 42 46 52 52 64 56 52 48 42 52 44 54 56 48 44 60 48 46 44 40 30 54 36 24 42 32 34 30 36 52 48 156 288 360 366 405 411 426 436 461 453 455 432 401 337 239 
10 18 36 22 34 42 26 30 30 36 32 30 32 18 26 20 36 32 40 26 40 40 36 42 48 40 46 34 26 46 32 40 46 42 28 48 42 38 54 42 56 50 54 54 36 50 44 52 60 62 44 34 48 38 24 38 36 30 34 28 30 42 28 62 66 84 172 259 294 327 335 352 362 403 430 447 434 430 391 339 
14 34 44 16 34 40 40 40 48 36 32 38 36 28 36 22 38 26 42 38 32 42 44 54 50 40 38 32 30 30 54 58 60 40 42 58 52 40 48 52 52 52 54 64 52 70 54 52 66 68 54 48 48 56 54 44 46 50 46 42 32 58 54 82 80 104 106 130 136 170 174 186 198 272 362 412 434 411 374 333 
16 36 32 14 32 26 34 34 36 26 38 42 24 20 20 28 28 32 26 18 44 40 44 44 50 50 34 34 28 38 36 50 50 60 54 46 50 50 54 60 54 56 58 54 60 60 62 58 62 62 62 56 64 50 64 68 38 46 60 40 38 48 64 76 102 102 118 146 174 200 225 184 158 160 182 231 316 339 300 231 
20 34 38 32 38 22 24 26 18 32 34 38 26 22 24 34 30 38 26 34 32 50 40 50 56 58 44 40 38 52 44 56 62 60 58 64 48 52 68 58 58 56 46 62 54 58 64 60 60 60 60 56 62 64 70 70 52 44 56 44 42 60 68 112 140 184 233 276 306 341 376 345 241 168 158 158 158 158 164 215 
32 40 48 32 32 50 36 36 38 38 30 32 38 28 40 42 34 30 48 46 46 48 42 42 60 34 54 50 46 62 56 62 56 62 64 68 68 54 68 56 70 72 54 60 62 60 64 80 74 74 66 66 62 62 70 76 60 60 58 54 64 54 80 162 265 267 278 350 360 385 401 403 358 235 215 198 202 198 225 296 
22 54 42 40 30 32 34 32 36 28 38 42 50 30 34 42 28 38 46 56 46 56 40 40 62 60 44 50 52 62 52 62 62 66 72 62 66 58 66 56 50 54 56 60 62 66 72 78 74 82 76 70 68 66 62 78 50 56 58 58 56 86 112 265 298 284 278 356 387 407 403 401 366 316 286 269 314 310 296 327 
32 34 54 38 42 36 36 42 34 34 42 32 44 48 38 40 44 46 34 52 54 56 56 52 58 52 54 54 60 54 62 66 58 60 64 68 58 48 62 70 54 66 62 56 64 66 70 72 74 76 68 64 60 72 66 62 64 60 70 70 60 78 176 290 286 272 276 352 381 399 385 395 368 318 306 286 284 323 308 319 
26 36 62 36 34 42 46 44 44 46 32 36 36 46 42 36 50 32 46 36 50 66 50 46 62 50 62 46 48 56 56 66 60 68 64 74 58 54 62 54 66 78 56 60 70 66 76 80 72 68 74 68 70 76 70 66 62 62 70 82 58 110 272 310 286 255 269 350 381 395 391 372 310 321 308 284 298 335 347 356 
26 40 44 24 46 40 48 32 38 44 48 30 36 48 56 32 42 34 34 50 52 54 50 58 58 66 68 58 58 64 58 66 66 64 72 68 50 50 70 78 60 56 62 62 56 60 66 62 76 76 74 60 62 74 96 114 90 90 88 84 86 138 294 306 286 245 280 341 356 376 383 356 292 290 323 274 300 321 372 362 
22 40 42 40 30 54 42 46 30 38 42 40 48 44 48 46 48 52 42 46 40 60 56 68 56 46 56 58 44 60 62 54 60 64 62 68 56 62 62 72 58 66 72 72 76 66 78 78 82 80 80 68 68 122 229 259 237 229 298 294 202 249 298 316 300 274 312 345 352 360 370 349 300 290 259 263 294 310 345 349 
16 38 38 40 32 42 38 40 28 44 46 40 32 36 42 32 40 46 36 46 42 58 52 50 50 56 46 58 60 62 58 62 56 70 56 58 62 60 54 64 54 68 64 68 72 62 68 78 70 68 80 64 92 217 321 310 241 257 362 428 405 368 352 335 308 265 314 333 341 356 387 360 312 292 249 249 276 306 335 284 
26 46 38 34 34 54 34 40 38 44 36 42 40 40 46 46 38 44 30 42 46 48 36 56 58 52 42 60 34 56 56 56 58 62 60 62 54 58 56 70 60 54 46 58 54 70 66 64 72 78 72 72 146 263 265 284 284 314 426 455 457 467 411 397 343 319 325 358 329 331 333 325 294 298 261 223 274 318 312 286 
20 40 48 18 52 32 32 36 40 36 42 46 34 22 44 24 34 36 42 38 42 50 50 38 50 40 50 48 46 48 56 54 54 52 62 70 50 68 68 74 58 56 48 56 58 66 70 60 58 70 64 70 211 304 356 308 298 356 445 455 467 474 447 403 381 333 345 356 323 259 231 271 271 284 314 253 257 274 300 288 
26 42 52 36 40 36 22 32 32 36 34 40 30 30 32 30 38 34 46 30 44 50 50 48 50 44 46 40 46 52 58 56 60 62 48 52 62 62 64 52 52 50 60 62 68 68 62 64 66 64 60 80 271 321 331 352 368 476 474 428 380 405 449 409 374 354 364 331 300 290 247 241 267 298 331 286 272 269 271 288 
24 38 50 44 52 38 36 42 40 28 38 38 30 34 30 34 38 36 42 40 42 48 38 50 46 42 48 44 58 38 52 44 50 48 50 38 40 46 52 58 52 52 56 58 58 58 60 70 62 58 62 86 269 290 272 308 387 469 445 401 339 323 409 401 383 360 316 288 284 290 267 271 265 272 312 298 265 269 269 314 
20 34 30 30 38 28 30 36 30 36 42 28 36 28 22 28 28 14 40 28 40 42 44 50 38 44 44 28 30 36 44 44 46 50 46 40 40 34 52 42 30 48 44 60 44 62 62 68 56 62 54 70 213 245 249 310 282 426 440 422 366 354 399 393 391 372 276 265 276 272 233 239 276 290 276 302 286 282 269 290 
18 36 38 24 26 46 30 26 48 36 42 22 36 24 18 16 28 28 34 40 38 40 40 28 44 42 56 38 38 46 36 46 48 42 52 44 40 48 48 52 54 60 38 56 62 60 64 58 54 64 74 68 106 140 152 217 198 296 376 405 401 389 376 412 389 345 269 280 267 263 223 208 237 276 276 314 286 282 267 284 
16 18 28 42 28 34 22 20 28 36 36 32 32 32 26 22 32 36 34 36 40 32 36 48 36 26 42 34 50 42 48 52 50 46 52 50 52 46 60 52 52 46 56 60 42 66 58 56 60 80 62 64 70 74 90 80 84 102 148 223 290 298 288 393 393 318 298 286 261 259 269 241 259 294 278 290 276 255 278 302 
10 40 54 36 48 44 40 40 34 44 44 42 46 40 42 30 34 42 42 44 38 44 42 58 54 42 46 48 42 50 42 56 64 54 52 64 50 50 60 68 58 68 58 64 62 68 60 78 72 74 66 64 62 68 72 72 54 52 72 82 148 152 180 364 337 345 378 319 261 263 300 272 296 306 269 239 243 235 259 318 
16 34 38 34 30 46 32 30 32 40 42 22 26 38 40 38 30 40 36 48 60 62 54 54 50 58 50 60 64 44 68 54 64 52 66 70 68 62 64 64 58 74 72 68 64 72 66 84 74 80 68 66 78 68 64 74 60 50 68 58 72 76 96 243 276 286 331 399 380 358 368 370 366 341 298 239 198 172 215 302 
8 22 36 24 38 36 44 26 30 38 42 34 34 46 46 38 38 48 38 48 56 60 60 38 60 56 52 60 48 60 62 70 66 62 54 70 58 56 60 50 52 52 48 74 66 66 64 72 74 72 70 72 64 62 64 70 54 48 54 58 50 70 66 114 184 243 229 271 374 424 432 412 403 376 356 335 298 208 239 321 
8 28 44 34 26 46 46 44 40 40 34 36 30 42 58 34 30 30 50 50 46 58 54 52 62 56 48 50 44 54 52 54 62 70 58 62 60 60 64 58 54 60 68 74 60 78 58 88 70 78 68 66 68 68 66 68 46 42 60 60 48 50 64 84 92 144 196 229 312 403 426 426 420 381 366 360 362 319 325 333 
8 34 40 34 24 34 34 34 32 52 38 40 42 28 54 42 46 42 54 44 52 60 52 56 60 58 66 52 50 42 58 56 76 62 64 62 56 60 64 64 72 64 64 58 74 76 68 70 68 76 80 70 64 72 54 68 58 50 58 52 50 62 62 66 86 96 130 178 206 296 360 389 378 354 339 360 391 354 362 372 
0 28 44 36 40 38 26 28 42 34 32 36 34 40 50 44 56 48 38 62 56 60 60 46 58 54 58 44 58 60 54 48 66 66 62 56 56 46 60 64 56 66 60 80 70 68 68 60 82 78 70 64 58 66 60 66 56 48 50 48 52 62 72 82 102 106 202 272 278 300 306 321 345 325 339 364 381 381 376 366 
16 34 28 26 44 42 20 34 42 40 30 42 36 28 52 56 44 38 46 50 42 58 52 46 54 60 60 58 56 62 52 46 64 70 64 58 58 50 60 62 60 70 58 66 64 76 70 72 82 78 68 70 64 90 56 56 54 36 50 58 50 52 74 88 112 190 280 308 292 318 341 352 376 374 364 341 343 376 366 358 
24 40 26 32 42 56 40 42 48 44 42 44 40 40 62 38 30 52 52 58 52 54 42 54 56 62 52 54 48 58 56 54 70 70 62 66 52 44 68 64 62 78 56 78 78 74 84 68 78 98 72 84 132 146 124 100 66 54 74 50 50 50 68 96 186 280 318 310 271 298 345 366 374 420 407 399 405 383 349 368 
32 42 40 48 40 42 50 32 42 42 44 40 66 42 40 40 40 40 52 54 50 52 46 62 64 68 54 58 54 52 58 60 62 64 66 62 56 68 62 60 76 78 76 90 72 82 94 90 88 100 100 134 251 337 316 282 227 223 180 76 64 60 78 164 233 284 331 312 282 276 286 347 364 391 428 440 443 389 354 354 
16 44 46 40 46 44 46 60 42 38 50 54 48 36 54 52 52 50 50 48 44 48 62 50 54 60 46 42 50 50 64 66 60 66 66 68 58 56 64 66 66 78 70 80 84 88 94 92 78 104 140 229 370 416 403 430 445 434 411 188 92 96 136 261 272 292 304 300 280 265 255 278 327 370 420 430 463 393 341 352 
10 46 24 40 32 44 26 38 36 36 46 38 44 24 46 44 34 46 40 46 38 52 46 68 54 42 50 50 46 52 48 62 54 62 50 58 58 54 60 58 76 74 64 82 84 70 90 94 90 96 227 300 399 401 422 482 496 455 471 455 306 188 251 316 308 288 288 286 276 267 265 280 316 341 409 424 440 374 333 352 
14 36 32 38 26 42 38 56 42 30 52 30 50 34 36 42 36 38 38 42 42 54 48 46 42 56 52 46 36 52 54 68 42 54 56 52 68 50 58 64 62 70 80 64 84 78 80 90 104 104 233 292 380 399 451 492 449 443 432 453 440 422 412 420 383 308 306 276 259 253 269 284 300 333 372 370 405 378 319 316 
14 40 36 26 42 60 34 40 34 44 40 26 34 44 38 36 44 36 32 40 40 52 50 54 50 46 40 44 44 40 54 54 42 58 44 42 44 52 48 60 64 62 60 68 60 76 88 88 76 104 227 263 337 393 443 474 438 411 374 405 385 424 426 430 389 288 290 265 251 267 261 288 288 314 314 314 331 327 302 325 
16 38 36 40 32 34 40 42 40 34 52 40 32 42 38 28 34 36 32 42 38 62 48 38 48 52 48 42 42 42 64 52 54 46 52 44 56 54 66 62 56 62 78 80 68 86 82 72 74 110 164 263 308 362 424 499 443 380 354 352 318 364 385 407 358 259 257 271 253 271 276 282 274 263 263 259 261 288 318 352 
14 40 56 24 50 44 46 44 34 46 40 42 48 54 42 46 44 48 48 38 52 56 42 50 42 64 58 48 58 58 52 58 58 50 56 56 72 62 56 54 66 70 90 92 86 100 106 96 102 104 128 235 327 354 409 480 434 414 428 401 360 381 368 368 271 237 257 284 263 239 235 253 241 241 241 215 219 261 298 352 
32 52 42 48 46 42 42 32 46 44 48 46 40 44 54 38 34 52 58 56 62 54 52 64 52 56 48 54 54 60 58 58 50 66 62 58 72 58 68 72 58 82 74 94 92 92 96 98 102 102 110 154 233 298 376 443 414 411 426 372 352 368 360 333 276 237 235 247 213 213 225 221 208 215 211 202 221 237 237 302 
22 38 44 36 48 46 36 44 48 40 42 50 44 44 50 44 30 52 56 48 56 48 56 50 50 64 56 68 70 54 60 74 66 62 64 64 60 62 64 68 68 84 84 84 100 94 102 94 112 104 112 156 272 304 223 202 249 280 284 310 302 312 310 284 271 239 221 223 217 217 208 196 200 206 194 196 229 221 204 276 
22 36 48 34 48 56 56 64 52 56 64 32 52 44 58 50 44 66 52 68 68 64 78 64 56 74 58 76 62 70 70 80 80 72 68 88 64 66 68 70 78 78 82 90 96 98 94 94 90 118 158 381 526 442 316 208 142 102 134 259 290 271 282 314 282 253 227 221 211 219 221 209 190 174 182 174 213 209 215 257 
28 30 44 54 50 50 38 64 40 42 48 44 46 60 54 44 42 44 62 60 54 54 62 54 62 62 70 68 76 62 58 72 68 66 70 82 76 70 66 68 78 80 72 76 80 86 86 94 110 128 319 600 677 595 440 274 170 94 138 249 302 296 278 290 280 245 237 227 215 217 209 200 168 132 148 180 196 190 192 237 
30 56 50 34 34 40 34 46 46 58 46 44 68 54 52 50 48 62 42 64 64 74 74 66 68 66 62 54 52 56 68 68 70 68 74 70 62 74 78 72 70 72 82 80 84 80 102 90 94 186 420 618 710 661 532 380 237 162 130 255 271 290 271 280 241 229 239 245 206 211 209 182 140 120 164 174 176 198 184 223 
14 32 26 36 50 42 38 44 34 36 66 48 48 50 48 48 54 56 64 62 58 52 58 48 60 62 66 58 50 46 64 70 66 62 72 72 78 58 56 74 64 80 72 80 90 96 84 88 106 196 383 551 629 635 562 463 341 227 164 243 247 267 251 261 241 202 225 204 202 198 196 184 122 136 144 160 162 162 146 198 
26 32 46 28 36 32 32 50 28 46 42 52 40 46 48 44 46 46 58 50 60 58 56 58 64 50 62 60 56 62 66 66 60 54 68 60 62 64 72 72 64 76 70 82 78 78 82 94 122 168 278 405 499 553 541 499 399 253 219 253 237 243 235 253 225 188 209 213 188 190 208 156 144 130 144 166 150 124 128 180 
28 30 40 26 34 40 26 38 44 38 56 34 30 44 56 48 52 50 46 44 42 56 60 50 60 60 62 62 60 58 52 52 64 62 52 70 52 72 64 60 72 74 64 80 74 68 72 82 110 132 172 269 360 447 496 480 366 255 249 255 249 251 247 249 192 178 186 178 180 192 186 172 156 148 178 132 142 146 154 178 
24 44 30 32 34 40 34 42 44 34 40 50 50 54 60 40 48 52 40 46 50 64 52 56 72 68 56 60 60 56 70 64 72 68 70 68 68 50 72 68 76 70 72 74 64 70 98 80 76 100 146 198 255 341 407 381 304 235 223 235 247 255 257 237 202 150 158 170 166 182 184 168 182 176 160 128 178 180 168 194 
18 36 22 24 20 36 22 40 40 34 40 30 36 32 42 44 40 38 54 52 48 64 70 58 54 52 52 60 54 52 66 58 58 54 58 58 52 52 62 78 70 62 76 76 78 82 74 52 80 80 116 138 188 249 296 292 290 251 245 253 269 286 259 249 202 154 134 152 152 152 148 142 140 138 146 152 198 158 172 202 


