P2
80 60
499
44 74 38 52 56 58 48 48 78 72 74 68 78 72 52 66 66 64 62 38 32 40 30 40 36 38 44 46 38 42 32 44 50 48 54 68 70 64 76 46 30 26 18 22 38 44 44 54 46 60 38 42 42 58 36 36 32 54 52 54 90 84 98 88 88 80 80 98 92 96 108 90 76 76 64 66 62 54 96 98 
24 74 48 48 44 54 48 58 66 58 68 72 60 64 58 68 74 66 42 38 46 40 42 26 28 20 30 32 18 38 36 44 54 50 86 106 104 88 86 64 20 18 42 26 44 32 58 52 60 62 52 44 30 38 44 36 34 66 58 46 60 66 78 78 84 74 84 98 100 96 84 74 76 56 54 48 42 60 72 88 
40 62 54 62 62 50 56 60 70 74 66 44 68 62 66 64 52 62 46 40 32 46 40 36 28 16 48 28 30 50 62 72 110 174 267 291 318 317 279 184 52 48 50 40 66 62 66 78 74 80 76 64 62 70 60 46 54 56 50 54 66 64 76 72 82 84 86 88 96 94 72 98 76 60 76 70 50 62 84 102 
30 56 38 46 62 50 54 64 60 56 56 64 58 62 52 50 54 62 62 46 40 46 38 40 46 30 44 40 50 94 126 204 230 344 424 424 433 424 383 265 80 56 70 72 82 90 106 116 112 146 170 138 108 96 94 80 74 88 78 78 74 82 74 90 82 80 88 104 96 102 126 104 112 90 112 88 90 98 106 124 
8 54 50 48 56 46 46 62 54 64 72 54 72 68 62 58 62 88 50 56 36 40 32 48 42 48 48 62 114 240 279 301 283 389 439 451 476 458 426 336 128 88 106 132 158 190 214 222 218 224 250 230 242 234 202 176 124 124 112 92 88 90 108 116 108 116 102 126 144 168 184 202 208 216 232 230 210 192 208 224 
28 50 70 56 52 44 54 42 54 82 76 76 72 72 74 76 72 78 60 60 44 54 46 46 58 68 74 100 259 367 362 354 309 406 491 466 493 486 466 398 254 254 232 240 259 265 271 252 236 261 259 252 238 214 224 202 184 190 156 170 156 168 168 180 168 180 178 200 212 212 220 252 244 248 261 261 271 254 269 273 
18 72 64 66 54 60 70 72 70 58 68 74 72 62 80 74 82 82 62 68 70 54 56 46 60 50 78 154 348 393 393 393 362 389 480 476 491 491 478 443 354 324 265 254 301 275 248 236 240 311 293 287 301 252 234 204 190 184 172 170 174 168 174 176 174 174 182 182 210 208 210 220 222 234 242 255 275 291 285 285 
26 44 64 54 60 58 64 76 58 88 68 62 80 72 64 84 66 74 56 58 66 58 54 46 54 80 94 156 336 365 330 320 360 389 412 424 476 480 478 437 381 324 275 293 291 269 228 216 226 340 346 299 259 254 255 244 224 200 184 190 182 196 184 190 200 188 182 162 174 172 198 222 238 252 267 275 287 287 307 277 
34 62 68 60 72 68 66 74 54 60 76 78 86 78 68 72 86 60 60 54 66 60 60 58 62 62 94 128 330 377 340 291 352 387 385 387 453 486 478 422 379 348 289 257 267 250 220 206 226 326 305 238 252 259 265 273 244 222 208 198 192 202 206 208 208 188 166 166 180 170 182 206 222 244 259 275 271 259 263 265 
46 56 54 56 60 66 70 84 52 76 74 86 84 88 82 84 76 78 78 60 74 68 70 76 86 84 104 136 340 408 381 371 400 375 360 364 418 480 499 408 360 338 303 246 252 248 214 198 198 263 259 257 275 257 269 273 240 234 216 202 212 214 214 216 204 196 180 186 190 168 170 184 218 208 226 257 234 224 234 228 
28 54 56 66 66 58 58 74 60 68 70 80 78 70 76 66 86 92 86 62 70 76 86 98 92 92 118 188 275 416 396 377 416 381 352 367 420 449 476 379 354 320 281 238 228 244 216 190 180 244 259 257 295 277 267 261 246 246 244 228 226 228 220 218 220 194 168 136 142 140 156 178 208 246 261 252 234 230 222 224 
30 46 56 40 74 72 60 72 58 60 64 80 60 60 74 72 86 78 76 90 120 164 166 230 222 190 216 315 362 410 406 412 408 369 350 352 416 445 439 383 358 315 252 238 236 230 210 194 174 212 244 236 254 246 224 222 234 248 261 271 250 204 162 132 128 106 104 132 138 144 168 230 267 277 263 242 236 212 192 196 
32 54 46 48 62 60 58 84 62 66 64 82 72 64 50 62 78 82 84 124 275 367 408 457 441 427 468 468 441 375 396 408 408 362 346 364 414 426 398 362 352 317 277 250 232 220 208 186 164 196 273 254 238 220 210 216 222 250 277 281 277 212 140 122 114 106 122 130 160 192 263 322 303 255 257 238 210 198 144 136 
32 70 58 54 52 56 52 64 56 66 70 66 68 64 66 54 78 72 94 234 371 416 470 457 476 464 476 486 447 336 367 360 369 320 334 354 385 387 364 354 346 309 273 255 238 226 194 194 166 170 254 257 230 210 196 214 222 246 295 307 297 311 299 230 168 172 164 170 232 285 297 311 295 273 250 206 194 138 118 138 
34 54 66 54 62 58 66 64 60 64 68 56 58 60 60 64 68 84 110 277 398 396 460 431 381 424 451 441 457 391 332 303 313 289 317 358 393 377 338 348 334 309 273 263 250 214 208 188 158 150 212 240 224 206 206 200 218 273 293 295 313 313 324 340 322 313 295 295 318 305 297 287 281 259 234 168 138 96 116 134 
42 56 62 56 44 66 52 72 70 74 60 64 66 74 60 62 78 84 132 281 408 418 416 420 431 437 457 389 381 354 369 356 348 309 305 328 408 381 360 336 320 311 273 279 259 230 228 204 176 160 186 218 212 218 200 202 261 295 326 303 326 311 318 334 348 344 350 364 350 307 281 277 246 228 182 138 116 98 118 118 
38 54 68 44 68 46 60 66 56 66 72 66 64 76 88 64 82 78 110 238 338 422 418 478 468 453 373 218 198 234 354 389 398 352 340 338 398 400 396 350 330 348 317 275 275 254 238 220 186 166 156 216 230 214 196 238 289 322 364 352 356 346 332 344 334 320 332 328 311 263 259 250 222 180 124 106 118 112 114 130 
30 60 34 34 60 60 52 66 62 66 52 66 72 72 72 74 78 78 100 182 295 395 387 441 387 299 186 130 138 174 287 360 400 402 385 348 371 396 391 367 356 365 385 346 293 273 255 257 216 192 172 220 252 232 234 255 318 320 352 350 356 371 346 365 350 346 340 320 307 254 242 216 168 130 126 104 114 114 122 136 
36 86 60 50 56 54 64 68 68 58 66 82 74 78 86 64 78 76 86 102 194 287 283 220 152 106 110 106 120 142 208 350 354 367 377 360 324 324 340 336 369 412 429 447 402 393 383 340 291 287 232 232 279 295 293 301 301 320 320 338 322 342 350 344 358 340 352 344 299 252 222 188 146 130 126 110 122 118 124 140 
32 70 54 62 72 50 58 70 68 60 70 70 74 72 76 82 70 86 74 82 92 114 106 98 106 106 98 106 100 112 138 248 301 307 318 311 285 246 279 332 318 332 342 364 398 400 404 396 375 377 322 267 281 299 309 311 277 313 307 291 291 297 301 295 309 317 322 318 305 242 180 160 146 134 120 114 122 112 132 132 
30 78 62 56 68 60 48 74 60 52 66 72 74 86 70 80 80 90 68 66 70 82 88 90 102 88 90 98 96 116 110 134 154 196 259 287 289 297 299 334 330 338 332 342 279 238 255 242 246 240 242 208 198 188 190 184 208 240 200 170 174 188 184 194 196 198 236 246 216 174 158 152 134 100 120 100 118 110 130 128 
26 76 56 50 70 48 62 74 60 60 78 62 82 74 68 72 72 76 78 74 70 70 60 88 88 74 100 92 90 112 106 120 168 232 301 320 324 309 309 338 334 330 340 358 367 307 220 198 188 182 174 166 164 154 130 112 116 110 102 112 122 122 130 128 142 130 146 146 160 150 152 148 138 114 124 108 126 120 130 152 
38 62 66 70 66 52 58 72 64 64 70 74 76 64 68 76 78 86 68 62 70 76 66 84 88 80 86 86 100 108 128 190 279 326 318 330 348 318 295 338 324 330 322 346 360 348 311 238 178 192 206 176 176 152 148 138 148 178 178 202 214 196 152 118 130 114 116 114 140 146 140 134 146 108 130 114 120 120 114 128 
30 62 68 50 64 58 48 68 72 66 70 78 68 76 68 74 68 86 68 70 72 70 74 76 80 76 84 86 92 114 190 285 289 273 255 255 283 295 293 305 275 257 250 289 334 336 326 299 240 242 212 184 152 152 156 152 164 204 222 234 226 226 172 140 130 104 96 82 114 140 140 148 138 126 118 126 124 126 134 130 
34 68 70 72 72 72 70 88 64 68 70 76 74 78 66 58 88 74 74 64 62 82 76 80 90 78 84 82 98 118 252 309 267 254 242 257 236 206 200 154 182 202 226 255 289 297 330 318 291 287 210 168 160 164 160 158 186 210 210 220 232 220 184 164 154 132 136 144 150 140 146 148 154 142 122 124 132 128 118 154 
38 66 58 74 78 58 68 72 62 70 80 72 82 68 78 58 84 80 54 74 74 64 80 76 82 68 86 84 102 138 295 322 279 277 255 275 246 164 88 92 154 220 202 200 216 244 305 301 299 356 295 255 192 178 164 166 192 230 214 188 182 178 176 162 188 170 182 198 190 188 168 174 166 156 148 126 126 126 134 142 
34 56 68 48 58 56 62 74 68 60 68 64 78 72 80 76 78 86 64 62 62 56 62 76 90 80 82 82 100 140 287 289 299 320 387 338 244 136 54 78 132 142 138 146 162 178 216 248 277 356 375 369 354 255 184 208 230 259 244 208 178 164 180 174 204 202 214 228 236 232 244 224 222 265 277 228 156 136 134 150 
34 54 56 56 82 48 52 68 64 48 64 66 66 70 64 48 60 74 52 54 72 50 58 62 72 64 78 72 92 150 254 291 293 317 365 318 242 96 28 50 80 122 142 150 120 116 164 194 248 358 375 381 398 350 212 226 234 234 214 196 190 196 212 174 220 250 254 257 275 244 242 259 240 265 307 273 257 226 182 184 
20 66 56 62 60 64 50 64 64 62 74 72 62 62 62 56 64 72 60 68 76 76 102 104 116 124 98 86 106 204 263 252 285 293 283 265 206 58 22 34 96 130 138 150 120 96 140 174 176 285 383 373 404 383 293 338 257 208 188 170 168 186 206 279 305 305 299 318 305 257 240 222 222 248 267 261 265 281 269 230 
38 52 72 66 64 50 52 64 68 60 70 60 62 74 58 46 70 74 58 74 108 200 216 240 338 348 275 202 236 283 275 254 299 275 242 202 136 48 40 68 92 116 142 140 124 80 110 132 150 216 307 373 393 375 387 367 281 180 160 140 182 228 261 315 334 317 305 287 311 257 204 212 198 216 240 254 275 257 267 273 
32 58 70 54 60 50 50 66 62 72 72 48 78 64 56 58 82 74 68 130 216 252 275 360 455 458 455 398 360 358 289 254 303 295 230 174 114 66 50 50 82 110 154 140 116 76 96 146 176 196 244 358 424 404 414 402 299 212 210 220 263 273 285 275 283 263 228 254 248 182 166 184 188 200 192 206 208 238 242 267 
34 64 56 58 56 50 52 68 70 60 70 62 66 66 74 72 66 80 74 136 261 311 334 431 453 414 435 429 348 354 303 263 334 293 248 190 126 94 78 56 82 118 132 142 86 58 114 174 168 160 246 367 410 412 416 393 287 222 234 224 252 250 273 257 265 240 220 210 178 168 154 156 146 126 132 126 128 136 154 188 
28 56 52 58 66 48 54 70 54 74 64 76 70 78 72 70 80 74 92 146 261 346 395 445 451 410 431 439 371 369 328 301 330 297 273 226 196 166 124 120 98 108 150 150 116 82 158 178 172 162 299 350 400 412 412 385 285 226 224 224 244 236 261 252 273 250 252 255 246 222 212 162 144 132 140 138 112 112 110 170 
30 70 62 48 62 74 74 72 60 76 68 72 76 84 74 76 84 84 82 144 279 362 385 449 447 418 468 426 352 342 334 328 322 297 283 254 252 232 198 148 100 128 146 138 156 120 182 184 184 238 307 344 383 383 326 246 216 238 214 216 226 230 228 246 252 238 246 271 269 244 240 214 200 186 206 220 218 190 216 232 
28 56 60 54 62 56 62 66 62 66 78 82 88 82 72 74 84 82 94 126 275 358 326 387 416 431 439 383 285 214 285 330 281 267 265 279 275 271 236 184 120 122 158 166 164 184 218 238 248 295 293 322 277 218 198 166 166 208 224 212 222 224 210 224 224 232 234 261 261 259 238 232 242 232 240 244 259 246 275 246 
22 58 64 60 64 60 60 68 64 82 74 82 86 70 70 76 90 82 84 104 200 271 259 275 309 330 285 154 124 134 184 303 285 252 248 293 281 283 267 212 168 158 186 210 222 238 273 279 307 307 257 178 164 174 156 158 170 186 200 196 204 198 216 210 222 218 244 242 254 240 261 238 244 248 252 250 248 240 265 293 
32 46 66 58 58 64 66 64 72 82 76 80 84 78 64 88 76 82 68 72 104 124 134 134 114 104 102 92 92 96 132 248 281 236 220 220 224 255 291 228 254 214 236 232 240 283 303 315 307 287 196 164 166 144 164 154 140 162 156 166 188 194 202 194 210 212 200 212 228 228 246 238 242 240 263 244 248 246 263 269 
30 60 58 78 52 52 64 58 74 68 66 66 68 86 70 72 78 82 76 74 72 84 64 86 80 72 90 88 88 102 114 168 275 259 224 150 132 196 194 202 265 287 299 297 293 299 330 332 295 200 158 134 136 138 138 146 140 164 142 144 150 158 154 148 176 180 146 168 190 176 206 210 212 222 238 234 214 186 170 218 
24 60 54 56 46 50 72 68 62 78 74 72 78 84 68 90 90 78 76 62 74 84 72 78 88 94 76 88 84 104 110 120 234 275 254 184 182 206 178 182 275 324 322 330 328 317 340 320 210 148 142 114 128 132 124 112 104 122 124 130 138 102 110 120 116 122 124 136 144 146 156 152 154 158 184 152 156 144 160 168 
30 68 66 78 58 62 58 62 70 88 64 60 60 66 78 74 84 80 80 72 74 66 70 70 74 80 82 82 90 88 108 116 144 224 297 279 273 271 252 238 336 344 324 324 352 334 330 214 140 134 124 110 120 122 128 102 104 102 82 88 86 90 110 110 100 112 108 126 136 144 150 128 126 122 126 132 138 140 170 152 
26 74 58 52 66 66 64 70 68 78 66 64 60 68 68 70 76 78 74 76 66 66 68 72 70 78 88 76 88 120 178 214 255 289 338 322 332 309 277 281 289 305 255 263 238 234 188 126 120 118 130 110 108 118 110 104 94 100 74 82 76 76 84 92 100 106 100 120 128 124 122 118 108 114 130 120 132 136 144 158 
26 66 52 48 54 52 54 58 64 64 60 66 56 76 70 80 74 84 82 70 68 72 56 66 74 70 92 80 114 242 291 271 303 295 311 332 334 320 318 367 362 309 269 200 138 96 102 112 108 112 116 104 102 112 98 90 80 68 64 82 68 64 80 84 90 92 110 118 116 120 120 108 100 100 110 128 134 138 144 156 
42 72 66 42 68 70 64 66 64 68 62 72 74 72 64 78 66 72 84 64 60 70 70 66 74 62 86 94 228 330 317 283 295 326 334 340 336 324 356 391 377 350 348 350 293 160 94 86 92 114 102 88 100 94 74 72 66 66 56 64 68 72 82 78 88 92 82 100 124 120 124 106 108 98 104 124 126 124 134 148 
22 58 48 68 66 60 64 58 50 66 72 74 78 80 58 72 88 112 118 84 72 66 72 72 78 68 102 168 320 348 324 295 305 317 348 348 352 340 350 387 379 362 367 381 381 322 164 116 100 98 106 78 90 96 80 76 64 76 104 94 114 102 104 116 102 90 100 126 128 114 128 114 90 102 108 112 124 116 126 142 
30 56 58 80 70 68 60 70 64 72 68 66 74 86 74 94 162 279 297 273 208 164 138 94 68 78 118 255 309 340 315 297 261 238 279 303 324 317 350 385 383 377 381 369 389 387 342 220 146 156 140 146 158 146 180 158 140 160 166 154 136 138 130 124 128 108 100 108 114 110 116 108 96 102 118 100 134 124 140 160 
34 82 64 64 72 62 64 74 68 62 74 72 84 74 84 176 285 410 395 406 441 408 371 202 116 108 220 303 309 303 297 277 244 228 232 263 246 218 261 291 324 334 338 360 373 381 381 350 254 196 186 174 186 178 172 166 166 178 170 160 162 156 148 116 128 118 94 120 140 116 134 128 120 116 128 118 134 118 134 164 
34 62 72 58 80 76 70 70 72 66 72 70 86 92 106 226 360 414 404 435 476 443 445 414 315 232 336 303 311 285 289 259 222 236 269 259 188 134 164 188 250 244 285 326 350 358 381 367 311 255 212 188 170 178 178 162 180 212 204 200 200 190 164 146 138 110 90 138 170 162 190 222 244 261 259 240 220 186 170 176 
26 74 66 58 80 82 64 66 64 74 76 76 76 102 126 248 365 402 437 478 466 449 416 412 420 389 398 338 324 305 257 246 220 242 267 200 124 96 122 164 204 216 246 283 320 346 352 373 326 283 216 196 180 166 172 146 166 194 200 200 202 206 184 156 150 120 106 160 184 198 206 257 285 291 317 303 291 261 265 259 
42 68 56 74 74 58 62 66 74 66 82 82 76 90 104 238 350 375 426 453 441 418 369 395 371 429 395 330 318 289 269 232 230 216 212 128 78 66 102 126 166 202 216 244 265 311 354 348 324 311 244 214 180 176 156 148 156 182 180 186 196 200 196 166 168 122 106 128 120 128 212 238 261 283 311 315 309 293 287 289 
36 66 66 72 66 54 82 66 68 64 76 86 78 92 96 192 354 352 395 468 441 395 385 377 356 395 383 299 277 287 252 220 186 182 168 112 58 36 120 144 188 188 218 228 246 273 317 320 313 299 265 216 210 188 190 176 186 190 192 182 172 192 188 190 168 150 132 126 136 130 176 218 244 267 299 311 299 301 293 297 
28 72 72 62 74 54 70 76 60 70 70 64 86 78 90 120 208 320 371 431 402 408 400 383 369 389 352 248 238 246 222 190 178 136 118 76 22 30 130 168 178 200 198 224 234 234 263 283 293 303 283 230 206 212 216 198 206 212 206 194 202 194 182 172 160 180 156 120 128 146 166 186 216 232 283 291 275 267 275 273 
30 62 72 68 74 76 54 70 52 70 54 72 76 66 82 80 110 132 182 240 303 328 299 275 283 356 324 232 250 228 198 182 144 124 104 58 8 64 164 180 196 198 198 212 228 236 246 254 242 295 287 279 246 236 257 277 250 244 214 186 202 204 212 192 162 192 202 176 168 148 166 168 174 200 230 234 236 208 198 208 
16 60 58 54 74 62 68 72 56 66 76 86 88 84 92 86 80 106 100 96 122 118 114 104 120 267 293 283 265 236 202 170 146 116 112 38 12 58 172 186 206 196 192 220 236 244 234 226 204 254 293 295 303 269 297 332 315 283 202 198 192 184 182 172 162 150 158 162 158 122 136 118 112 134 126 130 140 134 138 162 
36 72 56 66 60 52 52 74 56 70 64 64 78 90 86 68 88 72 78 70 82 76 76 68 98 196 287 285 254 222 196 166 148 112 72 40 4 44 146 180 194 182 184 188 220 216 224 218 198 218 285 303 297 293 305 332 311 236 192 198 156 144 136 118 138 100 106 118 128 116 126 118 100 90 110 122 116 112 130 166 
44 68 52 52 72 62 56 66 68 58 54 66 70 82 58 78 74 84 68 58 58 72 56 76 68 132 275 255 244 214 188 184 158 130 100 8 2 36 134 178 188 192 170 160 162 190 204 194 178 214 287 287 293 330 336 303 271 224 200 212 186 188 200 206 180 152 142 130 140 112 108 116 106 112 108 118 108 98 124 148 
22 68 50 38 60 44 62 60 70 62 52 82 66 86 70 68 82 72 54 50 58 48 50 48 72 104 263 291 254 206 188 184 194 172 112 44 36 40 132 188 202 188 172 164 180 186 202 230 224 250 301 320 318 350 317 236 202 204 168 158 168 196 190 202 202 174 196 170 162 142 144 130 138 144 168 146 132 114 134 156 
12 42 60 48 62 48 58 46 48 58 52 70 68 56 54 58 66 76 72 48 48 50 48 38 58 84 271 301 271 236 184 170 186 202 148 72 56 50 146 174 190 186 170 182 174 212 234 263 257 244 242 324 334 301 248 198 152 158 144 154 176 184 174 166 168 174 176 160 146 132 138 154 182 208 222 244 236 210 198 174 
0 46 42 58 56 58 46 54 36 54 64 64 56 62 66 64 72 60 62 40 38 44 38 28 48 74 234 281 246 240 212 198 204 208 212 186 124 122 162 180 224 208 210 246 265 297 303 293 267 244 208 222 230 206 182 164 138 152 146 164 176 158 160 144 142 126 164 116 100 84 116 140 190 222 234 254 265 273 275 279 
16 42 22 42 60 44 30 24 28 38 42 42 56 64 56 70 54 74 46 30 36 36 18 36 42 46 140 252 238 248 248 240 230 232 257 255 283 293 297 277 250 291 313 332 336 322 324 285 244 222 182 178 168 172 144 142 138 170 150 150 152 126 136 144 124 122 128 90 66 66 122 162 176 220 252 257 293 301 291 299 
6 62 46 36 60 52 40 48 42 44 38 46 58 48 56 62 58 68 42 32 20 48 26 28 38 22 52 148 224 250 244 238 216 218 252 254 311 326 320 334 332 346 342 362 344 317 285 254 200 200 164 160 156 158 156 160 144 158 146 132 132 136 134 146 144 138 134 94 78 60 122 158 212 252 263 269 283 289 281 305 


