P2
80 60
539
52 42 30 22 20 22 28 32 42 54 46 42 48 46 52 54 54 66 50 54 64 48 40 54 58 50 54 34 62 60 48 56 60 52 46 52 54 66 52 42 52 56 42 60 44 50 36 32 42 46 84 102 104 112 122 116 120 112 118 136 146 120 104 112 182 249 272 346 372 393 377 362 333 294 270 249 205 134 102 148 
36 26 12 12 20 20 14 30 30 34 44 40 42 50 52 44 46 42 38 50 52 28 34 40 42 32 46 40 40 52 40 44 52 42 46 48 46 58 56 48 46 42 56 40 44 28 38 42 36 36 54 74 100 94 122 110 172 203 217 259 319 221 110 120 205 255 282 346 405 403 379 348 331 319 290 280 243 202 190 162 
38 12 20 22 30 24 14 32 32 52 38 48 22 40 58 40 44 46 42 48 28 44 48 36 38 50 46 40 44 40 36 26 46 36 58 44 52 48 52 46 50 34 54 42 40 24 40 46 28 40 52 48 60 88 148 170 306 379 414 434 441 381 266 227 296 302 312 341 350 399 414 418 389 354 300 298 304 261 243 237 
40 14 14 28 28 20 20 40 38 34 40 42 40 24 50 38 42 40 46 42 40 42 34 34 42 40 42 44 30 42 44 40 40 30 42 36 46 52 36 44 36 32 46 32 40 28 42 42 38 24 26 26 46 128 229 200 312 428 422 441 467 476 439 455 486 499 482 399 341 346 377 401 383 346 331 300 300 276 284 259 
30 30 26 24 40 18 22 36 26 38 36 40 40 40 40 40 30 44 24 46 22 28 28 34 48 34 26 40 42 54 38 38 36 36 32 32 32 42 32 32 32 46 42 40 44 40 32 44 36 36 42 48 72 188 231 192 344 439 439 499 516 520 476 490 499 528 535 509 377 352 366 366 356 354 341 323 306 249 255 270 
46 18 16 18 16 24 26 38 30 32 34 48 34 38 44 30 40 44 30 32 30 28 46 28 30 42 34 46 34 38 48 30 38 40 42 40 52 48 44 44 46 42 48 50 48 40 44 58 38 44 48 58 58 192 211 190 325 461 470 505 530 516 472 507 480 492 532 522 480 387 346 358 343 300 292 290 278 265 274 288 
24 10 18 12 30 32 8 40 40 26 36 50 32 30 28 36 34 38 34 38 42 42 38 32 38 34 38 44 34 58 52 50 46 42 44 42 60 64 50 56 56 48 48 54 58 42 40 56 46 46 54 56 64 162 221 188 286 432 474 511 516 537 476 486 461 484 518 539 478 387 339 319 323 313 290 300 298 265 265 280 
28 14 16 32 22 30 10 30 42 48 28 38 40 40 34 38 42 38 42 32 42 36 38 40 42 48 42 46 46 54 62 48 52 44 56 42 66 68 60 44 52 44 60 62 62 44 40 60 52 54 54 60 58 112 221 245 294 395 455 495 516 522 461 493 468 490 516 472 385 381 333 325 308 319 327 329 329 302 284 298 
28 10 16 18 10 26 20 36 42 30 30 42 44 44 36 48 52 44 24 44 38 38 54 28 46 38 46 44 42 70 52 44 54 56 52 50 52 58 64 44 56 52 60 62 68 62 52 60 66 54 60 42 52 56 142 225 304 366 432 455 480 470 424 434 449 474 472 377 331 368 337 308 306 304 298 304 296 280 276 286 
40 10 12 20 28 28 16 18 28 34 44 52 46 38 42 44 46 38 42 38 50 40 44 28 48 44 38 38 60 68 50 52 46 48 66 52 66 64 64 54 52 42 64 48 58 54 46 70 62 56 66 48 56 50 62 106 200 288 321 350 356 288 154 253 290 306 337 317 333 335 331 331 325 323 300 308 288 278 270 280 
20 0 20 16 26 32 30 28 26 38 34 46 42 28 44 48 44 38 42 58 48 42 54 40 50 42 52 42 50 62 52 46 44 50 58 52 60 50 64 52 54 52 56 60 58 60 56 56 62 52 44 66 50 44 46 38 46 78 54 94 102 70 48 176 249 261 288 329 352 379 350 323 321 306 306 292 288 278 274 270 
36 6 8 16 36 28 20 38 28 30 34 48 40 42 42 48 38 30 46 44 46 48 38 38 36 52 50 42 58 52 64 46 46 48 56 56 46 64 56 46 44 50 48 58 50 58 42 58 44 46 44 52 50 34 50 28 34 20 24 34 36 40 54 178 304 308 317 358 366 360 325 294 298 286 288 294 284 276 265 272 
20 10 28 24 30 38 24 28 18 30 38 52 36 48 50 34 50 48 34 62 46 36 38 52 48 38 48 42 46 66 44 40 62 56 60 56 66 70 66 54 50 50 48 48 60 60 42 50 50 60 58 58 50 44 36 38 38 28 22 24 36 32 50 128 315 341 354 368 352 341 302 302 298 310 302 296 290 270 259 266 
34 22 16 28 22 46 20 28 24 30 58 38 40 42 40 48 50 48 42 42 52 46 42 54 48 40 36 36 48 52 46 58 46 42 52 46 50 70 54 50 50 40 56 56 58 60 60 54 58 48 62 56 56 42 48 22 42 28 12 18 20 34 54 126 290 337 360 362 356 341 310 312 310 306 284 280 274 249 249 255 
26 2 26 32 42 34 30 28 30 42 46 40 30 36 32 40 48 50 48 46 40 44 42 48 34 42 52 34 46 48 56 46 50 42 58 54 44 62 50 52 58 44 48 50 54 48 52 52 48 56 60 50 60 34 32 26 42 28 18 12 34 22 26 106 276 333 375 366 381 354 315 298 300 278 221 207 198 190 182 190 
20 22 22 30 40 32 26 22 30 40 34 34 34 34 40 54 36 42 44 46 50 30 48 34 38 50 34 44 42 52 56 44 46 46 54 46 46 54 54 52 48 40 40 38 60 54 50 44 54 42 64 48 36 30 38 22 38 24 28 8 34 30 30 74 221 321 360 375 405 395 331 286 253 180 106 82 68 52 64 108 
30 12 22 12 36 24 36 42 34 42 48 48 30 42 36 40 30 32 28 30 46 34 24 36 36 32 44 40 50 44 38 46 54 32 44 54 60 54 46 48 40 38 40 44 48 50 40 50 40 48 46 42 46 30 30 28 46 24 38 28 32 38 76 146 146 268 370 408 428 441 327 266 207 108 62 74 46 40 28 54 
18 0 18 8 30 30 10 20 28 28 24 28 30 28 30 26 42 30 24 26 36 20 22 30 28 26 34 26 32 42 26 18 40 30 30 44 44 42 52 46 56 46 40 42 44 44 30 42 60 46 42 40 50 38 36 24 56 30 30 20 68 152 247 358 335 245 368 418 441 436 323 225 156 104 70 84 62 54 30 40 
36 22 26 26 16 30 24 26 42 34 36 38 22 30 40 28 38 38 38 32 26 34 26 38 32 28 32 22 40 44 44 48 48 30 36 50 52 56 44 46 56 54 42 56 62 56 46 58 76 56 66 64 58 56 66 36 62 72 62 100 229 356 391 385 387 381 401 424 447 405 288 174 126 114 98 90 84 44 32 44 
42 22 20 10 24 18 22 26 26 32 38 30 16 26 24 40 30 32 22 20 40 36 36 26 40 46 32 30 46 46 40 34 40 52 52 42 50 62 58 58 56 54 46 56 68 60 58 48 66 58 72 74 70 66 92 92 82 96 142 253 362 397 408 401 426 424 432 430 432 406 329 247 215 178 132 116 104 80 70 72 
34 26 30 26 30 8 8 16 14 22 30 28 22 36 32 30 32 40 18 30 34 44 32 36 34 50 40 26 42 50 40 46 56 48 44 54 60 50 66 56 54 50 50 66 58 50 50 52 70 64 72 72 80 108 188 219 233 231 284 335 405 426 406 428 439 406 418 414 416 397 374 323 323 302 247 215 190 168 154 152 
30 22 32 20 20 28 34 24 30 30 26 32 28 32 48 40 34 28 42 52 40 34 34 30 46 28 46 40 38 64 52 50 46 50 56 52 62 58 66 56 70 66 54 66 56 66 56 72 74 72 78 84 108 202 306 286 310 339 346 360 408 406 405 403 395 354 364 372 381 379 327 308 308 304 308 317 317 304 266 263 
26 32 32 26 30 12 26 22 32 20 40 36 44 34 42 44 18 36 36 58 30 44 32 34 46 48 42 42 46 54 38 58 56 52 64 58 66 60 64 60 54 62 56 62 56 60 68 68 70 70 90 100 168 255 354 350 356 362 370 377 406 420 416 405 397 321 257 272 306 290 268 270 276 310 300 306 319 319 312 304 
32 14 38 32 42 32 28 26 26 20 46 26 48 46 42 46 36 44 30 44 42 38 44 46 46 48 52 48 62 60 52 50 58 50 60 66 56 58 56 68 50 56 54 56 60 66 68 72 78 80 88 128 233 290 335 331 368 360 377 387 422 408 408 360 337 278 194 223 219 249 233 249 286 290 286 290 300 323 302 308 
30 18 50 30 26 28 28 20 30 40 34 38 36 54 48 38 48 46 42 36 40 46 46 42 44 40 48 38 42 64 46 60 56 54 62 62 62 60 58 50 70 58 52 66 82 74 104 104 100 102 102 186 302 306 354 348 389 379 385 405 422 410 377 308 231 213 229 233 235 257 243 239 265 259 241 227 274 325 329 329 
24 24 28 22 44 36 30 28 42 30 52 32 24 42 48 40 34 42 34 48 46 36 40 50 40 52 58 44 58 62 52 60 60 54 68 62 52 54 66 80 68 66 66 70 126 245 319 306 344 354 315 337 393 397 387 362 389 381 424 453 474 434 389 344 261 213 247 282 325 331 276 223 233 225 223 221 249 296 350 341 
30 22 22 32 30 34 30 30 32 36 56 42 46 48 52 50 56 64 40 44 50 42 44 54 50 36 54 42 32 62 56 50 60 54 60 62 54 66 54 76 66 56 84 126 325 434 480 447 457 436 412 414 424 445 422 362 395 437 493 472 461 457 418 375 288 241 247 294 337 356 337 282 219 174 186 219 265 282 300 292 
24 30 38 28 34 18 28 52 26 42 48 44 30 34 40 42 38 50 32 42 42 44 40 44 38 50 46 48 62 66 52 52 50 58 58 56 52 64 52 68 54 72 122 282 424 463 474 467 472 451 439 457 447 372 360 391 488 461 488 472 474 443 408 370 266 247 263 231 239 294 286 280 251 160 176 217 255 270 296 235 
20 20 24 36 34 50 18 32 36 36 26 46 40 36 40 46 44 52 28 46 38 34 30 44 46 44 36 54 40 50 36 42 50 54 60 62 52 56 50 56 68 44 118 348 457 459 463 439 474 443 439 424 253 134 203 389 480 461 457 451 476 437 358 333 241 245 255 237 180 217 237 237 251 225 170 198 239 268 282 245 
24 18 34 16 52 32 16 32 22 30 40 48 30 28 40 32 24 40 36 32 36 42 44 24 48 40 42 38 50 50 42 38 42 42 62 60 52 66 62 70 60 58 80 221 265 249 235 245 364 443 406 259 104 70 106 274 439 449 372 360 447 395 265 265 233 215 231 203 209 229 207 247 253 300 213 202 217 245 266 247 
34 24 28 30 26 22 16 26 24 28 38 38 30 30 30 36 36 38 34 28 34 34 44 34 38 34 36 36 48 48 42 46 44 44 50 42 62 64 60 46 60 44 74 78 78 70 104 243 383 393 241 108 66 76 82 270 509 490 420 286 366 288 266 251 233 247 237 184 154 207 209 229 270 321 247 200 227 233 263 255 
40 34 32 30 38 24 18 34 34 26 30 38 30 30 24 30 36 36 30 32 42 38 32 38 42 34 44 32 42 34 40 38 42 42 46 48 44 60 58 58 56 46 54 60 62 56 134 249 233 102 72 84 60 60 160 426 522 524 437 198 136 198 268 255 253 237 255 202 136 184 233 217 237 312 276 247 221 251 259 266 
32 14 32 28 36 12 14 24 24 20 48 30 36 42 24 32 32 26 28 24 34 36 38 36 36 40 28 28 40 40 42 38 36 42 44 32 40 48 44 38 36 36 44 58 58 60 58 78 72 56 50 62 60 58 213 439 526 499 437 188 84 136 229 241 235 219 245 213 180 219 243 209 223 313 308 251 229 235 265 270 
28 28 36 18 22 30 10 14 42 34 44 22 32 22 18 20 26 28 30 30 26 34 34 20 30 38 38 30 36 50 30 44 40 34 48 36 34 56 38 38 48 40 36 52 56 54 58 60 56 56 72 66 66 52 182 399 493 474 393 188 84 86 172 207 217 211 237 221 202 194 223 205 213 272 300 223 213 259 278 272 
14 14 14 38 30 12 18 16 38 28 36 28 22 30 26 26 36 34 38 30 32 20 34 30 28 22 30 28 46 38 42 44 46 38 50 44 50 50 50 44 56 40 42 58 56 68 50 48 54 66 60 62 64 54 94 247 399 414 406 302 118 92 162 237 251 243 255 239 223 211 180 150 158 184 162 168 176 202 259 288 
10 22 48 32 44 28 26 34 36 44 36 44 42 48 44 34 38 42 42 48 34 38 42 42 42 44 38 42 46 44 40 48 54 38 52 54 48 56 52 60 54 58 50 58 66 60 54 70 62 64 62 72 82 54 68 84 198 335 383 408 245 132 148 247 272 286 294 196 158 138 132 102 114 114 116 136 130 148 221 266 
20 20 24 18 22 38 26 30 32 30 38 28 28 36 44 42 30 38 32 46 54 50 48 48 48 48 34 54 60 50 56 46 62 42 64 58 62 64 54 54 54 60 62 58 60 62 52 78 70 62 62 64 78 62 62 58 90 120 300 350 362 265 231 272 304 298 286 160 130 126 124 112 112 116 116 118 124 134 237 286 
28 12 22 12 36 24 22 12 24 30 28 32 34 46 42 42 44 50 32 40 58 46 50 30 46 48 44 50 48 66 62 54 54 48 48 62 48 62 58 44 50 44 44 64 54 46 54 64 60 60 70 72 64 54 50 46 70 58 100 217 286 348 304 333 323 296 268 156 108 118 100 100 110 126 126 120 122 160 272 290 
28 6 26 26 16 40 34 40 28 36 42 26 38 44 58 38 30 40 50 46 48 42 36 42 58 50 38 44 48 52 42 40 52 56 52 58 58 68 58 50 60 60 62 62 66 68 58 76 66 70 76 72 66 62 56 52 62 50 50 100 259 308 315 327 308 302 288 152 98 110 108 106 132 136 128 128 140 221 315 325 
20 20 36 30 24 22 20 24 38 40 40 40 38 38 58 48 54 42 56 40 46 54 44 46 46 48 60 54 58 48 56 48 66 48 62 56 64 76 68 54 72 54 64 60 74 66 56 68 66 72 82 80 70 62 54 46 70 56 40 46 120 266 323 335 335 296 274 152 114 130 122 118 138 144 140 144 194 292 344 344 
20 20 36 38 32 22 18 26 34 30 46 48 32 44 42 52 58 48 36 56 50 54 50 46 54 52 50 40 58 58 60 36 50 62 62 46 56 60 60 54 52 50 50 62 72 60 64 52 76 68 62 74 62 46 62 48 64 46 38 40 68 150 284 331 335 319 292 182 128 166 170 148 172 172 168 170 251 350 354 362 
26 16 14 22 40 26 20 32 30 38 36 42 26 34 60 60 44 46 46 56 38 42 48 34 40 58 58 54 48 60 54 44 48 62 52 56 58 60 56 60 56 62 58 58 66 70 62 74 74 68 62 74 64 68 54 40 50 36 40 42 58 78 154 282 306 284 306 312 296 302 265 255 251 223 203 227 354 354 358 385 
34 30 10 38 24 40 28 38 36 36 44 52 30 48 54 36 38 54 56 58 46 44 40 42 48 60 46 48 46 60 46 54 60 62 50 54 52 60 60 60 58 60 48 74 78 60 70 68 68 72 72 78 76 60 44 42 52 54 42 32 46 52 68 124 235 288 313 298 302 337 344 341 368 358 344 350 391 364 358 366 
34 28 24 32 50 30 30 32 36 30 38 44 54 42 34 44 38 46 48 56 46 38 42 48 50 60 48 52 46 50 40 46 56 50 60 54 62 72 56 50 68 68 68 78 70 64 78 82 84 90 86 80 86 66 54 44 62 54 58 36 58 60 68 140 237 290 312 282 268 292 337 343 381 405 414 441 434 368 350 366 
26 24 40 24 40 32 24 38 30 32 36 50 38 34 50 44 52 58 34 40 34 30 58 32 36 44 46 36 44 46 48 46 44 50 52 54 56 60 48 48 48 64 60 66 80 72 78 78 72 84 78 94 108 92 86 70 78 70 50 38 54 76 102 225 266 306 308 282 272 263 266 331 366 385 397 437 447 356 333 348 
28 30 12 34 34 34 14 40 18 30 38 38 40 36 50 44 40 56 36 44 34 44 42 44 44 36 44 40 38 46 36 52 48 46 44 44 64 60 58 58 58 52 60 78 76 62 78 78 82 72 102 172 272 290 280 235 249 241 154 54 70 78 168 255 278 290 292 284 270 265 231 259 319 381 403 414 406 341 310 346 
24 18 16 28 36 28 36 46 38 26 46 22 46 32 44 32 36 38 38 46 34 40 42 30 30 50 40 38 38 52 38 52 38 46 48 38 58 64 54 54 50 54 68 60 72 64 72 76 98 84 146 259 381 403 408 422 461 441 399 203 98 136 253 276 290 298 278 265 278 265 243 263 294 335 377 395 393 335 315 343 
18 20 22 18 32 42 22 30 26 40 30 36 38 38 34 30 34 28 30 34 30 38 40 44 36 40 40 38 38 36 42 42 34 50 30 34 38 52 46 46 52 44 52 56 54 68 76 78 78 106 249 333 418 381 414 468 495 453 457 437 341 315 364 368 323 280 278 278 263 257 241 272 278 317 348 350 360 333 315 339 
24 28 18 28 18 24 22 42 24 34 50 38 40 46 26 26 36 34 30 34 30 46 34 34 40 48 36 34 36 36 54 40 46 30 40 34 54 58 54 52 46 54 70 70 54 70 66 66 74 134 266 339 401 405 434 476 468 441 430 432 459 437 424 443 385 278 270 257 245 261 259 272 274 282 270 282 276 300 319 346 
22 28 34 20 38 34 34 42 26 44 38 42 46 52 46 42 42 50 46 42 46 44 30 42 32 56 46 34 52 54 38 52 54 40 50 56 74 64 50 44 60 56 78 74 80 84 94 90 98 142 249 312 356 416 453 470 441 389 350 379 377 414 422 430 381 276 251 241 253 249 255 272 253 253 239 223 227 259 268 329 
22 30 30 34 36 30 28 36 36 50 50 54 40 46 58 46 36 50 46 44 52 48 48 52 38 42 46 50 52 48 48 44 46 52 52 52 68 56 58 58 50 74 72 78 86 80 88 98 98 140 243 263 317 387 430 461 437 368 341 354 323 374 374 385 343 239 237 257 261 259 257 227 227 239 223 223 202 231 241 290 
34 26 26 34 36 40 22 38 38 44 40 46 42 42 46 46 28 52 48 36 44 46 56 42 44 48 40 56 66 56 44 64 60 54 54 62 66 64 64 58 70 78 76 84 88 82 86 86 106 106 184 268 308 346 418 470 447 399 372 335 304 370 385 368 317 253 241 249 237 225 217 215 235 237 207 211 200 235 209 249 
30 24 34 30 38 50 50 60 40 50 64 44 52 48 66 56 54 76 48 66 58 54 70 62 46 60 46 68 56 64 64 66 70 58 68 82 66 68 66 56 74 62 80 86 92 92 80 90 94 100 122 205 288 290 368 426 426 399 387 360 356 366 374 366 292 272 239 225 211 231 237 237 217 215 192 172 190 213 202 229 
32 8 36 44 44 36 24 56 34 42 44 42 38 62 54 40 44 46 58 56 50 42 44 46 60 54 64 62 60 64 48 58 58 56 60 72 74 76 62 58 70 72 62 76 78 84 74 88 98 86 94 108 120 118 160 182 274 284 276 292 331 323 321 312 284 253 243 231 231 231 231 225 209 192 166 156 182 196 184 203 
38 32 44 34 34 36 24 38 38 52 46 56 66 54 60 56 48 62 46 58 56 64 60 58 48 64 56 60 50 62 56 58 64 58 66 64 58 74 72 62 60 66 72 68 76 78 80 74 84 76 76 74 98 78 88 76 92 86 60 140 249 261 251 263 265 268 253 243 221 237 233 235 231 202 146 142 156 168 184 196 
16 20 20 24 40 26 30 40 28 32 56 52 46 36 50 48 46 50 46 52 54 34 46 32 54 48 52 48 50 44 58 56 60 44 66 66 78 60 44 68 54 68 58 62 76 82 70 76 70 66 84 70 68 66 52 50 66 56 46 80 229 251 245 278 274 265 266 229 223 229 229 221 217 198 130 130 148 148 158 182 
22 10 32 24 32 20 18 36 26 40 48 46 42 36 48 38 48 50 48 58 48 48 46 44 52 36 58 52 56 64 50 58 60 50 60 48 64 64 62 60 58 62 58 74 66 64 54 62 68 64 82 70 66 56 48 32 56 48 34 38 158 243 261 302 278 243 255 243 223 233 203 207 215 184 116 148 136 138 128 154 
20 4 10 20 14 24 16 30 36 40 56 36 36 32 50 54 52 52 36 40 40 40 42 38 50 58 54 54 54 64 46 52 56 52 40 50 50 68 60 54 68 60 48 62 66 64 60 64 68 70 64 72 62 54 42 38 46 28 20 28 138 227 255 313 270 245 259 239 209 215 209 211 231 200 132 134 132 128 156 182 
18 12 8 30 30 30 18 34 38 30 42 54 50 54 60 42 48 58 30 38 44 60 46 52 60 58 44 48 58 64 66 52 58 54 54 54 62 58 66 50 68 62 56 62 68 62 68 64 72 46 60 64 54 52 50 36 46 32 22 16 112 211 255 282 255 233 251 227 211 211 198 213 217 198 156 134 116 170 227 227 
18 6 10 22 12 32 14 28 26 20 32 24 48 30 44 52 48 34 58 46 38 48 52 52 44 48 42 44 54 60 58 54 56 46 50 52 54 60 60 62 62 50 58 58 66 58 44 46 52 54 70 72 74 78 82 68 64 44 58 54 106 209 247 259 237 209 219 211 200 207 184 203 198 186 158 126 146 170 306 422 


