P2
80 60
488
26 49 20 30 26 34 36 46 59 53 53 55 59 67 53 40 49 53 61 38 20 38 49 46 42 38 103 205 299 306 306 301 397 461 344 364 446 391 267 121 93 105 99 123 137 169 163 183 175 179 179 165 91 65 40 55 38 65 59 75 109 101 123 101 115 103 105 87 95 115 105 93 75 89 81 71 67 89 87 61 
34 40 30 26 34 26 38 34 51 44 55 69 46 51 42 55 44 44 49 34 32 42 32 30 24 44 191 338 344 338 336 316 399 446 428 428 391 393 305 251 221 255 249 201 227 249 273 261 257 255 243 221 209 189 177 135 95 91 79 81 85 83 101 89 93 99 111 93 77 99 93 77 79 61 67 69 51 81 73 65 
26 44 36 36 42 32 38 44 44 46 49 46 57 53 63 42 40 36 46 36 30 46 34 40 38 109 310 371 366 356 346 338 416 471 471 428 366 356 342 322 318 328 291 261 299 316 330 344 340 358 340 295 243 233 209 205 201 175 157 159 129 109 121 103 119 107 107 89 85 97 81 93 77 73 85 89 67 89 81 87 
22 42 28 44 34 34 46 51 42 36 44 57 46 55 57 32 40 44 51 34 32 46 49 53 69 215 356 371 358 366 340 362 403 444 416 399 371 356 362 342 350 342 305 285 312 326 316 356 368 422 449 411 324 227 221 205 189 193 201 209 195 195 191 187 179 135 119 117 91 115 119 103 95 81 115 85 117 131 135 153 
24 46 24 36 34 38 30 46 36 44 53 42 61 51 59 53 38 63 51 44 38 55 53 57 69 217 364 362 358 346 334 348 373 375 362 373 366 346 352 354 334 344 306 281 299 295 269 306 320 415 444 348 289 291 267 249 219 195 205 211 221 205 223 227 233 231 201 183 145 151 155 181 185 181 199 193 191 211 195 193 
24 38 28 40 40 20 44 26 36 57 61 65 61 75 77 61 49 63 69 67 42 59 57 69 77 197 377 371 344 308 310 330 348 356 348 336 352 350 354 340 342 360 328 289 265 291 265 241 239 360 330 291 293 303 314 316 281 231 209 237 215 223 245 275 265 279 275 261 219 207 213 255 251 239 241 231 239 239 203 205 
20 53 26 36 36 46 36 53 55 49 49 71 65 55 69 67 63 77 93 87 93 83 95 89 93 163 377 409 389 340 310 334 377 346 332 328 328 358 375 354 348 358 312 261 255 243 237 233 223 263 301 306 306 320 334 326 297 253 235 249 247 241 277 285 293 299 287 267 261 235 213 239 229 247 243 233 227 259 215 203 
22 32 26 22 38 26 44 59 40 69 49 61 71 59 59 71 59 125 215 215 265 267 253 169 155 233 330 411 409 385 360 360 393 346 301 287 332 352 373 375 358 338 312 257 237 235 205 213 181 215 291 299 287 279 305 314 285 273 253 267 289 291 308 305 314 310 306 263 233 209 219 221 247 241 247 235 213 213 211 191 
36 49 55 55 34 55 42 59 53 49 61 73 71 71 69 65 107 249 336 340 411 436 438 407 381 318 281 334 432 411 379 385 381 344 297 303 322 336 342 348 344 354 287 239 217 209 191 185 177 179 243 279 255 243 231 265 265 297 291 303 314 318 322 320 314 310 287 253 223 209 201 229 233 223 237 221 215 213 201 181 
30 40 34 44 40 46 49 51 53 55 55 79 65 79 73 83 171 322 320 379 420 477 480 478 428 432 444 385 387 422 416 397 377 344 297 303 308 350 366 336 326 338 255 213 203 205 197 179 177 177 223 229 235 197 193 219 251 322 326 334 344 338 312 328 308 297 281 225 217 203 223 231 247 205 207 211 197 191 173 177 
26 34 38 46 40 40 42 65 53 44 49 67 57 63 79 81 229 285 381 381 426 463 451 471 424 426 478 488 338 377 383 364 352 312 299 295 318 338 368 348 312 281 243 205 201 213 195 183 173 163 187 215 223 187 187 221 283 322 318 342 336 305 299 295 273 247 227 185 165 155 175 201 213 197 197 187 183 195 175 171 
24 38 38 26 42 49 46 49 46 51 42 65 42 67 69 87 255 267 385 428 420 426 389 415 383 387 420 449 416 344 352 336 340 310 285 295 316 324 344 308 271 249 219 209 215 221 193 193 173 165 169 203 219 185 203 235 271 293 295 301 269 245 245 237 203 165 161 159 143 141 149 147 153 137 149 149 165 169 165 163 
36 53 32 26 42 46 44 55 40 46 51 71 57 71 53 73 211 281 338 391 436 415 399 401 373 299 237 277 346 352 379 381 395 352 322 310 305 324 330 285 255 247 229 231 221 233 213 203 199 183 185 193 233 215 253 261 255 263 245 237 207 175 153 127 119 119 133 133 133 139 135 135 149 125 129 129 115 139 113 115 
26 61 42 36 36 55 40 55 53 49 55 65 61 61 61 63 129 241 285 342 366 424 420 403 330 157 111 159 223 316 393 405 447 418 358 340 291 299 297 291 271 265 263 247 247 271 257 245 215 189 181 207 275 289 283 259 259 267 193 135 107 107 121 99 109 125 139 133 143 145 129 125 137 123 121 99 119 105 101 97 
24 49 49 32 49 40 44 51 51 57 59 49 51 51 57 51 85 111 179 189 145 151 177 155 87 77 99 107 133 187 346 375 409 399 354 358 303 281 263 231 243 251 255 314 358 389 413 391 320 269 225 247 295 283 241 215 185 145 103 115 109 111 107 127 123 137 143 129 151 153 141 143 141 119 125 109 117 123 99 91 
36 44 34 44 30 49 24 46 44 57 53 55 57 61 59 53 51 59 81 59 57 73 83 75 71 73 105 115 113 141 189 310 350 360 371 391 364 283 219 187 185 169 157 169 231 283 316 318 306 308 301 279 233 167 117 95 99 95 105 97 113 117 123 125 133 145 139 139 159 157 153 151 137 129 135 111 113 117 105 85 
32 36 38 16 36 24 34 38 38 49 53 53 57 67 57 51 57 53 59 51 67 63 69 83 89 81 101 123 119 121 141 187 326 389 401 415 401 285 207 191 161 163 165 155 169 209 219 215 217 203 195 179 151 99 87 89 87 105 119 119 109 123 131 129 133 127 137 145 139 137 151 149 137 117 107 95 119 115 103 95 
38 49 18 24 32 44 36 38 55 57 40 49 61 67 65 67 73 73 71 73 71 75 73 75 91 85 119 117 121 121 171 287 379 401 395 416 387 316 217 207 179 171 167 157 161 197 203 205 189 179 177 149 135 103 91 87 109 105 103 115 119 125 117 143 135 129 145 145 143 147 153 141 137 137 123 113 123 119 103 97 
36 73 51 49 44 42 49 49 57 53 65 69 57 65 77 57 73 61 71 67 63 75 77 77 93 85 115 123 149 165 281 368 401 395 369 381 344 303 225 193 177 149 149 143 157 189 193 201 201 181 161 155 135 135 111 109 105 139 111 127 125 123 113 135 143 131 143 135 131 147 149 151 137 137 137 123 129 143 113 103 
28 46 32 44 46 42 32 53 61 49 65 67 53 65 65 65 57 69 69 73 73 77 85 85 89 107 111 127 153 265 332 358 383 373 360 352 310 227 173 147 131 121 119 131 143 181 183 181 185 197 187 169 153 167 165 167 177 197 209 193 183 169 117 95 101 91 97 95 123 143 141 147 141 139 131 119 117 137 117 105 
38 61 59 42 44 46 30 49 51 46 57 59 65 71 63 65 69 75 67 65 77 87 105 107 101 113 139 203 267 326 336 356 342 318 299 306 322 225 155 137 109 113 115 133 145 173 173 155 173 197 187 153 139 181 173 197 235 245 253 249 241 193 127 97 65 42 46 55 105 137 149 159 139 119 139 123 139 127 115 105 
28 61 44 36 46 34 44 57 55 44 51 49 65 65 57 55 51 65 73 81 81 135 185 227 233 245 297 326 342 338 281 265 265 253 221 261 293 243 185 99 77 111 139 143 119 153 135 109 135 177 149 145 139 185 193 209 249 253 251 253 221 189 127 105 75 53 32 38 87 145 159 159 157 155 153 141 149 143 119 121 
42 55 61 55 42 38 38 46 46 59 57 71 71 61 63 59 63 77 63 57 101 279 379 395 391 395 389 407 338 197 157 259 289 277 239 289 297 231 131 111 123 139 153 139 129 125 103 117 109 173 167 125 121 167 197 199 215 227 215 213 159 145 103 105 75 49 36 46 117 213 207 233 245 249 265 223 193 165 127 135 
28 53 53 44 38 51 32 38 49 53 53 65 61 77 59 55 53 85 67 73 109 265 385 413 383 387 395 301 149 135 169 259 271 299 283 297 245 173 147 159 129 149 155 121 95 123 129 119 107 159 159 149 141 191 219 197 183 165 167 149 113 111 87 105 83 30 34 32 111 235 241 259 261 301 310 299 293 259 223 175 
40 57 55 57 38 59 51 59 65 55 59 59 59 71 61 44 67 63 71 63 91 115 217 273 303 360 362 209 121 123 169 241 281 350 366 281 225 167 155 155 161 149 145 101 101 125 143 123 111 157 149 127 179 205 203 203 187 145 135 137 109 103 99 89 69 46 28 57 137 215 227 235 229 257 267 271 281 287 263 221 
49 61 42 53 44 46 46 53 53 55 61 49 61 59 63 46 69 77 67 73 93 169 269 318 381 411 407 342 185 153 203 259 277 360 330 251 215 149 163 203 177 153 149 147 133 127 159 155 145 149 129 123 171 209 197 199 179 171 139 127 115 101 107 87 79 51 49 55 153 221 191 197 185 217 231 241 239 245 245 231 
40 51 49 38 36 36 40 53 51 46 51 44 53 61 61 61 59 65 61 67 127 259 356 430 478 471 471 424 375 310 275 227 273 259 225 219 155 107 157 195 185 149 161 159 121 133 169 181 167 137 121 131 171 191 189 201 157 165 169 151 175 161 151 139 127 109 85 79 227 203 175 169 187 219 225 219 213 217 209 215 
32 53 44 42 49 36 44 46 55 46 59 57 44 63 61 49 55 59 55 73 173 310 430 467 444 451 457 409 416 383 301 255 293 253 187 171 117 105 169 185 161 157 155 157 137 157 171 181 163 119 119 151 173 201 205 193 151 175 193 205 201 185 199 191 241 283 289 265 303 217 179 169 149 147 155 139 147 143 131 183 
36 57 44 42 49 49 30 44 40 49 55 65 44 53 53 53 57 57 69 87 191 348 461 440 407 430 418 413 407 397 310 249 287 257 195 161 113 93 155 167 157 139 159 161 139 159 175 163 153 125 133 173 189 201 187 173 151 197 195 209 215 199 177 197 243 275 342 344 219 181 181 155 143 141 121 111 111 109 123 157 
28 49 53 46 55 49 24 46 59 44 61 49 49 55 53 38 46 59 61 65 119 271 366 438 418 438 426 415 407 387 308 283 316 257 235 201 133 93 109 129 133 157 175 171 149 155 161 161 155 161 177 197 191 175 163 163 157 187 207 197 215 203 181 193 253 273 273 225 179 167 159 159 139 125 105 95 111 109 95 109 
40 51 42 49 46 61 32 44 49 53 55 49 55 53 51 49 67 53 44 75 83 125 203 295 415 438 415 389 379 352 305 261 297 261 231 219 165 133 117 107 131 163 193 177 191 147 173 177 181 237 207 215 205 171 143 147 159 185 191 205 233 207 211 225 281 297 283 243 171 159 165 141 135 109 89 97 99 111 81 93 
34 53 20 40 49 38 40 55 57 38 55 55 59 57 61 51 49 59 69 67 67 77 91 123 163 209 237 163 157 159 225 255 263 257 247 243 211 185 141 129 127 153 169 183 221 151 143 171 173 263 227 239 195 163 149 153 149 189 203 207 227 207 221 225 253 267 273 239 173 169 149 153 139 105 105 91 99 97 75 93 
32 55 36 51 61 38 36 57 49 57 59 69 51 63 61 57 57 55 77 57 61 79 83 77 89 89 107 115 113 113 139 219 251 263 261 253 265 203 179 181 137 139 191 199 225 167 171 173 179 259 247 211 207 153 143 157 161 205 211 225 225 227 233 229 267 257 285 243 167 163 167 149 131 129 107 107 109 85 89 71 
42 63 40 32 57 59 65 65 55 55 57 63 75 71 59 49 55 59 69 65 63 71 69 51 83 73 99 101 105 109 123 201 241 241 263 271 261 237 225 189 175 173 207 217 277 213 171 177 183 197 255 195 193 161 179 187 187 227 233 253 237 225 229 245 245 249 251 213 167 165 165 161 143 117 111 109 95 99 95 99 
32 53 46 57 36 49 44 46 51 57 65 73 79 85 75 59 73 65 73 49 61 59 79 83 73 77 87 87 101 99 107 169 225 201 221 251 241 245 227 261 225 177 165 145 149 135 123 141 141 147 199 181 169 163 163 201 181 197 235 257 235 229 209 229 217 207 185 175 169 179 159 157 141 131 113 113 95 109 91 87 
22 55 53 49 42 51 49 40 55 79 59 61 69 69 65 55 75 75 67 59 63 67 63 77 83 79 79 91 97 95 99 137 225 199 163 191 101 147 195 219 287 251 191 123 125 117 113 121 133 133 127 135 143 143 115 129 141 159 183 199 177 171 201 177 171 147 157 147 153 161 169 161 145 123 121 113 113 105 93 89 
34 46 44 53 40 44 42 36 55 63 61 71 65 53 67 71 67 57 61 57 69 59 75 71 65 67 85 91 101 91 97 121 179 217 185 139 111 155 203 183 261 326 301 289 283 271 241 225 171 159 137 131 137 117 109 111 109 127 115 115 117 107 135 123 137 147 133 131 141 173 139 153 137 123 125 103 111 101 97 99 
46 53 36 57 44 38 49 51 55 57 63 59 55 81 75 65 73 71 69 67 57 69 59 73 77 81 93 99 101 99 109 105 151 173 209 223 185 203 213 195 273 330 340 342 344 340 354 354 318 257 205 143 153 149 195 253 249 241 149 125 99 107 113 107 127 145 117 157 143 149 155 151 145 129 121 107 105 109 101 101 
30 61 42 38 36 40 63 53 46 55 61 59 63 73 59 71 65 57 69 51 71 79 67 79 77 83 89 101 87 113 121 127 169 195 217 231 215 209 193 181 273 310 316 340 334 348 352 338 316 318 318 273 281 326 350 381 369 354 283 141 105 81 117 137 123 137 131 141 133 149 135 143 143 137 129 121 133 129 129 101 
26 59 57 55 38 59 40 57 55 65 46 65 55 59 67 59 75 59 75 65 69 69 79 65 73 85 103 125 199 211 239 247 275 299 328 340 295 237 209 145 107 117 145 161 231 322 348 350 328 316 314 320 364 373 373 385 385 383 308 137 99 99 125 131 121 123 111 123 121 151 147 149 135 129 129 129 145 147 127 105 
28 67 51 46 38 53 55 55 55 63 57 59 59 71 69 55 63 57 65 71 69 67 75 67 61 81 119 203 273 297 295 285 332 348 362 401 391 368 291 219 107 81 73 87 117 137 151 171 171 155 165 197 217 261 326 328 324 305 153 93 99 99 109 107 107 125 121 117 111 131 129 139 115 121 133 129 141 137 121 117 
16 63 44 38 49 32 30 44 51 53 59 55 57 59 69 63 55 55 71 55 57 59 67 69 63 85 161 271 265 287 326 326 352 379 373 389 387 393 368 316 199 111 101 81 87 113 131 133 145 157 139 119 121 119 121 125 119 103 79 99 81 85 105 103 117 109 121 121 105 121 123 121 103 109 117 117 137 145 125 121 
51 65 55 40 51 49 49 55 51 53 49 69 59 59 61 61 53 73 77 51 57 61 73 69 71 85 199 293 291 273 308 316 346 375 379 395 411 397 399 364 305 219 179 163 165 175 167 155 157 163 165 159 149 117 91 83 83 85 79 79 81 89 87 83 95 107 99 101 117 125 133 105 117 111 117 127 133 129 119 121 
24 55 32 63 44 38 55 40 55 55 65 71 71 55 57 59 67 71 73 51 65 69 73 73 85 93 239 316 306 233 241 279 293 328 336 368 379 368 389 377 354 314 267 239 223 221 211 207 173 205 215 193 201 173 149 147 151 125 133 111 103 81 93 101 99 99 109 117 111 121 121 109 117 123 117 125 129 125 121 97 
34 51 44 55 55 55 44 46 59 59 59 61 71 65 65 65 131 203 201 161 119 115 111 87 71 119 265 297 269 217 215 223 249 233 213 255 310 338 379 385 342 336 305 275 265 267 223 213 203 233 229 211 213 169 187 175 177 193 177 177 145 133 101 87 93 103 95 101 101 107 121 95 115 103 129 109 131 129 129 105 
30 69 53 46 42 61 53 46 53 59 63 61 73 59 79 143 273 383 344 368 354 340 231 101 95 161 295 305 259 217 249 209 191 163 137 201 253 295 340 348 324 334 310 279 263 275 241 239 243 239 227 205 197 177 171 185 191 199 181 193 197 185 199 155 147 131 127 123 115 127 123 109 111 99 111 113 131 123 121 109 
30 53 55 49 57 57 59 57 46 61 63 71 75 85 105 215 368 385 416 459 447 447 428 344 247 295 316 295 273 237 255 199 129 105 135 169 223 259 308 305 312 310 306 306 303 257 237 247 255 273 249 215 205 201 185 191 207 199 185 179 179 179 195 179 175 155 133 125 135 133 131 123 129 121 123 125 143 127 125 109 
28 65 51 34 51 49 40 51 57 57 61 75 71 95 113 243 369 409 459 488 442 420 444 447 418 371 310 291 249 231 213 155 81 83 111 177 195 237 277 281 291 301 312 324 336 310 267 267 267 285 255 219 221 215 205 201 211 207 195 183 179 183 187 173 179 169 135 161 153 147 137 131 127 103 107 113 121 109 111 111 
30 61 49 53 40 53 53 49 61 44 75 65 61 81 107 237 338 401 446 453 393 373 369 383 432 375 293 279 239 199 193 125 51 38 119 189 203 245 259 229 243 283 299 324 348 371 385 281 269 305 306 243 221 251 209 223 221 227 209 185 169 183 177 153 143 139 135 175 205 173 171 141 125 109 115 121 111 137 99 135 
34 49 44 55 36 42 61 51 59 61 63 83 59 81 89 195 316 362 428 457 399 371 377 368 403 358 269 263 221 175 167 117 40 32 135 207 221 225 239 225 235 237 293 314 346 373 369 283 259 285 295 253 253 261 251 223 237 225 219 201 191 211 199 191 139 129 123 175 213 185 173 165 173 175 189 183 173 173 147 135 
18 57 40 46 53 36 46 53 46 63 61 46 83 67 83 113 209 314 395 411 405 407 369 360 362 324 285 231 197 167 137 81 73 61 143 215 219 231 231 221 213 223 247 281 328 350 346 305 255 243 255 251 247 243 227 219 243 227 209 205 205 209 235 223 167 137 117 159 167 181 203 199 221 225 267 257 253 251 213 217 
30 46 42 42 51 55 42 49 59 55 46 67 61 55 65 71 83 129 181 243 289 312 271 223 201 259 257 245 221 159 133 87 55 44 135 213 211 215 225 197 199 215 249 259 299 344 324 310 297 279 269 277 245 193 197 219 211 221 215 205 215 229 237 205 171 171 141 145 135 125 163 197 249 255 271 287 320 316 271 249 
24 51 53 36 42 57 46 53 53 38 71 67 75 71 89 61 71 69 89 81 101 107 111 85 85 127 241 253 215 167 141 63 36 53 107 187 195 203 187 159 171 211 261 263 297 336 303 305 352 342 328 287 231 223 185 175 153 171 177 209 193 191 209 177 145 149 121 101 85 105 153 169 223 267 271 310 312 306 277 243 
32 59 42 63 49 40 30 49 38 59 61 73 63 69 77 61 63 61 93 61 77 83 61 65 67 101 193 243 197 163 151 97 36 51 101 177 185 205 167 145 145 199 231 245 275 295 289 330 377 379 393 322 269 215 167 159 163 181 165 199 189 171 175 145 111 115 77 57 55 77 149 195 225 277 283 306 295 281 243 239 
40 65 38 42 46 46 40 46 59 57 55 67 55 67 57 51 59 53 63 49 55 71 53 73 55 71 189 225 181 159 175 139 63 69 95 175 193 205 175 139 151 201 213 237 243 255 237 314 373 387 342 310 239 183 151 129 151 177 169 199 161 153 149 107 77 69 59 30 57 97 137 199 259 267 271 253 221 187 139 149 
18 53 22 20 42 10 42 40 40 46 44 59 57 73 51 40 51 42 53 42 57 57 42 42 57 55 169 245 193 145 169 157 95 42 59 141 195 191 179 161 193 197 213 227 219 223 209 221 275 299 283 167 149 137 127 107 129 155 147 157 137 117 107 85 61 49 63 61 59 91 129 163 185 181 177 143 117 107 91 117 
22 38 32 34 26 24 28 26 38 51 36 53 51 49 51 40 40 44 65 46 26 46 44 38 38 30 139 235 213 157 143 163 169 131 133 155 173 199 201 191 219 239 219 217 209 195 179 165 165 161 171 139 121 141 133 119 119 139 133 123 103 95 87 63 71 67 57 71 81 79 73 97 109 109 109 109 109 111 99 129 
4 28 28 30 36 36 22 24 28 42 42 51 44 46 59 38 49 34 53 34 28 30 38 28 36 46 95 199 209 215 189 195 239 263 233 223 167 201 233 277 289 265 213 205 203 173 159 163 153 137 115 121 107 107 115 117 113 109 105 103 91 85 91 67 77 71 83 69 71 83 69 53 85 93 103 99 93 113 99 99 
6 28 0 26 24 24 16 18 10 30 30 38 34 44 49 49 24 42 44 24 16 28 16 40 22 38 53 121 197 211 211 207 229 275 299 308 259 285 312 312 297 249 169 133 135 143 157 157 161 143 131 135 129 121 125 115 117 117 99 81 97 85 81 79 73 85 67 46 46 59 71 73 51 93 107 97 103 107 95 79 
2 36 12 10 16 30 12 24 32 22 24 30 46 36 44 40 34 40 57 24 12 36 22 34 30 30 53 61 97 165 217 229 233 291 320 312 322 326 326 308 291 229 99 67 75 97 111 149 137 129 127 139 141 107 119 115 111 109 97 97 89 97 81 83 79 49 65 49 49 36 53 38 57 89 103 103 95 121 105 91 


