P2
80 60
507
35 39 35 45 49 49 47 47 59 69 71 69 63 75 80 69 80 73 86 57 59 47 65 55 69 94 192 320 361 332 324 334 326 389 469 442 430 476 507 453 266 188 170 188 204 242 266 258 214 220 234 262 256 218 218 196 190 202 212 214 236 224 236 232 230 222 218 210 210 194 204 208 214 208 214 238 234 228 246 254 
33 39 39 57 51 47 59 57 69 69 78 69 69 63 82 73 65 59 55 41 53 47 59 59 71 128 300 345 357 300 268 278 334 369 426 414 414 471 476 408 332 304 300 274 274 280 290 262 226 224 252 288 248 242 240 218 196 220 214 232 232 240 234 240 242 246 244 208 198 188 190 190 212 216 222 238 230 234 258 254 
35 51 55 61 63 55 49 59 57 75 65 65 75 75 78 57 63 67 53 45 53 65 82 73 102 198 363 345 337 262 224 274 324 349 355 371 408 444 445 361 324 332 314 270 270 292 294 258 238 236 278 266 266 260 242 234 228 222 220 240 254 256 248 262 270 266 254 230 200 154 164 196 208 226 216 228 224 238 252 242 
33 39 41 57 59 43 67 69 55 51 67 78 59 78 67 51 65 65 53 53 57 71 88 75 166 351 410 381 379 322 314 349 353 339 343 369 400 400 398 335 343 335 288 258 258 264 258 238 240 246 292 286 280 264 262 242 240 248 248 248 242 258 274 268 282 272 266 246 216 194 198 194 236 230 236 216 228 236 234 250 
27 43 37 57 43 59 55 69 55 63 65 63 75 63 67 65 80 90 67 57 59 65 78 86 220 402 412 408 406 361 347 365 369 312 314 367 385 355 351 326 335 324 270 248 244 254 232 238 242 240 300 308 310 300 274 270 252 260 254 266 290 284 282 292 300 304 290 260 250 222 202 214 230 228 238 216 218 226 232 216 
31 37 39 49 57 45 63 47 49 80 82 80 73 86 92 73 75 104 71 92 80 75 94 96 162 308 375 418 432 381 379 385 363 296 324 369 383 347 345 343 343 320 274 256 248 238 232 228 218 232 284 296 292 292 302 282 272 282 272 296 304 316 316 314 318 326 328 296 248 224 240 240 228 238 240 238 240 240 246 236 
55 59 49 57 51 67 59 69 82 78 67 80 88 78 92 88 92 136 148 148 154 150 148 128 148 220 320 412 434 414 422 406 361 300 341 404 402 363 367 361 359 310 264 250 262 254 236 216 196 224 274 266 264 264 282 288 264 324 316 335 332 326 318 316 335 351 334 300 300 276 276 272 262 264 258 254 256 240 242 228 
49 43 51 55 71 59 65 71 53 86 63 80 94 88 78 94 114 246 266 324 406 395 347 290 312 414 418 389 406 393 412 393 341 308 365 414 418 379 371 351 351 314 268 250 250 238 222 208 202 208 272 258 250 240 250 270 294 308 304 326 334 347 351 349 369 361 353 322 296 268 278 260 272 256 244 248 238 252 228 214 
45 41 61 57 53 65 69 78 67 71 75 71 88 86 86 106 214 320 363 459 494 498 475 445 473 500 484 332 377 355 369 347 310 316 397 410 404 379 381 357 343 312 266 248 248 232 208 196 188 178 240 240 226 220 228 268 280 284 324 328 345 347 369 365 353 335 314 304 292 254 236 250 244 240 244 216 222 222 204 192 
55 51 45 61 55 73 61 71 57 84 71 78 82 90 102 134 258 393 438 480 490 500 484 463 469 492 490 377 347 334 312 270 282 335 371 397 402 385 379 357 330 308 278 250 244 232 224 200 190 180 228 244 220 230 246 258 250 308 359 361 367 373 371 355 357 351 322 298 266 212 224 212 230 226 208 194 152 142 128 142 
37 39 53 73 59 67 61 67 65 84 65 75 75 82 108 166 308 438 410 471 473 444 453 440 440 459 484 459 355 316 312 288 286 290 349 377 402 377 385 375 349 308 276 250 248 252 230 216 188 180 214 252 250 242 258 250 274 328 335 355 359 349 314 351 343 330 304 268 236 178 176 198 178 160 144 132 120 130 122 134 
45 41 59 61 73 69 57 67 41 63 65 82 69 86 94 168 320 453 408 461 438 375 400 426 387 385 412 393 373 377 414 402 367 312 341 339 349 387 381 369 377 337 290 262 244 258 228 220 194 176 188 264 256 270 258 266 280 296 318 328 310 292 296 298 284 260 240 232 186 156 142 140 134 126 128 118 130 120 104 114 
51 45 43 45 59 67 57 67 63 57 73 80 92 90 84 134 286 449 447 428 461 404 420 418 252 154 220 258 397 414 432 424 408 349 345 324 316 324 349 365 375 363 328 296 258 260 242 224 190 160 172 260 286 274 276 260 248 258 278 272 272 278 260 236 218 202 176 182 154 138 136 122 124 118 128 136 118 134 114 98 
41 51 57 57 59 71 57 78 65 67 82 73 71 80 90 88 212 349 410 385 436 408 363 226 122 102 124 170 322 397 430 420 424 371 343 294 276 290 296 322 353 375 345 308 258 258 248 234 212 164 174 258 314 306 292 268 242 246 262 238 214 194 176 152 148 150 162 160 162 144 130 126 130 122 122 110 120 118 116 116 
55 53 55 49 67 80 61 73 67 69 78 63 80 73 80 78 108 192 272 234 166 128 116 98 96 100 112 132 276 387 387 369 353 359 381 363 300 290 288 300 320 335 314 286 240 242 238 240 220 192 190 202 280 292 276 238 224 212 176 148 148 148 140 152 156 156 154 154 154 148 152 134 122 116 110 112 120 122 120 138 
45 49 45 57 49 73 53 59 61 67 78 67 80 67 90 63 84 102 90 80 82 84 92 88 100 110 104 118 190 355 343 314 280 306 389 414 367 337 349 385 406 406 381 290 206 212 208 214 202 186 184 174 166 162 144 130 122 132 138 124 148 142 152 156 156 162 164 166 168 154 146 138 128 118 118 112 116 120 116 120 
49 49 55 49 57 51 63 65 57 61 82 65 75 71 80 71 84 84 84 67 82 71 90 96 108 108 118 114 140 198 276 278 300 349 455 453 408 363 375 406 428 432 420 377 220 222 228 212 196 174 168 166 150 132 132 124 106 130 138 140 142 150 152 162 154 154 154 162 150 132 146 132 132 126 110 114 106 122 126 118 
45 39 41 45 55 55 55 57 59 63 69 71 78 75 92 75 78 86 82 96 94 84 86 96 116 118 112 114 132 128 158 238 343 391 418 465 375 337 355 385 408 400 381 282 212 222 214 218 206 176 174 160 160 128 132 124 132 136 144 148 154 158 148 166 156 158 160 158 162 140 148 138 140 130 112 124 126 136 130 116 
53 61 57 57 57 63 73 75 71 67 75 78 75 78 96 73 86 86 88 80 80 90 98 96 110 106 116 108 128 124 136 260 320 234 208 158 100 128 204 262 298 272 202 196 194 210 200 214 200 172 160 162 154 160 156 144 142 166 168 202 226 210 156 162 176 156 152 158 154 138 142 126 128 142 130 128 132 140 136 130 
53 61 47 67 67 53 55 80 63 55 88 82 73 78 90 82 82 94 84 84 88 84 98 100 110 114 98 108 118 122 184 274 242 146 132 106 80 78 126 118 128 122 116 138 170 190 190 188 168 162 150 154 154 160 166 184 202 220 242 234 230 212 172 140 160 156 158 154 170 172 166 178 178 178 156 144 134 140 136 136 
43 61 61 69 61 61 59 69 61 65 78 78 84 82 82 84 92 96 84 84 82 94 104 104 104 102 98 106 116 128 224 224 184 190 264 240 184 192 168 148 130 104 104 112 120 146 142 144 156 122 142 116 128 150 168 178 194 202 214 206 216 176 168 170 150 150 164 168 206 240 228 232 238 260 276 250 210 172 152 150 
59 59 65 49 78 53 65 73 75 65 71 65 82 84 80 75 73 82 86 92 92 94 92 106 108 106 110 106 108 128 222 188 194 292 347 266 190 190 166 162 184 100 120 112 122 160 176 152 166 128 124 112 142 132 150 158 156 162 172 164 168 162 188 182 192 176 176 178 214 260 258 232 234 240 280 286 264 268 220 188 
45 51 65 73 63 65 61 69 75 75 75 86 94 86 88 86 90 108 86 82 96 102 112 118 116 120 110 112 122 148 216 192 210 308 326 240 152 138 160 174 172 134 138 130 136 166 198 168 158 134 116 112 142 142 160 160 140 158 144 148 158 182 200 186 192 190 182 192 252 294 264 226 226 226 260 278 266 292 290 286 
49 61 65 53 71 73 57 59 73 75 82 82 84 90 86 86 84 98 84 94 104 126 160 174 234 204 142 126 134 156 230 232 226 186 162 198 106 98 122 172 136 104 128 118 142 184 196 174 176 164 132 108 132 164 174 190 170 166 166 136 160 194 194 200 202 184 184 190 252 278 242 220 228 254 260 286 268 290 282 282 
63 59 65 71 61 82 78 75 75 69 78 86 80 84 100 82 90 88 80 114 164 214 264 343 440 391 343 282 270 246 240 266 222 200 180 178 124 96 104 126 132 94 124 118 138 200 228 186 196 190 160 108 158 182 192 220 224 190 168 164 178 210 190 204 214 186 184 188 210 204 200 196 208 218 214 210 222 238 238 226 
59 63 47 69 57 71 84 61 78 78 86 82 75 80 96 73 88 100 88 176 246 246 381 480 502 490 451 395 412 316 236 288 214 186 168 140 130 156 128 140 104 118 132 128 152 184 208 178 206 216 174 130 148 178 198 202 206 208 178 200 212 208 202 188 204 194 200 192 204 200 192 206 186 170 164 176 162 180 182 190 
55 57 57 63 63 65 75 71 61 73 78 78 84 80 92 73 86 108 100 212 302 284 453 502 496 494 482 436 398 337 248 262 240 172 178 170 154 192 158 148 144 124 130 128 138 182 182 178 188 206 180 164 158 174 190 204 178 194 178 174 190 202 178 176 192 186 174 170 206 198 190 196 198 188 180 182 174 184 214 198 
49 59 61 53 65 55 69 69 73 61 82 65 71 88 82 63 61 94 100 208 292 387 496 478 473 406 455 408 397 330 254 256 216 170 204 210 178 194 182 136 128 126 150 136 136 180 168 200 208 188 168 142 156 180 192 178 182 194 182 154 180 164 192 168 168 158 170 154 222 252 248 224 214 216 240 250 262 284 302 304 
49 59 63 57 69 65 67 69 71 65 82 73 63 82 78 73 82 98 100 200 260 389 473 478 475 428 442 391 371 292 240 216 204 212 234 242 198 172 152 138 134 114 128 142 156 172 170 202 224 186 174 138 170 190 172 174 178 180 158 152 150 176 168 166 170 152 168 162 190 246 256 236 240 244 276 268 294 310 310 290 
47 47 59 65 65 61 59 63 84 63 73 65 63 78 86 59 86 90 94 170 258 334 365 428 471 476 434 312 242 222 208 198 198 206 238 230 188 124 94 98 142 96 122 130 176 164 164 174 214 194 170 148 142 162 156 128 112 130 140 130 130 158 138 152 150 142 146 140 190 248 250 268 254 286 300 314 322 314 282 278 
59 53 63 75 92 61 63 71 90 82 78 71 82 84 84 73 80 84 88 146 184 216 222 230 286 282 196 114 126 156 194 184 178 188 200 190 142 104 98 53 116 126 132 134 176 168 152 160 242 222 160 154 160 126 112 118 118 106 118 114 116 110 132 142 142 134 128 134 180 230 248 244 268 282 286 302 286 272 230 184 
43 53 53 65 73 49 73 80 73 63 80 67 86 86 84 82 71 86 73 84 112 112 114 104 118 142 150 112 128 164 188 134 142 164 132 130 128 118 90 51 84 124 130 140 158 152 152 148 234 240 182 176 166 140 128 114 104 96 98 108 122 104 114 124 118 118 114 106 118 206 208 210 230 222 240 228 180 168 136 142 
49 67 45 67 67 63 61 78 73 82 75 88 78 98 86 92 90 90 80 75 102 90 104 94 146 240 310 186 120 174 176 160 212 200 158 164 136 112 112 84 92 98 120 150 162 168 182 188 238 278 222 188 190 144 132 138 114 94 98 140 160 154 144 120 132 104 114 114 122 160 168 144 150 150 138 132 128 140 118 116 
45 59 61 67 71 82 82 75 73 75 82 86 88 92 82 86 98 90 88 71 84 90 104 94 150 286 367 258 172 226 296 328 334 320 322 276 206 190 156 106 108 114 108 122 164 176 188 204 206 266 236 212 188 160 154 164 148 158 144 198 198 186 146 122 120 114 118 118 138 146 164 146 140 128 110 106 112 126 134 116 
61 51 49 65 61 67 67 78 69 71 82 75 84 92 92 84 92 94 88 69 94 98 116 108 170 335 377 332 330 332 349 355 330 347 341 308 168 152 146 138 136 108 122 114 118 134 144 152 160 172 182 192 170 172 170 146 130 150 148 140 160 152 140 138 138 144 138 136 170 158 162 142 136 126 108 122 104 124 116 108 
53 51 59 80 67 71 65 61 73 88 90 80 90 90 86 86 102 102 88 84 102 112 82 124 176 337 375 355 369 359 357 353 349 357 339 202 116 118 132 120 114 120 110 102 110 124 134 136 152 134 150 152 154 160 148 138 128 124 130 128 124 124 136 150 152 146 154 160 160 154 172 142 136 116 112 114 112 124 126 114 
59 57 55 59 53 71 69 78 80 84 84 82 84 84 88 96 82 94 82 75 96 96 114 110 136 248 393 373 371 335 367 363 361 349 264 182 136 138 136 122 124 110 108 108 114 118 130 142 142 132 132 150 142 142 138 126 116 118 118 128 132 130 138 142 150 150 158 152 158 152 142 148 134 126 114 112 112 122 122 106 
57 59 55 86 47 59 73 69 73 78 88 73 73 98 86 80 100 96 82 84 80 92 86 110 116 178 363 361 365 347 355 326 296 194 150 158 112 118 118 120 122 112 130 124 122 110 134 134 134 120 136 132 138 142 130 136 124 120 118 130 130 136 138 134 142 158 140 162 152 142 146 136 136 120 104 106 98 116 118 134 
51 57 49 63 53 71 78 71 63 78 75 80 82 94 92 86 100 92 88 86 98 110 100 98 134 168 326 365 363 326 326 298 296 240 186 160 134 130 106 116 120 112 106 124 108 106 118 134 128 138 134 132 132 142 130 132 114 118 110 122 130 116 130 154 144 156 154 158 146 140 140 122 110 126 120 116 136 134 154 160 
45 59 75 71 53 84 65 69 73 84 84 84 75 82 102 73 98 92 98 82 92 100 104 98 130 196 335 345 383 341 367 363 351 292 234 156 136 114 130 126 128 126 118 132 140 126 126 124 132 126 134 138 140 130 138 136 126 130 118 134 134 132 138 132 150 142 148 148 140 160 166 140 134 128 124 144 148 158 174 160 
47 57 69 67 61 80 78 73 69 86 73 86 86 88 90 80 92 92 82 100 98 96 116 106 116 194 318 351 387 383 400 381 363 318 256 196 178 178 188 208 218 202 186 200 200 164 166 162 140 138 140 156 150 154 146 144 130 132 124 116 120 114 122 128 130 138 142 150 150 164 200 224 224 222 220 212 204 196 186 182 
45 57 65 51 69 65 63 63 73 69 75 65 82 90 90 86 94 94 88 92 88 96 110 98 108 190 302 326 371 383 416 402 385 322 290 238 236 254 264 250 228 198 218 222 212 196 184 168 166 152 160 158 156 154 148 140 134 120 120 122 98 106 94 116 104 106 162 156 180 212 246 264 282 300 302 292 280 282 268 228 
57 63 55 43 71 71 65 69 65 75 78 86 75 80 86 96 114 126 126 110 116 116 110 104 122 210 320 258 306 359 379 410 381 335 332 292 274 288 282 270 252 212 234 230 218 194 186 190 192 164 162 146 152 158 156 138 128 136 118 132 102 104 104 96 98 98 138 130 142 190 244 240 284 310 318 308 302 300 288 246 
45 55 61 80 73 75 71 71 69 69 82 86 86 82 100 154 250 300 322 324 351 264 170 126 154 274 306 258 290 318 351 398 383 361 353 322 280 282 280 280 272 238 220 224 202 194 182 218 210 186 168 158 160 162 170 150 136 126 130 134 130 118 120 126 110 100 128 144 148 172 220 222 268 302 310 318 310 296 284 238 
49 55 59 84 75 71 61 80 88 78 82 73 80 110 140 230 387 447 440 467 465 467 408 324 276 335 330 268 302 286 270 347 389 383 357 332 306 286 278 290 268 250 228 216 210 194 184 204 204 216 194 180 170 162 188 156 146 146 136 134 126 142 112 114 108 104 140 136 158 160 204 232 262 294 314 284 282 264 252 210 
55 69 53 73 73 73 67 71 75 73 86 78 96 100 172 268 430 444 449 502 476 488 504 490 449 383 326 284 288 240 216 250 408 412 373 345 328 280 276 270 256 262 230 218 192 186 184 190 178 188 210 188 194 190 176 182 154 156 154 148 164 150 146 118 114 140 200 190 180 162 196 202 228 212 206 192 190 178 174 178 
41 59 55 69 75 88 75 78 78 80 80 78 92 112 186 274 426 436 490 496 467 442 447 444 465 385 320 254 248 192 178 140 371 424 385 345 335 282 282 282 266 266 242 220 198 198 184 186 172 176 202 194 192 202 198 188 188 184 166 148 154 152 144 136 130 158 190 172 174 144 142 130 130 134 126 138 148 142 146 156 
39 63 65 57 61 75 69 82 71 86 98 84 84 114 162 266 400 432 469 482 457 397 420 397 444 381 286 234 202 166 154 96 240 412 395 345 335 292 286 306 288 272 246 218 204 192 180 198 168 168 164 182 200 198 216 196 184 190 190 170 158 156 156 142 146 176 158 174 170 138 120 120 116 108 114 118 130 130 146 142 
53 67 57 75 53 73 71 71 82 73 96 80 86 112 134 208 322 395 442 475 445 418 412 385 424 383 262 188 196 162 156 110 114 365 397 361 341 292 296 298 280 272 254 218 204 194 188 180 184 178 182 182 182 210 192 182 172 196 196 172 160 150 150 140 162 152 172 160 148 142 144 122 112 94 110 120 110 128 138 128 
45 61 45 80 67 65 80 80 71 78 84 88 73 98 102 120 206 272 310 383 400 400 359 296 246 284 268 202 190 146 152 73 71 278 387 363 351 288 284 286 288 272 254 238 220 222 186 188 194 186 186 196 200 188 194 176 174 180 174 164 144 142 138 144 140 148 162 156 172 140 138 130 106 102 106 100 114 134 124 136 
47 69 59 71 67 63 69 63 69 80 78 82 88 88 88 88 96 136 122 126 158 160 116 102 114 196 250 204 196 158 136 19 47 174 355 355 347 264 234 246 270 260 222 232 234 216 196 188 190 210 216 216 236 208 184 162 166 168 162 170 162 148 150 136 130 146 146 154 148 130 124 114 100 86 96 98 100 112 116 110 
51 49 55 65 69 67 65 73 69 67 78 80 78 75 88 78 71 96 84 82 88 84 86 100 100 150 226 190 212 170 152 49 51 124 308 343 337 274 218 230 242 242 206 232 258 228 196 184 192 232 240 258 236 184 166 168 150 174 152 156 154 166 128 130 118 136 172 168 158 144 160 140 138 130 118 112 128 140 128 134 
53 43 53 61 63 67 63 71 65 67 82 82 92 94 102 78 88 104 75 86 88 86 98 88 94 136 248 182 184 206 184 112 108 140 256 335 337 284 234 228 234 230 202 212 234 218 192 192 198 210 220 218 194 158 156 146 150 160 154 166 152 140 116 98 84 114 158 180 172 172 210 210 230 242 198 172 150 152 146 154 
49 43 63 71 69 63 51 71 65 82 80 73 69 75 92 61 84 90 82 82 84 84 92 84 86 158 256 194 194 216 240 196 146 140 220 326 339 332 242 230 220 216 210 212 218 214 196 194 188 176 176 170 168 138 138 154 150 150 152 162 152 130 122 98 59 90 146 166 152 148 210 242 234 272 260 258 232 206 206 180 
53 51 55 69 63 65 61 65 71 67 75 75 78 80 78 75 86 98 55 71 86 86 96 100 110 166 240 202 236 238 278 272 250 246 298 332 330 351 308 242 230 218 196 208 192 204 186 182 172 166 160 144 136 142 146 136 138 140 134 152 136 128 108 100 61 84 124 104 118 130 164 214 252 256 270 274 272 246 244 222 
41 47 43 41 53 47 53 61 51 57 61 78 80 92 73 67 82 94 75 69 75 67 126 194 250 252 254 250 270 244 266 284 284 306 314 328 337 355 343 264 244 224 186 226 202 198 188 184 176 158 156 136 130 138 122 130 146 140 144 140 124 108 86 98 75 86 82 82 94 130 188 214 272 276 298 302 308 290 262 256 
27 43 53 47 55 51 63 53 67 65 63 73 71 69 67 61 96 80 92 75 80 108 214 272 290 284 262 276 292 262 284 304 324 339 335 332 359 402 347 152 144 154 142 178 180 198 194 190 170 140 156 146 130 138 134 140 142 148 152 134 120 112 102 94 100 106 80 84 94 132 174 218 266 278 282 294 296 270 244 232 
23 37 41 49 49 59 43 41 45 51 65 55 51 59 88 69 69 71 75 71 96 174 351 316 324 278 268 262 282 268 314 332 345 343 302 314 353 365 206 92 88 78 84 108 128 128 146 148 152 148 164 180 166 154 152 162 156 162 158 132 116 118 114 118 106 92 94 73 84 114 154 162 192 190 192 202 182 194 178 172 
0 29 21 37 41 39 31 27 33 39 47 43 43 65 73 59 69 78 55 63 86 138 306 334 302 206 146 140 148 188 296 324 304 258 180 218 300 248 92 65 63 73 88 88 102 96 116 102 122 102 124 164 154 162 166 178 166 176 150 134 130 122 106 120 108 102 80 75 63 45 75 82 73 112 124 122 124 130 146 182 
10 39 29 41 37 37 37 45 45 53 45 43 59 53 75 59 65 88 75 73 75 96 218 353 306 156 69 80 86 94 136 166 144 118 120 128 168 130 67 59 82 86 106 104 104 108 110 128 102 75 86 86 100 86 110 86 92 112 118 126 112 112 90 106 102 86 80 69 67 49 65 75 86 112 142 150 130 128 160 156 


