P2
80 60
573
148 142 136 128 132 126 142 148 144 152 150 158 142 142 140 126 148 144 152 122 128 128 130 140 128 164 322 402 371 384 382 462 516 527 525 493 396 334 322 285 310 308 289 281 261 247 279 265 241 249 251 306 273 267 251 237 237 259 253 265 275 249 255 263 265 267 253 255 245 224 226 228 245 233 251 253 237 230 257 257 
138 128 118 146 128 142 140 138 126 142 150 168 136 142 134 152 138 138 138 148 142 118 140 140 124 192 376 419 384 378 396 417 477 529 493 469 431 415 373 349 334 328 296 273 271 261 279 263 245 275 304 308 287 277 249 249 253 271 263 275 289 289 279 287 293 312 283 261 241 216 212 251 253 255 249 255 255 261 285 263 
134 124 136 126 144 138 134 150 138 146 142 136 130 130 136 138 140 116 134 130 122 130 130 132 126 172 382 431 407 382 400 433 477 495 464 456 436 394 367 330 334 324 287 267 269 249 259 251 233 279 310 312 291 277 267 247 265 269 263 296 302 287 281 296 306 316 295 277 232 198 198 235 257 247 235 241 243 265 275 241 
134 118 120 130 130 130 140 162 134 130 132 136 136 120 144 128 132 128 140 130 132 134 134 136 150 166 355 446 458 448 411 460 477 458 464 404 388 371 353 340 345 320 291 285 265 243 224 224 226 279 304 308 295 277 265 261 287 291 287 281 283 289 291 308 302 300 304 277 283 247 220 232 265 247 259 228 255 261 239 257 
130 132 128 128 136 136 136 156 138 138 146 144 142 154 146 148 142 148 134 138 144 142 134 154 166 206 345 475 481 479 435 469 450 435 388 371 373 384 378 340 330 304 283 279 269 239 226 232 226 273 293 308 316 318 304 293 308 300 295 304 314 295 304 316 326 332 318 291 281 259 269 269 281 257 275 253 261 255 251 275 
132 116 118 134 128 126 142 138 136 144 152 152 146 162 154 154 144 146 148 152 158 156 162 172 182 261 351 471 485 495 467 444 429 407 374 359 347 367 374 349 314 308 291 291 273 239 226 224 206 249 285 304 293 304 285 293 300 330 314 343 347 343 330 355 367 353 342 326 295 300 314 310 300 279 265 267 257 273 277 247 
122 128 142 130 132 136 134 156 146 132 154 154 150 144 144 148 146 158 162 178 204 218 216 233 251 365 436 460 458 491 440 440 423 382 380 376 347 380 376 353 330 326 298 291 281 232 230 216 190 224 271 277 265 247 263 267 308 343 347 345 369 361 374 382 404 380 367 349 351 330 324 318 298 291 269 275 275 269 275 277 
132 118 114 132 150 150 132 158 140 156 130 156 152 162 142 158 146 154 220 255 365 462 440 458 487 554 563 448 431 446 433 448 421 369 373 361 367 400 396 374 342 332 293 285 259 232 206 218 202 218 283 255 259 249 263 279 318 326 338 355 363 359 367 367 376 380 361 347 326 318 310 312 293 283 269 265 249 251 261 241 
130 128 126 136 144 136 130 154 144 146 142 156 144 156 162 150 160 196 347 423 518 556 552 520 510 543 558 493 409 483 471 460 369 336 367 365 353 404 378 365 347 330 308 291 273 232 208 214 204 202 269 251 245 251 271 295 312 357 392 392 384 380 402 380 373 374 351 340 324 291 277 283 283 281 247 232 224 230 204 156 
130 116 134 126 118 140 136 140 138 158 152 156 160 146 150 158 164 267 419 495 567 573 552 535 518 498 500 525 462 514 498 466 388 382 369 373 359 386 392 398 361 336 316 293 271 233 218 214 196 192 239 265 275 287 296 295 306 376 396 394 392 392 373 386 376 371 343 334 308 253 259 253 259 241 184 180 158 152 130 136 
128 108 132 132 138 132 140 144 136 144 132 144 142 130 142 156 176 296 464 481 556 508 479 512 489 458 471 466 469 498 475 477 456 409 402 369 380 407 398 386 388 361 322 296 269 243 230 218 210 194 222 271 300 295 312 304 332 371 376 369 376 343 347 357 361 330 300 277 249 214 212 202 190 152 142 140 124 140 124 132 
136 120 142 132 138 138 150 150 142 138 150 152 138 152 166 162 180 310 471 460 533 502 458 498 506 415 427 442 442 464 495 485 475 423 404 400 363 367 378 365 376 384 357 338 295 261 249 230 214 196 200 263 300 314 324 302 312 328 330 326 322 314 314 308 287 259 239 232 202 196 178 168 152 144 144 128 136 124 128 122 
128 124 134 132 144 154 124 152 138 140 146 154 148 152 144 150 170 285 454 514 477 541 527 518 433 355 314 345 376 450 438 456 452 431 421 394 404 415 423 411 409 398 371 340 312 269 261 253 230 208 208 273 316 295 296 273 267 279 287 285 285 247 233 214 186 184 184 172 182 162 158 156 162 156 140 128 126 144 134 124 
124 144 132 134 122 148 142 138 148 144 144 152 152 154 140 142 168 184 312 458 469 462 442 328 247 212 194 265 243 409 438 436 448 452 460 442 462 471 467 446 467 469 423 340 300 263 261 251 241 218 224 249 314 306 285 263 255 239 224 202 188 168 170 164 166 180 170 170 194 174 172 158 164 156 130 130 134 116 130 116 
134 116 134 134 138 134 140 128 138 132 138 146 138 132 132 140 154 144 184 259 318 296 220 186 156 176 168 182 204 349 419 392 429 458 479 477 466 464 479 456 483 483 398 269 245 220 222 224 210 216 206 208 226 198 174 164 164 162 160 170 186 160 164 184 174 184 178 186 192 188 184 174 156 148 144 136 138 138 126 112 
142 136 130 116 134 146 132 132 142 146 150 148 144 138 128 148 132 144 158 158 166 156 170 164 170 160 158 190 188 243 312 394 431 460 475 458 442 433 448 469 479 400 275 247 249 214 230 218 228 196 190 184 170 156 156 146 160 152 166 158 178 160 168 176 178 188 178 186 198 170 170 172 156 154 134 124 138 142 134 126 
134 124 136 110 134 128 136 134 148 140 142 148 146 140 150 154 144 146 144 146 152 152 146 166 176 164 172 186 198 206 212 245 269 386 427 405 392 384 388 355 380 347 343 340 328 275 247 237 214 212 192 188 182 164 154 150 146 152 168 170 172 160 178 182 176 168 180 178 196 178 174 170 168 142 130 128 128 142 136 122 
128 126 120 122 128 134 128 138 142 140 128 136 148 144 136 158 156 146 154 160 152 152 152 162 178 170 170 192 190 204 200 208 218 314 411 373 369 376 373 367 382 454 436 477 473 409 275 245 232 206 192 180 178 168 154 144 156 158 162 158 174 162 172 170 170 168 178 180 174 184 174 166 156 148 146 138 138 146 148 144 
128 138 140 138 136 132 130 136 140 142 140 150 150 148 150 160 166 150 158 160 152 150 164 164 168 172 174 172 190 204 182 208 241 340 433 394 359 369 365 345 390 421 452 479 512 483 378 249 232 218 180 188 168 184 172 166 172 188 180 196 186 186 162 170 156 154 158 168 172 184 172 170 166 154 148 152 154 164 160 152 
126 122 120 120 134 134 142 138 150 146 152 146 138 142 134 158 142 158 150 152 150 144 160 170 168 164 164 184 174 208 202 230 312 361 405 388 367 374 363 361 388 392 411 429 483 460 423 308 235 208 174 166 164 178 176 206 210 216 226 210 206 206 178 140 152 132 140 146 150 174 206 192 198 214 220 220 200 192 196 148 
122 146 112 130 134 136 132 154 142 134 150 152 148 150 146 144 150 158 156 148 150 162 172 164 170 164 170 182 174 212 208 295 324 279 296 312 326 357 396 388 363 318 263 314 433 446 436 355 196 204 170 148 186 208 176 196 214 232 222 212 200 186 186 168 170 168 170 184 170 241 257 255 285 306 328 312 306 296 285 263 
114 136 130 128 138 130 146 140 144 136 144 144 146 150 150 156 154 142 162 162 148 156 164 164 186 154 176 176 174 212 224 316 340 293 304 308 312 271 291 255 235 206 164 162 281 413 425 374 194 194 176 184 148 160 208 190 196 212 206 192 196 168 156 176 182 202 198 210 202 265 269 263 253 281 312 300 304 302 295 283 
138 138 126 138 126 134 126 132 142 146 148 156 160 146 150 148 148 144 140 148 144 166 168 170 178 176 176 186 186 212 232 314 277 283 306 342 332 285 281 174 208 196 142 102 150 302 415 404 275 235 192 206 174 172 180 190 176 194 184 176 172 148 158 176 176 218 218 228 235 279 271 247 241 249 271 279 287 296 308 300 
134 122 136 130 134 124 124 136 142 138 144 148 152 158 152 144 146 150 146 162 158 168 188 196 218 275 267 220 216 230 261 285 295 277 296 328 306 243 216 196 198 162 190 214 178 200 374 436 431 411 376 343 253 216 200 196 202 208 204 196 166 164 176 208 182 198 212 237 255 320 273 257 257 263 289 289 285 298 314 285 
126 142 128 144 130 124 146 144 152 138 148 166 150 144 144 150 154 142 150 142 166 208 259 275 351 446 448 398 380 386 407 343 293 312 273 228 224 168 132 150 206 212 255 237 186 170 293 452 481 462 444 413 369 338 267 212 218 204 210 196 184 170 208 210 204 212 220 241 263 302 261 251 243 232 257 239 233 222 233 200 
134 138 120 130 148 126 138 144 138 138 152 140 132 146 146 150 156 148 148 164 200 283 320 373 497 531 533 510 469 520 458 376 285 320 255 166 130 28 46 124 152 214 263 245 188 180 224 419 475 450 448 438 442 419 351 269 249 224 200 168 172 212 249 261 257 255 247 224 232 237 224 222 218 184 170 168 176 168 170 170 
120 136 130 124 124 132 140 130 140 132 136 138 148 140 150 144 150 152 154 156 243 334 355 446 552 550 552 529 466 502 483 365 296 351 267 170 106 0 12 118 120 218 249 245 196 180 214 330 442 446 442 460 462 452 390 283 251 243 198 190 230 285 283 279 275 263 249 241 241 243 230 208 198 182 182 166 180 168 182 176 
142 132 132 138 118 132 132 150 144 130 144 140 136 132 146 154 136 146 142 156 253 367 386 527 565 483 452 500 442 497 471 367 322 380 285 174 72 20 52 94 148 216 241 224 166 138 237 367 446 458 446 462 448 433 342 267 251 243 224 226 273 261 265 267 267 251 265 241 296 318 277 247 247 247 255 259 255 267 269 249 
128 132 136 138 126 144 124 148 138 134 146 154 132 136 140 152 140 138 144 142 230 349 440 518 537 497 442 510 450 458 454 330 340 347 239 146 90 82 70 62 178 214 216 196 180 166 324 402 394 371 355 382 398 326 259 251 239 249 241 210 243 261 253 261 263 269 267 259 287 332 308 277 273 261 273 293 296 312 316 298 
124 116 122 122 136 108 130 130 146 132 134 136 120 122 132 132 134 124 140 136 196 326 388 409 497 516 514 483 365 306 322 320 306 281 241 216 212 182 138 132 166 172 158 134 224 316 404 402 392 332 289 263 226 208 224 230 222 243 226 202 224 235 226 237 247 247 273 261 265 298 295 293 277 271 263 277 310 320 326 298 
106 112 128 118 132 126 132 128 134 134 148 146 118 134 138 138 138 130 136 148 168 218 253 255 281 308 295 216 190 200 241 291 249 263 283 273 279 300 241 186 154 108 104 160 345 398 411 407 361 289 291 226 192 180 206 226 214 226 212 198 192 214 232 230 239 237 241 255 253 285 295 291 293 287 271 291 314 314 310 275 
130 124 120 128 128 134 130 142 136 134 134 138 134 128 138 144 144 144 148 154 146 152 166 168 174 158 166 156 174 190 235 316 279 232 249 263 289 308 285 226 194 162 188 349 448 436 421 413 326 287 261 186 186 184 192 196 204 210 220 196 190 208 216 224 222 216 222 224 220 267 269 269 261 265 265 277 267 243 239 192 
122 134 120 124 122 124 138 134 128 130 134 142 150 146 152 148 144 134 154 134 144 158 154 156 162 150 162 160 170 190 200 298 308 235 212 228 300 320 322 357 367 332 357 448 464 438 425 351 271 263 263 184 196 184 170 182 180 180 194 172 172 192 204 208 214 206 218 212 178 196 204 198 198 192 178 176 144 150 158 134 
118 128 126 122 120 136 146 140 150 138 150 144 144 150 148 136 140 146 150 138 140 162 162 146 162 152 164 160 170 206 200 304 330 302 330 342 361 363 371 433 425 415 431 466 462 423 363 243 232 222 249 220 206 180 172 164 166 158 148 152 166 176 186 186 190 196 182 162 172 178 194 194 168 140 138 130 130 144 132 120 
122 108 114 124 124 138 128 158 146 132 150 134 144 152 134 146 152 154 158 130 136 146 142 162 150 152 158 164 168 192 196 233 332 369 378 361 355 388 433 446 450 427 442 471 454 378 220 180 182 178 200 184 210 176 150 140 136 144 144 162 186 184 162 168 180 172 154 162 178 188 186 180 172 148 124 122 112 140 140 114 
114 128 128 132 120 130 142 146 136 146 148 138 148 142 138 136 150 144 162 150 140 166 138 158 156 150 164 172 168 192 196 202 249 347 400 374 345 407 458 458 444 458 435 425 373 216 164 166 172 174 176 174 170 178 166 150 156 142 146 154 160 172 158 162 170 170 174 188 190 190 196 178 162 144 128 134 140 118 126 114 
110 112 128 140 124 132 136 136 142 136 140 146 152 140 138 156 156 144 148 140 152 154 160 166 158 154 174 184 186 233 293 312 336 378 390 388 369 378 448 427 384 338 277 233 194 146 150 174 180 172 158 170 178 172 172 164 148 140 142 164 150 158 156 156 170 170 170 178 178 182 174 174 174 148 130 132 124 122 128 108 
126 124 118 122 128 126 128 150 134 140 142 140 138 142 146 150 150 152 148 154 142 160 146 160 166 158 150 178 261 363 365 367 386 380 388 380 392 384 448 427 359 271 202 176 168 132 154 162 158 168 172 170 170 176 166 162 154 150 152 156 152 156 158 156 154 164 172 186 186 172 178 160 154 150 140 120 122 118 120 114 
122 130 118 122 142 138 140 158 134 134 142 142 130 150 148 154 154 146 156 152 144 170 158 158 164 164 168 232 373 407 349 349 373 365 392 382 402 400 456 454 442 458 429 330 186 136 144 170 178 164 162 164 166 174 168 158 142 140 148 146 148 142 138 156 154 164 158 174 178 160 162 168 158 146 142 138 140 148 154 152 
126 122 134 118 132 126 136 146 142 140 140 154 140 138 150 164 170 200 210 162 160 158 168 162 168 178 194 314 402 409 367 353 345 363 392 380 405 400 446 450 427 444 446 429 336 172 150 148 166 154 170 160 168 182 188 184 172 158 160 170 156 162 160 144 146 144 152 156 166 168 168 154 158 150 136 144 164 176 172 158 
106 132 118 128 128 136 126 138 140 128 140 144 140 150 158 180 259 361 376 357 265 237 198 180 164 184 239 357 398 423 380 336 289 312 378 398 371 384 433 425 435 442 456 466 446 332 235 206 212 190 200 218 228 230 226 222 182 198 204 200 174 174 160 146 136 134 148 172 170 192 194 210 216 230 214 188 208 190 194 148 
122 128 122 116 122 122 116 154 142 140 134 138 134 136 176 259 363 479 469 483 497 460 373 212 184 202 312 355 353 365 336 308 300 310 318 328 328 322 371 417 431 429 446 458 466 419 338 265 228 237 235 243 253 263 245 226 200 208 216 212 182 170 148 148 132 122 168 202 186 204 243 265 300 312 340 312 291 285 261 237 
126 112 104 114 130 124 126 130 136 126 132 144 130 154 194 322 450 469 493 520 539 508 518 435 295 318 394 367 373 378 376 324 312 320 316 263 237 202 230 324 382 388 407 446 466 433 402 330 261 243 269 269 265 263 249 259 251 235 239 224 194 180 168 152 144 132 172 170 162 200 257 267 310 334 340 338 334 322 304 293 
120 132 122 122 112 132 132 132 130 126 130 140 142 132 210 328 436 479 512 550 531 516 531 529 495 460 464 390 361 373 353 351 338 320 251 186 146 144 190 279 330 342 373 405 436 419 409 378 310 249 275 259 259 267 257 261 251 243 245 216 224 188 172 188 136 140 148 152 170 164 218 233 271 300 326 338 318 328 334 306 
114 104 128 124 130 126 128 130 130 128 132 148 148 130 198 330 413 471 522 527 522 446 467 469 483 495 458 373 363 357 318 314 312 249 194 112 66 96 166 245 293 308 316 343 404 409 407 390 332 265 245 273 265 251 251 241 233 235 235 224 232 206 176 180 162 154 154 142 168 168 208 232 275 296 342 328 312 322 316 273 
114 116 114 124 126 128 134 128 146 128 138 122 142 132 168 281 404 431 495 527 516 431 454 431 477 464 446 343 328 359 289 245 237 206 154 96 48 94 200 269 283 298 302 314 332 374 392 386 351 273 232 255 247 243 237 228 220 228 226 208 214 194 194 190 174 150 160 166 178 196 210 216 247 249 283 283 263 257 263 204 
108 128 118 124 126 136 142 152 142 132 140 140 142 144 160 194 296 359 473 495 479 473 467 431 454 456 417 316 322 320 253 228 202 184 158 76 64 172 249 289 281 293 302 295 302 338 373 374 347 318 239 243 243 230 230 230 222 208 220 206 214 188 204 182 172 174 196 204 206 196 172 186 184 186 192 190 184 174 196 166 
108 126 124 130 136 128 134 132 144 128 142 160 146 136 140 154 170 180 263 326 402 409 394 367 421 429 392 328 291 291 249 235 198 176 144 62 96 239 289 320 287 302 302 316 287 308 343 345 365 324 285 267 259 285 296 269 230 200 220 224 224 200 202 188 184 178 192 210 192 182 170 164 146 136 136 140 136 146 168 162 
130 130 122 124 126 126 136 148 132 130 158 142 138 136 142 142 148 152 168 162 182 184 184 192 265 355 363 343 298 285 245 228 186 154 110 44 88 239 310 316 287 302 306 326 320 310 310 332 357 353 324 302 304 320 312 289 243 222 220 222 208 202 188 178 180 180 180 196 194 182 174 156 152 126 116 130 130 144 160 138 
114 122 124 118 126 140 140 146 132 136 138 134 134 144 132 132 152 146 150 138 148 154 154 168 194 298 342 334 302 300 261 237 184 128 64 20 70 164 279 295 293 291 291 308 304 291 295 291 340 367 336 334 359 361 380 363 324 226 214 220 210 214 198 200 176 182 186 198 198 186 180 158 146 132 142 128 146 150 150 140 
108 128 116 122 122 126 136 134 136 126 154 138 136 138 142 138 126 140 146 132 142 148 136 156 176 291 338 326 291 291 285 257 218 148 62 48 72 136 233 285 275 289 243 277 293 279 275 281 336 365 357 351 361 386 376 371 324 233 222 222 230 210 192 180 184 182 190 186 192 162 176 186 188 194 214 208 194 194 174 152 
116 122 120 124 130 132 146 144 150 124 126 136 136 148 134 148 140 140 140 130 140 128 136 154 154 298 353 330 300 279 275 293 237 132 96 80 108 188 283 287 275 273 249 265 267 259 277 304 347 371 359 394 386 374 361 328 267 228 214 230 218 220 184 190 184 196 178 172 160 150 154 194 226 243 265 283 289 295 259 204 
108 116 112 124 118 132 132 138 122 134 134 130 132 140 132 148 132 134 136 134 140 140 148 152 152 251 361 338 281 259 253 257 247 192 188 158 174 226 273 279 259 265 251 265 267 269 296 332 353 347 394 423 400 369 281 253 233 216 230 243 224 200 180 174 178 168 140 128 106 104 152 172 212 245 271 285 312 334 322 285 
106 118 118 124 122 126 118 130 114 126 126 134 128 124 134 144 132 130 128 130 132 136 128 138 148 220 340 326 289 269 239 232 255 265 273 253 247 243 263 275 279 277 271 293 295 312 336 355 338 336 407 429 409 306 241 235 243 239 233 230 228 218 202 196 186 162 96 92 102 122 176 200 237 275 289 314 304 328 332 285 
126 134 116 116 112 130 116 128 136 124 128 138 130 124 126 138 136 136 120 132 126 134 124 136 134 150 263 316 310 304 304 296 316 328 367 396 386 365 349 340 351 353 340 376 390 365 376 357 342 304 316 353 296 265 257 247 247 247 241 253 237 226 218 196 194 166 138 118 112 132 178 226 283 304 296 310 322 300 322 279 
112 126 94 108 106 102 122 142 130 114 124 134 116 122 114 130 146 124 126 132 114 122 116 134 128 118 180 291 320 332 308 312 320 308 382 431 427 411 417 425 400 402 407 421 427 400 367 342 289 232 241 257 267 281 281 283 269 253 251 241 235 208 200 200 188 156 158 138 142 142 184 212 273 273 283 263 259 235 214 198 
110 106 110 102 92 108 116 122 108 118 122 124 112 118 118 118 116 112 128 116 106 120 118 118 120 112 120 150 214 298 324 322 314 338 415 440 427 409 415 415 413 438 421 435 407 343 287 251 233 196 192 237 283 287 296 298 277 261 245 235 212 186 190 180 174 158 136 110 124 114 118 130 150 152 160 146 154 152 160 146 
80 106 90 90 94 114 114 112 102 112 128 110 126 118 112 124 132 114 110 96 106 102 120 110 110 108 108 106 118 172 194 233 279 310 396 411 407 409 402 402 423 407 386 343 271 176 150 160 162 164 140 208 233 247 257 267 259 255 220 216 212 178 162 180 174 140 118 112 120 92 98 80 94 110 116 118 124 136 142 128 
90 106 90 84 84 110 98 102 96 94 104 116 112 110 108 112 110 108 108 104 108 96 106 102 110 106 94 106 96 122 116 122 148 196 243 214 235 243 267 271 277 233 170 156 118 106 110 118 110 110 106 120 128 152 150 154 170 208 176 174 182 152 150 128 116 114 102 94 90 94 88 62 84 106 114 116 118 122 130 120 
98 102 94 88 82 114 84 106 112 86 100 96 110 90 90 116 124 92 102 100 86 94 92 98 106 86 94 96 94 100 102 102 102 100 142 130 128 116 130 134 134 124 118 128 106 94 104 118 112 100 78 66 78 102 94 100 90 114 122 118 116 108 98 110 92 96 96 96 96 72 80 66 94 100 100 118 108 138 134 114 


