P2
80 60
576
144 182 140 144 152 144 144 144 154 152 132 154 150 156 146 152 158 154 166 142 146 168 257 471 500 512 508 504 500 488 454 415 395 405 384 372 386 403 419 388 357 324 290 283 292 277 269 247 255 316 300 304 310 326 318 316 333 330 322 341 330 333 333 339 339 357 347 318 288 269 290 255 277 286 286 269 247 261 241 231 
138 166 138 142 150 138 140 138 134 146 142 174 144 154 176 168 178 180 162 144 156 225 320 448 508 508 521 529 513 490 457 426 395 407 403 372 384 407 415 390 341 312 302 283 288 269 265 237 261 298 302 288 298 314 300 332 343 353 357 343 335 326 308 308 326 312 294 275 253 223 206 168 196 156 154 158 144 162 160 170 
132 150 146 154 150 138 138 138 122 136 132 166 174 247 326 341 345 370 296 218 223 370 463 411 496 515 525 533 527 502 471 426 403 421 444 409 413 405 419 411 361 324 302 285 275 279 277 261 255 285 312 310 288 298 296 326 361 357 335 288 220 204 174 178 180 180 170 160 148 158 126 132 102 118 112 106 118 116 114 150 
134 150 138 152 140 128 154 142 138 150 138 176 259 411 490 513 542 538 494 436 399 510 563 506 475 510 519 517 498 483 454 444 415 426 434 438 432 425 421 411 370 333 300 285 271 275 283 259 253 275 314 314 296 273 279 312 341 341 285 204 164 150 136 142 140 142 148 148 140 150 138 124 136 110 112 120 112 128 122 126 
144 166 148 138 156 146 138 148 134 148 144 198 376 487 534 544 576 569 565 542 527 571 563 574 471 477 475 461 459 442 425 426 417 421 434 440 430 426 415 401 364 333 306 294 281 298 290 275 263 261 304 302 294 298 290 310 333 353 328 312 269 204 192 202 158 168 164 150 148 148 148 144 142 112 120 118 118 122 120 112 
134 148 146 138 138 128 144 132 144 154 166 265 403 500 515 567 552 536 555 540 542 563 563 569 485 450 430 423 423 413 413 425 405 425 430 428 434 423 403 382 347 345 300 298 294 300 290 279 271 245 281 302 300 294 294 312 326 341 330 363 343 332 312 298 271 255 243 198 180 176 170 144 150 154 130 132 128 132 120 138 
140 160 156 140 138 154 158 140 140 142 164 296 430 515 517 553 510 487 496 523 529 546 555 557 515 444 428 411 428 413 415 411 397 434 448 442 436 428 421 405 388 364 310 298 298 300 318 275 273 259 290 308 296 298 304 316 318 330 364 359 374 370 359 380 355 372 366 343 316 269 243 243 229 220 172 178 174 162 140 144 
134 138 134 126 152 154 142 144 144 146 162 294 415 510 513 521 494 492 523 519 490 498 504 527 523 461 488 512 494 465 444 405 415 421 428 442 446 419 434 432 407 386 343 304 312 312 288 286 283 255 290 320 316 310 314 324 339 366 376 397 392 397 380 397 395 386 390 361 355 333 324 300 333 306 294 269 267 233 210 198 
124 140 140 148 144 140 142 154 146 150 138 251 382 502 510 546 544 519 534 513 415 275 302 370 394 473 515 525 527 492 459 436 395 403 395 409 403 421 413 425 413 399 361 330 306 320 318 290 290 277 286 333 330 335 330 332 353 380 386 390 397 390 388 399 403 401 401 364 347 320 316 314 308 312 302 300 279 294 283 267 
120 150 140 136 140 152 144 146 138 146 156 204 312 475 496 498 496 475 426 330 196 170 196 267 306 442 492 510 523 496 469 452 405 405 395 384 388 423 415 426 409 419 401 363 320 341 326 326 300 286 298 361 355 341 330 339 326 347 364 370 386 386 378 384 392 382 380 361 328 300 304 290 320 314 306 306 306 302 269 277 
122 160 152 152 152 152 142 140 132 138 138 138 186 265 337 285 222 172 176 146 138 138 136 184 239 446 465 490 512 496 487 448 411 423 388 392 395 428 444 448 430 444 428 399 388 411 395 361 322 308 304 361 366 355 339 302 296 322 347 364 366 370 363 363 341 351 345 318 298 277 265 296 300 312 300 294 294 294 277 275 
124 146 144 144 156 156 156 142 138 130 130 156 142 154 174 146 146 130 144 144 148 146 118 154 196 428 459 452 461 454 430 343 380 440 428 448 425 448 442 430 405 397 405 448 388 388 405 345 310 312 286 298 304 300 298 296 277 296 318 322 314 300 281 271 249 267 286 283 259 253 229 285 273 265 265 249 251 251 263 257 
128 150 134 136 150 142 136 160 150 136 126 134 128 134 124 130 126 148 138 138 130 128 116 152 154 332 438 426 411 397 322 298 330 425 442 488 477 471 452 434 434 448 432 448 407 328 251 231 214 229 210 180 208 180 174 194 186 168 152 166 154 168 144 146 144 184 190 200 214 220 184 216 218 198 190 182 172 182 172 190 
126 154 148 124 128 150 134 138 130 142 130 138 130 114 130 122 130 136 136 128 128 126 106 132 130 166 286 364 411 413 407 376 370 347 380 438 438 459 442 415 397 419 395 411 382 378 310 225 239 231 225 288 349 351 322 255 168 116 92 132 114 122 134 138 132 148 168 172 172 188 172 172 166 172 162 160 148 156 140 152 
140 142 152 142 150 146 140 124 132 132 126 118 122 120 118 118 130 122 118 122 122 120 112 118 112 120 132 166 225 265 306 320 304 273 249 257 237 267 310 357 333 288 259 277 318 312 324 292 316 316 370 440 446 452 448 419 314 168 120 130 136 136 136 154 166 168 176 178 200 196 190 186 170 170 154 164 150 154 128 136 
122 146 134 144 116 140 138 132 136 132 118 126 114 126 112 110 104 120 124 126 118 122 108 102 114 104 124 138 150 138 164 164 182 223 210 204 176 196 206 198 174 206 176 241 308 374 403 454 463 423 425 401 430 397 372 214 279 208 130 132 130 138 144 158 156 172 170 176 198 192 194 188 164 162 150 142 140 130 140 134 
120 142 148 130 146 124 130 140 126 126 118 136 120 132 122 132 128 116 124 124 118 120 118 128 130 112 124 148 144 142 158 168 188 204 237 218 220 210 204 210 198 237 283 368 401 434 436 454 438 407 316 245 259 225 166 152 136 130 134 142 144 142 154 150 172 172 194 180 180 180 174 174 180 154 152 140 144 138 130 142 
122 152 140 128 124 136 130 130 110 132 118 122 124 122 136 134 122 140 134 138 134 124 122 128 130 130 132 138 142 158 180 172 180 210 223 222 220 227 231 243 257 384 440 399 409 444 438 436 386 294 231 220 212 176 162 134 132 116 118 140 146 148 134 166 174 172 188 184 178 186 168 164 156 160 148 148 162 152 136 154 
122 164 136 134 128 132 142 134 140 114 120 140 120 120 148 118 140 130 148 126 132 130 128 126 138 128 150 146 160 168 164 188 206 249 283 243 223 269 286 267 269 384 430 432 415 426 403 330 290 261 225 229 210 180 160 134 122 136 138 136 134 144 136 162 164 168 184 178 166 176 170 168 166 162 164 140 150 158 156 152 
124 156 136 138 138 136 132 128 120 130 126 144 124 122 132 132 120 138 126 130 134 132 128 128 144 134 150 150 142 152 174 210 275 296 304 222 202 218 229 239 263 310 332 341 298 292 288 294 279 253 218 208 200 174 156 136 144 122 146 138 148 152 116 126 130 136 132 138 172 182 176 162 164 164 156 162 166 166 152 154 
126 154 138 138 138 132 134 142 116 116 116 142 122 130 126 120 126 144 134 128 130 136 140 138 136 138 124 148 146 168 204 298 304 294 283 214 182 154 150 144 200 222 206 218 223 249 267 261 271 261 223 182 180 210 210 194 190 210 245 265 247 202 130 94 86 94 84 100 154 182 182 168 164 152 166 154 160 158 160 156 
118 144 148 126 140 140 148 128 132 134 132 130 130 124 122 134 114 128 146 132 122 146 124 144 136 126 140 142 146 164 225 318 257 241 253 237 237 194 196 204 214 214 206 229 225 239 247 265 261 271 206 174 184 204 227 269 318 328 343 341 288 237 156 118 100 76 58 80 140 182 178 156 178 168 178 166 172 172 158 162 
128 148 142 134 128 128 138 128 118 136 128 144 134 116 128 128 122 136 126 126 114 134 130 140 144 134 146 142 152 156 253 290 273 267 326 320 279 253 225 176 229 218 206 225 225 233 259 241 251 255 229 174 202 216 227 269 332 349 332 322 273 218 156 142 140 108 86 80 132 206 200 218 235 243 237 210 198 168 168 182 
128 140 154 132 146 120 122 134 118 128 134 138 118 114 132 110 130 142 134 134 150 150 148 160 160 176 158 154 156 176 273 277 298 330 421 378 277 233 202 180 200 208 216 202 212 223 253 220 249 227 225 184 212 235 231 239 273 271 251 247 212 208 184 180 146 102 116 102 146 253 253 261 286 308 314 294 288 253 218 180 
120 150 146 152 126 142 134 144 124 128 130 144 126 116 118 118 140 132 134 132 158 233 243 294 341 302 220 192 192 239 286 288 308 333 384 320 245 227 206 180 202 210 210 200 206 204 225 227 237 214 222 210 220 233 235 233 227 231 210 216 204 196 194 176 168 138 130 120 154 259 277 267 285 308 302 308 296 300 296 283 
122 150 138 130 128 128 132 124 114 134 126 128 128 124 124 122 134 126 126 164 247 296 290 395 477 473 442 394 376 370 326 310 306 312 261 239 208 196 166 190 210 225 222 227 218 225 229 222 231 223 204 210 222 239 245 229 225 210 186 190 192 186 170 166 156 162 162 134 158 241 243 225 233 245 277 271 285 296 285 290 
120 148 146 134 114 136 132 128 134 126 128 138 122 126 122 136 122 132 132 208 294 302 384 479 538 533 506 471 469 430 339 332 364 320 257 198 160 142 140 180 208 206 204 216 220 247 229 237 239 200 212 196 200 239 243 239 210 208 188 172 176 174 160 182 174 174 172 164 180 235 222 214 214 233 255 247 247 255 259 281 
112 144 138 142 134 122 118 134 116 106 124 126 108 114 120 104 132 132 154 218 326 320 432 525 536 534 529 471 430 421 353 364 380 312 265 190 136 126 132 166 162 186 190 198 225 249 233 239 231 204 184 174 180 231 237 239 218 200 168 180 178 178 178 194 196 166 162 194 214 220 206 200 206 186 192 198 198 206 196 231 
126 138 134 138 144 140 130 136 130 124 120 140 110 114 114 104 124 118 134 212 316 376 496 536 506 479 485 454 415 413 332 392 384 306 281 202 130 76 96 136 150 166 190 190 220 225 223 225 212 192 176 174 166 218 223 218 198 196 178 190 182 200 192 208 200 184 178 196 245 253 243 212 204 210 223 223 241 235 229 227 
114 136 140 140 142 126 122 138 122 122 124 134 106 104 108 108 108 122 128 204 271 401 485 519 487 469 471 411 370 372 324 368 351 304 281 225 138 72 76 128 140 164 192 186 198 220 212 233 210 192 192 168 184 210 204 206 196 170 170 168 178 202 186 200 202 204 172 166 267 263 241 255 235 231 225 257 271 263 271 288 
136 130 132 132 130 128 124 132 124 124 114 124 104 118 96 114 114 112 136 162 237 351 407 483 473 467 413 288 196 281 330 337 308 308 286 241 182 126 82 118 126 154 194 176 196 210 249 298 249 251 324 204 194 223 198 186 174 166 160 166 174 172 188 188 196 194 156 192 259 271 261 281 267 247 249 265 285 292 290 296 
112 136 142 124 124 124 130 136 122 126 118 124 114 108 122 104 112 122 128 132 162 196 194 247 253 257 176 138 158 208 314 308 300 314 304 273 253 180 140 118 102 144 160 176 188 218 251 425 341 390 430 343 188 194 176 166 154 144 150 154 154 178 174 178 188 192 182 180 267 269 265 277 265 265 277 286 286 288 281 277 
126 150 154 134 136 136 128 124 134 126 114 138 114 120 120 120 128 118 124 126 136 142 136 144 124 134 122 124 154 194 298 283 286 294 279 261 243 204 186 176 112 122 158 176 204 243 370 492 419 456 452 312 180 160 160 166 136 140 140 136 144 158 180 184 172 188 180 184 218 243 261 261 265 273 288 275 259 241 202 188 
126 152 148 132 132 142 142 122 136 126 144 130 116 130 114 116 126 124 136 128 116 134 136 128 118 110 124 132 146 186 322 298 271 253 196 178 192 229 210 198 154 182 164 200 235 322 446 490 487 457 452 277 186 162 166 170 154 140 146 156 144 152 170 166 172 162 166 180 194 206 206 210 216 202 200 188 166 166 142 144 
122 136 132 146 122 140 126 128 138 134 134 134 126 128 120 110 116 134 128 128 120 120 116 116 112 122 124 146 132 158 267 316 259 218 114 40 72 198 237 222 168 156 154 184 233 401 483 494 490 417 292 210 188 162 176 160 158 152 152 166 150 146 152 148 158 152 160 170 196 204 186 196 174 170 138 154 146 140 144 140 
114 136 138 136 130 142 128 126 130 144 128 144 128 138 116 126 142 146 134 120 120 112 124 130 124 108 122 128 134 146 192 267 271 235 116 0 42 156 208 243 168 136 146 170 267 378 459 438 353 271 222 196 186 172 164 162 158 130 130 134 142 136 146 134 150 162 170 162 196 204 208 190 184 168 150 146 142 134 126 136 
124 138 140 132 126 138 142 128 128 136 120 132 118 118 116 116 128 136 126 116 132 118 118 108 112 126 122 132 138 142 158 184 257 290 235 198 210 245 275 318 308 277 265 304 328 357 345 243 204 184 174 178 180 176 154 144 126 108 102 122 116 136 140 132 152 162 166 166 170 200 184 178 180 152 152 136 138 134 130 142 
120 132 130 138 136 130 134 124 118 126 136 128 126 128 126 130 118 138 128 128 124 120 106 120 130 126 142 146 174 202 206 220 245 277 273 302 318 357 364 368 368 397 364 351 355 314 198 174 172 178 168 162 168 152 156 136 122 108 110 108 106 116 132 138 148 154 162 164 170 190 186 166 164 162 144 134 122 128 120 142 
116 154 130 130 128 144 148 142 132 134 122 136 128 134 132 142 130 138 136 130 132 124 122 128 140 212 249 275 292 324 341 322 308 304 314 372 374 384 382 372 353 372 380 390 347 216 164 178 180 184 176 160 184 178 158 140 130 114 94 120 122 110 118 146 142 160 178 172 170 170 172 164 158 158 140 132 146 152 148 154 
132 146 146 138 136 146 136 136 128 136 116 144 134 146 152 134 134 142 152 138 128 118 110 132 202 330 324 310 310 320 345 339 316 332 368 390 351 337 355 337 324 279 298 275 220 160 154 158 170 170 146 152 160 172 160 132 124 102 94 116 102 116 132 144 130 150 156 164 170 158 172 154 156 134 146 150 168 176 164 156 
118 142 134 132 136 140 142 136 142 138 142 202 243 257 200 182 152 144 142 142 134 126 134 170 324 366 337 306 306 306 330 314 337 339 386 364 312 322 316 328 225 150 148 170 164 154 172 184 188 186 164 164 172 172 154 156 130 120 112 122 122 126 122 142 152 146 162 168 160 170 160 142 136 136 138 150 146 160 158 168 
124 140 128 130 130 130 130 144 134 164 223 337 446 454 411 353 286 212 164 124 118 132 136 255 349 332 326 337 339 343 382 361 359 394 359 318 298 302 337 324 218 182 174 210 225 212 208 237 239 222 200 196 186 188 172 160 140 140 154 164 140 146 146 150 136 138 154 154 146 160 146 134 124 120 126 146 160 150 164 150 
128 150 134 130 154 142 128 136 146 241 308 438 513 479 481 510 492 423 347 178 132 140 212 324 343 341 351 353 390 421 438 399 421 459 448 376 332 324 333 296 261 239 208 210 210 208 212 216 243 235 216 206 194 178 182 170 160 156 156 162 158 152 142 146 134 152 150 150 160 162 154 128 134 132 148 138 148 150 148 164 
142 146 134 144 138 148 140 152 180 288 347 465 483 500 517 557 515 488 463 357 188 192 320 349 347 388 409 407 397 421 425 425 469 475 456 378 347 324 300 283 257 239 231 212 208 192 206 216 239 245 227 216 214 204 176 180 162 158 176 172 168 150 144 162 144 150 156 148 154 154 152 142 132 140 146 142 148 148 160 176 
126 142 132 146 130 136 138 150 216 326 382 469 475 515 544 536 506 500 434 390 326 364 357 364 357 428 452 432 399 407 405 426 456 456 413 349 324 310 290 279 263 245 233 202 194 186 180 196 210 245 233 227 200 198 198 194 188 182 182 184 172 170 162 154 150 170 168 152 142 162 156 156 168 158 176 174 170 150 166 186 
106 148 142 150 142 150 146 152 186 316 395 469 477 504 533 531 525 467 436 430 397 434 376 361 366 413 454 438 401 380 397 384 442 438 364 308 300 296 304 283 273 261 233 210 192 176 192 178 196 186 192 206 206 200 200 198 210 192 192 198 188 202 186 190 168 182 170 158 156 152 182 229 267 290 304 304 271 237 210 196 
126 138 150 144 144 142 152 154 190 290 415 496 481 498 538 542 510 488 506 483 417 409 351 333 337 374 448 454 401 357 359 343 363 392 337 288 288 279 292 286 273 259 233 204 196 176 168 174 178 194 172 182 192 200 198 216 227 208 208 206 206 216 216 194 182 190 186 152 156 154 188 251 263 304 359 374 347 333 316 304 
112 150 140 134 152 146 146 146 160 235 347 442 496 506 546 523 515 527 542 519 454 388 330 318 288 314 394 444 392 345 332 324 298 330 308 286 271 259 261 267 271 263 233 218 208 180 180 170 176 172 166 178 174 192 210 188 210 204 210 206 200 218 233 233 225 216 212 184 164 174 206 245 273 304 341 361 366 363 345 345 
128 144 152 148 148 142 148 136 154 164 194 269 339 428 517 498 479 487 473 494 436 374 333 318 294 285 339 403 403 337 320 326 310 308 314 269 261 247 239 241 247 247 227 223 210 202 172 168 184 208 204 204 200 192 172 164 198 200 188 198 198 225 237 235 229 214 218 210 202 222 243 259 286 312 343 386 386 366 361 370 
142 156 160 150 144 144 158 144 130 154 146 172 176 204 253 283 239 212 255 382 426 368 345 320 300 290 290 339 390 339 345 347 310 306 304 279 265 225 231 237 245 227 214 225 216 216 190 176 210 216 210 212 231 190 174 170 178 170 164 184 180 208 202 220 194 166 237 249 241 233 249 271 294 312 353 363 364 357 353 343 
134 164 150 148 156 130 140 138 144 146 156 136 154 148 166 158 148 170 178 281 394 388 343 326 308 281 281 235 269 330 361 347 308 310 304 279 253 241 218 220 227 223 222 222 212 223 188 200 235 231 227 200 192 182 166 152 168 162 176 162 188 194 164 186 176 166 241 239 223 222 235 233 257 269 290 292 302 294 275 265 
142 152 148 146 158 154 150 150 144 148 144 138 134 138 152 140 144 152 168 223 374 386 337 328 316 286 267 223 180 196 304 330 306 308 318 290 261 247 231 235 233 214 202 218 220 214 200 202 210 206 188 174 122 150 154 154 148 158 164 154 160 146 140 160 140 160 178 194 194 186 180 174 156 162 174 172 178 162 158 178 
118 136 140 140 146 138 144 150 144 132 134 152 144 138 140 142 134 148 148 216 347 380 337 324 294 286 275 223 146 106 255 330 316 310 318 296 273 271 233 229 222 214 202 222 245 200 192 180 166 174 162 150 136 134 138 162 164 158 166 184 184 168 172 170 146 152 164 158 156 156 160 140 142 142 124 108 124 122 136 152 
128 168 140 138 146 146 142 148 126 138 140 136 128 144 142 120 138 150 146 188 345 368 328 294 269 257 285 253 198 126 247 316 335 326 322 300 259 267 261 237 227 212 204 218 241 180 176 174 182 172 166 168 176 180 172 188 190 194 190 208 190 200 198 188 190 194 188 182 174 172 166 156 134 130 134 144 128 142 132 150 
114 138 152 136 156 136 136 136 128 138 120 138 134 132 132 120 128 148 144 188 353 372 312 285 239 233 269 251 229 146 212 326 351 349 316 300 271 271 259 249 222 204 200 251 220 172 184 170 202 194 192 190 192 200 192 194 208 204 188 206 204 184 196 188 190 192 192 196 194 178 174 170 166 188 196 202 210 206 182 188 
114 146 138 130 134 126 122 134 136 136 122 142 116 130 128 130 140 140 140 178 370 359 306 281 255 247 265 269 235 194 231 347 380 361 324 296 277 259 271 253 225 202 220 281 225 208 204 218 212 210 214 198 220 206 204 192 188 198 184 206 180 200 170 188 182 176 192 172 172 170 160 164 188 210 239 257 285 290 263 277 
112 138 138 138 134 116 120 142 126 130 108 138 128 120 124 118 122 120 142 160 328 351 326 335 310 298 292 304 273 259 271 345 386 403 364 292 286 261 271 251 210 216 239 271 210 222 233 235 237 249 233 239 233 208 216 212 196 206 186 208 208 178 172 170 182 178 174 164 130 126 118 134 162 198 241 269 288 306 310 314 
108 128 138 130 132 130 128 116 118 118 118 124 116 108 124 118 132 116 132 146 212 355 355 349 347 328 304 304 304 294 332 380 415 430 415 316 273 249 259 241 233 220 257 251 220 233 261 257 277 328 345 347 312 267 239 241 218 208 200 220 190 168 174 170 162 158 162 134 104 108 110 132 172 212 233 273 296 333 330 337 
126 134 102 124 108 130 108 102 122 108 106 116 110 120 118 120 120 114 102 120 148 204 316 363 341 318 314 328 298 318 386 405 434 434 419 316 241 194 212 225 214 223 237 227 198 216 263 279 302 349 426 450 442 384 298 279 233 220 206 196 200 174 164 164 144 158 144 120 88 120 114 172 204 237 267 294 310 351 341 328 
112 136 110 116 116 116 114 112 104 90 96 112 120 134 126 126 132 112 130 120 102 128 168 273 349 318 310 306 312 302 386 403 442 450 444 322 162 84 112 140 172 198 208 200 192 202 245 265 298 372 423 461 469 425 310 265 259 231 216 182 190 168 152 144 150 164 140 148 116 114 144 190 214 271 285 312 326 320 306 328 


