P2
80 60
582
0 16 2 16 28 32 20 30 40 32 38 34 26 30 51 34 53 57 48 44 40 59 48 53 59 71 65 61 79 79 63 73 63 77 95 85 75 81 83 81 69 77 71 69 65 67 79 65 71 91 109 132 120 136 126 124 130 126 122 118 111 142 216 300 324 328 336 360 306 218 238 222 218 208 190 170 142 113 120 103 
36 12 10 16 30 26 36 30 34 26 20 28 16 40 30 46 38 48 67 42 53 53 71 55 38 75 65 65 59 67 63 79 79 75 77 85 71 65 81 73 81 59 77 57 61 81 51 61 63 85 101 128 128 128 128 126 120 118 107 111 118 164 260 310 348 358 407 454 442 296 248 248 252 240 264 256 198 154 158 138 
16 14 24 22 40 10 26 30 36 34 28 38 46 26 55 53 59 44 55 55 51 65 63 65 61 73 59 71 57 83 59 69 81 69 75 77 75 67 71 79 75 71 75 77 69 53 63 69 67 55 89 113 126 132 124 122 126 97 75 118 158 270 340 364 368 373 425 405 346 278 274 258 244 230 230 244 226 210 202 194 
10 14 6 20 34 8 28 42 48 32 30 53 30 28 28 40 34 40 44 55 51 32 59 53 44 55 69 63 67 53 63 75 73 73 75 69 71 63 63 67 71 69 73 57 69 59 55 69 63 65 69 95 111 116 111 79 83 101 91 178 298 397 415 417 405 395 381 350 304 292 298 268 260 238 236 236 220 220 208 232 
4 10 8 6 12 24 12 44 26 28 40 36 57 48 53 51 38 53 48 38 53 42 57 48 53 67 57 65 61 61 59 67 69 83 77 77 71 65 75 65 53 81 57 44 59 61 69 63 65 59 73 89 105 83 93 116 152 138 188 322 391 448 435 438 431 401 350 320 314 304 312 276 254 246 236 232 246 230 242 248 
10 4 8 10 28 22 18 30 38 32 34 40 42 55 46 32 46 59 53 46 48 38 53 57 57 57 53 71 63 65 57 57 67 55 61 71 65 57 57 75 63 61 73 61 65 73 75 61 63 81 65 168 308 332 262 320 358 344 385 435 452 472 460 476 435 395 348 340 300 288 286 272 264 248 250 266 248 222 258 256 
26 16 20 20 48 32 22 42 44 46 42 36 51 44 32 53 34 36 55 34 48 44 51 61 46 67 48 63 55 65 77 79 69 77 67 71 91 71 73 79 67 67 73 71 79 85 79 73 73 71 87 122 196 342 427 456 470 468 472 493 487 487 524 557 567 483 373 336 312 310 302 280 284 272 266 268 262 244 258 286 
2 16 22 34 46 40 30 42 53 48 42 48 48 46 55 46 42 44 59 53 57 36 57 63 61 67 61 83 67 69 63 83 71 75 87 95 81 95 79 79 77 87 81 71 85 79 79 87 81 93 146 182 200 350 456 491 497 487 474 493 514 563 575 555 580 582 522 395 356 336 332 304 282 288 282 298 260 264 282 286 
8 18 22 24 36 30 32 48 46 32 42 32 38 36 53 42 42 42 46 63 46 46 61 73 57 59 83 85 73 87 85 87 79 71 77 91 93 85 93 99 85 83 85 83 101 75 99 111 97 208 304 399 415 458 485 482 505 483 470 514 551 563 563 567 553 576 555 464 387 362 362 362 324 322 304 292 264 258 276 302 
6 12 18 34 34 22 28 42 38 36 59 65 57 46 55 57 61 53 69 67 61 63 55 65 73 73 67 73 81 87 83 81 91 91 81 87 101 83 99 87 95 81 91 91 95 95 103 79 101 174 222 254 304 375 495 482 513 493 478 522 575 569 553 547 518 547 513 413 395 344 373 342 336 344 336 316 292 276 286 314 
14 4 24 51 57 36 30 44 40 48 40 59 63 51 51 44 51 63 51 55 59 75 67 79 77 75 71 83 75 81 77 89 85 87 97 95 95 85 99 103 99 101 89 93 97 101 99 103 107 116 124 224 377 448 470 485 491 487 491 534 563 542 545 514 497 499 397 377 352 332 348 344 308 322 310 312 306 316 324 316 
14 14 38 32 46 59 36 65 44 71 55 55 48 46 51 73 53 63 63 73 71 69 71 85 75 77 71 93 77 81 89 95 91 89 103 93 105 103 93 95 89 99 109 83 91 93 103 107 105 154 302 436 436 433 454 458 440 476 495 532 526 522 470 427 409 401 362 344 336 332 352 316 312 320 320 308 322 326 354 332 
22 30 24 36 40 48 30 51 42 57 61 59 57 57 59 65 51 44 59 63 65 55 71 65 77 89 73 83 85 87 97 93 97 99 95 95 99 87 93 95 89 107 97 87 99 101 107 107 97 230 310 344 405 417 316 268 268 387 472 483 403 296 260 360 379 350 358 375 354 354 348 322 314 322 310 322 316 304 344 348 
8 24 30 36 55 44 40 61 48 59 51 53 48 57 51 57 53 59 65 73 65 67 83 69 67 87 77 81 91 107 85 87 95 85 95 113 93 111 99 97 97 93 99 91 101 101 99 105 103 105 224 318 274 168 103 103 128 198 346 282 130 138 236 373 427 387 387 358 334 306 320 302 306 316 306 320 324 290 334 340 
18 16 18 38 44 38 40 63 51 57 61 61 71 55 55 65 63 77 69 55 73 67 63 71 71 81 73 85 81 95 93 83 87 85 89 87 93 93 107 101 95 91 95 89 95 97 93 91 93 93 95 122 99 87 93 81 87 156 306 292 109 109 310 444 431 399 370 346 320 310 316 296 292 264 284 294 290 306 320 332 
18 32 34 40 61 61 36 71 48 55 57 65 51 53 57 53 57 71 69 69 79 65 79 79 83 79 71 79 81 93 87 87 99 89 101 91 89 85 91 91 105 95 101 81 99 91 89 97 93 99 91 101 85 83 79 81 87 103 148 178 105 180 370 468 493 468 389 336 286 282 282 256 218 174 172 192 202 232 292 324 
28 22 28 38 57 51 40 53 53 65 36 63 55 59 48 51 59 65 67 71 57 53 63 63 77 67 77 79 79 89 91 89 79 95 79 89 101 75 85 85 85 87 85 89 95 81 105 83 99 93 91 93 89 71 75 77 81 89 95 138 192 389 480 520 522 507 448 358 286 232 198 168 120 128 132 126 109 134 262 336 
8 40 40 48 48 44 59 51 57 65 59 57 55 46 57 63 61 51 69 55 57 53 71 71 65 83 71 87 65 81 81 89 79 99 81 93 93 87 85 83 81 91 75 97 95 85 101 91 111 93 105 101 97 77 75 87 113 136 194 284 407 483 505 509 485 454 346 266 196 150 138 138 152 150 160 154 111 118 238 360 
30 40 48 53 42 57 48 65 55 63 63 44 51 53 44 69 42 55 59 55 57 69 55 71 69 65 67 75 57 69 77 81 77 71 87 87 99 73 83 93 95 93 85 99 101 107 107 103 105 111 101 120 95 99 95 134 214 366 450 478 458 478 468 450 395 274 184 158 142 150 194 208 280 310 352 292 160 132 246 334 
26 40 36 36 53 44 38 59 59 44 65 57 40 46 48 59 61 69 51 59 53 61 59 73 63 77 71 75 73 63 91 89 73 75 97 99 97 91 93 91 95 99 103 95 97 95 103 120 113 113 101 118 156 152 166 278 446 497 464 482 448 448 415 316 208 170 160 170 196 252 346 415 436 458 480 454 274 160 240 342 
40 44 36 32 46 55 46 42 51 51 53 59 55 44 67 55 44 65 61 65 73 65 81 65 85 73 73 85 85 73 93 97 93 91 89 99 97 97 103 107 99 105 91 97 109 97 107 103 132 146 168 240 381 358 446 503 501 487 474 472 425 356 252 180 188 184 202 260 366 438 483 470 466 478 507 489 411 232 258 318 
32 44 38 59 40 55 46 57 65 44 53 59 57 59 59 55 65 59 63 59 61 81 75 71 83 79 93 85 77 91 93 97 93 97 99 105 109 105 99 95 101 107 111 118 116 132 170 190 228 328 417 485 460 489 485 487 489 464 448 401 238 174 170 160 216 280 362 405 425 448 480 474 446 470 487 501 474 372 288 348 
24 53 48 44 55 46 40 59 46 55 51 48 71 57 55 65 71 73 61 59 75 75 65 77 79 87 79 87 103 93 85 103 85 103 99 105 97 91 99 87 105 111 113 101 124 184 330 438 476 495 505 497 501 491 482 470 442 358 264 184 132 144 158 240 336 409 427 438 429 435 468 468 419 373 436 478 483 438 356 362 
18 32 42 55 59 59 51 59 57 59 67 53 67 69 67 63 59 85 61 77 69 79 75 73 77 85 83 85 89 87 93 87 103 97 85 103 91 95 103 107 93 107 93 101 138 358 485 524 520 528 513 511 466 368 338 262 202 134 142 122 140 170 234 381 454 446 403 448 466 472 433 403 336 304 334 435 448 436 399 381 
24 38 57 34 55 48 55 57 48 42 48 61 59 55 77 65 57 71 65 67 69 75 79 77 87 77 83 87 79 81 93 103 95 111 107 103 97 93 103 97 111 105 95 130 274 446 520 489 509 526 489 458 260 156 144 132 134 126 124 134 130 196 334 407 421 401 373 417 464 448 399 326 290 296 316 381 440 442 425 387 
40 32 46 48 55 53 42 61 55 53 57 63 53 48 65 71 61 63 65 65 63 61 75 91 99 77 103 93 85 81 81 103 105 101 103 99 95 93 105 105 95 105 103 134 298 474 411 401 485 407 314 218 136 126 120 109 128 120 120 132 136 248 413 444 423 366 346 403 421 433 417 350 294 270 346 405 411 435 442 411 
38 55 42 48 63 48 38 55 53 53 55 53 55 61 53 63 63 69 71 75 63 77 75 87 65 87 71 77 77 83 93 101 101 87 87 99 111 85 95 97 93 105 101 113 276 300 256 444 288 156 132 130 134 111 118 122 130 122 126 138 162 397 476 448 403 358 330 346 358 387 427 372 316 262 346 444 421 464 468 438 
24 38 59 42 57 40 36 69 67 63 65 61 53 48 65 71 65 63 69 67 59 75 71 81 79 81 85 81 99 97 91 91 95 95 101 85 107 103 105 99 107 109 103 105 113 180 346 278 146 132 126 124 118 107 130 120 120 120 122 134 182 417 450 419 381 350 320 340 322 318 368 330 268 266 344 425 444 446 466 442 
42 38 51 51 57 55 46 55 48 55 65 61 65 55 55 53 65 69 73 83 61 77 69 81 95 71 91 87 85 93 91 101 91 91 99 97 101 97 103 97 109 113 95 99 103 146 206 132 122 118 126 124 116 113 111 124 144 158 180 228 312 403 444 436 423 405 368 395 360 304 300 284 282 312 340 411 454 476 474 468 
22 30 48 57 59 67 44 73 63 59 71 65 59 59 59 65 63 63 65 91 77 79 77 83 81 81 85 81 81 89 87 89 97 99 105 91 103 91 95 93 113 109 95 124 126 122 113 109 126 113 113 132 99 107 154 220 256 298 328 336 296 401 468 474 460 379 364 423 379 316 284 280 288 338 342 397 474 503 493 448 
28 24 59 57 63 59 59 67 53 63 57 59 53 61 63 67 77 65 71 65 79 75 85 91 89 79 91 89 91 93 89 103 101 95 99 103 99 89 99 111 113 93 107 107 111 107 120 105 118 116 109 126 105 130 252 377 405 348 354 318 302 356 438 480 497 387 334 385 368 298 284 292 334 336 342 401 501 507 501 464 
28 36 48 48 61 51 48 59 46 69 63 59 69 57 63 75 71 67 69 65 67 75 73 81 83 79 81 83 89 81 87 89 89 97 99 97 97 83 99 91 95 97 93 103 109 99 118 109 111 103 107 107 99 150 298 419 468 460 405 326 314 336 413 466 489 433 375 375 364 310 300 298 348 324 332 366 454 505 476 429 
28 38 51 51 40 36 48 59 40 42 55 51 53 55 67 69 42 53 65 59 51 65 69 67 63 77 69 65 75 75 79 87 85 85 79 87 91 91 83 83 97 87 105 99 105 101 109 103 95 111 91 109 95 172 306 379 454 423 454 464 377 338 409 478 480 423 407 421 356 338 322 328 372 320 350 373 417 491 440 393 
28 42 44 57 51 48 38 59 57 65 53 53 61 55 48 55 42 55 48 73 59 71 61 69 65 75 79 87 65 79 81 85 75 75 83 77 89 83 91 99 77 91 103 93 91 99 103 97 101 95 95 97 93 166 314 364 395 436 440 485 407 294 391 491 464 403 379 379 385 356 368 399 413 366 346 358 389 507 431 379 
26 36 34 46 53 36 59 71 57 61 48 53 55 42 55 53 42 71 57 73 59 65 63 79 65 79 85 71 71 99 85 71 95 79 87 91 85 85 83 87 103 89 103 95 95 103 99 99 103 109 103 105 109 144 314 397 401 419 411 436 340 316 381 433 462 387 373 389 370 360 379 436 429 385 302 332 391 485 480 379 
36 48 61 48 75 57 55 61 55 48 63 57 44 57 71 55 63 75 73 71 61 77 73 71 79 87 75 87 83 89 81 91 99 91 91 103 89 89 97 97 109 97 99 91 107 109 107 107 109 109 109 109 95 105 254 385 399 381 364 366 260 288 358 425 411 391 368 358 362 360 397 442 431 358 250 310 375 444 470 338 
28 44 63 51 53 40 44 73 48 59 51 59 51 57 63 63 71 75 77 65 73 67 77 83 81 67 85 81 81 81 85 95 85 97 93 105 103 103 101 93 105 101 103 99 103 105 113 120 116 107 103 118 109 111 166 310 389 312 270 238 168 266 342 403 417 411 340 356 375 383 421 448 413 318 302 375 389 419 448 389 
30 32 46 46 46 55 40 81 59 48 79 53 71 59 59 75 65 65 71 73 81 73 69 91 85 67 79 73 85 87 87 97 107 111 97 101 97 95 101 103 101 99 107 99 116 109 120 107 113 109 116 122 118 107 118 138 176 188 166 152 130 160 236 372 409 436 372 358 330 370 503 511 391 300 298 433 462 440 442 362 
28 34 30 44 59 46 40 65 59 59 57 46 63 51 63 75 61 71 95 77 73 75 81 83 87 79 89 83 79 99 93 101 91 95 116 107 95 99 107 105 99 111 120 107 109 107 116 120 118 122 109 113 118 111 105 107 113 120 122 122 107 138 164 300 405 417 419 389 358 425 522 530 425 312 288 379 472 442 429 358 
20 42 57 32 51 61 63 69 57 61 63 77 69 55 77 73 71 85 71 61 71 85 83 85 91 79 95 85 87 91 95 97 101 105 103 109 99 93 97 116 103 99 101 97 107 113 109 113 120 124 118 118 109 103 103 118 113 103 111 124 122 124 132 186 322 397 407 411 395 462 497 538 495 425 346 356 454 436 373 238 
16 42 61 46 42 59 53 57 42 67 63 63 55 65 65 69 75 79 75 93 77 75 71 79 81 95 91 83 83 91 97 99 101 97 101 101 105 118 103 103 126 105 105 103 120 109 111 113 111 118 109 107 93 103 95 111 128 118 103 124 109 138 148 148 210 310 403 440 444 460 489 509 518 489 446 417 415 403 336 224 
18 36 40 36 61 57 34 61 59 57 48 48 65 65 65 69 85 75 71 77 61 77 71 87 85 87 89 81 93 83 95 99 93 99 118 95 97 99 107 105 105 105 101 99 113 116 120 116 118 111 124 111 103 95 105 118 116 111 111 113 103 122 134 136 158 224 312 381 403 464 480 489 524 524 466 421 409 381 381 344 
14 18 28 48 51 34 53 61 53 53 51 63 53 51 73 65 69 71 73 65 63 69 75 75 81 79 77 93 89 89 87 103 89 95 91 105 99 103 95 101 111 107 109 89 113 109 118 124 118 116 126 116 107 109 103 109 111 107 107 128 103 124 132 142 160 172 184 222 274 364 433 468 466 476 436 423 407 401 454 487 
18 22 51 40 59 44 51 61 61 48 51 65 69 63 55 67 63 75 73 71 69 73 73 87 75 95 77 85 73 91 101 89 95 93 97 99 99 83 103 95 105 120 105 101 118 103 124 116 120 130 120 118 109 107 105 107 122 118 109 118 111 128 132 146 168 190 208 302 330 385 438 421 435 425 423 431 421 423 440 476 
24 30 38 51 46 44 42 65 42 48 46 61 57 53 67 59 75 59 65 85 75 73 71 85 79 77 79 91 93 75 87 103 91 89 97 99 91 91 103 111 99 107 105 116 113 111 130 113 130 122 118 122 118 111 103 97 111 111 113 118 105 126 134 154 170 218 262 358 405 423 409 395 387 401 399 413 389 413 411 450 
20 32 38 44 59 48 42 61 51 57 59 46 71 55 55 71 71 73 75 67 59 63 67 73 79 85 85 83 79 87 89 85 93 85 85 99 97 97 83 99 81 109 99 116 113 132 118 126 113 109 128 113 116 111 105 101 109 105 109 120 113 132 148 164 212 270 326 344 391 419 411 368 348 370 393 366 372 391 417 417 
16 28 44 53 46 42 38 59 44 63 46 63 48 36 55 57 61 63 65 65 59 67 65 81 67 85 85 75 95 81 83 81 89 99 83 89 93 97 95 93 97 105 105 116 124 124 122 126 130 116 124 111 113 120 105 95 128 105 105 107 109 132 158 202 272 346 348 368 370 360 381 362 356 320 354 304 326 356 377 415 
18 42 38 44 36 57 34 69 51 51 44 46 59 36 42 42 75 63 61 65 63 75 71 71 79 75 71 79 81 73 85 87 93 93 95 85 89 93 93 99 95 107 109 105 105 111 132 128 113 120 122 120 113 103 116 101 116 99 101 105 111 148 172 246 308 354 336 358 362 352 344 342 358 360 350 302 256 276 306 372 
26 36 40 38 44 40 48 46 51 44 48 26 55 57 61 38 53 59 67 55 65 71 55 61 71 75 67 57 65 75 67 77 71 75 75 91 91 81 87 93 89 95 101 109 105 122 116 116 109 113 118 120 111 93 95 103 97 99 109 107 101 132 184 242 334 373 372 395 356 348 366 344 336 370 385 358 284 248 308 336 
16 59 51 40 32 38 44 75 40 67 51 40 53 42 48 53 61 59 57 69 55 65 61 79 79 67 67 77 65 81 93 61 81 83 85 85 79 97 85 93 103 93 99 107 122 116 113 126 120 122 116 120 120 101 103 97 111 105 99 113 101 150 170 268 372 423 409 429 411 393 405 334 348 348 370 366 338 326 336 286 
6 48 51 46 63 63 53 46 59 63 61 53 51 55 61 57 63 67 67 73 59 67 55 83 77 71 81 73 81 83 79 79 75 79 95 93 87 85 93 99 99 105 111 107 111 124 124 124 118 124 116 134 116 113 130 140 152 152 128 134 148 158 214 340 389 385 364 368 395 379 391 348 314 336 346 364 368 366 352 294 
10 40 32 34 36 48 30 61 40 65 53 55 55 55 65 48 65 73 65 71 75 73 85 77 81 79 81 83 83 87 91 93 89 95 101 93 93 95 107 93 103 109 120 122 118 124 118 138 130 130 138 128 140 166 266 292 298 314 292 316 375 300 314 381 395 383 368 372 366 391 399 346 342 330 366 383 368 354 336 288 
10 36 51 51 40 53 53 55 48 61 61 53 59 51 57 61 69 65 65 69 57 81 83 79 83 73 79 91 85 81 83 91 89 99 107 101 105 101 101 95 99 103 109 113 126 124 126 136 130 134 128 130 152 226 308 385 409 454 503 509 524 505 456 460 466 454 427 409 389 391 391 360 352 344 370 409 385 342 306 252 
16 34 51 42 55 38 53 51 51 44 67 61 42 53 55 75 75 53 79 61 73 75 91 81 85 93 79 89 93 87 91 87 103 107 93 101 103 107 89 93 107 107 111 118 126 120 126 132 140 142 128 162 198 248 332 501 524 522 538 551 559 567 561 571 555 538 530 497 448 417 397 366 336 348 350 377 338 292 276 256 
18 34 44 59 32 55 38 38 34 44 57 44 55 51 55 55 55 81 63 61 75 73 85 73 95 75 71 85 87 87 89 83 97 101 101 95 97 87 97 91 111 103 109 113 109 120 138 130 113 109 113 166 224 278 409 514 518 534 526 544 545 555 573 569 575 557 544 540 505 436 391 332 334 340 328 306 286 240 248 220 
6 46 34 38 48 40 26 48 48 57 53 38 40 53 67 61 53 65 79 63 65 65 79 77 87 71 85 95 79 83 83 87 91 93 89 91 103 95 85 95 103 105 107 107 105 113 118 124 116 120 116 200 252 302 440 530 538 528 534 555 549 538 540 530 542 530 538 536 514 419 366 336 330 342 294 292 286 262 258 232 
20 32 26 53 59 61 32 38 38 59 42 67 51 57 67 53 71 63 61 69 65 67 71 75 73 77 85 81 87 83 73 93 93 89 105 83 97 87 87 111 89 103 95 97 101 105 105 124 116 118 132 182 260 300 407 505 542 536 518 511 489 507 458 464 478 491 478 489 493 403 334 324 312 290 284 320 308 278 246 244 
18 36 40 46 40 30 38 40 40 61 57 51 38 65 59 48 69 61 61 67 67 77 87 67 79 85 83 87 91 83 87 101 91 91 93 85 99 87 97 91 79 101 93 95 122 99 101 107 105 99 107 154 276 260 358 419 495 532 524 480 478 456 421 429 433 442 470 472 448 395 358 332 314 294 300 314 300 290 266 212 
28 28 40 34 46 34 18 55 32 44 42 55 42 42 61 55 63 51 65 65 61 67 57 71 71 73 85 83 81 83 81 81 89 89 93 97 95 83 97 95 89 101 99 93 93 97 107 103 99 105 103 120 182 280 346 411 470 511 532 540 499 448 395 421 409 448 452 472 419 379 379 344 324 328 310 308 278 264 258 192 
4 28 34 26 55 30 36 55 34 38 26 44 48 38 53 40 51 55 63 61 67 71 67 63 67 87 75 81 81 95 79 83 93 79 91 91 105 85 83 107 93 79 91 85 75 81 79 87 85 85 101 95 105 184 288 368 397 489 524 551 507 499 470 462 433 407 419 433 403 405 397 360 336 326 304 310 302 290 250 182 


