P2
80 60
576
130 126 96 104 114 108 116 120 114 120 118 128 126 124 118 102 122 122 120 116 128 110 116 128 112 118 243 393 397 376 357 347 384 527 565 534 523 496 475 282 206 194 184 198 208 198 243 235 229 225 255 267 255 253 251 243 221 212 212 216 227 218 233 221 216 221 206 227 214 212 216 221 237 231 251 245 235 212 219 241 
122 112 92 124 106 104 102 106 92 118 120 138 110 118 104 118 112 112 112 120 124 102 110 120 104 162 357 397 380 362 357 357 386 477 530 530 517 500 448 360 314 331 331 281 261 243 288 275 241 259 259 304 284 267 259 249 245 235 235 241 259 259 261 249 259 282 255 239 231 208 218 257 251 253 255 245 249 249 247 249 
106 116 110 102 122 108 100 110 102 134 126 110 110 102 112 102 112 96 106 114 108 112 106 120 110 204 382 407 372 349 339 388 421 430 469 517 508 463 434 378 362 353 318 265 263 257 281 275 251 271 292 312 294 282 282 263 265 255 259 279 277 271 271 267 282 304 275 255 214 184 208 255 263 255 239 223 237 255 249 243 
118 116 106 106 110 112 112 122 104 116 112 110 116 96 122 108 112 108 128 118 124 122 116 122 128 184 384 419 401 374 376 422 428 417 475 513 492 442 397 351 339 333 312 279 267 245 263 249 245 263 300 314 312 265 261 259 275 269 263 273 259 282 277 277 275 286 288 265 259 216 214 233 275 251 251 227 243 257 235 253 
106 112 106 110 104 114 110 120 110 112 114 114 124 116 118 122 120 126 120 120 124 112 112 138 138 190 372 440 455 446 436 457 448 413 452 481 455 405 370 316 318 318 310 273 257 243 241 227 218 247 302 310 302 300 284 273 288 275 269 275 284 259 300 300 286 308 298 275 275 245 249 263 281 269 267 247 247 245 235 231 
110 108 102 118 122 116 112 112 114 124 120 122 130 148 134 136 134 128 132 130 132 130 138 148 160 233 368 452 465 473 453 444 455 401 432 417 413 384 364 343 335 326 302 288 257 245 247 235 206 253 296 324 310 326 304 302 322 296 284 308 312 318 316 328 349 333 333 326 298 277 302 316 306 292 273 261 243 257 259 251 
102 102 104 106 110 126 114 130 118 122 130 120 128 134 130 128 130 144 146 174 164 174 158 176 186 288 329 442 461 479 457 467 432 386 405 395 384 366 368 337 324 312 300 294 271 229 247 223 206 221 286 284 279 284 294 281 294 322 329 326 347 341 366 362 382 380 370 339 341 312 322 318 294 296 277 273 261 271 247 243 
128 110 92 108 126 146 102 114 106 126 102 124 130 146 120 132 132 154 190 255 324 357 318 347 355 483 527 442 446 467 473 475 426 376 388 376 357 349 359 337 328 318 308 275 259 231 219 219 204 227 294 263 261 257 261 277 304 314 320 335 351 347 366 349 368 366 360 326 312 296 302 324 294 284 281 263 237 249 251 247 
116 118 112 118 104 120 112 122 112 114 110 114 128 136 136 130 170 239 362 432 509 536 546 532 527 553 569 481 421 459 446 461 430 409 395 374 380 366 388 360 335 312 312 273 261 239 221 214 196 204 273 247 241 245 257 294 320 333 364 364 374 368 399 366 359 360 343 328 308 277 259 288 294 281 259 237 235 231 198 160 
120 110 110 116 106 120 114 114 104 120 126 132 142 120 128 146 200 335 436 509 576 569 567 555 536 540 548 519 419 422 424 484 479 463 455 376 370 378 391 380 337 320 318 286 267 237 216 206 188 204 247 255 245 257 275 308 306 376 393 382 390 390 372 370 368 368 337 328 288 245 255 257 265 257 208 190 158 150 132 134 
110 98 106 118 118 116 114 120 116 118 114 104 124 120 128 146 239 364 479 504 559 536 509 529 477 475 509 525 448 405 444 484 477 452 399 345 347 372 378 380 360 328 306 282 257 231 219 210 198 196 225 273 282 284 304 300 331 386 384 362 374 333 347 353 345 326 294 275 235 198 206 212 202 164 140 134 118 134 122 114 
112 106 128 116 118 112 122 104 106 114 128 120 126 128 142 152 247 386 484 452 553 530 455 459 471 415 370 390 390 450 477 473 461 401 388 368 376 391 409 393 384 349 331 304 273 249 239 214 210 194 221 263 298 306 326 308 333 343 337 333 322 308 312 290 263 251 237 221 188 180 172 178 168 148 146 126 128 110 122 100 
114 110 104 116 126 124 114 116 108 124 124 124 132 134 124 134 218 360 500 504 492 498 483 481 459 306 210 261 328 438 455 465 452 421 409 390 401 391 395 382 386 382 360 331 294 255 245 241 206 200 200 263 304 296 308 290 288 288 288 282 296 265 239 198 174 178 172 162 168 154 150 156 154 164 146 122 114 130 108 114 
114 118 112 114 120 124 122 116 108 122 122 116 120 134 124 118 182 284 432 506 463 517 477 442 281 162 162 218 290 450 461 444 428 403 411 399 413 422 428 411 417 415 411 366 288 261 265 257 241 225 221 257 312 296 296 284 261 245 241 214 194 168 152 142 134 156 164 166 182 164 162 162 160 154 136 124 124 112 110 116 
130 120 114 114 102 110 120 106 114 122 116 114 122 122 108 112 152 186 279 407 386 316 216 184 140 136 170 194 265 442 448 442 386 364 411 424 417 440 450 455 477 484 467 399 249 212 223 221 223 218 218 231 273 229 202 196 178 164 156 150 168 140 152 154 158 168 164 172 174 172 170 178 158 150 146 126 126 128 114 120 
126 120 116 94 108 126 122 120 108 122 110 106 116 124 116 120 118 128 154 196 198 146 142 148 140 148 168 216 329 421 386 390 370 368 391 378 409 434 459 486 502 508 475 345 227 210 225 210 218 200 204 188 168 146 156 150 160 144 156 146 156 154 158 154 160 168 160 168 188 154 170 174 162 156 148 116 136 132 120 100 
110 108 110 104 116 104 116 116 108 114 114 106 120 124 134 130 136 136 124 130 128 126 134 158 150 150 190 241 333 267 219 255 265 286 326 351 355 362 393 432 481 484 436 366 349 328 275 241 216 214 200 184 176 152 152 156 142 154 166 158 160 150 176 160 154 160 160 162 176 166 176 176 170 152 136 128 128 130 114 136 
116 118 102 114 104 108 104 114 102 126 118 112 138 134 118 132 134 136 142 154 150 128 128 146 148 164 178 214 198 212 204 208 223 281 351 364 355 359 359 390 419 422 444 450 465 473 452 308 249 219 198 178 170 156 160 152 172 154 156 152 184 166 164 150 148 156 150 160 164 182 174 168 162 152 154 134 132 132 134 142 
120 122 130 106 116 118 114 120 110 122 120 122 126 130 138 130 136 136 142 152 150 146 146 162 156 152 164 174 174 198 186 218 263 343 403 395 376 372 366 360 382 413 428 432 440 450 473 428 298 245 188 192 170 180 190 200 214 212 204 219 202 204 156 144 140 154 146 158 162 174 170 170 164 168 160 152 142 164 142 134 
132 118 110 120 114 116 108 124 124 124 132 134 120 118 126 134 128 136 144 140 148 146 146 166 160 154 150 174 166 178 184 259 329 359 353 341 360 380 370 380 391 374 384 355 384 401 428 450 415 292 194 168 184 206 202 206 218 231 212 206 190 178 162 118 140 144 156 144 176 180 206 198 210 253 257 231 210 202 178 158 
118 134 92 118 130 110 106 124 114 114 132 124 132 128 120 126 132 142 126 138 144 144 158 166 146 156 158 170 168 190 186 310 300 290 282 312 345 376 376 357 308 273 218 204 212 284 376 391 415 388 249 190 172 194 198 214 202 206 196 188 172 162 152 154 156 184 170 174 188 249 257 259 282 302 328 304 284 288 271 251 
108 122 124 110 124 116 124 116 118 110 130 124 130 120 124 140 130 130 146 148 138 150 148 152 160 156 176 174 160 192 225 294 269 263 294 312 331 302 308 265 261 255 176 118 144 166 227 337 391 399 395 296 216 184 188 194 188 206 184 150 148 128 132 134 160 186 196 202 208 263 261 275 259 279 314 304 306 302 286 294 
130 134 108 124 114 118 104 116 108 122 116 124 134 126 122 134 130 138 126 152 142 164 166 184 200 243 237 198 198 212 235 302 282 277 284 316 300 296 292 261 277 225 186 170 146 110 194 241 318 424 453 434 403 337 286 225 229 229 210 168 158 130 162 172 150 192 212 227 237 282 271 259 261 271 284 279 302 298 294 318 
126 114 114 108 120 112 106 112 112 114 122 122 126 144 136 138 130 132 146 160 164 180 247 273 322 452 438 368 347 353 374 362 294 312 277 288 253 235 202 223 249 235 261 251 202 132 190 233 247 411 452 469 432 422 357 263 223 204 221 194 172 160 219 202 192 186 214 231 255 306 271 265 247 259 282 273 271 300 282 286 
112 120 112 118 104 112 122 108 110 114 120 128 128 132 128 120 136 124 146 142 178 265 294 333 430 515 513 508 500 523 475 421 277 326 304 200 186 108 74 136 214 243 269 243 180 148 194 233 223 329 424 436 424 436 413 300 247 196 174 158 170 210 221 233 218 204 210 208 261 275 241 243 239 241 253 239 231 210 204 170 
118 118 114 116 126 108 110 108 116 126 126 114 122 130 134 126 142 130 148 164 219 298 335 411 527 557 557 542 490 508 488 409 284 335 304 188 114 4 24 130 150 227 261 245 184 152 186 231 223 267 411 442 419 428 390 288 257 223 188 182 235 275 273 255 255 245 235 212 241 225 221 219 218 198 202 190 190 186 160 176 
122 124 120 116 106 108 114 108 110 112 120 112 126 114 132 120 128 130 136 148 243 339 357 471 542 527 513 525 479 500 486 391 302 382 345 212 128 0 32 126 140 221 259 233 146 126 186 198 218 263 372 442 438 417 378 298 255 243 212 208 251 237 235 227 235 233 237 267 275 265 237 223 208 206 223 184 194 206 223 229 
126 120 112 122 110 104 108 116 116 118 130 116 110 114 116 122 120 128 126 150 255 335 366 498 529 498 486 509 463 459 463 351 308 382 322 182 84 54 86 108 186 227 239 198 128 102 190 216 239 302 397 426 434 426 364 257 251 249 218 214 237 223 229 218 225 225 275 322 316 286 271 259 251 263 282 279 275 294 288 292 
124 128 112 122 116 128 102 118 116 122 124 126 124 114 118 120 116 122 132 140 206 326 386 481 521 532 498 515 397 322 366 324 320 353 271 192 146 168 140 118 210 229 206 124 128 136 190 218 288 376 409 411 391 349 259 247 245 231 206 190 218 225 225 218 219 237 269 308 310 281 273 279 267 253 269 269 292 331 308 277 
132 116 110 110 128 110 114 100 114 110 114 120 116 114 110 112 114 118 130 124 164 235 326 310 343 382 378 286 190 198 241 288 282 279 265 251 257 279 259 233 219 178 118 82 134 168 206 279 357 388 378 328 239 214 231 233 216 202 184 180 219 225 196 210 198 221 251 304 328 281 282 292 282 290 300 308 329 314 292 294 
104 110 108 100 116 120 122 100 104 110 122 114 108 116 126 112 114 120 132 134 156 180 170 176 160 180 172 174 160 178 221 284 273 257 253 255 281 337 310 253 218 164 94 102 156 174 267 366 380 384 326 218 194 178 204 200 182 172 174 162 202 194 204 196 202 218 212 288 308 277 282 286 277 306 294 306 302 273 229 186 
118 122 104 116 112 116 104 116 122 118 110 116 110 116 122 132 130 122 144 144 140 158 146 158 144 152 160 154 168 162 200 279 306 245 227 237 259 306 326 275 219 176 162 126 180 279 386 417 395 374 271 196 196 162 162 184 172 160 164 160 182 178 198 188 188 194 188 214 261 259 249 255 255 263 249 245 216 176 136 150 
102 130 110 106 114 114 104 114 118 114 112 114 134 124 128 128 124 122 140 128 132 150 162 152 146 142 146 156 156 166 188 273 366 290 235 184 198 290 351 349 331 288 225 132 277 393 434 413 382 312 273 227 210 174 156 172 156 140 146 140 154 156 164 168 170 176 154 174 218 192 188 188 180 178 144 136 118 132 116 124 
106 126 112 118 104 116 110 102 114 134 124 112 132 128 128 114 128 116 128 132 130 138 146 154 144 146 158 162 164 184 182 216 335 310 324 292 302 341 351 347 407 424 384 349 415 421 434 409 298 229 253 233 223 168 146 160 156 148 134 150 162 164 152 138 136 166 158 168 190 170 184 188 166 156 144 112 116 134 114 100 
100 102 106 106 110 112 108 100 114 110 126 108 128 140 122 128 132 132 138 126 134 126 120 138 134 152 158 160 150 174 180 174 265 328 362 349 347 359 343 355 442 428 419 428 446 434 417 351 186 184 184 176 186 170 154 164 152 148 154 160 150 142 136 136 136 160 160 182 186 188 184 180 176 156 132 120 108 130 116 108 
94 132 112 118 112 122 114 108 106 116 126 118 132 128 128 128 132 134 140 144 130 138 124 144 146 144 158 164 148 176 178 178 198 267 364 376 364 353 391 428 440 434 419 422 430 405 328 218 160 174 176 160 174 178 174 154 154 150 140 144 136 152 146 134 148 160 164 172 192 168 182 178 160 146 132 122 130 108 100 118 
106 106 110 118 110 118 110 116 124 118 116 124 134 120 124 132 134 126 130 136 142 122 148 148 138 142 164 172 176 239 294 324 345 351 364 372 376 374 409 434 434 407 399 390 372 296 194 166 174 174 162 162 164 166 174 166 150 142 130 144 142 144 148 128 148 162 152 160 172 172 168 166 164 152 136 124 116 124 106 102 
114 120 98 104 114 110 112 112 118 120 122 116 120 120 132 130 134 138 132 144 140 148 130 154 158 150 162 200 292 349 362 382 399 393 397 386 388 388 446 442 430 376 310 231 186 138 150 132 148 176 172 162 166 166 162 164 154 142 138 146 136 134 150 126 142 154 162 168 176 168 168 166 156 164 144 108 110 108 96 102 
118 114 96 100 110 112 112 126 106 118 118 114 120 132 126 132 138 132 134 144 134 154 130 154 150 154 184 294 395 376 347 378 386 386 411 391 407 411 461 457 448 455 424 339 164 120 136 158 164 170 174 158 162 176 178 176 148 146 150 142 146 144 136 138 140 158 146 160 162 146 156 172 166 162 148 144 146 144 140 150 
120 120 110 90 100 94 104 104 122 120 114 118 124 120 134 134 140 130 140 122 128 136 144 160 152 164 210 374 401 380 351 353 359 395 397 397 409 399 450 440 434 448 448 438 359 194 170 144 154 170 186 178 182 204 214 221 198 168 184 180 172 152 150 124 126 126 132 150 152 162 172 166 184 194 182 188 204 206 174 170 
112 118 104 120 100 114 112 108 102 116 110 120 128 130 130 144 180 196 196 164 150 158 150 150 158 186 286 393 403 409 368 316 292 345 395 397 374 366 424 424 434 452 455 459 440 360 284 229 225 219 229 233 239 255 239 243 206 202 206 204 188 176 160 134 106 126 128 154 160 176 200 245 275 316 328 304 296 288 263 245 
112 128 108 106 106 106 102 114 106 128 118 108 112 128 158 225 333 409 395 372 296 259 198 156 164 208 326 364 343 357 322 288 300 314 314 294 281 281 328 388 415 417 428 436 442 409 370 300 245 251 259 251 255 263 239 241 231 225 210 210 182 178 156 134 118 118 136 152 140 160 219 257 294 318 349 349 322 318 294 300 
104 102 88 104 108 106 106 102 106 108 116 114 112 150 190 318 444 440 457 496 490 469 405 241 202 308 386 351 359 364 351 322 320 328 302 231 200 168 210 279 370 372 372 419 436 399 395 351 265 253 275 267 263 267 247 261 253 227 223 206 194 174 168 152 128 132 132 126 154 146 212 231 281 312 328 326 320 333 304 294 
114 122 104 106 114 114 120 114 102 108 108 118 132 132 241 357 450 473 513 544 513 490 483 465 390 430 428 382 364 364 353 351 331 322 241 160 108 122 184 261 320 333 357 368 401 393 409 391 326 267 257 267 271 261 251 247 239 229 225 192 206 192 170 162 128 150 138 150 176 166 192 225 253 302 335 333 320 318 296 265 
104 104 104 116 118 112 110 110 110 114 118 124 130 140 241 360 424 479 527 519 486 405 438 461 465 469 448 359 364 349 316 320 300 247 182 114 52 52 160 253 314 322 328 322 349 372 388 382 351 296 231 257 255 237 245 247 235 229 212 196 198 192 182 166 154 152 166 180 204 194 225 235 269 281 322 300 294 271 253 202 
100 104 100 110 120 112 106 102 128 106 120 102 124 132 223 349 407 450 527 515 461 386 442 428 477 461 442 333 331 337 288 249 229 221 174 114 52 68 216 304 292 308 310 324 304 335 378 374 366 328 241 229 233 223 231 231 216 204 202 188 180 178 198 172 164 150 166 223 214 198 202 192 214 196 194 196 194 198 178 144 
100 112 106 110 108 116 116 116 122 120 120 122 130 140 190 314 430 453 521 486 483 473 477 448 461 453 419 306 306 298 251 245 208 206 186 120 68 178 279 318 296 298 324 324 296 300 355 368 372 355 296 233 251 231 219 227 216 198 202 186 194 180 208 172 158 172 170 214 204 170 160 172 154 148 148 144 150 160 140 150 
90 108 108 104 116 110 110 96 112 114 116 118 134 128 142 186 298 374 455 477 481 483 471 444 446 434 382 328 282 269 245 227 200 194 160 88 76 210 310 333 318 302 326 318 284 288 320 331 351 360 345 294 273 328 288 267 243 214 206 198 212 178 186 170 166 172 158 192 180 160 158 158 140 134 132 138 126 132 128 128 
118 114 106 110 110 98 102 104 108 116 110 114 112 128 124 136 168 182 225 282 298 255 239 241 320 388 359 335 290 267 241 233 186 174 124 54 54 180 298 328 302 298 316 314 304 300 284 294 314 372 364 326 345 374 355 292 219 225 216 219 182 180 160 152 158 168 166 180 188 162 160 150 152 120 120 120 116 130 120 132 
116 112 106 102 108 112 122 114 104 100 114 124 126 140 124 128 140 138 142 150 152 154 144 164 218 324 357 335 294 292 259 249 202 164 98 16 30 102 241 294 312 281 275 282 292 277 288 284 306 370 382 331 357 360 362 328 269 245 237 216 192 184 180 170 156 156 166 188 184 174 160 166 144 146 144 122 138 150 124 142 
102 110 96 110 96 98 112 98 102 102 112 122 120 120 132 110 112 130 128 118 130 132 138 140 186 306 328 318 282 271 271 263 233 176 92 46 40 94 204 275 277 282 259 245 257 247 263 269 331 368 370 353 349 349 357 359 326 259 216 208 204 196 200 160 166 162 158 178 164 142 168 180 202 192 219 202 180 196 156 148 
102 98 116 100 108 96 112 106 112 110 98 114 118 112 114 122 116 120 118 116 120 118 118 136 148 302 341 320 284 269 253 290 253 178 120 88 86 156 255 277 277 269 253 247 233 229 261 292 366 403 388 397 395 360 328 279 253 251 216 216 206 225 184 172 172 172 152 150 132 130 150 194 231 241 263 271 282 281 245 208 
88 104 96 108 104 108 102 102 100 106 108 96 114 108 118 116 104 116 124 118 124 132 126 134 136 241 359 343 282 257 241 241 243 214 184 148 156 196 249 271 263 257 241 243 245 251 296 343 345 368 395 409 370 277 218 237 233 227 229 253 223 192 156 146 160 158 134 110 78 84 132 164 221 255 275 279 296 329 310 273 
108 110 92 94 104 102 98 88 84 104 98 98 104 116 110 112 104 108 114 114 126 112 110 118 122 218 343 335 282 263 233 212 243 251 265 245 237 247 263 279 304 294 284 290 318 337 362 345 333 324 384 339 265 227 202 237 229 223 237 219 204 192 188 172 162 152 100 78 82 104 154 208 241 279 290 304 306 328 296 273 
102 110 104 90 92 104 92 98 106 90 92 100 120 114 108 106 110 118 108 110 106 114 112 126 124 142 263 314 296 282 288 288 302 320 337 353 384 355 360 355 366 360 353 380 384 366 390 351 308 277 265 249 245 233 225 235 221 216 196 212 202 214 202 164 178 150 126 104 92 112 152 216 292 306 304 298 306 290 286 247 
98 90 86 100 84 86 92 106 104 90 100 106 98 108 100 100 120 106 98 112 100 102 102 120 108 116 184 296 329 335 310 310 320 306 345 395 417 386 401 417 395 395 409 419 405 386 364 314 243 216 218 225 239 255 247 231 216 200 200 194 212 178 160 164 150 146 136 126 126 116 166 202 257 273 279 233 239 221 196 182 
92 82 84 86 78 86 94 86 84 82 98 92 92 96 98 94 90 94 104 108 92 102 98 104 94 102 124 168 245 326 341 331 320 322 368 413 424 399 407 419 397 415 413 411 388 326 251 206 188 174 182 218 255 249 247 241 223 218 196 190 184 160 160 140 134 134 118 108 104 96 100 114 138 154 154 132 140 134 128 114 
66 78 68 72 74 88 82 68 80 90 94 76 90 98 92 104 102 96 92 90 86 86 92 86 80 100 104 108 112 176 214 257 284 288 345 395 399 403 399 390 413 413 426 366 251 148 124 122 128 150 130 180 198 214 241 239 221 225 200 180 180 162 148 150 134 122 98 92 94 82 78 74 88 114 120 108 116 128 106 116 
82 84 60 54 64 84 66 64 72 74 72 76 92 96 90 82 88 92 76 90 104 92 84 92 84 88 84 98 88 104 124 124 138 176 241 245 261 273 318 306 328 302 263 176 116 90 100 92 94 108 84 90 104 124 152 158 168 190 166 158 164 144 142 110 98 98 92 80 78 64 66 58 90 110 108 100 104 106 98 112 
88 80 78 68 64 94 62 84 84 72 68 68 92 68 66 86 92 68 88 88 76 72 80 86 84 74 84 88 84 84 92 110 80 84 128 114 100 108 130 136 134 126 132 126 88 78 88 96 92 100 76 54 58 82 86 98 78 94 100 104 94 90 82 80 84 74 72 78 68 48 64 60 88 96 98 100 108 122 100 98 


