P2
80 60
502
51 38 26 51 47 36 53 63 63 59 49 51 47 59 53 53 49 49 49 38 47 45 42 61 109 283 356 367 371 352 348 369 451 502 480 420 328 334 369 360 350 322 312 346 377 409 397 389 381 373 365 324 277 259 231 219 217 199 203 211 217 221 243 239 243 285 285 271 245 239 235 241 261 263 249 259 263 269 257 229 
36 47 28 36 53 51 57 63 57 57 55 55 42 36 51 65 57 38 32 42 55 45 40 57 207 328 346 385 362 342 358 377 422 432 426 401 344 360 350 369 338 336 322 328 352 338 350 362 403 395 373 293 267 293 308 285 255 219 213 215 219 229 247 247 265 297 297 269 257 247 207 221 249 249 257 249 233 255 249 223 
28 55 36 55 73 47 55 61 59 65 51 36 49 51 69 53 53 32 47 38 42 49 42 75 233 340 367 369 340 306 336 352 393 387 369 350 344 336 346 362 342 340 308 304 338 308 289 289 328 391 356 285 297 324 316 322 310 241 221 237 245 259 265 293 291 310 301 281 273 223 193 213 227 229 235 219 193 207 213 183 
34 36 36 47 55 51 61 73 42 40 51 49 49 42 57 40 42 57 57 51 45 53 57 75 215 369 381 350 324 336 328 354 364 373 348 336 316 322 324 342 338 330 304 302 289 297 263 227 217 297 326 295 295 322 330 328 306 269 263 247 273 308 301 318 299 310 302 275 239 215 207 205 225 199 211 183 199 201 211 207 
26 45 30 55 47 49 47 57 45 53 42 38 63 42 57 63 61 81 55 63 49 57 71 89 201 371 405 381 356 356 365 338 375 358 314 316 320 334 344 340 324 320 285 267 257 257 233 209 215 223 295 291 293 297 304 316 285 269 279 275 310 318 330 342 336 350 324 293 275 259 259 271 285 247 247 233 227 225 243 203 
22 28 45 47 49 32 71 40 45 65 55 63 55 59 81 79 83 109 97 115 89 87 85 113 209 336 411 405 397 375 381 385 367 332 314 301 330 330 340 342 320 304 259 239 217 215 213 203 191 199 253 281 247 233 245 261 271 281 261 293 299 322 332 346 338 342 350 318 295 277 269 289 279 277 271 251 249 261 243 207 
14 55 45 59 40 57 55 67 59 63 55 55 59 55 81 113 139 223 287 304 310 241 225 225 314 308 401 420 434 407 389 387 367 328 302 301 324 330 338 326 304 275 241 231 223 215 199 185 187 183 225 247 221 219 223 227 245 265 281 297 314 338 350 332 322 340 330 302 293 283 251 257 269 297 308 291 271 269 257 197 
26 36 42 40 57 45 55 71 51 81 55 59 85 65 89 175 255 310 414 453 459 418 418 434 465 416 379 403 424 436 418 389 379 334 310 306 360 346 360 334 301 275 241 237 225 217 189 189 181 173 227 239 215 189 177 201 243 304 322 328 336 364 344 330 344 364 340 285 265 241 221 215 271 297 320 306 271 229 219 161 
42 45 51 57 63 55 61 77 61 47 63 63 79 69 117 267 326 393 492 471 494 455 416 449 467 473 453 365 416 422 407 389 365 330 304 326 367 365 356 346 310 275 245 225 211 199 177 167 185 181 207 215 193 187 183 209 273 326 320 332 362 348 328 336 320 324 304 267 281 209 193 211 219 223 219 185 179 137 137 113 
45 47 49 55 53 55 59 65 49 55 59 79 77 77 137 293 352 397 443 467 461 455 414 426 459 461 478 364 369 364 356 324 308 318 302 316 336 340 346 326 277 249 253 221 227 209 199 181 189 173 187 211 203 179 201 251 265 302 314 318 330 314 308 301 271 281 261 207 211 167 173 165 165 137 121 133 115 103 111 93 
26 24 45 67 59 45 53 77 57 57 49 65 63 77 155 263 411 393 434 436 411 407 403 377 385 411 424 397 389 397 367 360 344 332 318 328 344 336 338 320 281 259 249 227 231 225 215 203 193 183 187 203 219 217 237 259 273 273 269 279 273 283 253 235 221 213 201 167 137 121 133 151 149 129 125 115 117 117 105 87 
26 32 53 47 55 59 55 67 49 53 45 61 42 63 113 239 375 411 395 416 416 434 399 348 205 195 273 312 411 416 428 412 389 367 320 314 334 352 352 324 297 267 245 243 237 227 209 207 201 177 187 235 257 271 271 251 245 267 255 235 237 193 183 155 125 123 131 149 141 131 131 135 135 111 129 113 131 111 109 81 
32 42 38 42 51 53 57 61 53 47 51 65 59 67 69 171 281 383 387 447 438 399 354 213 89 93 139 217 379 412 418 432 436 385 342 310 291 310 301 297 267 277 281 293 293 295 269 241 241 197 219 273 310 306 293 263 281 275 173 149 135 119 117 99 99 115 129 135 139 127 125 137 135 121 119 131 111 127 103 101 
22 53 49 47 47 57 40 59 53 49 53 69 63 59 69 87 193 257 297 271 215 171 123 87 87 73 97 127 320 385 387 373 389 371 334 308 312 348 338 356 365 401 389 397 420 455 432 414 369 281 265 301 301 301 249 229 187 131 99 89 95 103 109 99 97 127 143 133 143 133 117 127 135 125 117 101 111 105 111 93 
28 51 51 51 65 55 47 67 55 49 49 45 49 36 61 65 89 93 83 93 69 51 63 69 63 61 83 81 167 320 348 330 332 336 316 310 320 342 367 375 373 412 412 418 418 432 432 420 412 362 322 304 227 181 123 103 97 91 89 101 107 113 103 121 103 139 141 131 149 145 131 135 135 121 125 111 121 113 109 119 
51 42 36 59 49 61 38 53 59 55 51 59 61 47 55 53 61 57 65 51 47 51 65 63 67 69 85 101 115 145 179 235 301 338 334 283 255 245 235 227 203 219 251 287 326 328 320 297 289 271 251 207 145 137 137 123 133 103 107 83 119 117 121 113 123 145 153 151 155 147 135 143 135 133 139 121 113 111 113 99 
42 34 57 49 55 30 53 47 55 63 63 53 61 51 61 59 69 55 61 65 57 55 71 87 89 73 89 111 105 111 123 139 197 233 249 251 243 231 231 225 209 213 243 247 310 360 375 342 340 304 269 265 285 302 314 332 299 205 131 105 117 123 121 123 119 131 147 143 141 127 131 139 135 123 111 107 109 113 109 111 
28 45 28 45 42 47 51 45 55 59 36 49 51 51 67 63 61 59 59 83 77 61 59 71 83 85 111 105 113 123 123 123 177 227 239 245 245 257 271 243 287 316 342 334 348 360 371 354 354 332 283 291 358 381 383 377 391 346 155 107 119 111 105 139 121 131 147 135 139 135 131 129 135 131 117 125 119 123 115 113 
38 61 55 61 51 47 63 61 51 49 63 57 51 57 67 63 71 69 73 63 73 67 75 69 91 73 93 101 123 121 109 137 199 259 263 249 235 251 281 251 297 316 346 352 336 340 338 324 362 332 269 261 310 381 375 375 365 393 221 137 127 127 117 129 135 137 139 145 137 139 131 145 133 139 137 125 125 137 127 113 
34 47 40 71 59 42 51 69 67 47 69 65 47 53 71 71 75 67 61 69 63 67 77 71 87 89 89 97 99 117 127 167 291 301 277 207 151 137 235 247 241 289 291 301 289 287 299 271 239 229 215 207 195 265 328 364 369 336 297 217 207 177 125 97 117 117 147 139 143 143 127 143 141 153 133 133 115 139 129 117 
32 55 57 57 45 42 47 65 45 51 55 55 57 65 57 75 65 69 55 59 67 71 85 79 85 77 93 93 109 119 127 233 297 283 291 255 235 197 205 227 205 179 127 141 193 193 199 181 153 183 205 171 137 191 221 255 287 267 255 239 237 193 129 105 71 67 85 103 127 129 135 147 133 119 135 123 133 121 121 121 
26 51 53 42 45 34 55 61 57 40 45 42 57 67 63 59 53 59 59 69 65 59 65 77 89 67 99 93 101 115 139 257 273 283 320 328 271 243 185 155 133 123 139 167 175 165 149 127 129 151 177 169 133 161 209 213 253 243 237 219 207 153 109 75 65 61 59 65 111 141 139 147 145 143 141 133 135 141 133 127 
42 38 61 67 61 57 49 55 53 51 53 61 57 51 63 71 75 71 55 51 75 71 65 89 101 89 101 101 115 121 155 249 277 316 377 330 251 219 153 159 153 137 161 163 121 123 127 123 121 137 181 161 167 179 209 209 189 173 167 139 125 109 77 75 59 47 47 83 153 201 179 211 229 231 241 197 165 161 145 147 
28 49 51 53 65 59 38 42 53 55 53 61 57 71 63 65 63 69 61 67 85 79 105 113 159 161 139 127 133 165 207 251 279 314 342 285 223 173 131 165 177 159 145 143 135 129 131 129 135 123 163 141 183 211 205 187 161 127 131 109 91 75 71 81 61 38 53 73 179 233 223 247 251 297 302 281 281 231 201 171 
30 53 53 65 61 63 59 65 59 61 61 63 55 67 59 55 67 57 63 71 117 179 237 261 371 367 344 295 306 275 269 243 283 287 239 209 177 111 123 163 185 153 145 149 157 113 161 163 149 147 141 127 183 211 207 209 169 141 121 131 133 115 91 95 63 59 40 83 201 223 217 233 221 265 271 279 277 283 273 217 
42 55 45 63 59 51 67 55 59 73 69 57 61 53 65 61 73 67 55 113 227 243 295 377 459 451 457 428 424 391 293 259 295 287 229 175 125 79 143 177 153 139 135 161 161 139 163 165 167 161 131 127 167 221 213 191 149 161 169 173 177 157 177 179 109 83 73 107 231 233 191 201 201 219 235 251 249 253 261 251 
32 53 63 40 38 47 63 67 57 49 42 51 57 57 67 65 57 59 63 123 249 261 301 414 469 474 480 424 387 383 306 259 316 293 225 163 97 69 123 163 139 125 127 151 145 139 161 161 149 137 125 151 183 209 193 175 145 187 187 183 197 187 209 259 227 179 129 185 257 193 173 179 193 223 225 237 229 215 237 235 
28 55 47 49 55 42 51 55 55 47 49 55 42 59 65 51 49 57 53 135 265 289 330 457 469 377 442 407 375 379 304 277 336 285 241 207 127 75 115 129 107 133 143 171 115 129 147 165 155 141 147 173 199 211 171 147 163 191 199 205 209 191 227 249 249 257 241 283 265 191 167 167 151 147 161 149 161 149 167 191 
28 57 49 45 55 55 51 51 42 47 47 59 42 49 47 51 61 59 63 131 257 318 401 447 455 397 411 418 377 379 306 263 285 263 229 213 177 135 123 91 133 147 169 161 163 143 151 173 167 185 167 189 191 175 151 153 169 185 199 223 219 211 217 255 267 273 265 265 185 161 159 141 147 127 111 109 105 113 125 157 
22 51 57 67 49 45 42 63 61 53 59 47 51 47 49 38 59 63 59 95 209 334 373 403 442 428 455 383 267 249 277 247 259 261 247 237 201 175 151 161 137 155 183 173 221 141 143 151 169 223 193 207 167 155 143 169 189 201 225 205 219 225 217 225 237 267 255 191 181 161 149 163 139 113 97 97 107 103 103 107 
36 51 51 57 53 51 38 51 65 55 57 42 57 47 49 45 59 53 45 93 193 269 271 237 275 308 249 135 127 157 237 219 243 281 261 257 249 201 181 177 137 149 179 175 221 143 155 163 173 243 221 203 175 153 145 161 201 225 225 217 235 205 235 235 245 279 231 175 169 151 153 133 135 103 83 101 95 107 97 89 
24 51 24 51 51 45 53 63 59 47 63 49 57 51 61 65 53 63 59 69 99 121 125 107 107 79 103 79 103 115 205 225 227 245 271 251 233 231 215 203 151 165 191 201 237 165 155 181 187 275 225 211 175 161 167 185 183 229 267 245 245 219 239 225 217 229 171 145 153 149 139 139 139 99 103 93 97 97 87 93 
30 51 42 65 51 34 47 63 55 55 53 61 53 59 67 65 61 53 65 51 69 71 77 79 79 75 75 93 103 119 161 215 189 219 245 219 225 213 213 215 187 181 201 267 251 181 175 191 195 257 233 201 189 169 193 207 177 211 269 271 241 223 215 187 173 145 137 145 151 157 157 139 127 121 105 97 103 93 93 95 
45 55 40 53 57 59 63 63 57 53 53 55 77 61 53 61 63 61 67 57 65 71 69 63 81 61 81 81 95 117 161 231 209 197 187 181 183 217 233 225 197 173 181 183 197 169 161 193 167 243 247 195 187 165 185 207 177 177 191 215 179 153 143 125 113 135 145 153 157 151 155 143 125 113 105 93 97 99 109 99 
32 45 49 63 45 49 49 57 55 49 53 65 73 73 67 65 69 55 63 45 71 61 71 81 73 63 77 75 93 103 123 215 223 179 87 53 87 169 191 275 269 193 143 109 101 99 107 129 141 181 205 183 165 145 147 153 139 139 119 107 119 103 93 111 121 133 141 153 159 163 151 155 143 127 103 113 91 101 113 99 
6 45 53 65 49 55 53 47 47 69 51 51 63 57 67 61 67 57 55 53 65 61 55 69 85 71 73 73 93 105 107 139 219 227 191 181 177 179 189 297 324 297 281 267 237 217 191 155 149 137 123 149 159 177 145 123 121 95 93 83 93 95 103 105 115 127 143 137 143 151 151 149 133 113 101 109 105 97 105 81 
24 34 38 57 47 38 49 47 57 61 53 59 63 45 59 67 57 53 51 49 69 51 75 65 71 67 73 77 97 101 109 111 149 209 219 211 213 197 249 365 350 326 332 326 314 320 316 291 251 245 207 257 328 360 332 235 199 131 85 79 105 93 99 97 119 129 129 129 135 153 129 151 137 115 113 105 107 99 109 81 
49 47 40 65 42 45 57 73 57 55 59 57 51 69 67 63 73 63 61 63 67 59 51 63 81 65 89 83 95 109 111 105 143 159 163 181 153 157 233 320 320 301 316 324 342 350 340 322 308 304 316 379 379 387 397 385 346 151 91 97 91 103 103 101 115 135 113 151 135 135 135 137 143 121 109 99 93 101 117 101 
20 53 45 53 49 55 75 75 47 59 61 63 59 63 61 73 73 57 61 45 75 67 71 77 79 83 81 95 99 119 153 177 239 251 231 241 209 187 163 159 125 151 199 283 322 320 342 330 324 330 352 356 405 416 395 367 332 143 93 93 101 85 107 123 117 133 141 149 133 141 135 127 137 129 121 119 113 117 149 121 
26 59 59 69 51 65 61 83 65 61 49 59 45 47 65 67 71 55 73 63 67 63 73 71 73 77 103 123 201 245 287 295 318 332 362 371 360 354 316 243 123 87 81 113 139 161 173 159 171 193 207 211 271 318 316 235 153 109 87 91 99 99 111 113 105 123 127 123 129 149 145 135 127 131 121 127 137 139 151 115 
14 59 51 61 45 67 73 71 57 67 55 59 55 59 63 59 71 55 55 65 69 65 63 73 69 81 107 215 281 295 297 318 346 362 407 403 389 403 364 330 247 115 77 99 101 97 109 125 145 135 141 133 129 139 117 103 111 99 93 75 97 99 105 109 105 127 121 133 123 123 139 131 103 123 133 125 137 135 137 115 
10 53 34 45 61 40 45 63 61 55 51 59 45 51 69 67 53 51 67 51 67 61 65 65 71 83 155 257 267 306 332 308 346 367 401 389 367 393 409 387 342 271 209 179 169 161 171 171 149 165 185 177 177 177 145 151 149 135 125 121 101 95 93 97 105 105 133 131 123 115 115 111 97 111 109 119 133 145 139 119 
40 63 45 42 55 57 61 67 51 55 53 57 51 51 65 71 57 69 75 63 67 63 69 61 73 77 195 263 251 243 295 318 328 354 375 393 379 389 407 403 389 336 287 215 201 193 183 173 155 199 213 205 195 179 157 173 179 169 169 181 151 147 137 111 103 113 109 115 117 113 117 97 111 105 111 125 129 141 137 127 
24 53 42 65 59 45 61 45 47 53 59 51 65 51 53 67 91 99 111 123 113 75 81 77 87 95 237 302 283 203 215 243 257 271 285 330 332 350 381 395 397 356 316 281 235 219 195 203 203 217 223 195 191 187 185 177 177 163 175 175 171 173 175 181 155 133 113 133 115 113 101 93 93 105 117 123 125 119 141 117 
24 49 45 65 59 65 57 61 63 65 71 51 55 65 73 99 189 277 318 367 369 291 215 123 93 137 263 291 261 211 217 211 181 159 149 195 247 295 342 365 369 354 338 314 267 219 193 207 223 223 225 205 199 201 207 191 199 199 187 181 171 181 161 145 135 155 125 111 115 109 111 91 109 111 133 119 135 123 139 145 
30 69 49 57 55 65 61 61 51 63 63 47 69 53 87 167 265 322 356 416 436 395 306 271 187 191 295 281 259 229 251 191 141 115 113 177 217 255 293 320 312 346 328 328 297 247 193 201 231 231 225 213 217 223 197 207 219 221 191 201 191 185 183 143 125 143 141 125 125 123 109 109 107 97 119 113 135 137 145 117 
40 55 49 57 55 59 69 75 55 61 63 61 71 67 101 211 316 326 365 432 438 401 377 360 304 324 314 273 267 235 213 151 87 91 123 173 207 241 263 259 273 297 324 316 304 320 243 209 221 229 247 239 225 233 217 229 249 235 211 191 187 191 193 183 137 119 115 109 139 131 115 125 111 119 125 129 137 129 135 115 
36 45 47 47 55 55 57 69 59 59 61 55 73 81 107 237 348 358 420 471 436 411 443 420 393 367 302 289 251 219 193 113 40 63 127 187 201 225 239 247 237 259 308 306 326 358 348 275 219 221 217 229 235 217 231 229 243 239 239 233 201 219 239 227 175 159 133 161 167 147 111 133 119 109 117 115 121 113 127 109 
20 57 45 65 47 65 67 63 57 55 67 59 69 71 105 231 328 358 412 459 463 457 453 453 405 365 283 247 231 185 167 117 36 32 155 201 211 221 225 225 227 231 263 308 316 340 369 354 267 227 223 231 211 207 221 219 237 241 253 231 217 235 239 225 187 167 177 237 245 209 149 139 129 109 125 129 123 133 119 145 
32 49 51 65 67 51 75 75 59 59 63 67 53 71 91 167 310 346 379 453 457 461 457 440 397 358 273 227 235 191 145 109 63 65 175 217 221 235 221 225 223 229 253 301 308 332 369 350 320 209 219 225 227 199 223 209 231 213 237 213 219 227 203 225 181 195 211 251 273 245 183 171 183 193 213 201 193 199 177 177 
24 63 51 67 61 40 61 73 65 59 57 45 77 59 85 109 185 275 302 371 393 383 352 354 350 338 283 233 217 179 147 99 69 69 149 207 217 209 195 203 195 219 247 297 304 314 334 318 320 253 225 225 213 211 177 197 205 175 169 169 189 187 195 199 191 209 195 179 169 171 177 199 223 233 267 263 265 275 253 239 
16 49 45 55 59 55 55 83 55 49 42 57 63 49 57 61 99 117 129 147 157 129 109 135 163 255 291 239 229 167 143 105 38 59 119 179 185 205 175 153 169 195 245 289 304 302 318 320 320 330 316 324 277 221 177 179 147 145 137 121 145 175 155 173 161 213 187 151 131 111 139 179 241 259 277 289 316 322 289 243 
26 32 45 53 55 63 57 79 42 49 67 61 67 61 75 75 81 73 75 71 89 67 81 71 77 103 223 247 233 183 161 119 59 63 113 187 183 187 175 141 155 169 237 263 271 291 265 297 350 365 369 348 293 221 171 171 153 165 165 171 183 173 151 137 121 151 133 103 75 89 135 171 215 269 289 306 308 301 293 265 
16 47 45 63 73 57 42 81 42 59 55 59 61 61 79 73 79 57 63 51 71 57 61 63 61 83 163 231 225 187 163 153 87 73 101 181 197 205 165 151 157 171 239 247 257 249 231 253 340 379 399 364 231 165 141 139 167 179 165 195 189 165 153 125 105 99 81 67 69 93 149 203 235 297 289 299 279 279 261 223 
40 57 38 57 67 59 57 67 57 57 51 51 55 67 63 71 73 59 51 51 57 67 51 65 53 49 115 231 229 179 169 191 133 83 85 161 199 207 183 175 169 207 233 221 227 207 193 189 217 267 297 221 153 147 141 127 155 157 151 165 153 143 135 113 81 73 71 61 93 107 147 201 265 267 259 239 205 173 163 175 
24 51 32 34 49 24 55 69 45 40 53 57 49 71 65 53 71 47 36 36 47 42 47 34 53 34 77 217 245 173 165 189 169 119 99 167 191 193 187 185 231 247 251 237 215 183 169 171 179 177 169 133 129 137 135 119 143 135 123 125 131 101 95 85 63 55 75 81 83 99 113 133 155 153 153 149 113 113 129 147 
14 30 42 57 36 32 40 47 42 49 30 47 47 49 49 57 47 34 49 47 38 45 38 34 30 26 67 181 247 199 159 165 223 227 233 249 267 237 233 231 263 287 271 245 205 169 159 161 155 133 139 135 117 135 137 129 127 119 119 105 97 87 81 65 67 85 79 83 83 75 69 85 99 99 101 117 117 119 115 125 
0 28 24 55 36 40 28 40 18 42 53 38 36 42 55 42 47 30 32 34 34 20 26 26 42 38 53 91 213 215 187 219 257 243 247 265 316 348 312 310 328 291 273 215 189 141 153 147 149 125 119 153 125 123 121 123 121 111 101 91 85 95 85 77 85 85 101 77 71 69 57 40 75 93 107 95 103 119 123 97 
4 28 0 28 38 40 28 26 14 28 34 30 32 45 40 55 24 38 28 26 26 16 16 30 32 28 24 59 109 171 211 221 221 229 235 247 326 350 342 340 322 314 279 169 93 93 121 123 137 129 119 153 139 141 131 127 127 117 101 81 95 89 83 83 73 81 81 55 61 47 53 49 51 103 107 115 95 113 113 91 
4 30 20 14 40 40 28 34 32 34 20 26 36 36 40 51 40 36 40 32 10 40 16 36 42 26 32 40 45 59 89 133 171 211 225 241 314 318 326 336 340 312 237 99 71 69 65 103 93 95 93 83 83 61 77 69 73 83 79 77 75 89 59 65 59 49 59 59 61 36 45 38 61 97 109 115 91 125 119 127 


