P2
80 60
594
148 146 132 130 140 132 144 132 146 158 144 152 146 146 144 122 162 150 144 134 132 146 142 150 142 184 351 440 396 372 369 444 539 539 542 531 541 531 516 343 269 293 277 249 269 257 267 263 249 257 259 277 269 261 265 239 228 241 245 253 255 237 257 255 267 255 245 255 245 245 239 239 261 245 257 261 243 228 237 259 
138 120 122 144 136 132 138 132 126 150 144 162 136 148 134 144 140 134 134 134 128 128 146 144 134 231 398 423 396 392 384 419 512 527 525 537 537 544 512 409 345 351 324 273 283 273 283 279 257 289 302 308 281 271 263 257 249 271 265 273 283 291 283 279 285 314 287 267 257 231 231 269 273 259 253 253 261 257 271 241 
144 134 132 142 148 138 134 140 132 158 136 136 130 138 138 138 142 116 122 124 118 138 136 144 148 257 403 423 372 388 411 421 452 454 462 520 546 520 495 374 351 332 302 253 283 263 273 271 253 296 318 316 296 279 277 261 273 273 267 298 304 300 289 285 312 316 302 281 239 210 208 251 273 257 249 241 249 267 271 243 
140 122 120 128 126 138 130 144 130 132 130 134 134 130 138 122 128 130 144 128 128 136 138 142 156 214 405 438 415 413 402 450 454 434 440 483 546 535 454 359 340 324 310 281 283 265 249 239 235 291 322 306 302 273 269 263 287 289 283 283 271 296 296 302 304 302 298 275 279 247 220 233 283 251 259 230 257 259 231 243 
130 136 136 122 138 136 142 150 138 142 136 142 142 140 144 146 142 154 136 132 138 144 144 164 170 226 400 464 481 462 446 483 469 409 388 454 531 510 421 341 340 318 302 269 275 251 237 241 226 293 308 312 312 316 294 285 300 296 289 296 302 291 308 316 324 330 322 296 281 271 271 277 293 277 271 253 257 253 239 251 
140 128 132 148 138 140 154 138 134 140 146 142 144 166 152 150 144 142 148 148 146 158 176 178 182 259 351 481 498 489 471 475 458 388 382 444 487 473 407 349 328 312 306 287 275 251 245 235 208 287 306 318 302 320 302 306 308 314 310 326 332 345 338 359 372 357 353 345 310 306 322 330 318 294 273 277 259 271 271 257 
126 122 134 130 130 146 158 156 146 136 152 160 152 142 140 148 150 156 150 184 186 218 218 218 239 336 413 456 481 504 477 473 452 376 390 456 454 425 365 330 322 326 310 293 291 241 237 226 200 253 302 281 279 269 285 279 304 336 349 334 361 371 388 390 403 400 382 355 353 336 330 328 310 304 283 285 285 267 259 253 
148 122 116 134 150 168 134 152 138 164 130 150 158 170 140 154 148 160 204 281 378 446 440 462 477 523 539 448 444 481 485 473 429 376 384 431 427 405 388 359 338 340 306 283 273 245 214 226 208 241 312 269 261 251 271 283 318 316 334 351 365 367 378 371 388 380 371 351 332 326 318 322 304 289 279 273 257 251 267 251 
130 124 128 152 136 140 140 148 146 150 142 148 154 166 166 142 180 214 355 436 508 563 577 542 529 554 573 489 429 464 438 436 394 367 402 431 448 403 396 365 349 326 310 285 275 245 212 222 212 216 287 253 245 255 279 294 314 347 386 382 386 384 402 380 374 376 355 345 324 296 277 294 296 281 261 251 233 226 196 154 
136 118 132 136 110 150 132 140 132 162 152 162 160 158 154 156 180 271 434 514 575 594 577 556 533 529 558 527 450 429 407 388 359 359 405 438 456 421 403 388 351 330 324 289 277 251 226 218 208 212 255 255 259 283 302 302 310 382 402 400 392 409 382 382 378 376 355 343 314 261 265 265 271 243 184 192 170 146 128 138 
124 114 130 144 140 140 138 144 134 154 134 140 152 142 148 160 198 306 473 495 573 548 506 516 491 469 489 493 444 458 460 454 446 403 419 450 460 433 415 390 372 349 322 283 279 257 230 226 218 210 233 269 294 302 320 308 336 386 388 367 376 359 357 361 367 338 308 289 249 218 220 216 208 166 136 140 130 134 120 126 
138 120 148 134 140 138 150 142 140 142 148 158 146 156 164 162 204 332 489 467 537 529 465 498 514 419 302 332 384 477 489 487 479 440 434 460 452 442 431 394 380 374 369 332 310 271 251 233 222 222 208 263 308 318 336 308 326 347 345 332 322 324 318 314 285 257 251 237 202 200 182 180 166 154 148 132 146 118 128 140 
130 118 132 138 154 152 128 152 136 148 146 152 146 156 144 148 184 312 464 520 477 529 514 510 471 281 218 253 294 446 465 496 462 446 452 452 446 417 427 384 388 390 367 336 324 283 265 263 233 226 222 261 312 302 304 281 277 289 296 287 291 261 245 218 192 184 186 188 178 162 160 170 176 162 144 134 134 136 130 124 
136 128 136 142 116 150 154 146 144 144 142 156 154 158 146 138 174 216 351 506 454 518 483 405 269 176 243 341 405 495 475 452 471 458 450 440 460 446 456 446 436 429 423 359 322 283 267 255 245 235 237 249 310 304 289 265 257 253 231 210 184 170 176 162 168 182 188 186 192 172 176 170 176 168 142 136 142 116 118 130 
140 124 130 140 136 142 136 126 140 136 134 148 138 140 136 134 156 152 206 322 361 355 243 194 174 178 224 345 467 512 491 429 433 434 436 446 456 462 467 473 493 489 446 310 265 226 212 220 218 220 224 210 228 196 178 174 164 168 164 166 182 156 168 178 178 184 184 194 198 192 186 182 166 158 144 140 136 140 124 128 
146 134 130 128 130 154 138 132 130 142 138 140 136 136 132 136 130 140 158 178 174 182 188 174 180 230 293 434 473 514 450 380 376 394 413 425 446 450 495 508 508 496 382 273 257 224 222 224 233 206 206 186 168 158 166 150 160 156 172 154 170 172 172 176 182 188 184 190 196 176 172 178 172 150 142 128 138 140 136 126 
138 122 140 122 142 130 138 132 138 138 136 146 144 144 144 142 150 148 142 148 156 164 158 178 196 251 291 347 427 438 322 247 257 271 314 343 378 369 415 452 475 464 433 411 380 267 243 243 224 233 208 190 186 168 170 158 158 164 176 172 182 166 184 176 180 168 190 182 194 188 178 182 186 150 130 132 132 146 128 134 
124 136 128 132 138 130 140 136 128 140 130 142 156 160 144 152 160 150 150 154 154 158 160 172 170 178 214 294 293 275 228 206 233 277 338 361 374 378 380 394 458 440 477 489 487 374 259 247 233 230 218 182 182 164 172 144 170 170 172 164 178 168 180 180 176 186 186 188 176 198 176 176 170 156 154 146 146 150 154 156 
130 134 140 140 148 138 144 142 140 146 144 150 150 148 154 158 162 150 160 156 152 162 168 168 170 176 184 186 196 222 204 222 281 367 421 382 369 378 372 363 429 440 452 495 516 464 316 249 233 233 202 194 168 176 172 170 178 198 190 200 194 194 180 176 166 172 170 180 176 194 178 180 180 160 154 154 158 170 152 148 
144 126 124 130 134 140 152 148 148 152 152 150 138 150 138 152 138 156 154 148 150 154 174 184 170 166 174 184 186 210 218 267 349 386 421 388 378 384 371 369 405 394 396 442 487 456 376 273 233 220 192 168 168 182 190 204 216 222 228 212 206 212 194 152 156 146 148 148 154 190 212 198 204 216 224 210 210 190 186 160 
134 150 118 144 140 132 130 140 142 136 150 156 148 150 146 146 150 150 148 144 156 184 188 182 174 170 176 188 188 216 222 336 330 283 306 318 341 369 407 396 347 273 249 371 460 454 403 275 180 218 186 152 182 214 194 204 218 239 224 214 204 196 190 178 170 170 168 180 176 249 265 255 289 306 341 314 296 293 269 269 
126 138 140 140 140 140 152 142 138 146 150 156 152 150 152 158 146 144 162 160 160 172 170 168 186 160 182 180 180 216 245 345 340 289 308 310 326 285 322 273 230 200 176 200 365 427 402 306 160 206 198 182 150 160 210 198 200 216 204 194 202 176 166 174 180 198 198 204 202 273 275 271 263 283 324 308 308 312 300 287 
150 138 124 146 134 146 138 140 130 150 156 154 166 148 146 146 148 148 138 146 144 174 168 176 178 168 178 182 188 220 245 332 283 289 308 345 343 289 294 198 220 200 142 108 210 388 409 380 261 241 206 198 184 180 194 188 178 206 188 180 176 152 160 178 180 218 220 224 237 287 277 263 249 253 279 293 298 296 304 306 
132 122 128 142 142 124 126 132 132 142 142 136 144 166 148 142 146 150 140 162 156 164 186 188 196 222 208 190 196 222 261 296 298 287 296 332 322 243 237 208 216 188 198 210 204 296 417 431 427 419 369 312 249 245 216 198 212 216 224 206 168 164 186 204 184 202 220 247 261 324 277 265 271 267 291 296 289 302 298 298 
130 146 130 152 140 128 150 144 138 146 134 158 142 152 142 144 154 136 148 134 160 200 257 273 341 417 390 320 318 345 403 340 308 320 283 239 243 178 134 166 212 224 267 235 202 214 386 473 485 479 456 417 378 351 267 218 212 198 224 202 184 180 216 214 212 212 230 245 271 304 257 255 253 245 265 251 239 222 224 202 
136 132 128 134 150 128 140 134 146 142 148 140 142 146 144 144 154 146 148 154 204 283 336 369 489 525 523 496 479 520 456 378 291 338 271 180 146 38 46 118 166 224 271 251 214 200 291 479 479 467 467 436 400 322 267 247 245 226 206 168 170 228 253 255 259 259 253 230 245 251 235 231 222 196 184 182 184 176 170 178 
120 126 138 130 120 134 136 130 134 136 130 134 150 148 148 140 144 150 148 158 251 334 361 465 550 565 584 539 479 518 491 378 300 359 298 180 120 0 10 120 124 224 259 241 196 184 224 400 450 462 450 431 374 279 247 257 251 239 204 192 231 269 269 267 279 277 249 243 271 277 253 224 216 198 194 200 210 198 208 198 
140 126 130 138 122 138 144 134 130 126 140 136 138 140 146 146 140 148 140 164 273 378 382 533 571 489 489 516 456 512 489 374 326 390 330 188 88 18 54 102 156 224 257 231 178 150 239 388 465 481 427 396 310 247 231 257 251 255 228 224 257 253 255 257 265 255 271 253 312 334 294 269 263 265 273 279 283 287 293 294 
138 136 130 142 134 174 142 136 132 138 152 158 134 136 138 148 140 142 154 152 253 376 465 527 535 495 454 520 458 489 489 347 347 372 291 170 82 80 80 68 184 228 235 206 184 158 324 419 423 423 382 318 239 210 237 247 239 255 243 208 237 263 253 247 265 269 275 253 273 324 310 285 285 263 269 293 302 328 322 302 
142 126 122 132 138 122 142 124 144 134 140 138 120 130 130 134 136 128 148 142 208 367 442 493 550 531 533 514 425 378 372 334 324 318 267 204 196 186 146 146 182 188 176 132 202 259 392 400 390 320 302 257 224 200 235 245 230 249 228 200 222 233 231 237 237 241 259 253 269 294 289 294 285 281 287 296 326 338 318 312 
126 104 130 136 142 126 134 132 130 130 138 144 130 144 138 138 140 130 140 146 192 285 343 341 394 423 429 300 222 218 259 302 271 269 283 263 277 310 271 222 182 130 98 120 259 371 409 417 376 294 287 220 184 188 226 235 228 235 212 194 188 218 231 228 235 239 233 243 255 287 296 296 296 300 296 304 320 300 263 257 
122 130 120 132 138 144 130 140 134 136 128 134 134 134 138 142 146 140 144 154 152 194 210 204 206 180 196 172 176 198 239 324 291 237 249 255 281 316 293 231 190 154 136 210 390 425 423 425 343 296 263 186 194 180 204 202 206 222 228 186 190 212 224 220 231 216 228 210 204 249 251 259 255 253 253 255 228 186 174 164 
124 130 124 130 138 138 132 134 126 132 136 138 154 144 156 146 150 136 146 136 146 174 176 160 164 160 166 164 170 190 210 306 332 251 218 176 224 304 322 300 255 230 241 382 448 446 436 386 275 281 269 194 204 186 182 182 182 182 198 170 168 198 204 210 202 204 218 186 176 194 196 194 188 174 156 158 132 142 136 130 
112 132 130 130 124 140 136 126 142 148 150 136 152 160 150 140 148 142 142 142 138 168 170 156 162 158 172 166 176 206 204 302 347 285 291 273 318 355 343 371 411 396 376 433 473 444 413 285 237 239 273 220 212 194 170 164 170 166 150 146 172 174 184 180 166 180 170 158 180 186 194 200 176 142 144 128 132 136 136 142 
126 108 124 134 128 138 120 128 136 136 138 138 148 166 138 150 146 148 152 128 132 148 158 172 158 160 162 164 170 198 194 230 330 359 365 351 363 367 341 409 446 431 433 469 467 444 328 210 182 192 218 186 212 180 158 150 144 156 150 166 190 188 166 154 150 170 166 170 196 198 196 196 186 152 130 120 110 132 122 120 
112 128 138 140 126 142 134 138 128 142 138 136 144 148 144 134 144 152 148 154 140 168 144 168 162 154 170 172 176 194 204 196 247 345 392 384 361 378 448 464 448 444 450 462 452 361 194 186 180 192 190 174 174 186 172 154 160 154 156 156 164 170 160 160 166 174 186 202 206 200 200 182 168 150 134 132 140 118 116 116 
118 112 136 154 126 138 134 134 140 146 136 138 154 140 144 150 150 146 144 138 154 164 170 162 158 156 178 184 188 237 281 304 334 374 396 394 363 376 456 467 458 442 433 415 386 222 152 180 184 182 174 168 178 180 182 176 156 152 146 166 150 160 156 156 168 180 180 180 184 186 180 180 184 152 134 136 132 128 122 120 
130 118 120 130 136 138 138 140 134 140 136 140 142 148 150 142 144 152 148 154 142 170 160 168 172 160 160 186 267 367 367 361 388 390 388 390 388 390 456 465 419 340 267 214 202 148 156 164 166 182 182 176 174 180 174 166 158 154 156 158 156 156 156 160 162 168 174 190 188 182 178 164 166 156 146 130 126 118 112 126 
130 128 122 122 144 144 136 154 124 132 134 138 140 154 142 148 154 138 154 148 146 178 174 168 168 166 178 243 394 417 361 353 372 372 402 394 409 405 465 467 454 458 403 289 178 148 144 174 180 180 174 162 168 170 176 168 144 154 158 150 156 154 146 160 156 164 174 186 182 168 166 168 172 152 146 138 144 156 154 152 
126 120 130 120 126 120 122 126 134 136 130 146 142 142 152 158 162 156 164 142 144 152 168 178 170 180 204 336 421 419 374 363 349 380 402 388 413 413 467 458 436 452 454 413 300 172 146 156 170 174 194 170 180 194 204 198 180 172 176 178 168 174 166 140 144 142 160 162 174 176 184 168 182 172 156 160 182 186 166 158 
110 120 124 144 126 140 128 128 130 132 130 148 146 156 162 170 231 275 275 241 192 194 180 172 170 184 257 371 411 429 394 345 294 324 384 403 382 390 446 434 436 448 460 464 434 320 243 222 220 220 228 231 239 253 241 231 194 216 220 210 186 186 164 144 140 144 156 178 176 204 208 241 261 294 291 265 267 237 224 222 
120 120 122 124 124 122 120 148 128 146 134 144 136 142 186 243 343 452 438 448 429 396 281 186 188 202 324 359 361 372 343 314 302 316 324 330 332 322 376 417 436 431 452 454 462 431 343 283 231 259 265 257 257 267 257 237 218 228 224 218 190 182 162 148 136 130 172 202 186 200 245 269 312 318 363 341 318 310 293 293 
112 112 110 122 134 122 124 116 132 126 130 140 132 152 196 334 452 454 469 514 533 512 481 345 235 310 394 359 374 384 376 334 316 322 324 261 249 194 233 314 392 396 411 438 464 431 392 340 267 261 289 281 275 271 255 267 257 247 245 230 204 182 170 152 140 140 162 162 156 168 241 247 308 320 341 340 334 330 314 312 
112 130 128 128 126 138 136 130 126 124 128 140 144 146 241 355 452 475 500 541 531 521 531 506 456 446 460 386 378 372 355 357 345 332 265 186 152 136 182 267 345 353 361 390 436 419 409 380 302 275 294 267 265 265 261 257 251 249 249 218 222 206 182 178 140 156 142 142 178 172 210 230 275 300 336 338 326 338 326 265 
104 108 122 124 130 126 136 136 120 130 134 140 142 150 237 357 433 487 523 535 514 465 479 479 471 491 464 378 369 365 328 326 326 265 202 128 74 90 166 239 304 312 320 330 386 400 405 392 332 283 251 277 259 245 255 241 233 243 239 216 228 212 194 182 162 152 174 176 188 196 218 233 294 294 341 326 324 310 279 241 
120 114 104 124 124 134 146 130 148 128 144 130 148 148 216 334 415 452 510 527 504 429 471 431 462 464 462 349 340 365 304 261 255 226 182 110 54 82 208 279 289 302 312 308 328 361 382 394 359 300 241 255 245 235 241 231 220 228 231 212 208 216 208 190 174 160 210 224 218 210 216 216 247 226 245 239 226 220 214 178 
112 122 120 132 134 144 144 144 138 136 132 138 150 162 164 279 402 431 506 514 489 467 489 452 452 462 436 328 330 332 263 241 216 208 190 94 60 160 269 302 293 306 318 304 304 324 361 365 357 338 257 251 249 233 233 233 231 214 224 206 226 202 214 182 172 196 224 228 218 200 168 174 182 174 176 178 178 164 170 160 
100 114 130 128 134 142 134 126 130 128 132 138 146 150 148 170 228 279 374 442 456 479 465 427 446 444 415 328 304 293 249 239 200 198 160 84 82 228 312 330 302 312 312 316 296 312 338 343 374 347 285 267 245 251 285 269 239 206 224 224 216 204 204 186 186 188 196 206 200 192 168 168 152 142 140 144 144 142 134 164 
130 124 126 124 128 134 138 132 118 138 138 126 132 140 146 146 160 170 182 202 245 249 233 226 308 376 378 343 310 291 251 228 196 182 138 52 70 212 320 324 293 306 304 316 328 322 304 320 361 369 338 308 279 332 361 332 277 237 218 212 200 200 192 174 184 190 188 198 196 192 178 160 164 124 124 130 128 144 128 140 
124 114 128 118 126 138 138 132 124 142 132 128 136 154 134 130 154 150 150 140 152 160 170 182 212 318 355 343 316 304 265 247 200 156 84 24 64 146 271 298 302 289 275 293 310 296 294 298 332 386 353 318 330 361 384 369 357 251 216 214 216 216 200 190 180 190 190 200 202 184 178 166 158 140 148 130 148 154 136 130 
118 126 124 116 128 134 138 122 124 136 140 138 138 150 144 142 134 142 144 132 142 158 148 162 184 304 341 330 294 298 289 261 230 174 90 56 72 122 237 294 277 293 247 263 293 275 273 287 345 372 372 341 349 372 386 371 341 267 239 230 241 231 202 182 192 190 196 196 198 176 172 192 206 192 220 210 204 190 158 150 
116 116 130 130 134 148 150 130 140 132 116 138 140 154 142 154 146 148 138 136 140 148 144 168 166 312 355 336 318 298 287 302 261 166 110 86 94 188 279 291 281 281 253 259 267 261 277 312 353 376 374 384 396 380 382 334 271 249 241 237 224 222 184 192 194 204 184 180 170 168 158 208 243 255 279 300 298 294 263 231 
110 108 116 130 126 144 136 126 120 140 134 140 146 142 136 144 134 136 134 134 142 150 156 170 162 255 372 353 308 279 247 267 269 224 190 154 168 214 277 287 265 275 247 263 279 271 294 341 359 351 394 419 429 402 345 269 253 237 247 251 222 206 188 188 184 172 142 132 108 112 148 184 233 257 285 302 316 336 316 265 
110 108 124 124 126 136 132 122 102 140 122 136 132 136 138 142 134 128 126 124 136 144 142 150 152 239 361 345 308 277 247 230 257 263 271 239 247 241 271 285 291 294 277 283 308 324 330 357 343 351 409 438 438 355 261 265 247 253 237 231 230 226 212 198 184 152 98 94 106 134 180 212 253 279 296 316 318 334 326 291 
122 126 114 120 112 140 120 128 128 130 122 130 146 132 128 134 136 138 122 124 118 138 134 146 138 166 289 324 318 312 310 304 320 338 361 380 392 371 363 363 363 357 347 359 400 376 380 361 359 334 326 363 351 291 267 275 243 247 233 253 241 230 216 188 186 156 140 120 120 140 176 235 300 310 318 318 320 293 308 275 
122 114 112 118 120 112 136 134 118 116 120 140 126 128 116 122 136 118 118 130 106 122 126 146 132 132 202 304 338 341 324 326 332 326 380 434 431 407 425 434 407 417 403 411 429 409 372 345 300 263 265 261 275 283 289 273 249 239 241 226 218 188 182 182 168 156 166 138 142 150 186 220 281 281 287 265 249 233 208 190 
114 102 106 122 98 114 114 112 104 114 116 116 108 124 120 122 110 108 122 122 96 116 124 132 120 112 136 176 243 322 340 332 328 336 409 438 440 407 421 421 415 438 419 429 405 357 298 257 228 210 202 233 271 267 283 277 255 247 222 214 180 178 172 164 154 144 136 116 128 128 118 140 170 162 178 142 156 142 144 134 
80 92 96 98 94 120 114 102 98 110 122 98 112 110 112 118 130 120 108 98 106 102 124 124 110 110 114 104 120 184 208 243 273 296 372 400 398 403 394 396 409 398 367 320 265 190 146 154 164 182 162 210 230 237 257 257 235 235 214 198 194 174 152 158 146 128 116 114 122 106 98 90 106 110 136 120 126 132 124 126 
88 100 84 88 86 110 98 84 86 98 102 108 108 116 114 106 112 112 98 102 106 104 108 114 112 108 94 104 102 128 126 126 144 186 235 208 216 216 231 228 237 204 160 140 128 118 114 110 112 126 116 116 134 140 154 152 146 178 164 160 148 140 136 114 104 104 108 100 100 100 92 68 96 108 116 116 122 122 118 110 
104 94 96 92 90 112 96 98 102 94 108 92 114 96 96 112 122 94 100 94 76 94 106 116 110 92 98 100 102 110 108 110 96 106 138 130 120 108 124 116 116 126 126 120 116 108 102 118 114 114 94 68 68 92 104 102 86 106 116 106 94 104 88 98 96 84 86 102 104 88 80 76 106 106 116 126 112 130 116 110 


