P2
80 60
546
108 124 110 110 118 130 134 110 134 138 128 128 130 132 112 116 120 108 112 90 96 100 96 102 100 150 293 385 392 361 350 355 377 392 355 326 299 262 231 199 213 215 205 260 373 385 416 421 421 425 363 280 278 239 233 209 205 215 221 223 233 219 229 225 231 233 243 243 233 213 213 213 245 219 231 237 227 203 225 252 
124 120 108 126 120 130 120 118 102 114 120 140 122 130 116 116 116 110 92 96 106 88 98 104 100 223 369 390 377 324 324 381 404 398 404 369 346 323 309 286 272 280 260 241 276 354 410 416 412 421 404 332 286 262 239 217 219 225 237 231 239 243 248 252 268 266 248 245 235 221 205 237 239 237 229 239 243 235 233 250 
116 104 120 106 118 132 128 112 114 116 116 110 112 116 110 112 104 100 90 100 82 96 96 100 100 282 367 377 354 334 328 390 408 379 383 359 348 321 326 292 284 280 248 229 241 292 352 392 414 417 355 307 293 297 274 243 231 243 225 246 256 245 245 258 284 282 258 243 209 178 182 215 241 229 213 217 207 225 229 246 
114 110 118 110 122 134 124 120 116 110 112 112 114 112 128 106 110 112 100 106 88 88 84 102 118 293 381 381 381 355 357 379 381 352 344 344 340 323 290 266 282 272 256 235 221 246 252 268 326 342 326 317 311 288 272 276 274 264 252 250 246 254 262 260 262 262 266 246 245 205 197 207 246 227 229 209 221 225 223 239 
106 100 122 110 122 126 126 124 118 100 128 124 124 132 124 118 106 124 94 104 98 100 100 114 122 268 394 400 410 377 361 400 396 332 297 307 292 290 272 264 266 254 235 217 223 231 213 211 219 286 317 324 319 324 303 290 293 280 264 272 270 248 276 290 284 282 266 270 266 239 245 239 256 245 246 239 235 227 239 246 
114 88 128 118 120 122 132 118 108 128 126 126 130 136 126 128 128 116 108 108 110 118 108 122 132 272 408 423 427 400 404 406 404 295 293 288 288 305 303 272 260 254 217 213 217 203 205 199 185 235 311 305 301 303 284 288 299 290 278 290 292 299 299 315 340 332 323 324 292 284 290 288 278 272 252 260 241 243 260 252 
94 100 114 104 124 134 128 130 120 114 124 126 122 126 130 122 114 122 116 130 132 138 120 142 183 262 355 417 437 433 419 417 385 303 299 315 317 323 317 288 272 256 233 215 215 199 207 193 174 199 266 258 270 260 254 250 260 286 321 307 313 324 354 357 385 367 352 328 332 297 297 290 264 266 248 258 252 252 241 248 
112 108 110 106 132 154 128 122 120 124 106 116 128 144 122 130 114 132 132 152 183 180 172 197 254 414 388 414 435 452 448 421 377 309 288 307 324 336 330 307 295 280 237 221 211 227 189 178 182 195 235 233 250 233 227 245 276 299 313 324 326 338 355 348 359 346 334 313 303 295 282 286 260 260 239 239 233 217 229 231 
114 110 110 116 120 140 116 126 124 114 114 116 130 134 134 132 148 172 262 332 417 427 429 454 506 534 498 398 394 421 416 396 338 293 278 315 332 361 336 317 297 280 248 233 229 221 215 182 185 180 205 231 231 235 237 264 280 303 336 354 346 348 369 350 336 330 315 313 293 254 256 248 250 248 219 209 201 191 189 170 
106 96 118 116 112 134 130 112 104 118 128 114 136 130 128 136 152 290 400 477 534 536 502 487 523 536 527 398 359 390 342 328 311 276 278 295 305 332 338 317 295 272 260 248 225 235 221 197 189 189 182 221 235 256 262 270 268 334 381 367 367 377 357 354 348 338 311 293 276 221 229 221 221 219 168 166 136 132 118 146 
102 100 108 114 122 116 116 110 120 116 114 114 120 122 126 142 217 350 456 546 540 523 519 500 498 533 506 483 373 355 334 313 307 278 280 284 303 313 309 297 297 295 272 243 231 239 233 195 199 199 176 217 262 286 280 280 290 352 371 355 355 324 324 334 332 301 272 245 233 189 185 174 166 138 122 120 116 114 96 108 
100 118 116 110 110 128 138 112 114 112 116 120 112 136 144 150 262 404 452 512 506 473 468 445 458 468 458 450 379 423 431 408 394 321 293 303 315 323 344 311 326 319 299 272 260 250 246 211 215 197 183 189 280 303 317 307 307 321 328 321 299 299 292 270 252 233 219 209 185 158 148 138 136 138 118 122 120 104 100 120 
118 118 126 116 130 142 118 124 116 110 116 128 122 138 118 132 260 431 437 493 470 427 454 470 369 250 243 284 385 443 464 462 443 371 336 307 324 324 326 305 334 344 328 313 284 270 252 233 231 221 219 219 293 324 330 326 295 286 288 264 262 233 211 185 168 164 154 148 164 132 132 124 140 134 118 116 108 104 104 118 
112 102 110 116 94 130 122 118 106 130 120 122 122 122 120 128 227 396 496 462 510 491 487 435 235 128 134 178 284 396 439 445 439 390 342 309 307 315 307 311 334 350 363 359 348 334 346 315 307 293 272 252 352 402 386 357 321 317 245 187 170 150 150 126 132 142 156 146 170 152 146 140 140 144 112 112 106 102 112 118 
104 100 120 122 126 118 126 96 116 100 112 110 100 120 110 106 170 282 410 414 429 417 303 219 126 128 114 126 211 386 390 375 355 340 350 317 350 386 377 377 414 447 437 443 443 468 468 460 419 402 365 369 416 421 390 367 361 225 146 148 162 138 142 144 152 160 154 162 172 160 150 150 128 140 122 126 108 98 98 122 
122 112 108 106 120 136 124 106 110 114 96 106 108 116 104 104 114 156 225 266 231 158 140 122 116 124 124 130 162 293 346 303 278 219 262 317 357 431 454 450 473 481 496 468 462 462 473 466 456 433 406 388 388 365 344 309 229 158 134 140 152 142 142 154 164 156 162 162 180 156 156 142 144 138 118 114 120 108 110 118 
110 100 124 102 122 126 118 112 118 104 108 118 116 110 126 106 114 130 120 126 120 120 114 128 124 120 130 132 160 162 229 276 307 305 330 323 313 348 379 427 435 450 435 416 408 400 388 348 305 268 231 213 195 176 148 150 122 130 152 148 152 142 152 158 152 146 156 162 170 152 148 136 146 128 104 112 118 114 118 116 
100 102 112 102 116 116 116 110 108 108 108 110 118 126 116 120 116 126 110 128 118 108 110 118 120 134 142 130 156 154 180 178 219 246 278 307 317 323 357 390 416 421 414 348 231 231 246 213 215 199 189 152 154 144 132 122 138 150 146 148 170 168 148 154 142 148 166 162 156 164 164 146 130 132 128 114 120 124 124 130 
106 126 128 120 122 120 104 112 114 100 106 120 118 118 130 124 128 130 118 118 110 104 120 116 118 130 128 126 152 162 166 189 215 248 305 338 328 324 344 383 419 425 400 328 201 178 207 189 205 193 174 168 150 158 158 168 185 201 195 197 185 183 174 176 170 178 172 176 178 172 150 144 144 136 118 132 134 134 132 144 
108 98 104 100 112 114 116 116 124 112 116 112 116 116 106 116 108 120 112 116 116 104 116 122 120 132 122 132 144 154 170 195 299 346 315 309 317 313 317 371 425 431 390 274 174 154 183 185 174 209 174 140 154 170 156 172 203 199 201 193 187 182 180 195 217 187 211 201 217 233 237 203 213 201 172 154 150 122 144 160 
114 114 112 114 128 104 104 124 116 100 116 120 110 132 114 110 130 130 118 108 112 116 132 124 118 124 130 128 136 162 176 288 326 311 290 297 301 293 266 330 404 417 383 201 140 142 142 150 116 201 182 150 162 168 136 172 174 191 197 191 178 185 205 199 219 215 211 223 225 264 256 233 262 254 288 262 197 154 146 182 
104 114 106 112 114 116 136 110 112 100 122 110 118 122 126 116 116 110 124 116 118 118 112 120 132 120 120 124 136 152 213 332 328 252 250 254 239 213 182 262 392 392 340 80 84 136 134 138 116 154 166 140 156 148 146 168 150 170 160 168 168 170 178 180 203 193 211 233 260 293 270 235 233 227 274 293 292 252 191 174 
120 118 116 114 112 112 118 104 110 114 108 120 122 116 124 106 106 118 112 112 100 122 116 118 122 130 124 126 140 156 221 355 342 297 286 319 301 258 221 264 369 363 266 86 90 108 100 122 132 176 170 156 150 162 172 166 146 150 144 158 148 158 183 185 199 217 243 256 278 315 284 233 235 223 258 262 268 262 278 243 
108 104 120 104 116 92 104 90 110 108 102 114 118 138 122 114 108 114 102 118 128 106 120 120 114 142 128 120 138 166 223 344 311 292 297 357 319 254 237 301 344 323 199 110 136 126 104 122 158 191 152 187 142 176 176 176 182 172 168 158 128 176 221 223 241 248 258 250 268 284 246 213 219 252 260 280 276 270 286 292 
114 120 110 120 108 104 124 108 120 112 102 114 122 124 122 110 126 102 114 110 106 112 118 134 138 146 132 136 142 168 225 270 260 260 280 286 243 207 248 313 313 219 158 146 142 136 112 106 164 191 166 178 148 197 193 203 215 193 182 160 162 211 231 235 231 233 215 197 213 195 185 185 197 213 223 239 227 252 282 288 
88 102 98 102 128 108 114 102 110 114 120 110 112 116 118 100 128 118 118 118 120 136 189 191 237 324 354 260 225 256 340 305 292 313 246 193 187 160 254 317 258 112 152 144 132 166 136 100 168 176 164 189 162 187 193 221 213 187 187 174 239 282 274 235 221 207 203 195 203 209 195 182 187 156 154 174 174 180 211 250 
98 98 118 114 112 122 126 108 114 106 114 106 126 116 122 112 116 120 104 108 134 213 250 252 363 470 477 460 425 454 431 359 256 326 297 250 292 305 317 284 146 74 118 116 148 168 130 118 156 183 166 215 199 182 193 217 219 227 199 180 213 213 213 209 233 237 229 233 254 270 250 201 187 185 195 207 225 231 266 286 
110 106 106 114 110 122 114 122 100 102 114 106 108 114 126 118 110 112 106 116 170 264 299 321 458 506 502 496 460 431 452 396 344 359 377 377 373 363 292 128 70 68 82 132 156 126 92 164 201 193 195 209 209 195 189 203 205 209 195 191 227 205 223 219 217 227 237 252 268 282 264 252 243 254 258 260 290 301 311 301 
104 112 110 114 112 110 106 120 104 116 116 112 104 106 118 104 108 98 104 108 197 311 326 396 510 525 410 439 462 400 443 396 359 381 388 381 379 344 237 24 0 6 98 144 152 104 168 215 239 201 199 199 174 180 174 195 182 185 191 174 191 223 225 215 235 235 235 262 250 278 264 250 266 266 290 288 305 328 301 301 
94 108 108 106 122 112 114 98 102 100 114 102 90 100 104 90 96 102 110 110 166 292 363 458 502 485 406 408 452 390 443 381 340 369 390 402 404 357 286 142 30 2 116 104 114 148 217 223 231 189 183 162 154 162 172 191 189 185 193 162 158 217 203 217 233 221 231 237 243 254 248 272 276 276 282 297 317 299 284 268 
108 94 110 108 118 112 106 96 100 110 116 106 102 120 122 92 112 98 106 114 182 266 375 410 464 483 470 466 447 348 340 330 311 323 342 363 379 392 350 288 258 116 114 70 142 197 219 229 225 187 199 154 166 180 156 174 170 176 158 164 164 189 199 201 239 227 229 215 203 245 250 245 264 278 274 282 278 250 207 164 
102 110 104 118 120 118 108 124 108 106 102 108 104 120 126 110 104 114 112 112 154 231 288 284 313 355 385 326 237 176 197 254 303 262 274 292 297 305 336 319 332 315 178 166 148 217 225 239 189 233 217 189 189 162 152 178 172 160 160 148 154 158 160 166 195 193 197 158 152 180 185 176 187 197 193 189 158 128 138 136 
92 116 96 116 122 116 116 110 98 104 114 114 130 130 114 114 110 110 112 104 120 144 162 164 176 160 144 128 140 134 152 205 315 272 246 246 217 243 311 334 354 342 332 276 185 178 207 176 162 225 219 207 197 176 150 150 144 142 142 126 144 146 168 160 148 142 164 142 144 164 156 156 144 132 122 112 106 116 106 124 
88 112 110 112 106 118 126 108 118 122 130 118 122 130 134 96 102 104 116 112 102 112 120 116 122 126 126 116 134 146 152 172 295 299 243 215 185 187 264 321 355 365 369 355 292 144 142 164 174 189 211 195 203 160 134 146 138 140 130 140 156 148 138 140 134 148 144 148 170 158 170 156 146 120 112 102 100 106 104 120 
94 88 104 110 106 124 110 104 106 104 108 118 126 130 116 110 124 118 114 90 102 94 110 112 100 126 108 116 118 132 156 156 248 332 256 223 174 250 272 278 344 386 388 379 354 213 126 122 134 150 158 136 166 150 132 122 106 106 122 124 128 132 116 134 130 140 144 160 168 166 160 150 144 130 96 98 96 98 94 126 
90 96 110 108 102 114 126 114 112 114 110 102 120 128 120 112 112 118 120 106 102 116 98 116 116 116 124 120 118 132 156 144 189 292 346 350 332 324 317 299 340 406 414 392 373 309 160 128 140 154 150 134 142 158 144 130 122 110 122 126 114 134 122 126 132 142 156 162 176 162 164 144 124 122 108 114 120 94 96 116 
102 90 118 124 122 118 120 114 114 104 108 98 122 120 102 118 118 108 110 98 118 112 118 118 96 118 124 124 136 144 183 180 233 290 344 365 328 307 290 307 396 400 404 416 398 365 239 142 144 160 138 140 158 146 134 130 118 110 114 124 126 132 136 120 140 138 150 154 152 152 146 140 140 126 106 108 104 104 102 118 
90 94 108 118 132 126 110 110 112 108 104 114 124 120 128 114 114 118 110 112 104 118 110 122 114 122 114 128 160 246 317 332 361 344 342 342 321 307 363 363 410 396 400 394 367 303 180 132 126 146 136 134 144 146 128 130 128 118 122 124 114 122 126 128 136 138 132 150 164 154 154 132 118 138 110 100 98 94 90 122 
86 110 100 108 128 120 116 128 102 106 114 110 102 134 118 112 120 104 106 112 108 120 108 118 118 126 114 156 305 334 336 328 350 328 342 344 361 348 394 404 408 406 385 311 187 144 122 136 148 146 144 128 150 148 138 136 120 112 112 110 124 110 114 128 122 146 138 152 140 142 132 136 130 122 114 104 112 122 124 128 
104 110 102 106 122 106 110 112 108 112 106 118 112 116 124 122 112 114 116 104 112 100 120 118 116 134 136 233 363 348 315 313 330 330 355 346 377 361 408 394 388 398 394 367 270 158 130 118 144 140 138 132 126 148 138 136 124 118 126 140 126 136 134 124 126 134 142 144 148 148 150 128 132 124 116 112 142 148 134 152 
88 112 104 110 114 120 104 104 114 102 114 116 120 124 124 116 118 110 120 126 126 122 128 118 116 126 168 303 357 354 334 299 288 311 354 363 344 355 392 385 373 392 417 408 390 324 231 166 160 166 150 160 180 185 168 193 176 180 183 191 162 170 150 144 122 126 128 146 144 138 144 148 128 146 136 136 156 144 154 164 
98 106 104 110 114 104 114 104 108 112 116 116 104 120 142 136 158 183 174 146 154 128 126 118 128 146 237 319 344 330 330 309 266 266 303 342 323 315 363 379 385 396 400 416 419 412 369 282 207 193 195 189 197 209 193 197 189 187 205 213 187 174 154 144 132 126 122 142 162 164 191 213 231 229 250 235 221 197 176 189 
98 94 106 104 118 108 108 104 114 98 114 114 100 130 136 183 315 373 388 386 383 355 209 132 140 189 288 303 330 313 336 295 282 260 290 268 250 221 268 301 323 355 361 383 410 417 400 346 305 237 225 199 205 213 201 233 223 233 231 221 197 185 174 156 148 136 138 162 183 205 246 262 293 309 311 295 299 280 258 254 
100 112 112 108 102 120 120 104 94 104 108 108 116 126 174 270 441 437 443 479 491 485 439 326 241 319 348 330 340 336 338 309 295 303 272 205 180 158 180 246 260 303 319 344 373 394 404 371 361 297 256 205 227 235 219 248 262 260 248 241 239 215 195 195 164 146 152 164 178 183 237 245 278 311 323 324 307 297 299 295 
94 90 104 110 116 120 118 112 108 104 100 112 116 128 209 348 464 447 477 534 477 498 491 479 435 433 416 334 323 323 315 288 299 254 180 136 102 118 148 201 221 258 270 282 323 352 375 365 350 348 286 239 239 239 235 248 250 252 252 250 245 229 215 199 193 172 152 150 136 152 217 225 270 286 336 326 319 307 303 297 
98 104 108 100 114 122 116 100 116 98 116 94 104 128 217 355 439 468 491 513 493 447 443 437 460 439 406 313 311 311 293 250 254 199 140 96 82 106 164 183 213 250 256 262 280 303 328 354 352 324 303 254 254 250 233 241 227 235 245 235 215 231 219 211 199 172 146 128 138 148 176 203 254 262 299 311 299 313 286 284 
106 110 118 120 106 122 126 124 122 118 108 108 126 144 203 324 400 443 493 504 460 392 421 386 439 427 402 286 292 303 250 213 180 148 138 62 26 92 182 195 205 217 246 243 241 264 280 284 315 334 305 266 262 235 209 221 237 245 241 229 211 211 221 201 185 197 168 156 154 164 172 205 217 223 260 256 262 231 205 239 
100 116 108 108 122 122 102 108 106 104 118 106 128 136 152 254 383 404 464 496 452 421 421 367 419 431 377 274 260 241 209 205 154 146 116 66 34 128 189 215 203 217 237 248 250 258 276 245 250 319 328 319 336 264 227 219 213 221 233 241 215 187 205 187 193 193 189 195 180 182 154 162 152 130 144 140 150 140 158 176 
112 122 118 128 116 114 120 104 104 112 116 100 112 126 126 150 250 319 355 416 417 423 425 375 383 398 342 270 250 245 221 195 156 132 104 34 34 182 203 217 207 213 231 248 262 246 256 237 215 268 311 334 313 323 264 213 199 191 193 213 189 199 182 166 182 168 174 176 172 154 148 134 132 112 104 130 130 124 116 148 
108 114 116 112 116 126 124 100 112 104 108 110 114 128 118 116 144 144 158 176 211 205 185 178 201 326 334 323 280 252 219 189 142 126 76 34 54 144 221 205 215 203 229 239 252 260 245 235 215 254 307 307 319 324 317 258 217 191 183 197 178 172 150 162 150 160 168 174 172 162 150 130 128 106 120 116 128 118 122 138 
100 120 122 112 114 114 114 108 104 110 118 108 118 118 128 104 98 122 112 114 120 116 122 122 134 252 295 309 274 254 235 187 176 136 66 36 24 84 189 209 203 221 209 215 235 233 235 229 223 276 342 328 297 334 338 330 266 207 182 172 170 156 164 174 174 187 176 170 162 138 142 130 132 118 122 120 122 112 116 154 
114 116 122 110 134 126 126 112 130 110 110 108 106 126 118 120 116 126 110 106 106 104 104 112 110 225 284 284 268 252 245 227 209 146 88 70 66 108 189 201 219 219 193 193 217 239 258 243 264 315 346 336 330 328 354 379 332 207 170 176 160 182 191 191 191 199 174 187 176 152 144 176 191 201 217 225 219 197 160 166 
108 100 108 112 128 126 120 106 108 112 130 106 124 114 120 122 112 108 116 106 110 112 114 114 114 178 319 301 266 241 223 235 237 197 134 110 104 126 185 211 215 217 201 219 233 246 260 293 305 309 295 305 315 336 392 408 301 199 187 203 182 191 197 180 168 164 174 152 120 116 140 156 217 239 260 272 286 282 266 243 
98 104 108 108 118 118 114 108 98 122 122 98 112 126 116 112 112 106 100 104 112 96 96 98 120 164 309 319 278 250 217 197 229 207 191 164 164 168 229 219 241 227 243 241 278 301 326 317 299 288 270 217 225 248 290 307 233 207 197 189 191 197 172 170 178 162 124 90 88 96 128 164 209 227 264 288 295 313 311 319 
108 116 104 114 128 114 104 112 116 110 106 110 108 110 106 106 106 108 90 112 92 106 86 110 108 116 246 305 295 254 239 237 239 256 276 290 326 323 284 250 276 286 297 307 342 342 354 323 292 248 207 187 219 225 219 211 225 213 180 185 170 172 189 168 180 160 138 84 84 96 138 180 246 280 292 305 309 317 344 334 
100 106 104 104 102 110 114 114 98 98 108 118 104 120 100 98 114 102 94 100 94 98 90 88 100 102 154 264 272 266 278 252 256 268 284 348 396 386 369 355 352 346 357 367 371 394 352 293 223 195 211 193 219 229 223 233 225 197 183 174 178 199 182 185 170 150 152 124 110 106 152 203 268 276 297 299 295 290 284 288 
90 94 108 112 92 100 108 106 88 102 108 94 104 116 98 94 98 100 100 100 80 96 80 90 94 96 94 150 252 272 284 256 274 282 301 377 394 390 385 365 359 383 369 383 375 328 270 205 191 180 170 193 246 254 241 237 211 203 199 205 193 189 185 168 164 144 132 118 106 106 122 160 223 252 256 241 233 223 221 209 
76 94 94 98 94 104 104 98 80 98 108 94 110 102 102 104 108 86 90 80 72 66 78 70 74 88 78 70 108 172 225 248 284 276 309 394 392 404 371 350 363 379 371 334 254 168 128 140 150 156 142 170 229 248 248 250 233 229 219 191 183 170 154 162 146 130 116 98 112 76 88 96 102 138 138 146 144 142 136 154 
96 88 78 84 82 112 92 86 84 92 84 90 102 102 104 84 88 96 72 88 86 58 74 68 64 72 56 74 62 82 106 124 154 185 225 278 293 311 301 282 307 288 207 134 86 90 98 86 102 94 106 96 144 182 187 189 193 221 203 182 176 150 154 142 124 124 110 84 94 80 78 62 82 92 114 112 122 122 132 142 
90 104 88 92 98 104 68 90 84 82 80 76 104 92 80 96 92 76 80 74 54 64 68 74 80 56 60 74 60 62 88 82 90 94 124 150 128 122 120 116 116 124 90 78 76 88 98 98 98 102 90 72 84 110 98 108 104 124 146 124 116 118 108 100 96 78 84 92 88 54 76 46 82 104 102 122 112 124 124 128 


