P2
80 60
826
105 111 118 116 103 99 93 83 105 97 81 89 75 95 79 61 87 81 91 69 87 83 85 93 146 353 452 466 505 503 507 488 507 509 496 498 494 488 464 427 454 466 486 507 498 482 436 403 353 355 337 333 335 399 517 562 587 608 581 603 570 572 574 539 507 492 503 501 480 482 488 494 456 319 207 199 209 217 241 263 
91 97 114 111 95 107 85 83 91 79 81 73 71 87 81 77 81 87 77 71 99 79 71 81 225 486 482 488 484 498 507 503 513 484 452 460 452 452 444 446 472 494 501 501 468 446 405 393 339 339 333 321 305 321 431 525 570 587 585 597 589 566 568 539 527 509 484 490 484 458 456 474 456 317 199 187 193 213 239 243 
87 103 111 114 107 116 87 67 69 63 69 79 67 89 81 67 75 79 77 71 87 89 83 116 267 496 507 527 525 496 515 535 498 454 448 460 452 450 468 456 472 496 507 488 446 427 393 387 341 341 311 293 299 313 365 431 541 579 595 593 601 583 568 548 525 513 501 486 474 440 468 472 425 313 195 187 193 197 233 235 
114 97 107 118 95 107 93 87 83 67 67 81 81 81 77 63 77 69 79 79 83 99 87 107 275 509 537 531 543 519 548 523 484 466 470 454 464 474 476 484 484 499 496 450 427 411 389 381 327 325 307 291 303 295 323 347 438 539 579 595 585 574 576 558 533 523 499 482 474 446 454 456 433 327 217 176 189 205 211 229 
103 97 109 101 99 95 109 85 81 69 57 73 67 95 79 65 83 83 77 71 77 85 97 138 293 499 548 564 560 543 558 515 488 472 470 472 478 488 499 515 505 490 472 436 417 401 381 371 339 327 311 309 303 311 311 315 341 395 515 581 583 587 583 554 541 525 499 499 466 431 450 438 423 337 207 187 187 191 217 219 
105 105 103 109 83 101 107 83 83 75 75 99 75 93 95 75 93 91 91 79 87 91 138 225 343 525 550 556 564 552 537 494 490 470 480 486 488 517 521 515 503 490 460 429 417 395 383 375 335 327 323 317 301 301 315 315 309 323 381 499 577 581 597 589 556 539 523 503 470 450 440 436 435 349 199 191 189 199 239 223 
101 99 103 91 93 109 87 89 97 79 85 107 97 107 116 101 120 132 130 126 120 128 269 361 387 488 543 560 572 554 545 505 490 478 476 484 505 537 523 509 498 472 438 425 411 421 389 383 341 341 335 323 317 317 335 337 339 331 339 389 486 550 587 591 579 562 533 515 480 454 435 438 431 351 221 195 187 201 221 229 
99 101 91 93 101 105 93 99 79 91 71 116 172 265 285 297 313 375 377 301 237 179 333 501 577 474 490 511 515 498 517 482 486 474 484 480 505 531 521 507 490 486 460 435 415 417 383 395 355 341 339 337 329 325 345 377 373 385 387 385 413 486 556 577 587 554 537 517 482 444 452 431 435 377 215 199 199 195 227 229 
101 99 101 103 83 116 97 89 89 97 107 229 395 517 576 603 583 587 579 589 519 492 597 663 653 499 468 474 458 433 462 460 486 488 470 492 498 513 511 513 498 488 472 458 423 401 383 397 363 351 351 343 343 335 359 369 391 399 401 411 421 442 472 515 550 572 533 519 499 444 440 421 417 363 227 197 195 207 233 225 
91 99 99 116 103 109 103 89 93 93 183 381 589 669 647 653 618 587 550 603 607 618 678 700 686 589 435 415 415 446 494 494 492 480 488 494 513 533 529 513 503 503 488 472 454 425 403 407 373 363 359 351 353 341 353 361 399 397 413 417 409 407 411 415 462 505 525 511 492 464 444 421 423 371 217 205 205 199 229 225 
97 91 120 114 97 101 87 77 83 107 239 484 670 680 663 682 603 499 387 490 639 628 638 682 686 628 484 478 498 537 515 496 480 470 464 476 488 511 503 492 501 503 509 496 474 440 423 413 371 367 353 355 351 337 365 365 405 403 381 395 389 387 387 389 405 419 468 482 462 448 440 435 403 379 227 209 211 211 219 229 
103 97 109 93 99 109 99 71 83 126 261 435 676 721 657 676 577 509 431 545 647 622 641 672 686 595 513 548 572 581 550 505 492 480 472 472 472 486 482 484 492 494 507 509 507 456 433 436 387 377 367 359 357 349 365 373 395 393 371 377 367 331 343 375 381 407 431 423 419 415 433 440 405 379 245 217 225 207 213 233 
85 105 97 99 120 101 87 85 93 144 267 371 653 730 678 655 622 616 579 626 688 622 636 678 651 576 529 579 583 579 570 525 511 478 484 490 484 472 474 472 484 492 509 519 498 478 456 446 417 399 387 379 375 381 383 375 411 399 367 351 347 309 325 373 379 381 387 389 389 395 389 395 405 377 239 215 221 211 237 229 
101 91 97 83 85 103 83 93 91 134 285 337 545 688 665 667 647 647 665 659 638 533 539 591 509 450 541 587 583 581 581 554 525 486 476 474 464 468 472 486 486 482 501 503 519 505 474 462 419 433 413 401 411 446 419 407 456 435 375 341 325 305 327 371 387 381 375 399 399 395 373 365 347 369 243 229 221 217 229 241 
93 89 101 93 99 103 97 79 87 109 217 311 417 653 661 655 643 624 628 545 373 217 185 333 363 381 521 572 579 568 583 558 548 496 474 482 464 470 470 464 470 488 503 513 523 511 499 482 442 462 454 472 468 464 478 460 484 472 387 339 335 301 349 375 369 387 385 391 389 369 355 341 321 345 283 255 231 231 259 247 
89 97 79 87 87 91 77 65 77 91 126 263 333 521 634 618 599 499 438 257 124 91 111 259 295 399 490 543 552 560 568 574 564 539 507 492 492 468 482 474 476 492 501 521 525 531 519 490 470 470 507 513 509 515 501 484 499 462 371 339 325 307 343 383 391 383 373 355 345 345 331 319 293 337 295 261 261 247 259 255 
87 101 101 87 95 93 87 71 73 81 93 146 217 325 373 373 301 189 146 105 85 85 81 132 181 458 533 527 527 535 560 554 564 531 519 505 507 513 509 490 474 496 488 503 517 529 523 494 468 543 585 585 558 531 531 492 505 454 351 331 323 309 357 379 373 369 351 351 337 319 329 309 297 331 295 265 265 265 257 271 
85 89 103 89 87 97 79 71 79 85 67 79 91 134 132 101 99 81 81 79 89 73 67 79 134 446 525 513 505 515 546 546 550 539 531 525 517 501 494 494 486 452 440 454 466 468 492 501 531 597 601 597 556 525 511 460 433 405 333 317 311 331 375 361 353 341 361 337 325 319 309 305 283 315 275 277 273 279 287 259 
79 109 105 95 87 87 81 77 73 75 65 75 55 87 81 65 73 69 69 63 77 65 65 73 146 409 523 535 511 533 568 585 618 608 593 587 556 505 472 423 409 365 337 331 347 311 299 470 577 595 595 577 545 499 415 287 245 261 243 243 257 273 307 289 273 281 285 297 279 269 267 267 239 269 261 257 261 261 285 281 
95 95 91 87 83 81 79 67 67 63 57 63 53 67 67 63 67 65 77 53 75 73 67 75 109 275 505 507 505 546 572 579 585 593 597 614 564 383 227 174 148 138 136 120 138 191 411 548 562 577 537 440 381 301 209 148 146 140 114 130 144 111 124 89 87 95 103 116 111 97 105 91 85 132 183 170 189 251 275 257 
85 105 91 89 81 91 73 85 75 71 65 65 55 77 75 53 83 65 71 67 69 81 69 61 79 172 357 507 545 537 558 546 546 513 486 482 480 454 267 124 107 89 97 142 219 423 550 577 560 509 283 174 170 148 160 138 126 111 103 99 95 79 85 81 49 40 51 44 38 38 53 59 51 87 101 118 140 168 259 275 
79 95 97 95 91 89 87 63 83 83 53 67 59 73 79 69 65 71 75 67 77 85 71 57 75 105 146 331 470 507 505 499 498 462 438 440 499 511 492 409 249 136 152 315 488 556 566 574 513 261 150 128 124 128 128 109 95 91 83 95 77 65 53 46 38 30 34 26 38 34 40 34 44 67 87 93 107 109 209 247 
91 81 101 99 79 85 79 75 69 73 71 81 71 71 77 75 91 93 91 83 83 107 75 81 83 95 85 122 213 353 435 448 450 446 423 454 503 521 531 535 525 456 419 533 548 564 572 552 305 132 120 114 118 126 140 103 103 111 95 83 75 55 49 40 30 28 32 34 20 18 26 26 69 73 87 89 99 122 164 183 
85 89 79 97 85 73 73 63 71 73 69 71 77 85 122 162 241 319 257 203 183 191 146 105 83 93 71 75 101 130 197 303 413 431 431 456 511 545 525 529 595 558 529 570 570 587 579 365 144 124 132 130 130 134 156 128 176 207 301 251 138 75 57 38 22 20 16 16 10 0 14 32 67 71 101 126 138 148 179 181 
77 107 105 91 85 93 77 79 67 79 65 75 69 122 263 385 492 591 558 546 548 539 503 423 273 124 75 61 95 95 138 203 327 460 460 452 501 517 527 539 562 566 566 576 591 583 492 365 353 369 367 321 275 303 367 417 527 574 583 550 399 146 79 38 34 20 22 22 16 8 16 18 49 87 174 197 229 247 249 259 
81 103 93 99 91 85 85 69 77 79 57 71 95 201 379 503 572 605 634 634 667 659 639 649 599 361 128 81 97 176 289 365 444 535 490 494 466 492 507 529 537 558 562 570 585 599 554 564 566 593 585 564 550 570 616 605 614 620 632 638 587 255 73 36 38 16 28 14 8 6 6 20 20 73 201 263 273 281 279 275 
103 93 101 85 81 89 81 65 61 65 71 81 109 253 365 496 672 678 682 655 643 663 641 647 655 546 351 205 251 345 425 442 440 435 417 425 450 482 488 478 472 482 503 517 533 570 525 537 546 574 614 612 607 614 622 595 599 632 620 634 589 291 93 61 38 26 22 16 22 10 12 28 14 69 227 277 279 271 287 279 
101 89 99 79 79 87 77 77 71 71 77 79 124 295 367 498 680 696 674 661 669 663 638 651 661 607 579 552 444 385 482 509 498 494 486 492 492 476 462 446 435 450 450 435 468 454 448 472 492 558 614 630 624 626 636 622 616 626 622 620 581 373 122 55 44 30 24 18 24 28 22 18 26 71 225 281 283 289 295 305 
81 95 101 85 63 85 61 69 61 63 73 95 154 341 387 501 614 597 653 678 707 709 684 684 659 636 607 478 454 499 521 517 531 515 519 525 527 488 468 450 454 468 474 464 494 511 568 610 620 626 628 636 643 645 659 667 639 643 653 639 552 277 152 134 103 91 97 83 61 49 38 46 38 93 223 279 291 289 315 285 
79 91 101 79 81 67 77 73 83 77 75 95 140 319 417 498 601 572 618 665 669 705 717 715 700 655 541 509 521 521 527 527 543 535 537 552 533 517 490 494 509 550 585 612 626 632 628 653 638 634 639 649 634 560 556 589 554 541 601 630 558 389 317 287 261 259 267 257 239 217 213 223 174 223 237 281 299 309 317 305 
81 83 87 85 83 87 71 61 71 71 67 89 97 237 363 492 628 669 669 632 645 696 701 669 655 612 581 585 581 537 550 531 579 601 560 564 554 535 554 583 612 620 618 624 620 636 622 641 630 628 626 616 531 435 393 381 373 367 435 444 425 387 359 333 313 307 319 319 317 303 343 353 331 355 263 249 285 289 305 293 
89 99 81 87 83 81 73 73 73 71 71 63 87 148 291 381 566 663 672 616 630 657 667 636 618 624 601 585 556 513 521 529 624 603 583 595 587 587 614 620 607 618 620 610 620 622 616 630 620 626 572 486 409 383 391 401 399 405 409 419 417 403 383 357 335 333 335 331 345 351 385 393 385 393 269 217 241 265 283 303 
85 93 85 89 87 89 79 75 71 71 65 77 75 103 174 237 379 545 583 535 595 593 581 618 665 665 628 589 531 503 499 486 554 581 601 614 616 620 601 587 554 568 574 581 603 603 601 620 589 533 448 401 389 403 429 419 421 401 407 407 401 391 385 371 363 363 359 363 363 359 373 389 385 389 269 215 211 235 265 291 
87 95 77 77 81 85 77 79 75 81 61 65 59 79 97 91 162 221 277 253 279 253 317 612 669 682 622 577 529 488 494 468 480 478 488 545 593 601 595 568 548 541 568 570 581 587 593 566 480 433 405 371 425 456 442 446 421 401 389 391 377 361 377 351 347 347 343 355 355 351 371 367 361 381 267 215 209 225 249 269 
91 83 97 95 77 77 69 67 79 83 67 73 65 85 79 63 89 91 89 91 105 107 191 554 680 670 597 541 535 499 509 511 509 503 484 490 548 576 572 541 498 505 543 570 554 539 511 492 425 381 383 417 488 472 468 462 429 387 361 369 353 345 353 339 345 339 349 361 351 349 349 357 351 377 267 223 211 217 233 243 
97 93 93 95 85 85 85 71 87 81 83 71 65 73 75 55 67 69 77 79 79 83 134 359 636 638 572 517 529 505 507 496 509 490 472 472 525 560 564 537 503 488 499 468 442 464 472 468 407 421 435 452 517 458 484 458 417 381 347 327 323 311 323 313 321 327 341 351 345 329 341 339 339 363 275 255 227 227 223 243 
89 91 97 89 87 95 89 75 103 101 93 81 79 85 75 67 79 79 71 67 89 87 109 193 501 591 545 521 517 517 507 478 499 525 505 496 501 527 548 525 503 482 407 389 385 395 431 444 431 448 425 470 494 442 470 456 395 343 321 317 319 317 303 293 303 313 323 337 319 323 335 349 341 357 279 253 229 235 245 251 
95 105 105 99 77 93 91 85 103 128 124 144 136 116 101 71 81 71 71 85 85 73 83 120 273 529 527 513 517 507 505 496 478 496 470 456 480 494 505 482 484 468 395 385 383 373 393 438 452 448 419 460 440 399 482 427 361 309 297 301 281 255 261 243 267 297 295 305 301 319 323 347 335 355 275 241 233 221 251 255 
101 109 97 97 85 103 93 122 170 263 409 537 511 411 249 109 85 61 79 77 73 75 71 83 126 237 395 472 480 515 545 503 501 460 448 429 435 464 462 448 474 444 401 401 397 373 377 425 429 373 377 411 397 379 448 377 343 303 273 275 267 253 235 229 255 279 293 317 307 325 337 347 337 335 253 211 209 207 237 247 
101 105 97 101 93 97 111 150 303 427 670 770 742 667 595 311 130 81 91 67 79 77 69 81 101 118 166 323 472 505 529 521 505 490 492 517 499 501 531 509 484 429 405 431 415 379 381 417 431 371 347 363 357 341 415 377 337 291 287 303 339 337 371 285 259 283 289 307 311 337 339 333 323 323 239 195 197 197 225 247 
83 99 91 91 99 107 142 247 391 494 747 808 787 789 747 670 523 261 120 77 73 79 75 79 79 111 150 365 519 488 570 505 482 496 509 537 550 550 562 560 556 531 478 472 435 415 436 462 431 411 325 311 309 347 421 401 339 321 315 337 343 325 307 301 291 315 309 319 327 323 329 327 313 317 217 172 189 199 239 271 
111 85 99 89 99 105 166 321 395 541 801 820 795 810 787 757 740 607 315 101 75 81 83 65 83 134 319 537 546 545 556 546 543 513 492 480 482 486 482 492 496 492 480 476 470 484 468 454 423 419 347 331 313 309 369 375 349 343 331 347 337 347 337 331 335 339 329 337 319 331 319 305 309 309 201 191 185 201 243 261 
122 95 99 91 91 114 187 359 435 490 728 768 814 822 805 782 757 721 622 289 114 77 75 71 85 239 505 566 529 550 552 543 543 515 498 496 498 474 472 474 478 470 509 513 496 472 442 442 433 429 442 468 375 365 351 377 438 381 389 413 415 413 409 409 395 371 381 391 387 351 331 299 275 257 219 209 221 239 243 241 
105 101 93 95 81 128 205 383 509 527 610 726 793 826 826 801 753 765 690 593 233 101 85 103 205 452 560 529 519 552 560 577 583 572 554 541 541 550 548 552 562 554 527 494 472 454 435 450 460 431 450 452 375 433 401 385 484 407 413 440 444 452 433 427 415 415 436 444 427 387 377 343 287 299 247 205 225 237 239 257 
99 93 87 91 89 114 207 407 546 684 742 763 780 810 805 786 765 768 725 651 466 241 191 295 462 499 496 468 480 535 558 562 595 587 564 562 564 577 599 591 558 511 480 462 448 456 452 466 433 421 427 393 385 427 395 387 450 435 409 446 433 435 423 401 409 389 413 413 411 399 405 371 359 349 249 215 209 221 243 245 
83 101 91 107 97 124 156 381 548 711 797 808 810 803 791 784 784 789 766 667 610 433 458 545 458 409 427 415 431 505 566 589 587 583 556 572 583 614 595 562 484 448 458 446 438 442 433 452 421 421 399 371 359 413 375 405 442 425 407 433 401 417 399 401 379 363 365 371 375 389 403 383 373 369 243 217 207 221 237 247 
87 93 103 97 95 109 136 301 482 614 701 826 801 795 789 774 786 803 742 728 744 539 429 537 494 413 425 435 423 464 558 552 566 527 545 574 585 558 505 452 429 419 409 409 409 417 411 419 409 409 391 359 361 417 381 381 391 349 377 389 375 375 387 385 359 373 365 363 389 393 403 417 423 395 253 225 209 209 241 235 
105 99 83 89 95 99 120 185 371 501 576 725 740 759 755 768 780 782 763 784 776 684 429 405 468 431 446 440 431 419 478 545 550 533 533 535 507 499 458 438 421 401 407 403 407 431 427 423 419 399 407 345 355 423 393 383 446 429 377 371 365 345 333 353 359 373 355 397 417 415 407 423 450 429 265 225 207 213 233 229 
107 91 93 109 99 87 114 105 225 349 458 608 678 696 690 738 766 784 808 808 786 726 496 425 423 464 419 440 446 421 452 490 546 515 509 496 496 476 462 446 421 413 405 417 427 435 421 431 433 440 401 333 383 413 389 379 446 444 423 433 409 379 339 309 341 359 375 429 417 413 429 446 448 433 261 233 207 215 237 251 
95 97 89 83 111 95 101 107 128 174 233 389 458 513 529 577 624 772 822 803 772 661 599 513 431 440 431 450 476 448 462 456 494 492 501 505 507 496 482 468 442 448 448 448 448 450 433 440 442 446 393 323 385 419 385 387 442 444 419 435 442 442 385 347 337 383 433 456 440 440 448 456 438 429 271 215 205 209 249 261 
97 111 101 95 103 101 87 75 105 116 126 164 189 213 219 191 207 371 694 791 772 632 622 566 488 450 440 466 498 482 484 466 486 496 513 552 539 521 511 494 484 474 482 480 478 482 468 448 456 466 367 335 413 395 379 357 405 417 395 429 452 444 395 389 375 391 450 486 474 464 456 452 436 399 255 229 193 197 237 249 
87 95 97 83 95 89 99 71 99 95 93 109 93 101 118 101 114 148 373 717 630 616 595 558 521 486 458 499 527 531 513 478 494 531 548 591 581 570 554 533 519 505 521 494 488 476 458 466 450 450 333 353 395 381 357 349 411 391 369 403 435 425 407 399 399 403 417 454 486 466 480 474 431 359 247 223 199 183 223 245 
87 107 93 81 83 83 89 73 75 97 101 99 87 111 95 71 79 101 189 515 597 597 581 570 523 501 474 499 556 548 545 494 509 533 581 603 579 562 537 521 519 513 507 513 494 478 456 478 482 427 313 373 405 363 351 363 389 377 357 407 411 393 415 423 417 427 442 438 462 472 468 470 373 257 231 213 197 179 237 239 
99 105 97 105 99 79 75 75 85 89 91 97 77 89 87 75 97 95 168 436 558 568 564 550 543 523 531 548 548 570 570 511 507 498 501 546 533 525 503 486 484 488 503 498 486 452 468 515 499 389 307 387 415 365 339 387 367 363 363 403 395 405 440 440 466 478 468 440 462 458 458 436 335 237 217 217 199 181 229 233 
93 103 97 97 101 87 71 75 99 95 83 103 77 87 93 71 93 81 120 387 550 583 560 558 552 579 566 548 527 543 552 511 456 397 421 501 531 521 513 482 468 476 478 488 468 454 501 537 468 345 321 442 429 371 345 369 367 361 389 417 393 419 442 444 468 472 470 433 440 421 423 411 315 249 225 223 225 193 225 235 
87 97 99 93 95 83 85 71 69 83 99 116 75 101 91 77 73 99 156 401 593 581 581 564 591 591 558 488 468 466 480 417 387 377 405 448 537 576 537 499 474 472 468 480 464 450 511 545 435 333 357 482 425 355 367 373 365 361 393 425 411 423 425 431 435 429 435 429 429 440 438 442 329 243 231 229 229 193 225 233 
107 109 109 103 105 89 83 81 91 93 83 99 79 85 85 77 79 103 215 513 570 539 498 505 499 494 466 450 433 417 431 391 405 401 411 427 509 568 558 527 492 482 466 472 450 438 517 513 373 327 395 523 460 369 375 379 373 389 429 440 405 409 411 417 433 423 435 444 450 456 446 438 319 241 229 239 273 225 217 241 
93 103 109 93 99 101 73 63 83 97 101 103 83 83 79 71 95 101 277 531 517 517 545 550 556 576 564 562 529 501 464 407 409 403 423 425 444 523 560 546 509 482 466 474 448 436 476 446 365 333 446 523 466 381 387 397 373 379 421 444 399 385 399 435 450 433 438 466 462 456 419 409 291 253 235 239 267 225 227 233 
91 120 83 87 95 101 85 77 91 85 99 105 85 97 91 79 101 124 271 513 548 570 570 591 591 610 607 608 641 636 632 501 433 413 407 389 381 442 541 562 537 505 484 480 460 446 440 425 383 335 472 515 458 417 431 407 371 371 407 427 403 421 435 440 425 425 436 464 464 450 425 411 285 255 249 257 259 229 217 227 
105 103 93 95 81 85 67 73 83 79 89 93 91 99 81 63 91 111 235 503 562 539 533 533 535 562 576 595 622 634 638 560 427 377 373 359 369 429 484 550 535 505 480 454 456 407 401 446 381 367 482 490 444 444 454 403 377 373 385 399 409 435 433 423 407 417 389 431 425 421 425 377 267 273 237 243 257 235 239 227 


