P2
80 60
535
85 87 59 73 79 67 81 55 85 95 97 105 107 117 85 99 89 83 95 79 81 83 87 67 73 71 87 151 328 426 428 407 419 436 504 519 508 473 444 356 322 342 318 289 283 332 318 350 381 358 318 336 277 269 251 253 233 227 231 227 235 227 249 259 253 257 241 247 221 221 259 289 297 285 307 299 305 287 263 267 
77 75 59 73 75 73 83 75 81 97 107 111 97 103 91 97 105 89 89 83 83 79 95 69 61 69 125 340 434 471 483 438 469 452 502 486 424 324 303 275 255 311 307 277 295 364 324 336 324 261 297 318 271 287 295 277 263 245 261 233 249 263 269 247 267 269 255 249 223 219 231 275 291 281 293 287 285 277 251 259 
71 65 79 79 87 79 85 87 67 95 87 83 103 99 101 95 81 93 93 91 83 91 85 75 87 89 211 409 438 452 459 473 453 467 484 463 434 403 440 421 381 415 375 285 311 303 275 265 261 251 283 279 279 291 285 287 267 259 263 269 261 263 269 277 289 291 279 249 241 229 225 283 275 269 263 259 229 239 213 229 
79 79 75 71 79 81 95 89 71 75 79 101 89 105 99 85 85 89 91 93 85 85 87 79 95 111 245 403 436 438 413 446 428 432 428 426 436 428 448 399 401 377 364 299 277 265 265 241 231 229 269 281 287 277 291 295 283 289 301 285 287 279 283 295 297 289 305 287 255 253 261 257 265 247 241 211 219 213 189 187 
69 77 73 77 87 87 83 95 81 89 83 101 107 105 93 95 87 105 91 93 85 85 79 83 99 119 229 403 428 424 413 430 436 415 413 430 430 428 432 399 379 387 342 291 269 293 263 253 259 219 271 281 295 281 271 285 271 279 285 291 303 291 314 311 314 314 303 281 259 223 223 207 183 167 159 145 137 129 131 141 
67 73 85 73 79 77 87 79 83 103 101 117 99 107 111 105 103 99 101 101 95 107 111 93 119 135 233 379 446 452 436 444 417 419 399 397 421 436 438 401 375 385 346 299 273 263 267 251 223 241 257 269 271 255 263 267 285 314 309 330 318 320 324 287 273 241 215 197 171 153 151 153 139 131 117 119 115 121 117 121 
63 87 91 85 71 97 97 97 99 105 89 107 109 101 115 105 97 123 105 113 131 113 125 103 129 213 305 334 444 475 452 450 424 411 383 417 434 450 422 383 387 375 332 291 287 301 273 269 235 233 265 281 265 253 257 267 291 322 318 311 271 243 207 169 161 151 145 149 165 155 143 143 133 141 121 119 121 139 117 123 
73 87 93 79 83 85 95 97 91 117 95 97 113 109 111 111 95 113 123 135 171 209 193 149 187 320 452 411 432 463 448 459 428 405 383 393 422 421 426 393 372 344 312 291 285 293 247 267 253 245 293 279 263 233 239 261 275 316 251 217 171 147 137 141 149 153 153 153 155 147 161 161 157 141 131 125 113 121 123 123 
81 77 105 85 87 91 87 103 91 89 105 109 125 119 107 111 123 133 195 295 389 442 417 407 428 494 512 471 415 428 428 417 374 356 362 395 411 421 426 403 354 332 311 277 265 259 247 245 249 219 265 263 239 225 229 257 283 305 217 171 141 149 147 153 157 145 149 157 171 171 165 171 165 149 147 127 127 143 125 141 
91 89 87 83 75 103 97 101 87 103 109 113 121 121 119 123 129 181 360 450 504 535 514 498 517 525 515 486 381 405 393 366 309 332 360 403 434 432 432 397 362 342 336 275 267 263 249 253 239 225 251 267 243 241 247 277 297 332 314 291 225 193 183 177 161 171 171 175 189 169 183 171 169 153 139 153 133 137 121 123 
75 91 89 103 95 93 97 95 91 99 107 105 115 113 125 121 145 263 450 473 525 488 502 490 502 498 510 484 415 387 393 391 362 356 360 389 436 421 444 405 393 350 312 259 269 275 241 259 233 221 235 269 267 251 273 299 301 324 342 356 336 324 312 309 277 259 259 225 203 181 195 203 193 177 173 157 159 165 127 149 
77 71 83 71 87 105 89 93 81 91 91 113 99 105 113 111 159 324 440 453 514 436 409 481 483 490 490 465 417 453 465 471 415 366 354 375 419 430 446 413 411 368 307 273 259 265 239 235 233 227 213 267 281 275 285 314 326 352 383 385 383 366 372 368 346 340 350 344 307 283 267 269 249 229 213 197 199 175 163 163 
69 79 61 83 91 93 89 83 79 85 101 113 105 107 95 105 159 344 469 448 463 442 450 490 448 377 372 354 422 463 481 475 452 389 368 368 389 401 405 387 385 364 332 289 289 261 249 235 249 215 233 277 299 312 320 338 328 358 372 377 385 389 372 370 372 366 356 346 318 301 314 322 322 295 285 283 271 267 237 235 
69 79 87 65 73 99 91 89 83 97 115 103 105 99 107 95 137 259 424 452 484 508 488 457 332 173 193 257 374 452 461 450 434 405 362 377 385 389 401 393 385 387 375 322 291 279 233 267 251 223 229 312 338 352 366 346 320 334 354 350 352 354 375 352 352 368 374 336 309 289 275 295 287 287 291 277 281 257 237 271 
79 77 83 69 87 95 95 87 81 93 99 81 93 91 97 93 113 153 293 399 411 417 316 195 129 111 121 197 391 426 409 411 407 417 411 426 405 407 407 399 399 407 393 354 334 305 318 283 265 249 237 307 344 364 383 332 336 344 330 328 332 332 334 338 326 348 320 314 305 257 247 261 279 277 273 263 271 259 255 265 
81 79 77 71 73 95 91 87 91 97 91 91 101 99 101 89 101 117 151 195 227 189 127 107 121 109 127 193 377 399 366 379 360 397 446 475 490 477 475 461 446 426 432 405 419 385 395 356 340 318 309 326 375 391 395 324 360 356 326 299 297 289 291 283 275 285 287 283 273 237 229 257 259 257 251 251 247 241 265 249 
79 71 83 67 85 69 83 79 71 87 97 95 109 99 107 91 101 103 105 109 115 103 109 127 135 111 115 173 332 415 395 399 385 395 444 494 508 488 506 473 444 434 426 413 432 430 407 432 417 393 419 455 459 455 387 311 297 291 267 237 201 199 183 187 185 193 215 229 211 199 201 231 231 211 201 179 185 193 173 187 
63 69 63 65 77 85 87 77 77 91 85 95 93 95 105 99 103 113 109 125 123 117 109 117 139 115 121 155 219 393 432 424 395 377 391 508 496 463 469 442 444 430 419 395 417 411 385 360 395 393 422 430 426 397 340 187 161 145 137 151 143 149 139 163 155 177 183 191 197 187 177 195 179 177 157 165 173 159 149 183 
67 89 79 85 83 77 99 83 81 93 91 105 93 103 117 99 103 113 111 111 107 119 121 113 131 101 119 133 163 201 279 379 364 364 372 444 417 352 352 344 340 324 305 309 307 301 267 227 269 251 305 322 299 281 189 145 123 145 135 143 143 143 149 165 177 165 177 177 179 181 183 189 181 179 175 177 181 187 157 179 
63 79 61 79 93 87 81 93 81 83 95 97 103 99 107 103 99 113 105 113 109 111 115 111 123 127 101 125 127 143 159 187 219 243 281 320 285 241 243 211 203 213 203 197 189 191 209 213 217 221 189 183 173 153 151 141 137 127 135 127 135 143 141 143 159 157 175 171 189 181 187 197 219 241 253 251 259 259 229 255 
79 89 95 81 85 85 81 89 77 81 91 97 105 115 99 113 103 121 101 103 119 119 121 123 125 115 103 127 125 139 139 167 175 183 217 271 273 271 273 265 253 297 279 273 249 211 199 213 225 215 207 177 169 157 149 155 125 127 159 165 185 187 183 163 153 169 173 169 183 215 247 265 269 287 293 287 289 281 283 281 
75 95 81 79 89 71 95 87 83 87 89 87 111 105 101 99 87 105 109 125 123 117 109 119 125 103 113 121 123 145 141 159 169 209 295 324 344 320 332 352 374 372 366 368 375 346 253 221 239 211 189 175 181 177 167 189 193 205 229 243 259 253 219 189 185 183 205 199 191 239 249 243 233 259 277 289 287 287 285 271 
93 79 95 103 97 81 99 89 89 99 97 107 101 107 105 103 109 113 107 111 115 117 105 117 119 115 101 115 137 149 149 183 239 314 311 309 362 354 346 324 374 364 366 344 360 374 362 281 239 229 235 199 207 195 217 249 241 265 285 295 283 287 241 211 209 211 213 211 203 243 239 233 243 259 283 275 269 261 255 245 
73 91 93 79 95 95 77 85 87 107 99 111 97 107 107 97 95 117 89 113 111 117 115 101 109 109 109 117 131 153 161 239 301 289 279 293 293 318 318 295 326 338 346 307 334 362 358 336 309 293 265 237 213 217 221 239 253 281 297 295 275 251 229 213 221 197 199 193 207 223 227 225 243 253 249 253 231 209 187 171 
85 77 93 97 89 93 97 85 89 97 97 107 107 105 103 101 107 105 107 107 99 119 119 111 107 101 109 123 129 147 175 328 314 269 245 247 237 237 235 247 231 211 235 229 299 324 348 348 338 328 281 227 199 201 221 233 239 283 297 281 245 229 227 227 225 215 199 183 189 197 211 227 233 221 191 191 193 175 153 179 
77 87 75 85 89 93 105 71 93 93 99 105 101 111 107 91 103 111 97 113 113 113 125 103 103 87 101 119 131 143 207 352 312 297 263 285 275 233 153 99 93 115 155 137 209 283 307 299 316 344 328 273 231 213 217 221 229 243 251 229 223 205 219 221 239 229 211 169 175 173 185 195 189 177 171 167 161 163 145 153 
73 85 95 71 79 93 99 79 73 87 101 103 105 101 111 97 99 109 105 103 119 103 109 111 115 89 95 117 127 151 239 322 322 312 360 389 305 209 115 71 95 113 139 119 163 207 223 227 265 326 379 389 372 326 237 233 213 231 217 207 215 203 211 215 217 219 199 163 175 171 179 175 171 185 167 147 131 145 131 153 
75 87 93 79 83 79 87 91 85 91 93 95 93 105 101 85 89 109 95 107 113 101 103 103 113 95 79 103 135 145 255 318 326 330 370 426 309 205 101 48 83 119 145 131 145 153 167 191 233 303 391 411 419 413 303 237 227 235 235 213 223 217 245 221 213 195 193 185 191 205 191 191 169 161 155 143 137 135 121 145 
75 85 73 75 81 99 85 87 83 85 97 105 93 105 101 99 105 111 95 105 109 121 145 131 159 183 147 115 137 153 295 309 312 334 311 334 259 153 69 52 101 109 149 145 149 143 155 183 229 235 346 387 434 436 346 311 257 247 227 235 237 225 215 191 173 167 175 195 187 191 207 171 179 147 141 137 129 127 131 125 
69 69 91 89 83 83 89 87 103 81 105 93 87 95 93 85 85 103 103 107 129 211 259 259 330 399 375 291 261 283 340 297 309 322 289 253 185 93 57 61 91 121 147 145 157 137 131 149 201 219 263 328 419 428 419 411 316 255 251 207 233 225 167 155 159 165 171 173 203 187 185 191 165 143 125 129 135 131 113 111 
77 79 85 83 91 83 77 89 89 95 89 87 109 103 89 95 103 107 89 125 215 281 314 358 457 477 473 461 422 413 362 314 311 352 295 229 161 87 40 42 87 111 145 135 135 125 115 153 213 209 235 314 434 419 434 432 332 279 251 221 223 225 213 181 187 177 163 191 193 177 183 173 167 137 121 121 109 135 113 119 
75 79 71 85 85 77 83 97 93 81 97 97 99 119 109 99 91 111 107 135 263 358 352 432 488 446 432 467 401 422 387 328 330 358 305 261 173 131 85 67 75 115 135 143 111 81 105 153 197 199 207 307 421 434 448 424 334 271 253 213 209 211 245 249 271 215 209 191 183 185 181 179 163 143 123 121 119 125 115 149 
77 91 73 97 93 79 81 81 85 93 95 105 99 123 105 103 101 105 119 133 263 364 409 475 488 452 436 486 434 421 385 360 342 358 311 287 225 169 163 95 97 89 111 133 129 65 119 149 209 207 215 346 424 444 438 421 316 227 211 197 197 217 251 235 265 231 249 255 233 225 207 185 173 173 135 135 133 131 117 143 
81 83 83 91 91 97 77 83 79 93 95 107 107 107 109 107 109 111 119 143 265 354 397 415 483 475 475 486 415 395 354 387 336 348 320 295 269 241 223 143 107 93 115 109 119 59 127 161 209 231 275 354 417 422 409 316 223 213 213 205 205 205 215 231 235 233 275 285 275 263 273 227 215 209 189 191 171 159 151 169 
55 71 75 85 79 87 81 81 75 79 97 109 117 117 103 105 115 109 125 123 213 297 332 354 413 426 446 407 316 253 265 362 322 305 279 303 287 289 245 203 163 77 129 95 109 123 159 211 275 303 307 350 374 336 279 225 207 203 221 213 217 203 195 215 227 241 265 297 283 295 293 263 251 263 251 271 245 247 229 221 
65 69 95 87 87 101 91 83 89 113 103 99 111 113 101 103 125 113 117 117 147 185 213 247 261 269 243 207 171 147 203 320 314 273 275 316 289 275 281 225 169 105 161 149 169 175 259 293 330 338 311 273 223 191 199 215 219 205 209 229 211 195 197 185 213 233 273 261 269 275 305 273 269 255 259 281 305 295 295 301 
75 79 85 87 79 93 93 83 97 91 97 109 111 105 99 115 101 101 107 109 117 119 119 133 127 125 113 117 131 131 159 243 297 291 255 271 223 243 283 245 231 233 259 253 243 267 311 344 356 352 287 235 205 173 209 199 217 207 197 211 215 187 179 169 209 211 233 243 247 261 271 283 277 267 269 277 299 299 305 309 
75 79 87 99 81 81 93 85 81 81 91 103 101 115 109 105 113 107 111 111 109 115 101 115 123 109 109 123 127 143 151 189 309 305 273 219 155 195 241 237 267 340 334 318 350 332 358 370 360 281 211 195 199 181 193 207 217 223 195 213 195 191 175 157 173 193 179 203 201 233 251 277 273 279 275 279 297 318 295 293 
57 71 73 81 79 79 89 85 75 93 99 103 107 115 103 107 109 105 107 103 123 127 121 119 119 117 95 121 119 133 145 165 245 328 275 247 193 201 225 227 273 377 358 352 348 354 362 350 281 199 179 149 171 177 175 167 157 159 173 175 189 161 155 165 161 149 165 161 171 191 197 213 219 235 249 247 263 259 249 249 
63 87 89 97 77 89 93 81 77 103 89 103 91 101 111 101 109 103 107 115 115 99 115 99 107 101 113 125 123 145 189 241 281 340 332 324 303 295 312 279 322 389 372 350 346 344 318 215 185 179 163 147 159 153 153 149 131 131 115 137 133 141 145 143 133 139 155 147 165 179 175 169 171 167 175 179 199 201 189 181 
73 93 83 81 75 103 101 93 95 111 95 105 97 111 101 101 101 105 105 111 117 105 103 103 101 117 111 123 163 281 336 344 354 362 383 389 368 358 316 356 401 377 346 245 197 169 145 141 161 157 159 155 135 155 159 143 129 121 113 109 125 119 129 131 131 149 155 161 159 159 153 163 153 159 171 163 175 179 171 175 
69 87 71 77 87 79 89 85 81 81 91 103 99 113 111 107 99 103 115 103 109 107 105 99 103 109 107 131 257 381 372 332 342 372 374 389 366 375 383 417 417 397 391 358 279 165 109 133 153 157 149 133 131 135 133 141 115 117 107 117 107 101 115 125 127 139 153 157 147 137 149 149 135 147 153 153 173 183 163 177 
81 87 79 73 93 97 87 79 79 101 87 99 107 111 103 113 91 117 123 103 105 107 111 107 109 107 113 181 342 383 354 354 334 350 370 385 352 348 372 401 411 397 401 383 364 336 177 127 141 157 137 141 121 139 119 123 101 115 105 113 109 119 129 115 121 133 135 147 159 151 155 139 143 145 139 165 171 173 159 169 
79 75 75 97 89 83 101 81 81 87 105 109 117 107 93 107 145 205 223 185 137 119 119 105 105 113 139 277 360 370 358 346 314 305 314 346 336 338 362 401 417 428 413 401 383 387 366 229 167 157 157 155 139 155 141 145 121 129 149 147 171 173 155 149 139 127 137 151 157 145 147 139 131 147 145 163 157 149 145 167 
69 83 89 105 95 101 95 93 91 101 101 97 111 121 115 173 279 411 409 389 374 316 255 145 111 123 205 312 328 344 322 311 289 289 301 307 289 255 275 289 322 324 340 354 370 389 377 352 293 257 219 215 225 221 261 243 223 217 225 221 227 223 171 143 151 143 133 139 145 147 149 139 141 151 153 135 175 157 149 161 
77 99 99 93 93 105 103 93 91 95 103 101 121 115 147 269 383 446 434 494 494 465 461 364 217 195 305 340 342 328 316 299 273 289 285 295 231 183 189 195 225 275 303 314 344 368 377 389 368 291 247 241 241 237 245 259 245 223 233 241 235 221 191 141 159 147 131 159 167 153 157 167 179 161 171 161 171 167 165 177 
81 91 95 87 99 99 107 99 99 93 95 101 123 121 171 279 389 422 459 521 484 450 438 452 438 389 401 358 358 320 314 291 269 297 303 219 163 149 169 189 225 229 283 293 297 332 358 374 354 334 283 255 245 241 241 243 237 247 237 245 263 233 193 161 145 137 121 157 189 187 215 253 281 291 303 283 265 221 193 199 
65 91 85 79 99 101 87 87 85 97 97 107 113 129 163 289 377 401 473 515 490 419 409 413 413 438 417 368 342 328 289 263 249 257 221 147 105 97 161 191 209 239 263 265 285 311 297 344 340 328 283 267 257 243 241 241 223 231 239 243 219 217 199 171 163 147 139 179 185 205 225 287 322 322 342 352 338 314 283 301 
75 97 83 91 81 87 101 91 103 91 107 97 113 125 139 271 366 391 457 496 475 405 411 403 411 434 397 326 299 299 289 265 225 207 207 123 73 99 175 181 219 245 259 269 241 275 261 293 334 340 299 269 243 237 245 255 241 235 233 227 211 203 189 169 159 131 135 157 151 147 223 267 301 314 338 360 350 340 305 307 
71 87 85 85 89 85 103 85 81 93 103 111 101 125 131 187 334 374 430 483 444 473 463 403 409 405 362 279 263 265 221 205 183 177 167 111 83 103 209 209 233 223 245 263 263 257 269 257 269 307 309 289 283 251 239 247 245 239 233 239 205 213 189 199 169 165 149 137 147 141 195 241 275 291 320 348 334 342 312 307 
79 95 97 83 93 81 99 89 93 101 93 93 111 113 115 121 165 253 307 375 419 413 399 372 364 377 334 285 267 233 207 185 179 161 121 101 59 113 187 227 219 235 231 241 249 247 229 253 225 243 279 307 318 340 287 239 247 231 219 215 225 213 209 187 177 187 179 145 151 169 191 211 241 263 301 320 318 311 285 285 
81 77 95 73 101 107 95 89 81 99 91 99 101 103 111 109 107 139 159 171 205 203 165 161 205 318 295 285 283 251 209 197 173 149 113 48 38 63 177 205 205 223 221 215 239 245 215 249 199 217 243 342 344 340 340 309 227 213 199 187 205 213 219 207 191 211 215 197 183 159 175 195 209 227 247 253 265 257 207 237 
73 77 85 81 89 109 99 99 89 101 111 115 125 123 123 113 105 111 121 119 133 121 135 109 151 239 297 295 275 255 209 197 183 139 77 24 6 18 141 177 197 189 189 197 217 233 221 235 207 213 237 328 364 374 391 366 320 247 193 197 197 193 191 181 169 175 191 179 169 159 163 143 149 157 157 159 167 175 155 181 
75 91 83 97 77 97 85 87 77 105 95 99 99 115 115 95 117 101 109 115 121 109 117 101 119 207 295 285 253 247 211 197 193 141 73 14 0 26 123 167 187 187 175 139 189 211 195 221 211 205 255 314 350 389 387 399 348 277 221 219 177 175 173 155 149 143 155 151 153 141 145 153 141 133 151 161 151 147 151 171 
89 79 93 89 91 97 85 87 89 89 91 97 105 109 105 107 101 111 103 101 107 113 95 109 99 177 309 287 255 223 187 217 209 171 95 26 6 32 137 173 193 179 153 163 167 183 187 201 189 219 281 301 354 370 395 403 350 295 221 223 197 199 219 217 187 185 177 167 175 155 143 145 143 143 145 155 147 143 151 167 
65 83 59 61 79 65 83 81 85 87 89 105 95 121 101 85 107 95 89 91 105 89 95 85 93 167 271 297 273 227 195 197 211 199 129 77 85 50 141 189 211 187 179 177 179 197 179 219 219 253 303 263 251 267 340 352 328 247 191 189 189 205 213 225 213 209 229 201 185 167 169 163 189 181 191 187 169 153 151 187 
65 69 83 71 81 71 83 77 83 95 79 105 95 93 93 83 85 97 105 85 89 97 93 79 73 115 257 291 261 249 213 189 207 207 189 95 91 125 205 191 207 199 193 193 193 221 219 225 253 255 271 261 217 203 227 231 209 191 183 179 205 203 199 193 199 191 207 187 173 159 153 187 227 247 249 277 283 243 223 215 
57 67 67 73 73 81 75 65 59 85 89 93 87 87 109 93 91 83 97 71 85 73 75 71 67 91 207 253 247 259 235 243 243 237 237 211 205 211 225 209 229 223 225 225 253 249 261 285 275 249 213 205 175 185 191 209 181 183 177 193 191 179 175 187 179 161 187 135 113 109 137 167 219 239 263 285 299 316 301 299 
44 67 46 59 75 67 73 55 63 65 73 73 83 91 93 85 71 81 79 67 75 77 79 67 75 67 95 217 247 247 249 255 253 261 291 299 311 305 318 243 275 269 285 309 303 293 293 289 251 211 187 169 179 209 199 207 201 195 195 167 191 165 185 169 153 165 165 95 89 85 147 195 211 255 287 299 312 322 297 303 
42 81 59 50 55 73 61 61 61 81 57 73 89 81 89 85 83 81 79 69 69 79 77 77 85 52 57 87 165 229 251 257 241 239 275 305 348 326 346 307 305 326 326 334 301 293 279 251 219 213 193 181 207 233 245 233 201 201 195 197 185 183 165 179 175 169 161 99 93 81 161 199 251 287 285 295 291 307 297 320 


