P2
80 60
584
22 32 16 0 16 18 40 22 46 36 30 38 38 40 48 36 57 59 57 50 61 59 55 52 67 81 63 75 85 67 73 81 59 81 99 87 69 89 99 101 93 81 77 79 77 73 81 67 81 107 120 150 140 168 194 260 296 308 376 456 470 391 286 276 308 354 356 342 399 417 462 484 474 476 379 320 278 246 240 212 
50 34 30 6 22 28 38 34 32 44 24 32 18 63 32 48 48 57 69 52 59 61 73 55 55 75 69 71 71 63 67 79 63 73 83 97 83 89 87 85 93 67 73 69 67 87 61 77 73 89 105 136 154 230 260 270 383 458 511 534 515 511 509 468 530 546 507 413 405 468 464 468 458 385 358 334 298 256 248 234 
24 16 22 14 28 16 36 28 46 42 32 48 42 38 48 50 65 55 59 63 65 69 65 69 65 73 67 75 63 87 73 71 71 71 83 81 85 81 87 97 91 91 85 81 67 63 65 87 87 57 97 124 152 258 278 260 389 493 513 540 567 573 559 565 551 536 544 503 476 497 464 435 376 332 306 330 306 288 256 244 
26 18 10 10 24 12 18 34 57 40 34 57 34 40 36 44 46 52 52 67 61 40 67 55 55 57 71 55 75 59 75 69 67 69 79 67 79 77 77 79 85 77 85 71 69 61 67 81 67 71 77 97 134 242 280 264 427 493 549 557 584 579 557 561 548 534 557 517 507 501 450 376 368 344 312 306 282 310 280 260 
22 4 18 6 18 32 22 38 34 40 44 30 57 59 48 55 59 65 61 52 59 46 59 59 50 77 67 59 63 63 69 57 63 77 87 69 75 75 75 77 75 87 67 57 67 65 75 65 71 63 75 65 97 200 246 232 444 518 548 559 582 582 548 546 536 553 553 517 507 499 462 374 368 346 350 350 308 286 272 270 
10 6 8 10 20 30 24 22 44 34 32 48 50 65 52 32 63 71 59 61 61 55 65 59 59 57 55 59 63 69 57 57 61 48 71 71 73 67 61 91 73 65 83 77 69 71 71 67 65 75 63 75 95 162 258 236 302 474 553 569 584 580 553 534 520 528 517 493 509 503 435 377 372 334 332 352 342 310 292 294 
6 22 16 8 34 38 26 30 55 36 44 42 46 52 38 42 44 46 67 55 59 55 52 55 65 71 52 59 55 75 75 71 73 77 73 75 85 81 77 95 77 77 89 87 75 81 85 75 87 81 79 77 83 95 208 258 246 413 515 555 573 546 536 513 503 503 487 505 503 468 376 336 372 362 336 342 336 318 314 292 
2 14 26 30 44 28 40 40 57 44 28 46 46 63 55 48 48 52 65 61 71 42 59 63 69 71 69 79 73 69 67 79 73 73 99 97 81 109 85 95 81 93 93 83 89 93 101 87 83 85 89 95 87 97 148 210 262 328 429 450 466 444 425 379 372 364 454 493 507 464 374 366 385 377 340 364 342 328 322 322 
16 28 24 10 34 34 36 36 40 32 38 52 59 40 57 38 61 57 50 75 57 61 63 77 63 65 77 73 77 83 81 81 85 65 81 85 91 97 105 109 93 87 91 85 101 77 97 99 95 85 93 97 85 87 101 109 126 164 222 194 194 140 248 348 372 381 425 472 484 395 376 383 374 364 342 350 340 318 336 336 
22 16 32 32 32 34 32 36 44 32 57 75 73 73 52 55 79 73 71 67 65 67 61 73 79 75 81 79 91 81 85 75 85 85 83 89 99 97 113 105 109 95 103 105 105 95 97 81 107 95 93 97 95 87 95 83 79 81 93 95 93 117 218 368 409 423 421 427 409 356 354 334 358 356 348 334 332 318 320 332 
20 16 32 38 48 34 36 34 40 61 46 65 65 63 50 57 69 69 63 67 67 89 71 81 83 83 77 75 77 81 77 89 79 97 97 97 99 95 101 113 111 99 101 99 107 95 107 105 109 101 85 93 95 89 87 79 83 79 77 83 81 91 242 393 446 437 431 427 413 362 332 356 346 352 340 328 342 338 324 330 
16 30 48 30 40 44 48 65 63 69 52 50 59 63 52 67 73 71 71 79 71 75 67 89 83 75 81 95 79 73 77 85 81 85 103 91 103 113 99 95 103 107 111 89 97 91 107 105 95 89 97 109 93 95 87 81 69 73 81 83 83 89 256 417 444 435 427 419 413 385 340 348 334 346 318 324 324 324 330 338 
32 28 32 30 36 57 40 42 44 52 59 59 61 67 63 57 65 52 67 65 61 65 73 69 83 89 83 79 81 81 93 93 101 91 101 101 101 109 105 105 103 109 101 97 101 103 105 111 105 97 95 103 101 97 89 79 67 77 107 75 81 85 212 393 435 456 425 387 352 336 350 348 328 352 314 342 318 308 340 338 
16 24 36 36 52 52 63 63 61 67 69 59 57 73 46 61 71 69 67 79 73 67 87 81 81 85 81 83 95 97 85 83 91 93 91 109 103 115 107 103 117 97 111 109 101 103 99 105 103 99 109 101 103 93 93 81 75 75 85 73 87 97 152 316 409 454 460 397 326 304 300 310 320 298 264 304 308 280 320 328 
22 18 34 30 38 42 46 59 63 61 61 61 81 65 61 67 73 83 71 69 83 79 61 75 77 87 79 91 91 93 93 81 87 91 93 95 103 103 115 115 101 95 107 105 97 105 95 99 95 87 93 103 95 95 87 85 71 83 89 73 95 95 132 240 379 448 470 456 376 316 292 266 218 166 154 174 182 226 276 344 
20 24 38 28 48 57 36 44 50 65 55 69 57 61 59 57 67 69 65 75 81 75 75 87 83 83 71 83 89 85 91 83 91 85 97 87 87 97 107 97 120 101 103 93 101 85 95 89 93 103 89 101 93 87 87 79 71 73 91 71 85 83 117 136 316 452 476 472 348 304 264 200 156 140 130 126 99 115 238 376 
24 24 28 32 46 63 50 57 57 61 34 57 55 65 67 61 75 73 71 89 75 63 71 71 75 81 83 89 85 79 87 85 77 95 87 89 99 81 97 95 101 93 91 93 95 87 105 87 105 99 85 101 93 81 81 79 57 71 95 77 103 81 120 117 282 446 489 466 332 240 186 138 146 146 122 130 111 120 272 389 
8 36 42 44 42 36 63 44 61 61 50 46 55 52 48 63 63 59 75 69 67 61 77 77 75 85 71 89 71 75 85 85 69 95 77 93 107 99 95 87 91 89 85 103 95 97 93 101 111 91 101 107 97 83 83 93 77 77 89 77 91 89 132 160 282 425 491 444 278 176 126 136 158 152 138 148 142 152 274 413 
26 28 52 42 46 59 44 61 55 69 59 48 55 63 50 69 57 77 71 67 63 65 69 67 77 67 71 69 65 79 87 71 71 69 89 77 101 85 95 95 103 85 101 111 97 99 105 105 113 101 93 107 99 97 95 103 83 89 95 97 83 128 130 204 332 437 470 431 282 164 182 196 246 232 206 194 208 286 448 440 
22 38 40 36 57 46 38 50 65 44 65 59 38 69 48 63 67 81 61 59 63 65 71 75 71 83 73 69 77 73 89 81 77 81 93 83 97 107 101 97 105 95 109 109 99 91 105 109 107 101 105 101 109 115 122 107 105 107 111 107 101 101 182 302 433 480 476 431 344 256 332 399 435 450 413 358 389 442 499 486 
36 38 44 34 50 50 46 36 55 59 48 63 55 61 65 55 61 75 65 73 75 63 81 67 95 77 79 81 87 71 89 89 87 87 87 99 91 107 122 113 109 105 103 105 105 89 97 107 113 109 111 117 115 132 126 95 109 113 126 120 134 124 206 348 472 476 472 425 391 415 450 444 474 472 444 423 440 511 526 487 
42 40 44 61 42 50 46 50 65 46 50 55 59 67 55 63 75 63 65 81 75 77 85 77 85 83 101 79 81 95 87 101 83 103 99 105 111 115 99 105 99 115 111 128 105 105 113 109 117 122 120 128 111 124 126 105 105 107 144 142 113 142 262 397 480 480 458 435 439 458 437 448 470 474 429 391 431 503 497 444 
22 32 44 38 42 48 57 50 59 63 50 50 65 61 71 63 83 79 81 69 85 79 67 77 87 85 81 85 95 93 81 99 83 101 97 107 95 97 105 97 120 103 122 111 113 111 120 109 117 111 126 120 130 142 144 122 124 109 126 148 146 204 358 452 456 460 421 411 429 419 407 368 366 356 306 294 322 391 407 391 
22 20 36 50 57 71 63 57 55 59 71 48 65 77 65 67 65 79 73 91 85 81 81 81 77 91 91 91 91 87 89 89 105 97 89 103 101 109 103 115 105 115 109 103 105 117 124 117 128 128 132 140 132 124 128 136 109 128 142 126 164 312 450 484 480 448 405 429 431 431 358 322 308 290 262 268 274 312 377 372 
28 24 42 36 52 48 46 59 59 46 48 71 67 69 73 65 69 73 75 85 73 79 83 79 83 87 89 85 87 89 95 97 93 107 107 103 91 105 111 107 111 111 99 109 111 103 128 113 122 124 130 136 136 132 144 138 124 140 158 156 278 391 489 484 452 419 446 476 470 399 294 276 286 292 284 296 328 383 421 407 
34 26 46 40 46 67 55 50 59 57 65 59 46 65 65 73 77 63 75 69 69 79 75 95 93 81 113 99 89 85 81 99 101 95 105 107 95 103 105 101 101 113 109 103 111 124 117 134 111 120 122 126 122 136 148 122 117 124 146 194 358 456 493 480 407 421 444 470 439 362 300 290 336 322 387 411 387 429 466 419 
30 57 50 48 52 50 48 42 59 59 61 65 59 83 57 65 73 73 81 83 77 79 91 95 77 93 85 83 83 83 91 97 109 85 99 93 103 93 109 111 105 111 109 111 120 111 120 126 132 124 124 117 140 142 136 130 113 117 142 214 362 468 495 450 383 425 411 429 413 405 377 290 330 356 435 425 419 431 435 439 
36 32 57 34 50 50 55 55 79 75 69 71 63 73 79 73 85 77 71 75 75 77 89 79 83 103 87 97 99 95 95 83 95 95 105 89 99 115 105 107 115 111 115 111 109 120 115 136 132 132 109 132 136 128 146 132 115 128 166 290 429 468 482 405 372 399 364 368 393 385 376 316 320 401 439 433 456 448 425 439 
48 32 52 50 55 63 50 50 63 52 67 63 63 75 59 59 81 79 87 93 75 85 83 85 103 83 97 87 93 95 93 101 85 95 105 101 101 107 122 105 122 115 107 107 107 120 120 130 115 134 128 134 126 138 126 130 126 148 192 298 435 487 460 372 354 368 360 332 356 346 334 322 356 377 425 421 444 487 444 448 
22 26 48 57 46 69 50 65 73 63 65 69 63 73 65 67 75 67 69 83 85 81 83 81 89 87 85 87 89 93 91 91 97 99 103 101 95 103 105 97 115 107 107 128 122 113 101 109 124 122 117 128 122 138 148 144 128 164 176 278 419 444 452 427 383 401 425 385 324 308 316 340 356 348 389 393 413 491 454 442 
52 34 57 48 63 55 59 50 61 67 57 57 63 69 71 65 85 73 81 73 87 85 83 89 85 91 99 97 97 99 87 87 89 97 97 107 93 93 109 111 113 103 109 109 113 117 120 115 111 115 115 128 160 186 234 216 324 290 304 308 421 470 489 435 389 403 425 376 304 284 310 364 368 352 344 403 401 486 450 444 
44 34 44 42 57 55 40 42 50 81 65 59 77 61 69 75 81 75 75 79 73 75 83 83 87 83 83 85 91 75 85 89 85 95 97 97 89 91 111 97 105 103 101 109 103 105 124 111 115 115 115 162 290 324 326 354 464 524 476 446 478 466 491 474 346 387 415 376 340 296 310 364 326 342 326 397 401 474 437 437 
36 50 46 44 32 40 59 55 59 50 61 48 55 67 71 67 69 59 77 61 52 65 73 75 71 75 75 73 81 75 79 85 85 81 83 83 87 99 99 91 95 101 107 107 103 107 111 107 103 115 111 246 340 352 385 376 503 532 551 553 520 499 478 446 336 389 407 411 391 320 348 364 360 328 348 407 399 456 458 460 
28 44 40 44 40 52 42 59 67 69 55 55 57 65 57 50 59 57 65 77 69 71 71 73 73 77 81 83 71 75 75 79 73 73 77 73 83 95 101 109 79 89 105 107 89 103 107 107 113 105 138 276 338 385 405 460 501 548 534 528 511 478 470 440 358 381 387 446 421 336 374 399 393 342 356 385 393 452 486 484 
24 46 38 30 50 42 59 59 55 65 48 59 52 63 55 55 59 71 61 75 69 69 63 79 75 79 75 69 71 87 83 75 87 73 89 89 83 101 99 95 105 97 107 105 93 120 101 109 120 109 150 318 364 407 437 534 526 497 389 452 493 466 452 423 399 391 433 421 374 360 409 439 450 374 336 381 417 466 497 489 
28 52 57 36 69 52 59 50 65 57 63 59 59 71 67 59 71 73 71 75 75 85 79 73 77 95 81 85 77 79 77 79 91 89 101 93 99 93 103 109 109 103 109 103 107 115 111 113 117 109 160 342 366 409 448 534 503 526 437 439 484 446 442 448 433 413 407 358 356 374 429 464 464 421 364 411 440 464 509 499 
22 40 48 34 40 38 48 77 67 71 59 67 69 81 57 65 83 77 83 75 77 77 83 79 77 73 87 81 75 79 91 89 87 87 91 103 113 109 109 111 113 107 115 103 107 105 115 122 122 113 140 308 308 385 415 379 489 499 462 518 421 405 425 431 421 389 354 354 379 395 452 480 484 487 472 462 468 466 499 482 
34 36 50 46 42 55 50 67 69 69 89 61 95 73 61 69 77 71 81 87 89 77 75 85 95 75 83 85 89 85 97 99 99 99 99 105 103 105 107 111 109 109 113 113 115 109 122 115 128 117 140 242 260 258 314 272 330 395 405 298 206 252 379 407 417 395 387 387 405 464 462 470 484 497 497 489 478 486 495 456 
26 40 32 46 52 57 55 61 71 79 61 59 79 77 69 79 71 71 99 87 81 87 85 83 89 89 103 87 85 95 89 99 89 87 132 117 95 115 120 117 117 120 130 120 117 117 124 126 136 130 122 172 174 170 180 162 154 174 168 150 140 166 286 395 480 472 425 413 486 497 458 470 482 497 511 495 495 482 460 393 
24 46 59 28 55 65 75 57 67 75 73 79 81 75 83 79 81 91 81 75 73 81 95 89 93 97 109 81 89 91 93 91 97 97 109 109 97 103 115 126 111 107 115 117 115 140 122 126 136 134 124 142 144 148 154 144 117 130 140 138 138 136 194 286 413 462 435 464 474 480 450 464 472 474 482 489 448 413 334 192 
32 52 63 46 40 67 77 59 52 71 61 75 63 71 71 79 91 81 83 95 73 79 81 87 85 99 91 87 87 85 91 97 105 95 105 109 109 124 109 113 124 107 126 111 126 126 124 128 136 122 117 124 126 140 120 126 128 130 120 140 126 138 166 184 290 374 442 446 442 472 448 435 433 435 429 381 304 226 178 190 
34 42 40 32 61 63 50 71 59 61 44 65 69 71 55 71 95 81 87 77 71 91 75 91 89 95 101 87 93 89 101 95 91 103 117 95 101 113 122 115 107 109 117 113 117 117 120 128 128 122 128 132 117 126 132 134 120 117 130 120 109 124 144 146 176 256 379 397 419 454 431 409 409 381 298 242 210 160 150 158 
14 30 32 36 52 42 59 46 63 63 52 63 63 73 75 67 83 79 83 71 81 77 81 75 89 89 79 93 89 87 87 97 83 87 99 99 97 117 105 103 113 107 124 103 115 117 115 140 124 117 136 136 122 128 124 120 115 113 130 130 126 120 136 138 158 188 212 266 276 320 334 328 334 336 244 204 150 138 138 138 
18 26 55 36 52 42 63 46 67 59 59 69 67 79 67 65 79 83 89 75 79 83 73 79 73 91 79 91 83 87 97 79 93 89 107 93 101 95 109 111 113 117 124 117 126 115 128 117 126 142 128 134 117 124 124 117 111 122 122 122 122 126 154 212 260 272 272 266 250 236 264 262 282 262 230 228 196 184 184 200 
24 38 40 42 44 42 52 59 52 61 48 61 52 65 65 57 85 69 71 85 85 83 85 93 87 89 81 85 95 87 81 105 87 85 103 101 97 99 117 134 107 111 117 128 115 126 130 126 136 130 132 134 130 140 130 117 113 120 132 128 124 132 196 326 391 399 383 389 372 358 324 328 290 280 270 288 252 260 250 238 
20 34 40 42 50 50 57 61 71 59 65 55 75 75 71 71 85 81 83 73 75 75 73 85 87 99 93 85 83 95 87 83 85 83 89 95 103 109 99 109 89 109 109 130 122 136 128 130 126 124 140 130 126 130 132 122 111 117 134 130 138 154 284 356 366 376 383 383 385 393 419 419 433 389 360 330 308 304 290 268 
26 20 48 50 44 42 46 61 63 71 48 65 44 57 57 52 75 67 75 75 81 79 79 91 69 95 93 85 93 81 91 85 87 95 87 97 97 113 109 101 107 107 122 128 124 132 130 140 136 130 144 130 134 144 132 124 128 124 132 120 144 206 340 374 370 364 368 370 385 419 444 460 507 468 462 376 328 274 246 280 
22 34 44 42 36 48 46 57 65 52 57 44 59 61 48 42 85 73 63 69 75 71 89 71 79 81 77 73 85 81 89 81 93 91 97 83 93 95 103 101 105 109 122 122 111 128 130 130 124 140 146 174 190 194 186 182 152 124 142 136 166 292 377 401 358 348 344 336 354 427 435 489 532 524 518 476 405 262 234 274 
34 34 38 30 36 40 52 36 65 46 57 40 50 71 61 42 61 67 83 65 81 77 67 69 67 71 79 52 69 75 73 73 73 69 85 97 93 87 101 93 103 95 115 117 111 132 128 126 126 134 212 340 389 423 448 448 393 236 226 206 240 316 385 381 354 348 326 332 366 442 478 505 544 548 505 489 468 354 330 334 
16 63 48 42 40 36 50 61 46 65 57 44 55 59 48 59 65 63 67 77 67 71 65 83 75 73 73 87 71 87 93 63 81 81 89 95 89 115 103 103 113 95 113 122 122 122 124 138 150 168 274 468 532 530 549 542 501 444 385 304 340 368 387 376 340 348 354 387 427 442 468 487 522 518 487 464 439 409 372 377 
14 40 50 44 52 55 63 34 57 57 63 48 57 65 52 59 73 79 87 83 67 75 57 79 75 81 81 83 79 81 83 73 77 83 101 93 91 89 99 101 107 111 124 124 120 130 138 142 158 234 342 530 518 530 559 540 482 493 491 417 374 352 354 338 308 310 338 368 407 439 450 456 452 486 462 433 411 395 364 395 
20 22 34 32 32 50 42 46 48 65 50 59 59 73 65 65 67 69 73 73 79 67 91 77 73 81 89 77 85 85 89 85 89 95 93 91 95 103 117 101 103 109 124 134 117 134 134 142 166 268 364 507 551 557 557 509 433 385 427 356 322 302 332 292 284 330 334 356 358 393 407 383 435 417 391 362 352 379 379 374 
12 38 50 40 38 52 48 59 48 65 55 46 61 57 50 67 73 77 73 89 67 83 89 83 81 77 79 91 79 83 83 91 81 95 99 95 101 105 111 103 120 115 120 126 134 136 128 148 170 258 332 439 501 553 544 501 389 370 393 340 324 318 334 296 304 320 288 288 320 318 288 288 312 304 310 344 348 362 385 370 
24 44 48 36 50 40 59 55 59 46 71 67 42 59 52 77 79 65 73 65 85 73 97 79 83 97 83 83 103 93 91 87 97 99 95 103 103 113 111 107 111 113 120 126 136 126 128 142 162 208 336 439 468 499 536 520 423 409 401 292 330 296 308 328 336 296 276 274 274 268 254 240 266 280 308 344 348 336 364 366 
24 34 46 48 34 50 57 44 46 52 55 46 61 57 57 59 69 83 67 75 85 77 89 75 97 79 79 81 85 79 85 81 91 107 99 93 101 97 120 97 122 105 117 126 113 128 136 138 124 140 214 358 405 435 487 466 389 452 431 302 254 262 308 316 320 304 286 282 274 260 220 218 254 250 318 324 340 310 340 350 
16 30 36 26 32 42 34 52 44 57 46 38 55 63 67 67 63 75 81 71 67 65 75 87 89 77 85 99 91 69 79 81 93 99 85 89 103 103 101 111 115 113 113 113 111 113 117 132 120 130 146 178 192 202 232 260 250 296 276 248 262 252 256 264 322 316 314 286 284 250 210 198 208 252 312 316 312 308 326 326 
18 26 28 52 48 52 36 42 52 59 44 61 55 67 61 57 79 67 61 83 77 69 71 79 75 83 89 83 93 83 75 89 87 91 101 83 99 93 97 107 101 105 105 101 101 115 109 117 120 124 136 148 138 136 140 144 152 216 266 308 292 250 250 286 304 308 280 270 266 248 176 144 196 238 286 306 300 276 304 316 
6 38 38 38 30 34 38 48 57 61 63 44 46 69 63 52 69 69 69 75 73 79 89 75 79 89 91 85 89 87 95 91 83 89 87 91 97 95 107 93 97 107 111 113 122 101 101 111 107 105 109 122 128 115 130 113 89 134 224 326 352 330 308 290 304 316 294 272 238 216 93 40 178 216 266 304 304 288 286 280 
16 34 28 34 28 24 30 44 50 44 38 59 50 61 55 61 69 59 73 83 65 75 57 77 71 87 91 83 85 83 79 77 77 87 93 95 87 97 111 103 101 103 111 103 93 103 105 107 101 109 111 115 111 111 113 97 85 111 218 326 348 320 308 288 300 304 300 300 260 178 38 42 188 240 264 286 278 276 272 278 
4 30 32 28 40 32 42 42 48 38 32 42 55 55 65 44 57 63 69 83 67 75 73 65 71 91 79 89 85 83 83 79 83 81 97 95 99 101 105 111 97 85 101 85 85 91 83 87 99 91 115 111 107 107 101 101 101 142 256 360 328 294 312 290 312 318 318 308 292 198 69 142 226 246 250 290 286 274 276 286 


