P2
80 60
554
121 135 101 123 121 127 129 129 141 139 135 131 145 151 135 139 137 113 127 127 105 109 103 113 103 109 109 143 147 197 251 279 322 451 459 472 472 478 455 445 451 455 461 468 459 428 437 416 406 377 359 312 269 239 203 173 179 169 201 205 203 179 197 189 209 181 177 183 189 185 191 189 177 155 171 175 149 163 177 179 
113 127 121 111 129 113 135 121 131 133 151 149 133 137 137 127 133 119 107 117 117 103 109 87 85 101 115 201 263 324 316 289 322 408 515 509 490 464 428 381 318 350 391 408 400 383 412 414 430 397 397 346 306 310 324 320 304 251 243 269 245 233 255 235 245 229 243 233 255 251 257 253 253 235 233 235 221 255 233 263 
121 115 119 125 127 131 137 133 135 143 127 111 133 143 139 131 125 115 119 121 105 109 99 97 95 99 197 348 389 387 375 344 353 377 484 497 431 342 233 223 211 300 310 328 342 328 342 353 385 406 399 320 336 363 363 369 338 275 255 263 283 263 261 251 287 263 251 239 249 249 273 298 283 290 302 296 283 298 306 296 
103 113 115 125 133 129 135 137 123 125 133 133 119 129 133 113 129 129 117 117 101 115 99 107 117 137 289 391 397 395 355 361 357 361 375 412 365 336 287 279 294 316 302 312 306 306 302 308 304 330 352 346 340 355 369 377 322 289 281 279 275 279 277 287 296 283 263 247 251 279 310 308 318 308 320 292 298 310 304 322 
121 117 129 113 129 133 123 141 135 131 133 129 139 133 131 133 125 143 117 129 107 115 97 109 111 163 361 408 408 377 350 348 379 357 363 353 355 353 283 302 326 322 312 289 287 296 296 277 306 289 324 352 391 367 348 355 312 287 290 273 279 279 294 316 320 296 292 283 257 261 263 296 320 302 310 289 279 279 300 308 
109 99 127 115 131 117 131 117 123 141 143 141 143 137 137 131 143 125 121 141 113 115 117 123 133 189 373 443 420 397 363 355 367 352 346 324 350 342 338 310 304 316 292 294 273 273 287 271 261 263 292 322 340 300 300 300 298 306 298 314 283 298 304 316 342 326 314 300 316 298 271 273 290 308 302 265 271 279 292 290 
99 129 135 119 109 133 155 129 131 137 121 149 135 137 145 139 129 135 121 137 137 113 131 139 139 149 330 453 451 433 406 412 393 359 330 322 328 348 314 292 298 296 269 263 275 261 271 259 245 287 289 294 304 289 287 290 290 304 320 322 289 298 304 320 344 340 324 300 312 279 267 243 221 259 235 227 221 239 219 229 
101 115 127 113 127 127 135 139 123 139 129 129 135 139 141 147 133 145 123 133 137 129 137 147 153 229 281 414 461 470 445 431 408 373 334 326 367 342 334 298 275 277 259 263 267 259 251 237 241 267 316 287 281 265 263 281 300 344 344 308 298 298 275 292 306 292 283 259 245 227 221 207 211 215 203 171 187 195 201 225 
123 103 125 109 121 125 133 141 129 125 129 133 143 127 133 145 155 157 183 167 187 185 199 219 227 379 363 402 486 461 466 431 400 369 348 352 369 359 306 287 283 275 259 259 249 245 231 209 231 247 312 289 265 251 241 285 310 350 330 308 271 265 275 275 279 265 265 245 247 231 253 271 249 247 261 265 261 277 281 292 
119 117 123 121 133 131 147 141 119 133 133 129 147 139 141 145 161 227 316 336 361 435 416 412 420 453 509 385 410 424 457 402 381 355 344 365 361 359 332 300 285 285 290 273 253 239 243 229 229 227 289 296 263 247 255 292 306 330 355 375 363 375 369 377 400 369 350 352 322 308 320 310 332 312 322 314 296 296 302 310 
111 109 127 123 141 133 133 139 117 123 141 131 135 125 141 157 261 306 422 455 476 424 439 431 461 468 476 492 428 433 400 350 355 334 326 330 350 336 328 298 285 273 269 265 243 251 233 235 231 237 265 294 279 261 257 273 312 342 379 400 379 404 391 391 414 383 385 334 318 316 322 320 326 314 334 298 296 306 290 296 
103 103 119 117 129 135 129 131 121 121 119 133 115 139 153 205 344 340 353 493 468 468 509 484 472 482 482 497 402 399 393 357 340 314 314 314 348 336 336 324 306 285 253 259 251 245 235 225 235 229 261 277 296 269 261 298 328 359 391 393 397 373 381 395 389 381 375 359 310 302 285 312 290 306 289 287 287 283 265 269 
109 121 117 111 121 129 147 141 119 123 123 137 127 135 137 205 371 399 344 447 482 538 544 536 523 501 478 488 462 408 400 373 377 336 330 328 328 334 330 326 326 320 294 296 271 269 259 231 235 231 249 294 308 300 298 322 352 371 383 383 393 383 359 377 387 371 363 342 306 296 279 298 289 263 265 259 241 251 211 189 
99 119 121 109 111 135 115 119 115 127 129 135 129 117 145 215 357 391 348 428 480 534 554 521 468 426 459 443 459 449 468 437 412 355 310 308 318 310 314 320 318 304 318 322 289 273 261 259 261 249 241 320 334 326 353 348 363 365 377 365 355 359 359 342 348 328 340 306 298 279 269 275 249 237 229 181 181 177 177 179 
91 111 129 109 131 125 129 127 115 117 121 107 111 119 137 167 326 369 373 400 480 511 511 385 245 241 318 330 431 447 476 459 428 389 355 334 326 322 296 306 314 324 336 338 316 283 304 285 279 283 273 332 344 361 369 350 367 353 371 371 352 342 334 300 285 267 243 241 243 245 233 219 207 197 187 165 159 145 163 183 
117 115 117 115 113 127 123 131 121 123 121 119 133 133 143 147 263 340 353 353 406 420 385 189 149 155 211 287 350 451 464 455 431 395 342 322 330 320 310 318 318 346 357 369 365 353 375 355 320 324 292 344 355 375 371 344 359 336 348 320 296 253 231 211 211 195 197 213 219 205 197 201 179 179 173 165 165 161 175 159 
107 99 131 109 123 105 127 123 105 111 119 125 129 117 127 131 177 259 294 292 233 183 161 173 139 141 157 251 346 410 422 387 379 348 352 328 350 361 355 379 385 420 441 447 455 462 466 435 385 352 312 344 357 346 308 294 267 235 211 191 157 153 171 169 167 165 183 201 187 185 183 187 195 175 159 145 161 167 151 159 
121 97 109 93 107 111 123 121 113 121 107 119 123 125 137 133 127 147 161 161 143 127 119 129 141 133 155 193 353 416 399 353 318 308 330 357 391 451 437 441 453 472 476 464 453 459 468 462 433 406 336 344 322 261 199 153 151 143 141 157 157 159 143 181 171 181 193 193 191 201 185 189 183 189 165 161 151 173 159 167 
115 127 129 121 117 125 123 115 125 105 111 129 121 129 137 111 135 133 133 143 135 131 133 131 145 141 159 179 229 355 350 361 342 263 306 336 365 439 424 404 395 410 426 422 418 414 418 391 383 359 338 330 235 183 151 149 131 137 137 143 139 139 159 175 191 185 185 189 181 191 183 199 179 189 167 161 165 173 165 173 
105 113 117 123 131 121 119 129 113 113 129 127 121 117 129 123 125 119 119 127 127 127 133 123 149 151 141 157 169 201 249 308 367 328 328 324 320 296 265 253 271 296 312 320 281 255 261 255 243 241 213 225 187 153 137 121 123 137 145 131 143 153 143 151 179 171 195 181 181 185 183 189 193 189 161 169 161 177 169 171 
117 121 129 119 111 125 117 131 115 111 113 123 113 139 117 129 147 139 107 131 125 121 145 143 145 147 129 157 169 175 175 185 197 215 229 259 289 306 290 324 352 395 387 404 344 225 245 229 233 217 215 199 185 173 151 139 117 125 141 137 147 143 151 153 159 165 183 183 177 187 183 197 189 165 173 167 165 161 175 177 
107 119 119 105 125 111 125 133 103 107 123 109 131 133 131 127 117 131 127 137 125 121 117 131 143 127 145 145 161 163 151 149 197 211 273 306 332 332 310 326 373 414 406 402 359 223 217 223 231 215 201 193 197 171 145 137 127 127 137 135 143 131 149 149 179 159 187 181 179 179 185 181 185 169 169 159 165 175 167 179 
115 119 133 129 125 127 121 121 115 117 125 125 123 121 131 123 129 131 115 111 119 127 127 143 139 143 141 137 159 161 163 167 223 310 320 308 334 357 340 346 379 381 395 385 253 191 217 209 201 203 205 181 185 161 153 137 129 137 139 155 145 143 145 149 177 161 175 177 175 197 173 183 193 165 181 165 171 163 173 187 
107 111 139 109 125 127 103 123 125 119 115 139 121 123 115 123 123 125 119 129 139 121 127 123 135 135 139 133 147 167 181 227 324 289 273 207 235 310 348 334 332 348 369 283 179 179 201 187 195 201 207 197 183 193 173 163 161 179 191 201 197 197 135 135 131 105 127 127 165 187 187 187 191 191 163 177 179 175 171 183 
117 117 131 129 117 133 135 131 131 123 121 129 133 135 119 115 137 127 125 129 119 123 135 127 133 127 135 137 153 163 181 312 363 308 273 269 235 269 322 290 316 310 269 157 159 147 159 219 223 237 253 191 213 193 169 189 243 271 281 289 279 259 185 145 117 103 109 107 143 185 199 205 199 191 165 171 181 181 171 175 
101 119 107 103 119 111 133 109 115 129 129 131 127 125 129 113 133 133 111 123 135 111 129 125 119 129 123 135 153 161 199 357 346 310 292 342 357 371 304 275 239 191 159 151 141 195 169 171 249 197 189 173 193 183 201 193 227 263 261 255 255 251 205 153 143 123 121 97 135 197 205 207 201 183 183 179 171 195 181 195 
89 109 123 111 103 111 131 123 127 123 125 115 121 127 123 123 131 135 115 121 117 107 127 123 139 143 125 147 155 165 221 334 369 365 379 430 414 355 249 99 55 107 115 137 115 139 129 179 209 195 141 195 185 203 179 195 211 243 235 239 221 217 195 179 191 163 137 135 163 201 227 221 231 239 223 191 173 189 237 265 
105 105 121 121 121 117 123 113 119 113 115 119 113 125 117 109 105 125 113 127 131 107 125 123 139 143 123 135 149 163 247 340 414 420 424 459 426 310 103 37 39 89 67 107 117 135 127 175 197 195 163 197 169 201 207 183 211 223 213 205 195 169 179 179 213 193 195 187 207 265 273 290 296 306 318 279 257 261 296 306 
101 121 111 107 113 129 119 125 115 125 127 131 101 121 119 133 131 117 117 123 133 123 185 201 235 328 275 209 201 215 318 306 383 441 449 439 414 265 65 8 43 43 117 135 129 133 147 179 217 191 221 181 177 205 201 229 213 233 245 263 255 235 231 191 193 203 241 273 245 290 298 300 304 298 296 290 298 312 320 281 
97 115 127 119 125 111 127 131 127 123 131 119 107 117 117 103 121 123 117 121 149 229 285 344 441 488 468 430 416 404 369 324 395 470 464 476 457 247 69 37 6 18 155 139 131 133 163 147 193 201 229 149 161 229 219 235 237 189 219 191 193 203 211 239 241 223 249 273 306 290 283 306 292 310 302 308 330 338 338 322 
97 117 117 109 109 119 113 117 121 127 123 111 125 131 109 127 129 113 127 141 227 304 352 443 499 528 530 472 431 420 377 310 385 461 482 480 449 338 119 16 43 71 149 139 169 149 137 127 173 175 223 161 185 239 235 237 225 207 187 191 237 237 251 263 300 287 259 316 322 292 275 277 289 287 287 308 300 332 298 320 
111 121 123 115 123 115 125 133 121 113 125 123 117 129 129 127 119 129 117 143 275 377 395 503 507 478 493 462 424 428 393 328 379 399 399 406 430 383 187 0 51 139 135 147 161 163 111 125 129 175 201 209 201 249 245 203 189 191 191 241 247 269 292 277 322 308 308 332 328 306 277 296 302 275 298 298 304 306 273 271 
111 123 113 123 127 119 131 125 111 129 117 135 117 127 117 127 131 129 129 149 265 379 453 509 515 472 470 476 426 426 389 350 381 385 322 298 375 389 283 121 117 149 165 157 157 151 175 161 145 149 211 211 179 189 215 205 187 191 187 229 243 269 287 281 326 310 328 338 348 322 312 289 294 287 306 279 235 207 167 205 
117 115 121 115 121 139 135 123 113 135 125 127 133 137 121 137 133 123 127 153 271 395 428 486 493 490 519 488 424 371 393 365 381 352 314 298 324 350 296 253 195 143 179 163 169 149 201 175 143 151 195 221 173 137 187 195 191 211 227 241 245 267 265 287 308 308 322 344 348 316 312 290 294 269 253 201 171 165 169 187 
97 107 123 115 111 133 119 133 117 117 125 129 139 135 125 127 131 121 133 145 227 359 377 383 406 461 424 348 227 199 304 363 324 316 310 304 310 332 310 289 292 235 147 169 135 203 221 203 151 131 189 201 151 125 165 175 209 199 249 229 235 245 255 283 296 298 310 332 296 294 267 261 247 209 179 171 133 155 167 181 
107 103 117 117 103 119 115 125 123 133 119 131 133 129 117 131 145 137 127 137 157 199 249 245 229 205 183 163 163 169 255 346 294 271 277 289 289 318 322 310 298 308 261 199 169 241 241 209 201 145 177 163 133 151 139 195 233 229 239 223 237 241 259 275 285 277 304 285 263 235 249 207 189 175 177 149 155 151 153 165 
103 109 125 121 119 135 127 125 133 127 121 125 125 119 119 137 123 125 113 129 139 137 139 145 133 147 137 137 147 151 203 328 328 285 213 211 275 346 361 324 338 338 344 281 183 257 235 233 235 175 171 175 171 153 157 191 197 199 217 209 245 251 261 273 269 245 231 221 197 219 207 209 201 183 175 161 159 147 155 171 
95 111 119 127 117 111 123 121 129 117 127 129 123 141 131 129 133 125 131 137 127 127 119 135 133 129 135 135 153 159 175 267 308 251 171 173 287 365 365 348 357 348 373 346 239 239 241 245 277 197 169 195 171 159 169 195 209 205 205 213 207 235 247 237 217 197 173 187 183 187 205 203 189 177 151 161 143 163 149 179 
89 107 123 111 123 113 131 131 115 133 125 133 117 135 135 135 133 121 117 125 133 135 141 141 123 141 111 139 139 147 159 225 322 294 251 292 326 320 326 361 369 369 379 385 287 135 149 167 185 199 181 165 171 177 171 175 169 159 185 189 199 165 171 163 159 161 167 181 175 183 197 185 183 173 177 157 167 175 199 197 
107 115 127 129 113 139 123 133 121 131 125 125 97 115 143 125 133 121 123 145 135 109 129 113 115 135 127 139 155 153 163 181 269 336 344 330 326 330 330 371 385 381 383 397 350 169 153 143 165 173 167 159 161 171 165 141 129 141 135 151 135 149 145 151 149 169 165 173 167 185 199 183 187 167 179 167 185 193 195 209 
103 117 119 111 121 129 123 127 135 137 123 129 107 125 125 123 125 123 123 133 129 111 127 129 121 133 125 135 157 199 259 294 338 363 367 342 350 330 328 381 363 383 379 399 342 163 157 143 161 163 169 165 159 177 167 141 131 129 123 133 129 123 121 141 159 159 169 175 167 173 163 177 171 165 183 171 179 197 189 183 
101 107 109 113 115 113 111 117 117 115 125 127 113 123 129 125 121 129 129 123 127 121 123 119 117 127 131 147 193 326 361 363 385 383 365 385 383 367 359 410 406 377 406 330 209 143 131 143 155 159 163 151 151 159 135 123 109 115 115 123 123 101 121 133 147 149 163 173 159 159 163 157 157 155 159 167 185 195 183 205 
113 121 127 109 123 135 119 119 117 129 125 135 115 121 119 135 117 131 129 131 117 121 133 125 129 131 123 161 308 391 353 344 350 373 383 393 393 395 389 431 428 418 431 397 267 153 151 129 155 161 153 145 139 133 109 105 105 103 93 93 109 103 125 125 139 151 145 155 165 161 177 159 155 157 153 175 185 187 183 185 
105 113 107 127 115 113 125 107 115 119 131 129 127 123 107 111 131 131 115 133 133 121 131 131 131 121 137 213 373 400 381 346 316 340 377 383 391 387 402 426 426 416 433 449 404 281 171 151 153 135 141 137 135 141 115 111 101 119 141 143 155 161 147 173 153 139 157 175 167 167 171 157 139 157 155 175 171 175 187 203 
109 115 117 123 129 129 127 127 135 133 121 119 119 131 123 129 161 191 183 201 167 159 151 145 109 143 163 292 361 375 353 318 289 275 290 324 371 391 385 402 430 428 424 433 447 387 306 213 195 197 181 211 205 187 221 205 187 209 221 199 199 189 187 159 177 151 161 157 143 153 175 149 145 161 167 161 177 191 183 203 
107 129 135 123 131 131 131 131 123 127 125 119 127 123 135 167 283 361 361 422 422 408 261 189 151 171 241 336 348 334 346 318 290 283 277 271 263 277 294 344 400 443 430 420 431 430 410 328 247 225 229 233 251 235 233 233 235 215 209 211 209 203 189 163 185 153 143 173 181 165 185 175 187 167 177 183 185 191 189 195 
117 117 129 121 137 135 147 141 133 127 123 125 139 147 165 257 416 457 462 517 523 505 499 443 352 326 385 365 367 322 338 316 290 300 296 229 167 147 169 247 304 365 406 418 404 433 426 385 279 243 261 251 233 233 235 243 249 257 249 243 251 239 203 189 171 141 149 183 207 203 245 267 290 312 302 292 269 237 223 207 
107 137 125 117 137 131 127 125 113 133 135 135 131 159 185 300 445 462 484 546 515 480 490 455 468 451 431 387 373 346 328 306 287 314 255 159 123 109 141 207 273 304 334 363 395 400 420 400 353 253 251 263 259 235 243 243 251 263 269 281 261 241 229 193 187 165 163 195 205 237 269 314 346 359 371 363 353 328 314 314 
111 125 113 119 121 123 137 135 127 129 141 133 123 151 175 328 464 476 499 548 503 459 453 422 406 468 431 375 365 340 316 294 279 259 191 95 81 77 125 181 259 289 300 328 340 379 416 397 373 304 251 253 247 249 229 239 247 259 247 263 257 257 239 193 211 175 167 167 167 199 267 294 332 357 365 377 367 365 355 363 
109 119 127 135 123 121 143 129 129 125 131 135 127 139 173 300 414 445 482 544 495 453 464 430 399 447 424 336 334 338 287 255 227 227 169 85 61 57 153 197 265 283 300 308 296 350 391 367 359 316 261 267 279 259 259 251 269 239 259 257 237 249 229 229 221 207 197 185 177 177 235 271 312 332 365 375 359 369 367 334 
105 133 135 119 115 119 129 133 121 135 129 117 129 123 157 235 365 422 462 548 476 451 461 468 439 437 375 285 296 287 243 227 209 177 131 59 22 99 177 219 239 277 285 304 290 283 342 371 369 344 294 253 269 269 267 271 275 257 257 255 255 233 229 215 219 229 215 179 167 191 225 241 281 298 352 352 355 350 326 355 
113 123 131 127 125 141 129 137 127 139 115 115 127 121 141 157 241 322 363 426 406 393 359 324 304 402 355 296 306 257 215 199 185 171 103 33 28 159 215 229 257 277 275 294 300 277 277 332 338 342 308 312 287 271 271 279 265 267 263 259 265 243 247 227 239 255 255 243 213 199 215 229 245 273 281 279 296 294 251 259 
105 109 129 119 131 127 125 145 113 125 149 145 139 147 149 141 157 181 193 199 213 175 183 153 165 289 334 322 320 285 221 193 175 161 95 28 47 145 213 239 261 267 281 310 294 275 263 261 326 365 340 320 304 294 281 283 289 289 265 253 263 243 243 233 227 217 213 219 195 179 197 175 169 189 187 189 205 193 191 201 
119 129 111 135 113 133 119 129 119 137 149 135 125 143 137 121 151 141 133 133 139 109 133 125 151 229 326 342 324 287 243 221 195 129 65 24 57 105 223 231 261 251 253 275 277 267 267 273 285 361 361 342 318 310 326 344 336 336 285 265 223 207 197 167 177 163 167 179 169 167 171 173 159 155 175 187 169 181 187 199 
113 109 111 117 135 131 121 133 125 133 127 135 115 141 127 133 141 127 119 123 117 121 117 141 113 169 318 326 308 277 253 245 213 151 83 20 57 143 213 239 265 269 243 231 237 253 251 253 292 363 371 353 350 350 353 377 399 393 318 271 247 243 241 239 203 191 181 177 181 173 157 173 159 179 177 177 161 177 185 183 
85 121 95 111 113 109 125 119 109 113 121 129 131 137 119 117 141 121 101 111 125 109 123 107 117 153 294 352 312 275 247 253 251 161 95 69 91 119 221 257 279 255 253 249 243 255 263 259 296 340 361 357 387 385 357 375 406 416 308 267 255 269 243 243 247 235 225 199 193 189 189 175 199 199 215 215 189 179 197 191 
89 89 121 115 117 107 135 117 117 119 121 119 119 133 97 105 121 107 125 109 127 99 105 95 103 143 298 383 355 304 233 211 259 219 145 81 69 95 215 247 273 273 253 277 239 253 302 298 290 332 353 404 420 393 402 399 391 383 294 283 292 281 235 211 249 247 237 195 181 191 193 229 255 279 296 304 300 281 251 243 
101 103 101 125 109 121 121 117 99 115 117 113 111 123 131 119 121 105 115 113 107 89 97 91 101 135 245 342 320 314 253 227 243 245 229 225 221 229 203 245 279 265 273 269 267 312 353 330 322 336 338 399 437 416 391 338 316 300 290 281 289 261 237 229 229 223 231 167 153 155 205 201 247 308 300 334 320 342 338 326 
103 85 95 109 109 121 119 97 89 105 113 95 99 115 97 119 103 113 95 107 109 85 91 93 97 103 143 285 304 294 292 290 298 304 304 316 352 355 352 336 324 334 352 355 363 357 363 346 326 312 298 348 391 320 290 269 269 255 275 277 253 219 229 213 213 213 181 117 119 131 201 227 249 300 336 332 363 379 383 365 
87 97 109 85 99 105 113 105 93 113 101 105 115 107 115 107 103 109 97 99 97 105 91 95 91 77 75 141 233 300 308 300 300 285 296 308 350 383 361 373 385 377 373 389 395 359 359 326 296 277 251 259 279 245 253 247 235 249 271 241 249 235 207 215 243 219 173 119 127 119 213 221 281 332 348 353 340 359 371 353 


