P2
80 60
539
120 84 74 90 98 90 96 96 102 112 94 106 106 98 84 74 88 80 92 86 74 94 90 94 162 331 350 366 350 319 329 348 399 399 459 484 490 405 337 294 276 282 263 263 237 255 253 233 223 219 253 282 265 265 241 245 213 213 225 219 229 219 235 217 237 249 239 223 192 156 182 203 213 205 194 194 182 196 188 150 
130 88 78 104 82 106 96 112 82 96 94 114 92 96 80 82 98 98 80 94 96 84 102 100 162 306 381 377 333 294 296 354 379 362 463 503 449 368 315 292 270 284 255 245 239 243 239 213 217 200 239 270 255 249 225 227 225 223 237 229 231 231 245 249 243 265 249 225 209 194 188 209 213 200 190 184 194 188 178 158 
114 82 86 100 98 98 90 106 88 96 100 86 88 86 84 80 90 84 72 96 72 96 112 110 178 284 362 397 356 321 321 406 397 354 468 465 393 317 304 276 278 278 247 215 235 251 251 221 205 205 235 249 237 247 241 233 237 241 233 235 237 241 253 266 282 288 276 241 231 211 227 231 223 209 205 188 180 198 211 202 
128 80 80 96 82 94 98 116 104 92 90 80 90 74 96 68 102 94 136 170 166 192 174 194 253 265 317 406 408 383 374 410 401 366 441 428 368 300 290 292 284 265 247 223 221 245 231 202 200 200 227 241 219 217 227 235 253 261 259 261 272 290 298 321 331 323 313 280 290 272 284 268 249 233 225 205 225 229 219 205 
120 76 86 104 98 94 92 128 104 94 88 92 100 100 106 92 132 203 221 348 420 436 453 441 461 352 337 383 406 405 410 422 410 358 403 387 354 313 317 282 276 261 231 207 213 235 235 205 190 172 205 237 231 237 227 225 251 255 261 284 296 298 337 335 339 348 337 284 286 253 266 253 231 225 202 198 203 207 215 184 
110 64 100 100 88 84 104 110 114 108 104 102 98 108 110 130 221 284 327 468 518 539 518 507 482 484 426 374 352 358 393 397 379 352 370 348 329 337 315 310 280 266 229 213 202 225 219 198 164 174 217 231 221 213 211 237 259 282 312 312 315 325 335 329 352 317 304 294 266 231 235 241 233 221 194 194 178 200 178 152 
102 64 92 90 92 86 108 134 108 88 104 94 94 96 108 136 261 304 434 507 505 520 530 497 495 484 465 387 370 327 290 304 294 300 333 348 325 335 329 323 286 268 225 219 203 196 205 184 170 150 205 227 221 209 233 235 261 319 333 339 341 327 327 325 321 304 284 247 245 217 205 196 209 192 158 134 124 138 100 78 
108 68 62 88 116 124 94 120 94 108 88 96 104 110 100 160 268 327 439 465 495 470 451 457 434 408 383 310 341 337 339 339 354 319 327 327 306 317 312 302 276 261 235 198 188 194 190 174 172 156 198 229 237 239 233 239 302 335 329 343 333 308 321 308 323 321 263 223 188 180 184 164 132 116 110 98 94 84 96 98 
112 88 78 94 92 108 88 122 104 94 96 102 102 110 114 150 261 366 490 451 455 432 437 434 430 253 156 221 313 393 385 406 385 370 374 286 296 313 296 329 270 263 243 233 205 225 203 180 178 150 190 233 253 251 266 263 300 302 292 310 284 282 300 302 263 247 205 184 170 136 124 108 108 102 102 76 96 110 102 94 
112 70 88 102 80 102 98 100 96 102 104 102 112 96 98 130 203 327 478 449 449 447 436 424 274 124 108 108 211 368 406 414 416 387 375 296 308 325 331 325 288 298 290 272 233 229 200 190 200 196 196 247 257 282 243 266 235 237 247 235 219 213 186 168 146 154 152 146 154 126 122 122 102 98 82 104 102 96 94 78 
104 72 78 86 106 104 94 102 94 90 90 98 100 92 96 104 146 202 344 432 348 325 288 196 108 102 104 112 134 263 327 360 362 350 372 298 315 379 391 385 385 408 395 381 337 343 327 300 282 253 221 219 257 249 217 211 172 150 122 106 112 114 124 104 124 126 128 126 130 114 112 116 116 104 96 88 92 104 88 82 
94 70 100 94 92 96 114 92 96 94 102 98 88 96 100 96 114 110 172 203 176 134 124 96 106 106 100 100 118 128 209 296 368 323 331 282 310 312 298 323 344 418 422 418 397 437 436 434 434 379 313 255 245 243 247 266 162 116 76 100 90 94 92 112 110 114 126 138 130 124 116 108 102 112 110 108 100 96 94 80 
96 78 102 84 104 122 84 114 104 88 102 104 102 110 80 86 98 100 86 86 78 94 98 98 88 80 100 92 102 124 140 259 253 235 221 172 192 172 162 162 178 231 278 358 352 379 381 403 395 362 366 360 354 364 358 327 221 92 84 76 92 92 98 98 104 112 126 124 130 106 100 114 118 116 104 94 88 94 92 88 
102 72 92 96 78 102 98 100 106 106 102 94 90 90 82 76 104 94 82 92 86 104 98 106 90 88 86 86 96 116 140 184 180 144 162 178 172 168 154 162 158 164 166 180 170 200 200 202 215 245 270 304 298 364 356 352 239 116 98 88 84 98 96 112 100 122 138 128 148 122 116 104 116 112 106 100 98 88 92 84 
112 70 102 98 96 96 98 94 102 94 90 82 84 86 80 72 96 78 70 78 72 94 98 104 86 84 78 90 106 112 118 136 166 160 180 196 174 176 166 164 166 166 148 152 134 162 148 146 142 140 158 164 138 152 200 237 194 124 84 90 106 94 112 118 118 130 144 126 146 128 128 126 108 126 110 100 96 92 90 94 
120 80 84 80 88 102 86 94 92 92 88 80 88 80 74 76 76 84 90 78 84 90 110 94 90 92 90 94 96 112 110 128 162 180 207 205 184 186 164 178 160 152 156 158 164 164 160 150 168 144 150 146 124 114 94 94 90 94 86 92 96 92 96 110 120 142 136 142 158 112 124 126 120 116 102 88 102 106 90 98 
100 80 98 82 96 98 96 100 98 96 86 90 96 94 88 86 96 90 84 86 86 84 86 104 96 86 92 96 110 106 114 148 170 178 203 205 203 215 221 223 257 286 294 280 205 186 170 174 162 154 150 150 142 102 88 86 96 90 104 96 108 102 122 126 120 126 144 134 152 122 126 130 126 116 94 92 94 116 104 94 
102 82 82 82 86 98 96 104 92 96 80 76 98 86 78 88 98 94 90 92 94 86 94 100 100 104 102 104 106 120 128 138 180 207 231 229 233 231 207 213 308 389 383 391 356 261 188 166 170 160 164 148 148 134 112 100 114 100 100 92 108 102 114 122 114 124 142 138 128 140 130 130 108 108 104 104 100 106 102 94 
112 90 104 92 100 102 88 100 96 96 106 102 90 96 102 96 104 90 92 88 92 92 106 102 104 102 102 100 114 132 124 168 227 276 270 237 198 207 213 229 198 343 364 377 391 381 253 176 186 182 164 184 178 160 170 170 166 164 156 148 148 132 124 124 108 118 114 118 120 136 122 116 104 120 96 110 118 120 118 108 
116 76 88 80 94 96 94 110 106 96 102 94 90 90 82 92 84 88 92 88 90 96 100 108 108 102 100 102 114 128 136 225 302 261 231 136 82 58 92 172 202 280 300 274 239 233 190 229 221 237 190 180 188 160 176 186 194 174 178 158 172 166 134 112 120 114 112 98 120 132 136 128 118 118 106 120 124 108 128 136 
100 94 78 94 106 92 84 114 98 80 106 96 86 92 88 78 90 98 92 84 86 104 118 120 106 112 96 110 106 136 142 310 282 233 229 217 211 255 221 211 198 178 192 166 160 205 202 247 227 203 190 176 178 166 142 166 194 172 172 164 158 140 126 118 112 118 114 116 118 148 148 140 144 148 134 120 126 128 154 170 
90 82 92 84 90 90 100 106 98 84 96 98 100 98 82 90 82 90 102 96 92 106 112 106 112 94 106 106 102 140 200 296 253 215 261 274 296 278 270 221 196 136 118 136 168 192 203 213 213 198 192 178 168 168 152 136 176 144 144 152 162 138 122 122 118 120 126 116 150 219 211 205 225 239 261 217 184 186 223 253 
118 92 82 100 86 96 86 98 98 90 92 90 98 94 92 84 84 96 86 86 92 112 110 114 128 124 114 116 106 138 203 261 257 257 284 368 335 278 253 211 180 128 138 140 168 146 166 186 174 186 182 160 162 154 160 168 146 138 128 128 140 134 118 118 126 144 134 122 170 235 217 233 255 290 310 268 253 239 276 213 
102 80 80 78 92 86 82 88 88 92 92 88 98 108 92 88 82 94 80 102 112 124 162 233 245 300 261 188 140 146 213 231 249 265 284 333 266 219 194 172 142 158 138 148 174 144 142 170 205 164 172 180 166 156 142 136 156 146 144 132 126 128 126 136 126 144 122 116 186 221 227 215 223 255 272 257 261 272 282 249 
108 98 92 102 94 90 110 100 100 94 94 94 88 92 74 94 102 86 90 88 138 241 354 441 465 391 401 343 243 231 306 239 257 241 209 198 166 132 142 120 108 136 150 134 152 132 144 164 192 184 154 150 172 182 184 164 168 150 126 124 134 138 154 158 140 150 148 166 231 233 225 217 247 251 263 265 270 280 290 241 
88 92 90 88 120 86 92 94 86 102 106 76 86 88 90 80 98 88 84 116 223 335 430 486 488 420 439 408 393 424 374 263 272 284 188 120 78 38 92 98 76 114 128 118 142 142 112 126 164 200 152 144 170 194 194 166 156 140 126 172 194 202 207 188 154 150 160 152 221 217 223 217 251 257 263 265 270 263 265 233 
96 84 104 80 92 84 102 88 94 84 88 82 94 86 88 86 90 94 84 118 268 348 377 467 492 470 470 443 401 422 395 259 286 308 209 126 82 12 36 72 92 126 126 124 152 156 122 128 146 202 172 146 172 192 166 174 170 148 140 207 198 200 196 186 188 178 182 170 196 223 231 219 227 243 255 259 259 221 178 170 
104 84 90 92 88 88 94 98 90 78 92 90 80 82 82 84 86 88 88 134 239 274 300 401 490 465 457 436 416 434 403 292 315 341 231 154 108 46 54 62 110 140 144 142 160 126 136 160 176 188 182 136 134 148 156 150 154 148 144 219 205 202 207 219 229 229 247 274 270 233 221 233 225 221 235 245 215 148 126 94 
102 84 96 92 92 100 86 90 86 100 100 98 88 92 94 90 90 82 88 106 205 263 261 308 432 443 428 441 422 416 381 278 312 329 231 180 146 118 120 92 136 156 162 156 146 136 166 184 190 221 192 166 144 134 140 136 140 148 150 190 188 205 231 221 235 265 268 315 317 276 263 223 233 235 245 198 132 114 106 92 
98 80 88 80 102 92 86 90 98 84 84 76 78 76 72 66 76 82 84 84 140 235 263 290 401 451 408 416 358 358 344 292 286 284 257 245 227 205 184 166 154 138 160 138 150 144 168 136 180 245 182 180 160 130 94 158 168 156 168 176 190 196 200 205 219 233 257 294 321 278 241 239 229 205 158 118 108 102 96 88 
112 72 88 80 88 78 88 98 84 98 92 88 80 84 84 74 86 74 76 90 124 164 205 251 288 366 286 231 156 166 245 282 259 229 274 282 259 280 233 198 184 118 148 138 172 142 164 158 158 247 198 164 168 140 128 134 172 164 158 170 172 172 180 192 223 247 241 268 282 265 243 213 196 148 84 88 92 90 94 90 
102 82 78 102 96 92 80 106 92 90 88 90 80 82 90 76 88 86 84 98 98 114 142 144 150 130 120 94 104 120 194 255 251 200 229 272 272 265 237 219 184 140 154 164 162 164 166 170 198 205 229 174 170 132 152 156 150 156 168 162 180 180 194 192 215 235 249 249 263 241 202 160 128 104 88 88 82 84 100 88 
96 86 78 96 88 90 94 98 80 84 96 82 102 98 86 88 90 82 88 78 86 106 104 102 96 100 88 100 98 110 148 282 298 209 205 243 251 239 231 207 174 178 172 188 192 166 178 174 192 156 243 184 174 160 134 166 156 156 176 160 166 178 203 198 207 221 227 219 211 182 152 138 122 112 92 92 82 92 102 86 
92 88 90 88 86 106 96 100 104 108 114 88 98 100 90 80 90 86 88 84 84 92 106 98 92 98 106 92 96 124 122 249 313 266 174 144 158 180 188 186 166 140 118 130 124 192 308 308 294 266 209 172 154 130 124 132 140 140 152 152 160 178 203 178 162 184 160 154 164 148 156 138 116 108 96 84 90 104 86 88 
94 62 90 88 78 100 84 96 96 82 104 90 100 106 84 78 96 90 92 64 80 80 96 96 86 90 84 98 86 110 122 188 312 272 217 104 20 72 116 140 136 241 223 156 190 339 375 370 370 241 158 130 140 122 116 94 90 100 112 136 144 138 116 106 120 144 128 150 152 142 150 132 128 114 92 86 82 94 88 76 
80 78 98 84 92 98 84 100 94 92 96 92 100 94 86 90 96 92 82 86 86 104 90 100 98 88 96 104 90 108 126 146 211 276 274 251 221 217 180 128 138 344 358 335 329 370 393 375 265 146 140 128 128 136 118 102 102 76 90 90 92 114 96 114 112 128 142 150 150 142 152 132 120 104 94 94 100 68 78 78 
100 60 108 100 90 94 100 96 102 92 82 84 100 92 88 84 94 90 80 78 96 92 108 102 86 96 88 104 102 114 128 166 202 263 290 284 245 215 209 156 265 387 372 360 374 399 370 235 144 126 130 138 128 124 116 110 98 70 80 88 88 102 108 96 120 128 126 134 122 128 126 114 122 112 92 98 86 84 90 86 
96 76 78 88 98 94 92 106 92 96 88 92 82 84 90 86 92 88 86 92 92 108 92 100 106 92 80 98 118 207 255 292 327 333 323 304 278 257 335 327 356 377 381 368 364 329 192 122 116 114 136 134 112 122 108 110 106 84 86 86 84 96 108 96 112 134 140 140 138 136 116 120 106 122 94 84 86 76 82 86 
102 80 86 90 102 104 92 118 84 88 82 90 84 100 82 96 100 76 80 78 86 114 94 106 104 94 92 132 247 274 290 292 312 312 331 331 339 329 383 397 385 391 377 329 200 126 100 104 116 116 120 122 126 118 110 100 94 78 80 84 94 90 96 110 114 134 124 126 122 122 112 126 118 118 98 86 94 102 104 104 
102 92 92 68 90 86 88 96 94 94 88 106 92 90 88 98 96 88 94 80 90 98 110 104 104 108 122 207 294 294 259 282 319 319 339 312 346 348 397 389 362 377 381 352 274 140 106 104 114 110 128 124 122 138 130 126 130 108 138 134 120 132 152 132 124 130 126 110 126 118 136 116 108 104 100 108 134 124 126 126 
102 88 86 98 92 110 86 106 92 88 86 96 92 96 108 106 100 100 104 120 96 112 112 102 100 116 148 284 308 312 280 270 270 321 331 315 304 329 379 372 360 370 393 379 354 294 186 150 154 140 152 184 194 207 194 190 174 172 178 168 162 166 162 152 140 154 138 130 134 124 132 126 138 176 160 142 162 150 156 138 
98 84 88 96 84 84 78 102 92 96 98 84 82 86 106 114 118 134 178 219 164 160 138 102 112 122 209 294 300 300 292 274 247 251 280 292 280 321 343 375 360 368 356 375 366 364 321 243 178 160 182 211 213 235 217 196 211 205 200 194 178 180 176 168 156 144 136 140 134 146 168 198 239 266 278 268 251 247 227 203 
98 82 88 80 92 86 88 98 80 88 98 100 80 108 96 146 241 302 389 424 403 312 265 190 128 160 276 296 290 282 284 265 247 245 266 229 198 207 233 290 304 321 323 354 366 368 350 296 263 205 213 219 211 223 219 237 245 243 235 213 219 209 198 180 162 162 140 126 134 136 202 207 270 292 315 306 292 294 282 241 
94 90 94 90 80 96 92 100 90 86 100 84 92 90 132 219 364 375 418 455 451 346 348 325 211 270 319 315 306 300 284 272 261 282 247 170 130 150 142 223 237 265 272 304 335 343 354 329 310 272 229 211 215 217 223 235 241 243 231 207 217 205 192 192 166 168 128 110 132 108 176 200 219 272 294 312 288 288 278 257 
90 74 88 90 92 90 90 106 88 90 90 88 92 102 178 286 381 383 449 480 414 436 449 408 354 381 346 290 276 276 263 259 259 233 148 96 90 128 154 166 202 231 243 253 288 325 335 327 304 304 266 239 217 227 227 233 229 243 233 215 202 203 194 186 182 178 146 112 122 124 162 184 213 255 296 315 306 294 276 233 
104 82 92 90 90 98 100 92 104 86 98 84 96 100 176 312 383 418 447 474 453 472 486 451 408 383 368 282 272 266 229 225 223 186 124 62 72 104 154 184 198 231 241 233 245 292 323 319 294 265 274 241 225 221 235 249 237 229 217 203 194 188 186 182 186 172 156 142 142 144 156 182 221 233 278 266 259 268 231 188 
96 74 86 104 96 96 100 108 104 100 92 96 102 106 176 304 368 395 465 474 472 468 476 437 395 383 372 241 247 265 217 196 178 156 148 42 34 104 152 190 196 205 231 221 221 259 286 294 306 272 255 243 215 215 223 247 239 223 211 198 192 176 186 168 156 182 146 172 174 142 146 158 154 164 178 186 162 150 152 144 
94 70 92 96 102 98 94 98 98 82 96 94 96 94 136 265 368 389 439 465 457 470 486 426 406 375 335 251 225 221 176 184 150 150 116 58 32 132 164 188 186 200 225 245 223 241 268 276 282 280 261 259 227 225 247 253 241 229 221 205 207 176 184 166 162 152 160 180 152 142 130 124 112 110 114 126 116 106 122 118 
112 88 96 100 100 82 90 104 94 102 100 82 86 94 106 180 296 343 368 389 397 414 401 381 387 358 325 245 223 211 180 172 150 124 98 30 22 156 186 178 180 196 205 223 227 229 237 241 233 278 288 266 263 268 282 290 292 296 245 213 186 176 164 130 138 140 150 150 144 128 136 108 114 94 94 112 102 110 120 122 
96 86 106 88 92 104 90 104 92 88 96 82 96 106 88 104 150 164 194 213 213 184 168 176 235 327 308 290 261 227 182 160 134 122 68 8 0 78 174 176 188 180 198 196 213 225 233 213 202 247 296 296 280 313 315 325 337 321 255 207 176 162 154 154 140 152 144 146 140 124 134 114 108 90 110 94 102 116 122 110 
96 100 92 98 90 96 104 110 96 100 104 90 90 90 94 88 88 104 102 90 104 106 102 106 122 253 304 308 251 239 207 172 178 134 76 28 10 82 120 174 182 202 178 182 192 202 202 219 205 231 302 306 308 337 329 339 370 358 290 209 213 190 196 198 205 202 188 164 144 112 130 110 102 94 110 110 110 98 120 122 
108 78 86 90 100 98 98 112 108 98 86 88 86 100 96 100 92 100 82 82 90 94 100 96 98 215 253 276 253 237 211 211 203 130 80 60 62 102 158 180 194 184 170 174 176 200 231 237 229 274 306 327 350 362 354 366 344 327 247 231 219 223 215 229 225 221 205 168 144 136 122 154 160 178 211 221 200 178 148 124 
104 82 82 98 108 104 98 106 90 98 98 88 98 96 94 94 86 82 74 76 92 92 108 104 100 160 270 259 237 223 186 213 227 184 122 82 94 138 172 202 211 202 180 202 194 209 233 268 257 253 300 354 379 391 362 341 294 249 223 237 235 215 209 209 190 184 186 128 96 80 116 134 209 223 245 253 268 274 261 209 
92 82 92 98 94 86 80 102 88 96 84 80 86 96 82 78 94 70 78 82 90 84 96 86 90 146 284 294 239 225 182 190 213 198 172 142 162 176 209 215 223 221 217 211 215 255 290 288 270 268 292 350 389 389 319 268 253 225 211 194 205 198 180 198 174 154 126 74 74 76 112 140 203 229 255 266 274 300 290 261 
112 84 78 84 100 96 76 112 102 86 78 82 82 84 80 82 96 88 64 80 62 84 84 90 82 98 235 300 261 223 203 221 235 243 272 266 315 329 292 266 282 278 290 294 300 315 327 306 298 268 251 265 294 286 249 219 233 202 200 200 184 182 184 174 158 166 128 70 60 70 112 164 215 249 270 284 290 298 306 263 
108 84 84 88 80 78 84 106 92 78 94 104 76 92 72 78 102 84 80 72 78 86 86 78 78 82 160 263 255 241 237 253 270 270 296 321 370 377 358 354 358 352 341 341 337 362 344 312 280 221 219 211 217 225 225 225 223 180 190 184 180 174 162 166 150 142 128 90 80 78 132 176 229 257 274 263 274 268 270 261 
88 68 84 80 76 76 82 92 72 78 86 76 68 84 62 64 72 68 74 66 60 78 68 72 64 66 76 174 225 263 259 263 282 278 296 319 379 375 358 358 358 372 362 360 344 356 329 247 196 158 160 178 213 223 215 203 205 192 194 203 162 152 144 150 134 140 130 96 82 82 106 130 196 217 231 211 213 209 192 150 
74 56 80 74 66 84 84 88 76 78 94 72 78 76 72 86 90 66 60 50 46 58 78 62 52 66 56 62 106 182 223 268 284 292 310 335 389 410 368 346 352 364 360 354 321 251 156 120 118 126 132 154 178 205 198 205 196 196 192 166 150 140 126 138 124 120 104 82 80 66 66 66 86 116 118 126 118 128 134 136 
82 58 66 48 58 92 58 72 74 64 64 78 76 78 76 68 56 76 38 50 64 48 64 58 56 52 34 44 38 64 90 150 202 235 259 284 306 284 282 276 268 268 247 192 104 82 72 60 58 66 78 86 98 116 126 128 136 158 154 140 128 114 108 102 84 106 96 68 70 56 52 36 56 78 98 94 94 102 104 100 
90 58 64 64 68 76 38 82 80 54 52 54 62 62 38 76 68 42 52 46 36 52 54 48 44 36 30 40 32 42 56 94 100 108 156 156 132 120 114 110 94 96 82 92 74 92 70 62 68 62 72 64 46 74 62 74 60 70 96 68 66 86 70 68 60 68 62 68 60 28 32 30 60 82 86 102 88 106 92 90 


