P2
80 60
560
131 133 93 127 113 127 129 147 137 143 145 137 151 139 127 139 137 117 129 117 109 119 111 131 268 444 444 415 374 363 390 398 374 388 392 367 333 349 369 349 363 324 300 304 316 302 300 324 335 365 335 322 355 376 367 384 372 357 310 270 272 270 292 276 270 278 266 249 241 241 288 274 282 294 300 302 292 300 304 331 
135 125 123 107 123 115 121 133 141 135 151 145 131 141 135 129 137 125 105 127 131 129 129 133 249 431 446 438 409 398 423 400 367 337 355 339 357 376 335 339 333 310 294 296 296 276 292 282 280 300 314 318 349 367 355 367 363 337 308 272 268 270 278 290 282 276 302 276 274 272 264 280 300 300 302 302 292 314 331 324 
137 121 117 133 127 123 125 131 129 139 129 123 143 147 141 139 131 133 131 137 125 133 133 197 282 353 469 471 444 413 427 392 351 345 394 372 371 367 345 341 310 312 292 290 276 282 272 259 249 272 288 270 310 337 327 333 331 310 308 278 280 280 270 272 306 300 312 302 288 286 262 266 282 302 310 304 282 294 310 314 
117 107 109 125 131 131 133 145 129 131 135 135 147 155 145 135 145 147 171 187 135 173 177 320 384 376 458 460 465 440 425 400 345 369 400 384 384 378 349 314 306 304 282 282 270 270 262 253 225 272 298 292 284 286 290 306 280 300 324 300 286 280 286 296 300 304 349 316 302 310 304 251 266 282 296 278 280 270 290 290 
135 109 115 121 121 129 127 151 135 131 129 135 159 147 193 241 225 272 369 398 329 351 298 413 516 429 462 450 460 448 436 398 374 363 394 380 382 367 339 312 306 284 278 300 262 257 249 245 243 274 308 282 286 270 264 274 278 310 320 294 294 280 284 276 282 278 288 282 264 243 227 209 189 193 197 187 177 183 231 245 
123 97 119 123 121 129 133 133 123 149 139 153 165 207 353 396 318 421 504 535 526 539 500 493 520 444 433 448 446 415 417 388 357 355 384 355 384 349 333 290 294 288 282 286 257 231 245 241 213 259 302 280 272 259 245 266 282 343 282 221 181 173 167 171 159 163 175 177 181 177 173 159 149 169 157 147 151 155 183 171 
109 127 125 129 105 139 141 139 137 135 123 167 165 286 405 438 353 454 516 554 524 485 498 506 485 475 409 419 413 374 380 357 339 320 343 341 353 351 327 280 286 288 288 278 268 237 241 227 219 262 294 294 278 255 251 266 284 331 316 193 127 161 147 147 157 169 155 149 169 167 163 159 139 151 143 155 139 161 163 173 
113 109 125 121 119 127 139 139 127 149 139 163 199 327 431 407 371 473 520 498 471 448 436 473 469 496 431 400 382 382 372 341 331 322 320 325 357 333 329 302 300 288 280 280 262 243 243 221 231 245 290 288 262 255 249 259 310 351 343 290 211 173 157 159 163 167 165 167 175 173 177 181 175 167 165 157 165 143 167 177 
123 117 135 135 125 129 135 141 135 133 131 159 215 310 440 431 351 464 479 471 491 481 465 483 458 442 456 444 458 417 400 357 335 308 320 320 341 347 333 333 308 300 290 259 255 241 241 223 235 245 278 280 261 247 237 278 306 329 353 347 325 306 280 268 215 205 195 181 195 185 197 201 189 189 191 177 165 195 207 221 
127 109 127 121 125 129 141 145 127 141 137 153 189 288 405 425 361 409 452 537 526 520 491 402 331 376 464 456 475 450 405 353 316 310 296 296 306 343 325 310 322 306 292 270 259 239 245 231 247 235 264 282 272 259 266 304 314 341 367 359 371 374 369 349 343 322 300 231 225 221 247 257 272 262 270 266 251 259 282 292 
127 105 119 133 131 131 121 151 127 129 135 147 175 251 388 417 396 357 419 458 477 429 286 229 278 361 446 471 469 467 440 378 347 325 314 290 302 304 310 300 308 302 298 276 255 261 249 249 259 247 266 302 314 304 320 333 355 353 369 378 371 388 380 380 365 369 374 329 310 308 316 312 312 304 324 304 294 280 284 333 
117 99 101 117 117 135 123 133 127 127 119 137 139 183 276 337 367 302 310 270 227 185 135 137 191 380 431 440 454 433 409 384 349 314 325 316 329 314 322 325 331 322 300 290 290 290 268 268 286 280 284 320 351 337 353 374 365 369 384 384 386 378 378 371 369 367 371 369 339 324 298 314 288 314 288 304 304 262 280 292 
125 101 113 121 123 113 129 141 121 121 121 135 133 149 157 179 219 187 149 129 135 123 111 121 193 400 421 398 402 369 374 371 349 333 327 325 335 347 353 339 341 324 322 320 314 302 300 290 312 290 310 355 378 374 372 384 363 353 371 380 371 376 359 363 363 361 361 367 341 335 286 294 280 266 284 294 270 247 253 225 
111 115 119 121 111 135 109 127 117 127 125 129 133 107 125 113 133 113 113 119 119 119 107 109 163 345 413 367 355 320 339 341 331 359 353 359 359 371 396 398 396 388 367 355 353 369 347 347 349 322 320 359 369 371 372 384 367 343 369 372 355 359 371 339 335 331 343 343 341 314 272 278 251 247 255 229 203 171 201 179 
107 97 115 99 117 121 139 135 117 119 119 103 107 107 109 111 113 117 119 121 107 115 109 119 107 233 367 378 392 378 374 363 312 417 464 477 464 481 473 477 454 452 464 465 462 433 419 415 376 372 361 333 339 343 341 345 359 320 351 372 339 347 335 322 316 325 320 306 304 280 262 259 231 213 201 173 157 131 159 187 
125 105 107 119 113 129 133 123 117 125 115 115 131 133 127 111 117 111 109 101 121 113 111 103 107 125 199 292 367 376 371 355 324 403 446 446 444 448 465 485 460 454 448 464 464 446 444 429 405 394 380 304 257 225 195 197 199 187 209 213 221 211 229 235 235 241 262 253 255 217 201 215 179 165 173 151 161 145 169 167 
123 91 119 111 119 105 115 129 109 119 133 123 121 119 117 121 111 115 105 101 107 125 115 121 127 119 141 179 197 215 290 327 300 320 331 324 327 312 345 376 390 411 415 421 392 380 361 353 325 300 259 219 197 163 131 149 127 135 149 139 141 145 151 171 159 161 179 191 193 187 175 185 191 171 153 155 167 151 151 167 
119 97 113 99 125 121 115 133 117 117 115 125 125 117 129 131 113 129 121 117 123 121 113 113 119 117 147 135 155 151 191 199 205 219 253 261 264 266 219 221 217 211 235 233 245 227 243 262 251 239 207 185 183 157 143 135 133 119 127 139 137 145 149 169 157 177 181 179 185 197 181 183 167 177 161 167 153 161 169 153 
135 123 113 123 129 115 125 119 125 105 111 131 129 119 129 107 125 121 123 123 115 125 129 115 123 123 143 137 155 151 167 185 193 195 231 227 223 229 207 197 201 197 205 213 207 211 239 219 223 203 191 185 173 163 143 135 117 137 125 133 123 139 155 167 175 165 175 189 173 191 173 193 183 181 153 169 167 163 173 165 
117 105 105 119 141 121 123 129 117 119 129 133 133 121 115 123 123 119 107 119 115 129 129 111 123 133 145 139 155 145 153 173 189 185 203 211 209 197 215 217 225 237 237 225 219 215 227 227 205 215 181 183 185 151 137 133 127 125 131 123 125 149 151 147 155 169 183 179 171 185 179 183 183 179 159 175 159 169 185 173 
125 117 127 119 123 131 117 139 119 117 123 121 127 149 107 119 137 127 109 123 119 123 133 133 125 131 129 141 159 151 153 169 169 169 201 211 225 280 286 282 339 380 361 359 308 227 217 217 209 203 181 181 179 167 137 143 119 123 139 121 129 141 149 149 155 159 177 183 171 181 179 181 181 147 169 169 171 157 185 183 
111 115 117 101 117 119 127 123 107 109 119 107 143 139 117 113 115 123 115 125 125 117 113 123 123 115 143 133 143 139 149 155 167 187 241 280 316 345 320 300 365 409 405 390 388 278 203 205 205 191 173 173 185 161 141 133 129 119 119 115 129 133 143 149 159 147 169 177 175 171 183 167 175 159 163 157 175 169 173 183 
127 109 127 123 119 119 123 133 115 117 117 127 131 119 117 109 119 129 113 97 119 121 119 127 115 127 141 129 147 141 155 165 207 280 333 306 314 351 333 327 355 371 369 384 306 203 203 195 177 179 177 161 171 143 133 139 113 127 125 143 133 135 137 137 155 145 155 165 163 181 169 169 183 161 179 159 159 155 181 177 
119 101 131 115 111 121 93 123 129 117 109 139 127 129 111 119 121 117 115 107 119 121 117 115 107 123 143 133 145 153 171 213 288 262 251 207 207 300 329 325 329 329 345 316 205 173 185 179 169 199 169 179 171 169 155 149 141 159 167 179 169 175 117 107 103 93 111 115 157 181 173 173 181 183 159 185 183 161 187 185 
125 109 125 129 123 133 119 145 125 127 111 123 135 135 109 111 127 115 113 117 103 125 119 115 103 113 131 133 163 139 169 298 347 314 282 266 259 333 314 270 304 284 262 155 139 139 157 199 201 215 217 169 205 177 155 179 225 251 251 261 255 251 161 121 85 85 85 87 127 171 183 183 187 191 155 177 173 167 179 177 
105 121 105 107 113 113 125 115 107 121 123 117 135 125 121 115 123 125 103 109 119 107 125 109 97 113 121 125 149 141 201 374 386 386 392 374 369 347 270 223 189 173 177 145 105 167 137 153 219 173 165 149 173 171 199 185 221 255 239 243 237 241 193 135 107 107 95 67 109 183 185 187 193 171 177 183 165 179 171 173 
101 91 115 111 101 111 123 123 125 115 117 103 115 129 117 121 123 121 107 99 115 99 111 109 123 121 133 137 151 147 223 372 409 423 427 402 349 312 203 77 93 139 125 111 67 85 91 139 161 165 107 163 173 193 183 209 199 231 219 207 199 203 165 131 117 121 105 91 125 183 211 201 219 235 227 189 163 149 175 167 
115 95 111 121 113 111 115 121 113 105 121 117 115 121 113 105 95 121 101 101 115 101 117 107 121 149 129 113 137 137 245 355 392 415 411 423 386 243 135 41 63 123 69 67 75 71 59 131 163 169 135 171 155 181 185 191 223 213 195 189 181 157 163 145 137 139 143 145 173 241 253 270 280 310 335 318 272 219 179 187 
117 113 105 113 109 123 127 127 115 127 127 125 105 115 119 119 133 111 111 107 131 139 191 203 268 351 302 217 221 235 324 300 347 378 434 446 419 235 69 15 51 35 87 91 81 99 115 147 197 175 195 163 163 195 189 243 225 235 235 241 227 209 183 163 157 161 199 227 207 264 282 294 302 325 353 351 333 310 286 209 
109 107 127 121 119 111 115 127 125 113 127 111 109 105 115 97 109 119 111 103 153 237 262 325 442 483 493 433 415 392 359 308 337 349 411 452 434 316 93 41 2 9 135 95 103 105 145 115 173 185 205 133 147 213 203 243 239 183 199 175 187 199 211 219 203 191 211 235 266 268 262 284 268 294 320 341 331 322 306 278 
115 107 109 115 111 109 103 115 139 127 117 105 129 115 91 107 125 109 117 137 209 300 337 421 485 495 508 479 436 400 376 296 343 345 374 411 427 359 119 17 33 43 119 123 153 125 115 111 157 183 201 127 171 219 219 227 223 205 169 159 181 199 219 231 255 253 239 282 294 276 251 235 255 266 280 296 296 316 308 324 
109 105 103 113 111 109 109 131 117 103 115 123 111 113 119 117 111 123 111 141 264 367 376 485 479 427 433 477 419 402 376 320 355 349 312 349 388 367 141 0 43 115 99 125 139 157 103 119 121 169 183 179 183 235 235 205 187 193 187 227 241 231 247 245 268 255 251 243 251 251 219 247 274 255 276 314 296 325 339 327 
111 105 93 119 123 105 121 125 111 119 117 129 117 133 117 125 127 121 127 141 245 357 421 487 471 444 425 491 423 382 390 345 349 372 294 262 329 351 247 123 127 149 149 141 149 147 145 133 121 145 207 211 183 211 219 209 179 195 165 225 233 223 251 251 266 255 268 274 306 306 280 268 280 270 284 296 320 320 314 312 
121 111 121 113 121 129 123 123 113 123 119 113 131 141 125 117 127 131 127 145 262 390 409 438 475 464 483 481 400 322 376 349 349 335 306 274 300 316 290 239 167 145 187 177 167 135 179 157 133 147 195 223 177 153 189 211 191 187 183 213 225 229 231 235 251 261 282 308 343 320 312 282 280 266 286 318 322 314 302 233 
109 99 121 111 113 125 117 127 115 115 121 125 139 133 121 119 117 119 125 129 221 365 376 335 382 444 407 296 209 177 292 351 292 298 300 288 294 325 314 284 257 203 153 171 143 199 215 189 143 145 175 199 151 129 177 195 193 173 205 195 203 217 221 237 247 266 274 306 306 308 286 282 270 286 290 322 286 231 207 189 
93 97 105 111 101 111 117 125 125 133 113 129 125 123 115 129 143 133 121 121 151 199 215 209 207 189 179 151 163 159 241 325 278 253 257 272 266 304 331 298 292 284 181 181 169 233 233 205 183 133 167 153 131 145 147 205 223 207 217 191 193 221 221 233 261 253 298 278 296 284 298 284 294 255 266 233 193 159 165 173 
109 93 109 113 105 121 127 115 129 127 123 121 131 117 111 139 123 119 111 121 131 133 127 125 115 135 135 125 139 147 203 327 294 225 203 187 270 333 341 310 337 324 298 205 161 247 233 223 205 153 151 167 157 147 145 187 183 183 197 193 217 239 239 239 243 247 270 268 276 272 251 231 219 199 193 175 153 143 149 141 
111 103 109 127 113 103 121 117 123 113 113 129 125 147 127 111 125 125 123 115 111 123 113 125 115 131 133 127 145 143 185 284 292 213 171 205 308 347 345 341 359 333 349 282 185 215 217 239 255 179 157 185 163 149 161 191 197 203 189 199 209 243 241 261 253 259 213 231 209 201 207 195 189 175 155 159 141 147 151 165 
103 107 109 109 115 113 129 129 115 131 127 125 133 139 121 125 125 111 113 113 129 135 127 127 111 141 107 129 135 127 173 249 308 288 276 310 339 324 337 359 365 355 365 353 187 117 135 161 161 173 169 161 171 149 155 175 163 185 181 191 193 195 233 231 201 171 173 179 165 191 183 177 175 159 161 163 159 169 189 195 
119 111 123 127 115 127 117 133 123 137 113 119 101 113 131 117 119 113 117 123 131 107 115 101 99 131 129 131 147 133 159 185 264 312 345 320 335 333 361 357 372 376 374 380 264 113 139 131 135 159 137 145 153 163 151 141 135 141 139 169 159 157 163 159 137 159 155 155 169 183 187 171 163 159 167 159 175 189 213 195 
111 111 109 107 113 125 115 133 129 135 119 127 113 109 121 117 121 121 105 117 121 113 121 115 101 121 127 127 143 161 209 245 278 333 361 325 325 318 345 363 353 376 374 382 288 123 133 143 137 141 141 153 155 161 151 147 123 123 111 121 123 119 123 135 135 141 147 161 157 165 151 163 149 153 171 173 175 185 205 191 
101 103 109 107 107 115 117 117 113 115 129 127 125 127 127 123 117 119 121 101 115 119 109 103 97 111 131 133 197 292 369 367 369 374 361 374 343 345 372 407 386 372 363 276 167 121 127 135 141 151 141 141 145 145 131 129 113 105 97 107 109 93 117 125 131 131 147 155 145 151 149 147 137 149 151 165 173 187 185 189 
119 123 119 113 117 137 125 113 123 117 109 129 131 123 111 131 105 121 123 111 115 129 125 111 103 111 123 149 327 357 337 361 369 376 384 376 380 363 405 419 411 413 409 333 185 123 127 129 147 155 125 131 129 119 105 121 103 99 83 85 91 97 115 119 115 137 127 139 151 153 161 145 141 153 151 171 179 169 191 195 
111 103 101 119 105 113 119 107 109 119 133 125 133 121 113 111 109 109 109 107 117 121 117 103 101 111 139 225 386 378 372 329 347 376 392 365 374 371 417 411 423 403 425 417 337 171 137 135 137 119 119 107 127 129 105 115 99 103 125 113 131 137 141 151 125 121 143 159 161 151 159 143 135 147 159 181 173 171 193 189 
111 101 115 133 113 123 123 127 133 135 127 113 127 133 117 135 129 147 129 115 119 133 129 117 99 129 177 290 384 380 359 308 284 304 351 357 374 371 413 402 413 421 409 421 425 337 223 181 173 177 155 181 193 185 195 183 173 187 195 177 173 173 163 151 151 141 151 141 139 147 157 143 137 149 159 165 185 185 195 197 
115 119 121 123 123 129 121 131 123 125 125 123 145 121 123 155 229 292 286 284 280 270 173 127 123 149 235 320 335 324 355 316 278 274 286 264 282 316 351 382 415 425 409 415 431 407 367 270 209 203 207 213 231 219 219 207 213 207 193 185 183 187 177 155 161 141 135 163 167 163 173 173 173 159 171 179 189 179 187 207 
123 113 123 121 125 127 131 135 137 119 121 125 139 149 147 205 359 450 438 469 475 491 407 245 173 193 343 345 353 306 333 292 268 298 290 205 161 153 211 262 329 372 396 403 402 409 400 343 213 217 229 227 213 209 219 215 225 241 231 213 227 219 189 177 145 133 139 175 193 201 227 264 280 308 306 294 268 223 231 213 
111 119 109 113 121 125 125 123 123 127 133 125 129 157 191 306 436 458 465 541 516 495 514 464 400 398 405 351 341 325 318 294 280 306 245 143 109 115 167 205 280 312 325 367 390 394 400 382 288 217 221 237 237 219 213 207 221 229 229 237 225 233 221 189 169 161 163 191 181 221 251 298 331 331 361 355 357 314 312 308 
129 123 115 129 121 127 119 127 137 125 137 129 129 145 179 327 454 477 498 560 500 491 481 454 450 462 436 369 380 314 306 288 286 245 185 87 77 85 147 203 257 288 288 318 341 359 409 382 327 262 227 245 231 235 209 209 215 223 221 227 227 233 227 187 183 159 169 161 153 191 257 284 316 341 357 384 359 349 347 353 
121 115 123 141 127 123 129 123 127 123 123 135 133 145 191 320 423 433 495 518 491 423 434 400 403 450 436 359 361 325 288 261 241 207 159 67 45 77 167 195 259 276 300 286 286 333 382 361 337 282 217 251 270 241 241 231 229 213 227 225 203 217 205 221 203 191 177 161 159 169 223 261 306 318 357 376 363 363 376 343 
121 131 131 125 129 119 119 137 119 137 127 117 135 135 155 266 392 429 456 526 489 440 448 390 402 442 388 292 327 302 264 221 203 169 119 35 11 121 181 209 223 268 274 290 276 268 341 353 343 320 249 229 257 259 253 253 239 237 231 221 221 215 213 217 197 217 201 171 157 205 221 239 266 296 345 372 357 345 347 367 
131 105 119 123 125 137 129 135 131 129 115 115 131 125 141 167 304 378 419 485 442 471 462 438 415 421 369 286 302 251 237 221 189 153 101 27 37 173 223 217 241 268 259 284 282 264 268 329 327 327 274 268 251 261 259 259 237 243 229 215 229 235 235 227 213 235 239 225 211 201 205 227 229 253 282 296 296 286 268 272 
103 107 121 119 121 117 127 145 117 119 143 143 145 143 155 157 171 193 225 245 318 341 318 209 219 357 359 314 322 274 223 203 173 153 95 13 41 165 239 233 255 255 262 292 282 262 251 266 312 351 316 282 274 262 259 262 253 270 229 227 235 227 237 219 205 197 201 209 189 175 195 171 159 183 181 187 207 185 195 195 
127 121 111 137 105 129 121 143 127 131 141 143 135 143 141 135 143 147 143 135 159 147 147 125 141 253 339 337 324 268 249 219 177 113 63 17 45 121 239 231 251 239 241 245 272 251 243 255 270 349 359 316 296 292 318 349 337 335 255 239 201 195 177 161 151 159 163 169 159 173 173 165 149 145 165 181 175 173 191 195 
123 109 113 123 137 127 123 145 141 135 125 133 129 147 127 133 135 129 127 129 117 147 117 129 99 177 327 325 329 270 266 235 189 133 71 5 47 147 219 237 253 255 217 219 233 233 223 233 266 353 351 335 339 337 345 388 390 407 306 245 223 225 241 231 189 183 179 185 171 157 167 161 155 173 167 177 155 163 183 179 
113 123 111 119 123 111 131 139 125 123 129 135 153 143 125 115 135 129 131 113 123 127 123 105 105 145 296 339 329 268 262 261 225 141 95 59 95 123 219 257 270 245 237 253 245 233 233 251 266 320 339 353 378 382 365 400 390 394 288 241 225 257 237 231 223 229 233 205 195 201 185 191 191 189 209 225 195 173 197 201 
101 99 129 125 127 101 119 131 123 131 111 135 133 135 121 121 127 123 135 107 109 117 111 93 89 117 298 388 357 292 241 225 261 197 127 59 55 77 221 235 262 264 245 266 237 251 280 280 274 304 333 396 413 390 409 407 371 365 257 251 255 264 223 205 221 219 219 199 179 185 185 213 235 262 288 312 298 278 255 245 
95 119 101 135 121 115 115 129 103 113 115 117 127 123 131 127 127 105 111 95 95 101 87 79 93 111 251 353 339 308 245 207 215 207 193 151 117 151 185 237 270 257 261 261 257 272 331 318 312 324 320 394 433 417 378 331 282 264 253 255 243 231 217 207 205 193 209 151 139 139 175 191 231 282 296 345 335 329 345 333 
105 81 99 119 115 119 117 103 87 103 105 99 115 111 107 127 99 117 93 97 103 93 77 87 73 95 167 327 331 294 290 274 261 274 288 280 314 306 304 288 294 312 327 343 351 343 357 347 318 292 288 333 378 333 274 262 253 245 241 239 225 203 207 197 189 201 187 119 107 121 181 223 233 282 331 359 365 372 386 351 
93 105 107 93 91 101 107 117 109 117 93 103 117 113 117 113 95 111 103 87 97 121 79 79 85 73 99 175 286 300 304 298 272 259 300 270 284 349 351 355 372 365 371 382 382 365 355 325 286 264 225 247 268 270 249 262 243 243 241 231 227 225 199 203 221 215 183 123 129 109 181 209 274 314 357 371 359 359 371 374 


