P2
80 60
584
166 170 158 154 172 166 178 168 178 168 164 160 162 160 156 154 168 152 154 136 134 150 140 138 126 146 216 369 442 458 475 433 392 388 491 563 489 355 308 444 512 458 279 212 184 186 224 247 263 265 273 273 273 273 271 247 226 241 249 255 271 249 253 261 245 233 239 267 247 232 243 251 275 259 283 283 253 239 261 279 
178 162 162 164 150 152 162 172 164 162 168 184 164 162 152 166 162 156 140 142 152 134 138 140 126 160 332 407 440 436 425 413 400 419 466 493 423 374 353 405 456 469 363 291 265 269 310 324 330 314 320 312 306 289 269 251 253 271 277 281 281 285 289 277 295 306 275 275 269 265 255 293 285 283 291 283 285 275 285 283 
178 158 170 160 164 162 172 168 156 172 154 156 156 156 166 158 156 142 136 132 134 140 144 146 122 166 388 415 404 409 367 365 446 450 458 446 427 384 382 378 440 450 365 291 289 291 328 326 326 330 336 332 312 316 302 267 263 283 277 302 310 298 287 296 308 322 293 281 245 212 237 277 287 279 273 273 263 279 271 275 
180 156 158 154 162 142 168 182 164 164 156 156 162 152 166 146 166 162 142 136 136 142 130 138 144 178 388 433 446 404 392 392 440 435 411 415 417 382 353 353 446 438 363 314 281 291 306 302 302 324 359 373 340 304 298 296 300 300 302 302 300 300 296 302 318 298 298 289 263 230 237 253 291 285 287 263 277 261 265 271 
170 150 156 150 160 154 162 180 164 156 162 164 176 166 162 170 156 170 134 146 144 148 140 152 162 200 396 444 462 440 413 413 460 417 373 384 361 343 336 320 409 423 373 302 285 281 275 279 273 291 351 378 349 340 312 320 334 320 304 308 300 291 312 320 312 314 300 298 291 253 265 281 300 296 306 275 285 269 281 289 
158 154 172 166 158 160 168 180 158 178 166 168 182 162 158 174 168 162 150 150 160 166 162 170 174 269 384 464 471 473 448 431 466 400 351 345 343 338 340 349 438 456 396 314 277 253 255 269 239 253 336 371 343 345 332 336 357 338 310 330 330 345 330 340 357 363 345 345 308 298 316 338 328 318 302 302 279 283 296 293 
142 148 160 140 150 166 164 180 176 160 172 174 164 148 166 164 164 180 164 184 194 192 194 200 218 357 384 419 466 483 481 466 462 388 347 347 345 349 374 407 444 450 429 340 275 243 261 245 220 220 298 324 314 316 314 304 310 324 355 347 347 357 369 378 404 400 384 365 369 340 332 349 326 326 302 298 289 293 281 296 
158 150 150 146 168 178 160 172 162 168 150 160 162 176 164 178 186 204 243 287 400 423 367 390 398 537 543 444 460 479 504 497 460 378 320 342 365 361 394 425 450 440 431 373 265 263 235 230 218 214 283 295 291 289 283 281 314 336 351 363 361 373 390 386 398 407 384 351 334 338 328 342 318 320 295 296 281 273 273 277 
160 144 148 154 154 172 150 180 166 166 162 162 164 170 182 190 251 342 386 440 537 573 571 560 529 556 571 491 421 452 458 466 419 357 326 349 369 384 404 429 444 431 431 390 285 263 245 228 228 208 271 281 271 265 273 291 326 343 367 380 380 386 402 394 382 380 357 353 343 312 302 306 304 300 283 267 255 239 233 212 
174 150 164 158 148 168 174 156 144 170 168 162 180 164 180 212 320 398 419 502 563 584 579 562 550 523 531 523 411 413 380 376 359 340 318 345 349 373 442 448 454 456 444 386 285 269 247 239 222 212 245 265 271 275 291 308 304 369 413 404 404 425 402 398 382 386 342 342 332 277 289 281 289 281 241 226 184 174 154 182 
156 154 152 156 162 162 154 164 162 152 152 160 170 150 170 228 336 382 440 546 502 554 544 537 495 489 491 529 448 405 392 382 361 326 318 330 340 365 444 454 442 452 431 353 273 269 259 243 226 216 224 283 293 293 314 312 322 392 429 417 411 390 371 398 386 367 328 306 281 247 245 245 228 198 182 172 158 152 138 168 
164 170 162 156 154 152 182 174 162 156 164 162 162 168 182 228 345 367 427 525 520 543 506 477 495 454 386 407 413 464 479 460 450 376 330 345 353 371 425 436 448 427 369 326 291 283 263 245 237 218 232 251 312 324 342 336 349 386 388 400 363 355 355 347 316 295 281 267 230 214 202 198 184 186 176 182 160 150 148 182 
156 164 162 154 160 168 152 168 152 158 156 166 164 168 166 188 316 361 376 529 543 522 537 508 467 302 237 273 382 467 498 497 483 423 365 343 367 359 380 371 411 398 355 340 306 289 275 255 241 224 237 267 324 343 343 330 332 332 342 334 324 302 285 269 230 224 208 204 198 188 178 184 178 184 170 166 154 154 154 160 
172 164 154 160 148 156 172 166 160 166 158 160 168 158 166 170 255 338 357 481 525 502 456 396 237 176 170 190 289 435 471 471 464 429 371 361 359 351 369 371 398 392 407 400 347 342 320 298 267 251 253 271 334 343 343 340 347 318 300 281 251 210 212 194 178 190 202 192 208 192 190 192 184 194 176 168 160 144 152 162 
158 154 160 154 164 154 172 150 170 150 152 152 146 152 158 150 198 275 330 347 380 273 200 178 152 166 164 168 237 415 419 394 390 363 371 386 438 460 440 436 469 481 487 477 467 469 454 456 388 338 316 300 355 386 404 405 355 326 289 222 220 184 192 192 190 200 196 200 202 208 196 196 178 192 174 182 164 138 138 152 
182 162 164 148 158 172 170 154 158 164 144 144 152 156 152 152 150 188 200 196 190 160 176 156 158 164 166 176 194 287 347 326 312 287 365 417 450 504 493 481 497 518 539 520 514 512 527 531 512 475 436 425 442 460 446 413 351 357 312 210 202 186 196 194 200 204 194 204 218 190 194 202 182 194 168 160 170 158 162 172 
160 150 164 144 168 158 168 154 160 158 152 164 162 156 162 158 160 168 152 150 150 162 152 170 170 162 178 180 196 182 241 300 340 388 467 491 467 473 417 361 380 442 446 450 454 450 464 477 442 436 423 413 405 419 423 429 386 357 243 202 200 184 200 204 188 186 194 206 210 194 194 202 202 188 162 158 158 168 152 166 
150 154 156 150 154 154 160 162 152 156 148 154 162 160 158 168 172 176 154 168 158 162 164 164 160 170 188 184 188 194 224 214 283 425 483 481 495 452 367 241 247 249 255 283 293 324 304 296 277 259 249 233 222 222 235 237 233 202 198 202 218 214 196 198 184 190 202 206 198 210 206 194 182 180 176 160 172 168 166 166 
158 174 166 160 170 152 150 160 168 156 158 166 162 154 172 176 172 168 170 160 154 150 172 166 156 172 190 176 196 206 216 249 398 471 485 491 481 427 306 210 212 212 194 224 222 220 247 243 237 233 224 214 190 210 204 214 216 245 235 235 228 222 206 212 204 210 194 208 206 216 196 204 192 188 174 180 186 178 168 186 
164 152 138 142 146 152 154 164 160 156 152 160 160 152 154 164 152 164 156 160 158 154 160 166 162 174 186 172 184 200 228 306 467 483 471 464 435 342 212 188 206 192 184 208 208 198 206 224 208 245 212 174 186 214 200 208 239 230 241 233 218 210 218 220 251 220 230 233 235 263 281 251 253 249 214 208 196 180 180 190 
158 158 148 148 158 148 148 180 166 148 166 156 158 162 158 150 170 176 158 148 160 162 178 168 162 170 180 182 182 208 267 417 456 462 444 435 415 320 228 176 166 150 122 162 170 190 178 174 160 245 210 192 186 208 170 206 202 230 235 241 220 208 232 222 249 273 255 259 249 316 304 293 314 314 334 298 251 200 188 200 
150 162 160 154 160 154 172 160 158 144 162 160 160 164 160 166 152 158 164 154 164 162 166 166 176 164 176 172 190 257 378 419 444 415 374 338 326 228 188 106 102 52 70 58 144 196 160 178 156 224 200 188 188 186 194 204 204 222 204 214 218 212 226 237 245 247 257 265 281 316 310 291 279 263 324 342 332 289 233 210 
170 160 146 156 152 164 160 150 158 160 156 162 158 152 160 152 154 168 160 152 148 172 164 166 182 200 232 233 257 349 404 436 427 367 320 322 300 235 164 56 50 80 126 128 142 178 146 166 166 216 200 194 190 200 220 208 208 202 204 206 214 208 235 245 233 247 269 277 308 349 322 291 275 269 298 296 318 306 330 296 
168 146 156 146 158 148 156 144 156 152 156 156 166 180 172 166 156 170 144 166 164 158 172 182 285 359 373 340 384 417 429 390 351 328 349 407 355 237 160 78 110 166 172 152 184 196 138 166 190 216 208 218 188 220 228 220 232 220 224 208 184 243 281 271 267 291 298 289 310 326 287 271 273 298 316 318 312 324 328 322 
166 162 160 160 144 152 168 156 170 156 146 162 162 150 150 150 170 150 152 138 154 162 168 180 263 310 310 314 373 376 296 302 314 318 324 361 314 228 182 104 114 126 160 172 188 172 140 144 206 224 224 220 194 251 249 245 255 239 230 208 218 271 287 291 283 281 255 241 251 233 230 243 249 255 277 283 283 302 328 334 
142 152 142 148 170 150 166 144 154 154 154 148 146 154 148 148 174 160 158 150 168 182 237 259 279 382 374 291 320 304 361 363 304 347 295 249 226 154 120 78 70 92 166 184 150 192 168 150 216 216 216 237 208 233 243 253 251 241 233 226 296 338 332 298 271 261 237 230 241 237 237 232 232 218 208 202 214 228 245 279 
150 152 162 148 150 152 166 150 158 146 154 144 156 144 158 156 154 168 156 150 200 261 295 300 361 493 500 466 450 469 458 394 295 351 295 196 174 118 62 46 68 98 148 160 182 202 170 182 204 212 228 263 232 235 247 249 257 265 247 230 261 281 271 269 267 289 267 281 287 298 283 247 235 239 241 249 251 257 271 320 
164 160 156 160 144 152 150 170 146 144 154 140 144 144 160 154 150 160 146 160 233 314 320 349 471 541 539 535 512 450 504 431 324 373 347 230 184 132 44 18 54 92 108 164 180 180 130 230 259 222 237 259 245 239 241 230 257 263 251 261 287 259 279 273 269 275 291 287 306 316 293 306 279 296 295 302 334 342 351 355 
158 168 158 150 150 156 146 164 146 160 154 154 146 148 152 164 160 150 146 146 257 340 355 407 541 541 483 477 522 421 491 427 340 398 365 228 192 148 54 0 22 22 104 170 176 152 182 265 304 233 251 249 222 235 230 228 233 255 261 243 261 267 281 271 273 279 277 289 281 310 308 298 308 300 318 316 351 365 336 328 
152 150 152 152 154 138 148 152 158 152 152 140 134 130 136 140 132 144 158 146 228 308 402 485 548 533 444 431 504 433 483 431 336 382 361 279 239 206 150 74 24 18 98 148 146 182 235 287 300 233 228 226 196 204 228 233 247 247 253 222 214 261 243 263 265 261 263 277 281 302 283 318 304 320 320 338 353 338 318 316 
142 138 142 142 146 136 144 154 148 156 148 142 138 146 148 140 152 144 140 158 235 306 415 460 525 520 502 500 481 386 398 382 347 345 330 281 287 289 261 158 114 108 110 136 158 226 251 293 279 233 233 194 202 216 214 228 230 237 220 214 200 235 239 233 255 257 239 249 249 289 300 296 300 308 312 330 318 298 233 218 
154 150 144 146 148 138 150 176 150 146 148 142 142 144 148 162 158 158 140 150 198 273 351 347 404 452 485 413 310 214 251 298 338 302 310 310 320 293 295 210 156 152 124 220 196 279 283 300 230 259 249 216 224 204 210 214 222 210 206 192 198 206 208 204 224 232 232 198 182 235 232 249 245 251 249 243 214 176 182 174 
148 154 148 144 152 140 154 152 142 146 148 140 162 156 144 154 166 150 150 140 158 208 218 212 218 226 233 200 192 184 214 291 373 367 353 330 310 249 243 233 243 202 192 239 249 257 281 243 226 261 269 249 230 210 188 190 184 182 180 178 194 194 202 200 186 190 190 172 184 212 198 206 192 182 176 156 154 158 146 176 
142 154 158 154 148 156 164 154 164 170 158 152 164 166 162 154 158 152 156 148 146 162 170 160 158 162 170 168 180 196 281 347 417 415 392 371 386 361 357 363 361 336 279 249 239 182 202 218 226 237 267 251 235 192 178 174 184 184 172 186 204 198 186 186 176 192 174 178 200 204 210 210 186 162 172 152 144 152 148 156 
146 136 156 154 152 158 148 146 150 156 160 142 172 166 156 158 166 164 150 136 148 142 142 156 134 172 152 160 174 186 283 409 421 419 367 365 392 388 380 376 398 394 380 404 318 182 160 174 174 184 202 188 200 192 180 156 156 148 170 174 180 182 162 174 174 172 180 196 208 204 210 204 182 174 164 148 132 144 142 166 
140 152 148 148 134 152 162 158 154 164 154 154 168 150 160 154 162 162 158 148 140 154 142 160 152 150 164 166 158 178 241 353 409 376 373 400 392 369 380 388 404 427 415 421 405 322 160 160 174 176 192 178 180 196 190 164 170 162 174 172 158 176 162 174 174 180 192 192 218 198 216 196 178 170 160 164 162 134 124 156 
146 150 160 162 148 150 158 150 158 156 150 142 160 150 156 162 158 162 150 148 148 154 158 166 142 166 168 162 178 178 233 255 347 351 390 417 380 359 342 388 423 438 431 442 404 373 180 186 184 188 186 186 192 190 184 168 162 154 162 172 170 170 174 164 178 178 184 190 192 200 186 192 190 180 164 162 140 122 136 162 
148 144 150 148 148 152 154 152 150 152 152 156 156 158 162 156 162 160 152 146 146 160 158 162 158 158 166 172 216 281 351 369 415 394 388 398 380 363 396 411 433 402 407 392 314 230 178 172 166 174 180 178 182 186 180 162 172 166 166 172 164 168 170 168 180 176 172 184 202 196 190 190 168 186 164 154 130 136 128 150 
144 154 154 140 156 144 164 178 152 156 148 154 148 164 158 160 164 156 140 148 146 168 160 162 156 166 156 202 334 345 367 374 388 378 386 394 411 402 452 454 452 425 342 237 160 148 152 180 190 180 184 182 188 186 180 164 166 158 162 168 172 148 154 168 170 184 176 192 188 176 188 198 188 176 170 158 154 148 160 162 
160 158 142 138 152 140 148 162 146 156 144 152 150 152 168 162 154 162 152 140 154 148 164 156 150 170 182 291 392 353 342 359 380 388 390 405 415 425 456 440 448 456 396 328 208 158 152 170 172 172 178 176 162 188 184 164 180 162 172 176 168 172 174 168 162 166 166 182 180 180 186 174 180 166 166 166 170 174 182 180 
146 150 146 156 148 154 148 158 152 150 144 158 154 154 162 162 164 158 154 160 166 158 166 156 148 168 208 347 378 382 361 334 330 361 390 413 413 427 438 419 440 471 452 429 367 237 200 198 204 186 192 204 208 222 222 228 212 220 224 220 192 202 184 176 152 170 164 182 182 186 182 180 176 192 192 176 180 162 198 222 
148 146 148 146 148 136 148 156 156 154 154 158 146 152 176 172 170 176 172 148 170 144 160 154 164 180 269 347 365 357 359 343 312 304 328 390 400 386 423 417 431 456 456 458 444 398 326 279 241 224 232 239 237 251 232 237 224 232 243 239 204 194 188 172 154 154 156 186 194 206 228 253 283 295 293 287 261 235 218 214 
140 138 148 146 152 142 142 154 154 146 156 162 144 156 154 198 287 343 345 318 336 293 196 166 164 218 338 349 367 353 369 328 320 298 320 324 324 271 324 340 376 423 436 462 460 425 396 353 287 261 269 259 245 243 243 257 267 275 257 253 226 216 200 190 180 170 178 196 212 241 283 300 336 357 353 340 340 312 308 312 
150 160 150 144 132 154 150 158 144 148 156 156 164 156 192 281 440 471 477 506 518 520 421 295 247 338 392 363 367 365 367 349 340 345 320 251 232 216 232 326 359 380 404 429 431 427 415 394 357 287 291 261 259 259 257 279 300 295 279 263 271 247 222 222 176 178 178 200 202 204 267 293 328 355 363 371 357 347 342 326 
146 150 142 146 140 144 166 160 150 150 150 160 162 160 233 394 502 493 533 562 520 523 523 495 464 460 456 369 355 342 345 336 349 316 224 184 178 182 224 269 298 353 365 388 405 421 402 404 369 328 289 291 271 269 265 277 296 300 289 277 271 265 235 220 206 194 188 166 156 168 243 265 302 334 376 369 376 353 343 338 
158 156 152 140 144 162 162 154 162 146 160 156 158 168 267 396 495 514 537 543 522 485 481 456 489 479 452 347 345 342 326 302 312 247 188 138 150 168 206 257 281 330 322 351 361 378 402 402 386 349 330 295 308 275 273 273 273 275 281 271 255 267 245 235 218 202 174 164 182 186 214 247 291 312 355 371 342 353 330 328 
156 152 150 158 150 156 170 168 164 156 154 152 176 176 247 380 464 487 543 535 495 448 464 436 475 467 440 320 322 316 287 263 233 202 182 104 88 122 230 267 277 285 304 322 324 328 345 374 374 380 357 336 310 283 241 265 277 281 275 269 273 243 249 226 214 226 216 200 212 206 214 255 259 287 322 318 293 263 241 251 
138 150 142 152 152 148 152 150 150 142 152 156 170 160 202 343 431 462 518 529 493 489 489 431 467 469 425 316 291 271 249 251 202 202 150 114 90 180 245 271 277 271 300 308 300 320 310 322 357 367 373 338 345 340 259 239 255 263 271 293 261 232 239 224 226 230 230 230 222 212 196 200 192 186 198 194 194 198 196 216 
156 156 158 158 146 146 160 160 144 150 162 150 152 156 166 249 373 429 469 502 477 475 444 423 423 433 392 326 296 275 259 224 188 172 158 86 98 228 267 285 283 277 300 314 306 293 300 306 332 349 336 345 351 373 300 232 235 232 237 267 249 241 235 206 222 208 206 216 214 206 198 182 182 158 154 170 162 170 156 202 
160 152 144 152 152 162 166 164 152 156 156 156 164 166 166 176 210 218 241 275 320 316 265 228 253 353 382 363 322 281 251 222 184 166 108 80 100 172 265 255 283 263 291 310 306 298 283 300 365 343 343 334 361 361 287 245 245 218 224 230 224 214 202 204 194 200 200 214 204 194 186 184 162 166 172 158 168 168 164 190 
164 164 156 154 154 152 152 152 158 158 162 154 170 160 166 158 150 172 166 146 178 166 166 168 178 281 349 351 316 283 279 232 220 176 108 88 100 132 239 259 281 283 259 281 291 279 291 320 347 359 374 349 347 378 330 277 257 243 235 212 220 202 210 208 216 214 200 214 204 178 192 178 176 174 182 176 176 164 170 192 
160 164 158 154 168 168 176 162 174 156 146 164 160 162 162 162 162 168 152 148 152 146 146 148 146 279 343 332 316 285 285 283 247 174 114 108 132 136 241 251 279 275 243 265 295 308 320 310 338 349 349 342 378 413 394 351 253 233 200 220 204 228 216 232 220 232 200 220 206 190 194 230 251 251 279 283 259 245 206 218 
160 152 156 156 152 168 166 154 158 154 170 158 172 150 166 176 166 150 154 152 150 154 162 164 158 232 382 347 318 300 263 279 287 218 164 152 152 172 245 261 289 277 253 306 314 322 310 345 310 296 296 326 404 433 452 419 295 214 222 243 220 226 233 214 196 210 204 190 162 150 176 208 255 289 312 310 328 326 312 295 
156 156 152 162 144 168 158 156 148 152 156 154 164 170 156 158 158 150 144 148 148 144 148 148 154 218 382 376 316 287 259 251 277 243 212 182 176 182 271 275 312 310 302 343 343 347 342 338 281 265 285 263 302 390 409 349 259 232 239 233 230 233 216 210 202 204 172 134 124 138 176 218 257 275 326 342 342 359 357 349 
166 164 154 158 160 158 152 148 166 158 150 158 150 152 150 156 158 148 134 146 130 154 138 148 142 168 306 345 336 300 293 291 300 296 298 275 285 287 283 287 330 349 361 382 402 376 365 306 285 251 259 235 243 281 296 277 249 239 232 235 222 220 226 212 210 202 172 132 126 138 178 245 293 330 355 351 363 369 371 361 
158 140 144 138 136 142 164 164 156 140 144 172 146 152 144 150 176 162 138 146 126 142 132 138 130 138 210 318 320 306 322 300 302 293 324 367 417 361 332 338 376 396 405 425 415 398 334 283 239 226 245 233 251 259 267 271 253 232 235 233 245 245 214 226 202 198 188 156 152 152 204 249 314 334 349 338 343 342 330 342 
148 140 146 150 136 136 160 150 138 144 142 144 136 142 142 146 140 156 140 130 122 132 132 128 126 138 150 208 298 330 332 316 322 316 343 405 433 421 402 394 417 433 415 435 411 316 275 230 218 212 216 247 296 285 285 273 243 243 249 263 237 226 224 210 196 190 168 150 140 150 170 208 273 291 306 277 279 263 255 255 
126 142 134 126 126 136 144 140 128 144 142 132 136 148 144 150 152 132 128 110 120 112 120 122 104 132 132 118 152 224 295 320 347 336 369 429 433 440 438 413 423 440 413 392 283 184 148 184 184 186 178 208 261 291 295 283 263 261 259 249 226 206 206 212 192 172 156 126 144 120 134 136 146 172 176 196 190 186 178 180 
130 134 122 118 120 152 142 136 134 140 122 134 142 132 144 140 128 148 116 126 114 108 120 114 116 116 106 110 110 130 166 186 245 281 332 402 429 413 405 402 419 400 295 220 144 122 124 130 138 132 156 150 182 206 224 222 233 253 239 226 220 204 196 190 160 158 154 130 130 126 122 114 128 150 162 166 160 154 160 166 
144 140 136 124 122 136 112 142 136 128 120 124 138 118 114 136 140 124 122 112 98 118 108 110 118 100 100 110 108 112 132 144 158 154 206 259 273 259 281 310 367 281 150 164 128 120 130 144 126 136 130 110 122 134 138 144 152 160 186 180 162 168 150 144 136 122 116 120 116 100 118 106 134 146 154 170 150 156 158 178 


