P2
80 60
854
110 135 135 112 120 116 133 116 114 110 122 153 268 408 451 451 447 444 422 396 438 469 463 465 459 451 465 459 473 459 442 438 432 418 424 394 400 384 374 354 354 322 302 290 314 330 348 364 350 328 356 447 463 507 548 548 536 526 524 510 546 583 573 573 561 544 548 510 503 477 453 430 430 316 244 240 224 222 216 212 
112 135 112 139 118 108 116 135 116 116 137 194 404 501 497 483 481 430 384 406 481 481 485 469 479 479 479 477 477 467 440 430 432 422 428 428 406 402 382 364 340 332 296 288 302 312 330 336 350 336 358 430 446 514 538 556 532 518 516 526 505 524 565 567 569 567 528 516 509 481 449 428 412 318 244 254 236 222 206 200 
108 125 127 131 127 129 118 116 125 135 155 322 514 532 493 471 426 410 382 428 481 475 485 501 507 475 501 509 503 463 461 451 449 449 457 428 428 414 398 366 352 318 298 292 306 312 328 326 370 430 434 422 451 465 509 540 520 524 530 530 557 524 524 550 567 575 550 524 510 471 463 428 424 328 234 238 220 224 204 212 
114 129 145 143 133 139 137 157 159 169 222 449 542 536 497 455 410 378 370 440 505 503 509 516 497 485 495 497 522 493 473 451 465 493 499 447 463 453 428 396 368 316 308 298 322 312 334 336 348 374 402 394 426 442 455 501 503 501 512 528 520 475 489 510 557 571 559 534 518 491 463 444 434 332 226 228 212 196 198 206 
114 137 155 157 173 181 240 314 298 350 424 522 559 548 497 440 410 364 368 457 514 524 518 497 487 471 497 512 514 522 509 487 501 538 538 514 497 457 455 406 362 330 314 314 330 330 352 336 332 322 348 374 388 404 422 469 455 473 475 475 481 465 469 455 491 548 567 552 524 499 463 447 432 334 232 212 206 202 204 210 
125 169 254 320 334 370 455 509 540 594 575 561 577 532 477 406 398 366 376 440 561 550 522 512 493 471 493 518 542 552 534 518 536 559 583 565 530 471 453 438 388 338 304 320 336 336 364 362 334 308 322 366 382 400 422 446 457 469 455 469 477 467 471 471 449 479 536 544 528 495 467 447 436 350 234 218 210 198 204 214 
163 300 432 505 512 518 561 581 619 631 588 548 554 526 453 422 384 368 370 434 559 567 540 534 520 487 493 512 530 552 548 561 565 592 606 575 571 510 471 440 418 358 314 300 316 366 374 366 332 310 326 368 400 418 428 499 457 463 457 446 457 477 485 469 453 451 459 481 512 493 463 467 428 350 228 222 190 194 190 222 
250 404 483 510 540 538 565 587 606 660 641 567 561 544 471 447 394 374 370 382 509 575 557 522 524 520 526 528 542 554 563 573 594 600 614 602 600 528 493 451 418 380 312 296 302 352 364 356 336 310 332 386 434 447 449 493 510 483 457 438 436 451 459 438 444 432 422 410 438 449 453 446 436 374 228 230 196 204 194 212 
310 422 442 465 514 536 575 606 647 709 703 554 530 520 493 483 469 430 410 404 440 524 514 503 524 528 520 507 532 556 577 573 602 633 623 616 606 563 524 485 430 386 322 304 306 330 336 342 334 314 330 370 436 440 455 487 505 499 475 447 432 438 453 444 428 426 404 396 400 388 406 414 422 370 238 214 200 208 187 208 
316 457 483 503 524 548 565 625 672 724 739 681 509 451 471 489 499 507 503 509 534 509 514 518 528 522 516 497 520 538 581 590 625 621 618 608 579 567 526 493 447 374 324 304 312 330 328 342 340 332 320 360 428 434 447 473 493 485 481 457 442 428 408 400 410 384 394 370 398 388 372 378 404 358 234 228 200 198 190 192 
304 426 487 556 557 556 610 676 629 681 680 689 681 532 384 390 416 471 503 522 507 503 510 524 518 509 481 483 461 483 534 596 614 618 610 588 573 546 534 499 455 402 340 300 306 342 318 324 330 320 316 360 416 432 442 451 467 475 463 430 440 428 414 412 400 390 400 376 412 455 412 447 406 358 234 216 190 192 183 185 
270 370 493 534 557 608 695 732 714 707 724 724 711 666 546 362 284 300 304 316 368 432 451 499 514 487 442 426 434 449 475 556 602 616 616 604 579 538 530 491 440 396 346 320 308 310 310 308 306 294 294 328 386 412 420 428 430 416 422 404 390 384 390 398 386 406 449 436 463 461 447 449 430 368 208 200 183 185 161 187 
240 334 424 465 563 633 693 712 711 707 705 703 701 687 652 546 238 159 141 127 147 151 181 260 364 384 312 250 302 340 360 440 567 592 612 600 575 509 501 485 416 376 336 328 302 298 288 286 284 272 280 280 294 318 330 334 300 304 326 350 340 348 326 322 358 360 392 392 402 390 380 386 420 392 185 175 165 155 143 137 
175 294 350 396 516 623 678 736 716 711 693 685 670 670 633 538 179 108 114 108 96 110 96 92 112 116 96 106 112 127 141 177 404 567 602 598 575 483 455 406 374 324 304 286 266 256 262 250 254 252 248 240 224 218 198 192 169 141 159 200 214 185 157 141 179 216 244 282 300 320 334 390 400 360 147 147 135 143 131 131 
133 214 300 366 449 610 720 718 664 670 672 664 625 600 518 382 139 92 94 88 88 96 84 88 78 66 80 98 98 110 114 161 342 538 583 587 563 449 248 173 151 116 114 120 129 139 157 145 173 171 171 167 181 155 139 151 141 149 133 137 122 102 98 76 94 92 110 84 120 137 147 185 234 206 118 133 120 112 120 131 
110 167 208 292 362 575 660 631 600 590 612 588 420 264 214 127 92 84 100 96 94 88 84 80 66 72 70 88 94 129 194 350 510 534 540 534 550 449 302 141 108 100 80 76 104 108 110 125 135 129 143 155 147 139 147 139 133 141 129 112 98 90 82 57 76 74 68 66 92 51 62 80 68 78 116 122 104 122 114 110 
114 112 155 181 288 372 398 378 328 272 372 356 179 118 86 98 102 84 84 66 82 90 82 74 70 76 76 92 143 282 457 528 530 509 518 499 503 459 380 196 135 88 74 98 80 108 118 116 125 135 147 147 153 151 141 145 131 131 131 106 90 96 82 62 82 80 66 74 70 53 60 55 82 76 88 116 110 114 114 114 
100 106 106 112 163 187 165 169 139 131 120 116 102 86 86 80 94 80 88 82 94 68 76 70 66 70 82 137 300 440 509 510 536 485 434 463 491 465 440 324 244 196 96 80 76 82 100 116 139 131 125 131 145 133 139 139 118 122 120 100 96 88 84 60 66 60 80 49 57 55 45 47 64 82 80 104 104 122 108 104 
96 125 122 116 114 104 104 108 94 102 104 94 92 94 80 86 86 78 96 72 94 66 76 80 80 70 86 246 326 386 495 546 546 432 372 328 489 489 465 398 352 328 161 74 90 78 98 122 131 131 122 137 133 131 129 127 125 131 120 108 94 86 80 62 72 66 62 57 57 62 57 53 68 94 88 110 108 127 116 116 
100 116 116 106 106 110 102 108 102 86 86 92 86 88 70 74 80 82 98 72 86 76 78 82 76 64 90 139 200 384 501 507 457 418 268 200 477 509 509 453 400 358 212 98 84 80 104 104 114 125 135 141 129 127 120 118 118 120 110 94 84 76 70 53 80 60 57 57 57 43 66 60 37 88 78 104 102 112 108 120 
92 116 106 108 108 108 92 108 98 86 82 84 94 80 74 57 84 74 84 80 82 90 80 76 70 70 70 116 298 440 449 426 400 280 149 137 374 503 495 465 402 352 183 64 72 68 90 100 100 125 125 129 135 127 120 133 118 120 100 88 86 78 90 76 55 51 45 39 47 35 27 41 47 74 70 98 102 94 92 88 
94 125 104 94 100 92 92 92 92 88 80 84 90 86 74 74 66 72 80 70 78 80 78 72 66 55 86 187 378 384 392 346 220 96 84 102 226 338 447 453 374 222 74 49 41 60 76 74 84 86 96 108 108 92 92 102 88 90 82 68 51 55 45 45 45 31 31 23 29 25 11 19 49 55 70 94 86 86 74 86 
84 108 106 104 92 92 100 100 90 90 88 90 94 78 70 64 76 72 80 80 66 86 66 86 57 66 84 276 310 378 266 149 84 74 68 72 116 131 222 216 230 122 47 29 41 51 64 78 72 80 96 106 106 104 104 104 86 98 74 68 57 45 37 43 45 37 43 17 19 23 0 17 49 74 62 96 90 108 86 100 
98 104 98 96 98 90 94 88 98 96 86 90 98 84 78 55 72 76 76 70 74 82 62 68 60 64 80 151 230 262 108 72 92 66 66 74 80 74 78 167 129 90 41 39 37 49 70 70 74 76 94 100 106 96 90 92 94 94 76 76 66 45 45 55 41 27 31 11 21 21 17 19 55 78 60 90 84 98 88 94 
86 120 116 116 104 96 98 102 82 88 90 86 94 78 72 72 74 74 82 74 84 84 74 82 66 72 64 68 98 80 74 74 98 66 72 66 84 51 55 43 55 53 43 45 45 53 68 76 72 72 90 98 96 88 100 100 94 82 82 74 64 60 55 41 39 35 43 33 29 6 11 27 78 106 94 94 92 102 74 84 
84 120 94 90 94 98 96 96 94 90 84 88 92 88 70 55 80 72 80 76 84 76 76 76 68 64 74 55 68 60 55 66 74 55 53 62 66 57 60 53 47 43 39 43 31 47 64 62 68 74 90 96 104 104 106 94 88 84 82 57 53 47 41 41 43 23 37 19 29 31 41 120 200 248 106 100 80 98 80 98 
110 112 98 100 94 86 92 82 80 82 80 88 94 68 76 72 80 64 78 76 72 84 76 78 57 53 62 60 55 57 62 66 74 62 68 66 68 51 57 47 43 37 45 41 55 45 66 70 78 84 102 96 108 94 96 100 88 98 72 62 60 41 55 53 49 51 66 90 125 181 230 312 370 402 179 110 94 90 86 88 
98 110 106 86 98 88 82 96 84 84 84 76 90 80 60 60 70 78 72 62 72 74 62 66 62 64 55 62 57 62 60 66 70 64 66 76 60 64 55 41 39 39 43 37 39 55 66 70 78 84 92 96 108 100 94 102 96 100 70 68 57 62 66 68 84 127 204 228 260 304 308 358 398 406 198 106 88 104 86 94 
100 104 98 96 92 100 84 88 76 80 90 76 88 72 68 62 82 78 70 68 66 70 64 74 68 53 57 60 60 62 64 74 70 55 57 60 92 51 47 37 49 53 53 47 43 57 64 68 76 94 88 98 102 98 88 104 104 106 92 74 94 92 96 143 222 242 282 286 292 304 332 368 390 410 194 110 94 98 102 82 
86 104 102 104 102 88 84 82 88 90 82 84 96 82 68 68 74 64 78 64 76 72 72 68 55 60 49 66 66 62 70 53 64 68 60 57 64 60 57 64 49 49 43 53 62 62 78 74 72 86 96 106 110 94 102 102 100 96 98 181 224 224 252 282 286 280 296 296 298 312 352 378 410 424 181 112 100 90 96 90 
88 96 96 94 96 92 78 80 80 86 78 90 80 74 66 62 78 76 88 74 74 74 82 72 62 57 60 60 66 68 62 55 66 70 60 47 68 62 53 51 72 94 159 167 125 68 74 78 80 84 100 116 104 108 100 114 98 98 177 256 268 284 294 292 292 294 296 292 302 326 368 368 406 416 179 114 112 98 98 82 
102 127 86 106 100 80 88 90 86 86 80 76 98 78 66 68 86 55 78 74 84 78 76 72 64 70 70 60 72 64 72 74 86 72 68 66 74 82 94 104 198 362 477 509 426 139 86 76 82 86 96 114 112 110 106 114 131 173 274 288 300 296 298 298 294 300 288 284 314 354 356 380 392 400 190 122 114 112 88 96 
86 118 96 100 100 92 88 88 92 86 90 76 90 80 70 60 74 74 78 66 80 70 80 70 64 68 64 66 57 60 68 68 86 74 72 74 110 192 324 398 473 507 532 538 522 328 100 98 82 92 108 116 118 116 143 220 278 290 312 314 316 296 298 298 302 298 278 286 338 378 360 372 386 388 194 125 116 122 110 88 
94 116 92 90 86 104 92 94 92 92 76 82 88 84 57 66 78 78 78 70 80 78 74 60 64 62 57 76 82 163 133 96 125 171 198 165 334 444 467 503 554 534 532 550 520 436 125 90 94 112 145 190 260 274 306 336 326 304 312 334 326 298 308 300 294 286 278 294 336 344 344 364 378 366 216 179 139 139 125 118 
98 92 94 100 82 92 72 88 100 98 82 82 96 80 76 60 72 72 78 78 84 74 60 72 74 64 74 78 80 244 320 143 388 526 510 489 509 524 514 538 563 587 594 579 540 390 173 206 266 316 354 358 354 338 324 296 290 300 314 372 356 360 340 308 318 286 304 312 354 332 336 364 370 342 232 214 206 204 179 165 
100 106 98 96 96 92 96 86 94 98 98 86 96 68 68 57 74 64 84 74 78 70 64 74 64 62 72 72 82 204 463 380 573 598 602 567 544 516 520 596 619 614 604 587 561 457 424 418 414 402 394 372 360 338 316 302 288 282 314 382 406 412 368 340 324 318 316 346 386 360 372 352 238 169 181 222 206 222 210 218 
100 104 100 96 100 92 94 90 102 92 88 96 96 74 64 70 68 76 76 74 86 78 78 76 66 57 62 80 92 155 396 577 594 606 618 596 546 489 479 557 649 625 602 596 587 481 469 446 444 420 412 394 358 346 312 298 286 286 294 390 477 453 372 350 330 326 338 382 418 414 356 210 98 102 163 222 218 230 236 234 
90 116 100 100 92 94 92 90 96 102 88 92 96 74 76 70 84 76 78 84 88 78 90 76 66 64 78 78 92 228 530 602 598 619 639 631 577 528 485 592 633 598 571 583 573 499 485 473 453 449 440 410 392 344 334 312 288 282 286 414 473 414 382 346 336 336 366 392 432 402 254 157 110 110 200 228 236 250 232 240 
104 108 94 94 82 98 90 108 94 92 102 90 102 94 70 72 90 68 94 94 94 90 90 86 84 94 74 94 108 374 571 598 616 623 641 627 619 577 507 550 503 475 483 516 512 501 491 481 479 465 457 440 408 376 352 322 298 284 276 364 372 350 336 320 314 340 370 382 392 394 368 340 310 254 226 248 242 254 252 246 
102 122 96 100 92 78 88 104 92 112 104 94 88 78 88 76 94 84 108 96 129 141 151 135 137 153 187 120 129 418 495 594 594 596 631 633 633 567 526 483 434 436 467 493 499 505 501 483 465 459 457 438 416 388 358 342 308 284 272 350 340 342 346 334 356 348 386 410 426 434 434 418 422 404 266 252 250 250 234 244 
88 122 114 102 96 104 100 86 92 94 100 92 90 92 84 96 120 147 183 256 398 499 493 467 485 548 516 284 206 348 430 510 546 516 451 493 635 546 518 540 465 451 477 485 489 493 477 469 449 453 457 442 412 382 360 346 320 288 286 362 368 376 364 386 372 388 412 420 426 438 442 440 449 432 270 250 252 254 240 244 
102 102 96 96 110 86 90 92 98 106 90 90 90 98 84 116 236 410 528 614 647 685 674 621 676 687 623 510 418 522 557 526 459 394 370 398 556 554 516 505 487 487 479 471 487 489 465 434 444 453 446 451 422 384 340 314 302 296 272 366 376 368 384 392 370 384 390 406 404 426 432 432 434 422 266 260 244 258 248 264 
118 114 106 90 106 92 90 90 92 102 92 92 106 94 100 169 364 575 645 639 714 711 711 720 736 728 699 641 619 658 643 596 479 438 489 524 569 518 495 479 483 481 481 469 481 489 475 457 459 473 485 475 446 392 346 332 318 302 314 376 372 366 394 384 378 378 408 396 404 384 392 388 398 412 272 270 248 268 252 258 
114 108 116 110 110 118 96 90 110 100 114 90 110 90 112 256 477 621 627 643 691 658 695 724 724 716 695 693 707 693 602 463 481 552 556 512 509 493 526 548 534 495 451 459 505 505 467 469 501 503 499 489 459 402 372 376 350 316 342 374 356 386 384 396 384 392 406 398 380 368 388 368 382 384 274 270 260 264 270 256 
114 120 102 112 112 100 88 104 110 112 122 106 118 96 120 268 479 629 687 718 697 658 697 701 701 685 709 728 730 707 575 428 526 588 563 477 455 469 499 481 455 457 449 434 491 518 479 477 497 495 483 483 447 400 398 390 360 322 348 368 352 368 362 368 388 378 388 370 358 354 364 350 348 354 272 266 264 266 256 262 
110 127 106 120 104 118 94 104 104 106 108 94 104 94 125 268 416 569 678 728 703 672 697 714 707 699 741 751 741 683 509 447 556 588 556 528 481 447 408 394 370 364 372 424 475 556 485 479 497 487 479 465 422 408 390 406 360 326 362 352 332 340 354 358 368 356 366 340 342 330 334 322 330 314 246 262 264 256 250 258 
100 112 114 125 108 125 110 106 110 98 118 102 122 102 114 208 346 461 608 695 707 705 705 714 716 693 737 758 720 633 386 400 563 567 546 528 501 440 392 362 370 348 344 400 428 567 550 465 471 485 465 447 436 426 372 394 336 314 370 352 316 320 342 354 356 360 340 320 330 314 306 314 314 316 262 266 242 250 260 254 
112 125 112 125 135 133 125 131 120 127 133 125 118 112 100 161 274 340 501 641 676 722 741 705 747 724 737 718 703 507 328 416 559 552 550 522 483 412 344 314 334 346 370 451 495 583 577 522 453 467 457 453 444 424 370 356 332 332 350 336 310 316 314 322 320 320 308 300 294 296 290 290 288 290 256 266 254 248 242 250 
127 133 147 202 294 318 292 192 151 196 282 165 137 114 104 120 228 286 410 565 627 664 660 631 695 674 635 594 579 378 402 546 583 554 524 512 436 398 388 340 316 328 372 473 561 647 606 569 485 455 451 442 418 392 344 336 352 348 320 304 284 274 272 256 260 272 266 254 240 250 250 238 234 232 236 276 246 258 234 244 
131 181 262 449 627 687 664 538 422 542 647 491 346 278 145 116 161 270 390 509 559 528 530 573 571 493 334 244 324 382 522 608 614 567 534 479 398 368 376 366 358 352 358 516 635 662 616 600 518 410 394 384 362 346 314 320 332 310 292 268 246 240 214 216 214 196 194 163 173 175 181 200 206 214 222 222 232 244 224 258 
175 372 509 658 760 764 762 747 718 753 777 739 689 631 402 177 167 272 350 394 424 394 408 382 310 183 122 129 167 268 520 623 606 526 507 446 410 384 380 410 394 382 376 487 507 542 516 487 434 354 340 354 344 308 302 284 262 260 228 177 155 155 143 139 135 129 135 125 120 153 165 192 196 208 198 216 210 212 202 246 
302 503 575 637 720 743 768 800 802 797 806 789 779 707 540 432 422 438 440 398 338 310 246 202 157 163 163 190 208 264 451 532 540 516 505 428 449 495 436 404 426 390 404 512 477 465 436 378 356 342 370 386 312 278 318 276 272 310 294 238 171 169 133 135 141 145 139 131 145 194 208 242 262 242 192 218 224 218 198 234 
430 550 594 691 777 757 766 795 812 812 806 774 683 600 540 497 481 444 436 408 386 378 366 342 316 320 342 360 364 384 424 455 465 469 451 398 434 487 467 398 426 402 424 524 465 426 426 410 364 408 477 465 416 350 370 370 362 366 364 362 338 318 276 252 274 264 264 266 234 346 384 390 334 224 208 226 244 230 226 218 
512 538 532 618 672 687 798 842 852 854 819 687 623 588 552 516 516 457 442 406 392 372 370 350 346 324 334 332 348 340 352 386 394 426 459 444 412 457 469 440 420 416 447 512 447 420 453 424 400 505 538 510 438 436 455 440 412 396 394 404 372 376 398 394 400 384 390 374 394 428 467 420 334 262 242 250 252 264 256 234 
530 528 548 660 734 793 829 821 840 846 779 610 600 585 565 546 542 497 463 440 410 398 372 374 334 332 326 308 312 310 310 320 346 350 408 424 414 434 465 449 412 430 446 479 398 420 459 394 438 534 534 509 467 518 489 447 436 424 408 398 400 418 440 440 418 424 418 408 414 424 424 426 328 278 272 272 270 272 254 242 
528 554 528 606 751 743 806 818 787 802 709 581 594 577 544 520 510 495 473 442 434 418 406 388 388 376 368 344 336 318 324 320 340 360 374 420 434 434 453 469 444 432 451 449 400 440 436 408 509 546 530 510 481 556 503 461 440 430 416 384 398 430 420 418 406 430 447 442 416 396 406 394 334 296 308 292 260 260 258 250 
548 530 487 516 548 612 724 804 819 798 637 561 587 577 548 518 483 457 440 416 416 432 428 426 430 422 412 418 398 378 354 338 348 356 392 378 422 438 444 477 449 436 438 428 400 442 428 418 546 540 522 509 495 571 495 475 444 446 428 408 410 420 426 422 428 434 449 442 396 384 378 392 322 292 306 302 274 278 264 268 
495 530 510 524 538 522 588 757 821 789 610 550 604 569 544 528 514 453 434 412 400 402 410 408 436 444 471 451 444 449 422 406 414 384 396 420 406 440 449 473 449 430 430 424 414 451 436 438 554 534 507 501 507 561 485 467 451 449 428 444 440 447 447 459 457 440 453 440 404 386 384 394 316 300 316 296 266 266 268 272 
493 512 510 510 485 459 514 687 795 743 577 520 598 598 571 548 509 469 444 424 406 396 386 388 398 384 420 438 446 463 453 461 481 457 430 424 430 418 463 481 455 406 410 414 406 434 430 459 546 514 507 514 518 575 493 469 471 455 449 473 481 459 461 469 493 489 465 447 444 418 422 392 318 310 322 314 270 262 258 274 
366 461 497 481 473 467 475 579 755 728 544 493 556 623 579 556 540 497 451 416 434 412 410 402 398 374 404 402 386 406 418 444 473 463 461 447 455 447 463 477 447 424 412 398 408 406 398 438 526 495 491 499 530 600 528 489 479 483 467 485 479 442 447 477 485 485 479 451 428 410 404 374 284 318 312 312 268 264 254 278 


