P2
80 60
493
44 72 30 46 46 52 52 56 78 74 78 68 60 56 48 66 58 50 50 34 30 40 30 38 40 36 36 38 30 36 26 34 34 40 50 68 66 54 68 50 26 18 8 12 28 40 34 42 48 48 30 34 26 40 42 36 26 42 46 58 94 74 96 76 84 86 82 94 80 80 96 86 64 70 66 54 64 50 78 102 
26 56 40 46 36 42 44 56 52 68 74 74 50 52 50 64 62 52 34 36 42 26 32 18 16 14 18 26 14 24 20 34 46 48 76 102 96 94 90 60 18 14 30 16 36 32 46 46 58 54 40 34 16 30 40 32 26 44 52 50 58 66 74 68 82 80 86 74 88 90 74 70 60 52 54 42 40 52 60 96 
26 50 38 54 54 48 52 62 62 76 62 40 56 58 54 48 44 42 34 38 34 46 30 32 22 12 28 34 22 42 42 66 104 178 263 287 324 320 269 148 46 36 36 30 62 58 50 68 70 76 68 54 48 66 54 52 44 44 48 56 64 60 64 64 70 82 78 70 78 86 80 92 60 66 74 60 56 60 72 88 
24 48 30 40 52 46 56 60 58 50 56 54 56 52 52 40 36 48 40 34 30 38 38 38 32 30 26 42 44 78 116 190 220 352 412 416 421 427 373 220 62 52 56 64 82 88 100 108 122 142 172 134 110 102 96 80 62 68 80 74 76 82 84 82 78 88 88 98 84 94 126 108 110 102 120 90 112 96 92 108 
16 44 40 42 42 50 48 56 54 56 72 42 60 52 52 54 58 64 34 46 32 42 24 44 38 42 36 66 112 226 279 291 281 414 427 439 466 449 414 287 102 100 112 140 176 208 206 214 220 208 232 226 242 230 210 174 128 128 118 100 104 102 130 118 120 120 110 136 150 172 182 206 210 236 236 242 224 190 210 216 
34 42 52 50 52 46 56 48 56 76 72 74 62 66 68 72 60 62 52 58 46 44 40 48 46 60 64 130 285 363 358 348 295 418 476 458 485 476 462 385 248 281 244 244 261 263 257 238 226 246 253 251 226 212 218 194 174 180 158 170 160 174 168 174 170 180 180 194 202 202 214 238 234 249 263 265 275 257 263 255 
22 54 46 56 54 66 62 68 64 60 54 76 64 58 68 62 54 68 46 72 70 40 50 42 52 46 70 212 354 379 383 387 354 392 478 454 483 487 482 423 358 332 263 251 287 263 222 216 230 297 279 265 279 236 222 196 182 166 162 170 168 158 164 166 168 174 170 172 192 190 192 214 216 244 242 251 273 281 271 271 
20 38 46 40 52 62 60 70 64 80 54 60 68 70 52 66 54 66 48 58 72 54 52 42 40 80 94 232 336 358 336 328 363 392 412 410 466 474 482 423 389 338 271 285 277 259 206 214 226 330 336 277 230 240 244 240 218 196 186 190 186 180 178 178 192 184 174 154 158 156 194 212 238 255 261 271 285 277 303 277 
30 52 66 46 56 62 52 62 60 56 70 70 80 64 56 68 64 50 52 52 62 56 56 56 46 52 86 186 352 363 324 285 348 383 379 385 462 482 478 416 385 350 289 248 257 248 194 202 224 301 285 232 242 253 253 263 236 210 208 196 182 198 204 210 204 198 172 164 166 158 178 194 232 248 261 265 267 251 248 257 
36 44 50 50 50 68 60 68 46 70 62 64 68 68 64 66 56 56 64 56 64 70 60 70 74 78 100 164 342 400 377 369 394 379 361 363 421 472 478 400 358 344 303 230 236 240 206 178 192 240 240 259 261 246 259 265 224 218 214 202 198 212 210 206 224 218 214 194 196 166 190 214 255 267 244 251 234 220 214 222 
26 48 50 54 52 58 50 66 58 64 60 66 64 60 66 62 68 66 72 72 92 98 128 130 108 108 128 222 318 404 389 369 406 377 356 363 423 437 462 383 361 334 287 226 216 230 200 190 174 224 246 246 279 259 246 248 238 236 240 228 222 234 242 228 224 232 202 160 172 222 251 273 285 279 269 240 224 210 214 182 
32 42 50 40 56 76 52 64 50 52 62 70 48 56 64 64 72 60 76 166 244 311 350 394 299 263 255 295 322 400 404 398 402 369 348 346 416 425 433 383 367 336 255 228 220 226 188 188 174 198 232 230 234 228 206 212 220 240 261 269 267 275 275 283 273 295 267 293 267 277 267 287 271 275 248 218 212 180 148 140 
26 46 42 36 50 60 52 80 52 48 58 64 64 58 40 54 70 64 116 287 385 420 458 470 443 433 449 460 420 365 394 406 400 363 336 350 418 412 387 365 352 330 285 248 224 212 198 172 160 182 255 242 218 210 200 206 210 244 261 285 293 303 326 336 332 330 318 312 279 269 279 287 263 244 226 192 166 152 108 132 
30 56 46 46 38 54 50 66 60 54 60 60 58 58 54 50 70 72 196 338 423 421 470 460 474 456 478 493 437 322 369 365 371 326 318 346 392 371 352 348 348 320 281 248 224 216 178 184 166 152 234 251 222 208 188 204 228 271 312 301 301 309 326 314 330 320 318 312 291 267 253 244 226 212 176 122 132 104 98 130 
22 44 42 44 50 60 60 56 52 54 64 46 40 48 52 58 62 82 180 348 406 398 462 423 389 423 441 447 454 373 326 301 305 283 314 344 396 367 332 338 342 312 273 255 242 204 202 188 160 146 182 228 208 198 198 204 255 297 342 348 340 324 322 332 328 340 318 311 291 255 249 208 174 156 142 106 118 84 106 130 
46 60 38 50 38 74 48 62 62 62 62 54 58 60 54 52 62 76 180 277 416 394 427 396 392 427 427 373 373 358 352 344 332 305 303 316 394 373 363 338 316 316 271 265 261 228 216 200 172 156 158 204 206 212 188 216 279 305 354 336 346 340 316 324 328 338 328 336 303 248 216 194 148 148 134 114 96 90 102 114 
32 56 50 42 48 42 50 58 54 62 72 58 60 52 62 50 66 72 128 244 359 425 429 451 451 420 273 188 198 238 359 383 387 356 338 316 379 390 392 348 322 346 318 273 265 248 230 206 190 156 130 198 218 220 210 246 295 311 354 346 330 340 324 326 305 297 297 295 275 218 162 164 148 130 116 94 98 94 102 124 
22 52 30 26 46 54 52 54 58 66 48 56 62 58 64 58 68 70 94 210 281 340 340 307 242 166 124 128 130 176 293 359 404 416 379 342 358 369 379 354 346 346 371 326 291 269 236 246 222 190 168 198 249 248 267 263 305 303 324 307 265 297 259 267 234 224 210 214 200 170 160 152 136 132 110 104 106 98 106 142 
30 70 42 52 46 54 56 54 60 58 68 66 50 60 78 54 66 64 74 104 124 136 124 90 130 94 94 102 118 128 206 344 358 387 373 367 342 307 322 307 340 365 361 365 356 356 334 340 318 301 238 224 265 287 297 309 281 322 289 232 176 176 168 142 174 148 146 162 132 144 144 150 130 128 116 110 120 114 114 128 
28 50 40 62 68 58 50 64 62 54 66 60 58 58 64 72 58 66 68 74 70 86 84 80 86 100 88 108 104 112 122 255 338 328 330 322 314 285 301 301 301 316 312 322 352 373 369 389 369 369 318 275 257 269 224 202 182 178 178 164 166 164 136 104 134 136 132 140 154 142 140 148 148 178 156 152 134 124 140 164 
26 56 48 50 62 58 42 72 46 50 68 56 60 74 58 70 72 76 52 66 64 64 88 82 92 90 76 96 86 102 112 152 269 287 277 267 253 263 279 281 271 297 307 326 309 332 320 330 305 232 212 200 188 174 144 152 168 210 242 234 220 178 136 118 116 106 112 122 154 166 188 198 204 234 249 230 228 206 202 210 
20 64 46 44 50 42 62 68 54 46 62 52 70 66 62 64 62 64 66 72 66 68 66 74 82 76 104 98 76 98 102 184 311 312 285 273 251 232 212 178 228 251 246 208 236 307 328 336 346 289 222 182 176 178 168 196 220 212 224 222 208 178 162 154 162 154 152 168 210 212 228 226 222 249 257 246 248 255 257 289 
40 50 54 68 60 50 58 70 52 58 66 62 64 56 62 64 62 76 56 60 64 76 72 88 88 110 98 104 92 98 118 222 291 311 289 352 359 259 168 104 74 106 192 220 230 285 318 322 305 307 332 265 242 202 192 192 188 200 202 212 182 186 174 182 200 194 190 202 220 226 216 198 192 208 220 216 230 230 238 265 
34 54 58 56 52 58 38 54 68 56 60 72 54 70 60 60 64 72 60 72 72 78 138 122 144 192 178 120 102 114 152 277 283 301 314 383 346 226 130 58 62 120 188 156 196 226 269 297 301 316 363 363 359 342 206 172 202 206 212 206 186 184 184 210 222 218 210 218 238 238 202 184 180 214 216 230 230 230 232 246 
22 58 60 68 58 62 64 76 60 62 62 62 62 70 60 52 78 58 56 74 86 162 234 249 287 394 373 318 202 188 186 279 275 277 293 314 267 188 86 18 58 94 146 128 166 164 194 238 263 295 367 381 389 385 299 232 236 222 232 226 202 212 206 232 257 261 248 249 265 230 198 196 190 194 188 190 192 172 162 184 
38 62 42 58 54 54 66 58 60 64 72 58 64 62 70 50 70 64 44 90 146 226 281 320 404 454 466 439 354 367 316 277 269 305 271 232 208 140 46 4 50 102 140 134 168 138 142 182 208 279 352 373 383 412 340 301 230 206 186 154 160 206 248 275 295 285 263 246 220 196 158 174 152 146 132 124 128 122 128 154 
28 54 60 42 32 46 56 64 56 50 52 48 66 62 64 66 64 76 56 76 182 283 299 389 449 460 458 460 358 363 350 259 283 314 261 194 154 90 36 68 62 88 126 142 144 124 116 154 192 216 318 381 381 394 377 330 244 194 130 132 186 249 273 285 283 271 208 176 170 154 150 148 138 140 124 118 96 100 108 126 
30 50 40 48 48 32 44 56 54 44 60 60 54 58 52 40 50 60 44 74 192 299 354 427 439 429 414 429 354 350 334 285 316 328 265 208 150 84 72 48 58 102 128 138 128 104 94 130 180 186 259 363 381 404 367 322 255 178 144 168 246 261 253 224 202 152 132 136 150 166 156 142 128 112 128 100 98 90 92 122 
20 60 44 46 46 50 50 52 54 56 64 62 42 54 58 54 52 60 52 82 206 303 375 429 423 447 421 429 354 367 330 295 309 324 269 218 218 156 114 64 86 124 136 130 114 92 110 160 204 218 350 367 390 404 369 348 238 202 180 192 242 228 204 178 148 126 130 150 148 164 158 130 134 108 104 78 86 82 96 80 
34 56 62 62 50 44 46 56 70 54 78 48 44 50 50 40 50 66 52 72 190 301 305 314 367 427 449 425 320 299 326 285 307 293 265 259 255 200 152 124 120 106 156 132 96 66 120 176 232 285 342 367 377 385 338 289 232 192 182 174 212 210 188 202 206 164 144 128 160 156 142 146 122 104 80 76 102 76 96 102 
32 52 54 48 58 50 46 58 56 66 68 46 64 56 52 50 70 56 48 80 108 152 182 192 202 246 214 152 126 136 301 271 281 273 275 246 275 236 212 168 108 94 142 122 114 88 148 208 283 309 324 356 338 267 206 226 210 194 184 186 194 200 196 202 230 234 202 214 198 174 156 136 126 102 78 72 82 90 86 90 
36 62 44 44 46 44 56 58 58 52 72 56 48 58 70 66 54 66 54 68 76 90 100 84 86 96 86 92 84 116 234 279 263 210 255 246 257 257 224 174 94 100 128 132 134 166 184 265 301 305 293 234 174 174 192 170 178 172 198 166 190 186 196 206 230 232 228 216 212 224 182 156 134 106 98 84 84 72 86 96 
30 58 44 56 54 42 58 64 52 56 62 62 54 74 66 58 64 62 60 58 66 62 76 84 62 80 74 94 92 100 176 279 246 208 222 220 244 249 232 186 130 104 156 180 186 246 269 295 291 269 232 160 128 154 164 164 164 148 182 178 192 186 198 200 232 210 224 238 224 234 242 194 186 190 160 146 144 116 120 140 
36 70 58 48 54 62 72 60 58 70 60 58 70 70 58 60 72 64 58 52 72 68 68 68 84 74 62 96 94 106 146 259 253 208 146 144 214 226 230 190 180 196 212 246 287 285 293 299 289 240 200 130 124 136 148 154 154 166 158 172 188 182 184 194 196 192 200 226 232 218 224 212 204 204 194 204 222 210 234 244 
28 50 52 56 52 50 56 62 66 54 70 62 82 70 64 64 74 64 66 54 60 70 72 68 64 66 62 80 86 92 118 248 248 214 174 182 196 232 208 283 291 271 279 281 312 311 301 307 271 253 182 160 144 134 164 150 142 146 160 144 160 170 160 178 194 196 186 210 220 232 212 222 210 216 216 214 228 222 253 273 
20 50 50 54 46 66 60 56 60 76 64 70 74 62 58 62 84 68 56 58 70 62 64 74 74 74 70 76 80 80 110 174 255 259 275 283 263 212 226 318 320 303 305 314 318 309 297 244 242 206 158 142 138 148 144 146 150 140 146 142 136 130 150 152 190 186 198 184 186 208 230 216 212 214 230 238 249 236 244 267 
24 42 52 48 46 66 68 48 72 68 76 74 68 68 54 78 64 64 56 56 68 60 74 66 54 74 70 76 74 76 102 114 174 249 307 328 324 259 314 348 338 309 307 318 324 275 144 118 140 136 132 134 132 124 142 122 116 122 144 158 148 140 132 136 170 178 176 162 140 172 150 180 188 208 222 224 234 202 212 218 
38 64 50 66 44 52 60 52 66 56 70 64 50 76 64 62 70 66 60 58 66 62 64 78 76 68 68 74 80 86 94 94 104 144 242 311 312 285 277 324 311 297 303 287 238 106 96 102 114 106 118 112 112 118 118 122 110 94 102 130 126 124 112 102 134 162 116 140 132 134 150 142 136 152 134 138 132 122 124 174 
46 64 48 52 48 46 74 58 56 60 68 60 68 76 58 74 74 60 64 52 70 72 72 76 74 82 58 76 66 90 96 94 108 130 148 194 253 261 259 198 132 132 138 136 76 80 78 100 102 118 112 102 110 120 112 104 82 76 82 90 88 72 84 108 96 112 108 122 120 122 134 130 124 116 118 102 122 112 142 152 
32 78 58 66 56 68 62 64 64 72 52 52 44 56 60 54 74 62 60 64 76 60 66 64 66 78 76 82 82 82 106 146 164 192 236 244 271 261 301 285 232 236 168 104 80 74 94 94 112 112 108 92 112 114 114 102 92 86 70 82 66 80 102 100 96 108 98 104 118 138 138 124 114 120 116 122 140 130 142 152 
16 62 48 36 44 62 64 62 64 76 68 58 48 64 64 60 66 58 50 66 60 56 66 66 60 76 72 76 92 148 236 271 273 279 312 314 328 307 350 365 342 363 336 275 134 60 96 94 114 106 110 96 92 112 104 96 78 80 74 72 72 76 76 92 100 96 94 108 108 112 110 126 102 114 124 122 132 124 134 152 
12 56 42 36 50 50 52 52 58 62 66 54 54 66 62 72 62 64 66 58 60 54 54 60 60 62 72 82 140 271 293 283 303 297 303 312 324 326 373 354 356 361 373 316 164 84 86 110 110 98 106 98 90 100 94 88 68 58 60 74 52 60 70 86 88 92 90 104 98 100 106 102 94 98 98 116 128 128 136 146 
28 76 58 36 54 64 56 56 56 68 60 56 64 60 58 66 54 60 72 60 48 60 70 60 68 64 74 96 246 314 303 279 297 314 312 322 332 324 363 344 340 348 352 312 152 82 80 96 98 100 90 80 84 84 70 60 54 54 50 64 60 58 74 76 82 88 68 88 110 100 112 92 96 92 94 110 124 118 126 148 
26 52 42 60 48 56 52 54 48 64 78 68 66 62 44 64 68 70 74 72 60 66 78 70 76 62 86 174 307 332 332 303 275 261 309 350 328 318 326 309 314 332 332 279 142 88 94 106 96 82 94 66 62 86 70 72 60 58 96 90 102 94 90 104 96 86 78 112 112 100 112 102 84 102 106 104 120 104 120 136 
26 52 52 62 54 60 58 68 72 72 64 58 56 70 54 70 130 224 234 226 192 180 134 76 62 86 118 251 289 324 305 275 226 212 232 261 324 249 220 244 277 293 307 271 202 160 138 144 136 134 122 126 130 144 182 146 128 150 170 140 132 132 106 102 116 102 92 96 96 98 106 96 92 106 112 90 122 108 126 144 
42 88 60 58 62 70 64 68 70 58 68 54 78 70 70 132 265 400 381 408 421 412 359 202 116 128 220 305 297 293 289 261 238 232 240 265 242 172 192 202 269 275 279 273 265 255 234 230 212 176 174 164 184 184 184 166 164 176 178 152 148 152 144 108 124 110 88 110 132 106 122 120 120 114 138 120 130 102 126 144 
40 64 64 54 66 70 64 64 72 68 64 62 80 88 92 212 367 389 394 456 443 429 452 423 344 281 338 312 311 277 281 249 218 240 283 238 166 106 134 174 236 232 261 289 285 293 297 273 244 210 210 178 162 170 182 176 186 210 202 186 188 186 152 122 122 106 76 126 148 146 180 220 236 261 269 236 212 168 160 156 
34 64 56 50 54 64 62 58 60 74 70 64 66 94 110 249 379 416 441 474 447 408 420 420 394 398 387 334 303 309 263 253 204 234 246 188 128 102 120 178 214 220 236 273 303 307 285 303 275 224 192 184 172 156 176 156 176 188 208 204 202 198 170 144 136 112 94 148 160 180 192 246 279 279 311 293 289 248 253 251 
24 58 42 56 48 50 56 58 68 58 72 58 58 80 108 259 352 385 429 445 435 361 371 389 354 410 377 322 299 283 269 230 238 230 277 240 220 170 194 240 210 214 224 238 261 289 287 273 283 255 222 204 166 166 162 156 152 178 182 186 192 200 186 150 170 120 98 122 110 118 196 226 251 275 311 295 299 283 271 287 
32 54 48 60 46 54 68 62 60 66 60 68 60 82 94 206 334 340 394 464 431 385 394 389 340 379 361 293 255 259 228 238 228 273 287 299 320 316 312 295 289 218 240 232 240 259 259 236 240 200 198 192 194 176 194 180 180 178 184 172 160 186 174 174 170 150 116 118 116 112 168 198 226 249 283 301 291 289 277 269 
24 68 58 48 56 48 64 68 60 74 68 54 72 68 74 122 253 336 367 433 381 402 416 392 356 369 326 246 224 220 194 172 232 267 253 289 342 363 365 318 267 240 228 230 234 232 238 238 212 188 194 174 182 202 204 194 200 190 194 180 190 174 160 156 156 166 146 114 106 124 142 170 198 218 271 277 253 253 253 269 
30 62 54 52 58 70 64 64 58 58 56 60 62 52 68 80 106 158 188 234 267 299 261 220 200 322 314 232 236 204 170 166 182 228 214 206 259 322 344 305 269 238 220 216 236 240 218 230 188 186 166 184 202 212 232 228 212 206 198 180 190 202 206 182 154 186 184 168 146 124 150 160 162 184 214 216 220 196 176 208 
16 56 48 46 60 60 66 66 50 68 82 66 72 72 80 76 70 82 86 94 112 110 104 82 90 226 279 273 253 222 168 152 144 138 162 124 176 208 293 265 234 202 204 214 238 218 214 210 188 192 192 206 232 257 271 275 238 216 194 184 182 180 184 162 162 158 170 152 138 114 130 106 100 120 114 114 126 116 126 168 
28 62 50 70 44 56 52 66 50 74 78 54 60 72 66 60 74 58 64 66 76 58 68 58 70 166 269 273 249 206 178 146 138 108 72 58 102 164 206 192 186 176 188 182 224 210 210 192 190 186 212 232 263 299 330 326 291 224 188 192 150 144 140 120 124 102 104 114 112 106 112 108 88 90 110 112 104 94 130 132 
36 56 46 54 54 64 52 62 64 66 60 60 56 66 50 68 68 70 60 56 50 72 48 68 48 112 261 249 246 202 176 174 146 116 78 6 34 86 152 184 178 190 160 144 170 182 190 168 192 202 216 249 297 334 336 320 309 249 214 208 182 184 190 200 180 152 140 134 124 100 96 106 98 110 102 110 98 84 112 152 
12 58 38 24 46 34 56 62 60 52 48 72 60 74 60 60 72 58 50 42 58 38 40 38 52 78 240 283 246 190 166 172 186 152 88 34 26 34 134 184 192 176 146 146 174 172 194 198 226 214 263 265 295 322 318 228 204 186 166 156 154 180 178 196 198 178 190 162 142 124 116 114 134 134 150 134 116 104 118 154 
10 38 52 38 40 36 54 50 42 56 46 58 52 44 38 48 48 48 60 42 50 50 42 30 44 58 230 301 261 216 172 152 178 194 124 52 52 54 136 166 170 168 152 152 158 196 202 214 242 236 251 265 279 285 248 186 148 178 180 158 178 178 166 156 168 172 172 150 134 116 114 144 180 196 210 232 230 194 176 166 
2 32 30 52 30 48 44 58 28 44 54 50 42 56 56 54 58 42 52 32 36 30 40 24 38 50 184 267 236 224 178 180 198 198 208 192 152 146 148 172 200 182 188 198 212 242 244 230 242 251 248 248 253 222 170 162 152 170 186 162 180 154 144 136 142 124 154 100 86 74 100 128 174 214 240 246 251 257 253 261 
8 26 12 30 32 42 36 16 16 36 34 28 44 54 34 50 28 52 26 26 28 24 18 32 26 36 86 230 224 220 230 228 212 220 244 244 267 257 238 206 200 234 273 279 283 283 273 253 249 206 192 174 176 166 142 156 162 174 164 154 158 128 126 134 116 118 112 58 48 50 110 152 172 216 248 259 269 281 267 267 
0 48 22 18 26 34 26 38 34 40 30 34 42 34 40 44 34 42 30 30 10 38 12 20 28 16 24 90 184 218 228 222 198 200 238 230 265 303 273 224 206 248 291 320 311 309 255 248 220 182 168 148 158 168 160 156 160 152 162 136 134 140 124 138 136 128 116 60 64 42 114 148 206 248 265 267 265 267 265 279 


