P2
80 60
533
73 93 57 77 83 75 83 71 103 109 107 95 113 103 93 103 99 97 111 71 69 77 81 81 85 85 85 109 185 235 253 257 251 263 235 135 119 115 107 105 83 83 73 89 107 133 171 201 217 249 227 249 245 237 225 237 225 213 223 229 229 215 245 243 261 259 243 243 227 239 263 295 295 279 297 301 301 287 273 289 
55 93 69 63 77 73 75 85 97 103 115 107 93 101 93 105 107 93 89 75 73 79 79 67 75 85 147 318 407 399 375 324 379 379 379 273 183 191 175 169 179 239 253 259 279 285 293 293 277 255 255 259 253 265 269 259 243 233 247 245 241 255 253 251 261 271 255 247 229 221 227 261 283 267 279 287 271 275 253 257 
69 81 79 83 87 77 81 87 83 111 91 87 113 107 93 95 87 91 91 73 73 85 77 81 91 97 277 426 442 424 383 385 438 448 424 405 366 348 350 362 364 360 318 275 287 279 259 255 235 243 263 259 273 283 275 265 261 251 263 261 257 257 261 269 281 279 263 235 235 223 217 277 271 275 269 251 229 243 223 225 
69 87 73 73 83 79 91 101 87 91 93 111 107 97 107 89 81 99 93 87 73 73 85 89 113 109 285 420 463 449 397 422 438 451 457 465 415 389 395 393 375 356 324 285 283 271 261 235 229 247 265 271 279 269 277 287 279 285 301 283 271 267 269 287 285 281 289 275 247 249 267 247 259 255 253 207 217 215 201 209 
57 87 81 73 79 85 79 95 91 99 99 103 123 113 97 95 97 125 93 83 77 75 81 95 101 123 247 403 448 453 417 418 461 459 453 498 463 415 399 405 375 354 305 285 271 269 253 241 245 243 281 279 293 275 267 275 263 271 271 269 277 277 295 305 305 312 301 287 261 241 223 205 191 171 149 143 143 133 139 143 
57 79 93 77 89 75 79 81 81 119 105 121 123 109 109 109 103 109 107 101 99 109 107 99 125 145 227 356 438 436 432 422 440 453 455 511 502 459 444 418 383 356 307 281 265 251 251 237 221 245 279 267 255 255 257 261 271 308 299 320 305 307 322 312 289 267 239 209 189 175 159 155 137 139 131 121 125 125 135 125 
48 93 87 75 79 97 85 97 105 109 99 115 115 101 109 105 103 125 113 129 127 119 133 115 137 197 301 320 449 451 438 434 411 387 417 519 523 496 459 405 381 350 295 271 277 261 247 225 213 259 289 277 261 255 249 255 279 308 326 310 291 263 237 207 185 167 155 157 163 163 145 155 127 141 119 105 113 125 119 129 
55 85 91 77 87 83 83 109 91 119 89 107 125 103 113 117 105 135 191 233 277 338 299 261 243 328 457 411 448 461 446 446 417 387 389 479 533 508 467 417 364 328 279 263 259 251 247 233 209 245 307 285 257 237 229 251 287 297 271 247 201 163 141 151 155 155 149 157 153 155 161 151 151 135 137 125 111 121 129 131 
67 81 91 81 95 87 89 107 101 103 107 115 133 103 109 115 131 199 360 436 482 504 473 463 473 513 513 457 430 440 440 436 387 362 364 418 521 500 473 424 348 322 279 245 247 243 241 211 209 227 285 265 237 219 209 247 277 285 227 157 135 139 137 157 159 151 155 157 177 175 159 165 147 141 139 131 125 129 133 127 
69 93 71 83 83 107 99 107 97 105 103 117 135 115 113 125 151 307 448 479 513 531 527 515 515 529 521 463 381 405 377 358 310 330 352 401 473 513 469 409 346 330 301 271 259 243 227 221 217 235 269 259 241 229 229 269 279 308 297 251 191 177 175 159 153 163 155 163 177 167 173 161 167 149 129 137 127 131 135 133 
73 77 85 97 103 89 85 93 105 115 103 113 119 111 125 127 193 393 461 479 494 467 502 490 479 477 482 490 403 405 393 393 340 342 354 377 455 502 480 418 371 324 293 265 265 249 233 237 215 229 275 269 263 243 243 283 293 308 322 334 307 301 287 291 273 247 225 197 193 179 179 191 181 159 157 149 147 143 145 149 
67 81 83 81 91 99 87 99 85 91 91 113 101 103 109 125 223 424 465 461 455 434 471 467 434 426 432 432 422 461 463 457 407 358 334 356 426 484 475 434 393 352 281 267 267 255 223 231 233 227 253 263 273 265 267 301 314 342 370 373 370 352 360 366 338 346 330 336 291 277 253 257 243 221 199 193 185 173 163 171 
69 91 73 83 93 83 85 95 91 101 101 119 113 107 91 109 181 356 492 444 496 473 473 455 395 375 366 318 434 457 471 465 436 373 354 362 385 422 448 411 370 350 303 281 261 251 247 233 221 215 259 279 291 285 301 322 324 344 364 383 377 383 364 370 371 364 344 340 310 301 297 303 303 287 283 271 253 247 225 239 
59 93 77 77 73 99 85 89 93 97 105 103 107 97 101 101 133 243 385 409 469 471 448 364 334 356 324 310 360 446 475 453 424 415 381 377 379 405 403 401 373 358 326 295 269 265 241 243 217 217 255 301 320 332 336 328 310 328 354 350 348 344 360 366 358 362 370 338 308 289 273 271 287 277 281 259 255 255 249 273 
65 85 87 81 91 87 95 89 89 101 97 91 99 99 97 101 109 143 227 314 322 265 177 151 167 273 299 293 358 405 418 413 413 418 434 459 446 438 415 387 383 377 346 320 308 285 285 255 245 241 243 312 344 356 371 320 320 332 328 326 324 328 336 340 336 348 326 307 301 265 245 245 265 269 257 255 255 251 261 271 
81 83 79 85 79 91 85 89 91 111 91 95 113 97 101 103 99 113 125 115 123 125 121 113 131 145 213 271 324 370 385 411 413 434 440 459 482 465 438 409 354 354 332 326 324 307 312 289 273 259 243 293 344 352 340 320 352 354 326 299 307 287 299 299 293 299 295 287 277 239 227 249 251 259 243 251 243 245 261 269 
71 81 89 71 81 69 85 79 91 101 99 97 107 85 101 103 103 95 101 91 91 103 113 123 141 129 125 175 279 373 399 420 415 440 463 488 510 488 461 403 285 271 253 245 235 245 257 269 267 265 221 259 297 289 275 307 326 316 289 269 237 211 209 225 209 209 211 235 205 201 205 233 229 213 197 187 195 195 201 209 
69 77 63 59 71 79 77 89 89 99 81 95 121 97 107 109 99 113 111 115 109 107 101 117 135 117 127 141 193 314 399 399 373 428 469 490 492 459 432 428 332 267 249 237 213 211 225 233 239 235 201 189 177 155 159 169 191 165 165 157 157 157 159 183 181 191 191 191 207 193 185 195 183 175 167 169 161 167 157 171 
73 105 79 87 77 73 95 99 99 99 103 111 109 99 121 107 109 95 111 107 87 113 119 109 133 125 115 127 171 177 205 249 267 312 373 395 356 310 340 385 326 251 219 211 195 199 213 211 225 221 197 167 165 157 147 137 137 147 131 139 141 145 151 173 195 179 181 189 183 181 181 185 181 185 181 167 173 179 177 183 
71 93 77 91 97 77 83 99 93 99 101 107 103 93 107 113 101 111 107 113 97 109 119 107 127 131 113 121 139 149 147 167 181 215 259 267 271 259 271 271 247 221 207 205 227 203 213 215 219 233 195 179 163 141 137 135 131 127 127 123 127 147 153 155 173 179 177 179 187 187 193 199 231 251 247 253 247 249 255 277 
73 93 87 81 85 81 83 85 87 91 97 93 109 105 89 109 107 113 105 99 105 103 119 115 131 121 105 119 133 145 139 165 175 197 241 297 312 330 314 316 352 370 326 346 350 285 235 227 217 217 193 173 157 159 149 143 133 143 157 167 173 193 177 189 165 175 185 189 201 231 245 259 271 283 289 275 271 271 295 275 
57 99 79 83 87 79 87 87 85 95 91 89 121 101 95 99 91 105 109 111 103 103 101 123 137 105 113 113 131 149 141 157 189 269 332 342 344 352 344 332 354 371 354 370 385 387 352 253 237 215 187 175 171 181 181 195 207 213 235 257 253 257 231 201 195 199 209 199 193 243 255 233 225 245 263 271 267 275 289 285 
85 95 95 95 91 81 93 97 95 103 105 107 115 99 103 111 113 117 107 97 99 115 103 125 125 123 105 111 137 147 149 197 267 293 301 318 318 346 334 318 328 350 354 356 373 383 381 360 269 251 239 219 213 203 219 253 261 273 291 301 287 283 247 217 217 217 215 199 191 243 235 231 239 259 277 271 253 251 267 267 
85 109 101 81 89 93 75 93 93 107 99 109 111 117 103 103 101 109 107 101 111 111 117 109 113 117 105 107 127 155 175 279 330 299 275 261 239 245 295 307 291 308 312 295 346 373 379 360 350 332 287 239 213 217 213 229 261 273 305 303 285 273 235 221 207 197 193 173 189 231 223 223 245 251 253 251 237 207 205 201 
75 93 97 105 83 95 99 105 105 105 103 107 113 107 101 103 109 103 99 101 95 111 119 119 121 115 109 117 129 143 173 328 326 314 279 271 259 245 207 201 203 137 181 213 291 344 371 364 366 370 310 249 209 201 213 231 251 281 310 299 257 237 219 231 229 211 179 167 173 193 213 225 231 217 197 193 181 179 163 183 
79 97 79 91 101 89 101 81 99 105 103 111 107 95 105 103 109 107 97 107 107 109 129 119 119 123 115 119 139 151 201 340 324 348 318 342 350 259 177 107 63 87 129 127 195 277 334 348 346 383 358 328 261 229 225 221 219 241 263 247 223 219 215 227 231 217 197 149 151 171 189 199 191 181 163 157 149 165 163 165 
73 97 97 79 77 83 97 91 103 93 99 107 117 107 107 99 101 115 101 107 105 113 123 133 145 133 123 127 139 161 261 316 322 338 370 426 338 235 141 73 61 75 101 95 151 201 243 251 281 324 370 401 383 370 289 239 213 223 223 221 211 211 205 211 217 213 181 163 181 185 179 177 167 181 169 141 121 139 149 151 
77 85 89 73 89 77 91 87 91 93 99 95 109 113 101 91 91 105 97 107 119 147 201 193 237 255 197 127 143 165 295 318 312 332 352 415 340 215 119 51 44 79 117 111 137 153 183 213 227 293 370 409 415 418 391 271 239 237 237 227 237 225 241 217 217 199 181 183 209 211 189 185 173 155 155 131 129 133 141 143 
71 101 77 71 81 93 81 83 95 99 105 105 89 99 103 109 103 103 97 111 149 261 314 308 368 457 405 350 307 338 368 303 295 324 305 291 257 177 77 55 67 81 127 127 145 145 157 191 221 227 314 387 417 436 399 314 285 261 239 255 249 235 235 211 189 177 173 195 203 199 203 175 173 145 137 125 119 127 139 131 
73 85 93 89 89 79 77 81 101 97 107 93 97 93 95 93 91 109 111 133 253 346 340 393 484 482 488 486 434 432 387 316 307 332 299 237 177 87 30 53 89 101 125 127 167 129 145 163 199 223 261 322 407 428 397 362 387 293 263 231 231 223 173 149 159 159 173 181 207 193 185 183 161 139 123 123 125 127 129 135 
73 93 87 91 95 89 73 85 93 107 103 93 115 87 89 101 113 101 105 149 283 358 381 467 490 486 480 486 446 417 387 328 326 354 293 245 175 103 53 34 55 101 115 109 143 125 125 147 191 223 237 265 385 432 424 418 420 320 259 229 231 219 217 213 219 191 169 189 199 185 179 169 171 131 111 119 113 127 117 121 
69 85 67 83 89 67 69 91 93 93 103 97 103 99 105 101 95 103 111 143 277 379 430 479 496 463 461 469 418 426 395 336 322 340 303 269 203 149 99 77 65 87 105 113 117 93 101 165 197 223 227 308 391 442 426 428 415 316 255 215 217 225 255 251 271 235 219 195 195 197 169 177 153 135 129 119 107 119 119 123 
63 89 81 87 95 79 87 97 93 101 99 109 101 107 99 105 99 95 117 141 269 379 424 477 490 480 469 475 415 417 381 346 312 330 299 283 245 203 163 127 105 65 83 127 117 53 135 167 217 229 243 340 411 432 434 432 430 310 233 209 203 225 249 247 265 247 269 265 245 261 227 183 189 173 155 139 137 125 125 149 
73 95 85 91 97 91 91 95 91 101 105 107 115 107 105 115 117 103 119 123 219 320 336 346 430 473 467 401 303 275 340 348 322 320 295 299 277 263 235 187 109 73 93 91 125 75 151 181 229 269 301 344 409 422 446 444 383 267 225 211 209 219 231 259 253 265 275 297 289 285 283 239 247 235 223 217 197 185 179 191 
59 87 81 77 83 85 89 97 87 89 105 103 119 111 105 101 109 107 113 101 133 191 211 213 231 257 239 183 167 171 241 346 303 285 279 295 283 281 229 189 129 67 113 99 105 121 167 213 277 330 324 348 379 383 379 312 251 225 233 219 223 211 211 235 249 257 269 289 291 297 297 259 261 255 253 273 251 267 273 263 
63 89 87 83 83 87 85 91 99 117 105 103 121 107 99 101 121 107 113 115 113 127 109 133 141 139 115 117 133 147 187 305 291 271 255 297 279 259 253 241 155 131 163 165 185 211 263 303 334 354 318 285 247 229 225 225 213 201 205 217 201 185 205 211 219 237 259 259 265 281 293 271 267 249 255 269 289 289 310 338 
63 91 91 91 81 87 91 79 107 113 101 111 117 97 101 115 103 101 103 109 103 107 113 113 111 121 105 115 135 135 171 259 301 279 241 199 161 237 245 259 267 263 285 267 285 303 334 354 346 362 305 227 191 177 203 201 207 197 197 209 199 183 187 181 201 221 231 237 235 267 267 273 271 259 271 277 299 291 316 324 
77 85 91 97 77 75 93 89 99 95 99 107 109 115 109 101 103 103 111 109 93 109 95 117 129 121 115 105 129 149 153 205 314 293 253 201 181 213 225 239 297 338 326 340 350 342 368 371 348 291 223 187 191 187 183 215 213 213 195 215 191 185 173 175 187 203 183 199 201 217 247 265 249 259 255 269 275 263 283 305 
59 89 81 89 79 85 101 101 91 107 101 107 107 113 117 117 109 99 117 101 111 111 113 123 117 123 93 121 131 141 147 165 253 307 289 267 257 243 249 257 334 370 356 352 377 352 381 356 269 215 179 145 163 167 167 159 149 151 175 201 195 159 159 177 163 179 171 157 163 183 195 199 193 207 211 221 219 207 235 239 
69 89 93 95 83 99 97 85 95 117 101 105 97 105 115 109 111 103 111 105 105 97 113 113 109 115 113 117 137 135 169 193 227 295 383 373 350 322 314 328 399 389 356 352 366 350 332 225 183 183 155 143 155 151 147 143 137 125 121 135 129 135 149 153 139 151 157 149 167 179 183 179 169 167 169 173 185 189 197 193 
65 101 87 85 73 91 95 93 103 115 103 103 107 107 101 105 107 101 109 113 99 103 109 111 113 117 111 117 139 213 293 330 336 358 391 405 395 381 364 434 401 360 289 231 195 167 165 167 157 181 159 151 145 153 149 137 131 125 119 111 113 111 125 135 133 149 153 159 163 167 153 159 155 159 163 157 169 171 177 183 
65 95 81 81 83 77 85 85 105 93 99 101 105 105 103 107 101 99 105 101 91 99 99 99 115 111 117 117 185 330 366 330 328 368 373 397 377 397 377 457 426 405 371 350 269 153 123 135 143 165 147 133 133 141 129 129 121 103 99 113 91 103 109 133 123 135 143 159 161 151 141 147 127 145 143 155 159 175 169 177 
69 93 91 73 95 95 89 87 93 97 95 95 105 103 97 117 93 111 115 99 89 103 99 105 113 115 119 145 293 364 354 358 330 362 385 389 358 368 366 424 418 397 383 399 358 255 155 109 131 163 129 123 125 125 107 115 103 91 101 101 89 103 117 109 127 137 129 139 161 157 157 127 141 133 141 153 155 163 161 171 
67 87 77 97 89 95 97 83 91 89 111 101 109 95 85 107 127 153 165 129 121 107 113 103 109 111 119 217 346 371 358 348 312 320 352 389 362 344 366 432 403 397 379 399 411 401 310 199 139 153 141 133 123 133 129 127 115 121 145 143 145 157 147 155 137 143 143 155 159 155 143 137 127 139 133 143 153 141 149 167 
67 87 89 107 89 91 89 83 97 109 103 93 119 123 105 133 227 346 356 336 299 285 209 135 109 127 167 291 338 332 328 312 285 283 281 303 307 314 344 393 387 395 385 389 411 417 411 344 253 235 203 205 219 227 257 227 211 201 205 203 193 207 171 147 155 149 143 141 143 149 153 137 137 139 147 131 165 153 163 167 
73 103 91 87 91 97 93 93 93 97 111 99 125 115 131 237 360 444 428 457 480 477 430 265 177 155 265 342 352 338 314 291 265 275 289 308 253 207 217 227 247 285 316 360 375 391 403 393 358 287 235 243 245 247 245 251 233 219 221 233 233 221 191 155 163 151 131 153 165 153 155 157 167 151 161 145 161 153 165 177 
63 95 95 91 101 101 101 93 99 109 109 109 117 125 151 277 405 432 455 500 496 477 494 492 436 354 395 358 373 322 305 289 251 291 316 255 193 153 169 197 211 235 279 301 348 368 391 393 375 340 283 267 253 247 241 241 239 259 249 239 251 237 207 179 155 147 127 157 197 191 221 261 281 281 299 269 251 215 195 213 
65 91 85 75 87 107 91 93 97 103 103 109 111 137 167 293 401 424 475 504 480 475 459 469 473 453 424 362 358 332 285 267 241 273 251 195 137 131 145 191 213 235 249 269 312 330 360 391 373 360 287 269 259 251 259 231 233 233 263 261 217 215 205 179 163 157 137 179 197 205 229 281 320 326 342 346 342 303 289 312 
67 95 77 93 87 93 91 95 111 99 111 113 119 129 143 275 381 399 459 496 475 444 413 430 407 455 413 340 320 303 289 263 249 225 203 135 105 101 157 195 227 235 253 273 267 275 301 328 356 368 312 318 293 283 251 239 237 237 239 241 217 209 193 175 169 147 145 171 163 161 229 265 295 320 336 352 342 330 318 305 
75 95 87 105 95 83 101 107 105 111 111 115 111 119 129 211 362 381 426 494 453 432 434 417 397 436 385 295 289 289 255 223 195 205 171 115 79 95 177 223 235 241 251 261 271 269 275 263 299 348 338 340 344 293 261 243 255 237 239 235 209 221 187 197 175 171 161 163 159 153 199 239 273 297 324 342 328 332 324 318 
67 111 99 91 95 75 93 95 93 121 105 105 117 117 117 135 215 308 379 444 430 451 440 413 387 415 354 267 281 255 233 191 191 171 125 91 36 97 179 229 225 245 223 245 257 249 255 259 241 307 334 342 362 360 275 241 251 241 239 235 231 223 205 191 179 203 189 167 159 175 189 215 245 267 308 312 305 303 303 289 
69 99 97 77 99 99 87 93 93 105 95 101 123 97 111 113 121 147 181 217 263 310 283 249 245 370 312 277 289 251 213 191 157 147 111 63 34 83 199 229 235 231 213 237 259 255 251 245 213 283 305 340 371 352 283 253 227 227 227 209 209 221 233 213 187 213 209 199 189 165 179 203 203 231 249 251 263 253 221 249 
71 91 99 87 97 103 93 97 97 109 123 117 125 117 123 113 113 113 121 115 135 147 143 121 149 247 297 291 289 259 215 197 173 145 93 42 16 30 157 207 213 205 191 219 229 243 235 237 235 310 312 318 362 332 291 241 223 219 205 201 195 189 213 185 181 179 183 189 171 157 161 151 143 163 149 163 159 157 163 175 
79 95 87 97 83 97 79 95 91 109 111 107 105 123 111 101 113 99 115 115 117 105 117 101 127 211 289 283 277 235 203 199 179 131 63 22 0 40 135 191 201 199 177 169 209 211 223 235 277 342 316 314 332 330 330 320 255 227 213 219 177 173 167 157 153 149 149 163 151 143 145 147 127 133 145 155 147 139 157 165 
85 89 87 81 91 97 79 97 91 97 97 101 121 107 111 111 105 107 99 103 85 109 99 123 107 167 308 295 265 209 189 217 213 157 67 6 4 51 143 191 207 197 155 161 187 201 229 259 283 320 305 295 328 368 387 371 316 237 225 229 199 203 213 225 207 197 183 177 179 155 139 147 141 139 145 153 137 135 153 167 
61 89 73 65 87 63 81 87 101 85 97 109 109 115 97 97 109 99 99 85 91 89 91 97 101 147 285 283 277 227 185 205 209 179 101 67 55 59 155 213 223 201 181 193 209 237 295 281 285 283 271 249 281 370 399 377 301 227 201 191 187 209 221 233 227 231 237 211 185 177 163 169 177 183 201 189 157 143 157 195 
71 85 105 75 89 63 89 71 93 105 93 103 107 93 85 81 87 85 113 85 75 89 85 79 95 129 261 293 267 239 197 195 203 203 153 87 99 135 203 227 223 223 213 237 265 307 301 265 237 237 227 215 213 271 342 342 227 207 201 189 201 205 207 217 207 213 217 199 175 167 161 191 227 255 257 271 269 245 223 227 
55 65 73 71 83 79 67 65 71 89 99 87 93 85 105 93 97 79 95 73 71 69 71 75 79 107 219 249 243 245 229 235 231 235 233 203 201 231 237 245 251 261 275 316 340 320 307 255 227 213 187 179 175 197 207 227 203 199 189 197 203 187 199 211 197 169 189 139 121 113 145 167 211 255 257 287 287 301 303 310 
59 69 53 69 75 59 59 59 65 73 79 77 97 95 91 97 77 93 81 73 73 77 63 73 83 85 127 229 243 259 251 257 241 255 271 295 350 348 320 310 303 332 338 356 348 301 283 211 207 211 187 181 179 197 195 205 203 191 187 173 191 183 187 195 163 167 161 99 89 89 141 193 217 263 287 291 291 318 318 328 
42 75 73 59 67 73 55 73 67 91 65 79 101 79 91 89 81 97 93 69 61 87 73 93 75 77 65 103 175 241 251 263 225 241 255 299 360 354 350 373 371 368 370 366 328 275 233 207 197 217 177 183 191 217 217 213 187 183 187 189 177 179 163 181 183 177 157 103 101 87 157 199 243 297 293 299 283 305 320 354 


