P2
80 60
1028
302 318 312 316 300 292 306 294 296 280 259 265 269 280 263 253 261 249 237 241 241 237 237 241 237 255 253 243 271 267 298 383 578 598 592 662 734 719 721 673 412 359 397 472 550 612 656 689 732 764 799 801 693 452 347 349 320 294 304 298 326 332 324 338 347 334 336 336 320 296 273 280 304 476 516 484 440 391 359 393 
310 312 306 310 290 296 296 312 278 282 267 273 261 280 259 257 257 247 220 237 245 231 249 245 251 245 251 251 269 288 377 582 654 624 582 588 664 701 693 498 320 306 302 298 316 373 512 626 705 785 837 843 812 758 480 438 424 430 450 442 480 480 466 452 432 416 397 387 363 357 365 345 371 472 498 494 432 391 375 405 
314 308 330 314 314 298 310 306 292 273 273 271 263 278 263 249 253 239 239 245 239 245 245 253 259 241 253 251 296 357 578 658 652 612 602 594 614 679 576 363 318 304 322 322 324 375 426 520 632 756 828 863 896 911 801 634 572 514 498 506 512 510 492 480 468 432 426 405 383 391 375 385 379 496 506 488 452 434 430 428 
320 312 322 318 312 304 330 326 280 292 282 261 273 286 273 245 251 233 241 231 243 239 243 235 255 245 259 273 351 546 648 652 628 624 636 646 665 677 486 418 408 420 460 476 524 596 681 707 691 756 851 882 919 944 903 839 644 548 524 510 530 526 506 496 466 434 420 405 371 377 375 365 371 472 498 480 456 452 440 458 
306 324 320 326 318 308 326 320 302 280 280 280 267 275 263 257 249 239 231 233 241 235 247 241 251 257 261 296 488 640 632 634 640 630 669 711 730 699 662 626 638 622 632 616 656 687 719 725 703 736 820 903 946 955 894 896 764 568 534 510 528 516 504 490 442 426 401 377 357 371 367 371 367 470 488 460 458 444 442 436 
312 308 300 312 302 306 312 306 282 269 271 273 271 288 267 239 241 239 239 239 237 247 247 237 247 261 267 349 606 636 648 671 681 683 725 746 728 679 665 656 642 616 620 640 667 699 717 723 677 673 734 923 963 990 957 795 679 556 536 516 518 498 470 458 424 410 391 371 361 363 371 367 353 456 462 458 450 430 438 452 
320 310 328 314 312 316 302 320 290 271 278 265 261 292 273 249 263 257 241 243 239 245 253 247 253 269 284 448 667 681 675 691 697 699 723 709 697 660 648 612 580 592 640 652 681 697 709 691 656 654 689 903 950 980 980 857 642 554 526 506 506 488 462 446 432 414 410 387 375 379 385 379 361 434 442 440 440 422 432 442 
318 310 312 324 312 312 310 308 302 280 271 273 271 292 284 251 265 241 241 245 241 235 249 245 257 273 290 532 707 669 646 640 634 662 671 683 664 646 628 582 574 608 644 658 671 683 665 677 656 622 642 816 888 917 976 849 622 546 522 506 516 506 498 490 482 454 438 410 416 410 405 395 375 397 420 434 428 405 428 430 
316 312 314 320 310 320 312 310 294 294 280 273 273 292 280 245 265 243 239 241 249 253 251 247 269 286 300 566 709 650 598 588 606 616 648 669 650 610 598 592 588 600 632 650 642 638 646 650 644 620 598 628 752 808 901 705 594 516 504 508 514 520 526 512 522 506 474 448 416 403 422 416 385 393 410 426 418 414 438 440 
320 304 310 306 312 314 324 306 286 280 271 275 271 284 269 257 273 251 245 257 259 237 253 263 267 282 336 600 721 630 592 570 588 632 664 660 640 610 618 602 590 612 640 644 632 640 654 644 630 596 586 564 552 624 616 582 566 522 484 484 508 512 520 504 496 472 468 454 434 414 408 422 399 381 391 412 420 412 438 430 
304 308 312 316 308 302 302 300 294 271 261 257 278 271 269 259 275 251 253 263 265 267 255 261 271 286 361 697 758 634 580 586 608 620 652 679 646 630 616 610 620 628 652 654 636 646 660 634 616 568 542 510 500 482 484 488 534 506 482 458 466 476 466 474 476 454 444 434 428 399 397 408 399 383 377 401 401 405 416 434 
314 304 300 308 302 300 306 318 294 286 278 282 280 296 280 267 280 282 288 296 294 292 275 284 284 302 436 754 772 673 624 634 636 620 634 650 644 638 630 618 640 652 679 669 644 626 650 630 594 570 536 504 472 472 430 444 488 498 468 448 448 438 438 446 440 430 408 405 408 387 397 410 389 373 393 418 416 410 420 412 
318 314 308 308 304 304 294 300 288 275 273 267 263 310 288 324 385 403 442 466 514 482 424 387 377 395 638 789 770 697 652 656 650 628 618 626 632 636 626 630 667 675 683 660 606 612 620 624 612 586 548 486 450 448 428 434 472 494 458 428 416 401 397 393 395 391 387 377 391 385 385 391 379 365 379 397 395 399 403 416 
316 318 314 312 296 308 300 310 298 275 269 275 284 312 320 381 506 596 695 770 847 882 861 845 793 791 882 832 774 736 701 687 662 646 642 634 628 620 628 652 677 677 681 644 606 602 594 594 580 540 500 474 434 438 424 422 466 504 464 436 420 401 389 385 399 399 403 408 405 397 379 383 369 367 363 387 389 377 391 401 
320 318 306 304 310 310 304 308 288 290 280 273 296 343 414 510 685 805 843 919 959 982 971 963 959 911 925 923 822 740 691 667 650 640 662 626 608 616 638 662 665 664 669 642 600 584 574 560 548 536 502 476 442 428 412 408 434 466 448 416 410 385 373 395 379 379 387 397 385 371 351 365 349 369 381 393 395 383 381 395 
314 312 306 310 300 294 300 304 288 286 282 282 326 403 522 644 830 812 818 961 969 984 978 982 971 913 880 927 849 764 697 636 594 586 636 634 620 624 642 658 654 642 644 624 594 576 582 562 546 534 512 486 444 432 410 412 422 450 428 393 395 401 381 381 369 375 373 349 349 336 328 340 340 405 379 389 379 369 381 395 
308 308 310 304 298 300 304 294 288 273 282 304 351 478 594 725 853 872 882 961 995 982 948 965 967 938 892 909 865 734 736 719 656 592 586 600 628 614 658 669 669 628 608 572 562 552 546 522 512 512 492 474 448 436 420 405 420 468 452 412 399 408 391 387 377 365 367 334 334 330 328 340 353 448 381 395 377 363 387 391 
320 310 306 296 292 296 300 292 278 282 282 308 365 518 656 806 896 901 907 936 961 963 948 959 978 919 859 905 888 756 725 713 660 616 602 612 560 550 612 650 638 588 558 572 546 538 546 536 518 522 516 494 464 444 424 420 412 472 456 418 432 430 412 399 395 383 361 343 340 345 334 336 373 490 389 401 377 377 391 403 
312 306 300 300 298 296 296 312 300 284 282 316 383 548 695 781 865 878 876 938 954 965 965 986 959 876 810 861 898 806 730 709 677 598 550 536 572 606 634 650 636 572 532 596 582 556 556 552 530 524 514 500 472 462 446 438 434 478 476 440 440 442 414 418 410 389 373 355 343 349 343 355 434 548 399 391 395 381 410 405 
314 304 302 306 296 302 300 292 300 282 280 296 367 498 604 691 851 837 810 872 934 948 963 930 882 742 514 460 620 689 658 658 650 580 566 592 592 598 630 634 644 636 652 648 618 582 590 560 540 526 510 504 474 462 460 450 444 504 504 462 460 454 422 426 410 385 371 365 355 345 343 383 506 550 401 389 389 389 418 418 
308 314 294 316 300 308 306 298 286 280 296 271 349 422 492 584 785 855 824 853 884 894 919 812 574 357 278 271 300 476 673 673 662 630 628 620 590 594 610 620 622 648 667 671 681 658 634 616 574 538 524 504 480 482 480 468 470 538 524 498 494 466 450 450 428 401 387 383 359 361 345 440 592 578 422 405 401 393 403 418 
312 324 304 308 308 314 296 304 290 288 278 275 302 375 432 508 614 697 736 734 752 705 695 458 304 263 267 255 263 320 566 689 640 628 646 644 656 636 616 594 586 602 624 656 652 664 646 638 612 568 548 540 532 574 596 568 556 594 556 498 486 494 486 490 464 440 414 389 373 377 408 604 725 699 466 440 424 408 426 430 
302 296 288 300 290 304 290 282 286 284 273 267 286 326 361 399 464 510 542 550 534 440 332 261 247 251 257 247 265 284 385 683 662 626 636 671 683 662 632 600 570 556 572 588 616 652 662 675 667 644 626 622 675 849 705 681 689 665 616 602 614 602 570 542 494 452 422 399 395 405 458 703 793 732 512 452 446 436 424 430 
302 302 282 292 286 290 290 288 284 286 288 265 259 298 292 286 324 328 338 351 300 255 249 247 255 243 243 226 263 257 290 542 707 665 664 675 681 667 646 596 576 558 564 500 482 512 536 606 654 644 598 592 624 713 730 762 797 795 775 760 787 774 730 719 679 594 512 490 536 596 701 828 861 822 548 474 432 387 373 385 
304 302 300 306 292 304 290 306 275 278 273 275 253 273 271 257 267 247 249 249 245 249 241 247 245 241 241 243 261 261 271 336 624 728 711 717 721 691 675 602 554 556 622 470 306 286 298 316 340 351 389 546 709 836 915 929 944 923 867 834 878 855 806 787 715 646 610 705 814 884 901 903 898 863 620 538 448 385 359 373 
310 308 310 296 292 310 300 288 286 280 263 271 263 280 271 239 255 237 231 243 241 233 251 249 247 245 249 239 249 253 247 278 375 622 725 730 742 697 658 604 576 584 681 697 534 355 322 338 349 373 510 717 909 990 930 890 936 930 896 894 911 810 754 770 727 671 626 638 820 944 961 950 929 890 667 592 518 438 389 416 
288 300 290 300 273 300 294 290 267 265 267 269 269 261 257 237 247 243 229 226 231 237 233 239 249 237 241 231 243 243 245 255 290 320 492 640 709 677 650 616 594 622 711 713 721 664 602 636 648 598 664 905 1001 990 822 886 934 925 911 909 874 719 839 868 785 689 610 592 701 896 954 969 952 886 662 608 560 488 434 432 
294 314 298 280 271 290 306 304 267 278 282 263 267 265 255 245 253 245 224 224 233 235 237 226 235 241 231 237 245 249 243 247 278 263 296 343 442 554 632 622 594 658 707 727 750 709 685 727 685 592 781 992 1003 950 777 878 959 952 884 841 814 740 808 797 791 719 658 616 691 855 903 911 892 834 656 600 580 526 460 462 
312 314 300 286 282 282 310 298 280 267 282 269 278 269 241 237 241 243 233 237 233 231 237 235 235 249 237 235 243 233 243 255 265 261 263 290 310 324 397 476 560 691 723 738 719 723 740 754 618 594 876 994 995 923 764 874 1028 971 797 750 785 728 756 764 812 799 740 652 689 853 867 853 843 806 636 584 578 542 494 452 
308 302 284 292 290 271 294 298 290 269 280 263 271 265 257 247 245 235 229 239 233 235 229 222 229 239 224 220 233 243 247 245 265 263 259 271 300 294 310 310 338 478 622 699 693 728 760 738 542 616 886 1013 999 948 830 822 946 814 685 732 781 772 766 791 836 843 736 614 628 808 878 874 868 837 636 612 582 546 492 446 
310 312 308 284 288 286 286 300 275 273 271 267 257 278 257 237 247 241 239 237 216 226 239 229 222 239 231 233 247 247 249 251 269 257 261 273 290 296 304 312 326 389 395 424 514 576 602 568 524 604 824 999 1011 995 921 841 723 610 638 721 766 746 781 801 810 777 685 586 610 803 911 944 942 925 660 614 576 510 472 428 
300 306 300 298 298 292 294 310 278 282 261 261 273 271 247 245 247 222 235 226 243 229 229 226 237 233 239 229 247 239 245 251 263 269 263 282 296 316 389 450 492 492 480 410 426 484 522 480 520 584 685 915 1003 997 934 826 867 736 689 687 805 730 766 824 843 816 703 622 636 857 955 995 984 942 662 612 558 488 438 428 
298 302 300 294 292 300 298 288 292 275 265 265 267 273 257 245 241 233 226 235 237 237 239 231 239 243 239 235 241 237 253 255 278 273 273 318 430 516 564 580 572 580 671 683 683 687 693 546 524 578 614 826 992 988 884 805 997 975 880 801 867 785 748 853 870 808 723 654 664 896 976 990 959 905 677 598 530 458 422 410 
302 308 302 294 292 284 302 304 282 273 271 263 280 273 259 237 239 237 231 218 224 229 229 224 229 233 231 239 253 245 253 255 300 334 458 566 608 610 606 594 580 582 687 689 675 677 664 570 518 566 576 732 938 988 884 783 961 954 944 880 876 880 736 736 758 703 673 654 697 929 963 959 934 890 675 598 528 446 414 426 
310 318 316 298 298 288 300 312 308 294 273 257 259 284 255 239 251 251 235 229 241 231 231 229 237 237 237 239 257 259 300 416 534 590 614 644 642 646 652 640 588 564 644 721 715 677 650 576 504 550 550 652 837 995 894 774 929 930 950 892 909 932 929 874 797 723 681 654 756 896 921 923 913 851 660 582 478 428 395 408 
330 328 322 292 306 302 290 314 304 304 278 253 265 278 251 247 253 241 229 237 239 237 241 235 243 259 247 253 286 381 566 640 634 616 600 626 582 562 574 578 558 562 612 687 701 658 662 626 544 536 534 578 703 942 954 816 882 917 934 888 872 915 929 884 795 728 665 580 618 608 634 736 816 783 612 532 448 401 408 401 
306 306 308 292 288 294 306 314 304 308 292 265 271 296 261 251 255 235 226 237 235 241 245 247 245 235 241 280 412 614 618 614 564 454 422 446 430 472 534 556 562 572 596 614 626 618 644 673 652 508 498 510 574 768 965 946 884 930 932 870 830 845 859 806 721 628 536 414 357 304 284 379 628 681 522 458 410 383 381 399 
316 304 284 294 284 284 310 308 300 296 290 261 275 275 263 241 249 243 235 231 243 226 241 224 245 235 249 296 576 626 618 584 538 482 468 442 450 438 488 500 522 518 544 554 566 582 598 600 608 526 468 488 524 576 750 957 954 901 886 822 787 764 713 634 576 412 399 367 292 243 198 229 405 584 436 416 389 369 369 379 
312 316 304 292 284 292 304 304 294 292 275 267 271 280 265 239 255 231 235 237 235 229 239 241 245 249 249 357 634 596 566 550 554 554 572 566 552 544 532 508 492 494 532 556 576 574 556 542 542 524 428 381 434 560 654 750 764 728 691 644 630 608 528 516 498 391 367 343 302 288 253 271 332 478 397 373 363 371 381 395 
314 310 306 296 286 292 292 306 300 290 284 280 278 278 269 239 257 233 245 239 245 237 241 243 261 255 273 420 646 598 584 546 596 638 608 572 558 528 510 506 500 504 532 562 564 564 528 516 524 480 387 239 222 367 462 532 536 510 512 520 524 416 210 412 498 452 430 393 373 357 351 365 371 403 290 308 345 361 375 373 
318 302 298 308 296 290 302 296 296 296 278 280 278 294 269 257 271 251 237 247 249 241 251 245 257 251 286 508 644 612 604 592 644 618 580 570 552 520 530 508 514 532 540 544 530 526 532 510 496 464 412 222 282 401 438 478 484 470 502 504 524 422 308 454 504 510 502 460 432 444 432 424 405 412 300 304 343 365 365 373 
318 308 292 286 292 302 296 308 288 288 286 263 275 298 300 314 324 326 320 302 280 257 247 235 247 267 355 588 658 658 644 606 606 594 578 564 548 498 520 534 538 562 558 522 508 528 526 506 490 482 474 444 416 448 442 464 468 456 466 496 510 504 488 514 510 502 500 496 486 458 442 428 420 428 361 361 377 371 363 363 
314 308 294 308 294 310 312 302 280 294 292 273 282 345 462 600 667 683 664 652 634 524 349 290 304 440 528 638 642 612 576 562 586 594 546 528 506 502 534 548 542 558 550 512 514 510 498 500 498 488 480 462 450 488 442 452 452 468 450 468 484 496 498 516 512 504 484 492 484 466 436 424 426 414 359 369 371 363 385 389 
304 312 300 304 298 304 304 310 304 306 294 284 334 514 691 789 793 789 839 789 754 728 713 658 644 695 538 552 598 602 618 604 590 550 508 498 490 504 552 578 562 554 548 502 488 474 476 484 482 498 480 470 478 472 446 448 442 444 434 442 468 470 482 480 474 484 462 466 456 452 430 412 403 389 355 371 371 363 383 389 
308 306 300 318 302 284 288 312 286 304 294 312 452 701 832 824 836 843 861 806 799 805 849 853 853 801 570 516 560 572 616 618 606 522 490 484 492 504 560 592 578 570 564 508 466 462 476 484 476 490 500 496 484 474 448 442 428 440 432 448 448 450 446 448 452 460 454 440 438 438 420 412 391 373 367 371 377 371 387 373 
310 312 296 310 306 306 292 310 298 290 308 351 548 785 847 882 896 917 884 872 814 884 865 837 870 791 602 556 598 558 574 598 594 520 496 490 494 518 566 568 570 572 544 506 464 416 418 446 460 480 484 484 474 462 440 444 424 440 444 424 444 438 432 418 414 424 428 428 424 422 405 403 399 365 361 373 371 359 377 381 
308 294 298 302 288 306 280 298 282 296 312 377 622 818 870 876 878 894 865 919 841 909 822 795 837 770 626 492 544 550 500 532 506 474 470 480 498 510 542 528 540 548 506 460 436 393 391 422 434 442 448 424 426 438 430 424 416 422 436 428 430 434 414 399 397 403 405 408 399 412 383 393 379 369 332 349 367 351 359 381 
314 316 310 302 294 300 300 296 296 304 308 387 654 814 841 851 859 915 890 847 874 907 886 843 870 783 697 542 506 522 486 472 456 462 474 480 510 508 516 504 482 488 464 432 389 377 387 410 401 426 432 448 420 430 430 405 405 418 432 428 448 444 444 428 412 405 403 385 401 412 397 393 385 371 361 369 365 345 343 357 
300 298 314 304 292 290 294 312 290 300 300 349 558 760 828 816 774 801 851 808 859 863 867 857 872 791 606 522 572 562 542 502 472 434 466 504 528 530 514 490 470 454 444 434 408 405 405 414 412 405 432 448 397 361 399 408 405 420 434 446 426 434 436 440 438 430 420 412 397 434 426 426 434 401 340 379 343 347 340 340 
306 306 294 290 300 290 286 302 273 296 312 322 395 582 762 820 801 774 824 806 836 799 801 779 742 713 510 482 550 582 592 564 510 478 466 490 530 512 450 454 480 470 454 462 464 480 434 424 416 401 418 430 389 353 383 389 389 395 391 424 444 436 432 422 424 414 395 395 397 408 422 428 401 373 347 347 353 345 351 351 
302 304 282 298 300 288 300 290 290 292 308 300 322 414 582 683 730 750 760 752 775 689 526 389 375 436 452 534 568 568 586 562 548 554 530 498 520 504 456 460 474 470 464 454 454 498 472 454 444 403 401 416 401 391 385 385 351 365 367 385 410 403 422 403 401 397 405 399 389 416 414 422 359 334 332 345 338 351 347 343 
310 312 304 300 294 294 298 288 292 298 294 304 296 320 381 440 478 506 502 496 508 367 292 273 275 290 322 504 588 540 546 544 546 582 530 486 496 498 510 492 486 472 470 442 460 500 494 460 460 442 426 401 381 391 381 391 385 391 381 365 369 405 401 418 408 420 410 401 412 418 428 430 444 397 332 351 349 338 349 359 
312 310 300 312 290 298 290 300 302 310 306 298 294 302 300 292 304 294 294 288 284 265 271 243 259 271 284 414 582 562 522 542 538 540 492 470 480 498 516 504 512 506 484 422 434 450 440 450 438 426 422 405 395 383 367 375 387 383 387 369 375 408 422 428 434 430 436 438 424 436 426 428 420 365 338 343 345 355 359 367 
310 316 318 304 296 290 292 306 300 298 302 288 288 304 271 271 263 267 267 259 247 257 243 243 249 251 261 338 568 566 526 532 546 520 462 448 460 470 484 494 484 478 476 436 446 426 430 428 420 405 408 383 381 375 359 361 381 387 399 381 391 440 450 436 452 418 434 440 448 434 399 393 351 336 330 345 343 351 340 351 
316 306 306 304 294 292 294 286 304 292 304 298 300 292 278 247 273 243 243 249 241 241 245 231 245 249 257 288 504 568 530 516 534 508 468 460 458 452 488 474 456 474 494 464 462 454 460 448 432 414 412 383 316 196 261 312 347 399 416 420 424 456 464 452 446 424 420 428 405 403 367 351 345 312 336 343 343 349 351 343 
310 298 292 310 304 290 292 310 298 296 306 296 282 296 275 267 267 241 245 245 243 233 233 243 247 245 261 263 403 544 532 502 516 516 506 476 484 482 470 466 444 456 478 462 464 468 480 474 450 428 426 387 349 87 54 108 231 349 432 430 466 472 452 440 420 343 288 353 389 375 357 332 330 310 330 353 343 347 357 381 
316 322 304 308 290 298 304 312 292 304 294 286 286 294 273 265 259 235 247 237 229 231 247 231 251 241 243 243 298 454 516 494 480 468 482 474 490 478 498 500 486 470 504 524 524 492 488 488 474 442 408 430 367 100 0 56 150 338 426 454 474 484 470 448 424 379 355 361 367 338 316 336 326 314 353 353 349 357 365 367 
312 310 294 298 282 290 292 286 300 306 302 296 286 294 273 265 267 235 239 231 229 233 231 243 237 235 237 226 267 310 412 498 524 482 468 476 512 498 516 542 536 524 570 626 669 614 594 622 606 596 574 566 506 369 259 306 405 462 538 552 558 550 502 440 410 389 367 338 316 306 282 271 330 338 371 381 365 361 381 395 
324 298 300 294 298 292 294 296 298 296 296 294 288 292 288 259 257 255 237 229 231 237 235 243 247 247 243 237 263 257 290 326 418 460 484 516 536 528 538 540 546 530 584 687 715 658 622 620 612 596 620 642 638 600 570 592 614 598 618 634 646 634 518 444 383 365 336 290 245 239 214 229 375 405 436 448 438 420 408 405 
328 298 320 300 286 290 280 308 284 290 298 282 302 286 261 261 253 235 241 224 224 220 235 222 231 245 243 243 282 265 282 302 314 328 379 448 498 502 512 500 480 478 576 667 660 646 610 610 604 594 596 638 636 642 612 604 572 576 600 596 626 602 508 420 375 324 326 306 286 269 261 284 369 405 452 442 414 418 408 399 


