P2
80 60
657
138 149 138 130 130 142 151 136 138 157 142 155 151 165 142 145 163 140 149 157 163 159 165 155 181 218 358 471 503 509 479 483 224 181 149 124 118 126 136 149 159 197 294 446 515 523 513 460 356 246 238 260 276 254 268 272 240 246 252 262 278 272 282 278 288 310 304 308 302 310 322 330 340 340 326 336 346 362 352 346 
128 132 128 132 138 140 147 145 132 149 151 159 147 151 165 149 153 140 147 153 155 153 153 147 181 324 473 509 495 501 519 444 234 191 161 151 126 138 140 130 149 167 201 246 408 505 479 402 424 424 452 448 406 386 374 366 316 344 338 316 326 310 344 318 338 342 328 302 292 276 308 318 332 324 328 344 332 316 346 344 
126 145 120 130 147 130 138 140 142 145 134 155 140 155 149 155 147 132 149 165 142 159 159 149 224 436 505 481 434 521 513 485 402 356 302 244 197 193 193 224 236 292 314 314 382 442 473 430 438 499 471 428 432 444 456 444 410 394 348 342 346 332 340 340 352 334 318 298 292 280 290 318 330 330 320 332 316 320 322 324 
130 138 128 128 149 138 145 142 132 153 153 161 155 155 145 142 138 149 153 161 163 165 153 179 300 473 483 446 436 473 507 542 519 489 440 392 346 330 324 348 378 368 366 360 390 374 386 378 368 479 448 471 481 471 485 458 467 438 370 350 352 350 340 344 340 344 346 322 310 304 324 316 338 330 322 314 304 288 274 270 
128 151 114 128 149 130 142 159 138 145 136 145 165 155 153 159 161 161 140 163 161 167 161 181 304 511 509 493 479 475 483 473 454 436 400 378 338 334 356 360 360 378 366 344 364 354 330 330 328 404 422 501 483 471 477 477 448 408 388 370 362 342 356 358 360 384 370 344 334 312 312 288 284 258 232 222 207 207 197 205 
120 138 128 136 145 147 151 140 142 151 153 161 155 169 157 165 167 167 145 171 165 179 185 193 300 536 534 521 493 493 505 481 432 396 372 336 326 322 328 330 348 394 370 340 346 334 330 310 320 384 398 436 507 466 444 442 430 400 366 346 360 354 376 390 386 378 366 336 296 278 238 216 203 197 179 195 195 187 177 197 
130 145 138 128 147 138 142 155 159 140 157 161 155 173 171 167 177 195 181 199 207 207 197 212 368 558 562 542 515 507 519 481 408 392 352 334 304 324 316 352 358 380 358 338 348 346 328 320 306 382 396 410 444 440 402 400 388 392 368 384 374 376 368 342 312 288 262 248 228 232 216 189 191 203 199 193 185 199 185 183 
128 147 132 142 155 149 157 161 140 157 147 165 171 185 171 195 236 302 320 294 254 234 218 240 426 554 579 560 550 519 511 469 404 382 356 346 336 336 356 380 376 408 380 356 354 346 318 320 308 362 380 384 386 398 366 374 378 394 384 386 332 298 274 242 240 252 240 232 226 232 224 218 212 195 195 207 201 193 216 195 
124 155 126 151 151 153 155 155 155 157 149 171 171 175 195 266 424 471 464 499 477 489 384 334 424 525 568 583 566 562 521 432 382 388 374 376 378 388 370 376 378 402 414 386 364 340 330 306 314 352 394 378 364 364 354 366 374 366 342 292 262 258 258 260 254 242 250 246 252 244 250 238 226 216 218 214 220 210 226 214 
124 165 130 140 134 142 147 163 153 161 161 171 169 181 230 374 473 511 572 626 591 643 624 581 544 495 509 554 566 544 495 430 382 378 380 394 386 402 398 424 398 418 394 358 350 348 328 320 312 334 392 380 364 358 328 338 356 364 382 358 356 326 322 320 322 324 324 306 308 290 292 288 298 286 268 268 282 264 278 292 
134 153 157 157 161 147 159 145 153 149 161 167 169 177 270 408 501 566 634 628 616 616 636 638 628 493 483 503 493 473 454 420 394 398 370 374 390 408 402 432 422 390 380 352 344 356 342 326 314 318 372 376 360 376 362 350 368 388 420 440 426 432 436 432 432 434 426 394 374 368 362 360 354 348 322 332 324 334 334 320 
122 165 157 140 161 147 159 157 151 153 151 177 155 189 302 436 570 597 653 651 647 632 603 612 630 603 521 473 448 436 414 404 392 392 398 378 388 426 420 412 406 408 398 388 378 364 344 352 316 308 372 398 384 398 378 370 392 440 456 469 466 467 467 450 444 448 424 424 396 384 360 354 356 366 352 342 350 344 348 344 
128 153 138 138 147 153 147 153 151 151 159 175 167 203 290 481 576 560 628 657 649 636 605 583 624 603 536 495 497 489 469 467 434 416 410 418 432 448 432 424 428 416 418 404 390 378 362 350 330 314 360 388 384 366 370 388 410 456 473 471 469 462 446 460 464 456 436 398 364 364 328 340 346 336 334 344 336 342 342 318 
132 163 132 132 138 159 167 155 153 151 167 153 163 177 280 499 585 556 620 608 591 626 574 521 540 544 493 536 546 544 534 499 467 448 432 430 436 466 456 440 450 454 438 400 398 378 374 358 334 314 350 388 406 406 410 414 418 432 448 446 426 418 436 440 428 426 412 350 334 306 306 332 334 338 320 312 324 298 300 258 
147 159 124 157 157 153 161 159 151 151 157 155 175 169 238 428 546 527 542 519 515 568 493 378 338 404 489 560 577 576 554 532 493 466 436 422 424 432 460 462 456 462 440 400 394 386 384 374 340 324 340 408 418 400 418 398 376 398 402 396 414 390 388 378 368 356 330 306 296 294 296 316 298 282 278 246 254 230 212 214 
136 161 136 151 149 163 151 147 145 153 153 161 157 155 175 238 350 360 396 388 422 384 322 218 236 276 446 521 558 560 564 529 501 442 416 410 398 422 436 456 456 489 475 438 424 400 380 382 384 346 352 400 426 426 402 388 374 368 388 390 374 350 340 322 300 306 288 282 296 278 256 264 236 246 228 224 216 207 207 216 
132 155 145 149 155 149 149 151 147 153 157 167 157 159 165 167 163 187 197 212 210 191 199 181 201 224 378 534 532 529 529 511 513 485 444 432 422 418 416 400 406 424 446 414 410 396 386 384 370 374 364 372 434 414 390 378 366 352 360 324 302 268 268 274 254 262 270 266 262 274 260 254 232 248 220 216 224 210 205 210 
138 161 145 149 153 145 145 155 136 153 149 153 171 165 167 165 157 175 171 185 189 191 193 197 199 220 346 515 487 454 448 410 412 475 525 558 538 495 406 250 145 246 290 288 316 344 356 372 358 336 336 330 346 310 280 282 278 266 254 238 252 234 244 252 250 260 262 264 268 256 260 256 232 232 220 216 224 222 205 205 
138 157 147 142 134 140 155 161 153 153 155 157 151 177 159 171 169 167 179 175 187 195 199 193 193 222 276 448 497 460 462 424 420 467 489 515 568 570 574 493 362 328 318 314 332 330 352 378 350 344 326 298 306 274 246 226 226 236 246 232 242 248 246 258 254 264 248 278 270 262 262 248 234 230 220 224 212 220 216 210 
134 159 155 151 165 147 142 155 142 155 161 161 157 149 159 165 155 173 177 181 195 205 197 197 205 214 236 292 388 467 499 469 462 452 404 442 523 562 572 570 574 548 503 420 358 328 350 388 366 360 332 306 308 296 274 264 268 272 290 294 310 310 268 234 252 254 246 254 266 252 260 238 230 230 224 236 238 238 222 230 
130 161 149 161 165 155 153 163 155 153 161 169 169 173 157 157 177 185 181 185 189 210 205 220 214 205 226 250 260 290 332 384 400 400 382 436 438 499 513 554 548 550 566 550 491 414 382 392 370 362 348 300 334 326 312 276 332 374 396 386 392 374 312 272 244 228 218 220 254 254 258 244 254 234 238 238 232 226 234 240 
124 163 138 149 147 157 157 149 155 155 151 155 165 169 153 163 153 165 181 181 195 205 205 214 224 207 232 246 238 248 252 254 336 452 426 382 354 376 378 428 489 529 562 542 536 501 450 442 434 398 382 338 304 308 326 296 322 352 368 358 352 328 312 308 312 292 286 238 246 284 256 246 248 248 262 250 252 236 234 256 
142 167 151 149 161 161 165 157 149 140 159 173 169 163 169 165 163 167 171 179 189 214 236 280 332 328 298 294 260 250 244 268 354 462 420 416 416 404 362 340 324 416 440 475 497 491 491 483 467 362 376 328 334 354 342 310 330 328 322 318 298 320 294 310 350 350 332 304 288 326 304 306 316 326 356 340 334 294 286 294 
132 163 157 151 167 157 147 153 142 151 165 165 165 165 163 163 175 179 165 193 203 254 360 402 426 454 534 542 448 288 260 264 368 434 448 481 460 418 372 340 360 332 302 342 404 444 471 511 452 364 360 318 320 336 364 350 342 316 304 288 286 274 294 312 340 342 338 332 330 360 338 348 364 364 382 370 360 362 360 376 
142 167 163 155 159 169 171 157 153 151 157 171 169 165 151 153 169 169 169 175 201 324 471 428 491 566 612 636 614 513 406 368 477 428 450 471 448 384 356 350 356 326 330 342 360 412 464 477 422 382 370 326 302 312 344 360 342 338 306 292 312 328 300 316 354 364 374 360 354 360 354 368 362 362 374 378 388 376 388 390 
128 151 138 145 163 157 147 149 145 153 167 163 157 155 159 155 165 163 167 179 203 344 471 469 587 616 589 603 614 574 554 481 493 469 428 406 386 362 328 312 360 378 384 376 362 392 444 438 434 396 382 310 248 274 328 344 338 336 308 304 336 376 398 378 386 398 388 400 386 372 350 334 344 334 362 364 378 382 402 400 
145 175 149 147 157 163 153 165 161 159 169 171 183 159 161 155 165 167 175 189 216 368 479 521 585 608 576 530 591 576 558 499 479 501 454 434 390 346 286 260 374 414 406 376 376 376 394 454 448 402 354 276 240 258 326 358 352 348 314 350 400 408 418 414 394 392 396 412 412 392 364 364 364 364 370 380 396 386 364 346 
163 155 151 167 159 149 153 153 153 147 163 161 157 165 163 153 161 173 169 189 195 326 458 440 560 593 574 558 577 552 525 487 485 499 466 462 416 356 302 286 368 408 400 386 390 378 430 432 420 362 324 264 256 260 360 362 352 346 324 372 400 414 414 410 398 408 392 390 386 380 350 376 380 358 362 380 358 338 292 266 
149 165 149 163 145 157 142 145 140 153 161 161 157 157 157 155 163 157 159 171 189 246 284 298 390 523 577 576 538 515 483 477 481 532 450 466 448 362 288 286 348 374 390 398 390 412 428 408 364 330 288 260 266 318 350 372 350 348 338 360 412 398 410 404 424 406 398 380 384 366 356 350 362 344 356 326 296 252 246 230 
130 159 157 161 145 147 145 153 157 140 155 155 161 147 155 151 145 149 167 159 163 191 201 193 236 296 350 362 282 276 330 426 464 483 432 420 434 362 280 290 334 340 362 378 378 402 392 378 348 304 284 264 276 298 342 372 380 356 366 358 404 404 402 408 420 426 406 386 372 344 330 336 324 292 260 256 230 207 205 201 
136 163 155 167 145 149 153 147 145 165 159 147 171 157 153 163 165 159 163 175 169 189 187 177 179 187 199 203 199 226 262 422 448 467 446 416 390 372 302 272 326 328 352 378 388 368 394 390 346 304 264 266 262 290 350 336 378 378 382 386 408 424 428 432 430 424 396 364 330 308 280 274 258 226 220 216 212 199 201 191 
136 147 145 149 163 157 136 157 159 153 161 165 163 169 163 155 157 167 169 169 177 189 181 165 165 181 201 212 199 214 274 398 420 456 458 434 414 396 368 336 356 386 384 384 388 390 402 388 336 290 260 266 238 250 292 328 352 374 406 406 442 442 434 452 436 410 362 308 284 288 268 246 246 201 191 197 207 210 191 197 
134 161 157 163 161 155 138 171 140 157 147 163 167 163 173 155 171 159 175 173 179 183 181 173 177 181 191 207 207 218 266 408 432 454 464 424 424 464 436 444 420 402 432 388 388 372 366 332 304 288 268 272 252 244 280 300 318 356 370 384 424 398 390 402 358 302 270 274 278 270 270 252 242 224 216 205 212 193 199 183 
138 173 147 153 155 173 167 149 157 161 165 157 173 175 165 159 167 169 181 183 167 189 187 179 173 189 205 216 218 207 284 406 436 454 422 372 404 477 497 487 489 432 398 352 352 334 288 252 258 268 266 278 264 248 252 248 276 296 286 318 330 332 308 260 256 256 254 268 272 284 266 250 234 220 201 199 205 205 197 193 
138 153 155 151 163 161 163 157 161 151 167 169 165 173 173 159 173 173 163 183 175 189 187 175 171 175 207 236 290 312 348 386 382 372 360 338 430 477 477 464 497 501 400 298 270 266 266 246 240 240 216 230 222 232 228 187 181 199 205 228 248 246 210 218 228 228 244 268 282 266 284 256 242 236 214 207 205 203 203 197 
134 157 147 159 155 147 167 159 153 163 169 163 181 171 161 163 181 179 165 187 181 189 185 185 189 236 334 358 374 384 422 428 436 416 398 374 398 479 469 466 464 503 440 236 222 210 224 236 230 238 226 222 230 232 220 185 181 183 193 203 207 210 226 214 226 242 256 264 264 284 288 258 246 224 212 207 224 197 205 193 
151 167 153 161 140 171 175 165 167 171 179 173 193 199 191 191 189 175 179 191 185 191 199 191 222 380 418 394 404 388 410 412 404 412 400 398 396 489 489 460 454 477 442 286 195 191 203 220 234 238 244 250 258 260 254 226 207 187 193 201 203 203 218 207 232 242 238 252 274 280 274 252 252 242 214 210 216 199 201 197 
145 157 153 173 159 163 163 151 163 159 177 220 340 366 366 372 276 252 193 193 187 197 197 199 310 410 410 422 408 404 414 422 436 436 390 364 380 404 372 396 406 436 426 366 258 228 244 250 262 252 248 260 254 254 252 238 214 205 193 214 201 210 216 224 230 240 248 254 248 274 252 250 236 224 218 195 201 193 195 191 
130 167 147 153 147 165 163 175 157 163 212 344 505 558 564 572 517 440 330 246 199 195 207 250 368 388 390 400 392 370 404 382 350 370 324 248 191 276 296 306 380 400 404 364 336 296 288 300 296 282 276 272 262 266 254 226 228 228 232 224 216 210 218 214 214 222 228 242 260 256 246 248 240 224 199 199 199 210 207 201 
140 169 165 161 151 175 159 145 167 191 268 422 519 572 572 597 536 466 436 438 298 222 244 340 386 380 366 372 364 394 412 324 260 266 252 260 268 308 352 408 406 398 396 374 364 322 308 300 312 288 264 266 278 274 262 248 240 240 234 230 220 207 214 210 201 220 220 242 238 258 242 234 210 199 203 218 222 216 216 220 
130 157 161 161 153 167 159 153 155 195 294 448 552 564 589 593 523 450 469 503 426 344 358 386 388 378 352 344 362 386 316 226 205 222 224 274 286 316 344 378 400 406 404 396 390 340 292 296 318 314 292 278 272 272 272 272 254 250 238 238 230 224 238 212 210 220 228 256 240 246 248 234 230 212 216 220 224 236 224 232 
134 165 134 145 149 145 157 161 175 207 334 456 554 597 612 587 562 532 525 540 483 536 497 442 416 360 352 326 322 308 254 189 199 234 282 310 312 328 350 364 372 418 394 326 398 356 280 272 304 332 300 300 284 292 284 278 264 260 248 264 252 242 240 222 216 214 236 260 244 268 274 300 312 320 306 292 256 244 244 246 
145 159 149 157 153 161 155 155 159 216 320 412 544 595 603 608 577 591 593 585 542 560 513 446 434 384 346 300 268 270 234 153 177 242 302 332 314 320 342 352 372 412 290 24 308 364 288 254 270 318 300 302 312 288 294 284 260 278 276 256 266 246 246 228 232 224 224 242 236 234 286 336 378 392 402 398 376 350 326 288 
140 165 138 161 153 159 161 157 163 171 252 372 430 568 581 610 605 605 620 624 566 560 477 412 396 368 314 298 278 270 234 128 140 258 312 324 310 324 330 346 348 366 155 53 366 322 280 262 272 284 300 288 300 280 302 294 286 290 282 280 276 262 262 252 246 248 218 214 232 210 276 314 340 378 404 416 394 390 380 356 
134 165 149 153 163 153 159 163 157 173 201 236 386 440 495 566 560 579 601 599 562 546 440 384 354 326 306 306 272 246 201 126 149 280 310 330 318 320 314 332 338 336 84 12 278 286 254 264 274 278 266 282 298 278 282 288 288 292 300 294 282 260 264 254 270 280 260 224 232 244 294 312 336 372 400 400 412 400 390 372 
138 173 142 165 171 161 161 161 169 155 181 191 218 300 338 370 368 372 384 493 546 523 416 386 348 304 288 282 274 212 136 102 157 274 316 322 308 302 296 316 302 336 153 0 98 224 240 248 274 290 286 302 324 320 276 272 254 262 260 270 274 264 274 252 272 286 278 270 272 268 278 312 334 370 406 412 408 400 404 360 
136 169 153 157 155 153 157 169 173 169 177 177 195 210 197 210 218 201 228 290 462 485 456 406 342 304 278 268 262 187 120 110 130 232 310 310 296 294 236 171 236 318 288 207 96 159 199 216 284 284 294 310 340 334 296 256 256 252 248 248 254 254 262 260 248 258 292 300 286 286 290 306 314 342 358 372 370 352 340 304 
136 165 155 140 163 157 153 161 173 165 169 177 167 173 179 175 179 171 191 242 432 469 436 394 324 288 290 282 244 179 120 116 147 238 282 302 298 294 238 116 171 340 304 276 252 151 100 112 238 294 284 296 330 326 284 246 230 234 242 226 236 232 232 238 238 242 276 282 272 256 242 246 246 236 246 244 240 234 238 246 
136 173 161 159 155 153 171 151 167 179 167 181 167 181 179 175 159 177 181 226 394 438 412 360 316 278 302 302 246 171 138 136 171 250 278 318 304 304 306 280 312 410 338 274 272 262 187 181 256 304 304 302 304 302 282 266 248 242 226 207 201 207 207 214 238 234 252 258 274 254 258 248 232 185 181 191 189 185 201 203 
128 157 155 163 157 169 167 161 165 155 165 171 171 179 157 163 183 169 171 189 300 430 420 380 324 284 314 324 262 193 151 134 169 240 290 330 308 346 396 398 400 416 384 274 294 302 246 246 246 258 256 244 248 230 234 232 234 220 234 218 224 236 218 210 207 226 254 260 270 254 244 238 216 195 179 163 183 175 189 195 
136 175 165 145 155 169 147 155 161 159 165 165 163 173 181 159 155 177 181 173 248 420 473 406 340 276 298 340 288 205 171 110 145 216 270 308 316 366 386 400 400 396 348 290 284 298 250 242 242 244 228 218 224 236 212 236 246 236 242 236 244 248 230 226 218 216 224 248 254 254 246 218 199 169 175 153 153 151 177 177 
140 147 161 140 157 161 138 147 157 157 149 147 163 165 169 151 153 163 175 185 212 386 487 432 386 316 302 312 302 234 159 94 108 169 222 296 326 360 370 364 352 326 284 278 324 296 248 232 205 226 224 218 228 230 230 254 252 252 254 248 254 254 236 240 236 228 197 244 244 252 220 214 199 169 165 151 165 149 165 159 
126 161 130 165 155 163 155 138 145 161 157 153 155 167 165 169 161 163 163 193 203 366 483 408 376 348 330 316 316 256 187 108 136 199 201 270 320 358 342 336 316 294 272 270 324 282 248 228 201 218 205 238 246 236 242 264 266 274 258 276 272 242 246 252 236 238 218 244 250 252 224 203 201 181 171 151 159 167 173 183 
136 169 138 153 157 161 128 140 145 142 140 163 157 173 173 161 167 157 177 181 187 294 450 374 366 338 358 352 340 288 244 207 214 246 256 286 302 346 342 330 298 280 268 256 310 258 264 236 218 212 218 244 258 256 260 282 276 264 264 268 250 236 250 246 234 242 234 242 252 250 236 244 244 222 222 228 212 191 191 197 
130 165 142 165 167 155 138 140 136 138 149 159 165 161 161 155 159 167 175 191 177 242 350 380 352 352 352 362 348 336 342 310 286 266 264 280 348 360 352 318 272 262 258 276 304 252 266 260 230 222 222 232 258 254 254 256 248 262 236 238 244 240 232 226 230 236 224 218 210 199 220 214 258 282 286 312 318 286 262 230 
114 145 134 138 142 138 130 130 140 153 140 157 136 177 155 151 151 149 165 167 167 189 242 322 368 362 356 346 352 350 354 352 344 282 216 312 402 418 376 320 232 240 256 262 280 256 272 258 232 224 262 270 264 268 266 248 244 232 230 226 226 205 203 201 205 201 185 181 177 163 181 195 218 256 290 324 342 324 322 308 
116 149 132 142 145 136 142 124 138 145 120 165 151 161 149 147 153 140 161 165 149 175 185 197 272 330 332 330 322 314 342 344 428 430 356 404 432 432 384 238 163 195 210 205 216 228 224 232 232 248 308 314 328 308 278 270 240 230 212 205 187 191 197 179 187 173 163 163 145 153 173 214 244 264 306 328 348 356 368 342 
102 134 132 130 132 147 136 138 126 138 136 142 138 153 151 149 142 147 149 147 151 167 181 155 175 210 254 296 304 300 306 400 440 464 436 446 434 436 372 199 130 153 155 157 179 183 185 201 212 218 258 292 300 294 274 290 256 242 201 195 175 181 179 175 181 151 159 167 165 155 201 230 272 308 338 358 372 392 382 356 
104 130 122 120 122 132 118 116 130 134 124 142 145 138 155 157 136 159 136 138 167 159 147 161 161 155 153 207 254 304 324 432 458 467 454 458 460 420 286 147 126 130 151 155 167 173 175 183 187 177 183 195 216 236 246 238 250 236 195 177 169 165 175 171 157 140 167 161 165 183 199 248 304 322 368 370 374 384 376 384 
94 142 124 114 110 138 118 116 124 120 118 124 124 122 136 145 140 136 136 149 157 183 181 163 163 151 179 177 199 212 290 372 452 456 456 479 454 386 185 151 130 140 171 179 181 191 187 185 185 185 165 161 183 175 171 183 189 193 177 171 167 151 157 151 161 159 159 155 151 149 171 199 266 302 350 358 374 370 366 378 


