P2
80 60
530
6 37 21 4 25 31 47 37 43 39 51 35 33 35 57 45 51 53 43 33 41 39 47 37 47 47 67 104 237 311 287 383 475 452 273 104 71 65 79 90 136 249 353 420 410 373 313 203 124 112 88 75 75 71 75 81 81 86 94 92 96 90 100 118 108 108 100 92 106 100 98 96 100 77 69 71 77 71 81 108 
23 29 2 29 35 37 39 43 35 55 39 45 37 49 51 55 51 49 49 29 35 39 39 45 57 59 130 245 323 309 265 305 401 283 110 88 79 49 63 59 73 94 128 203 329 395 369 271 140 114 83 75 86 83 73 79 77 79 94 81 100 92 98 100 116 108 106 114 114 94 90 75 69 53 67 63 65 55 67 94 
4 29 41 18 35 35 33 37 45 43 53 39 61 45 43 39 47 47 35 45 31 47 53 49 73 120 293 341 343 315 275 291 273 151 118 94 96 65 63 69 90 86 102 126 173 297 353 301 159 130 124 116 102 98 104 98 94 102 106 90 92 90 110 112 110 100 104 92 114 106 98 96 81 79 69 73 63 63 65 102 
14 27 27 14 12 29 33 37 25 47 55 43 43 37 53 57 49 49 35 49 59 43 71 65 138 273 375 375 337 293 261 231 241 225 233 199 175 163 148 159 140 136 128 132 193 317 327 255 199 225 229 225 213 205 197 173 167 144 144 124 116 126 136 130 126 116 104 106 120 114 112 104 118 100 108 94 108 112 102 108 
0 31 16 27 31 37 37 37 37 45 53 55 57 51 57 49 51 53 49 63 55 63 71 94 251 359 385 375 297 177 171 205 307 337 369 347 287 255 247 263 273 269 221 189 267 293 275 221 215 291 267 279 243 227 211 203 209 201 221 219 205 209 221 213 197 203 191 173 187 197 203 175 199 195 197 191 227 221 211 183 
10 39 27 25 35 41 41 49 51 51 57 47 49 55 69 69 57 73 47 61 63 81 83 142 359 383 369 375 301 227 225 327 375 375 381 347 317 311 313 345 359 343 317 255 257 259 237 233 219 299 289 253 245 249 239 225 195 199 213 233 231 221 233 231 221 241 245 235 249 247 235 229 251 255 251 255 269 259 283 235 
31 33 16 16 37 41 55 53 75 49 65 53 45 53 71 55 67 57 53 55 73 83 86 173 420 436 371 377 349 367 407 399 407 377 369 349 321 337 345 371 367 363 341 323 319 271 231 215 217 261 253 245 267 263 255 243 219 225 237 239 247 249 251 239 245 255 261 245 243 231 221 233 265 287 293 257 271 269 275 255 
25 35 39 41 49 47 57 61 65 61 65 59 67 71 63 77 71 61 61 63 96 75 92 163 401 408 387 403 387 412 422 428 391 369 359 353 355 345 335 357 363 373 343 357 353 293 267 253 259 253 279 289 293 271 269 249 239 259 261 263 249 251 267 257 251 269 255 241 237 223 207 213 239 265 281 269 259 255 253 267 
12 33 33 23 39 53 57 57 55 69 77 59 65 53 81 86 83 77 69 88 77 88 96 171 375 389 416 430 422 430 450 468 393 367 347 339 339 359 331 333 365 373 359 355 343 289 289 267 253 265 291 299 299 301 287 293 305 287 281 245 259 237 261 279 261 275 265 253 257 245 233 215 231 245 271 251 257 263 249 263 
18 33 35 33 37 61 57 53 55 65 65 86 75 67 86 116 136 134 118 100 110 108 100 189 327 391 422 446 454 454 446 452 389 361 339 347 335 353 371 363 361 377 343 317 325 289 287 279 263 273 289 311 311 317 323 323 325 319 295 287 283 281 279 293 297 311 313 299 285 291 257 237 249 259 269 267 271 259 271 267 
12 31 33 33 53 59 59 53 79 71 57 59 65 86 148 255 295 321 315 309 205 155 155 249 267 319 440 458 440 458 440 438 373 359 349 353 361 349 375 377 383 355 323 285 285 279 267 259 245 265 285 285 295 303 321 311 323 335 339 337 329 319 313 327 317 331 349 331 301 289 285 297 281 299 285 281 281 271 269 263 
33 39 39 29 45 59 63 65 59 67 86 86 92 108 287 365 379 468 468 477 426 391 369 442 438 347 424 440 432 426 418 412 375 377 365 357 385 359 363 359 361 335 319 293 281 265 257 261 263 263 271 289 267 283 285 301 307 333 331 329 325 341 335 369 345 367 353 349 333 323 305 283 277 289 259 253 253 259 261 269 
31 37 33 47 41 65 67 71 61 71 73 73 92 183 365 426 436 489 501 507 489 462 487 517 526 470 397 410 399 389 377 363 347 373 387 373 391 377 361 363 361 339 335 317 297 273 257 257 229 253 253 295 263 253 269 311 313 309 341 359 371 369 391 381 381 371 353 345 333 309 279 263 269 267 263 255 229 227 211 209 
14 37 35 41 49 75 59 71 71 75 73 71 104 247 407 426 418 487 452 450 487 468 495 524 530 495 373 383 375 363 355 317 289 359 391 410 383 379 373 371 375 359 339 325 319 309 277 273 245 259 251 285 265 287 305 301 289 349 379 401 403 401 375 383 379 383 369 337 301 277 235 245 255 237 233 213 191 144 144 136 
25 45 39 45 45 53 65 55 59 63 67 73 114 253 393 481 426 454 420 438 446 428 440 487 511 503 446 395 349 353 351 357 319 365 399 426 397 371 349 353 353 347 333 323 337 303 281 261 257 255 237 277 303 309 301 301 335 375 401 399 408 371 355 379 361 361 321 295 271 253 209 211 229 199 151 151 124 116 130 122 
14 43 27 37 47 61 53 57 53 61 77 61 96 229 333 432 426 456 434 446 440 414 387 420 470 485 428 412 393 385 369 357 333 353 391 403 391 395 363 355 383 371 349 333 319 299 279 265 267 253 229 271 301 311 325 367 359 387 381 381 357 343 355 329 315 293 275 249 215 181 163 171 151 148 128 128 120 100 112 114 
33 51 39 37 33 65 59 59 59 73 51 55 73 157 275 375 412 501 475 470 460 371 237 211 305 343 319 410 416 454 438 420 369 367 365 355 371 373 377 383 383 397 373 341 325 301 299 297 275 273 251 295 333 353 365 359 331 327 351 341 335 319 299 253 241 227 207 187 193 173 165 159 151 157 136 130 122 118 126 122 
12 51 47 29 39 59 55 57 61 83 73 49 79 86 179 293 347 351 341 325 279 181 120 114 183 235 263 363 412 452 468 458 412 379 341 341 347 351 389 373 381 393 397 359 359 359 331 313 317 321 255 311 349 351 329 321 281 281 319 315 287 237 213 193 175 175 179 177 185 191 171 169 155 155 130 120 120 126 138 134 
21 43 53 49 49 51 63 65 69 73 77 53 73 83 96 110 128 130 112 110 108 100 92 110 122 148 243 335 373 410 428 440 403 373 329 341 379 357 365 371 408 412 407 357 357 351 351 331 321 287 249 309 333 315 295 281 243 243 213 189 161 163 165 177 161 169 159 175 181 169 181 159 151 159 140 122 126 128 140 132 
27 61 63 53 67 67 55 73 71 67 77 69 67 79 77 96 96 96 92 100 106 114 98 108 126 138 209 399 355 377 371 347 205 102 237 359 436 418 365 331 414 454 452 395 321 277 291 301 265 253 229 237 227 203 179 161 142 153 157 155 146 155 157 169 161 169 177 161 179 179 171 161 167 157 142 132 144 151 146 151 
18 45 43 59 51 57 55 57 63 67 77 86 75 65 86 90 77 92 83 92 100 112 106 118 120 128 151 305 407 377 345 311 163 207 297 383 369 307 307 387 414 432 405 275 253 229 249 261 247 243 219 195 193 171 161 151 144 134 144 134 142 151 148 175 167 169 171 167 177 161 183 151 161 144 132 120 128 140 146 134 
25 53 67 45 55 63 67 63 65 83 61 69 88 67 92 88 86 94 79 100 96 118 102 114 128 120 134 161 225 291 315 351 325 317 343 371 327 295 347 408 418 414 428 416 297 231 245 249 235 225 193 197 185 177 163 155 142 136 153 161 153 165 175 211 195 185 169 187 167 167 163 179 169 159 142 148 138 146 148 146 
27 61 51 49 51 59 59 59 73 69 57 75 71 65 83 92 94 104 81 88 90 108 100 108 112 118 122 132 153 161 161 205 301 359 351 351 321 319 357 414 420 436 432 436 349 217 235 243 235 229 213 213 207 207 189 189 185 183 205 219 225 297 277 249 231 207 191 169 173 179 179 173 161 151 155 151 146 146 144 161 
31 55 79 55 61 63 71 67 57 55 65 71 88 65 83 90 81 92 73 108 92 102 108 112 110 120 120 130 138 138 159 187 299 307 329 337 341 339 355 395 420 422 432 426 357 229 225 253 237 247 243 255 251 217 223 233 265 245 295 291 303 343 367 309 269 249 233 175 181 185 173 179 179 169 179 173 165 163 157 169 
23 55 57 65 63 71 67 67 65 61 81 73 79 86 83 83 69 86 86 94 104 110 106 114 124 116 126 134 140 151 165 191 325 319 297 291 293 341 355 395 416 434 444 444 367 211 227 263 265 273 247 303 269 239 243 283 295 321 317 307 305 307 341 329 277 255 247 221 223 233 247 243 243 237 277 279 285 265 233 207 
49 67 55 45 61 73 75 77 77 73 83 67 59 73 83 92 83 96 81 92 98 108 116 130 153 142 175 167 163 153 153 225 355 319 295 289 311 315 329 381 422 438 452 432 367 209 233 255 265 253 265 335 271 259 243 301 297 323 311 299 297 273 299 281 287 277 261 237 253 285 259 273 275 269 309 301 299 291 301 277 
35 61 49 49 57 57 71 61 65 75 86 61 71 69 77 88 73 90 83 90 86 126 144 199 249 245 343 377 291 191 185 263 327 317 321 333 357 323 333 331 387 436 460 412 339 227 227 249 267 251 257 319 259 299 247 301 295 321 311 273 261 253 241 253 285 293 275 249 273 279 269 267 261 233 267 275 269 275 279 287 
37 61 55 61 51 63 57 71 77 75 83 71 43 65 73 86 88 71 88 90 94 153 223 289 331 428 520 528 471 391 363 371 333 311 303 293 267 229 307 335 353 418 428 387 325 243 251 233 253 287 245 297 281 299 285 283 297 275 275 261 233 253 241 261 267 307 285 269 281 297 273 255 229 203 243 253 257 265 255 281 
29 45 61 63 67 61 51 69 67 67 59 65 61 71 75 67 83 77 75 79 88 171 305 323 424 487 487 520 509 454 458 420 341 281 307 233 151 108 219 337 357 397 410 369 283 241 257 247 259 287 273 295 259 275 281 291 283 283 279 277 241 267 243 263 271 297 295 283 291 323 295 233 215 223 251 251 269 281 287 285 
25 41 57 55 53 63 51 59 55 73 71 45 61 51 69 67 59 63 65 65 86 173 279 399 471 477 450 462 485 434 448 428 337 269 269 179 106 65 155 327 355 373 399 323 257 241 243 245 239 289 291 269 243 235 269 273 281 277 265 259 277 263 253 235 251 265 277 269 265 271 277 257 245 237 247 275 281 291 299 293 
18 47 49 53 69 53 53 61 67 83 86 55 57 73 69 71 83 63 67 67 104 179 295 385 466 462 454 473 483 420 426 428 323 295 277 159 124 86 138 343 359 361 371 265 223 221 225 223 223 265 295 263 241 243 285 273 283 281 259 279 271 251 245 225 229 239 247 257 223 235 261 275 283 273 279 295 291 307 311 283 
21 43 53 43 53 61 63 69 71 65 79 57 77 63 77 88 77 81 71 77 98 157 223 267 379 436 481 505 462 405 416 399 299 309 285 185 177 175 205 367 361 375 367 241 219 193 197 209 229 247 293 277 235 253 287 285 273 271 247 271 273 255 253 263 243 229 239 241 223 235 273 281 289 273 273 273 283 293 285 251 
43 63 47 51 35 43 59 71 67 67 59 75 75 67 79 98 73 79 88 79 86 112 140 179 219 279 375 383 311 237 209 293 297 289 257 245 247 227 265 371 377 385 347 207 195 181 179 219 247 249 287 293 231 245 283 261 261 255 243 263 275 269 279 261 267 249 221 227 193 217 257 263 255 259 255 261 241 223 221 161 
33 67 69 53 49 73 67 65 63 79 65 51 67 61 77 81 86 81 79 83 92 112 106 126 132 132 148 151 146 155 153 241 321 295 267 251 253 253 325 391 371 397 379 237 189 163 195 227 237 227 287 273 227 255 261 249 257 247 243 263 299 279 295 301 283 247 233 221 185 203 239 231 221 199 209 191 163 151 161 138 
37 61 47 51 59 75 77 65 83 79 73 77 86 81 86 88 92 102 79 83 88 90 96 112 110 102 122 120 132 155 153 259 371 293 251 231 239 283 347 389 397 403 408 257 179 148 189 217 227 227 281 253 217 231 245 257 247 253 261 261 279 299 289 279 259 245 231 195 171 163 203 199 173 159 132 130 132 134 116 130 
33 67 59 51 65 73 65 75 73 83 83 73 75 81 77 88 79 94 94 86 92 106 104 104 112 114 116 124 130 132 151 229 333 309 307 337 337 355 365 389 403 397 403 275 183 171 195 243 245 223 273 243 219 203 233 215 219 235 229 235 245 225 251 235 237 221 195 169 144 153 169 181 163 140 122 116 120 106 122 132 
35 49 35 53 49 53 57 83 71 77 71 69 71 77 79 92 77 83 86 83 96 90 92 96 120 110 110 116 118 136 148 205 327 351 327 339 327 341 381 379 399 407 412 241 161 148 207 237 237 213 271 257 237 217 205 203 221 211 213 215 215 205 197 175 175 173 167 132 144 132 157 161 167 144 124 116 122 106 112 132 
27 53 55 51 41 77 65 81 71 83 86 69 79 75 81 83 83 90 73 77 94 100 98 102 112 114 110 114 114 128 140 177 285 347 339 317 273 329 377 381 393 397 387 187 169 151 187 191 199 193 231 231 223 213 217 195 197 197 191 181 193 173 153 153 142 148 151 165 165 165 161 161 157 140 126 120 120 98 104 122 
35 43 63 49 47 69 79 79 79 67 73 67 81 71 88 90 81 92 86 83 88 92 94 98 114 102 120 108 114 122 126 144 185 221 291 271 253 297 385 403 377 367 265 144 153 134 161 173 179 187 163 169 175 175 189 171 153 148 132 140 132 128 124 124 132 148 159 151 167 148 159 163 136 126 120 116 126 128 128 140 
45 49 55 55 45 71 69 63 73 61 71 83 81 77 81 94 83 69 96 79 83 108 96 104 100 106 102 122 114 132 128 146 159 163 179 189 169 189 275 287 215 142 132 132 151 151 167 167 185 171 159 157 165 165 163 165 148 136 116 128 122 118 130 126 136 155 169 157 155 161 157 153 134 146 124 140 130 128 134 142 
39 55 51 59 39 71 61 57 67 67 77 67 59 67 83 81 75 86 75 79 90 92 90 88 98 102 112 110 120 124 130 124 146 138 148 151 134 120 146 144 120 116 124 132 142 138 153 175 191 171 161 163 165 165 171 151 138 128 126 114 124 134 153 167 195 239 223 171 161 159 157 136 130 120 118 126 128 128 138 144 
33 65 55 33 53 69 61 59 73 65 71 57 75 73 94 83 92 88 88 88 92 94 94 94 102 106 108 108 120 132 130 138 134 136 157 148 136 128 120 116 102 122 140 138 163 157 163 181 167 177 161 151 157 157 153 153 151 144 159 187 195 227 237 235 251 275 259 227 191 177 148 142 116 118 124 134 116 122 159 144 
37 49 53 35 61 51 65 59 63 69 71 71 73 71 86 102 126 124 86 98 96 94 90 98 110 102 108 110 110 120 132 155 128 144 153 134 134 140 126 138 157 207 235 257 277 259 259 261 287 333 261 171 165 163 189 203 249 219 227 235 245 221 225 231 243 267 251 241 235 197 165 134 128 122 108 120 122 134 144 138 
37 47 59 47 55 55 88 65 59 65 69 71 71 83 122 229 341 329 275 209 153 112 100 98 104 98 106 112 124 134 169 217 207 195 159 146 163 191 239 257 297 327 343 331 371 353 349 381 432 442 410 289 255 239 235 223 219 207 223 209 221 197 199 213 225 233 259 265 243 239 219 175 132 116 112 124 126 136 136 138 
37 57 61 49 39 59 71 79 71 73 75 65 88 110 247 371 428 410 434 440 397 343 163 114 116 96 118 126 134 215 269 279 235 185 128 155 215 249 263 285 259 265 277 269 301 291 353 414 448 460 381 349 331 293 221 201 193 191 187 177 195 195 193 213 199 213 253 267 281 271 271 255 193 136 122 102 108 118 138 132 
35 61 59 47 65 63 83 77 73 59 88 77 94 161 295 410 424 454 485 475 450 442 371 183 124 114 118 148 217 289 247 201 177 140 116 195 229 231 219 225 189 215 245 237 253 259 291 377 426 450 351 347 321 291 219 167 185 181 181 177 189 189 199 183 187 175 239 283 289 295 281 287 289 227 148 116 120 122 138 148 
14 53 65 63 61 73 79 69 67 81 81 83 96 173 303 385 424 448 487 452 387 420 395 331 207 161 183 253 275 251 203 171 126 86 132 197 231 241 233 207 203 213 225 227 277 277 315 359 412 407 369 337 303 243 189 159 161 157 177 175 191 175 187 185 175 157 217 285 293 287 295 287 287 265 251 155 134 128 146 130 
37 43 57 47 59 73 79 77 81 88 71 88 90 181 329 377 405 454 495 462 371 407 395 363 391 301 285 293 269 229 181 114 45 83 146 215 223 235 211 213 213 231 263 283 315 313 351 351 377 407 343 327 263 225 195 155 153 163 191 189 185 183 191 173 161 144 183 229 273 291 305 301 289 269 281 259 189 130 136 157 
21 55 55 55 57 73 77 69 79 71 79 67 86 140 323 393 395 438 485 448 446 442 416 399 410 339 287 265 249 227 159 100 51 83 153 221 231 227 231 235 237 289 327 321 339 329 301 267 259 243 211 197 187 189 197 167 181 171 195 191 181 187 179 163 167 146 155 175 217 273 317 307 285 267 255 269 239 189 148 157 
37 63 69 57 61 61 75 81 75 88 88 77 86 98 183 291 357 448 462 462 468 485 454 426 353 287 265 241 247 249 181 98 53 69 161 217 251 251 279 323 351 335 313 315 333 271 227 219 207 193 148 146 165 183 199 201 191 179 179 199 179 191 169 183 159 155 155 173 185 229 295 293 297 263 267 263 255 239 193 171 
18 59 51 47 61 67 79 61 71 75 69 86 75 79 102 130 159 231 323 359 357 405 424 383 325 275 235 191 211 227 191 90 43 79 193 237 283 343 367 397 375 325 303 309 287 217 209 203 197 189 163 193 183 193 201 195 177 167 179 163 187 173 161 157 144 140 120 116 161 161 199 235 255 253 263 265 253 255 225 195 
33 47 53 47 59 79 57 55 61 79 67 57 81 63 88 83 88 116 124 130 122 167 275 317 323 281 239 211 203 225 209 130 59 134 247 319 389 397 379 375 353 313 301 303 247 209 197 207 217 201 185 193 199 195 207 215 187 163 151 153 148 140 126 144 124 120 114 96 106 126 161 175 231 259 269 259 265 255 243 213 
33 61 55 49 65 63 61 61 71 73 69 57 81 65 81 77 83 106 86 88 94 130 207 313 307 271 227 223 225 237 209 179 199 277 377 385 393 377 363 347 311 301 265 255 217 213 209 205 217 221 215 219 215 199 213 197 171 163 153 151 144 132 116 118 108 108 98 88 88 86 124 173 231 257 285 293 269 263 257 229 
45 53 67 57 53 63 71 55 61 71 73 67 69 73 71 92 77 75 83 65 100 118 207 301 307 277 285 271 263 277 253 311 365 377 399 385 345 351 341 329 291 271 255 235 231 201 213 207 207 239 241 237 225 213 201 201 185 155 140 136 124 112 112 128 108 106 112 132 118 104 148 195 237 293 307 311 305 275 265 243 
37 65 51 49 71 63 61 55 83 75 57 75 65 77 77 83 73 88 69 77 88 120 231 327 311 307 311 299 301 283 313 405 401 407 393 351 327 325 301 269 259 249 263 237 221 205 215 203 213 245 229 215 209 189 183 169 165 138 126 118 122 122 114 114 124 124 124 132 142 126 181 217 259 291 301 305 313 281 265 253 
33 37 47 21 33 39 53 47 71 55 61 65 51 57 61 73 59 63 67 63 77 110 243 307 333 331 319 313 291 265 295 393 391 373 345 313 291 279 247 235 231 219 255 207 215 207 207 211 215 231 223 217 213 201 175 155 163 128 118 118 106 106 106 114 108 104 120 144 161 163 207 249 255 271 275 267 275 257 235 201 
16 55 45 41 43 45 43 41 55 57 55 63 61 45 75 55 55 63 63 57 63 100 189 307 339 327 305 297 277 255 271 381 377 335 313 271 239 237 227 233 213 221 231 199 219 219 221 223 229 235 243 229 227 219 191 173 153 136 124 128 98 94 102 110 106 114 114 151 140 144 179 215 243 217 243 237 217 199 181 136 
2 35 31 31 33 33 37 35 53 43 47 39 51 55 57 65 61 51 51 65 67 86 132 263 319 319 295 285 261 243 237 319 327 287 247 225 183 201 221 217 231 233 229 207 247 225 243 233 241 241 229 249 243 221 199 175 142 112 106 100 106 92 88 100 86 88 94 100 94 102 106 98 144 140 159 146 134 130 138 157 
6 27 49 18 29 37 18 25 29 41 27 49 39 49 53 53 59 51 53 39 43 59 59 112 201 263 273 267 237 221 215 237 249 207 163 159 136 148 183 235 239 249 239 233 253 249 271 261 251 225 191 191 177 159 142 124 106 104 108 92 88 83 77 79 67 75 79 69 88 79 79 73 71 108 108 104 110 100 138 134 
21 33 29 21 37 39 51 29 27 33 33 43 57 33 59 47 57 57 75 49 69 65 55 75 83 124 136 177 146 136 146 151 142 94 73 57 47 51 67 112 155 183 197 211 219 225 239 223 205 185 148 151 142 126 114 116 90 90 94 73 69 67 63 61 65 71 69 79 96 71 98 100 102 130 126 130 134 132 148 153 


