P2
80 60
839
105 120 126 109 116 107 116 103 116 97 95 89 101 77 79 107 103 91 111 103 128 309 525 472 503 519 533 541 546 558 546 521 537 519 523 519 507 490 496 501 515 519 517 496 517 496 446 385 353 345 371 375 357 347 440 464 462 462 470 450 498 548 566 552 537 521 539 527 501 486 484 474 456 315 239 239 245 239 255 247 
105 109 103 114 111 114 97 101 93 95 103 89 75 95 85 101 91 85 93 109 142 279 509 511 519 525 527 529 529 548 548 511 525 490 478 494 472 482 488 486 496 515 499 511 501 507 440 395 369 357 379 357 341 355 438 460 444 444 442 433 452 488 546 550 546 541 525 521 499 482 466 462 436 319 235 249 237 247 237 245 
107 103 130 118 107 118 105 91 85 83 105 93 91 107 87 89 91 99 69 107 116 253 476 535 541 550 539 517 523 533 558 527 523 474 464 472 468 478 490 492 490 523 509 511 513 517 442 401 367 355 367 363 341 355 450 456 446 444 446 429 450 442 484 525 539 545 525 513 496 472 476 466 433 313 223 257 239 245 249 263 
103 111 130 124 118 111 107 120 99 93 103 91 101 111 95 97 111 93 87 118 140 279 476 537 554 548 562 517 509 531 550 529 486 460 470 456 462 470 474 490 496 517 525 525 554 546 476 423 369 359 357 355 335 357 454 442 444 436 436 423 435 419 435 476 525 545 529 513 513 488 482 456 438 341 229 217 241 253 255 253 
97 101 126 122 118 93 116 132 85 81 91 87 105 116 101 109 101 91 107 142 215 277 405 507 574 558 552 543 517 541 535 509 470 468 452 460 476 472 478 490 499 523 533 535 576 554 525 468 423 355 357 339 331 349 442 438 438 425 423 415 433 409 427 436 474 513 539 535 515 494 478 460 438 343 217 225 247 257 271 257 
109 116 111 126 114 99 126 114 101 87 97 114 120 128 138 132 132 122 122 166 329 337 295 440 545 545 579 570 548 554 533 492 472 460 462 470 466 480 482 488 486 511 519 533 546 537 517 501 462 397 367 327 297 315 405 452 423 425 413 423 466 425 427 435 429 442 501 539 541 505 486 458 450 353 221 247 251 261 259 241 
109 107 118 103 122 124 87 111 126 105 134 174 203 239 311 329 263 231 217 297 472 601 431 399 505 543 568 568 552 552 539 496 484 476 472 466 472 480 480 488 494 499 511 499 517 511 484 480 456 444 393 315 289 299 363 411 425 419 413 409 433 413 427 385 287 277 407 496 525 509 480 468 440 349 239 255 241 251 249 239 
97 109 101 109 122 126 116 126 122 164 253 377 448 525 591 607 550 533 545 601 680 700 669 568 482 501 543 552 543 529 515 482 474 464 464 468 476 494 498 482 474 490 476 490 488 503 474 460 446 448 440 357 313 313 323 395 395 387 395 399 435 399 440 409 339 255 297 397 464 476 478 466 452 373 241 267 245 245 251 243 
105 99 114 118 107 138 109 101 152 277 411 517 639 670 647 643 647 645 630 641 667 709 680 653 507 484 486 517 484 494 507 476 462 470 446 468 472 498 494 501 478 480 482 464 438 431 409 427 438 440 444 379 323 305 319 321 345 353 349 345 391 403 436 425 417 397 361 373 415 444 458 454 448 363 255 247 229 245 247 221 
99 111 120 122 118 111 120 130 221 349 548 643 688 661 643 641 628 661 647 630 678 692 684 661 593 505 429 403 417 458 480 482 472 468 458 468 486 496 509 496 478 488 466 452 446 427 425 419 436 442 440 367 337 281 311 307 333 331 333 361 401 395 417 419 403 373 375 403 419 415 442 417 446 377 225 231 225 237 231 213 
109 101 122 114 116 111 97 128 245 411 667 690 680 663 649 612 525 554 651 620 657 670 680 674 649 519 468 407 369 440 478 496 480 464 452 458 490 486 505 494 488 480 466 429 438 433 409 401 421 429 401 355 339 307 311 301 343 347 355 363 415 397 407 407 389 381 381 377 413 440 442 446 417 365 233 227 215 213 217 223 
101 103 118 105 103 105 118 156 247 460 682 676 692 709 603 572 505 507 622 643 603 601 605 614 634 499 537 509 499 509 545 523 496 474 454 462 464 482 490 470 462 470 462 446 454 427 421 403 387 365 361 355 343 333 325 321 373 393 387 393 407 385 399 389 373 393 395 427 488 470 442 442 415 381 243 229 225 219 217 221 
105 109 114 109 114 107 111 148 245 401 665 690 655 705 618 574 539 587 614 603 470 321 321 405 466 401 541 570 564 576 572 541 521 466 462 462 452 470 488 501 480 482 474 456 460 436 393 413 395 359 357 355 349 335 343 333 375 403 381 377 377 365 365 363 381 387 423 435 433 409 403 413 435 403 225 209 207 211 205 203 
99 105 109 97 91 105 114 128 227 321 570 692 643 674 653 614 610 601 647 539 271 128 170 289 315 375 523 545 568 574 577 543 529 482 474 456 458 456 468 484 462 466 462 482 480 460 427 436 401 365 357 369 361 359 337 349 389 411 385 367 361 345 337 363 375 393 401 413 387 393 413 429 429 403 237 231 217 223 209 223 
105 95 116 105 111 103 124 116 168 275 411 643 641 639 643 610 626 593 448 261 114 103 87 162 195 307 494 529 546 572 576 556 543 517 470 466 460 454 448 454 466 452 456 464 498 474 446 435 417 369 375 377 371 347 345 335 363 409 385 353 339 297 329 367 385 381 385 385 391 393 395 391 387 353 237 225 223 217 201 201 
91 107 101 91 103 101 91 105 120 197 297 509 622 583 564 478 379 283 160 105 89 77 59 73 101 207 484 513 529 546 543 531 541 503 478 468 474 462 480 474 450 411 415 417 331 381 393 419 419 381 373 367 363 345 349 351 395 423 403 339 349 305 313 359 387 379 367 373 381 383 361 349 345 327 237 197 195 185 207 201 
107 99 109 93 107 97 87 103 85 114 199 281 399 421 345 174 124 81 63 77 75 77 69 71 73 122 393 503 492 507 525 511 541 523 492 484 474 490 511 511 490 411 351 311 297 295 253 271 289 209 239 311 339 329 307 319 377 417 387 335 331 277 301 331 361 365 361 355 325 311 319 313 313 245 203 164 172 176 158 201 
103 103 99 93 89 93 101 95 103 101 69 114 130 148 97 83 85 77 69 79 77 63 71 59 63 75 181 393 446 470 492 509 525 523 492 468 482 482 498 525 529 525 545 517 478 442 373 311 223 174 181 185 251 273 325 319 309 329 345 225 309 265 261 279 299 297 279 249 207 176 168 181 164 132 215 164 172 205 213 235 
73 109 118 97 105 91 95 103 77 81 89 69 67 87 91 81 69 67 73 63 75 71 63 65 77 75 89 140 247 391 472 505 521 482 446 411 435 435 468 501 517 560 612 564 537 581 572 566 513 355 265 291 367 389 440 255 263 403 371 225 193 148 130 126 122 120 93 83 59 69 77 67 75 114 221 233 239 263 259 263 
95 99 99 85 101 99 89 95 79 67 61 67 63 79 75 77 57 75 69 63 67 59 53 55 65 61 67 81 81 146 233 317 387 379 381 365 355 291 307 369 433 494 550 533 541 552 562 585 572 558 503 521 517 498 446 371 413 436 203 118 95 57 73 51 73 49 51 51 49 42 51 57 55 101 203 257 255 249 251 253 
101 101 114 105 105 93 81 95 83 73 67 67 71 75 73 75 79 65 73 75 59 71 63 63 55 73 75 61 55 71 71 105 132 158 215 233 217 126 95 103 156 223 325 411 468 498 496 503 519 513 562 546 509 494 486 498 468 379 144 101 89 55 65 65 57 30 40 34 32 38 46 40 51 87 176 239 235 229 215 185 
87 109 116 97 95 91 89 89 89 81 67 67 61 83 79 91 69 69 75 69 69 71 57 44 53 69 67 61 57 61 67 71 81 73 79 81 111 85 73 51 53 61 87 136 251 321 301 325 341 337 407 431 442 546 545 499 460 245 95 73 61 49 34 42 36 40 22 20 18 20 26 28 55 65 132 164 176 158 148 140 
85 93 99 101 97 89 93 81 75 71 79 75 71 79 63 71 67 63 65 73 57 81 51 67 44 61 51 59 63 75 59 77 77 71 67 65 67 53 53 38 26 32 36 49 40 79 67 101 95 97 124 144 327 589 593 574 331 120 75 77 63 44 36 34 38 40 24 8 6 12 12 20 57 75 101 91 95 111 111 97 
87 91 101 105 103 77 85 77 75 83 65 69 91 83 75 65 71 75 63 67 57 79 38 51 42 61 55 57 63 71 59 67 87 57 63 59 51 44 44 46 32 34 34 57 55 65 51 59 69 61 95 132 311 591 622 515 174 118 77 69 65 34 34 34 26 12 22 6 6 8 16 26 63 73 107 101 93 95 105 103 
83 99 101 103 99 93 85 93 75 81 77 67 75 77 67 71 69 63 61 71 77 71 57 57 61 65 65 49 55 61 57 61 63 59 53 57 61 49 46 32 32 34 40 53 49 42 51 65 69 59 116 140 419 610 608 389 138 85 75 79 63 36 40 32 34 16 10 26 4 0 10 14 46 77 142 140 101 114 95 91 
89 103 101 91 95 85 89 87 81 81 67 65 67 83 75 67 71 61 73 67 69 67 61 67 59 55 71 67 55 65 57 53 67 63 49 75 53 49 59 44 32 34 36 32 34 42 49 61 59 77 124 295 574 632 589 219 101 71 87 63 49 30 28 26 26 18 14 8 2 2 0 24 40 63 183 217 142 116 109 103 
91 97 101 95 95 83 83 85 73 67 65 67 65 69 75 71 69 63 63 75 63 81 59 65 57 49 61 59 46 57 61 59 69 57 61 49 59 53 49 38 32 28 38 38 44 51 44 71 83 107 297 556 641 647 383 146 93 95 73 63 61 34 38 46 28 24 8 12 8 4 2 20 24 67 211 283 225 158 128 101 
89 91 111 81 83 83 77 95 75 73 79 55 65 83 67 71 61 75 59 67 61 71 46 46 51 57 59 61 55 61 59 59 67 65 53 53 61 57 40 44 32 38 34 55 55 55 57 63 99 251 550 630 624 509 213 122 97 99 67 57 51 44 44 40 32 22 14 6 8 16 20 24 40 73 213 295 275 251 160 111 
85 91 103 89 77 85 75 83 55 69 79 69 69 81 71 67 69 59 61 65 59 63 49 55 59 53 67 59 57 63 63 63 71 63 61 61 57 51 38 42 36 40 32 40 40 65 71 134 345 546 632 634 605 321 134 107 95 85 75 57 69 53 40 36 30 14 40 28 28 36 46 51 51 83 209 293 285 277 247 197 
79 85 99 85 71 49 77 83 71 77 69 71 71 75 75 71 63 53 65 75 69 77 57 57 55 63 59 63 57 61 63 63 57 75 71 59 63 38 42 53 42 30 36 59 69 81 166 397 535 595 632 608 464 179 152 120 91 87 71 79 91 59 61 67 55 55 97 111 162 183 199 217 199 237 241 297 291 285 267 215 
87 93 101 85 81 77 65 77 69 81 67 73 51 69 69 63 77 89 109 120 118 103 89 79 91 75 75 71 65 61 61 67 63 89 89 114 128 136 126 154 158 170 209 128 128 291 470 505 585 601 624 576 325 361 401 144 107 93 85 89 126 156 189 185 201 225 237 237 257 251 291 313 331 359 265 279 295 277 287 241 
97 103 89 89 93 69 79 87 83 71 79 61 75 73 63 87 99 160 271 361 436 369 309 305 345 245 148 85 73 59 77 83 122 235 367 438 417 407 405 405 409 440 427 419 458 562 566 527 591 564 589 552 552 568 464 283 235 130 162 209 273 269 277 273 277 291 295 287 289 287 327 355 369 387 299 307 299 291 277 249 
89 95 101 101 99 89 91 83 75 83 77 69 71 91 79 81 140 331 492 560 605 591 605 618 630 614 507 259 95 71 93 118 253 409 519 482 450 431 436 444 442 448 456 478 482 492 496 494 505 558 607 612 630 620 603 494 309 277 273 303 331 299 329 313 321 315 303 303 317 331 371 377 377 407 337 331 297 287 267 237 
81 95 87 103 95 85 81 77 67 95 77 71 75 97 75 107 227 367 554 667 692 665 632 636 614 605 630 550 301 209 189 333 413 417 452 421 367 369 415 444 466 470 476 486 470 470 468 474 472 541 608 632 622 608 607 521 345 303 275 333 387 411 397 355 333 335 325 309 327 345 373 387 381 403 335 343 303 297 279 249 
81 83 89 97 79 83 67 87 83 91 77 71 71 91 93 132 295 397 560 698 713 698 655 639 581 546 665 624 472 377 446 515 519 462 409 409 421 415 454 472 470 476 474 474 464 468 472 488 545 603 614 639 624 583 525 425 341 303 275 327 435 417 381 331 333 323 347 329 331 365 367 397 395 425 335 339 321 301 289 267 
95 93 103 93 95 87 91 83 89 95 101 79 79 89 105 168 331 423 564 612 614 700 709 688 579 589 690 636 494 460 608 486 425 468 509 507 507 503 492 490 478 468 454 450 460 458 446 494 599 612 643 647 630 591 572 429 345 287 281 323 391 363 375 351 341 353 345 357 365 381 387 391 399 425 335 353 321 307 311 283 
101 101 101 99 93 87 101 91 103 99 105 103 97 114 99 150 293 425 556 605 601 667 665 680 696 713 698 638 486 468 494 397 468 550 560 546 505 480 466 438 438 425 403 403 421 431 446 529 632 639 661 655 595 515 436 381 343 303 275 337 409 413 387 361 359 351 347 353 361 377 393 389 407 413 327 323 313 323 311 273 
93 99 99 91 85 89 95 107 114 158 207 273 315 265 174 156 231 343 488 632 645 655 620 655 669 682 694 634 488 427 379 403 423 486 513 484 456 407 375 357 329 327 357 369 397 419 438 509 612 639 634 572 499 421 413 355 337 317 297 387 413 389 387 359 375 363 361 353 349 371 371 387 387 411 299 297 293 315 303 277 
101 101 97 89 77 93 101 128 164 287 397 616 723 672 531 375 245 271 373 548 645 641 632 636 647 645 641 639 460 446 438 419 429 407 456 486 484 476 436 349 323 327 351 377 385 399 399 425 498 558 543 464 431 405 377 357 351 323 353 387 403 369 369 369 367 365 367 359 345 355 369 363 371 375 277 247 263 271 297 257 
99 107 107 97 97 99 105 134 265 381 442 723 799 797 749 674 531 393 299 421 558 593 589 599 599 601 614 490 442 427 440 423 417 423 466 503 531 543 486 377 343 331 343 373 391 403 413 421 456 527 468 413 407 387 385 371 365 381 379 381 383 361 381 369 371 361 365 363 349 359 363 353 355 353 251 247 241 249 283 253 
75 105 111 89 87 109 120 191 341 405 466 778 824 824 814 787 746 703 521 243 289 335 369 369 301 285 321 442 494 466 478 440 427 450 486 472 472 474 411 363 369 365 345 363 373 397 411 446 486 488 425 411 405 385 393 419 438 397 379 373 373 347 363 381 361 375 371 363 357 339 347 349 353 357 257 249 241 243 265 271 
95 93 109 97 99 83 122 239 391 433 460 682 770 835 810 801 799 774 680 501 176 118 128 111 116 146 245 541 543 507 505 468 454 446 458 462 450 466 431 361 367 403 385 385 401 433 460 446 442 436 423 415 419 405 395 464 435 407 363 365 353 357 355 367 367 359 363 361 337 345 341 349 371 369 251 247 237 255 249 247 
105 107 111 89 99 101 124 285 419 527 517 601 709 820 839 827 822 780 753 672 470 154 91 91 99 162 425 560 556 545 527 480 468 450 472 474 484 476 507 405 405 429 407 427 468 454 446 429 435 421 454 442 401 403 409 429 448 401 391 415 403 393 393 391 383 391 403 391 369 349 357 355 359 361 245 251 243 263 233 247 
107 99 103 95 95 109 128 293 436 577 707 726 744 784 824 824 805 766 774 730 622 339 124 109 183 379 562 564 537 527 521 494 478 474 470 446 450 499 552 460 474 470 452 482 474 464 436 450 456 421 464 446 395 444 401 403 499 413 413 425 421 438 427 433 431 425 444 435 413 385 375 383 357 359 267 239 239 253 241 237 
89 91 101 93 103 91 105 289 444 572 747 822 816 822 803 787 787 778 793 757 663 661 466 333 482 570 572 541 496 474 468 452 440 413 411 427 466 507 507 494 468 450 454 454 456 450 450 444 431 383 399 369 369 423 389 389 452 427 415 419 419 415 409 403 427 419 435 423 417 407 407 409 385 369 265 225 221 233 215 223 
93 105 97 99 103 101 109 243 415 521 628 730 816 805 799 803 791 810 776 746 734 778 751 620 579 566 574 517 468 484 499 458 425 399 438 509 523 515 490 464 435 431 438 433 436 444 425 421 421 385 385 357 349 407 369 403 433 403 379 397 375 383 383 381 381 363 373 369 381 413 440 417 391 389 253 239 217 225 261 233 
81 91 107 95 85 103 111 181 345 436 546 632 751 770 786 786 772 797 776 780 799 799 726 591 560 537 486 458 499 509 527 476 421 460 521 517 525 519 501 464 436 423 423 415 421 427 405 415 413 387 387 353 361 409 365 395 407 373 381 381 361 359 363 363 363 373 361 353 385 405 438 436 448 403 259 239 209 223 227 225 
97 97 95 91 97 97 97 124 219 319 440 558 665 728 711 732 757 765 784 816 814 789 653 576 556 505 496 505 498 499 507 474 421 462 462 464 523 519 515 478 456 436 433 438 440 442 423 431 431 401 395 347 365 415 375 379 405 389 359 353 347 327 331 347 365 369 369 407 425 431 425 454 480 423 263 239 207 219 231 235 
97 97 101 124 109 95 103 93 111 187 249 347 498 597 599 667 686 751 818 814 786 726 620 601 546 523 554 525 478 468 492 482 478 470 427 417 517 529 505 494 476 454 433 440 446 435 417 436 442 421 367 331 383 419 359 389 456 446 415 413 405 365 323 305 341 371 391 440 448 433 436 478 494 427 257 251 209 225 227 221 
95 93 105 97 111 111 107 103 93 124 144 156 241 289 309 333 317 375 665 812 778 661 622 591 564 552 523 484 448 458 470 501 517 448 409 405 486 535 531 509 503 499 478 470 460 448 433 436 454 399 355 323 385 399 363 355 427 429 411 429 452 429 379 339 335 373 442 494 458 442 460 490 484 440 265 239 215 225 231 225 
105 109 97 107 107 99 99 89 91 105 122 109 114 134 140 130 132 176 319 703 678 620 601 558 545 523 488 466 454 454 464 499 466 415 419 395 431 519 545 546 539 537 513 484 464 460 433 427 464 401 339 333 409 373 343 331 385 387 373 397 411 429 393 387 371 393 474 496 468 470 472 454 446 415 247 239 205 205 231 237 
103 89 111 87 97 101 97 85 103 95 103 99 101 101 107 101 99 107 185 482 577 597 576 558 537 525 517 509 505 486 478 474 429 399 379 367 373 452 515 517 529 527 525 494 470 450 450 450 454 371 309 345 387 363 339 341 405 385 361 369 395 407 403 417 399 399 448 478 478 476 468 464 438 365 239 245 209 191 205 219 
89 105 93 91 95 91 103 85 87 99 107 103 97 107 97 87 87 103 144 401 562 585 570 554 539 552 558 545 523 486 460 440 379 347 353 345 353 417 476 478 501 519 523 509 454 462 474 470 458 355 297 371 393 343 325 349 383 369 339 373 377 385 411 429 435 435 435 440 452 470 472 462 379 257 225 237 209 199 215 211 
97 107 105 101 114 97 99 93 93 95 101 93 95 103 97 87 93 97 148 391 550 568 556 558 550 554 554 507 474 454 458 442 385 337 365 383 367 401 468 511 505 521 525 509 456 470 499 484 436 325 301 387 405 353 329 375 365 359 351 379 367 389 435 446 472 492 474 446 440 446 454 442 341 249 219 237 221 197 209 205 
101 111 111 107 111 97 85 95 103 99 105 101 97 93 95 83 103 99 164 488 572 579 529 499 482 474 470 450 436 446 458 458 429 415 379 399 395 395 454 515 525 521 519 488 438 498 503 454 385 307 313 450 415 369 343 379 377 375 379 399 393 415 448 460 486 498 482 450 450 435 442 433 335 241 229 251 251 203 207 213 
93 97 105 97 101 97 89 95 79 91 99 111 89 93 97 101 93 116 297 505 492 486 490 486 505 521 541 562 564 562 546 533 478 419 427 387 423 425 442 525 545 519 521 454 452 498 472 421 343 299 361 515 440 355 367 385 369 375 395 405 401 419 411 427 431 444 438 419 431 444 454 458 347 249 235 259 247 211 215 205 
99 105 114 99 109 93 95 91 83 87 95 103 97 99 89 91 83 130 381 509 535 577 562 560 543 537 562 595 618 636 636 608 554 421 435 409 407 429 433 515 546 529 490 450 436 484 446 371 327 303 409 527 468 367 379 389 373 399 419 425 397 409 405 419 429 421 438 458 474 484 478 472 341 245 231 263 277 237 221 207 
83 89 122 91 103 109 91 67 79 97 114 99 105 89 97 101 99 126 389 550 560 552 537 507 501 501 517 531 546 593 620 630 597 427 440 456 427 425 438 494 529 517 484 456 446 450 385 363 329 327 466 537 472 387 401 399 383 395 425 429 391 387 405 438 458 440 456 472 476 470 442 433 309 261 239 255 281 251 235 207 
95 109 111 95 103 101 97 91 89 89 101 97 107 103 101 105 99 128 353 529 529 537 499 476 466 452 470 498 492 511 525 560 537 436 423 446 474 444 442 478 519 513 494 466 423 413 387 425 371 345 492 533 466 419 431 413 391 383 403 409 409 407 438 450 442 429 425 456 448 438 431 423 305 273 241 275 285 259 219 209 
99 105 101 95 97 89 89 83 83 81 91 93 107 111 91 97 93 116 193 413 499 482 464 456 448 446 480 490 486 507 515 507 468 466 488 476 466 470 456 470 505 499 482 448 401 379 435 464 397 377 501 511 456 458 458 421 383 379 397 381 397 423 446 452 427 419 403 411 413 421 431 395 281 273 233 269 287 257 227 213 


