P2
80 60
528
24 28 24 20 24 28 36 28 40 42 36 34 38 32 40 26 44 40 34 34 26 18 32 16 34 26 40 50 73 59 42 32 24 34 44 55 36 30 36 30 32 48 59 85 83 87 107 91 95 89 71 65 63 59 55 69 59 73 63 63 91 105 105 101 101 107 105 83 87 79 57 69 75 55 42 57 73 75 63 87 
24 26 0 22 34 32 36 34 20 44 34 36 44 30 28 34 42 42 38 34 34 22 26 28 30 36 36 53 57 50 32 40 20 55 48 67 55 40 44 26 46 32 61 65 77 91 105 103 87 93 77 69 57 57 55 55 63 59 63 61 89 103 99 93 101 99 97 105 101 77 61 55 53 53 36 32 59 61 48 69 
12 32 12 20 36 30 36 36 34 34 42 28 61 32 28 30 38 44 26 36 26 26 30 30 30 50 32 48 67 59 32 48 44 71 61 69 75 57 71 71 69 65 65 83 87 91 97 109 97 89 81 75 63 65 69 65 63 81 61 69 81 97 101 105 93 99 103 79 83 71 71 63 67 48 55 46 63 77 57 65 
8 20 24 24 22 28 26 32 30 46 38 42 30 28 32 30 42 34 36 34 44 22 38 40 53 61 63 87 63 79 69 71 79 144 156 126 136 168 186 216 224 176 120 109 118 109 118 120 113 99 79 69 79 75 77 73 77 79 77 73 91 87 93 101 101 103 93 81 87 77 75 67 99 91 111 103 132 160 146 132 
22 22 8 22 32 34 26 36 40 36 38 44 63 46 46 34 55 46 42 44 42 34 40 50 57 71 69 83 95 126 140 196 206 304 377 360 362 372 372 403 415 407 326 224 148 126 132 132 122 111 93 93 79 81 81 97 79 79 77 97 105 101 107 105 93 118 118 103 105 118 142 144 198 216 224 226 234 220 206 202 
20 28 8 16 34 36 32 38 38 44 38 50 38 55 55 42 48 55 50 53 50 57 53 44 53 61 93 150 232 294 290 270 232 352 454 460 431 419 421 427 466 450 464 448 395 250 160 132 126 109 97 99 91 101 95 109 95 109 87 101 109 113 134 126 136 144 144 150 184 212 218 230 258 246 254 262 258 238 256 226 
40 30 22 32 38 34 48 50 59 46 53 44 40 38 57 36 50 55 38 57 61 50 61 57 67 99 174 362 425 423 377 346 288 332 456 476 446 435 387 348 368 425 462 485 497 458 348 194 180 148 150 170 174 160 164 178 164 172 148 154 158 196 208 202 216 218 206 222 242 230 222 230 268 272 254 236 266 254 248 230 
32 36 24 34 40 30 48 46 46 57 50 50 61 57 40 57 59 46 55 61 77 44 69 57 65 130 350 452 470 446 397 405 350 362 425 489 437 381 270 264 244 330 417 472 474 466 458 364 276 234 228 246 248 236 224 222 202 212 206 206 214 222 238 234 224 244 242 226 224 208 202 228 258 256 228 226 228 238 236 212 
18 32 38 20 40 46 53 55 48 55 63 50 61 48 50 55 63 53 50 75 57 59 69 79 93 172 442 458 476 429 370 385 368 417 437 460 413 375 350 330 356 364 366 405 411 427 460 423 370 306 270 282 260 246 240 228 200 214 212 220 228 238 250 260 244 256 250 220 224 198 200 212 240 238 222 192 188 184 162 166 
26 28 20 20 36 48 57 46 50 53 55 65 65 67 59 55 65 50 59 67 75 57 65 69 103 188 444 482 454 419 346 340 393 454 429 437 399 387 383 379 372 413 377 374 352 348 387 391 372 366 360 348 328 312 296 262 236 226 240 246 254 262 264 252 244 254 262 234 212 198 182 172 184 178 152 113 97 115 118 91 
8 28 32 28 50 46 59 42 57 55 50 42 61 44 57 44 65 57 65 69 61 59 71 69 101 202 437 495 484 442 383 413 417 442 433 399 399 401 377 395 413 399 358 334 312 304 314 324 360 383 381 372 358 336 346 302 290 252 258 254 260 264 268 250 256 254 258 242 212 172 146 146 118 136 120 101 105 107 87 89 
18 32 30 30 40 57 53 61 48 50 59 63 65 53 57 59 73 71 89 77 75 77 79 77 134 228 417 503 495 484 442 466 438 419 415 407 381 383 385 385 391 385 366 338 304 282 284 260 256 276 379 358 356 340 326 316 298 300 290 262 272 278 272 276 282 274 230 194 172 144 134 128 124 120 97 97 93 111 89 105 
38 34 34 50 44 57 48 59 40 53 63 57 63 57 61 65 93 105 136 128 154 103 118 122 182 272 310 472 511 509 476 468 444 437 429 393 415 423 397 403 385 370 366 334 288 266 266 232 230 206 252 352 338 328 328 332 310 328 320 284 246 252 252 218 204 176 152 150 146 144 132 126 138 138 115 113 103 105 107 113 
14 40 28 46 53 59 59 61 55 59 57 50 59 73 71 67 144 258 352 352 403 348 344 320 375 478 401 482 522 528 484 464 444 448 421 437 423 446 415 403 397 385 354 320 280 268 260 242 218 202 204 282 308 308 296 308 302 326 314 286 236 212 170 142 142 154 158 142 144 152 146 152 154 154 144 134 138 130 128 132 
32 42 28 42 46 44 48 55 57 42 57 61 77 59 63 130 272 395 499 497 511 487 485 470 507 516 435 446 499 515 495 478 444 438 415 437 427 429 419 397 375 368 328 316 284 264 248 236 206 192 210 284 290 278 272 286 298 320 324 280 234 214 220 224 226 230 212 198 220 224 234 244 232 236 192 206 204 196 190 180 
20 46 22 42 36 53 48 55 44 57 59 63 69 55 83 180 346 448 503 491 511 513 501 487 515 515 495 409 409 448 452 450 456 456 415 425 417 437 413 395 374 346 308 296 272 254 242 226 200 182 200 266 272 250 260 288 306 340 330 332 320 308 344 324 340 358 358 320 292 280 270 280 284 276 248 242 220 220 212 208 
28 55 34 40 40 59 50 55 46 50 42 59 69 71 93 226 346 437 462 491 480 480 470 446 480 489 476 458 411 397 381 435 427 462 409 403 401 425 413 415 374 336 324 294 264 254 256 222 194 186 196 260 264 256 266 292 316 346 370 368 377 372 375 366 383 366 364 322 306 286 268 270 286 290 264 250 248 248 230 214 
30 55 53 53 34 61 48 40 55 63 59 42 65 67 122 236 385 411 425 454 423 437 444 405 401 409 423 437 484 458 431 452 415 423 399 409 413 448 429 423 370 342 330 310 278 256 246 224 206 198 186 244 248 268 280 318 332 370 381 403 395 387 383 387 366 366 362 312 290 268 246 264 266 278 236 212 234 246 234 222 
28 42 46 42 34 44 61 48 61 65 79 42 61 79 95 188 340 444 411 419 401 419 423 387 296 188 290 346 489 515 511 493 433 413 403 405 405 421 427 429 403 381 360 336 300 288 268 242 210 214 196 248 286 290 324 344 352 379 377 383 389 374 379 375 374 354 326 286 258 228 258 254 234 228 208 168 172 172 162 154 
30 44 42 48 63 50 48 65 65 73 75 57 63 81 77 124 248 366 403 415 415 407 370 252 152 146 176 276 448 495 516 516 480 435 419 409 405 450 431 409 415 393 381 348 320 286 274 270 218 204 194 238 296 314 330 342 344 374 360 354 350 346 348 336 326 316 320 250 222 200 208 212 190 164 150 130 146 146 120 156 
36 55 36 48 55 63 50 53 50 65 67 75 67 71 73 91 134 220 310 282 210 182 148 111 118 132 142 210 458 487 493 491 456 444 405 401 395 403 401 383 387 399 403 383 372 322 320 298 256 244 228 266 326 326 326 348 338 348 346 332 330 314 292 274 244 242 240 198 184 162 168 142 148 138 109 111 113 138 124 124 
30 55 53 44 61 61 61 36 59 73 55 61 87 69 73 69 95 87 120 120 91 91 97 111 120 122 138 174 368 482 431 431 385 413 405 370 399 429 425 438 452 470 468 478 478 472 454 427 374 322 280 288 328 352 358 360 350 322 326 288 238 198 186 184 178 168 180 184 156 152 136 154 140 148 115 118 128 136 126 122 
38 55 42 55 57 42 53 61 65 69 67 67 71 63 67 73 85 83 75 87 87 91 93 99 95 103 120 144 206 324 377 413 407 399 368 318 395 427 431 425 470 480 468 487 482 474 495 484 456 435 409 383 391 395 379 372 336 302 192 150 132 148 152 156 160 164 180 164 162 154 158 142 134 138 126 115 134 134 120 122 
34 57 63 48 67 61 75 59 53 55 71 63 83 69 69 73 69 69 73 93 95 85 95 95 97 115 122 128 154 162 192 292 385 370 310 292 306 324 328 330 403 423 454 472 474 478 454 431 440 415 387 372 381 387 375 368 332 270 164 138 160 166 158 154 152 160 168 154 168 158 144 152 134 132 126 122 128 144 109 115 
44 63 46 53 61 53 69 59 57 65 73 65 63 69 73 67 65 71 75 75 91 79 97 95 105 105 122 122 138 134 144 254 332 296 278 272 254 264 232 250 318 328 377 405 425 381 274 260 260 262 252 252 232 250 300 334 314 270 246 260 262 230 188 184 170 150 154 152 154 164 154 152 148 146 128 115 140 134 126 113 
38 53 38 46 57 75 67 65 65 71 71 67 59 71 63 71 75 73 77 81 87 75 97 107 107 109 130 140 142 132 146 298 308 284 288 262 262 298 264 252 260 224 254 375 403 344 242 286 268 302 248 246 228 212 228 272 300 290 288 292 290 262 228 200 186 172 148 148 152 168 154 148 148 152 142 122 118 136 120 128 
42 65 42 59 59 57 63 57 50 71 75 71 61 67 59 73 69 81 81 83 87 87 109 113 115 111 122 128 128 148 174 304 316 304 330 354 314 264 238 246 248 226 246 338 399 354 272 292 268 300 248 226 226 228 212 246 274 284 284 270 256 228 194 200 192 170 146 146 168 180 178 176 180 192 172 144 132 142 118 132 
44 59 48 57 55 59 61 67 61 67 73 73 53 59 61 71 81 67 79 85 93 134 186 218 226 274 294 184 160 158 210 316 320 328 407 393 374 342 300 236 236 216 220 370 448 448 393 310 286 290 234 220 222 242 236 248 270 242 236 232 212 208 200 206 188 180 146 150 188 234 230 240 252 292 302 276 230 212 148 142 
38 46 48 59 61 55 46 59 61 73 53 67 65 71 55 55 71 69 69 77 154 234 284 320 401 472 464 391 310 258 294 312 330 302 348 330 318 300 294 306 338 268 276 379 452 468 468 387 320 276 258 218 252 240 252 254 236 228 218 218 222 216 206 204 174 164 146 160 198 264 258 246 250 302 308 290 300 296 256 210 
36 50 44 55 55 61 44 53 46 71 69 44 55 57 57 55 57 57 71 93 222 324 322 415 489 499 524 478 444 417 346 314 354 300 256 236 228 224 222 278 350 334 348 401 452 474 476 454 407 322 262 214 240 248 254 254 230 230 224 220 226 222 212 202 164 162 150 152 208 236 234 230 214 242 246 264 260 284 266 252 
44 44 36 48 61 48 55 50 57 75 67 63 55 63 59 59 75 57 75 103 278 348 401 489 487 476 495 456 440 431 354 334 368 280 212 174 148 176 210 268 306 304 322 387 448 452 470 456 431 330 252 206 238 250 272 262 242 226 224 244 244 228 222 220 190 178 162 170 216 244 206 210 210 222 226 222 234 220 236 246 
28 42 46 40 48 48 53 73 59 57 57 53 71 53 61 67 69 79 71 107 262 352 423 474 478 484 480 431 411 405 346 354 375 292 222 192 170 138 196 238 266 280 304 372 429 425 454 460 393 302 250 222 272 240 258 278 232 246 256 256 256 256 242 264 256 218 190 190 280 290 280 282 226 188 174 178 182 190 202 220 
28 63 32 50 46 50 59 71 59 67 63 63 71 73 59 79 65 71 81 97 214 342 358 429 474 472 507 435 423 417 316 360 385 314 262 224 206 186 182 230 248 288 306 324 344 328 437 460 413 310 220 256 242 244 278 276 264 282 280 280 260 252 242 270 300 290 268 300 350 397 403 348 240 154 128 115 109 132 142 162 
28 48 42 55 61 59 59 71 69 71 67 53 53 55 53 75 79 63 83 89 132 224 254 304 403 466 437 362 304 298 318 356 346 310 284 252 218 192 150 204 204 234 234 246 218 232 368 346 342 254 236 222 250 258 280 268 266 274 260 272 264 234 228 258 292 286 276 328 383 411 405 360 232 126 111 107 97 113 103 120 
36 48 36 38 57 59 73 55 79 75 67 71 71 73 73 69 77 83 81 87 95 99 136 154 184 194 206 166 180 188 290 330 320 322 304 288 266 210 172 166 162 188 206 186 198 208 252 250 320 278 248 228 246 254 294 274 274 276 288 266 276 268 232 260 276 292 272 278 389 389 395 300 176 140 109 89 103 115 85 105 
28 59 46 44 55 57 69 71 63 79 73 71 75 71 67 71 79 65 81 77 81 91 99 97 103 109 118 132 134 144 240 316 296 310 306 306 290 250 198 176 192 180 172 196 206 230 236 234 342 292 246 230 242 242 290 272 268 282 272 272 264 256 236 254 288 290 256 216 250 276 242 182 154 138 101 95 109 99 103 87 
42 44 42 48 40 48 57 73 71 71 61 69 63 77 73 69 75 69 73 79 81 67 85 87 101 101 109 118 124 138 238 324 272 270 272 280 290 264 238 224 212 196 206 206 218 234 240 248 320 272 246 236 222 238 268 268 274 278 294 272 260 260 250 240 264 264 218 152 176 162 162 154 144 132 103 83 103 97 89 87 
22 50 46 46 50 79 61 73 61 55 75 63 77 77 71 65 83 75 71 75 85 67 71 85 97 109 105 115 111 134 200 350 286 294 260 252 238 256 256 248 226 204 206 238 248 238 252 258 290 272 236 252 232 260 302 242 208 230 252 276 268 264 244 236 224 198 176 168 168 158 154 148 136 128 105 97 91 101 99 95 
42 50 46 44 69 73 69 79 83 65 61 73 75 69 73 75 73 75 83 81 79 71 87 79 99 105 118 113 120 115 156 326 288 234 170 34 53 158 218 282 244 184 164 196 196 208 236 258 254 254 248 308 377 405 393 308 200 192 200 244 234 206 196 166 162 160 158 156 156 148 128 134 124 126 97 93 111 126 115 130 
40 55 48 61 48 65 69 57 63 63 65 79 69 71 71 73 71 75 93 81 83 85 93 99 97 97 97 120 120 122 122 230 296 272 188 132 136 214 226 274 310 258 224 202 230 246 242 244 256 282 366 399 482 442 452 433 296 248 234 144 134 140 164 172 190 216 214 182 158 154 138 130 115 138 103 113 120 150 136 130 
32 59 48 38 38 55 63 63 53 67 65 61 46 71 73 71 73 81 75 71 81 75 83 81 91 105 113 105 124 113 109 122 204 266 286 248 242 238 230 292 360 340 354 334 344 344 340 354 368 389 444 456 452 446 466 429 344 336 330 256 220 230 248 238 248 272 266 214 162 156 136 118 109 122 111 105 126 132 132 115 
34 57 40 36 53 61 57 57 73 57 69 59 67 65 79 83 105 107 109 81 91 75 97 79 93 99 105 111 109 109 111 109 115 172 232 258 252 232 224 350 374 377 377 387 409 409 405 415 399 409 442 460 448 456 456 389 314 292 280 268 258 256 242 232 232 258 258 254 212 198 136 109 101 111 105 99 109 128 118 138 
26 53 48 36 55 46 63 55 63 59 67 57 59 69 91 174 310 383 316 190 103 77 89 85 87 105 97 105 111 115 99 109 113 164 158 186 202 208 202 240 310 356 366 393 403 413 421 421 393 385 421 395 374 370 354 302 278 250 226 240 232 224 224 220 222 242 252 240 232 202 182 134 107 111 97 95 109 132 111 126 
30 48 48 42 53 46 73 67 42 69 63 59 75 93 182 302 437 409 417 429 364 238 136 93 95 93 105 111 122 124 174 244 226 192 118 154 202 242 254 274 300 298 294 298 306 312 362 362 304 268 274 274 244 234 230 226 230 220 212 208 216 216 216 220 220 220 256 266 248 232 222 188 142 118 99 91 107 136 126 115 
36 50 46 46 38 59 63 67 69 73 63 65 77 120 254 375 423 444 462 507 468 429 348 152 95 87 103 122 150 236 270 246 200 140 122 200 254 272 266 270 240 248 250 266 278 252 258 274 248 210 212 216 194 176 176 188 196 198 188 184 196 210 204 206 192 196 238 268 260 250 266 262 226 160 113 81 107 126 115 109 
40 48 48 61 53 55 67 57 63 57 81 69 75 130 274 366 387 458 480 470 456 437 425 296 120 113 115 188 268 268 206 184 150 124 124 184 242 262 226 228 208 204 210 230 214 198 212 242 222 212 228 222 210 196 174 166 194 194 180 190 202 206 212 180 186 168 230 272 264 270 268 258 264 260 182 111 97 115 122 124 
28 48 55 57 61 69 75 55 71 77 73 73 75 130 280 385 397 423 491 470 446 409 409 370 266 214 238 314 292 228 176 152 115 101 122 188 232 256 238 232 202 196 196 216 206 202 208 204 194 204 222 242 222 198 188 164 184 190 196 190 198 204 200 190 168 164 178 232 256 268 274 264 272 266 264 184 132 120 120 107 
32 48 44 32 59 65 69 67 61 79 67 77 69 101 254 393 423 429 482 466 446 429 413 387 415 360 328 308 252 222 170 118 71 103 140 210 222 240 234 226 204 192 198 192 190 192 196 184 158 170 186 210 198 204 186 168 182 184 204 200 202 208 204 182 164 156 166 178 234 264 280 280 264 250 270 258 188 134 113 122 
24 50 46 40 55 67 59 50 63 67 67 69 69 85 138 262 374 444 484 442 472 478 460 413 405 364 306 290 264 238 180 136 81 95 164 210 228 228 234 216 194 190 170 192 192 188 170 150 144 156 164 186 198 198 202 178 168 166 180 192 198 212 184 176 168 156 162 158 166 228 286 280 256 264 240 260 246 196 124 115 
30 57 59 55 59 59 71 71 59 77 75 71 79 71 85 103 144 246 358 431 446 450 462 411 352 318 302 290 282 256 206 142 95 97 176 206 236 238 232 228 204 184 170 194 200 178 174 152 174 188 176 192 218 210 224 234 226 212 208 218 190 196 196 192 166 154 150 170 162 168 234 252 254 270 246 236 254 232 174 140 
26 46 32 50 59 59 63 50 46 83 73 73 67 69 63 85 85 97 154 196 194 238 364 393 348 322 286 254 254 240 204 166 130 118 150 202 210 232 220 212 200 180 168 206 184 178 154 158 188 190 192 188 200 200 222 216 204 196 186 180 196 186 186 172 150 132 118 109 140 130 156 182 214 222 224 236 252 236 202 176 
38 55 46 38 65 75 50 61 44 69 63 50 61 57 69 69 69 85 89 91 99 107 230 336 354 286 240 242 228 226 206 198 154 160 156 212 228 232 210 202 210 176 216 188 182 174 156 182 192 186 208 196 198 202 198 206 188 184 172 184 182 182 140 138 111 109 101 75 85 97 134 136 184 234 238 238 246 242 226 212 
40 61 55 46 53 57 48 69 69 65 61 61 63 53 61 69 59 77 57 81 75 89 186 322 316 264 240 240 220 206 188 210 166 164 214 238 238 246 214 224 196 206 164 186 184 184 186 186 176 190 234 214 200 186 192 204 192 176 164 160 148 144 120 113 109 109 95 83 79 59 99 154 220 252 270 260 248 244 216 212 
44 48 61 48 53 69 59 53 48 61 61 63 67 61 63 65 71 65 69 65 73 89 174 306 300 262 256 248 224 206 176 190 180 180 230 236 232 224 212 218 220 188 172 204 188 182 192 182 184 218 220 208 200 192 184 198 180 154 134 138 128 130 124 120 107 97 113 124 93 85 130 166 220 290 302 288 290 256 232 230 
30 57 55 42 57 63 46 50 65 65 55 57 73 73 63 71 63 67 65 75 67 89 176 328 298 260 258 246 188 132 180 186 192 196 230 246 232 208 214 218 236 184 194 200 182 176 190 200 200 226 216 200 192 176 180 168 158 138 115 128 132 134 124 115 113 122 124 128 128 118 154 190 238 290 278 278 298 268 240 220 
30 20 44 16 28 42 38 44 59 55 40 53 53 61 42 61 59 59 59 65 57 75 196 296 288 270 258 262 196 95 77 146 180 206 226 236 202 206 184 228 204 190 208 204 188 194 196 190 192 212 220 202 178 176 164 152 154 132 126 113 111 109 111 118 111 103 126 138 154 148 192 220 242 252 256 252 256 238 210 198 
18 40 34 38 42 48 40 36 38 61 40 50 50 46 44 38 59 57 55 50 48 81 164 296 276 278 276 274 242 196 158 178 178 188 210 210 202 196 192 218 198 200 210 210 190 212 212 192 182 198 214 198 182 184 158 146 132 126 101 111 85 93 91 95 109 109 109 140 132 142 166 192 206 212 218 204 200 188 162 136 
16 36 16 28 32 22 32 30 36 48 38 32 34 44 40 42 59 46 40 50 57 63 126 276 318 266 248 256 230 202 182 182 202 230 186 178 176 190 208 216 228 210 214 222 212 202 216 208 218 226 254 288 288 272 218 130 105 95 81 91 89 95 79 97 83 75 93 79 91 85 85 87 107 132 124 120 115 128 93 111 
2 26 30 12 24 20 18 22 30 32 22 32 18 30 42 34 53 38 40 36 50 38 71 142 282 306 294 272 244 224 202 204 262 340 314 246 164 140 162 204 226 228 236 240 246 248 272 278 302 298 300 308 304 286 198 115 79 69 71 53 63 75 61 65 69 67 77 55 79 55 57 48 59 101 89 85 91 93 105 103 
18 32 8 8 28 28 32 32 20 24 28 30 38 38 34 38 50 50 63 57 61 48 69 75 142 242 292 296 288 266 234 232 316 379 374 379 330 288 272 296 306 332 320 328 332 314 338 320 320 320 304 322 338 294 142 95 67 55 57 48 50 77 59 61 59 59 59 55 67 63 67 79 75 118 113 111 115 128 126 109 


