P2
80 60
793
254 276 272 256 268 274 285 282 285 293 287 282 293 297 282 272 289 287 278 280 291 287 270 276 287 289 354 484 606 665 643 647 623 674 702 710 702 669 611 500 480 568 594 588 623 651 665 669 653 623 661 684 682 688 694 617 508 432 438 430 420 426 430 438 426 428 410 396 406 420 432 430 452 454 442 450 460 464 462 442 
258 246 254 276 278 262 285 278 260 280 289 282 282 289 278 293 280 285 278 282 276 268 260 250 274 311 514 627 641 667 659 625 615 629 667 645 606 524 484 446 476 504 492 500 504 532 558 602 641 643 670 653 639 653 655 606 558 468 444 414 428 426 434 434 430 422 398 388 376 378 412 440 448 440 450 456 442 440 452 458 
254 268 258 280 287 254 268 278 280 280 274 278 270 272 272 276 268 260 274 285 276 272 256 266 297 374 594 635 635 670 635 629 606 582 568 546 520 488 472 482 498 512 512 494 474 468 462 468 466 518 607 653 629 627 625 586 536 472 456 440 446 428 434 440 448 428 426 410 396 396 420 452 456 456 454 456 442 450 454 430 
260 264 256 272 278 268 274 282 266 274 287 274 282 278 291 274 268 276 276 285 274 280 266 276 299 374 609 641 613 604 586 613 609 580 538 514 500 470 460 470 488 498 520 474 468 462 474 456 432 438 504 534 592 578 540 518 478 478 458 450 462 462 450 466 480 486 486 454 448 430 450 440 464 436 418 412 410 406 396 400 
246 274 258 260 289 268 272 266 274 285 278 270 280 282 274 280 278 282 274 285 280 280 264 289 307 394 619 684 645 623 606 606 617 562 510 498 480 458 462 474 486 500 490 466 448 454 458 442 430 426 466 508 502 502 490 474 478 494 492 474 484 484 506 524 530 524 506 456 422 416 396 392 390 376 372 366 382 392 438 420 
258 258 256 278 285 268 276 272 280 291 295 280 278 299 280 289 299 291 276 297 305 303 293 297 311 400 625 690 674 670 639 643 635 568 514 492 488 472 474 502 512 536 516 462 458 460 432 442 428 412 466 486 482 488 496 500 508 524 514 508 498 494 490 498 504 488 460 444 416 430 444 436 436 428 430 450 450 452 462 448 
272 264 260 268 280 268 278 299 291 280 293 280 289 293 287 289 303 301 309 321 339 337 319 333 396 496 600 669 702 717 696 690 649 596 518 518 516 500 498 538 554 544 496 474 454 470 444 434 426 414 486 486 468 484 484 490 500 530 532 538 524 534 524 534 544 552 522 504 486 490 486 474 470 480 478 462 452 476 476 460 
256 266 258 266 297 270 282 301 274 297 285 282 297 313 293 301 301 327 394 438 510 536 478 462 494 663 721 651 704 700 704 696 663 580 522 530 550 538 554 568 574 580 518 468 456 452 438 436 414 412 482 512 486 482 464 488 516 550 550 566 554 562 574 580 582 566 532 494 486 478 476 476 476 470 472 462 460 452 472 434 
262 262 262 278 289 280 282 295 291 301 278 293 295 307 305 299 331 416 544 647 706 731 712 712 768 779 793 690 676 700 702 698 651 576 498 504 538 568 584 590 586 574 524 472 454 464 440 440 420 406 450 506 494 484 476 488 544 566 572 584 582 592 600 613 602 570 516 484 452 438 480 468 448 446 458 462 440 438 436 388 
260 287 266 285 274 274 276 299 287 301 297 299 299 293 301 309 352 496 702 745 756 766 748 756 774 776 779 723 631 633 621 582 566 518 496 498 506 542 576 615 590 558 536 472 454 464 454 454 432 410 432 492 482 486 478 508 548 578 598 572 578 590 588 600 576 546 502 452 444 424 464 460 452 444 410 408 374 354 362 327 
260 272 270 293 291 270 295 293 293 297 293 285 303 280 303 309 392 596 725 739 737 717 727 731 739 741 768 739 657 594 592 576 554 522 494 508 526 548 602 615 607 574 532 498 466 484 470 468 450 432 416 482 508 486 504 512 542 568 564 572 574 556 554 534 526 504 480 436 426 416 414 426 400 386 364 382 350 358 358 343 
270 285 282 285 293 295 287 295 278 293 289 293 285 295 309 311 414 672 712 741 698 686 696 700 708 702 731 698 674 659 651 659 623 554 496 494 518 556 584 604 613 625 598 546 524 506 500 490 478 450 434 494 512 528 524 506 510 536 532 568 548 528 490 480 470 464 428 398 406 396 392 382 374 370 364 362 370 345 354 333 
252 266 258 270 287 293 282 295 282 287 289 285 285 301 293 305 398 641 723 725 712 682 700 676 633 452 540 560 635 706 712 721 692 627 558 516 518 548 552 570 590 611 625 574 550 534 540 520 502 484 478 494 536 524 514 510 496 522 534 534 488 458 410 390 388 368 384 378 380 388 372 372 374 368 364 366 356 356 354 341 
256 276 270 270 282 289 295 289 276 285 295 282 285 280 287 297 350 520 682 676 712 682 639 556 424 335 378 432 534 682 708 714 692 665 590 532 520 538 540 546 582 592 627 598 590 572 564 546 560 560 548 520 550 552 528 520 502 478 454 426 376 368 360 368 362 378 394 384 388 384 366 376 380 374 354 360 358 352 352 325 
276 272 268 285 291 282 289 282 280 287 289 278 299 278 287 299 305 368 494 542 490 422 350 331 323 313 325 345 448 684 670 665 643 633 611 568 568 586 592 590 611 625 676 661 678 706 686 674 617 596 580 564 524 510 508 496 484 408 350 350 362 343 364 366 372 376 386 378 398 380 378 374 372 362 366 362 347 356 350 331 
262 276 270 282 266 303 299 282 287 295 287 280 285 282 282 282 297 303 305 321 311 313 299 289 301 309 325 331 370 586 635 609 613 604 592 574 566 611 686 694 708 739 743 717 735 745 758 768 731 704 665 625 607 645 667 639 615 472 384 352 366 362 366 380 378 384 386 386 398 382 370 386 354 368 358 347 347 358 337 341 
266 264 276 280 295 282 293 297 276 276 293 285 278 291 280 291 291 291 295 303 289 285 299 301 311 317 325 337 358 408 508 588 629 606 580 528 542 615 627 619 641 686 702 712 717 725 725 721 708 688 674 657 678 682 672 637 580 528 464 382 384 380 376 388 378 390 392 382 380 388 374 370 362 370 356 352 356 343 343 343 
258 280 274 280 282 287 289 293 274 289 282 276 305 299 299 299 291 299 301 307 311 301 307 307 311 323 331 331 341 376 380 400 448 460 462 486 504 484 466 456 460 510 609 663 688 680 635 611 588 564 580 564 530 564 627 631 611 536 492 482 466 442 424 414 404 396 404 398 390 378 382 370 352 366 356 352 350 360 360 343 
260 280 280 282 270 274 295 297 289 295 285 276 289 299 285 297 297 299 305 305 305 305 297 303 313 329 333 317 347 364 364 376 382 386 402 428 450 458 528 596 584 609 635 651 653 649 621 609 596 594 631 613 510 436 460 488 560 600 692 672 560 486 502 486 468 448 434 442 430 406 396 380 352 358 362 360 356 356 382 364 
264 289 276 285 289 285 278 289 280 287 297 282 289 289 295 301 289 303 303 309 307 313 301 311 315 313 335 327 327 368 366 374 384 402 434 478 498 480 536 592 611 611 602 606 629 625 606 639 657 694 680 674 645 538 502 600 676 692 680 596 494 484 492 458 462 464 470 470 496 462 418 382 362 362 364 366 378 372 368 360 
266 282 274 301 301 289 287 295 289 297 289 299 307 291 291 289 299 309 305 309 307 303 317 323 325 329 333 337 347 372 374 394 448 520 526 528 520 528 516 564 582 598 536 524 566 570 546 568 635 690 714 672 690 615 542 647 688 670 602 458 448 468 460 448 442 456 462 480 502 488 456 436 406 374 368 364 362 366 380 339 
262 289 270 282 289 285 293 289 289 289 282 270 299 303 291 291 280 293 307 311 307 309 307 325 319 325 335 343 347 372 392 456 540 550 498 508 478 476 472 504 516 496 504 510 532 522 518 520 594 590 639 659 600 528 504 566 554 518 506 412 422 454 438 440 438 444 476 488 512 520 462 448 450 400 390 382 362 362 384 358 
274 291 282 291 297 301 309 299 295 287 282 303 309 299 299 301 301 303 307 307 309 309 299 315 329 329 337 327 352 378 410 552 538 534 500 492 492 532 564 584 560 558 536 518 540 516 520 556 526 484 464 446 440 472 484 496 482 462 446 416 424 476 446 424 434 452 478 498 522 516 462 442 442 454 440 398 392 376 378 374 
264 297 289 295 305 297 291 289 280 289 297 295 293 299 297 303 303 305 293 319 309 317 315 313 321 337 333 335 347 384 470 514 502 508 506 494 466 510 540 550 522 486 474 478 462 468 484 488 484 440 450 464 440 470 482 474 454 444 420 404 424 450 444 410 418 412 430 470 490 478 424 430 446 444 486 456 394 388 378 382 
268 282 293 293 303 289 303 282 297 299 297 299 289 293 297 291 309 295 309 311 315 311 319 319 325 329 339 331 352 386 482 534 562 588 502 462 426 474 508 470 458 432 446 440 444 476 486 458 456 420 416 440 452 482 478 476 454 444 410 418 424 412 402 404 412 402 404 432 456 460 452 458 462 470 490 496 456 406 382 372 
278 280 287 299 305 282 291 295 291 299 307 301 287 291 299 299 301 293 303 315 307 321 333 335 337 358 364 347 362 386 512 582 594 596 466 450 388 398 444 430 424 430 454 444 466 476 466 446 432 410 406 422 458 464 488 480 446 422 402 424 426 384 380 386 390 390 386 396 406 450 462 456 466 488 512 510 500 470 410 402 
272 301 287 289 301 291 291 291 295 297 305 289 311 303 293 289 295 309 313 313 323 394 446 464 474 548 580 446 376 412 550 578 556 496 442 422 352 382 394 366 418 440 454 452 460 470 470 468 426 400 398 406 438 470 464 470 446 428 392 374 376 378 374 378 360 356 350 390 438 460 476 474 476 496 506 514 500 498 490 464 
280 289 285 297 289 289 285 295 293 291 295 295 291 297 297 280 293 303 301 323 358 488 516 530 609 694 721 653 590 568 554 564 548 450 362 347 347 364 337 382 420 428 462 440 458 458 464 456 434 416 388 434 436 426 454 442 436 410 410 388 374 374 376 368 352 315 280 295 354 470 478 482 464 468 490 488 502 514 508 506 
295 289 287 295 293 295 289 295 280 305 305 289 282 291 301 282 285 297 307 321 434 550 562 576 704 727 727 735 670 647 600 572 552 450 352 327 343 309 311 408 440 434 464 444 448 472 486 472 458 424 396 438 414 444 446 426 412 390 410 384 376 372 366 347 341 305 270 248 305 430 476 480 490 482 492 474 498 530 526 514 
260 274 274 297 278 287 278 303 291 287 295 291 276 274 295 276 285 285 303 303 416 526 590 690 745 731 663 676 641 619 590 566 552 438 378 327 327 244 364 432 444 440 444 466 438 480 492 504 490 472 464 472 462 430 414 398 384 376 384 368 345 343 329 325 303 278 244 248 295 416 470 478 500 488 492 490 482 500 506 476 
266 287 291 299 278 291 291 289 278 303 297 289 293 282 289 289 295 289 289 329 438 528 594 670 721 710 674 692 643 615 594 560 544 460 420 394 370 262 416 414 422 424 422 454 432 444 458 498 506 530 552 556 490 458 432 404 384 368 386 396 360 347 333 311 299 270 260 248 268 394 440 458 466 460 470 456 416 420 474 488 
268 276 287 289 305 301 280 305 293 291 297 299 297 299 303 289 295 291 317 321 412 480 518 544 676 700 717 716 649 596 554 520 528 484 458 452 418 337 438 414 388 404 410 436 420 430 440 490 522 619 617 667 590 512 432 424 430 410 430 434 402 358 335 315 291 287 274 272 268 354 398 402 406 380 368 368 364 374 398 466 
264 285 282 295 295 293 285 293 287 295 289 293 303 301 311 293 309 293 325 315 341 376 392 438 492 562 602 520 438 410 430 504 520 482 488 488 452 408 434 392 350 404 414 424 428 428 460 478 568 643 665 670 633 520 426 418 414 420 430 436 412 388 360 313 313 297 285 282 278 360 402 380 364 358 358 360 360 360 368 380 
268 287 270 295 289 303 303 287 297 295 295 282 305 301 293 291 305 303 307 307 301 323 317 327 337 354 368 341 333 358 380 470 502 464 470 466 458 432 430 414 378 430 450 424 448 508 490 504 588 645 645 669 659 544 428 404 418 410 412 414 412 380 354 333 317 307 295 303 301 378 390 392 378 345 364 347 350 354 362 362 
274 276 291 301 287 293 299 305 289 291 301 295 307 303 297 291 307 303 315 305 303 303 305 313 315 315 325 319 327 343 364 406 480 412 398 402 396 406 410 418 440 420 442 436 454 504 522 580 617 613 633 641 637 548 434 412 392 382 364 352 370 364 329 329 339 337 345 364 368 400 400 392 378 370 360 354 350 354 358 343 
276 289 285 299 301 282 287 293 291 299 299 287 301 295 282 282 301 307 307 309 303 309 293 297 309 317 323 325 321 350 352 384 476 390 362 327 270 262 372 486 488 430 396 362 420 506 566 586 576 544 548 534 490 418 408 368 358 339 339 335 329 333 347 350 360 366 380 392 394 414 408 390 374 362 347 352 350 343 362 341 
276 287 289 307 289 299 301 299 307 299 303 297 301 301 301 309 303 299 309 305 303 301 305 309 321 323 323 325 341 358 396 414 432 414 420 396 410 470 504 478 486 566 544 456 538 590 604 613 572 448 410 394 388 394 392 368 356 325 321 339 339 337 347 350 368 374 378 378 398 406 394 382 374 368 358 358 352 347 364 350 
287 282 287 307 282 287 285 285 297 303 299 295 303 305 301 293 297 303 305 307 293 301 299 297 309 321 341 382 412 482 504 506 478 446 482 552 582 611 609 570 526 606 576 578 604 623 629 582 438 380 380 380 376 378 386 364 339 337 329 337 333 339 341 370 370 376 380 394 378 396 378 378 370 350 360 345 331 331 345 307 
262 289 280 285 278 295 295 299 299 293 299 291 299 311 305 303 299 299 313 311 303 307 301 311 354 404 444 492 514 566 570 542 530 498 508 564 596 627 617 590 558 613 588 586 613 619 562 444 392 376 376 378 378 388 376 366 343 341 341 337 354 352 350 376 372 382 378 380 386 380 374 370 368 350 347 354 350 358 350 337 
266 301 295 291 282 291 297 291 299 311 299 301 301 297 299 303 301 293 311 307 299 305 317 343 478 486 472 508 538 556 548 550 558 540 524 576 592 590 570 524 448 488 492 510 532 512 422 378 374 366 370 368 386 394 384 366 358 360 358 356 364 354 368 388 384 388 378 378 374 376 366 388 364 354 354 356 362 364 362 358 
274 287 293 291 287 295 291 299 297 299 295 305 297 303 305 297 313 295 297 311 315 313 327 420 548 516 488 464 484 462 404 470 542 542 508 536 564 532 522 402 358 329 323 370 362 376 360 370 394 382 386 380 382 402 400 390 370 384 384 388 386 380 394 392 404 416 396 396 378 366 358 386 370 331 337 372 345 372 366 360 
272 297 276 289 291 295 282 305 307 309 305 291 291 297 303 301 309 303 299 313 295 315 350 480 532 496 506 468 472 470 430 402 500 522 506 516 528 502 486 444 378 362 354 400 404 392 366 402 426 420 406 410 390 408 416 402 390 404 406 412 398 400 402 400 402 400 418 388 352 372 356 382 436 420 424 428 384 396 398 362 
278 287 297 305 299 299 295 289 299 311 313 317 335 323 303 287 293 297 321 303 301 315 408 480 540 486 504 468 466 436 402 394 460 526 504 498 498 482 460 458 430 392 378 382 402 378 380 406 428 422 420 394 400 412 416 400 394 410 416 404 422 408 396 404 414 408 390 378 347 360 354 402 446 470 502 534 534 496 486 442 
274 282 280 293 297 295 301 299 311 323 402 430 452 442 406 426 390 313 319 305 309 341 448 494 502 482 500 456 426 352 352 404 494 516 492 492 482 466 454 438 410 416 380 372 382 366 384 414 430 432 416 398 386 418 416 402 402 406 404 412 420 412 404 408 412 422 418 382 360 362 376 390 438 478 498 542 568 546 548 512 
270 282 274 287 293 282 289 311 341 406 548 625 674 669 678 665 633 478 382 335 333 472 496 492 486 470 470 440 380 297 331 444 536 528 504 474 492 460 458 434 430 420 376 384 384 366 370 386 412 392 384 380 372 390 408 404 410 416 418 416 424 410 406 408 412 426 426 416 390 398 428 440 468 478 516 538 554 566 554 554 
285 305 266 299 313 303 305 323 388 456 665 684 686 737 725 690 716 680 582 518 518 546 514 494 462 448 438 392 356 266 254 382 498 478 440 319 289 299 446 450 430 424 386 372 364 356 360 382 386 372 358 350 358 386 394 418 406 408 408 396 416 418 416 406 418 408 422 432 422 408 414 422 462 466 510 544 558 558 584 526 
268 297 289 311 305 301 293 335 416 514 688 712 704 727 756 708 676 667 637 623 637 554 536 504 466 438 410 380 354 285 244 234 201 119 83 19 27 79 390 440 428 426 402 364 362 352 362 384 394 368 352 347 347 366 382 400 406 398 406 386 404 414 414 412 408 382 392 440 438 426 434 436 474 476 512 538 528 532 538 492 
266 291 291 282 297 303 303 321 412 500 649 708 716 729 758 694 627 580 611 619 617 558 518 496 450 406 390 374 335 272 244 226 129 67 23 5 21 205 420 448 436 434 416 376 366 358 362 376 376 374 352 362 347 354 374 376 380 382 394 386 394 398 392 392 390 372 382 436 414 402 398 420 414 402 440 456 408 398 408 392 
266 293 291 293 293 289 303 321 408 508 631 696 716 752 743 700 619 566 588 570 554 544 494 466 420 404 394 343 272 260 246 254 135 42 0 152 317 331 416 434 434 434 408 386 374 378 374 388 398 372 400 418 396 360 370 380 378 376 384 374 370 370 376 380 380 380 368 390 394 384 386 372 360 325 331 347 337 343 376 337 
266 282 293 295 303 301 303 311 392 474 621 676 688 735 716 686 645 586 566 546 534 504 480 468 430 402 386 315 250 262 250 289 226 191 280 374 380 368 392 434 420 414 404 390 376 370 368 392 414 408 424 442 412 364 374 372 372 374 376 362 347 364 341 354 341 376 390 394 398 386 382 374 333 325 307 307 313 313 339 331 
266 293 291 285 299 301 291 303 335 392 510 586 631 678 678 667 641 578 540 530 514 500 500 454 420 384 394 325 244 285 309 360 396 400 404 404 384 372 380 414 422 414 410 390 372 372 392 390 434 420 430 428 408 370 345 360 374 358 366 362 352 341 335 356 352 364 366 396 390 376 362 358 339 319 321 335 313 319 333 345 
262 266 297 282 301 301 287 289 311 327 364 384 394 416 440 462 428 414 472 510 526 514 482 482 446 420 404 362 285 258 347 402 418 418 434 416 396 384 384 408 406 416 400 396 400 374 388 398 396 406 422 400 392 368 347 356 356 356 358 339 343 362 360 372 366 376 352 382 368 372 356 352 362 378 400 410 414 394 430 408 
260 295 280 295 305 301 297 303 303 317 325 309 339 327 333 323 325 339 362 432 522 538 500 484 470 450 452 368 287 307 341 436 464 448 452 438 428 432 410 410 408 412 406 400 394 374 378 390 372 380 374 380 356 350 350 347 343 356 360 358 368 360 370 370 362 368 366 374 341 343 354 352 378 412 436 480 460 472 518 486 
264 293 278 303 293 295 280 301 301 291 307 301 319 319 315 315 313 311 335 360 460 508 520 488 494 482 508 422 358 327 323 398 468 486 462 448 448 456 410 400 412 404 406 406 396 376 386 378 366 376 358 350 339 354 364 358 356 345 360 364 368 356 378 378 370 368 366 325 301 285 311 358 382 412 444 482 502 518 560 542 
287 295 287 307 311 301 293 287 285 295 301 299 319 303 309 295 319 317 327 354 436 534 514 506 504 518 500 444 404 350 333 394 448 482 482 462 446 454 432 408 416 410 410 416 390 372 372 370 366 382 356 335 333 343 337 327 345 364 347 366 370 370 376 364 354 341 317 289 280 282 299 319 390 420 460 506 520 532 544 526 
274 289 268 280 289 282 282 285 282 301 282 289 282 307 297 299 293 299 315 319 440 532 524 490 518 536 508 478 490 438 364 368 448 484 484 476 454 440 430 424 418 406 410 418 388 386 378 390 368 368 352 345 329 343 354 345 354 343 358 360 368 358 347 345 333 313 303 287 297 287 301 337 398 442 488 532 540 518 518 488 
266 285 274 287 278 280 285 293 272 293 274 291 293 295 289 276 289 270 303 311 410 538 508 480 478 524 526 554 562 544 506 472 428 470 488 482 464 448 434 430 400 410 398 416 376 388 372 376 360 372 362 343 341 354 352 384 396 376 378 364 335 331 333 327 327 299 299 311 303 323 347 358 426 464 488 526 500 466 448 410 
238 254 291 274 268 285 282 282 270 270 280 268 274 287 280 278 287 278 291 282 380 520 514 476 468 490 560 578 578 606 580 544 486 450 428 456 442 438 422 414 386 402 408 394 384 374 380 368 370 372 390 400 378 396 420 438 400 376 362 315 333 329 309 309 313 282 295 313 317 313 331 327 388 400 408 388 388 366 354 319 
244 260 256 264 268 272 254 268 264 274 272 266 278 280 285 289 278 289 293 299 329 418 470 482 490 470 528 602 615 631 617 596 542 476 374 350 372 376 400 382 372 408 422 388 386 390 376 380 384 410 444 432 418 438 442 424 422 378 350 299 321 319 321 313 299 309 299 293 311 297 315 278 303 311 329 350 323 352 350 329 
230 262 260 268 264 289 258 270 270 266 254 256 293 293 293 287 297 297 289 291 289 358 420 504 524 496 528 586 635 661 621 613 570 498 416 280 262 291 287 297 327 376 414 424 410 422 406 394 396 444 488 438 454 450 452 440 410 382 329 303 313 317 291 311 305 315 303 289 282 272 291 268 268 323 321 358 370 358 380 360 


