P2
80 60
613
15 59 33 19 41 51 49 43 63 65 55 57 57 51 61 59 59 88 61 70 68 82 72 76 82 82 86 98 98 92 84 92 82 92 106 94 90 96 96 98 98 96 88 84 86 92 90 88 94 126 139 157 145 157 215 321 313 307 359 392 389 383 389 469 504 512 524 531 522 528 489 477 485 479 453 438 440 438 457 487 
49 47 39 45 45 55 53 45 47 61 39 51 47 55 53 72 63 78 74 61 76 80 88 76 65 84 92 88 82 94 86 98 90 92 90 94 92 98 104 96 94 84 94 78 84 102 76 80 80 128 130 141 157 165 217 335 319 277 345 390 392 387 422 504 564 559 576 568 562 553 506 483 497 483 477 481 473 461 459 463 
21 47 53 45 55 49 43 37 59 61 51 53 72 51 72 74 80 78 76 76 80 94 80 82 84 78 76 98 82 104 88 92 90 90 90 84 90 86 90 94 94 88 86 90 86 84 76 86 88 78 122 139 145 159 203 315 335 281 329 412 406 414 497 541 547 564 601 599 584 559 539 510 508 499 500 504 465 446 440 446 
47 47 35 41 41 45 51 57 74 59 51 74 51 43 49 61 57 65 59 68 72 55 86 72 72 80 86 80 96 78 90 98 94 90 90 78 92 86 94 90 88 86 90 82 86 80 78 88 84 86 100 120 130 133 169 277 325 287 315 412 473 506 603 597 582 588 578 564 580 568 561 518 514 502 491 475 438 434 392 387 
31 43 41 37 41 59 43 59 39 57 68 65 70 68 76 72 70 70 70 65 74 72 88 70 72 88 76 90 80 80 86 82 86 88 88 82 86 88 84 92 78 92 72 74 86 80 90 78 74 76 86 70 74 82 90 237 313 269 331 418 504 574 592 568 580 607 595 568 574 570 541 497 487 467 436 430 392 369 339 325 
37 39 35 39 41 53 41 57 65 55 61 72 57 70 74 53 74 86 70 68 76 65 82 76 72 76 72 88 84 86 76 74 88 70 80 84 90 76 78 102 82 80 88 82 78 88 82 78 72 88 74 88 80 82 78 173 229 233 317 428 479 518 562 559 582 607 595 557 545 493 457 432 465 436 408 398 392 357 351 345 
31 68 49 45 57 70 51 53 63 61 61 57 55 61 53 72 53 59 72 59 78 68 74 68 76 82 72 78 74 86 94 90 84 98 84 84 100 90 84 98 84 84 86 88 96 96 94 84 86 80 100 82 70 82 78 102 199 235 371 489 495 506 574 593 599 584 566 491 420 446 438 396 414 375 383 383 383 369 363 363 
39 55 55 55 57 59 47 68 63 68 49 68 68 63 74 65 61 61 68 68 88 63 78 72 82 90 78 96 90 86 78 94 90 92 100 102 96 108 98 102 90 104 98 96 100 98 100 94 94 92 106 98 84 92 84 92 128 167 223 381 436 450 582 613 566 545 553 461 383 387 383 381 394 377 375 385 367 367 357 357 
17 53 51 41 45 49 53 59 51 53 61 63 61 53 82 59 65 59 61 84 72 76 90 86 68 82 94 102 98 102 100 100 98 86 96 108 108 104 112 114 96 98 100 98 116 94 102 110 102 92 98 106 80 100 82 90 92 94 118 147 165 183 392 533 485 436 424 446 442 430 418 418 392 377 383 365 343 335 325 353 
21 57 53 41 51 61 43 57 59 63 78 84 72 72 68 76 88 78 86 84 82 88 82 84 90 92 92 100 106 102 108 104 102 104 86 96 110 106 114 102 114 96 114 114 128 110 114 94 114 112 106 110 92 90 92 76 98 92 88 94 98 137 267 475 495 410 426 471 461 442 424 406 381 379 375 359 363 357 335 341 
23 49 51 63 74 61 59 61 57 76 63 80 74 59 68 72 76 88 70 70 70 102 94 92 100 88 96 104 96 104 98 106 102 108 118 108 104 108 114 122 108 106 104 120 128 118 108 112 124 118 100 102 82 96 82 76 104 112 96 100 104 120 271 455 502 491 455 436 424 400 379 379 351 369 363 353 367 369 349 335 
31 59 57 61 57 86 70 74 72 92 74 76 74 61 70 90 74 82 82 88 88 84 88 104 84 94 96 112 106 96 108 108 116 110 112 110 110 122 110 110 110 114 122 98 112 112 114 116 106 106 118 114 94 104 86 76 96 96 104 100 98 118 253 440 483 506 491 446 430 396 385 359 359 363 335 333 359 351 357 343 
37 55 51 55 57 86 68 76 55 63 78 78 76 70 80 76 74 74 78 80 90 84 90 84 102 106 98 100 102 106 120 110 118 108 102 122 112 112 120 108 116 110 114 114 128 122 118 114 116 110 116 116 94 96 94 86 98 106 106 100 102 116 193 375 452 463 465 493 453 426 367 353 349 347 345 355 349 339 337 359 
29 59 70 53 68 82 61 78 78 78 78 78 72 80 65 82 76 86 84 90 96 86 98 90 94 118 92 102 108 112 104 104 118 106 104 128 98 118 112 110 120 108 122 104 118 124 112 114 120 106 128 104 94 102 88 86 96 102 92 100 106 124 147 255 375 426 432 432 414 387 390 375 371 357 351 343 355 339 341 353 
31 59 57 49 55 74 61 68 63 65 70 82 92 72 72 90 76 90 88 70 100 88 80 86 84 104 94 100 100 116 118 100 112 112 96 104 108 110 114 110 116 104 116 118 118 112 110 104 102 102 106 122 82 94 90 80 94 102 102 94 102 126 153 161 273 373 402 414 412 416 416 394 369 325 315 305 329 339 325 355 
33 72 61 53 70 86 57 72 57 65 80 84 68 65 82 74 80 84 82 84 94 94 92 104 98 104 90 106 104 100 100 106 110 108 112 106 104 106 114 108 122 104 116 98 130 110 98 102 108 108 108 106 84 102 88 94 92 98 98 108 122 265 253 151 157 289 361 377 383 398 396 389 394 343 227 187 195 231 331 357 
49 76 59 61 65 84 65 72 74 78 61 82 70 72 74 72 84 82 86 98 90 90 78 90 94 96 92 110 106 102 104 110 98 112 104 100 116 92 106 100 106 102 104 108 112 102 114 94 114 112 110 110 88 92 90 90 84 102 122 133 130 261 420 267 177 181 289 365 400 412 381 381 377 365 259 137 137 155 323 426 
35 78 72 76 61 70 72 59 72 78 80 74 74 55 82 82 82 78 94 78 82 84 92 98 84 102 90 98 96 108 100 102 86 116 102 98 122 104 108 102 100 96 90 114 110 104 112 104 114 98 114 124 94 92 94 86 100 114 114 167 241 177 379 487 355 221 269 341 387 406 383 371 369 355 305 179 135 139 295 434 
53 70 80 63 57 76 63 68 72 84 78 70 72 70 61 90 74 82 84 72 84 90 76 92 84 86 88 92 94 100 102 94 98 90 102 92 110 98 100 116 100 100 106 126 112 122 120 122 118 116 118 120 94 110 90 106 130 267 275 297 416 373 424 530 504 440 373 353 392 387 381 381 373 353 301 141 135 135 305 412 
39 78 76 61 70 59 53 76 72 68 86 70 53 70 68 82 88 82 72 74 86 90 88 90 82 98 90 94 100 94 110 102 98 94 108 90 110 118 108 108 106 110 118 116 110 104 114 118 118 112 126 116 112 122 116 108 151 291 355 448 481 510 561 557 531 537 504 434 396 410 398 387 400 311 213 145 151 133 269 373 
61 84 70 65 78 78 65 57 63 70 68 76 74 59 88 78 61 82 86 78 100 84 92 90 102 92 92 108 106 92 100 120 106 102 108 106 106 118 118 126 106 120 116 110 130 108 106 118 112 122 126 141 116 133 122 120 155 155 173 201 275 387 487 512 531 537 526 512 506 485 485 467 477 363 215 171 167 173 257 353 
45 80 57 76 70 74 59 68 80 59 74 72 76 68 70 78 90 78 82 84 94 94 100 96 98 96 110 104 98 116 112 120 108 116 114 108 126 120 118 116 108 130 128 130 122 124 124 126 128 124 135 157 169 199 169 147 173 177 161 177 157 199 347 448 436 450 471 491 502 516 512 510 502 452 285 225 209 203 269 355 
43 88 82 61 70 74 76 74 74 70 68 76 84 70 82 86 94 94 84 86 102 92 92 100 96 104 98 108 112 106 106 124 108 114 106 120 108 116 112 108 118 118 135 120 128 133 124 118 128 128 151 213 289 287 255 269 291 307 247 199 181 215 367 394 357 385 412 436 465 491 514 518 500 463 323 263 251 249 303 363 
37 74 65 80 78 96 82 72 72 74 82 70 82 86 86 86 78 98 80 92 106 98 96 102 102 106 108 104 110 110 114 118 128 112 106 114 110 120 116 120 102 116 110 112 128 137 133 130 141 139 185 375 379 385 375 349 442 510 506 387 277 325 383 379 363 359 369 410 453 471 479 491 479 422 317 275 281 307 351 375 
59 78 82 61 78 70 74 76 65 72 76 84 82 78 96 90 88 92 92 88 98 98 102 100 104 108 104 104 108 112 114 116 114 126 120 116 114 112 120 116 122 126 112 126 135 122 141 128 139 143 241 432 345 381 426 479 533 522 516 514 487 420 392 367 387 349 361 416 430 436 452 448 440 394 389 351 373 375 375 383 
70 76 76 55 76 80 74 65 74 78 86 78 65 74 78 88 88 78 86 84 82 88 96 112 110 100 116 108 106 112 96 116 112 114 114 118 108 112 116 114 102 124 110 112 128 141 130 145 128 139 283 422 331 389 414 520 528 530 446 469 518 459 373 381 389 341 331 385 390 408 406 420 452 390 408 398 406 375 389 379 
55 98 70 68 78 86 68 59 70 70 76 74 72 88 78 94 80 80 84 98 104 98 108 104 90 102 100 100 98 106 110 120 120 106 96 106 122 110 110 116 100 124 112 126 143 135 139 135 143 137 267 387 315 379 373 499 522 543 434 487 487 450 347 390 379 347 319 331 373 406 406 444 489 428 432 420 398 398 383 387 
63 74 80 61 70 78 63 76 92 92 82 84 76 72 100 86 88 82 84 92 96 104 100 98 94 108 98 112 116 110 106 106 108 114 110 104 114 118 124 120 122 116 116 122 133 137 124 135 141 143 213 319 255 343 381 469 512 545 555 533 469 424 327 387 369 353 305 345 349 410 398 452 455 446 442 428 408 394 394 385 
68 76 76 82 68 86 63 68 82 68 88 82 76 76 78 78 96 88 90 100 90 100 102 112 114 96 114 104 114 124 106 122 110 116 116 112 108 114 112 108 128 120 110 116 122 133 133 141 133 133 161 211 235 269 317 442 514 555 524 510 450 379 369 383 345 341 321 319 390 418 398 446 432 418 442 436 422 410 428 418 
47 68 78 82 70 86 63 86 82 82 88 96 70 76 82 90 88 78 78 110 102 108 104 110 96 102 102 114 112 118 104 106 110 112 124 120 110 116 112 118 135 118 110 143 139 135 126 120 137 128 135 149 141 183 273 430 412 301 267 398 387 355 363 369 383 369 373 390 389 345 385 375 404 412 430 430 430 442 424 416 
55 63 72 84 82 82 88 76 70 86 78 74 78 76 88 82 96 86 84 80 102 104 108 110 106 104 104 122 116 114 104 112 112 118 116 122 112 104 112 122 124 104 122 128 124 133 133 118 118 133 126 143 133 181 390 452 459 291 245 357 359 359 389 400 438 428 426 383 307 317 353 359 412 404 406 432 424 444 446 430 
51 70 72 70 72 76 68 76 72 86 88 76 88 74 82 94 94 90 72 82 82 92 96 92 94 96 98 98 112 102 106 106 108 120 114 106 98 106 114 110 112 110 112 135 118 114 126 120 120 122 122 143 126 293 440 471 381 259 323 377 363 383 422 434 414 404 381 349 313 325 311 337 377 373 383 406 420 426 426 438 
47 86 74 78 49 61 70 88 68 65 84 65 74 76 90 84 78 65 90 78 76 82 94 96 88 94 90 90 104 102 92 104 104 100 98 106 100 106 100 98 106 104 122 124 122 120 124 118 112 133 110 130 169 398 422 319 177 219 383 381 371 377 385 389 406 390 385 355 337 333 293 313 333 321 398 416 418 365 396 450 
55 72 68 63 53 65 61 74 70 80 72 65 70 74 65 72 74 70 70 88 88 94 90 96 90 90 96 100 86 98 104 94 96 88 84 94 96 98 106 112 86 100 106 110 106 112 120 120 118 112 114 120 201 416 379 163 133 271 385 430 452 432 430 412 389 355 349 337 321 275 283 317 321 347 379 389 398 371 422 465 
57 70 72 55 68 70 80 88 74 65 59 76 63 70 76 72 72 82 70 84 82 80 88 96 94 94 92 86 98 106 96 94 110 94 106 106 100 104 102 110 122 106 116 116 116 122 116 112 126 122 126 122 187 389 353 133 155 333 434 442 434 467 422 371 359 347 341 335 339 305 295 289 323 357 365 392 392 396 432 455 
53 88 84 70 88 68 72 70 70 70 78 84 70 78 82 74 78 84 86 88 92 106 90 94 94 106 96 96 94 104 98 102 120 108 112 104 104 104 100 116 120 106 118 118 124 137 116 122 128 126 128 130 169 375 394 173 197 418 495 526 459 459 455 402 359 341 299 303 317 307 293 303 319 355 359 375 361 389 426 459 
57 82 84 63 68 74 72 90 72 84 70 78 78 88 82 82 92 90 84 96 102 92 98 94 86 86 100 106 108 106 102 114 110 106 104 112 118 122 120 122 122 120 116 112 122 126 128 126 124 137 116 141 177 404 436 237 349 477 506 500 465 446 444 363 257 253 239 253 269 267 287 289 301 337 337 331 331 351 400 446 
43 74 74 72 63 74 65 88 72 78 100 70 96 84 82 88 96 88 88 88 108 96 92 110 96 84 102 100 106 104 104 120 122 118 110 114 114 114 120 124 118 110 118 124 122 128 122 137 133 133 137 151 193 400 438 381 414 446 452 448 440 420 365 263 151 175 175 191 173 189 203 209 213 235 241 251 255 267 287 311 
45 80 57 72 63 76 61 76 68 80 74 78 76 72 84 94 76 86 108 96 98 96 90 106 100 100 116 102 94 114 104 120 104 102 128 120 112 120 120 122 122 124 130 126 128 130 122 130 133 143 126 137 201 400 436 446 461 455 424 412 375 371 305 179 157 163 157 165 165 187 181 189 187 175 183 169 191 177 185 191 
41 80 76 59 68 84 78 78 82 84 82 94 90 82 94 96 92 108 92 82 98 106 96 98 106 98 122 106 112 112 110 116 112 118 120 114 116 106 112 133 118 108 120 120 133 137 133 133 137 139 137 147 175 396 444 452 453 475 485 448 343 295 231 207 173 169 161 157 151 185 183 187 173 185 175 167 167 153 151 175 
37 80 82 51 49 74 76 74 65 92 80 78 74 76 78 96 88 96 86 104 98 92 94 102 96 112 102 108 102 114 114 114 118 108 116 116 110 133 110 120 122 116 128 120 133 139 130 128 130 128 133 141 163 365 418 422 428 459 457 416 261 319 371 377 329 265 209 177 177 189 191 171 185 187 177 157 159 137 137 141 
47 76 70 55 74 78 61 82 74 84 70 84 78 82 78 84 98 94 94 92 96 96 94 112 102 108 110 104 110 108 128 116 102 120 135 106 116 122 116 122 118 122 130 122 128 133 128 130 135 130 143 145 135 315 440 440 422 440 434 369 383 414 424 410 428 432 341 215 177 197 197 189 211 207 189 159 137 128 128 155 
31 68 65 61 74 70 78 72 70 72 70 86 80 84 82 86 90 96 84 86 96 98 100 92 108 102 100 116 110 118 114 112 106 110 108 112 110 126 108 122 118 118 133 112 139 141 133 141 137 135 155 153 135 237 420 455 471 440 392 416 416 438 461 436 432 457 416 327 223 229 205 217 219 213 189 173 147 124 139 173 
29 63 70 63 74 74 74 72 78 65 74 84 78 88 80 88 98 84 94 88 98 106 96 102 82 110 96 104 100 108 116 118 114 118 108 114 118 96 112 122 124 128 133 128 135 135 137 135 139 147 137 149 135 209 379 440 404 351 361 420 432 459 471 453 457 500 446 379 257 239 239 233 241 217 211 215 215 199 197 203 
55 72 59 65 57 86 72 84 65 70 74 80 82 78 86 76 94 84 84 96 110 94 106 110 104 104 106 112 114 108 110 128 110 104 108 108 106 110 120 133 124 116 126 135 135 135 145 130 151 137 147 153 145 169 169 225 263 311 367 396 422 442 453 444 406 426 381 349 325 301 267 263 231 233 247 249 251 245 233 229 
37 70 65 63 63 68 78 74 78 76 84 68 94 90 78 90 94 96 92 82 82 92 86 92 104 106 108 106 106 124 106 102 108 102 100 110 112 108 108 118 108 118 120 147 143 145 137 143 137 137 195 287 301 323 281 281 307 327 373 400 396 436 404 385 363 357 315 285 281 325 335 291 265 243 271 261 259 257 253 233 
37 68 76 76 51 78 70 72 72 88 72 65 68 61 72 76 84 84 88 90 96 96 94 108 88 100 108 102 114 108 104 106 108 110 98 112 112 116 108 116 112 118 133 141 145 147 143 149 151 161 275 430 531 545 477 343 365 349 357 365 379 408 406 400 351 327 305 291 315 355 335 315 305 255 297 275 277 253 221 235 
39 82 61 63 45 82 61 80 74 76 82 59 90 65 76 61 94 82 90 88 80 100 104 90 90 90 98 98 106 100 104 108 110 102 102 94 104 116 110 122 114 118 139 133 133 135 151 143 145 237 355 533 557 555 535 416 355 339 351 359 381 404 402 367 325 323 321 313 317 327 287 257 271 279 327 345 331 299 233 257 
53 74 63 57 57 63 74 57 74 70 74 55 76 80 78 63 70 72 94 72 92 96 84 88 82 90 94 82 90 94 90 96 82 90 94 102 106 100 100 110 110 110 135 137 128 145 139 139 161 285 408 570 564 578 572 526 396 355 347 410 408 385 361 357 331 309 295 305 313 317 247 225 251 273 321 379 420 365 355 345 
33 98 72 65 55 61 68 78 59 78 76 61 70 59 74 78 78 80 76 84 86 86 76 84 88 84 92 88 90 102 106 78 98 96 98 92 96 114 102 114 122 112 128 133 133 137 139 153 167 283 396 510 531 584 555 510 446 398 406 465 489 389 325 309 307 309 303 315 291 255 231 225 271 259 293 367 410 390 385 381 
21 74 86 59 72 76 80 61 78 76 88 80 68 78 70 84 78 82 94 90 88 86 80 96 86 88 96 102 100 92 94 86 96 94 110 104 94 102 110 112 114 114 128 137 141 143 151 147 157 251 359 469 491 543 574 533 446 432 452 463 506 420 343 339 307 301 281 267 267 227 191 195 257 285 305 341 418 414 392 379 
41 76 51 43 51 65 59 63 59 72 63 72 65 78 82 76 84 86 92 80 96 92 108 100 94 102 102 94 102 106 104 108 108 112 104 104 112 116 114 114 122 114 145 151 145 153 143 151 151 183 317 465 471 508 549 541 526 506 477 499 504 416 363 349 319 299 291 257 221 215 167 163 275 283 305 319 398 420 394 396 
27 74 72 65 51 70 65 70 65 78 72 70 84 70 70 82 78 84 76 82 90 106 104 108 92 86 96 118 102 102 98 114 100 106 116 104 122 116 112 112 108 116 133 139 133 151 137 145 155 169 193 285 313 375 442 471 499 485 475 493 469 440 404 375 341 319 293 265 259 231 161 137 231 249 287 327 371 396 385 387 
35 88 76 59 63 61 82 61 74 61 84 78 65 74 70 92 90 68 88 76 96 84 106 96 94 104 106 104 114 106 102 118 112 122 104 118 116 128 112 106 122 126 130 143 145 149 135 151 153 165 161 199 173 183 189 213 241 237 289 383 416 406 412 365 347 321 307 281 273 269 179 114 201 245 285 319 335 347 387 367 
45 74 70 65 45 78 74 65 70 70 76 63 84 70 80 84 76 90 84 90 104 94 106 90 118 94 94 98 104 108 108 102 114 114 106 112 116 116 122 118 133 118 128 135 133 149 147 145 126 124 141 163 151 145 147 143 159 187 289 387 383 379 373 335 325 315 307 293 273 231 118 68 181 203 265 291 305 305 347 363 
31 78 65 57 53 55 49 65 61 82 70 59 68 65 82 78 78 82 90 84 98 84 92 96 110 90 104 120 110 98 104 100 98 110 104 98 118 116 106 122 128 135 130 122 130 145 130 137 126 133 135 159 118 133 120 124 153 199 341 400 400 387 357 323 313 281 317 301 263 161 39 70 161 211 263 275 279 287 329 307 
47 61 59 59 63 72 61 53 63 78 61 82 68 65 84 76 90 86 80 88 96 86 92 100 96 98 102 116 112 102 98 112 102 108 108 96 116 106 106 126 110 126 110 112 122 130 122 122 130 133 145 149 128 124 110 114 130 253 379 406 383 387 359 317 289 271 263 253 227 139 0 84 157 189 233 261 257 267 297 317 
33 78 63 70 45 55 63 53 68 84 76 78 61 86 80 74 90 84 80 90 94 100 108 90 92 110 108 110 114 102 116 114 102 108 108 100 112 106 110 106 110 122 114 124 143 122 108 124 114 116 118 133 122 118 112 120 135 305 379 373 357 363 363 331 293 263 259 257 211 122 53 128 165 195 257 261 253 269 273 301 
49 74 61 55 59 55 55 61 55 68 61 76 59 68 78 80 86 72 88 94 88 78 90 92 86 98 100 98 102 98 98 104 98 110 112 112 106 100 110 112 102 118 114 112 116 114 114 114 114 128 124 128 104 110 106 98 181 377 381 373 365 389 373 321 251 249 249 253 203 153 108 161 181 225 275 255 237 257 261 283 
27 74 59 45 57 49 57 63 55 65 47 65 70 63 76 68 68 76 82 90 92 96 90 92 86 96 102 102 106 110 102 98 106 104 110 108 116 106 102 110 102 102 106 106 114 118 106 116 112 128 130 126 106 122 104 108 235 440 461 428 420 414 361 283 205 191 219 237 197 153 151 157 179 237 251 251 241 253 269 289 


