P2
80 60
603
35 23 19 9 21 31 39 33 53 45 43 45 39 35 65 47 57 74 68 68 68 68 63 65 70 72 76 88 96 86 82 86 78 94 112 102 84 90 108 96 88 90 88 90 90 84 80 76 80 104 118 145 147 199 253 253 341 452 497 516 500 497 432 291 223 229 259 275 301 351 453 448 434 375 347 355 387 369 381 389 
53 9 19 13 21 29 51 31 27 43 27 41 25 45 37 49 49 49 80 55 63 70 74 70 51 55 65 82 78 80 80 86 82 88 92 98 94 82 104 88 92 74 82 78 86 98 68 68 74 98 114 126 163 219 247 245 396 483 497 504 524 522 522 408 355 363 359 315 331 345 436 467 440 369 363 329 353 335 355 351 
29 5 23 23 25 15 39 25 43 49 35 49 33 31 61 55 70 55 61 74 74 82 74 65 70 68 65 90 70 88 80 84 96 82 88 88 92 82 88 92 88 80 84 90 88 70 65 82 78 65 98 120 159 221 215 253 471 516 508 543 545 549 555 539 528 539 555 487 377 367 379 467 438 381 343 335 323 305 299 295 
37 7 0 23 17 17 35 37 55 39 33 59 35 21 47 55 43 57 53 68 74 49 68 61 61 53 74 78 74 68 88 80 92 78 88 86 80 78 80 88 84 74 86 80 88 74 70 84 74 90 78 94 130 205 231 241 442 526 551 586 586 586 559 566 547 570 590 574 524 381 373 369 412 408 355 321 311 325 317 303 
27 7 0 15 9 33 25 49 39 45 49 39 57 53 57 65 55 55 61 63 76 59 68 61 59 72 61 70 61 63 84 59 78 80 92 88 78 78 84 78 76 90 74 68 88 72 78 70 74 68 70 65 80 189 231 259 383 535 570 593 597 580 547 557 561 551 592 593 582 512 379 357 355 337 343 337 319 305 315 289 
25 19 5 19 31 33 33 41 47 47 43 43 47 63 59 43 61 76 68 72 70 63 70 68 65 57 57 68 70 80 84 65 86 55 90 82 74 76 78 92 84 74 92 82 90 90 80 70 63 92 65 82 94 130 215 257 335 473 553 576 590 561 568 545 537 539 580 597 603 580 457 392 410 361 311 323 317 299 301 295 
41 13 17 27 33 45 43 43 43 57 49 39 49 57 53 53 43 53 61 53 65 55 61 57 74 72 57 68 68 78 100 92 82 94 92 86 96 90 88 90 80 80 96 90 96 94 96 74 90 88 84 82 80 94 133 197 285 430 495 568 551 533 551 547 526 553 603 603 592 557 483 398 381 353 339 335 341 317 307 271 
27 13 21 33 39 39 37 51 49 55 41 55 47 53 63 51 49 49 63 63 82 47 65 74 59 65 68 88 90 88 86 92 88 84 104 104 88 100 94 94 92 104 94 98 106 98 104 88 86 90 94 92 92 94 86 124 185 247 371 448 444 436 418 491 533 570 595 593 549 412 434 404 379 357 361 379 369 347 333 301 
19 13 27 9 27 35 49 47 39 43 55 45 61 47 65 49 59 57 61 90 72 76 72 84 65 68 94 84 88 96 100 98 94 82 94 110 104 100 114 102 100 100 102 102 106 96 104 108 96 96 90 96 84 96 94 104 112 98 151 185 177 145 173 305 491 541 530 479 418 377 426 389 381 363 369 371 363 345 333 309 
37 11 33 35 29 31 35 47 47 45 65 78 55 61 78 70 74 72 78 90 82 80 65 82 90 86 82 96 100 100 110 92 102 100 96 102 110 96 114 102 104 98 112 114 128 112 104 88 108 104 98 94 100 92 90 92 102 96 84 92 94 126 130 201 347 357 363 329 369 377 387 389 394 379 363 359 357 329 333 309 
35 11 33 41 47 37 39 51 33 63 49 74 59 59 59 57 68 74 61 82 72 96 74 92 80 78 84 86 90 94 90 104 98 102 114 112 108 106 116 114 112 112 102 110 120 112 104 100 104 106 90 88 100 94 88 92 120 106 98 108 96 165 227 319 351 347 331 331 373 426 459 471 440 402 389 367 367 351 347 327 
41 27 35 31 43 63 55 65 55 78 70 61 55 63 72 76 72 78 80 96 86 84 86 98 92 88 88 98 96 94 100 108 104 104 122 110 118 118 108 108 106 118 120 106 114 110 112 112 100 108 104 108 104 92 86 78 90 96 84 112 181 377 428 461 432 398 357 345 422 487 473 463 420 400 363 349 357 343 335 327 
35 23 19 27 43 65 49 57 43 57 59 72 68 59 72 72 61 57 72 82 80 74 78 76 92 92 80 84 96 90 106 110 108 110 112 104 104 108 114 104 106 110 112 104 120 116 110 106 102 110 106 100 106 92 98 96 98 96 104 118 223 375 430 463 475 442 442 450 457 485 465 446 389 367 343 355 343 335 343 317 
29 31 29 45 53 55 61 63 55 65 63 63 53 70 72 68 68 70 63 78 80 88 88 88 82 96 98 92 102 104 88 96 102 104 112 116 100 120 120 104 114 106 112 114 116 114 102 106 102 112 112 92 96 98 98 98 100 86 90 106 106 171 223 283 317 385 438 436 459 452 440 418 385 367 349 341 349 333 337 351 
39 19 29 43 45 51 51 49 49 59 63 76 78 65 65 78 65 86 70 72 88 84 72 80 80 86 86 94 96 102 100 96 98 106 98 106 102 106 120 112 98 102 112 102 112 118 106 98 98 106 98 102 90 94 98 94 92 96 86 98 94 96 114 130 128 255 392 442 455 446 428 406 365 349 361 357 359 353 349 325 
37 35 33 45 51 57 49 57 51 55 63 68 63 59 72 63 65 74 63 84 84 90 86 86 86 84 80 92 102 96 100 104 108 104 112 104 96 108 108 110 110 104 116 98 120 96 92 100 92 100 92 104 88 98 94 94 104 90 100 100 88 94 112 118 114 173 329 422 430 422 430 420 446 428 394 408 402 377 379 349 
45 37 29 45 43 57 51 53 63 63 51 65 61 59 65 72 70 76 76 86 82 74 70 76 76 82 88 98 90 96 100 102 92 112 100 100 110 90 100 94 102 100 100 104 110 92 102 92 102 110 92 98 92 94 88 94 88 86 96 104 102 100 116 116 130 141 203 337 408 418 422 442 436 442 432 436 448 412 410 371 
39 41 37 55 39 49 63 43 57 65 86 57 57 57 63 78 65 74 78 70 70 70 88 84 82 92 78 96 80 92 94 98 90 114 92 110 102 102 102 100 98 98 96 110 118 110 102 96 114 100 114 108 100 96 94 106 102 98 92 90 104 104 118 128 133 145 203 309 404 418 432 440 434 416 412 416 422 414 400 387 
43 37 41 49 35 61 53 61 49 74 68 59 51 57 51 86 55 70 74 72 78 72 65 78 76 72 76 82 78 86 96 88 80 78 102 96 102 98 104 108 104 96 110 120 126 122 112 118 110 110 104 104 100 102 106 124 128 118 114 120 104 130 126 149 187 247 349 379 379 390 422 410 406 375 379 387 400 390 392 357 
49 45 47 51 49 45 41 55 63 53 63 65 49 55 63 74 68 74 72 68 80 76 74 80 80 90 80 80 82 80 104 104 92 94 118 100 110 116 114 118 108 110 120 122 120 110 112 122 116 108 110 110 133 151 175 209 185 155 145 141 116 130 149 191 329 404 390 363 377 365 385 383 363 283 271 299 355 359 369 367 
68 45 41 37 49 55 59 37 57 61 63 72 70 55 78 70 57 88 74 78 96 76 84 74 104 86 82 96 96 86 106 110 112 102 110 112 102 116 114 120 112 116 108 120 135 116 133 128 118 120 124 139 209 305 295 323 333 349 329 237 165 139 163 315 442 434 389 365 375 357 367 339 293 215 189 209 239 271 323 325 
68 39 45 59 41 59 53 57 70 55 59 63 65 68 65 76 84 65 72 86 84 86 86 92 98 96 108 98 94 112 108 116 96 122 118 122 122 114 116 110 110 126 126 143 145 163 259 227 177 137 133 145 273 406 412 465 504 499 518 479 289 177 233 396 438 412 373 361 383 381 392 367 285 233 209 223 225 217 235 325 
43 55 49 51 51 65 70 65 57 59 59 68 76 65 74 82 76 84 82 80 106 84 88 90 92 92 90 100 110 116 98 120 100 114 108 122 110 116 116 108 122 112 133 141 203 247 291 295 223 151 124 187 303 390 428 535 539 491 477 514 440 337 369 396 416 402 430 398 400 379 422 424 381 325 293 287 263 261 323 347 
51 41 49 61 55 74 74 61 51 59 74 63 78 84 84 80 82 90 82 96 106 94 86 88 82 100 92 98 102 120 126 104 116 116 106 112 116 118 118 126 110 128 126 135 139 213 323 321 321 269 179 213 301 375 404 547 526 408 412 499 455 491 473 434 392 406 422 448 408 363 396 398 383 396 359 359 347 343 381 355 
49 35 53 51 53 43 63 59 53 55 63 74 70 63 86 90 68 82 84 90 92 94 98 82 96 94 96 96 96 108 118 114 106 118 122 114 110 112 120 120 133 122 116 137 126 143 213 289 343 357 289 223 207 311 392 522 512 485 469 500 461 495 481 455 369 373 424 424 414 373 369 355 371 377 353 357 383 381 406 371 
61 33 51 49 41 61 57 63 63 59 72 63 53 65 80 84 86 70 74 78 86 82 92 100 102 88 118 102 94 104 96 112 110 114 120 112 106 112 118 116 133 120 122 128 130 143 139 169 215 363 381 295 203 215 309 461 520 539 535 516 467 475 465 420 335 365 412 416 412 369 337 333 339 341 385 367 365 355 404 408 
51 63 45 59 65 61 68 63 59 65 74 72 68 84 76 78 74 72 88 90 96 90 98 92 78 98 94 90 90 100 106 112 122 98 110 108 124 110 108 114 120 118 114 130 145 128 141 139 155 229 396 398 263 195 229 379 502 520 497 485 452 459 432 385 331 394 408 406 381 392 357 345 349 359 379 371 359 375 404 394 
53 51 59 55 53 65 61 68 84 82 86 76 61 88 92 86 84 86 78 84 92 90 90 92 86 96 90 104 118 108 104 104 120 116 120 112 116 126 120 118 143 118 130 128 126 137 133 135 155 173 349 420 390 245 177 197 241 315 269 333 389 424 414 375 379 432 430 414 406 387 357 357 331 367 375 349 373 369 404 396 
70 43 61 61 43 65 55 45 63 63 82 80 70 76 74 78 82 80 90 100 82 96 96 88 102 82 106 100 110 104 102 120 110 114 122 114 108 118 124 110 135 122 116 130 128 141 143 128 145 157 239 412 450 396 233 179 153 167 169 191 363 438 420 402 418 430 408 381 402 383 323 335 315 345 371 323 367 396 406 398 
45 31 59 63 55 61 61 80 78 76 88 80 61 74 74 90 86 74 76 102 96 98 96 94 94 92 88 104 98 106 108 104 112 106 126 114 114 104 106 106 128 118 130 137 147 137 118 120 141 118 155 339 434 442 394 219 157 157 147 193 329 396 420 422 381 398 406 385 398 387 339 371 313 341 357 327 357 392 357 387 
57 29 57 63 57 76 80 68 55 76 65 76 57 84 80 82 86 76 82 80 106 96 100 108 100 90 100 102 112 112 110 112 110 108 118 128 108 112 120 128 114 122 120 139 135 141 145 126 126 122 141 215 408 455 469 345 195 141 145 149 301 416 432 406 375 363 396 389 396 392 379 404 345 349 347 355 349 390 321 377 
51 35 53 45 61 55 61 53 57 74 70 76 72 63 82 82 78 80 80 84 88 90 86 96 82 84 90 92 94 94 102 104 102 118 116 108 110 102 118 106 114 120 108 122 122 114 130 120 126 118 124 157 333 448 452 461 285 159 139 145 255 450 455 371 329 327 367 359 389 385 377 371 331 313 315 355 345 381 317 365 
51 53 53 59 29 47 74 65 59 57 63 65 53 70 92 78 65 74 84 74 80 80 82 86 76 84 88 86 90 86 92 90 104 84 102 102 112 116 110 100 108 106 122 120 135 133 112 126 116 124 114 135 259 440 455 475 428 233 137 157 271 448 436 385 341 321 369 392 396 381 359 317 307 285 337 373 347 381 359 363 
49 47 41 57 45 63 53 68 68 72 68 59 61 70 68 65 65 65 68 84 84 94 84 84 68 76 92 94 78 84 102 92 92 92 94 100 108 102 110 110 90 108 122 112 116 120 120 128 114 102 114 128 159 408 487 493 471 379 217 171 313 434 430 377 341 297 357 402 422 400 361 289 293 281 323 345 339 387 341 351 
49 45 43 49 53 57 63 72 61 61 51 63 61 63 68 68 63 90 72 84 78 78 72 82 78 90 88 80 88 104 98 76 110 88 104 112 96 104 114 106 114 118 120 116 120 124 108 114 118 124 120 116 149 291 485 541 518 453 383 249 293 410 446 428 414 341 335 408 446 436 363 309 305 277 299 357 355 367 319 321 
51 55 61 43 68 57 72 63 57 55 65 70 55 74 82 63 72 80 80 88 86 96 84 86 86 94 86 106 102 100 96 98 104 108 106 114 112 102 114 116 126 106 122 112 133 137 120 130 120 116 124 128 124 183 379 547 495 495 436 402 383 428 450 465 465 436 430 402 452 420 359 303 277 255 271 359 347 355 341 313 
53 63 55 47 55 47 68 82 63 70 55 72 57 74 78 84 84 82 88 88 94 92 92 92 84 76 98 100 92 100 104 104 114 110 106 108 116 130 118 112 124 114 126 116 133 120 126 133 128 128 120 135 133 141 191 432 502 487 463 450 428 428 446 450 426 424 450 430 420 343 259 249 233 229 257 283 327 333 289 259 
49 47 51 65 43 57 65 80 59 61 92 74 78 78 82 82 78 70 86 98 106 90 84 92 92 84 96 94 100 106 106 110 122 118 116 116 108 112 122 116 120 116 130 126 143 128 139 126 126 139 137 135 143 126 153 293 473 491 491 438 408 406 430 444 414 404 442 424 383 349 259 209 195 185 185 197 211 209 209 189 
45 41 29 53 53 51 59 74 51 70 65 68 68 76 74 86 70 76 106 92 98 96 90 98 98 86 100 94 94 116 102 102 100 112 133 114 110 116 128 120 128 133 143 130 151 126 128 137 133 137 120 133 141 137 133 203 408 479 497 481 426 285 299 369 402 385 398 410 408 392 309 217 199 173 163 169 171 151 153 167 
51 43 55 43 39 70 86 65 76 74 80 84 72 84 92 86 80 102 88 80 84 96 94 94 102 84 110 98 98 110 106 112 120 126 116 120 110 108 118 126 122 116 122 118 133 139 126 135 128 139 133 135 143 112 133 185 289 483 497 499 485 363 231 243 325 353 381 396 408 428 392 271 183 183 177 179 171 139 135 145 
37 47 61 37 29 68 57 59 45 80 74 74 65 68 80 88 88 88 86 104 94 86 88 88 88 86 92 94 94 100 98 110 108 116 133 120 112 139 122 120 128 118 126 122 143 137 130 124 122 130 124 126 124 141 112 157 203 392 465 475 457 428 359 235 221 315 420 412 420 450 430 345 211 203 175 161 163 133 130 137 
51 33 31 37 51 65 51 57 63 78 59 70 72 65 76 80 94 88 94 86 86 86 76 102 86 98 100 102 106 108 120 114 114 122 135 102 114 116 126 116 116 126 122 120 133 139 118 135 130 130 128 122 128 130 122 149 167 335 442 459 406 398 375 287 195 213 339 402 416 446 440 371 249 221 189 173 167 130 120 126 
37 25 43 45 53 41 74 57 49 65 59 68 57 72 82 82 86 76 82 88 96 82 92 86 100 90 86 102 106 100 104 108 112 108 104 114 102 126 112 110 122 110 133 116 141 137 118 147 133 137 135 135 124 147 122 149 155 267 392 436 400 379 347 277 221 191 231 309 373 414 402 377 259 239 203 207 185 163 187 191 
39 33 53 47 55 53 72 49 63 59 61 76 70 78 70 76 80 86 92 100 94 96 82 84 90 100 92 96 100 98 118 96 112 120 124 104 110 104 116 106 120 130 126 124 135 135 130 124 135 147 126 141 130 135 128 137 157 251 394 448 408 371 307 289 259 215 213 233 249 259 279 271 251 231 229 245 245 249 233 211 
57 43 39 57 39 70 61 76 49 72 70 65 65 53 80 74 88 70 84 100 100 86 88 92 94 86 92 96 104 94 108 112 110 108 108 112 110 112 116 137 106 120 122 135 128 133 133 137 143 147 169 191 181 159 143 147 161 249 410 438 396 335 323 299 269 263 237 227 247 239 241 265 235 229 237 245 261 243 239 227 
37 31 35 51 51 57 49 63 59 72 63 59 80 78 80 82 84 86 98 86 76 80 78 84 92 96 96 90 98 104 90 96 104 112 110 128 102 114 104 122 98 110 114 135 135 153 128 139 137 171 297 436 448 424 341 317 219 299 402 448 377 355 349 339 323 307 307 301 281 255 257 269 239 221 247 249 227 227 227 225 
43 29 51 65 43 59 55 63 61 70 70 65 55 53 61 68 70 76 72 84 92 86 82 96 72 90 100 98 100 102 100 106 100 112 100 106 106 118 118 116 110 120 124 133 139 141 133 143 195 305 459 547 533 526 564 543 520 335 414 414 381 379 361 363 343 341 353 351 305 297 287 285 261 233 241 247 265 223 233 251 
41 47 33 45 37 61 51 65 65 63 63 57 70 51 57 55 90 74 72 90 82 82 88 78 80 78 86 92 92 90 98 98 110 104 104 96 104 110 112 114 108 114 124 118 128 126 139 147 235 392 520 522 528 547 564 555 551 533 467 428 414 402 377 381 353 367 367 337 309 291 281 309 305 289 295 309 331 311 325 339 
45 39 43 43 43 45 65 41 51 51 63 53 55 72 76 55 65 68 84 65 88 86 74 70 65 68 88 65 78 92 88 94 90 96 92 106 98 96 102 112 106 106 114 126 124 139 126 145 273 383 459 522 545 570 531 533 514 493 502 479 469 432 390 371 347 337 339 321 279 237 229 291 311 317 319 345 373 343 351 359 
49 68 45 53 33 39 45 63 51 70 59 55 53 63 63 70 65 74 72 82 78 68 68 78 84 68 82 94 82 100 112 74 98 96 108 114 96 112 110 116 114 106 112 130 135 130 118 169 259 351 418 487 551 549 508 465 479 465 463 487 455 406 367 359 335 307 305 293 261 205 207 245 303 317 325 351 367 347 355 327 
43 41 57 49 55 70 63 43 70 70 70 65 57 61 59 68 72 82 86 94 82 88 72 88 80 76 92 90 96 90 98 84 94 98 112 106 102 96 110 120 124 120 130 124 130 126 141 141 215 335 428 461 497 549 539 502 444 459 448 499 465 394 369 343 325 301 291 279 271 203 177 203 235 319 335 343 365 365 361 361 
35 35 37 27 27 49 53 55 41 65 63 55 68 68 63 59 70 74 84 86 94 80 94 88 86 80 94 88 92 102 104 108 108 110 108 108 114 114 120 118 108 118 141 147 139 137 133 155 153 235 387 467 514 547 526 530 537 479 444 469 416 355 343 329 305 291 291 275 249 199 139 167 203 269 329 331 351 363 367 341 
33 43 53 53 43 63 59 55 51 72 65 68 72 61 63 68 65 72 88 90 82 88 90 92 84 74 84 96 98 92 106 108 106 114 122 108 116 118 124 124 112 118 139 133 149 143 145 151 169 159 189 255 321 416 471 500 524 489 461 446 400 349 335 315 305 293 293 269 239 135 92 167 171 223 293 331 347 343 345 343 
47 33 43 45 47 47 63 61 63 45 70 78 45 65 65 80 82 63 86 78 102 80 102 84 84 84 88 92 108 112 110 110 112 118 112 124 108 110 122 114 122 118 133 135 149 149 139 147 165 157 161 171 159 189 215 249 327 400 400 361 341 299 303 303 299 289 301 279 213 143 120 147 145 207 257 311 325 293 299 303 
45 35 41 51 27 61 65 51 49 55 63 55 70 59 82 72 68 94 90 82 102 88 96 76 102 68 80 94 96 98 116 128 102 118 118 116 114 112 122 108 135 114 126 137 139 139 149 155 137 130 128 149 143 145 161 171 303 367 345 335 283 293 285 273 281 291 301 267 217 167 100 149 157 209 245 279 295 263 279 303 
43 33 39 35 35 55 43 51 49 65 59 57 47 61 76 80 65 72 88 74 92 76 82 90 96 61 88 112 96 88 116 149 133 114 112 94 122 118 100 126 118 133 122 128 128 139 137 130 114 139 133 135 139 139 130 233 359 365 315 293 263 255 257 251 281 279 299 265 231 177 130 159 165 239 261 273 291 251 263 261 
37 31 27 29 29 47 47 37 49 68 45 78 61 61 65 80 70 82 72 80 84 80 78 82 70 84 84 90 98 106 137 169 205 183 169 106 98 92 98 130 114 118 120 120 116 126 135 124 126 124 128 145 149 167 215 327 355 345 283 239 149 173 221 225 265 275 259 249 215 167 126 169 209 225 251 261 265 245 269 245 
37 33 33 23 11 47 45 43 53 65 65 57 45 63 70 65 70 68 76 88 98 98 94 76 74 82 96 98 106 96 118 149 189 255 263 201 151 90 108 124 110 128 104 122 128 151 163 189 177 163 217 279 317 331 387 414 365 331 271 223 96 94 149 209 255 263 251 215 189 173 126 183 225 221 239 261 263 267 273 237 
51 33 37 39 39 37 35 41 45 51 59 63 49 53 68 68 68 61 74 82 84 84 63 84 78 86 102 102 94 102 149 215 271 283 263 289 243 171 165 169 165 181 183 201 243 339 365 383 387 392 410 422 416 434 444 438 424 390 299 219 68 72 147 213 231 227 229 215 199 171 149 189 215 219 243 267 241 277 257 243 
43 33 33 21 35 37 35 49 47 51 43 43 49 53 61 49 49 61 65 78 86 88 70 72 70 84 84 98 96 104 139 211 281 235 253 263 291 275 283 305 325 309 335 331 385 406 418 410 414 422 452 452 432 448 446 467 455 436 385 283 159 102 175 229 249 223 223 225 213 171 161 189 171 215 215 245 245 279 267 271 


