P2
80 60
721
208 229 222 194 212 202 220 216 225 222 208 220 225 243 237 229 265 245 225 235 222 220 210 216 241 298 526 610 632 589 571 583 547 585 587 553 514 476 614 657 648 561 512 512 542 553 536 528 480 444 410 446 478 458 434 404 408 406 418 416 412 424 454 460 480 482 472 448 428 408 388 388 398 410 394 372 356 366 362 342 
218 202 210 210 214 208 212 214 208 220 210 220 222 231 233 239 241 235 227 227 220 202 206 206 235 348 575 603 593 524 520 542 577 565 569 559 540 534 573 634 620 561 530 516 553 538 506 508 480 430 434 460 484 454 434 420 396 418 416 406 416 418 462 456 478 482 468 440 398 370 358 392 384 370 344 326 294 273 269 255 
206 208 202 200 225 206 198 216 222 222 206 218 208 227 237 233 237 214 220 233 206 210 198 216 245 356 597 589 583 559 553 589 593 563 551 534 514 502 547 599 589 567 528 482 516 496 470 462 430 414 458 462 454 438 418 388 404 402 416 418 434 446 476 472 484 486 472 440 378 356 346 314 290 273 253 247 225 247 241 241 
214 222 216 202 214 210 210 216 208 222 206 218 225 222 227 233 239 239 229 239 227 208 206 233 257 336 563 589 601 577 591 628 583 534 502 504 504 498 520 567 559 520 514 468 464 450 440 404 388 408 450 436 454 422 426 402 428 438 434 440 486 502 478 478 484 476 446 390 318 298 283 265 255 241 245 241 247 253 253 263 
212 210 208 192 231 202 204 208 214 218 208 216 220 220 241 241 251 253 227 235 243 231 249 237 261 360 565 642 640 612 620 622 561 502 476 490 478 482 500 530 542 512 488 450 446 428 420 392 380 408 448 470 464 450 440 440 444 460 444 470 480 446 424 396 362 352 336 296 281 296 292 296 287 292 296 287 294 310 332 354 
214 208 198 204 210 210 214 214 216 229 227 218 227 255 239 239 267 265 277 320 310 334 302 277 308 434 567 656 648 636 636 609 555 506 474 476 464 466 482 504 563 571 542 472 450 448 412 396 382 406 440 456 442 428 420 416 430 442 430 448 420 400 386 390 410 406 410 392 378 384 398 408 384 376 364 376 370 370 388 376 
220 222 218 198 220 216 212 227 220 218 225 233 233 253 249 251 283 340 458 546 589 595 544 549 532 630 622 642 654 646 638 610 538 498 474 500 500 514 508 514 581 589 581 547 492 460 430 416 386 404 464 454 424 414 406 408 392 402 384 434 470 494 490 500 504 520 516 476 452 442 432 430 434 442 434 402 388 396 394 378 
212 214 216 202 229 212 225 235 216 231 218 233 243 261 253 269 344 494 624 669 681 661 661 677 708 719 673 603 630 618 626 591 532 494 468 514 540 549 547 547 563 601 591 597 593 510 436 402 360 348 382 400 408 420 398 410 400 432 430 482 510 538 544 534 530 534 504 472 446 436 436 440 462 490 478 460 422 388 416 382 
216 229 220 212 218 227 222 227 235 229 206 243 239 263 263 277 452 628 640 687 685 673 671 690 694 721 704 599 585 573 557 530 490 496 464 504 534 575 573 536 549 581 607 622 634 610 502 396 370 360 408 414 440 452 446 444 472 514 526 540 546 571 538 563 553 532 488 466 428 410 418 432 420 464 484 458 422 364 350 334 
218 235 216 216 227 227 210 233 233 235 235 245 251 263 285 310 512 654 644 663 601 603 628 634 654 681 685 667 575 510 516 518 484 476 466 494 506 546 563 549 534 524 585 628 636 634 593 442 410 376 420 444 490 504 438 456 502 544 569 565 567 544 544 546 520 508 458 422 406 384 372 388 380 394 358 340 302 275 279 279 
216 216 222 225 231 208 225 231 227 220 216 235 245 253 277 292 494 671 657 646 610 607 626 616 569 561 577 609 605 591 599 591 534 500 478 508 528 540 565 555 544 510 549 571 614 595 526 426 426 402 424 474 502 474 460 488 522 518 534 538 530 524 512 484 474 444 410 368 362 332 316 340 308 308 296 292 267 263 265 277 
220 231 227 212 235 225 231 225 216 231 212 237 233 249 279 273 426 642 644 677 667 646 620 534 364 324 380 484 593 624 648 644 573 518 484 494 520 555 569 551 567 559 577 585 610 579 468 428 412 402 426 508 502 488 482 458 456 494 494 518 516 486 446 416 402 382 338 342 336 322 310 316 298 294 296 283 294 259 279 269 
222 216 225 218 233 229 231 231 227 220 222 227 220 257 253 247 314 458 571 585 557 486 408 330 277 275 306 370 486 609 648 673 626 567 508 498 508 532 551 557 567 575 575 595 614 549 482 468 444 428 428 508 510 478 450 442 430 454 460 460 416 374 346 318 324 308 322 310 322 320 314 304 304 300 294 279 263 267 273 261 
233 235 231 225 225 239 235 225 227 222 233 218 229 247 251 239 265 290 316 330 292 261 241 261 261 269 273 302 396 607 614 624 605 585 518 530 510 547 589 589 607 593 583 583 577 524 484 470 460 456 458 466 498 468 442 422 414 362 330 316 312 310 314 300 300 322 324 322 326 318 306 318 318 310 290 269 271 275 271 277 
233 225 220 222 235 214 227 227 225 220 231 227 237 243 249 241 251 261 247 251 235 237 237 257 259 253 257 294 340 510 573 571 553 559 561 571 573 636 673 657 599 555 551 520 428 382 382 386 388 394 404 408 408 354 312 310 292 290 277 294 302 285 308 306 312 320 332 328 340 328 322 310 300 304 290 279 275 281 285 269 
214 233 233 216 220 241 231 218 220 225 212 225 231 222 239 233 249 251 231 243 229 225 233 245 247 257 257 271 300 334 468 569 585 577 553 524 534 605 628 620 577 563 569 504 380 376 394 392 388 374 382 358 342 342 320 292 292 294 279 296 300 306 310 326 314 332 326 324 330 324 306 312 287 308 275 275 259 271 269 281 
218 239 239 218 235 206 225 227 222 233 218 227 231 233 235 235 247 243 241 251 235 212 233 247 253 265 261 294 296 292 324 392 472 490 496 488 486 504 526 502 516 512 486 426 422 448 452 438 412 414 414 422 440 388 344 302 285 290 300 296 306 308 328 318 318 328 332 322 318 334 312 310 292 302 269 273 271 265 267 275 
216 233 235 233 216 222 218 231 212 229 229 220 241 239 257 249 255 265 243 247 249 231 243 253 265 267 269 279 304 298 312 332 338 372 410 462 468 462 478 496 512 470 494 546 587 591 583 561 551 530 542 593 603 579 474 310 300 302 298 318 322 306 316 324 320 318 336 332 320 316 318 312 287 298 292 273 271 279 277 279 
216 245 243 225 214 220 231 233 231 237 235 225 231 259 249 247 259 247 255 253 253 231 247 257 253 283 283 277 302 294 316 374 424 480 500 510 474 474 476 571 538 542 532 553 591 599 583 571 544 540 571 609 628 624 610 412 330 308 336 350 372 342 318 324 320 318 312 322 320 326 320 314 290 296 283 285 281 277 292 296 
227 247 235 220 241 222 225 235 229 222 237 225 227 235 253 247 249 255 253 261 249 237 241 249 257 267 283 287 296 314 378 502 534 532 518 512 510 516 492 518 547 538 520 524 551 551 536 549 520 510 601 638 616 628 616 478 414 430 460 474 462 418 372 340 338 314 287 310 316 320 318 312 296 314 306 287 298 292 310 302 
227 233 225 231 241 220 218 237 229 225 235 243 245 243 247 249 253 265 249 261 261 237 255 275 279 275 275 300 310 330 478 524 510 498 476 462 470 504 490 496 504 500 466 442 448 462 458 426 430 466 540 573 614 650 614 573 502 508 488 484 466 430 382 362 348 346 314 320 336 350 356 362 360 390 374 356 348 330 352 338 
233 245 231 222 235 225 235 218 225 235 225 216 245 255 241 245 247 249 259 259 261 245 247 269 275 273 279 294 312 358 522 546 520 492 476 480 474 436 382 428 432 406 346 372 394 392 404 398 392 478 454 442 460 555 500 424 458 466 460 448 406 382 382 374 358 354 354 348 374 424 416 418 406 452 440 434 418 420 436 416 
229 249 231 229 235 245 243 241 229 222 222 241 257 247 265 257 261 253 263 251 251 255 249 273 279 277 279 294 314 368 522 540 514 510 518 512 478 444 424 400 326 283 316 332 350 386 438 442 388 432 416 384 382 428 420 392 396 402 408 400 360 382 368 364 374 370 370 376 390 436 412 412 388 410 414 412 412 404 434 430 
227 235 249 231 247 241 231 229 218 220 225 231 247 279 265 253 271 271 253 259 271 275 304 308 300 322 306 296 328 372 518 514 520 544 579 528 432 414 350 302 275 292 306 316 330 384 404 418 420 392 406 380 366 388 404 412 396 392 396 376 338 346 368 358 368 350 368 396 408 450 408 388 390 416 412 416 408 412 416 420 
247 233 257 233 239 235 235 243 237 229 225 247 241 245 259 255 261 265 249 269 314 386 410 430 490 575 528 408 374 408 498 510 528 534 532 458 396 344 300 281 320 324 344 336 358 360 374 408 416 390 388 380 368 422 408 414 396 396 394 380 348 348 352 360 352 356 384 394 428 434 404 388 386 410 416 396 400 382 392 410 
243 231 233 239 243 225 229 239 233 237 237 247 235 245 253 249 247 251 255 294 422 496 476 532 630 673 675 656 583 546 498 494 518 484 434 392 340 269 243 253 285 306 334 346 354 342 378 398 416 394 384 358 368 398 424 432 408 376 366 362 392 396 384 374 384 392 394 390 400 392 364 354 338 354 360 336 322 316 324 318 
239 251 241 222 245 235 233 237 233 247 241 237 253 249 251 233 263 265 255 334 454 512 520 646 677 644 640 648 612 571 510 468 518 476 422 386 300 247 220 247 296 302 334 328 356 366 370 392 410 388 420 364 356 380 388 426 410 396 372 380 454 460 446 420 380 374 364 362 362 360 364 352 326 330 316 304 306 300 316 320 
245 241 237 233 235 231 220 235 233 237 241 241 233 247 253 251 251 269 263 338 404 488 595 663 667 616 601 614 593 555 480 472 526 464 420 416 332 279 263 290 287 310 328 336 354 360 368 374 374 408 414 366 388 368 386 398 406 392 374 394 444 458 450 426 398 406 388 384 376 380 350 358 316 334 326 312 308 304 314 314 
241 237 235 220 239 239 216 231 231 235 239 241 241 243 241 245 253 243 259 336 412 488 544 634 665 652 661 605 559 542 478 494 546 466 410 402 314 229 227 259 285 300 342 328 336 346 360 388 392 436 408 362 372 384 404 392 388 382 398 398 400 412 434 436 422 432 432 414 412 440 396 378 384 396 412 390 390 396 390 370 
218 235 233 233 233 225 214 239 222 218 229 237 231 225 243 239 237 237 263 310 364 434 438 526 618 652 618 575 510 480 458 490 542 464 398 374 322 259 249 249 269 285 344 328 320 348 370 392 408 464 402 350 368 396 386 380 376 404 416 418 380 382 414 422 408 424 406 400 384 428 424 410 408 402 420 438 444 442 454 416 
225 235 251 251 222 235 225 229 227 233 231 233 229 237 249 257 261 251 235 285 292 298 302 348 428 476 444 360 340 380 476 502 490 470 420 408 370 344 294 243 261 265 320 320 314 324 350 380 374 424 366 354 340 380 376 372 384 404 414 446 388 358 396 408 416 412 398 378 336 408 406 422 424 410 422 442 458 472 468 402 
212 237 245 237 245 237 216 235 229 229 227 245 235 249 249 251 257 255 255 249 247 247 247 257 269 273 279 279 304 336 484 462 452 448 420 420 422 388 366 300 310 318 320 320 314 320 318 348 356 372 366 356 320 354 370 374 396 428 450 460 372 328 366 406 390 384 370 336 302 402 420 438 424 422 430 438 446 438 424 390 
233 235 239 233 245 235 231 247 233 239 229 231 249 245 263 239 263 249 255 243 237 227 237 261 255 249 263 275 292 344 476 462 444 418 384 380 390 348 318 312 304 306 314 314 328 336 322 328 344 382 372 366 312 330 338 356 384 422 458 470 376 332 366 354 348 342 310 263 255 352 386 398 386 402 398 386 368 326 322 318 
225 243 239 231 227 241 243 233 243 235 239 235 255 255 261 245 269 265 265 249 241 241 245 243 255 257 277 267 312 320 480 496 468 416 342 285 222 281 340 358 342 326 326 314 370 368 364 368 358 396 394 372 322 340 352 356 366 384 410 438 408 346 324 292 290 273 253 237 255 346 346 350 316 312 306 290 285 277 281 292 
237 225 237 231 227 241 227 229 249 227 237 247 253 257 265 255 261 261 255 249 235 222 243 253 241 241 253 265 296 306 422 486 470 418 324 245 174 253 416 472 496 452 380 380 390 402 398 390 358 354 380 366 340 342 360 374 394 410 410 410 396 334 281 261 247 239 247 259 308 336 344 338 316 314 290 271 261 271 283 279 
239 251 243 229 245 233 241 231 243 245 243 243 259 269 253 251 275 253 259 257 255 237 233 247 259 261 259 285 296 324 386 472 462 426 404 380 354 364 410 480 508 526 518 520 532 547 528 510 462 438 450 430 428 450 472 476 482 486 512 454 334 285 285 285 283 290 298 300 324 354 350 338 316 306 277 273 275 269 283 281 
229 251 229 241 231 247 243 245 251 245 253 251 271 312 338 302 296 265 253 255 259 225 237 253 265 263 290 376 444 430 472 474 440 436 412 424 418 426 510 518 551 563 553 542 547 553 547 553 536 520 504 514 512 502 506 524 530 534 512 528 362 287 304 298 306 314 320 320 330 334 336 324 304 308 294 277 263 267 277 273 
245 239 237 251 229 243 231 237 249 251 269 304 388 540 569 498 392 320 279 261 247 233 251 243 265 263 360 472 474 442 436 448 420 400 420 426 424 500 577 579 597 612 557 544 551 567 567 561 520 506 508 526 536 544 538 547 544 502 466 551 376 302 306 320 310 316 322 332 314 332 318 324 302 304 283 259 251 253 292 269 
222 249 237 225 231 241 237 247 243 237 281 394 528 646 646 612 636 561 488 348 273 229 255 247 265 320 432 464 446 444 440 432 338 273 404 438 426 464 549 595 589 605 561 500 458 518 504 440 388 368 412 420 432 446 474 440 414 354 346 366 346 306 300 302 306 316 328 322 326 312 306 312 296 290 261 273 265 273 273 292 
218 253 253 218 235 241 231 222 251 279 320 454 609 659 663 690 702 650 642 571 334 200 253 257 296 392 428 418 442 442 406 342 283 263 314 366 372 388 428 486 478 488 422 408 402 378 378 360 356 344 336 334 332 346 346 334 316 316 320 326 314 294 308 300 283 285 298 314 312 320 320 300 283 281 275 279 285 271 298 281 
225 253 235 245 227 237 227 237 243 275 358 492 618 650 696 692 702 646 601 575 474 94 129 285 414 296 306 404 422 386 318 273 247 249 273 346 378 370 392 398 404 382 346 364 354 350 338 348 358 354 344 322 316 332 342 336 324 326 322 312 304 304 310 296 285 292 298 318 314 310 310 296 283 273 279 275 275 275 287 287 
225 247 231 222 237 227 229 247 247 257 358 500 607 634 665 708 688 605 538 528 376 53 0 322 368 108 300 370 376 326 261 241 237 261 344 394 394 392 396 378 362 342 316 322 342 326 314 326 340 370 350 348 328 334 338 342 326 328 322 334 314 318 320 302 290 290 302 312 306 318 308 281 279 281 279 265 263 271 294 302 
233 231 233 247 237 227 235 229 233 263 324 468 581 610 614 630 640 532 422 302 117 63 151 308 322 298 370 336 338 306 214 194 231 334 376 414 392 406 386 372 366 338 344 314 342 310 314 308 316 350 358 354 348 326 344 330 330 332 338 332 324 316 316 292 310 294 294 310 312 320 338 370 382 404 374 346 312 318 324 306 
233 235 245 222 233 229 239 225 231 231 275 390 488 555 569 579 583 366 222 117 96 121 261 283 296 382 370 348 340 287 202 190 277 366 390 410 390 394 390 380 364 368 358 322 336 310 308 306 316 334 330 348 344 334 366 344 348 338 342 346 350 322 320 308 294 300 287 294 296 281 362 406 428 456 468 468 438 426 400 354 
233 229 243 227 241 225 239 241 249 251 255 267 316 420 536 557 597 394 220 192 231 296 364 374 344 340 346 340 326 265 188 225 328 386 382 406 400 388 396 376 380 360 354 350 338 314 294 308 310 314 322 322 340 334 360 356 364 354 346 350 358 330 328 308 310 324 316 292 310 304 356 398 412 452 478 496 488 480 482 452 
220 251 239 239 245 243 241 243 247 245 245 257 290 412 526 514 553 464 279 328 426 416 446 416 376 354 336 318 287 192 157 210 306 370 390 406 378 360 374 372 382 376 364 350 348 312 300 300 308 314 332 334 340 344 340 340 338 342 338 336 354 346 348 326 332 342 340 318 334 340 348 380 418 446 488 482 484 492 494 480 
222 243 239 245 243 239 249 259 245 261 267 263 277 398 510 520 540 356 265 296 448 468 482 420 372 358 338 304 245 164 176 233 316 372 376 392 362 336 320 358 374 370 346 342 322 322 296 302 326 334 350 368 368 356 338 332 328 314 328 330 334 334 334 342 330 332 358 368 356 358 372 404 420 448 484 502 496 490 490 456 
225 247 231 220 251 237 233 231 253 245 243 253 277 342 524 528 530 342 269 285 382 468 446 396 360 358 352 304 227 170 194 251 316 372 374 388 338 332 324 340 352 334 346 354 318 334 298 314 332 350 358 362 376 350 330 310 292 292 302 312 320 318 326 334 322 312 384 388 382 366 378 390 412 442 448 452 436 418 430 408 
231 259 251 233 241 231 235 245 235 251 249 239 237 328 510 549 476 316 267 287 398 476 424 378 360 376 380 298 218 190 222 277 342 376 394 386 350 324 340 342 350 338 336 332 330 334 310 312 340 348 362 364 350 336 314 300 275 269 283 290 279 300 312 318 332 312 350 344 352 336 340 334 332 310 316 314 296 310 326 318 
225 251 251 231 249 247 239 235 245 237 245 243 265 279 416 516 474 312 259 338 478 456 404 376 332 366 398 312 245 220 218 277 338 374 372 398 362 354 354 344 342 314 334 338 332 322 300 312 326 336 324 314 308 285 292 283 269 261 269 269 279 294 302 306 283 312 328 340 332 328 318 314 275 271 259 245 245 261 265 271 
227 243 259 229 237 233 222 237 235 259 235 237 263 271 394 462 474 338 296 416 492 432 398 364 334 316 342 287 218 196 214 273 330 368 374 390 364 376 344 340 328 326 324 324 324 314 310 304 314 306 296 285 277 269 285 300 296 277 283 292 302 300 298 287 275 290 310 326 316 316 310 283 265 239 231 220 216 227 261 251 
220 222 251 218 239 241 227 237 237 247 243 239 259 261 380 452 492 364 362 462 460 408 380 324 328 324 310 273 220 182 243 267 302 346 368 388 368 374 370 336 340 324 318 340 340 306 308 304 290 285 285 273 273 273 281 314 292 300 306 316 320 326 314 308 310 306 281 304 306 324 302 285 273 243 237 227 218 220 245 259 
225 235 245 251 235 247 235 231 241 249 261 243 251 269 354 458 490 406 382 456 466 422 364 251 111 123 164 229 229 239 261 292 310 340 356 382 386 390 384 360 338 330 340 354 336 312 306 287 279 275 281 290 287 281 298 314 308 306 310 320 314 304 308 316 318 294 290 318 322 316 298 292 281 261 239 237 222 231 261 253 
229 235 235 245 245 243 220 245 241 233 253 241 259 263 318 426 462 408 412 426 452 406 406 261 19 17 23 153 263 267 298 314 308 332 356 374 380 394 378 356 342 328 328 368 336 302 308 277 279 271 292 308 296 300 306 318 306 298 298 326 316 308 316 316 290 290 290 318 340 322 322 318 320 312 322 322 326 304 294 287 
235 249 239 231 241 227 233 233 235 247 255 245 233 253 336 394 470 462 440 458 428 406 400 328 160 30 65 176 259 275 304 308 320 328 342 364 372 378 346 318 326 308 340 380 336 324 322 306 283 290 287 290 308 296 322 308 294 304 294 314 304 320 318 287 292 302 283 296 322 306 308 308 342 364 368 392 398 406 392 368 
231 231 218 206 231 210 210 222 229 237 237 235 225 251 294 410 494 500 474 466 450 390 416 378 290 168 192 227 255 237 275 277 275 290 302 326 330 334 322 310 314 336 408 402 326 334 334 312 306 306 322 322 314 310 318 306 296 281 298 306 308 285 296 283 285 300 273 283 277 277 275 294 298 346 368 396 424 412 424 412 
220 233 233 212 218 222 222 220 206 233 231 249 235 247 273 398 514 482 506 486 460 446 390 358 332 263 208 233 243 225 243 257 241 229 227 247 253 261 271 294 304 354 400 376 326 338 308 302 312 360 414 408 380 366 324 320 304 290 290 296 277 283 285 279 292 275 255 253 231 233 257 269 306 342 376 408 402 422 458 436 
184 208 241 196 204 227 208 218 214 210 243 225 229 239 273 368 524 504 488 484 490 492 476 394 368 275 218 229 225 218 231 237 225 212 216 216 214 233 227 231 241 241 255 287 302 304 308 304 312 334 400 412 398 388 374 370 328 310 285 300 281 271 263 283 279 255 247 227 227 222 241 263 316 350 392 420 438 456 476 450 
196 214 216 192 206 200 194 214 206 202 225 225 231 222 273 350 524 534 534 496 514 494 508 460 404 253 198 216 222 218 222 216 216 204 218 206 204 202 212 206 202 200 216 225 245 259 271 279 310 330 358 378 368 378 358 328 348 302 279 275 271 251 277 271 267 253 253 231 235 235 257 300 340 376 428 452 436 462 470 448 
192 214 214 190 198 210 196 206 204 202 196 198 222 225 243 294 452 520 494 502 524 482 538 466 398 277 239 233 229 202 198 206 198 202 198 216 194 192 192 194 202 190 216 231 255 269 275 271 271 271 287 290 330 338 336 322 310 290 265 261 263 273 261 253 247 255 245 237 220 225 239 269 326 388 420 422 452 452 466 442 


