P2
80 60
607
19 23 17 0 6 21 29 39 37 37 31 45 35 43 37 43 39 59 49 61 67 67 67 59 65 78 67 80 78 76 71 78 65 71 96 80 71 90 100 94 86 88 71 76 78 84 76 76 82 90 120 136 141 151 149 153 147 159 179 191 181 187 155 169 205 241 217 215 237 267 309 373 400 393 361 391 385 353 347 317 
55 19 15 6 21 29 29 37 21 39 19 37 29 49 37 57 43 59 69 49 61 67 73 57 47 73 65 69 69 73 73 78 78 69 84 90 82 76 92 84 90 78 71 76 71 98 65 71 73 94 110 122 145 155 145 147 143 169 215 255 233 247 185 177 195 243 327 311 269 289 301 398 446 389 365 367 369 331 319 313 
23 21 25 27 31 21 21 25 33 43 31 39 53 45 53 57 59 35 51 61 71 73 73 67 63 73 67 84 57 88 71 76 71 63 69 80 76 80 86 92 92 73 76 92 69 78 67 84 78 67 96 118 143 149 153 155 181 193 229 273 307 299 225 215 239 247 387 510 422 369 359 391 446 418 373 361 333 329 299 305 
43 25 13 17 25 8 25 37 41 39 25 49 45 33 37 45 45 43 45 69 76 43 67 63 55 61 78 71 71 63 76 76 78 67 71 73 76 84 82 88 82 76 78 76 76 73 63 80 78 90 84 90 110 120 120 167 197 177 191 247 315 345 261 227 263 285 385 543 576 510 410 359 408 440 398 339 327 335 315 289 
29 19 6 15 15 27 17 37 27 37 47 31 49 55 45 59 43 57 49 49 67 51 73 53 47 73 65 63 63 59 73 63 71 76 82 76 73 86 82 76 69 88 65 59 65 67 78 63 78 69 82 55 65 88 88 203 245 203 199 257 307 341 275 249 323 393 491 557 598 592 508 387 373 367 365 359 341 331 313 301 
27 17 2 19 29 27 23 33 39 41 43 41 45 65 51 37 43 67 61 67 61 47 65 63 61 65 53 69 61 78 69 55 73 45 69 76 76 71 67 92 82 65 82 78 73 76 78 69 76 86 78 82 86 88 98 217 299 237 219 251 289 325 277 281 373 422 528 578 607 600 497 393 395 363 315 325 339 299 295 301 
37 21 21 37 41 37 31 37 43 39 47 47 43 61 37 49 35 41 57 51 63 51 57 55 61 80 65 71 55 78 82 80 73 73 71 78 94 84 84 92 78 78 90 88 84 92 92 82 92 86 94 82 71 84 100 223 315 267 237 251 309 317 271 299 461 549 541 594 590 572 475 397 371 361 347 329 307 283 277 301 
29 19 31 35 49 31 29 45 43 51 37 49 53 45 59 49 47 49 61 57 88 45 65 73 69 78 61 86 76 73 65 88 76 71 100 100 82 110 88 100 86 100 88 92 90 92 102 94 92 94 94 98 92 96 110 223 317 271 227 251 303 349 325 355 463 553 559 551 508 448 436 395 361 345 345 355 339 315 265 263 
33 25 21 21 29 27 43 43 35 31 49 35 55 41 53 47 53 45 49 69 57 67 67 71 61 71 84 82 80 96 82 84 86 67 82 106 96 98 110 106 96 92 94 94 98 82 100 102 92 92 96 98 88 108 114 161 293 261 279 241 319 373 341 461 528 555 576 541 448 422 406 408 363 353 337 323 313 297 273 261 
31 15 23 25 41 23 31 37 35 37 55 67 53 59 57 61 71 61 63 78 78 65 65 84 84 94 73 88 90 92 88 86 94 92 88 104 104 96 112 102 104 98 102 110 112 110 102 84 114 104 100 100 100 94 96 122 225 241 201 253 379 463 448 534 574 578 582 532 467 436 428 406 385 377 339 329 327 311 291 273 
35 15 25 39 53 35 47 43 47 65 53 76 57 51 57 53 59 65 55 65 63 92 80 86 88 86 80 84 86 92 76 90 88 96 100 106 100 98 110 114 112 110 98 98 112 110 106 106 116 116 108 98 92 98 92 98 159 221 193 265 398 475 520 553 557 565 520 479 420 414 393 391 365 363 341 323 331 347 317 319 
37 15 37 25 39 55 63 61 53 67 55 53 57 63 55 73 67 71 69 92 73 76 82 90 92 84 80 100 92 92 84 96 98 90 100 106 108 112 108 106 106 114 110 96 102 104 104 114 106 110 110 110 102 100 102 86 100 114 122 197 309 420 389 503 520 493 438 400 387 385 371 357 351 345 331 329 345 339 325 311 
45 31 27 35 29 61 31 43 47 49 63 53 59 61 65 59 55 53 65 67 71 76 84 65 92 98 92 88 86 86 98 98 102 102 94 98 104 102 108 108 104 118 108 100 112 114 106 118 108 112 118 102 104 108 112 90 96 104 118 114 116 165 183 345 422 440 412 381 375 377 383 369 349 337 327 333 337 329 323 311 
21 29 31 35 47 43 57 59 51 51 61 59 49 69 59 61 65 61 61 86 78 73 92 80 80 90 90 82 88 98 84 82 102 88 100 104 98 122 108 112 112 108 102 110 112 112 104 106 112 114 122 98 110 108 108 92 88 84 104 108 110 207 309 397 446 448 442 400 373 463 487 465 402 305 283 305 327 305 295 297 
43 27 29 37 41 45 47 57 51 51 61 65 78 61 63 67 63 82 71 65 88 73 73 82 88 86 84 100 98 96 96 90 96 90 92 86 100 102 126 108 104 106 106 104 104 108 106 96 104 104 102 114 100 106 116 100 94 104 120 128 233 381 402 438 440 456 448 456 497 510 507 465 313 163 151 169 197 245 245 305 
33 35 35 41 53 59 47 61 45 53 65 63 59 53 67 53 63 71 69 71 90 82 80 84 92 82 84 86 88 86 88 92 92 98 100 94 94 100 110 112 112 114 108 100 110 106 96 104 102 106 102 112 104 108 108 102 102 106 145 245 371 434 434 452 465 430 452 510 501 499 489 333 193 151 120 108 102 120 126 287 
59 35 29 37 45 55 55 45 49 63 45 63 53 61 61 57 67 73 71 90 71 67 76 67 73 82 88 98 86 86 82 84 86 106 94 90 102 88 98 100 104 100 96 106 104 104 106 104 118 114 112 108 102 114 108 108 116 153 293 391 414 428 436 465 497 507 497 512 503 483 299 181 138 136 122 114 102 102 106 277 
41 49 41 57 37 39 63 47 61 63 71 49 57 47 59 73 69 55 67 65 67 71 80 88 80 92 73 92 76 88 80 86 78 98 78 90 94 98 92 98 102 98 86 104 100 108 102 106 122 108 126 126 126 130 149 169 257 363 404 410 397 373 402 461 503 499 505 503 510 339 175 138 132 128 106 116 112 100 100 257 
41 47 49 43 29 51 49 59 47 59 63 49 55 61 49 82 47 59 69 69 67 67 59 76 76 78 76 80 71 80 80 82 82 65 80 86 104 94 98 102 106 92 100 112 100 120 108 114 116 116 126 134 203 333 395 440 452 422 381 295 197 193 271 329 446 499 510 514 467 257 171 169 136 145 128 132 134 114 128 259 
51 49 41 39 45 39 37 51 63 43 73 63 45 67 61 69 63 73 63 63 73 76 73 82 78 94 76 78 84 80 96 92 84 82 100 92 108 120 116 110 114 112 118 106 108 114 108 118 132 136 177 263 440 508 522 495 454 327 185 138 114 171 311 327 418 495 512 512 422 255 199 181 151 141 145 130 149 130 128 245 
59 61 39 37 49 49 53 43 49 53 69 67 71 55 76 63 53 63 65 67 88 69 88 76 92 78 80 82 98 80 94 100 102 92 94 102 102 114 122 118 112 106 110 108 116 106 106 122 171 299 400 416 495 524 518 485 293 169 155 147 130 223 331 331 341 387 406 412 367 299 253 211 177 185 167 173 165 159 155 253 
51 45 39 63 45 43 53 63 61 53 59 69 71 63 65 67 78 59 67 86 86 80 88 88 96 88 104 94 92 98 100 106 100 108 100 110 126 120 114 118 106 124 116 132 120 116 128 122 175 199 183 211 432 516 469 315 217 189 175 161 159 263 377 321 335 319 313 315 327 341 337 303 241 251 213 217 207 209 195 277 
35 53 57 53 49 47 55 55 45 57 53 55 76 61 71 73 84 80 78 86 88 78 82 88 90 94 86 100 98 108 90 106 100 106 106 106 102 108 118 104 124 116 122 112 136 126 122 124 143 136 159 175 391 430 355 335 375 418 343 239 179 311 363 337 343 331 357 375 365 359 345 333 333 351 315 311 285 273 303 333 
41 43 47 59 55 67 71 59 59 59 73 53 71 82 65 69 73 80 78 90 92 90 82 90 88 94 92 98 98 94 106 94 114 110 90 112 106 112 114 120 116 116 110 102 116 124 126 130 138 138 155 185 277 353 347 418 514 536 534 461 355 398 377 367 349 331 343 347 387 379 325 337 365 359 355 345 355 347 361 363 
51 51 61 51 49 41 63 65 45 45 57 63 65 65 82 82 67 78 78 80 88 84 90 82 94 86 92 102 92 102 102 108 104 104 112 102 104 110 120 112 124 112 110 112 120 116 132 122 134 147 155 231 317 363 430 518 557 569 563 522 497 461 391 353 335 311 317 317 349 387 323 341 385 349 361 367 373 383 363 377 
65 45 63 55 47 57 57 61 63 59 61 57 53 59 76 84 67 71 67 71 73 86 90 98 98 88 114 110 96 94 86 110 108 104 116 116 104 118 108 114 108 116 112 110 122 130 126 143 130 136 157 267 398 446 538 536 559 572 569 547 528 501 414 329 337 329 321 333 351 379 315 339 367 331 389 393 385 357 389 377 
55 59 49 59 67 55 47 55 53 57 67 55 61 78 63 76 69 61 73 82 84 88 96 84 88 92 84 86 86 90 92 102 112 82 94 100 114 110 108 124 112 120 112 118 122 118 120 128 138 132 163 253 377 514 563 534 448 512 534 526 501 491 404 337 341 333 339 365 363 357 325 363 339 351 422 418 393 369 393 393 
45 59 57 43 61 61 51 71 76 80 82 76 63 71 88 80 80 78 73 80 88 84 96 92 88 98 86 98 110 110 90 98 106 100 98 94 112 124 118 120 126 122 118 124 116 132 120 136 141 141 147 205 305 430 539 505 395 473 503 503 481 454 369 357 371 355 373 400 387 363 337 381 345 379 438 402 395 379 383 397 
61 41 53 47 51 67 57 47 57 59 80 67 71 67 59 65 76 80 86 94 80 92 88 88 106 84 110 92 94 102 94 114 106 88 108 102 106 116 116 112 130 124 102 110 112 124 124 124 132 136 147 153 171 297 422 469 465 485 467 440 428 414 387 385 408 393 393 387 387 331 341 383 359 395 424 387 391 397 391 377 
41 35 55 53 47 69 59 82 57 55 84 71 57 67 65 80 67 63 65 96 84 90 94 88 92 96 78 98 94 102 90 88 102 94 108 100 106 104 106 110 122 112 100 134 128 126 120 116 134 132 130 143 124 149 181 263 347 347 295 265 397 418 355 387 398 402 402 391 325 309 349 349 379 400 408 389 373 395 371 387 
37 23 57 51 53 57 69 57 47 71 73 65 53 71 69 71 78 67 76 80 94 84 96 94 96 80 90 98 106 102 86 92 88 90 102 104 108 106 118 118 118 102 106 116 112 126 124 124 118 126 132 126 120 130 147 132 151 147 169 165 335 422 389 400 412 393 408 385 331 361 371 331 404 404 393 398 383 385 359 400 
43 43 59 47 55 53 61 53 49 67 78 57 69 71 69 76 80 76 67 82 65 82 88 90 84 82 86 96 96 98 86 92 92 94 98 90 106 94 116 118 110 112 96 122 114 108 124 126 130 124 130 126 120 116 128 132 126 138 145 159 333 440 400 424 424 404 373 355 383 373 367 327 383 395 369 395 391 365 349 400 
43 49 53 61 43 43 67 61 55 49 69 55 57 65 86 76 59 55 76 67 63 73 76 80 82 84 86 88 84 88 84 92 94 84 84 94 98 102 100 98 106 100 108 116 114 116 114 110 118 126 118 118 122 110 114 116 110 120 134 165 363 416 363 426 452 414 379 385 393 369 365 359 353 406 383 406 404 377 355 381 
49 55 47 57 49 43 47 63 59 69 67 51 61 67 59 49 61 59 67 84 76 82 88 78 76 84 90 94 76 86 96 82 84 76 82 80 96 102 110 112 94 108 104 112 100 118 110 112 120 110 114 118 116 132 132 122 96 116 136 163 331 391 381 428 454 422 377 402 397 337 353 331 367 381 397 412 410 387 339 351 
57 53 53 33 59 43 65 71 55 55 51 55 49 57 65 57 59 69 63 82 76 69 73 90 76 90 86 80 84 102 82 71 100 73 90 88 94 108 104 102 118 96 112 104 108 120 118 114 128 134 132 157 263 195 136 132 120 122 138 147 303 391 381 424 448 442 395 412 410 361 353 359 363 359 383 430 430 398 313 319 
41 51 67 27 73 49 65 61 61 55 69 59 51 76 76 59 57 67 71 82 78 86 78 78 80 96 90 98 90 94 84 88 94 98 88 96 94 112 106 114 124 108 108 106 112 122 130 126 167 211 229 337 469 471 293 157 128 122 143 157 277 414 404 434 458 452 420 393 387 337 321 295 281 327 375 414 408 387 323 327 
47 45 59 49 55 37 57 73 61 65 53 63 67 80 63 76 76 76 80 86 84 73 82 90 92 78 90 92 84 84 90 96 96 92 92 102 112 120 106 114 118 114 112 108 110 110 124 167 299 357 391 469 512 534 483 301 159 145 138 153 237 398 398 434 460 444 430 345 241 217 227 217 217 229 227 269 315 315 295 293 
49 47 51 59 45 53 53 84 59 59 84 61 80 73 69 78 71 71 71 94 96 84 82 88 90 82 90 90 104 94 100 100 112 102 102 112 106 112 116 116 120 118 124 120 122 124 136 138 175 179 245 440 503 526 497 473 321 171 157 157 197 375 426 438 448 454 414 289 195 197 203 205 183 193 179 187 177 181 171 189 
45 43 33 53 59 51 49 73 61 57 63 55 69 65 69 88 61 69 98 92 84 86 90 98 100 86 104 92 88 110 100 98 96 96 128 112 108 116 124 122 122 136 130 128 120 126 126 132 141 147 155 271 452 463 458 469 452 323 227 161 177 381 450 467 456 442 385 257 183 199 195 201 195 183 171 177 167 153 153 165 
35 51 57 49 51 57 65 67 61 71 88 84 80 76 82 84 71 86 88 86 80 84 90 90 106 86 110 102 96 104 106 104 104 104 104 110 108 108 114 124 126 112 118 118 114 128 126 134 132 138 155 165 211 211 219 299 375 391 404 331 275 373 475 510 477 440 379 235 165 203 207 199 179 189 177 183 167 147 138 149 
37 47 51 39 41 65 59 61 51 73 80 73 67 63 71 80 80 76 78 100 90 82 92 94 96 104 98 92 92 96 98 106 108 100 106 120 108 128 120 118 136 110 124 114 130 128 134 138 132 132 134 134 138 145 147 173 253 383 412 428 393 422 481 530 501 446 321 213 169 203 205 197 189 199 187 177 161 136 134 143 
51 49 41 35 61 67 49 59 59 59 65 71 73 63 59 71 86 82 82 90 86 78 84 100 98 100 102 98 94 100 114 106 92 106 126 94 102 122 124 124 124 116 114 116 126 128 118 130 136 143 141 134 130 145 151 161 153 259 400 406 404 442 471 508 499 436 273 197 177 199 213 209 215 219 183 177 149 138 120 157 
31 27 39 53 63 35 59 65 55 67 63 71 59 69 76 73 78 69 80 78 84 78 84 86 100 98 90 104 98 102 90 106 94 92 92 102 98 124 96 108 128 112 122 118 128 132 128 147 141 138 138 138 132 149 145 132 136 151 267 383 406 444 454 479 471 420 255 205 199 217 221 231 219 221 201 199 173 149 143 155 
39 31 55 51 57 51 67 61 53 51 63 67 65 80 69 76 78 76 88 88 90 82 80 92 86 112 84 94 86 96 104 88 94 98 108 94 106 98 110 114 120 124 110 112 128 132 120 128 141 153 141 132 122 136 138 130 130 145 167 253 371 430 440 471 471 434 281 221 203 207 237 233 239 227 223 225 227 229 197 189 
57 47 35 49 43 43 51 65 45 51 57 65 65 63 71 71 82 65 71 92 106 76 92 96 90 98 98 100 104 94 96 110 90 90 96 98 96 104 116 130 112 116 114 126 120 128 138 132 143 134 141 134 134 145 136 130 130 143 149 167 243 381 404 450 450 438 321 241 217 223 237 263 227 229 239 249 257 245 207 209 
45 47 35 47 49 41 49 65 49 67 67 55 71 76 65 82 78 78 86 73 69 73 76 84 94 98 98 88 86 100 84 94 96 90 92 100 94 100 114 118 98 116 100 130 141 138 132 132 132 126 143 143 138 136 134 132 124 134 155 175 277 397 398 428 440 410 337 253 219 231 251 251 235 221 229 249 235 231 221 205 
47 35 55 63 43 43 45 61 55 59 59 61 63 55 53 61 57 71 69 73 84 78 84 92 71 98 94 88 98 102 94 90 100 92 78 86 98 114 120 106 106 114 120 126 136 134 136 134 149 132 145 128 136 143 143 132 128 126 153 203 343 404 400 434 426 402 333 249 233 247 255 257 239 201 205 215 219 195 189 199 
37 57 39 51 37 51 43 65 65 53 65 51 63 57 47 47 82 71 71 84 76 88 82 76 71 84 82 86 92 84 84 92 92 82 82 82 94 104 104 106 110 100 118 118 120 128 141 141 138 143 136 136 118 130 141 122 118 124 167 301 389 424 404 434 410 395 329 247 229 243 249 243 223 195 205 213 201 187 193 195 
43 37 39 51 33 39 57 45 47 39 57 43 53 71 65 47 53 57 78 73 86 80 73 71 65 71 80 59 67 82 71 76 82 67 76 94 94 90 102 98 110 106 110 118 116 136 128 126 126 128 134 141 128 124 126 126 112 120 209 359 393 422 404 430 385 331 295 259 233 247 257 259 217 197 223 229 221 209 217 265 
51 63 43 39 37 35 45 59 39 57 55 47 63 55 63 63 65 65 67 76 67 67 71 73 76 80 76 90 69 96 92 59 90 78 86 86 78 112 98 104 116 100 114 124 126 132 130 145 153 141 136 130 136 134 124 130 122 143 263 398 398 424 416 436 363 325 315 291 299 305 325 319 299 283 313 325 303 311 301 317 
25 41 45 37 63 43 59 43 51 55 61 61 57 67 53 65 69 71 80 78 71 80 73 86 71 80 88 86 80 84 82 76 78 78 96 96 84 98 104 106 122 118 118 120 128 126 141 136 149 145 141 134 122 130 134 132 124 173 331 359 351 357 351 369 361 359 333 331 345 369 371 353 325 331 337 351 357 365 353 349 
27 33 41 41 35 41 39 49 43 55 63 51 61 59 57 71 67 65 76 86 84 73 90 78 78 88 92 78 82 100 88 92 96 98 94 96 94 110 112 102 114 108 122 132 126 130 128 143 141 149 147 145 132 132 134 141 124 181 355 367 361 359 325 333 337 343 317 329 335 373 385 345 343 363 355 357 359 387 375 351 
33 45 51 45 47 55 59 57 43 55 59 57 67 61 61 67 65 63 67 88 82 90 98 86 92 78 86 102 86 92 88 98 96 94 102 96 102 114 116 104 106 114 126 118 128 145 136 145 155 149 141 138 132 141 130 138 126 183 359 398 383 371 327 321 307 301 303 301 331 367 351 321 323 355 369 355 351 377 373 361 
39 51 45 43 53 41 65 53 61 53 73 76 53 65 59 73 73 45 71 69 90 73 98 80 86 92 86 82 102 96 88 98 102 108 92 106 110 124 106 112 114 110 118 128 132 149 134 134 151 153 149 141 134 136 138 143 147 171 365 406 395 371 345 349 317 303 311 313 325 347 339 317 287 337 359 353 359 359 349 351 
41 33 49 51 27 45 43 43 43 43 63 49 65 57 61 65 57 78 67 67 90 78 92 76 98 78 82 90 96 98 98 86 106 102 90 114 104 106 112 108 116 112 110 124 120 138 136 143 130 132 130 130 126 138 149 126 136 201 373 404 387 381 331 345 337 325 303 309 323 335 291 251 255 277 319 339 347 319 323 335 
33 39 51 33 35 39 39 55 51 61 65 57 53 73 61 71 53 63 76 84 84 71 82 88 88 80 84 108 92 76 92 88 90 98 94 94 110 110 96 120 112 118 114 122 116 126 130 141 130 145 149 163 167 183 215 191 171 225 387 402 397 387 353 347 345 325 317 293 315 303 275 231 193 253 293 327 335 305 315 309 
43 25 29 49 39 49 51 39 45 59 53 61 59 63 65 67 65 61 61 86 80 82 71 82 82 92 90 96 92 96 82 100 88 94 98 92 102 96 104 116 104 108 102 104 112 118 118 138 149 193 269 371 416 438 458 397 343 355 400 430 412 398 343 359 333 319 287 291 283 285 267 247 195 207 243 279 293 291 301 283 
33 39 43 35 25 29 41 41 41 63 73 51 49 59 61 55 71 55 61 84 84 84 90 76 84 96 90 98 90 88 98 96 84 88 88 88 110 106 106 98 92 102 104 112 124 112 114 159 253 359 434 491 526 520 528 483 397 408 424 469 456 430 345 329 321 293 285 275 267 257 249 253 213 179 221 271 263 285 283 261 
39 39 35 31 37 33 27 45 31 33 47 49 47 49 61 55 65 45 65 80 76 82 63 78 76 94 94 86 92 86 82 80 80 86 94 98 90 104 112 106 100 118 98 102 106 116 130 211 319 434 448 485 507 559 555 538 503 499 497 507 475 438 339 317 295 277 267 253 243 249 251 259 209 181 191 243 219 259 255 265 
35 37 33 23 49 43 35 43 27 45 43 45 49 53 63 43 53 47 61 76 76 82 82 69 73 90 86 94 86 84 86 92 90 71 86 94 96 112 102 118 104 84 92 90 92 92 108 255 351 432 450 469 507 563 586 569 553 586 572 532 489 450 327 321 291 275 253 249 247 255 255 247 203 145 163 211 213 241 267 269 


