P2
80 60
494
42 51 22 28 38 20 34 48 61 59 57 57 79 63 46 57 63 57 59 51 48 46 57 46 59 57 125 279 334 316 289 297 289 203 147 155 173 199 287 375 334 277 231 229 231 251 253 209 195 201 187 177 171 169 145 149 135 119 119 137 185 171 189 175 165 145 131 123 131 129 145 161 157 165 177 189 193 167 209 211 
24 34 24 28 34 16 30 55 57 57 61 67 63 51 51 61 63 42 42 38 40 34 48 44 38 79 245 342 320 217 197 233 316 328 328 307 267 267 285 307 289 283 308 263 285 295 265 221 217 267 223 245 225 217 207 187 195 185 201 199 209 213 217 207 203 203 197 197 193 175 171 195 189 177 201 211 207 225 231 235 
26 32 26 24 44 36 24 51 48 57 42 53 59 55 57 53 57 36 34 40 30 46 42 42 71 149 316 320 301 207 177 301 360 375 366 346 324 312 307 303 328 318 318 287 281 285 245 215 233 273 251 269 245 233 215 203 207 199 211 229 241 231 229 233 233 233 223 199 193 175 165 213 201 189 185 203 209 219 271 217 
26 24 24 22 38 24 48 57 44 44 48 57 51 65 48 36 42 34 34 34 44 40 53 42 83 223 330 312 308 291 287 381 356 346 350 346 322 312 320 320 336 334 342 314 312 271 241 223 243 283 259 239 233 229 223 217 209 225 241 245 249 241 257 265 257 243 213 213 161 159 187 183 215 191 203 193 209 217 237 245 
24 28 12 18 34 36 30 46 36 55 53 42 75 57 48 46 42 67 42 44 38 48 59 57 85 251 356 346 342 330 322 360 346 314 307 320 322 316 334 320 342 356 368 342 336 297 249 227 265 271 259 255 251 221 203 201 209 219 231 243 267 245 271 267 267 251 227 217 189 159 171 195 223 203 207 195 207 199 225 233 
38 22 22 34 51 24 46 34 32 65 71 75 61 63 63 51 61 69 51 61 59 55 69 61 105 231 356 344 370 348 344 362 354 299 299 303 330 314 338 322 344 366 377 360 344 305 263 227 221 255 247 253 235 237 231 223 237 251 233 247 261 251 271 275 273 255 241 243 221 185 207 229 239 215 221 219 213 207 223 231 
48 36 36 30 36 40 48 51 57 55 57 69 71 59 71 55 61 67 51 65 71 57 75 65 95 171 320 364 383 385 371 370 340 295 303 310 322 322 336 318 338 342 364 326 348 312 263 229 189 247 249 271 269 269 259 259 267 259 255 281 287 283 289 310 310 322 295 273 267 249 263 265 231 239 225 229 223 205 251 215 
34 26 22 36 46 20 55 57 32 75 51 61 69 77 65 67 57 77 67 71 97 75 87 81 97 223 267 358 395 385 385 375 338 289 295 287 314 324 344 326 330 326 326 303 305 291 263 227 193 213 267 261 263 259 239 253 273 291 299 310 312 320 342 338 360 360 332 297 285 249 263 265 251 237 223 229 219 233 235 195 
32 28 38 30 46 42 46 53 42 51 65 61 91 65 71 53 71 69 85 123 159 187 217 175 197 336 389 346 370 371 371 362 320 283 289 295 297 305 340 318 303 308 318 275 281 277 237 207 183 189 239 225 231 227 221 257 273 273 299 303 314 318 348 342 334 314 299 285 267 241 223 257 225 217 211 201 207 197 201 185 
40 46 22 32 38 42 46 61 44 55 57 63 81 73 71 65 67 97 183 251 336 401 430 403 399 453 473 415 334 342 336 293 249 261 279 293 293 299 322 322 320 334 352 307 289 257 233 193 177 175 237 233 209 213 225 265 263 307 338 330 346 354 358 336 328 312 291 277 233 221 213 213 231 199 187 177 139 115 131 123 
20 26 28 51 59 44 46 46 44 59 55 71 71 63 77 59 91 161 283 366 448 471 484 444 430 453 479 459 379 310 271 263 267 279 303 301 326 316 352 360 370 371 383 336 316 283 249 209 175 163 221 223 223 227 249 251 299 340 344 352 360 346 330 352 340 318 275 251 207 167 185 205 175 145 127 111 105 103 115 107 
32 26 24 30 57 44 42 57 38 48 57 67 59 59 75 77 99 207 340 385 459 467 426 455 446 473 475 459 381 322 324 336 330 310 318 316 350 379 399 405 417 409 401 379 356 308 251 215 179 169 207 247 247 273 257 263 291 318 336 342 328 295 305 308 299 249 239 225 173 149 135 133 119 111 107 85 109 93 107 101 
44 38 16 32 46 30 48 53 36 42 48 51 69 71 51 55 105 235 387 381 444 399 358 397 417 418 422 434 362 366 387 409 405 368 350 334 362 405 430 420 422 424 405 381 346 310 269 243 201 165 185 253 263 275 267 273 265 271 275 275 285 281 265 247 217 193 169 163 137 129 113 125 119 99 95 105 101 109 105 109 
38 44 40 34 38 40 40 44 40 55 57 46 63 63 57 55 93 211 381 438 411 446 422 418 428 314 245 261 263 381 399 418 430 403 371 336 364 409 424 424 415 387 383 338 312 310 273 251 223 183 197 273 281 267 261 251 221 221 253 231 211 199 191 165 141 139 141 133 141 131 105 105 107 91 97 79 107 83 107 99 
40 30 30 44 48 42 44 55 46 51 53 46 71 63 55 53 71 157 297 422 389 440 436 415 336 153 91 119 175 297 373 391 403 387 387 358 389 399 411 387 340 293 297 255 227 237 265 221 205 199 185 245 271 267 243 219 199 197 167 135 141 137 133 141 137 135 123 137 135 125 117 121 101 97 97 87 109 99 109 105 
38 30 24 34 30 34 34 51 42 55 51 48 63 55 67 51 71 89 167 279 324 293 235 167 125 93 91 87 101 263 360 360 342 328 281 324 385 399 393 377 399 370 370 297 221 225 211 199 193 179 169 177 175 151 135 129 125 113 129 119 143 131 135 129 131 145 135 145 141 133 123 133 115 97 93 91 89 97 99 101 
53 30 38 36 38 18 42 55 44 48 61 46 61 48 51 53 63 65 85 97 109 81 87 83 99 93 79 91 101 153 350 324 310 261 209 289 346 368 356 370 391 407 424 399 301 227 223 203 189 163 149 145 143 125 119 127 105 113 125 129 129 133 143 137 131 133 131 143 123 107 113 125 117 107 83 79 97 97 113 101 
36 30 20 24 38 24 42 46 51 48 42 57 61 59 69 55 65 59 65 83 87 79 79 79 101 95 93 89 103 109 183 263 318 310 308 320 308 332 379 371 403 417 457 434 326 229 213 211 199 171 163 147 145 127 119 121 113 117 125 115 139 137 129 149 133 133 129 143 137 125 115 117 113 111 95 95 97 105 117 109 
44 46 30 26 46 44 51 63 55 55 71 63 61 69 75 61 61 61 67 79 83 83 83 79 101 87 97 89 95 95 103 133 191 245 287 267 245 247 247 243 293 383 391 316 235 221 207 207 201 169 155 153 133 147 133 121 117 123 117 133 135 137 137 147 147 139 133 141 133 127 129 127 117 117 109 107 109 121 133 125 
53 48 22 36 57 38 40 65 46 51 67 67 59 65 71 69 63 79 77 77 85 71 95 79 95 85 83 83 87 91 97 113 127 147 199 221 231 259 289 257 221 215 217 199 207 203 209 199 185 165 157 155 135 139 121 123 121 125 133 129 133 131 143 123 137 141 149 125 141 133 133 131 135 133 127 125 135 131 133 125 
55 40 36 44 38 44 32 48 38 51 65 46 69 73 63 69 69 71 59 65 67 77 91 85 85 81 77 83 85 87 87 119 147 195 263 285 279 356 403 397 385 348 283 185 199 191 213 193 183 153 153 141 145 161 165 177 179 171 189 191 205 183 153 153 135 131 147 147 149 131 149 157 185 193 211 199 203 179 181 189 
36 48 38 34 59 32 42 53 51 42 42 44 67 65 59 61 53 61 69 79 85 69 73 81 91 61 87 79 89 91 113 167 245 303 322 322 334 391 399 407 418 428 399 187 169 173 173 173 165 137 151 119 143 151 179 219 215 201 217 211 213 181 161 149 151 153 163 157 173 205 219 219 225 273 285 285 261 267 277 259 
51 34 34 38 44 38 38 44 42 44 48 53 73 61 61 75 65 79 57 55 73 71 71 87 95 81 77 85 95 101 155 249 289 297 316 350 332 368 387 420 438 432 426 189 133 133 137 123 139 143 159 135 153 135 159 185 203 199 199 205 191 173 155 157 159 175 179 171 187 219 213 219 205 221 239 251 247 259 255 253 
42 44 44 30 53 48 36 57 57 51 55 61 63 67 57 67 67 81 63 75 83 73 79 73 85 91 83 89 97 119 245 285 318 293 303 348 322 371 395 415 448 442 453 249 175 161 163 133 135 149 173 115 133 139 157 155 179 173 175 171 165 153 153 167 167 151 171 179 191 237 219 201 187 215 217 265 247 247 259 239 
38 34 57 44 44 42 51 65 57 51 51 53 71 65 71 59 63 57 61 71 69 75 95 73 93 77 81 89 93 127 231 225 243 255 285 330 307 393 399 395 457 449 455 295 201 201 199 147 151 133 135 113 141 149 153 153 141 139 129 137 141 139 153 165 167 153 155 175 203 255 209 197 203 215 221 237 243 231 217 187 
63 44 34 48 59 38 51 59 61 53 65 59 61 59 65 61 67 71 61 81 95 87 115 109 109 103 111 101 93 131 203 197 175 221 314 332 305 373 391 387 451 465 467 314 203 193 203 173 171 173 123 117 143 169 161 151 135 139 123 101 129 137 163 163 157 155 161 165 187 231 179 183 173 171 171 169 151 155 161 155 
53 51 46 36 42 36 44 61 38 53 53 46 65 71 63 65 67 67 57 71 95 147 227 257 330 348 332 229 137 159 195 157 175 191 289 297 283 344 354 370 420 438 446 301 183 205 217 189 185 193 137 119 149 175 185 201 167 143 125 95 131 147 163 171 171 161 155 155 177 179 169 167 155 139 131 129 127 131 151 151 
46 40 40 30 65 40 42 55 51 42 67 57 55 63 63 44 46 65 44 67 143 235 377 405 426 379 397 395 299 283 227 221 219 191 175 203 189 314 338 344 389 409 438 265 159 219 229 213 223 251 163 131 151 177 191 215 215 169 151 111 173 197 203 189 181 177 167 159 169 177 165 163 151 123 125 119 121 139 165 165 
53 44 48 38 53 51 38 53 51 51 59 61 63 69 59 65 55 69 55 87 187 330 409 480 457 389 373 381 366 379 322 215 235 195 107 99 89 201 340 342 389 409 424 237 169 215 253 219 237 259 195 149 163 179 187 223 215 197 177 199 221 209 205 205 203 197 187 179 221 225 203 177 175 175 173 189 203 217 229 231 
51 51 44 53 53 28 28 61 65 48 63 48 67 61 57 51 63 75 57 87 207 322 344 463 479 451 446 409 389 405 354 225 229 207 135 103 48 85 301 350 366 389 399 205 183 221 219 211 201 237 211 167 149 161 207 223 221 197 195 205 205 209 195 201 201 195 207 183 241 273 243 237 213 217 221 243 281 273 281 281 
40 38 40 42 57 36 34 42 51 55 51 46 71 61 53 59 63 61 61 89 201 255 303 403 494 490 461 411 417 413 370 223 235 267 185 113 16 44 243 366 366 370 354 195 181 227 207 223 225 213 229 165 159 183 195 207 235 199 185 177 187 187 215 199 193 211 201 201 219 239 229 233 227 209 201 239 265 283 289 279 
40 46 24 40 51 28 40 59 51 42 61 51 69 67 63 51 51 63 57 81 137 213 235 289 407 417 426 409 430 426 356 227 241 267 155 73 16 65 199 366 383 389 350 205 189 207 195 223 227 229 213 165 153 191 195 197 203 195 183 149 155 177 193 189 189 183 175 165 173 245 231 243 229 221 249 253 263 267 249 245 
40 40 20 42 46 40 44 57 48 55 46 59 63 75 65 65 63 55 67 65 91 147 227 263 373 420 379 370 356 326 308 219 237 219 131 113 101 131 225 391 399 399 405 263 211 221 193 199 225 251 189 173 145 163 177 187 187 161 157 127 143 171 177 165 171 157 149 163 155 215 215 221 217 229 243 247 235 189 173 147 
34 42 34 51 44 48 61 61 59 57 65 59 97 75 65 69 71 63 77 55 85 91 129 139 245 249 199 149 137 135 187 203 203 197 193 197 195 269 385 393 397 411 422 344 229 235 199 181 203 253 179 159 157 143 151 159 157 155 151 131 131 141 123 135 127 125 121 123 105 153 165 165 167 163 153 143 127 121 137 137 
42 34 30 55 53 48 40 59 51 57 57 65 79 69 73 69 75 67 71 63 75 87 103 95 109 101 91 83 101 101 127 209 181 165 173 229 291 397 399 413 426 422 448 391 241 207 187 173 201 251 213 179 169 151 147 149 133 139 131 129 155 129 105 119 113 131 117 95 101 137 139 135 127 107 95 103 93 115 119 105 
40 51 51 51 51 51 46 48 48 63 63 69 83 79 71 67 83 77 73 67 83 85 81 93 103 87 87 81 95 103 123 201 221 177 143 193 354 399 393 409 430 432 430 387 227 183 171 171 197 217 221 201 175 153 137 123 141 121 121 145 151 143 125 119 123 119 123 101 109 127 147 133 125 99 85 93 105 99 109 117 
46 44 36 34 36 40 42 57 59 57 57 69 75 77 67 87 61 77 65 63 79 71 83 85 97 87 89 101 137 165 217 251 283 283 289 328 397 393 399 383 424 415 428 391 223 151 137 145 143 133 141 153 147 145 133 123 119 123 123 137 153 133 129 117 135 131 123 123 131 133 115 137 107 95 89 85 101 87 107 99 
48 44 34 48 42 34 48 53 51 44 57 48 71 81 73 61 75 63 67 77 69 73 73 89 117 159 229 285 312 312 310 358 370 411 393 368 377 375 393 391 395 411 424 370 199 127 135 133 129 113 125 127 127 125 125 125 115 109 107 131 111 125 121 115 129 137 117 141 127 125 121 127 125 89 81 95 91 79 109 121 
28 51 24 28 44 38 59 59 61 59 59 51 77 79 61 77 65 63 77 69 83 89 89 115 243 318 301 336 352 344 352 368 373 401 430 399 403 362 373 389 385 356 308 189 135 123 115 127 119 129 129 115 119 123 113 123 101 105 107 103 121 101 115 137 121 133 125 133 131 115 117 113 99 105 93 103 115 103 155 135 
34 44 46 44 28 48 53 61 55 65 53 63 63 53 77 59 71 65 79 81 87 83 111 183 299 318 326 314 346 338 342 375 370 395 426 422 420 381 358 326 245 163 151 131 139 131 131 125 123 113 117 129 135 125 127 133 121 121 105 127 123 107 127 121 121 121 117 127 121 131 133 127 115 119 101 121 135 133 141 141 
30 46 44 32 34 46 55 71 53 65 53 63 63 71 65 57 71 59 73 85 87 75 123 241 307 297 312 340 350 354 354 364 373 381 395 407 411 371 352 310 229 205 193 165 169 173 177 175 151 133 143 161 151 165 151 157 141 141 133 123 121 113 115 119 111 119 107 123 125 117 125 163 165 171 181 163 169 159 161 177 
28 42 34 26 51 38 42 53 55 48 53 46 69 73 61 69 75 65 69 79 87 79 127 273 360 303 301 312 364 371 370 366 356 303 301 358 375 358 352 326 285 255 269 241 221 211 207 181 165 163 171 171 163 173 167 157 149 141 137 133 105 99 87 105 91 95 131 143 135 159 185 231 243 269 273 281 277 263 245 209 
46 53 30 26 57 44 51 55 42 69 59 57 67 69 59 71 57 73 85 85 99 99 155 269 356 326 301 231 267 346 379 383 350 275 255 291 330 344 330 318 301 275 267 249 239 227 205 185 193 183 177 163 155 175 171 147 145 151 137 135 103 91 97 83 81 83 115 131 123 131 187 221 245 269 289 301 310 283 279 281 
44 44 30 59 59 44 51 55 48 69 69 57 69 71 65 89 97 95 103 107 103 117 189 287 326 318 293 243 231 273 340 342 297 255 229 263 291 322 322 303 330 295 285 259 237 219 205 213 219 201 173 169 155 163 163 155 151 143 159 137 127 103 101 107 91 75 95 125 123 109 147 179 229 243 281 303 324 305 291 233 
44 40 42 53 61 55 38 61 65 69 65 53 95 127 199 251 297 310 305 303 237 167 237 322 324 314 291 251 233 255 269 251 215 195 251 322 322 299 310 312 307 320 338 297 265 215 197 211 219 207 187 175 159 157 177 159 147 157 155 137 125 127 111 105 83 79 105 101 113 115 143 181 205 245 285 293 308 283 261 227 
42 69 46 48 71 42 57 63 67 57 69 73 139 257 399 436 440 459 448 453 436 393 352 338 344 336 291 269 245 267 243 169 139 171 307 370 362 308 314 305 289 334 352 350 320 261 221 227 207 203 189 189 175 177 157 173 157 163 153 149 155 129 119 97 91 99 149 153 151 141 167 187 215 215 245 243 239 205 205 201 
57 38 57 28 67 55 63 63 53 71 69 109 205 366 448 465 484 438 449 457 475 469 455 401 342 307 281 259 251 213 191 113 93 179 364 383 371 303 307 295 303 326 381 383 356 368 334 283 233 207 205 193 191 197 187 185 181 175 167 149 147 135 127 113 93 79 137 167 169 143 145 145 153 147 159 159 175 141 141 155 
38 48 53 44 65 57 42 75 59 59 73 103 243 397 459 475 477 350 371 411 463 463 428 356 299 289 251 195 181 191 151 67 73 239 383 381 358 299 297 273 269 314 379 366 387 432 401 370 279 207 167 189 195 185 201 191 185 179 183 157 147 139 123 109 105 105 123 159 155 123 95 109 103 97 107 115 117 111 139 143 
57 59 40 55 46 51 40 69 65 63 79 89 179 354 442 467 449 364 348 379 430 440 415 342 277 241 185 159 161 151 127 40 71 283 375 383 338 277 279 267 275 257 334 348 405 426 428 405 293 211 173 195 187 203 187 189 173 193 187 155 151 137 135 121 129 123 145 141 141 127 117 111 83 91 95 117 105 99 127 127 
85 77 51 75 71 51 71 67 65 77 65 79 119 265 370 449 442 426 411 415 418 401 399 352 299 219 169 169 167 151 69 28 77 308 348 368 334 291 283 275 265 267 293 326 391 434 442 395 320 243 179 193 205 209 201 179 185 173 165 163 151 147 131 135 117 123 137 143 149 121 111 111 91 95 83 95 101 111 113 103 
225 197 95 51 81 32 55 71 44 63 71 61 87 121 225 318 340 385 364 381 354 237 209 193 205 225 181 167 147 71 0 0 105 277 324 350 308 251 245 249 275 263 259 277 318 397 379 383 328 221 199 199 197 203 193 165 157 149 147 127 133 99 117 119 99 123 115 121 121 103 97 93 83 59 81 85 87 91 99 111 
314 308 229 95 97 59 57 59 55 48 53 53 79 81 113 115 137 163 159 159 133 119 201 241 213 199 171 183 169 77 44 38 139 275 338 336 307 215 221 225 239 257 263 239 249 297 326 287 245 227 193 229 225 201 177 175 149 157 149 133 139 137 107 115 105 105 117 121 119 99 95 93 85 73 81 99 115 109 119 113 
312 330 340 191 109 75 69 63 53 73 67 59 87 87 97 77 77 89 95 99 119 189 257 245 223 187 193 201 199 109 71 105 181 281 330 332 285 197 213 207 207 237 229 249 259 237 223 213 219 209 223 225 237 219 179 165 147 153 143 153 155 145 139 119 115 99 101 115 113 99 113 101 81 95 71 117 119 111 133 145 
344 371 370 297 179 83 73 61 59 87 75 55 73 77 69 61 71 67 87 97 147 245 269 237 209 169 171 143 181 95 55 79 175 233 285 344 283 215 193 207 201 197 215 237 257 215 211 195 203 189 205 217 211 183 149 157 157 155 137 145 147 135 151 133 113 111 119 143 131 149 147 167 157 159 161 161 147 135 155 179 
251 330 350 352 322 183 135 73 81 63 77 69 73 81 81 81 73 73 95 127 251 291 277 253 187 125 111 89 79 75 83 105 137 201 251 293 297 249 215 195 201 205 211 221 201 199 197 171 169 171 171 173 153 167 157 147 159 149 133 143 141 131 123 119 99 87 115 139 135 157 183 211 221 229 251 243 221 189 191 213 
79 173 273 299 368 287 271 203 129 87 93 63 79 93 81 75 81 99 193 259 344 301 297 229 185 99 63 57 51 32 55 81 89 117 157 203 211 215 207 195 191 193 215 193 185 181 177 169 169 143 141 135 145 161 139 129 145 135 125 119 127 103 99 95 63 55 97 137 125 143 173 197 217 233 251 257 259 237 233 215 
40 55 129 151 293 295 305 299 267 233 149 121 107 75 77 81 147 253 344 389 391 354 297 183 151 83 48 51 48 22 30 42 36 59 87 95 103 99 123 109 121 155 197 183 189 193 185 189 169 143 143 137 127 147 143 141 139 137 135 119 119 93 81 69 71 67 87 121 121 107 117 161 211 227 239 265 287 279 263 223 
22 22 30 65 135 201 277 297 297 320 318 297 285 249 253 257 326 334 368 385 377 356 316 233 117 48 36 30 22 26 24 20 12 32 65 69 40 48 65 63 67 55 91 131 133 151 179 179 165 139 129 129 125 111 115 149 135 125 123 97 107 93 83 97 69 57 85 79 65 71 125 145 183 221 249 257 287 287 233 215 
12 20 0 32 53 42 109 175 245 316 324 314 318 324 316 340 340 332 346 350 348 328 241 125 63 36 30 24 18 12 14 20 6 30 57 65 42 20 51 48 34 53 103 83 115 109 145 147 155 145 147 167 137 129 119 131 133 135 129 109 111 93 89 93 75 71 57 40 42 73 131 185 201 235 237 253 233 183 171 197 
4 24 16 22 32 34 59 87 153 259 267 287 301 307 322 312 308 334 328 316 312 177 113 71 73 46 51 32 34 38 42 48 46 48 71 63 55 48 34 32 48 65 105 91 91 103 97 131 121 117 149 161 171 153 153 133 123 123 129 131 125 107 93 101 87 69 51 46 63 73 123 179 199 185 177 179 141 135 165 157 


