P2
80 60
535
7 21 29 27 37 23 59 39 43 47 43 43 49 51 45 41 51 49 39 41 61 59 55 67 108 179 295 307 275 259 337 444 396 396 414 414 432 471 485 475 483 465 446 416 319 213 183 167 137 126 106 116 100 84 96 96 98 98 96 86 100 112 108 126 118 114 114 90 100 98 84 86 90 74 84 78 82 94 63 94 
7 13 13 29 43 39 47 47 25 47 45 49 49 53 45 51 55 43 49 41 51 53 67 155 283 359 343 315 275 267 367 461 420 428 434 442 450 467 483 477 485 495 497 499 459 430 373 317 253 231 191 203 207 167 141 145 132 112 100 72 104 112 108 110 126 124 110 124 116 96 94 69 78 63 72 63 88 92 74 76 
11 31 19 21 49 39 51 45 39 45 63 39 59 57 43 43 61 53 43 63 47 69 128 301 412 385 357 327 289 271 375 477 446 446 446 442 446 442 469 471 473 487 471 483 479 457 442 420 365 331 325 327 325 327 309 299 267 255 161 134 118 124 118 130 159 132 134 118 126 112 124 132 134 122 130 120 149 157 118 114 
21 21 33 21 37 31 43 47 39 55 55 53 47 53 55 53 61 47 45 49 72 94 267 398 442 434 389 377 315 279 359 483 457 461 452 408 402 416 410 391 422 432 428 442 446 446 459 434 402 389 381 394 369 363 369 357 327 307 313 259 223 203 189 209 229 227 225 191 185 175 209 237 253 253 281 257 263 263 225 225 
13 21 21 35 33 41 51 55 55 49 59 59 72 69 69 63 67 63 61 82 88 130 365 416 440 450 459 432 375 329 353 461 467 448 408 383 398 391 404 373 389 383 355 333 351 365 412 414 420 383 391 408 402 367 385 369 337 321 327 287 273 247 247 249 251 255 259 241 237 239 261 237 263 269 275 289 299 293 239 225 
25 31 39 29 37 45 55 67 51 59 63 65 67 84 86 88 69 80 80 84 108 199 375 444 418 430 422 393 355 355 387 422 426 422 404 375 379 408 379 389 385 383 339 345 321 319 327 319 333 349 357 398 385 371 381 361 323 297 293 259 255 253 253 249 249 253 249 241 241 251 251 227 261 261 251 269 275 265 263 281 
41 23 23 37 55 43 69 69 69 61 72 72 86 100 118 102 94 94 98 112 132 245 347 446 412 440 398 383 345 383 438 454 430 406 381 396 396 369 414 442 420 375 347 351 311 305 315 293 267 245 255 323 337 339 353 353 321 289 279 265 261 253 265 253 257 251 257 263 257 237 235 219 239 261 267 249 259 271 265 279 
29 31 41 37 63 57 61 76 69 69 78 88 145 201 203 219 199 159 181 167 209 245 269 426 438 446 422 406 402 442 457 454 404 398 402 391 377 412 442 450 432 391 353 347 313 299 293 281 249 223 235 261 265 273 295 309 281 259 279 271 277 273 287 267 279 279 269 259 243 233 221 227 229 251 253 249 225 237 233 229 
23 39 37 33 53 47 63 72 55 80 104 183 251 345 369 410 436 375 408 422 396 337 267 305 436 465 485 463 444 469 481 463 387 396 365 377 414 422 418 426 424 396 349 323 305 291 289 265 235 219 219 279 291 287 277 279 255 251 295 269 273 275 285 275 265 273 261 257 235 231 215 197 193 197 187 163 149 169 141 130 
19 25 31 39 49 65 67 63 63 88 151 271 345 396 444 520 520 503 514 497 510 518 393 371 385 463 499 504 485 489 489 438 393 408 416 438 438 432 450 450 444 414 337 303 301 285 281 263 233 211 247 295 319 299 297 281 275 287 289 275 271 267 275 251 235 253 251 213 193 191 191 163 161 128 128 102 98 118 98 118 
0 29 47 43 61 63 76 63 78 90 179 289 339 418 485 528 514 516 516 512 499 491 463 448 353 434 495 522 508 497 459 436 418 444 440 434 454 465 465 467 446 394 315 301 283 281 277 257 227 217 245 285 313 307 337 331 335 335 327 263 221 209 197 199 161 163 169 167 153 143 141 143 128 128 130 114 112 130 108 118 
29 35 47 37 53 57 80 78 72 90 207 319 331 457 510 534 530 534 535 520 485 512 512 501 420 363 436 489 485 467 440 461 428 446 444 448 477 461 471 434 420 387 333 311 273 267 253 247 237 215 241 283 289 293 305 313 321 341 353 311 213 151 139 137 120 141 143 167 155 143 137 137 128 132 118 122 122 137 112 116 
31 37 45 51 59 72 69 78 61 90 209 291 325 438 489 524 524 514 520 503 483 485 428 422 426 373 412 412 416 402 410 426 385 398 430 444 479 473 448 426 422 385 339 297 281 263 269 241 227 209 235 283 277 265 295 321 337 363 383 355 299 211 153 118 141 145 141 145 155 159 139 145 143 141 143 126 120 132 100 114 
17 37 43 55 49 76 69 86 67 86 165 243 351 422 424 483 465 454 491 454 436 396 239 263 317 383 440 444 456 428 389 367 351 379 391 426 448 459 442 428 408 379 323 295 283 267 265 259 215 197 241 271 263 263 275 319 347 363 361 355 343 353 265 173 145 155 155 165 163 163 149 155 157 147 137 128 143 147 130 132 
43 31 35 53 47 49 63 65 63 69 112 225 389 463 418 450 434 430 497 444 398 237 139 163 235 337 436 497 501 497 436 394 351 365 369 398 420 436 422 396 394 345 285 303 297 279 277 263 233 205 227 259 263 267 287 335 361 371 351 335 355 353 347 281 217 181 157 169 185 197 183 185 181 185 163 175 199 215 193 191 
33 51 45 59 53 65 67 67 53 65 98 159 281 420 400 422 387 402 424 347 179 106 118 110 147 221 442 467 479 473 450 432 381 369 377 389 398 416 432 414 408 387 337 325 333 321 319 293 245 213 237 269 289 281 319 355 359 389 381 369 355 347 357 349 343 297 217 239 251 275 283 303 311 293 257 247 235 245 223 233 
49 65 61 63 49 80 72 63 59 84 80 76 149 223 229 189 183 205 173 141 106 102 84 88 116 143 239 321 347 331 347 377 317 327 279 255 289 289 293 315 369 402 396 408 424 436 432 343 305 259 277 307 319 323 355 357 385 398 406 391 391 363 363 335 359 361 349 345 343 333 333 337 323 303 257 245 235 241 219 227 
23 61 67 59 53 63 63 55 63 80 84 65 90 100 88 120 108 106 108 100 94 104 90 82 114 134 141 173 193 165 175 177 159 211 201 189 217 203 207 203 197 235 303 398 440 438 475 418 367 309 323 337 325 345 355 381 402 404 414 420 422 410 400 379 361 369 396 363 351 335 313 329 303 281 261 241 253 243 213 235 
37 49 59 57 51 51 65 67 67 80 94 57 69 90 82 88 80 98 96 92 90 94 86 88 102 106 124 132 126 143 141 159 151 165 183 183 197 195 195 189 187 179 175 217 283 327 398 438 406 385 361 353 311 323 313 337 377 385 402 400 400 400 404 394 375 369 349 353 343 307 305 305 297 285 263 241 251 227 201 203 
27 53 53 53 69 67 61 74 69 69 82 69 63 86 76 86 88 82 88 98 96 90 102 94 120 120 130 134 130 134 151 149 161 165 179 193 189 203 201 177 191 175 173 195 215 235 265 301 317 329 363 361 393 394 325 297 355 377 385 367 379 398 412 402 389 393 371 319 313 295 287 297 293 257 235 221 203 209 155 157 
27 57 37 61 57 59 61 67 59 69 86 82 78 74 86 86 74 82 96 84 100 90 94 98 110 114 130 155 141 141 145 163 157 165 173 199 223 269 257 225 207 219 227 225 203 209 231 259 253 237 251 271 305 297 269 211 215 221 303 315 345 379 343 381 377 381 341 295 287 257 251 229 227 185 153 137 139 151 132 159 
31 43 67 53 55 55 67 57 61 84 74 67 88 76 84 80 88 76 84 92 90 96 96 104 102 120 126 139 134 134 149 157 141 167 203 261 299 313 303 337 335 373 363 367 269 219 251 229 233 215 199 215 189 195 175 163 149 147 165 165 199 231 255 303 321 339 297 259 221 201 189 189 169 165 147 153 147 161 137 139 
45 57 59 59 57 59 59 76 67 69 76 78 76 80 86 88 92 90 84 88 98 102 88 100 110 108 116 130 141 134 147 171 167 247 293 321 341 339 335 357 389 416 412 410 255 199 227 233 227 209 197 197 199 181 171 161 145 134 147 132 147 173 171 183 231 247 241 207 195 191 181 179 163 149 147 143 155 147 147 143 
37 53 72 57 74 65 84 76 49 74 76 63 88 80 84 88 90 82 78 102 96 98 100 102 100 122 116 126 139 130 149 193 263 309 319 325 333 359 355 351 404 402 404 389 229 195 213 219 213 201 185 189 189 177 169 161 153 143 159 141 165 183 161 181 173 191 195 185 187 183 173 167 167 147 153 145 153 173 134 149 
35 49 57 59 72 67 69 72 65 76 94 78 82 88 90 92 80 84 94 96 96 92 98 110 106 116 124 130 137 128 175 303 319 307 305 271 285 307 349 385 379 393 391 317 185 197 211 201 193 217 213 215 211 205 211 237 255 253 255 251 281 249 211 219 203 207 213 205 175 183 181 169 165 157 149 149 167 155 145 134 
37 61 55 63 69 80 90 76 67 78 88 78 69 80 76 102 96 86 78 100 108 94 100 108 126 114 145 153 143 141 241 363 319 287 289 271 279 247 283 387 369 379 353 269 217 225 239 233 247 259 259 235 235 213 237 245 289 289 287 283 291 281 261 227 239 235 227 221 211 185 175 169 169 161 165 141 141 157 161 157 
37 69 63 74 69 69 76 65 69 74 86 69 72 80 76 90 76 92 88 88 94 92 98 104 106 104 128 139 132 157 271 347 317 319 321 305 329 305 347 387 367 363 279 237 239 251 287 285 267 273 247 241 243 225 229 277 299 305 309 287 285 275 277 273 261 257 253 243 231 225 239 233 233 243 215 195 177 173 132 147 
55 51 76 63 55 61 88 74 65 78 78 72 59 76 76 82 92 74 78 94 92 110 108 122 132 122 137 139 137 165 289 323 311 307 371 343 333 331 432 432 381 241 219 235 261 261 285 295 281 281 251 233 247 247 255 265 281 277 279 275 285 277 283 289 281 293 273 255 249 249 257 247 243 283 289 293 253 263 183 179 
37 51 65 61 63 72 69 72 67 80 74 69 67 82 67 65 80 78 80 94 124 167 199 199 249 289 227 159 139 197 309 315 307 323 432 404 349 430 442 422 341 231 229 235 243 263 281 299 269 263 255 233 245 259 277 279 255 271 279 277 299 299 291 291 283 295 281 265 243 279 267 237 245 275 289 265 275 285 269 257 
27 41 55 63 63 61 57 69 59 74 82 53 63 59 65 61 55 61 74 134 197 269 273 357 475 477 452 365 317 325 321 325 323 289 363 349 424 426 463 391 351 263 233 245 257 257 287 281 277 271 281 241 247 257 281 285 265 271 277 275 285 283 287 275 293 291 283 261 247 257 239 225 225 233 245 267 267 275 263 273 
39 43 53 41 67 61 65 55 63 74 76 69 49 74 82 80 82 63 98 177 319 321 375 467 495 503 516 448 448 416 341 353 345 265 241 291 301 371 448 371 305 241 219 223 235 259 265 295 277 271 283 241 239 255 295 277 277 265 275 275 287 279 275 279 285 277 285 257 233 255 215 209 229 233 267 243 269 251 267 285 
29 39 51 57 57 65 61 78 63 63 61 59 67 74 76 94 90 86 94 183 325 394 457 473 503 497 503 442 436 420 345 363 349 265 199 167 139 203 393 357 229 211 209 213 215 229 257 267 271 265 257 249 241 261 287 289 267 265 263 247 267 281 271 255 253 243 239 223 209 213 203 193 173 185 177 181 181 179 195 217 
15 55 41 59 63 67 65 74 65 61 76 61 80 94 76 94 78 82 102 181 297 393 452 477 485 485 506 430 428 428 343 389 379 261 219 157 128 134 181 241 195 199 185 203 225 209 237 255 295 289 241 249 239 273 301 287 277 265 265 267 265 277 279 255 259 249 245 237 211 217 203 173 175 175 175 165 161 167 165 163 
27 49 65 78 67 63 76 82 59 88 74 63 65 88 74 82 88 78 102 171 255 335 373 475 495 510 510 424 414 396 335 387 351 281 213 173 155 163 163 153 175 197 181 183 209 207 241 253 299 297 241 235 247 271 275 269 253 253 263 279 277 267 275 277 265 251 263 241 223 265 245 223 233 205 227 239 229 239 215 223 
31 41 55 55 63 72 72 78 69 84 72 82 84 88 90 88 88 88 92 126 181 221 261 333 452 442 412 313 277 301 327 365 329 303 255 241 213 203 199 183 181 175 189 187 175 187 241 275 319 315 247 231 251 275 271 277 249 259 271 257 273 277 273 257 257 249 239 193 197 251 259 247 241 227 229 259 267 285 277 273 
39 53 67 57 61 63 65 76 72 84 74 65 67 82 72 80 76 76 100 100 106 137 147 181 187 199 187 159 145 189 313 315 301 299 293 267 273 241 209 179 175 165 173 185 183 211 231 269 317 299 265 267 313 323 303 283 225 227 243 239 233 229 235 229 251 207 195 181 191 247 255 261 259 253 247 261 285 287 271 277 
49 41 41 59 53 51 63 82 61 78 72 72 72 90 80 100 90 72 86 100 94 88 100 104 124 114 130 132 130 167 305 311 267 275 295 277 295 271 239 201 189 167 197 175 191 213 231 259 301 321 313 418 454 454 444 391 237 203 213 199 189 205 193 203 193 167 175 147 189 251 255 269 265 275 281 277 311 283 267 247 
35 49 59 57 57 80 67 88 67 78 88 65 84 96 84 88 88 82 78 84 104 92 88 92 110 120 118 130 126 141 299 327 261 257 253 265 265 253 243 209 197 189 185 199 221 213 241 285 305 379 422 475 456 452 456 369 201 171 161 161 159 169 167 169 165 165 153 143 169 235 237 237 241 241 249 265 241 211 167 193 
39 49 53 61 65 69 74 90 76 61 74 72 69 80 80 90 90 76 78 94 94 100 98 92 102 110 128 118 122 128 247 325 263 203 185 141 128 181 221 255 227 189 185 195 231 241 281 327 363 404 422 461 457 440 440 299 195 193 165 185 171 171 161 167 167 163 153 134 155 169 173 173 165 157 171 157 161 175 155 143 
37 57 61 69 57 74 78 74 67 59 63 84 80 82 86 92 78 74 86 92 96 112 102 104 106 112 112 137 122 126 183 325 269 247 134 59 67 175 217 265 315 277 233 265 311 363 385 396 398 393 424 461 432 406 359 235 181 161 177 169 185 167 175 167 167 189 185 151 155 153 159 143 147 141 139 153 153 173 147 153 
23 55 51 53 37 59 69 76 53 69 74 63 63 84 72 86 84 90 80 84 90 100 86 94 100 110 126 118 112 116 137 209 257 265 219 167 203 233 247 287 383 373 365 367 396 402 442 432 393 329 325 321 279 233 199 179 153 143 159 157 171 181 187 199 225 231 221 175 157 157 159 126 120 126 126 128 147 157 149 149 
25 59 55 41 61 61 65 65 74 59 74 61 69 78 98 90 102 88 96 96 104 98 102 90 100 106 126 130 122 116 118 145 151 229 261 251 247 241 257 347 389 398 387 393 391 420 436 410 251 203 187 197 193 177 167 173 147 147 173 169 197 227 239 235 247 265 243 231 191 177 137 134 122 114 134 132 128 153 149 161 
39 47 49 47 59 63 63 67 67 76 63 74 76 82 72 120 189 233 213 187 165 112 98 106 106 108 112 132 102 110 120 130 114 177 299 299 285 251 231 311 347 355 351 347 317 351 418 293 181 159 161 163 161 165 191 211 221 213 231 229 225 223 233 223 233 247 255 237 227 203 167 120 114 118 128 126 139 155 145 163 
29 43 63 55 63 45 86 61 57 59 67 69 78 92 92 195 311 365 408 444 426 251 143 98 104 108 106 122 110 104 126 122 102 239 333 319 291 235 181 163 179 251 293 283 259 255 285 243 149 155 139 167 187 211 241 235 241 231 239 231 231 243 223 221 221 235 269 265 253 247 225 193 134 128 118 130 128 151 139 151 
37 51 57 59 55 63 69 86 65 69 69 76 84 100 151 281 381 400 426 485 469 428 313 171 122 102 118 126 116 116 120 153 143 263 285 301 311 277 243 231 219 273 223 213 255 239 259 183 169 183 187 195 209 221 217 233 241 229 209 209 229 223 217 205 201 237 271 273 275 275 283 273 211 143 128 122 126 155 145 151 
41 49 63 53 67 65 78 67 72 65 84 65 72 104 199 337 438 446 461 495 483 452 347 337 247 124 120 141 126 147 181 219 225 283 293 291 297 283 275 269 259 259 209 219 211 243 233 233 207 207 213 217 211 213 195 217 231 217 207 203 211 203 217 189 195 209 279 291 287 279 285 279 277 245 179 126 112 151 139 149 
41 45 65 72 78 78 84 69 74 88 67 69 76 100 205 349 432 459 514 514 471 467 446 444 351 167 130 143 145 217 227 229 239 333 319 285 259 291 307 283 241 243 201 209 223 245 275 225 235 235 239 251 239 219 191 193 215 217 211 205 201 199 211 201 183 187 241 291 285 275 295 275 269 255 271 217 165 151 130 132 
37 47 55 51 69 74 78 86 80 90 63 84 80 110 209 333 422 461 524 524 501 508 503 477 396 183 153 201 245 231 223 209 203 329 303 275 247 279 295 283 255 231 217 209 217 237 221 193 203 193 215 225 223 213 205 191 197 195 195 211 195 215 213 195 187 179 193 243 277 293 319 301 275 259 287 273 233 185 147 149 
33 59 63 53 55 65 69 69 76 69 84 67 72 96 145 291 381 450 518 497 526 516 532 489 436 321 259 285 261 233 217 217 213 315 289 265 241 281 309 283 243 233 223 225 203 201 183 157 165 171 187 211 199 213 215 207 195 197 207 193 185 205 195 187 191 169 171 191 219 275 321 303 277 265 261 277 263 237 191 155 
31 59 63 65 55 61 76 76 67 86 80 76 92 94 100 163 271 361 450 479 520 506 497 461 434 339 301 299 263 271 267 257 233 291 269 249 263 289 291 277 267 247 195 207 197 171 173 163 175 173 173 187 185 197 207 215 203 209 189 207 177 187 181 189 165 163 153 183 179 195 265 281 281 265 263 251 259 253 215 189 
35 47 45 59 65 69 78 63 61 78 84 84 78 90 78 108 126 177 277 357 436 446 452 416 359 313 309 271 275 275 283 295 273 303 299 275 265 279 285 273 261 249 203 209 187 177 189 183 193 197 203 203 189 197 207 203 209 193 201 181 185 183 165 155 151 132 110 108 134 149 175 199 205 221 251 243 267 265 245 237 
31 51 53 53 51 74 63 63 55 67 76 53 72 76 72 82 90 102 112 145 195 299 394 371 361 295 253 235 259 279 295 283 307 333 331 287 277 279 285 265 267 253 223 225 193 185 195 193 181 201 229 225 211 207 201 219 209 199 183 165 159 151 145 143 137 130 114 90 106 102 143 157 195 215 257 279 267 261 241 243 
29 43 51 49 61 67 72 76 65 65 65 61 78 76 63 78 78 82 90 94 122 163 319 347 331 269 227 213 229 261 267 279 285 327 343 279 279 287 291 267 257 251 235 221 191 205 207 197 187 207 231 243 227 215 211 207 189 191 181 163 147 145 141 147 130 141 122 106 112 90 114 167 231 261 291 293 299 277 251 261 
41 53 63 67 74 69 80 61 55 69 78 61 76 80 65 88 84 74 74 88 106 173 321 327 301 257 223 189 239 263 259 265 303 351 325 287 275 291 295 275 269 231 255 213 191 185 197 195 189 227 239 237 213 221 201 213 199 181 165 153 132 137 141 134 132 124 126 153 139 134 159 187 237 285 317 315 327 297 281 265 
43 51 49 45 65 59 55 59 65 76 67 63 74 84 74 80 80 82 72 96 122 261 323 317 299 279 235 179 225 271 279 297 355 375 347 303 283 263 275 265 267 235 257 217 181 181 185 193 193 223 223 215 215 195 191 185 175 159 141 137 134 134 137 137 132 139 130 145 173 145 181 217 263 277 287 299 299 291 263 241 
17 25 43 27 39 45 43 55 55 57 51 55 61 63 65 69 72 63 76 84 130 321 337 289 305 277 265 231 225 277 309 339 369 389 363 325 281 245 253 253 255 239 251 203 177 199 189 195 169 201 207 215 193 203 187 169 173 149 149 120 110 112 122 120 122 116 118 161 183 173 203 233 245 255 257 267 271 255 211 203 
9 43 27 45 45 59 43 47 51 57 55 45 63 61 57 55 72 63 63 74 122 329 323 305 293 273 271 283 265 275 309 379 389 416 379 319 277 241 247 255 247 239 241 191 173 195 201 189 169 175 177 183 177 177 159 155 124 132 126 118 94 104 106 102 106 122 110 143 134 130 161 183 209 209 217 211 199 187 153 122 
11 35 17 45 45 37 43 49 45 45 49 33 39 59 51 53 69 57 49 69 102 263 345 321 317 281 281 307 293 285 343 400 393 414 361 303 263 231 245 237 245 243 235 189 177 169 177 179 165 155 149 173 149 145 141 132 102 114 108 90 92 88 86 92 92 82 88 96 88 106 94 78 94 118 143 128 116 128 122 114 
13 29 27 31 41 27 41 29 35 37 31 41 35 49 49 45 57 39 55 55 76 139 293 309 307 311 319 327 301 307 383 430 410 416 367 281 239 221 229 233 227 217 227 195 163 171 165 165 167 153 151 151 134 134 116 120 98 96 102 76 86 82 69 76 80 92 84 78 92 74 65 59 69 96 104 102 98 106 118 120 
11 29 23 27 33 39 45 29 33 21 35 17 65 63 51 55 63 57 78 65 74 90 177 297 321 323 301 331 327 345 416 454 412 418 369 253 157 167 189 201 209 231 211 191 165 167 181 155 147 143 137 145 134 139 116 106 86 84 78 61 57 80 69 67 74 72 74 88 90 72 96 100 96 130 120 132 137 149 141 134 


