P2
80 60
540
83 79 75 89 89 79 87 83 105 101 103 101 97 105 107 101 107 103 103 95 89 79 107 87 79 85 103 208 352 383 387 385 322 308 397 450 448 452 446 389 308 296 304 316 294 296 310 306 314 294 330 375 356 302 292 272 256 266 266 268 274 252 268 262 268 274 268 276 296 272 278 272 262 282 282 288 278 262 268 280 
77 69 67 89 97 79 85 101 97 105 101 103 95 93 103 105 107 83 83 93 69 77 85 79 67 87 138 356 405 381 379 352 344 328 450 489 474 480 482 478 403 332 362 340 310 300 320 314 314 324 368 352 322 342 348 338 310 286 280 278 284 282 294 298 304 312 298 280 272 252 260 274 282 274 276 278 274 288 296 294 
79 75 81 95 101 95 85 109 99 107 101 103 105 105 99 95 95 89 91 87 83 95 89 81 81 93 178 409 387 399 411 381 356 344 446 495 487 501 505 511 456 389 372 348 324 302 288 286 282 280 336 340 352 383 375 368 364 320 296 306 306 300 302 306 314 314 294 268 258 228 238 278 276 274 270 270 268 288 298 302 
71 79 73 87 101 89 101 109 95 91 97 113 105 111 97 95 95 87 91 95 85 93 103 93 105 87 222 395 405 399 379 368 372 377 454 487 454 501 526 518 505 413 362 350 316 292 294 268 252 266 292 344 364 370 381 374 358 336 328 314 316 312 322 318 316 306 296 278 262 244 254 266 292 274 282 254 272 282 288 314 
67 79 91 85 81 87 83 103 97 105 103 95 103 107 101 93 107 115 99 85 87 103 91 99 103 144 306 419 427 413 409 372 417 419 387 405 358 431 526 538 522 456 374 348 292 290 292 270 250 246 262 324 358 352 344 358 334 328 326 330 354 330 338 328 340 338 324 306 284 244 244 246 266 256 264 240 234 236 268 282 
77 77 97 85 93 77 95 89 81 113 113 118 109 115 115 111 109 126 111 118 111 111 120 111 142 226 383 409 423 413 435 413 415 397 395 366 354 393 522 540 530 472 389 352 284 290 292 276 236 234 248 288 290 294 296 310 316 346 338 340 330 328 314 318 328 330 304 282 238 220 226 226 214 210 224 232 254 266 278 286 
77 81 81 91 87 99 97 105 109 107 99 113 115 109 118 111 115 130 122 134 152 168 178 144 162 270 360 409 419 446 433 438 433 413 415 377 356 395 485 536 520 431 383 338 300 304 282 278 238 234 242 282 278 270 282 302 322 366 352 346 328 294 258 256 264 262 248 248 254 246 226 232 226 266 286 280 288 276 276 296 
79 77 73 99 103 93 99 120 97 124 95 107 130 120 103 120 130 158 174 210 292 401 407 344 332 366 383 458 458 405 427 425 438 423 379 348 338 368 464 526 509 438 391 342 300 286 278 248 228 212 238 288 274 272 276 314 342 354 344 316 302 262 262 264 290 284 250 264 266 270 290 300 296 290 298 294 276 278 274 292 
85 81 95 93 91 99 101 115 109 103 115 103 122 113 113 132 168 274 304 324 423 507 516 491 478 423 393 485 485 405 389 395 389 360 314 330 322 334 427 515 491 417 364 324 298 274 260 230 206 202 242 264 262 258 266 310 330 352 346 360 358 379 395 372 385 379 362 332 332 314 272 290 294 290 304 286 278 270 266 300 
79 89 85 103 93 101 95 111 99 109 109 115 128 115 120 136 204 346 383 379 450 493 501 501 476 458 397 446 474 435 354 318 322 308 302 316 316 342 413 472 468 395 364 338 298 284 278 230 224 196 244 268 262 268 282 314 324 374 385 407 415 419 397 389 399 397 368 342 318 284 270 258 282 284 292 284 250 224 222 224 
73 71 85 103 103 99 97 111 99 111 113 120 115 107 118 142 242 342 379 409 446 454 474 452 429 421 405 442 419 425 403 379 377 362 326 330 328 352 419 456 437 377 356 328 288 294 286 248 234 206 232 276 296 296 314 332 352 387 397 427 419 403 379 411 393 374 350 322 316 260 242 248 252 258 258 228 194 180 164 170 
85 75 83 85 97 113 93 115 95 105 101 111 103 109 115 136 242 336 348 421 478 456 462 464 452 466 433 415 437 421 427 415 437 374 318 336 332 356 372 405 403 374 352 336 298 290 274 260 242 214 226 298 312 320 326 334 340 362 393 419 375 356 368 387 370 362 336 308 286 244 240 210 212 192 186 182 160 154 126 168 
81 79 75 87 101 99 85 105 97 103 103 111 115 115 99 128 216 308 322 401 468 476 493 491 472 415 310 381 448 440 438 427 413 366 338 334 328 350 360 387 370 364 360 338 312 298 276 252 230 204 236 314 342 348 348 330 320 346 358 364 358 348 358 346 308 314 278 262 234 202 178 170 170 152 154 162 152 156 138 160 
81 87 89 89 99 103 93 105 97 97 107 99 109 113 111 105 160 262 324 377 429 417 417 409 326 184 160 262 440 442 419 385 403 379 362 354 334 354 348 370 397 356 336 326 302 300 290 268 248 226 260 346 389 413 415 381 366 366 364 348 320 300 288 244 232 226 212 204 206 192 168 154 166 154 144 134 144 142 138 162 
95 81 93 85 103 103 99 97 107 105 105 97 109 105 109 105 118 174 244 284 308 300 196 164 124 126 128 214 431 437 431 399 442 437 391 332 320 324 354 375 407 360 308 296 284 310 314 280 266 264 294 362 383 399 397 381 377 368 300 264 226 202 182 208 188 186 188 196 192 188 178 174 162 140 136 138 150 144 142 148 
91 73 87 105 85 95 89 93 97 107 109 103 105 105 111 95 107 109 130 158 164 146 128 120 122 122 140 192 391 460 456 460 482 495 425 314 282 272 312 403 423 397 282 256 254 290 314 292 296 306 292 270 246 234 210 202 212 198 194 182 190 178 178 180 190 206 200 192 206 188 172 172 164 156 146 148 140 140 142 174 
89 77 89 89 95 81 97 103 97 101 107 109 107 111 103 109 120 101 120 107 109 95 111 118 138 134 142 184 250 438 462 462 474 462 403 284 268 266 300 405 433 427 338 302 256 272 280 260 264 278 246 214 186 164 160 164 142 164 182 178 178 176 182 190 184 194 194 200 192 180 168 166 164 160 136 144 140 150 152 174 
85 79 83 87 93 95 103 95 101 105 97 107 118 113 118 111 126 115 115 128 122 113 107 128 136 130 150 170 192 272 460 466 468 446 314 276 294 282 306 397 450 474 468 448 316 272 262 258 248 234 218 194 182 158 166 154 170 166 162 166 182 182 176 196 192 192 192 206 202 190 172 166 162 160 146 142 144 162 152 170 
85 99 89 99 97 97 115 111 120 111 120 111 109 115 118 113 105 111 118 111 115 126 128 118 138 132 142 156 182 192 314 466 462 433 324 274 284 258 278 409 470 489 466 460 308 266 266 260 252 224 216 200 178 180 170 160 162 172 170 180 172 182 182 200 210 196 194 206 198 186 176 170 156 164 160 164 158 168 156 174 
85 97 87 103 115 91 95 107 105 97 120 115 105 115 118 113 109 107 111 124 115 115 122 120 134 140 128 150 164 154 188 348 437 372 332 282 290 316 300 346 460 470 450 417 268 250 266 248 238 248 228 218 198 154 170 168 166 172 186 174 180 192 188 180 196 200 200 190 196 188 176 170 160 158 160 154 150 166 162 170 
73 101 109 97 99 107 89 109 103 93 113 107 124 124 103 120 118 120 113 103 113 124 128 132 122 122 126 150 150 154 166 212 306 248 236 198 178 240 324 387 427 435 425 326 246 248 252 234 228 228 242 234 220 228 222 268 268 214 226 212 226 224 238 238 224 212 212 200 192 180 176 170 156 146 160 154 156 164 164 168 
91 97 97 95 107 95 105 109 111 101 95 97 115 122 105 111 103 97 118 132 107 115 124 120 128 115 142 150 152 152 162 270 266 232 206 162 109 115 266 387 399 411 336 214 204 226 238 254 254 228 218 244 294 308 324 310 302 242 244 220 226 246 252 274 312 314 288 222 206 180 188 172 166 160 156 168 154 172 166 176 
79 87 101 109 93 101 95 105 107 109 115 113 138 115 109 124 111 126 113 111 124 122 122 130 128 130 122 152 158 152 180 274 224 224 208 238 250 320 391 393 383 330 188 176 162 196 212 214 236 206 192 230 320 346 435 316 282 268 262 242 260 286 272 284 326 338 316 268 220 202 178 184 180 154 166 164 162 182 170 184 
93 95 93 97 111 105 89 113 109 111 120 120 115 124 109 113 103 120 111 130 118 120 130 115 120 130 130 148 156 154 188 238 246 276 375 381 372 397 374 336 252 164 97 158 162 194 200 202 224 224 166 228 274 280 356 310 276 272 274 262 292 328 318 336 360 338 304 280 230 210 194 196 196 176 162 176 166 188 170 178 
91 85 107 103 99 111 122 128 113 107 111 115 115 120 124 115 99 105 109 126 109 124 138 132 140 138 146 152 162 152 196 212 270 352 440 460 421 423 294 122 99 75 115 140 130 184 206 200 212 208 162 210 260 240 260 264 254 256 268 286 296 332 334 348 368 350 314 286 262 264 290 296 290 220 178 174 178 190 170 188 
91 87 81 105 105 103 120 111 115 118 120 120 115 120 111 115 118 124 107 118 132 128 158 152 184 244 238 212 192 188 214 242 292 411 446 444 423 306 158 130 140 130 168 172 160 196 196 170 200 214 170 214 268 254 244 246 260 266 260 258 278 314 328 340 366 340 296 302 375 429 427 431 405 320 212 184 172 186 186 198 
87 93 99 91 97 101 111 105 101 107 109 113 115 115 111 109 115 118 107 124 166 204 186 168 264 401 460 470 427 360 324 240 350 395 425 437 290 99 113 144 150 152 166 170 140 190 198 180 182 222 160 218 232 270 246 244 246 260 248 246 240 250 274 302 294 278 264 318 403 446 438 450 450 352 240 208 186 204 208 244 
83 89 95 97 105 95 111 109 109 97 107 113 105 126 111 99 93 118 105 140 254 222 210 266 286 440 520 507 520 452 324 296 393 435 442 470 262 93 81 122 111 136 152 160 142 168 188 220 206 212 164 182 220 232 254 250 248 252 250 248 226 214 230 216 222 218 202 258 354 383 366 383 385 338 298 260 274 294 302 316 
91 99 99 97 101 101 95 111 109 105 111 115 115 105 105 111 111 107 103 170 292 324 224 292 393 509 509 468 446 476 322 298 405 446 448 456 374 176 93 109 148 136 158 158 170 178 188 202 236 178 194 196 226 262 276 258 250 238 238 242 222 190 190 192 186 172 146 178 286 322 310 302 302 298 300 312 326 336 328 346 
87 93 99 111 101 95 101 111 118 101 109 118 101 107 103 101 109 111 122 172 274 290 204 286 431 503 520 499 462 482 324 286 407 421 450 450 395 272 154 124 152 158 170 172 180 180 198 198 212 164 210 204 194 242 264 256 238 220 206 192 196 186 164 176 168 160 148 150 268 314 296 312 290 304 312 326 344 328 302 302 
83 81 101 107 107 101 85 103 113 113 113 109 115 118 103 109 111 105 111 162 242 278 260 360 368 427 491 515 497 415 318 258 340 433 437 450 442 381 224 128 130 176 170 174 192 190 228 226 256 190 228 186 194 218 210 228 236 200 184 158 172 166 172 178 168 166 138 158 262 300 288 304 304 294 308 314 306 294 256 208 
91 89 83 99 101 85 105 120 105 101 111 107 109 122 109 107 99 109 109 134 188 272 248 296 306 328 403 381 292 202 218 236 262 342 438 464 440 425 238 128 138 130 158 180 172 186 204 218 260 200 204 174 196 184 178 182 186 180 172 166 172 166 176 176 156 146 130 132 204 282 274 274 282 276 292 284 238 196 178 196 
75 85 81 107 107 101 99 120 107 115 113 118 103 132 118 120 105 109 111 118 144 190 220 214 198 204 198 176 158 162 174 224 240 258 356 448 450 433 336 200 170 118 156 174 156 176 202 218 238 196 188 178 178 146 148 180 182 162 150 182 178 168 174 144 162 142 118 126 166 222 224 210 214 220 192 190 162 162 164 182 
83 101 91 109 105 107 105 126 113 115 111 118 124 126 103 115 130 111 122 109 115 124 144 128 136 126 132 144 160 142 160 224 244 204 244 300 362 399 381 332 302 220 198 190 218 198 208 204 224 202 200 198 190 158 156 170 166 152 152 200 206 188 168 152 126 136 115 130 156 194 204 192 174 170 152 148 148 152 160 174 
79 85 89 97 103 107 101 113 103 105 115 115 128 122 118 118 115 120 120 109 111 118 128 132 128 130 138 136 152 134 144 222 232 162 138 154 180 354 399 381 385 368 328 228 226 214 184 204 220 214 212 200 204 178 188 186 174 176 198 226 226 200 156 144 140 144 140 148 194 194 190 182 172 160 142 154 126 158 150 162 
79 91 101 103 111 113 101 97 113 118 122 120 134 134 115 120 128 115 120 113 111 111 111 130 132 134 128 138 140 138 146 190 224 148 28 0 93 232 360 403 405 415 409 332 196 180 200 192 228 218 204 184 212 198 186 188 188 172 190 206 202 170 162 172 178 174 182 184 192 192 202 180 166 152 136 148 142 152 142 172 
89 75 89 101 93 111 97 109 124 118 118 124 130 111 111 126 120 120 113 124 124 113 126 126 115 118 140 150 166 144 164 158 196 218 178 168 204 264 298 368 433 427 435 413 292 170 156 180 174 184 178 178 178 174 170 170 158 154 152 166 172 162 164 170 184 188 186 188 198 192 172 176 172 146 142 148 138 142 140 160 
97 95 97 107 97 93 101 105 120 109 118 115 115 122 118 120 118 118 111 118 113 124 109 132 130 140 186 246 294 272 274 232 220 190 210 230 234 274 292 377 433 435 444 444 401 232 172 168 172 164 174 166 168 166 158 158 156 166 158 164 154 162 160 168 174 188 180 198 200 188 178 176 168 162 136 144 140 144 146 174 
77 103 93 97 93 99 111 113 109 113 107 109 130 128 107 124 118 111 126 111 118 128 118 138 138 194 316 366 372 336 330 328 336 268 208 202 218 260 272 385 415 450 450 458 403 240 160 168 164 178 166 148 150 170 156 158 144 140 146 148 160 146 156 182 176 188 186 198 194 186 174 170 162 166 154 152 156 168 174 198 
77 103 115 115 99 103 91 101 115 122 105 118 109 113 124 115 120 113 130 122 120 122 128 128 140 208 338 374 391 358 383 391 383 302 236 188 186 202 224 272 286 340 360 322 258 200 178 162 170 164 166 160 164 164 164 164 164 164 156 174 164 158 172 174 190 182 176 186 190 204 196 176 176 170 174 182 174 194 188 212 
81 99 99 105 89 111 115 109 113 118 109 109 115 124 113 118 122 115 113 134 128 118 122 124 130 200 330 374 405 413 409 387 379 314 238 220 226 248 250 252 246 240 240 242 210 218 214 200 180 174 164 174 168 182 176 178 176 178 170 172 166 158 166 166 170 184 176 192 204 226 238 268 266 272 264 252 230 228 216 216 
93 91 101 99 95 95 95 99 107 105 107 109 113 130 115 118 126 124 126 138 122 124 132 134 132 188 332 364 401 421 429 397 372 340 264 246 280 296 280 270 236 220 244 232 218 214 222 198 198 182 178 172 176 180 170 170 178 158 162 168 154 146 144 166 158 168 216 206 220 258 280 302 322 352 340 336 326 326 310 268 
99 103 93 91 109 111 107 103 101 105 107 107 115 111 107 138 174 242 260 240 210 200 160 136 136 218 324 314 360 401 425 417 375 360 310 288 298 308 292 256 242 220 250 234 236 222 236 210 206 200 188 166 176 186 168 154 166 168 162 170 144 134 134 130 140 124 180 184 180 222 278 282 314 346 356 358 332 340 324 292 
81 85 87 115 111 103 109 99 111 103 120 115 118 113 105 170 314 419 435 470 464 438 320 196 170 264 316 300 318 372 401 411 385 374 348 302 296 316 294 262 252 238 242 238 238 224 240 236 234 216 188 178 174 186 176 168 164 160 168 172 160 138 124 132 136 111 148 190 174 206 246 254 298 328 350 348 334 326 312 272 
87 93 89 111 107 107 101 109 115 109 113 101 118 132 146 234 431 454 472 528 516 522 509 458 366 372 340 304 326 336 338 403 407 395 362 330 304 314 302 288 262 238 238 236 238 230 232 236 236 240 202 196 176 178 190 168 166 180 182 178 162 162 136 140 136 120 164 174 192 202 238 252 288 322 334 298 304 286 256 238 
99 111 99 111 109 111 105 105 113 101 126 118 132 134 144 274 448 472 503 524 516 516 538 532 497 431 348 326 316 282 246 379 415 415 377 362 320 308 298 272 256 244 240 230 224 224 216 230 240 236 222 198 192 202 188 190 182 188 188 188 196 186 172 140 148 156 222 212 220 198 228 240 260 252 246 222 196 202 200 214 
87 91 101 103 113 128 111 115 111 105 118 113 122 138 156 276 429 468 530 516 487 466 482 520 495 440 342 314 294 234 210 254 431 425 395 362 326 300 294 274 266 256 242 240 216 218 216 206 218 232 236 204 204 218 204 206 212 206 194 192 196 188 176 162 150 162 218 216 212 190 182 178 170 176 162 170 176 178 178 212 
75 89 101 91 109 115 103 113 107 118 122 128 120 148 144 228 372 421 513 518 462 456 452 480 472 415 342 300 250 214 180 166 354 415 377 360 348 318 298 288 282 268 262 244 224 220 222 216 196 214 214 208 212 204 230 212 212 210 224 200 196 184 164 166 182 198 198 204 202 178 154 162 150 140 164 162 160 158 172 198 
83 93 95 107 99 109 107 107 126 120 124 122 120 134 142 158 248 334 431 464 450 429 429 433 437 411 330 266 246 208 180 162 236 411 387 374 358 314 304 296 274 276 268 252 222 220 226 206 206 218 212 218 214 208 210 196 196 222 226 200 194 186 170 168 202 192 204 200 196 186 178 164 140 136 152 160 146 160 166 178 
99 87 103 115 105 89 124 122 113 113 122 115 105 132 126 120 154 166 178 252 366 387 419 389 296 246 298 272 252 216 192 138 164 364 395 368 356 326 318 298 284 278 274 254 240 234 228 224 224 226 204 214 230 214 204 198 202 208 208 194 188 182 170 176 166 192 202 194 216 192 168 158 136 142 148 146 150 158 160 168 
81 109 109 101 113 91 103 107 109 111 120 115 126 122 113 120 122 140 138 146 238 330 336 334 316 236 264 278 258 214 178 75 128 286 374 374 334 302 290 310 286 278 260 266 242 238 224 238 238 238 232 224 236 216 198 188 202 216 204 210 206 180 178 164 152 194 188 190 188 172 162 142 128 111 138 136 134 148 156 172 
99 81 107 89 113 105 101 103 95 109 105 109 111 115 109 115 132 113 124 130 136 190 230 262 298 304 278 288 280 248 204 109 118 208 362 360 340 276 256 288 282 264 250 276 256 246 222 218 250 260 244 254 250 220 200 196 194 222 216 212 202 200 170 182 164 166 180 184 184 158 162 148 140 126 136 148 156 164 144 164 
85 67 93 99 99 107 103 105 93 103 115 109 126 126 130 103 111 113 120 107 118 132 166 146 206 268 296 292 306 296 266 228 188 210 344 372 344 264 250 258 266 242 230 274 276 244 220 226 244 266 258 250 236 206 198 186 204 236 222 224 204 184 170 142 132 160 196 226 206 204 208 200 192 194 178 172 162 164 160 192 
89 83 95 120 95 87 95 113 95 109 115 115 115 120 120 105 115 97 122 105 109 107 120 101 124 188 276 290 322 296 292 290 312 260 308 362 368 314 244 250 250 224 228 242 256 250 228 232 250 250 226 194 198 186 188 186 198 214 216 218 198 182 170 142 109 136 202 230 222 226 258 252 250 282 262 242 216 202 196 184 
89 93 83 91 99 93 93 103 101 101 113 105 109 115 101 111 107 105 99 103 109 118 105 115 103 115 198 298 352 326 316 316 320 322 344 374 375 375 294 250 252 234 224 232 224 238 218 208 226 208 190 164 166 182 182 182 194 194 202 208 180 178 154 136 103 134 192 202 200 216 234 266 290 294 300 286 280 260 244 238 
69 79 75 77 87 75 91 105 97 83 97 99 105 115 105 97 107 91 91 93 105 91 95 97 93 89 130 242 352 362 348 352 348 334 340 377 362 393 352 254 244 226 206 262 218 234 232 222 230 206 174 162 156 170 164 154 174 172 188 158 168 152 136 126 111 122 178 166 166 174 210 238 270 286 320 310 298 284 266 264 
69 67 93 85 101 87 85 83 95 95 95 101 99 95 83 95 89 81 105 83 77 85 95 85 79 79 93 154 244 326 366 358 360 332 328 358 375 419 411 194 150 158 160 212 194 230 222 226 214 192 182 160 158 158 156 160 156 166 172 152 142 136 126 120 128 134 146 132 146 166 186 228 270 288 308 324 334 306 292 274 
57 69 71 83 87 89 71 73 79 83 87 85 83 97 101 99 87 79 87 75 79 73 79 77 81 73 71 87 118 158 256 348 358 336 294 320 389 438 374 144 109 89 107 134 142 156 182 194 204 192 178 180 176 164 148 158 148 158 154 140 126 124 126 132 113 111 122 97 120 164 206 208 262 286 298 306 292 296 260 260 
50 77 48 79 81 81 61 71 63 71 81 73 91 91 93 99 75 89 89 75 75 75 69 73 71 69 65 101 89 79 128 178 250 266 188 182 274 330 200 109 97 85 122 120 130 132 140 142 162 168 170 198 180 196 174 162 170 178 164 154 150 136 138 144 130 128 111 101 105 118 152 162 170 200 222 216 200 196 190 232 
53 71 63 65 81 79 73 87 77 81 71 71 99 81 89 89 85 87 83 69 67 77 67 85 77 67 65 79 91 85 101 105 132 136 118 111 126 120 93 89 101 107 134 128 132 130 132 148 134 120 124 113 122 118 148 142 138 146 162 156 148 138 115 146 136 113 101 105 111 97 109 109 126 146 176 182 146 170 202 198 


