P2
80 60
629
14 12 10 12 16 30 38 26 42 36 36 52 50 54 57 50 54 67 54 67 63 67 65 61 65 73 65 73 81 75 71 85 77 79 95 81 87 85 95 89 95 97 79 81 73 81 91 75 75 97 117 142 119 144 152 154 146 144 124 124 138 136 144 174 252 358 360 358 362 376 378 374 378 362 354 368 364 360 364 312 
50 4 18 12 20 44 36 24 26 28 28 40 34 40 28 52 46 54 63 61 59 67 71 63 46 63 65 65 63 73 71 89 77 75 83 85 93 75 99 87 89 73 69 75 67 89 75 67 69 81 109 117 140 146 144 154 144 126 119 105 134 124 126 156 286 379 376 374 354 356 358 368 395 374 374 379 383 383 409 403 
8 0 28 18 28 18 30 16 36 28 24 42 54 30 50 59 71 46 52 61 65 67 81 75 67 67 63 73 65 85 73 83 73 75 73 75 85 73 87 93 85 83 75 83 69 69 67 79 75 59 89 113 140 154 162 158 154 128 134 138 138 117 132 210 276 326 429 439 393 362 320 338 358 374 376 411 387 409 421 425 
30 12 6 14 16 20 24 32 50 26 34 57 38 40 42 61 48 48 46 57 61 46 75 63 59 59 71 61 73 63 77 77 73 71 77 73 75 79 79 83 85 77 71 71 71 63 73 87 75 77 75 91 111 142 190 242 278 272 300 324 224 160 170 232 282 308 425 478 452 376 340 318 312 334 330 340 354 395 413 433 
22 4 4 14 16 30 12 36 34 32 48 32 59 50 52 71 57 54 54 52 67 67 75 59 59 71 54 67 61 67 79 63 77 81 75 75 73 79 77 77 77 89 54 57 71 65 81 69 73 59 67 69 93 184 364 462 511 507 484 462 425 320 334 393 391 366 354 397 433 421 395 332 306 324 324 332 324 328 330 336 
28 4 2 16 32 30 20 34 40 34 42 38 50 71 52 38 54 69 63 63 67 61 71 57 48 57 52 63 59 75 73 63 81 52 69 75 79 63 75 85 85 77 83 81 79 71 81 75 71 73 69 97 142 346 466 530 546 561 538 546 542 575 582 575 557 476 395 346 358 364 358 348 360 328 324 330 338 306 320 320 
34 12 16 28 38 46 32 36 36 42 40 36 52 57 34 59 40 44 61 48 65 54 61 61 61 69 52 65 57 71 81 81 85 83 73 77 95 95 77 91 81 79 87 81 85 93 97 79 83 77 93 101 216 495 528 565 563 561 550 569 581 590 621 625 596 588 515 395 344 350 318 282 296 300 306 312 326 296 318 346 
28 8 30 30 38 48 36 42 44 46 32 52 50 54 57 54 52 44 59 61 81 50 69 77 67 67 65 85 73 77 69 89 87 77 87 89 91 103 97 95 89 101 89 89 91 81 95 95 81 87 93 119 224 480 563 582 567 561 534 542 575 613 623 629 615 594 567 495 383 385 370 330 338 326 334 322 298 290 286 316 
16 12 14 16 26 36 40 34 30 30 48 38 54 46 59 52 61 48 54 79 52 61 67 73 63 65 79 77 77 93 87 95 83 71 79 95 101 95 117 101 95 99 91 85 99 85 99 109 93 91 93 109 182 379 553 567 546 519 526 505 534 586 598 600 606 596 565 450 383 346 342 322 332 354 362 342 332 310 268 310 
20 2 28 22 38 32 28 36 38 34 63 65 57 67 69 61 67 63 69 71 71 77 61 79 83 81 67 79 89 89 97 83 99 93 85 93 107 97 115 99 113 97 101 109 115 105 105 89 111 97 99 93 134 218 411 528 530 517 524 515 507 565 596 598 594 571 466 421 385 328 326 300 318 346 340 346 344 318 294 318 
18 0 16 28 61 42 30 30 36 54 42 57 54 54 54 54 71 71 54 63 61 93 69 77 81 79 69 75 77 87 81 99 91 91 99 97 107 99 115 115 113 107 95 101 115 107 105 107 109 105 93 85 93 126 210 370 462 486 495 466 383 389 472 557 530 450 364 348 336 342 350 364 358 372 362 340 348 340 312 332 
32 14 40 20 42 59 36 54 50 75 63 54 61 67 67 87 65 65 69 77 73 75 75 87 87 77 81 91 87 81 85 89 99 93 103 101 105 113 105 103 119 122 105 91 99 99 105 109 99 97 105 103 95 101 109 140 164 204 286 250 142 142 198 389 407 356 348 413 448 417 417 376 372 378 360 340 340 346 322 342 
28 20 14 22 38 59 28 44 40 52 65 57 69 63 79 69 57 57 69 67 65 77 85 71 87 91 81 79 87 89 103 105 103 99 97 97 103 99 105 105 107 107 99 107 111 101 107 109 101 101 103 89 93 95 107 101 97 97 99 103 95 95 130 200 292 310 376 478 468 450 413 360 334 348 342 354 334 326 336 358 
16 14 34 34 57 54 52 57 59 59 59 52 52 75 71 65 67 65 61 75 75 65 91 87 79 89 81 85 95 105 89 89 105 101 95 113 97 113 105 103 117 107 95 99 99 101 101 99 107 101 117 85 87 97 99 105 89 79 77 79 95 105 113 128 290 344 413 464 462 399 376 358 342 356 346 356 352 330 318 350 
34 22 30 34 44 46 36 48 48 57 61 65 85 65 65 83 63 83 75 59 85 75 67 73 83 85 75 93 91 101 101 97 95 87 95 93 101 103 113 113 101 105 107 99 103 107 97 97 97 93 101 97 79 87 107 107 89 89 83 81 97 87 109 132 226 401 431 458 446 427 379 348 340 336 358 366 354 362 334 364 
34 36 30 38 46 52 42 54 42 44 57 61 54 52 71 63 67 73 63 77 75 79 83 89 87 83 75 79 89 89 93 87 95 97 99 93 97 99 105 109 111 103 105 87 105 83 93 95 91 101 95 91 85 93 99 89 87 81 75 75 91 91 105 109 164 344 411 437 411 383 354 348 368 374 383 399 381 387 391 403 
36 24 30 40 42 61 48 42 54 57 44 54 54 61 63 65 63 69 67 89 71 67 73 71 73 81 79 85 83 93 95 99 89 95 85 83 111 75 91 95 105 97 89 97 95 83 107 87 103 101 93 89 81 89 87 91 79 75 67 89 89 93 113 109 172 308 391 421 415 393 405 411 403 437 427 415 421 403 446 480 
28 34 42 40 36 42 50 34 61 54 59 42 61 52 65 75 69 63 69 65 65 67 75 75 71 85 69 89 75 87 93 91 81 97 73 87 101 91 101 93 97 93 85 99 95 91 105 95 99 95 101 99 89 91 81 93 85 85 75 73 99 105 132 182 290 324 379 423 407 429 433 423 413 417 421 413 401 407 439 462 
34 32 44 40 42 57 46 54 48 57 59 40 59 59 52 73 52 67 67 59 65 69 63 77 71 65 67 73 71 75 85 79 79 69 81 77 97 79 97 103 101 101 93 111 101 109 113 101 103 97 95 99 81 99 99 107 99 95 89 99 95 128 172 288 336 334 336 374 411 421 439 421 403 415 407 397 378 379 405 435 
28 26 36 42 50 44 28 46 54 38 63 52 48 57 57 69 67 65 59 52 69 75 81 77 79 81 75 75 81 75 95 93 87 83 93 85 101 107 105 111 105 107 109 115 103 91 103 109 105 105 103 91 103 117 117 109 115 111 97 99 109 136 276 340 348 322 340 409 452 433 419 407 411 433 413 378 387 395 379 425 
54 40 44 40 46 46 48 34 52 40 54 61 69 57 75 61 50 71 67 73 85 75 81 77 95 75 75 79 89 75 91 105 101 97 93 99 103 105 115 124 109 113 99 107 109 97 99 111 111 117 119 115 103 111 115 126 128 119 109 122 124 164 310 381 358 364 411 417 441 411 415 403 419 433 389 288 310 423 448 460 
50 38 40 54 52 54 44 57 61 46 52 65 65 69 65 73 81 61 67 81 83 79 85 85 91 89 103 81 83 99 105 113 97 107 105 107 122 105 111 115 105 122 107 126 113 109 124 122 115 128 130 119 107 128 119 138 134 113 119 130 136 194 370 409 429 454 446 425 401 385 352 379 397 385 276 246 252 358 446 446 
34 40 50 50 52 59 50 54 48 54 52 59 73 61 65 77 85 87 71 71 95 79 81 89 89 87 83 95 97 101 91 109 95 105 99 111 103 107 111 109 126 113 122 109 117 117 119 119 117 117 134 122 122 124 128 132 134 134 126 128 140 236 391 450 462 476 466 433 387 350 348 352 372 342 284 276 260 302 409 456 
34 28 36 57 63 61 61 54 42 57 67 54 67 73 73 73 69 79 77 81 91 89 79 85 81 91 85 91 89 89 109 101 111 101 87 117 115 109 107 126 109 117 101 101 111 124 119 124 126 128 130 138 132 122 128 138 138 132 138 126 156 276 417 423 444 444 446 441 395 385 368 381 401 395 342 308 294 328 389 431 
44 36 48 46 46 42 54 59 46 44 61 69 65 69 79 79 65 77 81 77 75 85 89 79 89 85 91 87 95 101 105 105 107 103 103 103 95 101 113 111 113 119 103 111 105 103 134 117 122 128 132 122 115 128 146 176 172 174 200 228 224 330 421 391 415 407 399 403 393 389 387 389 385 417 370 320 324 344 352 415 
57 42 50 46 42 57 52 52 52 57 67 67 44 61 79 85 77 65 77 73 77 77 85 91 95 87 107 91 87 93 89 105 103 99 103 99 103 107 113 113 101 113 107 109 115 109 126 134 119 124 126 122 128 148 254 254 248 246 318 460 464 435 427 431 444 397 368 387 401 407 419 379 350 389 364 334 314 346 340 415 
50 50 40 42 63 65 44 48 52 52 59 57 63 77 71 83 71 69 75 79 83 83 97 81 79 97 83 81 87 85 99 111 105 87 87 97 115 95 103 111 105 119 105 115 126 113 126 122 126 126 130 115 142 180 270 306 282 312 391 507 553 530 493 464 460 460 403 393 405 427 437 421 381 378 340 336 330 383 358 425 
38 44 59 46 50 54 50 61 71 69 69 73 67 69 81 75 85 81 73 73 79 79 87 87 81 97 87 93 107 107 93 97 109 107 99 95 109 109 115 113 115 124 113 115 111 124 119 126 136 130 128 117 180 254 296 270 336 320 444 497 551 563 553 497 505 474 462 419 362 393 435 421 374 348 330 334 344 360 362 460 
57 44 48 50 52 65 44 46 63 42 73 61 69 73 67 59 81 77 81 91 77 79 87 91 105 81 95 85 97 107 97 113 103 95 107 99 101 105 113 107 122 132 117 109 105 122 124 124 122 122 126 119 200 358 358 387 393 442 540 513 513 536 548 507 509 499 444 403 340 368 409 395 368 378 348 326 342 350 376 458 
32 26 52 65 46 77 48 73 57 57 69 73 63 65 67 73 73 63 73 91 87 97 89 85 91 85 83 79 93 99 97 101 107 99 105 97 103 103 103 97 122 115 105 126 119 128 111 105 119 122 117 122 192 332 316 376 417 511 519 526 419 379 486 499 480 484 435 379 356 401 413 397 405 393 342 324 326 334 374 464 
40 22 48 54 57 69 65 57 46 63 65 65 59 75 63 71 75 65 79 67 87 89 95 91 87 89 89 91 101 97 103 99 105 93 95 107 109 95 113 119 126 107 113 111 113 115 124 111 111 119 124 122 178 296 298 360 399 491 495 491 439 395 472 472 442 431 403 376 393 433 458 439 417 397 320 316 322 336 350 441 
46 28 42 50 54 63 40 50 52 61 69 59 77 73 71 81 75 75 71 75 71 83 81 87 79 85 81 85 95 87 93 95 95 99 91 91 107 97 113 107 109 107 95 111 101 107 117 107 115 107 119 117 140 238 246 330 312 419 493 478 480 484 522 468 429 439 405 395 437 452 437 417 391 391 368 342 314 346 370 413 
40 38 40 52 28 57 54 52 52 42 67 50 63 67 71 77 59 59 77 69 65 69 75 77 71 83 77 75 77 85 85 81 99 83 75 93 101 85 105 97 99 95 107 109 109 111 109 109 117 109 105 103 109 154 168 180 212 262 350 425 433 364 409 444 476 441 419 454 415 389 403 403 403 427 456 439 368 374 366 397 
34 30 38 46 40 57 52 54 61 54 57 46 65 65 48 57 59 61 57 73 69 79 69 73 81 73 75 85 75 85 87 81 89 83 79 75 95 89 103 107 85 105 103 103 93 105 109 111 113 99 101 99 105 124 130 128 122 124 138 170 178 206 378 409 429 454 472 446 393 383 411 403 417 456 474 474 452 403 376 379 
48 38 42 34 57 48 50 63 52 54 52 50 65 65 57 61 52 65 59 71 61 73 71 81 79 87 73 75 79 97 87 77 99 81 93 93 99 91 101 93 119 103 111 103 105 119 101 101 119 119 115 105 122 119 124 119 113 122 126 124 132 218 381 405 446 466 458 429 397 378 376 397 446 482 466 472 452 378 393 376 
38 52 67 34 71 61 59 65 61 48 61 52 61 73 71 61 69 71 79 75 79 93 83 81 77 89 79 93 89 97 89 97 99 101 87 89 103 99 101 115 124 117 97 109 107 119 115 113 115 109 126 109 107 115 124 144 136 126 122 144 150 248 403 446 464 507 499 444 379 342 370 425 476 482 462 466 409 360 381 374 
38 52 57 36 42 52 59 73 61 59 44 59 63 79 71 71 77 79 77 79 83 81 79 87 85 71 81 91 79 87 103 99 103 95 91 101 119 113 107 117 119 115 107 101 103 107 124 124 124 111 113 128 111 126 178 240 244 214 142 158 162 238 397 464 482 489 495 454 401 344 350 372 442 468 464 442 411 368 362 316 
42 44 48 42 40 52 50 67 59 52 83 59 79 75 71 75 77 71 69 89 89 83 77 87 89 77 79 77 93 95 97 103 109 103 105 101 113 115 117 113 122 117 122 115 119 117 128 119 124 115 132 132 140 194 294 417 482 466 381 300 258 296 417 450 442 468 462 456 452 433 437 439 466 450 429 421 409 395 326 270 
38 38 26 52 46 46 40 63 59 61 59 57 67 67 75 79 73 63 95 89 75 87 81 91 93 89 95 87 83 109 97 103 95 95 122 111 113 124 124 124 117 130 128 119 119 109 117 124 124 126 119 126 188 300 413 519 509 515 522 542 503 491 462 431 417 435 456 484 460 470 454 454 454 431 403 409 415 409 370 288 
30 42 63 46 42 69 57 63 61 61 77 73 65 73 79 87 87 91 81 81 77 91 83 95 95 85 99 81 97 99 97 103 105 107 97 109 109 109 107 124 115 113 117 115 111 126 126 117 126 130 126 134 230 324 433 530 526 528 548 555 557 563 538 452 417 409 423 454 446 442 419 427 415 419 405 425 431 427 409 334 
26 38 57 40 44 73 54 52 40 61 61 59 61 69 79 93 85 75 77 87 79 83 79 93 89 91 89 85 85 99 103 109 103 107 105 99 111 128 115 113 122 117 119 111 128 124 128 126 128 119 109 134 244 342 413 476 538 536 542 519 538 542 577 526 454 433 407 389 399 419 407 387 387 405 415 425 439 444 421 368 
42 42 38 38 61 67 40 77 54 59 54 63 67 69 69 81 89 85 85 79 77 83 83 93 93 99 91 99 93 97 113 105 103 119 124 99 111 115 119 113 111 119 115 107 115 117 130 126 130 126 124 140 228 336 409 444 517 544 530 482 450 427 489 495 505 478 415 393 368 376 391 379 366 366 389 419 433 429 417 368 
16 20 36 40 48 40 57 57 54 54 50 63 63 69 81 75 75 77 75 73 79 79 83 85 91 93 77 89 91 93 99 103 103 99 95 103 105 124 111 111 122 109 111 109 126 124 122 138 136 132 128 134 192 342 441 441 478 536 532 503 429 397 456 427 495 505 454 403 366 362 356 368 358 328 318 342 356 356 350 310 
24 30 59 40 50 52 61 52 59 48 65 67 77 81 71 71 81 79 89 73 93 87 83 83 77 89 83 91 85 95 93 93 103 103 99 101 122 95 119 111 122 130 115 122 124 119 130 132 132 140 130 144 148 264 421 456 472 540 524 526 480 466 444 425 482 480 433 413 360 340 338 342 360 326 292 298 282 284 252 268 
44 34 38 34 42 46 38 63 40 46 57 61 65 61 75 65 79 67 75 83 85 83 85 87 89 89 87 87 99 85 97 109 103 97 89 89 105 91 117 134 105 119 107 128 119 124 136 136 134 126 132 132 132 166 224 326 433 509 519 524 540 520 474 446 464 456 387 362 356 328 308 302 294 300 280 312 292 270 240 258 
30 30 30 34 48 44 46 61 59 48 59 52 81 71 73 81 83 79 83 65 65 77 77 79 81 93 89 87 89 95 83 91 97 85 91 95 101 97 105 115 93 111 103 122 128 138 126 132 122 126 140 136 126 130 152 164 196 300 399 474 517 509 466 413 405 419 379 314 300 284 294 286 284 248 260 294 312 314 294 274 
38 22 54 48 42 42 44 48 59 46 57 57 50 48 69 61 63 71 63 69 81 81 85 87 67 91 89 81 97 99 87 91 93 95 85 99 109 111 109 107 113 117 115 124 138 128 136 130 134 128 130 128 132 136 138 130 152 154 166 242 407 421 385 364 334 352 328 282 274 258 274 288 294 254 234 278 324 346 346 362 
36 34 32 38 40 61 38 54 54 44 50 42 67 42 52 52 83 71 63 65 67 75 85 67 75 75 75 81 83 83 93 89 103 89 85 73 99 93 101 107 105 111 113 111 119 126 132 130 124 140 130 126 111 113 124 111 124 124 128 184 338 385 395 425 395 328 286 286 282 258 242 256 286 282 234 270 312 362 352 376 
38 34 34 30 38 48 57 46 46 32 61 40 52 63 61 44 57 59 77 54 71 81 71 75 63 69 81 54 71 79 69 75 73 77 79 95 101 89 101 105 109 109 107 115 119 140 124 115 115 122 122 128 111 109 113 124 103 107 113 170 300 368 405 413 383 320 280 306 276 244 250 276 296 296 254 244 304 328 338 350 
36 59 46 52 36 38 42 61 42 59 50 48 57 50 59 59 67 69 63 69 67 67 73 81 85 71 73 85 75 89 103 65 93 89 95 95 109 109 101 113 115 107 105 124 122 122 128 144 138 130 117 132 122 115 111 130 119 115 115 172 308 338 362 374 356 352 324 308 290 238 260 268 304 318 282 226 268 320 318 344 
24 30 42 42 57 54 48 42 59 52 67 63 54 65 54 69 73 73 85 75 63 75 61 87 77 73 81 83 83 83 87 81 77 85 93 95 111 97 105 128 117 126 119 117 117 128 146 128 144 132 126 136 117 119 132 128 122 124 130 188 292 346 379 372 348 332 284 288 278 250 260 276 284 310 270 242 226 308 320 342 
20 28 32 26 38 50 38 46 40 48 65 50 57 67 69 63 61 69 75 75 75 71 85 79 77 81 87 75 83 87 89 95 97 103 93 97 105 101 113 113 115 117 126 130 122 136 128 132 138 132 132 130 128 122 119 126 124 117 122 184 336 403 417 413 389 340 302 286 248 250 266 258 288 302 268 224 206 284 312 322 
12 28 50 42 38 59 50 48 48 54 50 50 57 59 59 65 65 69 71 75 73 85 89 87 81 79 75 95 89 89 93 99 91 99 99 93 111 103 109 107 107 111 119 122 119 132 128 136 144 140 126 132 107 119 124 101 117 122 117 176 340 407 421 401 391 354 308 284 256 248 264 286 296 296 248 216 212 274 298 314 
32 34 50 34 48 40 59 54 54 36 61 57 48 57 69 83 83 59 69 69 81 71 99 79 91 87 81 77 101 101 99 99 97 105 91 103 113 109 95 107 111 117 117 130 130 130 126 132 140 138 138 138 122 119 117 117 124 115 122 148 312 387 423 415 387 348 318 318 284 278 274 274 278 288 234 214 252 264 282 304 
28 26 42 36 20 61 42 42 44 40 61 34 67 61 63 71 69 79 69 69 91 75 89 73 93 73 75 83 91 91 95 95 105 101 95 99 109 105 111 99 122 113 109 122 122 126 130 136 113 111 119 126 115 115 122 113 109 107 97 128 240 374 379 385 370 344 314 332 314 296 266 244 264 254 212 228 266 256 268 282 
16 32 38 30 40 42 36 48 48 57 52 40 59 67 59 67 63 67 73 67 81 65 79 83 87 69 83 99 95 73 91 87 95 103 89 83 113 107 99 107 111 124 103 111 111 117 132 126 117 124 126 117 115 115 111 109 111 107 95 111 190 338 376 366 366 328 348 338 330 288 248 238 220 226 202 242 270 274 260 276 
28 14 24 50 48 50 28 36 50 63 42 67 63 65 59 63 69 61 63 75 65 73 73 77 75 85 89 81 93 93 85 95 101 97 87 83 107 93 95 117 101 113 103 99 97 109 115 113 109 115 122 109 103 115 109 101 101 99 89 109 134 272 346 364 360 360 330 370 334 298 240 212 208 192 200 256 272 270 268 278 
12 36 38 38 36 48 34 30 44 57 65 57 44 65 61 57 65 61 61 67 67 83 89 73 73 89 87 89 91 79 101 95 89 103 93 85 115 95 105 91 93 111 105 117 115 103 107 107 115 103 105 107 107 103 99 105 91 85 81 91 111 178 298 332 338 340 370 378 332 312 230 214 186 202 216 258 274 284 244 278 
28 26 26 26 44 44 26 36 34 30 38 44 44 50 67 59 61 59 61 71 67 75 61 73 69 79 91 85 87 87 81 83 91 85 93 99 95 89 101 99 105 113 97 95 95 103 113 105 93 115 101 101 91 93 103 87 83 89 79 85 99 134 234 314 320 346 385 407 358 282 202 188 184 210 228 248 260 284 248 282 
18 24 26 8 36 36 24 42 40 34 24 38 44 42 59 42 48 57 54 71 61 81 71 73 69 79 81 75 87 87 85 89 93 89 83 83 103 93 99 109 103 97 91 83 73 77 77 83 91 101 111 105 111 99 113 103 99 119 105 111 103 119 190 310 346 376 399 417 358 298 206 170 192 224 236 256 268 272 260 286 


