P2
80 60
523
47 75 43 59 59 67 71 71 87 93 89 89 97 97 79 97 89 77 75 55 53 71 71 57 67 75 63 75 85 97 91 87 91 97 79 95 89 89 93 71 67 69 53 55 67 97 99 113 157 195 201 219 217 191 185 187 175 173 181 189 217 187 213 221 221 217 215 231 227 231 245 273 271 281 302 292 302 289 273 283 
41 73 71 55 65 67 67 69 79 85 93 95 83 79 83 95 97 79 65 55 65 73 73 53 53 55 85 149 185 235 267 223 221 205 227 173 127 119 101 105 111 115 117 131 189 285 273 275 271 241 251 253 245 263 267 257 229 217 231 223 231 243 243 227 247 251 245 223 219 215 225 261 283 273 285 283 277 277 255 253 
41 61 65 65 79 73 71 71 75 97 75 77 95 81 95 95 79 75 79 63 59 89 67 63 73 75 195 355 375 369 354 310 318 359 363 346 300 283 257 277 289 304 302 267 302 285 265 271 241 241 263 269 281 277 273 267 259 233 249 247 247 263 257 263 269 279 257 221 231 223 207 265 257 271 265 259 237 243 227 229 
49 75 59 59 77 79 75 75 71 75 79 95 75 83 87 81 69 79 75 71 71 85 81 73 75 119 310 418 435 410 367 314 383 416 416 418 420 404 383 391 402 381 328 285 273 275 251 225 219 231 269 279 279 285 283 285 271 285 292 273 273 269 269 283 283 285 291 261 257 243 251 253 275 265 251 207 219 219 195 185 
39 59 73 63 75 77 59 81 73 93 75 81 97 91 85 95 77 105 79 61 57 77 71 73 81 135 352 426 447 428 369 318 420 430 432 432 430 406 410 410 397 383 336 291 265 267 239 223 239 229 269 275 291 283 275 275 267 271 267 279 287 283 300 296 308 312 298 279 265 241 217 209 191 171 161 147 145 133 143 143 
30 57 73 65 79 67 65 57 67 103 89 105 91 89 101 103 91 85 83 79 69 105 91 89 99 151 273 404 439 424 397 363 422 447 433 433 443 435 430 422 401 379 330 302 275 259 251 233 219 227 279 275 269 257 259 259 277 310 296 316 310 322 320 314 298 259 243 203 189 163 155 149 129 127 117 105 111 123 121 127 
39 75 75 77 63 81 73 73 87 87 81 101 99 79 101 105 83 97 91 85 99 89 99 83 111 133 215 320 433 447 412 397 430 424 428 459 470 470 474 466 449 395 354 308 287 287 259 233 225 245 275 269 271 255 251 259 285 318 304 332 306 291 255 205 193 165 147 143 163 147 135 135 125 131 109 111 111 125 117 107 
47 65 67 67 73 79 69 81 77 103 77 91 103 93 99 103 85 83 93 81 99 121 97 97 113 223 312 350 414 455 428 443 432 418 397 410 476 474 495 476 476 439 375 344 326 348 320 279 245 269 330 310 267 229 231 255 287 336 263 265 217 167 145 141 151 145 139 143 147 147 149 147 143 123 121 117 101 115 117 129 
51 65 75 63 77 77 75 85 81 79 85 95 113 95 95 101 99 85 107 103 131 207 227 199 209 304 455 422 412 430 437 437 428 401 365 393 430 449 459 463 472 464 420 369 363 371 383 395 377 385 408 338 257 215 219 255 273 296 211 163 135 139 141 147 137 135 137 141 165 161 147 165 155 135 121 111 117 131 105 135 
51 61 75 61 77 83 79 89 73 89 91 103 105 99 107 111 95 103 177 251 361 459 459 435 474 513 517 447 404 399 406 387 371 350 359 395 418 437 430 414 439 432 406 365 344 369 404 387 399 420 430 322 237 213 217 253 279 318 277 225 175 153 139 139 133 139 139 139 169 155 173 155 155 137 127 137 111 125 123 127 
47 61 73 77 89 81 71 85 73 83 91 93 99 89 107 111 111 143 306 414 490 494 499 482 495 497 505 445 401 363 369 354 357 346 352 399 445 437 443 416 426 418 402 334 320 334 385 391 399 437 414 306 253 237 251 279 296 310 314 318 296 283 241 247 223 201 195 179 179 165 173 183 171 165 147 133 145 153 119 143 
43 65 71 51 75 83 67 85 75 85 75 99 87 89 99 101 115 195 359 428 490 447 435 468 480 490 503 439 401 401 414 426 395 348 350 373 445 455 457 441 463 433 377 326 296 302 332 379 410 430 416 294 283 249 257 292 316 346 361 369 367 340 344 342 318 326 310 292 279 249 233 235 217 219 181 187 173 169 149 149 
49 77 65 57 79 77 71 79 75 83 71 99 87 93 87 95 121 225 412 402 482 443 424 459 459 435 435 369 401 437 463 439 426 357 371 395 461 486 492 482 459 424 357 298 257 261 300 359 389 402 375 289 287 269 291 314 324 340 355 369 377 371 367 355 357 350 342 316 304 292 296 304 291 277 265 257 253 243 215 229 
39 85 79 57 61 93 67 75 75 83 93 91 95 85 93 83 113 209 416 445 445 480 478 484 449 304 227 259 352 412 441 408 402 377 420 468 497 523 515 476 437 401 346 300 271 265 243 261 253 251 306 302 316 326 338 328 322 334 338 346 357 348 363 342 342 357 355 320 314 283 261 275 289 273 283 259 263 265 237 245 
45 71 75 57 89 79 83 73 71 77 87 75 79 79 83 89 101 157 304 424 410 490 464 430 285 143 127 169 322 402 424 402 371 443 488 503 490 488 474 457 420 401 357 324 304 291 263 247 229 237 287 320 334 346 354 312 326 334 320 324 332 348 338 332 326 350 332 312 304 259 241 253 273 265 253 245 257 253 253 259 
57 65 69 63 79 83 73 71 85 89 77 85 89 81 89 85 91 111 203 289 373 391 316 163 123 111 129 173 334 426 439 404 361 459 484 470 470 424 363 336 291 350 346 322 306 281 277 255 245 257 287 320 334 332 322 320 352 336 314 308 316 294 302 294 291 304 287 287 285 247 231 255 251 247 233 239 235 241 255 239 
57 71 87 59 87 69 77 59 65 79 87 85 93 85 91 89 97 85 101 135 173 169 119 113 119 111 117 175 342 433 437 393 344 424 453 432 406 328 318 294 275 265 257 243 211 219 219 223 231 239 237 279 294 277 265 310 334 324 283 271 243 225 207 219 203 209 217 231 209 201 201 233 223 205 191 171 177 185 185 193 
53 59 61 49 75 69 77 71 71 77 71 91 89 89 95 91 93 99 91 99 99 107 105 109 123 113 123 147 233 369 402 361 340 369 383 381 385 324 312 296 318 275 253 227 195 195 201 215 207 219 201 187 189 155 155 167 205 181 149 151 157 147 143 175 155 165 173 183 201 189 177 181 167 167 155 147 151 155 159 163 
57 83 73 73 71 73 79 79 85 83 89 99 91 95 115 93 93 95 101 91 87 117 115 107 119 105 117 117 149 171 197 217 225 291 322 344 326 291 287 285 275 251 225 195 173 189 197 193 211 209 187 175 167 157 141 133 125 139 123 133 135 137 139 161 171 159 167 165 173 175 175 173 165 175 145 145 163 177 163 175 
41 75 69 75 87 75 73 85 85 81 85 91 89 89 97 101 89 103 99 101 89 111 109 103 111 125 103 111 115 125 139 147 177 207 235 253 245 233 231 207 191 183 163 159 171 181 203 189 193 209 189 183 163 145 135 121 129 119 123 109 127 137 133 139 147 153 163 157 181 181 171 177 197 237 223 235 235 245 233 257 
51 89 87 87 85 83 67 87 79 77 79 85 95 103 87 105 101 103 87 87 93 103 123 119 111 113 103 113 121 123 137 143 163 181 189 219 243 251 243 201 193 193 163 173 167 179 191 191 199 207 199 175 169 149 143 129 111 123 115 127 139 139 147 153 141 151 161 151 183 203 231 241 249 267 267 273 279 279 285 283 
47 81 69 69 85 65 81 79 79 81 79 73 101 89 95 93 85 91 87 99 97 97 103 111 111 95 111 109 113 133 131 137 157 189 235 285 298 277 316 330 355 352 332 320 255 193 181 191 193 205 185 173 171 155 131 137 145 139 149 167 195 197 165 157 151 155 159 141 181 237 251 235 225 249 261 277 277 292 277 271 
45 73 81 85 77 73 85 79 79 77 85 89 87 89 105 101 97 107 91 85 93 113 97 109 109 113 99 105 127 131 137 153 211 273 289 302 324 328 322 328 377 363 355 369 355 332 229 187 181 199 191 171 191 157 169 189 197 217 229 267 261 263 199 183 173 165 177 167 187 243 231 223 231 241 273 257 259 267 259 235 
49 73 79 65 87 81 59 71 75 85 83 95 91 95 93 93 89 103 89 91 95 109 113 93 101 105 103 103 117 135 153 189 300 304 308 330 354 322 308 314 348 340 361 355 379 387 340 229 201 245 227 221 215 197 207 223 243 257 277 279 271 269 231 203 185 173 195 175 203 223 227 219 225 243 241 247 221 215 191 177 
49 77 85 87 85 91 79 91 93 91 77 99 93 97 89 93 97 93 87 83 79 105 107 109 109 95 103 109 117 129 169 275 292 283 247 255 269 316 300 271 330 310 296 298 336 367 354 330 283 302 273 237 213 205 225 231 245 265 279 292 275 263 221 213 201 197 189 185 201 211 207 223 223 213 195 185 181 169 157 161 
55 73 75 73 77 79 89 69 81 87 87 97 93 93 93 93 95 89 83 85 97 97 109 91 95 99 101 115 121 133 227 328 285 253 211 217 237 231 231 221 195 179 197 223 287 338 340 344 328 314 283 235 199 205 205 207 229 261 269 285 259 219 221 213 221 209 213 167 191 187 189 199 187 161 161 155 151 155 145 157 
49 71 89 63 63 75 77 73 79 83 85 87 89 85 101 93 89 99 85 79 93 87 91 99 105 101 95 111 123 137 263 316 304 263 229 263 255 201 125 71 81 127 147 135 211 302 324 336 328 330 298 241 235 187 193 201 209 227 243 243 211 197 203 209 211 213 195 163 181 183 179 179 161 165 153 133 117 139 139 133 
47 73 79 69 75 67 75 77 81 73 73 81 81 93 99 83 75 93 81 77 89 95 101 87 95 93 79 99 103 135 257 312 306 312 328 381 279 195 91 41 69 113 135 131 153 219 243 287 318 342 357 318 294 225 195 195 211 215 199 203 207 183 211 209 213 197 183 173 187 201 175 187 155 143 133 123 121 127 117 127 
45 75 69 65 69 77 69 73 69 85 91 93 85 83 93 93 91 83 79 81 83 103 109 89 111 113 85 111 115 149 291 292 306 334 365 401 296 183 87 45 83 107 121 123 151 173 219 219 257 326 401 383 397 348 239 215 221 223 197 213 223 205 205 201 195 187 179 185 187 197 191 161 159 129 123 119 117 123 131 117 
43 71 75 75 73 67 69 71 85 75 93 81 77 75 81 79 81 89 83 71 95 153 201 203 245 310 243 171 141 193 310 283 304 312 324 340 257 153 57 35 73 105 141 133 147 145 161 173 215 294 393 401 401 404 310 239 255 233 205 185 221 223 199 181 173 165 157 167 195 185 175 181 155 129 103 113 123 117 111 111 
53 63 71 75 85 75 63 67 81 87 85 79 95 83 83 89 91 77 75 93 153 245 275 285 385 455 435 395 375 355 336 279 294 328 263 229 171 105 37 26 81 101 151 139 151 131 123 153 211 233 342 381 424 414 350 322 285 237 207 197 213 211 205 161 159 153 143 169 193 173 175 159 151 125 105 107 99 121 111 105 
45 65 59 71 73 67 69 79 89 71 85 87 87 81 91 93 81 93 89 109 213 302 314 363 470 466 472 461 395 408 359 285 306 328 269 221 149 89 18 39 79 113 135 133 149 123 121 147 191 209 237 352 410 412 399 383 318 243 225 205 211 213 233 221 215 169 171 159 171 179 163 161 149 123 111 107 101 119 111 125 
43 77 75 77 77 67 67 87 65 89 83 99 87 97 91 97 87 93 107 117 251 363 359 453 478 457 461 468 401 414 369 314 334 344 281 215 169 103 51 47 91 99 129 127 141 105 133 117 195 191 213 296 432 416 430 414 336 257 207 199 207 219 249 231 251 213 221 213 213 203 189 177 151 155 119 117 119 131 111 131 
51 81 75 71 79 83 91 79 81 89 93 91 103 91 93 107 93 93 107 129 257 340 401 453 472 441 441 457 393 401 367 332 336 359 287 249 199 179 143 67 85 97 135 121 139 65 109 133 191 203 203 306 424 416 433 424 334 233 197 191 183 199 225 229 239 221 245 259 259 241 233 197 187 181 147 155 139 145 131 141 
37 67 73 71 75 73 73 69 71 69 89 99 101 97 97 101 95 89 101 109 241 352 414 445 461 459 455 437 367 359 332 365 314 336 271 283 263 247 197 143 131 87 115 131 113 55 113 159 211 229 223 348 420 414 432 416 306 197 201 187 191 189 181 215 217 229 245 277 275 289 271 237 223 243 227 245 217 211 193 177 
45 67 75 75 73 85 71 65 81 99 85 91 97 91 97 97 101 91 101 97 181 285 316 318 391 424 428 346 221 167 227 318 322 312 277 298 265 275 247 197 159 77 113 115 131 111 163 187 245 273 277 346 397 416 379 316 239 201 197 207 185 183 193 197 219 221 257 249 263 277 298 259 251 239 235 269 292 291 279 265 
41 69 79 69 79 85 79 67 91 89 83 99 107 83 95 111 83 87 85 85 109 159 181 171 171 193 169 135 123 117 167 257 306 289 259 294 275 273 267 221 175 107 147 163 167 183 249 281 292 334 318 328 350 259 245 203 215 205 185 203 205 187 191 177 211 219 243 233 247 261 267 273 263 241 249 257 296 289 304 306 
55 71 81 79 75 71 77 71 93 81 83 89 83 105 105 99 103 95 101 93 97 111 93 101 113 113 111 111 111 127 149 201 312 294 255 245 205 235 243 249 231 229 265 253 265 292 312 316 324 350 320 275 205 173 187 197 215 219 187 213 199 197 173 167 179 201 195 209 227 235 257 277 257 259 249 269 289 308 296 302 
43 77 61 63 71 73 77 75 77 91 89 97 93 99 91 99 93 89 89 81 105 117 107 107 107 119 87 111 105 117 137 149 249 302 231 193 143 205 233 225 271 344 328 342 330 340 348 344 350 326 225 179 183 173 165 173 177 183 179 199 205 169 161 167 151 155 173 167 181 197 209 219 215 235 257 245 265 257 265 263 
45 83 79 87 69 91 75 69 81 89 79 87 77 83 99 101 89 87 93 91 99 99 103 91 95 103 101 107 107 113 133 169 253 314 287 231 193 215 215 219 259 363 346 350 336 350 357 338 306 209 169 153 149 149 155 135 135 137 131 173 181 155 145 133 127 131 137 135 163 177 179 167 167 169 175 187 195 201 205 187 
39 83 77 65 61 91 75 77 89 101 89 93 81 87 91 95 95 83 87 87 91 103 95 99 95 111 93 105 121 159 239 289 326 344 344 308 314 304 275 287 326 385 373 354 316 310 271 199 169 153 147 139 131 135 147 137 121 109 105 119 133 119 119 127 123 135 131 141 153 159 147 155 143 147 153 155 171 165 173 173 
41 79 65 67 75 63 69 69 85 87 83 89 83 91 101 103 83 91 97 85 87 105 97 91 91 105 97 111 131 287 365 312 320 342 342 357 342 355 344 354 410 391 373 346 310 292 255 227 201 177 159 131 141 123 117 117 109 103 85 113 95 97 115 117 113 123 139 135 153 145 141 141 119 135 135 147 161 173 153 153 
45 79 73 65 79 85 77 69 79 91 81 93 87 87 91 109 77 99 111 83 89 103 103 103 97 103 89 127 235 361 359 330 332 340 344 375 342 330 338 361 410 397 387 387 365 371 363 336 338 350 283 241 215 175 131 123 117 115 105 129 99 101 109 99 107 115 119 127 153 145 147 127 129 131 123 137 155 157 143 155 
49 69 65 91 69 73 87 63 83 87 93 101 105 85 83 99 99 163 211 203 179 145 121 99 95 97 111 207 324 355 357 344 318 302 308 363 340 332 354 395 430 428 408 406 375 383 369 383 373 365 355 322 312 300 273 269 261 251 259 300 215 155 145 133 113 115 131 133 153 143 147 129 117 129 131 143 147 143 135 159 
45 75 79 99 81 89 73 71 83 89 87 89 103 99 87 111 199 357 404 401 414 395 320 143 97 113 157 281 314 330 320 294 277 271 271 285 300 289 322 355 401 399 399 401 383 359 350 369 371 383 352 334 308 283 306 306 312 312 330 338 326 233 153 135 129 125 127 123 137 137 141 129 117 127 137 121 161 149 147 171 
57 95 79 73 87 89 79 73 83 89 91 91 99 97 111 211 357 399 447 478 482 499 484 365 231 189 273 324 336 310 306 269 269 275 275 289 255 193 211 231 271 298 312 324 291 308 291 298 312 283 269 271 275 265 255 291 332 340 326 363 367 281 179 141 143 139 117 135 169 143 147 147 153 141 145 135 147 141 155 173 
41 73 79 79 85 91 95 81 83 89 87 93 109 111 125 241 383 418 505 470 463 494 505 486 437 391 393 342 348 302 302 271 261 283 281 227 181 147 161 171 231 235 275 269 271 287 271 267 247 255 255 243 239 223 223 245 269 277 287 328 314 263 179 147 131 123 103 137 181 181 205 231 251 267 281 259 239 207 171 171 
39 73 73 61 81 85 65 75 79 93 91 99 95 115 135 257 361 437 480 463 404 428 447 451 443 424 406 352 328 298 275 253 243 267 219 165 123 109 139 177 207 227 247 255 265 283 253 269 241 253 241 241 239 217 225 205 217 231 241 249 249 233 183 163 151 131 117 157 193 197 225 275 306 304 340 334 320 300 277 265 
53 71 75 75 69 75 83 79 93 79 97 95 101 101 111 183 308 416 494 445 373 401 385 401 422 422 383 332 320 294 289 257 237 203 179 97 75 105 153 171 207 235 245 257 233 253 243 225 235 263 237 241 219 215 209 203 217 219 205 215 203 197 191 161 149 115 113 141 149 157 223 257 277 310 330 346 326 336 304 304 
51 73 83 75 85 77 91 85 83 87 91 105 93 107 109 119 181 306 453 424 412 428 397 387 401 395 369 316 326 302 281 239 203 189 145 65 61 115 187 199 241 235 253 253 241 251 241 205 213 229 213 229 233 211 227 221 243 217 215 213 187 207 181 191 167 155 127 127 153 157 201 235 267 292 320 340 324 340 318 291 
53 85 83 69 77 71 81 77 87 95 85 85 99 97 95 113 117 153 201 289 346 389 365 334 352 359 308 310 320 306 283 203 193 165 115 49 67 123 187 217 229 237 229 245 231 227 211 201 187 209 201 193 215 211 225 221 245 221 211 211 211 205 201 181 167 181 159 131 149 171 187 207 235 263 316 318 310 314 308 285 
45 67 79 61 91 93 83 77 77 85 73 89 101 79 93 95 99 119 125 139 127 183 157 181 245 314 279 279 306 294 296 235 201 155 91 55 57 133 197 209 231 227 227 229 235 229 217 201 177 209 181 197 193 187 213 223 211 217 209 193 205 215 217 205 185 211 211 183 181 159 173 185 201 227 249 251 257 259 233 233 
39 69 79 63 79 91 79 81 75 81 107 107 113 93 111 101 105 89 113 101 101 105 135 107 179 263 281 277 283 291 261 221 203 139 55 20 28 59 179 201 215 199 199 229 215 223 203 193 177 213 187 193 209 213 205 203 201 203 181 199 197 185 205 187 177 171 181 169 171 151 155 133 135 141 147 149 159 157 151 173 
57 75 81 79 67 83 61 77 69 93 85 93 89 97 107 93 101 95 99 95 93 99 105 97 141 275 281 279 257 229 257 207 181 113 26 0 24 55 157 183 189 179 173 177 197 211 203 195 179 217 205 215 225 245 223 221 199 191 187 203 167 165 163 145 143 141 133 131 139 135 137 135 119 129 129 145 143 137 149 163 
39 75 71 67 85 79 67 81 81 85 85 89 91 95 91 101 87 105 71 71 81 113 99 95 141 257 306 263 231 223 215 215 191 115 10 0 16 83 141 179 169 165 149 161 149 175 193 165 163 203 211 215 241 263 249 229 229 203 193 215 179 185 205 213 183 173 167 147 165 145 127 127 129 127 131 135 127 127 147 153 
30 67 53 47 63 55 61 65 77 73 75 97 91 97 91 91 93 89 79 71 79 89 85 71 161 249 300 251 245 203 213 215 211 97 32 14 37 83 147 187 189 175 159 177 155 173 171 171 167 187 201 207 213 225 217 203 199 183 157 171 171 195 197 211 207 205 213 193 171 159 153 149 151 167 175 169 147 145 145 157 
41 57 73 49 65 55 61 61 65 81 69 93 89 79 79 83 77 75 95 61 59 81 75 69 147 233 275 271 245 231 229 207 219 177 49 65 69 103 177 183 183 185 169 189 161 173 169 161 157 171 189 181 185 183 185 183 173 165 169 167 191 191 193 189 177 191 205 175 163 151 153 177 213 217 237 259 263 241 217 209 
28 53 57 75 61 65 53 49 57 65 79 81 75 75 101 93 81 69 85 49 71 69 53 55 113 227 259 251 245 251 253 235 231 191 107 135 149 161 177 191 203 197 187 183 167 173 167 163 159 173 159 169 163 167 165 179 163 171 163 175 187 175 181 181 169 161 177 135 119 113 127 163 203 251 271 289 298 314 308 285 
16 51 41 41 67 55 47 39 57 51 61 59 73 73 89 89 61 67 75 53 65 67 63 57 79 125 221 255 231 261 269 275 253 207 165 135 153 141 157 167 177 193 195 177 169 173 173 167 171 171 167 157 155 183 175 169 185 179 165 159 181 155 171 165 141 151 145 83 89 73 137 177 197 255 283 292 306 330 312 302 
16 57 51 43 53 63 41 55 47 67 45 63 81 69 81 79 67 63 63 49 49 93 51 63 73 65 129 231 233 269 285 287 257 219 157 83 73 55 47 65 91 111 131 145 153 171 169 167 175 191 179 169 195 211 217 195 203 185 173 185 173 175 157 169 155 153 145 85 81 73 149 183 233 273 294 296 304 314 308 318 


