P2
80 60
500
26 34 34 22 22 32 20 34 50 50 54 44 44 42 52 59 59 50 54 61 48 38 57 61 97 231 340 332 314 293 257 346 391 401 358 334 326 330 421 426 377 273 263 251 247 257 245 195 201 225 237 263 253 225 213 203 209 211 211 197 207 225 239 247 243 243 221 221 217 215 205 215 223 209 219 229 219 231 237 219 
20 18 30 28 20 16 40 42 44 52 57 52 32 46 57 61 67 42 44 46 50 44 38 71 159 314 326 309 259 237 267 385 383 377 376 340 318 309 366 407 364 295 293 265 275 281 253 207 219 257 237 297 251 235 217 197 199 201 213 205 215 215 233 227 229 245 233 213 199 189 169 187 199 207 211 223 189 195 211 217 
20 26 32 36 38 30 26 46 42 67 52 46 48 46 52 57 52 46 48 48 44 61 46 69 227 326 334 305 257 273 340 354 326 336 352 342 342 316 342 387 370 336 322 273 275 285 251 213 221 281 261 269 255 247 229 207 217 195 203 223 239 243 247 255 265 251 247 217 215 159 137 177 191 179 173 153 123 145 161 155 
4 22 20 34 38 30 40 59 42 44 44 54 44 59 54 46 48 48 52 57 54 52 67 83 221 352 326 316 295 291 297 324 305 334 364 342 316 299 340 368 362 368 379 301 277 263 235 221 233 273 265 253 251 227 231 213 217 215 231 231 243 253 251 263 267 247 223 215 181 163 159 133 143 119 121 99 111 125 119 121 
10 18 22 34 24 34 30 54 40 63 40 38 57 48 48 52 59 69 59 54 61 61 52 77 143 350 358 332 313 328 328 332 291 289 309 305 307 316 328 368 385 413 417 376 291 255 229 225 239 263 271 269 273 241 225 215 225 221 229 233 251 249 259 265 251 239 193 171 147 155 153 141 141 139 159 157 155 165 175 185 
14 10 38 40 36 20 44 32 44 57 52 59 42 54 63 73 63 67 71 71 69 65 59 101 163 336 385 395 374 346 362 370 259 271 305 309 332 320 336 350 399 436 446 413 352 275 227 213 243 275 265 287 261 271 261 243 261 269 245 253 261 279 287 279 255 245 219 217 219 225 243 253 233 223 223 225 209 213 211 187 
20 28 38 42 30 36 34 50 59 59 44 65 71 52 75 73 75 95 87 113 125 125 129 135 211 263 381 387 391 379 379 358 273 273 318 330 338 330 328 334 387 409 421 415 407 368 261 215 261 295 263 263 255 257 267 259 269 275 263 295 307 328 318 334 340 350 313 293 281 265 249 251 241 245 235 229 219 225 217 209 
30 22 34 36 44 30 50 46 36 73 44 59 75 69 67 73 81 125 173 267 358 368 326 307 383 356 370 391 387 381 364 346 271 281 303 314 352 338 336 322 368 383 393 405 397 366 261 223 299 295 273 257 241 235 229 253 267 283 301 307 314 330 346 338 338 336 311 295 267 247 235 237 249 245 229 217 203 215 213 191 
24 28 50 46 44 38 52 48 46 57 65 54 77 65 75 85 141 237 340 409 479 475 442 440 467 457 356 356 356 364 342 309 267 261 293 320 360 332 342 311 324 314 330 383 391 350 229 205 263 301 261 229 221 219 225 247 263 303 332 340 350 350 354 348 342 332 293 271 253 231 207 219 227 215 217 181 193 169 149 159 
40 34 34 40 32 42 59 52 46 59 57 67 73 63 93 99 183 316 407 471 486 488 438 461 467 469 423 305 314 289 273 251 243 259 289 295 338 332 332 301 301 303 311 322 354 309 213 205 263 295 255 235 225 229 239 255 273 320 336 344 346 346 328 336 334 318 277 259 223 191 193 189 193 177 155 145 119 105 107 129 
18 26 40 61 34 38 46 54 40 59 46 57 67 65 85 99 257 372 407 454 434 417 419 430 454 461 455 387 326 297 269 261 261 257 289 269 324 324 334 328 316 313 372 301 311 213 181 183 273 299 259 247 257 257 267 257 301 320 320 342 326 305 311 336 303 281 243 207 169 153 145 145 135 115 123 111 103 101 103 117 
28 26 42 38 42 50 40 54 38 52 50 69 57 61 79 111 281 405 383 446 405 366 415 413 393 366 342 342 372 372 358 340 309 275 301 291 316 314 354 403 421 426 465 411 374 257 191 183 225 267 261 271 277 277 253 265 267 277 287 305 279 259 263 261 239 199 179 167 135 129 117 125 119 117 119 101 119 101 95 117 
34 32 28 34 34 32 44 50 44 44 40 61 65 59 57 99 239 393 409 438 454 377 403 395 247 139 177 307 368 397 399 391 358 301 305 295 303 303 366 409 413 421 424 411 322 265 223 189 189 221 265 281 297 277 273 247 223 241 237 239 223 205 175 167 147 137 127 139 123 129 115 111 115 101 111 109 99 113 91 91 
26 34 28 40 34 42 42 44 36 57 57 48 50 50 59 65 127 253 385 377 407 391 338 231 97 79 99 205 336 385 393 397 381 330 299 291 285 305 326 381 426 409 368 275 219 183 165 185 189 179 247 283 279 263 229 213 189 175 157 139 135 131 137 123 125 139 143 139 133 129 103 107 119 101 105 85 103 101 99 99 
28 20 26 32 48 44 44 50 36 50 46 46 59 38 44 59 69 113 197 239 203 129 97 83 69 75 87 115 295 352 334 309 267 269 303 314 316 326 383 407 409 313 241 213 189 177 179 171 163 165 163 183 159 147 141 125 119 121 115 121 129 125 129 133 131 139 123 133 131 129 117 117 117 101 101 99 109 103 93 101 
32 28 32 40 26 52 48 28 34 63 59 50 63 65 54 48 67 71 83 93 79 67 65 77 79 75 81 95 171 311 269 255 175 185 235 301 391 438 440 409 391 336 259 195 191 203 199 193 187 167 155 155 133 121 117 109 117 117 131 117 123 131 137 137 133 147 141 149 141 135 121 127 117 109 111 95 101 99 103 95 
32 28 42 40 30 14 46 40 36 50 63 50 57 57 59 59 65 57 69 63 67 63 69 77 91 89 89 91 115 143 227 269 225 219 267 303 385 434 440 389 377 348 255 203 195 207 221 195 181 157 151 153 147 123 121 115 113 115 127 131 123 135 133 137 141 145 137 141 133 119 117 123 125 115 107 91 105 103 107 97 
34 26 24 24 30 26 42 34 46 61 40 54 65 59 67 63 69 61 71 81 77 69 71 71 93 95 93 95 107 105 125 143 177 229 255 277 360 423 428 411 409 403 295 203 197 215 213 209 199 165 157 143 155 125 127 109 129 123 121 123 129 143 131 149 133 141 135 143 141 139 117 117 115 113 105 111 111 121 109 121 
32 42 40 38 36 42 61 61 48 63 65 65 59 63 75 73 61 59 81 77 67 85 85 83 93 85 97 99 105 97 91 115 141 171 221 221 255 279 313 354 370 326 231 197 185 207 199 205 197 173 155 149 141 139 127 125 129 121 115 125 121 143 125 157 155 149 149 137 135 131 133 129 123 123 119 121 119 125 123 119 
34 50 34 59 52 40 42 61 44 50 69 61 61 57 71 75 63 75 71 85 77 75 83 85 91 91 81 97 99 93 87 115 127 177 251 257 271 320 401 401 366 316 245 195 185 199 201 199 189 169 157 161 149 137 121 117 125 125 127 125 123 137 127 137 139 147 147 139 139 137 125 131 129 145 133 131 133 139 131 133 
28 42 44 48 34 46 38 44 46 52 61 54 65 79 54 73 63 71 59 65 69 83 85 93 89 85 89 99 97 89 95 121 193 279 330 320 320 366 419 424 428 428 372 213 167 187 205 195 191 163 169 145 147 163 151 151 163 159 167 165 183 171 149 149 137 141 153 139 153 133 141 157 167 191 215 205 197 183 169 161 
32 46 46 40 46 28 48 48 50 57 50 48 63 67 57 63 50 65 73 77 73 77 69 85 93 71 93 93 95 99 121 195 273 326 342 338 344 352 393 409 434 452 415 223 129 163 169 167 175 141 143 137 159 155 183 185 207 195 211 217 217 193 153 139 153 153 169 153 185 197 215 215 231 279 287 287 261 273 259 267 
36 34 46 59 46 42 46 50 54 54 52 61 69 67 67 71 71 85 67 59 81 79 63 95 97 87 75 95 103 103 115 251 281 318 342 336 346 350 403 421 448 440 428 219 123 147 155 125 147 145 151 133 153 147 169 191 209 207 211 209 189 193 155 163 163 173 171 167 193 229 219 231 211 243 265 265 247 261 245 253 
38 38 54 36 46 44 48 46 52 59 57 59 65 69 57 65 63 77 73 81 83 71 83 85 95 107 93 101 107 105 159 239 219 257 285 330 350 342 413 415 455 455 436 235 117 149 167 143 139 149 145 119 147 149 163 165 197 185 179 181 175 163 159 177 179 167 187 173 207 231 223 203 195 219 229 271 247 261 241 251 
36 36 63 57 44 52 52 59 52 59 63 59 69 77 67 59 71 61 67 77 79 105 123 155 191 231 215 157 115 113 149 181 177 223 291 362 338 342 399 409 465 457 436 257 113 175 191 155 149 147 131 111 139 137 159 165 167 153 133 149 149 163 171 179 189 181 181 183 215 253 209 193 215 225 249 255 243 255 221 205 
44 36 40 46 44 36 57 46 63 67 67 57 67 65 67 57 69 69 63 81 137 215 277 370 428 411 423 356 215 157 195 219 197 233 253 322 293 344 368 395 455 465 446 265 151 173 189 157 161 147 115 99 137 155 167 143 137 149 113 103 133 159 169 171 185 175 191 179 205 239 195 185 189 189 191 199 165 171 157 159 
28 38 52 40 34 46 57 48 46 57 48 61 65 73 63 63 63 71 69 91 171 301 389 473 475 403 419 395 383 370 338 225 237 215 145 165 195 326 340 376 442 444 423 243 147 191 203 171 173 167 121 105 149 177 179 175 147 145 131 91 125 143 167 165 175 173 171 167 181 181 165 169 155 149 135 123 121 131 129 133 
30 42 44 38 40 32 44 48 59 52 61 52 54 69 61 48 54 59 63 93 207 334 352 461 477 473 490 448 426 419 381 251 249 243 137 119 133 303 350 377 409 419 399 195 139 205 239 201 199 201 147 111 149 183 199 211 205 157 139 97 131 169 187 175 187 183 173 153 169 171 153 159 147 127 131 103 111 127 131 121 
36 34 48 44 34 40 42 57 50 59 54 59 52 61 48 73 54 65 67 111 215 314 311 411 483 486 473 455 423 423 385 249 257 243 147 115 87 241 360 364 405 399 346 167 151 201 253 207 223 231 173 129 147 185 193 213 217 191 153 141 195 245 239 217 211 187 175 171 157 177 163 141 141 129 121 113 109 125 113 111 
28 36 52 65 50 38 34 48 59 54 50 46 46 54 52 48 63 59 63 87 189 241 249 309 423 438 444 455 444 436 350 237 267 239 165 115 81 217 358 385 387 381 297 149 159 191 219 197 195 233 193 165 149 171 197 221 215 189 183 185 219 227 199 199 197 191 175 159 227 221 189 175 167 175 179 193 189 185 153 157 
30 28 54 48 42 44 42 44 54 57 50 52 69 59 50 63 61 63 61 83 131 211 257 279 348 424 423 419 401 364 320 229 237 197 141 77 83 221 372 399 385 358 233 171 161 201 191 189 211 229 231 159 157 175 203 199 211 195 179 195 213 197 213 201 197 209 197 201 257 275 239 221 225 217 217 245 243 271 245 237 
40 42 42 46 46 30 48 67 59 59 65 48 67 65 59 69 52 61 57 75 79 115 193 253 356 332 267 211 155 147 197 201 177 173 191 169 163 247 391 399 393 370 231 177 159 197 179 195 221 211 225 165 145 195 185 183 207 211 203 195 185 183 211 203 195 197 193 185 201 269 245 233 225 211 223 239 255 283 277 293 
30 40 28 50 34 38 42 52 50 65 54 59 54 69 65 73 69 61 77 63 81 83 101 111 123 127 119 107 93 115 161 187 175 205 241 247 279 366 403 417 403 385 279 151 177 181 181 193 217 237 193 173 149 167 189 193 219 205 173 147 145 195 207 169 203 187 181 183 185 245 239 229 225 235 249 257 267 277 271 289 
40 46 44 54 36 50 65 59 59 63 57 57 79 67 57 67 75 59 73 73 69 75 85 71 91 85 93 89 93 101 143 199 157 151 199 313 385 403 423 419 411 405 295 151 187 193 161 157 191 239 173 163 159 159 155 157 161 157 133 119 135 191 177 175 165 163 165 167 175 219 229 233 235 249 261 255 251 247 223 181 
28 40 34 42 32 36 42 57 54 57 54 63 61 67 69 73 71 67 75 71 77 73 73 85 83 87 83 85 93 91 133 219 179 179 273 399 405 405 419 421 419 409 311 139 163 179 155 155 179 233 193 163 159 121 133 131 129 139 131 113 129 143 143 153 157 151 149 131 139 167 173 171 179 189 185 175 145 149 137 127 
20 40 48 61 38 50 46 44 46 71 54 61 67 73 54 67 85 73 71 71 77 79 69 93 91 87 81 81 93 89 115 209 249 267 360 413 401 393 417 409 409 409 305 125 143 149 151 161 175 209 209 173 169 155 131 125 139 115 121 119 119 115 133 137 133 137 139 91 109 141 151 135 131 121 109 111 115 115 97 113 
24 30 44 46 28 36 50 52 63 67 57 61 71 65 57 87 67 71 69 71 77 65 83 85 79 85 81 97 97 85 107 165 231 289 344 389 385 385 423 393 409 368 245 125 113 113 115 131 141 141 153 171 175 153 135 123 131 115 111 141 149 137 129 133 143 135 125 105 117 145 125 135 117 113 109 101 101 99 103 99 
42 38 46 63 34 32 50 46 61 57 59 54 52 71 73 71 81 77 75 85 77 75 65 89 91 91 117 145 191 189 189 201 201 209 239 279 303 374 399 383 344 223 161 125 113 113 119 125 131 111 123 131 139 139 131 135 127 133 121 141 137 143 127 129 137 139 121 145 129 133 141 131 131 115 105 103 91 107 97 111 
32 42 48 40 34 44 63 54 50 67 61 57 65 81 57 81 75 71 83 75 91 95 81 95 99 105 153 291 318 301 281 295 295 285 237 179 193 245 247 201 157 123 135 123 103 99 105 121 115 121 121 115 127 137 125 133 117 111 119 111 119 107 121 143 131 137 131 137 127 131 127 113 117 113 105 113 115 111 133 131 
32 50 59 48 34 52 44 46 57 63 52 59 59 63 77 69 75 69 89 91 79 79 85 91 97 119 217 305 344 316 328 348 320 313 245 163 135 127 129 129 105 113 131 113 109 105 111 105 127 119 125 127 145 133 129 129 125 123 101 125 117 109 135 123 133 123 123 125 123 143 133 125 117 115 123 137 145 145 141 153 
32 54 54 42 24 52 59 59 54 73 46 67 63 65 65 63 89 95 137 159 111 89 89 97 91 115 207 328 350 362 362 356 322 303 259 195 175 177 173 187 185 181 195 183 169 153 145 145 139 129 139 149 149 161 143 147 139 135 113 117 117 123 119 127 129 141 115 133 129 143 163 179 185 193 195 181 177 175 159 173 
30 48 44 40 46 38 40 48 52 59 50 57 61 67 69 85 125 219 346 348 301 217 131 111 97 119 213 305 346 360 383 372 314 305 281 229 241 263 269 253 227 199 243 213 189 171 173 149 165 149 151 159 165 171 153 147 149 135 119 115 103 105 97 125 123 123 153 155 161 195 223 247 259 291 279 289 271 267 247 201 
48 67 48 34 50 50 54 57 50 61 46 57 48 71 63 121 239 383 423 438 450 438 370 231 113 119 239 257 287 342 358 383 324 316 322 287 281 275 269 237 221 193 237 221 189 179 177 169 181 161 147 155 161 167 151 137 137 133 121 115 91 95 91 91 101 117 143 139 127 183 239 229 265 299 311 301 299 285 265 223 
32 38 46 63 44 48 52 48 48 63 63 63 65 65 50 121 316 409 448 500 500 471 473 430 249 179 279 257 265 309 350 381 336 330 334 313 283 273 265 229 221 215 239 211 179 181 181 201 201 165 145 139 139 163 155 141 143 127 129 123 109 103 93 109 93 89 111 133 123 145 201 211 259 295 309 309 305 289 257 227 
34 34 42 73 48 52 54 57 65 65 57 46 63 73 69 113 281 395 465 486 469 459 471 483 450 366 316 287 281 281 293 366 352 340 342 309 291 273 263 259 225 219 233 205 179 173 183 213 209 183 167 155 145 161 169 143 145 151 141 127 117 133 97 99 91 89 123 113 127 137 179 211 259 295 314 289 285 259 229 201 
44 52 44 61 52 54 48 44 52 57 57 63 77 57 71 101 229 379 454 485 454 417 430 457 471 413 328 285 257 223 229 364 377 358 332 320 299 269 257 241 235 223 225 195 169 171 173 191 207 185 175 167 165 167 147 153 151 153 141 139 143 143 133 107 101 115 171 161 155 161 185 205 249 233 233 195 187 183 173 189 
26 34 42 50 46 59 59 50 59 61 48 57 71 61 69 69 139 285 440 454 428 415 409 438 455 409 316 251 217 159 147 316 379 360 352 322 295 257 271 251 239 229 231 213 169 165 171 177 181 187 193 179 181 195 177 169 173 165 155 123 141 137 129 117 103 119 173 163 159 141 147 141 141 145 137 143 143 147 133 153 
32 40 46 38 42 48 46 63 54 59 67 61 61 87 75 81 111 137 255 403 419 413 407 419 421 360 265 217 181 145 117 217 348 362 354 320 299 265 263 257 251 241 231 203 173 167 167 163 157 159 165 183 195 185 203 177 183 175 171 141 133 131 123 111 109 135 149 157 143 137 105 121 117 105 119 123 125 121 133 159 
30 44 42 54 42 40 48 48 61 61 67 54 65 79 73 73 77 115 285 376 387 372 295 251 293 313 247 181 177 139 125 133 336 344 364 332 309 263 281 253 235 231 239 209 179 173 173 167 167 169 171 185 193 211 189 175 187 187 177 139 133 143 131 127 135 135 145 147 139 133 121 113 101 91 115 115 113 117 119 123 
40 44 40 69 44 38 69 63 54 67 65 71 54 79 69 67 81 119 251 352 332 340 219 137 119 193 247 195 177 141 95 101 297 346 370 338 320 271 279 257 249 227 245 205 181 185 177 181 183 177 171 187 209 197 185 171 185 175 157 133 129 139 115 125 119 141 153 145 151 135 129 113 93 103 107 103 103 127 107 101 
34 36 42 46 44 36 59 52 46 63 52 54 59 63 63 65 57 89 193 253 289 283 255 157 105 125 215 185 181 117 42 12 249 340 352 338 293 231 251 263 259 235 227 211 179 187 177 175 191 181 191 197 201 195 171 145 173 167 151 131 137 123 123 113 115 141 131 125 135 117 109 103 95 79 107 103 95 109 93 109 
32 32 46 38 50 63 42 38 44 57 42 52 57 44 61 63 61 65 85 137 159 227 263 251 155 129 205 181 219 157 48 20 169 322 360 336 263 209 223 229 225 223 227 233 205 179 163 169 199 201 197 235 231 181 149 149 145 153 139 137 135 151 125 131 119 121 121 113 113 101 113 97 95 87 95 107 125 127 99 127 
30 30 50 46 52 44 59 61 38 57 65 52 67 69 69 63 65 63 73 79 115 177 255 259 243 205 239 195 231 221 141 109 163 305 360 342 259 189 205 213 213 201 229 241 223 179 159 183 229 229 225 229 193 135 123 123 125 145 131 143 139 125 119 119 117 123 147 137 125 129 127 119 101 119 109 119 125 125 135 141 
32 40 50 57 42 46 40 50 40 67 61 59 52 63 63 52 65 57 67 71 89 113 175 221 245 271 261 245 245 241 229 237 239 285 344 356 299 203 197 199 203 191 211 203 211 183 171 191 231 217 203 189 167 141 123 129 139 135 125 135 127 121 119 97 99 121 151 161 151 161 191 199 197 209 191 183 163 159 165 169 
42 30 32 48 32 44 34 48 46 57 48 44 57 65 46 67 63 65 48 61 63 91 85 201 253 259 305 255 285 271 275 299 277 299 352 366 320 207 207 187 195 197 199 195 171 177 165 177 187 161 157 143 135 149 139 135 143 131 125 129 99 115 95 91 69 117 155 141 145 161 179 205 227 239 251 253 215 193 179 205 
26 32 30 30 28 14 32 48 42 52 46 54 52 75 50 50 54 52 50 50 63 42 65 131 241 289 279 301 287 291 283 303 299 311 352 354 275 209 207 203 211 197 193 205 169 181 167 167 171 145 133 143 131 147 131 117 127 129 123 105 97 93 77 67 65 105 147 119 111 137 175 203 237 241 257 275 261 247 225 211 
16 22 42 28 38 22 38 34 40 50 40 48 54 44 44 54 40 34 69 61 44 44 50 91 149 245 299 320 332 293 295 301 289 328 403 338 135 99 159 141 149 169 197 211 157 189 181 179 163 123 139 137 133 141 145 129 133 135 137 101 93 83 83 73 73 105 111 85 91 129 147 191 239 257 271 289 291 281 239 209 
12 22 28 34 30 36 20 24 22 42 42 32 46 50 57 44 46 32 54 44 34 26 30 48 89 153 261 309 275 291 275 285 273 342 413 338 103 50 75 65 75 81 129 131 147 163 175 169 163 137 131 137 127 119 131 131 129 129 123 99 89 91 91 85 81 73 67 46 69 133 169 187 249 251 267 263 257 245 217 203 
2 16 8 26 28 12 12 16 10 28 18 26 36 46 52 44 32 44 42 36 40 34 18 38 67 89 153 243 265 249 281 215 147 235 356 219 77 24 69 42 46 57 103 89 97 101 127 153 171 157 151 175 141 147 151 145 143 143 123 99 101 91 87 103 89 83 63 52 57 97 163 195 195 203 199 193 175 151 163 181 
0 20 22 18 18 24 24 32 24 42 24 26 48 34 46 44 38 44 38 40 38 38 32 50 71 61 77 137 217 221 151 105 91 121 171 117 69 40 44 38 67 67 111 97 95 97 97 133 139 107 135 141 171 147 145 133 137 125 125 113 105 103 83 109 99 69 46 59 54 63 71 91 125 149 157 159 133 131 167 157 


