P2
80 60
486
58 60 58 64 60 62 64 60 72 90 68 76 86 68 70 62 54 66 60 42 40 54 62 54 60 142 328 307 312 299 287 297 340 318 318 289 295 272 280 278 276 258 244 207 215 209 221 252 334 320 270 254 242 234 213 199 201 193 197 199 205 189 205 197 203 193 189 195 164 160 175 185 175 177 132 140 162 134 136 130 
74 52 54 72 52 58 58 64 46 66 62 88 76 62 52 70 58 66 40 50 48 32 50 40 42 106 318 343 320 309 278 287 324 311 303 287 293 272 276 264 258 260 233 199 209 187 189 185 207 231 256 258 254 240 215 223 223 207 197 207 209 223 225 219 213 207 189 173 168 170 175 191 179 136 138 132 144 136 130 181 
66 54 70 60 70 60 56 62 48 68 68 62 66 50 56 62 62 50 42 48 26 42 52 46 42 96 301 367 351 363 332 338 357 285 268 248 266 256 264 252 264 258 229 181 213 170 173 166 152 179 215 256 268 256 252 225 233 229 203 217 219 225 242 236 244 234 217 205 177 170 213 209 199 179 175 162 166 175 181 189 
70 40 58 58 54 56 66 70 56 60 60 58 62 38 64 56 56 54 50 52 44 46 56 56 62 138 270 369 384 382 367 361 369 280 268 244 262 248 260 264 260 248 219 191 195 173 158 148 134 164 195 227 221 225 233 240 248 229 227 234 227 246 260 270 278 266 276 242 233 221 238 203 211 175 175 177 191 183 177 183 
60 50 64 64 66 68 68 74 56 58 58 64 74 58 64 72 58 68 56 64 66 72 86 88 86 181 268 343 392 390 392 374 345 285 262 254 272 262 260 246 242 231 207 181 187 173 150 148 138 136 171 201 195 211 205 227 238 236 244 258 256 256 287 278 291 285 276 240 227 227 236 223 219 183 187 177 191 185 189 185 
68 46 64 74 58 52 68 68 56 78 78 78 74 78 76 78 70 78 110 142 179 260 248 213 225 371 425 378 355 384 398 380 330 281 272 262 278 278 266 268 246 248 211 191 179 173 158 152 130 132 171 211 195 205 201 217 234 270 270 276 278 285 291 297 283 266 272 250 205 211 199 213 215 181 166 177 158 158 142 116 
36 42 62 52 62 50 60 70 60 56 70 70 72 68 80 72 76 158 217 291 380 444 463 435 405 465 477 454 309 322 312 287 268 246 266 264 266 280 295 285 264 256 217 211 187 173 183 158 138 120 158 189 177 189 217 215 244 280 293 297 293 301 291 289 285 266 240 225 191 171 175 170 173 162 146 126 98 92 62 82 
52 48 50 66 80 78 62 68 62 74 60 72 74 72 72 92 96 203 312 411 469 477 471 475 452 463 486 456 349 303 266 240 252 229 262 244 268 276 305 293 258 262 231 209 201 197 195 166 156 130 152 183 201 213 225 209 260 287 301 314 303 285 297 280 291 268 219 205 162 152 158 144 112 96 72 74 58 48 58 66 
58 52 64 54 64 76 54 64 68 66 68 70 80 82 76 80 136 225 380 396 444 454 436 407 411 405 429 456 380 328 299 301 314 281 266 246 256 260 272 272 264 280 256 234 223 207 201 177 168 140 160 179 217 236 227 219 274 283 280 280 260 262 274 233 215 187 162 162 138 104 102 84 76 72 56 58 70 62 58 68 
60 34 72 80 48 72 66 52 50 76 84 80 86 74 68 100 142 242 411 433 419 419 415 394 419 349 309 324 314 369 388 392 402 347 309 262 280 264 287 293 274 293 283 266 240 223 205 191 171 164 150 177 236 248 236 234 231 227 234 231 234 223 179 150 124 124 120 120 108 94 108 84 86 74 56 78 70 58 58 62 
58 38 54 62 64 56 60 50 56 64 64 68 78 48 72 92 140 209 386 477 419 460 460 446 394 215 126 175 223 324 386 411 400 373 355 278 262 254 258 260 289 303 297 299 260 240 219 213 199 189 168 179 236 240 233 213 215 207 183 150 146 120 90 70 88 76 90 94 92 86 102 82 92 70 54 62 54 74 60 56 
60 48 74 66 60 60 86 54 56 62 68 68 60 68 78 88 106 179 258 398 374 419 398 311 171 104 82 94 126 252 369 369 369 326 322 278 281 301 334 351 371 369 394 355 312 242 221 233 231 227 217 187 205 227 262 283 299 213 106 106 76 56 64 64 74 74 92 108 84 92 90 92 84 72 72 72 70 56 60 58 
62 50 76 64 72 78 52 80 68 56 72 74 78 82 58 74 70 126 171 246 262 175 124 98 70 76 86 70 92 191 367 328 289 234 199 233 299 351 421 429 435 440 442 446 411 413 417 419 374 328 305 270 291 316 363 328 258 234 240 124 68 54 64 58 58 80 92 96 98 82 90 94 92 82 70 62 60 64 60 50 
66 58 72 76 50 60 74 62 72 76 66 74 72 62 60 64 72 72 76 98 78 76 74 74 58 72 78 70 78 118 242 281 280 248 203 246 274 320 404 413 417 423 448 444 405 405 405 415 405 392 373 345 334 355 371 349 330 293 162 80 70 68 72 58 68 86 104 106 108 98 92 90 94 94 64 68 66 52 54 60 
70 52 68 78 70 68 68 48 72 60 64 64 56 64 62 54 64 58 50 50 48 62 74 68 50 70 68 72 74 86 114 152 221 260 283 252 231 266 268 240 256 280 312 340 342 347 334 318 293 276 246 233 213 173 177 219 189 126 64 78 86 68 78 86 88 92 114 104 110 120 108 102 86 76 78 70 74 60 66 72 
72 56 58 54 60 64 66 40 54 68 52 58 66 54 44 66 48 56 58 60 56 46 76 66 54 64 72 74 72 90 94 108 124 158 207 191 189 173 158 154 160 160 168 175 185 173 179 160 164 136 134 132 106 90 86 82 82 66 68 72 78 70 72 80 84 92 102 118 116 96 100 96 86 80 70 64 78 62 68 60 
72 60 64 52 70 60 66 54 70 66 54 68 66 66 78 64 68 58 60 62 52 50 58 70 68 68 82 80 82 74 94 116 124 140 177 177 185 179 191 170 256 307 295 307 246 185 162 164 132 140 132 130 110 86 78 72 66 64 74 78 82 70 86 82 82 86 110 108 116 98 112 90 98 78 64 68 74 74 72 72 
62 62 56 62 62 60 64 58 60 78 54 56 82 60 68 70 70 78 68 70 60 54 70 70 74 84 82 84 84 96 104 102 136 173 219 207 205 197 179 175 236 369 353 376 376 312 191 160 154 142 140 122 122 112 98 82 98 80 80 80 90 78 80 90 84 80 110 114 104 118 112 92 92 80 68 68 82 84 76 98 
66 70 86 64 68 60 60 62 62 70 80 76 72 64 74 84 74 70 74 58 70 52 78 66 76 90 88 78 88 98 108 134 193 231 246 170 122 110 150 183 160 278 330 351 359 367 248 168 170 168 142 173 146 136 148 158 156 146 148 156 126 120 94 96 86 92 88 92 86 120 100 90 86 78 68 84 92 92 94 102 
64 50 60 54 62 56 64 66 60 70 74 70 68 66 58 78 56 64 72 64 68 62 72 70 78 80 82 84 86 98 116 199 250 215 193 84 58 8 36 128 164 217 244 211 179 168 158 217 201 211 171 158 156 136 138 160 171 154 154 152 144 142 108 82 86 80 90 86 96 104 128 94 96 90 74 86 92 76 112 150 
62 70 60 70 84 62 48 68 62 60 78 80 72 70 62 66 68 78 74 60 56 70 78 70 74 80 84 86 84 106 128 274 233 185 201 183 207 213 199 185 162 128 136 106 132 173 189 207 209 201 177 166 154 144 112 130 162 142 144 146 134 122 98 80 78 92 90 98 94 126 128 116 136 124 112 106 112 106 160 231 
54 64 70 62 60 66 78 76 62 56 74 84 82 74 66 72 64 68 78 60 56 62 82 76 84 76 86 88 88 108 160 238 203 175 223 258 274 213 209 162 140 74 50 92 144 171 193 197 209 191 179 156 156 150 136 140 156 122 108 112 114 102 88 90 106 102 108 116 140 209 195 187 215 234 250 203 170 189 236 266 
84 70 66 66 62 64 68 56 60 68 70 72 80 62 68 72 54 78 66 58 48 74 72 78 80 90 90 84 94 112 166 215 211 223 268 336 318 213 181 138 122 102 114 130 168 154 175 187 185 181 187 158 148 148 150 162 160 138 114 98 90 80 84 84 106 124 124 130 171 215 227 236 246 270 278 234 234 223 258 246 
66 50 70 58 54 48 64 46 48 60 66 72 74 76 80 72 62 68 56 66 76 70 90 84 88 140 124 96 104 122 195 213 219 225 236 270 223 162 138 116 124 158 146 158 189 142 150 175 217 181 170 170 154 154 148 134 158 134 114 112 94 86 78 88 98 110 120 128 187 223 221 213 221 236 236 240 236 252 254 254 
68 64 58 74 66 46 78 64 62 66 76 82 74 68 66 72 70 64 62 56 76 118 164 170 254 328 299 233 221 252 314 225 236 233 191 134 126 86 132 114 126 154 164 162 191 146 148 168 187 193 160 150 152 185 181 152 166 126 100 108 102 108 120 132 124 122 158 183 223 225 213 219 240 227 246 242 252 248 246 244 
64 56 64 64 78 48 74 66 52 72 90 58 70 56 64 68 76 62 64 76 158 205 236 301 438 482 471 413 388 407 367 244 242 278 213 114 82 32 122 124 116 148 158 150 173 160 114 124 168 211 148 140 173 179 177 152 154 120 118 191 195 197 195 171 140 126 128 144 189 199 209 211 244 227 236 242 252 217 225 240 
60 48 74 56 54 52 72 52 60 60 68 62 78 56 66 66 64 70 66 84 211 283 276 407 477 436 436 423 376 415 376 240 262 312 223 136 108 42 94 106 142 171 158 154 177 164 124 136 158 197 154 128 170 175 150 166 166 134 138 197 170 166 160 150 160 144 138 142 177 207 211 199 221 207 219 217 211 148 140 154 
64 64 66 68 56 56 60 60 60 56 74 70 60 56 64 64 58 70 60 86 211 303 373 463 458 411 390 423 376 419 382 270 289 322 248 170 142 104 122 94 146 171 152 154 156 138 140 173 171 201 170 118 136 142 142 132 144 122 128 207 177 171 185 193 193 195 225 258 244 225 211 213 201 197 201 209 142 98 82 100 
58 54 70 66 58 64 50 52 50 64 72 74 62 56 70 68 62 54 62 74 187 318 394 450 484 461 438 442 402 394 355 264 276 301 254 203 185 158 156 122 148 150 158 146 138 136 171 170 160 211 160 146 128 122 112 126 128 132 138 183 173 199 205 203 238 246 260 303 295 266 240 201 199 179 189 134 86 86 64 78 
56 44 62 74 68 54 60 48 64 54 60 58 54 46 56 54 50 62 60 64 152 270 303 342 415 454 446 376 295 280 305 274 256 244 274 260 256 231 199 152 150 120 136 112 124 132 156 140 138 215 142 140 128 106 74 130 138 148 154 160 175 197 189 191 213 227 248 281 307 260 225 203 185 146 100 72 84 54 58 70 
60 52 54 52 62 48 60 56 48 70 64 70 56 58 60 60 58 50 48 60 120 148 197 209 236 280 248 156 100 112 205 250 197 193 274 260 264 260 211 156 142 86 128 110 120 120 138 144 138 209 175 122 132 98 100 106 144 136 144 148 150 160 170 171 199 209 211 258 256 244 219 175 144 100 54 62 70 56 60 66 
62 62 52 68 70 58 52 64 54 58 60 66 56 46 64 64 58 62 62 68 60 80 104 102 92 90 86 74 82 96 168 252 225 160 209 242 252 221 203 168 132 112 130 148 114 116 130 156 177 160 179 132 124 88 104 108 106 124 138 126 136 146 170 148 177 181 201 215 236 223 170 124 92 70 48 58 64 44 62 78 
44 62 56 68 60 54 64 56 52 68 68 62 82 78 70 66 58 56 64 48 54 66 76 56 66 72 70 74 74 86 116 256 258 166 175 225 223 185 173 148 108 128 114 118 136 116 142 164 166 122 158 128 124 108 84 102 90 92 108 102 106 120 148 138 152 158 181 175 189 154 116 110 94 76 60 62 52 52 60 68 
52 64 56 58 52 72 68 54 66 72 72 68 80 72 66 60 54 62 52 52 56 66 74 52 68 70 72 66 78 92 98 205 307 260 177 78 68 86 140 160 142 114 78 74 88 189 291 316 287 268 160 110 116 90 90 86 102 96 86 90 84 104 140 114 114 128 126 124 132 114 116 114 88 64 62 54 58 60 62 54 
50 36 56 66 48 70 62 50 56 68 70 64 82 78 60 58 58 66 60 34 50 48 58 54 52 72 64 78 80 76 94 136 254 231 231 108 26 50 96 86 86 270 240 166 213 328 351 365 342 217 116 102 110 92 84 68 56 60 64 96 86 80 72 58 88 96 98 120 122 122 118 110 98 76 58 52 56 60 60 48 
38 56 78 76 66 56 68 66 56 74 66 72 80 62 66 68 72 62 64 52 54 62 54 60 62 68 82 84 74 90 110 102 156 244 299 278 236 183 132 96 150 342 334 314 318 351 369 345 221 118 102 106 98 100 96 70 72 50 50 66 62 74 68 72 82 86 106 122 116 108 122 102 90 78 56 66 78 48 54 58 
48 46 64 84 56 64 66 54 62 62 68 62 76 64 66 74 66 68 60 52 68 52 82 70 52 72 74 82 94 102 142 187 231 258 342 328 305 231 160 166 307 359 342 342 355 369 324 183 124 104 84 112 94 96 86 78 66 44 46 64 60 66 64 56 78 84 96 104 102 106 102 92 92 78 60 72 64 56 60 56 
54 50 62 64 60 52 60 60 56 72 72 72 68 56 72 66 56 68 62 56 58 66 70 66 68 72 72 122 193 283 322 365 400 402 446 421 386 355 307 320 343 338 342 357 334 254 132 90 88 98 102 106 90 94 84 76 78 60 54 62 52 64 68 64 78 80 96 112 108 112 98 90 92 84 68 58 52 44 54 64 
56 50 62 58 72 66 74 72 44 66 64 66 64 78 76 80 72 52 60 54 50 74 68 68 76 74 90 223 328 347 374 376 407 421 456 433 417 365 347 363 340 361 340 338 246 118 82 84 106 84 92 98 90 94 78 70 72 56 58 70 60 72 76 70 70 90 100 108 98 92 92 100 94 76 60 70 72 68 74 74 
74 84 70 54 62 46 64 64 66 62 64 78 72 56 72 78 68 62 70 44 46 60 70 60 72 98 170 274 285 322 361 384 400 423 429 417 413 378 357 355 347 359 334 343 338 272 175 86 94 92 104 104 106 124 118 112 114 98 110 112 102 110 114 90 80 94 108 96 100 96 114 94 80 78 60 76 98 100 98 94 
56 72 62 78 54 66 56 54 62 60 56 68 74 60 76 82 62 66 72 62 56 72 86 68 72 98 211 268 276 278 309 355 392 411 425 421 402 353 351 347 340 345 340 332 336 303 283 221 164 134 138 164 168 173 162 156 152 156 144 150 134 136 122 104 102 98 96 108 98 104 106 96 112 144 132 122 136 110 122 126 
56 58 66 66 58 46 58 62 62 78 84 60 60 62 72 82 62 56 58 52 60 48 74 66 68 124 244 272 276 276 281 276 320 374 365 328 280 272 289 301 301 301 283 301 307 316 297 278 213 156 166 185 171 187 183 158 179 181 191 203 173 160 146 128 108 102 102 118 114 132 162 179 236 246 264 248 240 219 203 203 
54 52 44 56 52 48 58 54 58 66 64 60 60 68 62 86 94 100 100 58 84 72 84 74 82 189 280 289 293 270 260 236 264 276 287 211 187 203 252 264 278 278 238 274 291 293 283 260 274 221 197 191 177 185 181 195 181 197 187 197 189 183 160 138 124 110 112 120 106 126 183 185 234 254 270 262 266 264 254 246 
48 64 62 68 44 62 56 46 54 58 66 64 72 58 80 136 252 283 309 276 312 240 122 86 110 268 289 293 291 248 240 240 248 254 217 134 140 177 221 250 256 264 233 234 219 203 262 264 264 244 234 197 185 193 195 207 201 191 173 166 173 175 164 154 126 138 108 106 96 90 154 164 187 233 268 272 262 256 248 234 
52 38 54 74 48 60 60 50 50 64 54 68 74 60 118 238 367 374 405 433 413 427 392 301 264 330 316 289 266 240 227 219 227 215 160 80 102 191 242 236 250 256 229 233 211 197 191 250 246 250 266 260 236 248 268 276 231 203 183 164 156 162 162 138 138 138 140 82 94 100 126 140 189 207 266 262 268 252 236 227 
56 66 60 64 60 64 66 54 66 70 64 52 70 68 173 320 374 390 429 450 425 398 415 386 384 367 345 283 256 223 215 191 175 160 134 84 84 195 250 250 229 244 219 234 213 187 156 191 209 221 268 262 256 291 314 299 258 197 168 152 150 140 144 136 144 140 154 120 104 116 120 146 185 183 223 231 227 221 197 164 
60 48 54 64 68 64 70 66 70 68 60 64 86 82 191 328 359 402 444 442 386 328 361 351 380 361 347 229 219 221 191 173 144 122 148 82 66 193 223 223 217 227 225 223 213 170 168 150 173 185 256 268 262 291 320 332 272 168 152 144 150 134 130 114 116 154 138 144 128 118 116 132 126 132 144 142 144 126 112 134 
58 54 70 70 70 62 58 52 58 56 64 84 88 86 171 305 340 386 438 452 340 301 369 342 361 357 314 225 185 189 166 160 152 144 122 50 56 171 187 207 201 225 217 233 209 201 171 168 179 189 219 252 293 301 322 322 264 154 148 142 140 112 122 106 112 122 120 138 124 120 100 90 74 72 88 88 82 80 92 114 
60 56 70 68 62 46 72 66 52 64 68 60 70 80 110 268 334 363 427 421 371 373 405 384 367 343 303 234 203 193 181 171 156 140 116 24 30 134 181 189 166 197 197 225 215 197 183 197 238 280 283 262 260 312 285 293 254 152 128 144 116 116 110 84 94 102 96 124 116 104 100 82 90 62 64 80 76 74 88 98 
60 46 68 64 58 66 70 62 60 66 72 66 84 88 76 158 274 309 345 371 347 324 305 252 278 309 307 281 238 211 185 170 150 130 120 56 80 96 136 154 154 179 177 203 197 191 199 281 301 295 309 248 252 274 258 219 207 170 150 150 134 128 120 136 110 116 110 122 102 110 102 80 78 56 68 68 74 80 94 88 
58 62 62 66 64 60 76 66 52 64 80 70 80 72 78 84 86 108 124 122 140 126 108 102 134 276 297 276 244 229 197 171 179 142 114 60 96 98 150 150 136 162 160 185 187 177 236 303 305 299 305 272 221 229 203 231 191 175 150 154 170 175 168 158 173 170 164 142 114 94 100 96 84 68 80 84 78 64 92 104 
58 52 64 60 78 60 62 58 68 68 60 70 60 74 76 82 76 84 70 66 64 56 78 74 78 238 283 278 248 223 195 195 189 164 136 90 112 118 173 162 156 170 168 181 171 187 264 285 297 305 307 229 150 158 173 173 166 170 158 193 189 197 173 185 173 173 168 144 116 96 96 130 144 142 175 175 177 150 122 130 
54 50 54 62 60 66 66 54 56 68 74 58 76 58 72 80 50 64 58 50 52 56 82 62 78 170 274 289 238 223 189 187 199 203 193 122 130 144 197 175 164 173 152 187 175 223 256 270 281 278 256 171 128 136 140 144 152 156 168 199 181 171 158 150 142 132 136 98 50 56 82 100 173 183 209 209 233 242 225 203 
46 54 60 58 58 50 60 54 46 62 64 62 72 68 64 70 60 52 52 44 56 44 54 56 64 138 291 309 266 234 207 185 189 217 233 166 136 171 203 175 173 197 170 187 197 234 254 276 250 205 173 136 130 136 136 158 154 158 164 158 152 136 130 138 130 116 90 44 30 46 90 116 181 179 219 229 246 272 256 238 
58 56 54 66 52 58 52 54 64 52 50 62 54 56 56 62 58 64 42 50 34 42 44 42 50 86 258 342 320 291 262 240 234 252 262 187 189 189 183 175 187 213 181 201 221 203 213 225 205 144 142 134 146 146 162 160 166 154 150 162 144 128 140 130 116 116 90 36 36 40 86 126 197 213 225 248 272 268 258 246 
66 42 54 44 40 48 56 52 60 52 56 74 50 58 48 64 60 54 36 38 32 26 42 44 50 66 207 334 328 328 297 316 305 326 343 316 281 201 173 177 181 199 201 246 238 225 183 154 148 126 136 134 150 162 166 171 166 150 162 158 154 136 116 120 102 94 90 64 50 54 112 144 207 215 233 219 234 234 225 223 
50 38 64 36 40 28 50 42 34 50 46 48 54 50 40 48 42 44 42 36 24 32 40 38 34 56 92 254 314 338 328 316 328 330 357 336 336 293 274 205 211 236 258 299 266 221 134 122 124 106 114 138 179 175 164 152 158 154 158 171 136 122 102 106 92 84 76 66 52 66 70 106 158 160 185 173 175 160 134 132 
34 32 50 40 32 40 52 30 36 48 54 46 54 36 56 64 52 50 32 26 20 12 30 22 14 44 42 66 160 281 328 343 357 342 384 343 318 332 322 287 295 305 280 297 270 146 58 54 66 90 90 120 154 173 154 162 152 148 132 124 112 92 76 98 90 66 70 48 44 32 42 38 46 72 78 84 90 80 82 92 
34 38 28 24 28 44 32 24 18 36 34 50 52 46 52 40 24 42 16 22 28 20 34 20 24 34 26 42 36 72 150 207 264 312 349 355 343 320 326 318 316 318 285 266 152 34 36 36 36 32 40 46 50 74 90 82 92 110 96 96 80 78 76 62 54 56 56 44 26 32 18 22 28 38 64 68 68 66 66 84 
48 30 38 28 30 38 12 36 36 30 32 36 48 22 24 48 40 30 20 26 2 20 20 6 26 14 18 34 34 30 52 62 72 110 171 183 238 283 307 318 345 299 219 156 92 44 46 50 44 34 30 20 10 34 18 30 26 28 36 32 26 40 26 30 24 22 24 42 18 0 16 16 34 42 42 70 58 68 74 78 


