P2
80 60
591
135 147 109 135 133 137 139 145 161 159 169 139 163 171 133 165 155 137 163 143 123 125 121 127 113 115 109 113 107 123 105 125 113 117 119 119 109 123 117 111 101 107 151 219 259 361 414 392 349 340 332 343 385 379 345 353 306 257 197 185 213 185 195 191 183 211 189 175 179 187 167 177 203 195 173 195 151 183 171 207 
119 141 127 125 133 129 131 145 151 159 173 151 143 159 147 173 181 163 149 159 151 127 133 109 101 109 99 117 109 109 119 119 129 103 131 143 133 141 135 157 175 273 349 381 439 396 355 320 284 265 296 318 338 351 318 336 306 296 275 265 271 269 280 275 275 290 265 249 249 265 265 269 296 277 243 263 257 294 259 271 
153 127 125 127 141 131 135 143 149 155 159 119 159 161 177 197 227 263 219 175 137 141 143 131 117 93 113 121 119 117 133 151 159 177 211 247 261 290 330 369 332 412 427 400 414 359 302 269 229 247 282 284 286 318 308 310 316 312 294 284 304 298 292 304 324 328 302 290 286 279 267 292 312 302 302 310 279 298 300 322 
129 121 113 123 137 133 135 153 143 149 153 145 145 171 219 324 373 357 379 351 243 201 187 139 151 127 115 139 151 193 219 269 302 322 322 351 385 363 310 385 394 326 306 271 275 267 263 223 213 231 282 275 271 269 288 308 300 338 338 320 318 316 322 326 334 347 338 316 312 312 306 300 328 302 318 298 290 302 306 322 
125 115 129 125 135 147 129 151 145 151 163 139 167 211 332 410 412 452 458 462 452 437 342 201 159 143 155 195 322 389 396 389 355 334 345 367 369 349 316 318 298 273 263 259 247 247 241 227 243 223 273 273 279 267 271 286 294 351 371 351 359 349 347 361 359 367 342 357 338 314 296 310 312 322 324 298 284 277 292 318 
121 115 133 119 135 125 135 135 137 163 161 159 181 265 404 406 439 482 534 574 567 553 505 408 231 187 219 336 398 396 414 412 359 351 342 351 365 359 336 338 294 277 261 255 249 231 239 241 211 223 286 275 267 257 259 277 304 361 361 369 355 355 355 359 355 367 351 353 334 336 296 294 292 314 292 288 290 298 304 292 
113 133 135 125 121 147 147 141 147 159 145 167 185 312 412 421 452 516 547 586 591 565 553 516 402 259 298 402 400 410 404 361 320 322 320 351 351 363 334 334 306 280 259 245 263 243 241 239 219 239 271 290 277 249 267 282 306 324 361 363 355 338 361 359 340 361 351 324 314 294 259 247 225 233 207 219 221 237 229 241 
121 125 129 123 135 131 145 147 137 169 151 149 183 332 429 425 464 524 569 578 570 582 530 507 476 425 398 421 402 387 367 338 314 322 326 334 363 336 347 336 312 284 277 265 280 265 243 229 223 225 290 292 282 269 261 269 320 343 338 324 328 316 308 292 273 284 267 237 203 205 189 191 199 179 171 165 153 173 169 171 
123 121 141 125 133 139 127 145 141 145 155 159 179 300 410 433 472 501 569 569 567 551 520 513 503 454 437 441 445 412 379 345 322 330 336 342 345 343 326 334 330 306 290 273 263 261 243 237 221 233 275 280 273 267 263 298 322 324 249 223 217 213 209 209 185 189 191 187 201 205 189 183 173 167 169 151 151 171 151 165 
137 125 131 123 135 135 149 153 133 151 155 147 171 223 361 404 441 470 514 540 563 544 520 524 532 443 464 462 462 441 392 365 318 316 316 340 326 345 328 330 328 306 300 275 271 261 255 249 221 225 261 288 296 284 292 324 318 332 314 227 215 185 163 171 147 181 171 189 205 195 197 187 195 167 177 179 153 159 167 163 
141 113 133 143 143 135 131 153 143 151 151 139 143 167 225 302 383 445 480 497 538 534 526 507 443 452 460 468 452 439 412 361 326 322 328 326 324 310 312 316 324 290 298 273 271 280 259 257 241 231 282 310 332 326 340 340 340 355 336 318 294 280 239 227 215 229 237 187 185 213 213 195 207 183 175 175 167 179 149 149 
117 115 121 121 139 145 131 155 131 145 137 139 135 135 159 163 221 304 357 418 437 501 501 412 396 443 452 454 443 416 392 367 324 326 338 324 342 338 328 343 342 310 296 279 294 279 261 259 253 265 308 334 365 359 353 361 357 359 375 363 377 355 357 365 351 347 336 340 277 257 231 225 215 213 193 191 191 175 161 155 
125 123 125 113 129 135 149 151 133 143 143 143 141 137 125 131 149 147 159 215 237 290 365 363 414 420 408 416 421 408 392 353 353 332 347 338 342 347 330 338 338 318 302 300 294 302 280 271 288 288 347 357 385 385 371 357 355 365 375 375 379 373 338 361 353 357 347 361 357 343 296 296 279 251 241 233 209 221 179 185 
117 127 123 121 125 139 121 133 133 153 149 139 141 121 143 129 133 129 133 133 145 189 282 400 423 408 351 357 357 377 375 347 342 316 361 371 367 371 369 379 361 336 322 320 328 322 306 314 296 318 342 357 363 365 379 361 373 377 379 365 357 351 359 334 347 353 355 359 353 338 304 288 277 282 298 286 304 300 284 284 
107 111 135 111 139 133 133 141 129 133 145 115 119 123 123 133 131 117 123 127 119 149 217 406 425 394 355 306 245 267 292 359 361 345 355 379 365 383 377 379 381 363 351 349 345 347 357 328 318 355 373 351 351 379 385 361 373 381 369 377 373 367 349 340 343 357 328 340 349 326 306 286 290 294 290 298 296 298 314 332 
133 119 117 117 123 129 133 153 133 137 141 127 135 139 129 125 127 125 135 119 135 145 187 375 427 414 406 347 239 275 338 365 412 400 387 390 390 389 394 416 398 379 375 361 363 373 381 389 398 404 373 343 349 379 375 353 385 365 373 367 369 361 353 357 347 345 351 365 355 338 298 308 284 302 296 294 294 306 320 334 
125 103 125 119 123 111 123 139 115 129 137 123 127 127 131 143 135 125 131 127 123 149 181 385 456 435 423 394 336 312 320 385 460 437 439 429 420 410 398 400 410 402 392 373 400 402 431 433 416 406 385 357 347 342 347 349 338 312 347 351 363 349 340 347 320 326 310 322 320 298 286 302 310 302 288 279 288 308 300 320 
131 111 109 103 123 121 135 137 127 137 127 129 131 135 137 149 137 135 139 149 147 151 155 304 441 445 445 414 379 320 340 400 482 483 497 489 460 443 414 420 420 414 427 425 449 445 468 439 437 396 347 324 322 292 282 253 249 253 249 257 267 288 275 290 251 259 239 241 241 253 257 269 269 265 267 282 277 286 284 306 
127 141 123 121 129 131 121 133 139 131 131 133 147 135 139 127 139 127 139 151 137 151 163 207 398 437 435 410 390 357 328 439 514 505 509 511 491 497 464 451 460 474 480 482 454 466 454 390 351 286 263 261 225 201 175 159 143 163 151 155 155 159 179 203 201 191 195 207 205 217 203 213 213 217 209 217 213 227 227 235 
117 119 119 123 135 135 121 133 131 131 151 135 139 119 129 133 129 129 129 139 129 139 141 147 237 361 423 412 394 349 349 485 522 493 507 509 499 499 507 516 499 476 489 468 449 406 367 288 235 223 203 211 195 177 151 141 137 135 149 135 145 163 157 167 187 193 195 197 203 209 197 197 197 207 181 183 179 187 191 213 
131 129 131 123 129 129 113 143 133 131 133 131 135 151 117 129 141 135 119 129 139 135 147 155 167 193 273 345 381 353 349 472 505 485 497 497 499 511 511 520 507 472 456 433 332 259 243 231 225 209 203 199 189 185 165 155 133 131 143 145 159 157 167 169 165 183 191 201 199 211 199 193 195 173 183 171 183 177 191 191 
119 135 119 121 127 117 129 133 123 123 135 113 145 131 133 129 131 129 141 145 139 125 131 143 149 151 177 179 213 227 263 342 361 414 423 429 441 476 478 480 441 433 412 371 235 201 227 233 225 205 191 191 201 179 155 153 137 137 143 135 149 147 151 163 179 167 195 193 209 203 197 193 189 173 179 181 179 191 183 195 
133 121 141 129 121 131 127 131 129 147 137 137 135 133 123 131 129 129 137 125 135 141 137 153 141 151 137 149 165 165 173 203 280 326 302 290 342 371 375 385 379 379 377 288 185 191 221 223 203 207 199 185 203 175 161 151 129 149 139 149 147 147 151 165 191 185 197 195 217 221 195 193 199 177 197 179 177 179 181 201 
125 119 147 119 135 139 109 135 141 141 133 141 125 137 119 133 131 131 131 127 139 137 147 137 145 155 137 143 143 167 187 286 294 247 219 159 179 304 324 338 332 334 326 187 157 195 211 225 189 201 203 203 197 207 187 169 157 177 185 185 193 197 139 151 151 149 167 169 197 207 195 197 199 199 171 175 187 193 187 183 
123 131 125 131 119 137 145 143 147 141 137 127 143 145 115 125 135 121 133 133 119 133 145 143 147 139 143 139 151 167 231 355 326 251 247 231 201 292 312 294 300 265 191 129 153 149 165 273 237 223 245 193 229 209 193 187 227 259 273 280 280 271 199 151 123 121 119 119 161 199 205 201 199 191 165 179 183 189 187 185 
117 125 111 109 127 119 141 135 135 135 147 141 131 137 127 127 141 135 119 129 133 125 147 137 125 133 121 139 151 167 263 357 286 288 302 310 326 383 334 286 215 161 133 135 175 207 203 221 273 193 189 181 209 199 221 203 237 273 275 273 280 282 241 167 135 129 121 95 135 203 201 209 211 193 189 189 181 193 179 187 
111 119 123 117 123 121 129 145 125 133 151 121 129 141 127 135 135 139 127 119 127 111 137 135 141 147 131 149 155 183 280 328 320 336 437 427 421 402 318 127 51 89 97 129 131 143 187 199 221 187 141 197 189 217 199 211 219 247 257 257 263 259 237 189 163 153 131 125 155 205 219 217 225 237 229 195 175 167 183 187 
119 117 121 111 123 115 113 131 133 129 141 117 121 133 125 113 109 127 119 127 129 113 137 125 135 137 117 125 151 167 302 345 361 385 439 464 451 408 257 49 18 67 71 109 145 125 151 203 209 189 159 207 175 207 217 199 229 241 233 217 229 189 207 189 185 185 169 155 191 257 261 267 279 318 334 302 267 223 193 201 
113 139 111 115 123 123 125 139 133 139 147 133 121 129 127 135 131 121 119 131 133 129 159 157 199 255 181 163 175 223 334 322 369 421 464 468 454 416 129 0 33 81 149 141 169 155 183 207 241 177 219 191 193 229 225 263 239 247 261 275 265 255 221 199 191 207 233 239 225 294 304 296 308 353 375 355 347 347 294 237 
113 119 119 125 129 123 131 135 129 125 149 125 123 129 119 109 121 133 133 123 149 197 247 312 425 445 406 349 367 361 349 324 373 404 443 505 470 404 95 31 16 71 187 139 155 169 163 191 213 201 231 163 185 245 227 273 275 215 231 199 205 199 221 235 221 239 261 265 294 296 279 292 292 322 338 338 349 359 336 342 
115 129 119 115 123 129 119 131 129 137 141 115 141 133 107 131 139 115 129 159 237 294 361 460 522 538 503 445 427 406 359 324 371 387 392 489 489 410 175 14 65 89 177 157 181 171 133 157 183 197 211 167 207 251 259 259 251 237 209 231 237 245 267 267 290 308 282 316 328 308 282 263 286 292 284 310 308 345 322 326 
115 127 121 119 135 123 131 145 131 137 143 119 129 131 137 147 133 131 137 177 306 357 416 509 503 499 505 445 427 414 379 345 402 375 318 365 439 423 257 41 123 155 161 165 185 149 135 159 143 205 203 209 227 279 269 241 229 215 227 259 271 273 294 296 314 306 324 328 340 326 279 296 292 271 288 304 316 332 343 334 
119 127 111 117 141 119 143 139 133 151 141 137 129 143 125 133 143 129 143 187 326 396 483 520 514 470 495 472 427 408 377 357 400 375 310 273 338 404 334 173 153 149 183 163 175 153 205 187 163 173 235 223 197 221 251 243 213 223 231 253 263 269 304 292 310 304 310 328 338 318 310 296 304 294 302 306 320 336 318 318 
123 121 131 119 139 135 137 137 127 151 135 125 145 151 127 139 145 133 149 193 326 398 483 532 514 507 522 493 441 412 398 371 385 351 334 320 306 357 328 282 219 157 177 167 159 183 209 189 143 169 219 237 201 173 217 237 213 229 239 255 253 265 275 284 302 310 320 338 338 316 312 308 308 310 320 330 338 306 304 277 
115 111 117 125 127 139 127 143 131 141 139 135 157 151 133 137 141 125 151 175 322 423 402 435 454 513 466 377 251 209 336 373 332 316 322 316 322 351 336 312 306 237 151 173 173 241 221 197 149 163 213 201 175 157 203 227 235 217 269 233 255 263 265 279 300 302 308 330 318 322 286 304 286 302 298 304 263 227 221 211 
107 111 115 129 113 139 127 135 147 153 145 127 139 141 127 139 151 143 147 147 221 280 298 288 284 275 233 179 167 181 292 365 292 280 292 292 304 342 334 340 310 324 294 199 223 243 247 209 191 163 193 155 153 179 181 225 245 237 245 229 249 261 277 296 288 292 310 306 300 251 267 237 237 217 225 201 189 179 181 187 
117 115 127 129 133 131 125 131 139 135 145 133 145 133 119 143 125 135 127 139 147 155 165 161 149 157 145 139 145 161 217 349 342 290 243 221 294 383 389 351 353 343 349 292 245 251 247 241 201 157 199 183 175 185 197 223 213 213 221 211 241 247 279 292 288 271 265 261 231 231 213 209 201 189 181 165 167 165 165 181 
133 113 125 135 117 109 127 131 143 137 147 129 127 147 131 137 141 133 141 141 137 137 135 153 141 149 147 145 145 151 185 280 316 261 203 193 302 367 355 379 371 359 377 361 282 223 253 280 255 185 193 195 179 181 189 221 221 217 205 219 207 231 237 243 255 235 189 209 211 205 209 203 195 183 153 169 147 171 155 191 
101 121 119 113 127 119 135 135 133 145 155 139 139 151 133 147 141 115 133 143 145 145 153 151 139 161 125 145 141 145 177 239 340 308 263 310 332 324 326 400 369 390 392 387 320 143 169 181 179 185 185 177 189 181 193 185 187 179 187 185 185 151 171 185 183 183 177 187 195 199 195 191 181 185 171 161 175 185 207 203 
121 123 133 139 127 149 125 147 145 149 151 131 103 123 137 129 135 127 137 151 137 123 141 129 127 155 135 143 159 147 173 207 279 357 355 345 326 343 338 404 387 394 394 396 371 181 155 153 163 171 165 165 175 185 177 157 155 155 131 145 135 145 161 151 151 177 171 179 177 219 203 199 195 183 179 183 191 215 207 205 
115 127 125 125 129 139 127 137 141 151 141 137 129 139 127 127 129 125 139 139 143 133 145 141 131 145 133 149 159 205 290 357 385 408 398 367 353 345 312 412 381 389 377 394 349 183 163 159 163 163 165 169 175 193 169 167 139 137 135 125 127 127 133 149 153 167 177 191 175 199 177 189 163 175 187 189 191 213 209 215 
119 131 105 119 121 119 117 127 133 131 151 141 127 129 133 135 127 133 159 125 133 131 137 137 127 139 145 155 189 342 375 363 394 402 379 402 387 396 363 431 427 414 408 326 217 143 157 163 167 157 163 155 157 183 155 147 133 135 111 131 125 119 131 147 141 149 163 183 175 185 177 159 149 159 167 179 203 209 205 217 
123 131 127 113 137 139 125 127 127 137 141 137 129 131 133 159 129 139 155 149 135 137 147 135 135 137 137 167 288 392 385 351 355 385 400 412 385 416 387 441 439 429 420 385 280 165 151 149 161 155 149 149 153 151 123 123 117 113 101 93 121 117 125 127 131 149 139 155 179 185 181 157 159 159 165 185 199 205 203 205 
109 113 103 125 127 123 139 115 125 141 141 135 141 137 133 143 159 225 265 243 197 165 157 145 131 127 147 211 363 398 404 387 330 334 385 410 383 398 385 456 443 416 418 431 412 290 169 161 151 129 141 129 135 147 121 119 109 119 133 133 149 153 147 161 149 143 161 167 175 179 165 157 145 157 171 181 185 187 191 203 
129 123 131 141 127 143 135 137 153 151 139 119 131 155 141 169 257 390 427 423 431 412 367 207 135 157 179 296 347 357 347 345 302 284 302 340 377 400 389 437 452 451 421 421 433 398 296 203 189 191 179 197 205 197 237 215 193 215 221 207 201 191 189 167 169 155 157 155 153 167 171 157 167 161 171 161 187 193 195 215 
111 127 133 131 131 135 135 131 139 135 147 127 143 133 159 247 365 458 451 485 545 518 489 427 271 207 284 363 349 330 343 330 300 292 292 292 273 275 298 373 433 456 443 414 431 437 423 330 241 217 219 239 263 257 261 263 243 239 227 219 221 221 203 173 179 161 149 175 189 185 183 185 203 163 181 177 185 197 191 203 
135 139 129 125 149 133 141 155 141 145 145 127 155 153 167 280 406 451 468 526 532 513 516 514 485 416 425 379 377 328 345 336 290 304 322 275 195 167 191 284 345 389 410 418 412 423 433 387 277 241 243 253 251 255 265 275 275 292 275 251 267 239 223 199 177 143 153 199 229 225 249 279 300 308 310 296 275 245 227 229 
111 147 129 129 141 127 139 139 137 143 151 141 135 165 179 300 406 451 499 526 505 485 468 462 456 482 445 394 373 353 318 324 294 314 279 191 129 119 149 237 312 326 345 377 398 404 429 406 338 245 243 263 271 251 279 271 294 304 296 300 280 267 253 205 187 169 165 217 221 263 271 314 345 349 379 355 357 328 314 306 
119 141 121 133 137 135 143 143 151 153 165 149 143 151 151 265 389 420 480 538 513 468 447 416 404 474 439 369 357 342 330 298 298 273 229 127 87 95 143 223 288 304 314 328 351 387 418 412 381 306 253 273 263 279 261 267 284 286 273 290 298 294 261 217 201 183 173 181 185 221 269 304 334 367 385 383 369 369 338 357 
127 145 135 143 137 121 141 147 139 149 153 145 141 149 151 195 314 385 443 524 480 462 474 458 414 451 416 330 320 324 284 265 237 231 199 115 55 55 149 231 290 298 316 300 306 353 402 390 361 322 251 269 282 271 280 269 290 269 286 286 277 275 255 241 217 217 205 185 195 197 243 277 320 347 371 383 371 371 359 349 
129 139 149 127 139 127 127 143 135 151 149 117 149 143 143 155 173 231 280 379 429 441 449 449 420 439 389 294 302 277 245 221 221 187 155 91 18 101 187 251 251 286 288 292 300 300 355 379 367 347 290 247 277 282 284 284 288 286 277 269 280 253 245 235 213 239 229 179 183 213 243 251 288 310 349 359 355 363 336 345 
135 125 137 137 151 147 131 143 135 155 143 131 137 135 129 125 141 157 161 181 203 251 219 223 227 385 355 306 310 259 217 201 195 177 131 51 27 173 225 267 257 290 284 286 314 288 300 347 349 338 292 282 275 273 288 290 288 290 280 271 284 267 265 227 229 261 255 235 223 213 225 239 249 279 302 306 296 308 277 277 
125 117 131 129 139 129 141 157 123 133 161 149 153 149 151 147 145 133 147 145 153 141 157 139 149 269 336 332 324 284 225 209 187 159 113 41 43 165 233 263 282 286 286 308 314 284 277 290 334 357 320 304 306 304 279 298 288 312 275 273 277 255 261 245 235 235 227 223 211 191 209 183 179 201 191 193 223 203 209 235 
131 129 109 131 125 137 121 153 133 149 161 145 139 151 147 131 153 133 137 133 161 129 147 135 155 233 330 342 322 280 251 233 201 139 83 33 51 129 245 273 273 275 267 263 296 284 277 284 298 355 363 328 322 330 324 328 318 322 292 279 235 215 199 173 181 179 177 191 187 199 179 175 165 155 183 183 171 199 187 209 
135 117 113 133 145 133 129 153 137 155 141 139 119 151 141 147 135 141 133 137 129 137 127 147 117 191 345 334 302 279 267 257 215 157 91 45 53 173 231 277 275 279 253 223 265 271 257 265 302 361 367 359 345 373 371 392 402 383 316 288 267 257 257 251 213 203 191 193 187 183 171 169 163 175 175 179 167 183 185 211 
117 121 101 111 117 111 127 139 125 133 135 139 137 155 131 127 145 127 127 127 129 123 123 113 129 169 328 343 322 271 263 267 257 171 107 79 97 161 237 294 298 275 253 247 263 265 259 267 294 338 355 357 377 377 369 387 406 433 328 290 265 284 253 257 243 259 249 217 213 211 197 189 209 195 213 209 185 185 197 213 
115 105 123 121 131 109 125 127 125 137 137 129 135 135 121 127 123 123 139 117 125 119 117 103 121 155 328 361 338 308 247 219 265 239 151 89 53 105 231 273 280 279 263 269 257 267 296 298 282 328 351 398 414 402 416 410 410 406 312 294 312 306 275 237 243 273 257 211 203 201 203 229 263 275 302 312 294 290 259 247 
111 109 103 129 127 133 121 119 121 131 145 127 123 131 135 133 121 109 127 107 113 103 107 105 125 147 259 338 312 306 265 251 263 263 251 227 167 191 217 269 294 273 279 271 273 292 334 316 310 330 355 410 445 425 416 389 369 336 290 286 298 279 259 247 231 237 235 169 169 165 195 203 255 304 310 328 328 342 351 343 
111 103 105 117 127 119 115 111 105 117 129 107 121 121 111 139 115 121 107 113 121 101 107 109 107 113 157 277 298 302 322 326 314 314 330 318 332 357 347 347 332 343 343 345 353 353 361 359 330 310 332 410 447 414 361 310 298 284 279 286 273 237 235 231 209 219 209 129 125 145 189 223 249 288 324 340 357 387 392 381 
115 123 111 99 111 111 115 125 121 139 121 117 123 131 119 127 105 117 111 105 99 115 103 109 109 85 87 141 231 294 316 318 312 298 324 312 347 389 381 398 404 383 375 389 387 379 367 345 312 288 269 288 338 312 292 292 265 275 280 257 261 249 229 237 235 235 199 131 139 127 205 233 290 322 347 357 359 367 381 398 


