P2
80 60
535
48 82 46 26 42 48 52 36 30 62 42 34 58 42 40 44 40 56 54 48 46 36 34 62 40 32 48 26 32 44 56 44 48 46 34 44 36 36 30 46 48 44 36 48 42 46 36 26 34 46 62 90 80 128 120 116 108 104 94 84 100 90 104 88 102 122 148 195 254 365 369 344 338 367 381 394 379 332 319 402 
40 56 36 32 34 40 34 40 36 40 50 36 46 48 38 44 44 36 36 46 58 26 40 40 40 28 42 42 30 40 40 44 40 32 40 40 32 32 34 52 40 32 44 34 42 32 40 30 18 30 40 68 82 106 110 98 84 90 72 78 118 106 94 78 118 156 187 197 249 354 408 390 363 367 356 390 381 381 358 385 
44 46 30 38 32 36 46 34 46 48 36 44 18 36 40 28 36 32 42 38 32 26 34 34 32 34 36 32 34 26 26 18 34 26 40 42 42 24 28 28 40 30 36 26 40 18 26 28 30 36 34 48 66 84 92 58 50 78 68 116 172 174 180 140 229 264 272 284 303 332 418 408 379 344 346 361 375 379 371 379 
50 38 34 32 26 36 32 42 48 36 42 24 42 14 36 34 36 36 44 32 36 34 28 36 40 26 32 38 18 30 36 26 34 26 22 18 38 24 20 40 30 22 20 26 30 18 28 28 42 14 14 18 24 32 36 40 86 172 199 227 249 311 346 319 396 445 439 408 383 369 359 412 406 346 332 315 313 330 296 338 
46 52 38 30 48 34 48 64 44 38 34 36 26 40 32 38 26 40 22 40 14 20 24 30 44 26 26 34 24 40 30 32 20 30 22 16 24 16 24 30 14 30 30 32 24 32 16 26 30 40 24 48 30 52 42 96 146 227 256 270 299 394 470 476 485 529 533 529 429 375 338 336 361 369 323 332 321 264 272 305 
50 40 34 36 30 32 60 48 36 40 48 38 34 22 30 24 34 34 24 28 28 18 30 24 32 32 24 38 20 20 26 20 10 24 22 20 34 16 34 32 38 32 40 22 28 32 32 40 30 36 36 42 24 54 88 189 223 260 272 317 338 414 485 476 500 498 521 535 527 443 346 359 358 334 296 309 313 303 286 290 
24 38 50 12 38 44 50 40 34 34 34 30 28 14 24 26 22 18 22 22 24 24 30 24 32 18 22 32 26 26 30 38 28 28 22 28 34 28 32 48 32 34 40 42 44 32 46 36 34 30 32 46 32 46 156 229 233 241 247 338 375 447 510 506 512 516 512 514 531 495 385 363 371 356 311 278 274 284 299 330 
32 48 34 30 32 42 34 42 32 36 32 32 34 28 22 26 16 30 28 32 26 20 18 24 22 34 36 34 20 38 44 22 26 34 26 18 46 26 36 36 28 24 40 40 38 26 38 40 40 30 42 44 42 86 195 278 282 245 217 313 425 479 462 489 516 517 512 491 497 427 375 350 321 336 332 309 274 266 284 389 
26 42 22 20 26 32 38 32 30 24 24 28 38 16 22 26 26 30 28 38 22 20 36 20 38 20 32 30 30 44 32 28 32 38 28 36 34 24 40 36 36 38 46 52 54 38 38 46 54 40 52 38 34 68 193 282 309 278 268 274 354 410 460 485 504 514 454 441 396 392 392 365 346 330 319 327 307 311 367 441 
36 40 28 34 26 44 44 18 26 38 32 40 36 28 36 20 38 24 38 34 22 24 36 28 38 34 30 34 54 48 40 34 32 34 48 38 48 30 38 50 38 28 44 48 40 42 32 52 54 48 54 38 46 74 134 217 260 305 278 254 282 421 441 468 521 498 410 396 325 348 346 338 348 344 330 330 330 371 420 451 
38 30 32 38 34 32 46 46 42 32 34 42 36 20 28 28 34 30 34 42 30 26 42 34 36 24 46 40 40 34 52 30 20 36 32 38 36 22 46 44 46 46 32 32 46 48 48 46 62 50 36 42 48 54 78 174 233 270 252 243 223 381 460 470 479 427 344 311 336 389 365 348 359 348 350 356 394 420 431 418 
34 40 40 18 46 32 40 44 30 28 38 52 46 34 32 24 34 16 36 32 28 32 34 32 22 34 44 30 50 38 46 44 38 36 40 48 32 42 40 36 44 36 32 44 34 50 34 36 50 46 34 38 38 46 52 74 148 229 235 256 231 252 363 348 373 319 297 307 359 423 392 383 377 354 379 441 433 437 410 369 
42 42 42 42 42 34 42 36 42 42 38 44 34 38 30 22 32 40 28 38 34 32 30 40 30 30 32 32 36 42 36 40 44 34 44 46 34 36 42 42 40 40 38 46 48 50 40 36 42 54 54 42 38 48 44 50 50 130 168 199 186 172 164 150 346 387 348 332 412 421 385 367 385 435 447 447 445 420 334 311 
38 44 38 40 20 40 36 42 36 36 42 26 30 28 24 32 34 54 38 32 38 46 32 48 38 26 24 32 36 38 34 38 28 34 48 28 32 42 42 32 34 36 48 56 44 46 46 42 54 42 40 34 42 48 48 26 42 36 54 86 84 62 78 92 294 400 414 416 431 418 385 383 433 491 498 458 437 371 317 315 
22 32 38 44 50 38 44 34 42 46 44 20 22 20 14 28 28 34 32 40 20 34 30 42 26 30 38 12 32 30 40 34 32 34 42 40 24 42 28 42 44 30 34 40 48 48 50 40 42 48 44 46 46 36 36 40 22 32 34 44 46 40 42 64 237 387 394 385 402 383 352 367 447 491 466 429 344 319 297 317 
40 38 42 54 36 30 42 40 44 58 28 30 36 24 28 34 24 32 38 34 32 30 32 14 28 36 24 34 30 32 36 30 28 38 36 36 34 40 34 44 32 30 24 32 46 36 40 36 44 48 50 32 22 34 32 28 34 26 26 26 34 32 56 58 118 315 375 369 356 350 359 365 429 462 445 406 350 317 299 321 
26 38 36 30 42 30 44 50 46 42 30 32 28 30 28 38 20 26 20 20 18 24 8 24 24 16 32 26 46 28 24 24 22 22 28 28 28 30 32 36 24 26 30 24 30 30 36 34 28 46 28 28 26 40 30 42 28 26 30 34 34 26 60 38 62 142 284 323 354 396 394 420 447 441 404 392 381 363 338 361 
28 34 36 30 30 26 30 38 26 26 20 24 24 16 16 16 26 18 34 32 18 14 6 18 28 10 34 14 22 28 12 16 18 12 14 32 32 26 32 32 30 40 34 26 24 32 30 38 42 42 30 24 40 30 22 30 38 34 42 36 46 42 44 50 104 128 154 195 352 421 435 452 414 412 396 377 359 375 358 390 
28 48 54 40 18 26 38 40 42 34 22 28 24 24 26 18 36 22 38 32 12 14 18 28 22 20 12 22 20 34 24 30 32 12 16 40 28 24 30 28 34 42 38 40 38 38 36 36 46 46 38 40 40 50 70 46 44 58 58 60 54 64 84 88 225 260 254 231 305 412 416 389 338 350 352 340 342 342 369 398 
28 36 30 24 30 20 24 40 26 26 30 26 4 16 16 16 12 20 22 10 14 18 24 30 22 32 18 16 22 32 14 22 30 24 28 18 34 24 34 44 40 34 50 30 44 40 38 36 52 56 50 52 58 44 56 60 34 56 58 60 62 68 102 203 317 313 327 321 359 361 284 247 176 201 207 245 280 305 363 381 
36 30 42 44 40 18 12 32 30 10 32 22 16 20 12 20 32 34 14 30 10 22 22 24 32 36 28 26 24 44 22 32 36 38 36 32 40 40 46 48 44 42 36 36 38 40 44 44 52 46 54 44 56 68 72 72 64 48 62 56 82 80 186 296 332 338 338 358 354 309 247 225 211 187 164 174 187 225 301 400 
26 44 34 34 18 30 38 16 30 18 18 18 36 24 26 30 12 18 38 34 24 24 18 20 34 16 30 30 28 38 22 38 24 36 46 28 42 40 44 40 50 48 38 42 40 38 44 58 56 62 60 54 60 84 110 108 106 96 96 74 100 114 278 340 344 356 346 354 352 332 278 256 276 215 203 205 207 254 313 431 
32 52 32 40 26 20 38 16 26 22 26 28 34 24 20 30 12 24 32 50 24 38 18 20 42 34 28 36 28 38 22 36 32 40 42 42 46 42 46 40 32 32 34 42 38 28 52 62 56 66 60 66 110 168 243 264 247 268 260 187 126 221 315 348 379 361 369 363 363 336 270 250 274 272 272 328 325 359 390 433 
42 40 50 32 36 28 30 42 34 30 42 22 30 34 28 36 32 28 34 50 36 36 28 24 30 34 36 46 44 38 34 36 34 34 44 48 32 36 36 50 36 44 52 44 36 44 48 36 68 74 62 74 186 272 272 282 286 363 429 359 297 321 348 390 396 392 389 392 385 361 294 276 292 284 307 383 363 379 410 406 
32 42 56 50 40 38 42 36 40 40 34 30 34 44 38 22 40 26 30 42 32 50 34 28 22 36 38 28 34 48 32 38 40 40 46 52 44 28 36 32 48 50 48 42 44 48 50 56 68 58 54 118 211 292 290 272 274 361 437 412 412 371 398 381 381 389 402 381 356 348 315 305 307 288 325 363 361 365 389 365 
18 52 36 32 52 38 42 24 44 40 38 20 32 40 32 26 28 36 22 46 34 30 32 30 18 38 40 42 44 48 38 46 48 38 42 38 38 24 48 62 52 38 44 42 34 42 46 64 80 96 104 168 229 305 296 274 286 330 373 383 373 389 414 365 375 381 371 344 340 369 344 336 311 296 334 361 361 373 381 359 
28 40 44 48 34 46 34 34 36 34 38 20 30 32 20 32 44 36 28 36 36 26 38 48 36 18 38 36 28 34 36 28 36 48 46 40 28 44 40 48 34 40 50 58 56 46 60 62 78 213 354 389 390 371 317 313 305 346 383 377 381 394 402 375 367 338 311 311 317 334 358 361 301 294 313 356 361 375 389 369 
20 44 44 46 32 30 30 42 34 26 36 18 22 40 26 14 24 36 22 38 30 30 36 26 24 34 30 44 44 44 28 38 36 32 38 38 44 30 42 44 36 48 46 52 54 44 42 64 76 108 203 290 451 472 462 431 412 385 390 294 363 439 404 346 342 319 313 336 328 346 359 363 330 288 356 377 354 369 363 352 
30 44 34 44 34 46 26 34 26 28 34 34 32 28 26 34 38 30 26 36 32 36 24 36 26 32 26 46 24 32 22 24 30 28 38 32 42 28 36 48 54 32 34 48 34 50 42 46 60 70 84 156 348 485 474 483 454 437 425 328 321 416 421 358 332 321 325 352 377 400 398 367 346 301 325 359 369 369 358 354 
18 30 48 26 42 20 30 26 22 26 40 24 24 12 22 18 18 20 26 20 14 24 30 12 32 26 22 30 24 32 30 32 30 30 34 40 32 40 42 44 44 32 36 38 34 42 44 28 48 48 56 70 174 241 303 392 439 423 454 348 292 367 385 334 323 309 319 354 389 396 385 390 323 296 307 365 371 359 350 361 
26 40 40 42 36 38 20 24 20 22 34 26 22 28 24 24 26 18 38 24 30 30 26 22 34 24 26 22 38 38 30 34 26 30 34 24 40 38 40 28 34 28 40 44 40 40 40 42 56 42 50 48 64 118 110 152 243 311 354 284 254 270 321 299 307 311 319 361 367 383 361 352 294 282 336 365 359 359 342 346 
26 48 42 46 46 30 40 44 24 24 24 30 24 28 12 24 20 14 20 22 20 30 20 38 30 10 34 20 34 28 32 22 22 28 26 28 28 28 38 40 40 34 34 34 34 32 36 50 40 40 36 40 46 42 62 56 66 92 104 86 110 256 307 303 336 317 336 367 356 358 340 317 288 305 332 354 342 344 334 352 
28 34 32 36 38 16 28 26 18 20 26 14 36 24 18 18 22 14 30 18 22 26 22 22 22 22 24 20 24 22 30 18 24 28 26 18 24 28 26 28 24 26 22 42 18 32 42 36 38 28 40 40 32 38 36 44 28 30 50 38 70 243 321 317 315 292 338 373 358 369 342 328 309 338 338 344 369 348 338 325 
18 44 40 30 28 34 24 10 40 20 22 14 24 16 18 6 16 14 26 14 24 22 18 0 22 22 26 14 26 34 14 18 18 20 24 22 18 30 18 24 34 36 18 38 38 38 48 40 40 50 56 32 44 40 48 56 34 40 42 52 80 237 325 334 325 344 400 392 390 358 350 330 313 321 334 358 348 321 325 286 
18 30 20 38 34 28 22 8 32 28 32 26 12 16 20 20 18 24 26 14 18 12 26 20 12 8 24 14 32 20 30 26 24 20 24 28 34 22 32 24 34 32 30 42 26 50 36 38 36 56 48 44 84 92 78 44 30 40 48 50 72 152 309 327 325 311 373 389 348 305 268 250 243 296 280 330 340 309 288 268 
6 34 42 48 42 30 48 32 32 40 30 34 36 34 38 14 26 30 38 30 18 18 18 36 20 26 32 30 28 28 26 22 30 24 24 44 32 30 32 40 40 50 36 40 40 46 44 48 62 54 52 62 154 207 162 80 54 48 48 58 66 98 233 307 330 264 235 182 203 144 148 118 140 164 195 225 270 250 252 239 
18 28 38 32 34 44 40 26 38 24 28 20 18 16 32 24 24 18 24 32 34 40 30 38 36 26 34 36 42 22 46 26 32 34 42 40 40 36 34 52 46 46 44 40 46 50 40 68 54 56 62 98 186 217 205 150 50 48 54 58 66 70 144 292 327 278 197 88 80 106 94 96 116 124 138 144 150 142 152 197 
10 30 30 36 42 32 38 28 22 26 24 28 22 28 30 32 24 28 32 34 36 40 36 30 40 30 36 40 28 44 38 34 38 36 36 44 32 28 38 32 44 34 30 52 44 40 46 50 52 48 66 102 213 215 227 140 66 68 48 52 54 80 98 256 338 296 239 142 96 104 88 92 94 120 120 118 116 106 102 154 
14 26 44 34 28 42 50 56 42 42 30 24 32 32 48 32 22 22 40 36 30 36 28 30 34 40 32 40 34 42 38 32 44 42 34 42 44 44 50 54 50 46 46 56 52 52 44 64 64 58 64 108 221 245 229 150 78 68 56 50 70 70 88 178 319 330 280 164 118 96 92 108 142 138 130 124 100 108 106 128 
30 38 52 42 28 34 36 30 46 34 38 32 26 28 38 42 38 32 46 40 40 42 36 40 28 36 46 48 36 30 36 32 46 38 48 36 42 38 42 54 64 48 52 42 62 46 52 50 54 58 60 110 199 258 243 205 146 128 74 62 64 76 86 112 278 315 305 235 170 136 120 116 136 142 134 144 146 110 106 128 
22 40 38 40 28 42 28 26 36 28 30 38 28 32 42 36 36 30 34 36 38 50 44 34 40 32 46 28 48 40 28 20 38 44 48 34 44 32 42 42 54 48 34 46 50 48 46 42 64 54 54 122 174 241 262 250 225 260 176 112 92 66 88 90 233 313 330 323 193 152 126 130 158 180 172 186 172 160 172 182 
28 44 30 32 42 32 32 28 42 34 26 38 22 22 48 42 30 32 38 32 34 36 38 28 24 38 40 38 40 38 28 32 46 48 36 40 40 32 50 52 48 50 42 48 48 58 46 64 62 60 62 148 219 286 274 268 284 307 276 296 211 98 90 98 193 292 307 299 260 205 189 191 237 274 292 327 342 327 356 369 
30 44 30 38 40 52 42 36 34 42 34 42 30 38 50 34 28 42 44 48 30 30 34 36 28 36 36 32 32 36 28 40 40 44 40 40 30 22 48 54 52 54 36 60 54 46 68 62 64 74 70 180 282 299 294 305 336 354 315 342 327 140 102 154 258 319 313 309 301 311 297 307 338 354 367 421 400 383 352 340 
54 48 40 48 50 46 52 38 38 44 34 36 58 28 24 30 32 38 48 56 42 28 30 42 44 50 38 36 34 34 42 38 38 36 44 42 50 56 38 56 54 64 58 72 56 52 66 70 80 84 108 201 272 297 296 332 367 371 371 379 408 350 256 249 336 338 336 344 340 334 327 332 350 371 381 435 425 387 369 342 
24 44 48 42 46 52 38 56 42 36 26 44 42 30 30 30 46 40 46 44 34 28 42 38 30 40 38 38 38 26 42 38 28 38 40 42 44 46 38 42 40 50 48 56 58 66 66 68 62 96 122 235 260 274 323 379 385 392 412 433 462 441 392 354 361 344 319 336 325 315 309 323 330 361 361 390 406 369 330 317 
18 60 28 44 40 42 34 36 26 36 42 28 34 18 28 34 28 34 22 40 22 34 30 40 32 24 30 34 26 28 22 38 34 44 34 42 42 38 52 44 48 50 56 66 68 56 62 68 70 76 140 245 272 280 346 402 412 402 458 489 483 445 359 371 361 332 305 315 315 305 288 278 330 332 307 296 286 256 231 250 
28 44 40 46 42 34 40 46 42 28 40 28 32 10 24 24 32 24 34 36 18 30 36 22 30 40 34 32 30 36 28 38 12 22 26 36 40 38 54 60 46 48 60 52 64 60 68 66 88 88 172 264 278 290 379 418 429 447 481 477 487 443 379 371 365 332 315 286 305 299 296 297 305 319 280 284 280 256 270 272 
16 48 26 34 52 34 38 40 34 32 32 28 30 18 28 18 26 20 22 30 24 26 28 42 28 22 26 20 28 20 28 30 12 36 16 28 24 32 32 46 48 42 40 56 38 58 78 66 80 94 187 266 290 296 381 404 427 452 476 479 487 481 441 342 352 299 297 284 294 292 278 272 274 292 284 290 299 276 303 294 
20 44 32 52 28 30 34 46 34 28 42 32 28 28 30 22 32 34 24 30 8 30 24 28 26 24 28 20 30 18 32 34 18 12 26 18 34 32 46 42 42 44 52 72 56 58 62 62 78 104 223 264 280 290 325 379 435 487 464 476 498 483 447 356 323 284 282 258 282 282 266 250 258 247 258 286 296 274 307 301 
26 44 50 54 52 44 46 40 34 42 40 38 42 34 38 24 40 36 36 26 36 38 24 36 20 42 36 36 36 40 28 36 32 32 36 40 50 38 34 36 56 50 66 76 66 68 86 84 100 140 264 266 296 301 217 280 330 406 477 472 470 468 394 342 307 282 268 262 268 266 231 241 231 250 249 250 260 276 299 284 
30 58 40 50 58 40 42 38 42 54 44 38 38 42 42 30 20 40 44 34 42 30 40 46 32 36 34 34 40 48 38 36 38 32 34 38 40 36 48 58 52 70 66 82 72 66 74 84 90 162 270 274 282 286 178 126 213 330 404 427 421 416 332 301 276 260 250 249 262 247 233 205 213 231 229 254 250 272 284 284 
34 50 38 66 46 50 42 46 54 50 46 40 42 24 48 38 28 54 48 42 42 30 44 40 34 40 42 40 60 40 42 48 42 34 40 38 38 44 52 60 54 68 74 84 76 76 84 86 114 164 282 290 276 284 184 120 110 231 358 404 375 332 296 268 260 249 256 225 245 225 189 186 184 221 213 233 245 250 284 254 
26 48 50 46 52 46 50 68 42 44 68 26 38 38 62 42 42 46 42 52 54 44 58 50 40 40 38 50 46 54 54 54 62 40 50 56 48 50 56 52 64 60 68 86 82 72 76 84 88 189 290 311 286 288 219 106 92 205 325 358 334 311 288 260 266 237 233 247 235 219 186 178 158 172 184 219 243 241 272 207 
32 38 32 62 48 54 34 52 38 40 56 36 38 44 48 34 40 36 48 50 46 42 46 36 42 30 44 44 42 52 36 44 46 42 52 66 54 48 50 48 60 62 58 72 62 62 72 88 94 195 307 313 299 297 252 128 96 203 280 305 301 292 266 239 245 223 223 241 241 221 170 138 150 164 182 229 237 243 217 193 
40 56 38 40 60 32 52 38 42 50 36 38 56 38 46 34 32 48 36 52 42 56 42 54 34 44 40 34 42 42 38 42 50 38 54 50 36 54 54 62 52 52 62 54 56 56 78 64 90 201 305 299 311 309 268 174 132 219 264 270 278 250 245 223 221 215 219 233 239 207 168 148 162 162 162 211 227 235 193 201 
22 36 44 46 58 50 42 44 44 26 52 50 38 36 40 38 48 44 50 44 28 40 42 28 52 34 56 38 40 46 50 46 48 40 60 56 64 36 34 64 52 64 52 66 74 76 76 70 86 237 327 303 311 311 292 290 282 268 272 258 266 241 211 209 219 217 237 227 241 186 162 136 154 174 156 201 215 217 189 227 
30 30 42 46 48 30 52 44 36 34 40 38 34 34 46 36 34 48 52 44 48 44 38 36 38 30 48 48 46 44 34 44 48 36 50 40 52 46 48 52 58 52 52 70 60 52 56 56 92 193 288 301 327 327 301 328 317 328 288 278 266 260 235 199 213 207 217 227 217 195 144 144 150 178 152 166 191 180 207 245 
24 38 40 38 26 40 34 52 40 46 48 30 30 26 44 28 44 32 50 46 36 44 38 36 44 42 46 44 50 48 32 48 38 42 36 48 32 56 44 48 64 54 46 58 54 48 64 56 70 140 264 301 321 299 313 334 332 330 323 305 274 278 276 227 223 211 231 225 191 187 142 134 152 174 150 162 191 201 219 245 
28 40 26 36 38 48 32 46 42 28 32 42 48 40 52 40 36 48 38 32 46 48 38 40 52 50 34 44 50 48 52 44 42 40 46 46 48 42 50 52 64 58 48 48 50 52 56 56 72 92 201 270 297 319 327 344 332 330 344 340 325 284 307 286 229 219 219 215 199 203 144 158 160 162 148 170 193 199 203 229 
28 36 22 22 16 34 32 40 50 18 36 24 40 14 32 50 40 32 50 44 36 36 46 48 42 36 32 46 34 52 38 36 40 30 58 52 38 38 54 46 60 54 62 62 52 50 58 48 52 84 94 164 258 352 358 365 369 373 369 375 396 332 321 311 272 237 217 241 209 187 160 160 152 184 154 172 205 203 195 233 


