P2
80 60
658
57 89 57 65 75 79 87 81 96 93 79 93 108 93 102 100 93 106 102 102 102 108 114 93 120 136 122 122 120 112 108 116 110 124 136 128 114 132 128 130 124 126 120 122 114 122 122 114 122 150 165 177 183 195 307 367 309 345 393 428 420 395 478 556 513 540 583 598 559 460 409 462 485 446 413 409 413 383 413 395 
69 75 65 75 87 85 91 81 100 91 69 96 89 89 87 102 96 98 104 89 104 108 120 98 93 110 118 112 110 118 102 114 114 122 130 130 124 122 134 124 124 112 122 108 112 132 102 102 116 152 156 154 187 197 293 363 303 299 411 411 411 417 509 577 592 602 629 637 647 569 452 422 442 434 395 393 391 373 409 373 
55 83 85 69 91 75 71 73 91 89 77 85 106 85 100 100 108 100 104 96 104 112 114 106 118 112 118 116 108 128 110 124 116 124 120 118 118 110 120 120 130 116 124 120 112 108 104 122 120 106 140 150 179 189 273 365 317 301 407 450 466 489 587 567 585 606 643 658 647 616 491 462 485 444 387 377 377 401 452 480 
65 79 55 67 73 79 71 96 110 98 79 100 89 85 83 100 89 93 91 93 104 89 110 96 98 102 120 108 116 106 116 122 122 116 118 112 120 114 122 124 122 112 130 108 118 112 106 116 120 112 132 138 171 167 241 337 309 319 422 505 552 587 649 621 616 602 620 649 641 612 519 458 505 505 466 438 428 480 507 489 
55 79 63 67 73 87 63 89 75 83 98 79 104 102 112 102 100 100 98 83 110 93 114 93 100 126 110 120 100 102 120 106 116 118 122 116 116 110 122 116 114 120 106 106 112 112 110 112 108 106 116 96 110 106 152 293 281 325 420 511 575 614 625 596 633 639 635 631 629 620 550 483 491 491 478 503 509 485 489 480 
53 81 57 67 79 91 69 73 93 89 85 85 96 102 108 91 104 110 98 91 104 93 110 98 98 106 102 114 110 114 110 96 112 102 116 116 112 106 110 124 116 112 120 114 110 122 114 106 112 112 102 106 116 114 126 227 245 327 458 497 517 575 621 604 633 639 604 579 532 513 525 523 540 530 519 525 515 474 485 464 
65 87 67 83 91 93 77 75 110 89 89 83 100 104 89 100 83 83 91 81 102 93 98 96 98 104 106 110 98 108 122 114 114 122 114 120 120 116 122 114 120 118 118 112 122 130 126 114 120 114 122 104 104 96 104 156 209 307 458 519 509 565 629 631 598 600 544 480 478 523 503 511 538 527 527 534 519 476 452 411 
55 87 83 89 91 93 77 91 100 98 85 89 96 85 108 100 93 96 100 98 110 85 114 104 110 116 106 120 110 110 112 118 120 120 140 138 126 138 132 122 126 142 122 120 126 138 132 128 126 118 126 124 120 110 126 130 140 179 239 369 367 513 627 604 536 563 528 489 509 517 515 497 523 540 528 527 481 426 411 371 
43 83 79 75 83 89 87 89 89 87 89 87 108 89 114 104 104 89 93 118 102 108 114 116 102 104 126 126 122 134 128 126 136 110 132 132 134 130 144 136 134 138 132 128 142 126 132 142 132 130 122 124 120 114 120 122 114 128 124 146 167 255 485 503 476 438 470 513 507 528 550 546 532 544 511 487 413 389 375 385 
53 75 77 75 81 75 77 91 102 93 108 108 104 102 104 106 120 110 110 120 116 108 106 110 114 122 124 124 136 122 138 128 132 138 136 136 134 126 148 132 150 142 142 148 146 140 144 132 144 130 128 132 124 110 116 110 118 124 114 124 142 185 367 507 501 460 493 519 499 499 542 563 546 527 462 422 415 399 387 387 
59 73 83 93 110 85 83 98 96 108 83 114 112 106 98 106 108 116 104 102 100 126 120 116 120 124 126 128 126 124 122 130 130 136 138 140 134 130 144 140 148 140 136 146 150 150 134 138 152 144 120 124 118 116 120 116 120 136 124 130 138 156 373 489 523 517 491 509 478 487 509 519 480 468 413 397 415 411 401 389 
65 83 102 85 89 116 98 112 102 124 96 108 108 106 100 130 112 124 118 118 120 128 112 130 124 130 120 142 136 118 132 138 138 132 148 136 140 146 146 136 140 146 161 128 132 140 146 148 138 130 136 138 128 126 124 110 116 122 116 132 134 150 329 472 497 525 511 507 452 405 420 415 413 411 369 383 397 391 399 391 
57 89 79 77 91 106 85 100 93 100 108 106 116 112 104 110 104 106 106 106 116 116 122 116 124 132 128 124 120 122 134 140 142 138 130 140 136 136 144 136 136 146 140 136 144 144 146 154 144 146 132 130 130 118 128 120 116 130 130 134 138 140 245 387 442 454 468 499 446 428 413 395 375 389 377 393 383 379 387 401 
49 91 87 85 112 104 93 120 120 110 112 112 112 112 104 110 114 106 110 110 124 112 130 120 120 134 124 128 136 146 128 132 146 140 140 150 132 144 146 140 148 144 150 140 142 150 138 142 146 146 156 122 128 122 124 126 116 134 114 136 140 161 181 263 391 430 450 448 442 418 434 422 403 387 379 391 403 375 393 405 
57 91 83 81 89 102 100 102 112 110 106 122 146 110 104 122 112 120 110 98 124 116 108 118 116 128 118 132 134 142 136 130 136 144 136 144 136 146 154 150 134 142 148 136 142 144 138 138 132 136 134 138 126 122 124 120 118 134 128 124 152 169 189 183 297 397 401 418 438 438 454 444 407 335 319 339 351 371 381 397 
69 96 85 91 100 114 89 106 106 102 106 128 114 116 114 108 114 108 104 114 126 112 126 122 130 122 118 126 130 134 128 132 134 136 148 130 136 138 146 132 150 142 150 130 146 134 134 136 132 136 126 130 126 122 120 120 120 130 126 126 163 279 239 195 193 317 391 415 411 415 432 442 426 363 313 287 281 281 393 418 
77 96 87 91 100 112 87 110 118 114 85 110 134 114 102 100 110 108 108 122 116 110 114 108 120 122 116 128 130 128 132 132 122 130 130 132 140 122 136 132 136 134 134 134 138 134 148 124 140 138 132 128 132 108 116 122 106 118 120 158 249 413 418 331 231 231 353 413 440 417 407 420 409 409 418 409 409 424 507 501 
67 106 93 110 100 93 108 100 116 112 112 112 114 104 108 130 104 100 118 104 108 106 120 116 120 138 118 128 118 122 122 130 124 152 122 134 138 140 134 136 136 130 124 142 138 142 144 138 142 132 142 142 128 110 124 126 116 126 128 239 353 343 497 565 454 285 299 393 409 430 422 415 407 420 452 483 480 509 567 530 
81 104 108 102 98 102 93 106 108 110 102 106 108 108 100 122 106 114 104 100 110 110 110 112 118 118 112 112 116 118 124 116 122 110 132 126 136 120 130 134 134 124 136 154 140 148 142 144 148 140 140 146 128 128 128 134 130 136 163 243 436 456 501 565 554 503 395 415 407 399 428 418 405 385 353 353 448 511 573 558 
67 106 93 87 118 85 79 102 104 106 118 100 98 112 100 114 112 122 98 102 102 108 116 112 122 126 116 114 116 114 136 128 120 118 138 128 140 140 144 140 136 148 142 150 140 138 142 150 156 146 144 134 150 140 154 130 140 165 158 175 257 444 575 573 567 573 538 485 436 454 446 462 420 307 243 225 321 487 527 521 
85 126 93 89 104 102 89 89 104 100 96 108 108 102 108 120 102 118 112 110 120 112 120 106 132 118 126 126 124 116 130 140 132 134 134 144 138 138 152 156 136 148 146 150 154 140 138 152 158 156 152 156 161 154 152 156 156 167 161 177 195 331 501 550 573 585 556 540 538 527 525 515 432 275 217 223 241 313 409 409 
81 112 91 102 96 98 91 98 120 93 93 106 108 108 106 116 118 110 104 114 110 118 122 118 128 126 138 130 120 134 140 146 126 142 136 144 156 150 150 142 146 152 158 167 152 150 156 156 165 161 165 177 219 219 183 175 173 175 175 191 183 233 422 487 485 499 515 536 550 538 538 548 489 361 245 251 247 243 321 373 
59 108 100 89 100 100 100 98 110 104 96 104 116 108 114 122 124 128 116 110 130 120 116 120 120 124 122 130 134 128 134 146 134 148 132 152 136 142 148 130 146 144 163 148 156 158 152 154 154 165 183 255 343 301 259 245 263 261 223 203 201 281 420 422 391 415 430 458 507 521 546 532 481 363 285 293 285 273 341 379 
65 106 96 106 106 120 114 104 110 110 106 98 120 128 116 124 106 128 110 120 122 126 126 128 130 126 132 124 132 132 136 142 150 146 128 144 142 150 146 154 142 144 142 140 150 161 163 154 169 173 239 413 460 369 349 323 367 446 432 305 255 381 418 393 387 387 385 436 474 497 511 513 468 393 335 319 309 333 397 399 
79 110 102 98 108 102 104 104 102 98 102 114 112 118 124 124 114 122 112 118 116 124 128 112 136 124 130 126 126 136 138 144 140 161 150 146 138 140 146 142 144 154 142 158 158 148 175 156 171 179 331 472 491 399 399 430 426 515 577 542 450 422 407 393 417 387 373 418 440 454 476 485 499 446 418 405 403 399 415 397 
91 110 100 100 102 112 98 100 106 102 114 106 100 106 116 126 114 114 114 108 110 118 114 134 140 124 158 132 128 132 122 146 144 148 148 158 132 140 150 142 128 150 148 142 165 163 163 177 163 183 363 456 450 381 385 446 527 546 528 542 530 489 403 389 456 397 349 361 385 424 460 456 521 476 474 450 424 420 415 397 
75 126 98 91 112 102 91 106 116 106 98 102 114 124 106 124 118 114 118 124 126 122 134 124 116 132 128 132 122 128 134 144 148 136 134 140 140 132 146 148 138 150 146 156 169 163 171 163 179 177 351 426 418 379 393 420 546 559 483 442 507 503 385 373 424 389 347 355 373 387 444 436 515 505 476 493 456 422 424 417 
77 118 106 93 104 96 98 116 124 122 114 118 112 110 118 120 128 122 112 122 118 116 122 122 124 130 126 130 142 144 134 132 130 144 142 138 142 148 152 148 158 156 146 156 152 173 163 169 171 179 289 359 319 341 434 395 511 548 544 525 517 478 345 391 424 405 355 353 353 381 381 442 491 493 485 497 468 418 420 411 
87 104 93 102 104 110 100 93 120 104 114 108 116 110 116 110 120 118 118 126 116 130 124 128 146 126 138 130 134 142 134 152 148 138 144 134 134 150 150 136 150 154 142 148 154 171 167 165 167 161 197 265 277 291 369 472 532 571 575 573 525 438 391 434 424 391 341 321 357 367 349 450 474 470 472 483 470 430 434 422 
71 98 108 112 108 114 98 116 120 114 116 126 108 112 116 128 110 112 112 128 124 132 126 126 126 126 128 128 130 138 130 140 138 140 152 144 132 136 142 140 156 154 150 175 161 165 161 148 158 156 163 169 177 195 261 369 411 440 430 487 466 393 424 399 407 405 391 389 371 343 347 389 401 438 444 462 442 438 450 442 
73 100 110 116 122 114 116 100 110 114 106 104 108 106 116 124 118 114 116 114 128 132 138 130 132 130 140 140 132 136 138 136 140 140 142 152 138 134 148 148 161 142 167 223 185 158 175 156 146 163 154 156 154 158 177 183 211 203 227 341 420 411 405 395 415 415 422 397 335 319 353 401 397 436 401 422 407 430 470 442 
75 114 102 108 102 106 100 104 104 118 114 112 124 100 108 120 118 128 110 118 120 116 120 120 126 120 132 124 136 122 130 134 130 140 140 134 132 130 140 134 142 177 267 428 420 223 173 156 163 156 152 136 146 138 146 158 152 179 185 361 422 417 405 397 387 401 391 393 361 349 375 359 369 389 377 418 409 434 448 450 
71 122 102 108 96 93 104 108 104 96 112 98 98 112 120 118 108 110 110 106 98 106 122 120 114 122 116 120 124 122 120 130 132 130 126 132 126 144 132 126 138 197 420 497 495 313 146 142 154 163 132 152 154 138 134 142 156 165 233 393 428 424 417 422 450 452 428 417 359 347 327 309 309 327 359 403 407 417 405 454 
71 110 91 102 98 91 93 108 106 112 102 96 110 102 98 102 100 104 98 114 116 116 124 110 112 120 128 116 110 124 120 128 122 126 116 126 120 124 136 142 126 158 369 511 501 321 169 165 148 150 142 144 148 146 146 138 142 183 345 430 420 448 485 489 483 440 418 411 339 339 295 299 295 307 349 367 409 415 424 472 
81 106 96 87 110 91 120 114 112 102 96 100 104 100 110 106 100 112 104 110 110 106 114 114 112 120 124 112 122 136 124 126 136 114 136 134 126 130 136 132 152 152 231 470 519 420 199 171 165 150 163 150 158 156 156 146 161 221 413 438 487 530 592 542 513 501 452 399 333 315 291 283 275 295 327 377 409 399 444 481 
83 120 120 100 122 104 102 108 104 110 114 110 104 116 110 108 114 116 114 110 110 130 120 118 122 136 126 128 122 130 120 130 146 136 130 134 132 142 144 146 150 144 165 295 460 501 385 235 185 177 158 150 154 150 152 158 187 363 466 476 503 497 527 528 476 456 464 418 367 327 301 275 287 299 315 353 377 357 434 452 
83 122 114 96 102 104 102 136 120 130 96 118 114 122 116 122 122 118 122 118 124 114 126 122 128 124 134 128 132 132 132 148 136 136 140 144 146 146 144 146 154 154 163 191 315 460 474 460 367 299 209 185 167 171 148 197 301 460 476 489 491 468 481 487 417 371 313 363 357 299 289 295 309 325 319 331 333 325 389 450 
75 112 108 106 93 112 102 130 122 106 134 108 126 120 118 128 130 116 118 126 128 124 118 128 122 122 138 128 130 136 132 138 150 146 140 144 140 148 156 154 146 148 158 161 183 259 393 458 466 440 436 413 317 241 209 271 432 521 532 521 527 493 478 387 301 281 239 239 225 221 231 229 231 233 233 263 267 307 321 321 
69 114 83 96 98 104 89 112 112 114 104 102 116 104 120 136 106 112 140 122 118 122 130 126 126 126 146 136 130 140 128 140 132 138 161 146 140 152 152 152 154 156 165 158 163 175 213 329 446 470 456 454 478 413 367 385 452 480 501 489 480 448 411 283 213 201 195 209 203 211 209 219 217 205 201 207 207 201 217 201 
67 116 108 91 100 118 110 114 130 124 112 136 128 122 130 142 120 130 124 112 122 136 130 118 136 124 156 126 136 130 132 144 138 150 144 150 136 148 146 156 146 146 152 154 161 175 177 191 311 430 472 476 485 481 483 468 466 472 476 470 418 339 297 229 191 177 177 205 183 213 213 221 197 211 209 203 199 177 183 179 
67 120 112 89 98 110 106 120 114 128 110 116 116 126 118 130 122 122 120 130 122 118 124 128 132 140 138 128 122 134 132 144 148 150 156 144 134 165 152 152 158 154 161 152 165 173 163 177 187 257 413 462 517 505 480 489 513 493 415 323 253 227 231 217 177 181 193 199 195 215 217 207 207 221 205 199 193 169 175 185 
75 106 93 85 116 104 87 120 116 118 96 118 114 130 116 122 130 122 122 122 124 124 120 140 134 134 134 128 134 128 152 142 138 154 163 140 138 150 154 150 150 163 156 148 156 163 167 165 167 183 227 279 397 476 505 487 456 331 251 225 205 189 217 177 177 193 199 197 201 217 221 229 247 235 209 195 171 161 169 163 
55 93 85 89 104 87 108 112 118 112 102 120 122 118 118 126 118 118 116 112 124 120 126 122 134 128 126 136 138 130 134 138 142 140 144 136 134 156 142 146 156 161 158 148 163 169 161 177 165 165 197 205 213 287 333 307 285 227 197 235 223 241 247 221 193 201 205 227 221 231 245 247 243 253 219 197 173 150 173 185 
51 85 104 96 100 98 104 108 116 110 98 128 120 128 118 126 132 118 128 118 124 118 122 128 120 144 130 130 128 128 144 136 138 138 142 138 140 124 148 146 161 167 169 152 169 163 163 163 175 177 169 158 165 189 207 183 197 245 267 359 411 413 428 381 299 259 221 229 225 233 259 265 265 249 253 247 239 217 225 233 
81 108 87 100 91 106 104 116 96 100 102 112 112 112 122 108 122 112 108 126 124 124 124 138 126 130 128 128 138 128 134 156 138 134 140 136 136 142 150 154 150 156 156 173 158 169 173 165 183 175 171 165 165 185 181 201 265 405 424 458 472 466 487 458 399 307 255 249 237 239 267 285 257 275 273 279 271 255 261 235 
65 116 89 89 102 91 104 104 118 102 108 102 128 126 114 134 124 122 134 116 110 122 112 122 134 138 138 120 128 140 128 130 136 128 140 136 140 138 142 146 134 154 144 173 169 179 175 175 163 173 177 163 167 177 207 293 385 442 460 476 489 485 536 501 460 357 279 271 251 259 285 283 253 265 297 295 287 275 299 265 
63 96 110 100 96 93 102 104 114 106 102 98 106 93 108 114 114 116 116 112 122 124 124 132 122 136 134 120 140 138 126 140 134 146 134 142 146 146 144 144 146 158 171 167 169 179 181 175 187 189 193 201 213 235 287 383 413 444 452 462 472 489 538 493 418 381 331 323 309 311 301 289 271 251 299 287 295 267 263 255 
63 116 96 100 77 114 96 104 110 104 100 89 112 100 100 100 124 114 114 112 106 128 134 114 124 122 124 120 134 128 128 130 144 140 136 134 130 138 136 146 152 158 163 161 179 175 189 161 173 217 303 307 299 331 347 361 403 446 456 472 491 489 462 436 407 383 363 367 361 365 335 335 321 317 337 331 303 271 263 257 
73 114 98 79 85 91 98 91 112 98 102 91 104 120 116 98 98 108 122 98 112 110 118 106 112 114 122 106 110 120 112 114 120 120 122 136 136 128 134 136 144 154 154 169 161 185 171 179 201 269 329 359 311 333 327 385 359 327 361 440 460 424 434 413 391 367 363 365 349 343 353 345 355 385 391 397 397 345 367 351 
65 136 114 93 81 91 98 120 100 108 96 98 104 112 106 112 114 120 108 114 116 110 114 126 122 106 124 122 110 128 142 100 128 124 136 132 124 146 136 148 156 146 154 171 171 181 177 233 295 327 383 371 385 379 434 450 353 293 393 452 460 458 420 381 357 373 385 367 331 291 319 309 341 371 411 422 422 407 430 409 
51 102 108 100 108 106 104 91 118 102 106 108 110 122 110 122 120 120 128 112 112 130 106 124 120 122 136 122 118 124 128 118 128 128 146 138 132 128 142 144 152 154 163 167 175 177 197 269 323 363 393 428 413 491 589 592 583 485 446 452 442 407 389 349 325 345 351 317 291 267 279 293 305 357 395 424 434 420 438 426 
57 110 93 79 87 96 83 102 102 108 93 106 106 114 108 112 116 122 130 116 118 120 136 120 134 128 128 120 124 130 126 134 134 138 136 140 140 150 154 142 158 150 181 175 177 193 183 227 279 401 491 534 559 579 594 585 602 587 583 577 511 397 387 343 325 319 317 273 231 245 273 281 323 327 365 411 430 426 434 409 
59 104 108 93 87 96 93 104 98 106 87 108 106 104 108 118 108 114 118 118 110 138 134 136 128 114 122 132 128 122 128 140 134 140 148 140 142 150 154 138 142 154 163 171 181 191 165 217 305 409 530 575 590 589 590 554 513 534 579 573 552 417 395 345 331 323 283 265 221 207 251 285 311 305 317 391 418 422 438 415 
59 110 116 91 96 89 110 100 112 87 108 106 93 108 104 124 122 98 122 108 120 118 132 120 132 134 134 122 142 136 140 132 144 144 132 148 144 161 144 130 158 161 169 177 185 191 187 187 283 373 503 556 604 600 567 521 472 483 478 546 546 387 381 355 317 297 287 291 251 209 205 241 271 311 317 367 401 389 413 387 
63 112 104 91 75 104 98 89 98 100 108 89 114 110 116 136 120 118 114 114 124 124 132 116 140 132 130 126 124 136 140 130 150 146 138 154 138 144 152 144 167 156 158 177 177 185 185 181 225 301 456 505 542 569 579 538 476 481 456 530 525 403 389 347 341 333 309 299 283 259 156 150 231 285 311 321 375 349 405 359 
57 100 100 89 89 98 81 108 102 112 104 93 93 110 110 126 106 110 120 108 114 110 128 124 130 116 132 142 130 124 126 132 138 146 136 138 146 154 132 148 154 169 156 171 169 177 171 183 181 245 385 466 481 528 552 556 536 517 511 538 528 430 430 383 371 331 339 309 311 273 116 79 161 261 305 313 331 339 383 355 
61 89 93 98 93 106 93 104 104 108 83 112 102 106 114 116 124 110 104 120 126 116 126 124 118 130 132 134 132 136 128 136 142 130 144 136 140 136 138 156 138 150 146 142 148 163 158 173 183 175 219 237 255 293 345 387 339 325 367 458 466 442 415 375 347 343 313 319 331 257 77 0 154 223 277 299 297 315 353 343 
55 112 110 100 89 87 96 89 110 118 108 108 98 110 110 110 124 126 110 116 118 130 138 118 124 138 138 142 132 136 138 142 138 144 138 146 138 140 150 138 142 154 146 158 171 165 152 165 152 158 175 189 185 173 183 195 175 205 289 399 430 401 415 371 345 325 329 337 309 235 116 8 148 217 259 297 281 309 333 331 
73 100 91 85 89 83 81 93 98 98 81 106 93 96 110 120 106 108 116 116 114 110 110 118 116 128 130 122 122 128 122 130 138 134 136 150 140 144 142 146 140 150 154 140 136 146 150 148 152 163 156 171 152 154 154 154 152 181 251 403 424 430 418 377 333 301 293 315 295 239 171 81 187 235 287 293 273 301 313 319 
57 108 85 73 91 83 85 91 104 87 85 102 104 102 108 102 106 104 112 114 114 122 120 118 116 124 130 122 128 138 118 126 144 128 130 140 140 144 144 138 132 140 134 136 142 144 140 154 142 150 156 148 136 142 144 134 148 197 273 428 430 407 403 371 365 313 293 303 313 287 221 156 189 261 275 297 297 309 315 309 


