P2
80 60
596
61 89 87 61 63 65 67 52 63 85 69 81 85 101 75 63 81 75 81 69 63 54 58 73 67 67 81 121 270 431 409 382 346 328 230 111 126 111 121 103 97 109 188 314 413 466 460 446 405 328 230 188 174 156 128 105 109 109 107 115 123 132 130 144 134 144 148 115 115 119 107 87 99 101 89 83 83 87 93 77 
61 46 73 61 61 54 71 52 56 81 75 69 58 65 73 75 65 77 83 67 54 42 56 52 52 61 95 216 387 443 421 344 322 242 210 286 310 278 262 214 208 196 234 276 382 476 478 466 437 374 290 264 256 238 200 176 132 136 132 121 144 134 140 134 136 150 142 126 107 101 85 73 77 63 71 77 69 52 69 81 
56 56 48 50 63 52 61 58 61 71 67 77 50 61 61 67 56 40 71 69 42 54 38 56 58 83 119 338 425 456 356 238 238 230 322 356 376 328 332 324 324 356 401 401 423 462 476 478 454 431 306 268 276 268 246 218 220 206 214 218 206 208 200 174 172 160 152 126 117 105 93 83 85 77 77 71 61 83 67 65 
56 63 58 54 73 52 56 63 61 63 73 69 73 63 58 56 63 56 73 71 58 56 52 75 69 89 164 399 405 425 399 360 346 378 399 378 364 336 332 328 338 352 407 415 427 468 446 429 454 364 300 254 296 284 278 230 250 220 230 236 246 258 260 292 298 286 262 198 144 128 121 95 99 83 85 85 99 97 81 107 
61 63 48 52 81 54 61 65 71 65 69 67 67 65 63 69 63 67 73 69 56 52 67 75 71 101 132 419 439 445 435 401 423 427 383 356 336 318 332 322 324 346 393 374 362 360 320 272 290 258 280 314 328 302 282 272 266 250 250 248 262 248 278 316 344 360 358 296 230 210 180 146 123 113 105 95 105 111 144 182 
67 48 52 65 67 50 75 54 75 69 75 73 56 81 71 75 77 79 67 85 65 83 73 83 79 111 136 332 446 484 482 458 472 425 358 324 326 316 330 316 314 322 334 296 262 262 238 230 222 220 280 304 296 276 248 246 262 272 254 258 278 308 322 342 358 354 344 304 242 230 248 234 192 180 170 194 188 200 212 196 
65 67 63 65 69 75 56 85 71 67 77 83 75 83 81 75 79 93 95 87 91 93 91 115 103 115 154 320 480 521 511 486 472 421 358 326 324 312 306 308 310 294 270 264 250 256 238 244 226 232 306 304 290 272 266 262 282 310 274 324 354 360 338 338 352 356 340 284 232 220 232 244 240 256 246 232 226 228 236 232 
54 65 63 63 79 73 77 79 65 73 69 87 91 95 77 89 77 79 109 91 97 107 126 158 134 162 240 362 468 511 511 495 470 399 340 320 334 324 338 342 324 320 296 276 264 260 242 242 220 236 312 312 310 306 274 288 306 316 314 360 370 376 370 382 376 374 352 258 226 230 252 260 242 246 238 242 234 226 254 226 
58 63 69 75 75 75 71 71 79 79 65 89 83 87 85 75 85 99 121 174 248 316 378 425 358 380 450 542 476 495 501 478 445 393 332 314 336 344 382 368 362 356 338 310 280 284 262 250 246 232 288 300 296 276 254 280 312 354 364 370 370 391 378 397 380 358 332 280 244 258 290 282 248 220 224 226 226 232 246 236 
52 77 65 65 65 69 61 75 79 85 89 87 87 79 83 91 85 99 190 314 437 503 515 538 532 534 552 596 515 448 454 407 397 352 316 310 324 348 389 411 393 368 334 310 274 296 282 270 268 244 254 306 282 272 260 280 356 378 407 393 405 401 393 401 382 354 318 276 260 250 268 270 260 238 208 228 208 194 204 200 
61 69 73 81 73 69 75 71 79 73 71 81 81 69 79 81 77 101 266 446 460 517 490 497 501 503 546 579 538 462 405 344 330 332 324 310 338 344 399 409 417 368 354 326 294 308 300 270 270 266 258 304 292 296 282 318 391 397 403 403 391 382 385 368 366 320 268 246 216 204 214 248 210 212 194 210 192 190 196 198 
61 79 71 69 85 77 73 75 79 85 65 87 69 77 97 85 91 128 304 499 488 511 468 462 482 493 503 548 526 493 443 448 433 405 362 332 368 374 395 403 403 409 399 374 338 332 324 306 294 292 278 312 340 338 328 350 378 395 395 391 376 364 324 308 292 270 248 220 198 196 176 180 166 172 180 170 194 182 192 184 
58 71 63 65 75 83 73 79 69 73 77 79 85 101 73 77 87 111 284 497 492 503 488 486 501 486 413 344 370 407 474 505 490 470 413 366 344 362 385 393 397 403 415 399 354 348 354 334 336 320 306 316 368 334 344 328 310 350 354 350 340 290 248 220 208 188 204 182 166 174 158 160 166 160 148 146 140 164 168 160 
61 79 73 69 73 87 85 71 75 77 81 71 73 71 71 73 83 107 186 397 476 470 528 515 492 389 204 146 224 308 421 480 497 488 454 397 350 356 376 376 397 405 429 421 419 395 385 374 364 364 344 322 360 344 324 322 326 324 302 256 200 176 164 150 154 166 194 184 164 154 160 154 166 170 134 130 123 136 154 148 
67 75 65 83 87 73 81 63 75 73 81 79 89 69 75 77 87 105 142 240 372 409 368 304 220 152 113 140 148 206 393 478 468 456 441 405 389 395 397 395 413 409 445 480 490 482 466 458 446 433 403 380 389 374 372 409 415 312 240 206 178 152 158 166 170 182 206 180 186 182 176 168 156 146 140 130 126 136 136 158 
65 79 73 67 67 87 69 61 75 77 73 75 71 63 73 77 83 89 93 107 128 148 130 115 103 123 115 130 111 158 284 454 417 389 383 380 417 401 395 441 476 493 521 548 528 517 523 536 528 524 515 478 464 466 488 484 460 439 364 276 178 150 162 166 164 182 194 192 202 204 192 194 154 162 134 128 115 119 115 119 
58 77 77 69 83 61 69 71 77 83 75 77 73 73 77 83 77 81 93 97 73 77 87 95 97 109 111 144 113 150 182 320 401 423 446 427 405 330 286 312 425 476 499 524 493 511 499 490 490 484 476 464 488 486 486 466 468 445 376 234 168 158 174 168 170 176 194 176 168 206 216 194 148 164 128 123 130 123 119 126 
58 83 65 81 65 71 77 73 65 83 77 71 91 83 83 87 77 95 87 99 91 87 95 99 101 121 121 132 121 158 170 178 242 328 364 374 320 294 284 252 336 409 429 429 423 454 468 450 448 417 387 370 441 466 470 454 480 417 252 166 160 154 152 168 168 166 202 194 166 170 196 174 154 152 136 119 132 130 121 130 
65 81 83 73 65 69 89 77 81 81 87 75 69 93 75 85 87 87 101 87 81 81 89 103 89 119 123 123 123 150 158 182 184 230 316 336 324 316 302 250 296 380 401 401 382 399 417 415 435 439 374 360 407 454 460 450 454 452 262 196 182 164 164 166 178 176 188 184 172 166 186 176 148 152 134 140 136 123 136 140 
71 95 79 75 77 71 71 79 75 79 83 79 69 73 77 91 83 99 101 97 81 83 95 99 99 109 121 130 107 156 168 202 312 338 348 324 310 316 330 310 312 342 376 378 356 376 378 380 356 320 286 276 298 358 443 452 439 393 385 304 294 228 194 172 176 172 184 196 178 162 176 168 142 152 134 132 138 140 144 146 
58 87 73 93 81 73 71 81 75 83 79 91 91 85 81 83 89 105 109 95 93 87 103 113 113 126 121 142 128 164 190 318 338 306 280 244 218 204 188 270 322 316 268 252 242 244 260 252 254 284 280 226 212 238 292 362 399 362 366 346 312 260 210 208 192 168 174 186 182 160 180 174 180 180 152 162 152 146 154 166 
63 87 77 77 85 71 81 58 71 85 75 69 73 93 79 79 75 93 97 97 93 87 103 113 111 119 128 144 128 172 230 376 366 332 308 276 278 240 196 208 232 206 134 164 230 216 208 228 226 306 258 198 206 242 236 270 320 324 318 310 278 222 210 206 188 184 196 200 216 224 224 230 250 284 272 256 248 220 208 182 
71 87 79 79 83 85 91 77 73 75 77 83 87 83 87 89 93 89 103 91 85 99 105 132 130 150 144 152 132 182 264 366 356 342 368 378 306 250 228 200 152 123 136 180 182 190 246 244 210 260 222 208 208 228 220 234 256 256 250 244 214 198 200 198 202 202 202 218 246 268 272 268 266 310 298 288 280 278 284 260 
67 83 91 81 83 85 73 75 67 75 77 87 85 89 81 91 91 95 97 111 111 156 198 214 234 280 202 164 158 216 334 332 334 336 419 368 264 210 168 121 119 146 150 158 142 194 210 198 236 218 232 206 196 206 228 244 228 234 228 206 190 192 204 188 182 174 196 236 248 264 252 234 224 258 262 270 254 260 268 266 
65 91 89 69 81 87 87 75 89 77 77 91 81 75 77 77 93 91 101 119 178 256 294 362 464 480 419 340 292 330 360 328 328 318 342 280 242 170 115 91 111 128 160 156 170 182 174 206 236 226 224 206 196 240 224 240 220 234 232 208 178 188 196 192 188 188 212 238 270 266 250 228 232 258 264 252 260 246 252 268 
77 79 77 81 85 79 73 91 75 79 91 85 73 71 79 89 79 97 109 168 300 336 358 474 503 536 517 466 439 419 346 318 330 310 268 236 204 130 87 63 85 103 142 162 162 160 178 198 242 242 228 192 204 226 248 254 232 204 214 202 240 216 204 194 206 204 220 222 268 254 220 204 222 232 234 220 202 204 200 190 
79 89 79 79 87 81 77 79 81 87 93 87 95 87 79 79 79 109 117 194 342 350 454 534 503 501 503 427 417 429 358 306 340 322 278 252 206 121 79 85 123 119 136 138 150 190 192 212 234 230 248 200 192 216 224 268 232 214 210 236 288 258 244 236 232 244 240 230 238 228 214 194 186 192 180 172 162 166 166 172 
77 85 75 89 85 81 83 79 81 85 85 85 75 81 87 85 79 109 115 190 274 382 484 509 470 435 464 399 413 411 326 302 354 298 258 252 218 148 113 134 121 115 126 150 176 188 182 190 212 236 254 212 212 198 230 240 228 206 210 228 256 246 254 236 228 252 254 232 246 258 222 218 202 198 218 226 202 214 212 200 
71 85 81 69 79 83 75 75 67 85 85 79 75 75 83 77 77 85 105 176 262 364 443 507 492 472 472 407 391 399 314 314 360 292 246 238 190 77 63 73 79 99 140 148 160 180 180 204 218 262 244 208 210 226 244 232 224 208 218 208 206 210 254 244 242 242 242 214 216 266 264 244 258 256 284 274 284 306 286 274 
71 85 69 87 77 77 69 83 85 67 89 81 67 65 77 77 71 81 107 136 180 270 282 366 448 478 403 324 264 310 300 316 328 262 234 208 192 109 93 73 67 87 160 172 158 186 192 208 220 274 230 194 214 246 226 222 220 220 224 194 196 198 216 212 214 222 222 188 180 256 270 268 268 260 278 298 314 322 308 270 
73 77 85 95 83 89 75 67 75 87 79 79 71 63 79 85 83 93 83 109 107 128 138 172 180 206 170 136 121 210 306 320 274 258 264 248 234 202 146 103 113 109 162 172 150 152 170 204 202 236 220 176 192 222 228 202 214 214 214 216 186 190 216 232 222 208 192 158 154 252 266 290 288 280 296 298 300 310 288 222 
73 85 77 77 91 91 71 75 75 73 85 81 79 89 85 91 81 93 99 85 79 93 89 97 93 105 117 123 113 172 314 294 252 252 268 276 278 230 202 186 174 164 166 160 128 136 156 200 196 202 224 184 172 190 194 212 234 248 268 238 174 168 198 216 190 176 148 105 121 224 238 252 250 252 250 248 230 202 178 134 
75 81 79 93 113 83 75 89 71 83 73 79 97 81 93 81 95 93 103 77 77 77 85 89 95 101 103 119 109 162 272 290 288 264 254 204 202 164 156 152 148 154 152 170 126 160 148 180 190 234 242 192 160 172 184 220 236 254 272 254 204 176 178 148 136 113 99 73 101 172 192 194 186 198 186 160 148 132 144 138 
71 85 73 85 85 99 97 73 89 83 87 79 95 87 79 87 99 95 99 99 71 87 85 85 91 107 115 117 101 148 256 336 324 310 224 130 28 69 170 194 176 178 182 158 170 186 208 222 226 266 254 210 172 186 212 208 222 228 240 248 234 180 148 115 101 89 95 95 128 186 194 186 160 144 132 115 126 113 123 134 
85 75 87 85 75 89 93 79 85 81 97 99 87 87 95 91 85 97 95 97 73 75 87 99 85 97 101 119 107 134 204 294 320 292 200 79 0 126 250 292 288 212 156 138 123 166 176 188 192 194 212 198 188 172 182 194 192 180 204 198 204 150 107 99 101 107 111 123 168 184 200 174 158 156 132 126 115 115 115 128 
71 91 79 87 83 69 87 75 77 99 97 91 85 89 81 83 91 93 97 99 81 87 75 91 97 109 101 123 103 140 152 210 280 248 240 196 190 232 266 280 354 358 328 314 266 262 240 222 190 172 186 184 194 218 264 270 280 262 200 152 138 130 132 132 138 148 176 160 176 204 200 180 168 144 123 132 132 123 119 111 
83 89 83 99 79 91 93 89 99 89 107 91 93 97 93 105 97 95 107 99 89 85 89 99 95 123 121 132 115 123 148 154 182 232 234 202 212 220 230 280 395 370 360 346 354 370 374 374 320 270 242 260 310 330 332 350 374 360 294 176 132 119 144 136 158 160 170 168 182 184 184 170 166 162 134 130 130 128 115 109 
85 79 69 97 75 89 79 79 89 95 97 91 101 95 89 99 95 89 115 91 77 87 85 99 89 103 117 121 101 150 156 162 152 180 192 186 172 146 160 290 380 376 380 370 348 385 393 378 362 366 354 372 358 362 383 380 401 403 366 218 136 136 138 144 154 166 164 178 154 180 168 166 154 152 132 111 101 107 119 119 
58 91 75 79 77 83 87 85 93 81 89 97 95 107 95 97 93 93 113 93 77 95 89 107 109 121 132 166 166 254 272 268 262 230 244 232 246 220 272 346 389 383 374 372 368 376 395 391 380 378 354 352 352 352 370 356 376 300 334 176 140 130 138 140 152 162 180 168 168 166 148 158 156 134 113 113 115 128 136 117 
56 91 87 81 75 91 91 79 97 99 109 134 126 113 140 132 123 103 117 103 83 93 85 95 126 198 258 266 260 288 296 276 262 268 264 280 366 387 409 425 429 383 352 342 362 395 399 356 348 310 256 204 206 234 248 210 194 168 176 148 144 123 142 138 140 150 162 160 160 168 164 152 144 134 121 132 138 126 142 123 
79 91 87 79 75 81 81 75 93 105 132 202 252 288 368 348 328 160 132 105 91 97 93 99 176 290 280 286 280 270 266 220 248 256 250 274 387 419 445 441 435 366 328 284 266 304 264 212 204 190 188 168 166 162 170 166 156 150 156 144 142 132 146 126 142 150 162 172 152 150 160 144 134 134 121 128 136 134 140 136 
79 85 69 69 81 69 75 91 93 117 220 358 456 464 503 495 460 338 276 150 79 87 99 132 268 268 294 274 250 248 202 142 192 200 212 230 282 294 372 344 322 238 190 212 200 174 170 188 172 202 170 176 152 168 158 158 156 148 154 166 142 140 148 138 146 138 160 168 162 166 170 150 128 132 136 123 123 146 136 144 
87 79 85 81 73 83 81 77 97 148 288 435 501 530 530 515 515 470 435 312 170 87 119 198 266 262 256 274 210 186 136 103 93 123 194 224 232 244 266 256 226 202 184 166 170 150 154 184 182 206 202 172 180 170 152 154 148 154 170 148 152 144 146 128 150 142 146 144 162 150 194 224 236 236 224 222 210 218 182 156 
71 81 79 81 83 81 81 71 97 162 318 443 503 534 534 526 548 528 532 419 252 83 144 274 260 246 242 256 148 119 87 63 119 160 218 232 226 236 240 234 216 198 186 166 164 168 142 164 196 220 212 190 180 172 170 164 170 160 174 162 170 156 150 144 138 144 162 150 148 154 210 238 276 314 314 326 310 304 290 260 
77 75 75 75 79 83 89 93 95 196 316 407 490 521 540 538 538 559 546 490 338 206 286 312 254 226 204 184 128 67 50 52 160 206 216 230 240 232 250 222 196 192 190 180 168 156 134 140 174 210 200 186 188 174 174 174 184 176 176 172 186 164 162 152 158 154 168 152 130 130 210 230 266 298 320 330 328 328 324 298 
69 91 69 95 91 99 89 91 111 194 322 374 470 546 526 546 548 530 530 478 429 338 282 272 236 198 178 164 138 48 18 83 180 224 224 230 242 222 238 236 210 210 188 184 170 154 132 140 156 174 186 192 192 206 174 194 198 192 180 176 188 170 176 164 170 154 168 152 130 154 180 224 270 302 320 330 328 336 344 310 
63 87 81 85 89 87 89 87 103 168 302 352 427 501 499 548 538 534 521 474 419 304 306 270 212 196 180 166 99 48 20 128 210 218 224 236 238 242 246 228 236 220 206 174 160 164 134 138 154 158 170 186 194 204 178 188 208 164 172 170 178 168 174 190 174 174 210 204 174 178 210 232 262 300 332 324 328 328 298 286 
61 89 93 77 85 89 81 73 97 126 202 306 348 389 501 526 550 505 501 460 378 298 292 246 192 194 174 152 61 40 44 132 216 224 214 228 208 234 238 220 214 200 194 198 166 168 132 148 154 174 180 192 218 216 178 178 166 172 180 168 170 162 174 184 180 168 210 212 202 186 208 234 238 274 278 304 284 248 226 206 
77 91 93 95 77 77 87 81 87 99 113 200 236 292 364 433 468 486 493 435 368 320 270 244 190 196 170 119 18 18 56 111 200 202 220 234 222 180 216 218 212 200 184 182 168 172 140 148 162 188 196 210 220 212 190 150 134 144 164 164 140 154 174 174 160 166 194 204 194 182 180 204 180 152 146 152 148 150 136 130 
73 69 97 77 85 93 85 89 91 83 95 113 152 164 182 242 294 348 450 441 334 310 258 238 192 198 166 103 12 44 67 115 190 200 218 234 206 174 190 196 200 184 176 182 178 176 142 146 172 202 198 200 216 216 170 126 105 107 123 126 128 148 148 156 136 154 182 192 168 168 178 168 138 113 105 109 111 95 109 91 
75 85 81 77 77 87 71 79 75 85 79 83 105 115 123 121 148 130 272 391 340 332 256 228 196 204 176 95 6 61 79 142 192 206 216 242 202 180 186 188 188 178 160 172 164 174 160 146 190 196 216 216 216 226 164 130 123 93 101 97 109 119 126 128 130 150 164 172 162 158 156 130 126 83 85 95 67 73 83 87 
69 67 91 75 89 91 79 77 73 85 87 77 73 93 95 91 89 119 164 286 286 320 250 226 204 234 206 119 42 69 85 164 194 218 208 236 210 204 214 182 188 182 164 178 186 168 150 164 196 202 202 194 186 172 117 138 115 111 126 105 117 126 130 130 132 160 140 162 158 154 130 132 123 97 79 69 77 61 95 83 
61 79 71 91 81 95 77 75 85 99 97 85 75 77 93 91 89 103 115 248 284 318 248 212 184 228 202 140 48 56 61 134 170 194 214 232 218 224 220 182 170 178 168 174 182 168 158 146 152 158 142 140 121 103 91 121 126 121 142 128 138 130 132 144 132 140 146 138 144 148 136 121 115 93 73 77 65 77 87 93 
52 87 79 83 87 87 69 77 81 79 75 87 79 89 95 97 101 101 121 214 310 290 234 196 192 224 218 162 58 52 36 91 123 186 204 226 216 232 218 202 188 174 166 188 180 160 152 130 130 117 140 130 107 109 113 136 142 126 140 152 152 150 144 144 132 140 140 142 142 128 142 130 113 91 73 81 71 99 95 85 
77 91 73 81 81 77 81 71 79 71 71 79 79 75 89 85 97 105 130 230 344 326 248 238 206 224 196 164 103 71 52 75 109 152 202 226 232 232 234 216 196 178 160 214 196 162 144 136 121 136 121 119 111 113 115 150 138 144 136 144 142 150 148 132 134 146 136 132 178 164 160 115 150 136 126 146 142 144 132 95 
69 79 65 56 67 65 58 65 73 75 73 77 67 77 75 95 75 95 117 210 342 330 272 240 230 216 180 158 136 93 101 111 128 164 202 214 244 236 230 218 174 188 162 226 188 168 156 136 134 126 138 152 117 123 144 162 154 132 140 140 144 119 132 134 134 140 130 150 162 164 160 158 152 182 190 228 240 238 220 198 
48 77 77 73 58 63 67 50 54 73 58 81 77 75 81 81 85 85 107 224 344 338 272 264 234 218 176 166 138 128 150 150 144 148 176 220 250 234 240 216 172 178 180 224 172 170 140 136 130 136 144 144 128 136 134 178 146 134 134 140 128 130 126 128 140 136 128 136 121 123 138 132 158 178 214 228 250 264 272 250 
30 54 79 44 56 67 54 52 52 63 79 67 63 71 73 81 77 79 99 174 308 342 322 276 250 214 138 111 93 174 192 182 152 136 164 208 228 238 236 194 178 192 210 238 198 172 170 160 156 136 148 158 136 121 140 174 168 142 134 144 126 123 119 132 138 119 111 87 81 71 85 71 121 162 178 224 254 288 292 290 
40 67 52 50 42 58 44 36 56 58 61 56 58 58 69 71 67 83 87 136 272 304 324 330 314 280 246 256 216 266 234 222 174 136 140 107 111 134 198 184 170 190 216 238 186 178 146 136 154 206 242 222 226 212 210 180 174 140 134 121 138 123 136 130 119 115 107 87 79 73 87 103 164 180 228 268 278 304 322 312 
38 54 44 42 44 63 50 50 54 58 54 46 56 61 67 77 63 77 97 89 136 244 280 308 306 290 304 296 254 294 312 364 308 178 138 168 214 136 130 123 128 156 156 192 172 166 178 180 160 194 250 232 244 230 198 180 150 146 123 130 123 123 113 117 107 107 93 71 63 69 73 83 152 200 238 272 302 310 358 320 


