P2
80 60
563
131 135 99 121 119 117 129 121 147 145 139 133 143 153 121 133 139 131 127 121 109 129 123 113 149 324 394 404 363 355 363 363 365 343 328 345 332 338 349 336 308 282 259 275 296 277 265 279 308 326 304 314 343 351 338 330 330 322 294 275 290 273 280 296 292 294 286 269 255 251 271 280 280 296 273 280 282 284 288 324 
115 123 115 113 123 113 123 127 131 125 153 155 135 137 131 123 139 125 101 121 121 115 123 99 133 345 389 433 398 404 377 361 340 308 330 334 318 320 322 330 279 269 267 277 271 251 257 253 304 320 288 292 292 300 302 302 306 304 296 282 273 288 292 294 308 316 318 296 286 286 269 298 312 292 292 288 292 332 316 314 
145 111 111 117 121 125 135 129 141 141 125 115 141 145 139 129 123 117 129 131 105 119 117 123 145 355 425 458 437 435 389 357 336 345 343 349 345 345 332 326 267 269 255 263 255 251 239 253 296 330 298 271 273 280 286 288 310 292 302 310 312 310 306 304 340 349 342 326 312 294 263 288 292 298 298 294 279 290 294 330 
131 117 109 119 131 121 125 135 131 125 133 135 123 145 127 129 145 133 139 149 137 129 149 159 195 334 410 456 458 447 389 349 334 340 355 363 351 349 314 308 277 269 263 255 249 239 243 241 282 326 296 284 269 263 275 288 302 302 351 342 338 320 312 328 336 342 340 300 308 308 298 286 304 294 310 271 286 286 284 302 
123 105 111 115 129 137 123 143 135 139 133 135 149 135 133 177 199 249 209 265 296 288 241 231 320 381 439 456 456 439 392 355 342 345 361 375 355 345 300 304 277 259 251 257 235 233 229 239 302 334 296 280 280 263 253 277 290 328 345 322 314 290 298 286 288 304 294 296 261 245 245 245 243 229 227 231 243 241 251 267 
115 99 113 107 125 109 123 117 121 151 139 145 139 133 161 259 326 408 410 482 451 396 441 394 454 445 423 433 433 398 392 359 342 359 367 355 361 332 324 298 265 257 243 247 233 221 221 233 253 336 302 277 267 247 257 261 296 334 261 207 179 157 167 181 167 177 183 181 181 179 185 183 147 161 161 151 179 185 191 199 
111 121 119 115 111 131 141 127 139 139 119 147 135 137 227 292 408 503 451 476 505 421 489 464 466 476 390 398 398 381 353 326 328 338 355 363 345 340 304 284 265 263 229 231 249 229 225 233 239 326 304 286 267 253 261 267 314 353 318 239 183 165 161 153 171 173 161 155 189 175 173 173 141 163 147 145 151 169 157 171 
123 103 119 113 121 125 125 137 127 145 129 137 147 163 304 318 389 482 483 518 536 505 522 474 466 516 427 410 371 375 332 324 330 340 349 347 365 328 334 300 261 253 249 249 249 235 221 233 239 316 322 280 259 249 249 273 318 351 330 326 304 269 223 199 191 191 193 183 189 181 187 177 183 161 161 139 169 155 167 203 
123 99 127 121 117 119 117 145 139 127 131 145 153 159 308 357 404 493 478 544 563 538 516 454 480 507 423 435 452 406 363 334 328 318 332 349 361 343 324 316 288 273 261 257 243 239 221 219 241 279 316 277 257 251 249 298 316 334 357 367 355 357 347 347 318 267 286 243 219 211 223 219 195 201 205 189 201 233 231 284 
129 113 117 113 131 127 135 145 129 135 135 137 145 165 298 377 349 487 447 538 536 532 497 431 439 456 445 427 472 445 394 328 316 316 314 343 345 359 343 328 310 294 284 265 255 233 231 239 235 271 306 286 279 277 300 342 332 347 373 371 389 383 385 371 361 363 349 347 328 294 300 277 288 280 277 288 284 271 286 304 
127 113 117 129 135 127 111 133 119 131 143 131 133 145 253 361 332 480 493 528 516 433 312 231 205 310 392 441 464 468 423 357 328 320 332 328 345 332 328 326 320 290 284 279 267 255 247 259 241 263 318 326 314 318 342 347 343 365 365 379 371 396 373 377 390 381 381 351 342 322 324 308 302 306 318 290 298 308 308 304 
117 101 113 113 119 131 117 131 125 125 121 139 125 139 189 304 340 373 377 389 377 255 161 151 147 227 279 408 466 464 425 387 343 316 304 308 343 332 328 332 355 328 296 308 314 304 284 286 275 277 338 332 349 355 363 351 340 353 363 369 371 353 371 377 383 377 381 385 353 332 288 308 277 304 288 286 294 275 279 279 
113 113 115 117 121 121 137 141 121 123 127 139 129 137 127 181 215 217 195 165 159 131 137 137 113 141 185 355 447 421 414 375 363 320 340 340 353 371 363 369 381 387 375 367 363 363 365 316 322 288 359 357 359 375 367 343 340 343 365 357 357 365 342 355 365 361 357 351 342 334 284 284 273 269 267 259 267 267 273 235 
109 115 109 107 113 127 105 121 127 131 129 129 135 115 127 139 135 129 121 117 129 125 127 121 123 133 147 300 400 379 347 316 338 320 359 427 458 478 482 480 476 474 454 460 462 437 431 398 377 330 334 357 355 359 363 342 351 343 359 355 328 338 345 326 334 343 349 345 328 314 275 261 251 239 233 207 207 221 209 183 
105 101 123 101 127 119 119 123 121 117 117 103 103 117 113 115 119 119 117 119 111 121 117 127 103 129 135 215 373 343 322 273 239 310 343 410 462 480 458 478 485 491 462 451 456 458 476 449 408 379 359 330 314 308 298 300 310 308 290 314 296 304 292 288 304 320 304 300 288 271 253 231 213 197 175 153 167 145 161 167 
125 111 107 111 107 117 111 125 123 127 117 113 129 127 119 117 121 115 119 109 121 117 123 117 113 125 137 159 227 320 343 357 340 314 316 353 431 420 404 404 404 427 423 441 441 423 412 416 390 359 328 271 231 193 163 149 161 163 163 157 171 175 173 191 217 229 243 229 237 225 203 197 177 177 167 161 163 159 161 161 
113 97 119 107 119 97 111 131 115 119 119 119 121 119 117 123 123 123 113 117 107 121 131 147 129 127 129 167 173 179 205 259 269 279 300 282 294 261 231 227 207 235 247 286 304 290 286 292 271 245 229 225 189 183 145 143 129 135 143 151 145 147 165 169 163 167 187 205 203 197 189 193 199 171 153 141 159 153 151 179 
115 99 107 89 105 113 109 125 117 127 115 119 123 121 129 125 115 127 121 131 125 121 121 127 129 123 139 151 161 171 177 177 187 217 261 271 269 261 231 221 215 195 189 191 217 231 249 267 251 227 209 181 183 153 145 111 129 127 135 145 143 147 145 181 173 177 193 193 197 199 191 189 175 173 167 153 155 163 153 169 
119 125 115 117 109 115 119 115 131 107 107 125 133 131 127 105 129 123 125 137 119 133 133 129 131 127 141 149 163 163 155 189 193 215 243 253 241 257 227 221 211 205 203 207 215 213 243 227 237 205 195 197 171 181 155 135 119 131 125 137 133 145 157 179 185 177 179 197 185 193 191 201 173 175 163 157 163 175 161 173 
117 109 107 117 129 123 113 119 121 113 123 127 123 115 125 123 125 125 121 131 123 129 139 119 139 137 127 159 147 153 151 161 183 201 209 223 225 219 233 237 227 237 241 241 221 209 227 235 221 217 187 193 175 155 143 121 123 123 131 127 131 151 157 149 177 185 185 179 195 195 195 183 187 179 161 167 161 169 175 171 
119 117 123 115 113 115 113 133 115 115 113 121 125 141 113 121 141 137 115 123 121 127 143 141 129 135 125 149 151 157 153 179 175 185 197 223 251 282 275 296 342 381 361 373 328 217 219 219 217 199 195 185 175 175 153 141 111 125 129 135 139 143 155 153 155 171 177 185 181 195 193 189 175 155 163 157 165 161 175 195 
113 111 111 103 115 109 115 131 113 105 113 117 131 123 121 115 117 127 129 139 127 127 119 133 129 125 135 139 149 147 141 153 179 193 247 280 308 320 294 306 367 408 402 389 363 213 211 219 219 199 189 181 179 165 143 133 123 123 127 125 139 129 147 151 179 163 187 177 183 183 191 181 179 155 161 165 167 175 175 177 
123 109 123 123 115 109 103 123 123 119 119 125 117 115 121 119 127 127 115 115 115 137 127 145 121 133 127 135 153 151 157 173 219 284 310 290 304 334 330 345 369 371 383 379 277 185 205 203 195 191 191 177 173 161 147 131 111 123 129 153 141 139 149 157 181 169 165 169 183 201 175 179 189 153 177 159 171 157 179 187 
113 99 127 109 115 127 95 117 125 117 109 135 111 123 109 121 123 121 119 127 133 127 133 119 121 129 123 129 143 157 171 209 290 269 249 177 175 273 340 342 332 345 363 308 189 181 201 187 179 187 191 189 175 185 165 147 147 161 169 187 191 185 135 131 129 115 123 121 167 185 187 183 191 179 155 173 175 165 175 173 
119 111 121 121 111 129 115 125 133 119 117 123 131 135 107 109 133 115 119 119 119 119 129 131 121 121 127 135 139 153 167 282 343 277 251 233 187 239 316 306 316 318 296 161 159 147 149 207 213 225 235 179 201 187 171 171 227 243 255 277 267 257 189 141 113 107 107 101 147 187 189 199 191 179 155 163 179 177 169 181 
107 115 95 99 113 113 119 113 121 123 121 129 119 125 117 115 127 131 107 119 125 119 133 125 109 121 113 133 147 149 181 334 312 294 288 292 282 338 336 292 286 247 155 139 139 185 169 185 243 183 185 161 179 175 197 187 223 259 259 263 255 243 209 153 133 129 125 93 141 189 187 201 197 173 173 171 169 179 165 169 
103 99 115 111 99 111 119 129 129 117 121 109 119 137 119 121 127 137 117 113 121 117 127 127 135 137 123 149 147 157 207 312 334 338 389 400 396 389 324 205 115 123 119 133 121 145 149 193 205 187 127 181 181 199 179 189 201 231 227 237 229 221 213 177 169 161 131 127 167 203 217 223 223 233 223 201 167 159 177 181 
119 95 111 109 113 101 109 117 119 103 115 117 119 115 107 101 103 125 105 115 123 109 129 117 129 131 117 123 149 151 245 324 363 381 423 451 431 398 273 57 31 81 61 97 127 125 133 181 199 185 149 187 169 191 199 185 213 217 209 205 199 171 187 177 195 195 189 173 205 251 265 280 282 318 332 286 267 231 187 209 
109 111 101 103 107 117 107 113 115 123 123 131 103 113 107 119 119 109 105 113 129 135 183 189 211 288 225 181 185 199 318 298 351 418 451 445 433 375 131 8 31 29 109 121 135 135 153 185 223 183 201 179 173 197 199 225 213 231 241 267 273 231 215 183 189 207 241 263 249 284 294 296 306 332 336 324 306 302 265 231 
103 97 113 113 117 99 105 115 123 117 125 119 103 115 109 95 105 125 119 113 149 219 286 320 402 452 437 396 383 381 363 310 349 451 472 482 464 314 71 33 0 8 135 119 133 137 151 163 207 201 227 145 151 225 215 241 239 195 215 193 217 227 221 227 219 217 245 273 298 286 269 290 286 294 308 292 316 312 292 310 
109 107 107 107 101 105 93 103 121 121 117 113 119 123 103 111 125 113 115 137 217 304 361 420 487 534 524 470 433 412 371 302 351 408 474 489 470 351 123 10 41 31 131 131 173 159 133 135 179 179 215 151 181 233 235 225 227 215 193 179 215 217 253 255 288 271 249 296 304 282 265 259 282 277 279 292 288 320 300 300 
109 105 105 105 123 107 95 125 125 103 121 121 115 121 115 109 109 125 115 137 269 377 377 489 493 472 499 464 425 421 387 328 371 379 371 420 449 385 193 12 45 117 131 151 169 165 99 139 137 169 191 195 191 243 239 205 195 203 191 227 263 265 294 294 318 294 279 253 259 273 255 273 286 259 280 282 306 318 326 306 
111 117 91 121 129 97 113 123 111 127 121 139 111 127 105 115 129 125 135 147 265 379 447 501 511 474 474 482 435 414 387 353 379 385 332 292 363 400 292 101 119 145 151 165 177 145 181 163 151 151 203 205 175 199 227 211 193 199 185 231 259 271 312 304 322 298 302 294 318 302 286 275 280 275 286 282 302 306 288 235 
123 99 113 107 125 131 117 119 111 135 117 123 115 131 125 125 125 133 131 153 277 402 439 497 499 495 513 503 435 408 396 369 379 357 328 306 312 355 304 257 165 137 167 157 173 143 191 171 147 147 189 215 181 139 199 193 199 191 203 233 255 265 290 306 302 314 324 342 363 326 312 284 286 275 292 304 306 271 225 207 
107 101 113 111 115 121 113 127 121 119 125 131 133 137 123 119 123 121 137 141 219 369 394 406 420 476 483 385 267 201 308 361 330 320 318 308 312 336 320 294 288 195 139 157 147 203 217 187 139 129 183 197 149 119 167 185 219 175 229 233 237 259 273 292 300 322 318 349 340 342 306 300 277 292 284 267 201 177 175 187 
101 93 107 119 107 121 109 117 131 135 129 129 127 127 115 123 143 145 129 129 159 211 290 275 247 263 235 183 173 175 241 351 300 275 290 304 286 318 330 316 300 294 205 181 169 237 227 187 173 119 173 155 139 147 145 197 239 231 237 227 237 241 267 288 304 312 318 322 328 316 326 284 267 233 205 183 181 155 155 163 
117 103 119 121 125 125 111 109 127 121 133 123 129 121 115 129 113 127 117 125 135 141 147 157 133 155 137 139 153 151 199 324 340 284 245 217 273 332 355 330 342 332 318 263 189 263 231 235 203 145 161 179 165 149 157 189 203 209 225 221 247 253 265 288 292 292 300 304 300 284 261 241 197 195 175 153 159 145 153 173 
117 105 109 123 123 109 107 117 133 121 127 127 117 139 123 127 131 129 131 127 123 135 123 135 133 137 131 143 147 147 169 253 314 249 181 177 271 357 367 353 363 342 363 343 237 235 239 261 280 183 163 191 173 153 175 199 215 213 199 223 227 261 280 294 282 298 253 261 239 217 215 211 193 173 139 155 139 151 143 175 
89 105 125 107 127 107 113 121 125 127 137 133 117 139 129 133 129 123 131 123 131 143 139 139 117 149 113 145 147 143 161 223 326 294 261 290 324 318 324 377 363 373 373 377 294 135 149 171 181 187 175 163 175 173 173 171 173 177 195 209 207 203 259 255 237 215 203 205 197 201 209 183 173 163 167 159 165 171 197 189 
111 113 121 127 119 127 111 125 133 129 125 119 105 109 133 117 129 125 127 135 133 121 133 111 121 143 123 145 159 143 155 175 263 310 345 332 310 322 338 381 373 394 381 390 361 159 147 143 163 165 163 157 165 169 169 143 147 155 149 169 167 175 199 175 167 181 163 167 175 201 197 179 181 161 177 165 185 193 205 199 
101 115 121 111 125 117 115 123 129 129 123 129 111 129 117 109 119 123 123 133 127 123 129 127 111 127 123 141 151 183 237 288 334 361 371 340 336 326 326 396 361 385 373 396 363 175 155 149 155 155 157 161 165 175 163 145 127 127 131 137 137 131 135 151 147 157 155 173 175 179 169 173 165 161 169 171 183 191 211 209 
95 101 95 105 107 111 111 109 119 121 121 129 115 123 121 125 115 129 135 119 123 121 121 119 121 125 125 143 183 310 353 359 381 381 363 383 377 379 361 421 408 379 390 347 239 141 137 155 161 147 149 141 143 157 149 121 111 109 109 119 117 107 127 145 145 145 161 171 165 159 167 155 147 145 155 167 193 193 193 195 
113 117 119 107 119 119 111 111 121 121 129 135 121 121 115 143 119 127 141 127 119 131 135 119 121 127 123 153 277 385 359 345 381 377 389 392 387 408 385 439 427 412 414 363 245 141 139 133 159 147 139 133 135 135 115 101 101 99 83 85 101 103 125 121 131 145 135 153 167 163 177 153 153 151 153 173 199 185 195 197 
109 103 101 119 113 107 111 111 111 117 127 141 131 127 103 115 135 193 225 197 155 133 143 127 121 117 129 197 363 394 371 345 328 351 392 383 379 383 404 443 433 412 414 427 375 225 147 151 145 125 121 119 117 137 105 99 99 107 129 133 145 143 135 153 141 133 149 167 175 167 165 147 133 147 157 165 175 171 185 213 
111 109 109 121 121 131 105 121 131 131 131 119 125 139 109 149 237 351 412 390 367 328 273 169 119 145 163 286 363 387 363 328 292 284 338 379 383 379 394 420 425 429 412 427 435 365 253 185 185 179 161 179 191 187 219 195 169 187 207 187 181 183 179 153 171 151 153 147 151 155 169 151 141 145 157 153 185 181 187 199 
115 117 121 119 125 123 119 125 121 121 123 121 133 131 133 219 349 445 431 458 526 497 482 349 197 171 253 342 351 338 357 342 292 280 284 286 279 312 351 402 439 445 420 420 437 423 390 284 235 209 213 231 245 239 243 235 229 209 203 201 197 197 187 167 177 161 145 163 181 173 185 177 181 159 175 169 185 185 185 195 
123 113 113 121 133 111 131 133 127 133 127 135 141 141 163 269 389 456 454 491 524 509 493 478 427 347 385 365 377 318 332 322 282 294 300 243 191 179 207 304 345 398 410 416 429 429 420 357 249 235 239 247 231 245 255 255 255 253 251 233 243 229 207 187 175 143 143 183 211 213 245 267 288 306 298 282 269 239 219 227 
121 119 113 109 127 123 121 125 117 139 131 145 125 147 165 269 408 435 470 526 511 472 466 472 460 456 425 385 367 338 316 304 286 322 265 175 119 117 163 233 294 322 345 383 400 414 418 389 324 237 233 247 251 245 261 247 263 275 271 277 259 257 235 191 183 157 161 193 211 243 275 316 334 347 359 342 345 322 316 312 
131 119 99 119 127 119 129 129 133 125 145 145 125 145 151 259 377 420 458 526 501 447 431 423 396 462 429 383 375 338 312 300 300 265 203 109 91 95 141 209 282 294 306 332 367 379 414 390 359 288 235 255 243 261 241 241 263 275 263 271 275 267 245 195 199 177 167 171 173 203 273 300 328 351 363 369 363 359 343 340 
119 119 111 123 129 117 133 127 133 125 129 145 127 137 149 185 314 389 429 520 493 456 468 452 390 439 416 347 342 338 292 271 241 219 177 87 53 65 159 213 263 294 296 300 314 367 406 381 353 304 235 257 269 255 263 253 275 253 269 275 245 259 233 229 215 209 201 185 185 181 239 277 306 336 361 373 363 351 347 347 
115 125 123 115 123 113 117 133 127 141 135 115 141 131 149 155 175 253 316 420 458 458 464 460 421 433 377 296 312 294 247 231 213 177 135 59 8 107 195 235 239 277 279 294 302 302 367 373 357 326 265 239 263 273 269 269 279 261 257 261 253 231 233 225 215 235 217 173 173 199 233 249 280 296 349 351 353 345 340 338 
123 119 137 119 123 135 115 143 129 129 121 131 133 125 131 131 141 157 169 197 241 288 284 286 282 402 355 300 302 261 219 211 189 167 115 39 27 163 227 247 257 275 277 282 304 290 316 361 345 326 279 279 275 261 280 284 277 277 265 251 263 245 259 227 229 253 249 239 223 199 223 237 237 263 282 277 294 286 261 273 
115 111 123 117 139 121 119 147 119 123 143 141 147 155 153 147 149 137 149 141 155 141 171 149 147 298 349 324 320 282 215 197 181 169 115 29 41 179 235 253 267 273 277 310 302 282 277 302 338 349 310 292 296 288 280 284 282 298 259 257 261 243 257 237 225 221 227 217 193 187 201 179 165 185 181 173 215 189 193 219 
113 113 109 131 119 131 107 135 123 143 137 137 129 145 135 123 147 135 135 123 141 125 141 125 149 237 340 340 328 284 237 213 191 127 67 14 45 133 247 255 265 261 269 279 300 280 269 282 302 351 343 320 310 312 316 330 312 306 269 271 227 219 211 171 185 169 167 175 173 181 175 173 149 153 175 187 171 179 185 221 
127 109 105 129 137 131 115 143 131 147 129 139 123 139 115 127 137 137 127 133 131 141 123 139 103 177 322 326 316 277 253 239 205 139 81 16 43 139 227 263 275 275 247 231 269 273 261 265 304 367 363 347 334 351 355 373 385 369 304 273 253 251 263 243 209 199 193 175 185 177 175 175 151 165 171 163 159 175 193 193 
105 113 95 103 115 105 123 123 123 123 117 139 141 141 115 117 137 129 109 117 125 117 115 117 111 155 308 345 314 267 259 265 241 149 93 63 89 157 237 286 288 267 249 247 263 269 257 265 300 343 351 347 367 371 369 379 392 416 312 279 251 279 261 249 251 245 253 219 207 209 195 187 193 195 211 209 185 177 195 203 
99 95 111 111 113 105 119 117 127 121 115 123 127 129 95 115 119 117 127 117 117 113 105 101 95 145 320 377 343 286 235 221 263 197 111 61 49 91 245 269 280 271 247 261 243 253 290 294 284 324 336 389 404 392 398 398 398 379 298 279 284 296 259 223 243 253 239 207 191 195 197 225 247 271 288 296 292 273 249 225 
103 103 97 119 107 103 101 113 95 121 115 123 109 123 117 123 117 107 123 113 105 103 99 95 95 131 265 345 324 306 251 233 237 221 179 141 103 159 197 257 280 259 265 265 261 280 336 316 310 322 345 398 423 408 404 365 351 314 290 290 294 277 261 241 235 227 239 167 159 155 193 201 245 290 296 326 320 334 332 310 
107 81 91 103 111 107 103 89 101 105 109 105 109 119 91 127 113 115 85 111 105 95 95 91 91 107 169 320 308 294 290 294 296 294 298 279 308 316 316 332 300 310 326 332 340 347 363 355 332 312 324 394 435 398 345 284 290 263 273 280 269 233 239 225 205 221 199 119 111 123 185 221 235 280 328 334 357 381 389 349 
93 95 97 85 99 97 95 113 101 117 97 105 107 113 105 111 101 113 95 93 89 109 89 95 85 79 91 181 275 296 310 300 296 279 300 298 316 369 355 381 381 363 357 375 377 365 357 342 316 286 267 296 320 280 269 261 245 247 267 247 251 235 223 231 231 233 189 123 125 113 193 223 277 324 340 345 349 353 367 369 


