P2
80 60
511
90 74 66 70 72 62 68 66 78 86 74 78 84 78 70 64 78 78 74 66 76 86 78 88 94 177 326 378 390 405 417 338 283 242 262 268 276 254 254 244 234 195 179 189 169 158 185 156 175 246 221 211 211 225 221 242 234 252 238 244 250 248 252 260 260 256 232 229 197 164 148 154 166 169 148 138 164 164 164 175 
94 66 66 80 66 80 58 74 50 66 70 96 72 76 64 76 94 100 92 114 138 102 98 118 140 279 347 388 388 400 396 322 276 240 278 291 289 278 270 256 225 207 197 207 205 191 231 254 232 246 232 211 207 209 209 215 236 254 258 260 248 215 219 201 203 209 162 160 144 116 100 98 96 94 108 132 152 162 168 173 
84 68 68 70 74 70 70 72 62 70 72 66 66 72 62 68 116 185 211 262 365 328 248 246 279 440 403 386 361 392 357 283 274 236 279 295 324 295 283 260 254 213 207 207 260 276 309 312 303 293 250 197 183 199 232 244 260 270 289 270 217 162 162 142 152 179 150 126 136 138 162 179 164 164 191 171 189 191 191 191 
84 60 58 64 54 62 64 86 74 62 64 58 68 54 90 88 203 301 361 440 469 465 429 429 471 511 415 363 326 295 279 248 254 252 283 289 307 307 287 272 258 227 221 250 297 326 374 343 303 326 250 193 191 191 225 250 262 266 276 272 270 270 281 285 268 301 291 256 256 231 232 223 221 201 197 191 209 209 191 215 
76 56 68 70 70 74 58 82 78 62 62 70 72 68 86 132 252 405 409 480 475 477 448 446 467 492 452 353 295 272 260 242 256 254 272 283 305 307 291 258 254 229 215 262 343 357 398 343 353 289 219 189 215 223 229 225 248 274 299 289 299 285 312 299 272 274 276 254 232 217 215 225 217 193 189 177 199 201 203 187 
78 56 66 76 70 64 76 72 64 80 78 78 80 86 98 169 305 427 394 475 444 429 442 444 423 463 454 359 303 330 320 283 250 250 279 287 310 309 283 297 289 264 248 305 353 378 376 363 305 246 193 221 240 252 231 219 262 299 318 318 316 318 303 326 309 287 272 260 219 209 183 203 209 185 168 166 171 175 146 148 
70 54 60 62 66 64 70 82 70 58 76 72 72 74 108 162 301 461 403 452 450 429 421 429 345 369 359 343 347 403 405 345 291 264 285 297 314 303 293 307 312 283 279 328 386 376 378 297 211 173 169 213 234 231 250 234 264 291 297 297 299 272 285 289 289 276 240 223 221 171 162 169 162 148 124 110 106 96 74 104 
70 52 46 70 80 84 76 78 64 82 74 70 72 82 84 160 238 421 409 433 480 446 421 357 152 142 201 289 380 440 444 378 336 289 272 270 295 303 301 303 310 312 310 369 378 372 322 250 173 195 185 234 248 238 234 225 232 232 250 256 258 258 266 254 250 232 199 193 150 134 138 130 102 76 74 76 74 62 62 78 
70 62 64 70 70 78 72 82 74 72 64 72 80 78 92 110 185 287 380 367 357 310 268 136 82 86 118 181 312 402 388 365 349 299 270 270 289 283 262 272 301 312 355 372 376 289 254 215 201 199 195 227 246 229 221 203 211 199 197 219 232 209 219 193 162 171 144 160 130 102 94 84 78 78 70 64 86 78 66 70 
78 52 78 72 58 72 72 58 58 84 80 76 80 74 80 92 106 144 173 158 122 74 86 90 66 76 90 124 309 359 322 270 295 303 279 285 320 289 266 232 242 285 371 394 318 201 158 164 183 223 203 215 236 211 199 183 164 158 150 124 118 106 112 96 92 100 120 136 116 100 100 94 82 78 62 82 82 82 50 74 
74 52 62 70 74 70 64 62 68 70 60 70 74 56 66 74 76 70 64 72 68 68 66 102 68 90 84 112 248 324 287 217 168 201 285 340 434 413 374 307 279 309 380 386 266 120 110 106 110 144 130 142 130 90 76 76 90 78 62 52 78 66 78 80 78 78 84 110 102 94 102 94 96 86 70 68 72 82 60 92 
74 54 78 76 66 68 84 62 66 76 74 70 62 76 82 76 82 52 56 54 70 74 62 84 74 86 76 92 160 266 307 262 205 201 279 326 440 450 436 442 456 411 388 351 162 104 114 90 86 94 88 84 78 64 54 56 66 58 42 60 72 62 72 78 76 82 90 116 92 102 92 94 86 80 84 74 88 72 60 72 
78 66 66 64 76 86 66 74 70 62 76 76 70 80 60 68 66 78 54 60 64 64 62 86 54 58 78 74 86 142 231 268 283 252 270 328 423 431 398 402 419 405 374 232 120 118 116 100 100 100 104 74 66 58 60 62 52 60 58 56 66 54 76 76 58 80 94 92 96 88 86 92 84 84 76 78 68 70 74 74 
72 72 62 76 52 68 82 68 80 70 70 72 60 66 64 54 74 60 52 60 62 70 62 80 58 64 74 74 76 90 110 112 146 187 217 250 301 260 240 270 303 285 227 169 126 116 126 118 106 108 108 90 74 66 64 66 72 52 60 56 70 72 78 78 68 88 104 102 110 102 98 88 82 96 74 66 78 64 50 68 
78 54 74 74 70 74 76 60 64 58 68 64 58 64 70 46 70 66 48 44 54 66 62 74 58 64 66 64 76 86 100 90 124 140 169 185 175 162 144 148 168 154 134 142 132 128 144 124 122 120 116 114 92 78 66 58 58 70 54 70 88 74 86 96 80 94 106 102 120 120 110 108 78 82 82 76 92 76 64 90 
86 62 62 56 66 82 74 62 74 66 58 52 64 60 54 56 54 54 58 48 50 54 76 76 60 60 62 78 80 88 104 102 134 154 171 177 171 158 150 152 152 146 146 148 156 150 162 132 138 122 120 114 94 78 74 68 76 72 60 64 80 72 78 88 88 96 102 110 118 96 100 102 92 90 66 72 84 72 64 80 
78 70 76 62 80 66 78 64 72 70 62 68 66 72 76 68 72 66 54 56 64 56 56 82 80 74 80 84 90 80 104 120 130 158 181 193 201 179 185 185 268 301 293 309 254 193 169 164 136 138 132 124 106 84 74 76 72 70 86 72 78 80 102 104 92 98 110 102 124 112 106 104 102 88 86 66 80 88 78 92 
76 72 72 64 58 68 72 76 64 84 60 58 74 72 74 74 80 74 66 68 72 62 72 80 74 88 84 88 86 100 110 106 146 189 223 209 213 207 171 177 268 371 351 382 378 310 201 160 146 134 134 120 120 108 96 80 102 80 76 74 84 82 90 98 80 90 110 114 102 128 108 106 96 82 82 74 100 92 88 116 
86 78 88 66 72 68 70 74 70 70 74 78 70 74 82 82 78 70 66 60 70 56 74 80 80 82 82 78 90 96 112 138 223 246 240 171 128 130 162 187 173 293 328 365 374 382 283 162 162 168 146 168 150 138 146 150 150 146 142 150 134 120 100 100 88 100 86 90 88 118 96 98 92 82 72 84 108 104 84 130 
82 60 58 54 68 56 76 74 76 74 70 60 66 68 66 70 54 68 70 58 70 66 70 76 74 76 74 86 86 96 124 215 258 219 193 94 52 18 58 140 168 227 250 227 215 203 177 211 195 213 175 160 152 132 150 166 169 162 160 142 150 152 112 102 96 86 84 82 94 106 122 104 96 100 88 96 112 94 112 146 
80 80 56 74 80 68 60 72 68 64 76 72 72 74 68 60 72 86 68 54 66 68 74 86 72 84 78 88 82 108 140 276 236 189 205 211 236 219 207 187 169 126 140 130 150 187 201 223 211 211 183 160 150 146 124 158 166 158 154 150 136 130 110 100 84 96 88 102 104 130 134 118 122 120 128 106 124 118 158 236 
70 80 72 64 64 72 86 76 62 60 76 72 82 82 80 72 70 62 68 56 68 76 78 84 88 72 84 84 80 112 177 252 203 181 244 287 283 225 219 175 144 76 78 114 160 187 215 207 207 205 179 154 146 152 142 130 162 126 120 126 134 118 98 102 102 104 106 112 142 215 191 195 209 232 250 203 177 185 248 276 
82 78 80 78 72 60 76 66 68 64 64 68 76 72 82 68 60 74 58 52 62 84 70 86 80 102 84 86 92 114 189 223 225 227 279 345 303 221 193 152 126 110 124 146 183 168 189 195 179 191 185 156 148 154 156 168 164 132 108 106 100 90 92 100 104 126 130 126 173 232 223 234 252 268 281 236 244 236 260 266 
70 60 70 78 68 56 66 54 66 64 68 70 74 86 78 70 68 60 56 74 84 80 80 96 102 142 128 112 102 128 203 223 234 242 252 283 227 177 164 134 146 166 160 183 203 158 175 179 213 185 173 175 158 150 146 140 166 138 124 108 100 94 94 98 104 122 126 132 191 234 213 217 221 242 248 244 256 260 252 252 
86 76 60 76 70 64 78 66 68 64 68 78 74 72 72 74 70 70 66 60 78 112 146 187 266 338 301 242 252 278 314 231 254 236 189 150 142 108 146 114 152 168 168 181 207 148 162 181 201 193 169 154 158 175 181 158 168 134 106 96 106 110 124 138 128 124 148 173 229 231 201 221 238 236 256 248 258 252 246 240 
86 72 68 68 86 58 70 66 66 74 84 56 66 62 76 68 82 66 62 70 150 195 238 338 438 494 465 427 415 427 367 242 266 279 203 120 94 44 134 128 136 154 160 177 189 160 130 150 185 211 146 146 173 183 179 166 154 128 128 179 189 191 199 183 140 124 130 136 199 201 201 215 238 240 244 246 258 227 227 240 
78 58 78 56 52 58 74 56 64 54 64 62 74 62 76 64 68 68 62 68 205 287 303 433 467 456 458 442 394 423 388 244 279 312 217 142 108 46 112 126 148 166 156 166 189 160 128 140 158 203 150 134 185 171 164 179 168 132 138 193 164 171 164 162 158 152 136 128 168 207 219 209 215 223 234 219 213 156 152 168 
86 68 64 78 62 60 70 70 62 52 66 64 56 64 72 66 64 72 60 76 213 328 394 480 463 405 384 425 386 413 396 279 303 326 236 173 136 100 128 118 144 164 148 154 168 140 142 169 187 201 156 122 146 166 156 156 152 128 142 211 185 187 197 199 189 187 215 242 242 223 205 225 199 197 207 205 150 104 88 104 
66 74 74 74 72 72 64 70 62 72 72 70 58 56 66 66 64 62 60 68 203 322 405 471 479 448 419 440 394 384 371 278 293 305 234 203 177 150 148 118 148 146 156 158 148 142 177 171 175 211 154 142 130 120 132 142 136 132 148 177 179 199 209 209 229 246 260 293 291 266 242 207 199 179 199 138 108 92 74 94 
72 64 62 72 82 60 68 62 68 54 62 56 54 48 56 44 56 66 54 60 158 293 309 367 431 448 448 380 293 283 309 272 266 252 262 262 240 211 181 148 136 112 140 120 134 142 164 142 156 221 142 138 126 104 92 144 142 148 162 158 177 197 195 201 209 231 250 281 305 262 227 217 191 162 106 78 84 64 66 66 
76 62 62 58 60 58 70 70 54 74 66 66 56 68 62 52 66 56 44 56 124 169 203 231 260 291 270 177 108 118 205 246 203 203 272 260 254 250 201 156 134 80 130 120 126 124 142 140 136 217 158 124 132 102 98 122 144 140 150 154 154 162 179 183 201 209 219 258 279 258 219 195 154 108 62 58 78 56 56 82 
86 72 52 82 74 72 60 66 62 62 56 62 58 60 66 62 64 70 64 62 80 84 94 112 108 86 92 74 84 96 175 244 219 175 211 250 254 211 185 162 130 96 126 156 116 122 136 152 171 171 162 128 128 82 116 112 118 130 144 122 140 154 164 160 171 185 203 232 244 240 181 130 98 84 58 60 76 54 56 78 
68 66 58 78 64 68 70 72 58 62 60 56 80 86 70 66 66 56 62 50 64 80 64 70 78 74 72 72 76 92 126 266 260 169 179 234 207 197 158 142 106 124 118 132 154 126 148 158 154 126 164 128 128 114 94 124 94 98 106 104 114 134 158 152 156 158 191 197 217 183 126 116 96 92 74 72 66 70 70 80 
68 84 66 70 68 74 76 68 76 76 74 70 76 88 78 64 70 62 66 62 58 74 70 70 78 80 76 74 76 102 112 211 295 254 166 90 90 110 136 146 126 116 84 96 112 213 312 307 272 248 158 112 128 98 100 102 114 104 100 94 96 124 158 140 126 134 136 134 140 126 122 126 100 74 74 62 80 68 68 68 
68 48 64 72 60 74 58 68 60 68 72 60 72 78 62 62 76 78 72 40 62 60 62 70 62 80 68 74 76 82 100 136 248 234 221 102 24 70 96 88 102 283 244 183 221 340 376 359 328 199 122 96 106 104 88 82 64 72 80 96 98 96 84 82 88 102 110 124 128 132 122 114 100 82 66 56 84 74 66 70 
64 70 82 76 68 66 66 78 62 78 70 72 74 66 66 60 74 66 66 62 66 68 52 82 72 70 80 84 72 80 106 102 158 236 274 272 236 187 128 92 197 361 336 338 334 367 384 345 215 120 108 100 102 104 108 80 78 54 62 68 68 82 80 88 82 96 110 124 124 124 124 110 86 86 64 66 94 64 50 58 
74 60 76 86 68 76 76 62 70 64 64 64 78 72 68 68 74 68 62 48 74 62 80 82 66 74 80 82 80 74 106 104 118 148 217 268 242 177 146 156 341 365 347 359 372 378 326 185 120 102 96 106 102 104 90 82 68 54 54 64 70 68 84 72 82 94 98 104 114 114 112 100 92 84 70 72 80 66 68 72 
72 60 68 70 68 74 62 78 62 76 70 66 72 66 78 70 62 72 64 58 74 76 64 86 72 72 70 82 88 146 199 256 289 301 291 256 244 215 181 223 332 326 334 340 332 264 144 98 90 96 104 108 94 98 92 86 76 68 62 62 60 72 78 80 74 88 98 104 118 118 104 102 80 92 76 60 62 56 56 78 
60 58 58 58 78 78 72 84 60 62 64 72 62 80 76 76 78 56 58 60 58 78 68 76 90 72 80 132 252 338 371 386 403 405 411 398 367 336 258 199 183 154 144 160 126 92 84 92 98 92 100 96 90 90 86 82 74 54 50 56 64 62 74 86 74 90 90 102 96 92 88 104 86 82 72 64 80 88 80 82 
84 80 70 64 72 58 56 66 78 68 76 80 72 66 70 80 78 70 74 54 64 64 66 70 74 86 116 225 328 361 372 400 421 434 452 434 411 384 359 338 314 254 177 112 88 80 92 84 90 96 98 100 94 104 114 110 114 94 92 110 98 110 116 100 88 94 102 92 110 110 108 90 84 90 70 88 112 118 112 102 
76 82 64 84 68 78 68 62 68 62 60 78 78 72 84 76 68 62 66 68 60 72 74 78 76 76 160 272 276 330 359 371 407 425 452 452 427 378 359 367 363 324 295 262 183 142 142 134 140 130 118 144 156 162 152 173 150 142 152 140 140 138 132 118 100 108 102 106 116 108 106 102 104 118 116 118 130 126 134 122 
74 70 58 74 68 56 64 80 68 78 84 58 56 58 78 72 68 70 56 50 62 54 78 76 78 86 173 250 266 281 328 355 398 421 421 433 409 380 345 353 357 367 336 336 293 252 215 213 160 158 154 187 177 181 181 164 177 173 171 171 154 164 144 132 112 110 98 120 112 128 154 189 217 231 252 240 221 225 185 169 
74 64 56 68 64 68 62 62 72 58 64 60 52 68 60 60 60 74 72 42 70 52 78 84 74 112 242 291 293 279 297 287 338 355 341 334 314 309 318 320 340 365 349 376 353 318 285 236 199 179 193 199 183 193 177 193 189 201 197 191 191 177 168 154 128 124 122 130 134 152 199 203 242 262 283 279 260 268 246 238 
66 84 70 68 56 70 62 62 60 62 66 58 66 58 72 72 128 166 164 128 173 144 94 96 82 183 274 299 283 274 270 268 279 291 252 203 189 225 250 258 283 307 332 353 353 336 324 291 256 201 199 183 183 189 181 189 205 203 187 181 199 189 169 173 126 142 128 126 108 120 169 187 207 250 283 289 274 272 258 246 
72 70 58 72 66 66 56 58 60 74 62 60 72 68 84 140 314 340 371 386 398 384 268 189 144 291 285 301 291 276 262 248 260 244 169 138 158 193 229 236 254 264 252 285 303 320 314 309 281 252 232 205 179 179 189 197 195 195 183 175 183 191 171 158 144 150 138 100 100 94 142 158 193 225 272 266 278 268 252 234 
68 64 66 80 68 72 62 64 76 64 64 50 64 64 122 242 378 371 396 442 423 433 425 405 345 347 322 287 266 242 236 215 211 181 126 92 134 203 234 238 231 250 231 236 238 260 293 303 289 276 264 262 207 177 179 187 187 189 175 154 150 162 162 144 160 152 152 120 102 128 124 146 173 207 250 240 246 258 217 211 
66 58 60 74 80 82 80 78 82 74 68 64 80 76 173 299 367 374 440 463 423 407 409 417 398 378 345 258 250 238 234 197 173 132 110 58 118 219 238 229 219 225 221 223 205 209 223 234 268 285 278 289 252 173 162 162 183 173 169 164 164 146 146 134 128 175 130 134 126 122 118 148 136 156 187 168 156 154 144 150 
76 64 52 70 72 68 62 54 72 64 74 74 78 78 168 301 357 396 433 438 390 332 365 359 378 369 326 232 223 211 189 168 152 146 98 42 118 199 215 211 205 217 215 231 199 201 201 191 254 285 268 291 268 193 162 150 164 154 164 162 166 130 136 122 124 148 130 142 132 124 102 104 76 88 98 108 100 104 100 118 
80 68 64 74 70 60 74 68 70 72 74 54 64 78 130 276 341 378 433 431 390 340 359 361 378 332 307 227 199 185 175 160 158 130 98 38 98 191 203 187 173 199 197 223 209 211 193 197 258 295 266 270 248 203 177 177 160 158 134 150 124 132 126 106 100 110 108 126 118 118 98 94 86 64 72 88 90 96 98 112 
88 70 74 68 68 84 76 72 70 74 80 62 74 94 100 195 324 338 382 423 382 367 378 374 338 336 309 252 213 205 185 148 144 126 86 26 80 152 175 171 162 177 191 205 199 211 223 229 240 250 260 258 262 264 240 191 171 173 154 148 138 130 122 126 102 130 102 120 110 112 108 94 86 66 78 66 94 106 90 100 
84 74 60 78 74 74 74 66 68 64 76 64 70 70 92 100 156 205 221 254 274 274 225 169 156 268 285 281 229 217 203 168 162 126 88 38 78 106 136 154 138 164 168 189 193 209 232 246 238 207 264 272 281 295 278 217 207 187 168 150 158 162 158 160 164 175 166 138 110 100 98 102 82 72 90 74 86 86 84 124 
82 64 66 66 84 80 70 72 82 68 62 68 56 76 74 92 92 106 84 84 90 84 86 86 74 205 254 281 250 219 201 183 173 128 98 74 90 112 148 136 150 152 162 185 203 248 268 238 205 201 234 283 324 324 272 221 193 187 168 191 197 203 185 201 185 197 171 156 122 118 106 132 138 138 183 183 183 152 114 130 
76 70 60 66 64 76 74 50 60 72 74 60 72 66 72 74 60 70 64 54 60 72 76 80 72 126 258 262 231 223 199 183 195 166 134 116 114 136 166 168 162 162 171 225 252 283 270 231 183 152 193 250 320 330 242 173 175 173 169 199 197 195 187 179 154 154 154 110 68 74 92 106 162 197 217 223 242 244 225 199 
64 68 68 64 60 68 64 54 50 66 64 56 56 74 66 68 62 56 58 54 62 54 48 72 60 106 242 270 229 209 209 177 205 201 185 148 136 156 191 187 191 203 234 299 301 293 268 205 134 140 162 164 197 215 187 171 175 179 181 162 171 173 152 150 136 120 98 56 36 66 90 132 173 181 225 238 266 293 276 262 
74 72 60 70 60 74 58 66 62 56 60 56 56 56 62 60 64 66 44 44 46 48 40 58 58 58 193 293 281 236 227 211 234 262 254 217 197 219 213 221 248 283 301 328 307 281 223 171 134 138 140 138 156 156 171 173 185 179 164 171 156 148 154 152 124 118 94 38 36 48 92 144 195 229 244 268 287 278 276 250 
60 54 52 60 58 56 60 62 62 56 66 66 44 60 52 68 70 64 42 38 44 42 40 62 52 46 134 307 330 309 305 301 318 340 343 334 322 303 274 283 314 334 338 340 305 260 193 158 128 140 148 132 156 156 169 183 179 156 166 160 148 140 134 138 112 102 94 66 46 56 114 150 207 227 250 229 252 246 236 234 
68 50 68 34 58 44 58 52 46 50 50 46 56 52 44 46 46 50 44 34 30 44 36 54 36 44 68 225 307 328 340 330 355 365 398 371 353 340 338 330 347 349 318 314 191 158 136 124 120 112 122 134 173 166 162 169 166 154 154 166 138 134 120 116 98 102 74 60 46 68 72 106 156 183 195 173 189 171 168 154 
44 38 44 48 48 50 50 30 48 54 58 50 52 44 54 58 54 58 36 20 22 22 26 40 16 44 40 64 175 299 332 345 371 388 409 378 351 351 324 338 328 303 250 168 70 74 62 70 74 106 96 126 156 171 158 162 148 144 142 128 126 96 100 114 92 74 78 56 54 42 46 44 48 82 98 88 100 102 100 114 
56 36 26 24 28 58 34 34 30 34 38 44 44 40 52 46 34 44 14 18 30 22 14 30 22 28 12 36 34 86 156 215 270 328 340 349 340 320 309 305 274 183 74 52 36 38 38 40 32 42 54 58 74 90 100 108 104 122 110 90 84 80 82 70 58 60 54 44 42 38 26 20 32 46 72 70 76 80 82 98 
68 40 42 36 40 50 14 32 48 34 32 32 48 30 22 42 44 36 24 20 0 28 14 20 26 8 20 30 40 42 74 64 94 124 169 211 227 207 179 169 140 86 52 66 44 60 52 48 40 44 44 32 14 38 36 42 38 38 50 46 34 50 34 40 28 30 28 46 30 26 16 20 32 46 52 80 70 78 84 90 


