P2
80 60
519
134 136 92 118 108 116 118 116 120 126 130 108 114 120 114 118 108 88 110 86 74 92 76 80 70 70 70 70 68 72 52 80 66 66 68 66 64 74 80 90 72 66 74 68 90 80 72 82 92 88 66 48 62 70 48 50 50 50 62 72 120 96 112 116 110 120 114 116 136 112 118 96 94 104 86 96 88 100 118 106 
126 128 110 100 98 116 108 106 124 120 136 124 100 114 114 112 114 94 74 86 88 74 76 58 56 54 58 76 60 58 64 68 74 52 76 86 76 94 80 102 78 90 112 130 152 130 132 118 120 96 84 72 66 74 64 74 64 64 84 72 82 108 110 106 118 108 124 118 136 130 110 98 110 86 70 84 82 104 104 118 
130 104 106 114 104 118 118 122 124 126 120 98 108 118 126 116 92 94 86 84 86 82 66 64 70 52 80 80 70 66 78 88 92 86 98 112 136 154 168 166 166 241 312 356 391 399 384 333 275 212 144 108 92 108 86 84 64 72 80 92 106 102 106 94 122 122 114 122 122 112 108 110 90 94 92 104 92 98 114 122 
106 96 98 106 120 118 128 116 112 108 118 116 98 114 116 92 102 106 92 96 70 90 76 72 82 68 64 82 82 88 82 106 88 116 172 229 235 239 320 401 413 434 447 422 420 440 434 418 391 380 331 292 202 160 146 136 108 96 114 102 102 118 108 116 112 112 126 114 120 126 140 106 118 96 108 92 100 102 122 102 
120 98 104 104 114 118 116 118 124 116 114 106 112 100 112 112 98 116 92 100 90 92 76 84 82 76 76 84 98 100 104 138 194 278 335 331 316 308 349 482 465 430 424 399 378 380 362 354 341 331 323 310 333 323 302 290 275 245 200 162 160 144 140 140 136 126 128 136 132 136 146 136 124 110 112 110 112 100 128 124 
104 92 114 102 114 110 114 98 116 128 124 116 112 102 118 120 104 100 94 96 94 98 96 88 94 84 90 92 92 90 132 273 343 356 343 290 323 318 354 438 401 323 251 206 192 190 202 206 225 267 233 259 323 339 296 298 302 286 241 239 245 263 241 239 217 192 182 160 176 184 156 164 148 142 134 132 142 132 160 164 
100 106 124 114 94 134 122 118 122 126 106 122 98 98 122 122 106 124 102 98 114 102 98 84 90 68 86 100 102 106 196 422 418 389 362 353 362 347 333 325 267 245 243 249 288 278 282 278 247 255 204 249 282 276 267 269 269 267 273 251 237 265 282 275 292 276 265 225 255 259 239 245 239 237 221 231 219 210 204 188 
116 102 108 112 110 118 124 116 112 128 112 118 118 110 136 120 108 110 98 104 106 110 90 86 92 104 98 102 106 132 259 436 442 426 409 399 413 337 329 335 323 322 320 322 316 300 263 257 231 210 213 257 263 245 233 269 261 276 271 261 271 280 282 310 322 312 306 292 255 263 273 292 308 288 276 273 284 280 276 259 
110 100 130 116 118 114 108 116 120 110 118 112 124 102 114 126 110 110 102 98 116 106 92 100 100 100 98 112 136 164 265 353 455 451 459 430 391 333 318 333 323 323 304 284 275 251 239 251 208 204 212 235 251 223 200 261 273 294 302 310 304 308 331 327 329 331 325 318 329 261 271 308 296 284 276 280 275 273 286 290 
118 102 104 110 122 128 128 116 108 114 122 114 116 114 112 116 88 100 102 104 126 166 148 144 154 150 130 112 160 284 366 353 434 442 446 416 360 335 318 302 304 314 323 292 265 247 223 231 200 202 227 243 257 225 215 247 253 316 329 329 351 354 331 349 356 337 327 333 333 273 286 296 304 284 286 284 276 275 308 288 
118 96 116 116 118 116 116 120 118 116 116 104 102 94 114 102 104 106 130 122 225 282 296 364 378 393 308 225 241 403 511 395 385 409 395 370 288 284 273 276 292 294 298 257 249 251 221 212 212 206 213 245 263 235 233 215 217 269 314 337 325 351 341 331 327 327 341 304 296 284 292 275 296 290 300 280 284 275 290 282 
104 98 104 100 108 130 114 118 110 98 100 108 88 98 114 106 110 104 116 198 316 384 395 457 461 447 459 409 434 492 515 430 372 351 358 351 329 310 298 310 316 306 278 267 261 223 215 213 219 227 225 249 269 225 219 237 296 325 329 320 323 288 286 276 276 288 314 296 286 300 278 294 288 290 265 265 275 239 265 257 
110 104 100 106 106 110 130 126 110 106 102 114 102 92 98 100 106 100 126 251 335 424 428 444 426 391 424 420 436 475 486 411 397 384 374 343 323 296 273 263 253 259 259 241 231 225 231 219 249 235 292 284 273 229 231 265 310 329 351 360 360 360 333 345 341 347 323 273 275 282 259 265 267 241 247 249 247 239 247 227 
104 110 112 102 94 114 104 100 104 116 100 106 104 86 104 94 100 98 122 286 360 409 453 434 422 385 403 418 409 457 434 405 409 401 395 351 310 280 255 255 239 239 247 241 219 235 223 247 286 269 300 276 276 267 314 347 362 380 372 368 354 368 385 349 360 354 354 276 265 245 241 243 233 239 241 225 229 212 223 178 
96 96 120 92 120 112 102 104 100 100 98 84 80 96 92 96 96 90 116 278 354 389 411 455 391 316 339 347 378 403 387 438 422 416 416 401 327 306 294 304 306 320 320 288 261 227 255 286 290 290 300 308 316 349 378 409 407 391 389 393 374 358 351 335 339 353 331 282 249 241 259 249 233 225 213 202 180 138 162 164 
118 98 106 106 102 122 100 106 112 108 98 100 94 100 104 94 92 96 118 180 335 341 416 397 331 282 337 341 364 391 393 415 430 413 395 362 325 296 286 310 298 345 354 366 329 284 290 298 316 298 302 349 360 378 420 438 405 395 407 391 384 339 351 333 341 327 335 286 275 282 247 229 204 192 162 144 146 124 158 136 
106 88 124 104 110 94 102 110 100 106 118 112 94 104 102 94 92 102 102 120 178 282 320 308 306 304 217 219 322 389 418 442 424 415 409 364 327 306 294 312 314 341 353 364 354 322 306 322 356 323 308 343 364 395 434 453 374 395 416 413 347 316 323 316 310 308 296 288 261 231 204 170 170 140 130 120 138 134 132 132 
112 94 96 84 102 108 98 100 102 100 98 100 94 98 110 108 96 104 108 114 128 144 239 284 323 221 136 124 180 276 426 471 471 442 415 418 409 401 349 343 323 337 347 372 362 333 325 337 356 337 351 316 337 347 370 362 316 320 376 364 312 304 290 282 255 245 227 206 198 174 166 154 146 142 136 134 142 132 146 124 
110 118 106 112 94 104 102 106 116 80 86 110 90 94 112 82 100 98 98 102 104 128 212 237 227 126 126 138 160 188 360 438 461 455 451 434 424 424 422 393 360 362 358 341 320 320 310 314 318 322 327 316 310 318 312 302 247 263 280 255 225 212 196 174 178 158 168 174 168 170 152 156 148 144 130 128 148 138 138 144 
96 98 92 108 114 108 94 106 96 96 108 104 98 92 102 104 94 92 98 104 102 106 116 110 108 110 110 128 126 180 335 378 378 428 447 416 349 282 269 245 219 206 215 206 200 213 221 257 263 276 259 263 265 212 180 160 140 130 130 114 116 140 142 134 148 156 168 154 172 162 154 152 148 150 128 140 140 146 160 144 
110 108 114 100 104 110 90 112 98 88 98 90 92 110 94 104 118 104 90 98 104 104 110 110 112 104 96 124 132 144 223 310 349 331 366 343 251 202 239 237 235 210 166 178 174 188 202 210 210 204 184 188 172 148 126 112 88 96 108 106 122 130 128 130 136 146 156 158 160 162 152 154 150 126 130 134 142 134 156 154 
100 106 100 98 98 100 106 108 108 92 100 90 102 104 104 92 92 96 98 98 108 98 86 104 108 86 108 112 122 122 136 170 190 235 280 253 237 269 296 318 300 288 300 306 300 322 237 208 206 182 168 160 180 136 112 100 88 90 92 106 110 120 132 132 146 144 158 154 158 158 152 146 144 114 130 120 140 152 164 152 
112 104 112 112 102 112 106 102 98 102 102 106 88 90 104 96 108 100 92 84 102 104 98 110 104 100 112 112 120 118 132 144 158 184 241 298 306 273 290 314 286 292 353 356 337 351 339 249 184 194 166 146 148 122 106 92 76 92 108 128 100 126 122 130 154 142 146 144 160 164 138 138 150 120 138 128 130 134 166 142 
102 98 114 94 102 108 92 96 110 100 90 112 88 102 94 102 102 102 94 92 110 102 102 94 104 100 120 112 110 124 138 152 200 255 233 208 223 162 200 267 261 267 325 339 345 331 343 314 208 172 134 166 134 136 118 88 100 92 112 108 108 138 114 124 128 130 146 144 166 152 150 146 142 150 124 142 156 138 160 150 
110 106 114 124 100 120 110 122 110 106 94 106 94 106 104 92 108 100 96 102 92 98 100 100 102 90 96 104 120 116 132 156 275 294 247 196 152 84 64 174 212 210 292 241 241 249 271 278 257 204 192 150 170 164 158 144 168 184 170 176 158 150 112 118 116 114 114 114 158 156 154 160 144 146 122 150 156 142 156 148 
86 108 96 100 98 94 108 88 100 100 104 98 98 90 108 94 98 104 86 98 108 92 122 100 80 88 92 106 120 118 138 210 329 298 235 249 233 215 186 186 202 160 132 96 110 148 215 288 316 316 217 178 172 162 152 164 208 249 267 235 235 212 124 92 102 92 98 70 122 162 160 166 162 138 130 142 140 150 156 164 
90 90 108 100 84 104 110 110 110 106 102 88 82 98 102 104 98 102 92 88 114 106 150 136 142 148 134 118 114 122 154 241 304 308 261 288 312 269 221 128 104 70 36 54 76 166 162 300 382 366 278 196 174 174 144 158 237 259 265 237 231 223 162 108 100 108 80 60 118 154 166 166 168 184 172 158 136 130 164 215 
106 88 104 100 102 96 94 100 98 90 88 96 84 92 98 82 82 94 90 94 132 180 217 200 251 349 306 170 140 124 204 300 290 304 302 364 370 282 225 100 6 36 14 42 38 106 136 316 384 366 335 265 192 162 180 160 223 239 231 219 227 206 166 102 100 82 80 82 138 202 210 227 239 263 269 235 206 188 223 288 
98 108 96 94 96 92 96 98 102 104 108 98 70 88 108 100 100 86 90 114 210 275 302 316 401 465 430 378 304 282 312 276 271 304 308 331 323 249 190 54 14 8 16 10 50 84 110 296 393 366 356 323 245 190 150 176 206 198 192 194 178 158 144 118 116 92 90 110 142 235 247 255 261 290 316 292 278 259 288 275 
92 104 112 120 100 92 98 94 106 100 102 84 78 86 92 74 94 96 98 130 263 341 320 407 465 477 505 447 387 399 360 298 284 316 296 275 241 188 96 50 34 18 54 26 24 110 134 310 378 372 393 339 271 188 196 178 210 180 184 152 160 152 122 116 114 108 92 112 176 231 231 261 249 275 302 278 278 273 280 257 
108 102 106 100 86 106 84 86 110 118 94 82 98 100 84 86 108 82 96 156 276 354 411 475 473 415 446 451 382 380 372 286 280 322 308 223 168 114 86 24 38 0 60 92 54 138 233 325 384 360 372 360 306 182 186 198 160 180 178 170 166 166 156 148 142 132 104 154 198 231 225 206 221 239 255 253 249 284 257 253 
98 100 110 98 104 90 100 118 98 90 102 90 90 92 102 100 84 98 96 148 298 385 430 467 444 382 416 444 378 403 370 290 322 339 312 235 168 112 78 46 20 32 44 106 130 255 333 387 397 374 333 306 194 202 204 212 188 162 174 150 134 140 156 140 162 148 144 152 174 206 184 223 255 241 251 255 261 267 273 231 
108 100 96 106 108 98 100 108 96 104 90 106 84 92 88 96 110 96 110 124 273 374 370 428 438 453 475 434 370 384 351 316 335 360 304 239 164 108 64 28 46 66 72 96 178 337 389 393 384 323 316 235 194 212 208 219 210 172 164 164 174 196 208 176 166 136 154 146 168 198 225 229 243 257 255 251 257 237 176 188 
106 100 112 102 110 120 110 102 100 116 96 98 96 98 98 102 106 96 112 114 170 231 253 267 339 389 360 304 219 237 349 322 333 316 276 259 227 180 106 36 84 154 94 94 215 347 382 389 329 269 231 227 208 198 233 184 202 196 180 235 219 229 219 204 202 180 178 184 188 206 243 231 237 235 247 255 237 164 160 150 
94 82 108 100 100 116 96 102 106 94 98 100 100 106 106 100 102 90 104 90 124 138 134 132 132 158 146 132 132 158 306 345 296 288 288 290 273 239 178 138 132 106 124 140 202 341 387 378 292 200 194 229 172 194 204 176 170 170 198 229 217 221 221 204 212 219 219 253 257 245 217 233 215 225 219 239 168 130 148 126 
94 78 94 100 80 96 96 96 108 108 92 106 106 102 94 102 114 106 100 96 108 92 96 108 104 92 106 104 126 154 288 312 284 271 280 304 286 269 231 204 114 96 140 134 241 308 331 280 215 164 164 213 154 168 172 178 188 180 206 223 212 217 229 221 235 257 278 284 292 255 253 233 235 212 219 174 138 110 126 136 
102 92 110 102 104 118 110 90 104 108 104 100 102 92 98 108 98 92 92 90 96 110 108 98 88 96 90 110 122 128 253 316 282 261 280 273 273 280 269 208 134 114 116 184 259 312 275 198 170 156 202 206 144 130 152 162 188 186 206 217 225 233 241 241 257 286 290 318 323 298 259 241 229 212 174 130 122 116 132 134 
100 96 112 108 102 100 98 88 108 92 104 102 86 114 102 94 106 96 106 90 100 100 94 102 96 102 110 118 120 120 237 275 251 210 192 194 245 265 267 219 190 140 166 231 294 298 231 194 178 154 158 172 130 122 110 158 208 213 198 217 206 235 231 241 276 302 275 306 325 296 276 249 192 158 126 128 120 118 124 138 
86 104 100 100 98 100 106 100 102 108 116 104 90 110 104 100 106 90 98 90 104 102 112 112 88 108 74 112 102 110 200 288 257 196 126 156 208 221 257 304 243 184 263 302 298 294 206 196 192 178 134 180 160 124 142 162 180 190 190 196 219 198 231 257 275 288 288 280 280 275 237 188 148 132 132 128 140 134 170 150 
110 100 110 108 94 116 104 106 96 118 96 90 66 84 112 96 96 90 102 104 112 86 94 80 86 96 106 114 118 116 142 231 290 284 280 282 288 257 257 335 329 278 335 325 314 241 134 136 154 174 132 136 156 134 140 130 164 178 178 182 198 229 249 257 263 276 261 265 253 235 180 148 136 126 134 132 150 152 170 162 
106 108 100 104 106 114 104 102 112 116 112 100 88 88 102 98 96 92 92 102 104 102 102 96 88 88 92 86 114 124 134 156 229 302 343 331 292 271 290 374 331 333 341 337 310 182 118 126 124 136 140 142 146 136 142 120 108 136 174 186 190 210 215 227 215 208 210 192 174 156 142 140 120 126 134 132 152 150 178 162 
90 94 92 100 88 100 104 92 98 102 104 106 84 104 108 104 98 88 102 80 102 92 86 80 84 90 112 100 96 106 126 138 154 217 271 280 267 253 323 384 362 333 335 323 245 118 108 112 138 142 134 124 142 122 104 106 94 82 86 134 132 116 138 122 124 128 152 152 142 136 122 122 114 106 112 128 150 156 174 166 
104 116 128 94 110 120 104 98 94 102 90 94 88 92 102 98 82 86 102 98 94 96 108 88 88 90 104 98 144 206 271 296 306 298 290 288 251 290 294 275 247 245 249 217 126 110 112 124 140 144 106 114 124 94 84 76 66 68 70 70 86 98 102 94 114 128 120 122 144 128 132 112 112 112 118 134 146 146 168 172 
102 92 92 110 102 100 100 94 92 108 112 100 100 96 90 90 86 90 86 88 92 94 94 88 76 74 114 213 310 353 358 376 360 341 316 302 282 337 358 362 302 235 168 114 84 96 106 120 126 118 114 94 112 110 86 82 98 102 98 112 118 110 112 120 102 102 126 138 140 132 130 124 114 112 126 134 146 148 162 144 
92 102 100 122 112 116 102 98 118 110 106 94 94 110 88 90 90 88 90 84 92 96 98 94 84 98 164 323 329 333 358 360 364 364 358 343 322 389 405 405 405 364 310 166 110 98 118 140 148 176 166 172 190 174 186 180 170 196 198 176 166 174 142 130 126 126 134 118 126 132 142 128 108 110 124 120 152 160 164 148 
108 114 120 112 102 112 108 116 102 110 114 104 116 102 92 102 114 110 98 88 112 102 88 102 100 124 249 341 347 314 329 347 356 353 349 349 380 424 416 397 401 413 405 354 267 213 206 190 192 212 219 204 237 206 200 204 190 180 184 172 168 184 172 144 146 156 134 136 166 192 225 210 190 154 126 142 146 144 164 146 
98 102 118 110 120 118 116 112 120 102 108 102 116 100 106 102 120 104 112 96 98 110 106 116 112 146 294 316 339 318 323 288 265 286 316 322 329 368 403 405 389 397 403 389 356 314 239 202 188 223 227 215 202 194 194 192 192 202 202 178 182 166 166 150 136 146 150 142 168 208 237 257 275 273 237 225 180 154 170 158 
98 106 100 92 116 110 108 102 104 120 110 112 102 116 142 142 148 154 162 154 144 130 122 102 126 221 296 306 294 304 276 286 298 271 271 225 206 243 318 349 356 374 393 422 399 360 308 239 198 213 213 210 212 186 194 190 192 202 204 188 152 152 164 156 172 168 158 146 176 213 210 255 280 294 294 275 267 217 206 178 
110 116 102 118 110 108 106 102 126 112 122 116 94 122 138 233 331 339 347 376 387 333 194 134 164 325 318 318 284 259 265 276 304 288 241 162 154 186 243 280 304 325 370 380 380 368 351 312 221 231 215 217 196 196 180 186 204 210 196 180 180 176 186 158 178 182 198 170 196 202 243 253 288 310 318 316 294 271 261 241 
118 106 108 124 108 108 120 100 122 116 114 124 96 146 212 331 440 428 475 500 486 505 455 347 353 362 331 331 304 249 251 257 257 241 178 138 112 118 223 261 263 273 304 314 349 372 358 337 282 208 210 219 215 188 204 192 210 194 188 180 176 202 176 182 186 190 208 215 217 239 255 255 300 308 312 308 275 302 286 257 
108 114 120 114 108 102 102 110 114 122 112 96 110 144 271 401 432 482 502 515 473 490 455 465 447 430 353 335 325 278 261 233 221 158 96 48 40 120 212 249 229 265 253 269 296 323 339 343 306 259 215 213 217 202 202 200 196 196 194 182 188 188 174 174 172 200 204 202 192 215 233 239 275 280 275 251 255 259 233 239 
112 104 112 112 120 128 108 114 104 116 104 106 108 166 275 395 444 498 488 480 461 449 411 415 424 438 382 282 327 282 227 221 182 148 88 26 44 152 212 239 233 253 239 225 245 282 296 322 292 296 215 217 206 200 208 198 186 192 196 184 194 160 150 134 124 134 144 158 162 162 196 223 202 184 184 176 202 212 206 223 
106 96 118 110 112 116 124 128 100 118 118 116 128 164 306 378 426 473 519 482 461 432 418 395 422 422 356 282 292 271 225 212 178 152 100 44 52 160 227 225 233 245 241 255 241 239 247 308 306 322 269 233 233 217 233 213 194 196 160 130 128 104 114 110 114 120 138 148 146 134 152 146 120 146 124 138 144 160 162 166 
128 116 110 118 98 122 98 112 110 124 126 112 106 138 202 310 385 422 486 471 465 444 440 391 409 403 339 269 261 219 206 198 162 116 58 24 50 146 213 221 221 212 227 225 223 213 231 306 304 322 288 276 231 243 280 257 215 208 134 94 106 96 104 100 128 122 138 142 146 150 132 138 116 108 108 154 126 140 150 142 
118 100 116 122 132 114 102 124 118 118 110 112 90 120 124 190 288 316 391 399 397 416 349 241 267 320 316 288 278 217 202 206 146 108 20 0 30 126 194 219 192 194 184 176 198 194 221 243 296 337 308 300 275 300 360 333 294 217 204 144 146 142 138 128 100 104 134 140 142 132 136 132 110 114 120 130 122 138 152 156 
90 96 92 96 102 96 112 98 108 100 100 112 102 118 112 110 138 152 154 174 200 180 142 116 168 276 306 267 282 245 223 221 152 90 26 12 10 88 182 223 200 172 192 200 204 204 208 227 290 351 337 282 308 327 353 349 306 223 204 190 190 198 178 174 162 150 154 154 140 164 160 138 152 152 158 164 154 150 154 146 
86 76 108 104 100 90 108 100 112 108 94 100 98 96 90 98 114 94 112 86 112 102 96 82 106 176 306 304 284 231 213 213 198 114 44 16 28 84 200 200 182 196 184 210 196 210 215 233 271 353 327 322 300 296 333 337 245 221 202 215 210 202 192 180 190 202 186 158 146 160 186 202 221 249 267 253 251 243 219 215 
86 96 98 118 100 102 96 98 82 92 96 90 86 94 110 96 104 82 104 86 90 80 76 66 86 142 310 323 286 239 204 221 202 132 66 46 6 90 172 221 212 192 192 190 202 221 233 245 320 407 372 366 312 259 265 227 212 210 202 213 227 215 200 188 190 186 204 152 156 138 174 200 243 263 275 300 302 294 296 278 
86 76 80 100 102 104 94 78 76 84 82 78 80 88 84 102 90 88 82 72 88 74 76 68 72 108 306 333 286 257 241 215 206 182 116 52 24 84 176 221 200 202 204 212 245 282 300 300 322 382 384 382 322 235 176 186 192 192 198 198 208 188 172 178 182 178 158 112 104 150 178 206 225 267 294 320 353 333 343 302 
96 92 96 74 86 98 94 90 86 106 78 86 94 90 92 100 74 90 86 58 78 94 72 70 70 78 221 300 304 271 249 231 192 182 192 158 160 202 215 251 247 265 257 278 300 298 267 243 241 275 275 294 229 198 188 192 166 184 192 178 206 174 156 162 176 146 122 92 112 144 180 196 247 286 300 316 333 294 325 316 


