P2
80 60
554
50 40 46 28 36 50 54 48 56 64 38 54 62 64 64 78 66 74 72 60 60 54 62 72 84 68 80 64 76 58 70 74 70 74 56 68 54 68 50 62 76 76 72 74 52 62 52 42 46 50 90 112 112 116 126 128 102 106 86 84 100 84 96 108 104 90 102 92 92 98 80 82 104 94 70 92 86 42 38 98 
36 32 36 26 34 50 40 40 40 48 56 58 56 60 62 66 70 52 60 66 66 40 56 56 60 50 66 72 60 50 68 58 66 52 50 58 44 58 66 70 62 62 72 58 54 46 52 52 26 42 60 90 110 96 100 86 78 70 34 38 80 74 70 114 196 209 197 168 197 156 140 158 188 194 184 180 140 116 64 30 
44 26 34 28 44 54 36 36 40 46 52 54 36 56 56 62 64 48 68 68 40 48 62 48 48 52 60 70 56 44 54 40 54 50 60 54 58 52 56 50 64 62 72 48 52 32 60 48 36 56 66 62 66 66 60 44 34 30 8 24 68 56 92 229 235 247 282 276 313 371 304 223 217 219 245 247 197 172 152 148 
52 24 34 32 40 48 42 50 48 42 48 46 54 32 58 54 62 56 78 62 52 48 48 52 56 36 50 62 46 48 60 50 52 44 46 52 48 54 44 56 56 58 62 44 54 48 62 44 46 34 40 40 36 18 30 32 26 36 12 36 76 82 114 278 260 272 321 304 348 356 278 243 221 209 227 243 235 196 180 211 
50 32 46 26 50 46 40 46 42 46 52 44 58 62 50 70 42 50 44 68 36 42 40 42 62 44 34 60 54 50 54 58 44 42 40 54 42 46 42 48 52 68 64 46 44 62 58 56 40 36 42 60 56 42 44 46 26 24 0 44 72 82 138 276 278 317 375 338 350 323 257 241 237 221 227 221 211 186 170 190 
56 20 32 38 26 64 58 44 36 48 50 50 58 44 54 48 56 52 52 48 32 38 52 42 44 48 40 66 54 36 68 40 56 54 40 52 56 56 54 58 56 68 58 56 46 60 52 68 48 50 52 70 44 40 42 64 54 40 22 40 46 50 128 278 327 368 410 393 393 323 294 262 239 241 243 245 221 213 201 243 
24 12 34 28 50 68 48 46 48 42 50 54 46 52 34 52 46 48 46 46 44 52 52 42 56 46 54 56 48 54 58 52 58 50 46 60 54 62 52 64 64 62 58 62 66 56 60 58 52 52 70 66 46 32 64 58 64 46 30 46 78 76 120 259 338 393 426 414 399 335 280 276 274 259 264 260 257 255 249 243 
30 4 22 32 34 46 36 40 42 46 32 36 48 46 38 56 40 40 48 52 48 40 44 44 52 54 56 54 42 54 64 46 56 54 56 50 66 56 62 54 56 66 80 56 60 54 56 66 58 58 66 70 72 60 64 82 128 132 136 182 257 188 174 257 356 400 435 375 352 315 317 304 280 282 284 294 260 260 249 296 
36 18 26 24 14 42 38 36 44 40 48 50 56 54 42 62 48 48 46 62 42 48 56 42 50 50 56 58 44 56 52 50 60 56 54 52 50 58 66 54 68 70 74 66 72 62 72 66 70 54 70 60 62 82 114 178 278 321 364 400 418 369 371 383 369 391 435 437 387 329 331 302 288 262 288 292 292 284 264 298 
38 18 42 36 26 44 34 24 32 50 50 52 46 42 48 52 62 44 58 56 50 44 56 34 56 46 50 56 66 54 54 58 50 56 66 66 64 66 74 66 72 66 74 58 60 66 54 68 66 68 76 68 72 134 217 225 344 453 437 462 499 480 437 435 402 408 447 472 451 358 344 325 321 321 309 311 290 282 251 296 
20 12 34 26 38 44 46 30 38 36 40 48 46 40 48 64 54 46 62 64 52 44 70 56 56 44 66 64 50 56 66 54 52 56 62 68 64 52 70 62 72 72 70 66 70 80 66 58 82 60 52 82 82 180 213 203 331 468 466 497 520 512 466 435 431 435 489 527 508 410 354 337 337 333 342 329 311 292 274 292 
38 16 28 24 34 48 42 44 50 34 42 52 48 54 48 66 50 50 58 52 52 54 48 58 48 60 60 60 64 48 74 52 60 58 64 68 54 68 64 58 60 68 70 68 64 74 56 72 60 58 60 68 78 164 217 225 321 461 493 522 554 505 455 451 435 439 518 529 480 430 395 354 342 342 337 329 300 290 260 298 
26 16 40 38 42 46 36 40 46 50 58 56 46 54 50 50 66 56 48 68 56 54 58 64 58 50 72 56 54 58 52 54 58 60 74 64 52 64 62 60 70 68 68 62 60 64 58 60 54 60 76 82 70 130 207 235 321 437 503 522 541 499 449 437 443 470 527 522 441 383 387 371 340 337 315 302 294 284 266 274 
30 20 16 36 26 54 44 36 38 38 56 38 56 46 30 52 58 56 58 54 58 68 50 64 50 58 56 44 52 52 68 58 44 60 60 54 52 62 50 48 52 50 66 58 60 60 66 66 62 50 68 72 62 94 225 249 313 406 472 516 522 466 464 459 443 439 468 449 366 371 369 366 352 356 333 317 313 276 264 296 
22 4 34 36 48 50 52 34 42 48 50 40 46 36 36 54 52 60 54 60 62 64 56 56 54 62 66 58 62 50 56 46 54 52 66 62 40 62 56 64 68 58 62 56 54 64 64 62 54 56 66 66 66 50 152 259 323 397 437 466 507 445 447 443 437 418 391 292 325 340 342 375 360 338 340 329 311 294 302 296 
34 14 32 34 36 42 54 32 38 48 44 40 44 58 46 60 46 50 68 56 64 46 60 46 54 50 52 58 46 42 58 48 54 54 56 50 40 52 50 64 58 54 50 42 62 60 70 46 58 44 62 64 42 40 64 146 225 319 368 306 424 424 466 464 441 385 368 313 337 397 416 393 375 338 358 348 337 333 344 371 
28 24 32 12 46 40 50 46 40 34 44 56 58 54 38 50 46 40 48 42 56 52 38 40 50 36 44 48 64 48 46 52 50 38 48 60 50 58 58 48 54 46 52 48 52 56 62 56 48 50 58 60 46 42 44 50 80 96 96 164 251 368 435 455 447 414 428 369 360 389 381 377 375 375 377 399 391 391 383 371 
34 4 30 26 34 46 32 30 36 34 32 36 44 38 40 42 50 46 42 42 38 48 42 44 38 38 40 40 40 48 42 28 34 38 42 48 44 48 48 56 56 50 60 48 42 52 52 48 60 60 56 52 46 40 42 40 54 50 62 52 142 387 399 383 431 402 385 410 399 387 358 373 387 410 424 428 412 416 397 397 
26 18 44 34 30 52 44 32 56 40 50 44 36 48 44 42 52 42 64 42 30 44 44 54 50 38 42 40 42 42 58 54 60 38 46 54 50 52 58 52 56 68 66 66 66 60 62 62 66 64 76 80 58 54 64 48 62 74 68 78 245 331 333 302 391 397 327 383 387 366 350 377 402 414 430 418 414 412 399 397 
26 18 30 20 28 36 38 32 34 38 46 42 36 44 26 46 44 40 40 36 44 42 42 42 56 50 40 46 50 52 50 52 56 56 66 46 52 56 62 60 64 58 60 56 76 62 70 60 72 64 80 92 76 58 76 76 66 66 88 160 319 385 385 358 379 385 377 395 391 350 354 377 389 414 418 416 414 406 377 397 
28 14 46 38 32 22 26 16 22 36 44 46 48 52 38 52 54 48 38 50 50 58 44 50 50 62 58 56 54 64 60 60 62 58 58 66 54 58 66 64 62 68 56 70 64 66 72 54 70 70 86 92 80 74 112 132 118 108 211 342 381 402 383 377 383 371 377 414 368 325 331 360 375 368 387 385 395 381 364 346 
22 22 48 26 36 46 52 30 46 44 40 42 52 50 46 64 56 42 54 68 60 50 58 48 60 48 74 54 48 60 68 66 52 56 56 60 60 56 62 68 76 80 64 74 64 60 70 64 78 70 90 98 88 126 211 247 260 288 346 377 393 371 369 350 368 329 327 278 294 356 311 311 331 342 346 352 356 358 331 333 
24 38 40 38 26 28 48 28 40 28 48 46 56 38 52 72 34 46 58 72 56 62 46 50 60 56 54 52 56 50 54 58 64 60 62 68 60 60 70 72 56 58 74 68 60 64 78 82 70 74 92 100 114 221 325 327 346 364 377 383 379 377 350 323 321 282 223 203 286 302 270 278 278 304 319 358 360 352 327 333 
36 26 44 26 44 36 38 40 26 30 52 34 52 50 48 66 56 50 50 70 58 62 60 56 58 54 60 60 68 58 68 68 64 54 54 68 66 64 66 76 56 70 74 64 72 66 80 80 84 80 90 110 170 274 375 342 368 369 377 385 389 364 298 272 251 231 221 219 255 259 231 255 292 307 304 296 306 342 325 319 
26 20 52 34 28 44 40 34 42 36 36 46 52 54 38 56 58 50 56 52 58 64 52 46 58 54 58 50 46 60 62 64 54 62 66 74 64 58 62 48 78 76 66 70 74 72 82 90 90 84 98 124 247 311 358 366 387 395 381 393 424 381 315 255 235 211 213 235 243 259 239 251 260 255 237 231 270 340 346 348 
24 20 32 24 42 50 42 24 48 40 44 40 46 58 54 56 52 52 48 60 58 58 54 50 50 58 64 64 66 58 60 68 60 58 68 68 54 50 64 88 84 78 80 76 78 96 112 122 154 152 154 205 327 358 383 389 400 412 435 466 472 422 383 323 235 239 276 294 317 294 243 225 239 225 215 225 239 294 362 348 
24 24 34 36 32 58 42 34 38 34 46 38 56 62 50 64 74 62 54 46 46 52 64 64 64 42 66 56 40 50 66 54 60 64 60 66 50 60 58 76 72 72 90 96 190 317 377 369 395 375 379 395 430 443 418 389 422 464 501 478 476 447 433 358 306 239 247 300 354 373 337 278 227 176 192 221 255 257 307 311 
30 32 48 36 42 44 46 50 36 34 54 52 42 50 48 60 52 58 42 52 48 60 52 52 52 56 54 64 66 64 60 64 50 60 70 64 66 72 62 60 62 78 104 201 377 462 484 461 472 455 433 437 453 455 430 397 478 455 486 489 489 447 424 387 300 259 260 245 282 319 313 296 260 150 184 225 249 262 270 255 
32 22 26 36 38 54 38 36 44 42 46 46 50 36 50 66 52 52 42 54 46 46 44 44 60 42 48 62 50 58 50 50 54 58 62 70 66 60 56 68 70 72 118 313 416 482 474 451 484 468 449 431 381 270 333 462 505 487 439 455 486 439 369 354 264 231 266 251 201 223 235 243 249 205 158 211 239 255 260 243 
34 16 44 14 56 46 34 38 38 38 44 54 42 30 42 46 54 46 50 48 46 46 54 34 52 44 48 46 52 46 54 52 64 56 58 62 52 66 66 76 68 72 166 368 441 468 441 437 466 462 441 352 136 102 152 329 447 464 360 350 451 364 276 276 237 217 237 235 237 211 192 247 243 282 192 217 223 247 255 243 
34 20 38 30 36 36 34 26 30 32 42 40 40 36 40 44 52 42 56 56 42 46 52 48 50 42 42 52 58 50 58 52 48 62 46 50 56 56 62 46 68 62 124 249 225 207 190 243 371 459 368 166 88 80 82 280 503 493 412 323 352 266 259 253 239 233 245 178 197 251 203 223 262 307 229 211 245 245 264 270 
34 26 38 32 44 38 40 42 44 30 30 32 38 24 38 46 42 42 44 52 54 46 42 56 60 38 46 44 52 36 56 46 48 44 46 46 34 56 52 58 52 50 58 78 74 74 138 327 389 274 148 96 70 66 118 385 514 522 451 207 142 188 268 272 262 243 245 205 192 229 229 217 235 284 262 249 241 249 257 282 
34 16 36 32 42 34 46 38 32 28 44 30 58 46 34 48 38 30 46 42 48 50 44 48 46 44 50 50 48 44 50 48 46 50 48 44 46 44 54 48 38 56 54 64 54 68 128 158 132 84 72 84 78 58 176 431 522 505 464 209 80 142 268 215 225 215 260 251 223 247 247 225 213 294 302 276 260 247 274 290 
32 28 40 26 30 48 42 24 46 28 48 24 44 38 36 32 38 36 54 46 40 38 42 34 44 44 56 42 48 46 48 58 50 52 48 56 38 60 52 50 60 74 60 64 66 74 76 70 62 70 74 102 82 62 166 430 499 484 426 227 96 102 207 237 223 213 241 231 239 243 237 217 219 266 315 247 237 280 288 300 
28 20 32 46 34 32 38 26 42 32 42 38 38 58 36 42 46 40 60 50 42 30 42 42 48 42 50 44 56 42 58 54 52 50 54 52 64 56 60 56 68 52 68 68 60 74 60 60 56 76 76 92 74 66 130 292 426 435 416 288 114 86 176 223 237 225 235 229 231 215 180 180 170 205 190 199 211 241 257 292 
16 24 54 46 36 52 48 42 44 42 52 52 56 50 54 50 52 48 56 62 48 44 48 56 62 50 58 54 52 48 56 56 62 56 48 66 56 56 60 64 74 72 66 68 68 76 64 76 70 68 76 92 80 74 80 118 270 387 406 412 239 108 156 231 227 243 272 196 172 142 134 118 126 126 142 162 152 138 196 280 
26 14 26 30 26 52 38 32 48 48 46 36 46 34 48 58 44 50 42 54 64 60 62 56 56 58 60 64 64 50 70 60 58 50 54 74 68 62 64 68 66 78 74 62 66 82 66 72 72 64 78 80 84 64 76 76 98 174 329 397 360 231 186 262 282 280 278 160 134 124 106 114 120 116 138 138 126 132 225 292 
32 14 38 34 40 52 44 24 34 44 48 42 44 58 54 60 58 58 58 60 54 54 56 38 54 56 56 66 52 56 74 68 64 58 58 72 56 56 62 54 60 58 60 72 66 64 68 68 62 62 86 100 80 58 66 62 66 76 114 257 311 319 292 321 317 302 270 170 120 118 106 108 122 124 142 144 120 152 262 300 
28 6 42 30 32 60 52 40 40 42 50 44 50 62 54 60 40 50 74 54 56 58 60 46 62 58 50 62 58 56 60 60 58 64 58 72 62 60 58 62 62 68 76 78 70 76 76 78 64 74 88 98 72 66 64 66 68 68 66 122 278 323 325 329 313 296 300 162 114 110 110 122 126 134 154 162 150 205 319 338 
26 16 36 38 26 46 38 36 46 48 48 46 48 46 60 66 60 56 70 64 50 68 62 58 56 52 68 64 58 46 74 54 74 54 68 66 60 62 68 62 78 68 68 70 74 84 68 72 68 76 90 96 82 70 74 66 78 68 50 60 144 284 325 338 338 315 317 209 205 174 160 152 150 154 158 168 188 282 350 356 
18 24 32 38 36 46 32 26 48 36 40 50 46 56 50 64 54 46 56 68 64 62 66 54 68 58 66 48 68 54 68 60 64 70 66 60 54 58 64 64 60 66 70 80 78 76 76 62 86 70 74 96 70 64 78 62 66 66 50 50 78 164 296 329 348 321 323 288 288 296 298 284 253 215 197 188 251 346 352 350 
32 18 26 34 40 46 32 36 42 48 38 48 40 46 68 68 50 44 62 64 50 56 56 42 54 58 64 62 50 54 60 54 62 68 60 64 60 60 60 66 70 76 74 68 64 78 80 74 86 72 78 100 78 80 68 90 76 64 46 50 56 84 176 300 317 292 319 309 304 306 323 346 346 354 313 272 346 362 350 369 
38 28 26 36 32 56 48 38 44 42 46 64 46 56 52 54 44 52 72 70 58 54 54 50 58 58 60 54 52 60 54 62 58 70 58 62 56 56 62 72 62 76 64 80 84 78 86 80 80 90 86 132 199 199 182 146 108 102 64 60 52 60 90 158 264 306 325 302 296 288 304 342 358 387 399 387 414 364 356 377 
46 24 42 48 50 48 52 38 50 52 56 54 68 52 44 62 50 56 60 70 60 52 56 64 66 72 70 78 54 46 60 56 58 56 68 66 64 82 60 70 84 88 84 92 74 80 90 88 94 100 148 257 369 400 381 395 385 369 221 86 88 70 96 203 251 296 319 306 274 282 264 317 360 393 402 445 441 377 354 366 
42 24 40 42 52 40 40 52 40 42 42 58 64 50 56 54 58 58 56 64 50 40 60 46 54 58 58 56 58 52 66 62 60 68 62 66 52 60 60 62 76 78 80 80 82 88 92 88 84 110 235 356 410 404 428 484 487 482 430 259 128 110 196 286 282 292 298 282 278 259 227 270 338 369 397 441 457 368 342 348 
28 28 28 42 26 56 38 34 46 42 42 54 64 52 52 62 50 54 52 62 44 46 60 54 60 40 60 54 50 48 48 60 56 60 54 58 68 64 66 62 78 76 76 84 78 82 90 84 88 100 280 385 418 437 489 507 486 453 457 464 412 335 371 385 321 282 280 280 266 253 239 270 311 344 391 418 418 348 315 362 
18 14 34 32 26 40 42 42 44 30 44 30 60 40 44 50 44 44 52 58 42 44 58 44 44 52 52 46 46 48 52 68 36 52 48 54 60 58 62 60 64 74 86 62 78 76 78 78 100 114 255 369 387 441 491 466 459 437 397 422 418 433 435 422 375 300 284 260 266 247 249 268 311 333 358 360 395 333 307 331 
16 24 38 28 38 60 42 44 40 36 38 34 40 54 44 46 52 40 58 54 42 44 54 58 50 50 54 48 50 38 52 52 32 56 44 46 38 52 52 64 60 60 72 68 60 84 98 78 78 102 217 311 364 414 482 474 431 393 348 362 397 443 416 410 354 276 272 255 251 259 239 274 278 282 286 286 323 329 319 350 
32 22 38 44 22 44 40 40 44 38 58 48 70 70 52 50 46 52 50 58 48 50 50 38 50 56 54 46 48 42 70 56 56 36 48 56 50 58 64 66 66 80 86 84 64 92 98 78 80 86 158 290 329 391 487 470 437 393 350 306 379 393 369 346 274 229 249 241 239 251 243 253 245 237 231 266 270 300 333 369 
28 26 52 42 48 56 52 44 38 56 46 50 78 72 62 60 58 58 60 60 56 52 42 54 46 58 56 50 58 54 58 64 62 54 66 62 80 72 58 52 80 84 98 80 86 100 108 92 106 98 108 178 225 329 441 451 431 426 400 379 373 377 354 306 262 233 253 227 239 219 199 225 211 223 225 219 257 272 278 325 
36 34 44 50 58 66 60 32 46 44 52 64 66 70 64 66 46 58 82 60 54 62 50 64 62 60 60 72 66 68 62 62 66 68 68 66 72 54 64 72 60 98 98 100 96 96 104 96 102 102 114 122 110 124 213 294 348 375 340 338 344 344 300 284 264 227 233 219 227 209 215 205 197 194 197 237 268 233 264 296 
36 24 50 46 42 72 52 38 56 48 44 58 70 56 68 66 40 66 72 70 62 60 70 62 64 68 62 82 84 62 70 82 72 76 58 70 58 60 68 74 84 96 92 104 110 106 128 116 122 108 126 126 88 82 94 116 122 150 166 235 260 276 266 266 270 235 231 221 231 213 194 190 186 203 178 233 253 217 233 247 
32 22 46 40 46 74 58 60 56 56 74 54 74 64 70 78 54 76 64 70 76 70 84 72 70 70 62 84 70 78 78 72 86 68 78 90 64 72 84 102 114 102 128 130 126 128 142 114 114 104 126 138 108 78 100 98 96 88 136 253 276 245 257 270 260 247 233 223 231 225 205 194 174 164 178 194 203 215 211 229 
40 12 38 42 40 50 52 58 54 52 62 50 54 76 76 68 52 52 64 70 62 64 60 54 76 62 76 70 74 66 58 68 76 64 74 78 68 84 112 142 134 164 136 138 126 138 124 114 114 114 106 122 86 92 80 82 98 116 166 237 276 270 266 259 237 211 231 215 221 213 178 168 130 150 156 188 215 205 180 207 
40 34 54 44 40 52 42 46 46 64 46 60 88 70 66 74 56 64 60 78 58 76 68 72 70 70 66 68 58 54 62 66 82 66 72 70 56 76 98 120 146 172 196 154 166 144 120 94 92 98 98 90 90 88 88 88 80 110 192 231 247 253 237 241 199 180 186 203 201 197 154 140 116 142 152 192 205 188 164 209 
24 20 42 36 48 60 46 40 40 38 68 58 54 56 54 70 72 56 60 76 70 46 54 42 66 62 68 62 60 42 70 72 66 56 74 78 88 64 64 98 124 182 221 219 239 178 126 90 98 94 112 116 84 84 70 80 86 158 209 213 231 211 186 223 213 172 196 168 194 180 120 142 136 172 182 168 186 168 144 184 
32 28 56 40 46 46 44 40 42 44 64 54 54 44 56 52 52 62 68 74 54 62 56 50 64 56 74 72 64 64 68 70 74 60 66 74 78 88 108 152 188 229 249 268 241 199 144 86 114 88 100 94 86 68 80 76 120 221 211 209 199 213 184 186 186 146 184 174 196 160 138 140 172 184 172 174 160 138 156 174 
22 14 32 24 18 52 32 44 48 48 62 40 42 38 54 62 56 52 60 50 56 52 56 50 66 64 66 66 62 66 54 64 62 62 58 78 62 106 156 174 229 272 276 302 278 247 178 108 80 92 96 104 82 64 66 88 186 221 207 197 205 199 201 217 170 164 194 178 174 162 128 150 184 166 170 144 182 186 172 199 
26 16 38 40 24 52 38 32 38 32 50 56 62 68 62 62 52 66 54 50 46 66 60 58 78 62 46 62 62 60 76 56 64 70 68 72 64 70 126 152 192 235 276 280 274 278 253 160 114 96 98 112 88 94 100 150 255 249 223 217 219 215 243 233 190 174 188 174 176 140 134 142 156 168 170 170 199 184 166 197 
20 8 20 32 16 44 26 32 52 36 36 24 48 46 46 64 50 30 60 54 44 54 62 60 58 48 46 58 54 60 60 64 58 52 64 56 50 60 84 102 116 156 217 233 255 243 264 233 168 116 90 108 116 92 176 290 337 342 255 257 241 239 229 205 160 104 130 124 134 124 102 124 130 158 170 180 186 154 154 160 


