P2
80 60
591
158 152 148 136 132 154 154 138 150 160 164 132 146 172 136 132 148 126 134 128 116 120 116 126 106 124 110 138 138 148 142 162 216 286 262 248 290 328 412 465 479 494 502 500 484 440 385 322 236 180 140 132 142 130 126 106 106 108 116 124 168 146 174 170 162 178 184 184 170 156 150 138 148 158 140 140 132 146 156 144 
140 126 140 130 134 142 142 142 136 146 162 142 138 148 140 148 136 124 120 118 120 104 110 98 102 96 110 134 138 168 244 302 330 412 500 486 475 479 504 517 484 498 514 517 514 506 492 494 459 395 314 226 170 148 136 122 118 134 138 122 146 158 168 150 162 166 164 172 160 142 136 124 138 128 130 144 130 122 124 130 
128 138 122 122 130 126 148 144 140 148 144 136 124 138 136 136 126 128 114 124 102 98 104 106 94 106 114 162 220 383 428 418 406 406 517 550 531 483 500 481 387 367 389 399 387 385 408 459 484 477 455 371 302 302 270 238 202 202 184 160 168 158 156 154 160 168 154 172 166 140 158 130 128 140 134 134 122 130 124 140 
136 126 130 130 144 134 140 144 132 144 152 144 138 134 126 112 128 140 128 122 106 114 106 108 118 126 134 272 424 479 436 450 450 453 473 514 483 387 304 220 192 204 266 292 294 298 336 355 371 399 387 379 381 379 393 377 359 318 268 260 248 240 222 218 222 206 200 196 186 188 220 198 202 192 192 184 184 174 158 158 
140 140 122 120 148 132 132 142 156 146 142 148 152 140 134 148 146 142 128 128 112 120 104 112 118 148 198 448 479 488 440 422 436 432 442 432 383 342 340 322 330 361 359 349 310 314 294 300 292 304 351 405 414 405 391 393 367 343 308 284 282 276 288 288 292 288 256 240 242 252 284 280 296 294 296 286 276 274 272 268 
128 112 134 138 148 142 146 134 148 148 156 142 138 138 132 146 164 146 122 130 116 128 130 122 118 156 274 529 502 504 483 488 483 436 383 347 338 330 379 355 334 328 326 304 300 294 266 268 262 302 342 320 367 365 326 328 330 310 290 282 290 300 300 304 302 288 278 248 244 266 280 292 302 308 290 316 322 316 328 300 
128 140 134 142 130 148 144 148 140 144 152 146 138 142 140 140 156 158 142 132 134 140 130 144 134 152 260 517 533 514 498 504 477 395 369 355 336 330 353 349 316 326 308 284 282 276 258 252 240 316 349 326 314 330 314 304 296 322 318 302 288 308 310 322 326 332 302 292 300 268 290 300 296 310 298 308 314 340 310 294 
124 138 142 132 146 142 148 136 134 150 142 130 140 146 144 138 156 146 144 134 124 138 122 132 136 182 302 515 523 533 517 504 448 375 349 343 349 349 383 379 340 326 304 280 264 250 240 236 228 302 359 330 320 308 276 296 298 340 320 324 298 306 320 340 361 363 343 338 306 306 284 298 314 322 294 288 296 276 284 298 
124 136 132 154 132 144 138 142 144 152 132 148 156 152 142 144 166 150 144 148 150 140 140 140 164 274 393 523 525 531 523 477 401 373 361 367 371 397 387 363 328 296 304 294 262 244 242 228 226 276 361 332 308 290 292 300 322 342 357 355 336 351 340 349 353 349 357 330 318 278 296 284 260 264 272 248 256 260 252 264 
122 142 128 128 128 142 146 154 138 156 140 136 154 154 140 140 156 186 222 220 258 272 216 178 212 359 442 500 492 498 471 442 365 347 361 361 371 389 381 361 314 290 296 278 236 244 230 236 224 264 365 342 312 304 286 298 304 322 338 302 300 280 266 264 262 254 260 246 234 200 198 198 206 206 198 186 184 176 178 166 
134 128 144 146 148 138 142 136 148 154 158 130 136 140 146 152 226 375 481 492 514 517 483 465 506 552 531 461 457 428 393 373 345 349 340 349 369 375 375 363 332 284 298 266 256 260 232 230 232 244 322 328 302 302 288 296 310 268 220 200 180 190 180 180 188 186 200 190 198 188 202 186 178 192 180 186 176 168 158 162 
128 150 136 138 144 136 154 148 132 144 136 144 130 146 154 194 373 529 545 562 533 550 531 527 545 587 581 483 412 393 365 369 342 334 345 359 373 389 389 379 361 324 308 284 276 268 252 242 228 232 345 330 330 345 345 345 336 336 312 268 216 198 202 188 192 200 188 216 206 212 200 206 182 204 194 186 184 164 170 164 
134 126 138 136 142 150 152 162 140 138 152 140 140 146 148 238 484 546 546 570 483 469 510 515 535 572 554 475 465 473 442 432 381 343 355 359 365 414 428 395 391 363 351 312 300 286 278 244 244 234 320 316 332 353 324 322 332 389 385 379 353 345 314 304 298 302 284 272 236 232 200 208 208 204 196 190 188 180 162 188 
132 144 132 132 126 144 138 128 136 146 158 136 136 120 158 270 504 591 541 525 506 515 535 500 517 552 500 465 502 533 508 475 406 357 343 328 326 363 401 391 393 375 361 318 310 300 290 268 252 234 296 322 336 345 332 332 351 399 399 399 387 391 406 399 393 385 377 351 330 290 278 270 264 280 256 238 240 230 214 202 
122 128 128 130 144 134 134 138 130 132 132 124 130 124 146 236 438 560 521 585 579 566 566 477 410 406 401 519 529 537 512 498 438 379 345 334 316 336 371 385 391 385 359 308 312 316 316 298 270 240 286 338 336 340 336 328 328 363 367 377 377 373 383 391 401 397 369 347 324 314 314 314 322 332 312 304 296 282 278 250 
126 140 134 138 122 154 148 128 142 144 136 130 144 138 132 180 353 484 488 539 550 539 467 274 188 212 316 484 502 519 496 490 459 377 340 330 312 326 361 379 379 401 399 357 338 342 316 308 298 260 296 365 351 338 314 316 302 334 345 349 365 365 357 357 349 342 342 318 298 276 278 300 308 326 312 318 294 304 300 288 
118 136 140 140 140 134 130 148 146 132 140 132 126 128 122 144 214 338 381 430 355 310 226 150 144 156 200 446 486 479 438 442 446 393 353 332 314 306 343 351 359 387 408 383 381 367 336 340 320 296 300 375 365 353 326 326 310 328 353 328 343 322 310 308 298 292 294 276 268 244 266 290 280 314 294 292 308 306 308 282 
142 144 134 134 138 140 134 142 124 128 134 126 132 130 128 142 144 184 182 194 158 148 146 156 146 156 204 420 467 403 347 326 347 343 377 405 389 395 405 381 371 383 410 399 399 391 385 381 338 332 310 342 367 410 389 342 296 274 326 330 324 316 290 300 290 300 306 284 264 260 262 308 278 284 302 290 286 290 296 280 
126 142 140 146 138 130 142 136 138 126 124 130 122 140 126 126 142 150 140 140 142 134 134 144 148 168 212 383 438 403 340 248 272 361 408 477 504 490 490 461 440 424 405 369 383 373 389 393 383 367 359 387 444 475 446 359 286 298 326 270 294 284 288 264 260 260 252 262 258 256 254 244 250 254 260 246 238 236 240 254 
120 122 124 138 158 140 134 130 122 136 128 130 144 114 128 128 132 134 124 150 128 138 142 138 146 168 174 280 405 442 416 371 363 369 342 448 475 479 515 514 521 502 492 481 490 508 488 498 475 465 448 471 492 475 448 430 434 403 343 252 248 216 220 212 220 244 254 258 250 212 218 206 210 208 204 200 210 200 198 204 
128 136 142 140 142 146 130 144 138 134 142 138 146 140 118 118 156 142 130 148 136 136 148 160 158 146 160 208 268 377 397 387 340 294 343 481 477 457 473 500 517 514 508 498 504 514 519 508 486 469 467 473 490 477 465 452 448 408 347 320 286 268 252 248 276 294 298 300 302 262 262 254 252 234 212 198 190 186 198 204 
122 136 116 140 124 132 134 124 122 132 156 118 138 144 120 122 124 132 134 142 142 122 144 158 140 140 160 180 196 216 234 276 326 290 330 371 270 216 234 334 410 424 450 452 455 459 448 434 405 359 338 334 330 361 355 332 340 322 322 298 278 302 278 272 296 292 312 324 318 296 294 284 298 284 250 214 212 206 182 194 
130 142 144 132 136 144 138 146 142 140 138 138 136 134 134 128 140 144 134 136 128 136 150 158 146 154 154 174 186 202 206 330 412 414 359 236 88 8 0 132 188 216 232 258 250 276 288 310 288 248 270 242 248 214 232 296 314 310 306 312 298 302 280 298 304 310 316 320 332 318 256 260 282 310 308 282 256 216 194 200 
116 140 146 140 144 140 126 132 142 128 128 130 130 132 124 130 144 132 120 136 138 132 146 142 138 148 158 164 174 192 236 369 377 385 371 324 254 196 170 200 190 200 204 222 220 238 250 218 174 210 230 220 224 188 234 278 286 270 266 290 274 288 282 294 286 288 296 330 343 310 252 250 278 284 278 292 310 272 238 220 
132 138 152 142 130 150 144 128 154 134 132 138 140 134 116 122 148 132 128 130 120 128 134 142 130 132 150 168 164 194 264 369 342 316 367 343 298 286 288 244 188 182 220 208 180 184 192 242 230 206 190 194 220 204 236 238 230 218 254 248 276 284 290 308 288 284 296 316 314 252 256 252 272 282 288 274 298 310 318 314 
112 132 124 128 140 128 130 132 122 142 138 120 138 130 120 130 140 126 132 134 126 136 140 126 126 138 138 172 176 184 276 369 336 367 444 393 278 232 216 196 178 212 260 272 236 240 240 242 222 192 168 170 210 196 234 214 196 198 222 240 284 286 286 284 266 254 244 250 244 238 232 230 254 250 266 266 266 294 322 338 
120 140 132 134 136 126 128 144 146 144 146 130 148 138 120 126 138 132 126 132 140 134 150 146 158 160 172 170 182 212 320 338 332 355 385 330 238 190 140 142 210 254 282 280 266 244 230 224 212 188 184 178 200 220 224 218 220 222 202 250 276 274 272 246 220 236 220 234 242 244 238 228 208 234 218 210 228 262 338 349 
134 116 148 142 132 134 128 128 128 118 128 120 132 136 126 122 136 140 128 140 118 134 174 208 292 369 294 252 244 278 369 328 310 304 262 232 176 160 112 134 212 222 246 248 248 244 252 240 228 206 178 206 196 218 218 228 234 224 198 264 284 268 236 220 224 214 216 242 250 260 232 240 208 196 202 222 204 220 256 334 
120 138 128 132 126 136 124 136 134 148 146 128 128 132 122 132 136 118 120 136 170 234 290 353 479 533 523 500 444 452 391 322 351 332 300 210 128 144 112 166 196 202 248 248 234 232 260 240 236 194 196 208 194 204 214 234 232 208 196 288 304 256 248 228 248 232 230 250 244 248 240 212 208 218 216 218 236 270 276 292 
116 132 142 146 118 122 122 130 132 130 142 132 118 116 130 112 126 114 136 148 256 326 355 469 531 521 523 525 448 455 395 332 397 347 306 232 132 118 132 192 182 212 270 224 216 238 224 238 220 190 256 214 182 210 242 228 240 214 214 228 266 242 240 234 222 232 212 232 284 284 256 250 254 252 266 296 312 318 330 314 
120 140 140 132 116 126 128 120 122 154 134 108 128 124 116 122 132 118 128 188 312 387 395 533 550 494 446 508 446 453 406 361 395 330 312 252 172 140 154 150 194 198 242 220 218 218 222 246 222 182 250 218 186 236 212 192 196 210 186 220 208 202 208 216 206 192 182 206 248 290 278 288 296 284 300 312 334 351 328 312 
114 114 134 126 142 148 122 140 132 126 138 124 120 140 128 120 134 130 134 174 294 367 432 504 521 517 490 541 473 436 403 353 361 300 302 248 200 160 172 180 168 196 224 236 202 232 214 266 246 248 230 230 170 182 190 182 194 188 178 166 174 200 212 170 194 166 154 160 204 286 292 318 320 316 312 343 343 330 312 270 
120 130 128 144 138 130 122 140 128 142 120 130 130 124 118 118 156 140 138 160 278 322 405 428 512 519 539 533 424 330 347 336 326 300 264 262 234 226 208 184 174 168 174 200 198 232 242 252 282 298 208 168 158 196 184 178 192 174 174 170 174 186 184 160 152 142 152 130 190 266 294 292 296 308 328 310 290 262 226 190 
122 140 130 136 126 148 140 118 138 138 142 122 130 142 128 126 138 132 138 164 246 264 326 310 345 426 438 330 204 202 258 312 278 258 240 292 306 294 328 250 168 114 126 164 208 230 204 224 280 312 186 156 172 180 180 186 168 166 178 168 156 154 164 154 162 150 156 152 166 240 248 244 260 248 254 228 198 184 172 184 
126 116 138 150 130 144 142 130 142 136 150 136 138 124 128 122 138 122 136 150 184 192 196 182 192 202 204 212 236 280 294 300 292 288 278 391 361 353 406 387 300 108 86 176 158 212 216 218 274 308 194 168 158 166 174 164 174 166 176 168 164 172 158 164 156 148 152 148 152 214 224 204 200 210 190 170 164 156 170 162 
132 128 130 138 124 122 140 130 146 142 146 136 158 126 124 128 150 144 140 134 132 132 140 150 146 176 266 338 349 363 343 324 324 338 318 403 387 349 403 395 322 106 124 132 168 210 218 252 260 272 232 196 176 182 176 164 164 168 186 188 188 166 156 154 140 140 156 138 162 200 226 204 200 182 178 166 174 154 154 162 
140 138 146 158 140 166 154 140 152 140 144 140 144 144 126 136 140 132 128 140 122 140 140 154 224 314 298 326 332 351 338 347 336 355 363 403 397 330 361 363 306 106 59 88 164 210 214 240 238 228 242 214 192 170 168 160 150 136 166 154 154 142 148 126 130 122 140 150 194 202 226 204 194 202 188 166 164 158 154 156 
120 124 134 140 136 136 130 124 142 148 136 140 142 150 124 124 134 130 134 120 118 120 138 180 345 365 345 326 274 298 280 328 330 365 365 359 345 288 312 338 288 152 108 202 190 180 194 212 194 176 154 160 150 148 146 144 146 144 132 134 126 136 134 148 144 136 144 178 194 204 202 202 184 186 180 162 144 148 144 158 
112 136 138 130 136 142 140 144 144 142 148 144 144 164 142 142 144 142 140 136 122 130 162 250 338 347 302 298 280 312 272 250 256 302 250 242 246 280 272 318 278 244 220 230 226 198 204 204 192 170 164 142 146 140 146 124 136 140 148 138 146 144 134 142 148 142 160 184 210 196 204 192 178 170 160 152 162 176 162 156 
116 140 140 142 142 158 140 138 146 160 154 172 176 178 162 150 148 146 138 144 136 128 172 292 312 290 256 282 340 300 198 170 144 160 180 194 164 168 204 288 282 228 206 204 204 182 190 188 200 200 178 154 152 156 160 134 146 154 142 150 140 140 150 156 130 148 148 190 196 192 188 180 168 162 178 172 180 186 186 170 
136 146 138 134 140 142 132 124 162 166 210 322 406 389 336 312 304 226 164 138 138 150 234 290 274 258 242 280 306 240 148 124 114 136 96 196 326 234 65 234 248 228 204 210 196 182 170 176 194 200 198 188 182 172 180 180 156 174 168 170 150 154 164 158 140 144 162 204 192 178 188 192 204 192 194 198 188 190 196 190 
132 130 126 138 126 140 140 148 160 218 332 477 512 498 519 525 515 490 385 202 160 222 314 320 274 248 254 268 238 184 98 106 104 98 59 318 375 345 234 204 260 228 214 198 184 182 166 166 180 188 172 194 184 192 194 192 192 194 198 194 180 160 172 164 150 148 154 178 160 154 198 232 266 294 300 296 282 242 240 210 
132 128 156 144 138 148 138 138 172 282 393 514 519 525 579 558 533 498 486 436 365 403 373 347 292 266 236 252 230 182 86 106 128 90 132 385 308 270 232 266 238 236 234 194 194 176 172 166 168 170 180 186 192 182 204 222 208 214 214 200 206 200 190 176 166 174 160 146 166 134 188 248 286 318 340 347 338 326 302 308 
124 136 128 134 136 136 146 134 172 304 391 490 515 558 570 554 545 448 436 440 465 459 365 351 292 268 236 242 236 174 77 136 184 144 136 136 182 248 228 266 238 240 240 212 178 182 162 162 174 156 178 166 198 198 196 214 206 216 216 220 212 210 222 204 180 200 204 182 178 164 206 242 266 308 338 357 345 332 343 324 
138 148 132 140 142 136 154 144 188 294 395 459 523 564 572 587 546 459 436 414 465 442 332 324 298 274 242 242 196 162 69 106 182 216 174 182 164 278 318 280 250 238 238 212 194 174 146 160 184 190 184 196 206 206 188 186 196 202 210 208 218 202 232 206 222 240 234 212 198 196 242 234 276 318 336 343 355 361 361 326 
130 158 142 144 140 150 154 150 164 262 379 471 498 529 585 537 546 508 486 461 490 422 312 306 266 250 230 230 192 100 61 98 166 230 240 268 290 312 347 328 268 256 234 210 208 182 164 164 222 212 204 206 250 232 196 192 186 198 180 186 196 194 208 202 208 194 214 252 260 224 242 254 276 310 342 336 332 343 334 312 
132 148 144 146 150 144 150 154 174 216 324 418 483 539 558 541 529 527 521 515 477 410 324 296 256 224 224 236 164 63 53 92 140 218 254 300 300 288 318 300 262 210 214 200 196 196 186 178 220 224 230 234 224 212 188 178 168 166 174 156 176 184 186 190 188 178 230 252 234 206 218 214 226 242 258 264 258 238 236 240 
118 152 146 144 152 150 140 134 160 166 206 250 316 365 455 484 483 436 385 393 420 373 353 296 252 224 208 228 150 88 33 108 136 224 254 286 272 284 300 280 212 212 202 214 212 208 182 178 198 206 206 190 184 164 164 156 148 152 158 162 160 154 164 164 178 190 210 222 226 208 188 192 182 162 164 156 154 158 156 160 
134 150 140 156 128 136 140 146 146 158 174 166 172 188 212 240 226 204 180 204 353 381 357 290 244 234 226 248 174 88 71 124 170 230 270 276 288 288 292 244 208 198 192 206 218 200 188 182 164 178 166 156 152 162 130 132 150 156 142 140 138 158 160 150 176 190 196 204 224 202 198 188 174 146 120 134 132 144 142 144 
132 138 156 158 146 148 138 138 156 152 158 152 156 166 162 146 162 144 160 178 351 377 340 294 242 230 276 266 180 116 94 114 154 210 244 274 294 302 294 248 202 196 208 208 250 210 188 170 144 146 148 138 156 144 146 144 156 140 158 144 150 172 146 156 146 160 164 192 212 194 180 180 178 148 138 124 128 130 132 134 
136 142 154 138 146 148 128 142 138 152 156 130 148 144 150 142 134 148 138 154 256 403 355 308 252 218 262 298 218 170 124 90 130 192 238 256 276 306 250 228 190 198 210 212 256 206 164 154 142 146 140 122 138 146 134 152 152 144 160 144 154 154 140 144 138 136 138 164 194 196 182 164 162 138 126 112 110 114 116 134 
142 142 162 152 160 150 144 144 146 144 142 148 148 142 134 130 142 160 144 154 172 371 401 345 276 240 230 290 258 202 116 92 130 156 202 250 282 282 288 248 222 214 192 204 260 220 200 150 122 128 144 138 144 134 130 152 146 132 140 142 150 152 144 130 134 140 114 166 194 194 172 178 168 150 140 116 132 118 138 154 
150 138 150 156 158 154 150 158 146 164 146 142 144 158 148 146 154 144 146 148 168 308 412 353 304 272 250 268 274 240 144 110 164 176 204 254 308 308 306 264 218 212 212 228 254 200 206 160 124 142 148 168 160 140 134 162 154 156 144 134 142 128 138 140 126 124 134 148 180 164 166 182 202 216 226 212 220 186 166 162 
138 158 140 144 136 158 120 148 160 134 144 136 136 156 148 138 156 142 142 148 140 254 405 345 314 290 278 282 280 248 220 184 196 210 230 260 310 322 342 270 216 194 222 250 256 206 230 186 164 144 166 176 182 176 154 158 154 136 142 144 140 134 146 134 134 130 130 150 148 128 132 158 184 214 244 272 276 278 280 240 
134 140 142 152 162 150 144 148 150 152 138 144 132 146 144 126 140 142 146 148 140 212 357 343 302 300 314 324 308 292 276 268 244 206 216 262 357 355 328 268 198 184 212 260 236 218 216 200 194 194 216 236 230 210 184 156 140 158 144 142 146 132 156 134 112 116 114 102 116 75 106 126 172 218 234 266 266 306 304 286 
130 148 128 130 150 138 132 134 156 150 142 148 122 152 124 118 146 140 140 132 128 156 264 328 328 328 316 294 298 314 270 270 286 284 222 318 385 373 355 270 178 180 206 232 212 212 210 214 188 210 270 280 270 272 262 230 184 162 166 148 158 148 136 134 118 130 114 104 112 98 110 144 184 222 250 294 308 318 324 314 
126 142 134 152 144 124 152 138 136 146 124 138 134 152 120 128 148 124 134 120 124 134 150 232 312 332 310 316 296 280 266 254 355 401 393 401 405 395 381 216 110 114 144 156 148 164 160 172 182 198 234 242 244 242 240 264 228 222 186 150 134 148 140 126 132 120 110 128 116 118 136 170 204 264 310 302 314 338 349 330 
124 136 130 136 130 140 130 134 128 132 132 132 124 144 122 120 136 124 122 114 102 116 122 144 174 236 280 288 282 276 250 276 406 416 406 414 406 405 365 194 92 90 104 106 106 132 138 140 148 150 146 168 204 198 212 212 200 214 172 154 132 132 140 142 132 106 130 136 136 112 150 156 220 278 296 326 314 316 328 310 
110 118 114 132 118 134 128 124 126 134 126 116 132 132 126 128 130 134 120 114 122 108 110 116 118 118 132 208 230 272 254 284 412 420 408 420 412 397 322 140 71 73 104 110 104 124 118 142 124 106 114 102 108 132 142 128 170 176 144 130 128 118 122 126 108 114 128 132 136 116 118 122 162 190 254 268 264 274 270 264 
110 134 122 120 110 132 116 110 126 126 126 114 118 118 106 132 136 124 118 112 116 128 108 112 116 88 102 140 150 172 212 262 371 395 397 420 377 342 252 104 69 88 94 110 102 124 124 116 122 128 88 79 98 98 98 81 88 114 116 112 108 92 102 100 112 120 116 118 112 88 102 86 108 138 176 188 178 192 200 220 


