P2
80 60
512
44 75 40 38 50 56 67 73 87 83 73 73 89 75 77 77 71 75 75 67 54 69 77 159 352 378 387 378 385 366 378 401 461 477 429 393 376 397 415 405 389 336 322 344 376 383 403 417 423 401 395 356 317 301 305 317 293 253 241 243 239 237 277 295 324 311 317 305 287 279 265 271 279 277 259 269 273 267 255 235 
48 69 36 40 50 63 71 60 75 67 81 79 69 73 75 79 77 63 65 56 67 69 75 125 342 366 380 374 338 338 374 362 415 411 395 380 358 383 382 385 360 336 324 350 344 319 332 372 409 407 372 317 281 317 348 348 340 275 257 249 239 249 271 299 319 324 324 303 289 281 237 239 257 243 235 233 215 235 217 199 
48 71 48 56 71 56 63 77 63 83 81 63 83 87 93 73 69 75 77 69 60 75 83 125 330 393 385 344 301 305 346 340 382 374 358 350 360 346 356 376 362 326 311 307 319 289 261 271 293 326 334 307 311 348 348 360 368 291 271 287 261 285 307 344 334 334 326 301 265 237 209 223 215 201 189 179 161 183 181 193 
32 67 38 48 54 60 60 81 73 63 75 71 77 77 87 73 95 125 115 111 89 93 115 169 344 415 411 372 348 362 372 370 368 364 346 322 332 336 346 354 350 319 305 293 287 279 251 239 217 271 307 317 319 334 336 346 332 299 303 285 285 320 338 360 360 332 320 291 243 239 255 237 249 215 221 195 223 223 227 249 
42 60 42 54 58 63 56 79 69 75 73 60 91 77 103 129 181 259 275 267 201 169 175 235 279 383 444 415 385 376 391 370 342 328 309 311 340 346 352 354 334 301 255 263 263 259 233 233 231 239 287 309 311 285 267 303 307 285 307 299 332 336 358 380 387 389 348 315 307 297 293 301 315 281 271 269 261 249 261 241 
44 50 56 58 58 52 79 56 71 87 83 91 87 109 155 267 313 380 440 465 415 413 415 442 368 315 442 446 429 401 399 358 317 315 297 301 350 344 348 352 328 283 241 245 227 227 231 231 229 233 259 285 257 241 225 249 287 301 297 322 319 334 362 385 380 368 358 336 317 295 291 305 309 295 297 283 273 277 259 235 
38 67 54 60 58 69 69 87 79 83 73 81 91 115 249 324 364 475 512 498 491 460 473 508 496 427 399 444 460 425 409 354 332 319 309 320 348 348 350 344 317 271 229 233 235 233 217 213 223 249 267 271 249 225 215 227 267 283 311 332 332 342 376 372 350 354 338 320 309 287 269 279 283 324 328 307 285 271 257 215 
36 52 50 42 73 63 67 83 73 97 69 79 117 127 277 307 415 454 500 487 494 467 450 469 502 481 413 409 432 421 409 350 350 340 319 344 391 362 372 342 313 259 235 229 239 227 207 219 221 241 289 269 233 207 177 225 259 320 348 360 350 374 372 368 364 370 344 303 289 259 233 231 269 293 320 303 263 211 189 149 
46 58 56 60 71 73 69 83 85 63 85 83 111 127 265 354 407 423 496 432 450 456 430 430 460 442 429 360 393 360 352 307 324 344 320 364 395 385 354 328 293 255 239 219 225 211 197 203 219 219 269 249 217 211 183 231 289 350 340 358 366 354 338 366 352 328 305 277 271 207 187 219 205 195 169 157 147 131 121 139 
48 67 52 52 69 69 75 85 73 71 81 85 107 121 265 383 454 417 438 411 417 419 380 330 295 336 399 382 389 383 376 344 336 340 326 348 374 360 352 303 273 259 255 241 233 225 219 221 229 215 247 263 239 213 219 269 295 313 317 324 311 299 309 303 279 259 247 213 203 163 173 165 163 131 125 131 123 115 109 99 
50 44 52 65 69 65 67 91 79 81 79 85 93 111 223 301 425 421 460 425 419 419 346 181 111 185 275 360 421 442 399 372 368 352 342 358 385 354 334 322 297 263 255 237 247 247 233 241 227 213 227 263 265 253 265 293 303 287 283 281 253 247 231 231 209 189 175 163 147 135 145 165 169 137 133 135 129 127 103 97 
46 60 60 52 71 75 73 77 73 77 79 85 77 97 121 225 336 346 350 309 305 251 133 119 99 121 171 263 413 436 440 423 401 358 326 324 362 368 358 344 328 291 269 269 263 253 241 249 231 223 229 305 324 322 297 273 277 273 239 213 179 147 149 159 141 133 133 155 155 155 151 159 153 135 137 123 141 121 121 99 
50 60 48 56 65 67 77 83 77 75 73 81 83 89 77 117 161 143 117 71 103 79 79 97 81 87 113 149 326 387 376 358 366 346 313 301 305 309 317 336 332 317 322 330 332 356 344 313 295 247 253 322 340 326 281 263 263 197 137 123 109 117 119 119 137 131 137 157 149 149 149 149 149 127 129 141 119 133 119 105 
42 91 52 48 63 79 63 71 73 65 83 87 81 85 73 58 93 73 87 81 79 83 73 89 87 83 107 121 159 265 261 253 301 317 303 287 279 271 313 342 346 336 368 383 391 423 409 427 417 317 287 309 313 239 167 139 119 93 103 107 97 107 125 125 127 137 151 161 155 157 141 143 149 139 121 113 129 115 119 107 
30 65 58 46 67 60 58 73 71 65 67 58 69 71 69 69 77 65 73 63 63 81 77 85 73 79 107 93 113 129 141 135 203 263 293 287 261 241 263 253 213 177 169 197 197 225 229 251 263 265 259 221 153 113 101 107 105 105 107 131 109 113 113 147 133 151 151 151 153 163 153 149 153 135 125 119 123 121 133 119 
36 52 48 50 56 69 46 60 69 77 63 69 77 75 69 60 69 67 87 63 54 69 79 79 83 93 99 123 123 123 129 145 199 227 267 261 259 225 215 203 183 151 157 173 211 207 231 241 225 223 201 179 159 145 175 153 149 117 125 103 127 117 135 137 155 151 157 163 173 167 149 163 149 143 135 119 119 119 135 133 
48 58 67 52 63 46 71 67 67 79 79 77 81 75 85 77 85 69 79 69 71 77 87 97 109 97 107 123 123 121 137 143 197 239 255 255 267 249 243 233 239 227 247 279 336 382 376 352 346 303 279 303 322 334 356 372 334 189 135 133 131 127 137 151 143 145 159 167 161 153 149 165 161 131 121 115 115 123 139 127 
46 75 40 48 60 56 69 67 83 79 63 67 85 79 85 83 81 81 81 83 91 85 81 89 103 103 121 113 121 135 141 137 193 245 263 269 285 293 279 267 348 340 346 338 350 374 378 368 370 319 291 344 415 405 393 395 415 275 161 129 135 123 129 161 149 147 167 161 161 159 153 157 153 153 129 133 127 135 129 145 
65 85 71 56 56 63 75 79 87 67 79 79 79 85 93 81 85 73 85 81 93 89 99 91 107 91 105 113 133 135 129 145 211 279 287 273 279 315 320 275 346 332 380 354 356 364 354 356 374 309 255 313 382 399 415 401 407 387 197 163 135 135 139 157 159 147 153 161 157 163 159 163 151 151 133 141 137 149 137 131 
50 69 54 65 67 60 65 87 79 60 91 85 75 79 93 85 85 83 89 79 75 87 95 87 107 107 105 113 121 129 139 179 305 317 307 223 183 205 295 273 295 328 305 309 299 305 309 271 235 239 219 233 233 305 338 382 372 332 295 235 215 187 145 125 137 117 111 125 149 171 157 167 149 163 137 143 121 153 151 143 
52 81 73 60 65 60 67 91 81 65 69 85 91 91 81 91 87 91 85 73 77 91 105 103 105 101 115 117 135 133 147 267 320 317 305 263 241 237 259 279 235 189 135 195 217 201 189 167 151 209 207 191 161 217 217 265 287 275 277 267 241 211 157 135 97 71 79 87 125 151 171 175 153 135 139 137 147 133 143 135 
50 83 58 52 65 54 79 83 83 65 65 69 85 93 81 71 67 89 85 89 85 85 85 101 105 87 119 109 127 137 185 285 295 319 319 320 309 261 209 179 159 157 153 175 167 145 115 133 141 185 195 181 151 185 211 237 269 255 249 237 203 149 131 109 99 77 65 77 127 165 167 185 167 167 165 155 145 149 137 147 
58 73 81 73 63 65 60 77 81 67 67 87 83 73 75 83 93 95 75 67 91 95 87 109 109 99 113 121 135 133 195 285 309 366 393 330 279 231 177 185 169 149 145 135 105 129 137 143 137 165 201 177 185 199 221 223 211 181 171 159 115 97 91 103 97 73 52 83 165 241 221 245 259 265 265 229 191 171 159 173 
63 75 71 63 58 73 54 69 83 75 67 87 85 89 77 87 75 85 79 83 91 93 105 95 105 105 109 111 121 145 237 263 315 376 378 303 257 181 157 193 189 155 143 125 135 141 151 155 149 169 173 167 217 231 217 199 171 135 141 129 93 95 91 115 97 58 65 69 167 261 247 271 281 315 319 309 297 257 231 193 
58 75 63 69 60 77 85 87 87 67 71 81 79 87 81 73 89 79 91 77 91 101 131 159 203 191 151 147 153 185 249 257 313 320 293 271 215 125 169 213 209 153 143 147 133 119 181 181 165 173 147 155 209 227 215 225 187 155 139 137 105 95 91 115 103 60 54 77 175 237 233 247 239 267 273 281 293 299 285 259 
65 75 52 73 69 69 77 77 79 83 83 81 85 83 81 75 93 97 77 91 133 181 239 313 407 411 382 346 360 338 283 275 303 301 255 207 151 119 187 199 181 149 151 165 151 157 185 179 177 169 143 151 191 233 215 213 193 169 169 167 155 145 125 139 121 83 85 85 209 247 207 225 219 241 245 249 253 265 265 261 
46 83 73 50 60 60 79 81 73 71 69 71 89 91 79 77 77 93 87 91 211 257 315 432 483 508 485 423 403 385 303 275 328 303 241 183 119 117 171 187 165 131 147 155 133 163 179 177 167 137 135 165 195 221 193 201 159 181 209 191 195 189 189 219 203 151 135 145 259 211 195 205 213 235 243 229 219 229 261 251 
50 73 52 63 65 63 67 73 81 71 79 77 73 87 87 73 71 77 85 149 271 293 380 473 487 430 492 419 419 391 309 309 344 317 259 213 145 115 173 165 159 137 167 155 115 157 167 185 173 165 153 189 215 229 183 175 157 197 207 213 211 205 211 263 309 259 255 295 277 209 187 199 177 161 167 149 163 159 175 199 
48 75 60 50 75 71 67 73 71 73 71 85 65 77 73 75 87 81 95 177 293 338 440 463 481 419 448 425 411 393 324 291 315 291 247 235 189 155 139 129 169 167 183 167 165 155 177 195 187 209 183 203 217 203 173 169 177 207 209 243 237 227 215 265 305 303 309 303 211 187 183 173 169 147 123 125 115 123 151 181 
46 71 65 67 73 65 54 73 67 69 79 67 75 77 73 67 75 85 93 149 251 360 434 492 487 458 508 442 378 356 313 281 303 279 269 265 227 187 161 185 167 181 207 191 207 137 171 177 197 235 215 229 193 183 163 177 203 197 229 225 241 241 215 251 277 275 285 251 215 185 173 183 169 135 117 111 127 119 121 135 
48 73 67 65 73 60 58 63 77 75 75 58 75 71 71 65 81 67 75 135 259 354 338 368 419 458 417 291 211 193 273 251 279 305 285 281 273 215 199 175 159 169 203 199 223 153 181 191 213 255 243 225 199 183 161 179 203 207 233 231 243 225 237 255 285 271 277 283 209 169 175 157 155 127 93 111 111 109 119 109 
50 81 36 63 69 63 67 73 79 71 81 65 79 71 77 83 75 81 81 101 171 243 243 215 237 201 177 119 129 135 229 235 257 277 297 289 283 255 231 213 171 201 207 225 233 183 181 215 219 305 251 231 195 167 171 181 199 235 263 243 241 219 241 257 257 255 285 223 187 171 155 165 161 115 115 105 109 109 107 91 
44 71 63 73 65 52 58 85 75 75 69 79 73 83 89 83 79 69 91 71 101 123 127 115 117 109 107 113 137 125 179 213 227 265 297 277 265 245 233 233 211 209 223 289 265 205 195 233 213 285 243 225 217 179 191 197 199 237 273 281 257 249 255 261 269 231 203 191 185 183 175 167 145 133 111 109 113 109 117 115 
63 73 65 52 67 75 77 87 75 75 71 81 91 83 75 85 75 79 87 75 79 83 91 79 101 83 105 109 119 129 171 229 229 259 263 231 245 249 239 245 225 179 185 207 211 189 185 221 197 253 247 217 225 195 211 233 197 201 233 293 259 231 223 229 207 185 173 175 183 175 179 171 151 127 125 109 109 119 129 111 
46 73 58 63 58 77 60 83 81 75 77 89 93 93 85 85 89 71 91 63 83 77 87 99 93 89 97 99 109 117 143 231 241 193 131 93 115 197 197 269 313 237 167 135 125 131 125 145 157 169 189 199 195 173 173 193 189 173 173 161 159 145 131 163 167 161 161 171 185 187 177 181 165 143 115 123 105 117 125 115 
36 79 75 69 71 71 75 73 73 85 71 75 89 87 79 81 85 81 81 75 83 79 75 99 111 99 97 99 113 109 129 159 241 259 207 175 183 201 197 239 344 311 305 301 279 265 265 231 199 155 137 167 167 175 157 133 147 119 129 119 105 105 129 139 151 149 165 155 169 183 187 177 157 133 109 129 121 119 129 109 
44 65 60 65 58 67 73 75 77 79 79 85 101 77 85 83 79 83 81 73 87 73 101 97 95 97 97 103 119 109 127 125 177 241 249 233 241 231 231 281 378 346 348 346 332 346 344 346 309 285 227 219 281 336 346 315 299 145 123 119 121 111 125 139 155 151 145 151 159 179 157 173 161 135 127 123 121 115 125 117 
58 77 63 75 52 63 73 85 77 77 83 71 81 101 89 81 85 81 89 75 81 81 73 89 109 91 103 109 115 127 135 125 169 191 189 215 195 191 217 328 350 319 338 338 372 376 376 368 346 330 328 370 401 397 419 430 395 229 127 127 107 119 121 141 147 151 129 175 161 159 155 161 167 153 127 117 107 113 129 131 
48 69 54 54 69 65 79 79 63 75 75 77 77 87 91 87 89 77 85 65 87 91 93 103 105 105 101 115 119 139 177 201 265 279 253 273 263 225 195 189 153 163 189 255 317 336 360 368 334 338 313 348 385 399 415 393 382 207 127 111 109 95 127 153 145 147 153 159 157 165 151 157 163 153 137 137 131 133 153 129 
48 85 73 75 67 81 60 75 77 91 65 77 71 71 85 83 83 77 95 73 85 83 97 93 95 101 125 145 219 269 313 313 334 360 393 401 395 383 340 269 149 109 105 113 147 173 189 183 191 181 179 181 201 241 259 255 207 145 109 115 105 111 133 145 129 137 139 149 149 169 159 159 147 149 131 141 147 153 155 125 
42 83 60 67 60 79 85 75 79 83 73 79 75 79 83 79 81 73 79 85 87 83 87 91 83 105 135 239 299 319 320 332 362 391 438 415 413 430 382 354 271 131 95 121 121 133 139 157 165 153 139 155 157 157 145 137 139 117 125 103 109 103 127 139 131 139 143 147 141 149 145 149 127 133 147 139 153 147 143 143 
42 81 54 54 69 56 56 71 75 65 71 77 75 79 87 85 71 71 83 71 73 79 91 83 83 109 187 279 289 322 348 320 366 399 421 413 401 429 434 413 360 277 215 191 185 191 193 197 169 177 191 187 203 203 159 179 179 157 155 157 119 113 125 141 139 125 135 147 139 139 139 125 115 133 123 135 149 155 143 141 
67 87 67 48 73 73 79 79 79 71 77 81 87 79 79 97 77 81 95 73 81 81 97 91 89 101 229 287 263 275 315 326 340 366 393 417 411 415 432 421 413 334 285 231 223 223 211 207 185 221 213 233 215 209 183 205 213 193 197 215 175 173 173 165 143 135 123 131 143 141 139 119 133 129 125 139 145 145 157 151 
52 73 63 83 71 54 73 60 75 67 79 81 93 75 73 83 75 79 97 87 107 83 109 107 109 119 261 320 285 215 247 273 283 279 289 338 350 376 399 409 413 366 322 287 257 247 215 229 241 233 225 221 215 219 205 221 211 193 203 201 195 197 203 219 195 167 141 147 129 139 127 123 119 121 127 141 145 131 153 147 
40 73 60 79 71 77 73 79 81 79 81 71 93 85 83 91 145 189 237 293 265 209 173 137 109 153 279 303 265 221 235 211 185 169 165 207 267 320 358 387 382 364 340 326 283 239 213 229 241 255 235 229 239 229 233 225 237 231 223 209 191 199 191 183 175 175 143 135 133 135 139 117 121 121 137 131 149 137 145 141 
46 79 63 60 63 75 77 65 69 75 79 75 89 77 99 159 259 362 399 446 442 366 317 243 167 203 313 295 261 239 263 191 139 131 131 197 245 279 307 328 334 350 330 326 315 271 211 221 247 247 233 233 245 247 219 247 251 243 217 229 209 203 211 183 165 157 149 151 143 145 131 127 123 109 119 121 145 135 157 133 
46 67 63 60 73 69 77 79 67 83 83 83 97 89 119 227 350 368 403 456 448 401 391 374 315 326 319 293 275 245 235 159 93 105 139 191 233 267 285 271 283 315 328 319 317 344 263 233 243 247 253 243 249 251 227 249 273 255 243 221 209 209 221 229 187 139 133 129 153 153 137 139 131 133 133 139 149 137 147 129 
58 65 63 65 75 77 73 67 79 71 83 79 89 105 125 261 360 383 448 489 448 427 454 429 407 383 319 287 251 227 203 117 50 83 147 211 237 255 265 259 257 265 307 313 348 383 374 303 237 231 225 241 257 231 239 255 267 261 261 261 227 233 255 263 225 179 157 187 185 165 137 157 135 125 123 133 143 123 145 145 
56 83 67 73 69 69 71 67 89 77 89 75 93 101 137 279 350 382 444 479 452 463 492 475 419 395 293 269 241 193 185 119 42 56 181 225 245 259 249 239 245 243 279 320 324 364 393 383 283 235 223 247 227 223 223 237 255 257 277 261 233 241 255 247 235 187 203 271 277 231 175 165 145 127 135 147 139 137 139 167 
50 65 44 60 63 48 77 75 79 83 81 87 75 99 113 229 352 370 413 475 460 465 489 463 415 374 281 247 233 187 161 111 60 87 201 241 249 257 245 243 237 227 255 311 320 356 383 368 334 207 217 223 249 209 223 231 245 219 243 235 223 235 219 243 219 215 227 267 287 269 203 187 205 207 225 213 201 209 197 191 
54 81 63 67 81 58 63 85 69 83 83 67 95 91 105 153 263 336 370 421 444 430 417 405 385 360 291 235 225 193 167 101 75 95 177 231 243 235 215 215 213 225 237 303 317 336 358 336 344 275 239 247 239 233 201 215 217 189 177 183 199 195 211 227 217 227 197 187 177 197 203 223 241 249 283 273 289 291 261 247 
44 79 71 73 75 79 69 73 79 75 67 77 87 67 87 95 139 181 229 239 255 213 177 187 215 271 293 251 247 181 155 101 42 77 141 195 215 237 195 179 189 203 249 293 307 320 340 344 348 346 340 350 291 249 193 199 173 165 153 139 159 187 183 203 197 215 189 163 143 129 167 205 263 273 285 303 330 328 305 269 
44 73 65 56 67 71 63 75 69 69 91 73 91 85 93 95 91 101 109 109 115 99 109 95 99 113 237 263 255 195 181 109 65 83 129 211 213 223 211 161 179 189 241 281 279 313 289 328 370 383 385 368 303 243 187 189 175 187 187 197 187 181 181 165 147 163 141 109 93 111 159 195 237 287 291 315 322 311 305 283 
36 73 58 73 67 63 50 83 65 79 81 81 81 81 89 87 97 83 95 79 103 83 83 83 79 89 169 245 241 199 183 147 93 89 123 201 223 235 195 185 193 199 241 255 273 275 249 277 368 393 399 348 239 187 147 161 179 201 189 217 193 177 171 149 131 115 89 75 79 103 173 223 261 299 289 307 289 275 277 251 
48 79 56 63 77 69 65 77 75 81 73 73 85 85 73 79 87 81 87 69 77 95 73 87 77 75 125 249 239 193 191 193 135 99 127 189 225 239 217 201 203 227 251 243 249 237 215 219 231 255 281 197 161 163 161 143 169 169 173 189 159 153 147 143 113 93 85 79 105 127 157 223 279 275 263 251 223 171 173 181 
34 69 48 40 65 38 58 73 63 56 67 79 77 91 67 63 73 60 69 56 69 58 58 54 81 58 97 239 255 191 191 199 193 143 137 195 231 233 217 217 263 267 275 251 229 205 195 195 207 173 163 137 139 155 151 147 157 153 141 137 137 115 107 111 91 73 93 103 105 119 133 155 179 169 157 147 119 119 143 159 
30 54 50 56 46 56 54 54 58 63 56 73 71 69 65 60 52 48 75 65 42 58 54 63 52 48 81 195 261 211 181 179 245 243 249 281 301 273 271 265 293 293 275 257 229 193 185 197 191 149 149 147 141 151 157 159 149 143 141 129 115 103 107 103 95 105 95 103 95 107 91 105 115 115 107 119 117 121 129 139 
0 56 38 46 46 54 46 54 40 56 67 56 58 67 65 71 63 46 58 48 44 40 46 40 60 46 60 97 225 215 209 229 273 261 265 293 346 374 346 338 344 301 291 233 209 159 173 183 177 157 143 171 153 159 145 153 151 133 115 113 103 107 105 111 115 105 107 87 83 83 83 63 95 101 113 109 113 127 117 113 
16 48 16 36 42 44 38 30 24 52 46 52 63 60 67 75 50 58 56 40 44 38 34 50 40 44 40 67 117 177 243 233 245 249 255 273 352 374 376 360 346 326 301 181 111 117 145 153 161 155 143 173 165 167 155 155 151 139 119 113 119 105 107 115 109 99 97 77 52 71 75 71 75 123 109 121 105 119 115 125 
14 48 22 30 42 54 38 42 52 48 40 44 69 56 63 63 56 50 54 34 26 46 36 54 54 36 34 50 52 65 117 147 197 233 243 259 338 342 354 360 366 332 249 111 85 93 89 125 127 129 111 103 113 85 93 91 91 93 97 107 91 95 79 89 89 63 67 71 67 54 67 54 69 99 109 123 107 123 121 139 


