P2
80 60
617
28 46 38 42 44 46 55 48 81 67 63 73 69 67 67 65 69 87 75 91 87 87 81 71 93 103 93 99 95 99 87 91 83 95 111 93 97 99 103 107 101 103 101 93 83 79 87 83 97 120 130 148 156 160 158 160 148 150 134 136 140 136 148 170 164 202 318 372 376 350 381 409 440 464 448 456 486 484 489 472 
57 36 42 38 57 50 57 44 52 55 57 61 52 63 52 69 61 81 87 73 87 87 87 81 73 89 99 89 87 91 81 95 91 87 95 101 109 97 105 101 97 93 95 89 81 95 79 83 83 122 113 134 150 150 150 156 144 136 126 126 138 124 144 152 188 292 415 444 431 437 429 435 464 486 499 489 486 456 440 368 
40 42 52 50 61 36 42 40 61 67 63 65 77 65 59 65 85 73 77 89 85 93 79 89 89 87 83 103 87 101 91 107 95 87 95 93 103 91 93 97 101 101 97 103 85 75 81 91 75 73 115 130 154 152 158 152 140 122 107 130 144 138 168 226 364 439 487 528 532 509 532 530 520 524 503 486 437 372 286 218 
38 42 22 42 50 48 46 52 83 52 50 79 73 55 50 67 63 75 77 85 93 75 85 77 81 79 93 91 97 79 97 99 99 85 97 85 97 89 93 89 93 97 97 79 91 75 93 89 77 79 95 111 134 128 128 105 109 101 83 126 192 268 342 433 522 540 532 549 542 536 538 517 515 499 431 381 328 332 300 288 
30 34 20 36 44 46 38 55 50 69 75 71 85 77 73 73 71 79 85 75 81 75 77 85 73 91 81 97 81 85 89 83 79 87 99 91 103 95 95 101 87 99 77 85 83 79 87 77 71 75 83 73 95 93 91 93 95 101 132 184 252 368 395 419 489 534 544 534 548 522 518 482 439 403 372 356 356 340 322 306 
36 32 24 36 55 75 55 55 69 67 63 69 75 79 71 55 83 81 85 77 81 79 85 77 77 87 81 85 85 93 85 81 91 65 87 83 101 77 91 93 89 85 87 93 81 87 87 77 77 79 75 85 103 103 126 144 166 196 272 401 328 348 437 484 493 476 468 486 518 505 486 468 439 395 366 364 364 336 328 332 
46 52 40 55 71 61 50 42 73 73 69 59 69 71 61 71 55 65 81 69 85 79 83 85 85 87 79 81 73 87 91 91 91 91 85 95 105 93 95 103 99 97 103 99 97 95 103 89 93 89 91 91 97 142 254 326 334 366 466 522 513 429 466 524 513 528 517 505 493 464 462 433 435 411 389 379 391 370 340 336 
32 52 46 44 83 52 65 57 77 71 61 63 71 69 75 71 55 69 85 81 93 71 81 79 87 95 77 95 83 87 81 99 91 91 115 103 101 117 99 109 105 105 101 101 95 99 111 95 89 97 101 115 136 222 342 421 486 513 530 561 567 575 592 613 610 615 596 563 476 368 370 358 356 360 364 393 381 366 346 338 
28 44 40 44 65 52 55 57 55 59 71 67 75 61 61 67 61 65 75 97 83 79 83 95 81 83 103 95 97 107 93 109 99 87 93 103 113 107 113 120 109 109 113 113 105 97 105 107 97 101 93 103 198 296 294 427 489 493 534 571 592 608 611 608 608 617 611 584 549 411 407 417 377 366 366 350 360 372 358 342 
28 38 42 55 59 52 40 52 57 67 85 85 81 73 75 75 87 83 95 99 97 95 77 93 105 95 91 101 105 103 101 107 107 105 97 111 115 111 117 111 115 109 107 130 122 99 115 101 105 107 105 117 230 286 278 431 482 503 555 596 604 608 596 604 584 610 611 600 582 486 433 411 413 413 393 348 336 336 318 324 
34 26 38 71 91 42 50 44 63 59 71 77 81 69 69 73 79 81 77 85 83 101 91 95 95 107 95 99 105 103 95 105 99 117 115 115 115 107 115 120 117 115 115 117 120 113 111 101 111 111 93 107 240 260 248 439 518 544 582 617 613 577 594 596 536 567 590 579 528 442 427 401 376 407 395 383 377 356 316 286 
26 36 61 55 65 79 83 69 71 81 67 69 75 79 69 87 79 87 93 95 97 91 89 111 111 103 97 109 107 91 101 101 113 107 120 109 113 120 111 113 115 115 124 101 101 103 115 117 105 97 115 124 178 246 256 370 522 561 594 606 615 606 594 565 518 567 582 505 421 401 383 372 383 405 387 362 376 356 332 324 
38 38 40 57 59 91 61 73 61 71 81 67 81 69 73 79 69 75 81 93 91 85 91 87 111 107 101 109 101 101 109 109 120 115 109 111 115 126 115 117 117 115 109 113 115 105 115 109 105 109 103 107 124 208 262 274 450 532 594 598 580 546 524 515 501 522 458 399 374 372 383 376 381 389 379 379 370 362 352 348 
24 48 52 50 75 65 63 79 77 71 79 71 71 79 63 73 81 69 83 93 95 91 103 91 97 107 97 101 107 113 99 99 120 109 103 122 115 124 113 115 126 113 122 111 113 107 99 113 109 107 115 95 115 146 208 222 308 444 497 526 511 440 318 310 372 387 350 376 429 403 409 397 393 401 374 383 374 350 330 330 
34 42 48 46 59 50 59 57 71 73 73 85 97 73 75 87 85 89 81 77 97 97 91 91 91 107 103 113 113 120 115 111 113 107 109 107 117 126 128 113 122 109 122 120 113 105 107 103 109 99 107 109 113 109 122 156 204 282 254 230 210 156 158 200 330 368 320 379 464 437 419 391 383 387 383 372 372 358 324 332 
44 52 52 52 69 73 61 67 65 67 83 87 81 73 83 77 81 81 83 99 101 99 97 95 101 97 93 103 109 105 103 109 115 105 122 109 115 109 113 111 124 109 117 113 124 97 101 107 103 101 101 109 111 107 117 115 117 122 109 109 117 115 128 154 314 431 385 415 452 444 433 397 411 403 379 379 370 354 346 340 
50 55 50 57 67 69 65 67 75 75 59 91 79 77 73 81 79 85 87 103 95 95 85 83 91 95 95 109 103 103 113 109 97 111 109 105 124 95 107 117 115 109 103 113 111 101 113 95 105 111 105 103 105 89 105 105 91 99 93 109 113 103 128 138 250 452 450 472 468 435 427 399 381 399 393 374 372 326 350 330 
42 67 57 73 75 69 83 59 69 83 89 77 81 67 73 91 79 77 97 91 91 85 95 97 99 105 89 107 93 101 101 101 95 122 101 109 126 120 113 122 109 105 103 117 107 109 107 97 111 101 111 117 101 93 99 109 97 103 83 105 107 111 148 164 234 403 480 505 509 470 439 415 403 421 401 409 393 302 314 362 
44 50 61 59 67 79 79 73 79 85 81 65 75 73 63 83 67 79 87 81 85 89 77 85 89 89 91 89 91 101 101 103 99 91 113 101 132 101 109 113 111 95 103 124 115 105 115 109 115 109 111 113 103 113 105 115 113 103 101 113 113 130 184 328 393 474 518 542 561 503 472 464 415 417 413 425 403 360 338 370 
48 55 52 50 73 61 65 73 75 75 83 81 71 79 69 79 89 79 83 83 87 95 87 83 95 99 95 93 97 89 111 103 97 89 115 107 115 122 124 111 120 111 120 126 109 91 115 115 117 109 120 115 128 122 128 128 136 120 105 115 122 142 316 466 532 557 559 561 567 536 530 489 415 397 389 411 415 421 395 360 
65 61 44 42 69 65 79 50 75 73 77 87 83 65 81 69 71 85 85 95 105 91 95 93 97 97 91 105 105 93 107 120 103 109 103 117 115 124 122 122 115 120 117 132 126 101 115 120 117 120 128 138 134 134 136 144 148 136 128 132 146 176 338 464 491 557 544 544 567 536 559 542 551 505 493 497 487 499 495 452 
57 71 50 75 71 73 71 59 85 67 75 85 83 77 73 85 85 75 91 95 111 97 93 105 109 109 122 113 109 115 113 126 107 124 115 120 134 130 111 122 124 124 134 142 124 117 128 122 117 128 130 172 228 252 206 190 172 156 146 164 150 252 419 415 423 501 534 542 553 542 561 553 565 555 517 518 528 530 526 505 
57 69 65 55 73 83 75 69 71 75 67 75 91 81 75 81 89 93 95 95 113 101 95 107 95 113 93 103 117 109 111 128 111 128 105 124 128 113 122 113 126 124 134 130 132 115 126 126 122 136 160 272 344 308 308 332 326 272 192 174 190 354 435 399 379 405 444 482 509 484 509 522 524 538 509 526 536 536 534 503 
52 61 57 71 77 81 85 59 73 77 89 73 89 103 77 85 73 95 87 107 105 103 101 103 103 111 109 109 113 107 120 113 126 120 103 122 128 132 120 130 122 120 109 122 128 128 130 130 128 154 262 409 411 411 391 403 497 517 411 244 276 397 423 411 407 372 391 421 458 444 450 480 507 540 509 470 466 503 511 495 
52 61 71 63 77 67 81 83 73 75 79 87 91 77 93 83 83 99 89 103 103 103 107 107 122 105 111 107 101 111 117 124 122 124 128 117 130 126 115 124 128 124 113 126 126 120 138 126 120 172 352 407 362 442 458 513 522 536 567 486 417 440 411 411 415 395 370 393 405 417 431 450 497 555 532 497 446 427 439 431 
67 69 69 73 71 75 69 67 75 75 89 87 85 81 81 91 85 95 103 93 97 93 91 109 128 105 120 113 101 107 101 126 111 111 117 126 115 124 122 115 115 117 122 117 132 132 138 142 130 204 381 330 352 405 474 567 528 470 444 540 503 491 439 381 433 403 366 348 377 407 433 450 493 518 517 487 437 409 409 381 
50 85 65 65 79 69 61 57 67 71 79 77 85 83 75 85 87 87 103 101 95 99 111 101 95 117 103 101 101 103 115 122 126 107 107 115 124 117 120 120 115 126 115 128 134 122 126 132 136 174 346 276 348 362 431 565 530 419 379 503 464 468 383 376 433 395 354 374 377 405 450 460 486 503 493 470 440 435 409 376 
59 65 71 61 69 73 77 69 85 95 83 79 89 79 93 95 87 97 89 103 105 99 93 101 111 113 107 111 128 122 109 103 111 113 120 107 126 134 132 126 132 120 124 128 126 126 128 144 140 156 210 208 254 340 440 511 528 495 499 486 440 417 324 421 437 391 366 387 405 431 462 482 482 484 482 448 431 433 411 397 
67 65 59 73 83 75 67 63 79 81 85 83 91 87 75 79 89 95 95 113 101 101 99 97 126 93 111 101 103 120 109 130 113 113 126 122 120 124 122 117 134 130 113 117 120 130 142 128 124 126 150 166 192 254 403 487 536 515 499 458 411 336 372 435 409 383 360 377 411 462 480 493 476 480 456 429 425 415 409 395 
42 59 48 71 71 89 75 81 85 83 91 91 87 89 85 93 81 83 89 111 105 107 103 103 111 105 99 107 109 109 99 113 120 120 130 111 120 122 117 111 126 124 115 136 130 128 120 109 136 134 132 132 142 154 210 282 292 276 270 346 332 336 385 395 395 395 379 389 415 480 515 489 484 486 413 401 405 439 429 401 
59 48 65 73 81 75 77 69 77 85 83 83 81 85 87 83 93 85 91 93 103 103 113 113 109 109 107 115 113 115 111 117 107 117 128 126 126 117 122 122 122 105 120 128 126 122 132 120 122 126 124 130 134 134 156 138 164 142 154 254 348 368 372 372 385 387 407 429 450 497 505 509 515 454 370 379 405 425 450 413 
63 61 57 69 73 71 69 69 63 91 85 75 85 83 87 85 87 91 81 103 93 89 99 99 105 103 103 107 111 99 105 113 105 113 115 105 113 109 124 109 115 113 107 126 115 109 126 107 128 120 120 134 120 120 117 132 130 128 138 300 399 385 383 379 385 446 478 487 480 495 505 509 486 405 340 383 393 417 405 419 
55 71 63 77 55 57 71 83 69 67 75 79 69 79 85 83 69 79 97 89 93 85 93 93 99 103 95 93 99 99 101 101 107 99 109 105 105 122 109 97 111 109 130 122 109 117 113 109 113 132 97 111 122 105 101 124 130 128 138 342 403 391 413 413 431 487 497 497 484 493 491 472 472 370 362 391 377 393 374 448 
61 69 52 63 67 65 61 71 67 71 81 75 77 73 69 67 71 71 79 95 97 93 87 91 87 83 99 99 99 103 99 99 91 91 95 97 105 105 107 115 97 107 105 107 103 113 115 113 113 120 103 101 113 107 111 122 113 111 128 312 385 393 431 425 411 409 393 446 478 484 476 456 437 340 350 342 360 399 429 489 
50 55 55 61 75 57 73 67 65 63 67 73 79 67 77 63 67 83 75 91 83 81 79 91 87 99 89 93 89 99 105 89 109 95 101 107 113 105 101 103 124 111 124 120 101 126 103 109 120 113 111 115 117 111 111 111 113 120 128 218 352 397 435 442 425 391 399 458 484 489 472 440 391 316 316 338 344 374 411 487 
65 77 75 67 87 67 75 69 79 63 81 81 77 81 77 73 81 91 85 95 95 101 95 89 89 107 99 103 101 95 101 103 113 113 103 105 117 113 107 120 126 109 120 115 117 130 115 120 124 126 122 111 111 111 128 134 124 126 124 154 248 381 435 466 440 401 397 444 470 458 433 411 374 393 338 324 356 354 403 462 
55 67 67 63 69 52 81 85 71 87 71 87 81 93 83 91 87 87 95 95 97 93 95 93 97 91 99 103 103 107 105 117 109 109 103 117 130 126 122 122 122 120 126 117 122 120 126 132 130 132 113 120 117 122 117 124 132 124 130 146 162 198 302 360 362 377 356 407 411 346 284 266 258 272 304 312 328 326 379 437 
61 63 50 85 67 63 61 79 79 77 103 75 107 83 79 97 87 89 97 97 99 99 91 93 103 99 105 91 107 101 111 122 120 132 113 111 122 120 124 132 128 120 124 128 124 124 128 124 128 120 126 136 126 130 132 128 122 126 134 134 150 146 174 192 190 220 246 294 284 228 204 194 194 196 198 228 256 250 256 288 
55 71 42 67 67 67 63 69 87 75 79 75 91 79 79 99 71 93 122 101 99 97 99 103 109 109 120 103 103 117 111 122 107 120 134 124 122 124 128 128 130 132 134 130 117 120 122 128 132 140 124 130 136 132 130 120 132 140 130 138 134 140 162 166 166 176 172 190 190 198 188 186 188 188 188 182 186 180 188 178 
44 75 67 52 71 81 77 71 85 89 93 101 101 85 89 99 93 111 97 87 97 103 105 95 117 109 126 103 107 113 117 126 113 124 117 117 120 120 122 132 117 117 124 134 126 132 115 120 126 130 130 128 142 132 124 150 132 117 132 128 138 122 158 168 154 156 178 180 176 188 194 186 176 184 184 182 172 162 160 158 
42 71 67 55 57 77 73 75 75 91 89 95 93 89 85 99 93 93 99 120 107 105 99 95 103 126 115 115 105 115 109 126 126 122 132 117 132 140 126 130 132 117 130 134 134 136 132 126 130 136 120 124 124 140 124 138 138 138 122 144 140 148 162 170 172 196 266 274 282 272 240 214 208 222 204 192 176 158 142 160 
48 65 57 55 77 79 61 79 79 81 75 77 89 91 83 81 91 101 99 103 101 97 95 99 101 111 111 109 120 109 126 132 115 124 142 107 124 126 122 126 126 124 132 130 138 126 132 132 132 132 138 134 138 136 154 148 144 130 136 140 132 140 170 174 210 334 387 413 423 415 377 354 308 280 226 186 174 156 126 136 
30 48 52 59 83 63 67 67 75 85 73 87 85 83 87 79 89 91 97 97 101 95 99 89 111 99 99 111 109 101 109 122 117 113 115 111 120 126 115 115 126 130 130 128 132 138 132 140 136 132 144 140 196 222 232 198 168 158 144 152 144 132 172 194 298 376 383 401 411 431 417 429 417 423 348 256 188 166 142 172 
57 48 65 67 69 69 77 67 71 73 79 95 87 97 77 87 95 97 101 95 107 103 97 109 97 117 103 107 103 109 120 107 122 122 120 111 122 107 122 122 134 132 136 142 134 128 142 130 134 146 138 180 302 462 495 464 405 401 290 178 174 162 182 264 395 425 405 387 385 407 413 446 495 501 499 454 362 274 200 226 
67 55 59 73 57 59 55 81 63 79 73 79 87 81 81 73 95 81 91 111 99 99 99 111 113 101 105 107 111 103 113 124 124 107 117 109 107 111 122 134 128 120 124 144 132 132 144 134 140 142 182 264 407 582 573 569 571 565 528 393 224 168 246 340 387 429 427 397 377 370 397 486 505 534 524 511 462 364 268 246 
34 59 52 52 65 63 69 65 75 79 81 63 99 93 81 91 87 85 103 97 85 89 85 91 103 113 105 101 103 111 115 113 99 107 113 105 111 117 117 124 99 113 117 140 136 132 138 136 122 134 204 320 495 582 580 569 575 563 509 474 399 292 350 362 356 350 364 368 350 377 417 501 491 530 518 520 476 423 294 278 
52 50 61 71 61 55 61 63 67 89 73 71 69 65 71 71 77 87 87 99 99 95 97 107 93 115 107 105 109 113 111 105 111 122 107 107 124 128 117 113 126 132 130 138 142 140 140 140 146 136 218 342 507 555 592 604 565 530 423 448 391 362 350 364 330 334 354 377 383 429 464 487 487 476 495 476 478 411 286 276 
59 69 55 69 57 71 59 71 77 73 79 59 85 69 61 59 97 89 91 101 85 99 97 81 103 107 91 103 97 95 101 113 113 109 113 97 122 124 120 134 113 124 136 128 134 140 150 134 124 144 206 300 462 503 571 586 517 482 385 393 360 352 348 348 332 298 336 379 383 413 413 431 452 440 464 450 446 391 258 272 
57 57 57 55 65 59 65 55 71 67 83 63 67 85 67 59 59 71 95 85 91 93 79 87 91 95 93 83 89 101 87 93 87 95 95 105 109 101 113 115 130 117 134 136 132 144 144 128 124 130 158 258 429 470 526 596 559 486 399 374 336 370 376 358 328 338 280 344 358 362 372 381 399 421 415 389 401 405 376 374 
50 89 57 65 50 59 67 67 59 81 67 71 71 71 65 71 73 89 75 93 91 83 75 97 103 81 95 99 91 107 111 77 97 101 103 105 103 111 111 124 126 117 117 136 140 132 126 134 130 122 128 186 296 393 474 548 553 544 522 470 476 484 429 346 302 352 324 328 314 294 332 308 322 342 376 348 385 415 395 381 
32 69 71 55 75 59 77 48 79 75 81 77 75 77 65 85 77 93 101 93 89 87 71 93 91 95 105 101 97 99 105 93 97 99 113 111 107 107 111 120 126 124 130 134 144 148 140 132 126 128 126 158 158 192 238 314 407 466 476 511 513 482 413 372 338 314 302 280 306 280 272 244 256 308 328 342 381 415 387 393 
46 61 52 50 59 61 63 61 63 71 75 81 83 81 77 79 81 95 99 93 105 89 103 97 97 115 101 101 113 105 113 113 107 113 117 109 124 120 132 120 130 122 148 160 144 150 130 150 136 122 128 138 144 132 160 172 178 194 242 383 403 391 405 372 334 310 292 278 264 248 260 242 280 286 314 346 364 417 397 374 
40 55 61 61 59 67 63 67 63 77 71 83 83 77 67 67 81 83 93 89 95 111 109 103 97 89 101 113 99 107 103 113 120 115 126 103 126 120 126 111 130 136 146 156 140 130 136 142 140 130 126 134 134 136 148 150 150 178 272 364 366 356 352 342 316 312 276 274 258 248 234 184 222 288 320 348 356 391 391 370 
57 65 61 65 71 55 87 52 85 55 77 77 73 77 67 91 95 73 89 85 105 89 105 89 105 107 105 109 113 113 113 107 111 124 113 107 130 124 126 122 130 140 166 166 146 148 146 150 140 132 126 144 140 128 142 138 154 226 340 370 364 308 310 322 314 302 296 288 272 212 83 136 220 300 322 336 342 362 372 366 
71 48 67 81 57 69 71 55 57 75 75 63 83 83 79 83 77 87 89 93 111 105 107 89 117 99 97 107 109 107 109 113 124 120 111 122 128 120 124 130 160 142 182 186 144 138 142 148 113 109 113 132 134 132 144 134 158 302 358 340 332 322 288 300 308 318 310 282 216 50 2 107 242 246 292 306 308 304 328 342 
40 57 65 52 61 67 65 63 65 83 75 65 71 79 75 85 79 75 99 89 111 91 95 105 109 101 101 120 111 93 101 107 111 120 115 107 120 124 111 156 188 226 262 226 166 148 164 158 128 122 113 138 122 132 128 136 200 358 366 352 312 288 284 288 296 290 302 270 208 0 75 200 200 244 300 284 284 286 294 308 
42 46 55 69 71 61 52 52 79 67 79 79 75 83 77 75 83 79 83 97 89 87 93 97 99 107 117 109 109 103 103 120 105 111 107 105 117 109 107 164 162 272 298 322 280 186 140 148 128 126 130 126 124 117 132 144 250 354 348 348 270 266 270 286 296 302 280 250 144 91 178 202 198 262 280 294 278 278 280 302 
32 57 48 69 52 61 61 48 75 75 87 71 65 83 79 73 81 81 83 99 97 105 109 95 95 113 105 111 113 111 122 126 107 113 107 109 124 124 117 136 162 268 340 364 362 300 184 136 124 117 117 128 126 120 134 156 270 340 326 320 264 184 228 282 294 300 266 224 142 172 220 204 230 252 288 286 270 274 274 280 
48 61 50 57 67 61 59 57 69 59 67 81 61 73 75 83 85 71 93 97 89 87 89 91 99 109 103 103 105 99 105 103 97 115 111 107 124 117 124 130 152 252 312 350 350 364 314 196 138 140 122 122 124 111 128 168 306 344 344 324 264 220 182 224 240 272 290 234 206 200 206 190 218 266 286 282 260 260 272 264 
38 67 48 46 71 59 55 50 63 57 48 59 77 65 75 61 71 71 81 97 93 91 95 89 101 115 101 99 111 111 101 105 117 103 111 103 130 120 107 140 124 188 242 260 284 372 417 340 212 152 152 154 156 130 154 284 372 389 405 366 284 218 208 176 222 228 256 248 224 152 166 188 212 260 256 274 276 276 270 268 


