P2
80 60
692
114 134 108 116 122 132 126 130 134 132 124 136 140 143 147 140 153 157 149 161 171 173 167 149 167 173 163 181 165 161 167 179 151 169 181 183 173 167 181 177 165 185 171 165 157 161 161 163 175 195 214 228 236 244 314 410 416 384 390 501 562 595 655 665 637 618 663 692 667 566 487 501 534 538 495 432 418 416 402 384 
136 124 106 126 130 132 140 126 130 126 122 130 122 143 132 134 145 155 157 149 167 163 169 153 145 157 169 167 157 161 151 171 169 163 173 177 173 167 183 167 169 169 173 159 153 169 147 153 157 193 208 201 240 242 284 396 388 358 402 487 554 620 643 634 643 645 641 663 672 655 525 489 479 471 475 454 418 410 406 380 
110 118 118 128 128 116 126 114 132 126 120 130 145 140 149 145 159 145 140 157 159 177 163 159 167 151 149 171 151 169 159 171 155 163 165 169 165 163 171 169 171 167 171 165 153 153 151 165 163 153 187 205 236 234 278 370 328 330 414 519 574 605 632 651 665 649 665 657 676 657 601 513 525 521 473 460 430 428 438 454 
134 126 104 132 120 126 136 140 138 134 122 147 147 138 136 136 138 151 134 155 183 151 169 145 147 147 163 149 165 143 159 171 165 155 167 157 159 163 167 171 165 161 165 157 155 151 151 167 165 155 181 195 216 212 242 284 318 318 458 564 601 618 643 674 676 665 665 637 676 657 610 544 540 550 523 491 446 458 471 511 
110 124 106 128 116 143 124 132 118 128 145 130 153 163 155 145 149 159 143 138 169 163 165 149 145 163 157 167 151 149 161 151 151 165 163 163 165 163 167 165 151 173 149 147 153 151 163 161 163 147 165 143 161 153 159 220 308 332 432 581 610 647 659 682 670 630 653 620 651 624 562 540 497 509 501 495 507 507 525 568 
110 114 110 122 132 140 126 130 138 130 126 134 140 159 149 134 159 169 140 149 157 159 159 153 147 151 145 167 159 157 155 149 155 136 159 169 171 157 165 171 165 159 167 157 161 169 165 165 159 153 163 159 173 173 161 165 197 278 356 525 577 657 672 672 639 620 632 575 564 511 546 546 528 501 483 483 550 556 558 620 
104 132 122 134 143 134 134 132 143 143 130 126 134 147 132 138 136 138 143 138 159 161 159 145 155 161 151 161 147 153 175 169 151 159 155 177 181 169 171 165 163 175 167 163 175 173 173 167 175 161 175 153 155 157 159 159 151 189 210 298 366 424 507 574 579 542 519 471 444 436 469 469 497 471 479 485 532 570 583 556 
110 130 136 140 149 151 136 149 153 145 128 134 140 147 155 149 151 143 143 151 167 147 175 155 157 171 157 175 157 155 163 173 159 157 187 191 171 189 175 177 167 181 171 173 177 177 179 169 171 171 175 171 175 163 177 177 153 175 165 177 208 216 246 362 452 442 440 412 452 467 465 462 464 456 462 458 477 515 554 552 
108 138 126 128 138 126 147 143 132 136 138 134 147 145 161 136 159 136 136 169 159 175 173 175 157 151 173 173 161 175 173 179 177 155 167 193 185 183 191 181 183 175 185 177 193 171 179 185 173 177 165 171 171 171 179 173 145 167 163 159 177 183 210 302 479 475 454 430 509 528 523 536 497 489 489 456 458 462 473 491 
126 134 122 134 134 138 134 138 151 138 157 163 155 161 163 155 173 167 159 171 187 175 171 171 171 175 171 185 183 169 175 179 181 181 167 195 193 189 210 183 185 195 183 193 195 181 195 175 193 185 195 187 181 171 183 171 165 181 173 171 187 201 201 296 515 540 519 509 523 519 509 503 481 487 462 444 436 460 464 422 
118 120 120 151 153 140 147 138 138 153 138 161 155 161 157 145 163 163 136 157 161 191 177 165 171 169 167 177 171 171 171 181 175 177 183 195 187 179 189 189 195 189 185 193 193 193 183 187 189 195 183 177 175 181 163 173 167 181 169 177 183 179 210 274 509 554 554 548 540 536 509 507 448 456 448 434 454 462 446 438 
118 128 140 138 134 157 151 157 151 159 140 149 147 159 149 163 163 169 155 173 167 179 171 183 175 163 173 187 179 169 177 187 179 179 195 187 195 193 187 181 193 201 201 181 181 183 189 197 183 177 187 195 183 185 177 169 155 167 161 183 179 187 193 256 464 572 579 560 562 523 509 505 460 448 420 412 438 454 460 430 
112 134 118 134 136 159 145 153 134 143 155 157 157 159 157 145 157 153 147 163 165 171 181 171 175 177 173 175 175 169 183 187 185 189 185 203 189 181 187 177 181 187 177 187 193 193 187 185 191 183 175 179 179 175 179 171 157 175 177 173 171 183 197 208 422 525 536 530 509 528 481 471 460 477 438 436 424 450 438 456 
96 128 128 147 151 145 149 157 149 147 151 149 153 167 145 153 157 155 157 169 179 163 185 177 173 177 171 173 181 181 179 177 183 179 181 199 185 193 183 187 187 187 187 179 189 187 181 181 189 177 191 171 177 175 167 173 155 167 161 173 175 191 183 195 310 481 489 473 460 456 464 493 479 477 467 446 460 446 442 438 
110 124 132 143 134 140 136 143 147 138 147 165 169 149 149 161 163 169 165 151 183 175 171 167 173 183 167 185 175 187 185 175 175 181 175 203 191 189 195 185 179 181 191 185 189 185 177 181 177 177 183 181 177 175 173 167 161 173 161 167 181 185 189 197 220 344 428 456 456 456 464 489 513 501 473 452 450 462 442 438 
120 143 128 145 147 159 140 149 134 149 145 161 151 155 155 151 169 165 159 163 179 187 179 177 181 169 163 171 169 177 175 183 187 175 191 191 185 187 189 185 193 185 195 175 195 187 173 179 179 187 175 177 171 171 173 169 157 167 173 161 179 183 185 185 199 224 342 454 458 460 462 481 513 507 479 473 460 477 499 458 
122 145 132 145 145 153 149 149 145 151 130 149 151 155 147 143 161 159 151 169 165 169 165 161 171 165 163 175 169 169 183 183 163 177 173 185 193 169 187 183 187 181 179 181 175 179 191 165 191 181 185 177 177 163 175 173 149 157 169 181 183 187 189 181 191 193 208 310 414 428 442 473 489 507 489 479 475 511 562 532 
116 153 134 159 145 143 159 155 159 153 157 145 151 136 155 167 157 149 163 153 161 161 179 169 167 177 159 177 161 167 163 179 159 185 169 189 193 191 183 177 177 169 167 185 181 183 185 175 185 177 195 187 173 165 185 171 159 171 165 169 183 183 201 197 197 189 224 254 364 444 446 460 479 497 491 469 473 487 525 509 
134 151 153 140 145 159 161 157 147 159 151 140 149 153 145 169 153 159 157 155 165 173 165 173 167 163 159 157 161 165 175 167 155 145 181 177 189 173 185 179 181 167 173 191 181 197 191 187 195 189 193 193 189 185 185 185 173 173 177 199 189 222 199 218 226 258 358 408 462 477 483 483 481 485 491 465 462 404 416 477 
128 161 149 147 149 132 143 147 151 149 161 145 138 155 143 159 157 161 151 151 165 175 173 163 165 167 165 161 171 161 183 181 159 159 187 187 189 191 191 185 183 189 179 193 181 181 193 193 201 191 197 191 205 199 208 185 189 199 183 199 199 222 246 272 336 444 465 454 493 503 497 475 493 501 513 481 509 362 354 430 
143 169 138 130 151 145 143 136 143 153 151 153 151 153 159 149 147 167 153 161 181 173 181 167 177 161 167 175 175 163 177 187 175 173 185 197 201 193 197 197 187 195 181 189 199 183 187 199 193 195 199 205 220 212 212 218 210 208 197 212 216 242 306 428 434 430 454 475 517 505 499 456 465 538 593 614 579 517 448 456 
136 161 132 159 143 143 153 151 161 138 147 153 151 165 153 161 175 163 159 167 171 171 187 185 193 177 185 175 165 183 187 208 175 187 187 210 214 210 201 197 197 212 201 205 199 195 212 208 205 208 210 236 288 316 274 250 240 236 220 234 226 272 448 485 473 452 467 497 491 517 467 402 376 515 612 630 655 641 577 519 
112 159 140 138 145 145 151 143 140 153 138 157 163 159 157 163 173 185 163 163 193 183 173 183 177 177 175 181 187 175 183 208 173 185 183 208 189 203 197 183 201 201 199 199 205 208 203 201 205 212 236 350 396 364 364 376 362 332 276 242 260 348 477 475 428 430 458 481 507 509 460 400 420 493 585 649 668 665 628 550 
124 151 145 155 157 161 157 147 145 151 163 151 165 181 167 155 153 175 165 177 183 183 183 177 185 177 179 177 179 171 183 189 193 183 175 203 203 195 193 197 185 197 185 185 193 212 205 210 220 222 310 467 452 465 467 471 544 579 487 316 324 426 469 448 444 422 432 471 517 532 521 532 530 515 560 597 672 663 636 577 
134 155 153 143 151 140 153 157 143 147 145 163 163 163 171 159 159 165 159 179 185 177 187 175 187 175 175 173 173 177 181 187 181 195 187 195 195 193 199 189 193 203 195 193 201 199 216 205 220 228 394 460 450 493 525 618 579 601 620 564 483 491 452 462 477 448 436 471 497 519 532 548 572 519 544 550 612 639 570 532 
132 145 140 147 145 155 161 143 147 151 151 155 151 157 163 161 165 161 155 163 177 173 187 189 201 171 195 181 175 183 169 199 185 181 189 199 191 193 193 195 173 199 197 195 203 205 208 224 208 238 430 408 460 491 542 636 572 513 471 593 534 546 452 460 503 436 400 408 444 493 548 550 591 554 564 523 503 538 509 469 
124 165 138 143 163 145 136 143 151 147 143 147 155 167 159 165 161 167 159 173 173 183 189 175 171 183 173 173 165 173 187 195 193 169 171 197 203 185 195 193 183 203 199 205 212 197 212 203 230 238 396 368 462 452 515 612 601 548 499 587 532 540 418 434 475 432 398 414 412 471 491 540 595 566 542 562 497 491 487 452 
128 153 147 136 149 159 147 147 173 161 157 161 155 163 169 167 179 171 159 173 183 183 183 177 179 185 173 183 193 187 179 183 175 185 185 199 208 203 212 201 212 203 195 212 208 214 205 216 226 224 278 316 348 440 532 583 612 606 603 575 525 505 388 471 487 432 418 412 420 444 460 542 564 558 562 554 519 477 489 460 
145 151 140 163 157 167 153 145 169 159 163 157 165 163 159 153 171 167 165 179 179 191 181 183 195 171 189 187 187 185 177 197 185 183 191 205 191 210 208 185 205 216 195 214 208 212 220 216 214 220 226 264 296 376 487 579 618 622 608 575 525 448 460 507 485 420 394 376 420 406 440 540 546 546 554 540 515 491 505 477 
116 149 149 163 147 157 147 163 161 155 161 163 153 161 161 161 165 161 153 185 187 185 181 181 177 173 173 185 185 179 173 179 181 189 199 197 191 191 193 193 222 302 374 366 330 234 210 199 212 212 208 216 232 240 308 410 398 376 386 477 471 452 475 462 475 442 432 424 388 396 465 501 517 538 521 503 483 497 505 493 
132 143 143 157 161 155 155 145 134 159 147 145 149 157 163 159 179 169 159 161 185 187 181 177 183 169 179 187 189 183 181 181 173 183 191 201 189 187 205 201 264 462 548 568 527 302 236 226 224 222 218 214 216 228 240 224 238 234 254 380 446 440 436 460 460 438 448 436 406 440 465 495 499 507 479 467 454 495 527 499 
134 155 138 153 151 157 143 136 147 163 157 155 163 161 169 165 179 177 155 169 177 171 173 173 177 171 169 179 187 169 173 185 175 187 199 201 183 189 199 191 286 509 572 603 583 579 473 362 308 300 294 284 252 212 210 214 220 236 284 422 450 462 469 479 473 473 469 454 452 467 456 462 465 456 440 473 477 513 521 505 
134 169 149 161 138 136 155 155 145 143 155 145 147 163 173 159 157 161 165 169 161 163 177 181 171 175 169 173 169 165 163 177 171 175 187 205 187 193 199 187 258 495 577 605 614 595 601 552 513 525 499 491 473 398 328 376 396 426 467 497 505 558 570 564 587 546 513 485 424 432 398 426 430 412 464 469 477 497 477 540 
138 149 134 149 147 145 147 155 147 155 138 147 157 157 153 149 167 147 143 169 179 175 179 167 177 165 181 181 159 171 171 177 161 165 167 195 181 183 201 205 201 432 554 570 550 562 574 536 542 544 542 534 536 519 505 487 471 493 530 560 560 564 585 603 612 546 483 432 390 380 356 406 384 422 450 434 473 493 556 568 
124 149 136 147 151 140 157 155 147 138 140 145 145 153 155 151 155 169 147 169 161 163 163 169 161 167 175 163 169 177 169 169 181 155 175 189 185 177 195 187 205 242 332 340 294 290 340 418 493 513 530 532 536 525 523 511 513 523 550 558 603 645 597 568 568 550 509 464 400 366 332 340 366 398 410 424 465 481 585 566 
126 167 151 147 169 140 157 145 151 143 145 151 149 169 157 147 169 173 165 171 169 185 167 169 167 173 165 171 165 169 169 169 181 179 171 183 183 185 191 199 197 208 212 208 210 216 212 238 264 318 388 448 497 509 538 534 507 532 550 550 589 653 647 485 477 448 481 475 436 366 332 356 358 376 382 398 436 467 583 552 
126 165 145 145 138 159 153 165 147 157 140 155 157 173 165 159 181 175 175 169 171 175 179 167 181 157 167 173 171 171 175 187 177 183 169 187 195 203 193 193 201 208 205 199 203 201 210 218 218 218 226 256 284 318 348 378 418 458 493 515 523 534 509 394 358 334 378 404 382 334 330 354 352 374 380 376 406 452 528 527 
130 161 140 159 151 163 155 163 155 153 177 143 177 159 163 171 173 163 165 179 191 171 175 179 179 169 181 183 181 171 179 185 191 193 183 193 187 193 210 199 199 201 203 208 203 203 210 212 222 208 226 232 232 236 238 238 228 268 290 312 324 318 292 262 240 252 274 278 256 252 264 294 272 288 288 316 338 394 398 392 
134 155 130 155 153 153 145 157 145 149 151 149 167 157 167 169 161 171 181 175 177 177 183 179 183 177 187 189 167 187 177 197 175 183 199 197 189 203 203 199 203 210 216 203 201 210 208 208 214 214 205 210 226 212 210 203 203 218 220 226 240 242 250 230 242 230 232 236 242 252 272 286 276 262 262 248 260 268 282 240 
126 175 145 140 157 159 169 155 157 167 159 169 171 171 173 175 173 183 177 163 185 205 179 171 189 165 199 181 179 175 187 191 183 193 187 199 189 193 199 203 185 203 203 199 205 216 208 208 214 205 208 208 216 203 208 216 197 203 210 220 236 234 234 230 218 205 228 238 228 256 266 282 262 270 250 248 240 246 238 238 
114 161 163 140 138 151 157 155 149 171 153 149 149 163 163 167 177 179 165 189 183 187 167 171 171 173 179 181 175 179 185 197 191 187 193 208 195 210 199 199 203 210 210 193 208 212 208 199 208 205 201 197 210 210 195 197 195 205 201 228 234 242 246 242 238 230 258 246 238 256 260 272 270 282 254 238 234 228 224 210 
120 151 145 130 161 159 140 159 155 159 149 159 157 169 163 167 183 175 171 177 181 179 177 181 175 177 177 167 183 175 195 191 181 187 216 183 191 195 201 203 189 203 199 193 216 205 197 205 210 210 208 212 210 199 218 214 197 191 212 220 230 250 252 266 298 288 292 264 262 272 278 296 304 294 268 234 216 224 214 224 
110 132 134 143 147 138 165 143 145 147 140 157 151 165 173 159 179 171 167 165 183 175 171 169 185 175 167 179 183 177 179 181 181 179 187 189 181 199 189 187 189 208 197 185 208 212 199 220 208 205 222 208 205 203 201 210 203 203 210 232 232 266 350 438 479 452 454 434 398 350 300 308 298 312 264 238 222 212 224 234 
106 134 147 145 153 143 163 145 149 143 145 155 159 175 169 167 175 167 167 173 177 183 173 177 169 189 171 185 179 175 183 181 181 173 187 191 191 173 195 185 199 203 203 199 208 203 214 205 210 224 208 199 210 201 208 201 201 228 224 232 256 406 491 509 509 517 528 515 523 444 362 340 326 304 292 280 282 282 282 286 
124 149 138 153 143 157 143 157 140 145 138 159 159 163 163 149 177 161 153 177 179 185 181 185 181 173 177 181 191 173 179 197 179 175 183 177 185 189 203 203 187 201 203 208 201 208 224 214 220 216 222 216 210 228 216 216 212 220 218 242 274 446 507 511 497 528 532 554 542 493 384 380 330 332 326 316 318 322 316 288 
112 149 138 147 147 136 140 149 151 153 161 145 171 179 159 165 171 165 167 155 161 173 167 165 185 183 175 173 173 179 171 175 177 171 177 179 189 183 195 197 171 205 191 216 212 212 210 214 210 220 252 274 284 268 244 232 212 216 220 242 292 458 489 467 469 495 509 530 513 491 418 396 342 344 352 330 326 340 342 298 
118 140 155 155 143 130 145 149 153 157 136 151 153 143 153 153 171 163 147 155 179 167 175 183 173 175 169 171 181 177 169 175 177 181 169 193 191 189 199 191 191 210 205 212 210 216 212 214 224 232 306 418 532 523 497 452 424 300 242 244 322 404 450 483 464 452 485 505 501 477 442 422 386 348 356 332 348 346 310 314 
116 155 128 155 138 147 143 151 151 143 147 134 159 147 143 140 173 165 153 163 169 185 185 155 181 163 165 167 179 167 177 181 183 183 175 187 183 179 187 193 187 199 199 208 203 212 218 214 230 296 382 550 647 636 643 641 622 550 412 330 432 444 406 460 450 438 475 475 469 475 444 422 378 364 372 378 386 370 324 326 
118 147 130 138 136 128 147 126 151 143 149 136 147 161 161 134 147 140 161 149 169 175 169 155 159 165 173 151 161 167 157 169 163 161 171 185 189 181 181 179 193 185 197 218 193 212 216 201 228 350 440 599 649 649 651 649 616 630 632 585 589 548 450 444 430 416 428 448 422 434 414 374 344 354 350 378 446 444 442 420 
110 175 143 145 132 136 149 161 132 149 145 134 145 147 151 151 163 169 147 161 161 165 157 167 173 155 171 165 159 173 179 145 167 159 173 169 173 195 185 191 193 181 195 203 197 197 203 218 246 356 456 560 610 661 657 608 585 534 575 595 630 647 509 442 418 412 418 432 410 370 370 332 344 354 364 364 432 471 469 473 
110 143 145 147 149 147 153 138 165 145 159 153 147 155 143 149 159 161 159 163 163 183 155 169 169 167 173 165 171 161 167 161 169 169 183 183 181 185 187 185 191 185 205 210 212 212 208 203 234 366 442 548 587 630 653 628 542 489 515 536 603 589 465 430 420 406 396 388 386 358 314 290 284 370 394 362 442 489 477 464 
114 138 134 124 134 136 143 151 136 149 134 149 151 153 155 155 159 163 159 167 177 169 177 171 173 171 171 169 173 171 179 183 175 179 181 187 191 191 195 189 197 199 212 222 210 216 199 205 228 308 440 570 575 597 649 636 577 530 521 519 589 530 444 420 424 404 408 366 320 312 300 270 322 366 406 376 420 487 473 444 
106 153 145 143 130 149 155 151 147 153 143 163 157 159 157 161 165 167 161 171 171 195 183 179 171 161 173 185 169 169 175 187 175 185 189 197 199 191 210 203 199 203 210 222 212 218 210 222 238 250 340 483 527 587 645 634 624 616 599 575 568 491 426 416 410 400 388 344 322 312 282 270 306 344 396 392 420 483 489 460 
120 149 149 147 151 143 155 147 147 134 145 155 140 161 151 173 179 155 161 161 179 175 191 177 177 179 177 171 179 177 181 185 185 197 179 205 199 214 222 248 230 208 208 226 218 228 214 216 228 222 226 270 310 352 446 509 499 465 477 505 507 456 428 424 396 374 374 348 328 328 268 234 272 352 380 382 402 454 462 428 
128 145 140 147 132 157 157 140 140 143 153 138 161 155 155 163 163 177 155 173 195 183 187 171 187 171 167 171 181 173 183 179 191 187 179 201 193 210 244 284 262 214 214 214 210 218 228 216 210 205 208 222 230 234 260 270 264 336 440 465 444 426 396 378 378 362 360 320 266 183 80 163 250 310 346 356 392 394 450 426 
116 153 138 136 145 147 138 157 143 153 153 132 153 165 161 165 161 165 165 171 183 179 187 179 185 169 169 193 179 165 177 183 173 185 177 199 216 218 262 344 362 270 232 222 210 228 220 232 216 218 210 216 210 212 208 234 274 402 465 462 432 412 376 360 360 340 350 284 187 0 61 187 220 300 354 340 350 372 406 396 
134 140 136 147 145 149 147 147 145 159 136 163 151 157 159 153 165 161 149 173 179 173 181 183 177 179 183 181 177 173 175 191 179 179 191 195 203 252 338 368 358 366 216 214 216 230 230 250 256 216 224 224 230 222 228 268 334 426 420 426 400 402 362 346 348 352 352 294 175 88 177 205 224 306 330 340 332 358 394 398 
114 147 138 149 128 134 149 138 145 157 159 153 138 163 147 147 173 165 153 173 175 179 187 171 175 189 181 189 179 177 187 185 177 181 179 185 222 294 374 360 378 452 350 352 344 312 320 344 360 322 278 284 318 364 402 440 444 450 398 406 384 350 354 336 344 342 336 272 191 179 171 232 268 292 336 330 324 354 372 364 
122 147 130 130 138 130 128 136 147 145 136 147 143 145 151 151 157 155 157 171 173 171 161 167 169 175 175 175 175 171 167 177 169 179 179 189 203 300 400 390 400 454 489 487 469 479 491 519 519 507 481 464 479 501 538 525 519 519 444 408 358 306 268 300 316 312 306 248 185 189 208 244 274 324 354 326 312 350 346 352 
106 145 134 126 140 128 138 145 145 132 134 145 155 149 155 138 157 151 157 161 177 177 173 163 167 169 171 175 175 179 169 179 181 173 173 181 205 270 360 376 348 352 400 442 458 462 481 528 517 503 534 536 532 511 511 513 509 538 515 428 332 240 212 238 296 284 292 248 226 232 226 258 254 318 328 326 328 348 352 350 


