P2
80 60
544
64 76 46 34 38 34 50 32 46 68 38 42 54 46 40 54 48 54 62 30 48 30 42 54 44 56 54 36 44 42 48 52 52 48 34 44 40 46 38 56 42 48 34 50 34 42 28 22 34 46 72 90 92 120 106 108 114 100 98 118 104 146 178 152 150 187 195 215 252 321 396 398 365 358 325 336 344 338 352 340 
48 56 28 30 36 40 36 32 40 42 52 40 42 48 36 44 50 34 38 40 50 30 36 46 44 34 46 50 38 36 48 46 54 34 38 38 38 38 46 48 38 42 42 28 28 30 40 36 24 28 46 54 88 102 98 80 92 110 160 195 178 191 207 225 243 303 319 274 294 323 387 404 406 387 361 332 307 309 296 290 
58 50 32 38 32 32 34 28 48 48 46 50 18 44 42 40 42 46 46 42 20 30 38 42 38 36 44 32 48 38 28 28 42 30 40 36 42 38 36 42 44 34 40 18 28 20 22 26 20 44 36 48 66 80 78 68 92 136 186 252 256 227 233 280 328 406 472 462 387 311 381 418 394 365 356 325 323 297 262 274 
60 42 36 38 32 32 36 36 32 28 44 38 38 24 42 36 40 36 46 32 38 34 30 38 54 32 30 42 40 38 36 34 48 34 34 28 42 38 26 38 30 34 26 22 26 22 36 26 36 20 28 22 30 26 36 96 138 162 182 252 243 286 272 350 445 449 523 527 500 348 344 346 385 377 356 319 313 309 294 272 
62 44 36 42 46 36 42 52 40 36 30 46 30 46 40 48 38 44 20 46 10 20 18 34 48 36 34 50 38 50 32 34 36 32 24 26 28 30 22 32 26 38 26 36 32 38 26 34 30 34 22 40 20 48 52 166 193 182 193 243 282 288 305 358 476 498 519 544 527 425 330 327 321 319 340 332 315 290 288 282 
68 28 52 42 28 32 54 42 34 34 36 46 32 34 38 30 44 36 34 26 20 24 34 34 28 38 28 44 34 38 42 30 22 32 34 28 38 32 32 44 38 46 42 32 34 40 36 44 34 38 40 44 24 60 78 223 266 241 241 239 280 330 323 354 435 468 497 506 527 477 361 383 356 325 290 297 296 284 272 284 
36 26 46 18 40 42 38 42 42 36 38 28 40 20 34 26 28 26 24 20 16 26 34 32 38 26 28 42 36 34 38 40 48 40 32 28 42 50 36 56 44 38 38 44 56 38 38 40 34 32 46 42 32 56 164 247 296 299 243 239 270 348 348 421 500 517 512 500 479 404 358 334 363 363 338 307 274 280 270 252 
40 32 30 32 34 30 18 36 34 42 28 30 40 34 20 32 24 30 30 28 28 32 26 32 36 44 46 40 30 44 52 28 44 38 34 22 48 34 44 42 36 36 46 40 44 40 46 48 42 52 48 52 40 72 215 315 292 301 276 241 256 400 445 476 517 502 521 510 456 394 344 327 325 338 346 336 290 262 235 237 
48 24 18 18 24 30 50 36 38 28 32 40 46 40 26 44 36 38 30 34 18 26 40 24 36 30 46 34 34 56 44 44 54 50 46 44 38 40 46 46 44 36 48 40 48 44 48 50 48 44 62 36 34 66 138 342 294 286 297 264 276 381 454 487 489 504 510 485 458 358 350 323 321 321 346 346 323 311 278 249 
48 30 42 40 34 48 38 18 32 42 32 42 38 36 42 30 36 38 36 30 26 26 42 24 34 44 42 38 54 52 42 48 42 50 48 44 48 42 48 50 36 42 40 38 42 46 38 56 52 58 58 44 48 78 178 296 354 270 284 276 262 361 437 447 456 497 493 443 437 383 361 328 332 344 340 332 313 301 278 270 
40 24 48 32 38 40 46 34 40 42 38 38 42 32 34 32 42 38 40 38 34 26 46 42 40 36 50 48 40 50 54 36 50 54 40 42 46 50 50 48 54 50 38 34 48 46 54 42 62 52 42 54 36 76 280 420 447 319 272 266 229 284 410 435 454 504 456 414 406 404 371 334 340 346 346 323 313 303 288 282 
34 26 36 36 40 36 34 40 36 28 36 44 42 34 40 28 42 24 40 28 30 34 34 38 26 48 46 42 54 44 54 42 44 46 30 56 34 50 38 42 44 42 40 52 36 50 38 44 48 46 44 50 44 60 118 315 451 423 327 268 219 237 342 385 443 464 425 387 387 369 334 332 325 330 332 340 309 313 296 284 
36 38 46 36 38 44 28 34 36 30 38 50 28 40 38 20 46 36 38 42 32 36 40 44 40 40 42 38 46 50 38 40 52 40 44 44 48 58 46 44 44 50 48 44 46 54 40 44 50 48 50 50 44 50 50 76 235 369 412 398 332 278 178 270 367 398 392 373 367 330 296 315 303 338 313 321 313 294 278 272 
48 28 44 40 18 50 30 32 32 28 36 30 28 30 26 32 42 46 38 28 36 40 32 42 42 30 30 30 38 44 40 56 38 30 40 30 44 54 44 40 32 42 48 44 42 40 52 50 50 46 44 36 44 52 52 32 56 68 193 373 394 367 356 233 276 336 346 344 358 334 330 325 315 332 327 309 299 276 272 284 
36 14 36 38 54 44 28 20 34 32 44 24 18 20 26 30 34 32 36 32 20 32 36 36 30 28 40 24 38 40 38 40 36 38 36 42 36 48 30 50 48 44 36 36 48 44 34 40 40 44 44 42 50 36 42 34 28 32 44 146 297 352 363 350 256 207 282 282 330 328 328 336 328 346 325 286 258 241 241 262 
42 30 50 44 30 34 40 30 42 46 32 42 36 36 24 40 26 36 32 20 42 30 34 22 34 38 38 40 36 44 40 46 50 44 32 40 42 48 36 58 36 40 26 40 50 26 34 28 44 38 50 32 24 30 30 20 32 28 28 46 166 296 352 361 350 243 148 197 296 303 325 344 342 363 321 296 172 110 128 254 
34 38 42 22 40 26 40 50 38 34 46 30 34 38 32 42 28 26 16 12 28 24 24 36 42 30 38 30 40 38 26 40 44 30 22 46 46 40 36 48 34 34 28 14 32 40 24 28 34 42 32 30 36 36 22 34 32 34 40 50 70 235 325 356 332 319 156 90 132 221 286 315 342 373 332 330 195 92 102 211 
44 22 34 24 20 30 24 18 26 32 8 16 24 20 18 12 40 20 24 20 20 16 16 30 34 20 42 20 18 34 22 20 36 20 22 32 34 42 38 36 34 44 42 30 28 26 20 38 50 48 26 32 50 24 12 18 38 32 34 40 56 134 262 317 319 332 209 74 84 82 156 272 313 352 379 387 249 98 96 209 
40 30 40 36 16 28 28 34 38 36 40 28 20 26 38 24 30 24 30 20 0 8 22 38 34 16 26 22 24 40 28 40 46 16 20 40 34 38 40 42 44 40 30 48 46 36 30 44 46 54 50 38 36 40 46 40 48 42 52 50 44 96 184 315 311 319 215 100 106 94 82 134 227 344 410 439 387 182 148 223 
38 28 38 28 28 18 30 30 18 26 22 32 8 20 16 20 18 14 32 16 14 8 24 30 34 34 16 26 28 34 22 28 42 42 28 24 42 46 40 50 38 36 46 38 46 40 46 46 54 60 56 50 50 40 50 48 46 44 52 48 48 76 176 286 297 305 203 102 110 104 94 94 146 323 420 460 431 292 237 336 
38 34 44 36 36 28 10 34 26 18 36 26 18 22 6 22 34 28 20 28 10 28 18 24 38 36 26 24 38 46 28 34 46 46 46 40 44 38 46 58 44 46 34 42 44 40 48 48 50 52 60 44 54 52 60 60 46 48 58 58 60 96 205 330 328 313 217 116 128 106 114 120 138 233 377 449 449 389 328 418 
44 56 48 20 30 36 38 18 30 32 20 26 36 26 32 38 16 22 36 30 24 26 26 28 30 10 32 44 42 50 32 54 32 38 48 44 46 38 46 50 46 54 36 46 44 38 36 52 56 68 58 56 58 56 62 62 54 52 56 72 72 98 262 338 338 317 254 164 160 150 142 148 150 197 317 427 460 441 367 412 
52 54 60 44 32 22 40 16 30 22 30 42 38 24 16 40 12 22 28 38 22 34 28 18 46 38 34 28 40 42 24 54 36 38 50 48 52 44 52 50 36 46 42 46 46 40 52 58 44 52 58 68 56 64 72 54 60 62 62 78 72 158 305 348 327 280 252 184 180 172 144 176 164 193 247 373 429 454 425 402 
46 32 64 34 34 22 18 28 28 30 38 30 26 30 24 36 36 24 24 40 32 26 34 30 32 40 34 38 48 44 38 46 46 44 54 46 42 40 50 50 42 42 50 42 42 48 46 38 60 64 58 58 58 58 60 46 60 58 76 76 92 225 332 327 303 288 231 156 187 195 180 191 189 207 239 305 418 416 437 387 
42 30 60 36 18 30 36 30 38 42 26 36 30 34 34 26 40 20 30 30 30 42 36 34 30 44 34 32 36 42 36 40 46 52 46 48 48 40 38 32 56 46 54 48 48 42 48 60 60 56 52 56 70 58 64 46 56 64 68 68 110 245 307 299 280 239 172 118 203 201 195 215 221 229 268 317 375 410 431 420 
40 36 34 26 42 30 38 22 26 28 32 20 24 38 38 26 30 28 20 32 38 34 30 38 22 42 38 42 58 40 40 48 54 46 48 42 44 32 50 68 56 46 42 34 40 36 46 48 64 48 58 46 54 72 62 50 66 70 58 70 150 313 307 292 305 241 132 120 225 221 207 254 237 243 284 290 334 390 423 420 
40 28 50 42 34 42 30 24 22 20 44 26 38 22 34 44 48 40 28 32 32 36 38 44 40 22 42 38 26 38 38 28 38 50 44 44 48 46 44 50 50 44 50 50 56 40 64 58 54 62 58 62 44 68 66 62 56 60 66 76 191 325 309 282 280 229 245 231 278 243 213 241 215 262 252 276 334 390 443 437 
50 44 52 34 24 36 18 38 24 20 36 28 24 34 34 20 24 38 16 32 22 32 30 30 30 44 30 38 48 52 34 46 46 44 46 44 52 48 46 50 34 54 44 42 56 48 46 58 58 44 60 48 58 64 44 62 58 52 70 94 233 330 313 280 294 307 272 272 309 249 227 241 191 260 276 305 344 400 435 441 
44 42 44 46 32 46 18 28 26 28 34 40 36 28 28 38 36 36 22 28 26 32 20 42 32 36 24 48 36 38 26 42 44 42 44 44 58 44 54 52 50 34 44 46 40 54 48 50 64 64 68 62 46 52 54 62 54 68 68 90 264 354 338 307 294 315 311 336 352 330 260 233 187 223 280 328 373 412 429 421 
34 32 52 22 46 26 24 26 18 24 32 42 28 16 18 22 26 22 28 14 18 28 34 14 40 30 38 34 30 40 34 40 34 36 42 42 44 60 46 44 40 40 42 38 46 44 42 30 46 54 58 56 52 54 54 54 50 58 66 84 262 361 332 309 303 307 288 294 330 332 309 274 162 193 288 334 390 385 416 410 
46 48 46 26 34 34 14 20 18 26 30 28 22 24 26 32 32 26 36 16 24 26 28 30 28 28 28 40 44 40 34 34 34 36 44 30 50 50 48 34 36 36 42 42 44 42 46 42 42 54 62 44 42 56 34 36 46 60 66 72 260 321 321 328 350 330 274 262 270 292 278 288 235 213 276 315 390 406 402 390 
48 50 54 32 44 34 28 32 34 20 20 24 24 18 24 36 36 24 26 20 20 28 24 30 40 24 32 28 44 30 38 36 34 40 32 30 48 40 48 56 34 48 36 38 36 40 40 52 42 46 40 44 36 52 50 34 34 48 52 78 247 315 338 319 334 342 319 274 249 262 270 305 282 219 270 286 375 435 441 433 
38 38 36 34 38 18 24 22 26 26 38 14 40 30 20 26 34 14 32 10 20 32 34 28 26 36 30 36 34 28 26 26 36 36 34 28 38 34 32 38 26 34 36 44 32 38 40 50 44 38 48 48 36 44 38 46 44 44 82 104 272 342 354 342 323 309 313 309 309 303 266 299 297 233 256 250 383 445 451 427 
40 40 44 34 26 40 30 14 34 18 36 12 32 28 20 18 22 20 34 6 18 24 22 8 30 30 36 26 30 40 22 28 24 24 26 24 36 40 28 34 46 52 20 42 44 42 52 44 40 56 58 50 56 60 58 70 136 241 340 346 348 385 367 381 344 334 344 327 350 327 299 294 296 235 243 258 352 400 421 387 
28 28 26 50 30 28 16 14 34 22 38 28 20 24 18 18 22 30 32 10 12 12 24 22 18 10 24 26 32 20 28 34 36 30 28 28 42 36 38 38 44 38 36 32 34 52 40 52 36 60 48 50 54 80 130 189 358 435 418 416 421 416 400 381 354 346 346 307 323 297 282 309 296 282 260 278 317 338 379 404 
30 32 56 50 34 38 38 30 40 40 38 44 38 38 36 32 32 28 28 28 30 30 24 38 36 34 28 32 44 40 34 42 48 36 40 44 34 44 48 46 50 54 40 42 56 52 48 62 56 64 52 64 110 211 268 381 456 441 338 344 423 414 406 383 354 350 336 296 290 288 301 319 342 317 309 315 334 334 342 400 
36 26 46 28 32 50 22 10 36 32 34 22 32 26 34 36 32 28 22 40 46 44 36 46 32 40 36 42 50 34 52 42 46 46 52 48 58 48 44 58 48 58 58 46 56 52 48 66 56 64 58 78 199 313 338 433 476 468 379 383 418 414 394 383 356 358 348 280 299 290 297 338 342 340 344 321 317 330 315 354 
32 12 42 30 36 36 34 20 26 30 30 38 24 36 34 42 38 38 28 36 32 38 30 26 38 36 32 48 40 48 36 50 50 48 38 54 34 42 42 38 48 50 44 52 52 50 50 60 58 62 68 80 219 286 317 348 452 460 435 464 451 414 363 354 358 350 336 286 288 270 307 354 328 327 319 307 303 342 323 321 
30 24 52 30 24 42 48 42 28 34 24 36 36 44 46 34 32 26 34 34 34 38 36 36 36 44 30 40 38 54 50 46 50 54 36 46 54 48 50 58 44 56 52 58 56 62 46 70 60 68 76 68 195 239 327 307 334 429 468 481 433 328 229 292 309 338 294 270 292 305 346 377 297 274 247 258 336 369 352 319 
36 40 48 42 26 42 30 30 50 34 32 30 34 30 40 44 42 32 36 36 38 42 38 46 36 40 44 46 42 38 50 40 62 52 46 44 56 56 54 58 58 48 52 46 68 56 56 54 66 66 74 76 168 215 278 278 309 356 435 435 303 146 112 174 260 284 260 260 319 348 330 296 260 274 260 301 389 369 358 359 
34 38 50 42 40 44 22 24 44 22 28 36 34 44 44 48 52 42 34 42 38 44 50 42 40 52 44 34 48 54 40 32 46 56 56 36 48 38 48 48 44 52 36 50 64 56 54 46 74 66 62 80 108 160 178 180 201 245 303 282 152 100 94 104 186 313 311 313 311 317 278 297 317 369 381 412 402 385 363 361 
30 38 42 28 44 30 28 28 40 30 32 30 24 26 50 46 38 34 44 26 34 28 40 28 36 44 38 48 44 36 36 34 48 56 38 44 50 42 50 52 52 58 38 52 56 62 48 60 66 58 46 64 80 102 106 132 132 118 100 104 78 84 80 92 110 205 330 342 332 305 292 330 344 365 425 447 412 387 387 369 
42 36 36 50 26 60 34 24 40 38 32 46 36 40 50 36 36 42 46 42 32 34 38 36 34 50 40 38 38 40 32 42 52 58 52 50 52 34 64 54 54 58 34 62 58 50 70 56 68 82 68 66 76 72 70 62 66 74 70 74 68 82 92 148 221 294 317 325 338 338 344 342 369 377 431 435 418 381 346 301 
58 44 52 44 46 42 38 38 38 48 34 30 56 36 30 30 32 34 36 48 36 34 32 40 48 52 34 46 42 40 46 42 48 52 60 50 52 60 38 56 56 70 56 56 60 54 72 72 72 76 78 70 78 76 50 52 64 58 72 68 74 96 215 301 282 303 330 338 358 327 338 348 365 373 412 427 392 350 297 213 
36 36 56 46 46 36 38 44 36 32 30 46 44 34 40 34 46 42 44 32 28 36 50 38 36 44 42 38 40 38 44 42 52 52 54 48 48 54 46 54 46 54 52 56 68 70 70 64 68 88 74 76 74 72 72 56 70 64 60 74 62 166 309 340 309 323 315 319 336 317 330 354 356 383 371 365 342 284 223 191 
14 46 40 42 36 36 22 34 40 32 36 32 38 30 34 42 32 42 28 34 16 32 40 44 34 30 34 34 34 26 30 44 44 56 32 38 58 48 52 62 60 54 54 60 70 56 66 80 78 74 72 70 80 118 142 84 114 92 80 74 98 249 317 348 344 315 313 311 325 311 309 313 356 348 299 305 296 286 223 195 
30 32 52 46 40 36 38 46 46 36 44 34 42 24 28 30 32 20 30 28 22 32 32 20 30 40 36 36 32 38 26 48 38 34 36 38 52 44 50 62 48 56 60 44 58 58 70 70 94 80 134 158 203 327 408 371 361 288 154 158 197 297 342 352 342 340 328 315 317 296 297 305 321 311 252 290 290 284 256 227 
42 38 52 22 42 38 32 28 32 38 24 38 30 36 26 34 44 20 26 28 24 28 38 38 32 26 22 30 36 24 32 30 28 40 28 24 28 40 38 50 50 58 52 56 36 60 82 70 76 154 266 334 319 387 445 456 437 404 252 284 323 319 344 358 338 332 321 311 303 311 301 307 321 315 264 296 307 290 282 256 
32 36 44 56 32 34 40 28 18 32 36 42 38 44 34 28 36 32 28 30 12 34 30 30 44 40 32 36 36 30 42 44 50 26 40 32 40 44 58 48 42 50 64 52 60 64 76 62 74 229 323 321 330 344 402 474 472 443 346 356 387 342 336 358 330 305 303 297 307 294 301 307 292 301 288 299 297 294 274 256 
42 40 56 34 44 40 40 36 34 46 30 40 38 42 34 24 40 42 30 24 32 34 22 36 26 36 36 30 50 46 34 50 48 38 44 44 56 46 40 40 52 60 72 70 74 72 94 80 136 272 319 323 358 359 420 489 476 447 470 485 458 416 363 359 319 315 297 284 299 290 278 270 264 270 252 252 241 282 278 270 
36 42 48 42 48 38 44 34 36 38 42 40 30 40 44 42 40 40 46 28 30 38 40 46 38 40 38 46 50 54 48 46 46 50 40 36 48 50 50 64 46 74 60 82 82 70 84 90 170 258 297 334 363 392 452 489 474 477 483 497 477 421 396 352 309 296 274 260 280 270 278 256 254 250 239 243 221 252 276 250 
42 40 44 50 48 50 46 34 60 46 36 38 42 34 44 40 40 46 42 40 40 32 40 42 34 48 42 52 70 42 48 60 52 48 56 42 46 58 52 62 60 82 64 74 76 80 96 86 174 250 305 321 342 375 435 476 485 483 487 470 477 412 400 361 307 280 272 260 282 268 250 254 249 252 219 243 215 229 247 250 
34 40 52 46 52 58 52 62 46 48 58 40 46 40 64 48 60 48 44 48 46 48 60 50 46 58 40 66 56 76 60 64 70 56 70 66 62 62 66 66 68 68 66 70 88 84 86 90 172 266 299 340 348 379 385 451 491 487 476 474 468 431 406 350 266 262 262 260 268 249 247 243 239 252 223 219 217 219 223 245 
36 22 42 56 44 58 30 52 42 46 54 36 40 46 58 44 54 42 52 46 46 44 44 42 52 44 50 56 46 60 54 56 60 44 60 62 66 62 56 54 70 68 62 56 76 66 76 96 128 213 270 278 319 389 385 445 487 454 456 431 404 418 387 328 252 256 262 249 258 258 231 237 227 235 215 219 211 211 215 239 
46 58 60 42 42 36 44 30 36 56 38 42 58 48 56 44 54 50 38 46 34 54 46 58 40 46 48 48 54 44 48 46 62 48 58 52 56 64 64 64 56 54 64 58 66 60 90 76 94 132 217 250 319 344 354 330 336 307 338 371 383 394 352 307 254 266 256 262 258 243 245 239 239 231 217 207 195 193 231 231 
28 34 44 34 46 46 40 34 42 34 54 54 36 36 36 52 52 36 44 48 36 46 44 42 50 38 50 48 36 42 54 50 60 46 56 58 74 44 36 62 46 70 40 60 76 76 72 74 74 80 114 134 138 184 158 134 138 138 184 305 323 334 297 301 268 268 262 249 260 252 247 231 241 231 209 195 174 193 213 209 
40 26 54 32 42 32 32 48 40 44 40 50 36 48 38 44 50 48 48 38 36 48 44 40 48 36 44 54 46 54 48 48 58 48 58 50 70 56 58 56 50 58 52 62 68 62 52 66 80 70 90 78 76 102 70 70 80 74 124 258 260 292 296 307 286 258 260 252 262 249 243 247 239 239 205 164 162 191 221 229 
26 34 36 22 16 50 40 38 40 42 42 32 36 34 40 44 50 38 48 32 36 38 40 40 54 44 50 48 56 52 36 52 50 48 38 54 44 58 54 56 62 58 42 62 60 58 70 68 68 82 76 58 60 66 42 56 70 70 90 221 249 286 288 303 274 282 262 247 243 227 243 245 237 254 201 160 180 205 219 250 
36 34 46 48 30 48 38 36 42 36 42 54 52 46 48 46 44 48 34 34 44 44 50 48 60 52 44 54 54 56 64 54 60 56 48 44 58 46 54 54 62 68 52 48 48 50 60 52 68 60 74 60 66 70 56 56 60 52 58 186 258 290 319 315 288 284 262 229 235 227 217 254 256 235 191 174 180 197 254 260 
40 32 26 18 14 42 38 38 44 32 36 34 34 30 26 50 50 30 46 34 30 44 44 42 50 40 36 62 42 44 54 52 48 48 60 46 54 50 66 54 52 72 64 66 56 54 56 48 54 68 64 62 84 98 84 84 92 92 86 158 278 325 330 332 294 288 264 243 241 225 223 237 256 254 207 178 189 213 264 286 


