P2
80 60
510
81 95 73 81 81 93 107 101 119 119 103 105 113 125 97 113 109 87 107 79 71 89 59 81 71 79 69 79 89 87 69 77 81 77 73 89 85 85 81 61 53 45 47 69 73 93 79 83 87 89 71 67 69 81 67 73 77 65 75 87 115 97 115 127 113 119 115 137 125 127 129 131 119 115 103 115 105 105 135 127 
59 97 85 81 85 93 87 107 91 99 121 119 99 103 101 113 107 89 77 85 83 85 71 55 65 63 53 83 67 71 67 61 83 75 83 97 89 89 67 63 43 51 75 79 79 81 85 87 113 89 79 71 61 75 75 79 73 79 79 77 81 95 105 109 115 115 129 121 137 135 113 121 113 101 93 99 95 107 111 121 
85 85 75 91 83 89 85 101 93 113 103 93 107 103 107 113 101 87 87 85 73 83 55 71 77 61 79 85 75 79 69 89 95 93 101 97 115 93 79 79 61 67 89 85 97 103 103 105 109 125 111 87 89 115 91 85 95 77 71 87 85 91 91 109 115 117 127 133 125 131 117 133 111 109 113 117 101 121 137 119 
65 79 77 83 89 87 99 103 87 85 99 105 93 103 107 99 97 101 93 85 69 75 61 69 83 85 65 85 95 119 95 135 119 145 185 143 131 109 89 73 69 71 109 123 125 149 153 171 183 193 215 193 191 163 151 131 107 97 111 107 89 103 105 127 111 113 135 133 123 139 159 143 147 137 147 127 139 147 151 149 
81 79 83 83 81 87 91 109 95 101 91 99 105 107 111 105 95 115 89 93 69 83 57 79 83 93 81 111 147 235 243 251 261 339 343 284 195 133 111 111 119 147 221 227 237 290 276 255 263 274 241 261 265 261 239 221 183 159 149 137 127 125 149 167 161 157 163 183 193 211 217 255 253 247 249 255 229 239 251 195 
81 67 95 83 83 81 93 83 89 105 117 99 109 109 119 113 109 105 97 91 85 87 73 91 99 109 115 195 304 306 261 267 335 427 431 410 388 271 219 227 261 292 306 298 330 361 357 345 330 353 345 320 286 251 227 217 211 207 189 201 179 181 195 215 209 221 233 249 255 251 251 280 263 274 276 274 280 292 310 257 
79 85 93 87 73 105 103 103 103 101 89 123 105 107 115 117 109 121 103 103 111 87 77 85 97 87 129 300 359 326 271 280 390 450 470 460 441 377 339 324 322 332 302 290 343 332 334 335 373 441 443 439 384 290 251 217 221 193 195 205 193 195 203 215 217 229 239 233 259 253 237 245 251 265 261 284 282 294 294 290 
79 69 83 85 91 93 105 115 91 111 95 111 111 115 123 117 95 113 101 97 95 97 77 87 97 123 135 310 373 379 306 290 421 477 497 472 456 369 339 308 322 316 286 298 300 294 263 280 349 450 464 400 300 302 296 308 296 235 205 219 221 213 195 225 235 237 241 217 213 223 235 265 282 286 280 272 284 280 300 267 
81 73 89 101 95 95 91 105 99 97 105 111 123 101 107 119 113 109 103 103 105 99 75 99 103 107 127 217 369 381 357 337 413 508 510 479 444 373 306 318 326 314 292 282 261 276 235 255 284 402 377 308 292 320 332 349 339 261 227 231 223 229 227 253 247 243 241 225 225 211 227 255 269 280 290 280 282 280 302 288 
89 85 95 87 95 105 109 113 91 101 101 113 117 115 113 119 103 111 111 99 111 109 97 103 119 121 133 209 373 408 365 396 474 501 503 487 427 334 296 300 296 316 308 257 251 249 239 233 249 292 318 334 343 339 353 373 324 261 251 237 231 239 245 259 247 263 241 229 223 205 221 245 308 302 302 298 280 274 284 271 
83 73 87 95 103 93 79 107 87 97 113 105 109 107 113 125 119 125 125 127 163 159 155 201 191 157 181 255 308 429 421 456 497 489 466 417 347 292 271 286 298 294 271 237 231 247 241 225 209 245 278 294 365 335 306 341 306 267 269 269 249 263 241 253 239 219 195 161 159 189 213 276 310 308 306 284 278 278 269 251 
67 73 91 85 97 113 99 103 87 89 83 115 97 105 109 125 109 119 131 215 278 326 371 444 446 408 394 433 365 412 435 472 464 437 369 312 316 302 288 302 304 292 241 247 239 243 219 213 209 215 267 257 294 288 257 284 286 292 312 326 308 255 185 173 147 139 157 175 177 237 294 343 320 318 300 282 276 247 221 181 
83 85 79 81 85 87 103 105 91 93 93 113 99 97 91 103 107 117 169 276 365 423 474 503 501 499 470 444 427 390 400 417 431 382 324 306 316 322 310 300 298 282 259 263 239 247 229 189 187 201 267 259 259 243 235 255 280 296 332 359 341 345 286 211 171 161 173 199 249 335 343 359 320 280 284 278 249 217 175 169 
65 91 85 79 67 103 89 97 81 91 99 103 97 85 105 103 111 117 215 286 437 412 487 468 452 470 468 433 404 369 369 394 400 371 314 304 320 337 326 314 306 294 263 263 235 241 205 207 181 185 221 263 239 229 227 237 265 284 334 345 332 347 361 341 306 292 290 296 335 345 345 339 314 288 282 231 199 145 151 157 
73 79 85 79 91 87 85 93 85 89 95 83 79 91 93 109 103 123 235 282 433 443 435 433 400 427 419 392 384 367 353 357 345 334 320 326 320 322 326 324 290 292 269 267 239 227 211 195 179 179 179 231 229 229 233 227 271 292 322 328 322 330 355 371 367 381 363 349 349 334 324 314 302 272 233 175 149 129 147 141 
87 79 83 91 79 99 87 105 89 93 91 85 107 113 105 97 101 129 243 290 359 429 456 474 479 472 425 359 361 347 375 425 431 425 433 412 334 296 304 306 284 282 271 267 247 239 221 199 195 199 181 217 247 247 241 231 294 304 363 347 363 347 345 361 386 388 406 373 367 332 316 302 272 235 183 161 155 149 149 141 
89 75 103 83 91 73 101 99 85 93 97 83 93 103 107 105 111 115 183 300 300 400 437 481 485 410 257 239 263 282 367 472 474 462 485 470 353 286 290 304 288 290 298 286 263 263 245 213 209 201 173 209 249 253 237 278 324 335 373 371 367 361 355 363 349 353 373 357 326 296 282 271 229 181 153 141 149 147 151 137 
83 75 77 67 79 87 89 97 95 99 87 91 95 95 113 119 107 125 141 201 239 271 235 237 225 165 151 145 163 201 292 439 479 487 468 466 431 326 296 296 286 286 337 369 363 359 369 363 341 312 269 229 278 284 282 292 345 335 355 359 359 367 347 373 359 359 361 343 310 276 259 229 183 165 151 141 145 149 157 157 
79 111 85 81 77 95 97 87 105 85 97 109 101 107 117 99 107 111 121 127 127 137 119 123 139 135 141 143 163 173 189 373 408 429 433 460 437 384 335 337 326 363 351 347 337 371 384 365 379 379 353 288 288 306 324 335 312 326 322 326 322 328 355 355 361 359 375 357 294 253 215 187 171 167 151 149 147 155 153 149 
77 79 79 91 87 93 87 109 97 89 103 101 95 95 113 115 107 111 107 117 107 115 95 107 129 135 127 145 137 153 155 235 320 326 341 377 353 343 345 361 345 355 365 355 213 221 229 229 217 227 211 223 207 181 189 227 263 286 249 195 203 203 229 251 269 306 332 320 269 213 183 173 169 173 153 159 151 159 177 155 
73 81 97 91 85 89 87 109 89 83 99 85 99 117 103 119 121 115 103 105 107 105 105 121 129 127 111 141 137 151 141 163 187 205 217 259 280 306 314 351 347 357 335 363 237 203 207 197 209 203 191 177 173 161 147 149 137 139 137 127 137 137 153 163 161 173 197 201 189 179 177 173 169 143 159 149 151 155 175 157 
79 81 85 77 91 83 89 101 87 83 97 97 105 99 103 101 97 111 113 115 107 105 89 117 131 113 119 125 131 145 131 147 177 213 241 288 316 312 308 328 328 322 312 249 183 177 187 191 199 195 175 177 173 147 131 129 131 117 115 113 117 113 137 143 159 159 181 173 159 177 169 169 165 145 143 147 159 171 165 159 
91 73 89 93 85 91 89 105 89 93 97 105 103 95 101 109 105 111 99 91 101 111 85 113 117 117 109 129 141 147 141 179 247 300 271 272 294 322 284 272 294 247 199 169 159 171 179 173 177 181 175 161 169 155 137 143 113 113 115 139 119 125 125 139 163 151 161 165 163 181 157 171 171 147 163 151 153 157 173 151 
75 69 85 71 89 107 75 91 97 99 91 115 99 117 99 113 105 113 103 103 109 103 99 95 117 127 119 125 135 157 173 253 255 191 151 107 137 229 235 223 171 135 131 129 151 173 185 175 187 219 209 187 175 165 145 137 147 153 183 185 173 167 133 117 111 101 123 121 145 171 167 169 177 161 141 159 171 155 171 153 
91 75 91 95 93 103 109 107 99 97 99 105 105 119 105 101 111 107 107 101 93 107 95 105 119 113 117 131 135 149 227 322 271 263 239 209 193 157 133 131 151 123 123 123 159 197 213 219 219 205 217 161 171 167 155 159 223 233 237 259 251 253 193 151 111 109 107 101 149 171 173 181 181 167 147 153 163 159 167 165 
73 77 83 75 77 83 95 85 93 99 103 111 105 107 109 119 115 115 97 107 105 105 103 109 101 105 105 127 137 159 271 320 247 269 290 267 243 157 61 79 111 113 115 129 141 177 201 199 233 187 153 157 161 161 161 169 207 233 237 249 243 237 217 171 157 149 153 97 129 171 175 185 173 163 161 157 167 171 165 155 
63 67 95 79 67 81 87 99 99 93 87 101 103 105 105 111 109 111 105 97 97 93 91 113 127 117 109 125 133 157 267 296 300 324 423 406 265 135 35 71 109 75 57 63 89 125 149 177 191 177 123 175 157 161 153 161 189 213 207 217 217 231 211 199 183 185 181 155 153 173 193 195 213 239 219 187 167 155 165 177 
77 81 91 75 87 77 83 95 91 71 83 95 85 107 91 91 101 107 97 95 101 97 99 107 123 127 105 119 135 159 259 292 316 337 431 454 381 149 31 73 83 53 45 59 67 91 123 145 181 165 143 189 153 165 185 213 261 271 241 231 219 197 223 207 201 195 195 191 203 235 235 259 261 298 330 298 274 221 183 189 
63 87 77 77 71 85 81 97 89 87 95 95 79 97 99 105 101 97 87 97 117 141 173 201 237 322 276 189 161 197 276 253 292 320 425 439 433 290 4 19 55 61 77 89 85 91 127 147 169 167 189 169 153 191 175 231 245 241 255 271 251 241 229 219 223 211 245 257 239 253 269 261 269 314 332 324 328 316 294 229 
69 75 87 87 79 75 77 95 101 95 101 91 83 91 91 93 95 107 103 105 181 247 239 312 433 477 474 423 369 337 296 261 298 310 357 439 446 359 123 15 0 55 91 97 93 91 105 125 153 173 195 147 121 189 197 241 249 205 199 171 187 189 215 263 265 269 282 271 294 267 239 259 241 280 292 316 332 330 320 302 
73 77 75 75 79 87 81 93 99 91 97 87 101 93 99 97 109 99 99 145 245 326 310 398 474 462 483 472 390 388 324 267 308 324 261 330 419 388 243 37 51 43 93 115 111 97 91 111 149 193 189 143 159 209 221 235 227 197 189 221 251 231 245 261 282 267 241 263 300 276 247 235 247 255 253 288 284 322 328 296 
67 79 71 77 83 85 85 101 95 85 93 105 95 105 107 101 95 109 101 149 239 326 396 466 479 437 419 448 375 384 337 280 332 308 249 203 292 377 308 157 97 97 89 123 113 103 93 123 139 185 167 199 163 191 207 205 209 209 211 227 237 225 261 263 278 274 267 257 284 288 253 259 259 237 251 267 280 302 316 322 
79 95 77 93 91 85 87 103 91 95 91 103 93 109 105 111 113 113 113 153 259 353 386 477 475 446 446 472 396 390 339 306 347 302 265 225 259 310 292 255 209 109 143 137 93 95 151 139 143 169 189 199 181 163 163 181 247 209 201 223 227 235 261 263 284 261 265 263 271 288 278 269 267 271 269 282 290 314 304 310 
87 85 89 85 87 105 101 95 103 101 99 105 101 109 111 113 111 105 121 165 271 357 334 406 452 475 487 464 390 361 343 318 322 296 278 267 272 280 296 304 265 211 129 135 107 149 167 137 135 155 197 207 189 151 165 203 193 187 197 231 231 251 241 251 253 253 259 269 261 261 274 272 282 274 290 306 308 284 276 259 
73 87 81 93 79 99 91 105 85 85 105 103 109 113 121 113 117 107 125 121 213 267 265 286 324 398 369 280 213 191 272 339 286 282 274 286 296 304 282 306 296 276 227 169 145 219 189 173 159 143 197 181 141 157 183 181 175 173 219 227 241 251 247 257 245 231 227 267 243 271 251 271 247 269 265 263 235 205 187 183 
65 69 83 93 75 95 91 89 95 105 101 103 115 101 103 109 125 117 107 111 131 135 143 171 183 167 147 135 137 163 207 316 267 251 261 304 310 318 300 286 298 314 310 269 211 247 229 199 201 147 177 155 147 167 151 181 205 179 201 211 215 231 249 239 241 221 227 209 193 197 227 211 197 189 185 171 157 141 149 151 
77 73 89 91 81 89 97 89 93 99 95 105 103 97 97 117 103 99 107 105 109 113 93 103 121 113 117 121 127 135 161 282 255 215 227 261 282 320 324 298 332 334 330 341 276 272 225 229 237 173 179 181 169 167 177 189 203 177 179 183 197 215 229 225 207 191 173 177 165 195 177 191 171 167 149 135 141 135 151 155 
79 81 79 93 79 91 91 91 105 87 99 107 91 117 111 111 109 107 119 111 93 101 85 105 105 109 117 119 123 145 151 227 280 233 185 189 255 300 314 330 332 347 363 367 300 193 181 207 221 193 175 187 175 171 167 187 203 181 161 187 159 175 163 155 167 171 145 171 167 171 177 183 167 155 137 135 121 133 147 159 
71 79 91 87 83 77 107 105 91 103 103 107 103 121 115 119 115 101 115 101 117 109 105 115 119 125 93 123 123 131 147 193 286 286 249 280 337 334 312 365 341 349 373 379 347 153 119 129 151 175 163 145 159 169 157 157 147 137 141 143 145 103 117 141 131 145 151 159 161 171 171 165 165 155 147 145 153 159 211 165 
87 77 97 97 79 103 93 103 97 109 97 99 83 99 119 105 115 101 113 109 103 97 91 99 99 117 105 123 125 133 137 163 255 324 351 341 371 363 351 373 365 355 359 382 339 157 121 119 147 155 139 143 145 151 137 125 129 103 93 107 97 109 125 129 123 135 139 149 155 169 169 161 147 151 149 151 175 181 185 173 
69 83 85 81 87 97 87 101 101 107 95 111 93 95 107 103 115 107 105 113 111 101 89 103 105 115 113 123 137 183 223 272 312 341 373 361 361 339 349 394 371 339 316 276 163 123 129 129 143 151 147 139 141 151 143 133 133 113 95 99 91 99 103 121 125 137 147 143 149 155 143 151 139 151 163 165 165 179 193 169 
67 77 75 83 77 83 85 91 91 91 97 101 89 97 113 115 105 103 105 81 99 107 87 87 97 109 117 131 167 302 304 312 334 337 324 359 367 373 381 431 402 371 335 247 165 127 115 121 145 149 141 129 127 129 121 123 117 87 85 101 83 81 101 111 111 119 139 149 139 137 141 139 129 143 147 155 171 183 183 183 
71 85 97 81 81 97 89 99 89 91 97 103 93 99 99 121 99 117 127 101 99 101 99 95 107 109 101 133 263 339 312 290 312 339 367 375 359 371 382 429 402 386 398 404 308 179 127 113 119 139 127 121 119 111 95 101 99 83 77 83 83 89 99 105 105 123 131 145 153 139 145 135 137 145 143 157 165 165 197 173 
73 77 77 97 85 83 95 85 83 99 101 113 113 103 93 105 115 159 187 157 127 91 95 95 111 105 121 203 328 359 334 330 296 308 347 377 359 357 369 415 396 375 396 412 404 351 205 137 131 117 117 105 109 121 93 101 95 93 119 103 123 129 127 133 115 117 137 149 141 141 151 135 117 139 139 161 157 165 179 163 
73 85 91 105 93 99 91 101 107 105 101 95 105 125 109 133 213 353 379 363 335 286 215 129 115 123 151 271 310 345 312 308 292 271 294 322 351 359 369 394 406 402 400 408 417 408 367 247 175 173 151 161 179 173 205 175 167 177 183 169 171 163 155 135 141 135 143 137 131 141 143 131 131 141 147 149 165 167 171 179 
75 95 97 91 95 103 105 107 107 103 101 99 115 105 129 225 359 413 421 458 497 456 429 335 185 161 227 328 320 326 304 298 276 261 272 280 267 257 265 310 355 369 390 410 406 417 406 359 272 211 201 199 223 213 205 193 195 191 185 185 195 187 167 149 151 127 129 161 165 153 165 155 163 151 155 165 181 173 191 175 
77 89 95 95 93 99 107 113 109 101 105 109 123 121 155 249 404 425 472 510 491 464 427 456 404 337 359 347 347 308 310 296 267 271 302 257 201 149 161 235 296 298 351 384 382 394 402 386 343 282 249 229 213 203 207 197 219 223 217 209 227 205 195 161 137 119 127 169 185 193 225 247 276 296 284 286 259 227 219 201 
75 93 101 71 93 97 97 107 97 111 105 113 109 125 155 280 392 408 475 505 472 413 388 400 379 433 421 365 355 334 286 282 265 272 261 167 123 105 131 191 241 251 280 318 355 384 375 379 365 322 269 251 245 217 221 201 221 225 221 233 227 215 203 171 153 135 157 195 193 221 237 298 322 335 349 345 349 310 312 302 
83 97 85 91 93 97 97 107 111 101 113 117 109 119 141 255 375 396 448 506 462 431 402 404 377 444 415 357 339 322 292 276 265 235 209 101 81 89 117 167 219 243 265 286 288 353 375 365 359 359 292 274 235 233 203 201 213 227 219 235 231 239 215 175 167 147 157 171 149 171 235 272 300 324 337 359 349 341 332 326 
75 87 99 93 91 81 103 105 111 113 107 115 113 115 133 191 345 386 446 495 446 452 454 462 406 429 394 306 298 296 263 241 215 215 177 81 55 63 149 177 217 229 263 272 269 310 351 339 343 337 304 286 272 237 227 215 221 207 215 231 205 227 203 213 187 173 167 155 155 145 207 249 267 300 326 353 351 345 349 324 
69 91 103 89 93 83 97 103 101 103 101 95 115 105 123 131 187 272 337 439 446 435 406 417 425 417 355 267 274 271 233 215 203 153 117 51 17 83 169 213 191 233 239 267 263 267 300 312 316 343 330 294 269 261 249 243 235 229 225 221 225 221 215 207 195 213 201 161 147 175 203 217 249 271 326 334 332 343 357 318 
73 87 99 89 103 107 99 103 103 95 95 95 109 101 109 111 127 147 155 191 253 263 207 209 239 388 316 274 280 247 191 195 169 145 91 29 25 145 201 219 213 235 235 253 271 274 284 290 271 316 318 328 290 276 257 259 237 241 231 225 233 245 241 225 209 235 247 225 199 181 197 203 213 231 271 267 274 292 292 253 
71 79 93 89 93 99 103 119 99 105 113 117 125 117 127 123 117 113 125 115 137 117 125 119 143 278 302 300 290 261 201 185 155 135 77 25 33 137 213 227 223 215 229 269 267 269 259 267 255 288 306 332 332 302 286 290 255 261 239 237 235 221 223 215 199 189 207 211 173 161 171 159 143 161 149 171 185 169 191 187 
83 95 93 91 77 111 91 109 87 107 107 117 101 115 121 109 127 111 113 107 113 101 111 99 131 219 300 308 280 259 223 197 171 115 57 31 35 111 205 219 223 201 217 239 249 257 243 239 247 280 312 335 334 345 339 345 284 284 249 249 205 183 173 149 159 141 149 159 141 151 147 141 137 137 155 165 157 149 179 177 
91 79 87 103 105 99 89 109 97 105 87 109 91 115 111 117 117 111 105 99 95 105 71 109 95 181 306 300 271 255 225 217 185 135 67 35 65 119 199 209 207 217 205 203 219 235 227 205 241 271 320 328 347 400 377 355 306 282 267 263 227 229 235 241 205 191 181 175 165 149 135 137 135 141 149 149 145 149 175 183 
71 81 71 71 89 81 85 91 95 89 89 109 101 123 103 101 121 107 103 91 99 83 79 79 99 147 292 302 284 243 233 243 229 153 81 57 81 123 195 239 237 207 209 213 221 233 229 217 241 265 345 355 369 406 415 396 318 276 239 231 225 249 235 243 235 231 239 203 179 179 169 159 173 175 193 187 175 165 179 193 
65 59 91 81 91 83 89 89 83 95 91 101 97 99 95 101 101 93 111 91 93 87 73 77 87 133 308 326 308 263 207 203 235 199 113 69 67 83 197 221 225 211 209 227 199 227 237 239 233 278 355 357 394 415 427 415 349 272 237 223 241 231 215 231 221 215 221 197 175 161 157 195 229 245 251 288 286 265 237 205 
59 57 75 83 81 91 79 85 69 93 91 97 85 93 111 107 99 89 99 73 83 69 61 73 95 121 259 308 286 276 233 217 229 233 205 191 193 207 211 245 239 217 231 229 221 245 282 274 288 298 310 314 343 392 413 365 304 255 225 223 229 215 189 209 199 179 223 155 113 117 147 171 217 259 280 312 322 328 335 300 
63 63 61 73 77 79 69 67 61 73 85 85 89 93 99 107 81 87 79 83 79 71 51 61 79 85 165 265 280 284 269 269 269 276 282 272 310 343 328 312 276 278 300 302 306 328 324 320 308 292 280 263 298 314 306 278 255 229 219 207 199 171 177 191 173 187 199 113 97 93 159 193 211 269 300 314 335 351 361 343 
71 73 75 59 63 85 73 85 77 83 73 77 91 95 99 95 81 99 85 75 65 83 49 71 71 55 71 151 247 288 272 280 269 271 282 274 310 349 353 353 341 334 339 361 359 361 341 318 294 276 251 231 257 265 272 271 245 233 215 203 197 189 171 189 209 201 193 117 103 95 161 197 255 294 314 322 332 343 353 357 


