P2
80 60
498
54 80 84 68 78 62 76 58 86 98 88 86 80 82 78 76 94 146 187 223 250 270 195 160 162 282 365 373 384 398 408 402 363 295 252 264 295 319 311 291 272 250 223 201 189 189 187 178 162 168 195 207 201 211 219 229 262 286 301 258 262 237 242 252 237 227 207 185 158 138 134 118 134 98 102 106 100 92 118 82 
66 74 68 84 60 78 74 76 64 82 80 96 70 72 80 106 134 258 330 402 481 458 441 388 404 433 462 392 344 373 377 353 309 266 264 286 284 324 330 288 254 246 225 197 197 181 178 158 156 144 195 203 201 199 203 211 262 276 280 239 221 162 166 150 112 140 128 116 100 96 82 78 72 52 58 50 46 50 50 66 
60 68 76 68 74 68 60 68 64 78 72 64 60 66 80 106 209 307 435 489 487 498 487 469 471 489 498 398 320 320 291 272 268 264 268 264 295 317 330 288 262 248 217 183 199 185 181 166 148 162 178 187 179 201 195 203 264 260 172 112 102 60 72 80 84 92 84 100 86 78 68 56 68 36 38 22 34 40 54 48 
58 58 70 70 50 60 78 82 78 72 76 78 68 52 88 106 241 355 444 485 494 475 477 460 475 485 483 384 346 317 305 286 268 270 270 276 288 313 309 301 282 258 229 199 201 193 166 160 146 152 164 195 191 187 207 223 264 250 128 90 82 72 70 94 88 90 96 82 94 84 90 68 70 36 42 52 62 42 42 66 
62 62 70 68 74 68 72 82 82 64 84 78 78 66 90 132 235 421 421 469 471 437 433 446 444 450 490 375 338 346 353 365 346 307 284 289 303 338 332 313 303 276 242 205 193 189 179 168 148 148 160 211 203 219 221 215 258 282 225 124 86 104 76 102 70 82 78 74 82 92 104 92 88 50 48 66 70 54 70 54 
62 56 82 68 70 54 72 64 64 84 92 82 80 92 90 122 219 400 439 458 435 431 419 452 350 307 382 348 369 408 429 417 396 353 307 291 293 322 320 313 322 309 250 231 201 197 183 187 154 146 166 213 221 235 223 215 250 270 242 213 174 126 110 90 90 108 112 104 86 96 98 112 104 78 74 112 104 122 102 162 
42 58 76 54 76 66 70 86 82 62 82 86 70 76 94 106 181 357 423 406 439 458 417 340 185 150 282 357 357 415 413 419 398 381 322 289 303 315 320 305 326 344 291 258 223 199 205 205 166 136 164 219 237 237 235 215 268 303 295 242 256 217 172 118 126 112 102 124 132 128 126 144 140 148 142 170 158 164 179 172 
52 56 60 64 86 88 64 74 72 90 72 78 80 88 80 100 108 174 256 282 239 176 152 124 106 144 324 363 355 417 412 412 408 371 322 282 305 315 315 319 317 328 305 256 225 225 217 219 187 160 185 227 244 244 229 239 284 320 324 324 303 289 278 229 219 187 150 168 195 237 248 219 199 178 174 179 164 144 197 181 
54 70 70 70 68 80 70 84 78 74 72 82 80 82 94 80 86 96 122 102 84 72 78 70 88 183 359 388 377 365 350 379 400 375 344 317 315 307 305 293 291 293 252 213 207 241 225 219 213 179 197 231 239 242 231 237 282 320 315 322 311 291 315 317 301 297 276 276 272 233 254 223 213 183 166 166 176 178 195 189 
54 54 78 68 58 72 70 60 66 84 88 80 92 76 78 84 72 82 84 60 82 70 80 74 106 144 309 357 330 297 328 363 369 398 392 382 406 382 324 250 209 166 116 84 90 122 156 162 185 183 178 233 246 229 209 217 225 268 295 291 295 305 303 315 284 286 258 262 264 223 227 233 201 191 148 179 172 170 162 152 
54 42 68 66 78 72 70 64 82 78 68 78 82 66 68 92 82 62 78 78 64 86 82 94 90 112 221 278 183 246 328 330 342 379 406 392 412 408 410 377 289 140 94 74 68 90 108 112 126 134 140 170 191 191 205 191 197 256 268 254 297 309 301 317 303 286 246 237 215 203 217 213 225 172 158 160 140 130 110 48 
54 56 92 66 68 74 90 68 80 74 84 76 66 76 88 88 80 62 76 72 72 76 66 70 90 118 166 118 98 122 201 266 317 319 348 402 454 469 441 425 402 288 98 86 70 94 96 108 110 90 96 90 94 88 144 154 191 229 229 258 266 262 278 301 268 270 242 219 195 197 183 209 170 122 116 136 104 74 74 70 
56 66 88 68 84 84 66 88 76 74 72 86 74 94 68 82 66 84 64 60 68 62 64 74 74 80 84 62 64 92 106 100 126 191 217 291 373 454 443 423 396 309 152 96 88 102 112 102 100 98 106 92 68 52 70 74 90 132 172 174 195 207 223 252 233 237 209 179 172 152 146 136 124 92 74 82 56 66 70 36 
56 70 82 78 52 78 80 70 78 88 74 76 66 72 80 68 82 70 62 92 68 70 60 78 64 62 72 64 72 88 100 102 130 136 152 172 189 274 346 319 266 211 156 134 114 114 118 108 110 110 106 102 66 76 74 66 70 74 88 90 106 124 150 179 164 187 162 134 138 126 114 114 108 86 76 70 68 60 72 84 
60 58 84 78 68 68 80 58 66 72 74 58 58 66 68 70 76 64 64 70 56 70 72 78 64 60 62 50 70 78 96 106 136 158 174 189 172 191 178 164 164 158 126 126 128 128 130 126 114 116 108 118 94 72 62 58 62 78 64 90 98 72 102 110 116 130 128 114 132 136 114 114 104 90 76 82 74 58 78 70 
66 80 72 58 58 70 70 64 72 78 68 58 64 62 54 66 58 72 76 64 64 68 68 60 70 64 56 70 74 92 96 100 136 174 197 181 181 172 168 146 152 148 148 144 148 130 142 134 152 124 112 118 92 82 74 64 74 80 76 78 84 84 94 98 102 130 110 120 132 112 118 116 98 86 66 62 64 62 66 56 
64 72 88 60 76 60 72 58 72 82 70 82 68 70 76 72 68 68 58 70 66 66 60 86 74 66 78 78 96 96 86 120 148 166 193 201 178 199 213 191 256 289 289 270 215 178 156 160 132 130 112 124 108 78 78 66 72 80 84 82 90 84 106 114 92 108 120 110 124 118 112 108 118 74 68 72 60 60 72 62 
56 66 62 62 66 66 70 64 66 90 60 62 74 70 68 74 78 82 74 80 76 68 70 74 84 76 80 82 84 98 108 124 164 221 231 213 221 197 199 181 288 373 357 371 357 272 179 146 152 134 130 112 114 90 86 72 88 80 80 76 92 88 90 102 88 102 118 120 104 122 104 110 92 74 82 74 70 70 78 84 
48 78 92 68 64 68 64 72 70 76 82 80 74 70 90 84 80 76 74 78 70 64 72 82 86 76 86 84 86 106 108 142 205 272 272 201 160 160 195 191 168 309 330 357 361 361 248 148 162 164 124 160 140 122 140 130 128 142 132 134 124 110 92 88 88 98 82 88 94 120 108 106 90 84 68 90 80 78 74 72 
64 60 76 64 62 62 66 72 78 84 76 68 68 70 68 88 54 80 80 70 66 70 72 84 92 74 74 92 90 98 120 205 278 250 219 112 52 38 66 132 168 237 266 252 211 205 170 207 193 213 158 142 142 110 136 152 160 156 152 148 144 130 104 76 84 76 82 80 92 116 126 110 98 92 80 92 84 86 100 106 
54 72 74 74 78 62 58 82 72 62 82 80 74 84 76 70 82 88 76 62 64 84 90 94 90 80 82 92 76 122 144 288 266 219 211 203 211 233 213 183 172 142 160 128 122 170 162 207 191 183 166 136 128 124 102 124 148 156 158 144 130 130 100 80 76 78 68 78 94 128 134 122 130 116 106 102 104 98 120 118 
44 72 74 74 68 68 84 76 72 58 76 72 80 80 74 80 64 76 86 70 70 80 84 80 96 70 84 90 84 116 178 264 231 211 250 266 278 239 233 179 162 98 72 88 132 146 158 178 181 174 152 132 122 116 108 104 136 126 124 126 124 116 94 88 84 80 82 80 132 209 203 187 217 225 235 197 166 162 183 233 
62 74 70 78 66 76 66 70 74 70 72 74 76 68 78 68 62 76 74 66 66 82 72 88 96 90 82 88 92 122 185 239 235 246 278 332 315 229 215 164 140 88 100 100 118 108 130 158 150 168 150 122 128 110 126 136 124 114 102 100 104 96 78 86 88 98 96 92 142 215 209 227 231 258 260 227 217 207 237 215 
58 68 84 66 74 58 64 54 80 74 76 72 72 86 84 78 62 74 70 82 86 78 98 98 108 120 114 90 108 128 211 217 227 258 276 311 241 183 158 138 114 124 110 110 126 108 120 140 174 134 144 140 124 114 106 100 118 118 112 96 102 90 84 94 94 100 86 94 160 217 211 215 217 221 229 235 235 250 250 219 
56 72 80 76 60 58 86 66 78 84 74 80 66 72 68 70 78 74 74 66 94 120 174 189 264 322 297 211 201 231 299 221 237 233 193 158 132 108 120 102 96 112 110 102 122 92 118 142 162 142 124 110 138 136 144 126 128 116 94 90 106 100 112 126 110 116 132 142 207 233 197 213 229 229 239 241 244 241 250 227 
50 68 78 60 84 58 68 58 62 84 74 62 64 68 76 74 80 70 74 84 158 223 254 317 437 466 444 412 396 402 351 241 241 274 181 102 56 16 80 84 62 98 106 94 106 106 80 100 132 166 128 110 144 164 154 134 118 112 106 144 172 166 170 154 122 118 134 132 193 215 207 221 237 223 233 250 262 227 233 205 
44 62 84 60 58 54 76 60 80 62 70 66 84 62 88 76 70 76 80 96 209 289 289 425 479 423 437 412 381 398 369 237 262 303 201 126 82 6 42 62 82 116 108 96 120 128 88 94 120 176 130 108 152 162 148 144 140 126 128 172 160 148 154 146 150 150 158 172 205 215 213 203 207 201 217 237 227 172 158 140 
54 74 74 68 64 60 66 70 74 64 76 68 56 64 76 76 54 72 74 98 223 320 386 481 462 355 351 402 365 400 381 266 293 334 221 150 100 50 70 66 108 134 120 110 128 102 98 140 142 164 142 100 102 120 128 128 124 124 126 178 172 148 174 178 183 191 229 268 256 233 213 217 203 195 213 213 156 102 90 82 
46 74 76 72 72 70 64 64 82 84 68 76 66 68 76 74 66 64 70 92 227 340 408 473 473 396 384 417 353 373 367 258 289 326 209 168 138 112 126 96 136 140 142 134 116 108 140 156 166 191 152 122 112 90 104 112 102 130 128 146 164 166 191 174 195 221 246 295 284 256 241 219 213 191 195 138 80 80 68 60 
44 58 68 64 76 60 64 56 82 62 72 62 58 56 72 58 56 66 66 76 170 322 305 373 456 452 439 379 307 313 311 268 262 278 237 227 207 191 185 142 136 114 152 122 126 124 144 136 166 217 146 136 118 94 56 122 120 136 156 160 164 172 158 181 193 203 231 262 291 254 229 231 199 156 96 80 76 56 56 52 
46 60 68 60 60 48 70 62 62 70 70 64 54 64 70 60 66 64 68 68 126 185 187 207 284 317 256 168 122 128 207 250 221 223 256 250 246 260 217 162 146 84 122 114 144 126 136 140 132 231 168 128 128 98 82 104 126 140 148 146 154 144 168 170 209 215 215 246 270 248 217 199 154 92 54 54 66 52 56 54 
44 64 66 72 66 64 56 68 70 76 72 68 56 62 72 70 68 82 78 78 74 88 100 102 114 82 86 74 86 108 168 233 229 187 217 250 250 225 209 176 140 98 124 148 126 138 136 156 174 191 199 144 142 106 128 112 108 130 148 136 156 170 174 164 185 201 205 219 239 209 170 138 104 70 56 66 56 42 54 70 
42 64 68 74 64 60 64 64 68 74 82 68 84 82 78 78 70 82 88 58 62 80 78 68 78 64 72 84 78 98 128 252 270 191 197 223 219 207 185 154 126 138 120 160 154 138 150 158 174 136 197 144 144 118 112 136 114 130 140 132 144 156 168 176 176 183 197 183 174 156 130 118 96 78 68 66 44 44 64 74 
38 66 78 60 60 86 64 70 78 82 84 70 74 78 88 82 82 72 84 66 62 72 74 64 80 66 72 72 84 106 112 219 291 246 154 108 104 132 158 148 130 110 88 102 96 183 282 291 260 237 168 132 122 96 112 112 116 126 140 126 132 148 168 150 136 152 144 136 146 132 132 132 102 66 60 66 58 64 58 54 
44 52 78 74 62 76 62 58 76 76 90 70 86 92 74 76 80 86 88 64 64 58 64 68 68 74 66 76 74 90 108 164 278 256 203 96 8 56 104 98 110 254 221 154 193 332 357 351 334 219 130 96 110 100 94 70 70 88 110 134 124 120 98 94 102 108 110 124 126 132 126 122 112 82 64 58 50 54 62 50 
32 60 78 68 68 60 60 66 86 80 72 68 74 78 80 76 76 78 76 78 64 86 58 76 86 60 74 84 74 86 108 104 187 256 280 256 231 199 146 94 170 359 340 319 309 350 365 351 229 120 120 104 100 106 110 76 82 66 76 80 88 78 82 86 88 104 126 138 130 130 142 112 92 68 62 68 74 38 44 72 
34 60 82 80 62 70 78 64 76 66 76 64 74 74 76 68 68 78 72 64 74 68 80 70 78 72 70 84 90 98 138 142 166 211 284 319 284 225 183 150 307 361 344 342 344 371 324 201 132 106 98 112 102 98 94 94 72 60 66 76 82 86 84 70 96 110 100 110 110 120 116 100 106 78 66 62 50 48 66 52 
46 62 82 68 74 60 64 68 72 78 66 78 70 66 76 74 70 76 72 76 70 76 62 80 88 64 66 98 134 248 311 342 382 388 388 369 369 344 313 286 348 338 330 332 330 278 144 100 88 104 104 104 100 98 92 82 80 76 76 74 68 84 92 84 94 104 104 120 128 120 106 112 94 82 70 58 50 40 54 60 
48 72 76 66 72 76 70 80 68 74 74 70 66 90 74 82 76 72 88 86 60 78 68 72 88 70 78 148 311 371 396 413 433 443 458 427 398 394 382 305 219 179 170 154 142 88 86 100 98 102 98 102 96 96 92 80 64 70 82 68 82 76 88 88 96 114 100 108 108 98 100 108 106 70 78 58 66 68 78 64 
62 80 80 60 62 60 54 64 78 78 70 82 68 76 82 86 74 82 94 72 70 70 80 72 84 80 118 237 340 363 371 388 431 454 473 439 413 398 375 355 264 178 82 68 76 76 80 84 90 92 98 106 102 102 116 100 106 102 108 126 104 126 128 108 104 108 108 98 118 110 114 106 96 82 70 86 102 84 108 86 
44 78 78 80 68 78 60 68 74 66 64 76 70 72 86 86 84 80 84 84 72 88 84 76 80 80 150 289 315 326 346 369 431 448 450 429 402 390 373 344 286 225 134 108 124 114 124 120 132 128 126 148 168 166 158 144 140 154 156 152 140 146 132 120 112 116 106 112 112 106 112 108 118 142 138 120 130 106 120 120 
50 68 72 68 54 52 58 74 74 74 86 66 58 70 86 96 102 140 126 104 92 82 86 74 92 102 195 280 305 303 299 311 388 433 425 400 365 406 371 340 264 266 239 215 221 203 201 201 150 148 154 179 179 183 179 148 168 176 179 185 154 164 144 136 120 108 104 120 114 130 156 181 231 237 258 250 225 215 203 211 
44 66 60 66 64 60 56 60 64 72 70 74 56 78 82 124 244 320 338 313 282 270 158 94 92 142 262 274 288 289 307 272 280 307 332 319 348 410 392 332 282 274 244 266 272 264 242 242 223 187 185 187 183 174 189 187 183 203 193 197 191 179 170 156 134 120 118 122 106 126 183 187 241 256 276 280 264 252 246 221 
48 68 60 68 54 70 60 58 64 64 74 64 70 62 108 223 367 369 406 441 429 429 361 231 183 264 307 303 293 289 295 246 250 268 278 235 319 402 392 334 272 248 242 262 260 270 274 288 264 235 205 187 183 189 183 185 199 203 197 179 201 195 172 179 156 150 122 102 110 98 168 187 193 235 270 282 252 244 252 235 
46 58 76 70 68 70 58 52 66 68 78 68 70 78 150 322 400 394 456 475 417 448 435 415 357 346 309 284 270 272 270 241 246 264 242 203 336 377 390 305 244 244 217 239 252 280 284 289 268 270 223 209 189 191 199 185 187 209 205 189 189 193 183 183 178 162 144 96 110 120 146 168 189 219 266 278 274 254 246 193 
50 62 74 68 70 68 58 64 76 62 74 58 68 78 162 324 369 427 446 441 388 367 353 357 408 357 340 278 256 233 235 235 241 252 189 183 338 369 353 284 229 241 223 229 235 262 272 256 252 250 229 193 181 172 193 191 185 201 187 183 187 178 187 174 174 160 146 126 128 138 136 158 191 191 241 239 231 237 195 132 
48 52 68 72 78 68 74 74 84 78 84 72 80 90 148 299 342 394 460 431 355 344 330 344 382 361 350 219 235 248 246 241 229 181 168 215 338 357 313 227 213 219 235 225 217 233 242 227 223 244 219 174 168 160 168 183 201 199 187 181 197 176 185 174 158 174 138 158 156 134 124 156 136 144 144 166 130 116 116 124 
40 60 62 74 70 70 58 58 78 70 76 72 82 82 110 237 348 371 444 429 384 394 361 351 371 344 303 215 207 231 262 239 225 191 172 266 332 330 244 197 189 205 227 239 215 227 231 203 209 237 217 197 172 158 179 187 199 201 201 201 195 170 183 172 150 148 142 146 134 142 104 108 88 82 86 96 84 70 98 92 
62 66 84 76 74 58 68 72 82 80 68 62 68 80 90 136 227 315 355 365 382 388 386 344 355 328 278 219 201 225 289 276 278 244 203 276 320 291 227 205 195 213 213 223 227 217 213 193 187 229 233 237 215 199 207 209 191 209 207 215 176 166 156 132 116 128 124 130 120 120 110 98 96 58 60 94 74 78 88 100 
58 66 82 70 68 80 74 72 70 68 74 62 76 90 76 86 102 114 134 158 207 178 146 132 217 293 270 242 221 215 270 303 322 313 274 284 286 231 203 187 195 183 199 195 207 215 211 193 181 213 254 286 311 291 256 227 207 189 193 193 164 150 136 142 116 128 130 140 120 118 118 90 90 66 72 76 70 78 90 84 
48 80 84 74 72 64 74 74 70 72 82 64 74 82 86 72 56 86 82 74 74 76 70 82 134 235 262 246 207 209 235 309 361 353 303 289 244 189 170 193 187 185 166 181 203 199 187 199 211 233 286 328 330 324 291 246 203 193 193 181 185 176 178 178 183 181 166 140 112 110 110 108 88 64 80 80 68 58 72 88 
42 56 82 70 78 70 74 72 82 70 66 64 68 82 82 92 66 78 68 62 68 70 56 74 114 252 237 233 199 178 215 303 371 353 313 284 223 172 193 185 189 179 174 176 174 195 219 213 217 256 280 305 305 286 254 213 191 199 189 219 217 215 213 221 203 207 183 156 130 128 112 140 156 146 181 181 160 130 114 102 
40 66 74 68 60 72 70 62 68 82 80 70 74 70 80 90 54 66 70 60 72 66 82 74 142 252 264 211 179 181 201 278 350 330 328 282 270 209 195 199 191 183 168 179 176 195 225 239 233 223 246 272 246 223 207 193 179 193 201 227 211 203 201 193 183 166 176 122 78 78 94 114 170 199 221 223 229 233 223 205 
38 66 74 84 68 62 50 66 64 78 70 64 62 76 68 70 64 50 62 60 68 56 58 74 170 258 235 201 203 229 264 303 359 319 299 293 280 242 199 193 191 193 176 172 183 203 242 227 215 203 217 213 207 181 181 183 199 193 195 191 187 185 164 176 156 138 108 64 46 64 98 130 176 185 233 244 246 264 262 221 
52 82 82 72 72 66 58 68 78 70 72 68 64 70 66 68 70 64 62 60 50 56 48 70 152 223 233 227 242 262 328 346 353 338 315 301 295 264 211 195 215 219 215 207 221 237 260 229 211 187 193 176 187 181 191 185 203 189 181 189 168 170 176 162 140 142 124 52 50 58 102 154 211 221 254 260 274 260 276 239 
44 62 56 58 60 54 70 68 70 64 72 76 50 74 60 68 76 58 56 56 44 52 48 60 112 207 258 237 244 264 307 355 365 342 326 319 289 213 189 199 193 227 217 229 211 235 217 203 170 152 170 158 170 178 181 189 193 168 179 170 164 162 136 146 126 122 122 80 68 70 108 160 217 229 242 237 237 225 225 217 
44 52 60 44 50 54 58 64 54 64 70 54 66 54 60 60 46 58 54 46 32 46 46 50 56 84 160 215 227 239 260 328 350 340 317 252 160 96 80 62 86 128 120 114 110 138 152 124 136 118 132 150 179 176 172 166 172 176 176 178 148 138 122 120 118 118 88 76 62 66 88 120 174 189 201 181 174 158 158 126 
20 52 58 50 38 56 66 54 56 70 72 50 54 58 62 70 68 48 52 36 32 34 38 34 38 46 46 56 84 118 118 162 229 225 152 90 58 68 36 24 36 24 26 50 36 40 54 70 88 102 94 122 150 174 176 170 160 170 156 144 124 112 104 114 110 94 78 50 66 48 48 52 58 88 92 104 84 86 92 96 
32 60 56 32 36 56 30 28 48 60 44 56 50 54 56 58 36 52 32 38 48 24 30 26 30 16 14 36 22 36 40 50 68 78 62 48 40 30 34 12 18 0 14 20 4 26 42 30 26 40 48 56 68 90 104 104 104 140 128 110 108 92 92 84 66 74 64 46 48 48 30 20 42 44 58 74 66 54 70 86 
42 42 56 32 52 52 22 46 60 48 48 36 54 32 28 54 50 34 38 40 14 30 20 24 32 8 0 20 22 12 22 42 52 56 80 74 62 58 40 26 22 28 26 44 40 52 50 52 38 48 50 34 24 42 34 38 38 62 58 54 50 56 42 52 40 44 38 46 42 26 32 24 44 50 50 88 40 70 78 58 


