P2
80 60
500
67 71 47 63 45 45 63 59 69 69 59 69 65 80 82 80 114 104 154 160 156 170 154 114 102 208 381 367 406 426 412 426 387 357 320 306 304 373 408 424 414 367 296 254 228 218 224 206 186 186 246 254 264 236 256 258 282 304 298 310 328 320 322 324 328 318 290 246 232 228 248 254 248 246 226 238 248 234 264 256 
76 55 41 63 45 47 55 65 61 71 67 73 55 59 76 84 118 216 268 318 389 420 361 280 240 316 473 449 371 381 396 400 398 343 328 328 341 375 402 396 414 349 308 260 238 218 210 190 168 178 244 238 226 222 238 254 288 320 328 332 320 308 314 302 320 320 290 246 242 226 238 244 240 234 224 220 232 236 248 260 
57 55 47 65 63 67 53 67 45 73 69 55 69 71 71 88 190 330 337 412 478 486 480 461 398 422 488 488 361 367 367 353 337 292 298 333 332 414 398 424 418 375 322 276 242 226 202 174 160 170 232 230 230 234 244 272 306 308 312 308 298 294 290 284 296 296 278 242 236 226 218 228 212 228 212 200 202 204 234 236 
45 45 45 53 61 45 61 73 47 63 61 76 65 71 80 86 242 343 395 408 465 490 474 463 438 420 482 484 393 353 308 296 270 284 294 314 365 445 436 443 443 402 375 292 254 224 202 174 166 166 212 224 216 210 242 266 298 306 270 236 210 196 190 180 176 184 166 152 144 134 146 118 122 128 146 122 158 150 168 202 
45 59 51 55 51 65 55 73 67 69 63 59 69 71 80 120 258 339 420 381 424 455 406 377 404 412 457 482 408 367 349 326 335 310 308 349 387 461 449 461 467 416 337 282 246 234 232 206 190 174 214 242 234 230 228 264 296 292 252 214 186 146 150 142 142 148 136 130 144 122 128 106 106 104 88 82 88 82 114 126 
57 61 63 57 59 53 65 57 53 76 67 82 73 92 86 106 234 310 434 459 406 422 414 383 410 385 371 387 379 396 391 389 349 310 306 294 365 418 442 467 442 389 324 272 244 242 228 218 182 176 204 252 234 232 252 286 296 318 312 312 288 234 202 172 162 152 142 148 150 128 132 122 104 100 88 84 96 92 116 122 
53 65 61 57 51 69 65 67 73 73 55 78 82 71 88 102 184 318 395 420 440 428 440 418 324 210 214 252 379 410 416 414 396 357 326 310 314 377 345 373 381 349 314 270 250 248 230 210 188 184 198 264 254 252 276 298 314 347 351 357 359 337 314 290 262 224 172 142 162 144 130 110 86 116 110 88 100 88 104 112 
49 51 57 63 59 47 63 82 55 86 59 69 90 86 82 88 118 212 278 351 328 260 256 182 94 116 116 184 335 389 393 398 389 349 316 282 294 292 304 314 341 347 312 292 264 248 238 226 206 192 224 290 282 288 286 322 332 361 367 385 393 379 375 330 345 333 296 240 210 162 152 128 126 122 124 108 98 102 104 130 
57 57 63 61 57 65 76 69 69 63 71 71 90 65 84 82 106 100 122 144 118 86 80 84 73 100 106 134 339 375 355 351 337 343 333 306 302 298 290 286 310 332 330 298 290 282 270 238 220 220 240 318 326 322 290 318 306 326 335 349 361 345 363 357 361 339 310 288 286 248 226 212 178 170 148 118 124 112 114 126 
53 55 63 71 57 73 76 76 69 76 71 86 82 69 84 78 82 84 78 76 82 63 69 92 82 96 94 128 304 367 328 282 240 260 282 292 322 339 335 355 373 379 371 324 322 324 361 332 278 276 300 387 402 389 371 391 332 316 304 314 332 339 359 337 339 343 322 302 292 260 256 270 270 250 228 220 204 166 172 172 
39 55 57 69 65 63 61 78 57 76 69 82 73 71 92 78 80 94 84 80 65 73 78 80 78 104 104 128 186 296 314 294 258 232 284 306 420 453 449 482 500 486 467 430 436 459 463 453 387 375 369 400 428 422 443 457 428 345 288 324 312 320 310 304 308 304 294 286 270 216 230 260 268 272 278 250 254 242 238 238 
59 51 67 57 59 71 57 67 57 71 55 78 67 71 71 78 80 76 65 61 80 82 69 88 82 108 92 100 130 150 238 304 308 262 266 292 430 478 447 465 498 486 471 463 478 478 461 469 445 428 412 418 418 414 418 428 404 316 272 296 288 266 274 278 266 250 240 250 224 210 212 210 244 276 268 244 268 250 230 242 
73 65 47 59 65 73 63 63 57 76 53 76 78 78 59 67 73 78 71 61 73 61 65 80 63 82 92 90 106 96 106 164 210 230 244 260 326 326 308 353 400 436 428 442 443 440 418 408 363 349 339 308 314 357 369 367 274 172 168 180 194 204 220 226 216 210 206 202 212 226 212 220 230 242 270 262 258 252 250 250 
49 78 65 63 55 67 61 73 69 71 63 63 69 76 71 71 69 69 71 71 65 65 71 78 67 76 73 94 98 94 90 114 138 150 186 218 230 226 218 256 260 264 274 304 278 240 232 226 202 176 184 160 146 150 180 162 126 112 122 132 138 140 160 144 152 164 182 174 202 194 186 188 200 222 226 220 234 226 252 250 
63 57 57 59 71 71 73 73 69 69 67 57 80 65 67 65 61 80 76 65 61 59 73 86 59 80 78 82 90 96 92 106 138 182 238 268 256 242 226 244 244 240 230 238 216 192 190 200 196 192 174 150 130 118 118 112 112 118 126 136 152 156 148 152 156 160 162 166 182 178 162 148 142 144 156 138 160 174 188 196 
55 59 59 76 47 61 71 55 61 67 67 63 73 73 69 59 65 78 71 78 61 63 71 73 73 92 84 92 92 90 98 128 154 190 234 258 240 228 206 202 212 200 208 198 210 216 226 218 214 198 192 166 124 116 124 116 132 120 132 130 156 142 160 156 164 178 178 174 182 164 150 150 146 144 130 116 120 114 128 144 
67 55 69 59 57 51 80 59 63 65 65 67 80 65 67 73 84 71 78 67 76 61 71 86 92 92 94 110 108 84 98 116 158 182 212 236 232 222 216 246 286 314 312 264 222 230 232 212 210 196 174 166 140 120 116 128 118 128 132 146 150 154 164 162 160 170 172 174 166 158 150 146 138 132 112 108 118 122 144 146 
49 59 65 65 51 51 65 57 71 73 57 67 78 78 84 69 86 80 86 88 84 78 76 86 94 92 98 104 112 96 98 108 142 196 218 238 244 242 254 361 418 436 420 396 254 220 218 220 226 200 186 158 146 124 130 120 140 122 126 130 146 152 152 156 164 170 180 172 182 166 150 134 138 138 120 116 128 124 130 146 
67 80 73 63 61 57 71 80 80 78 78 80 78 73 80 82 78 82 86 86 76 84 82 78 92 94 92 98 124 102 98 126 156 178 218 234 232 204 210 377 447 455 422 391 238 214 222 220 218 202 196 190 162 146 130 132 134 126 124 144 148 158 160 160 182 176 172 164 160 156 152 136 128 144 128 128 132 126 132 150 
61 71 65 69 76 51 69 92 76 65 92 76 76 67 84 86 69 82 86 90 80 69 84 90 90 104 90 102 100 90 102 130 174 228 272 248 256 260 232 328 424 430 402 320 212 210 220 206 198 220 234 222 194 160 154 170 180 156 170 158 168 184 184 152 180 182 166 158 166 158 146 130 138 144 126 112 124 130 130 142 
49 71 88 76 57 63 67 76 76 71 69 69 96 84 67 84 90 94 76 76 80 92 96 96 88 94 90 108 116 100 114 164 204 218 214 170 126 154 228 357 400 408 371 234 210 196 224 210 214 230 248 252 242 228 210 234 264 206 202 200 194 220 220 226 228 222 198 186 166 158 154 138 136 126 132 122 136 124 140 148 
55 84 86 71 69 63 76 78 73 76 63 65 86 82 78 82 63 69 80 92 84 80 78 92 102 102 108 110 116 100 134 224 216 204 206 170 122 118 224 341 369 381 292 184 178 186 208 238 238 222 238 252 290 292 330 268 250 228 224 206 216 238 254 246 276 296 272 224 182 150 160 138 130 144 126 138 130 130 146 148 
57 82 80 80 61 76 71 80 80 76 78 71 90 84 76 80 88 82 73 80 88 90 73 102 102 102 90 114 118 110 172 260 206 204 210 218 214 244 330 339 349 296 176 156 162 162 188 204 224 202 210 256 300 286 328 288 240 238 222 228 244 270 266 254 304 312 276 242 212 180 156 142 142 128 138 124 134 142 142 138 
80 92 84 65 73 78 57 78 78 94 82 80 82 92 82 88 82 86 78 98 88 82 90 92 92 110 100 102 124 116 180 232 234 242 357 359 314 345 335 296 200 130 71 134 162 150 170 196 200 194 166 222 244 238 290 262 248 232 240 242 260 298 298 306 316 308 280 252 216 186 178 162 164 168 134 148 140 142 152 152 
61 69 88 84 63 69 71 84 94 88 76 76 88 88 94 78 90 78 78 90 78 82 98 98 100 114 108 108 126 118 172 202 250 316 420 422 385 379 254 96 82 55 78 110 122 142 168 164 198 184 144 196 234 226 236 236 232 226 244 258 272 302 328 322 330 314 266 254 252 260 294 308 280 230 154 134 152 152 154 156 
78 71 69 67 71 73 82 80 82 88 82 67 82 76 84 80 84 90 82 86 96 76 110 104 120 176 164 156 156 150 196 224 300 404 396 414 395 310 110 92 94 86 108 122 132 158 174 150 176 196 156 196 210 228 224 216 234 228 222 230 238 272 322 314 314 282 252 256 314 383 410 400 396 349 202 142 142 154 152 158 
55 63 76 59 51 73 78 69 65 76 63 71 78 84 80 71 78 82 73 80 112 130 142 106 200 341 395 408 387 324 288 250 363 395 389 420 300 71 35 102 73 96 108 130 132 132 178 170 150 196 146 176 194 210 220 228 216 218 208 208 208 204 262 256 244 236 220 272 337 381 408 402 402 343 234 150 154 152 192 200 
63 80 78 61 76 61 78 82 71 65 80 71 73 76 80 59 63 78 78 104 200 186 140 208 234 345 453 478 453 436 290 302 383 406 426 428 278 108 21 78 80 90 114 118 138 114 162 178 188 184 154 158 188 210 248 238 222 204 196 188 188 180 196 168 164 174 148 188 318 332 326 335 337 304 288 232 240 260 288 284 
61 78 67 53 65 67 76 73 71 73 80 76 67 78 73 76 82 76 82 124 252 316 196 238 306 443 484 449 393 436 332 294 379 420 434 424 343 162 92 39 122 106 128 122 150 130 162 178 198 152 180 176 186 230 226 226 216 198 176 184 186 172 162 142 144 138 126 152 254 290 282 262 256 278 276 272 298 292 296 294 
49 67 69 71 69 69 63 73 71 69 78 67 67 82 69 69 76 84 82 146 252 290 210 194 324 461 490 488 432 463 363 268 345 359 428 426 391 284 138 98 110 128 136 130 158 146 172 188 206 158 190 190 166 192 180 190 184 168 162 142 154 156 134 142 132 126 122 126 240 278 264 274 256 276 292 284 310 282 280 244 
59 49 76 84 78 73 59 71 73 80 78 69 78 65 67 76 84 76 78 140 234 256 248 284 330 387 445 473 490 420 312 232 274 298 396 424 418 369 176 126 104 126 140 138 166 162 186 210 246 182 204 158 176 156 142 150 154 130 130 98 120 118 142 130 138 132 116 120 218 266 264 260 264 274 280 274 274 244 218 164 
47 71 59 82 76 65 71 92 80 78 76 67 82 82 76 84 71 82 80 110 192 258 248 258 280 294 379 398 316 196 212 208 224 256 367 442 430 395 228 128 130 94 114 148 142 144 170 194 240 192 176 148 144 130 130 126 130 122 108 108 112 124 150 140 122 120 112 100 174 248 246 248 252 246 246 226 186 146 152 144 
57 67 65 84 73 67 80 82 67 86 76 78 69 94 88 80 80 84 88 94 132 208 230 206 192 220 214 174 136 122 142 210 210 228 266 371 398 383 302 240 162 118 132 144 164 140 180 182 220 174 184 170 150 114 120 136 136 110 106 140 136 148 156 116 126 104 94 86 138 184 186 170 174 184 154 132 138 114 122 152 
59 84 76 82 73 88 84 84 78 84 78 73 94 88 82 84 94 76 88 80 90 104 124 120 116 112 112 110 124 104 124 198 220 182 200 248 300 369 341 320 294 234 178 156 208 176 164 174 194 176 184 178 164 134 130 146 140 126 136 184 182 160 146 118 108 98 92 90 138 164 168 144 144 144 122 108 116 98 124 146 
53 55 63 78 61 71 71 78 76 71 73 71 86 92 86 86 86 80 82 71 78 73 96 104 92 108 98 86 116 96 112 188 206 148 122 108 116 260 349 361 363 357 328 234 190 184 164 176 196 188 194 176 176 148 160 158 156 152 176 190 200 178 134 118 120 130 132 134 164 162 160 144 138 130 120 108 98 104 130 140 
55 78 84 78 53 80 69 71 82 94 69 71 92 82 80 92 98 94 90 84 88 80 73 104 96 110 96 100 112 96 112 148 202 146 51 0 65 178 272 365 385 395 379 345 194 140 152 170 194 196 186 160 170 152 156 152 162 142 154 168 158 136 146 144 148 144 160 164 164 170 170 140 144 128 102 108 110 104 116 130 
55 55 80 73 59 76 82 82 96 80 71 80 88 76 84 100 88 86 84 90 82 78 86 96 80 100 100 110 136 104 124 130 156 202 180 166 182 222 234 310 414 412 408 383 308 146 128 140 150 166 144 152 136 142 132 126 132 124 122 126 140 142 150 142 152 166 158 148 164 174 148 156 144 128 114 100 100 104 108 126 
59 59 73 82 49 63 82 76 84 76 78 78 84 88 94 84 88 84 82 86 84 88 80 102 98 106 154 228 278 246 244 226 218 182 208 212 206 226 230 308 391 404 410 410 389 226 138 132 144 146 146 134 132 132 122 128 128 124 118 130 126 144 146 136 144 166 148 172 168 150 146 136 142 132 106 106 104 104 126 122 
49 67 61 67 57 55 84 76 69 88 76 78 90 92 80 110 98 76 94 88 88 90 92 110 96 160 268 332 353 310 300 306 320 278 218 176 184 212 198 302 377 408 410 422 357 192 128 138 134 152 148 128 130 138 122 130 122 114 120 134 140 130 142 152 146 162 156 162 166 156 142 130 126 134 122 104 134 124 144 160 
49 71 80 84 51 80 76 76 69 92 78 78 84 73 88 86 100 84 94 98 92 86 90 106 102 170 270 326 377 345 349 381 357 322 256 168 172 166 180 224 242 264 282 276 212 168 158 146 158 148 150 144 140 150 148 148 146 154 134 156 140 136 154 134 144 154 142 148 164 174 178 164 160 162 140 140 164 152 176 170 
51 71 76 71 53 73 78 80 73 88 69 78 80 84 82 80 110 90 84 104 94 84 96 106 102 174 260 328 369 381 381 391 373 324 294 198 210 222 208 224 222 218 196 212 198 174 180 172 164 164 154 144 132 150 150 150 148 148 138 128 138 128 126 118 112 130 144 172 186 214 252 270 268 278 254 230 222 206 196 172 
59 59 63 57 63 61 67 69 76 67 63 78 82 84 88 110 144 170 178 136 108 94 106 112 104 198 296 296 335 361 389 398 391 337 310 254 252 284 250 244 220 176 202 184 200 176 184 178 178 174 174 142 136 146 154 154 140 128 130 142 118 124 114 110 88 108 166 164 176 216 238 260 288 320 296 294 282 284 274 230 
61 80 61 59 67 71 76 73 67 76 65 78 76 82 96 164 228 353 385 347 322 266 184 142 124 214 300 252 260 314 365 395 385 359 337 312 266 276 258 242 234 192 194 192 188 188 188 180 194 186 182 144 138 156 150 144 138 138 134 152 126 120 130 102 98 110 138 156 144 182 226 228 276 308 318 304 298 286 284 254 
51 67 57 86 82 63 82 69 67 73 71 86 84 82 128 224 314 395 404 449 488 434 406 355 248 300 314 274 270 294 332 385 396 379 359 328 288 286 256 246 246 210 194 188 190 192 184 206 202 212 188 162 146 158 160 146 140 130 150 150 140 134 124 120 108 104 130 148 156 182 216 230 280 312 304 292 292 270 276 232 
37 61 67 90 73 71 65 78 73 80 65 61 90 96 178 244 335 353 408 469 467 461 432 412 385 365 324 276 288 266 244 304 404 395 377 332 308 288 250 248 234 216 202 192 190 188 184 186 190 202 198 174 162 156 184 154 160 160 150 156 146 150 134 102 100 114 164 142 160 180 206 220 252 288 280 242 244 210 206 190 
61 86 76 78 78 76 67 69 78 67 71 69 96 96 186 266 335 351 375 461 471 449 410 396 395 395 326 282 290 230 202 204 377 412 381 341 332 292 258 246 236 226 202 208 190 178 176 180 184 194 192 176 176 180 178 166 166 172 164 158 158 160 148 108 114 164 208 188 180 160 174 176 178 168 164 160 168 156 164 170 
73 63 73 80 71 78 76 76 76 76 73 78 88 94 152 254 332 383 426 471 467 428 381 389 369 383 312 268 262 184 164 130 296 420 402 351 328 298 266 248 244 240 216 216 190 188 178 172 176 182 186 174 174 184 178 170 178 180 164 166 164 158 154 128 146 172 184 168 168 148 154 120 122 140 130 126 148 128 150 168 
65 71 78 59 63 78 71 80 69 84 67 76 84 100 118 198 270 320 404 486 459 424 371 357 343 345 304 254 232 186 162 114 176 398 396 353 328 298 270 270 258 244 226 210 198 192 178 186 172 172 166 172 184 184 178 162 178 174 188 166 164 156 144 126 164 166 174 172 182 146 130 120 112 116 122 114 124 122 138 152 
59 65 63 73 61 69 65 80 88 76 73 80 82 96 96 106 144 172 244 371 404 369 282 264 250 304 284 244 210 180 170 140 116 312 383 365 330 300 272 278 266 260 232 226 192 194 184 178 182 194 184 180 174 190 166 156 158 164 170 156 152 138 142 130 170 176 176 168 170 162 146 130 108 112 112 114 108 116 134 140 
65 71 69 92 67 65 82 84 78 76 73 84 80 80 94 78 112 106 118 148 176 124 122 136 140 242 278 268 264 188 156 114 96 232 381 357 349 298 272 272 282 260 244 234 228 200 190 180 194 208 190 196 214 202 182 164 164 170 170 158 158 152 140 134 144 172 178 162 180 158 152 126 104 120 110 102 108 124 132 148 
59 82 78 67 69 63 76 73 69 80 73 67 82 76 78 76 88 100 90 80 92 86 78 92 78 170 254 260 266 240 206 102 92 140 306 347 339 276 228 236 260 244 202 226 234 210 200 182 188 210 230 220 222 206 192 170 178 176 172 176 180 156 154 130 128 158 154 166 164 140 138 116 106 82 104 90 100 92 110 138 
59 55 67 61 76 71 73 76 63 76 63 61 67 65 78 76 78 73 78 84 71 67 73 92 80 138 234 252 284 250 236 218 170 148 268 330 333 276 206 200 224 224 200 206 234 240 194 188 202 234 226 228 204 170 176 174 164 180 180 176 170 168 136 114 102 128 166 178 180 148 168 142 136 130 122 112 120 128 122 162 
57 65 65 61 69 73 88 73 55 84 73 78 92 84 94 78 80 76 71 78 69 71 88 73 76 116 234 258 306 296 290 270 272 236 258 324 333 304 232 200 210 204 202 204 210 210 184 184 186 196 196 172 162 166 164 156 162 170 180 180 168 146 122 98 73 78 146 200 186 196 212 218 214 238 198 178 154 124 142 154 
61 63 65 82 59 59 55 84 61 82 69 80 82 78 82 80 88 59 78 73 73 63 76 67 71 128 216 244 306 322 328 314 316 302 300 322 343 347 252 222 206 200 186 206 200 206 192 188 182 190 176 142 154 138 140 152 148 152 150 170 164 142 136 96 67 82 150 180 160 168 206 232 236 276 260 240 222 182 184 186 
63 63 67 67 55 73 69 65 65 61 69 71 76 76 67 90 84 73 67 63 67 67 76 86 65 100 180 234 266 318 357 349 320 314 314 330 337 347 306 236 228 208 190 208 202 200 206 192 180 176 166 132 136 134 136 138 138 126 124 148 132 126 120 102 94 102 134 128 134 146 162 206 246 258 274 268 268 212 230 238 
39 59 45 41 55 41 53 59 59 49 57 67 76 67 69 71 78 61 53 61 67 53 65 67 61 76 128 232 268 278 355 367 333 310 306 330 347 357 328 202 192 178 170 194 198 184 196 190 190 176 160 138 126 134 120 120 122 120 124 114 126 102 114 102 96 102 98 88 112 130 164 188 252 268 280 292 294 262 266 242 
45 51 65 53 57 51 59 49 59 65 55 61 69 59 57 61 61 53 67 61 45 47 61 59 49 61 71 150 230 242 302 357 357 318 304 302 361 404 363 150 100 106 106 124 132 156 170 178 170 164 178 178 160 152 146 128 122 126 126 100 118 106 108 92 110 118 86 80 108 142 168 202 248 276 268 284 300 260 250 246 
25 37 45 57 49 55 43 47 45 53 55 57 49 69 69 55 63 45 57 51 49 37 37 51 47 49 53 51 84 90 134 228 316 298 218 232 339 389 276 98 73 63 57 84 98 90 112 114 142 154 158 168 160 170 160 166 156 152 134 130 132 128 124 112 106 98 108 82 90 108 148 136 198 218 212 218 218 220 204 210 
17 39 29 53 53 49 45 21 23 45 41 41 55 57 67 61 53 49 49 39 35 37 23 49 39 45 31 53 67 23 57 88 124 114 106 114 230 280 128 65 55 49 78 76 90 78 102 92 86 94 82 104 88 98 106 118 122 144 128 120 128 116 108 94 94 98 88 67 73 65 78 80 88 134 124 132 134 134 146 174 
17 47 45 41 39 47 51 51 51 41 29 43 51 59 59 61 55 57 47 41 27 43 33 55 41 39 37 39 69 39 61 76 92 73 88 78 88 92 59 53 69 67 80 80 94 96 98 112 96 90 86 63 73 43 73 63 59 69 82 94 94 100 84 80 82 80 84 82 84 65 73 57 84 116 134 130 120 120 140 158 


