P2
80 60
606
35 39 33 12 0 23 53 29 45 41 51 49 45 49 55 51 45 71 53 67 61 57 47 51 57 69 61 84 82 77 77 69 63 71 92 88 73 92 98 98 94 92 94 82 84 86 98 96 79 104 130 161 151 159 169 159 151 157 144 132 142 142 157 165 205 295 341 355 408 426 422 414 412 406 420 408 389 412 450 462 
45 37 25 21 35 39 53 23 35 39 39 47 33 47 37 59 51 59 67 45 53 61 59 51 43 65 65 63 69 65 61 69 65 65 82 88 71 79 88 79 88 75 88 77 71 88 73 86 82 96 106 132 153 147 155 149 134 132 118 104 114 120 134 165 317 444 422 385 393 424 438 444 424 410 397 395 387 381 412 426 
8 27 37 25 35 14 41 25 53 47 53 49 47 51 43 55 61 53 49 53 51 69 59 59 67 69 51 79 67 82 73 67 65 63 69 71 69 63 77 84 82 82 84 86 65 82 67 96 86 73 88 124 140 142 153 128 102 102 84 63 94 126 179 333 458 466 432 432 438 434 416 432 426 399 393 379 347 345 341 309 
21 29 21 27 27 23 33 37 53 41 43 67 53 47 37 49 45 53 47 51 49 43 55 51 51 55 65 67 69 53 77 69 63 61 67 57 65 63 82 77 79 82 82 79 86 69 75 98 79 96 88 98 106 92 106 79 79 67 84 75 110 163 303 422 458 466 473 458 448 426 397 369 373 367 361 333 319 337 341 313 
12 29 17 27 23 31 37 41 35 45 61 43 67 69 53 57 43 57 45 39 55 49 53 45 47 67 55 67 55 59 71 59 63 71 67 71 69 73 75 77 71 90 79 67 79 69 86 86 82 90 98 94 92 84 94 82 90 77 69 75 124 189 393 460 442 406 469 495 491 452 424 377 359 359 347 347 327 331 337 329 
19 19 19 21 31 29 29 29 45 39 47 53 47 63 53 39 51 73 57 53 51 47 51 55 51 43 45 71 63 71 61 53 67 45 63 73 79 69 69 92 77 65 88 79 84 92 94 88 84 102 92 120 96 102 108 104 110 122 98 126 134 227 428 442 355 321 420 475 491 487 471 438 422 393 363 353 323 327 341 331 
31 25 17 23 45 41 43 31 49 47 59 29 51 51 43 63 35 37 47 43 57 45 53 57 49 61 49 67 59 69 77 75 69 82 65 71 82 79 86 92 84 75 90 90 90 104 98 104 96 96 112 100 100 112 153 207 249 287 297 373 331 259 416 406 319 335 367 426 467 479 460 444 458 424 412 391 329 323 335 337 
29 29 37 35 49 43 47 45 57 51 45 49 55 59 53 57 47 45 53 59 63 47 65 67 61 75 59 86 75 75 65 82 82 77 94 98 75 96 100 98 88 98 96 96 100 104 114 106 102 108 108 128 130 167 269 399 467 501 503 497 473 418 440 446 460 487 450 416 397 438 426 448 434 426 422 416 353 373 353 343 
14 39 29 29 33 35 47 41 53 49 59 53 65 53 47 43 49 51 53 71 53 69 63 73 53 59 79 88 82 86 79 86 84 65 77 88 90 92 112 102 98 94 110 100 120 98 102 126 114 114 110 130 138 267 355 454 489 526 542 538 530 542 567 576 578 584 561 475 393 371 393 379 353 373 387 381 367 367 381 355 
19 33 45 41 43 37 35 39 57 47 77 88 75 71 59 65 71 65 63 69 67 63 59 75 82 75 71 88 88 88 92 82 94 90 77 92 100 92 118 100 102 98 108 122 122 108 116 106 120 126 122 128 151 239 375 479 511 565 557 571 561 575 576 565 596 596 588 561 520 403 381 359 359 379 369 369 323 319 343 361 
27 29 43 53 61 37 39 47 53 67 57 75 59 61 49 59 59 63 53 59 55 82 69 73 77 77 69 79 82 77 77 90 96 90 98 106 96 92 108 108 110 112 110 110 118 108 108 118 126 114 110 118 169 217 391 520 563 606 600 571 549 551 555 553 571 598 598 569 514 430 367 375 375 416 406 375 357 351 337 327 
33 43 67 43 53 61 55 63 65 73 73 65 55 67 49 71 59 73 75 84 67 67 73 84 75 63 73 96 79 77 79 75 90 77 106 96 110 108 100 98 106 118 122 100 112 112 110 126 118 112 112 142 151 217 319 495 553 567 588 565 549 551 542 534 575 594 590 561 487 438 403 391 401 420 397 371 367 355 375 367 
35 41 31 35 43 61 47 51 59 55 71 69 61 65 65 69 59 61 59 67 67 57 73 55 75 88 73 90 88 82 92 92 100 94 90 100 104 100 110 106 98 104 104 108 108 118 114 122 114 122 124 114 132 225 293 422 544 584 594 555 545 532 514 507 569 592 576 559 404 397 410 385 379 379 383 371 353 355 377 375 
21 41 55 49 59 57 67 65 71 63 69 65 53 79 53 63 69 71 65 79 73 65 88 75 73 86 77 94 94 104 86 94 98 88 100 114 92 110 110 102 116 98 110 106 116 118 106 112 110 116 128 120 114 167 271 353 481 532 542 526 532 518 401 406 509 549 505 408 351 337 371 406 428 416 401 379 383 347 373 373 
27 37 37 45 37 47 57 59 57 55 67 71 71 67 67 67 73 79 63 65 84 69 59 69 75 82 75 96 86 98 96 90 79 88 88 90 104 100 120 114 102 96 108 102 106 116 106 108 100 118 118 144 112 104 157 215 333 397 393 422 403 253 169 181 301 434 420 347 313 401 452 458 446 404 401 369 355 363 363 393 
31 45 39 47 61 55 53 61 53 53 73 71 59 61 65 53 59 61 55 75 79 75 73 79 77 75 65 86 88 79 79 86 92 88 96 86 90 94 114 110 112 106 112 92 110 108 104 108 108 120 108 132 116 100 108 104 120 124 126 147 138 108 102 106 144 271 327 321 321 424 471 456 430 397 379 375 359 361 363 389 
33 49 39 49 47 63 71 57 55 55 45 63 57 71 51 47 67 61 65 75 61 57 61 67 77 73 77 84 84 84 86 82 75 84 82 79 98 79 104 92 94 94 94 98 106 94 116 98 120 116 126 122 120 90 104 98 94 96 108 106 96 96 110 82 114 241 379 420 393 454 452 438 391 401 383 359 379 410 418 426 
27 61 47 65 51 51 79 55 63 65 79 63 59 61 57 73 59 51 67 71 53 57 71 73 73 82 65 90 67 84 84 86 77 92 69 90 98 96 102 100 86 92 84 108 102 108 110 104 106 108 118 128 110 102 104 98 106 96 106 84 96 104 116 100 134 295 432 467 485 479 460 438 403 401 424 436 448 436 438 422 
33 51 53 41 43 65 65 67 53 67 71 49 61 63 47 67 45 65 59 59 57 61 49 71 65 67 61 69 69 67 77 73 75 71 79 86 102 77 104 106 100 88 106 106 106 114 120 118 120 118 114 126 120 112 120 112 114 114 108 110 102 120 122 130 237 363 410 444 481 464 446 424 432 452 444 464 458 454 432 428 
37 51 49 47 53 39 45 63 59 51 73 59 43 71 51 63 59 69 57 63 61 61 67 65 65 75 71 69 77 69 92 86 84 90 102 90 106 110 112 106 104 114 106 108 108 96 114 122 114 120 128 126 128 120 132 114 122 132 126 120 110 120 140 165 341 414 401 387 430 442 434 403 442 426 444 450 450 430 414 387 
65 61 49 45 59 47 55 45 63 53 59 71 75 57 65 61 45 65 65 63 75 59 75 59 84 73 71 92 104 79 90 86 88 94 86 104 104 108 114 112 104 116 100 108 112 102 110 126 122 130 128 140 134 132 138 144 144 142 140 128 130 136 151 285 379 389 363 339 351 361 375 369 387 375 371 367 353 317 309 345 
47 53 43 65 49 55 49 57 67 51 63 63 57 69 55 61 75 61 69 77 67 63 77 75 84 84 96 88 90 100 102 92 90 102 94 104 116 114 110 106 104 122 116 120 114 114 136 130 126 128 136 140 149 189 233 225 215 227 231 179 157 147 189 353 379 351 335 329 309 301 295 281 249 261 245 243 233 233 249 353 
39 61 59 37 49 57 63 53 55 59 63 69 73 75 57 73 84 73 75 67 82 69 71 82 71 79 73 88 92 100 86 104 79 94 88 108 96 104 112 98 122 110 126 112 120 124 122 120 132 132 142 142 179 305 349 343 353 420 485 377 237 191 231 397 418 385 337 351 399 377 355 327 293 267 245 245 239 259 325 359 
29 47 41 57 51 69 77 57 63 59 88 59 71 92 69 67 59 79 65 90 79 79 75 79 77 90 84 90 86 88 98 90 100 98 90 104 104 104 106 116 104 112 116 114 118 132 130 130 128 134 144 171 253 333 369 373 381 466 544 511 483 375 403 452 428 408 383 353 361 397 393 371 307 283 283 283 297 305 393 383 
29 59 57 41 65 53 67 63 61 51 67 75 69 77 67 69 65 71 73 86 75 82 88 71 84 86 88 88 86 96 102 100 98 106 96 102 110 100 116 112 108 118 114 118 116 108 126 118 130 140 144 193 315 389 408 430 389 491 542 547 536 503 491 458 418 404 416 406 359 355 367 375 353 271 267 285 333 345 397 385 
45 51 57 53 57 59 69 57 69 65 75 67 49 71 69 79 67 71 71 69 67 71 77 90 96 79 106 104 84 90 86 106 100 94 92 106 106 96 110 100 86 112 112 110 126 134 122 132 126 134 140 201 359 410 444 436 489 530 522 458 491 509 485 450 408 357 397 424 406 309 275 329 333 309 253 271 321 325 375 365 
45 69 49 59 67 57 49 53 59 61 73 69 59 86 55 73 61 71 77 82 65 84 88 71 69 88 75 84 86 88 96 100 98 82 90 94 118 90 98 110 104 116 118 128 128 114 124 128 126 134 142 201 337 379 432 452 528 534 497 375 403 481 446 422 383 313 355 410 422 365 275 283 315 349 309 293 323 337 363 369 
37 59 69 47 61 61 61 67 79 75 75 75 65 82 75 75 77 69 69 84 65 77 86 82 75 88 88 92 100 94 88 86 92 100 88 98 108 108 114 122 118 116 132 132 112 130 122 130 140 140 144 181 315 315 454 406 436 511 497 416 418 462 399 416 371 291 351 363 383 367 315 293 293 371 379 321 329 333 377 357 
47 57 43 49 59 67 61 57 71 73 92 73 67 73 57 57 71 71 84 90 71 90 84 86 98 75 94 84 92 100 94 114 90 90 102 104 102 102 112 100 114 116 120 118 106 126 124 132 124 128 142 161 229 253 313 303 315 432 487 469 432 401 397 383 347 341 343 347 313 329 331 299 307 393 377 317 311 375 379 375 
35 45 59 59 57 75 71 77 65 69 90 71 57 69 59 69 59 67 61 82 84 82 92 88 82 84 90 86 86 102 90 88 104 92 100 102 102 98 104 102 120 114 112 136 118 128 116 118 126 132 124 140 144 149 169 157 169 221 239 211 239 383 391 379 361 383 377 357 315 309 297 289 305 383 367 319 303 401 381 359 
39 45 59 57 69 61 75 69 63 69 69 65 59 71 63 63 77 65 65 71 75 84 100 92 86 86 98 90 96 94 96 90 94 94 92 110 98 94 110 114 112 106 114 122 110 126 126 124 124 130 132 134 122 120 138 118 144 116 134 120 161 331 403 389 389 381 395 379 347 309 305 303 325 377 361 345 335 406 361 379 
37 59 57 51 61 55 61 59 59 79 77 69 73 75 67 79 77 73 61 73 61 71 77 75 84 73 82 82 92 84 90 82 79 100 84 88 102 92 108 106 100 106 100 116 104 112 124 118 116 124 128 149 120 112 116 114 110 114 120 116 130 295 393 397 377 381 363 369 357 333 309 315 333 339 369 373 367 420 403 387 
23 61 61 61 49 45 65 65 61 45 77 61 57 77 73 67 63 53 75 63 57 65 65 69 67 82 79 67 79 75 73 82 79 77 69 84 86 88 100 90 90 90 112 114 116 118 114 112 118 136 116 120 122 110 104 100 98 96 104 106 116 229 367 393 395 399 387 385 359 331 311 337 341 355 387 403 401 406 385 369 
35 51 55 61 53 47 65 65 69 71 69 55 55 63 39 47 45 63 47 71 55 69 73 65 69 77 82 82 59 77 73 77 79 75 73 82 90 96 110 112 92 98 114 112 100 116 122 124 114 124 110 126 116 118 128 120 122 114 100 98 116 193 403 397 349 345 333 291 305 323 347 363 339 377 371 393 403 379 393 367 
41 53 53 37 67 55 77 79 65 63 67 61 63 71 59 57 63 71 53 73 63 67 65 71 67 84 84 79 82 94 84 71 98 84 90 92 94 96 106 100 114 106 122 114 110 116 112 118 124 124 122 134 132 118 126 116 118 112 112 104 112 153 373 416 389 371 361 327 323 436 420 385 367 349 391 397 383 381 399 367 
41 65 86 51 77 55 71 71 65 55 86 67 59 79 73 61 63 79 67 77 63 84 71 71 73 96 88 90 86 86 90 92 96 92 88 94 100 96 110 112 108 114 116 116 116 130 120 130 124 132 132 140 128 124 136 122 110 122 124 116 114 142 279 408 422 444 424 403 414 434 458 432 359 375 387 387 414 381 379 361 
39 57 65 49 51 43 69 79 63 69 63 75 69 75 67 69 77 88 71 73 67 73 77 73 84 67 88 86 75 88 86 94 94 88 86 110 110 104 116 110 114 114 124 114 114 116 124 132 126 132 132 142 126 124 126 108 110 120 114 118 118 122 169 331 399 428 416 399 414 424 432 422 381 323 325 359 363 359 393 349 
39 47 53 57 53 53 55 77 59 61 96 65 73 75 65 77 67 84 73 82 86 77 84 84 88 75 84 94 92 92 90 98 104 100 92 104 108 102 120 118 108 116 122 122 118 128 118 124 132 128 130 147 140 132 130 116 108 126 124 112 112 124 134 155 271 408 436 406 416 430 444 446 416 359 293 291 305 319 379 377 
37 49 39 53 61 57 51 63 51 59 75 65 73 69 61 84 71 79 92 79 75 79 86 88 88 79 104 90 88 102 98 98 86 82 116 108 106 110 114 114 116 122 128 128 124 130 120 132 132 147 130 149 144 130 132 116 118 114 116 114 100 122 136 126 151 281 389 383 395 422 456 460 440 442 420 397 395 391 426 404 
25 65 55 41 61 65 69 69 67 67 100 82 75 77 79 84 82 88 73 71 69 88 84 84 94 84 96 90 94 96 96 98 98 102 102 104 100 106 118 120 106 116 120 120 124 134 124 126 130 140 142 136 136 124 130 130 128 124 118 114 112 120 136 124 124 144 251 331 343 389 446 467 444 454 460 466 436 432 444 395 
27 51 71 49 41 63 69 61 51 75 84 73 59 75 75 86 79 79 69 84 75 84 73 82 84 96 82 92 84 90 90 106 104 94 106 114 102 124 112 118 128 112 130 122 134 128 132 134 138 138 140 136 136 134 122 126 132 126 116 128 110 134 153 122 120 151 201 237 317 397 440 469 462 469 467 460 450 434 399 297 
33 45 51 35 59 73 61 69 69 65 65 67 79 75 53 73 92 73 82 79 73 82 77 98 92 98 92 86 102 92 102 100 92 104 120 94 106 110 116 124 110 118 122 112 126 130 126 130 132 149 144 140 136 122 155 173 201 181 157 130 110 122 132 126 130 171 233 273 291 369 414 430 469 495 493 473 471 440 440 381 
23 37 53 49 61 51 71 67 65 61 61 67 65 84 75 75 79 75 75 65 69 69 77 75 90 90 75 106 92 90 90 100 92 94 92 100 98 108 104 106 112 112 124 118 130 138 134 155 134 140 147 161 140 142 187 255 321 365 323 249 167 147 151 132 144 205 291 309 337 363 351 404 454 487 473 481 479 446 497 479 
17 31 69 41 55 57 71 55 71 57 57 73 67 84 63 69 75 73 84 82 75 69 69 79 71 104 75 98 88 90 96 86 98 92 94 94 106 84 108 114 116 118 128 120 132 126 128 134 142 165 155 161 147 197 255 265 377 491 466 452 420 349 241 157 155 265 335 329 369 343 333 359 414 432 450 454 462 493 507 497 
39 45 47 51 41 51 59 71 65 53 55 63 57 65 73 61 77 61 61 92 88 79 84 84 79 77 79 88 100 82 98 100 90 86 94 90 104 98 112 126 102 120 118 132 128 128 142 132 147 147 159 149 171 257 291 317 458 479 487 499 530 536 466 261 215 311 299 317 331 337 339 357 355 393 416 428 434 473 487 450 
27 43 45 55 55 49 71 63 79 67 75 61 77 88 57 77 73 69 71 71 59 71 67 69 86 92 84 82 86 98 79 88 92 82 94 96 96 98 100 116 94 120 116 128 128 140 138 138 142 144 155 151 171 291 295 331 464 487 505 516 549 540 534 493 385 335 305 291 289 315 343 345 351 371 397 408 430 460 479 426 
21 41 65 57 51 55 63 57 67 67 67 63 57 57 55 53 57 67 57 69 75 75 73 79 65 86 86 79 88 94 77 90 86 90 82 86 96 102 96 112 108 112 120 132 130 136 140 151 151 147 155 149 185 303 303 335 401 481 524 547 534 520 524 547 503 442 347 303 301 319 331 339 337 345 369 383 401 418 436 404 
19 51 47 55 41 69 51 61 75 57 71 49 67 67 45 45 82 67 69 67 75 86 82 65 73 71 63 79 86 79 86 79 92 88 79 77 96 90 102 106 100 110 136 122 126 130 138 144 142 149 142 144 179 287 315 353 377 462 511 505 466 491 471 452 477 497 434 317 295 289 307 311 319 323 329 329 321 337 397 341 
35 53 51 43 49 53 67 47 65 55 65 51 59 71 63 55 59 53 67 57 75 75 63 67 61 65 73 59 69 82 67 71 65 77 71 90 94 84 92 108 96 114 120 130 124 149 140 138 134 130 140 153 153 233 329 383 389 444 516 522 499 467 438 422 410 454 414 319 287 293 307 327 317 291 307 311 303 311 341 291 
29 75 57 53 37 41 55 71 45 65 73 59 59 59 57 65 79 73 53 71 69 69 63 77 75 71 77 86 65 96 104 57 82 90 92 88 77 106 108 112 108 102 116 128 126 142 136 163 151 149 140 151 149 153 255 339 418 454 511 534 524 475 432 414 377 379 393 335 293 277 299 299 307 315 331 293 271 271 291 259 
21 51 59 51 55 55 63 55 69 69 69 69 53 69 59 63 69 75 82 71 59 69 59 82 79 75 88 79 79 86 86 69 79 82 108 96 94 90 102 110 116 110 126 124 132 147 163 153 159 149 144 153 140 138 161 173 263 397 497 505 499 501 505 452 403 440 393 283 273 285 299 301 287 295 277 259 259 251 277 237 
23 37 57 27 31 45 45 57 49 55 53 57 55 67 67 59 71 77 71 75 73 67 75 71 75 84 88 82 88 82 88 92 92 92 96 88 98 102 118 106 108 114 134 138 126 149 134 161 149 157 155 151 155 126 140 122 140 183 281 363 440 475 495 452 448 434 371 315 285 295 301 287 291 291 279 275 237 241 241 201 
21 55 53 49 37 63 57 59 55 61 61 63 63 63 57 57 53 65 73 75 55 88 77 84 79 79 79 88 86 77 77 94 88 90 96 98 108 100 114 106 106 114 134 130 128 142 134 163 161 157 138 157 134 138 134 118 116 128 149 173 301 337 367 361 337 351 323 295 287 277 265 265 267 255 261 261 211 213 223 199 
19 59 57 39 49 39 69 59 59 49 77 69 45 63 57 79 79 55 69 61 77 73 88 79 84 88 86 79 102 90 94 84 98 100 90 102 104 112 102 104 110 112 130 132 136 144 130 149 147 163 155 155 147 128 130 112 120 122 122 153 283 301 327 325 293 291 287 275 263 273 249 251 249 251 237 239 203 177 217 195 
25 51 53 51 23 59 49 53 57 45 75 53 59 57 63 67 65 79 61 63 77 86 86 67 100 77 73 86 84 77 90 82 96 98 98 102 94 94 124 108 120 114 138 134 126 138 140 155 130 142 138 153 124 120 124 100 110 120 102 159 271 313 325 327 319 329 315 301 285 261 249 243 263 249 237 227 195 144 185 171 
25 43 57 33 27 45 45 47 57 67 75 57 59 61 61 65 63 69 65 71 73 67 73 73 84 75 88 104 86 75 82 84 86 98 90 84 96 106 102 106 110 122 128 126 122 118 134 140 136 140 132 136 118 116 114 102 110 110 104 163 265 309 313 295 295 305 313 289 285 271 275 293 265 259 241 215 169 136 189 187 
17 45 39 51 47 55 55 51 57 59 57 61 57 73 63 61 65 55 51 77 63 75 65 73 67 82 77 82 86 88 75 92 94 90 96 86 98 86 96 116 100 106 112 102 114 126 114 126 128 136 136 140 122 108 102 94 96 102 102 185 311 339 335 335 325 311 297 287 297 281 263 279 301 283 249 205 173 167 187 185 
0 53 57 33 31 43 49 45 55 71 65 61 51 71 71 57 67 65 55 75 73 69 79 61 67 86 86 88 90 73 86 88 88 86 82 82 100 92 108 98 96 110 116 116 128 110 108 132 112 116 118 138 124 114 114 102 84 100 96 185 305 337 365 359 351 347 323 309 313 303 283 301 299 285 247 205 191 201 225 221 
12 59 51 33 43 39 41 41 49 47 53 53 47 55 63 57 63 61 63 71 63 71 61 63 69 82 86 90 79 90 82 84 84 94 94 98 84 96 112 104 102 116 114 110 110 112 122 120 106 149 134 136 116 106 102 100 94 92 96 149 279 347 373 361 347 347 343 331 327 355 403 414 383 351 283 267 285 361 379 347 
14 49 47 21 49 35 43 39 41 45 57 49 63 63 61 47 51 61 55 69 67 75 67 65 69 86 84 82 86 84 86 90 86 84 86 84 94 90 96 108 92 86 98 106 92 84 92 100 118 159 151 151 138 124 142 134 124 140 147 140 229 313 367 359 345 329 347 337 351 397 424 442 418 418 426 422 406 440 456 434 


