P2
80 60
736
94 90 100 92 104 109 94 94 98 100 84 88 82 78 80 86 92 92 78 96 88 70 84 72 60 68 74 70 68 55 60 62 80 66 68 64 72 64 51 62 51 49 47 53 49 62 66 64 37 45 55 43 41 41 51 47 53 55 47 53 37 31 29 20 16 10 0 12 16 29 29 20 41 68 66 43 47 49 57 53 
111 94 100 96 94 98 98 94 88 102 96 84 72 78 76 96 104 90 82 84 88 80 78 76 70 76 78 74 66 60 49 66 64 55 60 62 47 49 60 57 43 49 51 43 51 51 57 53 51 49 53 53 51 39 43 57 66 51 43 39 43 27 18 10 4 10 16 10 10 12 24 16 24 49 60 49 43 45 57 45 
100 100 109 106 109 102 86 92 90 100 92 86 68 76 84 92 82 80 90 94 88 78 84 70 82 76 66 76 64 70 57 66 53 62 66 64 68 57 60 53 57 51 60 47 64 68 53 60 49 53 49 45 49 39 49 49 53 39 45 55 31 24 31 16 6 6 8 22 18 14 18 27 18 39 57 37 47 49 49 47 
111 94 106 106 121 106 119 109 100 96 86 88 76 82 84 90 72 90 92 84 82 74 78 68 64 68 82 64 78 76 66 51 62 55 55 68 60 62 53 64 49 51 62 57 57 66 55 64 51 66 49 49 51 57 57 55 47 43 55 53 37 29 39 31 12 12 24 14 18 12 22 31 27 35 68 35 43 47 55 43 
102 115 106 104 106 104 109 111 94 96 74 84 72 74 74 90 92 88 80 78 80 82 72 68 64 66 68 66 66 62 66 66 55 60 68 72 62 55 57 62 45 55 55 55 55 51 62 47 39 53 51 57 57 49 68 60 60 27 35 49 51 33 33 33 18 10 18 18 12 10 24 24 29 39 51 37 49 41 53 33 
98 92 100 109 109 94 100 102 96 98 84 86 78 84 74 78 84 96 82 74 76 80 76 64 66 74 62 66 57 68 72 53 60 66 72 70 57 62 45 55 55 47 53 43 43 53 66 49 45 51 49 57 57 51 70 74 70 45 55 51 49 29 39 16 12 6 22 31 12 10 22 35 27 41 57 37 45 43 49 49 
102 88 109 100 104 98 94 102 90 96 84 72 82 84 82 86 78 92 88 80 84 80 78 66 72 82 70 70 55 57 72 51 70 62 68 76 60 62 55 62 55 49 55 57 45 55 55 60 43 45 47 57 64 62 70 72 74 66 57 60 57 45 35 24 12 20 12 18 18 20 27 37 22 51 72 47 51 37 39 41 
98 96 98 104 102 106 98 109 94 88 74 82 90 78 84 94 100 92 88 82 86 78 84 78 68 76 57 64 66 70 60 60 64 62 68 72 62 57 64 53 51 49 47 55 47 49 60 55 55 60 60 60 64 62 76 78 82 66 78 62 53 39 29 16 6 16 29 33 24 20 27 35 24 51 64 55 43 53 51 55 
104 94 100 109 98 106 102 98 111 96 84 78 76 90 92 92 96 104 88 86 78 86 80 84 74 84 64 68 51 70 68 53 66 55 64 76 60 47 64 57 45 55 51 51 68 76 57 64 53 57 49 60 49 72 76 88 68 76 70 74 64 43 33 20 29 10 27 29 18 16 27 33 39 49 66 47 47 43 41 41 
113 100 94 100 102 102 96 102 92 94 98 84 76 74 74 76 88 92 86 86 86 78 88 80 72 72 64 66 57 51 66 57 70 57 64 64 70 60 64 55 60 53 49 37 49 74 70 64 47 57 68 47 57 55 57 55 62 51 68 78 66 41 55 27 14 16 27 20 14 16 22 35 31 29 47 37 39 47 49 43 
88 100 100 104 102 102 94 98 94 94 76 88 72 80 82 86 78 96 88 92 80 80 84 78 70 74 66 60 66 55 57 62 60 57 64 74 62 53 60 55 49 45 51 49 53 68 53 49 60 62 55 49 51 53 57 68 62 68 57 74 64 35 31 27 16 10 24 27 22 14 20 33 33 33 55 43 57 49 53 45 
109 98 94 88 98 94 102 94 96 100 94 76 74 84 74 82 82 80 78 90 78 84 82 78 70 80 57 64 55 51 60 64 53 57 66 66 57 55 49 55 49 47 45 60 49 60 55 62 51 55 62 51 55 60 60 64 66 60 57 66 55 51 47 39 33 10 12 22 24 14 31 33 27 41 55 64 47 41 45 49 
102 98 102 88 104 104 104 100 100 90 82 80 84 84 78 78 72 88 74 76 86 80 80 74 66 68 64 60 55 68 60 57 60 64 49 70 53 62 68 64 60 55 57 53 66 70 68 60 53 53 55 49 49 60 66 66 62 62 53 62 53 43 51 29 24 20 29 33 22 10 29 33 33 45 51 57 57 45 53 39 
115 90 100 104 94 98 104 106 92 96 92 80 76 76 90 94 92 86 76 86 74 82 82 66 60 64 70 64 70 62 53 60 64 55 66 68 64 53 57 57 51 53 60 70 57 68 64 57 45 60 55 64 57 51 68 76 70 53 55 78 55 41 33 33 24 24 22 47 43 22 29 24 39 37 49 41 53 45 55 53 
106 82 92 92 100 115 96 96 82 92 78 76 80 78 78 86 92 88 82 68 84 78 76 68 60 64 72 62 57 62 57 66 66 62 68 68 60 55 53 62 62 60 60 64 62 78 53 57 45 57 53 55 68 53 60 60 64 53 68 68 49 41 41 43 33 12 33 35 29 16 27 39 37 49 51 43 53 43 51 51 
94 80 92 86 94 106 84 90 76 88 84 74 68 74 86 78 76 90 80 78 74 74 74 68 64 70 64 66 66 64 60 70 57 60 49 60 53 55 62 51 49 53 66 66 66 57 62 49 64 57 60 60 53 43 62 60 62 62 60 64 43 47 43 37 18 24 24 31 33 18 31 39 39 41 39 35 49 55 57 57 
84 80 102 86 111 86 96 102 84 90 90 66 72 82 86 82 80 80 80 72 76 76 66 70 62 64 68 64 57 55 66 64 64 64 47 68 49 55 68 64 72 51 51 68 64 72 70 62 53 64 64 53 62 57 70 57 55 62 51 49 53 45 53 39 22 16 33 18 47 31 37 41 41 45 47 39 41 39 45 57 
96 80 84 92 86 88 96 96 90 90 68 68 72 72 74 86 90 84 76 72 86 72 72 62 74 76 64 60 57 53 53 57 55 57 64 62 57 62 66 57 53 60 62 47 57 70 62 66 60 66 47 66 64 64 57 60 66 62 76 60 62 47 55 41 37 20 35 35 49 39 45 35 39 45 49 37 45 45 47 47 
94 82 90 88 98 92 102 94 98 88 82 74 76 88 80 92 86 88 82 84 70 80 80 68 66 66 51 57 55 55 64 68 66 53 66 68 62 66 68 68 74 62 76 72 66 68 78 82 53 78 60 70 70 68 72 64 76 60 76 64 55 60 53 53 37 35 41 35 39 39 47 49 43 62 55 39 45 62 53 47 
111 84 94 82 109 100 104 113 100 70 80 76 68 82 76 92 82 88 88 82 76 74 72 80 70 62 60 60 64 64 64 51 57 62 60 68 78 62 64 78 66 62 74 62 78 78 86 62 74 76 76 76 74 84 88 80 80 74 80 70 60 62 57 53 43 43 29 55 53 29 53 41 41 41 53 45 60 62 62 66 
96 90 94 96 86 92 86 94 98 82 84 82 84 80 86 72 70 84 96 82 78 74 74 74 62 68 76 66 57 57 60 62 66 64 70 70 72 66 82 74 72 53 82 90 82 96 127 111 76 100 82 96 100 104 106 96 96 92 74 92 72 57 68 76 53 55 51 53 43 27 35 45 41 45 57 55 117 111 90 68 
86 82 102 92 111 96 90 94 88 90 62 76 72 82 72 72 82 90 78 80 74 80 70 78 70 70 72 66 60 62 60 57 49 66 62 64 72 72 70 82 68 68 74 96 106 137 216 143 111 109 143 198 263 301 301 287 239 174 151 131 104 92 123 121 94 62 51 47 35 20 20 27 22 33 70 96 210 202 206 178 
92 88 94 92 96 100 96 94 78 80 86 86 78 82 78 84 80 78 70 80 84 86 70 74 72 66 68 62 74 68 66 66 55 64 72 66 57 64 55 55 66 84 115 206 309 329 351 411 387 417 491 548 559 561 589 579 544 512 483 447 411 417 435 431 355 145 51 53 41 35 27 20 22 39 80 109 261 257 257 236 
102 90 100 86 98 84 92 100 78 94 98 70 78 90 80 76 76 90 84 84 84 84 80 72 64 68 70 72 70 64 68 64 70 64 64 57 57 62 60 94 123 263 399 445 451 431 407 506 595 606 616 643 610 603 597 571 552 498 495 496 528 538 520 496 493 373 171 117 84 31 33 24 29 60 115 147 253 257 267 253 
98 94 100 100 90 94 88 88 86 80 90 72 78 74 76 84 82 78 80 84 86 80 70 70 74 78 74 76 66 64 68 70 66 68 70 72 70 64 64 123 327 421 455 469 493 496 496 540 605 610 565 554 534 506 498 435 403 391 351 347 395 455 479 467 421 429 363 325 257 198 131 88 70 72 104 145 234 245 228 228 
98 82 88 88 96 96 84 74 86 84 82 68 70 72 84 70 72 78 80 84 82 74 70 70 64 70 72 72 60 60 72 66 64 62 68 74 57 80 80 190 504 475 487 475 495 500 491 510 524 502 467 447 455 443 431 407 383 347 321 291 321 375 401 409 407 395 409 403 373 327 309 263 196 208 182 198 232 241 222 196 
90 86 104 78 84 98 88 82 70 80 76 64 76 74 86 88 86 86 74 86 76 74 70 76 64 66 64 80 55 57 84 64 78 78 80 76 78 70 84 291 542 540 554 534 520 542 522 451 421 421 425 433 449 437 407 381 367 333 301 269 319 361 399 439 411 397 409 425 399 379 365 345 331 317 297 281 245 232 226 204 
96 92 90 80 92 84 88 84 92 76 82 82 66 84 80 80 88 80 84 78 82 86 66 76 57 70 72 68 62 66 88 92 117 104 115 96 88 96 145 311 495 567 571 554 556 544 489 431 427 423 435 443 447 455 411 369 351 307 281 265 279 345 413 423 445 431 445 433 423 401 405 393 369 355 343 299 243 241 222 212 
98 86 92 84 96 104 88 96 80 74 82 80 80 70 82 78 80 88 80 78 74 78 66 74 68 68 64 80 70 86 102 243 341 389 399 403 281 182 383 516 487 546 573 573 575 542 481 429 431 453 477 461 459 445 385 355 345 287 273 234 243 293 379 423 437 459 457 453 433 427 443 435 413 397 377 299 241 247 236 212 
96 96 84 90 88 96 88 96 86 78 80 82 86 76 80 92 86 82 76 78 68 84 68 72 55 66 70 70 80 100 206 395 643 672 682 647 622 532 614 719 610 495 536 548 565 508 441 413 417 447 465 473 461 433 381 353 327 297 265 239 234 269 317 393 445 457 457 441 427 419 431 409 427 433 383 303 247 226 230 222 
92 78 88 92 100 100 74 98 88 76 80 82 66 70 78 80 80 86 76 68 72 74 78 70 60 78 57 80 76 131 279 520 723 721 678 626 622 616 649 730 723 534 451 419 419 417 411 421 415 439 471 467 467 417 391 353 321 295 269 249 245 265 349 365 421 449 441 453 437 445 459 453 455 453 409 315 249 241 232 230 
106 86 90 96 96 92 94 98 84 88 88 80 90 70 76 72 78 78 82 72 68 78 76 76 55 70 70 74 78 151 295 429 719 719 698 636 651 653 676 727 709 542 483 445 473 443 427 417 409 451 477 479 459 439 393 365 343 297 285 267 261 303 373 367 403 433 431 457 465 467 449 467 473 457 425 337 243 239 226 220 
94 86 92 90 96 84 82 92 74 74 86 82 66 80 84 80 78 88 72 74 78 74 76 70 64 76 68 80 80 133 281 455 682 701 692 688 668 626 647 736 686 548 538 526 532 504 439 425 417 467 465 473 467 443 419 363 345 305 291 267 265 301 357 357 367 391 425 451 441 441 447 459 461 447 409 327 241 239 218 220 
96 98 80 80 88 92 92 86 90 68 90 86 82 72 78 76 78 82 74 74 64 74 78 66 66 72 64 78 70 94 182 303 548 659 647 641 550 387 419 544 457 554 561 558 565 540 459 399 401 401 413 423 441 443 427 379 341 315 305 291 287 291 361 349 321 349 403 425 437 437 431 413 381 379 363 295 241 228 218 212 
86 82 94 84 88 98 94 88 96 96 90 96 70 80 80 86 88 80 78 78 72 82 70 76 62 74 62 70 62 72 94 149 263 301 285 301 147 121 204 369 421 518 554 556 556 544 512 409 387 391 405 405 447 423 415 391 369 329 337 317 319 315 381 353 321 329 393 445 417 397 357 327 269 241 212 174 228 216 210 206 
86 82 115 90 88 86 84 92 92 90 92 98 84 66 76 76 78 68 84 80 76 70 66 72 57 70 62 64 49 68 70 70 78 82 94 84 76 72 96 151 459 465 495 493 469 493 451 405 401 399 419 427 447 461 443 401 381 367 351 339 323 335 373 335 331 333 373 385 355 281 218 145 94 80 82 111 234 216 216 196 
94 90 96 109 80 90 96 86 94 74 88 100 72 74 94 82 74 78 76 72 78 74 76 80 64 60 72 66 57 60 76 74 70 72 70 60 64 72 62 117 415 469 443 427 429 411 423 445 441 445 425 433 445 435 417 373 355 337 363 373 347 345 375 335 317 285 261 226 176 121 102 94 60 49 45 94 198 214 224 200 
102 92 96 98 76 84 86 88 80 100 92 88 82 74 84 80 74 70 74 74 70 74 62 70 57 66 62 60 66 62 68 64 55 68 60 57 60 64 55 102 253 489 471 485 495 467 439 425 538 585 591 561 530 437 393 387 355 331 337 383 421 435 469 423 327 228 208 169 135 119 113 125 98 76 86 106 208 241 263 269 
102 106 102 84 86 88 104 88 94 98 74 90 84 76 78 78 76 80 72 76 78 82 70 80 64 53 70 51 64 62 68 55 57 62 64 70 43 57 62 78 109 269 433 481 461 397 367 393 546 595 628 624 612 583 583 565 561 536 530 530 548 544 526 391 283 210 200 178 165 135 143 165 157 129 94 151 263 273 267 263 
102 98 100 98 84 94 100 98 90 76 92 98 82 78 84 92 90 78 82 72 70 76 78 80 57 68 66 60 51 62 53 53 60 57 55 55 55 53 55 70 70 98 171 243 293 309 343 367 435 435 500 548 569 565 571 550 536 510 489 473 415 417 471 309 234 192 196 176 155 153 176 190 176 174 119 151 265 255 241 212 
113 98 102 104 100 98 86 78 88 90 96 98 90 68 90 90 90 84 78 78 82 64 66 70 66 57 74 78 68 72 64 60 66 64 53 57 62 51 53 60 57 51 70 82 111 133 171 174 135 129 157 212 289 357 347 345 317 289 269 289 261 224 285 251 210 212 206 196 171 169 169 178 171 178 157 137 182 167 131 117 
113 104 104 96 111 96 78 102 90 102 86 94 94 74 86 90 90 84 78 88 68 62 74 70 49 70 70 64 66 60 72 62 64 62 66 60 53 45 49 60 60 47 57 66 64 82 74 80 70 72 84 94 159 200 208 202 230 224 222 234 208 208 222 208 176 169 180 169 159 145 135 137 131 141 123 94 109 119 96 84 
106 86 98 82 94 88 78 84 80 92 84 84 78 78 88 88 80 86 80 80 74 64 62 55 55 64 66 60 57 66 62 68 62 68 57 53 60 49 43 45 43 51 49 57 76 53 49 64 60 72 66 80 163 198 202 212 218 226 226 230 212 180 165 147 131 113 109 102 98 78 80 72 66 76 78 96 109 115 82 78 
98 92 94 88 92 100 90 82 88 68 86 82 94 76 80 88 76 84 72 76 70 70 62 66 68 53 64 66 55 49 57 60 55 62 55 53 47 43 49 47 49 41 53 47 55 51 57 55 49 72 66 80 151 182 208 218 222 216 218 210 196 165 127 123 109 82 92 88 76 72 64 66 57 72 78 80 102 96 90 82 
100 88 104 104 96 109 84 102 94 86 82 96 78 86 92 86 90 82 70 82 84 64 60 74 68 55 70 55 55 60 68 68 51 57 64 53 57 53 37 49 41 47 43 45 60 57 70 51 57 64 66 82 157 180 210 208 226 212 214 214 194 167 129 123 119 98 96 102 102 90 74 72 74 70 90 88 96 86 82 82 
100 94 86 102 109 102 84 96 86 80 74 96 90 80 88 90 94 82 70 76 72 76 72 74 68 72 72 64 62 62 66 62 62 57 62 66 53 49 49 49 41 45 45 55 49 53 55 60 41 53 51 78 137 190 196 212 208 220 224 202 202 165 161 159 139 151 139 143 149 131 139 133 106 92 92 92 106 96 90 68 
98 96 82 96 72 100 100 94 82 84 96 94 88 82 80 78 86 92 80 80 82 68 72 66 64 74 68 49 55 60 64 64 53 57 53 45 45 51 49 51 45 43 51 55 57 53 53 49 43 57 55 82 125 171 178 180 200 200 212 206 196 182 190 176 182 178 176 178 182 188 198 208 174 141 125 96 109 82 70 62 
90 80 100 84 104 104 78 96 96 80 86 86 88 80 74 84 82 94 80 90 76 70 82 72 76 60 62 53 53 68 64 55 64 68 57 53 47 51 43 49 37 31 47 45 51 51 57 53 49 57 53 72 98 127 145 163 182 182 202 188 196 184 171 176 184 167 163 180 186 182 212 228 218 190 151 98 86 76 68 66 
94 88 94 102 102 94 90 88 68 92 74 102 88 82 80 82 96 90 74 70 72 74 70 70 53 55 57 53 60 62 66 53 62 68 60 51 43 47 37 49 41 55 47 47 41 51 49 47 43 47 57 74 60 80 88 104 113 129 147 149 149 159 169 163 159 161 147 176 174 180 222 232 255 232 196 115 76 62 68 64 
92 88 90 90 88 100 96 90 94 88 78 104 82 92 68 82 76 92 78 76 62 74 62 66 51 57 57 68 62 66 62 53 51 51 57 47 43 43 39 43 45 43 45 43 43 39 39 47 35 47 55 53 55 53 55 70 68 70 78 74 68 64 84 111 117 115 102 94 109 159 204 241 251 251 222 88 68 72 72 55 
96 102 98 102 109 94 90 88 94 82 92 92 88 88 86 88 86 78 76 72 80 78 82 70 60 68 47 57 51 66 60 60 60 60 72 57 51 51 41 35 45 43 53 47 47 57 57 49 43 51 49 51 57 43 60 57 68 72 72 68 62 41 70 88 90 86 60 64 84 127 196 226 259 245 178 74 55 45 47 49 
100 76 98 86 102 96 90 78 96 90 86 90 88 86 92 96 86 80 78 80 70 80 74 66 57 66 60 55 57 55 62 64 62 62 53 62 47 49 37 43 39 45 47 53 53 43 47 51 41 37 45 39 43 47 43 55 66 72 72 57 49 51 51 88 80 86 33 35 68 125 198 230 255 232 137 68 55 51 49 41 
90 94 86 104 98 90 102 86 80 88 82 76 86 98 96 88 92 90 66 88 78 66 74 66 68 74 68 55 49 60 62 60 55 53 60 45 43 39 45 53 39 45 57 47 62 49 43 53 53 37 47 49 57 49 51 51 53 47 60 53 41 45 41 70 74 64 33 39 53 127 206 220 257 234 135 66 55 60 55 39 
104 86 100 94 111 102 98 88 74 72 80 92 106 102 102 96 88 82 86 92 84 80 84 82 64 70 64 64 64 57 70 60 68 74 64 53 37 49 41 45 39 37 47 45 60 53 62 53 47 39 41 45 60 49 62 57 64 60 60 64 39 41 51 66 76 62 29 24 47 135 184 210 243 226 119 66 62 60 53 39 
111 96 102 96 102 98 90 82 94 82 86 82 102 82 102 94 78 104 86 80 72 76 86 64 72 76 70 55 60 68 66 51 53 68 60 66 41 55 41 43 37 53 47 49 62 45 57 60 45 53 49 37 55 51 51 62 64 64 62 60 45 29 35 51 68 51 24 33 55 125 190 176 200 182 117 64 62 66 47 43 
106 88 86 80 96 86 90 100 80 74 100 94 88 98 96 94 92 88 84 70 72 76 70 68 70 64 66 62 66 55 51 57 51 64 53 55 45 53 45 45 45 64 33 41 57 53 62 51 45 43 47 43 55 53 49 57 66 55 53 53 45 18 37 70 53 47 22 35 64 106 180 149 155 145 96 51 60 41 55 37 
104 94 98 90 100 94 88 86 78 90 86 92 98 90 82 86 80 90 78 68 68 72 76 66 60 57 55 55 53 57 43 55 60 53 53 57 45 47 47 45 37 39 41 41 49 49 49 43 43 45 47 43 49 60 57 49 68 62 51 49 35 22 39 41 53 41 27 33 45 88 163 161 139 113 90 39 66 70 64 57 
90 82 102 82 92 92 90 76 78 78 82 70 74 80 88 88 84 92 82 70 68 66 66 66 60 55 66 55 62 53 60 57 49 62 62 45 41 51 45 45 39 39 47 43 55 37 47 53 43 49 45 43 51 49 49 51 53 55 39 41 37 20 31 53 57 29 14 31 55 90 169 129 119 104 82 45 53 62 70 49 
92 88 90 92 102 113 98 84 96 84 96 88 104 96 94 98 80 102 78 76 72 62 70 72 66 62 60 55 60 45 57 43 64 64 62 43 39 39 49 41 31 47 53 45 55 31 47 49 37 41 47 57 49 45 33 41 55 53 55 53 41 45 55 49 55 33 22 31 57 98 165 153 135 104 78 49 53 39 55 51 
100 90 104 88 90 96 86 86 100 72 88 84 102 80 84 84 88 100 84 76 80 74 88 82 60 62 76 53 68 68 76 76 64 60 70 55 45 57 53 66 55 57 57 62 76 64 76 66 55 57 64 57 64 68 78 74 78 76 70 72 68 64 68 82 76 68 43 68 82 98 188 174 143 106 100 45 74 60 62 57 


