P2
80 60
732
109 93 93 107 101 95 91 91 107 101 73 81 87 77 77 91 87 93 75 81 83 77 81 79 85 101 89 75 75 58 66 66 85 64 52 50 71 64 56 62 52 62 50 44 46 52 64 69 54 56 62 44 36 36 48 46 54 42 50 64 46 40 27 31 31 13 9 6 19 27 21 13 44 62 71 66 42 52 42 48 
101 91 97 101 95 91 97 95 97 101 81 77 79 77 71 97 101 83 75 71 81 79 77 85 85 81 81 79 71 60 50 64 60 62 50 62 56 62 73 56 54 54 52 44 46 46 54 60 60 52 60 44 40 44 40 52 54 44 44 48 50 33 11 19 17 23 23 13 11 17 13 2 23 42 52 66 31 44 36 52 
95 93 103 103 99 89 79 93 85 99 83 79 69 73 79 97 83 81 97 85 79 79 79 77 85 71 66 75 62 66 50 75 56 52 60 54 62 62 66 48 50 60 50 44 48 50 64 73 56 54 56 46 42 33 42 44 40 42 54 64 40 31 21 13 13 19 23 15 21 15 9 25 19 33 64 50 44 54 52 56 
107 91 105 120 113 93 107 107 83 93 83 87 79 75 85 81 81 89 87 75 73 66 73 62 73 71 85 69 79 83 69 58 58 58 44 62 60 62 69 58 46 54 58 48 48 56 48 73 64 58 60 42 52 60 46 36 40 40 52 52 54 33 40 17 19 13 36 17 21 15 15 15 29 42 58 56 56 58 64 60 
101 111 97 113 107 101 109 111 89 101 81 89 89 87 73 93 89 95 75 66 83 79 66 64 71 77 71 77 73 71 73 69 56 62 56 66 66 58 69 71 50 60 52 46 50 46 60 64 62 62 58 54 56 46 58 58 54 29 46 54 60 48 33 38 21 21 25 21 23 17 23 23 25 42 56 54 44 52 56 48 
105 95 99 109 99 93 95 103 89 93 71 83 83 91 75 73 71 91 83 71 69 77 66 66 73 83 69 73 69 73 83 56 52 62 60 66 64 58 54 48 50 50 54 52 40 46 58 75 58 52 52 50 52 60 62 71 64 52 66 58 52 40 38 21 9 19 29 21 17 11 19 27 31 38 60 54 42 48 36 54 
99 93 99 95 93 93 91 95 99 105 79 75 83 89 83 87 75 83 79 85 73 75 75 66 79 79 77 79 71 58 69 62 62 56 58 81 62 62 60 60 50 58 60 54 38 46 58 54 58 52 56 46 52 60 66 60 71 54 62 60 58 46 27 19 9 23 23 17 19 23 25 27 29 42 69 69 42 42 46 50 
101 89 95 103 91 97 89 101 91 91 75 75 83 83 85 85 93 89 77 81 83 79 81 73 71 77 64 66 75 66 62 62 60 52 56 62 66 58 62 48 38 48 46 48 36 42 62 62 69 60 62 52 50 69 75 64 64 58 81 69 56 31 19 13 0 25 36 25 23 19 19 21 23 33 77 71 40 54 52 38 
109 95 111 118 105 107 91 97 107 87 83 81 79 97 89 87 89 97 85 77 73 81 75 81 77 83 71 69 56 81 71 62 60 52 44 62 62 54 75 60 44 60 46 44 64 46 56 58 64 60 62 54 44 64 79 71 56 56 69 75 75 38 31 21 31 17 29 17 17 19 27 21 31 44 66 46 27 48 48 40 
101 97 87 97 95 99 89 99 85 95 93 79 81 81 75 66 87 87 83 85 77 79 81 73 83 71 71 60 77 60 73 64 69 60 54 62 66 62 64 46 56 64 48 44 44 58 69 62 56 58 64 42 48 58 62 48 54 50 71 81 71 48 48 27 21 29 31 15 13 9 25 25 23 25 48 42 36 56 48 44 
99 107 97 105 101 93 91 101 79 99 75 89 77 81 77 85 93 89 83 75 69 81 85 93 73 81 69 73 79 69 73 69 60 58 58 66 62 56 60 56 46 56 54 44 56 62 62 64 64 52 54 44 42 52 56 64 58 58 66 77 64 44 33 29 9 19 38 25 29 27 17 38 38 23 58 50 44 52 71 42 
115 101 109 101 87 85 91 81 93 99 93 81 73 87 75 79 81 79 85 81 73 93 85 79 81 79 62 73 71 64 69 66 56 64 62 50 56 62 58 60 50 50 52 58 46 52 56 69 62 58 54 46 42 44 54 62 54 50 54 73 62 58 50 29 25 15 17 21 33 23 15 25 42 31 58 69 52 50 77 42 
109 107 103 99 101 95 91 93 99 97 71 71 85 87 69 81 64 89 73 60 83 73 69 69 71 64 66 66 62 69 73 58 58 58 40 64 58 58 58 64 56 58 52 44 50 50 58 69 62 60 52 42 44 58 60 56 48 54 46 58 54 52 48 29 23 25 31 25 17 21 23 19 27 36 50 56 48 73 58 38 
107 89 91 107 87 103 97 93 95 97 87 81 66 75 79 83 93 85 71 73 58 83 75 66 64 66 75 73 77 60 54 60 62 48 50 56 58 62 64 58 46 52 48 58 52 50 62 66 64 56 54 58 48 44 62 56 56 42 50 71 54 50 25 29 31 23 33 27 42 27 23 11 36 29 58 46 50 48 58 46 
118 97 97 97 97 97 87 95 85 95 83 79 77 79 81 87 85 79 77 64 71 77 75 69 64 62 71 69 77 69 66 64 69 62 54 64 58 73 56 56 58 56 62 62 64 58 56 66 50 66 54 58 50 48 60 54 50 42 58 73 56 48 44 42 33 29 40 44 36 19 25 31 36 36 52 54 40 52 50 48 
101 95 91 93 87 93 89 87 77 93 89 64 71 71 79 77 75 79 79 71 64 77 66 71 73 85 69 73 75 73 66 69 56 62 42 54 60 66 66 54 52 56 62 52 62 48 64 64 71 58 66 50 38 44 54 56 48 52 52 60 48 52 42 40 31 44 31 31 33 23 23 31 36 44 40 54 33 52 48 50 
93 89 99 89 93 77 89 115 89 93 77 69 73 81 81 81 77 73 75 69 71 71 52 71 73 71 71 66 75 66 64 69 64 54 42 60 56 64 60 62 58 54 50 56 56 60 64 66 64 69 64 50 48 54 69 52 46 56 50 58 56 58 52 40 36 31 40 25 36 42 38 36 46 31 46 56 29 44 42 52 
99 83 83 99 83 83 93 95 87 91 73 73 83 83 73 79 83 73 69 62 79 64 71 66 79 75 73 79 77 64 58 64 54 62 48 62 60 64 66 54 56 69 52 46 48 52 62 75 75 64 50 60 46 54 62 54 54 60 75 71 64 50 50 44 40 29 40 31 40 52 38 29 42 46 58 46 40 52 54 56 
95 89 89 91 87 89 91 91 91 95 83 62 66 91 87 91 81 81 73 77 71 77 79 66 77 73 58 73 71 73 64 71 66 54 50 66 75 66 71 73 69 71 69 64 56 52 75 93 69 69 64 64 58 58 71 66 64 58 83 81 66 58 60 60 44 42 54 42 36 44 44 38 42 56 56 54 46 71 64 52 
107 91 91 89 99 95 95 93 93 85 81 75 73 87 73 91 75 81 81 73 75 73 73 81 79 73 60 73 77 71 66 48 52 54 60 66 73 73 64 73 69 79 75 62 64 71 83 79 87 77 87 79 77 85 99 91 79 89 87 89 87 97 89 89 69 46 50 60 48 36 44 33 44 38 60 66 75 79 91 87 
103 87 83 95 97 87 87 91 95 83 73 85 93 85 85 73 71 81 87 79 75 77 75 79 73 77 79 85 64 62 73 64 64 69 64 69 75 69 79 75 66 71 83 81 87 103 150 138 124 132 138 170 219 270 298 290 250 229 207 213 227 294 320 276 113 77 62 64 46 36 31 33 40 38 56 103 195 191 166 138 
93 95 101 85 109 95 95 91 93 91 71 91 83 85 71 87 83 77 85 71 71 81 79 79 85 81 79 85 66 62 75 69 50 62 48 66 77 77 83 75 71 73 71 99 156 241 332 296 304 346 448 500 545 561 582 555 504 436 440 458 525 517 498 492 334 103 69 48 38 29 21 13 15 19 71 130 233 248 252 231 
95 99 97 97 99 93 93 89 93 85 87 91 87 79 83 93 83 81 79 83 83 85 75 79 77 73 85 77 81 81 79 69 52 66 58 62 60 71 81 58 87 105 195 300 378 388 398 539 570 580 614 602 586 574 572 525 468 422 454 502 535 517 470 440 382 185 99 73 56 48 25 19 25 29 81 107 225 239 250 245 
118 91 99 97 107 91 93 93 81 91 95 77 89 85 81 81 85 91 95 81 79 85 77 75 79 69 79 81 79 62 77 66 75 56 54 56 62 62 73 89 113 308 452 482 490 474 440 563 608 600 531 452 428 402 358 322 328 318 334 334 386 430 416 406 366 348 316 258 193 113 71 42 56 64 113 152 199 213 209 166 
97 107 109 124 97 103 91 87 87 87 95 77 85 71 69 87 85 79 91 81 85 85 81 81 77 85 85 75 75 71 83 69 75 79 62 60 66 66 64 91 266 470 464 474 494 490 488 563 568 490 372 384 422 422 424 394 350 336 298 316 332 368 380 398 392 388 408 392 378 324 252 209 197 183 252 241 217 231 225 197 
105 85 93 91 87 95 85 69 85 83 71 71 81 75 79 73 75 81 77 73 71 71 73 71 73 81 81 75 75 79 73 71 66 66 58 71 62 73 81 101 386 511 515 486 490 509 511 484 448 438 424 414 430 418 396 362 330 302 276 282 330 374 426 434 426 414 424 426 414 406 362 336 336 304 342 292 237 248 213 191 
97 83 97 91 85 97 85 87 73 91 89 77 83 79 85 91 85 89 75 81 71 79 64 79 75 71 73 69 66 62 83 73 79 77 73 69 71 66 83 124 396 529 563 545 523 539 500 428 420 420 418 420 436 420 374 338 310 276 264 254 318 350 400 446 424 426 440 446 420 416 410 392 370 338 344 326 227 239 231 215 
93 97 99 97 95 83 89 87 95 81 79 85 81 85 73 75 93 85 81 66 73 77 66 81 83 83 79 75 75 71 69 95 97 136 146 144 148 128 142 298 376 537 557 559 563 547 480 428 428 434 454 452 440 412 370 342 294 268 260 250 294 324 394 440 462 476 480 448 448 438 434 420 390 376 362 328 221 237 227 229 
109 89 91 85 93 97 83 85 79 69 85 87 95 77 77 75 79 79 81 77 64 58 58 81 75 79 73 93 75 69 81 113 229 386 480 517 527 382 336 545 615 541 565 553 559 519 458 430 434 450 478 468 426 394 362 336 300 264 260 237 272 292 340 426 438 474 482 466 420 420 394 402 398 354 304 252 213 237 231 215 
99 99 87 95 91 89 79 85 83 79 85 95 89 75 81 79 77 83 83 66 69 73 62 81 69 75 73 77 66 69 97 168 386 658 689 691 656 646 627 697 732 596 525 474 470 446 426 412 418 436 472 464 428 402 376 344 292 278 266 245 286 318 350 416 448 462 466 448 426 382 378 372 372 328 260 223 241 221 233 223 
95 87 97 107 111 99 75 99 83 79 85 95 77 73 77 81 75 75 83 71 66 69 87 75 75 79 64 75 69 83 101 195 428 699 705 685 627 619 635 674 726 660 478 410 428 426 414 426 436 464 486 476 452 420 392 350 310 278 270 262 314 354 376 396 426 452 472 492 458 452 468 474 440 418 370 306 237 235 243 223 
103 91 91 105 99 83 95 77 79 91 81 87 87 69 75 79 87 75 81 71 58 77 85 75 60 75 73 69 62 77 103 191 432 705 701 695 625 625 629 631 707 646 507 513 527 505 446 420 434 462 490 496 456 446 394 344 316 296 282 276 308 344 354 346 362 432 448 448 454 462 462 440 408 384 362 308 235 235 217 217 
85 89 93 93 81 79 81 85 77 73 83 81 83 83 79 87 77 81 73 73 71 69 69 73 73 81 66 71 77 73 91 158 312 608 660 670 658 629 513 498 604 529 543 565 563 551 484 424 416 416 428 430 436 436 406 356 318 302 296 286 312 354 362 318 338 394 428 448 424 400 398 370 370 358 334 286 229 225 203 203 
95 97 83 81 83 85 91 77 89 75 85 107 93 64 75 83 81 69 66 58 58 66 81 64 60 71 69 73 73 69 77 101 213 364 472 436 398 260 134 191 306 386 523 557 553 535 502 422 406 382 396 404 410 422 408 378 344 332 326 324 338 384 366 316 334 394 422 408 390 362 348 302 280 262 254 235 223 227 211 193 
91 85 89 85 85 89 91 83 101 99 93 99 77 81 69 83 75 79 71 58 66 75 73 75 75 81 75 71 77 66 73 81 107 122 128 107 101 83 85 91 128 402 486 490 484 488 492 438 420 408 418 422 428 448 440 406 388 370 368 354 348 348 338 314 338 384 384 352 322 252 191 118 105 83 81 122 223 221 243 221 
101 89 111 89 87 89 79 91 93 99 101 95 85 77 79 73 83 73 81 73 69 71 71 89 77 73 79 69 60 75 75 66 73 71 73 69 69 69 85 73 91 292 472 440 420 432 410 426 490 543 553 519 502 488 448 416 392 358 370 360 334 310 276 241 239 217 174 132 118 103 85 52 50 46 54 113 241 260 260 260 
95 87 85 95 89 85 91 91 101 87 87 95 73 75 91 83 73 73 66 66 77 69 85 85 83 71 75 75 66 64 77 81 66 60 64 52 60 62 62 71 69 162 408 450 490 448 436 398 511 598 600 623 617 576 553 549 507 418 390 408 438 416 400 352 320 219 168 118 107 95 83 73 56 42 44 130 256 276 280 260 
107 95 85 99 83 89 79 75 83 97 87 87 77 83 81 77 75 69 75 64 75 69 58 66 66 69 69 75 69 64 69 62 56 64 54 54 62 48 62 62 50 85 160 320 392 378 328 352 505 549 551 592 590 568 549 555 545 511 509 531 545 561 535 396 296 237 213 164 134 124 132 118 113 79 85 134 235 274 264 221 
111 101 103 89 81 91 101 87 81 97 79 95 93 81 75 66 77 73 77 71 73 73 64 66 62 69 79 66 60 60 75 58 52 44 54 58 44 50 69 48 62 66 58 79 97 150 180 258 328 215 213 272 384 440 484 468 448 478 444 426 436 509 511 344 223 241 215 176 154 140 146 152 158 142 97 136 187 191 148 128 
113 93 99 101 73 81 97 77 89 81 95 95 85 81 75 87 89 73 77 64 69 75 79 79 60 73 71 64 62 58 58 60 64 54 44 50 50 46 54 58 52 69 50 60 60 66 79 99 101 81 83 93 138 189 205 219 233 239 239 256 250 282 318 256 217 223 219 170 170 158 164 170 168 164 105 109 107 105 95 75 
103 109 109 101 91 101 85 91 87 97 95 91 97 77 83 85 85 79 73 83 75 60 58 73 71 71 81 75 77 71 71 69 75 66 48 56 64 62 58 52 54 58 56 52 64 60 75 79 73 71 71 91 124 166 176 193 223 223 235 256 243 221 217 205 209 239 221 199 172 178 187 189 191 185 160 130 105 93 109 83 
103 122 115 99 107 91 85 103 93 101 85 89 95 79 89 89 91 83 81 87 77 69 73 73 62 79 75 75 79 75 79 73 60 62 56 54 60 52 52 56 52 62 60 54 56 60 71 75 73 71 73 83 152 174 201 201 215 209 231 243 213 213 209 205 187 201 195 176 176 166 162 164 164 164 148 120 97 115 97 83 
118 101 99 93 93 89 79 95 89 99 89 87 85 93 83 89 87 91 79 79 69 69 77 69 62 81 89 69 73 77 71 79 58 66 50 52 66 54 48 44 38 58 56 60 69 54 54 73 69 71 73 81 154 193 201 203 213 211 221 225 217 193 158 144 140 126 109 111 111 101 99 75 81 91 99 113 89 115 99 113 
103 99 91 93 89 93 85 87 91 77 83 95 109 79 79 85 77 85 79 69 77 73 62 64 73 66 71 71 75 64 62 71 62 62 52 42 58 48 60 48 44 52 60 50 56 46 54 64 66 79 60 77 142 176 203 215 211 207 213 203 199 168 132 124 115 101 95 89 87 87 66 64 64 75 81 85 85 97 95 60 
109 95 115 107 95 101 83 97 91 97 99 101 85 93 79 85 89 69 64 73 73 71 71 79 81 71 75 60 71 66 75 83 52 58 54 52 64 52 40 54 46 64 50 52 56 50 64 69 64 64 73 73 148 170 199 199 213 203 201 223 197 174 136 126 128 107 113 109 113 97 60 69 75 73 91 99 91 83 79 83 
109 101 95 105 101 93 81 89 85 83 91 97 93 81 75 83 89 79 69 73 71 75 79 73 83 77 77 69 73 62 66 71 62 54 56 58 48 52 54 54 52 50 44 50 44 48 54 66 62 58 60 71 132 178 187 199 195 215 221 207 205 174 166 162 156 156 146 144 152 144 134 128 107 91 95 99 95 87 79 79 
107 95 83 95 79 93 87 85 87 81 97 95 89 87 85 79 87 83 79 79 66 77 66 66 79 83 71 62 71 58 71 60 64 54 42 44 50 62 58 56 48 56 50 52 56 42 58 62 64 58 64 81 130 158 170 178 185 199 209 205 195 187 187 185 193 180 187 176 176 203 193 201 174 132 113 115 97 91 77 56 
91 81 95 95 89 93 77 95 103 87 91 93 97 77 77 81 85 83 75 79 73 73 75 81 75 73 77 62 64 75 73 64 66 56 48 46 58 60 64 56 44 52 52 38 44 54 58 62 73 71 69 69 93 132 152 162 174 185 209 199 201 187 180 185 183 174 178 183 189 199 205 225 217 174 148 120 85 83 73 66 
103 101 101 115 103 85 87 89 62 91 71 103 87 89 85 87 89 77 83 62 73 79 75 77 71 60 79 62 69 75 79 62 56 60 54 58 48 52 56 54 46 58 44 44 38 54 54 64 56 52 64 64 56 79 93 105 118 130 144 156 162 164 164 170 176 170 154 172 172 189 221 229 252 233 205 134 58 60 73 50 
111 87 91 113 93 87 97 87 89 87 81 103 85 87 69 81 79 85 75 71 64 79 64 75 62 71 75 81 75 73 66 58 52 56 60 48 52 48 46 48 54 46 38 46 44 50 52 62 50 62 56 56 56 62 62 62 71 75 83 83 81 75 95 115 124 134 105 101 113 160 203 235 237 245 227 105 69 71 60 46 
105 93 91 109 99 87 91 93 91 77 93 87 95 87 83 79 81 75 64 66 73 73 83 75 62 79 62 62 62 71 64 62 60 56 64 58 56 50 44 46 40 42 50 38 42 50 66 50 54 50 56 46 52 52 54 60 60 60 79 79 69 52 69 97 103 93 69 66 91 138 191 221 256 221 180 95 48 46 46 48 
111 83 103 95 99 81 85 81 93 85 85 95 95 99 85 87 87 75 81 71 66 71 66 71 71 79 69 62 69 58 64 75 66 56 54 60 52 48 48 52 44 54 52 52 52 52 54 54 50 48 54 40 33 40 48 40 60 66 71 71 54 52 48 89 77 99 44 25 71 132 187 217 250 233 140 95 46 58 60 36 
87 95 89 107 91 81 99 81 87 91 87 87 99 109 85 89 93 87 62 77 73 62 60 73 81 75 71 64 64 62 75 66 56 56 50 46 54 42 56 66 52 64 56 52 64 52 52 62 58 42 52 56 58 58 56 56 52 54 71 60 50 50 48 79 83 83 40 40 64 132 199 219 252 233 144 73 42 58 66 50 
107 95 103 101 109 101 101 99 89 107 81 101 113 105 95 83 77 85 89 81 75 79 75 81 73 83 73 79 81 54 85 79 66 60 56 54 46 46 50 44 40 54 44 48 58 54 73 66 52 50 42 46 64 56 62 56 58 60 71 73 52 52 58 64 71 66 42 27 62 144 193 203 252 215 130 66 31 56 60 46 
115 107 105 105 95 97 87 87 97 89 91 87 101 91 95 101 83 93 85 73 69 79 81 66 75 85 75 81 77 73 75 66 60 64 56 60 48 50 44 48 44 64 46 58 62 46 77 66 56 58 62 50 48 54 62 54 58 56 66 60 56 44 42 58 77 69 48 42 60 146 180 164 205 178 128 77 44 62 52 54 
109 101 87 85 87 85 87 87 73 71 89 91 95 97 89 93 89 85 85 75 73 73 64 69 77 69 75 71 85 64 58 69 56 60 44 46 42 48 46 42 46 71 40 40 58 58 64 69 60 54 64 56 46 48 50 54 52 58 62 64 48 25 48 64 62 58 29 42 62 122 176 126 152 142 111 77 46 46 50 95 
113 93 107 95 93 85 87 97 83 103 79 93 103 95 83 93 83 81 77 64 54 62 81 73 69 77 66 62 71 64 56 69 66 56 44 48 46 50 50 52 44 50 54 36 52 48 52 54 54 52 56 46 36 56 52 38 52 58 69 60 50 38 54 56 56 48 31 31 60 113 164 142 136 118 103 62 60 62 60 64 
97 91 111 93 99 97 93 95 75 83 81 77 85 85 93 99 85 79 71 71 52 71 79 81 62 69 77 77 73 64 62 73 60 62 58 46 50 54 48 50 40 50 46 36 56 40 48 64 56 52 54 52 33 42 56 52 52 52 52 56 44 36 42 64 56 40 23 33 71 113 168 126 111 101 97 64 46 58 64 71 
107 101 105 105 97 103 95 97 89 99 101 91 101 109 91 99 81 89 71 62 71 64 79 87 73 69 75 73 79 64 69 60 69 64 50 46 54 31 50 44 40 56 46 48 52 31 56 58 46 48 56 46 44 38 40 44 48 58 69 66 50 52 48 58 58 42 31 40 73 118 185 156 130 111 97 81 58 42 60 52 
109 97 109 101 85 91 87 81 101 85 95 101 111 91 93 95 79 89 81 66 77 83 101 89 73 69 91 87 87 85 83 79 79 66 69 54 52 64 69 64 56 73 60 58 69 62 79 83 64 64 75 60 54 71 85 79 66 77 81 91 83 75 71 83 81 79 56 69 103 118 199 176 160 101 103 85 75 54 60 71 


