P2
80 60
492
62 78 68 64 62 70 80 74 74 80 70 68 74 84 74 64 70 76 54 74 48 52 48 46 38 36 44 32 32 30 14 10 24 26 6 8 14 16 16 2 2 16 30 22 14 16 14 14 36 32 30 38 32 52 44 38 44 46 54 54 50 42 72 56 56 50 48 48 54 56 52 42 60 42 42 38 38 30 44 30 
70 80 52 72 56 66 64 66 60 64 82 70 66 58 64 64 64 58 44 56 52 44 46 32 38 26 50 32 22 20 4 8 22 14 16 26 10 22 30 20 16 12 36 18 30 16 22 18 28 42 38 32 40 54 50 44 40 52 58 44 42 58 60 54 48 62 58 46 38 58 56 46 64 34 46 52 30 38 20 36 
62 70 54 64 78 72 60 72 74 76 64 62 58 54 78 58 46 66 56 64 46 56 48 40 44 36 40 48 32 40 18 14 26 34 24 28 28 22 32 28 30 26 44 24 30 12 24 38 40 36 36 38 56 64 52 50 56 68 54 62 56 52 68 50 62 66 62 64 56 60 62 78 54 48 50 40 48 42 32 42 
58 64 56 80 56 72 72 74 74 70 68 74 60 42 66 52 56 60 60 56 54 38 48 46 44 46 62 34 36 40 30 38 32 34 38 36 34 28 22 26 24 28 50 26 34 24 24 22 40 44 54 38 54 46 66 56 56 68 70 56 64 72 54 66 46 48 58 62 48 60 58 66 70 50 50 42 38 38 34 48 
74 72 54 74 72 68 78 84 68 58 74 76 72 70 76 80 62 68 62 74 58 50 54 48 54 48 48 52 40 52 40 26 40 46 46 50 46 26 46 40 36 34 38 26 40 42 44 50 46 62 48 64 64 64 62 70 68 58 78 68 66 60 56 68 58 66 56 72 50 64 68 70 76 66 58 42 58 46 52 50 
54 60 56 72 72 62 74 78 66 74 82 78 88 82 80 64 74 74 50 60 58 60 52 52 54 66 54 50 44 48 54 34 42 52 50 50 44 44 36 44 38 52 36 40 34 34 44 50 44 50 52 60 60 56 64 72 70 72 70 76 66 74 60 60 60 56 66 70 58 60 78 74 72 62 54 64 54 54 58 28 
68 52 62 58 66 84 58 76 76 70 76 74 76 76 92 72 72 80 72 70 68 74 58 44 58 52 46 60 50 60 42 38 46 52 58 54 50 44 46 46 42 52 42 48 44 46 48 52 50 54 64 68 58 56 68 64 62 62 66 68 62 74 56 66 56 74 70 64 66 80 78 60 62 66 68 72 58 64 42 28 
50 74 60 68 86 78 52 76 66 80 70 60 72 90 80 80 74 66 58 68 80 58 52 56 56 66 74 46 52 56 52 46 58 50 52 46 58 44 54 44 54 58 50 42 42 48 50 54 62 56 70 62 76 62 72 70 74 64 76 84 78 84 74 66 70 84 66 70 64 78 64 70 78 66 68 76 60 58 44 42 
46 60 70 64 70 76 54 88 64 76 68 82 70 72 72 70 78 66 56 80 64 56 62 58 58 60 70 50 56 68 44 44 56 60 60 64 56 52 50 44 52 38 56 46 32 38 42 56 56 52 70 58 76 68 66 74 68 72 68 78 72 68 76 76 66 68 66 72 76 78 76 78 80 62 66 78 54 64 38 30 
52 78 72 74 72 96 78 70 72 86 76 70 84 70 72 80 74 78 80 74 64 70 72 58 58 64 60 58 78 60 54 36 48 64 70 62 66 54 50 56 64 54 52 40 36 40 56 68 64 62 66 66 70 60 66 56 62 74 74 62 62 74 64 56 76 70 78 64 80 70 76 86 78 70 66 74 68 62 54 48 
44 74 80 72 68 86 62 80 70 62 60 66 74 72 82 86 82 82 72 70 68 68 70 68 60 64 72 56 62 62 54 54 58 62 62 72 58 58 58 52 56 58 58 56 52 56 60 62 64 64 58 56 68 54 74 62 66 74 64 62 72 74 60 64 70 66 68 66 78 68 80 72 80 88 76 70 62 66 54 52 
52 78 76 72 64 82 92 78 64 62 82 68 62 70 78 74 80 72 72 64 82 70 74 58 54 62 64 62 60 66 54 54 62 66 60 70 72 64 60 50 70 54 70 60 62 64 58 50 64 62 64 58 68 52 68 52 64 78 62 62 68 68 62 58 64 74 70 84 78 70 70 78 92 78 86 72 70 60 62 72 
62 74 76 58 84 84 74 82 74 72 76 78 58 62 66 68 74 80 76 76 60 64 64 52 60 42 62 56 68 72 48 56 70 76 62 70 76 46 64 68 66 66 54 62 70 68 58 60 62 66 74 66 64 66 76 58 64 74 74 68 74 62 58 46 60 60 76 70 78 72 68 88 84 84 68 60 54 58 60 56 
72 74 76 62 64 78 74 84 68 72 74 66 62 68 70 62 84 80 76 74 76 64 68 54 46 70 56 58 56 64 42 50 54 60 52 82 68 64 86 72 82 68 70 88 78 66 72 70 76 76 80 74 66 72 68 72 74 74 70 80 62 70 74 56 64 66 70 86 86 88 84 82 98 92 76 64 70 54 54 60 
64 74 76 74 70 80 74 68 64 60 68 62 66 70 66 64 74 70 58 60 50 74 62 54 48 60 62 54 66 62 54 58 62 78 72 96 90 80 86 82 78 78 84 90 92 92 88 72 80 76 92 82 82 74 70 80 70 78 82 78 80 68 66 70 76 86 86 84 90 90 80 94 94 86 92 78 72 58 54 60 
48 76 64 68 68 82 76 82 54 70 70 66 66 64 64 58 64 72 72 78 66 64 66 48 52 62 58 74 58 72 58 62 80 102 102 108 96 92 94 92 82 76 84 86 102 102 94 90 88 76 90 84 86 82 78 78 94 86 90 84 100 78 78 80 82 86 82 90 106 94 80 96 90 82 82 70 74 72 64 64 
58 76 78 64 80 60 56 70 64 82 68 76 68 68 76 82 62 70 78 68 76 64 54 70 68 64 72 76 76 84 66 82 98 96 110 102 116 112 108 104 86 80 90 84 94 110 104 100 82 94 96 94 102 86 90 88 94 90 96 96 98 94 94 80 88 74 106 96 96 94 90 86 108 94 82 82 72 66 70 70 
52 78 66 76 76 70 72 80 58 82 62 70 70 82 84 80 92 84 82 92 76 72 72 66 74 84 88 90 82 92 76 72 98 118 120 116 122 124 114 104 92 98 104 94 86 104 100 108 102 116 104 102 114 100 96 98 100 100 84 98 96 92 92 92 104 104 100 110 104 104 108 114 110 94 98 92 84 78 66 66 
58 92 78 70 74 74 86 78 78 86 74 58 72 78 78 84 94 76 96 78 66 68 86 66 66 70 88 92 90 88 84 88 118 118 126 140 148 136 134 118 100 92 102 100 92 98 118 108 118 124 120 128 112 122 112 108 102 102 94 106 106 104 118 118 122 122 110 140 136 132 132 132 130 116 110 88 94 92 80 68 
66 76 84 74 92 78 82 82 70 72 68 80 78 74 80 90 70 76 82 82 72 72 92 74 88 82 82 86 88 104 84 100 128 132 148 160 164 176 200 182 196 168 132 98 102 108 112 124 120 130 126 136 126 124 122 106 102 108 114 124 140 168 176 160 170 150 142 198 216 194 214 227 224 208 166 116 110 100 86 84 
68 78 66 74 84 78 72 94 68 70 80 84 78 82 78 88 84 88 80 92 96 78 100 82 80 90 84 92 98 104 86 92 134 182 235 245 253 257 341 394 405 376 290 148 100 102 122 110 128 130 134 130 134 132 122 110 122 150 186 200 214 224 218 216 200 178 156 204 263 253 249 245 294 294 269 204 162 116 106 80 
58 74 82 72 80 76 74 88 64 76 64 82 70 80 76 72 74 74 88 96 90 76 82 76 92 78 94 98 98 124 106 184 324 361 349 345 336 306 390 429 432 403 347 154 94 108 116 122 124 122 130 142 148 128 144 144 160 170 178 194 198 212 216 210 202 192 180 186 259 267 229 251 298 312 328 290 259 210 182 140 
70 80 78 92 68 74 84 84 68 72 84 80 70 74 86 76 80 78 70 88 78 90 86 86 96 90 94 96 118 132 184 310 347 368 359 368 355 365 415 430 442 401 279 112 104 96 108 124 122 124 130 146 148 158 172 162 164 164 178 186 188 208 216 216 216 194 196 204 243 269 253 259 265 296 308 294 290 265 265 243 
64 68 88 82 80 86 74 78 70 72 80 78 86 86 84 84 78 80 84 96 94 88 88 86 86 94 94 102 116 178 339 345 337 281 214 229 304 345 388 405 399 370 224 118 106 118 124 140 144 166 146 168 168 178 190 170 170 166 206 206 202 204 208 218 200 194 192 190 227 227 239 255 267 298 290 304 298 289 290 281 
68 84 72 88 76 88 80 90 72 78 70 86 82 82 80 84 92 88 90 84 90 98 86 80 98 88 92 104 126 283 374 324 285 245 231 170 224 337 376 392 367 320 257 212 188 186 170 186 170 176 168 188 182 186 190 196 194 204 212 204 204 206 200 218 196 172 166 176 176 170 174 210 239 245 229 212 231 239 243 247 
62 76 68 72 80 88 80 76 72 76 78 72 68 76 84 78 86 86 84 94 84 92 82 82 86 84 102 120 150 322 363 347 289 261 285 261 298 322 341 337 312 290 273 249 210 206 198 174 158 174 178 172 192 194 216 210 210 214 226 202 202 206 200 196 184 178 154 154 142 120 114 134 154 136 126 120 114 122 134 122 
44 78 62 60 68 72 70 76 66 70 66 70 72 78 78 78 78 84 82 88 78 96 84 72 80 82 90 108 160 337 355 328 320 312 320 318 330 318 314 279 273 275 279 245 206 206 210 166 150 170 154 170 200 220 235 218 216 210 227 204 198 186 200 170 172 164 148 134 128 126 108 120 124 132 108 100 92 104 86 78 
56 58 64 68 68 70 70 92 68 82 66 84 60 62 78 66 74 98 96 94 104 126 128 168 170 114 96 108 216 316 347 349 326 336 349 355 341 279 263 281 279 283 269 220 212 206 184 170 138 152 140 156 218 233 243 226 231 227 206 220 206 194 184 168 144 124 116 118 120 118 112 120 116 106 108 90 94 84 90 82 
48 70 70 74 72 84 68 78 66 72 70 70 58 66 78 60 86 110 138 212 220 226 261 343 384 269 216 210 336 349 376 349 359 355 361 339 339 235 261 292 300 296 279 227 200 212 196 170 136 148 138 156 216 251 241 239 235 237 227 218 210 176 146 102 116 116 124 130 108 118 112 114 116 108 92 90 94 100 110 62 
36 62 64 70 76 76 54 82 72 70 68 58 58 64 72 58 80 104 204 341 296 351 442 471 475 458 438 446 398 343 386 374 365 336 332 341 324 204 245 316 302 312 271 227 210 220 208 168 138 128 138 174 216 241 261 257 241 249 255 235 196 148 110 112 128 128 130 124 118 106 104 108 106 92 98 90 94 74 90 86 
52 64 80 78 78 66 66 72 70 74 64 68 66 72 72 78 82 114 229 370 363 454 460 423 390 461 446 491 396 339 384 378 359 341 334 341 337 285 290 328 318 316 281 222 210 220 218 182 124 96 136 172 227 251 271 257 263 273 269 257 255 216 200 158 156 152 138 138 128 118 110 110 114 98 88 92 90 82 80 78 
54 62 72 64 88 78 68 86 72 58 64 66 68 86 86 82 86 104 196 378 417 492 467 425 384 442 436 471 398 336 357 380 363 316 326 351 337 339 324 337 334 324 294 249 229 222 226 180 78 28 112 182 233 255 261 259 261 285 277 261 275 263 263 231 237 222 170 158 138 138 126 108 108 96 96 90 88 86 86 78 
62 74 62 88 72 64 82 82 70 62 70 74 76 92 90 86 90 88 154 357 394 477 461 440 413 411 423 452 411 357 384 388 349 334 322 347 351 336 310 337 347 324 302 263 247 218 204 164 84 10 72 148 198 227 249 255 259 269 269 287 275 273 279 271 267 243 237 222 214 174 140 146 158 154 150 120 118 108 114 116 
50 84 70 70 70 70 70 68 60 76 76 72 78 94 80 74 84 84 96 249 267 372 423 434 436 396 349 318 320 336 353 368 343 322 300 308 341 341 318 324 330 334 312 251 255 224 210 172 110 116 68 48 162 202 237 255 259 257 265 271 279 271 277 263 277 263 237 245 237 263 241 253 273 241 263 261 247 241 229 212 
52 76 68 90 74 88 66 78 74 82 80 64 80 86 86 80 84 96 98 100 124 180 212 304 292 198 138 138 198 337 336 345 341 324 300 287 330 337 308 306 324 345 328 271 247 227 210 190 182 138 114 72 106 178 224 245 251 263 269 257 265 279 261 265 269 255 259 243 233 275 265 259 294 283 302 324 314 292 294 267 
60 66 80 82 78 70 84 72 64 74 70 74 84 88 84 78 92 90 86 96 88 98 94 110 114 100 96 120 158 318 322 322 334 308 296 300 314 339 308 330 336 337 345 267 251 224 214 212 182 142 122 96 120 170 216 239 245 251 239 237 237 247 253 251 271 259 239 222 233 255 255 265 292 292 306 328 314 290 283 263 
66 68 80 68 66 88 70 78 74 70 76 68 78 74 78 100 82 74 74 94 86 82 100 86 88 94 98 104 132 283 337 285 298 275 275 253 292 326 353 351 349 347 365 306 249 235 210 216 194 162 140 152 150 170 198 214 222 229 220 222 212 214 226 224 224 218 202 196 206 241 247 271 300 302 324 310 271 222 180 128 
48 64 76 78 74 74 70 78 66 62 72 66 68 74 84 82 90 78 84 92 86 76 88 84 98 88 90 96 116 255 361 287 198 124 118 216 261 328 394 372 370 339 326 255 227 220 220 212 182 158 144 164 140 174 178 176 176 186 186 170 168 180 206 200 214 212 172 182 180 194 202 224 241 259 220 198 152 132 106 98 
64 72 72 72 74 72 86 88 78 66 74 70 74 94 84 94 94 72 84 92 88 84 88 90 94 94 92 108 112 208 339 316 231 104 32 138 292 351 417 423 398 361 226 138 130 146 160 164 142 164 156 114 128 116 82 80 132 154 140 140 146 152 154 166 172 172 158 148 140 122 128 128 138 126 128 128 106 114 104 106 
50 76 78 82 76 86 68 72 72 80 74 66 70 74 82 86 82 82 82 94 80 78 88 86 88 82 88 96 100 130 243 337 314 231 226 314 365 363 425 440 417 380 237 110 114 118 110 122 122 130 128 122 100 82 82 72 108 100 102 100 104 122 118 118 134 130 122 120 104 112 120 110 114 94 92 106 100 120 92 98 
56 86 84 72 76 68 62 74 68 68 56 76 74 72 76 80 68 78 64 86 82 68 74 74 82 80 88 82 94 110 104 196 310 290 302 302 310 343 403 440 411 382 273 126 112 110 118 118 140 132 140 136 110 100 94 98 98 92 96 88 84 86 92 90 102 108 108 98 98 112 110 90 96 90 82 94 84 106 94 92 
62 76 66 68 76 60 68 74 66 64 66 72 58 56 92 66 80 80 76 76 76 66 78 60 80 74 76 74 72 88 86 94 148 202 239 247 257 351 407 436 423 386 320 132 108 110 122 140 140 150 146 138 122 110 90 88 88 80 86 88 74 82 66 82 90 94 106 98 86 106 94 80 86 70 82 92 82 86 82 88 
66 68 74 58 64 76 74 74 62 86 64 62 66 88 78 76 72 84 80 74 62 66 68 70 82 64 80 64 60 72 70 78 90 116 158 158 194 239 310 378 394 361 277 124 98 108 126 140 140 150 166 150 132 106 86 80 84 88 82 84 76 76 74 72 82 100 90 80 90 100 86 72 72 74 76 78 80 92 72 72 
60 72 70 60 66 70 70 80 64 72 64 62 64 70 58 68 62 72 78 80 78 62 62 62 70 72 76 62 66 64 76 74 68 88 88 106 134 154 144 156 152 164 112 84 100 102 124 144 158 168 166 138 118 98 80 78 78 68 78 78 80 70 58 74 74 78 78 86 86 76 78 72 66 76 68 76 78 82 78 70 
48 58 90 80 64 72 68 78 70 76 70 66 70 66 76 78 74 80 80 78 68 58 72 64 70 74 70 68 70 74 68 76 80 90 74 88 90 90 84 76 78 72 80 72 106 112 146 152 166 164 166 140 132 98 90 66 68 80 72 74 82 68 70 66 70 72 78 76 78 66 66 52 66 62 76 78 86 82 88 76 
44 70 70 72 72 74 84 82 70 66 62 52 70 62 72 70 72 82 70 80 70 72 62 64 68 54 64 72 82 80 82 84 88 104 98 96 82 82 82 62 66 68 84 86 110 122 146 160 158 154 158 138 126 100 72 74 64 74 70 58 72 66 74 68 76 74 78 76 82 68 76 74 80 66 70 84 84 88 76 88 
44 80 62 74 70 70 82 80 74 72 86 62 76 70 78 68 74 72 78 70 74 56 82 62 68 68 80 70 80 86 84 98 100 106 108 92 90 96 84 74 72 80 86 82 94 128 154 162 158 146 148 130 114 102 84 78 72 72 78 64 84 72 68 68 78 86 72 84 88 88 84 86 74 86 76 78 68 76 72 80 
62 78 62 72 64 80 68 78 80 92 84 84 72 78 84 80 86 68 88 92 70 76 78 66 76 68 84 72 74 94 86 92 94 100 104 90 90 92 98 78 74 80 98 90 104 124 132 134 140 134 128 120 122 104 82 68 78 80 88 88 78 80 82 78 86 90 86 82 84 82 78 80 86 78 90 86 76 78 72 78 
62 72 82 72 74 58 66 76 76 66 86 68 60 82 70 72 70 86 70 78 64 66 68 68 66 80 82 68 74 78 92 92 92 100 94 90 80 80 78 78 70 84 82 92 100 104 112 122 132 126 120 116 102 94 82 70 66 84 82 82 60 84 74 58 74 84 82 94 72 86 84 92 82 84 72 76 72 76 64 72 
52 64 68 80 64 80 72 68 58 62 70 76 58 74 78 58 86 70 86 62 62 62 56 68 56 68 66 66 72 82 82 64 84 98 80 72 74 74 72 64 62 62 78 78 92 94 94 96 96 104 102 106 100 82 72 64 66 84 58 80 70 72 60 62 58 74 84 78 72 72 72 76 82 88 82 86 78 70 58 58 
58 72 64 76 68 80 76 62 68 72 78 64 68 72 80 74 64 72 74 72 64 64 62 56 52 56 66 66 60 68 66 60 78 84 66 66 70 60 56 70 54 66 74 80 76 72 82 96 86 94 92 84 82 82 72 74 70 70 68 64 64 72 56 48 66 72 74 66 72 66 92 66 90 60 88 76 80 78 58 72 
56 50 62 76 90 62 78 68 72 80 72 74 76 74 90 78 78 86 86 78 62 70 66 64 50 64 52 60 74 56 46 60 60 52 62 68 66 54 62 44 44 54 68 64 70 64 64 72 80 80 86 90 80 74 56 62 62 72 64 62 70 76 66 64 62 82 66 64 72 76 74 70 82 74 78 90 76 78 74 64 
46 70 70 82 76 78 58 66 46 66 74 64 76 60 86 82 64 66 82 80 68 62 78 60 48 48 56 52 52 52 48 54 52 58 52 66 50 46 50 40 42 62 58 56 54 52 50 46 60 66 70 68 66 62 44 60 64 64 50 68 60 54 52 50 60 64 62 66 44 62 60 56 70 52 70 66 84 78 60 66 
52 66 60 68 74 76 70 70 60 56 80 70 54 72 84 76 74 66 66 82 68 62 72 64 64 56 62 54 44 48 36 40 58 52 34 52 44 44 42 36 36 48 58 42 48 50 50 74 50 48 70 64 54 58 58 64 64 62 64 68 60 66 70 54 56 52 52 76 48 58 72 64 78 62 74 90 60 72 68 74 
50 60 62 72 68 64 58 72 58 68 58 58 70 56 84 62 68 68 62 70 70 60 52 60 60 52 42 42 50 38 30 28 52 46 28 42 34 30 46 38 42 46 46 38 32 32 54 48 44 48 50 48 56 58 68 42 52 58 56 58 46 42 58 48 64 58 60 50 50 58 60 46 64 66 74 90 84 84 88 72 
46 56 62 54 54 48 48 48 42 70 50 64 56 70 86 64 62 68 66 58 58 62 58 30 54 34 46 38 38 40 34 28 30 30 26 32 40 28 42 44 28 36 34 34 30 26 34 46 30 24 48 42 44 50 50 50 54 46 50 56 48 52 42 52 54 52 54 46 54 64 46 44 60 76 84 86 76 78 84 72 
28 64 50 38 52 50 56 60 42 62 50 42 54 56 86 50 64 60 68 60 60 60 46 52 44 34 34 50 42 36 22 16 28 20 32 16 22 16 30 22 20 26 28 34 32 28 30 32 28 30 46 48 50 34 44 36 34 52 48 44 30 46 40 22 48 40 44 40 40 42 40 50 42 62 68 84 68 78 76 56 
36 54 52 32 44 58 54 40 42 48 70 48 52 60 68 66 64 70 62 40 38 46 50 40 48 38 38 40 32 40 20 18 20 28 18 24 12 18 18 12 22 18 14 24 26 24 14 26 24 22 30 32 34 30 52 44 46 40 38 44 32 22 26 28 40 32 30 50 40 28 30 22 40 72 76 74 62 88 66 80 
34 44 42 42 46 46 44 44 44 46 38 42 48 54 62 48 58 50 54 48 38 36 36 42 36 26 24 32 30 36 26 2 26 28 20 14 14 4 26 2 14 8 24 12 26 28 36 26 8 20 26 32 32 40 40 28 40 40 46 32 38 46 24 22 18 34 32 28 8 38 16 20 46 50 78 90 80 84 80 80 
48 42 50 58 38 58 46 66 44 38 26 34 50 52 50 60 52 62 56 54 28 28 32 34 38 20 22 22 20 32 14 0 10 34 30 14 26 22 8 16 18 12 32 26 36 46 42 28 30 40 24 28 22 38 44 46 40 54 58 50 46 54 46 38 32 34 32 28 16 26 16 26 36 48 72 72 70 82 76 82 


