P2
80 60
547
111 117 105 111 117 109 139 133 139 137 125 123 125 123 115 131 121 127 105 117 99 101 93 89 83 83 87 77 75 67 67 65 63 73 63 55 57 69 71 57 55 69 69 65 55 65 67 69 77 73 77 83 77 103 89 89 99 99 101 105 97 93 113 109 105 93 95 101 107 107 107 91 107 91 85 91 97 79 89 109 
119 121 93 107 105 111 135 129 109 115 127 117 117 103 111 117 111 115 101 97 97 93 93 83 81 69 89 83 69 67 63 63 59 65 69 61 53 63 81 75 59 59 75 65 67 65 83 63 79 85 85 79 85 103 107 95 89 87 103 97 97 111 109 105 93 113 115 103 111 107 109 95 105 81 89 95 89 81 75 113 
99 111 105 113 129 115 119 135 135 129 109 111 111 99 119 105 93 115 109 111 97 101 97 87 75 69 81 91 85 79 71 67 71 69 79 67 75 83 85 79 73 75 85 71 73 53 83 85 85 79 85 83 103 117 107 97 105 103 111 105 111 111 113 109 101 111 121 123 123 113 111 131 93 95 85 103 109 83 83 101 
101 113 107 129 105 119 127 125 125 115 121 125 115 95 105 99 111 105 111 91 107 97 95 99 89 83 105 83 89 87 79 93 77 73 85 75 81 83 85 83 75 73 97 73 75 75 75 75 95 87 101 83 101 103 115 115 107 111 121 107 121 115 107 121 85 105 129 123 107 117 111 125 117 101 103 91 93 93 81 115 
101 113 97 117 115 113 125 135 117 115 123 119 123 107 111 137 105 113 113 113 109 101 91 99 91 97 93 95 89 91 89 87 79 89 99 93 93 77 103 89 91 85 89 71 83 91 95 97 91 105 95 113 101 117 113 115 113 109 113 115 111 109 101 113 109 113 115 125 111 115 125 133 115 115 105 97 103 105 89 103 
97 105 95 119 105 107 131 135 117 127 125 127 133 121 125 109 111 109 107 103 109 113 97 107 93 103 99 99 85 91 97 87 83 89 93 99 79 99 91 93 91 91 87 83 83 85 93 105 101 101 101 119 101 107 117 125 123 119 111 115 115 115 115 117 107 101 129 125 123 117 127 133 121 113 93 107 107 101 101 101 
107 101 111 97 119 125 121 125 127 123 125 133 127 119 123 119 111 129 123 113 117 127 107 95 95 91 95 105 99 103 99 91 91 89 107 99 93 99 103 97 91 105 89 95 85 91 103 97 99 97 103 111 103 111 119 113 121 109 109 117 119 123 111 121 119 125 117 117 137 133 139 127 115 115 107 119 121 125 99 99 
103 117 105 127 139 119 115 137 123 131 115 113 125 123 123 129 117 115 107 115 131 109 97 99 97 111 111 103 99 109 111 99 99 91 101 91 107 91 107 99 101 109 99 91 91 101 103 103 103 101 113 109 123 127 125 119 125 111 123 131 123 121 123 123 131 133 127 121 121 133 119 131 115 115 121 129 111 103 101 127 
89 105 113 115 115 129 119 147 121 121 121 129 121 113 121 121 119 113 113 121 113 109 107 105 101 101 115 103 99 113 103 101 99 99 115 105 99 97 101 99 107 91 103 89 87 99 91 105 97 103 115 111 121 125 113 127 125 113 123 119 127 105 123 125 123 123 125 127 137 143 129 139 121 113 119 127 105 117 101 117 
99 111 105 121 125 143 133 127 125 135 133 129 131 117 109 131 115 117 119 127 119 123 109 105 105 107 93 105 113 101 91 93 87 113 111 99 109 105 95 103 109 103 95 91 83 91 105 115 109 101 107 115 103 113 111 105 115 115 121 109 123 113 115 109 131 121 123 117 135 123 125 143 125 123 111 121 115 111 105 125 
107 111 131 115 123 135 111 135 127 105 113 117 121 117 119 131 125 117 119 123 113 127 113 111 97 105 111 109 103 109 109 103 89 97 115 111 99 109 103 103 105 109 95 101 93 109 111 103 107 107 97 101 107 109 115 113 123 119 111 105 121 123 107 109 117 109 117 113 129 123 125 127 125 127 127 117 115 123 97 119 
105 119 121 121 113 127 143 145 115 115 123 129 121 119 131 123 131 115 125 107 135 125 119 107 107 111 107 103 113 107 111 109 107 103 109 117 111 113 105 105 113 101 105 103 105 109 111 97 119 103 105 107 115 109 119 115 117 123 107 111 115 121 105 107 109 115 127 135 127 127 121 133 141 127 135 125 115 111 105 131 
105 113 121 105 123 141 125 143 133 117 121 127 113 115 113 119 121 123 129 119 109 121 105 105 109 89 103 97 101 107 97 101 105 101 107 111 109 103 119 117 117 113 93 107 119 113 97 103 109 111 121 107 113 117 119 115 117 115 117 111 117 109 105 93 107 117 125 121 127 137 125 141 133 127 105 111 107 111 113 111 
111 117 113 115 111 121 127 133 121 129 129 115 123 117 117 119 123 121 121 115 125 125 105 105 87 99 93 101 107 107 101 107 109 101 103 109 113 119 129 123 131 121 113 135 129 111 121 119 123 115 127 123 111 121 121 123 127 119 111 127 119 121 123 109 109 115 127 141 143 137 137 137 143 131 123 111 119 101 97 117 
107 109 119 121 113 131 131 119 115 119 123 121 115 115 117 117 117 123 113 103 103 127 115 109 97 99 103 101 111 113 119 119 109 119 119 133 135 133 139 133 131 127 131 137 139 147 141 117 121 115 129 129 127 125 121 133 125 117 129 121 129 119 107 115 123 137 143 139 157 151 145 147 133 135 137 127 127 117 113 135 
111 137 99 117 109 125 137 143 109 119 117 113 117 111 105 105 111 123 121 115 127 111 107 99 87 103 101 117 107 113 113 117 107 137 149 145 137 139 139 143 127 125 127 137 147 145 151 135 139 129 131 135 137 137 125 137 143 119 127 125 139 127 129 133 137 135 139 143 159 149 141 149 143 125 127 109 129 123 101 113 
97 123 125 109 119 109 121 123 125 135 121 141 117 115 123 133 117 113 125 125 127 113 101 123 109 109 111 117 131 127 117 133 137 135 157 159 163 155 159 147 141 129 135 123 147 155 163 141 133 137 147 147 149 145 147 135 137 131 137 139 139 141 143 133 135 133 145 157 157 147 151 151 147 139 127 137 133 111 117 145 
99 129 113 123 117 129 121 127 119 135 123 121 131 125 125 121 127 141 125 137 129 119 115 111 109 123 121 125 123 133 129 127 143 159 157 155 163 159 173 149 141 143 139 129 133 151 151 159 151 157 153 145 159 155 149 143 149 133 133 141 149 137 143 135 149 157 153 159 163 157 153 167 151 145 137 139 135 129 127 133 
109 131 127 125 117 121 135 137 129 123 129 113 131 127 127 133 143 129 137 125 121 123 129 125 111 117 135 133 131 131 135 141 147 147 165 183 173 169 171 149 149 141 135 139 135 149 171 161 165 175 163 179 159 181 163 157 159 147 141 133 147 139 151 157 157 149 143 157 163 153 157 169 155 157 137 123 137 139 129 153 
113 119 121 127 141 135 137 141 121 121 129 133 129 117 123 137 127 139 135 129 127 131 131 127 135 127 123 137 131 147 141 143 153 153 167 165 163 163 169 155 145 135 131 141 137 151 169 175 169 187 181 191 171 177 165 163 157 141 151 143 139 155 153 145 153 151 161 157 173 153 161 167 149 155 145 135 149 143 135 149 
123 129 107 119 123 123 125 143 121 117 129 131 123 129 119 139 129 139 131 127 137 125 143 129 125 131 121 133 143 141 147 147 147 151 161 151 157 167 165 153 135 137 127 139 137 149 169 163 167 177 181 179 181 183 173 149 143 141 149 143 151 139 143 161 155 153 161 165 169 169 159 167 155 141 135 135 143 125 137 163 
109 117 121 119 111 127 127 135 125 133 119 127 131 135 125 125 127 123 133 133 131 125 111 117 129 119 135 139 139 157 141 143 143 147 157 165 171 165 163 155 141 147 133 131 127 157 165 169 163 171 175 177 187 175 171 165 151 137 141 145 141 145 145 155 157 155 159 161 175 175 147 155 159 143 147 137 135 129 137 163 
119 135 129 137 113 121 145 139 123 129 139 125 123 123 129 129 131 131 121 131 115 137 129 125 135 127 123 131 145 155 151 141 149 159 167 169 169 159 169 147 155 141 139 133 137 147 151 169 169 157 167 187 181 179 187 165 153 133 127 137 145 151 145 163 163 157 171 175 167 171 171 163 155 143 149 137 157 133 143 185 
123 139 141 123 127 133 121 133 125 129 127 123 133 129 127 127 121 125 123 133 141 139 131 135 129 131 131 139 149 147 151 147 167 169 171 193 197 177 173 171 197 195 169 135 123 137 143 151 149 165 165 177 173 179 185 165 151 131 139 141 139 147 141 161 155 159 177 161 171 169 163 169 155 151 131 153 153 141 129 161 
135 141 131 133 129 133 141 135 129 125 125 139 129 125 129 127 141 129 127 129 139 137 125 125 135 131 141 141 135 131 143 151 161 177 203 243 269 269 300 343 406 433 373 181 127 139 139 149 149 163 171 183 181 181 165 157 139 137 125 131 141 147 143 163 149 163 163 169 175 171 165 177 181 155 155 141 161 153 141 149 
113 117 113 131 125 133 135 135 121 127 131 127 115 121 125 119 135 127 125 133 131 133 131 135 129 123 139 143 147 149 155 165 165 239 314 343 349 336 408 433 476 487 439 271 131 129 137 143 161 175 175 181 175 175 171 161 153 143 149 149 139 151 143 151 149 165 155 167 177 167 165 175 181 175 167 167 159 165 143 153 
101 119 99 113 117 117 133 147 119 127 127 123 123 117 129 119 119 127 121 121 133 133 123 129 123 125 129 135 135 153 153 173 284 410 400 392 381 383 414 425 450 485 456 355 155 129 137 155 155 171 179 177 177 195 191 195 197 193 215 221 213 211 227 211 203 203 187 181 199 205 219 269 284 336 304 300 286 263 223 221 
115 107 117 123 125 121 125 139 111 133 121 131 109 111 121 111 125 125 115 115 111 125 115 111 121 111 111 123 131 137 177 310 429 429 383 379 381 419 443 416 423 466 464 383 177 141 135 157 173 199 205 191 219 209 213 223 215 215 201 233 227 225 257 267 255 249 233 207 235 267 292 310 332 385 377 363 359 341 334 349 
105 119 111 119 133 125 113 129 121 115 125 119 109 119 113 105 121 129 117 119 103 111 107 111 111 111 113 119 121 145 280 398 402 347 245 181 181 302 410 294 328 419 445 390 249 235 231 227 205 243 225 217 219 239 219 219 217 199 199 225 219 219 259 261 269 261 255 235 243 280 308 302 316 357 369 357 349 355 343 334 
93 99 99 125 125 117 111 133 117 127 125 105 109 105 111 103 119 121 111 119 107 121 107 111 97 123 113 121 123 193 406 412 357 300 286 273 263 308 314 306 328 390 392 377 318 294 275 257 253 215 229 225 219 233 239 249 241 227 231 245 245 231 243 259 275 257 257 239 249 300 294 300 312 341 359 359 355 353 343 361 
107 101 123 123 123 125 123 129 121 121 123 123 117 115 109 121 133 121 119 127 115 113 119 111 115 127 119 131 131 245 441 404 385 365 353 355 359 347 294 290 336 379 379 361 318 284 282 273 227 203 223 199 211 249 271 271 265 263 265 267 261 249 255 263 277 265 247 243 251 310 288 312 312 324 330 316 298 273 237 259 
97 99 105 107 123 131 125 141 115 111 123 113 123 125 123 121 125 133 127 127 121 135 125 115 123 131 127 133 147 257 410 412 398 383 379 357 334 304 245 275 330 363 361 367 318 304 275 251 213 197 197 191 195 263 284 282 271 288 286 267 273 249 257 245 261 253 235 223 251 280 251 243 239 223 213 197 185 173 155 195 
97 113 109 123 119 113 141 133 119 119 119 121 133 129 135 131 133 125 131 131 127 131 141 135 137 137 139 147 151 294 390 418 419 410 388 357 316 225 203 255 353 400 388 400 322 277 282 261 235 183 181 185 181 257 296 300 294 300 306 284 265 255 275 261 259 251 255 223 223 207 193 191 179 177 169 163 159 161 163 171 
99 119 121 117 109 123 137 127 125 121 123 125 123 137 121 121 127 125 131 135 135 157 161 165 195 201 171 165 201 357 406 423 419 421 377 318 233 137 169 255 377 406 408 387 328 273 284 278 241 189 167 171 189 257 298 300 282 294 314 306 296 280 292 282 277 271 251 247 225 201 195 209 193 203 205 235 241 255 251 278 
109 115 111 131 109 135 129 133 133 131 131 115 133 129 127 123 131 143 141 137 173 211 219 296 408 427 373 377 412 437 408 431 450 435 359 288 203 129 155 288 402 402 390 387 367 306 284 284 249 169 83 139 181 271 312 310 304 326 343 338 340 338 318 322 320 296 288 286 298 308 282 292 306 326 349 363 359 349 347 343 
103 107 129 139 123 115 141 123 129 131 113 129 133 135 121 133 139 137 145 181 284 341 361 493 542 547 512 511 524 464 381 396 452 427 365 304 215 127 135 290 416 404 410 421 388 316 282 269 233 161 14 97 175 278 328 341 336 338 334 332 332 332 341 320 320 300 294 273 304 320 324 336 330 357 373 398 392 363 340 334 
119 117 109 121 109 139 131 135 119 123 123 115 123 121 111 141 127 125 139 211 371 387 458 532 540 501 524 522 526 497 387 387 452 433 387 326 235 141 133 263 400 419 425 402 388 316 308 280 239 183 155 125 117 241 312 332 332 314 310 310 318 318 322 306 298 280 257 253 271 316 324 347 363 379 387 392 371 326 280 237 
105 123 113 125 113 121 125 131 115 121 109 119 115 121 127 123 135 131 141 219 377 441 538 543 522 454 507 512 512 503 410 408 476 454 402 359 312 225 181 229 324 383 416 392 383 326 341 310 253 225 201 153 65 181 286 298 300 306 294 280 284 300 294 284 280 247 223 225 253 302 324 341 341 371 355 345 294 239 189 185 
101 123 121 117 119 121 141 151 127 119 123 125 121 135 125 137 141 137 137 193 359 452 522 534 536 491 501 474 487 462 406 410 443 427 402 371 338 300 278 249 277 341 400 390 359 322 310 296 263 255 223 159 109 173 249 265 280 280 269 259 275 261 253 253 239 241 223 213 223 233 263 282 282 263 253 219 197 177 167 181 
111 117 127 135 119 141 127 143 133 125 123 121 115 119 129 131 131 133 129 165 241 385 400 464 501 520 491 394 290 265 363 387 394 394 398 353 347 322 314 310 304 334 385 388 373 347 312 278 263 257 215 181 167 207 237 253 245 229 231 223 205 231 233 233 223 223 209 199 191 187 185 185 181 167 175 171 163 171 155 173 
111 133 125 125 135 127 119 149 129 125 117 125 131 129 127 133 129 133 121 145 181 241 251 282 306 312 263 175 165 177 275 404 385 371 375 330 294 302 314 336 316 341 388 396 398 341 308 280 271 241 205 187 187 193 221 213 207 197 207 199 189 185 213 205 199 195 197 183 181 175 177 155 143 139 137 149 145 153 153 163 
123 133 95 113 121 121 121 125 129 119 121 117 115 101 125 131 127 131 131 125 135 137 153 137 147 149 153 133 143 145 199 402 423 345 302 257 181 185 259 340 347 359 377 421 421 361 280 263 211 201 215 189 169 191 169 111 111 159 177 173 171 199 177 181 171 169 177 177 151 163 151 137 129 123 125 143 137 143 141 161 
99 101 107 101 109 125 131 121 135 137 111 117 125 131 119 121 115 131 125 117 121 125 121 117 121 121 139 115 113 133 167 343 431 357 257 147 0 2 155 294 375 318 371 454 450 388 211 191 195 201 213 191 165 155 105 105 125 139 149 147 149 139 149 131 133 157 143 135 153 149 129 121 123 119 121 127 139 149 129 155 
111 121 101 119 117 109 115 127 117 121 125 115 119 111 99 115 105 119 123 121 125 109 109 109 117 119 117 117 113 117 149 209 402 441 363 215 41 113 277 363 388 421 435 478 470 392 201 201 211 209 213 185 157 147 121 123 129 113 125 131 129 129 113 119 119 127 133 143 143 125 123 123 111 111 111 127 127 143 115 147 
99 103 119 135 117 119 127 135 125 121 123 121 123 103 109 123 125 121 123 119 127 111 115 119 111 119 105 121 117 123 127 155 237 388 419 349 286 294 365 375 398 447 462 493 474 385 213 213 215 211 207 187 181 151 149 123 129 121 111 123 133 127 119 109 117 123 145 135 139 125 125 117 123 105 117 123 125 129 131 143 
91 121 115 129 113 127 131 137 123 117 115 103 109 107 119 111 123 129 111 121 121 117 107 115 115 101 115 121 129 135 147 147 157 213 340 381 304 288 318 308 359 435 472 483 476 373 215 217 219 207 201 191 169 151 137 133 113 111 113 103 131 117 125 129 121 123 135 141 143 125 123 127 125 109 107 125 123 135 131 139 
107 127 105 113 117 123 139 133 115 119 135 117 125 121 121 109 123 127 119 117 117 107 121 119 111 107 115 123 129 129 133 161 161 155 197 225 249 249 247 253 322 396 429 449 400 310 219 209 209 191 191 173 163 155 135 125 125 115 125 117 127 111 119 107 125 131 125 135 139 139 127 139 121 131 121 123 127 121 127 143 
115 117 111 115 113 135 123 131 123 143 131 135 121 121 131 125 129 121 135 131 113 127 125 125 127 107 129 127 123 135 143 155 153 155 157 155 155 171 189 197 189 199 239 239 227 203 199 189 197 189 165 169 171 155 133 115 125 123 133 123 123 127 137 125 133 137 135 131 147 137 129 135 131 131 127 135 131 131 137 143 
109 119 117 127 125 117 131 137 121 113 129 121 115 131 115 125 113 131 115 119 119 129 115 123 115 119 131 121 121 129 149 153 141 141 147 139 137 139 145 147 137 139 151 151 161 161 165 181 185 179 169 163 155 143 143 127 125 129 123 129 117 133 127 117 127 129 127 143 133 131 141 147 133 123 129 131 125 123 121 145 
105 113 119 125 127 125 127 131 119 121 119 131 117 123 127 107 133 125 127 115 115 117 113 117 109 113 115 105 127 131 141 137 135 141 133 129 123 131 129 123 125 117 131 141 147 157 151 151 153 157 143 153 133 137 131 127 127 131 123 123 129 131 119 123 119 127 139 137 131 135 127 139 127 135 133 133 135 135 123 139 
113 121 111 133 115 119 125 127 127 129 135 111 123 115 117 127 119 125 125 121 115 115 113 111 103 101 105 125 111 115 135 125 133 125 117 121 105 109 113 115 105 119 119 135 121 127 131 143 133 133 133 135 129 135 131 123 123 117 119 111 113 123 115 107 125 119 129 123 131 131 139 115 121 103 139 119 119 121 111 131 
101 97 113 113 127 115 127 133 139 133 125 131 127 113 131 125 125 129 125 115 113 117 111 119 103 111 95 109 109 101 107 123 113 103 117 111 103 103 113 101 99 107 117 111 111 121 113 129 129 123 123 133 135 119 117 117 109 121 119 109 115 123 113 111 111 129 115 125 125 137 127 119 131 109 127 141 129 117 113 139 
99 125 117 123 121 135 115 129 103 121 123 113 127 109 125 121 111 117 127 123 117 123 117 109 89 99 103 103 97 101 101 111 99 101 105 117 95 103 101 99 97 107 95 105 95 103 109 101 113 107 117 125 117 117 103 113 117 115 107 115 111 109 95 107 105 113 117 123 103 115 109 111 127 105 115 117 133 139 115 129 
101 121 111 129 119 133 125 123 125 117 127 121 107 109 121 121 129 121 119 117 125 125 117 105 113 97 101 105 99 99 91 103 105 95 95 93 91 101 107 97 91 99 103 97 93 103 107 115 105 93 105 101 109 111 107 109 117 111 109 117 113 111 123 107 111 97 113 123 113 123 111 127 127 109 125 139 121 123 123 127 
91 115 105 123 123 125 111 127 121 129 107 117 121 111 119 107 123 117 107 115 119 117 101 99 103 97 95 99 99 91 83 89 97 97 95 89 87 87 97 101 97 103 93 87 85 85 103 99 97 93 97 97 99 103 123 101 109 113 103 117 97 101 113 111 119 105 115 111 111 117 119 97 117 121 133 129 135 131 119 135 
97 109 99 111 101 97 105 113 105 125 107 119 107 123 119 105 113 117 117 103 105 109 103 77 93 89 87 91 85 87 93 81 79 73 85 81 91 87 89 99 85 83 77 91 83 73 79 93 81 83 105 101 85 111 103 101 103 91 93 107 101 105 91 107 107 105 109 115 109 113 107 103 103 123 129 129 131 131 129 143 
87 113 105 91 101 113 111 121 99 113 103 107 109 113 119 103 107 105 119 109 109 111 89 99 87 81 73 97 77 83 87 69 71 65 85 69 73 71 85 85 71 79 75 77 69 73 83 83 81 75 89 103 87 103 99 91 89 101 97 91 81 97 93 83 99 93 93 105 109 101 95 109 89 115 115 133 127 123 121 131 
81 93 95 87 93 103 115 107 91 117 119 97 101 105 109 103 113 117 119 87 85 103 89 89 93 79 73 83 77 73 61 69 65 59 69 65 61 73 67 69 71 61 57 71 71 75 67 75 71 77 69 83 79 89 99 93 97 85 91 95 73 71 89 83 77 85 87 101 97 83 83 89 91 119 119 115 119 135 103 145 
79 89 83 87 69 103 95 97 97 99 91 95 97 87 99 101 99 99 85 93 83 83 87 87 81 71 61 83 75 77 73 59 61 73 73 59 59 57 77 55 67 47 67 59 67 75 85 75 59 65 73 73 71 89 95 85 81 85 91 75 91 89 77 65 61 89 81 79 81 91 71 65 85 97 115 129 121 133 125 143 
83 89 91 89 79 101 89 127 95 89 85 89 103 93 85 99 107 107 109 101 83 81 83 73 77 71 57 79 75 87 71 57 61 71 87 61 63 67 65 71 65 67 83 79 87 93 87 77 73 93 79 77 67 99 97 111 87 97 107 97 105 95 95 89 83 77 87 97 75 83 77 81 87 111 113 121 115 139 129 143 


