P2
80 60
503
100 92 64 72 82 60 80 88 92 80 84 80 88 80 70 72 56 84 60 72 60 50 38 60 44 58 40 38 40 30 34 36 30 30 14 26 36 24 40 28 22 26 28 12 38 16 22 14 34 32 24 42 32 46 38 38 52 50 38 48 52 52 66 58 66 36 34 52 44 42 26 16 60 44 36 40 32 46 46 44 
78 76 56 70 58 72 74 70 70 74 86 66 82 58 70 74 58 62 56 62 58 52 42 40 42 30 40 36 38 26 8 22 20 20 22 30 22 24 48 30 34 28 26 22 30 20 20 12 26 30 38 34 42 44 58 52 36 48 48 44 54 58 46 40 62 42 48 40 30 36 30 16 56 22 24 34 28 26 44 60 
68 66 52 74 80 62 64 74 74 82 72 66 58 58 88 62 44 64 58 72 44 58 44 50 36 42 46 64 50 36 32 36 28 24 30 36 48 28 38 30 40 46 38 30 32 16 20 28 30 36 42 38 48 64 60 62 46 60 62 50 54 40 50 46 72 56 44 62 44 42 52 54 34 52 40 20 34 32 32 36 
66 74 72 72 70 68 70 66 76 72 74 74 60 58 72 58 54 54 62 50 66 54 44 56 44 54 50 40 48 34 32 60 38 28 48 36 46 28 42 24 32 32 40 32 38 18 16 12 26 42 42 44 38 40 58 52 52 60 58 52 54 74 52 58 46 38 54 46 36 38 44 58 52 36 44 36 38 38 54 38 
80 74 52 70 86 72 72 88 70 70 90 66 66 66 66 78 68 60 54 72 54 48 54 52 48 62 50 58 54 50 52 48 30 50 58 68 64 40 50 42 42 44 40 32 40 44 34 40 34 44 44 56 60 60 52 56 60 62 68 64 70 64 52 62 54 56 46 52 34 48 60 62 54 60 48 36 50 46 48 58 
64 54 50 68 70 56 74 74 78 80 82 76 84 76 90 70 66 70 72 68 60 58 46 60 56 66 60 58 44 50 58 42 46 56 52 46 54 50 48 36 48 60 44 36 34 36 32 40 36 46 30 62 56 50 58 72 66 58 66 68 56 66 64 62 64 44 54 54 50 38 62 68 52 56 38 58 42 58 54 52 
72 56 72 58 78 84 56 74 84 84 82 74 86 86 90 84 68 72 72 74 62 78 60 54 62 66 52 74 62 58 56 62 30 50 60 64 62 58 60 50 58 66 44 40 48 46 42 44 52 44 46 54 54 60 76 68 66 54 64 56 66 76 68 74 70 62 54 56 50 64 66 56 56 60 56 58 54 60 58 64 
60 70 62 70 86 72 56 74 72 90 74 56 82 84 84 76 66 72 52 68 80 66 48 58 50 70 58 68 68 56 66 62 54 56 54 46 70 58 60 64 66 72 48 44 46 50 42 46 50 54 60 58 66 66 66 70 72 64 64 72 68 76 70 66 84 68 54 64 52 60 46 62 70 70 64 66 58 58 66 78 
58 62 66 68 72 78 66 86 78 80 68 76 72 74 88 72 72 72 58 74 58 62 58 64 60 66 70 66 64 68 58 64 54 58 62 68 66 56 54 50 64 60 58 44 44 46 28 46 38 44 60 62 70 66 62 62 72 76 66 68 74 64 72 72 66 54 60 70 56 64 58 62 58 58 64 72 62 62 56 64 
60 82 76 70 86 86 72 84 80 86 84 80 76 84 74 80 70 66 80 90 72 62 58 62 58 74 54 54 74 52 66 64 50 54 60 64 76 56 52 52 66 64 46 46 30 44 56 56 52 48 60 56 64 54 58 52 50 58 68 60 62 66 68 62 76 58 64 52 62 54 58 72 70 64 52 80 70 78 54 50 
64 70 74 80 88 74 68 70 88 80 72 66 74 84 82 86 74 74 78 82 70 70 62 66 52 70 76 64 70 54 64 66 50 56 68 68 72 64 60 64 64 64 56 52 52 56 52 48 42 52 42 48 54 46 62 56 64 66 58 50 60 68 48 52 68 44 52 58 58 42 60 52 70 70 66 68 78 74 64 68 
72 70 74 70 74 90 92 82 80 80 78 80 72 84 86 72 74 68 80 82 82 74 68 66 56 70 72 70 70 58 66 66 58 60 66 76 78 62 68 60 76 58 70 56 64 70 52 40 60 58 48 46 56 46 56 54 62 58 58 50 62 60 58 66 60 50 58 64 44 56 58 60 80 66 72 62 72 58 50 76 
68 76 78 44 102 82 72 80 78 76 74 80 70 66 76 82 70 70 76 86 66 72 58 54 58 56 68 54 76 66 58 62 62 60 70 72 84 64 88 86 86 82 54 58 76 66 44 50 54 46 68 50 50 52 52 56 66 58 56 50 68 50 54 42 60 46 68 60 48 68 48 68 64 70 58 56 62 70 64 70 
86 76 78 62 62 84 76 88 78 80 88 72 66 76 82 70 82 72 70 76 82 86 70 66 46 62 64 60 64 62 54 62 60 60 66 78 82 90 106 78 90 78 70 86 88 72 64 66 64 60 68 64 58 72 56 66 74 60 68 68 62 54 74 54 60 56 70 70 70 86 68 62 76 86 58 52 68 64 62 62 
74 78 84 88 86 82 76 82 74 80 72 64 58 78 78 72 68 60 64 62 52 82 70 64 52 70 60 58 72 58 74 76 62 74 78 114 124 96 108 102 92 82 80 94 94 96 82 64 64 60 74 72 72 74 70 74 60 76 84 74 70 70 68 60 72 68 82 76 80 88 76 76 82 70 78 64 66 70 64 62 
86 90 70 86 78 74 82 92 72 70 68 62 62 72 78 66 54 68 84 78 68 72 64 62 52 66 60 76 74 64 68 88 72 98 100 118 128 110 114 110 88 88 84 88 110 104 92 84 76 76 76 76 80 86 84 76 88 88 86 76 82 70 74 76 96 70 86 70 82 80 76 90 78 84 62 60 76 70 58 80 
76 82 90 86 86 68 70 80 80 94 66 84 60 76 86 82 72 70 74 74 74 74 60 76 68 72 70 86 90 74 82 96 102 94 120 126 128 118 126 114 94 94 98 84 118 116 106 96 82 90 84 88 86 92 94 90 82 82 76 94 96 90 90 78 88 76 98 86 86 78 70 80 90 76 62 66 70 70 62 82 
70 82 76 80 84 72 76 84 78 92 88 72 76 84 94 72 78 86 80 96 78 66 70 70 70 80 84 80 84 80 88 106 110 118 126 124 150 140 134 126 112 108 104 90 116 128 96 112 106 104 102 102 110 106 96 100 86 88 82 94 104 90 80 92 98 90 92 94 94 88 80 94 94 90 94 86 78 82 88 88 
70 94 80 78 78 74 84 90 82 80 84 68 80 78 80 86 74 80 84 80 82 78 78 78 70 80 94 106 100 84 88 100 114 112 142 165 183 219 173 134 126 108 114 100 116 120 114 108 110 126 112 118 118 126 106 104 92 88 88 88 94 86 98 100 112 90 78 90 94 82 84 94 92 94 82 72 90 94 88 110 
70 76 70 72 98 82 72 76 70 74 78 76 76 76 80 84 64 84 84 76 78 76 70 72 88 88 92 92 92 100 96 100 116 138 158 207 254 277 264 205 246 281 269 201 134 120 112 126 114 146 128 120 122 124 116 116 98 86 90 92 82 106 96 96 100 90 96 86 100 86 92 100 104 94 92 76 94 100 84 104 
80 90 68 76 78 82 68 94 70 78 88 84 78 84 80 92 80 84 90 88 102 82 92 84 82 96 96 88 108 98 104 124 146 183 281 322 330 314 326 361 378 395 428 407 306 203 136 120 134 138 138 128 128 130 120 110 104 92 108 96 100 106 98 108 106 92 114 102 114 108 98 94 110 86 90 84 90 86 94 106 
58 74 76 82 82 80 76 82 70 78 74 86 78 88 82 74 78 72 90 100 88 78 70 86 86 80 94 102 110 118 122 146 240 364 366 339 333 320 331 392 395 423 448 438 417 372 201 148 124 134 134 140 150 146 132 110 102 102 98 98 100 118 110 110 118 102 102 94 106 104 86 104 112 118 118 90 86 102 100 128 
74 80 64 92 74 78 78 76 72 68 94 82 72 82 94 84 66 68 68 74 76 96 78 90 94 100 96 98 112 118 163 289 407 393 341 306 335 339 361 357 397 390 382 426 457 436 361 217 142 156 159 152 222 187 156 148 140 142 136 158 177 169 150 159 154 132 130 104 120 136 134 150 209 213 209 177 193 158 134 150 
76 70 98 80 102 80 68 84 82 88 82 70 78 80 100 90 66 68 80 90 100 100 80 96 88 110 96 104 120 130 297 428 378 361 283 217 189 234 320 308 293 242 260 339 415 407 376 316 215 236 197 197 228 209 177 165 163 136 138 154 161 179 177 189 185 159 154 138 161 195 222 252 299 341 335 330 326 293 268 264 
76 102 92 90 80 96 88 78 82 82 66 82 72 80 84 84 94 72 80 90 82 100 74 92 102 98 94 102 108 154 388 415 353 328 308 287 281 299 300 279 266 262 252 264 331 343 343 337 312 228 183 201 211 222 189 177 156 154 142 150 167 175 175 209 197 167 179 185 189 234 236 266 287 318 333 326 322 318 322 318 
76 86 74 78 76 80 80 70 82 78 82 78 68 84 84 84 84 78 78 80 84 88 86 82 90 92 106 114 126 187 424 419 339 337 324 326 349 330 306 258 266 260 232 250 273 297 299 320 333 306 250 207 175 195 199 185 179 171 175 177 201 207 203 197 203 201 209 211 219 222 242 236 268 295 306 314 310 310 304 300 
64 84 62 58 68 70 76 78 66 76 70 68 68 64 90 80 66 78 78 76 88 86 84 92 104 106 100 112 124 211 374 361 343 351 320 314 326 320 281 217 264 279 268 250 268 279 285 293 318 341 326 275 213 236 226 222 205 195 193 195 187 193 211 201 203 205 224 236 234 254 236 240 252 306 287 293 275 275 260 240 
74 68 62 70 70 78 74 76 74 78 64 70 58 64 78 70 74 84 62 70 82 76 90 90 108 106 110 104 150 266 372 359 362 343 316 293 287 256 195 193 266 316 300 275 271 254 256 279 306 335 330 306 293 312 258 234 213 213 183 195 183 175 201 226 226 203 205 226 219 217 209 213 215 240 224 197 187 167 134 150 
76 74 66 74 80 84 64 70 70 84 76 74 52 66 74 70 70 76 68 100 98 100 144 181 226 250 185 181 226 382 401 351 376 362 333 289 254 187 142 152 258 310 299 279 262 222 246 260 269 304 316 324 328 308 254 246 215 205 197 197 199 215 222 228 248 224 219 215 175 146 138 118 128 114 116 100 104 88 108 146 
66 64 50 64 74 62 64 78 82 82 82 64 52 58 78 60 64 70 68 128 175 234 260 322 428 453 446 453 486 451 405 372 411 366 330 324 260 183 122 146 266 318 314 293 266 230 219 246 277 279 322 324 318 291 264 246 222 215 207 228 289 306 279 260 252 222 197 158 140 114 104 108 106 102 90 92 104 96 96 132 
72 58 74 74 74 76 68 66 72 76 68 72 62 70 70 70 68 64 88 179 328 331 364 459 470 495 482 488 497 476 393 326 397 366 335 341 310 203 102 156 273 312 304 289 268 234 207 240 271 324 337 320 337 295 287 240 221 222 230 254 293 285 287 271 281 279 275 264 240 201 146 146 161 154 154 177 177 185 169 161 
68 62 58 64 88 72 62 78 76 66 66 64 68 78 80 70 70 78 98 185 335 386 463 455 423 353 442 478 503 480 380 351 395 347 331 333 285 167 80 161 262 295 285 302 279 232 238 277 304 347 345 320 285 281 260 226 224 248 252 244 275 264 264 244 285 273 279 264 273 271 248 254 252 256 273 293 289 304 306 269 
66 66 64 70 72 62 74 78 76 64 68 70 78 86 88 74 68 62 102 171 328 401 470 470 436 421 440 453 478 459 376 359 376 331 324 310 279 209 126 156 232 250 285 299 268 228 258 310 324 343 326 281 183 219 222 224 240 254 248 252 256 252 268 260 254 246 266 260 260 269 258 258 269 291 300 302 316 316 312 316 
60 70 68 70 78 72 74 74 74 76 74 72 78 92 90 78 62 78 84 146 295 397 438 476 459 478 463 434 413 364 337 324 308 339 316 310 312 271 207 161 179 226 266 275 260 246 291 330 333 324 246 169 90 171 201 222 222 226 230 242 250 242 252 234 236 226 219 191 209 230 258 262 281 297 306 324 324 316 304 306 
66 72 64 90 80 76 68 76 80 82 86 68 80 94 92 84 88 90 94 106 217 337 312 376 405 457 417 269 177 156 271 320 297 314 314 299 322 316 256 205 189 199 238 262 266 271 330 355 339 254 156 142 118 110 179 209 197 217 244 232 260 258 228 222 222 207 191 169 195 246 252 260 283 293 297 306 287 226 193 189 
70 70 64 78 78 54 78 70 66 80 66 68 72 90 74 74 84 88 82 84 118 154 179 213 203 205 158 132 124 116 234 343 320 287 279 295 289 273 232 219 211 219 250 275 293 331 361 364 330 215 154 138 148 132 148 169 169 181 191 207 211 199 189 187 177 165 152 120 159 158 177 191 213 205 205 197 154 100 88 110 
66 64 68 68 62 78 74 72 82 74 74 66 74 70 80 94 66 70 82 84 90 86 106 108 92 114 110 100 112 96 187 370 355 297 266 201 140 173 221 252 262 260 242 234 328 388 399 390 293 201 171 152 158 136 156 148 138 130 126 140 130 146 150 146 142 130 118 108 112 114 118 118 136 92 92 92 86 80 82 108 
64 62 72 76 84 70 72 74 72 70 72 62 66 82 90 84 80 72 90 92 92 92 74 90 96 98 94 96 104 114 144 306 393 349 268 146 74 132 228 262 300 293 240 269 407 440 424 372 201 158 161 150 120 124 130 106 98 100 114 104 104 120 132 118 118 96 108 108 114 100 108 114 92 100 84 86 82 84 96 90 
70 76 74 80 80 82 78 88 86 76 80 76 68 98 90 90 86 68 88 94 92 88 86 98 94 96 92 104 102 102 128 195 351 380 353 269 248 256 242 254 330 392 399 415 438 449 399 252 134 114 128 106 112 96 70 42 72 90 84 86 94 88 86 94 104 92 98 92 104 86 112 108 98 94 94 88 94 86 84 106 
76 72 70 84 90 78 62 84 84 74 76 74 66 70 86 84 74 82 80 80 74 74 76 84 84 92 94 94 94 88 112 140 177 299 366 339 304 273 238 258 328 397 423 442 453 424 293 144 124 116 114 112 104 92 102 78 90 76 80 76 76 90 80 78 100 88 86 102 82 96 86 90 86 76 92 80 86 110 96 78 
62 78 74 68 86 78 52 82 82 68 64 78 70 78 76 82 74 82 58 84 86 80 84 82 84 96 86 90 88 90 84 124 140 148 240 308 299 254 240 271 362 370 397 424 423 318 159 136 136 126 128 120 98 86 100 92 78 82 84 86 76 76 80 90 88 90 100 100 98 86 82 76 74 72 64 72 74 98 96 96 
74 78 64 70 82 70 62 80 78 66 68 70 68 48 88 80 72 66 78 72 80 66 82 70 76 84 84 78 76 76 80 94 106 102 116 163 203 222 226 244 224 232 248 242 222 165 132 138 134 138 136 132 112 110 84 76 82 70 72 80 72 70 68 84 78 82 102 104 84 88 68 70 70 54 52 56 68 82 98 100 
68 68 70 60 64 76 82 74 72 78 66 60 64 82 82 78 70 76 80 72 70 68 64 72 74 76 80 78 68 68 82 86 78 96 86 98 118 118 171 171 138 100 118 110 120 124 126 128 150 150 159 148 124 100 72 70 72 70 76 74 68 70 64 66 82 84 74 62 94 76 64 62 66 68 52 60 70 88 82 82 
60 72 68 68 56 60 72 74 70 60 76 64 70 68 68 66 60 62 70 72 76 62 68 68 68 82 72 78 70 54 74 84 68 78 74 86 86 86 100 98 84 74 92 86 96 104 118 134 138 154 154 132 106 80 74 72 70 60 74 58 60 62 42 68 66 62 66 66 76 54 54 58 60 60 62 68 72 74 74 78 
58 62 74 80 60 74 68 68 70 74 70 70 74 72 74 82 68 78 72 64 70 64 76 78 74 72 62 74 72 66 74 84 80 92 76 80 90 84 86 78 76 76 92 88 106 120 132 146 158 158 154 130 124 92 104 68 64 66 58 64 72 64 56 54 62 46 80 68 64 54 48 42 56 56 70 72 82 74 80 86 
70 80 72 70 72 80 66 70 74 80 72 50 64 74 74 76 76 78 68 74 72 64 66 78 60 66 70 70 92 82 90 96 86 96 90 106 100 90 90 76 78 80 92 86 110 130 138 159 158 150 142 134 130 108 94 78 60 64 64 48 68 64 70 68 74 64 74 70 74 64 66 52 54 62 62 64 60 88 82 86 
54 90 52 64 78 66 78 86 80 80 88 68 74 72 82 64 80 66 72 70 74 60 68 66 62 74 74 76 86 86 98 106 94 92 112 110 92 110 106 94 82 94 100 78 94 130 146 154 148 148 146 122 112 92 86 74 72 68 68 52 64 66 62 60 72 62 58 72 72 60 64 76 64 74 62 70 66 78 88 84 
72 70 58 76 72 90 58 80 74 88 72 80 70 86 86 76 78 68 82 80 72 72 70 74 66 76 74 80 78 84 92 102 94 100 94 102 110 120 112 90 80 92 110 92 100 126 132 128 124 128 120 114 110 90 70 64 70 70 66 56 68 64 70 70 82 70 72 68 64 60 64 54 72 82 74 70 68 66 80 82 
84 76 70 72 88 62 74 74 74 70 78 72 50 86 70 60 66 78 72 74 66 72 64 76 68 84 82 76 82 72 94 110 90 92 102 90 96 100 82 80 78 90 90 88 96 102 102 108 112 112 108 104 92 84 74 64 64 68 76 78 68 80 78 56 68 68 68 74 76 70 74 74 68 68 64 72 68 72 72 98 
80 68 76 82 76 84 62 78 76 66 72 96 60 80 78 56 80 64 92 76 78 72 64 74 56 82 70 68 80 86 100 94 80 90 86 88 80 82 68 70 74 76 76 82 104 92 94 90 94 96 84 96 78 72 68 70 56 74 54 70 82 66 62 66 72 78 76 86 72 76 56 68 70 82 66 66 70 74 82 84 
70 78 58 74 76 80 64 72 76 78 86 78 74 74 80 76 70 74 80 66 70 70 66 70 56 68 64 72 62 66 90 84 90 76 66 78 72 64 68 78 64 80 72 80 78 74 78 86 74 82 78 82 66 74 70 70 76 58 66 60 56 82 68 46 68 54 70 72 66 46 66 48 66 56 80 60 78 84 94 82 
80 60 80 62 90 64 72 84 90 84 68 78 70 74 94 86 76 86 82 68 56 68 58 76 60 78 60 70 66 60 54 76 64 54 62 66 66 62 70 58 62 64 58 56 64 64 58 64 66 70 68 72 66 56 56 62 54 66 62 58 70 76 62 64 58 74 54 56 54 60 54 56 64 64 74 80 70 82 96 90 
60 74 66 66 76 80 58 74 62 80 68 64 72 58 94 82 56 64 78 68 68 66 62 70 46 62 54 70 60 58 58 68 52 48 56 64 56 56 70 52 56 56 36 58 50 56 50 52 56 58 58 66 58 56 48 60 52 58 38 56 58 54 40 48 64 52 54 52 28 44 44 38 52 56 60 48 76 76 80 78 
64 64 52 68 82 66 64 80 62 60 78 76 60 66 80 80 72 68 70 70 66 66 70 68 60 60 54 50 56 56 40 54 46 54 46 56 52 48 50 48 52 44 48 40 48 48 38 58 50 38 42 48 42 54 50 58 64 42 54 58 54 60 52 52 68 48 46 54 34 54 44 48 66 48 56 78 64 76 82 78 
64 56 50 64 78 58 52 78 72 76 60 72 72 64 80 58 66 66 62 64 68 64 46 58 54 54 46 46 52 32 34 36 44 38 28 46 44 34 54 54 58 54 40 36 34 24 36 40 34 44 38 36 34 50 54 48 52 56 50 46 42 42 58 32 68 52 46 40 42 42 50 26 52 54 68 66 68 78 72 84 
76 60 50 54 64 52 46 48 58 62 48 58 68 54 76 62 68 60 64 52 60 66 54 40 56 44 40 42 44 44 38 44 30 24 34 40 52 34 46 44 44 48 44 22 42 26 20 50 26 28 32 42 36 48 36 48 54 46 40 40 40 48 34 50 48 46 48 46 34 40 32 32 50 66 64 68 74 68 82 74 
46 70 56 38 60 54 48 62 54 56 54 52 60 58 70 52 60 60 70 62 52 64 40 48 46 38 36 46 30 42 48 34 22 20 42 26 26 22 44 36 18 44 30 26 32 28 32 22 30 30 30 38 26 30 38 40 36 36 44 42 20 36 36 20 48 28 24 30 32 36 32 28 30 60 64 76 58 76 62 76 
56 52 44 44 54 60 50 42 46 54 80 54 66 62 68 58 60 60 74 42 44 48 52 44 48 36 36 46 32 40 20 26 22 16 16 30 28 14 28 26 30 26 14 10 30 30 12 20 18 24 16 36 24 22 38 40 48 36 28 40 12 22 24 36 48 14 26 30 24 6 28 10 24 58 68 60 66 78 62 88 
54 46 32 38 54 56 30 52 38 42 48 46 66 44 60 52 54 64 52 50 50 36 46 52 32 40 28 32 32 24 20 8 12 22 28 20 24 14 24 4 20 24 14 10 10 16 32 18 6 18 18 18 12 36 32 24 30 28 36 26 32 28 18 12 22 14 20 8 6 14 0 10 30 46 58 66 68 66 64 84 
64 56 38 48 48 56 34 68 58 46 36 52 62 48 48 48 50 74 72 46 42 32 26 34 34 34 28 40 36 28 22 10 6 36 34 18 20 24 14 28 26 20 26 28 34 40 32 24 24 32 28 18 12 34 30 38 36 44 42 46 36 36 40 40 30 6 20 18 0 10 16 22 26 52 44 60 68 76 66 80 


