P2
80 60
559
144 128 126 124 120 106 114 122 138 130 130 126 136 136 122 122 126 120 116 118 110 116 100 102 96 86 94 76 78 76 68 66 68 74 54 50 62 64 62 62 58 68 60 60 72 66 62 60 84 82 78 80 68 92 90 90 94 86 92 102 100 106 104 96 94 78 70 94 84 92 86 70 94 70 74 60 64 60 64 64 
142 120 116 120 108 112 124 118 106 110 134 124 116 118 118 120 122 110 96 108 104 100 90 92 90 82 90 80 80 74 66 60 68 54 58 64 54 64 80 68 62 66 76 68 70 60 62 62 80 86 78 74 84 84 102 94 84 94 102 96 102 104 98 84 80 88 86 86 66 86 78 64 86 62 72 74 60 68 44 72 
132 114 120 120 134 112 102 108 120 118 122 120 116 110 126 106 106 106 110 106 92 110 104 102 94 88 88 88 96 86 74 76 70 68 66 66 76 70 80 72 74 74 84 80 74 60 66 82 82 94 86 74 94 102 92 94 100 98 104 106 104 96 96 98 96 96 98 102 98 88 92 100 76 80 68 56 82 70 46 62 
126 110 118 124 110 108 112 124 112 114 122 134 114 112 112 106 118 110 104 104 108 104 102 106 102 104 106 82 94 88 80 94 82 72 82 76 88 76 80 70 76 76 94 80 82 76 72 72 88 92 90 78 94 86 108 110 98 106 106 104 108 118 96 104 88 84 100 94 84 84 80 92 88 76 80 62 76 72 52 68 
138 122 110 120 136 116 132 126 112 106 128 130 122 118 112 128 104 124 108 116 110 108 104 104 110 110 94 114 102 98 90 82 72 88 86 90 96 82 90 86 86 88 88 76 88 94 92 98 92 100 84 94 102 102 104 110 106 108 120 108 118 106 106 114 94 112 96 102 82 96 92 98 98 86 78 68 88 84 72 74 
132 112 118 126 116 98 130 124 120 136 134 134 144 120 134 122 124 122 106 114 116 126 106 108 112 112 104 100 104 96 102 88 92 94 84 92 92 94 90 96 88 94 86 94 82 88 88 94 92 96 94 110 92 104 110 118 120 118 114 106 116 110 112 108 104 98 96 114 98 96 108 102 88 86 82 78 96 94 72 78 
144 104 124 114 126 126 128 120 124 124 138 130 138 116 134 126 120 136 108 118 128 142 112 104 114 108 98 110 106 100 100 96 88 96 90 102 106 106 100 102 84 110 96 90 90 88 96 92 98 106 104 104 104 102 114 116 114 110 118 108 124 118 104 112 98 116 100 108 98 110 116 112 94 96 86 92 90 98 84 90 
134 114 124 126 138 120 116 114 112 136 130 112 134 136 120 136 120 114 114 126 130 122 104 112 104 122 118 102 104 106 110 98 98 104 94 92 114 104 100 96 92 100 94 96 96 102 86 98 108 110 114 106 114 114 112 110 118 104 112 126 116 122 116 114 124 118 100 102 98 104 100 108 110 100 92 100 84 94 74 80 
128 116 128 122 120 134 122 142 116 134 120 140 124 130 136 128 130 120 108 126 112 122 116 120 108 114 126 104 102 116 94 96 108 106 108 106 106 100 98 90 98 94 104 106 96 98 84 96 100 106 110 98 122 114 114 114 118 118 112 124 124 118 114 116 120 112 102 110 106 118 102 108 98 98 96 94 104 102 76 80 
134 122 120 128 124 128 132 128 132 140 130 134 140 118 122 120 124 128 126 130 118 124 112 114 102 118 102 106 126 100 104 92 108 106 108 98 120 104 90 100 102 104 94 100 86 92 112 112 98 114 106 100 104 104 110 104 110 108 110 110 120 112 106 104 114 104 108 102 114 106 100 114 98 96 96 100 102 102 74 86 
140 110 126 118 138 132 116 128 130 124 120 126 130 134 130 140 132 128 118 126 120 130 130 118 100 108 122 110 118 102 114 108 104 104 114 118 116 106 112 106 96 100 116 102 96 114 98 98 110 114 92 100 110 98 120 100 108 112 112 106 122 112 108 110 114 108 106 98 102 98 108 106 100 112 102 96 108 104 84 96 
138 130 128 136 122 122 148 140 114 124 122 144 130 122 134 122 126 118 128 122 126 130 126 122 108 120 126 114 118 106 112 104 98 110 114 110 124 104 112 104 112 102 110 110 114 114 108 94 116 108 110 98 104 100 114 102 114 116 110 106 118 106 112 108 112 108 104 118 108 102 106 106 120 116 116 96 104 96 80 92 
132 122 134 108 136 136 132 132 122 126 120 132 120 126 124 120 132 128 134 126 112 124 118 112 116 100 112 112 122 118 106 110 100 112 108 110 120 112 122 122 122 120 102 114 124 116 100 100 108 112 114 96 106 110 108 106 116 110 112 106 120 108 112 86 104 108 116 102 110 108 94 120 106 108 100 94 98 98 80 80 
130 120 132 114 122 122 130 136 122 134 140 120 132 126 120 118 134 126 126 124 134 126 122 116 108 114 114 108 110 116 96 108 118 108 94 116 124 116 128 114 134 122 120 142 136 124 122 122 124 126 124 112 108 116 116 116 130 112 116 112 118 110 118 98 116 112 120 116 120 118 114 118 120 118 106 94 108 92 70 80 
136 122 140 124 132 120 130 116 122 134 134 124 114 132 126 118 124 124 106 116 106 130 118 118 108 118 120 110 122 106 116 118 112 120 124 136 144 136 152 138 144 136 136 146 148 150 136 126 134 126 130 118 116 120 114 124 122 118 130 124 136 110 120 110 126 128 128 116 130 126 122 128 120 114 114 102 112 96 80 92 
140 122 118 124 130 126 138 124 120 118 128 120 126 126 118 116 108 118 132 122 126 118 124 112 110 108 118 122 120 112 112 122 122 142 142 174 192 219 180 166 140 142 140 134 180 144 134 138 142 126 124 128 136 132 122 134 136 128 134 130 134 122 126 128 132 124 122 128 132 118 132 132 112 120 114 106 120 102 74 94 
118 114 134 118 128 102 120 116 122 136 122 142 120 126 128 120 116 120 126 132 124 114 110 122 124 122 128 132 128 136 126 144 142 152 186 251 382 440 405 312 208 144 152 124 148 170 148 130 130 144 128 122 136 126 130 134 138 128 132 138 146 130 140 122 124 120 146 130 124 120 132 118 130 114 92 108 110 106 84 82 
110 126 124 134 124 122 122 106 116 134 134 132 128 132 124 116 130 144 132 144 132 122 124 122 126 130 138 128 132 138 130 144 146 176 277 403 459 444 465 453 382 284 214 168 162 196 182 182 164 154 152 138 152 136 138 144 132 132 124 136 144 136 136 144 140 134 138 144 142 138 130 140 132 130 122 120 122 114 86 104 
130 138 134 134 128 118 134 110 134 122 138 132 132 138 138 134 138 136 134 132 128 140 146 126 140 130 142 148 146 134 134 162 168 237 316 395 436 426 426 411 399 374 335 304 284 288 282 245 227 206 162 176 162 160 160 158 140 140 132 142 146 144 150 150 158 140 124 146 144 138 138 134 132 124 120 114 124 124 116 104 
126 120 132 132 146 130 126 112 118 124 126 148 136 122 132 134 126 140 134 128 132 136 134 124 150 138 134 146 142 154 140 174 223 318 331 331 353 288 281 316 343 335 322 343 386 382 345 324 279 255 210 168 172 166 164 156 158 138 136 136 132 144 150 140 154 146 148 142 142 132 144 144 120 140 128 114 128 120 102 118 
146 130 120 132 146 126 126 138 120 120 144 144 132 138 126 136 134 140 134 146 154 132 144 138 148 148 152 142 156 150 160 216 302 337 333 320 300 200 182 166 184 210 257 362 384 395 357 335 320 300 247 200 172 172 172 164 150 140 142 142 134 142 148 160 150 142 152 146 148 144 140 144 134 130 128 120 124 108 122 126 
138 128 146 132 136 120 134 126 118 130 126 134 128 140 134 130 124 128 140 138 152 134 130 138 150 140 150 154 150 174 233 347 360 322 300 292 247 188 180 166 162 154 176 231 320 355 335 314 267 235 219 188 196 176 176 162 148 134 146 148 144 144 146 152 162 144 144 142 150 156 132 134 136 132 146 118 118 114 124 132 
132 128 130 146 120 124 138 134 120 126 144 136 130 134 136 134 130 134 130 126 134 148 144 134 162 146 142 156 178 225 376 390 318 292 290 253 188 178 182 150 148 144 150 144 194 281 269 255 229 200 188 180 188 192 186 186 178 166 168 182 178 180 172 184 186 166 178 152 140 154 168 166 166 166 160 142 156 138 124 142 
140 122 140 124 136 138 132 124 120 132 132 138 142 144 138 134 132 136 130 142 150 156 140 142 148 150 152 158 221 347 382 333 204 140 128 114 188 184 188 170 158 144 148 164 178 229 208 204 221 241 208 221 206 194 192 206 208 174 180 200 206 198 214 219 216 206 188 174 164 208 253 243 284 296 326 306 275 219 146 166 
144 134 140 136 126 138 142 132 128 136 136 148 132 138 140 134 154 148 132 130 148 144 140 148 150 150 158 176 326 438 391 343 231 208 214 241 253 233 206 184 178 208 229 249 225 237 269 239 231 243 214 249 233 225 208 202 198 180 158 190 200 210 218 237 245 231 212 206 208 235 282 300 316 318 374 382 390 355 294 257 
130 120 128 130 130 146 134 126 126 128 140 138 128 138 138 136 140 150 130 138 140 140 138 144 142 148 170 221 421 397 376 372 339 339 337 339 284 227 212 188 182 208 229 204 204 233 218 223 202 212 214 239 216 212 223 229 216 180 184 200 219 221 229 239 247 251 243 239 233 245 300 292 308 292 339 355 370 376 349 328 
128 134 122 112 126 134 128 124 122 122 132 136 140 122 138 140 128 142 138 130 144 146 138 140 148 146 166 231 413 391 376 362 347 368 372 362 281 221 204 194 188 204 196 194 208 216 186 194 176 174 178 216 188 212 219 245 241 223 231 245 241 255 263 245 263 265 273 269 257 265 316 306 298 320 322 351 345 326 320 331 
134 116 136 118 112 118 116 122 112 130 124 138 120 122 142 124 134 140 138 152 158 164 152 158 160 156 154 257 380 374 370 374 347 353 374 341 261 190 214 214 219 221 218 180 204 210 186 174 168 178 176 202 194 200 223 249 241 241 225 249 237 245 275 269 286 279 288 302 296 296 296 277 271 294 306 318 316 292 282 290 
122 122 126 126 132 124 118 112 104 118 128 132 114 130 128 126 134 158 196 259 275 269 314 360 316 190 188 294 399 393 393 366 366 368 378 294 198 154 229 251 263 261 231 196 200 219 208 178 148 172 170 202 202 227 251 261 241 233 225 229 219 251 261 284 284 277 292 277 237 218 194 170 172 172 176 184 182 174 176 218 
128 118 116 130 136 126 122 128 124 132 132 128 118 118 132 118 136 212 351 388 362 422 500 525 506 461 444 444 405 430 450 413 403 388 370 271 144 152 245 294 284 267 245 200 214 237 231 200 172 180 184 216 225 241 273 282 261 239 237 271 251 279 294 322 306 284 292 275 239 200 182 174 176 176 204 219 243 247 227 227 
128 112 126 132 130 122 126 122 124 128 130 138 122 126 130 134 154 241 384 399 436 534 559 548 548 534 532 515 417 391 481 434 386 415 384 284 148 176 281 296 300 286 265 219 214 247 235 200 154 168 186 206 235 214 255 277 263 265 282 296 292 314 326 341 351 349 364 347 318 296 257 247 241 279 312 333 353 351 333 343 
132 110 122 128 138 128 124 124 108 120 126 124 124 132 128 136 158 251 382 426 508 557 546 417 483 530 542 534 417 349 422 417 362 393 372 239 116 174 284 333 306 286 247 221 227 249 229 192 94 0 150 194 221 212 263 282 282 296 296 290 333 314 322 326 353 349 339 345 337 324 322 320 308 320 339 357 376 390 347 355 
128 124 116 132 128 114 138 116 114 116 126 132 134 140 144 136 160 216 368 465 536 530 511 407 452 504 498 519 421 380 419 405 366 370 347 225 118 172 277 320 320 292 251 218 233 243 227 166 90 64 104 166 210 219 247 286 292 284 302 302 296 308 326 310 320 316 316 316 300 281 304 320 312 337 372 368 384 366 329 328 
124 122 126 124 120 124 130 112 124 122 134 128 136 144 138 124 140 176 343 388 457 534 540 502 509 477 477 473 391 374 413 370 374 374 318 206 136 190 253 282 308 294 233 196 229 253 237 172 108 80 66 102 190 218 223 263 241 253 273 288 277 286 296 284 290 271 251 269 255 249 304 322 337 345 362 359 357 314 235 202 
130 118 112 134 124 136 120 110 128 130 134 124 138 140 146 138 152 184 273 296 328 403 469 496 469 368 302 279 328 357 370 378 386 374 341 265 223 223 221 265 273 245 212 174 216 223 218 170 112 108 68 50 88 104 148 208 223 227 261 269 263 257 245 245 247 227 223 229 206 219 261 286 298 298 310 292 229 160 150 160 
136 114 136 144 140 114 138 114 128 130 124 138 134 138 136 136 144 156 170 186 208 237 231 261 233 176 176 192 277 318 329 349 364 359 357 333 273 216 192 247 255 233 229 186 219 204 182 156 116 104 66 26 94 132 186 198 198 198 221 214 200 210 204 196 208 186 186 168 176 166 186 190 198 182 160 168 154 116 112 130 
128 120 122 130 124 132 140 118 124 130 136 130 130 134 130 144 130 134 126 140 142 144 162 158 150 152 160 176 300 360 335 320 333 316 329 322 288 210 166 166 208 223 206 194 227 194 178 154 134 122 102 98 142 158 176 200 184 168 172 170 176 174 184 176 170 162 146 144 158 158 166 162 160 138 136 118 122 100 100 136 
126 114 136 130 128 122 126 116 112 126 126 126 126 144 140 134 134 136 142 146 140 144 138 138 154 154 144 174 316 391 360 310 308 286 286 294 279 247 206 206 194 184 190 198 223 210 174 148 134 130 148 160 156 154 162 170 166 140 152 138 162 172 172 154 160 150 146 142 162 148 156 158 138 140 128 122 128 128 118 100 
130 134 130 126 128 118 144 132 128 126 128 140 132 148 138 146 140 140 142 140 142 138 150 154 152 158 150 180 288 370 318 296 300 227 204 229 255 253 225 174 150 148 136 152 192 204 168 160 154 156 162 142 144 138 128 90 102 142 148 126 148 142 136 146 142 150 146 134 154 134 148 144 134 130 134 122 120 120 108 122 
134 122 146 140 130 130 126 124 128 130 130 132 130 120 142 132 128 136 136 140 134 142 148 134 142 148 158 154 247 306 255 150 134 180 168 200 245 210 184 168 138 130 142 142 168 170 154 158 162 166 160 156 152 142 126 130 130 118 132 128 128 136 136 136 144 136 136 138 136 150 146 128 136 112 124 120 122 130 102 114 
122 128 138 124 134 122 120 124 124 116 124 136 132 132 128 136 132 128 124 132 140 138 140 130 140 150 144 150 200 255 198 68 80 231 290 267 216 178 126 150 130 130 140 146 164 160 154 162 180 178 174 162 142 148 148 144 132 126 130 138 130 130 134 140 142 152 150 140 138 136 142 124 116 108 102 108 120 126 106 96 
138 124 124 122 132 112 132 108 120 124 124 124 124 116 140 132 134 126 136 126 134 124 136 126 142 132 152 134 168 223 208 36 42 88 156 233 192 148 130 146 124 120 150 144 152 170 164 178 180 200 192 184 164 152 136 126 130 114 134 132 122 134 120 130 126 132 142 144 124 140 128 118 104 90 98 108 104 124 104 110 
128 120 126 108 116 124 134 112 118 128 118 132 122 140 126 124 128 128 126 124 120 124 130 130 136 134 132 124 134 174 198 180 138 200 214 235 178 136 138 124 132 118 132 140 132 156 164 174 190 194 218 200 184 146 138 116 132 120 132 122 120 118 122 116 134 136 120 116 138 126 116 92 94 100 92 96 106 120 120 122 
120 120 132 122 128 118 134 112 120 118 132 124 128 122 114 120 118 118 124 124 134 114 120 122 132 138 134 122 138 164 253 261 265 273 249 225 164 146 136 126 108 116 128 130 126 154 168 200 196 212 218 174 150 136 128 118 118 110 120 110 118 118 100 116 114 118 114 116 114 102 104 96 92 94 92 98 108 102 114 118 
126 108 130 130 132 114 118 118 132 126 112 128 120 118 118 126 130 120 128 126 118 116 120 120 124 126 124 126 136 168 247 261 306 322 271 190 162 146 126 120 118 112 122 132 140 164 176 192 208 208 204 176 172 146 136 118 118 108 108 114 128 112 116 112 114 110 110 114 112 94 104 76 92 88 98 96 110 106 114 116 
124 118 130 130 130 128 120 118 120 124 124 108 116 114 126 122 124 136 118 124 122 126 124 120 122 126 128 128 136 160 271 296 328 341 206 160 152 142 124 110 120 118 138 136 154 166 192 212 218 202 198 182 170 144 128 126 112 108 112 102 120 110 110 110 114 120 116 116 116 100 110 96 102 92 86 96 110 112 102 112 
118 132 112 128 124 114 124 122 124 136 134 132 132 126 122 120 128 124 116 120 126 114 132 112 122 126 126 122 146 188 364 405 382 318 176 158 152 130 134 126 124 124 130 132 150 170 210 204 202 196 192 176 156 142 126 112 114 108 116 110 122 120 116 104 110 118 120 112 116 110 106 114 98 112 106 102 114 104 110 110 
120 112 126 122 124 128 126 124 122 138 130 142 130 134 130 122 132 126 128 138 128 134 126 116 126 134 138 130 148 180 370 413 355 281 170 154 158 142 130 124 114 130 140 144 162 170 188 178 190 192 174 160 158 144 120 114 120 114 122 118 124 122 110 114 126 126 110 116 116 108 102 112 104 102 102 104 104 118 106 108 
138 104 132 130 126 116 128 124 126 126 136 136 116 128 122 124 132 136 116 124 120 136 128 118 126 132 142 134 164 223 424 442 359 263 146 154 146 128 128 110 124 130 130 144 152 160 162 162 180 174 166 154 142 134 120 118 118 112 122 124 120 124 126 106 116 122 118 114 116 116 122 110 104 110 104 106 108 114 96 76 
128 118 132 132 126 128 128 120 112 120 122 150 114 136 122 114 124 126 128 116 126 128 124 118 118 130 128 124 172 329 430 422 355 253 128 126 136 122 114 124 118 112 120 132 140 142 138 136 146 148 132 132 134 120 116 112 110 112 100 110 110 108 108 116 98 114 124 126 114 116 114 106 100 112 112 110 114 102 96 108 
126 108 128 120 126 120 124 108 122 130 136 124 128 120 130 126 122 122 128 108 130 118 124 114 110 114 126 140 196 357 409 405 353 192 118 130 122 112 108 112 110 106 122 132 120 126 126 126 130 138 122 128 116 120 116 110 110 96 108 110 108 112 96 98 102 104 108 108 108 96 116 98 94 80 118 88 110 106 88 100 
126 98 138 120 138 120 128 120 130 132 122 126 126 124 138 132 130 138 128 118 114 128 116 122 116 122 112 138 263 380 395 368 282 140 106 110 126 112 104 92 90 100 112 112 108 120 108 112 120 132 110 124 114 110 104 108 114 106 104 118 108 116 108 112 108 122 88 104 112 108 98 108 104 98 102 120 118 104 94 96 
122 114 122 132 128 134 112 106 100 126 128 130 126 112 144 130 112 124 130 110 120 120 128 114 114 114 126 150 304 403 415 364 192 114 112 114 116 106 100 100 94 108 94 104 100 102 96 110 118 112 100 108 110 106 98 108 114 106 88 108 100 96 90 94 98 104 96 100 80 92 96 92 94 84 100 92 110 110 90 108 
136 114 124 128 126 122 110 118 118 108 124 124 114 122 134 128 132 122 124 126 116 122 124 118 122 114 130 164 345 399 405 281 146 108 80 104 102 106 82 84 96 98 94 84 94 98 92 106 100 94 96 90 98 100 102 102 108 92 104 108 104 108 110 96 100 86 90 96 84 94 98 98 98 86 98 122 102 108 76 98 
138 106 118 130 126 94 112 126 118 130 100 130 122 122 134 120 118 126 116 112 118 118 98 124 120 114 124 194 384 391 335 174 122 106 86 92 86 86 94 88 94 102 90 92 82 78 82 86 90 102 88 86 88 96 102 100 106 100 94 104 106 100 102 96 106 90 94 90 90 92 96 90 90 96 110 108 114 112 100 104 
132 112 114 114 104 96 110 102 106 120 98 130 110 122 120 112 132 126 110 106 116 124 108 96 108 102 148 296 411 386 241 114 96 92 88 90 102 92 88 110 90 88 96 92 88 76 72 82 78 80 92 92 86 100 100 106 104 86 90 90 90 100 86 106 102 94 98 98 94 86 88 84 84 112 112 112 106 106 98 90 
102 116 118 98 104 106 94 100 90 118 110 110 108 110 122 110 102 110 112 106 104 112 100 98 108 112 216 391 407 265 138 78 98 74 86 76 78 68 74 82 74 88 76 80 72 66 68 76 76 88 78 84 90 82 88 88 86 80 82 86 74 94 82 74 94 76 82 86 90 74 78 84 66 94 104 118 108 96 92 84 
94 96 102 98 98 108 108 82 94 112 116 112 108 114 112 110 114 110 116 88 92 112 104 102 104 134 292 390 339 138 76 78 72 72 66 72 80 66 62 76 68 74 56 74 70 70 60 58 64 82 78 78 68 80 86 82 84 86 74 86 66 70 70 82 78 64 76 80 82 64 70 56 70 100 102 106 108 112 96 120 
120 92 102 100 92 102 88 88 82 100 94 106 100 100 110 106 106 102 106 92 92 92 98 112 112 194 339 376 212 84 90 72 82 74 70 70 70 60 64 66 52 64 62 60 62 70 66 78 56 72 50 52 68 80 80 70 88 86 86 70 84 76 58 64 66 76 64 58 56 66 58 46 56 88 96 112 108 110 102 118 
104 98 100 106 98 108 92 102 88 90 88 94 108 98 96 102 108 112 110 100 82 90 90 98 156 318 374 326 136 76 72 72 72 70 84 68 74 76 58 68 64 58 76 86 72 86 76 84 90 82 66 66 58 82 90 84 86 92 92 92 98 92 84 78 82 74 62 58 50 62 60 56 64 92 104 104 102 110 102 104 


