P2
80 60
504
68 84 62 50 70 48 70 76 86 74 70 74 84 88 68 70 68 62 64 68 56 52 54 42 46 34 48 42 28 36 28 10 28 30 6 18 6 22 30 12 2 26 28 18 22 20 26 14 30 32 30 32 34 44 42 62 72 56 58 64 54 54 70 58 52 46 36 52 58 58 48 32 54 46 48 42 42 40 48 40 
74 72 56 56 60 52 76 82 62 60 76 72 72 58 60 68 58 48 30 64 62 50 52 42 42 28 46 28 22 22 20 8 14 12 8 18 8 22 40 30 10 16 28 18 22 28 28 18 28 40 22 34 36 42 46 48 44 62 64 52 58 56 62 48 40 50 52 42 36 48 50 46 50 38 44 38 32 32 30 40 
58 68 64 64 86 70 60 78 80 74 62 64 72 52 72 58 44 56 48 62 52 54 58 50 50 40 38 46 40 36 30 10 30 20 30 28 28 30 28 34 32 36 46 30 32 30 28 36 38 36 26 36 48 62 50 60 66 74 56 64 64 60 74 50 48 52 68 64 48 50 62 76 32 40 42 34 50 36 30 32 
52 68 56 68 62 68 64 78 62 60 66 86 64 54 64 56 52 52 58 60 60 38 46 58 56 52 50 42 40 40 32 36 30 36 38 40 32 34 30 30 24 34 38 34 42 36 28 22 42 48 48 32 48 42 64 60 64 78 74 72 64 64 66 70 32 48 62 68 44 50 46 60 68 48 58 36 54 56 36 34 
58 78 54 58 70 66 64 88 70 56 74 82 80 64 76 84 54 58 44 76 54 52 50 64 42 62 44 50 44 62 44 26 30 50 52 50 46 38 46 42 38 36 48 38 44 48 50 42 48 66 50 56 52 54 52 66 72 64 76 74 64 58 62 60 52 56 50 74 50 60 54 64 56 64 66 44 58 44 50 54 
56 74 54 66 52 54 64 78 68 74 70 92 84 78 82 66 66 60 52 68 68 58 58 58 46 66 56 52 46 56 56 38 44 54 40 38 44 58 38 50 48 58 42 42 36 40 50 48 50 52 40 62 58 54 66 78 80 72 80 84 78 64 62 64 52 62 70 74 54 56 82 72 62 60 60 62 54 54 52 60 
68 56 62 52 68 80 64 76 74 64 74 70 82 76 64 64 58 74 60 72 78 82 62 54 66 58 52 62 52 62 50 38 44 44 52 56 50 58 58 50 46 62 40 46 48 58 58 50 54 58 52 64 58 58 74 72 80 68 70 78 74 72 64 64 60 72 72 66 64 68 74 70 60 58 74 66 66 62 54 74 
68 74 60 74 86 74 56 76 60 82 78 60 76 84 60 80 66 58 60 74 84 64 60 56 54 66 66 58 60 60 62 48 52 46 48 44 56 54 60 54 54 64 46 46 48 62 50 50 60 58 62 64 70 58 74 80 82 66 66 92 82 74 86 64 74 68 66 64 52 72 66 78 76 68 80 72 70 58 58 60 
56 60 62 52 60 76 58 104 70 74 62 88 70 64 66 72 70 64 58 72 68 68 64 66 54 66 74 64 60 72 48 46 50 52 54 68 50 50 50 52 62 50 56 48 38 54 44 52 52 48 62 66 70 68 62 68 86 80 78 70 82 62 74 72 62 66 66 70 70 72 74 68 68 60 74 78 62 72 58 60 
52 76 50 68 80 98 82 88 80 76 72 82 82 72 62 72 64 62 70 80 68 72 64 62 60 70 52 64 76 62 48 42 48 62 56 60 72 64 46 66 60 54 54 50 44 50 64 62 54 52 52 64 62 62 62 60 82 74 78 68 72 62 72 60 62 64 70 60 72 62 72 86 76 76 76 72 72 74 48 58 
60 68 76 72 80 88 58 90 74 62 72 68 74 80 66 86 70 64 68 80 60 70 70 74 56 72 72 56 54 64 60 62 54 54 62 70 54 70 58 60 60 62 58 54 52 64 66 66 64 58 42 58 62 58 62 68 78 86 70 74 78 74 64 62 62 58 62 64 72 56 72 72 66 84 86 74 66 68 60 54 
62 90 76 60 62 84 86 92 68 66 68 80 76 76 74 72 72 64 72 68 76 74 80 66 58 70 68 58 66 70 56 50 58 60 66 78 64 68 60 56 64 56 66 58 66 68 64 50 66 58 56 60 56 58 60 64 80 86 68 72 78 68 74 54 54 66 68 86 76 78 80 82 82 82 86 74 72 64 68 52 
56 70 80 50 80 84 76 84 78 62 72 86 66 68 54 64 70 70 66 82 70 70 64 56 60 44 68 56 66 70 48 50 62 58 62 68 68 66 74 68 72 68 52 62 76 74 54 60 60 52 70 60 52 62 68 64 76 74 76 70 74 62 58 46 46 58 70 58 74 74 72 88 76 80 76 70 56 64 52 66 
68 86 66 52 60 86 74 88 76 72 78 78 80 62 56 54 70 70 64 82 82 68 72 56 50 58 56 54 62 64 52 56 52 48 48 64 70 74 88 88 84 68 64 94 90 80 72 66 72 64 76 68 60 64 68 78 94 72 76 82 66 68 86 58 54 64 68 82 78 80 76 80 86 78 70 68 66 56 48 62 
68 84 66 68 72 72 66 76 68 62 70 76 76 70 62 66 66 64 46 70 62 70 64 62 50 62 54 56 72 68 66 62 70 74 70 92 92 92 102 98 82 84 84 88 94 102 90 68 76 70 76 76 72 72 70 92 80 88 92 86 76 76 72 68 60 76 84 78 94 84 94 86 84 92 98 78 76 68 56 52 
66 80 60 68 68 78 70 78 66 64 62 66 72 66 56 64 56 72 70 70 72 62 72 54 52 64 58 74 68 62 62 64 70 88 90 104 112 104 98 100 80 82 92 94 106 104 100 82 78 78 82 80 82 84 80 92 100 92 92 84 86 78 82 80 74 80 82 84 98 90 94 98 78 88 90 70 72 72 54 66 
60 76 70 62 74 58 62 74 72 78 64 86 74 66 60 72 54 66 72 76 80 64 58 70 72 70 72 72 82 82 76 82 98 88 106 98 120 120 116 104 88 86 98 76 94 118 114 98 90 82 94 86 98 92 90 98 96 94 92 110 106 90 102 88 84 76 94 86 86 90 92 92 88 82 74 80 66 58 62 90 
56 90 68 70 58 66 72 74 66 76 64 78 76 78 74 72 80 84 76 90 76 74 72 74 74 84 86 76 78 84 80 76 92 108 104 106 124 112 124 106 102 100 100 88 92 118 108 110 104 112 98 102 110 96 96 98 106 94 80 102 100 86 98 92 96 86 96 96 98 102 92 104 98 92 98 90 90 84 76 78 
66 90 70 70 66 60 82 80 82 72 76 68 80 80 74 78 82 74 76 76 66 70 92 78 76 74 96 86 92 84 80 88 100 106 118 132 124 134 120 106 100 86 90 94 88 100 116 102 114 124 116 124 122 122 104 112 110 96 92 100 98 100 106 104 102 96 92 102 102 98 96 106 94 102 98 80 92 90 68 80 
60 88 76 64 90 78 76 82 68 78 68 82 82 72 70 76 68 74 74 78 76 70 78 76 86 84 84 86 90 98 88 88 98 110 114 120 122 120 122 114 104 88 92 86 98 114 114 122 120 136 128 136 124 120 116 118 108 100 102 106 90 108 110 90 106 104 104 106 100 90 114 104 88 98 108 94 90 90 76 90 
78 90 56 62 72 66 70 94 68 70 80 90 76 74 76 88 76 86 74 88 90 84 96 88 94 94 82 88 92 92 88 94 104 106 114 114 116 124 124 106 92 94 86 98 100 104 130 110 122 128 136 130 126 130 122 108 108 104 104 100 100 92 102 102 108 104 102 106 104 110 108 104 100 98 102 90 94 74 98 92 
66 76 64 66 70 74 72 82 70 84 70 84 74 80 70 78 72 62 84 88 88 72 74 74 92 82 94 96 94 98 88 92 100 106 112 130 128 120 124 122 100 106 100 94 84 104 120 112 114 124 126 132 134 124 122 114 114 94 94 104 98 102 98 104 104 98 104 104 114 118 90 106 106 98 110 98 78 80 98 90 
60 90 62 84 68 70 80 80 70 66 82 88 78 72 76 76 80 68 76 74 82 86 76 84 94 86 86 90 98 108 98 90 98 118 120 136 138 130 140 124 132 124 110 88 90 98 102 108 114 116 122 130 134 122 138 118 106 98 88 104 104 102 98 108 102 104 114 120 104 108 124 116 108 104 106 88 102 84 98 90 
78 90 80 66 82 90 70 74 66 76 78 84 94 82 72 76 68 70 78 84 94 86 88 92 90 94 82 94 104 100 100 102 110 132 146 198 200 186 204 282 357 357 263 106 100 92 108 102 96 126 114 134 124 122 132 122 116 94 102 98 94 104 108 114 110 114 124 122 136 128 136 122 128 114 102 106 114 100 90 116 
58 90 62 74 80 78 84 76 76 74 72 88 84 80 78 80 88 74 68 84 92 90 86 78 92 96 90 94 96 92 96 104 124 154 221 265 275 302 378 411 452 446 366 132 90 92 102 102 108 120 120 136 136 128 124 124 110 116 124 132 132 140 162 178 172 170 160 176 178 221 235 255 241 210 160 118 118 110 104 126 
64 72 66 80 78 80 78 76 80 68 80 80 74 72 74 68 80 72 72 84 82 80 84 80 84 94 92 106 94 104 106 118 158 277 326 322 314 306 355 405 473 448 391 180 90 98 100 98 124 132 142 142 154 148 154 168 162 160 176 178 202 218 231 251 265 275 233 241 273 241 263 298 345 331 306 233 180 150 116 116 
60 80 60 62 66 72 74 78 66 66 70 78 74 70 72 68 64 76 68 80 88 78 86 76 84 86 84 90 82 104 110 162 324 370 341 349 347 370 372 393 436 459 401 216 112 98 108 116 134 170 188 172 198 178 184 174 164 152 180 182 184 233 259 247 273 286 267 253 288 257 263 281 320 353 324 304 290 267 231 214 
62 70 62 68 72 64 62 78 66 76 68 88 66 58 72 60 72 70 66 78 66 70 76 68 80 82 76 78 88 92 150 322 388 370 331 312 298 347 380 341 409 424 401 221 178 190 192 192 198 249 223 182 227 200 190 182 166 172 180 202 208 233 281 286 288 296 273 267 306 273 259 286 306 337 326 304 316 298 298 294 
64 82 60 62 78 74 52 74 66 66 68 82 56 58 60 56 70 64 68 70 58 68 62 58 70 74 70 80 82 108 279 372 349 282 190 146 140 229 302 292 370 382 382 302 294 310 300 279 257 267 229 198 235 223 202 202 200 198 214 221 257 257 277 292 298 290 279 275 298 286 265 269 298 302 288 261 247 257 308 308 
56 64 56 64 78 70 56 80 70 76 74 70 62 58 68 56 58 62 64 70 60 66 66 64 70 82 76 86 82 166 386 370 302 257 259 261 275 288 267 286 345 362 329 284 286 284 296 281 245 235 227 218 206 196 216 219 206 206 206 219 257 275 282 284 288 296 281 259 241 190 182 204 210 192 160 134 138 144 202 227 
62 72 70 78 72 66 72 62 74 76 64 74 72 74 64 70 72 60 62 84 72 68 82 70 82 92 82 86 96 198 411 391 324 304 294 306 310 335 273 265 312 339 320 263 273 271 261 255 241 235 235 223 198 219 249 225 227 208 202 208 257 251 267 281 265 251 216 186 162 132 134 126 136 114 108 96 100 102 98 124 
56 70 52 56 82 72 68 82 74 70 76 64 68 66 74 70 80 74 72 84 78 90 96 76 86 94 88 88 104 202 372 370 337 328 322 312 292 302 233 271 329 329 294 298 296 277 261 265 251 227 239 241 223 249 257 241 223 227 214 218 275 259 267 229 218 180 158 152 142 136 132 120 110 100 108 90 98 106 90 118 
58 72 56 80 68 60 78 80 66 58 62 84 88 82 78 80 82 68 76 90 76 88 96 86 96 92 88 100 108 229 341 341 359 360 343 308 286 253 249 341 335 324 324 326 324 286 271 275 271 237 255 251 239 265 267 263 243 235 235 275 300 267 247 196 186 184 194 172 180 150 138 132 124 120 124 118 118 128 130 132 
48 74 68 56 66 66 74 68 60 76 70 78 80 82 76 72 74 68 72 90 80 98 98 94 112 124 126 112 138 284 355 349 370 376 345 300 253 214 320 353 345 329 343 326 312 271 263 284 290 263 265 239 251 273 273 267 251 253 273 290 290 279 282 263 265 267 281 290 265 227 212 194 198 216 231 261 261 281 269 271 
62 76 58 74 66 80 72 66 80 74 76 64 84 86 78 82 80 82 86 86 94 120 168 192 247 329 314 281 343 407 384 359 401 413 359 318 269 286 355 364 362 341 329 328 324 277 251 277 290 263 148 219 251 259 271 269 261 267 286 300 294 294 292 306 304 290 310 310 306 296 286 279 284 298 320 341 343 322 343 335 
68 66 70 76 70 64 74 76 74 72 62 72 80 80 78 76 86 76 78 92 150 243 282 331 436 484 473 438 484 463 397 310 378 438 359 349 322 316 357 366 364 345 349 341 333 298 239 290 292 286 202 192 218 265 267 263 277 273 255 281 294 310 318 302 298 288 298 284 279 275 279 282 296 326 349 366 368 349 341 341 
66 72 62 64 74 80 68 74 68 64 74 68 86 74 66 86 80 70 76 116 255 362 351 440 492 475 479 450 461 477 424 298 341 407 391 337 320 304 312 335 359 360 368 335 324 294 251 298 322 284 225 168 146 229 251 269 275 271 269 290 310 312 312 292 277 275 259 257 239 273 279 288 308 329 364 364 368 318 284 255 
58 78 68 64 70 66 66 70 62 58 68 68 80 70 76 76 72 76 84 138 259 364 417 504 494 376 391 455 475 502 452 331 355 397 391 349 335 316 286 218 308 357 360 329 320 286 267 314 322 281 194 166 94 138 214 243 255 277 294 284 284 281 300 277 253 237 223 216 218 251 257 277 281 310 310 302 273 218 160 146 
54 82 64 64 76 76 80 82 72 68 72 78 80 94 72 82 88 70 90 118 227 378 448 500 479 430 405 440 448 459 438 343 359 345 370 351 322 329 314 243 275 355 360 355 335 290 279 329 335 275 192 158 142 144 182 206 219 235 241 237 237 218 214 219 194 206 194 180 190 154 172 162 176 190 182 158 148 132 130 132 
52 72 70 78 86 78 68 82 78 80 72 76 72 70 76 84 82 84 84 106 160 335 370 422 473 477 488 440 343 255 255 298 331 326 335 357 312 308 306 253 243 306 364 386 368 326 302 316 331 259 186 166 166 154 168 182 192 172 168 160 160 174 184 172 170 168 162 166 144 122 126 120 110 110 136 114 124 136 116 128 
60 90 68 70 80 62 56 86 72 68 60 86 84 78 64 74 68 70 70 92 134 225 265 263 320 362 355 237 138 130 132 229 335 341 310 320 308 275 257 249 263 288 360 397 409 362 290 279 245 206 178 158 126 134 144 126 148 128 126 130 136 132 150 128 122 136 134 128 116 108 116 86 80 92 100 112 106 114 108 116 
70 80 54 60 70 62 58 80 68 64 68 66 76 54 72 72 76 76 70 72 92 104 118 118 154 130 132 100 86 98 112 148 355 395 304 261 192 126 112 170 251 322 374 415 426 399 210 184 158 150 148 134 104 114 82 62 74 84 94 100 92 102 92 90 82 90 114 116 86 106 96 94 70 72 80 86 92 98 92 102 
50 58 56 44 62 68 74 66 66 72 54 68 78 88 66 72 66 76 70 78 64 74 82 78 96 88 96 78 66 82 100 110 251 390 331 249 150 2 32 208 312 335 376 436 448 434 265 142 156 164 172 146 124 94 72 86 88 94 86 86 86 74 92 76 66 88 82 82 94 88 84 82 74 68 78 84 84 106 86 88 
66 82 58 66 70 68 68 74 72 68 66 66 84 70 52 66 60 66 66 78 80 68 66 72 70 86 88 74 66 72 88 86 126 312 399 362 292 223 253 304 294 312 382 438 467 444 318 156 162 166 168 144 110 98 82 86 94 72 80 92 88 72 76 68 62 72 76 82 84 70 82 68 56 70 80 74 96 86 88 80 
54 74 62 72 68 56 64 72 78 72 58 74 82 60 60 70 68 60 64 82 78 68 80 68 70 84 70 72 70 76 78 94 98 146 247 339 339 296 259 277 253 255 382 428 463 419 326 180 166 168 152 144 130 96 92 76 84 86 72 86 88 74 88 76 48 62 80 76 68 62 68 58 66 68 84 78 92 88 94 96 
50 76 62 72 82 70 64 82 72 62 60 64 74 64 66 66 64 72 58 76 70 78 76 70 68 68 82 72 90 82 92 90 100 110 122 182 245 290 265 239 237 269 368 386 413 388 281 192 176 162 154 140 124 98 80 86 74 74 78 62 80 76 84 78 64 76 76 70 78 56 74 60 70 66 72 74 82 96 84 88 
42 80 52 62 72 72 78 94 74 86 76 74 82 64 70 68 74 58 60 72 66 50 88 68 72 88 84 62 92 86 94 108 102 108 122 118 116 160 192 190 180 200 192 198 192 206 176 172 164 152 144 132 108 98 82 86 92 86 82 74 90 72 76 58 56 74 72 78 80 78 76 90 64 80 84 84 90 88 88 80 
60 68 62 64 80 86 74 92 78 88 74 90 86 70 74 76 76 66 78 94 72 70 80 78 76 82 86 88 80 94 94 94 106 104 108 110 100 122 130 132 118 126 130 118 118 146 154 144 138 142 118 120 110 94 74 76 90 84 82 78 82 76 86 80 78 76 86 84 78 82 80 84 80 80 86 90 82 78 76 90 
62 76 70 64 80 66 68 80 80 60 78 82 70 88 56 66 68 70 62 84 80 70 80 80 72 72 86 74 82 84 104 94 90 94 102 100 86 98 104 82 86 94 102 102 110 122 128 126 134 124 122 120 98 82 76 84 86 84 84 88 76 80 90 70 66 72 74 84 74 80 94 88 70 80 76 80 88 90 76 82 
62 70 60 64 70 70 64 90 68 64 64 94 68 68 64 56 78 54 70 74 64 66 70 72 64 78 66 58 78 80 88 86 80 82 82 78 72 86 78 78 74 70 90 88 90 114 104 106 112 110 94 98 80 76 72 82 64 82 62 78 82 64 66 68 60 70 78 80 74 76 76 82 74 82 90 86 92 84 70 70 
52 82 52 62 72 58 64 78 74 68 80 68 76 74 66 70 60 66 74 74 74 64 66 60 62 70 62 74 58 70 86 70 90 82 64 78 64 64 64 74 60 64 76 86 82 82 88 92 80 90 88 84 74 76 84 84 78 72 74 68 64 72 66 52 62 64 78 72 70 58 86 62 70 56 88 80 80 76 68 78 
60 68 70 56 80 62 68 82 100 72 76 86 80 74 76 76 72 82 84 70 74 66 68 68 56 70 60 60 62 68 60 74 72 56 60 74 54 58 66 48 54 52 74 60 66 78 74 76 80 74 78 76 70 68 66 68 70 78 72 76 66 70 68 60 52 78 62 76 58 74 68 76 76 72 84 86 72 86 74 84 
56 76 56 76 64 76 56 92 56 66 68 70 78 58 76 70 60 68 72 78 68 62 74 70 62 58 70 48 52 56 54 52 52 60 48 68 50 58 64 46 42 54 52 56 50 68 66 56 70 58 62 74 56 60 54 66 72 70 56 76 74 54 52 52 50 52 68 66 46 54 54 58 64 72 74 64 88 92 96 68 
56 80 50 66 70 64 62 64 66 58 78 76 68 76 70 78 78 58 60 68 72 58 74 66 74 54 62 46 48 50 38 50 50 54 44 48 42 52 48 46 38 52 64 52 48 62 50 64 58 38 54 52 52 58 56 66 70 60 72 76 66 62 76 50 48 38 54 64 44 66 60 68 68 64 86 100 74 82 72 82 
50 58 48 66 72 60 52 70 66 66 52 62 82 60 62 60 70 60 54 66 68 62 54 60 56 58 46 40 50 46 36 32 44 50 30 38 38 42 54 56 46 54 46 38 34 44 52 54 44 44 42 52 46 50 72 54 66 72 56 66 54 42 68 44 58 52 60 58 54 60 58 50 50 70 84 76 82 84 86 84 
58 58 46 36 48 38 48 56 52 66 46 74 60 64 60 46 58 48 52 54 58 54 62 42 52 44 52 40 38 50 42 28 36 28 28 22 38 42 50 52 40 34 38 36 42 38 34 46 40 32 34 42 42 48 46 62 64 58 54 62 52 42 48 52 48 50 66 48 46 60 42 50 48 86 86 78 82 88 80 72 
46 68 54 36 44 50 48 70 52 60 60 52 60 56 60 54 56 50 58 72 60 56 54 56 50 48 50 52 34 42 42 18 24 24 34 22 12 30 40 44 12 34 38 38 26 34 40 32 36 28 34 46 42 46 50 50 54 62 48 58 36 34 42 20 46 36 38 48 38 36 38 44 36 68 70 84 82 82 82 96 
38 54 40 30 42 48 56 40 46 54 68 50 52 56 60 54 64 52 54 32 38 48 54 38 46 40 46 42 32 34 20 16 24 12 16 18 8 16 24 24 30 22 16 28 26 32 22 10 24 20 14 28 22 30 44 40 56 54 40 52 30 22 30 34 30 22 36 48 36 26 34 28 28 68 78 78 82 90 62 72 
30 56 40 34 44 42 28 40 52 46 38 46 48 44 44 38 50 34 34 46 42 36 44 50 32 36 22 44 32 26 24 6 18 18 16 8 0 8 24 20 20 12 20 14 12 30 34 22 10 16 18 30 26 32 42 34 46 46 42 38 46 38 28 18 14 30 30 24 12 32 18 14 28 50 80 82 88 86 70 84 
48 52 44 42 46 40 36 68 50 34 28 34 52 50 40 48 56 52 46 44 34 30 38 32 34 36 36 36 30 40 32 6 10 24 32 12 10 26 22 32 20 22 32 30 36 54 50 32 30 40 30 28 20 32 42 52 52 56 60 58 52 50 48 40 28 26 30 28 10 30 30 32 30 70 72 76 82 92 86 86 


