P2
80 60
530
79 99 95 83 77 77 85 81 97 83 95 93 89 87 77 85 77 63 63 55 57 63 59 49 49 49 36 39 36 28 39 39 30 43 26 24 22 30 14 18 20 20 20 36 34 24 28 28 32 39 47 22 41 47 43 47 51 34 45 43 57 49 47 39 34 32 45 47 39 47 34 49 36 14 10 24 14 36 28 4 
91 91 95 89 79 93 77 83 73 81 97 81 87 67 67 75 59 53 51 57 57 57 51 43 55 39 36 41 30 36 36 30 36 20 30 34 22 28 14 20 28 32 32 24 26 20 34 39 32 47 43 28 43 26 45 47 39 55 45 36 47 45 55 39 28 34 45 49 36 45 41 18 28 20 22 14 10 18 24 24 
107 93 83 101 93 87 85 87 71 87 81 77 87 81 71 75 75 43 57 67 59 57 51 47 47 43 34 45 49 26 45 57 36 51 43 57 39 36 26 24 39 36 41 34 41 39 34 47 36 43 49 34 45 45 49 45 71 51 49 53 45 57 57 47 45 49 51 41 43 45 49 39 28 26 12 18 28 34 12 20 
97 89 89 99 93 79 83 97 69 85 69 73 79 67 65 69 73 59 69 57 63 59 49 49 49 49 45 49 59 49 47 71 47 53 65 49 43 49 36 39 30 41 43 39 41 43 39 32 51 51 39 39 59 41 63 53 63 65 53 47 41 51 51 59 41 47 51 51 51 43 61 45 39 34 26 16 26 32 32 18 
101 95 83 91 97 71 95 97 91 95 87 73 77 83 65 93 73 75 75 67 69 69 65 63 67 59 53 41 63 59 71 77 51 61 63 65 47 41 43 47 49 32 30 41 41 49 39 55 45 63 43 51 59 55 59 69 61 63 57 49 59 47 55 67 41 43 65 43 73 49 45 45 61 43 18 8 28 36 36 30 
97 69 81 87 77 73 101 89 75 77 97 81 87 85 89 73 77 87 77 75 69 73 67 57 61 63 55 59 57 51 73 71 61 53 59 59 57 47 47 41 47 43 51 43 43 41 47 71 55 49 51 51 57 51 57 73 61 47 45 59 57 45 61 59 45 49 47 55 47 41 61 57 53 43 28 34 39 30 49 43 
103 91 99 89 83 99 87 109 91 91 87 87 101 89 91 83 77 91 63 75 81 69 65 63 63 57 65 61 63 53 71 85 63 67 57 77 71 61 49 49 59 47 51 65 47 51 53 57 55 63 59 67 59 47 63 69 71 53 55 55 55 55 61 55 57 57 57 69 53 63 57 57 51 51 36 28 43 39 57 24 
91 71 87 97 91 87 83 103 75 91 87 83 89 97 75 87 65 61 69 73 67 77 59 63 61 73 65 61 59 69 69 79 67 65 71 55 73 57 53 55 53 49 53 69 51 59 53 63 55 65 69 61 67 61 73 57 73 51 65 61 61 57 57 61 63 67 55 79 61 49 55 75 55 45 43 30 41 36 41 45 
101 85 81 87 95 89 75 89 91 89 85 77 87 95 71 83 75 65 69 75 65 61 71 61 63 71 67 61 69 73 61 75 69 83 75 67 61 53 51 49 61 51 53 55 57 59 43 61 57 63 61 57 49 59 61 59 59 61 65 65 61 49 65 57 67 63 65 79 61 71 55 61 45 43 47 36 47 41 39 34 
89 85 81 91 87 91 95 87 81 99 87 89 87 87 79 89 73 61 73 75 73 61 65 65 61 77 65 53 67 69 69 69 75 75 83 71 75 65 57 57 61 55 47 67 57 61 57 65 57 69 69 57 75 63 55 65 57 57 55 63 55 55 55 55 51 69 63 59 61 59 65 57 63 32 24 36 34 39 49 43 
91 97 89 77 105 81 83 85 87 83 95 91 87 77 81 93 83 71 83 85 83 81 75 59 71 81 61 65 73 65 85 83 77 91 81 85 77 61 65 65 57 57 51 73 71 63 57 69 59 67 67 61 77 67 51 61 63 59 61 69 51 51 39 55 59 57 77 67 59 63 69 77 79 49 55 53 34 45 53 43 
91 89 93 81 87 95 99 87 73 89 87 93 79 83 87 89 79 71 83 79 83 85 71 71 61 77 59 61 71 67 81 73 81 77 97 89 77 75 69 67 61 59 61 73 67 53 57 67 69 65 59 51 69 67 57 57 69 57 51 61 53 34 57 47 43 53 55 73 57 59 65 67 53 55 57 47 53 57 41 34 
83 103 91 85 85 81 87 97 93 85 83 85 73 87 85 81 83 75 67 73 73 63 65 73 67 57 71 61 63 69 77 71 75 79 83 99 87 75 73 67 73 71 65 89 77 71 73 85 71 77 71 57 73 57 67 63 73 59 41 57 57 45 61 36 45 65 69 67 67 63 55 51 51 53 47 34 51 49 36 24 
111 103 89 79 73 95 89 77 75 81 93 81 85 71 59 73 83 67 71 81 61 69 57 65 57 59 55 59 75 61 67 75 75 77 79 83 93 83 73 73 67 83 75 101 103 85 83 81 77 87 73 73 63 61 79 79 89 65 45 55 59 55 59 49 45 61 87 85 69 75 63 63 61 51 36 22 57 49 39 47 
117 83 81 85 87 89 95 77 77 89 79 71 75 79 61 67 85 61 69 75 69 79 69 59 67 63 61 57 67 71 83 83 87 91 101 101 89 101 85 85 93 93 85 105 115 111 87 95 79 95 87 77 77 75 79 91 79 69 67 65 69 69 79 65 65 77 81 77 79 81 79 85 63 61 51 49 53 59 53 28 
103 93 77 85 99 83 83 77 85 93 77 73 67 77 75 77 79 69 61 69 75 79 77 61 69 79 63 77 77 69 97 107 113 109 107 121 109 111 115 103 97 89 89 103 113 115 103 91 99 103 95 87 91 101 163 179 173 119 81 61 57 59 59 77 77 91 81 71 77 85 75 77 63 59 57 55 39 47 51 49 
89 89 93 97 85 53 77 89 89 93 79 81 87 77 81 77 85 75 71 61 79 77 61 83 73 73 79 75 79 73 95 109 117 119 123 133 127 127 115 117 105 107 113 131 143 143 137 125 125 145 151 111 177 233 314 314 308 225 93 75 71 69 81 79 65 77 87 101 81 89 79 79 69 71 55 59 61 53 49 47 
103 97 77 77 91 81 85 83 83 91 71 85 85 93 77 93 91 77 81 85 89 83 77 79 81 85 81 85 89 99 105 105 115 133 141 147 155 141 141 125 137 139 193 247 273 273 257 281 279 277 289 261 295 291 332 310 298 291 121 87 77 69 77 81 99 103 95 93 95 93 99 79 85 67 59 57 49 67 57 45 
109 85 85 97 95 69 93 93 93 75 85 83 87 93 87 83 103 81 89 95 97 87 83 79 87 83 81 83 105 99 111 133 137 161 177 201 215 219 213 215 261 304 342 344 359 332 320 324 322 306 281 241 293 269 267 215 175 207 99 81 83 89 71 95 93 113 93 105 95 101 89 83 79 75 53 57 73 53 57 47 
105 87 73 85 91 69 89 95 91 93 89 91 85 87 91 99 85 83 83 91 95 87 87 89 93 97 87 93 111 131 143 187 241 265 296 316 300 269 265 326 365 381 379 361 340 324 322 318 308 267 243 175 159 137 129 111 105 115 101 91 83 87 91 87 99 93 99 103 97 87 81 83 75 79 65 65 57 67 57 67 
93 99 79 85 103 79 81 99 77 81 93 95 95 99 75 79 99 81 83 91 93 89 89 93 89 107 101 107 147 227 259 289 283 285 312 320 314 316 324 358 381 381 373 344 328 318 296 233 183 169 169 157 163 141 149 117 121 111 111 105 103 93 99 119 99 103 109 115 97 101 105 95 75 65 71 71 75 71 65 51 
85 99 93 81 93 69 103 89 99 79 79 91 77 101 91 95 91 99 103 99 93 95 95 81 97 89 113 135 255 332 332 316 296 289 324 348 342 326 324 344 344 300 251 217 197 167 149 147 151 167 171 173 189 193 199 189 151 135 149 143 139 133 127 119 109 101 123 103 113 109 97 87 81 59 65 73 59 75 65 81 
113 103 85 89 75 87 111 97 85 95 91 93 105 93 93 107 123 163 167 151 117 119 91 101 103 105 115 189 330 344 318 300 281 277 302 328 334 338 293 257 187 141 143 147 153 169 175 167 193 189 213 211 221 223 221 221 211 187 191 191 161 155 137 139 133 123 113 117 103 113 99 89 85 63 63 59 69 71 83 75 
103 101 101 89 89 81 87 91 85 95 97 93 93 105 121 143 229 356 359 365 275 235 169 117 109 109 151 267 330 322 310 283 281 267 291 265 293 253 227 215 227 241 247 245 255 223 231 223 193 187 217 231 263 257 251 259 259 247 251 227 191 179 163 159 127 129 117 107 101 107 105 93 97 77 63 57 67 77 77 91 
109 99 85 103 97 73 103 93 97 99 87 75 91 87 137 235 387 401 408 468 453 437 377 193 133 127 215 310 318 291 296 269 269 287 265 237 215 177 203 237 269 289 295 271 263 223 225 241 217 215 229 235 261 259 265 265 273 261 255 229 205 221 195 175 151 145 149 123 113 117 125 131 127 111 101 77 81 75 91 93 
91 91 91 83 95 81 83 81 93 91 91 85 83 97 129 285 424 408 455 530 465 449 436 389 267 235 328 322 316 306 293 277 257 259 233 211 179 193 213 245 267 269 269 257 247 229 225 219 221 217 221 249 287 251 263 263 271 253 263 237 223 255 237 199 191 187 171 129 121 153 185 239 231 237 223 169 143 127 99 93 
83 85 89 83 83 85 87 73 73 75 89 89 85 97 133 302 403 434 490 507 426 377 420 418 436 397 381 350 312 287 271 255 227 209 207 191 181 203 221 245 267 261 267 257 229 221 213 195 207 215 223 215 255 245 249 275 245 251 251 227 231 249 237 221 223 225 171 115 99 157 221 231 257 283 285 265 235 211 181 127 
97 85 81 85 81 65 79 97 91 81 93 69 79 99 129 285 359 426 484 482 381 291 387 408 437 412 377 332 302 263 237 225 189 189 159 193 189 229 245 265 251 265 275 253 241 223 217 207 201 195 211 229 241 247 247 257 253 251 263 267 241 259 265 239 229 237 175 115 117 139 207 223 247 281 306 287 265 253 221 195 
89 93 89 89 87 85 91 93 79 83 93 85 87 81 103 225 356 385 474 467 403 340 385 410 410 383 356 316 291 253 225 219 193 177 127 199 201 241 249 259 265 259 273 279 237 227 221 207 191 221 227 223 241 241 231 247 241 245 275 269 277 273 261 247 237 229 201 145 141 149 193 213 257 281 308 302 277 253 201 203 
107 101 95 83 87 89 87 89 97 83 91 87 81 91 95 135 207 281 393 441 401 391 408 426 426 385 344 300 267 225 209 199 179 149 135 191 189 237 247 265 263 253 257 257 237 231 227 205 185 217 247 235 255 247 249 241 237 233 259 267 269 277 269 253 239 239 219 165 161 153 187 227 265 293 295 269 257 227 207 191 
97 103 105 93 99 87 89 91 79 103 83 89 77 81 93 105 109 125 145 231 300 310 281 306 371 371 306 287 253 197 209 191 171 139 121 135 185 233 245 245 251 241 243 223 233 223 195 185 183 221 251 255 281 263 233 239 231 231 207 223 227 247 243 217 213 225 201 177 153 145 173 177 227 259 251 223 219 215 213 217 
93 107 89 87 91 63 81 79 85 85 97 79 91 85 91 91 77 105 97 113 123 113 99 113 273 354 310 285 251 213 211 195 169 133 93 93 167 207 215 239 245 253 223 217 211 205 197 195 197 209 241 267 269 247 227 239 241 233 221 173 173 147 157 161 163 165 171 145 141 133 153 191 213 247 237 231 245 249 245 215 
77 103 93 91 95 87 81 87 89 81 85 97 93 95 93 87 85 91 91 107 91 109 89 123 195 312 300 293 247 217 203 195 179 133 93 111 153 183 211 229 263 237 219 209 213 195 211 177 183 207 229 245 257 239 225 231 237 217 213 187 159 117 127 125 141 145 159 153 145 159 217 267 265 277 279 283 287 271 235 177 
95 115 89 97 87 95 85 93 85 89 107 87 101 87 81 107 97 89 101 87 111 99 103 105 153 293 308 285 267 235 245 229 191 169 135 155 145 185 207 235 229 231 217 211 203 171 203 183 175 187 213 215 233 231 225 229 241 217 219 221 205 215 203 175 167 167 163 169 183 217 237 259 273 279 287 296 291 271 197 101 
97 103 93 89 89 87 85 85 87 105 103 99 93 97 87 111 97 79 97 87 95 99 95 111 155 296 316 295 265 227 239 229 219 203 173 189 151 195 203 235 235 225 223 217 199 185 197 185 165 179 217 195 213 227 219 227 225 231 235 229 211 219 225 217 217 191 165 191 215 217 235 261 269 283 302 298 261 199 109 113 
89 97 95 99 83 87 89 85 81 95 113 89 95 93 89 87 85 93 97 87 101 97 97 101 141 298 334 295 267 231 225 215 203 217 247 229 171 217 215 231 243 235 235 219 211 215 219 211 197 191 199 193 219 215 221 233 235 233 253 247 241 237 219 217 209 193 199 195 185 195 221 235 245 285 283 257 161 97 79 71 
87 87 85 85 85 81 89 79 87 87 101 79 77 81 87 95 91 73 81 85 93 77 103 91 127 287 350 298 275 233 239 235 233 249 271 241 211 219 229 241 249 255 245 241 223 215 229 209 205 193 195 189 213 209 223 243 227 225 255 247 259 269 249 229 207 199 191 171 167 149 163 201 251 257 231 135 87 77 79 73 
93 89 87 103 77 71 85 83 81 79 79 87 85 83 91 81 81 81 83 97 93 103 93 107 111 203 330 300 273 255 235 253 293 308 304 277 247 237 243 233 235 247 259 261 219 197 245 213 197 183 183 177 185 187 193 209 233 227 241 251 247 261 253 257 227 211 175 169 139 127 133 173 203 191 111 57 57 77 61 73 
87 103 95 75 89 99 99 97 93 83 89 91 93 87 87 89 95 87 89 95 91 91 95 101 119 147 261 283 287 279 267 277 285 295 289 296 281 211 149 133 157 171 205 211 193 195 247 197 199 179 177 157 187 169 195 197 219 225 215 225 245 239 259 261 237 213 183 149 97 107 127 153 127 91 61 63 65 67 83 75 
115 101 95 83 73 85 105 89 99 95 91 83 79 69 87 95 93 79 93 93 89 85 91 91 101 111 123 183 273 277 281 285 277 267 275 291 346 336 247 199 153 127 131 141 157 159 163 141 171 169 161 163 189 189 209 207 213 203 199 197 209 231 247 255 229 199 151 113 83 101 117 117 77 77 67 63 65 75 97 71 
107 87 89 97 83 91 89 87 79 83 91 95 89 89 89 93 101 63 79 99 89 87 91 91 83 95 101 115 133 177 207 251 245 249 263 310 354 342 332 318 283 189 151 155 141 135 147 147 165 171 147 141 155 187 217 213 217 203 187 215 201 217 229 209 207 173 149 105 75 103 115 99 69 65 49 55 77 69 97 59 
105 113 75 81 103 73 95 97 97 87 77 83 73 87 91 83 69 69 77 81 79 73 83 85 85 89 83 97 101 113 125 159 185 219 239 320 352 361 358 354 352 320 261 209 151 137 143 157 167 203 185 167 149 135 107 123 143 139 147 169 171 183 195 185 153 125 121 93 83 89 93 83 55 49 51 53 57 63 79 63 
107 113 89 83 95 85 93 81 77 91 87 83 79 91 79 83 85 79 79 81 73 71 85 79 83 91 71 83 95 93 105 111 111 139 155 187 221 291 358 350 358 340 318 324 251 159 137 163 175 195 205 167 145 103 97 97 71 89 89 87 79 107 101 111 103 103 87 83 87 95 91 65 53 67 41 51 45 65 81 75 
107 85 85 93 89 85 91 73 79 83 87 75 83 75 83 89 73 67 81 71 67 71 67 69 79 85 69 75 79 89 89 107 99 111 101 109 111 165 253 318 338 344 352 342 318 291 207 179 199 217 219 161 155 95 93 75 73 83 77 81 65 69 79 87 69 69 85 87 81 67 73 47 36 67 69 53 69 61 59 55 
89 99 89 93 89 87 97 107 97 91 89 81 77 75 79 83 85 65 61 77 61 83 83 81 63 77 81 83 89 81 109 111 109 119 113 115 101 103 109 169 259 296 328 342 320 310 273 259 225 223 215 157 141 95 73 81 79 79 67 67 71 71 57 75 63 61 73 67 75 67 69 59 39 53 69 69 75 75 69 61 
105 101 77 99 101 99 81 81 89 93 93 85 87 69 85 99 81 77 79 85 63 69 85 71 77 79 83 85 85 93 113 129 111 121 123 119 109 111 87 87 121 121 183 257 298 279 247 269 255 259 277 243 203 119 89 85 91 69 65 67 57 61 69 75 69 83 73 89 83 69 63 55 57 57 53 59 69 67 71 65 
87 91 77 87 97 85 99 95 101 83 89 77 89 83 85 79 95 69 79 81 71 77 77 77 83 83 77 73 87 103 135 143 133 127 141 131 103 95 97 89 83 109 103 119 159 185 207 221 233 251 279 285 289 233 195 185 149 71 75 63 59 67 73 67 63 81 69 81 71 69 67 71 61 59 59 77 75 61 73 47 
91 87 93 85 101 83 91 97 87 99 81 85 95 87 79 81 75 65 75 83 87 79 81 87 73 85 89 85 85 95 125 149 133 153 125 123 105 109 103 89 83 87 107 125 145 149 181 187 181 201 239 241 293 265 255 269 173 95 85 63 65 67 81 69 73 85 71 91 83 85 55 77 61 65 67 75 81 75 71 69 
99 91 99 91 97 83 87 95 81 93 93 75 79 87 75 83 85 77 67 89 79 87 75 85 87 85 87 83 85 101 121 135 129 117 135 117 101 103 93 81 79 81 97 129 131 145 153 147 153 163 167 179 233 247 273 203 113 77 69 75 55 73 69 77 77 85 97 93 89 73 89 73 71 73 85 77 65 81 73 73 
99 97 93 95 91 103 99 99 83 87 93 91 97 93 83 73 93 75 79 71 71 81 75 79 67 77 73 75 87 91 107 127 99 101 103 103 89 95 73 77 81 79 89 99 113 121 125 119 117 125 121 111 137 111 107 101 85 65 73 71 73 67 59 61 59 63 87 83 81 69 77 77 63 65 83 69 61 85 79 41 
89 99 103 97 111 79 93 95 87 83 105 89 87 87 97 85 77 79 87 87 85 83 73 71 71 63 75 81 81 91 105 119 109 97 101 89 85 77 69 73 65 73 77 97 89 101 91 109 103 101 111 87 93 69 79 77 79 59 77 65 63 51 59 53 57 73 83 83 65 77 75 63 67 55 69 69 85 65 67 59 
89 83 105 87 103 83 95 83 89 93 99 87 81 75 97 77 81 81 81 85 87 67 71 65 63 75 67 79 81 75 83 109 93 87 83 87 87 77 63 71 65 63 71 69 75 77 87 93 87 107 97 71 81 71 59 75 59 71 65 53 57 57 57 53 47 63 79 79 61 75 73 69 59 71 63 79 79 55 63 59 
87 97 83 87 95 95 87 79 81 87 89 89 87 101 85 77 71 65 71 83 77 79 79 63 59 67 75 71 67 67 73 99 85 83 87 81 67 69 59 59 65 59 63 63 67 73 59 83 71 73 85 61 75 63 55 53 43 49 63 63 59 57 61 45 51 59 69 79 57 67 75 61 63 61 65 47 59 57 69 53 
95 99 93 79 105 79 93 91 81 97 97 81 83 91 97 79 77 67 63 73 69 77 71 71 71 71 59 73 55 61 61 63 61 57 71 65 75 67 57 53 55 43 43 55 55 67 73 65 75 59 63 63 69 49 47 59 63 53 57 61 59 57 59 41 41 55 53 67 55 69 75 57 47 49 55 69 69 61 73 75 
97 91 77 89 87 83 77 83 97 79 81 79 85 95 83 83 87 63 65 71 77 71 65 57 65 51 61 51 55 59 51 61 51 71 65 65 59 57 57 53 43 55 51 43 49 49 49 69 71 57 45 45 51 63 65 53 55 45 34 65 43 57 63 59 49 61 59 63 63 49 57 45 36 49 71 71 71 69 79 59 
75 95 71 81 77 71 79 73 81 63 77 83 67 85 71 77 79 53 65 63 67 59 67 57 53 47 63 43 55 43 79 63 49 43 57 45 65 49 39 51 57 36 47 45 41 41 65 53 32 49 41 39 41 43 49 51 55 36 32 59 45 39 41 47 43 47 57 51 49 57 55 28 47 53 67 45 49 67 67 51 
83 91 75 69 79 63 77 69 85 67 69 63 69 69 85 77 55 53 71 59 67 61 61 45 51 43 47 41 45 49 73 45 43 41 43 45 41 24 22 28 36 32 30 39 32 14 43 41 45 47 41 30 36 34 45 45 45 36 36 41 22 49 32 20 32 32 43 47 18 39 34 39 41 57 51 67 63 61 69 51 
67 65 65 87 65 69 63 61 79 73 73 63 59 67 85 73 61 39 53 59 59 41 47 43 47 47 32 41 32 24 36 34 41 24 34 39 28 18 14 16 30 30 18 34 24 18 30 28 36 34 22 24 30 28 36 43 43 41 20 34 16 24 28 24 22 34 43 26 26 30 26 14 18 61 69 63 61 63 67 69 
77 77 73 59 69 69 61 57 61 55 61 75 61 67 65 57 51 49 47 45 47 43 53 49 36 43 22 43 28 20 43 30 28 34 32 36 16 24 12 10 18 18 26 26 24 12 32 32 22 14 24 20 36 47 34 36 36 39 24 16 20 26 28 24 10 20 34 16 30 20 28 2 0 43 55 43 53 59 59 67 
85 83 79 57 59 55 51 53 75 59 73 61 67 55 57 59 61 32 47 63 47 34 39 43 32 26 26 39 26 26 45 49 24 39 43 57 41 53 36 45 47 55 47 49 41 41 45 47 49 45 49 22 45 47 57 51 49 45 45 39 26 30 32 12 14 14 18 26 16 12 22 6 8 49 45 57 55 67 51 51 


