P2
80 60
523
69 80 82 67 80 80 84 84 88 78 82 80 84 78 78 76 69 72 63 63 59 51 72 55 49 55 53 39 37 39 47 35 47 49 37 33 31 51 33 37 39 31 35 35 41 27 29 33 39 51 35 25 43 47 45 45 41 39 49 47 45 41 45 43 41 41 49 51 55 41 33 37 39 25 23 21 7 23 23 2 
61 80 61 86 65 76 84 74 84 86 82 88 84 65 72 74 67 72 59 63 61 57 55 49 45 39 43 49 35 35 47 29 43 41 37 53 37 43 33 35 35 37 49 33 35 27 37 33 39 43 29 19 37 35 49 47 33 57 45 55 51 53 53 35 29 43 45 49 51 41 31 21 37 13 29 15 9 11 0 27 
69 94 82 74 76 82 82 86 78 90 76 76 74 63 69 65 74 65 61 74 63 53 57 65 45 49 43 49 43 31 39 39 39 47 47 57 49 45 31 35 45 43 43 29 43 39 33 45 27 43 29 35 45 43 53 43 51 55 53 63 53 63 53 53 47 53 51 41 47 47 43 41 45 33 21 29 31 23 21 33 
57 80 82 86 65 65 76 82 69 72 67 72 78 65 67 76 61 65 78 67 63 59 57 55 59 43 61 51 61 51 55 49 59 53 55 67 53 65 37 49 45 53 55 43 47 43 35 33 49 51 31 45 57 53 67 57 51 78 59 51 51 61 59 69 53 55 51 63 63 39 55 51 43 17 27 27 15 29 25 25 
67 86 78 88 82 78 84 86 98 88 69 74 78 90 69 88 82 84 80 67 67 67 69 72 78 55 55 57 69 65 74 69 65 72 82 72 57 59 59 59 61 57 53 49 47 47 39 51 49 55 35 63 59 69 67 65 63 72 65 69 69 57 53 67 53 53 61 49 72 49 51 69 61 51 25 23 33 45 19 37 
84 69 86 92 63 74 90 80 76 67 88 86 80 86 88 80 78 82 80 80 63 65 69 69 69 67 65 74 63 59 78 63 61 61 57 72 63 63 59 57 49 57 61 53 49 51 53 53 45 41 45 53 51 63 57 76 59 57 55 67 65 55 72 72 55 57 47 65 53 37 61 53 45 57 35 43 29 17 31 33 
82 80 90 84 84 96 86 96 92 76 69 84 90 90 92 80 88 86 72 74 82 78 78 65 76 63 74 72 69 63 65 74 67 69 59 88 74 74 59 59 74 57 57 63 57 51 61 59 53 53 57 63 61 67 72 63 80 65 59 65 59 67 72 51 63 67 59 63 63 57 59 51 49 53 39 39 25 31 27 37 
72 65 80 90 90 84 86 94 82 84 82 80 80 90 78 80 69 76 80 80 76 78 72 86 63 74 74 72 67 74 72 72 78 80 76 80 84 72 63 57 69 63 74 67 65 57 53 57 61 69 72 59 72 65 84 63 76 72 72 69 72 59 57 65 69 67 61 72 69 53 55 67 63 57 49 35 23 29 27 21 
84 78 76 84 94 90 86 94 96 82 90 80 90 84 82 82 80 72 76 78 78 72 76 76 74 76 80 76 84 84 72 74 86 90 76 80 78 65 59 55 65 69 69 61 63 69 43 59 63 57 55 63 59 63 74 65 63 72 74 78 69 61 67 63 69 65 67 82 76 67 55 65 59 45 51 39 33 39 27 27 
74 80 78 86 78 88 86 94 90 92 86 86 84 84 76 94 84 80 82 78 72 67 61 82 74 80 78 63 80 69 74 80 80 74 90 88 82 80 63 72 74 61 63 67 61 67 59 69 69 57 59 55 57 69 72 59 53 69 63 67 65 59 61 59 51 74 67 63 69 69 59 57 76 51 35 31 35 39 31 31 
76 96 82 76 96 86 90 98 98 80 84 80 78 80 86 90 82 80 84 84 82 80 82 74 69 80 76 74 80 74 88 84 84 88 86 92 84 78 74 76 74 61 59 78 74 65 69 63 72 67 61 59 55 67 59 61 55 65 67 78 55 67 51 65 55 49 63 74 67 65 63 72 74 59 51 53 39 39 31 43 
74 86 88 84 78 94 104 90 84 88 88 88 72 76 90 88 72 76 82 78 78 88 80 88 72 76 74 76 74 80 80 76 84 84 88 96 86 92 74 76 69 69 74 88 74 59 57 72 67 61 53 55 61 67 63 67 65 69 69 63 55 47 61 49 53 43 55 63 59 59 67 69 65 65 61 51 47 45 39 51 
76 104 96 96 80 78 90 94 84 82 84 84 74 82 84 80 80 88 80 74 69 80 67 82 69 57 74 80 76 74 74 78 82 86 92 100 86 94 80 72 82 82 80 80 92 76 65 76 61 65 61 63 65 67 67 74 61 55 59 57 59 55 61 43 35 61 78 63 72 67 61 49 67 61 49 43 43 43 33 55 
90 92 84 80 78 94 92 80 82 88 82 80 82 69 69 76 92 92 82 69 57 90 74 84 65 67 59 72 78 76 74 92 88 82 92 98 102 100 86 94 90 100 96 116 110 88 82 78 69 76 63 69 61 74 90 69 69 63 49 65 61 65 61 45 51 78 84 80 78 78 72 72 72 57 43 39 49 49 33 55 
88 78 80 82 82 86 90 84 84 82 80 67 69 88 78 69 92 72 78 67 72 76 78 65 67 69 63 69 76 88 88 96 106 96 110 118 104 118 100 98 108 102 96 124 120 118 94 92 82 90 86 86 86 90 65 65 63 65 76 74 72 84 76 67 67 74 90 76 80 82 74 76 74 78 51 57 51 51 33 55 
90 92 78 86 76 98 80 76 94 98 80 76 69 63 82 86 84 86 78 80 72 84 82 65 76 80 76 80 86 84 100 116 116 110 118 126 116 128 116 110 114 104 102 116 118 134 102 92 100 90 88 84 86 82 96 82 74 80 78 67 72 67 69 88 86 84 90 88 88 92 82 86 82 80 61 45 43 53 45 59 
76 92 92 78 82 72 86 92 100 94 84 86 82 84 84 86 82 86 88 78 84 78 65 94 72 76 86 82 92 84 100 130 124 118 130 140 138 136 132 126 124 108 118 120 122 134 130 120 112 112 98 98 108 102 88 98 86 84 82 88 92 86 98 88 72 90 108 94 96 100 90 82 96 82 55 59 37 49 47 72 
74 92 88 84 92 92 88 96 86 96 74 90 86 98 76 86 96 92 96 96 100 86 86 88 92 92 96 98 98 116 104 126 120 142 136 154 150 162 162 152 172 154 176 142 128 112 120 124 128 126 122 122 122 112 114 96 84 92 92 92 86 82 82 96 102 110 112 102 112 96 102 84 98 74 67 61 55 67 53 59 
74 92 94 114 92 76 102 98 90 74 88 80 90 104 92 90 100 94 100 98 96 92 94 94 98 94 92 100 112 108 108 126 128 152 150 170 182 194 258 278 302 324 312 234 140 132 128 130 134 138 128 140 130 126 128 110 94 100 90 94 84 106 84 100 100 104 104 114 100 104 100 96 92 88 65 59 63 57 57 74 
82 98 86 84 86 69 94 96 96 104 102 90 88 84 100 100 92 94 98 90 108 92 92 92 100 92 96 90 108 124 126 136 162 168 196 232 276 302 383 367 375 369 404 369 266 156 132 128 132 142 146 146 144 122 128 128 96 96 100 106 84 100 100 86 104 96 96 112 114 94 92 92 86 86 80 67 49 63 39 63 
78 100 76 90 90 84 94 90 78 90 88 94 96 92 86 84 102 98 92 82 102 94 100 100 102 104 106 104 118 134 150 196 274 300 316 312 318 310 369 383 377 361 365 392 357 228 160 136 134 146 146 142 142 138 132 124 106 108 96 108 112 102 108 120 102 104 116 116 104 108 92 108 90 88 72 74 74 72 65 47 
63 98 78 84 88 88 106 92 100 94 80 88 76 92 98 100 90 90 100 84 96 102 96 96 104 96 110 110 130 214 280 318 329 341 349 353 326 322 369 375 351 322 343 373 391 314 208 158 136 134 142 148 156 154 156 150 126 136 136 134 140 132 128 124 114 110 120 106 124 112 102 94 90 74 72 74 67 76 69 69 
104 104 80 94 74 92 116 86 98 100 90 104 100 84 90 102 96 96 96 104 96 112 98 110 114 100 112 130 232 324 288 312 328 363 351 349 335 331 326 328 228 164 230 312 333 341 304 220 168 164 166 172 176 188 194 178 158 176 174 170 150 148 132 138 126 124 128 122 116 128 96 92 100 78 74 67 74 72 74 82 
80 92 90 92 88 84 86 100 90 102 96 90 94 104 100 96 106 114 98 96 108 108 102 102 110 108 120 170 318 341 318 304 286 292 294 335 324 316 282 226 164 162 218 270 318 306 306 272 204 182 158 178 196 202 212 202 212 206 216 200 172 172 160 148 138 126 130 122 128 116 108 116 114 94 74 63 65 78 74 92 
72 106 82 106 94 84 106 110 108 100 82 90 86 92 100 94 114 108 102 102 108 114 108 106 112 114 138 232 324 322 302 266 262 266 246 240 220 214 226 248 244 266 270 268 296 298 300 304 240 184 178 184 198 194 204 190 210 220 230 190 164 198 188 176 158 152 158 142 134 142 160 166 176 166 138 96 86 92 94 134 
88 102 88 94 94 88 96 86 98 94 96 96 90 96 100 106 134 132 146 138 134 134 122 112 118 116 182 286 308 294 262 258 266 284 236 202 176 206 214 256 252 262 262 246 238 276 284 298 298 206 178 180 200 194 208 208 210 204 228 196 196 226 212 196 188 174 166 144 132 168 206 258 272 288 268 218 162 138 132 164 
80 102 96 88 76 92 94 82 82 78 88 86 88 96 106 150 266 339 381 355 353 361 238 162 146 144 264 316 292 272 260 252 256 238 184 170 172 224 212 244 260 252 254 236 216 242 280 282 292 260 190 182 200 216 214 226 216 218 210 198 202 218 214 220 200 202 162 116 86 142 218 230 262 300 294 266 206 192 172 154 
82 96 92 74 88 63 82 108 94 84 96 74 86 96 116 238 416 436 453 488 451 461 457 408 328 326 377 333 290 256 236 228 212 198 142 148 206 242 238 252 248 252 254 224 232 260 282 324 288 290 216 192 196 208 218 226 232 234 236 222 208 216 232 218 216 208 166 106 124 146 206 220 260 276 280 226 210 218 190 170 
86 104 90 86 88 82 104 100 82 82 92 92 92 100 144 318 439 430 490 523 467 424 428 439 439 412 400 353 312 270 220 224 210 184 128 132 206 238 244 246 246 250 252 246 224 266 320 296 310 302 290 232 220 230 222 222 226 248 246 252 264 244 228 222 214 222 198 134 140 156 192 228 256 252 250 242 252 254 232 206 
86 90 96 92 80 92 92 96 92 84 84 90 88 96 148 316 408 459 517 521 469 369 394 424 455 410 391 324 302 274 206 226 206 156 122 146 184 236 242 258 246 246 248 244 242 268 318 329 316 314 316 282 274 286 264 236 236 238 254 246 264 264 252 232 220 224 212 174 168 170 208 242 286 276 286 286 298 294 254 220 
82 96 92 100 86 88 102 94 84 96 78 88 90 86 140 270 365 420 498 515 470 381 369 408 428 389 357 298 272 236 208 212 204 150 102 122 184 228 244 248 240 230 236 228 234 268 308 337 328 339 341 318 296 266 238 218 228 234 216 210 190 202 200 184 190 202 180 170 162 180 246 270 298 292 298 300 300 290 226 210 
88 110 78 94 90 69 96 84 100 90 84 80 98 90 120 214 329 383 438 494 445 432 426 424 424 389 357 290 248 224 204 196 188 148 76 88 162 200 234 234 216 228 216 220 210 258 308 349 314 328 333 318 262 220 188 230 254 244 216 210 182 142 144 148 154 166 162 164 188 216 234 266 270 296 300 304 298 238 138 136 
72 94 86 106 96 84 104 96 94 78 92 98 108 104 112 130 216 304 365 391 392 404 369 296 298 373 320 318 258 216 190 186 176 130 43 74 136 172 204 228 238 220 232 210 206 248 296 310 324 339 310 264 208 192 190 234 244 248 234 232 212 200 198 176 166 180 192 194 216 208 216 252 280 300 306 296 248 142 102 92 
74 96 84 100 84 96 100 90 94 96 100 94 98 92 92 110 130 130 158 154 168 156 138 134 168 282 310 274 260 222 204 210 186 124 49 59 110 164 200 222 210 220 222 214 234 260 294 298 276 250 232 196 178 172 204 230 236 240 230 240 222 232 234 210 194 202 200 194 178 164 176 224 264 302 294 220 124 106 90 72 
72 88 82 86 82 94 86 86 98 102 96 98 92 104 88 108 102 112 108 102 106 112 104 122 138 216 276 276 248 196 194 228 214 132 55 49 120 156 174 196 212 220 218 236 234 280 278 260 244 192 194 174 174 184 202 204 202 230 244 252 254 260 238 234 222 200 180 166 144 128 154 202 252 290 212 130 74 76 80 49 
63 100 88 80 78 88 98 92 84 96 94 86 94 94 94 94 98 112 108 98 104 98 110 106 126 178 326 282 256 208 176 194 208 140 88 69 102 142 164 206 210 218 222 232 248 286 264 270 218 158 172 164 176 172 184 194 202 208 252 258 250 254 248 260 244 208 186 152 114 124 134 190 232 206 104 76 67 49 61 57 
53 86 96 84 84 82 88 84 92 88 90 86 92 78 94 112 108 88 92 94 106 100 110 100 108 184 357 324 300 222 198 186 192 174 126 96 124 140 148 200 210 230 252 276 290 276 244 228 200 166 158 138 150 164 178 182 192 204 218 216 222 242 254 252 246 198 166 120 86 90 126 166 166 112 80 69 49 65 61 69 
74 98 82 94 78 82 92 84 86 86 84 88 88 82 92 84 90 92 92 106 102 112 104 110 110 158 337 331 288 260 228 218 214 204 198 186 194 196 176 216 236 254 280 300 286 256 204 214 180 170 144 130 146 154 156 164 186 196 192 190 186 216 226 236 240 200 150 118 92 84 104 116 102 82 61 49 45 59 49 78 
72 102 92 76 84 98 100 106 94 88 80 86 96 84 84 98 100 90 100 106 94 104 102 116 122 144 274 324 304 282 264 296 286 266 278 266 248 220 196 200 214 282 331 328 314 240 196 198 186 182 138 132 140 158 170 184 172 192 186 194 198 194 216 218 214 174 148 108 84 92 98 100 88 72 57 59 57 59 65 74 
84 100 92 80 76 92 104 100 98 94 90 94 88 78 94 98 96 86 104 100 84 98 104 102 114 122 160 250 292 294 298 316 308 280 296 274 272 274 200 156 248 339 371 367 302 206 170 168 164 168 136 142 152 168 196 192 200 192 180 194 190 210 212 202 178 124 110 92 104 102 106 96 82 86 69 57 57 63 63 82 
80 100 92 96 84 98 86 84 88 88 88 90 94 94 90 106 100 88 92 94 90 94 104 98 98 104 110 148 194 268 292 312 296 294 282 280 326 351 320 288 341 389 398 335 206 166 158 152 168 170 156 130 128 132 146 166 160 158 136 158 156 140 136 114 122 116 120 106 102 114 112 96 76 69 49 55 65 53 74 76 
84 110 76 76 96 78 84 90 112 86 72 90 82 84 90 86 82 80 88 78 88 88 84 90 94 94 102 108 110 134 186 258 282 290 284 298 371 377 363 375 389 389 355 230 144 148 156 170 170 190 190 176 138 120 104 94 96 90 102 94 92 84 94 94 86 94 114 94 98 96 86 84 65 53 51 55 51 72 67 80 
86 96 69 74 78 80 96 80 86 92 90 76 80 90 82 86 88 86 84 88 72 67 78 88 86 98 90 86 100 104 118 126 176 216 260 274 357 361 391 398 420 389 254 148 128 146 158 168 192 204 208 188 160 114 92 94 78 74 78 82 72 76 82 80 80 92 88 86 90 98 69 63 53 61 43 47 37 63 69 65 
82 88 78 82 88 82 96 76 86 82 76 80 88 86 74 84 67 72 86 76 63 80 78 80 80 90 88 82 90 94 96 110 112 124 146 204 244 286 345 333 331 240 142 120 114 134 170 190 214 214 210 174 144 100 102 84 69 78 82 82 69 74 72 76 67 65 84 88 92 72 65 51 41 74 69 57 53 55 57 76 
61 98 90 86 88 84 90 96 88 86 94 84 78 74 86 78 90 78 72 80 69 86 86 92 82 84 74 86 94 92 114 114 118 116 126 130 148 154 194 204 196 130 112 110 124 150 188 216 222 224 210 188 154 122 86 72 72 74 67 80 74 72 61 74 67 65 76 74 82 74 69 61 55 63 72 72 63 67 74 78 
69 96 84 100 86 92 84 82 96 86 94 84 80 82 84 94 86 92 84 90 78 84 94 88 86 80 96 96 96 104 114 128 122 124 134 136 122 116 110 92 104 90 104 122 130 160 192 208 218 200 196 176 156 120 94 84 72 78 80 78 69 72 80 76 69 78 88 94 88 69 63 69 61 74 59 55 65 72 76 86 
57 84 78 78 86 88 104 94 94 74 86 74 90 90 88 84 96 82 96 86 82 88 84 84 92 82 88 82 98 112 130 140 140 142 158 134 110 106 100 90 88 102 104 112 124 162 190 206 204 202 174 162 154 116 78 82 82 76 78 74 61 74 67 72 69 86 88 84 80 72 69 80 76 78 72 80 69 65 65 78 
74 78 94 80 84 88 88 92 82 90 78 86 90 94 74 82 78 80 88 86 84 86 88 100 88 90 96 90 94 108 122 146 134 150 134 128 116 116 98 94 90 84 108 138 148 160 182 180 182 162 152 138 124 104 96 78 74 80 76 76 59 74 76 84 78 90 72 92 80 82 63 88 74 84 61 61 61 76 76 74 
74 84 82 84 94 76 94 94 78 88 90 69 78 86 82 92 90 78 76 90 74 94 78 98 94 84 92 92 96 108 122 124 132 126 132 114 104 114 94 74 84 90 108 128 136 146 146 150 156 156 134 132 116 96 84 82 72 80 65 84 61 78 76 80 72 84 90 96 100 76 80 69 76 59 76 74 69 76 72 67 
78 100 80 84 80 94 98 92 80 88 92 90 96 90 86 80 94 84 86 72 78 78 76 94 80 90 82 86 98 96 114 118 112 104 116 110 108 96 84 78 82 82 98 108 116 128 128 122 126 128 110 102 102 84 67 67 67 76 72 74 69 74 72 59 57 67 78 82 82 78 80 78 80 57 69 63 57 78 76 74 
84 104 98 94 102 80 104 96 98 86 104 88 88 84 94 90 86 90 94 88 80 86 78 84 82 65 88 90 86 96 112 112 106 104 108 94 102 84 65 74 74 86 88 106 94 114 106 108 118 102 106 90 86 74 74 72 69 76 82 76 67 63 55 61 61 72 80 86 69 84 80 72 84 69 74 67 78 65 57 53 
57 96 108 84 94 86 96 80 98 90 98 90 86 74 96 90 92 86 84 88 80 76 74 82 80 76 76 78 88 86 82 106 98 92 82 96 90 90 78 67 78 76 80 94 78 88 86 84 98 92 74 74 72 76 65 78 69 76 67 65 57 74 59 65 53 67 78 76 72 84 69 72 67 82 61 74 74 67 69 51 
65 96 86 86 84 86 100 80 102 106 88 86 86 90 92 88 76 76 76 84 90 74 88 74 67 74 82 78 69 76 78 100 94 92 98 82 78 82 69 65 76 72 69 74 80 74 72 82 76 72 67 72 63 63 65 65 55 57 74 63 53 59 59 49 65 69 72 84 69 86 69 65 76 82 80 55 63 53 57 76 
72 102 88 72 98 82 90 98 82 108 88 78 88 80 86 90 86 78 76 90 74 80 69 80 76 80 69 74 59 78 65 76 72 69 84 72 84 82 69 61 72 65 65 69 65 69 69 61 74 63 49 59 69 49 51 57 67 80 65 69 61 63 61 51 49 72 59 74 61 74 57 61 59 72 59 61 51 67 63 74 
78 96 82 82 69 80 84 78 102 78 84 67 92 86 84 76 88 74 80 78 82 78 69 80 78 61 74 63 61 67 55 74 72 76 76 72 57 61 72 76 63 72 67 61 63 57 53 53 57 53 51 43 43 65 63 53 61 61 41 72 45 53 69 61 57 67 61 69 57 57 45 53 45 72 76 69 63 59 67 82 
76 88 51 63 59 72 72 80 78 61 69 72 65 76 65 78 74 57 74 69 72 57 65 67 57 45 59 55 61 47 69 55 55 41 61 49 55 53 51 67 76 47 57 61 49 43 51 55 41 41 31 41 41 51 51 59 49 49 41 63 47 39 45 59 55 51 55 47 53 63 53 49 39 67 72 47 43 53 57 65 
63 80 67 63 72 69 78 82 59 65 55 63 61 67 65 80 63 55 80 63 57 59 65 61 61 41 55 49 45 55 59 43 51 49 47 47 41 33 45 39 39 45 31 41 41 29 33 35 51 41 27 23 37 59 45 51 49 45 37 43 31 45 41 17 51 33 41 45 31 39 29 45 45 57 57 57 53 51 53 88 
57 65 59 76 53 65 57 67 72 67 55 51 63 59 57 74 61 53 57 49 55 35 47 49 45 49 43 39 37 33 35 33 43 31 37 41 35 19 23 29 39 37 31 41 35 27 29 33 35 35 13 31 35 33 35 43 43 43 21 39 25 31 37 31 29 35 19 25 27 31 17 17 19 59 67 45 55 59 53 47 
51 65 55 57 53 69 59 67 49 53 49 59 65 63 61 67 51 65 53 41 43 43 49 53 39 45 29 43 29 31 41 41 43 29 37 41 33 33 19 19 25 15 45 37 39 21 35 29 19 17 19 21 29 39 41 39 25 43 31 21 23 35 25 19 19 29 29 19 35 27 19 7 19 41 45 43 51 43 37 67 
61 74 69 53 51 61 53 55 80 45 61 53 72 53 57 67 65 41 47 59 53 39 45 47 39 31 31 39 33 31 31 53 33 39 39 61 59 51 53 49 59 61 63 61 53 33 53 45 49 37 35 23 43 43 57 59 45 57 49 43 27 33 29 17 19 13 19 27 21 2 13 13 21 49 33 53 33 53 43 78 


