P2
80 60
752
132 128 122 122 112 104 120 100 116 114 90 90 98 98 90 83 98 83 75 77 69 67 67 71 71 69 49 49 55 55 51 47 57 51 49 39 35 57 47 47 43 41 29 37 47 37 41 37 39 41 51 45 43 47 57 53 59 51 65 63 77 45 53 43 37 61 53 59 61 49 55 55 71 79 77 85 75 81 85 65 
128 130 120 128 94 132 94 104 104 118 98 94 96 79 90 83 90 90 63 73 71 69 61 57 71 49 59 69 47 57 51 45 53 49 49 61 45 61 59 45 33 37 41 35 51 16 31 35 47 49 55 47 41 37 51 55 53 57 75 55 57 59 57 45 37 67 59 57 67 51 57 63 65 65 88 83 73 83 102 63 
130 116 110 116 122 116 116 102 92 114 96 81 73 94 83 98 96 69 79 88 61 88 63 53 69 57 53 49 61 53 51 43 45 51 43 49 35 49 55 43 37 35 41 41 37 20 37 39 33 41 53 39 37 49 45 41 55 61 51 53 69 55 41 41 39 65 67 53 55 57 49 57 63 57 81 73 77 88 71 88 
124 96 104 116 100 110 110 104 112 104 90 94 79 94 73 71 75 92 67 71 59 69 57 53 59 61 49 57 53 57 51 43 53 43 37 43 31 49 49 43 31 29 35 39 41 20 27 16 31 35 43 47 47 41 37 51 63 63 59 59 65 67 55 49 47 59 61 61 59 57 51 45 69 51 75 65 71 77 79 79 
126 116 122 108 114 114 118 116 112 106 88 88 77 92 77 83 81 92 71 69 71 63 61 57 67 53 43 59 61 51 53 51 45 55 49 59 55 43 45 47 35 37 39 51 39 45 25 43 37 39 35 51 41 49 47 57 57 59 61 67 69 51 45 59 41 53 59 57 65 57 63 53 69 65 77 81 69 73 81 73 
124 100 106 116 104 116 122 104 110 112 81 77 83 79 92 77 79 94 81 69 73 65 63 55 57 71 51 53 53 59 61 59 51 55 43 47 51 55 49 39 47 27 29 31 37 33 37 43 49 27 45 47 51 51 67 73 77 75 77 88 65 59 53 57 33 51 69 67 61 55 75 59 67 69 71 81 88 83 83 81 
124 96 118 110 106 122 116 108 106 116 88 81 79 88 77 77 96 83 73 77 71 75 67 55 65 49 51 61 53 55 41 51 53 45 45 47 43 63 49 51 37 39 35 39 43 25 39 43 27 33 45 53 49 47 67 61 88 71 81 73 61 61 57 49 37 59 59 57 69 67 61 69 47 79 79 94 83 98 100 83 
128 104 106 120 110 116 104 108 110 104 83 85 94 94 81 83 81 73 71 77 59 63 45 53 59 59 47 63 55 57 55 49 57 55 43 37 53 57 49 45 39 39 33 33 41 31 49 39 31 45 55 51 53 63 61 67 79 73 88 83 63 73 47 41 63 61 67 59 57 53 55 75 65 73 77 75 67 77 98 100 
140 92 110 108 108 110 106 104 112 106 88 79 85 96 88 73 77 77 77 63 59 75 57 45 59 59 41 53 49 47 45 39 55 47 41 41 49 45 41 47 45 39 33 39 45 39 27 31 47 47 49 41 51 41 47 65 67 71 79 81 69 71 65 57 45 51 73 59 55 61 53 63 67 65 77 81 85 90 73 81 
116 108 120 106 106 128 110 112 98 108 85 83 77 81 81 71 77 63 77 69 67 69 59 57 51 55 51 39 59 47 45 59 43 33 65 51 43 51 43 29 37 37 37 35 37 35 29 57 43 39 55 33 45 39 35 45 53 69 59 71 71 51 55 53 39 57 61 61 61 59 63 73 75 69 59 92 73 79 77 67 
112 90 110 106 104 102 100 94 98 94 81 73 73 92 85 81 75 63 75 71 71 65 51 47 59 55 55 41 47 41 47 51 47 45 41 51 33 47 43 37 43 35 23 35 31 35 29 47 55 25 33 47 41 41 49 43 49 61 55 61 63 67 47 45 63 45 61 35 51 63 53 49 61 67 61 73 69 77 67 92 
148 118 116 102 102 96 126 106 96 96 77 77 71 67 88 69 73 67 67 65 69 67 59 49 49 59 43 35 55 55 47 47 39 53 59 39 37 43 43 37 37 33 31 49 33 41 31 35 41 35 49 43 49 37 35 39 53 71 57 71 65 61 59 53 43 51 57 73 55 69 59 65 67 67 65 79 88 65 65 81 
112 114 108 108 114 112 106 108 104 90 94 71 77 77 75 77 79 79 63 63 63 71 47 65 61 51 55 57 49 49 43 51 41 53 39 43 49 51 51 43 47 47 37 43 39 29 29 41 41 31 51 43 37 47 47 57 59 55 53 63 63 61 59 49 57 55 75 67 61 59 47 51 57 63 71 71 81 79 65 77 
142 92 88 100 88 106 112 88 71 81 88 81 75 63 73 69 73 79 63 69 59 65 65 47 51 49 33 43 49 51 33 51 39 47 45 41 43 49 47 27 49 41 33 33 35 29 39 25 35 31 41 57 39 41 43 53 71 51 61 71 49 59 57 51 51 55 75 57 69 51 49 55 57 59 69 67 77 83 79 71 
118 94 96 104 110 112 108 92 83 94 81 73 77 73 79 79 71 55 63 65 41 57 55 45 47 43 53 45 49 45 45 49 43 47 43 47 25 43 45 57 39 49 29 31 39 20 41 25 31 41 55 47 41 53 45 51 49 57 63 71 75 69 49 59 65 57 69 59 55 65 63 63 59 51 69 73 69 67 67 81 
128 90 100 96 90 102 81 83 90 94 75 63 83 57 73 73 65 67 53 63 57 63 45 41 45 59 37 45 47 45 47 45 47 37 39 37 31 45 47 37 23 35 10 27 41 18 41 35 39 33 45 45 35 29 39 51 55 45 61 59 67 59 53 65 59 51 61 63 67 61 57 67 57 61 75 71 69 65 73 81 
104 85 110 98 96 96 85 90 94 88 92 75 73 75 71 67 63 59 63 59 67 65 39 57 57 33 41 43 49 35 31 47 39 43 41 45 29 43 55 37 29 25 33 35 39 33 43 37 31 33 45 51 35 41 37 41 49 47 65 59 61 65 63 57 51 53 75 69 51 59 55 69 63 65 75 67 53 73 71 69 
124 75 96 90 92 90 79 81 71 73 63 67 75 73 59 57 59 67 63 59 65 53 47 47 51 39 49 37 43 47 37 39 57 31 53 43 33 41 53 39 37 29 31 37 25 27 41 29 39 37 35 45 35 39 43 37 53 69 49 55 55 49 55 61 65 71 67 53 49 57 53 63 79 67 59 79 71 75 69 71 
110 92 96 110 104 92 94 90 73 79 75 73 69 73 73 69 65 69 71 53 57 57 67 49 51 51 27 41 47 49 43 47 57 35 45 45 41 49 47 35 35 41 33 43 37 27 41 33 39 39 43 51 43 45 47 53 57 65 73 67 51 71 61 59 65 63 67 71 47 63 61 59 59 65 61 57 71 73 71 69 
116 94 88 90 102 90 90 85 83 81 81 71 67 67 63 79 61 77 57 61 55 51 57 51 53 45 43 45 43 41 33 45 41 37 41 39 35 35 39 45 37 37 41 33 41 23 45 31 33 37 55 61 43 31 43 53 61 59 57 59 51 63 43 51 65 53 59 63 73 49 57 63 51 65 53 69 71 73 83 67 
116 98 79 98 100 90 92 92 90 88 85 67 71 73 75 67 61 67 57 63 63 59 51 41 39 53 43 43 45 47 41 45 39 43 55 45 45 47 47 39 31 41 25 35 37 29 43 33 37 43 41 49 41 35 49 49 51 53 39 47 43 45 45 53 49 49 59 57 53 41 45 55 51 51 67 59 61 55 65 75 
112 92 90 90 88 90 100 94 90 81 88 79 73 67 69 83 67 77 63 55 47 57 47 35 47 47 45 41 31 31 45 53 29 31 41 37 43 45 35 23 37 33 18 10 14 0 18 12 29 14 27 29 23 20 27 31 37 20 35 29 39 27 27 41 37 39 31 27 25 20 23 18 23 20 57 57 45 59 43 69 
118 92 90 104 92 90 88 77 65 79 88 77 63 67 67 75 53 67 45 67 39 55 49 41 45 37 45 35 45 45 33 53 37 31 41 29 33 29 31 20 29 16 16 16 10 6 20 25 25 18 23 35 18 23 16 25 29 37 29 37 31 25 25 39 39 37 39 27 23 29 20 10 25 25 61 51 49 61 59 51 
102 92 85 98 83 75 79 85 77 81 79 71 67 69 67 67 59 63 57 55 51 49 51 37 49 41 39 41 37 51 33 45 49 35 43 27 12 29 31 25 29 20 14 25 27 12 16 20 12 16 16 35 20 39 20 29 31 43 39 39 31 33 31 45 35 37 33 27 12 12 20 31 20 27 37 65 39 63 61 63 
104 98 106 110 98 83 100 92 79 104 75 83 63 63 53 79 63 57 57 55 55 55 47 39 43 59 49 33 39 35 37 45 55 39 39 41 41 37 41 29 25 27 14 29 14 10 29 29 16 8 31 25 33 29 31 33 39 43 43 37 37 25 31 39 41 37 41 33 18 25 16 6 16 23 20 29 55 75 57 73 
112 94 88 85 92 79 104 61 79 85 67 65 53 81 71 55 59 51 53 55 57 59 65 43 35 51 37 41 49 47 35 57 49 41 41 47 45 100 106 102 55 29 23 27 16 20 20 23 25 18 14 14 14 37 20 29 37 39 37 37 33 29 25 37 35 41 37 31 16 18 14 29 20 16 18 33 61 71 65 77 
98 85 96 96 79 85 92 75 79 83 88 69 73 69 59 65 63 65 59 57 49 55 55 49 49 41 45 37 41 37 49 53 53 51 83 126 167 247 257 257 185 98 25 33 31 10 16 33 16 25 29 25 35 33 35 29 45 51 69 51 37 29 39 35 43 41 47 39 27 8 20 12 16 23 31 20 65 65 57 77 
114 90 104 75 73 75 85 73 63 69 75 63 69 73 61 51 69 67 55 55 49 51 43 35 51 53 39 39 39 43 45 61 49 90 150 219 269 323 407 507 444 249 49 37 29 12 25 18 23 29 31 33 45 37 31 63 69 104 108 65 65 35 37 43 43 39 35 27 27 23 27 16 16 20 25 29 53 69 85 73 
110 98 94 104 81 92 85 71 75 81 77 73 71 69 73 69 59 59 45 55 43 51 43 35 41 45 35 53 45 29 47 47 98 243 247 253 357 420 610 693 637 399 90 41 39 18 31 25 23 43 37 49 51 29 49 116 317 403 403 136 63 51 55 53 61 39 45 39 27 20 25 14 20 18 33 33 85 79 75 94 
120 85 92 88 90 73 81 75 85 75 79 83 61 69 65 65 59 55 61 51 51 55 47 49 35 45 45 39 41 47 43 59 165 335 367 426 519 573 691 691 631 582 285 65 33 18 39 39 35 39 49 47 94 233 163 305 532 436 592 383 146 73 67 47 51 47 35 35 33 23 18 16 23 31 12 47 183 171 122 116 
118 90 88 77 75 92 75 88 75 83 67 81 65 61 59 65 59 75 65 55 45 65 51 41 51 57 33 47 57 33 45 69 227 446 470 524 592 650 662 633 662 664 544 221 47 35 41 51 47 57 47 79 233 462 507 473 584 586 637 629 409 100 67 45 61 61 29 37 37 29 33 20 23 20 31 69 231 223 189 144 
122 96 98 92 96 77 83 81 73 83 90 71 71 71 67 55 67 57 45 61 61 55 59 43 41 49 51 35 59 41 61 65 245 422 524 635 652 650 668 627 662 677 670 511 75 33 20 55 41 37 83 273 442 519 596 590 588 643 627 621 617 287 98 47 63 43 35 37 23 23 35 20 23 20 29 83 261 269 241 225 
108 98 94 83 88 81 85 75 73 79 77 83 79 71 67 53 69 49 59 57 47 59 55 47 61 55 41 47 49 31 55 57 199 438 526 627 654 685 683 644 674 668 643 477 100 31 49 47 29 81 303 526 592 540 511 573 528 575 600 625 604 432 108 51 43 45 27 16 27 18 18 20 23 20 16 75 239 277 275 271 
100 92 102 90 81 92 79 81 69 79 88 81 71 65 63 51 65 61 57 57 55 47 57 41 49 45 37 31 53 47 59 73 181 426 561 627 668 683 687 635 656 666 679 569 153 33 57 39 53 144 517 625 639 590 522 473 285 401 598 610 594 325 88 43 63 53 23 27 25 10 18 14 0 18 14 85 239 301 297 287 
106 96 96 102 75 88 79 81 88 92 96 96 67 65 71 63 57 55 61 59 37 53 41 53 51 59 39 39 41 37 45 49 114 371 519 654 681 700 699 654 650 662 672 610 289 47 47 35 37 177 557 635 627 637 573 409 128 213 565 637 550 217 110 75 67 51 43 47 51 31 33 31 37 29 35 104 279 303 313 281 
98 85 104 100 67 77 90 79 71 88 85 83 83 67 61 59 57 69 53 57 43 45 29 55 41 33 37 41 37 41 49 53 92 249 507 635 695 704 704 670 648 643 637 565 303 47 61 55 61 173 584 627 623 627 606 405 128 157 553 675 559 185 104 104 96 83 61 61 65 53 51 45 39 10 25 112 291 319 301 281 
120 96 96 90 73 96 92 73 88 90 88 88 57 75 69 63 73 51 51 65 57 59 49 49 39 39 43 43 55 35 53 51 79 142 410 619 681 727 750 740 706 672 613 472 138 53 35 61 55 245 569 621 641 617 540 247 106 189 588 677 596 213 122 110 108 104 71 75 71 69 55 43 49 20 31 94 249 291 299 295 
118 100 92 96 85 90 90 65 73 83 88 88 55 73 75 61 51 63 49 59 51 51 45 37 41 45 43 45 41 45 61 67 57 88 235 610 643 675 697 704 752 677 373 169 110 53 45 53 90 401 612 629 631 569 315 167 138 265 615 670 608 245 148 108 94 85 73 102 96 90 73 51 51 37 39 65 183 243 297 281 
118 104 102 92 77 102 94 71 79 92 90 83 65 83 63 65 75 67 45 65 55 63 61 45 45 53 33 51 41 43 43 53 65 79 161 385 357 395 375 365 450 430 241 283 241 223 171 163 219 540 625 621 582 329 153 136 144 361 643 675 617 283 163 104 98 85 88 110 102 92 75 67 71 53 61 63 112 179 265 293 
122 102 104 92 90 88 83 77 83 92 81 73 73 61 71 61 65 55 61 57 53 49 55 51 43 59 47 53 39 43 51 61 57 98 257 397 420 434 416 393 385 379 337 307 293 335 391 412 466 586 608 610 438 185 122 122 169 511 664 677 633 315 181 106 98 94 100 108 112 120 98 69 71 61 81 83 118 153 243 277 
102 106 114 96 90 96 90 88 92 83 90 90 85 81 75 69 79 51 53 61 55 57 51 47 39 51 45 55 45 57 59 69 79 255 434 491 444 438 426 442 442 454 430 403 349 323 313 418 561 623 625 608 450 291 205 197 293 615 677 674 635 303 177 114 98 106 98 130 126 122 96 71 81 71 83 100 155 189 259 279 
122 96 96 94 92 55 92 77 92 96 81 79 79 71 88 71 63 57 67 63 53 47 47 45 45 45 41 47 43 51 57 90 281 456 481 481 468 456 397 389 414 468 468 470 434 389 359 479 588 639 644 596 452 436 462 530 610 677 677 672 621 267 155 114 110 98 100 98 90 77 94 77 61 69 79 155 265 241 253 289 
126 92 94 79 81 81 88 69 83 94 81 73 79 79 77 63 65 59 67 65 49 53 51 43 33 53 41 39 55 53 59 138 412 532 517 491 487 450 414 409 399 418 470 487 481 477 491 592 635 658 641 563 462 582 627 646 674 683 679 656 557 275 197 173 155 138 130 106 104 90 92 81 90 69 94 185 313 295 279 243 
118 102 90 96 83 104 88 81 81 92 90 79 83 61 61 63 65 65 57 55 45 53 43 43 41 45 53 45 51 45 59 231 460 524 526 499 444 418 418 407 414 405 428 485 470 530 592 666 670 660 637 472 389 507 600 617 658 654 668 644 503 249 187 175 159 140 122 110 112 98 100 98 85 104 114 189 303 291 247 229 
110 104 104 106 106 90 94 88 92 79 92 98 75 77 67 65 69 69 61 59 41 53 51 45 49 47 45 49 51 43 71 249 450 513 526 493 432 428 428 395 401 430 410 472 473 569 644 695 679 677 621 481 436 440 530 606 627 641 637 584 377 251 189 169 175 153 140 126 116 112 98 98 104 102 122 175 281 269 249 255 
112 106 92 106 98 104 92 83 79 79 96 98 88 75 75 77 67 73 61 65 41 63 53 61 53 69 49 47 41 45 85 237 428 483 509 481 436 436 432 405 444 505 481 452 540 656 687 697 687 672 584 470 470 436 432 464 493 509 464 377 233 201 197 171 159 163 126 148 140 146 116 124 124 108 108 191 235 267 257 247 
124 98 88 100 81 88 106 92 83 79 98 85 88 88 83 75 49 71 51 65 59 55 61 41 53 49 51 49 45 49 65 221 369 448 452 460 426 434 454 464 550 584 571 548 608 681 693 695 691 660 536 462 468 450 405 343 277 263 225 181 183 175 185 161 148 169 159 138 144 181 148 161 155 126 128 189 235 263 253 247 
124 106 104 94 98 98 94 77 71 96 106 102 100 79 79 73 63 67 63 63 55 55 69 61 55 75 49 51 43 61 69 183 375 430 442 436 438 442 503 519 538 559 581 627 662 699 702 706 666 639 491 472 458 418 383 341 315 261 215 165 157 153 175 161 189 179 146 157 161 177 165 171 165 167 175 229 247 255 273 265 
124 98 96 102 94 90 67 67 71 92 81 83 92 79 71 63 77 69 63 61 55 49 59 47 41 41 39 45 47 51 65 126 313 393 430 424 432 470 534 538 526 544 579 654 699 697 700 687 664 588 485 446 436 432 393 359 323 305 267 187 155 161 191 215 211 203 181 177 181 193 191 235 229 201 201 237 247 261 263 267 
128 96 96 100 98 114 98 83 88 90 88 94 94 92 79 71 75 79 71 61 57 61 49 41 53 61 37 49 47 47 55 92 163 335 387 424 428 489 538 550 532 551 623 683 687 685 679 689 621 544 468 456 446 428 405 393 377 341 295 223 189 177 205 239 277 279 253 271 297 293 293 353 335 321 355 297 263 253 261 253 
126 85 100 98 94 85 79 83 77 83 90 81 112 88 77 63 75 79 63 51 55 59 53 51 49 49 43 43 47 57 57 67 96 193 347 385 391 468 513 530 575 615 650 656 656 658 658 650 561 477 472 450 438 444 426 405 367 357 315 245 187 159 195 237 273 301 275 287 313 337 353 367 393 343 293 253 251 259 253 257 
110 81 104 90 102 85 94 83 85 85 77 81 88 73 83 63 69 69 65 61 55 55 59 59 43 57 37 55 39 33 45 69 73 90 241 377 365 387 444 491 559 621 621 617 602 615 602 594 485 460 446 450 452 444 403 414 375 345 287 211 185 177 191 257 275 307 271 299 315 349 361 389 359 353 237 231 251 261 253 263 
128 110 92 108 88 104 102 92 83 94 96 94 104 104 94 88 75 81 57 75 65 63 59 57 53 77 55 57 47 57 51 65 65 75 120 245 339 375 371 369 470 550 579 590 567 555 571 495 410 436 446 438 434 412 407 363 335 315 267 209 195 177 193 243 279 283 289 295 311 337 355 371 349 355 231 221 247 237 251 241 
124 112 102 112 92 108 85 94 75 90 102 85 94 120 98 88 81 79 77 63 63 61 57 59 57 63 53 51 53 41 55 71 59 61 102 104 205 309 343 325 349 407 454 503 497 489 468 430 395 387 412 416 403 391 345 319 309 269 229 217 193 191 217 221 275 293 271 299 293 329 311 347 325 305 215 227 227 227 245 239 
136 106 96 100 102 94 100 88 100 94 106 98 92 94 96 67 69 75 61 65 77 67 53 61 47 47 49 53 47 51 47 63 61 57 73 63 83 150 257 283 307 317 315 347 369 363 359 389 377 397 393 409 393 367 331 305 303 273 239 217 197 209 239 253 293 307 277 281 299 313 305 305 305 283 203 221 225 237 245 233 
134 94 98 90 90 88 100 100 88 94 94 106 104 94 81 81 88 67 67 69 65 73 59 59 59 41 61 39 49 43 57 71 61 53 47 49 53 83 98 175 235 251 261 273 285 295 305 335 353 355 369 367 351 349 317 307 289 261 217 209 223 215 229 233 285 287 261 267 277 299 281 309 305 269 203 197 223 209 217 219 
132 108 106 96 85 83 110 98 81 92 94 83 85 94 79 85 73 73 75 73 61 51 63 41 51 57 41 51 47 37 49 51 63 53 51 45 33 61 53 57 122 197 197 215 219 251 289 291 311 309 337 349 317 329 311 285 273 263 221 209 187 185 213 215 251 239 227 241 245 249 271 275 263 247 171 205 221 201 195 209 
124 106 108 110 102 104 88 83 96 98 98 98 94 92 98 98 94 75 100 71 49 47 61 55 53 55 57 39 49 49 37 61 63 61 49 63 41 63 41 41 47 94 161 185 193 231 261 285 275 295 309 313 297 309 307 285 283 253 213 223 197 197 215 209 237 225 223 221 241 235 259 269 273 249 195 215 217 207 201 199 
128 106 94 114 106 98 104 83 90 92 98 81 88 96 92 96 79 94 67 55 63 59 51 53 59 51 49 51 49 33 47 55 67 49 53 41 45 53 55 45 53 49 53 102 161 211 247 259 275 283 313 307 283 283 287 277 269 251 229 217 221 197 201 201 197 211 199 215 227 257 259 281 273 265 181 211 187 189 193 191 
120 118 116 108 96 106 110 102 116 110 108 98 102 96 104 83 100 71 67 96 63 79 65 61 81 65 55 69 73 65 61 79 77 73 73 57 63 67 71 81 69 75 75 81 120 177 231 273 265 295 299 297 277 271 263 265 245 231 247 233 219 189 205 175 167 150 185 217 221 245 269 255 251 231 191 215 183 179 199 187 


