P2
80 60
510
88 84 84 72 68 54 68 72 88 74 84 70 80 90 78 72 72 84 74 68 52 50 50 48 40 24 42 34 32 16 24 18 24 26 4 18 20 26 16 12 10 32 22 22 22 16 24 14 28 32 16 26 32 44 50 50 50 56 46 54 52 42 70 54 54 36 40 42 38 40 30 20 40 20 34 34 14 18 20 18 
80 80 78 62 62 62 66 78 66 64 80 68 70 68 66 72 74 60 48 62 54 42 40 38 38 26 44 36 38 28 26 6 36 12 22 20 6 22 22 26 22 24 34 26 32 12 28 16 28 40 28 22 40 48 50 40 42 54 50 50 54 60 60 38 44 48 44 46 34 42 32 26 46 22 26 24 26 32 16 30 
72 80 70 74 80 72 60 76 80 78 72 72 58 68 72 70 58 66 70 70 42 60 54 56 50 38 40 44 50 38 32 26 28 30 20 36 44 38 34 36 38 46 38 38 38 22 24 42 36 44 32 34 52 66 54 54 54 64 50 70 60 52 62 52 64 52 52 62 56 46 46 58 28 46 28 22 42 38 28 30 
80 64 70 62 62 74 68 74 66 62 68 80 64 56 74 54 74 60 64 60 52 54 56 56 58 44 66 42 48 50 32 34 42 40 40 38 32 28 30 34 38 42 40 44 44 34 34 30 38 46 54 28 50 44 60 56 62 70 60 60 54 72 50 66 40 46 70 64 44 44 44 52 48 34 40 30 38 40 32 36 
78 90 58 70 90 74 78 78 74 54 76 72 80 74 74 86 70 80 62 74 50 56 54 58 52 54 50 64 48 56 48 38 42 52 48 52 50 36 46 48 46 40 42 38 46 42 52 40 48 56 48 54 52 68 62 68 68 68 70 68 66 48 66 66 52 62 60 66 50 48 48 54 50 54 46 32 48 38 54 42 
74 66 60 66 60 68 76 76 72 78 92 80 84 80 82 72 84 82 66 66 56 64 60 62 50 52 66 58 46 50 64 46 50 54 54 48 50 48 38 50 46 52 52 54 42 38 38 46 40 58 48 58 58 60 58 76 76 62 66 64 74 54 64 64 52 50 58 68 64 46 66 58 44 50 38 50 42 40 38 54 
78 62 76 60 66 72 70 70 80 68 80 78 80 70 82 74 84 88 68 66 58 74 68 60 64 50 56 62 62 60 50 46 42 52 54 68 50 62 52 58 48 56 48 56 54 48 52 62 50 52 48 58 56 58 62 66 68 64 68 64 70 74 64 70 56 72 66 66 62 62 64 60 52 46 46 58 46 58 48 36 
80 88 86 68 84 82 52 72 66 82 80 48 68 88 64 90 86 72 68 80 74 62 44 64 60 66 70 50 58 68 66 52 62 62 56 56 62 60 58 60 58 62 48 56 60 58 48 50 54 62 64 48 70 64 70 78 86 68 76 84 74 76 74 64 74 80 70 58 58 62 46 62 70 52 56 60 56 48 38 44 
60 62 72 70 66 90 78 98 74 82 74 80 78 78 84 82 94 72 60 84 60 62 66 80 66 60 82 58 60 72 66 52 64 70 68 66 54 54 44 56 58 56 60 64 48 50 40 54 60 48 66 60 80 70 70 82 78 74 76 74 76 66 74 74 68 62 58 80 80 70 70 64 52 48 62 62 54 62 42 46 
68 84 88 78 84 90 82 72 80 78 84 84 86 76 72 66 82 76 70 86 66 72 70 68 68 70 52 58 76 62 48 46 64 68 66 58 72 60 52 62 68 60 56 68 44 46 58 62 56 58 54 54 60 56 58 62 70 74 68 66 66 58 76 60 76 68 74 62 76 58 64 70 70 60 52 54 58 54 34 40 
62 80 80 68 64 84 62 78 84 62 68 76 84 76 66 88 88 82 78 82 62 76 68 72 60 58 76 60 54 66 72 56 60 62 66 66 60 70 50 62 70 62 50 60 58 60 52 60 58 60 52 52 62 54 70 58 64 70 56 64 60 66 66 58 68 60 62 56 66 56 66 60 66 66 66 50 68 74 34 42 
72 80 82 70 64 76 86 68 64 68 72 82 76 80 78 68 84 68 76 66 76 72 68 72 64 70 72 76 68 72 60 64 58 64 60 74 72 62 60 60 72 64 60 70 66 60 54 52 64 68 66 56 62 54 62 56 66 72 50 62 68 56 66 56 58 62 66 72 66 66 68 62 78 54 66 56 60 56 40 54 
64 72 92 64 78 84 78 66 82 70 66 80 62 78 70 66 88 88 80 84 60 76 64 68 66 52 70 60 68 74 52 56 68 58 60 76 74 62 64 68 84 76 50 62 80 74 54 66 66 64 72 50 56 64 62 62 66 70 62 50 68 54 64 42 54 56 68 62 66 70 46 76 64 68 50 62 52 58 44 42 
82 86 90 70 60 70 78 66 78 76 86 68 76 76 70 58 90 88 74 72 70 70 64 64 48 58 64 54 62 68 60 64 68 52 50 70 68 74 72 72 88 78 72 100 92 78 78 68 74 72 66 64 64 76 70 66 76 72 62 72 68 60 70 52 60 62 76 76 66 74 66 64 76 70 68 46 66 44 26 54 
80 84 86 74 78 78 76 58 76 74 66 62 66 74 70 70 74 68 66 76 50 76 64 68 56 68 64 60 76 66 70 64 64 70 68 78 78 88 84 84 90 90 80 104 106 102 92 72 74 76 78 70 82 78 78 88 72 80 78 80 74 62 68 68 70 80 82 78 88 84 74 78 78 68 76 66 64 50 32 46 
82 82 78 74 68 80 78 74 70 72 62 70 76 76 66 66 68 74 84 70 64 72 72 68 54 48 66 76 70 68 64 76 82 98 100 102 92 98 88 98 80 92 82 102 128 108 104 90 80 88 92 76 86 90 86 88 94 90 84 82 88 64 90 86 88 84 92 80 92 78 76 84 70 66 68 52 64 60 46 46 
60 74 82 64 72 60 74 68 64 90 66 80 64 68 82 82 78 74 84 76 68 66 54 72 70 64 76 84 80 96 80 96 96 96 106 108 122 112 100 110 102 94 94 100 114 112 114 108 94 116 112 90 120 122 116 102 106 98 98 102 90 94 98 82 84 78 104 88 94 82 90 80 82 74 58 66 72 64 56 60 
76 90 76 70 68 70 82 68 66 82 66 68 76 80 76 72 96 86 88 90 80 62 68 82 72 78 96 78 82 94 86 88 100 114 112 130 134 134 126 120 116 126 118 150 146 163 161 161 167 203 219 228 250 242 213 179 120 102 86 92 92 84 90 98 98 90 102 94 102 98 82 94 86 86 82 86 76 70 66 74 
74 96 90 86 74 72 80 78 90 78 78 74 76 86 86 84 94 86 84 90 74 76 92 98 78 70 98 100 102 96 90 108 116 126 132 154 175 203 163 140 152 159 228 320 351 341 337 316 302 310 324 341 331 308 279 306 256 148 102 98 92 88 108 110 108 102 90 102 102 86 86 94 78 82 74 78 86 84 68 70 
74 76 76 70 88 78 80 68 68 78 80 92 80 76 80 84 78 86 92 78 76 74 82 88 94 82 92 86 94 106 98 102 124 134 163 226 269 258 256 238 310 349 380 405 391 390 351 359 324 302 312 314 322 232 152 132 138 132 102 90 84 94 112 104 98 102 102 96 104 82 98 86 76 96 88 82 92 82 70 80 
76 94 74 82 76 84 58 90 78 74 86 80 78 84 70 82 102 100 82 94 94 80 88 90 94 92 92 92 100 112 106 118 144 215 297 316 306 298 351 380 407 419 384 372 345 339 326 266 195 163 187 248 254 283 195 128 110 102 104 98 98 96 110 114 104 102 96 100 104 106 102 104 96 82 76 76 84 66 68 86 
80 86 92 78 80 84 80 72 70 80 78 78 84 86 86 72 82 84 94 104 94 82 74 96 92 80 94 100 100 116 116 146 277 359 341 331 343 320 360 409 403 419 345 295 262 189 154 159 144 140 148 157 181 181 156 132 116 110 98 118 112 112 116 112 108 106 108 92 104 114 88 100 102 92 102 84 80 74 96 104 
80 84 100 94 70 82 74 84 66 66 80 82 74 82 82 78 84 92 80 92 72 90 86 92 100 88 98 94 108 112 146 262 384 380 349 337 343 328 341 341 318 238 163 144 124 106 126 148 136 154 142 161 171 148 165 161 156 154 146 161 157 154 154 156 144 126 128 100 104 116 116 118 114 108 110 84 96 88 96 106 
78 78 102 82 86 82 72 74 78 78 80 96 90 92 86 82 82 80 88 100 82 102 88 102 96 94 92 94 122 132 264 341 355 320 248 224 254 267 246 197 159 134 134 171 175 157 203 185 213 213 203 211 211 177 183 167 161 140 157 179 154 165 169 175 163 138 140 126 154 171 185 220 262 260 224 203 157 144 118 118 
70 88 86 90 70 88 82 72 66 72 84 86 80 88 78 86 104 84 90 84 86 94 80 92 104 98 104 100 102 156 341 351 328 310 281 209 177 207 189 148 140 150 167 215 205 193 230 228 207 209 185 230 215 189 183 175 140 134 140 157 157 157 171 195 183 154 156 175 211 242 254 298 343 357 339 320 297 273 242 185 
78 88 76 80 82 80 82 70 78 80 86 78 66 82 80 90 94 90 86 84 82 88 90 92 88 88 98 108 126 209 337 331 322 316 310 283 287 238 185 157 144 122 156 185 156 167 179 165 173 181 175 191 191 189 199 209 189 167 183 187 189 181 199 201 199 195 187 191 222 240 250 271 328 351 339 318 322 322 308 273 
62 90 64 58 66 76 72 82 70 70 74 68 72 74 74 84 88 76 78 82 88 94 88 94 102 88 100 100 114 236 304 312 298 304 298 304 277 267 161 144 130 134 138 150 140 154 163 146 150 138 152 159 163 191 224 232 224 211 213 222 209 199 220 215 217 222 230 220 248 256 254 256 289 326 316 293 293 293 291 291 
76 68 74 72 62 66 70 76 70 76 72 68 60 70 78 72 88 82 76 94 72 96 96 100 116 108 102 100 134 275 304 329 314 291 298 316 273 193 146 152 179 181 177 157 156 154 148 148 128 134 148 140 159 185 211 226 211 213 205 220 209 219 242 244 252 248 258 266 291 266 246 262 277 304 295 273 262 254 244 232 
66 84 76 68 78 80 62 74 68 62 72 70 52 76 66 60 88 80 82 106 122 197 203 220 295 310 187 163 211 339 329 347 351 318 333 328 264 144 96 142 209 201 195 185 150 159 181 165 126 134 150 148 191 211 242 240 220 220 193 199 191 205 232 254 260 267 285 273 228 189 167 154 165 169 171 161 159 150 144 165 
60 78 66 72 78 70 64 84 78 72 78 64 64 62 74 64 82 74 102 193 289 306 335 421 463 476 451 440 447 409 328 388 407 349 351 331 264 140 66 157 219 205 179 177 150 163 183 169 140 136 146 150 181 205 240 242 234 242 238 232 250 262 267 277 293 300 314 285 271 219 187 181 187 207 230 234 252 248 236 220 
64 82 90 80 76 76 78 86 76 68 80 72 70 74 76 74 88 80 102 232 349 366 465 497 449 461 482 467 487 446 310 360 421 353 364 349 267 136 98 177 213 215 195 179 159 171 177 159 108 0 66 110 171 197 240 248 240 262 254 271 291 287 298 310 304 295 312 298 287 291 267 267 279 291 322 322 328 328 318 302 
80 80 74 80 84 80 70 88 74 66 68 68 78 76 80 90 94 92 108 203 345 444 507 484 411 378 461 470 495 446 318 345 362 322 362 335 291 134 124 207 228 228 201 191 161 169 173 159 116 12 26 100 159 209 232 252 250 262 271 275 281 277 312 277 281 285 281 279 273 271 283 281 287 318 333 339 347 345 318 314 
68 74 72 74 74 66 88 76 72 68 82 70 84 82 82 88 90 86 104 165 320 405 510 487 459 415 465 451 480 442 300 329 316 316 359 360 331 250 163 181 222 230 205 175 165 167 189 156 112 72 52 2 90 173 205 234 224 256 254 262 252 267 277 244 244 234 242 224 236 260 262 285 297 337 345 339 329 297 266 226 
78 86 88 62 68 92 76 72 60 64 78 76 82 100 86 86 88 84 100 154 283 333 409 453 478 472 463 382 345 310 298 287 302 335 341 345 364 355 281 193 203 215 195 157 146 165 189 154 104 90 56 2 14 68 157 185 201 219 222 228 228 215 228 201 191 183 175 173 193 254 258 283 298 298 302 293 240 183 140 120 
66 72 66 76 66 88 70 80 92 82 90 72 84 78 86 84 90 94 112 126 181 224 256 300 341 364 250 161 144 189 283 283 302 347 360 351 382 386 374 252 195 193 179 152 140 154 154 136 102 76 58 26 42 72 130 159 163 185 189 191 191 187 179 165 157 150 144 146 154 173 181 175 197 191 169 156 108 88 94 94 
78 78 74 80 84 76 68 74 80 80 78 88 84 106 88 90 98 94 98 98 102 130 138 156 148 132 120 116 120 157 293 275 283 306 300 291 349 409 407 362 224 163 179 154 148 159 146 120 98 72 86 82 86 110 142 152 157 154 144 148 154 154 161 142 140 128 124 122 132 128 132 124 122 104 88 98 96 60 74 80 
78 76 72 74 74 82 72 82 82 72 74 76 86 78 62 92 78 78 84 98 80 92 102 108 100 96 102 102 116 142 318 312 264 197 193 244 341 434 446 407 339 189 128 124 132 152 165 120 110 92 112 108 104 102 110 128 112 110 110 126 128 130 132 120 112 116 108 110 120 120 110 114 110 94 72 86 74 58 64 72 
70 72 84 84 62 68 62 72 68 68 70 58 70 80 76 80 82 80 90 98 80 92 80 90 104 82 92 102 106 140 295 328 289 217 234 271 333 432 468 440 399 279 118 106 108 104 130 116 106 110 116 120 94 92 62 64 88 94 106 96 88 94 106 110 104 102 110 106 120 106 104 110 88 96 82 84 82 72 64 78 
68 72 80 66 68 68 90 86 80 68 74 78 76 96 80 96 94 72 86 90 88 92 90 102 100 96 96 104 100 122 201 333 339 316 300 283 308 415 489 459 426 355 157 114 110 114 106 104 110 114 116 104 112 104 100 94 98 100 84 82 86 74 84 102 98 100 106 98 100 86 90 98 82 94 84 86 82 74 74 86 
76 78 86 76 74 80 62 76 76 80 70 66 70 72 84 84 96 82 84 90 82 86 94 92 98 84 100 94 100 112 136 201 308 314 300 279 343 415 474 478 436 376 219 116 116 118 104 110 112 112 118 114 110 102 104 100 100 84 86 92 76 76 92 96 98 94 94 108 88 104 96 92 84 74 80 82 84 92 82 84 
66 84 76 66 66 80 64 76 74 64 72 68 82 74 74 84 84 76 68 86 84 76 80 86 88 88 96 92 96 98 98 114 156 209 271 248 343 390 438 472 428 374 252 134 124 112 112 112 134 120 140 116 106 92 102 100 90 98 80 94 84 78 88 82 88 102 108 102 98 98 94 74 64 70 60 72 72 88 64 84 
72 84 68 60 74 68 72 66 78 68 70 64 72 52 82 72 84 74 80 76 78 78 82 74 86 74 94 92 74 94 84 92 108 118 159 234 295 320 339 384 353 289 161 114 108 128 130 140 136 144 142 142 118 100 92 82 86 76 80 80 76 74 78 98 92 76 100 108 80 98 78 86 64 46 52 62 68 80 68 90 
62 68 74 66 72 82 78 68 82 72 70 68 72 88 76 82 80 84 80 76 72 68 80 80 82 74 92 74 76 78 82 90 86 98 92 132 209 185 144 134 142 116 94 106 104 122 136 134 154 159 171 154 130 94 90 78 78 78 84 76 72 74 82 72 84 90 80 70 94 88 80 56 64 56 52 56 64 80 60 74 
66 88 90 82 80 70 78 64 70 66 64 62 80 72 72 70 70 72 74 80 76 62 66 68 82 74 92 74 68 80 88 76 78 86 80 100 108 108 98 86 78 94 86 88 94 110 136 152 159 163 165 138 112 90 82 78 78 78 76 68 70 66 68 76 66 70 64 80 80 60 66 60 36 56 56 68 74 64 64 76 
56 72 78 76 60 74 64 78 80 70 62 68 76 60 68 78 78 70 80 76 70 64 74 66 74 74 72 72 76 84 74 78 76 94 74 72 88 94 84 76 74 74 86 90 102 120 140 152 167 165 146 134 134 98 96 70 76 70 74 76 74 58 74 70 58 58 76 72 70 46 56 50 48 50 64 58 76 70 66 72 
70 80 80 68 82 82 74 78 78 74 70 58 62 72 64 72 82 80 64 74 62 62 66 78 80 60 82 74 88 80 92 98 94 98 94 96 84 98 74 74 76 82 82 102 116 132 152 165 163 161 154 142 126 98 80 68 70 70 66 56 80 64 82 70 72 60 74 72 80 64 60 60 48 56 52 64 78 76 56 92 
62 86 78 74 70 80 80 86 80 84 82 78 82 84 80 74 90 82 70 80 70 60 82 70 86 76 84 70 92 102 94 116 118 100 108 100 102 90 82 92 82 84 98 100 100 134 157 165 161 154 152 126 116 104 80 72 80 76 76 66 70 76 76 62 74 84 78 82 86 82 70 74 56 68 68 66 76 66 74 92 
68 72 76 54 82 88 80 74 78 94 80 90 74 84 82 82 86 76 90 84 70 74 82 76 74 72 86 94 84 94 94 104 108 118 106 94 94 72 84 86 66 84 90 108 114 124 142 138 136 144 126 116 112 106 82 78 74 78 76 76 72 74 80 72 82 80 70 76 82 68 56 70 62 68 68 68 64 54 66 76 
80 76 80 72 70 72 74 68 72 84 84 76 66 86 70 70 80 84 78 86 66 74 80 78 70 70 84 80 88 82 114 106 96 110 94 92 76 78 68 70 78 90 84 106 112 120 124 132 130 130 120 104 88 90 76 80 72 72 80 82 62 74 80 70 70 70 72 88 72 74 76 72 56 70 68 66 68 72 60 60 
80 70 84 76 72 82 68 72 74 62 82 88 70 82 62 64 84 76 82 74 70 76 70 68 60 72 70 68 78 94 96 86 90 94 80 82 82 70 64 82 80 74 76 96 112 98 104 100 104 100 102 96 90 88 72 72 66 80 64 76 66 72 76 78 50 76 78 90 70 74 66 72 66 84 74 72 62 70 48 70 
74 82 76 70 74 72 72 60 68 72 88 72 80 76 76 86 84 82 76 66 76 68 66 64 60 68 74 68 70 74 94 88 98 90 64 86 76 62 60 80 64 78 66 92 84 84 92 84 86 92 82 82 80 84 70 74 76 66 66 68 50 72 68 66 62 62 72 68 72 58 72 50 62 56 72 60 64 62 60 56 
84 74 80 70 88 74 74 62 86 100 82 72 84 72 76 88 82 90 92 70 52 64 64 64 58 70 66 72 80 72 76 84 76 62 64 64 60 66 66 56 56 60 64 76 66 66 74 70 70 78 74 68 68 68 56 64 60 70 54 62 66 84 68 68 70 74 54 68 66 70 56 64 60 58 62 82 68 64 62 52 
60 80 80 82 86 88 66 70 58 80 74 62 74 60 82 82 70 72 76 76 70 60 76 64 66 56 72 58 66 64 62 66 52 62 62 64 52 54 54 58 48 60 48 64 58 58 56 66 64 68 60 66 56 70 50 68 58 64 40 68 50 50 44 50 70 54 56 66 42 46 52 44 42 46 56 64 80 70 62 60 
72 86 68 60 68 86 64 74 62 64 78 72 68 82 84 88 84 70 80 74 56 66 74 74 64 50 64 56 62 64 50 62 62 58 54 58 56 46 46 48 54 56 52 48 60 54 48 66 48 54 56 58 54 64 56 66 64 60 62 66 60 56 64 56 50 42 40 54 54 56 52 42 54 50 62 86 66 72 70 68 
62 70 60 56 76 56 64 80 70 66 60 74 60 76 68 62 76 72 60 72 64 64 52 62 56 56 46 38 58 52 42 40 52 48 32 40 36 32 42 54 58 58 42 46 36 26 48 50 36 56 42 42 50 64 68 52 58 58 54 64 40 46 68 50 58 48 54 58 50 50 50 32 44 54 68 70 74 60 58 48 
68 66 66 54 62 58 50 56 56 72 52 70 66 66 74 60 68 74 60 66 50 68 56 44 58 38 52 44 46 56 50 32 36 34 28 38 50 48 38 44 44 42 38 44 40 34 24 36 28 28 36 48 46 56 44 52 60 48 54 46 48 44 50 62 50 46 52 64 50 38 42 36 48 66 68 74 68 66 66 68 
54 74 76 40 58 60 50 60 52 60 66 60 58 62 76 68 70 78 78 64 50 66 52 70 52 42 48 52 38 42 46 24 40 24 28 18 34 22 34 32 32 40 26 38 36 34 42 34 34 42 34 44 48 44 42 38 42 52 46 46 30 38 42 34 44 32 40 48 38 34 40 36 20 38 62 86 70 60 58 64 
50 56 64 46 48 66 52 54 60 56 82 50 54 60 70 56 68 62 64 50 36 56 50 58 56 34 50 40 30 44 20 24 28 26 14 26 20 20 22 24 36 28 14 32 26 22 22 28 30 28 18 24 28 36 48 48 46 50 28 42 16 18 40 40 36 24 38 38 36 6 22 20 32 62 62 80 74 80 58 70 
54 50 50 42 38 52 32 58 48 42 46 44 58 66 66 50 64 56 52 50 38 44 36 52 44 34 30 30 40 32 40 12 24 34 12 16 18 12 18 12 24 22 22 32 20 22 40 16 26 24 22 20 18 30 36 30 38 34 46 40 36 34 34 22 20 30 36 24 18 24 10 4 12 40 62 74 70 76 58 72 
60 56 52 46 44 66 38 60 50 34 42 32 56 46 44 62 74 60 60 60 36 42 34 40 44 38 34 36 30 44 26 18 26 46 20 20 20 22 18 28 26 24 36 56 30 42 40 32 42 34 26 18 16 42 40 46 42 60 58 58 48 52 54 42 30 18 28 22 10 16 8 14 18 46 58 66 64 74 58 70 


