P2
80 60
725
110 138 112 118 130 106 102 94 100 90 79 79 86 77 81 73 73 71 59 55 57 51 59 61 55 47 49 33 41 41 31 29 29 39 31 29 18 33 27 25 21 31 21 27 31 41 18 8 21 35 27 29 35 23 39 39 27 18 29 41 57 27 25 37 29 61 41 45 33 31 27 39 41 55 69 75 57 61 88 92 
102 128 118 124 104 132 98 96 104 86 83 83 75 67 77 77 79 69 51 59 55 55 45 55 51 31 41 59 33 47 33 29 29 25 29 39 39 43 29 14 10 27 41 12 29 23 18 6 31 31 33 33 29 25 37 43 21 23 31 43 31 39 45 29 27 45 43 43 43 25 41 39 41 47 63 59 65 81 92 63 
92 118 112 128 134 112 110 100 81 102 83 77 71 81 90 81 73 57 67 71 51 57 49 47 45 47 37 35 39 31 37 27 18 27 33 33 35 35 35 23 14 31 31 25 21 31 23 23 23 39 29 27 39 29 33 21 21 25 18 45 47 47 33 23 23 49 51 41 41 35 14 45 29 49 77 77 71 79 92 79 
100 98 96 110 112 108 116 92 106 96 86 71 77 69 69 73 65 59 65 67 57 51 41 35 43 41 33 35 35 33 33 23 27 31 31 25 25 33 23 21 8 37 23 27 21 21 18 6 27 21 31 23 27 23 29 27 27 29 29 39 43 51 41 37 23 45 39 57 31 27 33 33 31 41 57 55 53 77 86 77 
106 118 120 110 122 114 124 110 96 94 81 67 69 69 59 77 77 75 55 57 55 49 45 53 51 35 27 35 35 35 31 27 14 37 45 45 41 31 29 29 21 25 16 35 21 35 8 33 16 33 33 33 14 33 29 37 23 33 31 39 47 31 39 49 29 33 33 45 41 41 29 37 35 49 57 65 49 67 75 86 
106 116 112 116 114 126 102 96 92 92 83 73 83 73 73 81 69 67 61 53 49 51 41 45 41 45 35 33 33 35 31 39 14 35 29 31 41 41 33 16 23 25 31 14 18 37 16 16 23 16 45 37 29 31 45 55 39 41 45 69 49 61 53 49 31 45 49 55 39 29 43 49 29 49 49 77 57 77 92 86 
98 94 104 110 106 110 102 100 96 94 79 77 69 71 77 88 81 67 55 57 57 53 49 35 35 23 33 41 31 31 21 21 21 21 37 29 25 35 25 23 14 23 25 25 25 25 14 18 4 16 23 37 33 21 45 39 57 49 49 51 43 47 37 39 18 39 35 47 43 37 35 47 21 53 67 81 47 75 90 77 
110 96 90 106 114 114 88 94 92 90 65 59 67 71 65 83 63 57 59 73 43 39 33 37 37 43 27 35 23 37 21 18 16 23 29 16 29 27 27 16 10 25 25 14 6 27 27 16 12 31 33 27 35 31 39 45 43 39 53 63 49 59 39 29 31 47 43 47 23 23 25 43 31 47 61 65 49 63 106 83 
114 102 86 94 98 102 81 102 90 98 61 59 67 71 73 75 61 63 53 45 49 41 43 33 45 35 25 35 33 35 25 16 23 33 23 21 21 29 18 18 21 27 23 25 18 35 6 10 27 29 29 18 29 25 31 51 35 33 53 71 47 51 45 51 29 37 53 37 35 35 25 25 35 43 55 69 63 77 86 94 
104 112 102 96 96 122 100 96 79 98 63 57 55 65 59 71 59 53 51 55 51 41 51 39 31 33 37 21 29 31 18 33 16 29 43 39 31 27 14 14 8 21 16 27 14 27 4 25 8 21 33 14 35 29 21 29 23 31 29 49 53 45 47 35 23 39 47 47 49 35 37 39 43 41 51 92 43 69 75 81 
86 92 96 100 110 102 83 86 77 71 61 59 51 59 67 69 57 57 47 47 47 41 33 31 43 35 39 21 25 27 29 23 21 31 21 25 23 21 12 10 14 8 14 14 10 31 12 16 18 12 18 27 29 23 31 18 18 27 25 27 43 51 35 39 33 33 45 27 35 27 27 29 31 31 43 73 37 67 69 81 
114 112 114 100 92 88 102 92 83 79 59 69 49 61 59 57 57 49 51 51 49 43 37 41 33 39 25 23 29 39 31 27 10 27 31 29 31 29 25 12 10 14 25 35 18 31 12 14 12 21 27 31 35 18 21 25 21 37 33 53 47 57 57 49 33 43 31 51 31 33 31 45 33 39 57 75 53 65 67 69 
108 112 98 96 100 98 79 90 79 67 69 57 65 57 57 69 63 65 51 51 49 55 33 43 41 23 33 39 29 31 23 23 21 33 18 16 39 29 27 27 27 29 23 27 23 33 12 18 16 16 41 16 27 35 39 33 23 29 27 37 51 47 49 39 29 43 55 41 39 41 16 27 31 45 51 57 61 75 77 98 
102 108 81 96 94 96 92 81 69 69 77 65 65 49 57 57 51 61 45 61 53 49 39 41 39 37 21 27 23 25 10 35 12 35 27 29 33 25 16 12 23 21 27 27 18 21 12 4 16 23 18 37 25 21 33 31 31 29 25 45 33 45 53 37 41 43 59 47 57 41 18 21 39 49 55 59 55 61 79 94 
108 102 100 102 120 106 88 79 79 73 63 59 53 61 59 47 51 27 49 43 29 37 45 35 35 33 39 25 35 27 31 27 12 37 31 33 16 29 18 23 23 25 31 18 25 23 12 8 14 16 39 35 33 41 35 23 25 29 31 51 47 65 45 43 55 51 63 47 51 49 35 31 39 39 53 73 57 59 83 81 
100 96 88 90 94 104 79 55 86 88 61 43 65 51 55 55 47 45 43 43 39 37 37 29 23 33 21 27 23 10 29 25 21 35 16 12 6 21 12 8 6 23 8 10 23 31 21 8 18 21 25 29 27 10 29 23 16 23 23 45 51 37 45 57 53 47 51 57 45 27 27 35 25 47 47 57 49 67 61 61 
83 92 98 88 100 98 83 88 77 79 69 53 57 63 51 65 43 33 45 45 49 37 25 53 35 12 27 25 29 12 4 18 21 25 25 23 25 29 21 16 12 18 21 18 12 39 18 14 12 23 29 27 27 27 14 23 27 31 39 35 51 49 55 51 41 39 61 61 35 37 29 37 45 55 49 61 43 73 55 61 
88 77 86 92 88 86 71 69 59 63 55 51 61 55 39 51 53 51 45 51 53 25 31 29 25 21 31 16 25 31 21 23 25 23 27 16 37 16 29 18 23 21 27 16 10 33 25 18 27 35 31 21 39 33 27 23 33 45 23 45 47 45 49 59 49 57 57 43 35 41 39 41 47 47 49 67 47 75 63 73 
83 98 90 98 96 96 90 71 67 67 59 61 63 63 55 67 45 53 53 41 45 35 47 47 27 33 12 25 27 21 18 29 31 21 23 37 29 25 31 10 18 39 33 33 25 35 27 21 27 39 41 51 39 49 53 47 37 49 53 51 43 71 63 55 67 61 61 67 33 41 41 51 47 55 47 61 71 86 92 94 
92 88 88 77 108 77 83 86 73 65 57 57 53 49 43 63 47 51 37 41 43 29 25 35 37 25 18 27 29 16 12 25 18 29 23 18 27 18 23 27 21 21 33 33 27 35 35 37 45 45 69 69 63 71 81 77 63 57 61 39 63 67 55 51 61 51 55 65 61 33 41 45 43 59 51 90 116 128 132 126 
86 102 73 94 104 88 77 79 83 69 71 57 63 53 57 43 47 55 37 43 41 37 41 39 25 27 18 23 21 16 21 23 21 25 37 21 31 31 25 31 18 31 21 35 29 35 43 61 114 182 204 250 290 288 300 268 182 122 90 79 128 106 90 90 86 61 67 71 45 35 35 43 43 55 67 132 238 250 264 242 
94 94 90 86 94 79 100 77 73 75 69 57 63 49 45 65 53 55 45 35 35 45 23 18 29 25 25 18 12 21 23 21 4 18 16 16 21 23 10 6 16 6 16 14 10 33 69 224 424 504 560 585 622 635 622 583 554 484 399 349 357 302 262 262 232 188 132 108 106 96 96 83 67 69 116 178 290 306 290 274 
106 90 73 96 83 79 73 63 61 69 71 59 53 57 51 53 45 45 37 49 39 37 27 29 23 18 25 23 25 27 18 27 6 18 23 4 16 16 10 8 12 8 10 35 39 138 347 488 539 564 599 626 620 632 616 605 601 608 607 591 583 550 562 492 365 290 258 232 214 218 200 180 178 182 194 232 306 310 314 280 
77 94 83 75 75 57 57 69 77 65 61 49 51 49 49 45 41 43 37 45 43 35 29 27 27 14 21 18 18 33 14 14 21 12 16 2 2 4 0 12 4 14 25 69 210 430 483 500 492 523 568 597 583 593 605 603 603 624 622 612 616 630 603 436 349 347 316 310 274 240 218 234 222 214 210 252 284 286 282 260 
83 114 100 112 79 73 71 75 73 79 59 65 55 53 45 57 41 35 31 39 49 25 25 27 21 31 16 21 18 4 16 16 23 27 16 16 16 10 6 8 10 41 118 238 414 510 484 481 469 494 546 529 552 546 546 548 521 521 517 515 541 525 399 340 375 371 357 322 294 270 252 234 232 240 222 238 246 266 264 228 
86 92 79 71 98 77 79 61 71 75 51 47 47 67 47 49 41 33 29 43 35 31 39 31 18 27 12 27 18 25 14 29 21 12 12 10 0 18 12 29 33 160 250 290 338 467 471 463 479 494 391 367 385 383 361 342 343 332 296 286 296 288 292 338 361 371 359 343 302 286 242 260 246 250 252 228 224 234 216 224 
75 83 92 88 79 83 75 73 61 67 59 47 59 43 47 55 45 41 39 35 33 37 29 33 31 16 18 16 21 14 25 25 12 18 31 4 8 12 23 51 168 282 324 316 318 371 452 477 488 442 334 347 367 369 369 351 332 322 284 228 240 226 266 294 328 345 330 330 304 270 274 258 278 288 282 246 214 224 218 210 
81 92 83 71 77 69 69 57 55 53 45 49 45 49 39 29 45 59 31 37 29 35 16 23 33 25 12 12 14 14 10 27 16 18 10 14 14 31 69 212 343 393 375 369 349 330 389 459 432 351 332 343 369 375 369 381 371 340 290 250 226 224 230 248 246 276 292 318 300 290 300 288 294 318 300 266 216 216 226 210 
86 100 88 94 79 92 57 67 63 67 55 51 51 55 53 61 43 47 31 41 23 23 23 25 21 23 16 27 10 10 14 16 16 18 12 16 27 73 244 412 455 448 408 377 385 406 401 383 365 355 349 363 369 357 343 353 357 357 324 282 248 204 210 198 236 260 256 280 286 318 332 290 314 345 332 282 210 212 210 194 
75 81 79 73 92 67 65 67 75 63 73 65 49 59 43 49 33 43 35 27 29 23 33 21 16 18 18 21 10 18 12 14 6 25 21 21 61 222 444 488 494 481 455 438 422 430 405 385 340 328 326 322 324 318 312 336 314 322 332 288 260 220 194 192 244 272 242 266 316 322 314 304 302 308 292 280 210 204 212 206 
88 94 69 69 75 71 65 65 53 71 55 51 49 41 41 53 41 55 41 33 23 33 31 25 27 25 18 16 16 12 14 18 14 25 23 29 120 420 521 523 523 512 494 461 424 412 405 349 316 316 308 296 306 292 294 286 292 300 324 312 264 226 202 184 260 296 246 276 306 328 302 204 114 96 94 126 164 184 202 196 
92 94 79 79 86 69 67 73 49 61 65 61 55 41 53 53 45 37 27 35 31 27 29 37 14 16 23 14 25 18 14 12 16 21 27 41 232 452 494 502 515 517 481 442 430 434 371 347 310 306 300 292 290 280 290 290 298 306 324 302 270 218 200 178 268 298 282 284 310 332 316 276 114 55 37 63 160 174 194 188 
83 98 86 83 88 88 67 67 57 49 53 59 67 61 61 39 49 43 45 47 29 31 27 25 35 25 25 33 23 21 27 8 16 27 27 79 326 477 469 455 477 469 422 410 401 403 379 357 343 340 318 284 274 296 310 312 320 334 322 294 274 214 200 180 254 282 264 284 332 334 332 306 254 128 49 83 162 178 174 190 
90 98 90 79 77 90 81 61 59 65 71 59 55 51 65 53 43 43 49 39 35 25 25 25 29 23 25 16 35 25 23 18 23 25 49 106 397 537 517 479 453 420 369 375 381 345 359 361 355 326 298 278 288 306 322 328 332 334 322 278 276 190 174 178 260 286 264 322 355 357 353 330 300 270 170 166 174 182 180 178 
96 90 83 88 83 86 71 63 67 67 79 71 55 55 57 61 41 37 51 39 35 31 29 31 31 29 12 18 14 16 14 16 12 25 43 108 405 529 533 521 481 455 405 369 365 371 363 377 342 316 304 290 282 290 312 324 324 324 330 298 288 198 174 192 250 260 296 365 377 393 387 377 367 334 296 272 186 190 182 186 
73 79 83 81 86 67 73 65 61 73 75 63 61 43 51 49 39 45 35 35 29 25 18 41 23 14 23 14 10 16 18 18 18 16 33 104 359 535 541 529 488 471 430 416 377 373 365 377 347 334 298 296 278 288 300 306 318 332 324 288 272 218 188 188 234 266 324 373 387 389 406 395 401 371 338 292 198 182 182 182 
90 96 96 81 86 90 73 59 79 69 59 61 51 51 57 49 39 47 33 37 35 29 21 37 31 23 16 25 29 16 23 35 35 16 33 88 304 512 543 533 521 506 475 450 434 403 371 363 338 304 302 292 278 276 312 312 318 338 340 304 274 228 198 208 234 276 316 359 383 403 418 422 416 420 399 314 206 186 198 188 
100 104 86 83 81 75 69 71 63 63 69 65 49 53 57 51 39 51 37 43 39 35 18 29 21 21 23 21 21 23 31 23 25 18 37 73 254 475 479 492 479 457 446 416 424 420 369 324 286 256 290 274 284 290 310 314 334 347 340 302 246 222 204 226 240 276 282 338 365 405 418 422 432 440 424 334 214 194 196 204 
88 102 100 79 79 83 73 69 61 69 69 63 57 65 45 61 55 49 31 37 41 37 31 29 23 21 10 27 16 12 16 31 25 39 21 73 198 416 387 385 361 347 322 296 351 387 351 304 240 236 218 252 292 298 302 314 310 332 322 210 178 166 194 224 226 266 272 310 328 357 393 432 428 448 428 345 204 204 204 222 
94 102 88 94 86 75 79 53 71 73 69 55 65 49 57 47 45 37 45 35 37 21 37 45 16 33 25 25 14 23 21 29 33 33 37 67 212 500 612 630 635 637 626 576 525 418 314 252 238 220 264 302 302 296 298 308 326 302 204 148 138 144 150 142 156 228 246 270 286 322 385 410 410 420 412 324 218 208 200 190 
75 102 94 88 77 83 73 67 77 63 67 79 65 53 55 65 57 31 39 33 35 31 31 27 18 23 27 25 23 23 25 39 45 79 174 284 405 614 632 658 662 672 683 656 637 635 373 286 296 326 340 340 322 314 340 324 280 188 130 138 148 132 148 120 96 138 144 200 208 240 330 373 377 408 377 302 220 212 216 212 
94 102 88 83 92 69 81 61 75 81 73 71 57 51 69 55 51 33 39 37 25 25 25 25 21 23 18 23 25 21 45 81 150 300 459 572 570 628 607 583 601 633 670 687 651 581 340 343 395 387 375 375 365 371 418 377 150 110 118 130 148 152 154 136 124 124 116 140 126 132 178 216 224 264 254 262 250 230 236 226 
102 106 90 71 90 79 71 65 77 79 65 61 65 57 51 49 39 45 47 39 23 31 37 35 27 23 16 16 31 59 104 212 292 373 484 589 612 622 612 622 641 664 635 641 635 461 387 414 432 428 408 408 399 393 455 467 296 220 216 198 198 204 198 178 156 144 112 92 86 92 86 90 108 102 104 172 242 234 258 246 
102 102 88 88 86 96 77 57 75 73 69 63 71 51 43 41 41 43 47 33 29 27 23 35 35 16 33 23 63 126 216 306 320 426 515 660 664 654 632 633 658 668 651 572 438 340 328 440 438 424 424 422 471 457 471 546 548 541 533 506 401 222 186 164 134 120 88 81 88 61 57 63 57 75 67 168 236 252 250 254 
90 100 90 94 94 71 69 69 75 69 77 73 69 65 53 61 51 45 55 33 23 27 29 35 37 25 18 35 138 252 387 359 381 455 572 683 637 647 647 673 681 677 658 504 375 363 399 432 432 420 399 440 492 508 531 614 622 599 605 585 496 244 178 152 136 128 100 83 79 75 59 47 49 59 75 174 262 270 268 258 
92 106 79 92 88 94 69 67 61 61 77 86 67 49 61 67 55 49 37 33 27 27 35 39 37 27 31 53 136 314 340 363 310 381 475 624 647 643 662 664 675 645 618 527 510 504 452 408 401 363 401 434 486 558 558 630 635 612 572 568 502 252 174 156 128 130 98 100 114 86 83 92 77 71 77 198 276 286 250 248 
110 92 75 86 92 81 90 79 63 71 75 65 77 71 57 57 45 41 29 37 37 29 37 25 41 23 29 53 156 282 314 284 252 389 484 583 668 694 677 672 658 599 422 461 527 510 426 401 414 391 416 401 410 519 593 610 614 614 570 539 453 214 168 144 134 134 132 122 114 134 114 132 122 100 100 220 280 278 236 244 
100 104 108 81 92 92 75 67 75 73 77 79 83 63 53 59 43 43 49 47 49 31 39 41 43 41 29 47 140 290 310 316 266 290 363 552 685 725 679 637 587 369 144 150 314 448 430 416 393 365 304 282 282 300 469 589 608 583 568 467 300 170 156 134 150 154 126 136 134 130 126 130 128 124 114 218 234 226 204 200 
104 108 98 108 98 81 53 65 65 69 71 75 71 59 55 63 57 45 47 43 33 33 35 29 39 23 27 43 106 206 290 320 282 264 294 397 628 681 583 490 270 118 77 45 73 140 182 146 142 126 90 61 79 142 375 537 525 541 467 278 152 140 152 146 130 140 112 124 122 134 124 136 130 126 112 198 172 160 132 146 
102 102 96 102 100 104 90 71 77 69 77 77 79 71 57 61 61 51 51 39 35 35 18 31 37 35 29 35 67 128 212 242 264 272 236 284 438 465 278 142 59 69 57 45 41 49 51 39 29 55 55 37 43 110 373 436 401 373 224 116 94 110 126 116 126 114 81 77 73 108 118 126 120 136 122 174 172 134 116 114 
102 94 98 102 110 86 65 69 67 71 65 71 92 57 63 61 57 57 45 37 43 37 29 33 31 33 27 27 37 59 92 178 186 236 204 196 176 152 63 55 37 41 31 35 23 37 16 16 27 16 33 21 35 61 104 126 102 98 61 53 53 45 61 86 90 92 67 45 45 86 92 112 126 118 92 100 92 110 88 104 
92 96 92 81 112 92 69 63 77 73 53 81 61 57 65 63 47 59 59 37 31 33 35 35 25 43 21 29 39 18 37 79 90 128 130 130 106 77 31 25 18 23 6 27 18 27 6 23 14 27 14 10 25 33 43 47 45 53 49 31 43 49 37 81 94 90 41 49 51 98 104 116 118 126 102 69 57 81 102 94 
102 102 94 100 104 100 83 88 77 81 77 86 92 86 73 79 53 67 45 45 43 39 35 37 33 43 31 23 21 33 39 47 49 61 59 51 41 43 35 16 21 21 23 25 33 16 10 10 16 27 25 27 37 37 27 33 33 37 35 41 45 35 57 71 92 86 65 63 47 90 104 126 130 120 102 77 65 79 110 86 
98 102 104 102 90 94 75 86 61 71 77 86 83 90 71 69 65 65 65 43 57 33 39 49 43 35 29 27 29 29 25 41 23 43 43 31 31 33 27 18 8 25 14 23 14 21 14 39 18 23 27 12 37 21 35 27 23 25 41 39 45 43 63 67 79 90 47 45 55 88 112 130 138 100 81 86 51 77 90 86 
108 106 92 108 100 86 71 71 83 83 73 86 90 77 73 65 69 53 49 37 59 41 35 37 35 29 33 25 18 33 21 39 33 39 43 25 27 33 25 29 12 21 18 6 21 16 18 10 12 37 21 23 23 31 37 27 23 23 55 39 37 43 59 67 83 86 53 35 53 92 114 128 126 108 94 88 57 73 108 106 
104 110 86 92 98 98 75 90 71 67 79 88 79 75 65 69 71 49 55 45 51 35 41 53 49 25 43 16 35 18 35 41 27 27 23 29 25 29 21 10 12 23 16 6 16 31 25 18 6 31 23 4 41 21 21 18 16 23 27 35 41 47 59 77 86 81 47 35 57 90 100 126 132 102 83 73 61 59 108 83 
108 112 108 92 124 77 96 88 73 79 71 73 79 79 63 77 43 53 57 53 47 25 37 37 33 35 31 37 18 18 31 27 25 37 31 31 16 29 14 12 16 29 14 12 10 21 23 4 25 10 18 27 49 23 23 25 23 31 33 25 25 23 49 59 83 71 25 41 57 86 96 128 110 100 65 61 65 79 83 88 
94 108 114 102 104 100 79 81 81 88 86 75 90 79 88 86 77 61 67 53 35 33 37 37 33 35 37 27 31 29 21 33 33 31 31 25 27 29 14 8 14 37 21 8 10 27 12 10 16 16 12 21 18 37 21 33 16 35 18 45 31 43 41 79 81 65 49 47 61 86 108 128 128 100 81 77 73 77 88 102 
102 108 81 106 110 104 102 77 73 79 75 69 96 88 96 100 65 69 41 41 43 33 43 43 41 35 27 33 31 16 27 25 37 25 25 14 31 25 18 6 8 27 25 2 21 14 16 16 4 8 12 18 27 21 27 35 8 33 33 41 41 45 51 69 73 73 37 45 61 102 100 142 114 112 65 63 65 57 106 92 
112 124 108 100 102 102 90 90 98 83 79 69 94 77 96 86 79 55 63 59 39 49 53 55 61 45 39 39 45 41 31 47 41 47 61 45 29 39 18 39 27 53 45 37 23 29 14 12 8 29 18 23 23 39 33 35 27 27 47 37 41 35 59 79 75 67 43 41 61 79 118 144 120 106 88 75 33 79 92 88 


