P2
80 60
521
91 93 99 99 93 95 109 99 109 103 105 105 111 101 81 91 97 93 85 71 79 73 89 65 48 63 48 38 42 46 50 36 54 65 34 42 38 56 56 40 50 40 36 36 42 44 38 38 44 50 52 52 56 56 52 61 61 61 50 61 65 28 42 42 48 52 56 56 52 61 46 46 46 38 38 40 10 46 50 50 
91 89 97 103 81 111 99 97 107 101 105 105 105 83 87 93 75 79 69 83 75 71 79 61 63 46 46 54 44 42 32 36 44 48 40 50 42 63 52 50 48 58 61 28 46 40 42 42 46 52 56 48 58 34 58 65 61 79 61 54 54 48 63 40 42 54 46 61 50 54 40 38 48 30 42 28 20 24 38 44 
93 97 107 105 101 105 103 105 95 113 99 97 93 85 81 89 89 75 83 87 71 83 79 73 65 69 46 50 63 40 46 56 52 56 56 65 69 56 61 58 54 50 50 42 52 61 46 63 40 58 56 63 71 61 63 54 77 69 67 69 71 71 71 56 65 75 52 63 61 65 54 61 54 36 30 44 28 40 44 44 
95 105 111 99 93 95 101 113 99 93 89 103 101 81 71 83 77 75 93 77 73 81 77 71 69 58 63 61 77 67 40 67 63 67 75 61 69 69 65 69 54 56 61 46 52 52 48 50 65 61 58 56 77 56 79 73 71 85 81 54 54 61 61 65 63 67 63 63 63 63 65 61 50 42 38 40 32 46 40 44 
91 101 103 113 113 103 109 113 113 111 95 95 103 91 83 107 91 99 87 85 85 81 93 85 85 71 71 69 85 75 63 69 65 87 85 69 65 65 81 65 69 71 58 50 56 67 56 65 63 71 63 71 75 67 71 75 73 87 73 79 75 56 63 73 67 63 71 58 85 73 67 67 73 61 52 36 44 56 52 56 
95 83 105 107 87 101 123 103 101 93 109 107 105 97 91 97 99 99 83 87 83 87 91 81 75 83 69 83 71 71 69 65 63 73 73 73 71 79 81 67 54 65 65 50 54 69 67 77 63 63 71 77 71 69 71 85 77 83 67 73 67 54 67 63 63 71 61 81 65 67 67 67 52 61 50 48 56 48 61 77 
93 95 113 103 99 113 109 119 105 105 91 119 115 97 107 111 87 101 83 89 93 91 97 81 81 75 89 85 77 73 69 75 75 73 77 89 89 83 81 79 79 73 50 67 63 65 69 71 63 71 71 83 77 67 79 77 89 81 77 67 73 50 69 61 75 77 61 71 79 75 73 67 56 73 58 42 54 61 69 44 
95 79 99 113 111 121 113 113 109 113 101 107 107 105 91 99 85 93 87 87 77 97 85 85 61 81 85 75 71 79 65 69 79 79 83 77 89 87 83 65 79 71 65 79 65 81 65 71 69 81 89 81 87 77 99 79 85 79 81 75 79 69 61 77 79 75 67 79 77 75 73 81 63 56 54 50 63 61 56 71 
91 91 89 107 107 117 105 109 119 105 105 101 105 109 95 107 91 95 91 85 91 85 99 89 77 79 73 79 81 89 75 77 93 99 89 83 93 83 89 79 77 73 63 65 71 85 61 67 73 77 77 81 77 77 81 75 73 89 83 81 71 75 73 67 81 87 69 81 81 87 75 81 61 58 56 50 65 65 89 52 
87 99 101 107 107 111 115 105 99 115 107 111 103 97 93 97 97 97 91 95 81 85 91 91 83 87 75 77 91 79 69 83 81 89 89 89 89 91 99 83 89 81 65 67 67 77 69 85 71 87 81 81 91 83 67 79 77 79 75 73 71 65 67 75 67 85 71 65 89 77 77 77 79 50 56 52 58 58 63 69 
91 107 111 99 105 101 103 109 107 99 103 101 103 91 95 101 97 101 97 99 95 95 111 83 91 83 83 81 87 85 93 77 87 93 85 93 95 87 99 81 81 79 71 73 77 85 67 73 77 85 79 83 75 79 65 71 73 83 73 79 63 69 58 71 71 61 69 69 75 85 71 81 81 54 69 63 50 48 54 58 
87 97 105 103 107 117 129 109 95 107 103 97 87 93 99 109 89 89 89 95 93 107 97 91 77 85 79 83 81 83 93 85 85 87 93 87 99 93 101 91 89 77 71 81 79 79 71 73 77 83 77 79 81 69 75 69 81 79 71 75 63 61 63 56 61 65 67 81 81 79 79 73 71 67 71 58 67 54 48 48 
93 111 119 103 105 111 109 117 103 105 97 105 89 97 97 95 101 103 101 89 85 83 97 97 83 69 81 85 73 81 81 81 79 89 89 105 103 101 109 89 97 89 85 93 95 89 89 77 71 75 89 85 91 77 75 81 73 77 58 69 71 58 77 46 61 73 77 73 87 79 75 63 67 67 69 58 61 61 50 52 
99 109 111 107 85 123 115 107 101 111 111 101 101 87 87 97 103 95 89 95 73 95 85 91 79 75 77 81 89 81 67 89 91 93 97 95 111 107 109 101 97 105 85 103 123 107 95 79 85 95 91 105 87 79 97 77 85 73 73 73 73 75 71 65 73 79 85 81 89 91 87 83 77 67 54 46 75 65 67 81 
103 97 107 105 103 107 105 109 99 107 101 97 97 105 81 81 101 89 91 83 77 95 93 97 85 71 81 81 93 91 85 89 107 109 109 121 113 133 113 109 111 113 103 119 127 127 107 101 101 101 109 109 101 93 83 85 79 79 83 85 79 75 85 75 87 87 87 81 103 97 93 93 75 75 67 69 67 77 73 61 
99 93 95 109 107 115 105 99 115 117 103 103 85 93 85 101 95 93 83 93 91 103 99 77 77 93 85 85 97 89 107 109 113 121 117 123 129 129 125 125 117 115 103 113 133 135 121 105 111 105 115 89 103 89 101 87 91 93 83 81 73 75 83 95 87 103 91 93 103 95 89 97 91 93 79 61 58 81 69 67 
91 99 117 107 105 93 109 109 115 99 105 105 111 97 97 103 93 105 89 81 99 93 97 109 93 89 89 89 97 97 101 121 125 131 135 141 143 143 147 133 125 121 105 111 135 149 135 119 129 115 121 117 125 111 103 105 101 97 103 97 83 87 95 91 89 95 107 103 105 107 101 97 101 79 63 67 56 79 87 85 
95 109 111 103 111 117 105 117 101 107 95 111 107 101 93 103 105 109 99 105 101 107 103 111 101 105 103 101 101 117 107 125 125 143 155 143 157 165 155 133 127 115 121 117 129 131 129 137 137 135 145 145 141 125 121 99 109 103 97 97 97 85 81 113 119 117 109 113 121 109 109 91 101 81 79 65 67 87 67 79 
99 111 113 127 113 101 115 113 111 97 103 107 111 119 103 101 109 107 111 103 107 107 123 109 113 103 99 105 119 121 107 121 135 139 151 157 163 169 159 143 127 115 107 107 121 129 139 135 147 141 157 165 139 145 135 123 115 109 109 105 93 99 93 107 117 119 99 123 121 123 105 103 101 89 85 75 85 75 79 81 
103 115 109 109 115 87 119 115 115 105 117 113 109 101 103 109 105 115 107 99 113 125 111 117 109 99 105 113 121 125 115 121 131 135 157 163 171 173 157 141 129 135 125 111 131 137 167 161 159 193 211 239 249 245 195 149 119 125 103 107 103 103 107 105 117 109 115 119 121 107 105 103 93 99 93 81 67 79 69 97 
97 115 107 113 113 97 109 117 107 97 117 125 115 119 87 93 115 103 105 103 103 113 115 119 109 111 117 109 123 131 131 129 139 145 169 163 163 171 169 163 173 209 217 225 241 257 265 269 277 265 293 309 320 326 315 193 139 111 105 99 107 97 111 115 113 115 117 123 111 119 119 113 85 97 89 81 89 89 89 89 
87 111 109 107 109 101 125 115 121 91 99 117 105 113 91 105 93 113 97 99 97 115 117 111 119 95 111 117 121 121 125 141 149 159 171 185 179 215 259 291 328 366 340 324 336 348 315 279 279 285 301 326 332 297 330 311 151 117 119 135 127 127 125 135 127 117 115 115 131 119 117 99 99 83 89 85 89 89 89 99 
105 111 107 107 95 113 131 113 109 101 109 113 121 93 95 111 97 103 101 109 107 119 113 121 129 119 111 115 135 139 139 173 203 227 241 297 322 366 385 397 391 376 364 356 344 303 243 227 199 221 265 307 322 293 291 245 179 165 165 165 145 157 151 151 137 133 117 129 131 131 117 95 97 75 83 75 85 91 109 99 
99 111 117 105 113 115 107 113 109 113 119 115 107 111 117 105 103 113 103 111 107 107 129 119 119 117 131 125 153 197 241 289 285 279 295 330 378 411 415 407 395 352 338 303 289 227 197 189 191 191 201 239 245 239 227 233 193 193 215 201 189 169 161 171 143 139 127 125 119 129 123 111 111 91 89 81 83 95 99 97 
95 111 111 119 113 99 125 141 117 121 103 103 99 105 107 111 103 97 101 109 103 113 133 109 121 123 151 225 275 305 305 324 326 324 311 313 380 415 393 378 344 307 275 241 221 217 205 207 199 189 203 193 213 227 243 233 231 239 231 219 187 189 183 171 165 167 153 137 137 135 135 139 129 129 111 83 89 87 91 119 
93 103 113 111 115 115 111 103 111 109 115 107 97 105 95 101 117 111 107 107 107 111 129 127 139 175 277 320 336 336 303 301 291 315 305 307 358 372 313 273 243 237 227 225 225 217 199 193 195 197 199 213 223 225 241 251 253 257 245 209 211 207 201 201 175 183 169 145 147 173 207 255 255 265 235 179 147 123 99 139 
83 111 117 113 95 109 119 105 95 95 107 107 107 101 97 109 107 123 105 93 105 109 119 125 149 263 362 358 350 332 295 275 265 275 259 235 227 231 203 201 205 207 223 229 223 221 207 193 199 203 203 207 237 241 255 271 243 257 243 203 201 229 209 221 221 225 173 137 129 181 239 253 283 307 309 285 253 225 181 167 
105 105 121 99 111 89 105 117 105 105 111 95 111 107 93 105 109 111 95 97 97 105 107 117 155 336 378 366 342 322 281 281 289 279 233 205 187 165 153 169 171 191 223 213 227 225 205 203 205 199 199 195 219 211 237 259 253 253 249 247 233 243 245 217 237 243 171 121 133 159 229 235 283 313 340 305 285 275 243 251 
93 111 109 109 107 107 109 113 101 93 113 101 111 97 91 117 103 95 95 91 99 97 111 115 165 326 358 352 332 317 277 283 299 275 215 189 159 123 137 149 181 197 223 231 209 217 209 199 207 197 185 187 191 187 225 225 255 251 253 235 247 251 247 245 239 243 199 137 139 171 213 239 285 317 344 342 318 297 265 277 
97 99 113 107 103 109 109 113 113 101 105 107 101 101 89 109 89 85 101 101 99 103 107 129 189 328 380 366 348 320 287 305 313 257 201 157 107 111 131 177 207 215 233 233 225 225 219 201 199 193 181 169 179 179 223 249 243 247 265 263 267 271 261 253 257 263 219 161 175 179 197 235 283 328 348 338 318 279 241 259 
107 107 117 113 105 109 115 109 109 115 97 99 91 89 101 121 101 111 97 107 113 119 125 131 209 332 374 370 350 313 291 303 271 221 191 133 105 113 143 181 223 237 255 243 235 219 213 221 201 191 181 179 181 185 223 241 245 261 261 265 271 279 277 247 255 249 209 191 181 165 185 177 207 259 289 275 261 237 207 257 
99 107 99 101 113 89 103 111 111 113 115 105 117 95 105 127 105 113 111 123 129 129 125 137 253 342 372 372 356 318 275 265 239 207 167 131 113 115 155 203 213 243 243 237 217 217 201 223 203 187 187 179 181 181 223 233 245 241 239 213 215 221 211 187 201 199 177 161 163 151 143 167 197 241 251 241 243 233 225 259 
83 109 107 115 121 113 115 107 107 105 113 117 119 125 109 125 119 127 109 143 123 151 127 163 320 393 376 370 344 315 263 243 227 195 151 113 101 117 167 187 239 245 247 223 225 211 203 199 185 185 187 175 171 177 211 225 247 243 233 217 189 133 137 139 163 163 175 159 163 153 153 213 245 273 277 269 281 275 271 261 
93 107 109 121 105 129 117 109 115 107 123 109 117 109 107 133 115 145 171 287 289 289 267 317 409 417 385 358 354 305 275 247 221 195 167 115 71 105 153 175 207 237 237 219 207 187 187 185 169 173 177 159 171 169 199 207 239 233 221 223 213 169 149 147 153 171 163 159 167 181 223 253 281 293 297 287 293 295 277 209 
99 95 109 111 107 119 101 105 117 109 123 125 115 131 125 153 173 305 381 461 456 463 442 442 436 417 380 356 340 307 261 241 217 187 153 111 83 69 105 149 179 211 201 207 181 169 159 161 159 167 185 149 159 169 195 203 219 227 227 229 207 219 221 205 191 161 153 163 195 219 243 275 283 299 315 313 301 279 243 163 
89 109 111 115 99 109 109 109 103 105 119 105 127 127 159 251 354 459 485 506 448 469 428 419 427 401 378 342 326 303 271 225 213 187 173 127 79 56 36 105 139 185 185 189 195 179 161 163 167 163 165 155 161 161 193 203 207 207 235 219 219 237 239 251 225 215 197 197 229 227 231 251 257 299 299 291 277 199 129 115 
81 95 113 105 107 107 109 103 105 109 123 101 115 111 193 362 448 461 492 508 448 356 370 397 391 425 376 338 332 299 275 241 231 213 179 137 83 40 0 97 125 161 195 175 183 169 147 153 163 169 169 149 157 157 199 199 207 217 239 219 231 241 255 235 231 211 209 215 205 203 189 213 261 273 283 239 173 113 95 97 
99 107 99 115 93 97 113 103 111 105 105 111 115 117 209 376 434 442 489 521 475 405 376 425 380 383 356 348 322 301 273 247 227 213 197 169 131 73 20 79 131 159 169 173 187 167 161 149 161 167 165 139 167 175 187 197 211 223 233 247 245 253 255 247 251 223 201 203 187 161 155 197 231 259 219 127 91 85 71 85 
89 107 109 107 105 115 115 117 119 97 101 111 117 121 177 348 432 411 467 516 479 432 448 397 320 243 313 342 326 313 265 255 227 211 215 205 165 147 95 121 141 179 179 193 197 193 177 165 175 179 167 157 169 171 187 191 211 229 231 243 255 247 257 255 275 245 229 187 157 125 143 169 193 179 113 83 75 83 63 77 
107 113 109 107 87 101 119 109 103 107 111 105 103 99 159 281 389 368 423 469 465 434 389 281 167 163 255 356 342 313 279 261 243 205 215 205 187 191 185 173 189 207 213 221 211 207 183 165 195 185 177 163 171 165 175 177 207 213 231 239 225 225 249 265 261 233 211 177 131 109 133 141 125 109 97 85 77 77 77 101 
97 115 115 119 99 125 117 117 105 107 107 115 115 111 115 189 281 332 348 358 334 255 199 133 115 131 173 354 358 332 287 267 225 215 205 203 219 237 259 245 223 227 223 227 203 189 175 175 195 199 171 191 221 187 193 209 199 229 207 217 219 223 227 241 261 247 193 157 113 125 119 117 99 85 75 79 81 81 85 91 
103 117 101 101 119 101 103 111 117 103 103 101 103 101 119 111 139 191 209 179 117 127 119 107 113 109 125 283 368 332 279 261 261 221 205 225 255 275 281 307 344 340 315 313 295 269 239 215 205 203 201 179 187 183 171 215 213 211 199 207 199 199 227 223 225 213 183 131 103 111 99 93 65 69 73 63 63 73 75 89 
101 109 103 107 111 115 117 105 101 103 117 99 101 109 87 103 105 115 101 97 81 93 115 99 99 103 103 181 354 330 297 283 255 235 245 245 241 265 287 328 370 372 366 342 350 346 326 324 318 291 259 243 197 145 169 217 233 261 259 177 173 167 171 161 141 161 111 99 105 111 99 79 79 77 69 67 54 75 75 83 
93 101 103 117 109 107 115 93 105 91 107 97 103 97 83 101 87 95 97 89 79 97 105 99 99 105 95 117 217 303 293 309 287 267 267 263 239 233 265 326 360 383 364 356 370 358 336 330 324 317 305 275 273 259 265 305 318 328 348 231 103 93 93 89 93 89 93 101 99 79 83 67 58 81 91 71 77 73 79 101 
89 105 113 121 111 109 113 113 117 107 107 97 97 93 101 89 99 87 93 95 81 105 105 107 91 93 93 97 133 145 199 211 217 221 239 241 249 227 237 229 271 320 344 346 356 346 344 352 330 328 291 275 265 221 261 299 303 313 318 199 95 89 77 83 79 75 89 81 89 85 89 75 63 71 87 75 87 83 91 85 
87 107 99 125 119 123 105 107 119 109 123 101 111 97 103 111 101 101 89 99 91 97 115 105 95 99 99 95 105 119 129 163 161 163 167 161 169 185 175 135 135 159 163 187 217 253 255 261 267 251 227 217 199 151 135 167 197 205 167 121 79 69 83 85 85 105 87 101 101 89 81 71 71 81 75 75 77 87 95 99 
91 99 107 109 113 119 129 125 127 97 115 97 119 103 103 95 107 93 105 95 101 101 101 103 109 99 101 99 115 125 143 145 153 147 163 147 131 121 135 115 105 115 125 131 149 177 205 215 213 213 197 175 177 121 93 111 105 103 107 79 79 75 77 83 85 91 89 89 97 83 85 81 91 83 79 101 93 81 93 115 
103 85 111 107 121 113 117 117 105 107 111 107 121 103 95 107 91 93 99 113 101 99 109 115 97 103 95 101 103 115 131 151 139 161 149 139 127 131 123 107 109 107 129 149 159 177 201 183 179 167 173 161 151 121 109 97 93 89 99 81 79 71 99 81 99 99 83 101 99 97 77 99 73 87 81 91 87 93 99 95 
77 97 111 123 125 107 107 133 107 107 121 97 107 105 99 103 99 107 93 107 95 111 107 103 115 113 99 97 107 117 125 143 145 139 137 131 127 131 121 99 103 103 127 145 149 161 157 153 159 169 163 149 133 105 89 99 93 101 87 93 77 87 87 95 81 97 103 107 119 91 99 89 83 85 91 91 87 93 97 103 
101 99 103 119 117 123 123 109 103 97 113 115 123 109 97 89 113 101 99 89 97 93 105 93 81 91 89 97 95 115 111 133 123 129 123 121 115 109 105 101 101 99 109 111 127 139 137 125 137 135 141 123 123 93 81 81 89 91 97 85 81 87 75 73 71 69 87 85 103 83 91 91 83 79 85 83 67 89 97 89 
97 105 123 119 119 101 119 115 121 103 121 107 119 101 105 111 93 99 105 99 95 101 97 95 87 75 93 93 99 103 113 123 115 117 119 99 119 99 89 93 93 103 95 103 101 119 111 123 119 117 123 115 99 81 75 77 85 87 99 85 81 67 67 75 71 89 91 91 83 89 97 75 87 75 89 71 81 81 75 85 
81 101 127 101 115 107 121 107 109 101 111 115 99 97 107 97 101 99 95 87 103 85 103 93 81 87 79 89 93 97 89 111 105 107 95 107 103 103 95 85 89 83 87 83 81 89 93 101 103 97 95 101 95 81 71 87 75 85 87 65 65 77 79 65 61 75 83 81 97 91 83 79 69 85 81 79 89 73 83 81 
87 117 107 121 117 123 117 101 109 109 111 109 113 109 109 103 91 101 83 91 95 89 99 91 83 89 89 87 81 91 81 105 105 103 101 91 89 97 89 83 89 85 87 81 91 97 73 99 93 81 89 93 87 79 71 71 67 71 83 87 73 77 71 65 75 79 91 79 85 85 89 71 79 93 93 65 77 79 81 99 
89 113 101 113 111 113 113 119 109 121 117 107 103 111 107 97 99 101 95 105 87 93 95 99 85 91 77 77 75 87 75 71 73 77 85 85 93 89 91 85 81 69 65 71 71 75 77 75 77 79 71 79 95 69 65 77 81 83 83 81 79 63 69 56 67 81 69 73 79 81 75 71 61 67 75 83 79 81 81 107 
97 107 105 123 97 105 95 103 123 97 117 99 101 99 109 101 109 95 91 91 91 87 91 95 85 73 77 56 83 75 61 73 75 93 77 81 81 81 87 85 81 75 67 50 65 69 56 69 77 67 67 71 79 75 81 67 81 79 54 75 56 63 75 71 77 79 69 71 81 73 75 58 67 75 93 89 91 85 95 97 
85 99 87 87 85 95 91 109 113 89 99 107 85 99 87 93 93 71 69 85 81 81 89 87 67 67 65 56 73 58 81 58 63 58 73 63 81 69 77 81 81 56 61 54 50 58 69 65 52 65 61 61 71 63 63 67 58 67 54 69 56 42 46 58 69 54 77 58 81 67 65 44 58 65 79 58 56 75 89 93 
81 95 93 89 93 93 105 107 91 89 103 93 95 91 83 89 71 75 83 77 65 77 85 71 71 58 63 63 52 61 69 44 58 50 56 56 63 50 58 61 58 54 56 48 50 44 42 48 61 58 58 56 58 58 56 48 58 65 56 56 42 50 38 40 54 56 50 58 46 50 56 50 56 69 69 79 71 79 73 87 
75 81 83 105 83 99 93 97 99 83 97 91 85 89 81 95 79 65 81 67 67 58 73 75 69 69 52 63 44 46 50 36 52 30 58 52 48 44 48 46 58 40 36 42 44 58 42 40 44 48 38 61 48 48 44 56 61 58 42 44 38 22 38 44 34 38 42 28 48 54 36 30 38 69 79 73 81 75 85 93 
87 83 83 83 83 93 83 93 89 75 79 81 93 93 75 89 75 79 73 63 58 65 77 69 58 67 36 58 44 40 46 44 50 40 50 46 46 44 48 38 36 34 40 36 48 42 42 46 32 34 40 50 52 56 48 58 44 63 44 38 40 40 40 22 20 42 38 32 52 44 40 22 18 63 75 54 73 75 67 83 
79 89 87 85 75 91 77 87 91 65 89 75 93 91 73 81 81 63 71 71 63 65 71 67 56 48 42 61 42 40 42 46 40 54 50 71 67 77 69 65 77 69 61 69 65 56 52 56 63 56 65 46 65 69 65 65 67 69 75 46 38 26 42 22 24 28 24 40 38 26 38 16 30 69 69 63 69 81 77 83 


