P2
80 60
500
83 93 93 85 95 87 95 87 105 91 97 101 101 99 79 89 99 87 75 63 69 61 77 57 49 55 49 47 42 38 36 26 40 49 30 32 36 38 30 28 32 24 30 34 42 38 30 36 34 40 30 36 38 47 32 42 36 38 42 42 65 45 49 55 45 40 49 51 47 57 36 30 38 26 12 30 12 32 22 34 
81 87 97 101 89 93 89 83 99 89 97 111 91 87 81 77 71 81 49 69 77 59 61 49 53 38 51 53 34 38 22 22 40 32 34 47 42 51 38 34 34 51 47 30 49 36 49 47 42 47 40 30 34 22 32 47 38 61 51 49 55 55 59 53 34 47 47 47 51 53 42 20 38 20 34 20 8 18 14 38 
73 93 101 93 93 95 91 103 91 97 89 97 83 81 83 87 85 71 75 69 71 69 65 55 51 53 47 57 40 36 36 42 42 36 42 51 47 51 45 34 47 49 42 36 49 42 38 55 38 47 40 51 42 51 42 42 55 63 57 59 59 61 77 71 67 69 55 49 53 55 51 42 45 26 26 30 28 22 4 45 
93 103 109 97 85 89 87 105 99 77 79 95 97 79 79 85 81 65 77 69 73 73 59 61 57 55 65 69 55 61 34 49 55 51 59 59 57 49 51 51 47 47 57 55 61 42 34 32 51 53 36 45 55 38 59 61 63 67 59 57 65 61 61 83 65 53 69 53 57 51 61 59 49 26 30 32 32 24 24 30 
79 93 87 97 103 87 97 103 107 107 81 93 83 99 83 99 89 89 79 75 77 59 75 87 69 67 63 67 79 69 57 57 55 59 73 65 59 49 59 57 59 53 45 53 59 57 40 53 49 59 51 57 55 57 57 63 59 63 65 63 67 57 67 79 69 49 71 42 81 67 57 61 69 45 36 30 45 40 30 32 
81 87 93 95 85 85 97 85 89 95 99 97 99 95 99 99 103 99 87 77 83 73 73 71 65 71 71 81 57 61 63 55 51 59 65 59 67 55 61 47 55 63 59 51 57 61 65 73 53 47 55 55 53 57 51 67 57 59 55 61 57 61 65 75 89 57 61 67 59 55 61 45 53 47 45 45 47 28 30 53 
91 87 115 93 93 113 107 109 103 97 83 103 97 95 103 101 95 105 67 79 93 89 77 79 75 57 81 77 73 65 53 51 55 61 77 83 81 67 65 57 63 65 63 63 61 55 55 65 59 57 61 69 57 57 65 51 81 53 59 55 63 67 77 71 81 73 53 67 75 69 67 40 55 53 38 34 42 45 24 61 
79 73 101 99 109 95 99 93 93 101 85 99 95 107 91 93 87 87 73 69 87 87 69 75 69 83 77 85 63 75 63 55 57 65 71 65 91 81 75 61 61 61 71 71 63 67 55 69 61 75 61 63 61 61 73 59 79 63 73 65 65 65 63 81 83 63 65 75 67 61 63 55 63 53 47 42 45 36 28 61 
85 85 93 99 101 99 89 93 105 99 91 97 101 105 95 99 85 83 81 75 87 67 67 75 73 67 71 77 81 87 59 65 85 85 75 73 75 71 65 61 59 61 63 63 71 73 61 73 67 69 55 65 53 57 69 61 53 69 69 75 69 65 75 73 75 73 65 85 79 69 59 55 65 61 49 53 38 47 32 59 
77 101 95 103 93 97 103 97 93 99 91 99 97 91 97 91 89 85 87 81 83 71 77 75 75 81 81 79 83 73 63 63 71 71 85 85 89 75 65 67 73 65 55 79 69 63 57 79 67 71 57 55 57 59 57 51 53 59 53 69 71 61 65 69 63 71 57 59 77 71 73 53 63 36 36 38 47 38 36 47 
75 87 115 95 109 95 95 91 105 87 91 87 89 91 97 101 99 101 87 87 81 79 87 75 73 75 73 79 85 77 81 65 79 79 79 79 81 73 65 63 67 63 59 73 69 67 69 77 71 73 65 63 61 57 45 47 53 59 55 67 65 67 55 61 77 59 61 61 57 75 77 73 73 51 53 55 47 47 26 34 
75 93 107 93 97 109 107 95 89 101 87 95 81 83 99 89 81 75 85 79 91 99 87 79 63 75 69 77 77 81 65 59 75 69 77 87 87 73 77 75 63 65 61 79 81 73 57 81 67 65 65 59 57 53 57 49 65 55 51 61 57 51 67 49 61 51 55 63 47 57 67 57 65 55 57 45 57 51 32 47 
65 113 111 97 103 97 97 99 103 97 95 97 83 93 97 85 91 87 77 83 77 83 73 85 63 55 83 81 77 81 57 67 67 75 75 85 95 85 83 75 85 75 73 85 91 83 77 81 67 63 67 67 61 59 59 55 57 57 55 61 61 57 81 40 53 67 69 59 69 63 71 45 61 57 51 47 47 45 24 36 
91 103 107 87 91 115 95 87 95 93 101 97 91 81 77 79 89 85 71 83 83 81 69 77 61 57 63 77 79 67 51 73 73 73 97 85 109 79 85 83 87 89 87 97 107 87 83 83 73 79 69 73 63 59 79 63 69 61 61 63 59 69 59 61 73 67 83 71 85 73 79 69 69 55 42 38 59 49 42 40 
87 93 99 85 95 99 95 81 87 99 93 87 81 95 85 79 95 77 83 79 71 83 85 77 81 59 75 77 77 79 73 81 97 83 101 101 101 103 93 101 91 101 89 105 119 113 99 95 87 99 91 95 85 79 63 69 63 65 69 69 73 79 73 81 85 69 81 71 89 89 79 83 79 77 59 51 53 55 45 61 
87 103 89 93 105 105 89 95 89 95 87 95 83 83 93 93 87 85 81 85 71 79 85 67 73 85 75 89 83 75 95 95 107 103 115 121 109 115 111 109 93 97 89 111 129 125 107 105 107 97 91 93 87 75 89 75 81 75 75 71 79 81 73 89 97 103 89 77 83 85 79 87 79 83 77 53 61 59 45 49 
85 101 115 103 101 83 91 99 99 97 97 97 101 89 95 103 81 85 87 75 85 71 73 101 79 75 77 91 93 85 83 113 117 105 117 131 133 127 121 111 115 105 105 113 125 129 129 123 119 115 119 121 163 149 97 91 81 81 79 77 91 83 95 97 85 85 99 95 89 103 93 87 89 77 63 69 57 63 57 67 
79 109 97 95 107 99 95 97 95 95 79 103 95 101 89 95 99 93 99 99 95 93 81 93 87 85 99 87 91 107 93 105 115 131 137 137 145 149 133 115 111 113 123 123 143 137 151 161 161 177 219 271 279 293 207 131 103 85 79 81 93 79 89 109 115 111 105 105 101 105 111 93 111 87 79 89 81 93 69 97 
83 103 117 115 111 97 113 97 99 93 89 99 105 107 97 99 111 93 97 99 97 101 109 89 99 83 99 97 115 107 95 109 119 133 135 145 159 145 147 135 129 135 149 165 219 239 257 269 281 283 302 306 267 247 297 275 127 101 101 91 101 111 101 115 105 105 97 109 113 127 121 141 151 163 165 149 163 161 151 149 
91 95 101 101 105 91 97 109 105 109 101 109 99 93 87 105 103 97 95 93 101 103 95 101 103 97 91 105 107 111 105 111 125 125 137 151 169 159 161 179 217 255 301 306 308 295 281 279 275 283 293 295 283 289 295 225 147 115 127 131 121 127 147 121 119 101 101 103 121 147 205 241 269 283 271 257 223 239 215 209 
87 105 103 97 117 99 91 109 93 89 101 113 103 97 91 97 95 97 89 83 99 101 99 97 103 101 109 109 115 119 107 125 137 137 161 165 193 255 306 342 352 346 344 328 332 328 318 241 183 169 175 189 177 181 169 143 143 163 167 165 165 149 159 151 129 101 103 113 133 195 239 271 291 308 297 279 277 269 233 221 
75 101 105 95 111 105 101 97 109 85 89 99 103 97 99 105 91 91 101 95 103 103 107 97 97 95 115 113 117 123 129 143 175 189 201 261 330 389 387 375 348 344 350 352 348 257 185 157 151 157 177 187 191 199 177 181 199 195 181 177 169 181 163 163 137 113 95 79 141 203 231 247 293 306 304 295 281 257 221 215 
99 113 109 107 97 107 109 95 107 97 95 109 113 97 99 107 87 95 91 103 107 117 105 105 117 107 115 137 171 185 209 245 263 283 314 356 385 409 383 379 364 354 322 297 233 175 173 169 175 195 195 209 213 209 223 219 227 205 177 155 169 167 151 147 153 123 95 103 133 189 215 245 295 291 295 273 241 201 161 123 
81 95 111 95 105 95 87 95 113 103 95 101 103 105 109 95 101 109 91 97 101 103 103 101 103 115 217 245 251 253 267 271 291 301 301 293 367 383 364 332 304 243 209 219 201 175 173 175 181 191 189 219 235 233 243 235 247 211 175 103 151 149 139 137 151 139 109 127 147 177 207 229 275 241 217 169 127 111 67 103 
73 105 105 111 109 91 105 105 113 107 87 101 95 95 105 95 107 97 99 91 103 109 105 113 109 191 324 310 279 263 245 233 237 259 259 267 302 273 233 189 189 201 191 207 191 181 181 187 181 193 201 217 249 253 245 253 243 211 191 167 163 149 147 141 137 155 167 149 157 169 185 179 167 129 101 85 85 69 71 95 
79 91 105 101 111 93 93 83 99 101 97 107 105 97 93 89 109 101 95 99 101 103 109 101 141 271 310 308 295 279 231 227 241 203 161 141 143 145 169 191 203 197 193 187 181 167 167 175 187 197 195 217 273 265 257 249 237 215 217 185 179 163 151 145 135 161 163 159 139 121 115 115 109 91 77 79 81 71 71 93 
79 95 111 93 97 97 93 85 87 89 89 103 101 95 107 101 109 129 107 91 113 107 109 121 189 302 308 324 291 255 229 237 211 163 129 113 81 133 143 173 197 179 187 187 183 161 177 177 183 189 187 201 269 279 259 255 233 239 235 203 195 173 163 155 149 171 159 123 103 119 117 93 83 89 77 71 73 73 55 77 
87 91 99 91 97 75 81 107 97 101 99 87 105 107 103 147 177 181 193 163 177 137 103 127 227 314 316 318 281 265 223 231 189 145 103 87 101 127 161 179 195 191 195 175 185 179 171 177 167 167 177 181 247 281 257 253 245 241 229 211 201 205 187 151 145 151 127 109 117 113 117 85 91 81 63 53 59 59 49 69 
79 113 103 95 95 101 109 103 93 87 89 93 105 129 201 279 350 393 432 401 367 273 191 147 263 306 328 306 279 249 215 211 179 143 83 97 113 157 177 179 207 211 213 197 175 181 167 159 149 163 163 167 223 275 267 247 227 231 219 205 217 195 159 131 111 109 125 111 111 103 103 93 95 73 61 63 61 71 45 53 
87 101 103 91 101 99 93 99 109 87 93 99 105 179 275 354 369 478 480 471 418 289 344 289 322 328 340 308 279 231 195 181 171 131 85 91 113 165 177 219 219 223 221 203 191 185 189 161 159 163 173 177 231 271 293 247 213 211 189 157 139 121 99 119 123 125 133 119 121 107 91 79 83 61 61 69 71 73 59 67 
81 93 111 107 103 105 107 93 87 111 85 105 109 207 301 367 401 445 494 469 432 318 379 371 379 332 334 312 277 219 191 177 159 133 105 83 123 147 181 207 213 217 213 197 195 181 181 167 165 175 187 185 225 261 247 247 227 187 119 105 87 93 115 121 139 153 131 125 125 113 115 85 79 67 59 57 65 55 47 83 
75 93 95 95 101 83 93 97 97 93 93 97 117 209 297 383 379 447 500 486 443 432 445 411 385 348 330 293 261 223 185 173 159 143 107 81 113 131 169 199 201 213 193 205 177 179 179 181 165 175 169 165 213 233 213 229 219 195 163 131 103 95 113 125 151 151 127 139 125 117 115 95 83 73 63 57 61 57 57 91 
61 99 101 103 113 93 99 91 93 87 87 113 141 213 302 375 395 471 488 484 449 463 476 418 403 360 312 287 243 213 183 159 173 151 115 81 81 115 165 205 231 205 193 181 177 173 183 171 153 173 161 159 197 223 203 229 211 207 185 181 159 137 135 143 153 147 145 129 135 121 107 93 95 81 63 57 69 51 51 83 
77 99 99 107 109 109 105 99 97 97 113 97 137 167 251 334 360 445 490 473 484 484 469 432 401 371 312 271 263 235 195 189 181 163 131 83 79 137 161 201 207 205 207 183 189 171 181 173 153 151 151 153 183 209 207 221 221 193 181 179 175 179 173 159 163 155 147 145 139 125 117 93 85 87 69 63 55 69 71 83 
81 91 107 97 93 103 93 79 105 113 107 109 103 139 179 251 291 352 409 403 362 330 301 338 379 354 314 295 267 217 203 199 191 179 147 113 101 125 159 193 207 205 193 207 189 173 169 171 159 147 151 145 199 221 213 211 201 193 191 183 179 183 157 159 169 149 145 131 131 123 123 115 105 87 83 77 59 67 69 75 
67 103 113 101 91 95 111 91 87 99 101 89 117 117 139 151 165 193 209 199 157 163 147 177 306 316 314 291 265 243 227 203 213 191 187 159 125 129 163 187 201 223 205 203 207 185 189 191 167 149 157 165 211 213 221 205 199 181 185 181 175 165 149 145 145 141 155 153 147 137 129 119 107 89 77 59 67 55 53 79 
65 95 109 97 97 93 101 75 99 97 107 91 105 101 103 123 115 93 109 101 97 113 123 127 201 273 304 291 285 249 227 207 217 199 187 175 153 133 163 185 195 211 217 209 215 195 211 179 181 175 173 177 207 215 209 201 187 183 169 165 175 167 155 131 109 121 143 157 155 129 127 131 129 97 79 71 67 57 55 87 
71 101 97 115 89 87 97 95 91 97 91 91 95 97 103 101 103 107 97 103 117 117 113 133 135 251 295 301 277 259 223 205 197 183 189 189 165 151 177 183 205 211 225 225 229 207 195 187 187 185 165 167 193 197 189 173 181 177 165 171 169 161 155 131 115 129 123 143 151 129 125 163 193 183 165 125 83 85 53 89 
75 109 113 95 105 105 99 105 97 91 81 103 105 105 97 107 115 89 101 103 103 111 107 121 127 197 316 320 297 257 207 207 193 175 183 191 189 193 191 199 221 239 233 225 219 221 211 197 203 193 177 181 199 183 191 193 187 197 185 173 171 147 151 115 95 145 121 103 89 93 117 157 221 253 257 257 211 171 107 99 
95 103 109 97 91 97 107 97 105 107 89 93 93 97 99 103 113 97 89 95 101 105 113 121 111 145 289 344 306 263 223 223 209 187 197 193 189 213 227 251 249 241 231 229 227 221 221 203 201 189 181 197 205 197 227 253 273 289 293 243 187 165 143 133 99 115 93 77 75 105 141 171 219 265 273 283 291 271 203 179 
81 99 99 109 95 99 93 87 93 97 89 93 105 107 97 111 103 87 85 83 101 113 107 101 93 121 201 336 324 283 245 231 205 209 197 199 199 203 287 328 348 316 301 304 297 289 283 263 239 225 213 217 233 253 271 293 287 302 281 312 259 185 171 129 113 109 99 99 91 151 191 225 269 293 291 304 312 302 263 239 
75 113 99 87 113 97 97 95 111 93 87 93 97 95 105 91 93 81 87 93 91 101 103 91 85 101 131 251 271 255 255 235 235 227 215 215 193 209 318 362 375 367 354 358 350 342 330 328 301 295 279 251 245 257 267 271 281 289 304 291 205 159 159 143 105 97 105 97 103 145 189 251 287 295 308 312 308 302 275 257 
89 109 97 95 93 105 97 91 89 97 99 93 87 103 85 93 89 99 89 91 75 79 91 83 85 95 111 129 155 195 229 241 231 225 223 209 191 233 308 360 367 375 369 362 362 356 356 348 328 308 279 249 221 209 197 243 237 253 217 143 101 95 121 111 105 107 75 89 91 123 165 193 247 265 261 273 253 269 235 233 
87 87 101 101 93 89 91 85 85 81 81 91 99 81 85 93 93 87 81 73 71 77 77 85 79 85 87 101 99 117 127 161 187 213 219 215 185 207 235 227 231 235 261 308 312 301 312 295 283 237 219 189 157 107 95 103 97 109 95 87 71 77 79 87 85 75 75 85 89 79 83 81 85 135 145 157 151 149 133 153 
85 101 107 91 101 89 93 97 103 105 93 95 79 93 89 91 97 87 71 87 75 97 95 93 69 75 91 91 109 97 105 107 115 129 169 181 189 171 111 105 137 113 119 141 147 177 211 217 215 209 207 171 125 113 83 77 79 69 81 77 89 75 69 83 79 67 79 65 73 71 89 57 59 79 93 99 95 97 93 97 
71 103 93 105 99 105 95 83 117 97 95 91 93 79 97 113 91 93 75 89 79 77 93 87 83 81 99 101 97 103 103 129 131 111 135 143 137 125 91 87 111 95 113 127 141 157 189 199 197 185 187 175 143 115 89 81 71 71 69 67 63 67 89 85 85 85 71 95 89 75 69 61 63 65 67 71 81 81 75 99 
61 77 95 97 95 97 105 93 111 79 91 77 103 91 97 97 103 89 89 95 89 93 83 75 83 71 93 95 107 111 117 133 127 119 151 139 103 99 109 91 93 107 109 117 133 163 193 203 199 197 173 155 141 105 71 67 77 69 83 69 73 75 85 85 83 91 81 77 85 69 79 77 73 69 71 91 71 69 69 99 
67 79 103 95 111 95 97 89 97 93 85 97 99 91 85 95 79 85 79 101 91 91 85 101 69 83 89 103 97 109 119 129 129 133 135 131 119 113 103 91 91 101 115 141 149 165 187 179 171 157 149 143 127 103 91 71 73 65 87 75 75 79 87 83 93 85 65 89 89 85 79 75 73 81 81 79 71 91 77 71 
71 97 107 103 111 93 99 105 91 85 95 89 89 101 89 95 93 99 77 101 85 95 79 91 85 77 95 97 99 105 113 109 127 107 131 117 113 105 97 85 83 89 111 137 143 147 151 151 147 151 135 115 109 93 83 73 65 69 75 79 69 81 85 91 81 93 87 87 93 81 89 75 81 65 79 75 67 85 69 77 
87 101 107 107 93 111 101 99 99 91 97 101 111 103 91 81 101 97 83 75 83 85 87 83 69 85 83 99 93 103 97 115 95 99 111 109 101 101 73 77 85 93 109 103 123 129 135 127 121 125 115 101 93 79 69 63 67 77 77 75 73 71 83 77 81 71 73 79 81 75 83 81 81 59 77 75 71 87 65 65 
75 95 111 101 113 93 101 101 101 95 101 89 101 99 107 107 89 99 95 79 87 87 75 81 73 67 97 91 89 105 99 105 109 99 101 95 105 77 71 83 65 87 89 107 105 113 107 119 109 99 107 93 93 73 61 65 69 65 87 77 69 59 67 75 73 77 83 83 73 81 79 69 87 67 75 63 81 79 63 89 
71 85 119 99 103 101 105 85 99 89 89 103 95 99 97 99 107 97 85 79 91 71 85 75 63 75 81 91 99 85 71 91 93 81 79 97 87 91 77 75 73 77 87 81 81 95 87 87 93 83 79 77 81 69 57 69 63 63 77 57 65 69 73 71 65 75 75 71 75 87 87 69 63 75 71 79 81 59 67 89 
69 95 99 105 103 117 97 87 99 91 91 97 87 105 97 95 93 89 69 85 93 77 87 71 71 67 89 81 77 75 67 87 83 77 83 77 69 77 77 63 67 63 79 75 81 89 69 93 75 73 71 63 73 53 55 51 53 55 67 63 59 57 75 63 73 65 81 75 71 75 77 42 77 75 77 51 59 69 55 71 
69 103 97 93 95 101 79 93 99 95 87 95 93 93 101 87 101 81 71 85 83 75 89 79 73 75 71 83 59 77 57 63 57 55 79 79 81 77 65 59 67 65 65 67 69 75 75 67 71 57 63 59 69 40 47 51 55 61 63 67 69 69 71 49 65 69 55 63 75 73 65 59 59 55 63 67 63 73 59 73 
87 105 103 103 87 93 89 81 107 85 81 89 91 105 99 97 105 83 79 75 91 75 77 75 69 57 67 69 75 69 55 49 63 63 65 65 69 65 69 59 57 65 63 59 69 63 53 63 67 65 51 45 57 61 61 42 57 57 40 65 45 45 73 77 79 73 55 69 67 61 53 47 59 71 87 73 63 71 59 73 
75 97 83 81 83 91 91 89 95 77 73 89 83 89 79 83 95 71 69 61 77 69 75 77 67 51 69 57 67 51 69 57 53 42 55 47 67 61 49 57 59 51 53 53 59 51 65 63 42 57 49 42 42 47 47 40 47 45 53 59 55 49 49 69 73 53 61 61 57 83 59 34 53 59 73 57 65 73 42 75 
71 85 89 83 81 83 71 81 89 81 59 85 77 75 85 79 67 61 77 65 71 65 67 57 59 34 55 55 42 55 51 26 38 34 51 40 49 40 36 42 45 47 40 40 57 34 42 36 47 40 38 38 34 47 32 34 40 40 36 34 26 42 47 40 55 34 45 32 34 42 53 38 51 55 61 59 67 63 51 67 
47 75 87 91 73 73 69 77 79 73 69 81 77 73 85 89 75 65 65 63 65 47 55 53 53 40 51 49 34 34 36 24 45 18 38 47 40 32 30 36 47 40 24 36 38 40 38 38 36 36 26 36 26 24 32 40 36 38 14 32 28 28 51 55 40 36 42 32 26 26 30 18 30 57 69 65 77 59 53 79 
49 83 75 69 69 73 71 81 73 51 61 75 71 93 81 73 63 71 51 49 55 51 59 47 42 40 36 57 40 38 36 30 36 22 36 34 38 30 20 20 30 18 30 38 36 28 36 36 26 18 28 34 26 30 36 40 28 30 24 28 24 36 34 26 24 28 32 22 34 34 22 4 26 36 59 57 71 59 53 63 
65 75 83 59 59 71 47 71 81 47 67 69 65 63 69 63 67 55 47 59 45 47 51 47 32 28 32 47 26 24 32 36 20 30 30 57 51 55 38 40 55 59 51 59 49 45 53 42 51 38 40 30 42 40 49 36 40 42 42 42 30 20 32 16 18 10 18 14 2 10 28 0 12 36 55 59 53 53 55 67 


