P2
80 60
509
95 91 93 97 95 85 97 91 115 97 105 93 105 99 95 101 93 77 77 67 75 61 75 57 53 59 55 47 53 47 53 34 67 63 28 43 47 49 39 32 32 22 22 43 37 34 39 41 49 53 43 55 39 53 39 37 49 45 57 61 65 47 65 67 53 53 59 47 51 63 45 55 45 41 30 41 18 45 49 30 
97 95 85 99 85 87 85 97 103 99 105 97 103 85 77 85 69 77 49 75 89 63 67 55 55 45 51 55 39 41 30 26 47 43 37 51 41 59 45 34 24 43 34 30 34 26 51 47 49 55 47 49 34 22 39 41 32 61 61 57 49 63 67 49 49 53 51 49 43 45 51 34 45 32 37 32 6 20 39 10 
91 103 97 91 93 87 87 97 91 101 95 85 89 89 79 91 79 67 71 81 79 67 69 71 55 57 45 55 53 34 47 41 49 49 55 63 59 45 43 37 37 28 34 26 34 43 49 73 45 61 43 49 43 45 45 47 59 63 75 57 63 67 81 71 63 67 57 41 51 55 57 57 53 32 22 37 24 39 30 24 
97 99 101 101 89 89 93 89 99 87 89 85 79 67 77 85 73 69 79 77 63 71 67 59 61 57 61 59 69 61 47 53 57 57 59 67 57 49 55 43 41 49 45 32 49 49 43 45 57 61 45 47 51 41 61 59 59 69 71 65 53 77 75 89 69 65 61 53 53 47 65 55 47 32 39 41 34 39 34 24 
93 103 91 103 111 91 87 107 109 107 83 77 87 89 89 115 87 89 79 81 83 65 83 77 71 61 57 61 79 67 65 59 69 73 75 69 59 53 55 47 59 45 30 55 43 57 55 59 55 69 53 67 53 59 69 65 47 73 67 71 73 65 73 95 79 63 73 47 71 67 75 71 71 53 39 47 43 53 49 53 
101 93 101 107 99 83 95 93 97 85 105 83 89 95 109 95 87 81 85 81 81 75 79 71 61 71 71 73 69 71 71 59 61 69 61 71 69 57 65 51 49 49 47 45 34 63 67 67 59 63 57 69 63 51 57 71 57 69 57 69 65 59 71 77 81 63 61 71 49 61 75 59 55 53 45 51 49 34 57 47 
89 93 101 95 119 111 99 109 107 101 87 103 93 97 109 101 89 91 79 87 99 87 79 73 59 65 83 67 77 75 63 71 69 71 65 83 75 67 57 61 63 51 47 57 53 59 61 63 69 59 65 77 57 49 71 65 75 55 63 73 67 77 79 75 81 85 67 69 61 71 75 59 55 57 43 45 43 55 63 32 
93 83 91 95 115 97 89 113 95 105 101 97 95 105 93 87 75 75 87 91 83 73 69 75 61 71 73 71 61 75 71 71 75 81 71 71 91 69 69 61 69 57 53 61 57 63 55 61 63 69 71 79 65 59 71 69 75 61 63 81 77 71 75 85 85 75 65 69 59 59 65 73 63 57 49 49 47 55 71 32 
101 89 89 111 105 103 83 97 119 89 99 93 91 99 99 101 81 79 83 87 81 57 79 73 67 87 75 69 71 83 67 77 89 87 75 75 75 73 65 53 59 53 45 53 65 75 49 59 75 67 69 75 51 59 67 61 61 63 73 81 75 67 83 79 93 81 73 75 57 77 61 75 57 55 41 55 55 53 75 49 
93 95 95 113 103 97 93 95 89 97 103 99 95 87 91 93 91 79 85 87 75 71 73 77 69 83 71 73 83 77 69 83 79 77 89 89 83 71 67 65 67 59 51 67 59 67 53 75 79 75 69 57 65 59 53 49 55 57 65 71 71 69 79 77 73 79 65 53 63 67 83 63 69 43 37 45 51 65 63 30 
95 95 105 105 133 81 91 93 97 85 101 89 89 89 93 97 89 81 83 95 83 79 89 73 75 77 75 69 75 81 91 71 83 91 75 87 79 79 73 63 67 55 53 67 57 51 63 67 77 79 77 65 63 59 53 53 57 57 75 77 63 71 55 75 79 71 71 67 59 69 73 87 73 59 59 65 41 51 59 45 
107 97 109 95 91 101 109 101 87 99 91 101 77 93 109 97 81 79 93 91 87 91 85 85 57 87 71 73 77 73 81 71 91 89 87 93 89 75 81 73 63 65 55 73 69 61 61 71 77 71 75 71 59 47 55 53 75 59 71 65 69 61 73 67 71 67 71 63 59 63 77 79 73 63 65 55 59 59 59 41 
95 117 101 99 99 87 101 105 95 83 101 87 83 95 93 93 91 85 89 91 81 79 77 83 65 55 81 79 79 79 81 69 95 85 83 95 89 93 87 63 77 69 71 83 79 69 69 75 73 75 77 81 69 59 65 59 61 53 55 53 69 65 79 59 57 85 71 55 67 69 75 67 67 63 51 59 55 61 53 47 
125 99 107 99 95 115 101 101 91 99 99 97 91 79 73 79 93 89 77 95 71 87 73 77 61 63 79 75 69 73 79 81 95 95 95 91 99 87 91 75 81 89 79 109 105 85 89 85 87 87 77 91 67 57 69 61 69 63 71 65 69 73 77 75 81 79 99 79 79 77 85 83 75 67 47 43 57 57 67 49 
113 101 97 101 103 97 103 97 85 97 89 81 71 93 87 91 89 73 85 81 83 85 79 75 69 69 81 75 83 83 75 85 109 103 105 117 101 113 107 95 95 93 93 105 111 105 101 95 93 97 101 101 83 77 59 73 61 61 81 79 75 83 89 91 91 83 85 85 103 95 91 97 85 89 65 57 65 73 73 61 
107 91 87 101 97 99 97 79 89 97 87 91 83 101 97 91 89 79 73 83 73 83 89 71 71 87 81 83 85 85 97 93 113 115 107 133 111 115 119 105 91 93 97 105 113 121 105 97 109 101 105 107 85 77 81 77 79 73 77 77 73 75 75 93 105 107 111 79 85 87 81 95 87 89 73 57 65 63 81 61 
111 99 109 97 111 77 93 99 101 95 89 89 115 89 107 101 85 87 91 93 87 77 79 95 79 81 83 85 95 89 103 123 123 125 129 137 139 125 125 105 113 101 101 107 115 123 133 119 117 121 111 109 105 101 89 103 89 85 95 85 93 91 103 107 97 99 111 87 89 103 97 91 99 83 65 75 59 69 69 75 
103 111 95 99 105 103 99 117 101 99 83 97 109 111 99 101 105 103 101 101 105 101 89 97 91 93 105 93 91 109 105 115 127 137 135 141 147 151 135 111 109 99 103 113 125 121 131 135 141 139 139 159 141 157 189 213 197 161 115 97 93 87 91 111 123 127 113 95 101 107 111 107 113 97 69 83 75 95 85 67 
113 99 111 125 115 85 115 109 99 89 95 97 101 111 109 105 109 99 111 97 97 93 109 97 101 89 91 99 107 105 101 109 123 133 135 151 155 145 145 121 115 109 123 133 153 151 169 175 213 223 251 269 271 269 306 332 342 326 191 109 89 103 93 115 123 125 115 103 111 121 119 137 147 141 129 137 143 135 153 117 
123 107 99 103 103 87 103 107 111 101 105 107 93 99 105 111 97 95 103 103 107 101 95 99 101 93 99 99 105 113 119 129 141 139 141 155 167 151 147 145 165 181 243 255 294 298 308 312 298 314 298 300 296 300 310 310 346 328 249 111 99 105 111 107 125 101 113 95 111 133 189 235 257 259 241 237 215 231 233 193 
115 119 99 101 109 93 95 105 97 89 93 97 101 107 99 93 101 99 93 99 97 101 101 107 93 111 115 111 113 141 147 177 183 171 183 171 199 215 261 293 346 371 350 348 350 354 344 338 350 312 273 257 239 227 255 283 263 203 211 133 113 111 117 129 117 103 115 117 135 203 265 289 285 298 300 267 265 271 249 225 
93 109 99 101 109 99 105 101 105 95 87 97 95 109 113 109 93 101 101 97 99 103 103 105 99 101 127 141 169 221 255 261 285 285 263 235 285 356 385 377 389 397 367 350 346 350 346 316 245 187 173 171 167 171 155 183 151 135 153 155 149 147 139 145 131 115 127 107 155 205 225 287 302 318 310 296 281 277 265 207 
119 97 107 109 99 103 111 107 107 107 91 105 103 99 101 113 89 95 93 111 103 123 107 109 107 113 177 271 259 273 269 267 293 293 285 320 342 375 399 393 385 393 365 375 338 293 211 159 161 175 175 207 183 169 163 155 147 153 163 167 163 157 159 167 155 145 115 103 109 185 217 267 291 310 308 283 269 233 209 143 
105 107 105 105 107 93 101 109 111 109 97 99 95 111 111 103 103 105 99 97 123 107 105 111 111 139 291 326 314 300 283 265 294 277 296 312 328 365 385 379 365 338 281 233 201 159 161 159 161 183 183 199 185 191 179 177 185 181 199 193 177 177 163 171 147 127 111 101 123 171 213 237 277 293 261 219 169 133 117 113 
107 113 103 107 109 99 107 113 119 109 93 99 95 101 119 109 113 101 105 97 113 111 101 111 109 209 352 352 298 298 283 239 257 231 239 283 306 287 285 257 209 213 213 207 215 189 167 163 167 185 189 195 201 209 195 205 209 187 185 147 125 141 143 143 127 131 141 119 143 177 213 213 201 181 153 115 91 87 101 87 
109 97 115 111 123 103 97 91 107 105 103 97 107 119 135 123 161 165 151 145 123 123 117 115 127 245 330 326 312 285 269 245 245 225 185 181 163 171 207 225 229 233 221 207 229 203 179 175 199 193 191 193 227 225 225 237 231 207 181 105 79 115 113 125 119 129 143 159 147 139 139 137 119 117 111 93 93 83 109 79 
95 103 95 97 95 101 97 99 91 79 91 97 117 145 161 233 267 350 367 334 255 189 165 137 161 275 320 316 294 269 253 239 243 201 163 139 113 151 191 211 219 205 219 205 209 177 187 187 199 199 189 207 249 249 251 241 213 199 175 119 99 105 85 105 107 119 123 131 105 113 123 103 95 95 83 79 71 79 91 69 
105 97 107 95 93 79 99 117 105 93 105 85 109 201 293 395 439 484 494 435 296 310 308 199 259 334 316 306 275 259 223 225 211 167 111 109 101 139 175 193 201 211 207 197 193 177 167 177 185 185 191 205 249 243 239 231 203 177 167 159 139 137 123 105 93 91 99 103 109 113 111 95 93 95 77 51 55 83 79 81 
115 109 99 97 91 101 99 105 95 99 99 99 125 225 361 393 459 488 509 451 348 363 377 373 381 348 310 296 261 241 217 221 195 135 99 93 85 137 167 185 209 211 203 211 185 183 171 167 173 175 185 197 241 223 233 217 191 183 185 161 177 155 143 119 107 93 117 111 101 109 123 99 101 79 57 59 63 79 83 65 
107 105 105 93 101 97 91 93 101 87 99 105 127 265 363 375 420 492 509 447 445 472 453 435 404 356 334 291 257 231 199 191 165 127 89 77 83 145 161 195 207 209 211 211 187 171 179 165 159 153 181 179 221 223 241 233 195 191 191 181 169 155 137 131 129 119 139 123 117 115 99 99 99 75 67 69 67 87 75 51 
113 105 109 107 109 103 99 103 101 103 87 99 127 241 354 395 443 507 499 470 466 507 488 414 391 334 324 283 257 207 205 167 149 123 101 79 101 145 167 183 199 205 215 217 209 193 171 167 159 155 187 181 209 237 263 239 199 199 183 177 147 127 133 125 155 161 141 143 123 113 125 91 89 75 71 63 65 61 71 73 
97 99 83 95 105 77 91 93 109 101 97 89 161 219 316 381 420 482 488 480 480 494 476 412 389 326 310 255 237 215 199 169 153 151 105 75 111 133 171 187 181 211 213 219 193 193 183 183 173 163 183 181 211 241 269 247 199 185 163 123 107 105 113 131 155 163 153 139 133 117 113 99 81 85 65 61 69 63 81 65 
77 99 91 117 119 91 101 89 105 85 91 107 129 181 229 304 357 410 484 466 439 420 399 401 389 330 304 273 237 207 179 157 161 147 93 83 97 125 171 177 213 203 205 195 197 193 201 171 161 169 195 191 223 247 245 231 207 183 141 129 113 99 117 127 153 155 159 131 137 113 113 109 89 83 65 61 73 67 83 75 
85 103 91 113 103 101 107 93 99 99 107 103 137 125 153 201 241 259 316 293 221 193 193 298 369 332 306 267 247 223 195 171 157 145 93 73 83 131 159 187 189 201 193 179 185 181 189 169 157 177 187 179 211 211 195 201 211 171 169 161 149 131 125 137 163 157 157 141 135 127 121 103 89 89 65 65 61 71 97 71 
97 87 103 99 93 105 95 89 111 101 109 113 113 137 133 149 155 139 141 147 133 123 139 213 310 324 298 271 245 211 205 191 169 137 91 73 79 119 155 195 205 195 169 177 161 177 171 177 161 169 187 155 193 189 175 183 167 167 169 161 159 159 157 147 167 151 135 135 125 121 127 117 105 91 85 83 59 73 87 71 
79 103 111 107 91 105 97 105 95 107 113 87 113 119 117 125 115 129 115 113 119 101 113 155 261 310 306 283 245 231 217 211 201 159 125 119 109 117 163 199 209 213 187 175 165 177 181 181 163 159 167 157 187 163 173 181 163 147 159 157 145 171 159 173 173 147 141 141 127 119 115 123 107 95 69 65 63 57 93 53 
85 83 107 99 107 97 87 97 93 97 107 87 111 97 115 117 113 87 109 93 109 121 121 129 205 312 312 293 265 237 221 213 217 173 137 129 127 157 197 211 213 213 205 189 185 181 199 177 173 185 161 163 179 173 177 179 155 151 155 155 175 187 179 159 165 167 155 149 147 123 117 125 125 97 71 79 69 67 87 77 
95 99 93 115 93 97 93 91 95 101 91 97 103 107 113 99 109 101 101 119 109 113 131 139 187 354 330 293 253 237 215 203 215 197 165 153 183 203 217 197 209 205 207 199 197 205 191 181 185 191 181 177 201 193 191 175 169 153 149 171 171 175 147 135 139 159 143 159 153 137 141 157 147 133 105 81 63 69 75 81 
91 101 111 103 101 111 105 105 109 95 89 93 101 103 107 111 111 99 125 103 103 107 129 133 173 328 354 308 277 249 211 215 203 199 193 201 211 221 207 199 217 213 221 215 217 227 189 187 203 201 187 189 207 195 205 191 173 159 159 157 159 127 123 111 99 131 137 125 99 119 147 181 219 241 235 213 159 125 95 65 
115 105 99 105 83 97 93 99 97 109 87 87 93 89 99 97 103 83 115 109 93 107 105 113 131 241 346 310 275 239 217 201 195 209 229 251 255 223 181 195 207 227 231 237 225 225 203 191 205 197 175 185 215 201 207 223 167 157 155 157 141 127 117 111 77 67 95 83 73 103 165 197 229 261 275 279 265 241 187 125 
107 99 101 113 105 111 91 97 101 99 95 97 99 99 113 107 99 83 101 99 105 107 115 113 111 153 271 269 255 265 231 203 215 213 225 237 273 302 298 225 203 195 181 195 195 185 207 221 213 193 203 257 269 275 287 265 201 183 157 155 147 135 115 89 73 61 89 91 75 143 191 225 267 293 298 318 310 302 273 213 
103 107 93 97 113 87 89 105 107 91 81 95 83 89 103 97 95 87 99 99 101 83 97 97 97 109 125 187 233 263 235 213 217 209 197 219 308 350 344 338 330 324 308 293 273 237 241 247 235 229 243 298 279 304 269 273 259 229 195 165 137 127 109 83 53 61 113 101 105 145 215 267 296 314 318 320 324 318 293 249 
109 107 97 95 93 107 99 89 97 93 103 91 91 99 91 91 99 91 93 93 79 81 101 91 93 103 103 113 139 155 193 191 203 209 203 239 354 365 359 359 346 354 342 338 330 330 320 291 285 267 259 267 269 265 275 291 267 279 219 183 159 151 139 99 57 67 101 85 107 145 197 249 300 302 294 293 291 289 277 225 
111 113 93 103 91 99 97 89 89 79 87 95 93 89 91 95 89 93 81 81 91 85 85 95 89 93 93 99 95 109 109 139 143 173 189 195 231 277 326 344 350 356 356 361 357 332 316 298 300 283 275 253 263 251 271 269 245 155 127 123 121 111 115 91 61 55 89 79 89 79 117 127 141 183 207 197 199 203 193 171 
97 109 109 105 103 95 97 105 105 95 99 97 87 87 93 87 89 85 81 91 75 91 99 97 73 83 87 97 95 93 119 107 123 131 149 167 155 141 147 167 201 239 259 267 249 231 243 257 245 237 231 209 195 167 137 125 105 87 89 91 93 93 81 93 87 75 105 69 67 79 91 85 77 87 99 109 105 113 113 97 
99 107 103 103 113 109 95 105 115 95 99 95 95 81 99 109 91 89 85 101 81 95 97 93 73 87 95 97 95 95 113 133 127 135 129 127 127 131 105 107 111 101 115 141 141 163 185 207 215 205 201 177 145 113 81 91 77 77 99 75 83 77 93 95 97 103 93 89 81 69 73 75 73 73 73 81 97 93 93 83 
87 83 89 95 111 109 125 123 111 89 91 79 109 101 111 107 99 77 103 97 91 97 85 85 83 87 101 93 103 113 127 135 139 143 151 139 113 97 107 93 81 103 101 111 119 157 189 205 211 195 171 165 155 105 73 71 79 65 95 83 79 91 93 89 89 111 99 77 79 67 79 71 75 83 73 107 85 75 97 89 
105 89 103 101 111 91 93 105 113 111 83 99 97 115 85 109 85 89 97 107 97 95 93 99 79 95 99 93 93 111 127 137 141 157 131 129 121 113 115 87 83 91 107 125 145 151 181 181 179 171 163 161 131 99 87 71 77 79 105 95 83 91 97 93 103 97 81 87 77 89 75 85 69 91 81 89 87 89 93 65 
119 113 123 103 105 97 97 101 89 103 93 81 91 95 97 103 93 89 81 95 83 97 89 97 89 89 91 93 91 111 129 121 135 127 133 131 111 109 117 83 79 75 91 113 133 135 143 151 149 155 141 137 111 89 77 69 71 77 81 93 77 87 89 99 91 93 101 89 95 67 83 79 83 89 87 95 89 91 97 75 
113 109 111 101 97 111 107 105 95 97 91 103 103 113 95 101 107 87 91 87 97 89 101 89 79 81 91 85 89 101 109 117 105 113 115 123 101 95 83 79 81 77 91 97 111 119 133 127 131 131 129 119 101 73 71 63 77 77 87 83 79 95 83 83 75 77 89 79 81 77 89 73 85 77 75 79 71 93 97 79 
95 103 99 109 121 93 101 97 109 97 101 93 99 103 115 111 99 83 95 89 99 95 81 81 73 65 93 87 87 97 111 119 111 103 111 103 97 87 75 73 61 79 77 93 85 105 97 117 115 111 111 119 85 61 71 65 75 59 87 79 71 73 71 79 77 91 95 77 73 85 85 75 79 67 81 65 81 83 87 55 
95 99 107 105 107 101 103 83 103 95 91 97 81 91 109 101 101 95 87 85 95 81 87 79 65 77 87 93 87 93 85 101 95 97 85 99 91 83 75 69 69 61 75 79 69 81 91 89 95 95 89 83 75 69 65 65 59 65 79 73 71 85 79 73 67 101 89 67 75 87 81 83 67 81 67 85 87 63 99 63 
89 101 93 105 105 103 91 95 113 105 97 91 95 105 99 95 91 77 79 89 99 81 95 79 67 75 91 73 71 79 69 87 91 91 89 97 79 79 71 61 61 57 73 61 75 75 55 89 89 79 85 81 77 53 65 51 55 55 75 77 71 69 79 87 101 77 107 69 75 71 83 67 89 77 83 59 71 75 81 63 
89 111 97 101 99 107 91 109 95 101 97 87 89 109 97 95 89 89 73 93 85 91 89 91 75 91 71 79 57 71 67 67 81 79 71 79 83 71 73 51 57 51 51 61 55 71 67 67 77 77 65 85 87 43 49 57 71 61 69 83 75 63 73 67 71 79 73 63 55 71 71 67 67 69 67 81 71 89 93 75 
101 107 107 107 101 103 75 97 125 99 89 87 89 103 103 101 107 87 81 87 89 91 95 75 63 65 71 69 65 77 67 65 79 81 75 83 67 69 67 63 51 67 55 49 73 65 51 65 81 77 59 71 69 59 67 47 65 57 45 73 59 61 71 85 85 77 71 59 63 63 73 65 61 71 93 85 79 79 101 67 
91 101 91 93 83 87 95 89 97 87 85 87 71 95 81 89 95 75 67 81 79 77 97 71 59 59 75 65 69 53 87 65 71 55 67 63 71 63 61 63 65 49 53 61 49 51 61 67 57 59 57 65 53 45 47 53 55 51 51 75 53 53 57 75 85 67 79 59 63 83 71 71 65 75 81 65 71 89 99 65 
73 91 97 83 87 81 75 83 81 75 77 75 75 81 81 91 71 67 83 75 73 85 75 59 59 49 65 57 53 55 59 47 57 55 49 59 49 43 41 37 39 47 37 41 45 26 32 47 59 49 47 53 47 43 39 34 45 37 39 49 34 53 43 43 61 43 43 41 30 53 57 59 59 69 63 69 67 75 91 63 
87 81 73 89 77 77 71 73 81 63 81 71 67 77 83 77 75 63 67 63 67 51 63 59 51 57 49 47 47 43 39 32 49 37 39 51 41 32 32 24 43 34 14 28 26 28 41 45 45 49 32 45 32 26 34 45 41 43 26 53 39 37 43 57 41 41 43 28 30 37 41 30 30 65 81 75 71 67 87 59 
89 89 87 67 73 81 73 83 73 49 61 73 63 81 85 73 59 71 65 57 59 47 65 61 53 49 39 55 39 37 43 32 53 45 45 53 34 39 32 24 16 12 30 22 26 28 39 43 41 28 43 37 37 26 41 43 32 41 39 32 34 41 45 47 37 41 39 20 37 30 30 18 14 49 63 61 73 83 79 63 
93 83 95 65 59 83 53 61 79 53 73 59 67 69 71 71 61 55 53 71 59 55 53 53 43 39 41 53 39 37 45 47 41 53 47 71 55 65 55 47 45 51 51 57 47 41 59 49 57 47 53 41 49 43 57 53 53 47 55 49 37 43 47 45 32 34 26 16 12 0 37 16 26 55 53 57 53 73 85 69 


