P2
80 60
614
96 102 102 90 102 86 90 110 108 98 90 90 106 96 102 84 82 86 72 84 72 72 64 70 74 74 78 74 66 56 54 56 64 66 49 62 68 64 54 60 52 43 45 58 52 41 39 45 47 54 37 39 52 47 52 47 49 58 98 177 214 240 264 327 438 562 601 604 612 601 577 563 530 528 526 505 452 379 284 252 
264 274 294 351 403 476 495 484 431 371 405 369 411 478 503 495 511 522 503 511 509 515 546 516 470 417 333 296 256 218 202 206 218 333 444 484 491 516 562 573 589 589 548 405 393 395 371 355 393 397 357 310 236 210 198 186 216 266 308 323 313 325 308 294 284 284 276 284 276 288 300 308 296 286 274 278 278 274 292 300 
123 100 112 98 102 96 110 98 106 98 84 92 98 88 96 80 76 86 86 92 90 80 84 80 64 70 76 76 72 56 60 68 62 70 56 56 56 60 60 52 52 43 49 49 52 52 47 47 39 43 37 41 41 39 45 43 60 60 108 184 226 226 278 339 468 562 608 614 599 604 599 581 550 542 538 511 491 431 313 278 
284 302 331 407 478 497 526 524 501 462 493 462 487 499 499 516 522 516 499 499 493 468 493 470 437 365 315 274 244 226 208 218 222 337 474 518 526 560 583 597 587 589 528 427 401 403 379 393 397 405 331 266 220 190 204 258 298 313 331 323 323 317 302 304 288 288 306 294 294 308 329 313 294 284 278 262 290 282 311 313 
119 104 106 100 92 98 100 104 100 100 98 102 88 86 96 74 86 96 78 84 82 88 74 82 78 54 66 74 64 60 60 54 39 66 43 54 60 54 43 56 47 41 56 56 52 43 60 41 54 39 31 45 52 49 41 43 60 60 133 184 206 224 282 341 462 548 601 614 603 593 604 601 577 556 548 532 524 478 345 284 
313 361 417 470 474 474 509 522 526 528 522 484 438 468 495 520 524 511 489 511 513 470 489 450 405 369 329 282 248 230 222 230 232 365 495 536 563 589 597 579 575 577 554 440 421 407 389 409 399 363 268 214 212 236 280 317 323 339 331 325 310 304 296 298 292 290 290 302 310 323 327 325 317 286 284 288 294 292 325 331 
104 100 114 94 96 96 88 98 102 102 80 96 102 76 96 72 86 84 80 84 78 68 66 84 78 66 74 70 72 60 58 54 54 72 54 70 62 54 52 39 56 45 56 47 49 45 52 45 49 41 39 47 52 47 43 41 52 82 135 171 186 228 282 323 425 524 595 603 614 601 608 591 585 571 562 548 534 518 383 278 
357 437 437 454 462 474 507 505 505 505 495 468 389 365 415 513 544 528 489 499 509 503 499 474 438 367 337 296 264 248 236 226 240 363 524 577 589 575 575 563 562 581 544 435 423 429 407 407 347 270 236 246 286 313 343 319 339 333 321 319 302 306 298 294 290 308 310 323 321 323 333 317 296 292 274 288 296 311 331 331 
117 117 104 100 96 102 94 92 106 102 90 88 86 98 80 72 86 80 88 92 78 74 66 64 82 58 64 64 62 58 56 35 58 47 45 60 52 56 45 58 47 39 49 56 49 43 33 35 41 41 41 47 37 49 43 45 52 84 135 171 192 228 270 321 401 493 591 601 603 604 604 585 583 585 577 567 558 542 427 280 
329 419 407 435 435 470 495 501 478 474 437 435 373 339 365 487 528 540 513 507 540 518 516 495 450 379 341 264 262 260 274 252 244 401 534 562 567 569 569 550 556 565 554 460 431 429 405 343 284 264 308 331 365 363 357 341 327 325 306 319 294 294 290 308 310 306 319 310 335 341 333 325 304 288 280 276 296 319 335 357 
108 112 92 102 90 106 110 112 106 106 90 100 90 90 90 74 90 86 88 86 78 72 72 80 82 74 56 72 70 54 66 54 58 47 62 54 54 49 49 43 47 52 52 47 54 56 47 39 54 39 45 43 41 45 45 45 49 78 129 163 202 236 276 313 379 476 546 585 585 597 601 595 601 606 585 583 563 554 454 266 
298 379 405 427 438 462 497 482 450 442 456 472 399 339 379 438 513 538 540 532 550 548 534 511 456 393 345 296 272 258 258 258 268 423 542 558 573 554 554 540 558 579 550 462 427 419 369 276 347 359 393 409 383 369 353 329 302 302 300 317 296 315 311 335 325 325 329 345 331 339 321 333 294 302 300 300 317 327 353 333 
125 112 102 88 94 104 112 112 102 114 82 94 90 78 88 84 86 88 88 78 80 76 78 88 62 72 72 78 72 68 54 41 62 62 58 60 64 56 43 64 45 49 47 45 58 54 56 56 52 39 49 52 45 45 52 41 54 82 119 159 196 232 262 306 373 437 499 554 589 595 612 601 599 583 575 556 571 546 458 276 
246 270 298 339 375 435 468 495 437 429 464 480 472 405 415 417 489 546 567 544 562 542 526 497 470 395 339 310 270 246 244 236 272 437 536 540 550 540 534 554 558 552 532 458 425 359 284 306 391 433 407 373 361 347 333 313 298 308 306 304 313 306 323 339 345 347 345 337 337 335 337 315 323 292 294 304 327 315 337 347 
110 92 112 100 76 96 90 94 104 94 98 98 92 86 90 76 78 86 86 70 80 80 68 68 70 68 68 68 72 62 60 58 58 47 43 66 54 52 45 52 39 52 43 45 64 49 54 43 56 35 41 47 54 54 43 37 54 78 123 163 192 216 244 294 357 391 437 497 565 583 591 604 585 583 567 558 548 518 438 278 
218 226 234 264 290 294 375 409 401 444 462 507 554 515 433 371 440 524 569 542 540 550 507 464 452 383 333 308 272 246 248 246 292 437 516 544 534 522 528 524 540 530 511 401 337 294 313 359 409 411 387 371 351 335 335 321 310 306 310 317 315 327 333 353 355 355 349 355 343 339 341 315 302 310 306 311 329 335 345 339 
117 106 98 108 94 98 92 100 104 98 98 88 94 84 78 78 86 76 92 70 82 70 72 74 64 62 68 54 58 70 64 62 60 56 52 70 49 41 49 64 49 45 58 43 41 39 56 49 56 47 49 33 43 56 43 37 43 78 112 149 188 210 226 284 345 357 401 478 565 595 595 606 583 573 567 542 530 493 442 272 
210 194 208 210 234 270 282 306 345 454 491 511 526 548 497 407 335 460 497 487 485 474 456 405 385 341 310 284 274 260 230 270 343 464 520 524 524 530 516 516 524 515 446 313 290 310 347 385 423 395 375 367 351 337 341 319 321 315 325 325 329 341 351 365 363 359 351 347 355 331 329 317 302 310 310 315 341 337 349 321 
102 108 98 94 98 110 98 100 98 121 106 94 86 90 80 84 82 78 92 82 78 76 78 74 68 74 52 64 70 62 58 47 58 66 54 62 54 45 54 56 41 49 45 54 54 54 45 45 49 41 41 43 43 43 49 37 39 78 114 139 169 200 214 278 327 321 371 480 554 593 593 595 575 565 554 544 526 493 435 280 
184 177 184 186 208 224 220 224 246 403 487 505 515 532 520 409 341 317 329 345 361 357 353 333 333 315 311 308 282 258 240 276 377 472 511 499 515 507 522 513 464 391 282 280 304 339 367 413 417 399 379 353 363 343 337 335 319 331 329 343 357 363 359 369 367 359 359 345 347 327 323 313 323 317 315 329 351 327 317 300 
119 112 96 94 86 96 86 106 110 106 108 94 102 92 88 80 82 86 84 88 80 68 70 74 72 64 68 66 72 56 58 54 54 64 60 60 54 47 45 58 56 52 54 58 58 60 45 58 49 45 47 43 47 39 47 43 54 64 104 135 171 186 200 256 313 308 331 460 536 589 589 589 573 565 565 550 532 482 435 260 
194 163 173 167 153 177 186 196 208 329 474 501 511 526 513 476 377 345 337 383 393 417 393 355 335 294 278 262 272 274 244 308 419 484 489 501 513 491 489 442 339 294 308 300 341 377 401 411 423 415 387 365 349 353 349 341 345 341 349 357 361 377 375 361 359 357 357 353 333 333 327 311 321 327 331 337 317 327 288 292 
123 112 114 106 94 102 104 106 90 112 90 104 98 100 98 84 82 80 84 82 76 74 74 76 82 80 78 74 64 64 56 58 62 45 49 58 54 45 47 47 45 49 47 64 52 62 47 45 52 49 43 41 52 45 41 47 43 54 88 127 163 179 190 238 306 270 294 437 526 585 589 581 583 569 542 554 520 487 413 280 
179 153 153 149 157 145 169 177 184 270 440 484 505 516 530 511 491 474 460 454 438 421 403 369 339 323 308 276 288 298 300 409 456 462 487 480 474 470 421 363 345 327 315 333 373 399 391 397 440 433 379 353 353 345 361 377 367 355 375 377 383 379 371 353 349 355 337 339 327 323 300 319 321 321 317 306 294 304 286 270 
117 112 100 94 94 94 92 94 102 94 90 92 86 86 80 90 78 86 82 74 76 70 60 68 62 64 76 68 60 54 49 49 58 56 37 64 52 56 56 58 54 54 45 47 49 60 45 39 43 27 47 39 54 39 52 54 41 47 82 114 141 165 167 216 270 234 240 353 464 558 583 583 565 562 550 538 511 464 409 278 
165 147 147 147 149 145 145 153 157 204 399 468 497 507 518 511 518 515 487 460 435 413 383 355 343 327 315 290 290 300 341 397 421 413 401 379 361 369 377 367 367 349 347 381 401 399 389 421 446 413 363 331 343 349 375 395 385 365 377 363 369 355 359 345 343 335 327 319 310 300 308 325 323 319 292 290 278 290 276 278 
114 106 104 98 108 100 88 102 100 108 94 96 90 88 98 82 100 90 74 86 80 78 70 54 76 68 76 74 64 70 52 45 66 49 43 60 60 60 43 60 52 56 52 52 52 49 49 39 45 37 43 49 47 52 47 39 41 54 64 100 139 153 161 184 262 234 208 246 369 462 544 563 573 567 560 536 516 476 425 296 
179 151 145 135 147 135 143 159 155 188 363 460 487 493 503 505 507 505 495 468 435 397 357 343 345 335 298 290 268 268 262 264 220 182 163 125 121 153 208 304 385 381 405 401 397 395 389 413 433 405 343 333 351 379 401 413 387 371 357 361 347 339 345 339 337 335 313 317 292 308 311 302 292 292 294 280 280 284 278 264 
129 100 110 102 90 104 121 100 100 110 92 74 84 98 86 92 86 92 76 68 78 76 80 88 80 76 70 58 58 60 52 62 70 58 52 64 58 52 56 43 56 41 43 52 41 47 52 56 41 35 45 41 52 58 43 43 33 47 49 94 112 131 141 163 208 206 188 177 244 329 399 493 538 569 544 538 503 485 413 321 
184 141 141 121 135 135 139 155 143 167 329 431 452 474 493 487 493 489 484 435 409 363 337 335 341 310 290 254 200 151 102 66 64 82 66 58 49 60 88 167 327 355 383 391 391 377 399 411 397 343 331 335 375 377 399 399 393 367 357 355 331 337 337 339 323 311 310 292 290 296 300 286 294 282 288 313 288 300 284 276 
114 100 114 106 104 96 104 104 110 108 92 80 96 88 86 100 86 84 78 76 78 70 76 84 80 76 70 72 62 68 56 56 68 49 56 49 58 52 54 41 52 52 64 54 52 39 47 43 43 41 39 41 37 33 39 49 43 47 52 62 102 123 117 137 196 188 182 163 155 218 302 375 444 501 520 520 522 499 433 345 
214 145 133 119 129 125 137 151 149 157 274 405 437 468 462 480 444 472 462 413 375 341 319 315 308 282 258 214 112 72 56 49 33 41 41 29 39 45 56 96 238 353 385 365 359 381 391 383 349 335 343 351 377 371 397 385 375 335 319 325 325 329 325 323 310 300 288 286 280 276 288 298 298 300 300 304 304 308 294 282 
121 106 127 106 98 108 102 104 112 98 82 90 100 90 86 82 86 80 96 92 80 70 82 82 74 70 74 54 62 49 49 52 54 49 58 47 52 56 54 43 33 52 45 47 54 45 49 52 54 37 45 43 39 52 47 56 39 45 45 52 86 104 104 102 141 159 153 155 149 153 208 260 310 391 448 501 524 513 456 379 
224 149 131 129 108 135 143 139 133 147 252 397 417 433 429 456 450 435 423 379 359 311 304 280 278 236 159 112 68 47 41 37 37 47 39 33 27 43 52 66 131 288 341 347 359 367 365 345 327 343 347 361 373 367 377 363 371 327 315 317 306 306 308 306 296 284 284 288 282 292 300 296 294 308 315 308 306 311 319 298 
110 94 108 100 100 90 94 98 110 92 92 92 82 94 92 92 82 88 80 90 76 74 72 78 58 80 74 56 70 60 54 47 64 56 49 52 49 49 66 54 52 31 45 47 58 45 49 52 45 43 37 39 43 37 45 33 49 47 43 41 60 90 84 84 127 139 145 139 143 133 155 212 248 284 335 456 542 528 509 403 
288 165 131 123 117 121 139 129 125 143 222 367 409 425 444 433 437 425 389 325 310 292 268 230 188 123 70 52 35 47 31 33 35 43 41 23 23 39 47 58 86 198 302 311 325 337 325 313 310 327 339 355 351 335 337 341 331 310 294 298 310 304 308 304 292 290 284 292 284 306 315 321 327 333 317 311 306 317 331 306 
123 104 100 96 94 86 110 92 98 100 98 94 100 100 88 88 94 82 90 90 82 80 76 86 76 70 78 70 66 54 60 43 49 56 52 47 62 52 54 33 37 52 41 41 52 39 43 47 47 39 43 43 45 45 35 39 45 37 49 37 43 64 78 70 98 110 135 121 129 125 141 145 198 244 236 337 509 528 518 476 
377 196 151 114 110 117 127 125 129 155 280 379 403 411 437 417 427 379 349 290 268 216 165 123 82 52 41 33 19 33 33 29 27 37 43 25 25 23 31 37 54 106 220 258 276 294 292 292 300 327 313 317 315 310 315 304 315 290 292 302 310 300 296 298 308 296 294 288 306 321 335 325 319 337 313 321 313 315 315 315 
117 104 110 96 102 80 104 106 106 108 92 102 98 100 100 86 86 74 82 84 80 84 68 70 76 66 68 64 60 62 62 66 58 56 58 45 49 52 41 52 49 54 56 37 49 43 45 39 43 43 45 35 45 37 31 41 33 41 49 41 39 54 47 56 70 76 106 96 112 106 114 127 137 186 192 256 407 503 511 503 
470 286 141 119 110 121 133 153 252 343 357 375 389 413 415 383 367 302 262 206 147 92 60 33 45 35 33 27 25 41 29 27 31 33 39 31 29 21 41 23 43 58 100 206 268 268 272 288 286 296 304 300 306 294 306 304 311 308 282 310 310 308 311 302 311 308 311 315 313 337 337 325 343 327 325 313 321 319 323 313 
104 117 102 102 98 94 90 98 98 108 98 106 100 102 98 92 86 88 82 84 88 72 76 80 80 80 78 70 76 64 54 47 60 52 54 49 60 49 41 47 56 52 47 60 49 33 41 29 35 37 54 45 52 52 43 41 43 43 41 45 37 43 47 45 49 72 80 80 80 92 106 129 129 157 194 256 351 454 505 495 
487 393 179 127 114 169 262 341 329 298 355 351 359 341 361 308 288 242 186 80 58 35 29 35 33 31 31 25 31 21 37 25 23 27 29 29 29 27 41 29 45 33 58 106 220 280 290 290 288 270 276 306 304 319 315 310 310 323 308 317 302 313 313 321 319 313 325 315 325 325 341 339 337 325 331 323 323 321 331 321 
127 106 102 106 114 102 100 106 112 114 94 100 88 92 96 94 94 96 90 78 80 76 76 80 90 64 62 76 74 70 64 60 70 56 56 45 70 64 66 52 58 54 52 54 52 47 54 37 56 43 47 43 35 49 39 35 43 43 43 49 43 39 54 47 54 54 74 76 82 84 86 102 114 143 184 242 325 409 482 480 
482 429 280 220 137 165 222 278 268 226 214 268 294 300 290 246 200 106 78 39 35 33 23 49 33 27 41 33 43 31 31 27 19 19 35 21 29 43 33 19 33 29 41 56 151 268 280 278 284 298 298 325 311 308 325 310 329 335 313 311 313 317 321 333 323 345 333 339 337 339 331 333 333 339 331 333 327 317 325 339 
112 117 112 106 96 100 104 88 102 96 106 100 96 106 94 90 104 96 100 82 82 90 86 76 78 70 76 74 74 60 56 45 58 52 54 58 64 60 56 54 52 60 45 45 45 47 64 56 52 47 52 45 54 60 49 35 49 41 41 54 45 35 41 37 43 45 60 64 78 74 106 100 114 163 206 228 264 333 403 435 
425 401 325 214 165 149 114 108 82 70 106 177 204 220 188 108 76 45 37 27 27 37 31 33 31 35 29 25 29 27 31 19 25 27 33 29 21 31 33 15 21 37 37 39 74 184 244 252 282 308 327 333 329 333 333 329 323 327 319 321 321 329 335 337 337 341 343 333 337 331 335 337 341 333 300 315 327 331 327 317 
112 90 108 102 100 102 106 104 92 100 98 90 106 102 96 84 86 86 82 80 84 68 64 82 58 62 84 76 82 56 54 58 66 54 58 60 60 52 45 52 49 49 49 45 52 52 43 35 45 47 37 35 41 52 39 43 37 35 45 47 33 43 35 37 39 35 43 43 56 47 66 74 90 131 167 198 230 254 313 294 
292 270 236 198 114 68 47 49 35 31 45 66 102 100 80 37 29 19 31 19 25 25 19 37 29 37 25 25 27 33 19 25 11 17 25 19 11 17 25 21 29 11 21 49 52 86 192 242 272 323 319 321 341 329 323 335 329 345 331 317 302 333 333 345 349 347 335 329 327 325 331 339 329 339 335 308 321 325 317 319 
112 108 100 100 102 96 102 102 108 98 90 96 98 92 98 86 82 94 100 90 88 82 82 82 90 66 64 66 68 64 62 58 70 54 49 60 62 43 41 47 52 54 41 43 41 52 52 41 54 45 49 47 45 47 37 56 45 31 39 39 35 31 33 39 39 41 45 39 47 43 58 60 82 106 117 139 167 192 202 175 
151 114 98 47 31 35 27 31 37 31 29 19 23 27 31 27 17 19 13 19 23 31 13 21 23 23 21 27 31 15 21 21 23 9 19 21 15 21 31 19 25 29 31 27 27 45 90 173 268 288 311 304 321 331 329 335 321 337 321 311 304 319 321 333 345 337 339 321 315 313 331 319 327 329 319 317 327 337 329 335 
117 123 117 96 96 110 100 90 96 104 96 98 90 100 98 94 88 98 84 88 88 88 80 82 80 70 82 78 82 66 56 52 58 45 47 56 58 52 70 66 43 56 39 52 47 52 56 54 56 52 58 54 43 41 41 37 52 35 52 56 41 27 41 45 45 25 47 41 37 47 39 45 58 54 54 64 52 80 90 70 
56 47 41 31 29 25 23 33 29 21 17 23 19 23 21 27 29 23 17 19 33 15 17 27 23 33 33 17 27 29 31 19 19 19 29 19 15 27 27 33 37 35 17 27 47 43 49 129 258 292 300 319 302 306 311 323 313 339 319 306 288 294 317 343 343 325 319 317 321 329 337 337 339 331 329 335 341 349 341 335 
110 100 104 98 96 114 88 96 102 104 80 86 110 92 98 92 80 84 80 88 88 90 78 82 74 70 70 70 66 62 58 52 70 52 54 56 66 54 54 56 47 35 49 43 56 49 52 45 49 49 47 52 49 49 47 35 45 41 41 39 35 37 47 37 35 33 43 35 39 35 39 37 39 29 23 31 25 31 37 17 
21 29 13 25 15 27 23 31 25 11 13 15 0 21 15 21 13 19 7 17 21 13 17 27 23 15 33 19 23 21 23 17 19 21 21 23 25 23 19 23 23 27 19 29 33 35 35 82 202 319 339 353 311 300 302 310 308 306 302 286 286 284 304 323 323 308 308 313 308 327 341 331 347 349 343 341 349 337 349 347 
119 121 129 102 114 106 102 102 90 108 94 96 98 94 102 92 94 100 102 90 78 80 78 82 82 80 76 66 70 68 56 58 72 49 60 54 62 66 68 58 43 70 49 49 54 49 43 47 49 47 39 39 45 41 49 39 41 52 43 35 54 39 43 39 41 35 47 35 37 31 39 29 33 13 17 15 23 23 11 21 
23 29 15 19 19 13 21 25 15 17 7 19 11 31 27 23 15 25 17 13 11 13 19 15 21 35 21 21 19 29 27 17 9 19 27 13 11 11 15 33 35 25 25 31 41 39 49 56 145 311 343 357 353 319 302 308 302 306 304 286 286 276 300 323 325 313 327 319 319 327 343 339 355 347 351 345 349 343 337 341 
135 119 131 98 104 114 102 100 94 94 106 102 100 98 98 94 100 90 90 86 88 78 86 68 86 70 76 64 72 72 62 66 66 58 80 60 70 60 56 56 56 47 49 45 45 52 45 43 54 41 49 45 45 41 45 43 39 47 49 37 45 37 43 39 31 33 47 29 41 29 49 31 23 19 23 17 19 21 25 15 
27 25 27 25 17 11 17 27 17 21 19 31 15 21 19 15 0 13 11 13 17 11 3 21 15 25 31 25 15 19 25 19 19 31 15 19 9 11 23 17 21 21 21 23 29 33 31 47 94 236 343 371 363 331 343 343 339 315 306 290 313 286 302 298 325 310 325 300 317 321 331 327 337 337 341 323 337 323 321 313 
117 114 123 110 94 108 98 102 102 98 104 102 94 94 96 88 88 94 94 90 84 106 88 88 86 76 68 74 74 68 72 56 68 47 56 62 60 52 64 56 49 49 41 54 56 43 54 56 49 39 45 45 47 41 47 39 41 37 39 37 43 33 25 45 31 39 52 29 43 29 35 35 25 25 21 19 21 19 11 11 
29 25 11 13 25 13 17 27 0 31 25 9 7 21 15 15 17 3 19 5 29 7 13 29 25 25 33 17 11 27 23 5 15 13 27 13 19 25 23 29 27 23 27 25 25 33 41 41 68 159 313 363 385 391 385 361 321 321 308 313 313 304 327 319 335 323 325 311 311 310 333 313 329 319 321 315 308 319 331 327 


