P2
80 60
708
116 126 134 108 112 98 106 108 110 91 83 75 81 85 93 67 71 63 59 53 55 51 53 59 47 47 41 33 55 45 39 20 30 28 30 41 26 33 28 33 24 24 14 18 28 26 26 10 22 37 30 26 18 30 28 26 47 30 41 39 59 33 30 35 24 35 33 35 37 28 28 30 47 53 51 75 65 73 93 57 
106 126 116 112 104 108 95 100 104 89 89 83 71 63 75 67 61 65 47 61 53 53 39 47 47 33 43 45 30 41 37 22 43 30 33 49 43 41 35 30 22 26 26 10 35 20 24 16 35 33 37 26 20 22 33 30 33 37 41 45 35 45 45 20 18 26 41 35 41 18 45 22 41 39 61 69 61 77 89 77 
110 118 112 114 116 98 110 91 87 89 81 75 63 73 77 77 69 55 57 59 43 57 51 43 47 49 41 39 35 26 35 26 30 30 41 45 53 33 37 24 22 24 26 20 18 22 22 26 28 26 30 22 22 20 14 18 37 37 22 37 51 43 24 10 24 35 45 35 24 24 28 37 20 45 65 63 73 81 75 73 
114 98 102 110 106 108 110 102 114 91 83 81 79 67 69 59 51 59 63 51 57 57 35 26 49 51 33 39 35 41 35 26 33 30 24 41 39 30 28 28 24 24 22 24 28 20 16 6 24 12 24 24 24 24 26 26 39 47 41 43 53 53 45 30 28 24 47 47 24 22 39 20 35 33 61 57 73 75 73 75 
108 126 110 114 120 112 116 112 104 104 87 73 75 69 63 69 67 81 53 53 55 47 41 33 43 43 33 33 39 41 30 30 24 39 39 45 45 26 39 39 24 24 14 28 22 33 12 33 16 30 10 28 14 35 16 43 41 43 45 43 51 37 37 45 22 24 35 41 39 35 45 28 41 45 45 71 73 61 69 83 
116 116 106 116 114 114 102 102 100 89 79 79 79 63 73 65 57 77 63 51 55 49 30 37 39 53 39 39 39 41 28 39 26 30 30 37 43 39 41 18 24 16 26 16 26 35 26 20 33 16 35 33 18 33 37 61 53 59 51 65 55 49 41 43 16 20 51 45 37 18 45 30 26 43 41 69 81 73 83 83 
104 104 116 95 106 116 102 104 102 98 83 73 69 63 71 57 69 65 59 55 47 55 33 28 30 30 30 45 30 41 22 22 26 24 37 37 51 41 35 30 22 18 18 24 28 24 16 22 12 22 33 30 33 24 33 35 61 57 53 57 41 51 43 39 26 28 43 35 37 33 37 30 14 51 53 73 67 85 83 61 
110 106 91 106 114 114 95 95 95 89 75 71 71 67 55 65 55 55 53 63 37 35 24 30 37 53 30 37 28 41 35 18 30 20 30 30 45 37 35 16 24 24 24 16 18 24 30 18 22 41 37 22 24 35 41 47 57 49 63 63 51 61 39 33 26 41 30 39 33 30 28 33 33 55 57 59 63 65 91 77 
120 98 104 95 91 118 98 102 100 87 67 71 69 75 63 61 53 65 51 43 41 47 33 26 47 45 26 33 28 41 30 18 37 24 28 28 35 28 22 33 33 24 16 20 30 35 14 16 37 26 28 16 26 24 26 47 47 47 57 69 47 55 45 43 30 33 51 41 26 37 22 26 28 47 49 63 75 79 83 77 
106 104 102 100 95 110 102 104 87 100 75 61 69 67 67 57 55 53 55 53 45 37 45 28 39 43 37 26 35 45 28 37 14 26 45 43 30 30 26 28 22 22 16 20 24 37 10 33 18 26 45 14 20 30 14 33 26 53 37 49 55 41 53 30 20 33 39 45 49 28 30 37 39 41 41 81 69 75 81 63 
100 95 95 98 102 95 93 93 85 75 71 59 57 63 73 77 53 55 55 55 47 37 35 24 47 45 43 26 28 26 20 28 30 26 26 33 33 30 22 20 22 14 6 16 22 37 22 30 26 16 24 26 22 28 24 20 30 47 30 47 49 57 35 35 37 20 33 20 35 24 26 12 35 41 53 59 49 83 61 73 
118 108 98 100 93 83 110 91 85 79 69 73 55 61 71 39 51 53 51 47 45 43 41 35 33 41 28 18 28 45 33 26 16 24 41 28 35 35 26 22 20 14 16 33 14 33 16 28 24 26 24 22 30 16 10 24 30 39 39 59 51 57 55 49 35 28 35 49 33 33 26 45 39 49 53 71 61 71 69 69 
98 114 98 102 104 106 91 83 87 67 73 61 69 61 57 59 61 61 43 43 51 49 26 45 37 33 33 33 26 39 24 18 22 33 20 33 39 33 30 30 28 28 26 20 20 39 20 28 18 12 28 16 20 28 33 37 28 45 28 43 51 55 61 39 37 24 45 47 35 39 16 24 26 41 59 61 77 73 69 81 
104 116 85 95 91 98 91 79 81 79 83 79 65 53 63 47 59 53 43 47 41 51 45 37 41 30 14 28 22 41 12 24 28 28 35 33 43 26 26 18 26 22 24 14 30 33 28 14 18 24 20 35 16 20 33 35 45 43 43 37 45 57 57 43 43 33 55 43 45 30 28 18 41 43 57 57 69 69 93 69 
93 108 110 98 104 106 91 75 87 65 69 61 53 67 61 37 61 28 43 45 22 35 41 35 30 28 39 24 33 37 24 22 20 33 28 41 22 30 37 39 30 24 26 18 26 28 26 14 14 24 30 28 22 30 24 35 33 37 41 55 51 59 47 45 51 33 49 49 39 51 37 26 39 45 47 71 75 67 77 65 
100 91 85 89 85 98 73 63 87 83 71 53 65 53 59 39 43 51 35 47 35 37 28 30 26 33 24 20 20 26 28 22 26 30 20 18 12 33 24 18 8 22 8 6 28 26 24 10 30 20 28 35 22 12 12 22 33 33 37 51 55 53 47 51 59 41 39 53 55 28 30 37 35 43 49 63 69 69 59 63 
85 93 102 85 91 87 75 85 83 75 71 57 57 63 57 55 47 28 43 39 49 39 18 45 28 14 28 37 28 24 10 24 28 22 20 30 33 28 28 33 14 18 22 20 22 39 33 26 16 24 33 28 16 20 16 28 43 41 59 47 65 65 59 55 51 30 65 61 45 43 30 41 43 39 45 59 57 73 45 49 
85 81 79 91 91 81 75 81 67 61 61 51 63 71 45 45 43 39 47 47 49 35 20 20 22 16 37 18 28 37 20 22 33 18 35 33 28 22 41 26 24 24 22 20 16 37 26 22 39 35 37 28 28 33 30 30 53 59 41 47 57 55 53 73 51 49 69 55 39 39 35 39 41 51 49 85 71 83 63 51 
81 106 85 93 87 87 81 67 77 61 63 65 61 71 59 57 35 47 53 30 37 26 43 37 28 33 12 24 30 30 30 28 33 16 30 45 35 37 39 14 16 24 26 33 26 28 35 16 45 45 45 35 33 43 37 45 47 77 77 79 85 110 75 77 77 39 75 63 57 45 45 37 47 65 57 63 75 91 59 77 
93 95 81 83 100 73 91 85 87 65 65 63 55 57 45 65 47 49 33 39 37 28 30 22 26 33 22 22 24 16 18 24 28 24 24 22 37 22 35 30 18 12 22 20 30 28 35 41 33 45 37 49 18 39 33 79 110 166 198 196 204 202 166 168 156 98 102 112 73 30 45 33 43 55 61 81 108 87 102 89 
93 95 75 85 93 79 77 77 75 69 75 59 59 55 57 45 43 49 37 43 45 37 43 24 18 30 33 30 30 26 24 26 24 18 35 33 43 30 37 39 24 14 16 30 35 28 22 14 51 49 39 51 49 79 142 196 242 264 272 270 282 272 266 266 248 204 228 204 172 116 75 49 43 65 67 89 132 108 95 114 
93 98 89 77 89 79 98 75 77 65 75 63 61 53 53 57 45 59 53 33 28 35 22 20 22 28 30 16 14 18 26 18 12 22 22 20 28 37 20 14 30 6 12 14 16 4 4 28 30 65 77 112 186 284 288 328 318 318 312 326 354 387 350 306 296 274 262 244 238 202 206 128 89 93 132 158 196 192 206 194 
85 98 65 89 81 75 83 71 63 69 77 65 49 65 53 43 47 47 39 41 26 30 24 22 18 16 39 14 30 33 18 28 18 16 24 16 28 20 14 14 20 14 0 6 12 41 55 164 276 363 420 496 537 555 541 564 533 531 498 473 450 487 483 462 454 348 298 264 242 236 228 198 208 192 212 246 308 274 306 280 
87 104 85 85 85 63 65 75 81 71 61 53 59 55 53 47 39 43 51 41 30 30 22 22 30 24 33 20 22 41 14 18 30 20 22 10 14 10 20 18 16 10 30 37 77 166 328 460 531 568 611 661 638 659 609 613 611 642 617 626 601 617 622 613 422 361 318 280 260 236 238 236 242 226 236 278 314 322 300 290 
83 116 95 100 77 83 93 75 81 85 59 71 51 57 45 55 43 39 33 43 30 37 22 24 22 41 22 14 26 20 20 22 37 30 20 26 39 24 24 24 18 61 77 132 278 460 502 529 545 593 628 620 636 626 595 617 628 634 624 632 615 634 634 591 371 373 367 324 296 270 260 246 258 260 246 262 294 332 302 282 
83 106 79 69 85 75 83 55 73 69 51 61 43 71 57 43 39 30 30 41 33 28 37 28 14 35 18 28 26 28 20 28 26 26 16 22 8 30 20 51 110 236 318 411 489 504 487 514 576 595 607 599 607 597 576 599 593 584 551 560 564 553 539 385 344 367 389 377 330 300 270 256 250 254 266 268 276 300 276 238 
69 93 93 85 79 87 87 77 77 63 67 51 63 53 55 55 41 53 37 41 22 35 24 26 26 24 26 24 18 22 24 24 28 26 28 22 28 30 59 136 260 274 367 469 491 487 485 489 539 566 541 539 543 547 506 491 434 383 332 318 314 330 328 332 365 350 365 381 340 306 298 258 254 276 272 286 250 258 250 232 
83 106 85 75 73 77 77 63 55 57 59 55 47 63 53 26 47 45 28 33 35 33 16 14 37 33 16 22 16 24 26 30 33 33 10 35 39 91 196 276 284 290 334 462 464 483 479 491 510 465 444 432 415 424 417 399 371 361 320 278 234 218 232 302 326 304 352 357 328 316 292 260 286 286 312 280 230 228 212 220 
91 112 83 81 79 85 77 69 61 65 67 51 51 63 57 65 35 49 33 45 28 18 24 18 18 33 24 30 16 14 14 18 35 26 28 57 138 300 344 326 334 330 308 357 475 489 489 479 407 399 363 354 391 369 379 377 363 355 328 300 252 226 210 208 260 278 316 322 278 306 302 292 318 312 298 288 240 220 208 210 
81 83 83 63 75 67 75 77 77 61 81 71 51 59 43 51 35 45 43 37 33 28 30 20 16 28 24 18 14 28 24 16 26 28 41 104 350 428 418 391 377 367 314 352 418 454 458 354 348 336 328 308 308 336 320 359 350 328 340 290 240 210 196 174 220 262 276 290 294 312 296 324 318 296 252 266 226 202 196 202 
77 89 73 69 67 73 65 69 63 67 65 63 41 41 51 51 37 47 43 39 22 33 28 18 14 24 22 14 18 16 18 20 24 30 57 260 454 471 464 401 373 371 377 375 395 373 350 332 322 316 306 290 304 316 308 320 348 334 324 306 260 218 192 172 234 280 260 272 292 294 320 314 326 286 216 172 202 198 194 190 
91 98 87 81 81 61 81 85 67 63 77 59 57 49 51 43 28 26 28 35 45 35 24 30 10 28 26 12 22 26 22 14 35 41 124 418 502 516 508 471 450 442 415 428 387 352 314 322 330 320 296 294 302 310 298 336 357 354 336 292 270 210 186 168 252 286 292 300 286 310 316 320 320 322 300 212 214 204 202 198 
85 106 93 77 85 73 63 83 67 55 69 65 63 63 53 35 47 33 43 39 35 33 24 24 24 39 18 26 20 20 22 22 26 49 244 456 531 537 520 506 481 442 420 395 369 352 330 324 310 324 294 296 302 334 318 348 348 350 326 288 252 204 184 172 238 270 296 302 310 316 355 338 336 336 296 262 222 202 186 178 
81 102 93 87 77 85 71 71 63 61 77 67 49 47 51 33 39 49 47 30 30 20 20 18 22 37 24 22 26 30 26 16 37 79 302 481 483 493 491 462 460 438 359 377 379 357 354 322 312 292 294 296 318 330 342 354 350 350 312 278 252 202 174 178 240 294 312 314 342 342 379 381 371 371 344 308 222 210 204 180 
89 98 77 87 67 81 71 69 67 73 87 75 47 51 43 47 33 39 49 37 30 24 20 26 28 39 18 22 26 18 16 22 24 79 338 465 512 487 471 456 413 373 348 355 377 385 359 320 298 286 302 298 322 346 326 334 352 344 308 288 252 212 172 184 240 256 306 338 354 361 385 379 379 401 391 336 228 212 204 186 
75 91 89 85 73 69 69 71 67 75 77 75 59 53 49 43 35 45 41 41 24 22 22 26 26 22 24 24 14 30 18 26 28 71 310 512 527 495 452 383 359 354 354 383 375 387 350 318 310 304 302 300 302 326 322 332 369 350 312 280 238 202 180 194 246 258 294 322 338 354 383 379 395 389 403 346 244 206 194 196 
100 91 93 85 75 93 79 59 81 77 63 67 45 55 47 47 33 35 28 35 30 18 26 33 22 16 20 20 35 22 22 26 39 49 224 479 508 508 462 401 411 383 373 385 420 405 342 312 320 310 288 284 300 302 316 336 359 365 324 268 222 196 192 212 246 254 276 294 316 338 387 389 393 405 395 340 234 208 200 178 
85 91 83 85 67 75 71 57 49 55 71 71 43 67 53 49 33 45 35 41 39 30 14 18 16 24 20 18 16 26 30 26 26 26 108 411 520 502 489 469 432 403 440 409 409 379 340 300 286 256 282 296 304 306 312 342 361 340 272 196 126 152 162 182 188 220 258 278 308 312 350 348 367 377 379 310 226 200 182 196 
81 104 89 75 75 81 79 69 71 67 77 73 53 59 47 49 51 41 30 39 43 35 33 22 26 33 14 26 18 28 18 28 35 41 89 306 479 415 424 422 350 375 344 383 387 340 288 262 238 240 286 298 314 316 306 330 286 198 136 126 122 128 134 118 118 120 184 236 260 274 320 348 344 361 375 304 216 204 204 188 
95 98 93 79 77 79 83 63 81 67 77 65 57 55 53 39 45 43 53 43 39 14 39 37 16 28 30 14 18 39 30 28 33 30 55 220 387 434 389 328 322 354 375 373 354 272 220 214 260 312 340 310 304 334 282 218 152 126 116 134 144 148 132 91 83 87 89 134 170 190 238 270 324 312 324 278 232 218 198 184 
85 112 95 93 79 91 79 69 73 59 79 71 65 75 69 59 55 37 49 45 41 41 33 28 12 18 24 30 28 35 30 30 30 43 81 312 545 632 626 591 555 526 369 334 340 248 240 292 342 361 346 294 322 359 352 316 312 298 268 218 164 142 144 104 83 83 79 114 124 114 140 122 160 214 224 258 254 228 212 190 
95 104 87 77 81 57 79 65 79 77 75 69 61 67 71 47 47 37 45 45 22 20 20 24 14 18 18 14 24 26 18 39 47 47 79 379 632 642 659 670 693 666 599 599 440 306 367 403 393 381 379 359 389 510 553 562 564 591 566 506 298 168 132 102 91 77 83 81 75 63 67 59 53 83 87 198 310 294 244 212 
95 108 89 77 87 75 83 65 81 73 67 65 59 63 69 41 41 41 49 43 24 26 37 26 20 22 20 22 22 30 26 24 45 61 178 467 622 649 655 640 624 617 640 601 381 346 405 436 428 418 411 418 479 574 607 609 636 645 617 589 469 248 194 162 134 102 100 65 65 65 51 49 51 55 65 190 316 298 258 232 
98 106 85 81 79 87 83 61 73 71 83 67 65 53 51 39 45 41 35 33 35 28 22 28 24 16 28 22 18 22 22 37 83 250 391 518 615 619 649 626 630 636 566 399 306 377 415 444 424 407 403 405 460 574 601 632 661 661 661 624 533 272 188 166 128 98 79 81 75 51 49 47 47 69 63 180 306 296 250 230 
89 116 89 89 85 73 87 73 81 67 75 81 65 67 47 53 41 53 51 35 26 30 28 24 22 24 18 24 30 20 47 77 254 411 504 568 617 651 620 605 626 636 545 418 407 481 456 409 387 367 385 399 413 537 568 578 636 666 666 644 529 272 176 152 136 100 102 85 67 67 59 43 61 45 71 186 310 288 254 228 
102 110 91 102 87 93 85 79 69 67 77 85 69 49 65 63 45 47 37 39 39 28 33 35 37 26 33 28 22 26 55 208 314 454 597 651 644 615 647 638 657 642 644 524 424 399 407 413 409 328 302 238 226 272 407 361 377 622 663 644 518 254 180 148 136 114 100 102 98 95 83 85 77 61 81 170 248 222 190 194 
106 85 83 95 87 75 89 91 75 75 73 67 75 77 67 61 37 47 35 47 37 20 30 22 30 30 37 28 26 39 136 294 348 454 526 578 642 642 670 628 680 651 597 330 120 148 238 280 232 132 91 61 91 194 417 422 379 570 642 615 430 204 168 136 130 120 130 118 120 134 110 116 118 104 108 188 248 196 142 132 
98 112 110 95 89 95 93 89 79 77 87 79 87 69 53 55 39 47 53 53 39 37 41 41 49 45 30 26 30 71 210 334 367 440 504 584 670 678 703 630 663 632 385 106 59 71 53 73 59 53 51 59 71 282 452 566 593 591 595 566 338 188 158 134 150 132 130 128 126 134 126 126 128 130 132 218 242 206 134 124 
93 104 95 98 93 83 69 71 67 75 73 79 67 69 59 47 57 47 45 47 26 26 35 30 30 30 24 20 30 102 248 312 332 381 460 524 666 703 691 630 645 601 236 69 26 30 43 22 33 35 37 33 61 274 460 605 630 607 584 551 280 168 150 140 128 118 116 104 122 130 124 128 130 126 120 232 230 210 112 112 
98 100 87 102 93 100 98 83 93 73 75 73 77 79 59 49 53 51 61 47 30 35 24 28 20 39 28 22 43 114 292 332 354 420 467 533 649 708 666 644 588 456 144 57 41 35 37 24 22 39 39 37 45 142 397 599 626 615 588 502 238 142 128 120 120 106 83 73 75 104 114 126 118 128 136 206 226 164 110 95 
108 98 81 98 89 89 81 79 71 73 75 71 89 69 69 51 53 51 53 43 45 43 33 35 22 39 30 37 49 130 354 434 415 436 460 533 634 657 655 619 407 138 57 41 35 28 10 26 28 16 30 20 37 75 308 588 613 607 549 432 150 79 69 93 89 77 61 51 43 75 98 108 136 118 104 166 154 128 104 98 
98 102 91 79 89 85 79 83 75 71 63 85 67 71 65 43 47 51 51 41 33 30 37 35 22 43 30 28 26 87 228 338 322 320 320 403 436 527 632 537 198 41 20 37 28 18 12 24 22 22 14 12 24 57 174 526 555 541 428 212 87 73 37 75 81 85 45 37 55 79 104 112 120 128 114 140 104 91 81 87 
102 104 93 89 87 102 93 89 83 71 85 87 87 81 73 69 47 59 35 53 47 35 37 33 30 49 39 30 30 79 162 300 318 316 326 312 405 430 422 222 83 35 22 35 35 14 10 22 16 20 30 33 35 47 134 415 282 264 142 79 63 59 59 71 81 67 69 41 43 73 98 126 126 126 102 128 83 95 104 98 
102 100 98 108 87 89 75 93 67 75 93 75 77 93 75 69 61 55 59 39 45 30 43 43 30 41 39 39 35 43 61 142 220 242 258 248 252 254 208 104 18 16 14 26 18 16 22 35 20 22 24 18 28 30 57 106 85 91 69 53 47 57 71 61 69 75 39 35 47 87 106 116 126 98 98 114 73 83 100 89 
106 100 91 93 91 91 87 81 98 73 89 85 83 83 73 43 61 51 49 35 57 45 33 39 30 33 43 26 24 47 28 47 83 150 184 172 176 132 93 47 16 10 18 12 22 12 22 12 22 35 22 24 16 37 41 47 51 57 63 51 37 47 53 71 83 71 39 22 49 83 106 122 132 102 100 91 73 75 100 93 
118 108 89 89 81 79 77 102 71 73 85 100 81 81 71 57 71 45 57 51 49 43 33 37 41 28 51 28 33 24 47 47 35 49 59 77 77 49 35 30 18 16 10 12 20 24 28 12 6 22 16 8 22 30 16 26 28 35 49 43 47 43 53 77 75 67 37 35 59 85 89 124 130 108 87 83 75 61 100 100 
102 102 93 83 85 73 98 91 75 63 79 77 79 83 69 57 37 43 55 55 47 35 41 30 30 28 20 33 14 30 30 33 35 33 39 37 28 30 28 26 20 18 4 22 10 14 12 6 22 20 28 24 18 22 22 26 30 41 39 24 24 35 51 67 73 55 22 30 53 75 85 118 112 85 67 69 75 79 85 98 
91 108 104 98 100 91 87 91 75 81 75 75 89 75 85 69 59 49 67 51 33 22 33 35 28 39 39 14 22 37 20 33 41 28 35 30 24 28 18 16 16 22 6 14 8 16 16 4 24 18 20 16 8 30 10 30 39 39 33 51 26 47 37 73 67 49 39 47 63 77 112 120 118 93 73 71 67 83 85 83 
116 106 89 95 102 100 104 75 81 67 89 79 89 85 87 73 49 67 49 37 49 39 30 35 47 41 33 39 35 26 30 24 51 26 35 26 33 24 28 16 22 16 18 8 28 18 16 14 14 14 18 22 14 30 14 37 26 41 41 45 47 49 47 73 71 53 35 33 63 83 100 130 116 106 79 75 75 73 91 75 
112 130 110 93 87 95 83 89 95 75 87 83 83 79 89 73 71 45 53 61 43 45 47 51 65 53 37 41 39 33 22 41 37 47 63 49 35 30 20 47 43 33 41 39 30 35 18 12 22 28 22 20 12 35 26 35 35 47 45 47 41 45 49 71 69 53 35 43 49 71 118 132 114 100 87 83 59 73 89 87 


