P2
80 60
512
84 108 82 86 86 72 84 84 90 92 86 80 86 94 74 88 84 82 78 68 64 72 56 70 66 54 56 62 46 34 28 32 30 40 26 26 26 32 36 30 28 40 32 26 38 38 34 30 30 44 32 50 32 60 54 52 62 58 56 58 66 54 78 60 60 46 44 38 52 50 46 36 54 42 46 44 36 32 42 26 
90 96 74 76 76 78 86 80 64 84 86 80 78 78 82 74 76 70 50 62 64 64 56 54 58 52 66 52 48 34 26 30 28 30 30 36 24 42 40 36 34 36 42 32 40 32 38 28 34 50 46 38 50 54 54 54 46 56 62 62 68 72 60 48 52 60 56 44 30 48 40 40 56 28 44 46 40 40 32 46 
88 92 84 94 84 70 72 94 80 84 84 74 66 76 90 68 60 72 64 66 56 76 60 56 52 62 52 62 56 42 38 38 36 32 38 44 48 40 44 42 42 52 52 46 38 38 34 46 36 42 46 46 58 80 62 56 66 70 64 56 70 56 68 60 52 62 58 60 74 70 58 76 44 58 40 46 60 40 36 18 
82 82 88 94 70 76 84 90 76 78 86 94 70 68 76 64 66 68 66 74 72 68 66 74 68 66 68 72 60 48 46 54 48 40 48 42 50 46 42 42 50 48 58 52 46 44 42 32 42 60 58 50 56 64 74 58 72 76 86 64 76 76 64 68 48 56 76 56 50 50 56 64 64 50 50 48 54 48 44 36 
92 88 64 78 80 80 94 102 78 64 88 86 84 78 74 98 74 88 68 80 70 72 70 60 64 74 62 80 68 66 52 44 42 58 66 64 58 48 58 60 56 56 54 46 54 58 60 52 48 58 52 68 68 68 70 72 70 78 84 78 78 68 62 80 50 76 68 60 48 58 60 66 64 64 60 54 64 54 60 62 
80 88 70 76 74 78 92 76 84 92 96 90 98 86 88 70 82 94 66 70 76 74 76 66 72 80 70 78 68 60 66 54 44 60 58 64 56 72 56 54 60 70 66 54 54 64 54 60 52 64 64 72 76 66 70 76 76 76 88 76 78 76 72 70 60 54 66 66 62 68 78 70 66 58 56 74 72 56 54 66 
94 80 80 66 88 88 90 90 88 88 94 90 100 82 84 82 76 94 78 76 76 94 72 62 78 80 64 88 74 76 60 56 52 56 64 72 66 76 70 66 64 64 64 52 62 58 60 52 62 62 68 72 72 74 76 76 84 74 74 74 80 80 60 70 64 62 72 64 68 82 86 78 74 66 66 78 64 68 56 50 
84 82 94 90 98 96 68 84 64 94 92 70 96 100 80 94 84 84 72 80 88 76 68 68 80 84 86 72 72 68 70 60 62 64 70 56 78 68 70 64 68 78 58 60 58 68 58 52 66 60 72 70 72 78 70 72 82 74 80 86 84 86 86 74 84 82 78 58 68 80 64 70 70 66 70 80 76 60 60 60 
78 82 80 84 82 92 86 100 86 90 80 92 88 86 84 80 90 92 66 84 78 78 74 84 84 90 88 72 80 80 60 64 70 66 74 80 70 74 66 62 70 62 74 68 56 72 56 58 64 58 72 74 84 86 74 70 84 84 82 82 80 72 82 76 78 72 70 70 72 74 70 72 72 58 60 78 66 64 64 58 
84 92 90 90 92 98 92 86 92 104 92 92 96 90 80 86 72 90 90 86 80 84 80 74 82 84 66 74 88 66 70 56 60 68 86 70 70 76 66 68 72 80 62 70 52 58 72 70 56 66 68 66 72 76 68 66 64 76 84 78 80 78 70 66 80 76 78 58 78 68 72 88 80 82 68 76 82 72 56 48 
74 82 90 88 88 84 78 98 80 80 80 86 70 96 90 96 84 84 76 92 78 92 86 76 68 94 80 84 70 68 64 68 62 70 82 76 72 74 74 70 70 74 66 70 54 74 66 58 62 68 58 68 72 68 78 66 74 82 80 74 78 72 64 70 76 70 64 62 70 64 76 72 90 76 76 76 80 70 58 36 
78 96 92 76 86 84 114 90 78 90 94 92 82 94 94 82 84 78 84 76 96 86 84 78 74 86 86 76 88 74 68 74 64 64 80 74 82 80 72 58 76 74 82 78 76 76 70 62 68 66 68 66 70 68 66 62 68 88 74 78 82 72 64 64 62 76 68 78 70 68 82 68 84 80 80 74 70 60 64 58 
84 94 88 74 96 94 88 98 80 94 82 88 72 84 76 74 86 80 82 82 80 84 78 80 74 68 76 72 72 76 68 72 62 70 86 80 82 82 88 82 92 86 58 68 78 84 64 62 62 66 84 72 78 76 74 68 82 76 86 60 82 60 70 42 58 56 74 60 74 78 74 88 76 88 70 74 70 70 64 50 
90 94 88 84 74 86 94 98 86 90 94 78 84 86 78 68 84 86 84 80 92 84 78 68 66 78 74 80 80 86 58 68 68 64 62 78 82 94 88 90 90 90 84 102 94 90 80 78 80 78 90 80 74 82 76 78 90 74 82 78 84 82 72 68 64 66 72 74 92 80 80 86 88 82 72 74 80 60 66 66 
96 100 86 88 94 94 94 80 74 94 86 82 80 94 82 76 82 78 68 70 68 90 76 74 64 90 74 82 92 70 76 78 76 82 86 94 82 104 100 94 106 98 90 106 108 112 96 76 88 88 88 88 84 80 78 82 78 94 96 88 98 74 72 76 82 88 88 86 94 90 86 88 90 82 86 88 78 74 58 60 
98 100 72 80 92 88 84 88 74 86 82 84 74 80 80 72 70 78 86 82 78 82 80 76 68 86 76 84 84 72 72 80 80 104 104 112 110 108 114 108 96 98 94 96 124 118 104 96 94 90 92 92 94 94 86 92 88 90 98 96 100 80 86 88 86 96 90 80 94 84 84 102 94 92 84 76 90 68 64 58 
96 88 92 76 90 70 86 80 78 90 74 98 76 82 78 84 74 88 96 82 80 90 78 90 80 92 90 100 86 92 90 100 100 102 122 120 130 126 126 110 118 108 110 92 120 126 118 102 94 110 106 104 112 96 96 92 94 90 100 108 108 96 100 86 86 86 110 106 92 78 92 88 102 88 74 86 92 58 76 64 
82 104 82 92 92 80 96 78 86 96 76 80 84 98 88 82 96 94 84 108 96 86 86 82 84 102 104 110 96 106 96 100 100 120 130 134 140 126 136 122 116 116 106 98 110 124 114 118 110 122 108 112 128 114 110 102 100 100 94 108 106 96 90 98 98 104 118 104 104 106 102 114 106 106 102 102 98 82 84 68 
94 104 96 102 84 78 94 88 88 86 90 80 84 96 98 96 98 90 100 90 102 88 104 88 90 96 112 110 106 90 88 110 116 122 138 140 152 152 157 146 134 116 110 104 116 118 132 118 128 144 126 138 140 128 128 118 106 100 106 110 114 98 104 112 118 112 96 108 106 102 106 106 98 108 88 98 102 88 94 86 
88 94 86 78 102 100 98 82 84 94 88 90 86 88 86 98 76 94 90 88 96 84 86 92 106 96 98 106 106 108 96 108 112 124 144 140 154 201 300 271 250 138 116 102 114 124 120 134 124 144 138 140 138 128 118 108 110 106 108 104 92 104 114 106 110 106 116 116 106 94 118 116 98 116 106 100 104 92 96 90 
96 108 80 92 104 88 84 104 84 80 96 100 92 102 80 96 94 102 100 98 114 94 102 102 108 104 102 102 114 100 108 122 130 140 155 165 205 326 417 407 362 226 116 112 110 126 140 126 138 148 159 148 148 140 128 112 110 114 118 120 120 114 124 122 122 124 120 118 122 128 116 128 128 108 104 104 106 88 98 92 
86 94 88 82 90 84 88 88 78 90 76 86 80 96 82 86 86 88 96 96 106 92 82 96 98 102 102 118 108 114 110 124 171 224 269 289 316 355 382 389 364 254 122 100 102 122 128 130 128 128 134 144 155 132 132 134 130 138 150 167 154 150 159 161 142 148 140 161 177 181 189 209 191 150 140 112 108 108 106 94 
80 94 82 98 82 90 84 88 80 82 102 92 82 90 90 84 88 90 76 96 92 100 98 100 108 118 102 112 120 114 112 126 189 306 322 310 308 318 380 364 318 169 114 110 104 112 120 124 128 146 152 155 150 148 161 159 148 148 163 173 175 181 199 197 177 183 195 203 240 242 264 281 296 298 267 199 175 126 118 114 
88 98 100 88 100 94 84 82 76 80 98 94 96 98 94 86 80 86 92 100 100 112 92 98 104 118 102 108 120 116 122 171 283 343 360 329 308 314 312 246 159 130 120 124 148 157 161 171 171 199 171 199 163 150 173 159 148 132 167 181 179 187 211 211 189 195 215 213 273 271 252 260 302 347 331 320 287 226 177 128 
100 110 92 108 90 96 100 104 80 80 82 100 86 106 90 86 98 98 92 100 94 100 98 100 118 108 112 110 116 122 177 312 355 312 308 262 224 211 201 159 144 152 171 205 222 246 252 232 224 220 187 240 217 191 169 165 138 142 175 185 183 197 218 228 203 203 209 228 283 289 254 275 296 316 318 308 316 296 300 258 
86 92 70 86 90 90 94 82 86 82 98 88 78 104 88 84 96 96 86 96 88 96 102 92 108 112 112 126 132 175 300 333 298 213 157 144 187 195 209 197 195 191 197 218 234 265 252 252 244 228 165 209 199 181 189 193 191 189 205 199 209 217 228 220 207 203 199 215 256 275 252 260 289 304 306 298 293 302 302 269 
82 106 64 68 88 86 86 92 76 82 90 80 80 86 84 84 84 84 80 92 96 90 98 94 108 102 106 106 138 298 331 293 264 238 260 277 264 232 211 175 171 161 183 207 195 222 205 218 215 193 165 171 177 191 226 234 209 209 217 217 205 203 218 217 201 191 179 179 189 191 203 238 262 283 267 271 264 277 271 271 
92 88 76 80 86 80 82 78 76 84 94 88 72 84 92 76 86 88 76 86 80 82 84 88 110 98 96 104 163 316 281 289 260 271 289 302 285 246 193 169 181 193 211 203 191 199 193 199 191 163 157 152 175 193 226 238 215 222 203 201 203 201 215 205 171 150 140 132 138 136 140 155 157 165 159 161 169 155 159 163 
90 92 78 80 100 88 76 76 70 80 86 86 72 82 84 84 80 80 74 78 76 84 82 82 92 98 90 108 148 295 287 267 271 277 285 291 258 181 152 167 228 230 220 215 197 209 218 205 177 157 169 165 189 217 240 230 217 222 209 222 218 213 181 165 132 144 140 138 132 124 126 126 122 118 126 110 124 120 130 122 
86 92 76 80 86 82 76 88 86 80 88 72 74 78 82 66 78 84 78 94 80 82 88 82 86 108 100 114 159 287 285 283 275 262 264 256 232 144 132 189 258 252 244 230 211 213 218 213 201 161 183 169 195 205 252 250 220 236 242 242 262 252 230 226 217 217 213 199 187 159 148 154 157 157 167 179 213 203 213 201 
90 84 88 82 80 82 82 80 82 82 82 82 86 80 78 82 86 84 92 98 96 106 120 122 140 157 130 136 211 306 293 310 281 250 242 224 171 124 104 175 252 258 244 207 199 211 217 230 187 136 138 146 201 215 244 234 228 244 250 264 271 265 264 271 264 264 258 256 262 271 258 262 264 277 298 306 316 300 316 291 
94 94 72 80 92 88 88 92 84 82 88 76 76 90 88 92 94 104 102 112 148 197 195 244 368 388 324 304 362 353 306 345 293 258 218 205 167 114 98 203 254 252 236 222 203 203 203 217 185 88 0 140 173 205 224 218 228 250 256 264 279 260 271 248 269 256 256 260 271 277 291 289 283 308 316 329 339 333 322 314 
88 92 88 100 98 76 96 84 86 70 86 92 90 98 102 102 96 92 110 169 287 308 355 459 506 476 470 445 476 405 279 318 324 254 218 220 183 78 100 191 258 252 242 228 211 201 211 218 191 154 106 108 132 185 217 217 234 254 254 269 277 262 269 242 256 248 250 238 248 267 279 291 296 335 366 347 345 316 289 246 
80 104 98 80 86 90 88 76 76 78 78 78 88 102 84 90 82 90 110 187 335 366 463 512 468 434 482 478 493 455 298 267 316 271 207 193 167 84 96 171 238 238 238 218 199 197 213 224 199 159 136 72 58 118 179 201 211 230 240 248 248 228 228 215 220 215 220 213 224 267 275 289 304 322 326 322 291 232 171 128 
82 94 74 96 90 100 84 80 86 88 90 74 86 104 90 96 92 104 122 181 345 442 510 487 397 339 449 463 497 482 324 306 326 275 224 213 205 175 152 154 203 211 215 213 185 199 211 228 185 150 136 90 16 78 152 189 189 222 236 236 234 213 201 195 209 181 203 205 203 224 220 244 254 250 228 193 148 104 114 98 
94 84 88 96 98 66 86 76 86 90 82 86 96 116 88 86 100 106 104 124 312 397 491 506 463 440 457 428 485 465 341 300 306 281 256 264 271 264 228 197 179 187 195 189 177 203 201 205 163 138 154 112 130 122 155 189 171 185 203 197 189 179 181 163 185 165 179 165 175 148 144 142 136 126 108 122 114 74 88 108 
84 96 82 76 82 96 94 90 86 88 82 82 80 88 82 106 96 90 86 118 246 310 378 455 478 501 455 364 314 271 260 287 269 275 291 289 291 295 252 215 175 163 169 195 173 191 213 189 157 154 165 146 138 140 159 165 155 154 159 148 154 142 159 144 155 152 150 142 142 124 126 134 128 104 98 100 92 74 88 82 
80 88 86 84 86 80 98 98 82 78 82 86 86 90 94 88 96 90 104 118 140 177 215 273 304 335 242 157 140 150 203 287 277 275 273 283 269 275 254 224 193 197 173 157 152 173 181 173 148 138 159 167 136 124 114 104 104 124 136 118 134 116 126 118 128 126 122 122 130 122 126 124 108 110 96 94 102 92 90 92 
88 102 80 84 90 88 98 96 88 74 88 96 82 108 96 96 100 90 104 114 116 116 140 146 144 154 122 132 118 118 150 279 316 293 260 248 195 138 114 163 201 205 142 122 128 138 124 122 128 118 130 134 138 122 116 100 102 118 112 100 104 92 88 102 104 114 120 106 120 108 112 120 102 104 104 94 104 92 100 86 
86 92 94 96 100 84 86 88 76 86 80 82 74 88 98 94 88 98 92 104 92 100 106 104 104 110 112 112 114 120 130 224 329 320 287 211 104 38 34 152 262 285 271 230 211 183 142 132 122 120 136 134 122 124 112 108 112 90 106 100 92 98 100 98 100 110 102 102 100 110 112 106 90 88 94 90 94 102 84 86 
72 98 88 88 94 84 80 92 90 82 78 88 80 90 80 88 92 92 88 102 102 96 98 104 106 116 108 118 112 100 104 144 262 341 314 281 213 152 189 226 226 306 399 386 399 353 300 250 195 146 146 134 118 120 118 102 98 104 106 102 94 86 94 92 104 114 112 108 106 106 118 86 82 84 80 84 82 94 96 70 
94 94 68 84 80 82 88 88 80 78 78 76 80 68 94 76 82 82 88 80 98 80 92 74 102 102 100 106 90 90 92 110 134 211 283 314 285 273 279 277 277 374 424 438 434 403 382 376 366 308 220 163 132 122 98 86 88 92 94 96 80 84 68 94 86 96 98 118 88 100 96 88 72 62 80 72 86 80 82 74 
74 84 78 68 80 84 94 72 74 90 64 78 70 102 82 76 82 86 92 84 84 84 82 96 102 92 96 92 88 86 92 90 94 122 134 175 224 260 273 246 244 287 320 389 413 407 391 374 382 364 382 304 191 130 144 150 165 179 134 124 84 86 86 72 82 102 90 76 104 98 82 72 70 60 60 60 76 84 88 80 
80 94 78 82 74 86 94 80 76 76 88 80 80 90 70 82 80 78 80 94 88 80 76 92 88 94 96 94 92 80 82 90 80 92 90 104 112 132 171 203 220 154 134 163 232 335 362 388 366 360 372 351 341 339 341 324 281 236 244 165 90 74 60 80 62 76 80 82 86 70 80 62 60 64 70 76 86 82 84 82 
76 88 86 94 80 80 84 90 86 94 74 80 80 84 78 90 88 84 82 90 88 76 86 88 86 96 82 88 84 82 86 94 86 92 92 96 92 108 102 104 112 102 90 102 136 169 211 244 265 281 291 312 364 380 370 343 300 283 277 130 90 76 76 72 64 62 84 82 78 74 82 54 70 64 68 80 92 78 82 80 
74 92 86 98 84 90 86 92 86 90 84 72 76 84 76 76 82 96 82 92 84 76 74 90 84 80 96 94 94 90 104 110 96 102 108 108 102 108 88 80 86 94 98 108 126 152 175 189 207 185 187 191 217 220 244 269 264 220 152 92 88 70 80 68 70 80 78 76 84 72 74 68 72 66 66 82 84 86 88 76 
78 110 80 84 80 80 100 92 96 96 98 80 86 96 80 78 96 80 76 88 90 74 94 78 86 96 90 84 104 104 102 122 106 108 120 112 100 106 102 94 90 100 96 92 116 150 177 179 181 169 175 148 148 126 106 120 114 122 100 82 98 82 84 68 76 82 72 92 84 86 74 84 74 82 88 80 100 82 88 88 
84 98 78 78 82 104 84 90 90 102 98 94 90 92 84 86 92 84 92 98 80 96 84 82 84 98 94 94 98 96 98 110 112 120 120 110 100 98 108 94 84 90 102 116 128 146 157 148 154 154 152 144 136 114 92 84 88 86 94 86 94 90 78 82 86 86 80 80 78 78 58 72 80 74 80 86 84 76 84 86 
98 92 90 88 88 82 90 84 90 88 88 82 68 100 80 80 82 98 76 82 88 94 84 92 100 98 100 92 102 94 118 112 102 108 110 98 86 86 84 84 90 94 98 112 112 130 130 136 142 138 140 134 120 114 86 78 84 78 90 88 80 88 86 68 80 82 80 90 76 82 84 84 86 76 78 78 84 84 80 84 
100 94 82 84 76 90 86 94 78 82 84 98 70 94 82 70 90 82 90 88 90 90 80 80 76 86 90 84 98 94 106 102 94 98 100 96 88 88 90 90 82 86 88 96 108 126 114 102 112 118 108 118 112 90 86 80 82 88 82 86 80 76 78 72 68 86 78 90 70 80 80 84 74 86 84 86 98 74 80 80 
90 90 76 82 82 84 82 80 76 82 90 80 72 84 84 94 86 92 92 74 80 84 72 76 80 82 86 92 76 78 98 92 96 100 78 86 80 76 64 78 72 86 84 98 84 100 102 94 92 92 90 98 92 90 74 78 86 68 82 74 74 78 68 66 68 74 80 72 80 66 80 72 74 62 84 78 84 72 76 72 
84 76 74 84 100 80 82 94 88 88 86 88 82 82 96 90 90 92 98 74 70 86 82 86 68 92 74 90 88 76 70 88 78 74 80 82 76 70 72 60 68 72 84 72 76 90 76 76 86 90 84 94 86 84 62 70 66 80 80 78 76 72 64 68 62 84 64 66 68 84 70 70 74 72 78 96 96 78 80 72 
80 86 80 96 84 94 76 96 68 84 86 82 86 72 98 106 68 82 90 82 90 82 84 74 74 76 84 84 76 72 66 80 66 68 76 76 68 66 66 58 58 78 72 66 68 82 70 66 78 80 72 84 84 78 62 64 68 72 58 84 72 64 60 54 56 72 74 64 50 60 62 60 68 64 80 80 94 80 90 84 
84 96 70 88 92 80 74 82 74 80 88 82 76 92 96 90 92 86 82 72 86 76 78 80 84 84 76 74 70 62 62 70 62 56 62 68 52 60 60 52 66 66 74 56 62 74 66 72 54 62 62 80 64 72 72 64 72 66 72 78 68 76 80 56 56 54 72 60 50 70 60 74 84 62 76 98 88 82 88 74 
90 82 76 88 76 74 76 100 74 76 72 90 78 80 78 70 82 74 70 84 74 80 66 78 70 68 72 62 62 50 48 54 62 62 50 52 52 54 56 62 58 72 58 58 46 42 56 62 56 62 56 60 60 68 70 54 68 70 70 70 62 58 64 48 70 60 64 60 52 64 70 50 58 64 86 74 94 76 90 72 
78 74 66 72 58 64 66 72 60 84 68 80 74 84 76 68 80 80 68 70 80 68 70 58 76 66 66 64 60 52 60 50 42 36 44 44 50 54 52 64 52 62 54 52 54 50 44 46 40 36 52 64 46 66 64 58 72 50 60 66 58 56 42 50 60 54 66 54 54 60 56 52 58 82 96 90 84 78 80 80 
66 84 68 52 62 64 64 66 54 86 62 64 66 74 76 72 82 70 76 70 66 76 60 58 56 56 48 68 58 46 56 34 36 26 40 32 40 42 36 42 36 52 44 44 36 42 40 34 34 44 46 60 50 52 54 46 52 64 58 58 40 48 44 22 48 48 44 52 40 38 40 54 44 50 78 92 90 74 82 64 
70 74 66 56 62 64 74 60 56 78 88 60 62 78 72 68 80 78 70 52 48 66 60 58 70 58 56 60 54 40 38 38 46 32 30 32 30 34 34 38 44 44 22 32 38 48 28 28 38 32 26 44 40 44 56 48 52 54 48 60 34 30 36 36 42 32 34 42 42 28 30 22 38 68 78 84 86 84 88 72 
70 68 58 56 56 64 46 56 54 56 50 62 56 58 64 58 66 64 56 58 50 44 48 54 54 50 42 56 52 40 46 16 28 28 32 26 26 32 32 26 30 34 30 38 34 40 52 32 26 30 24 48 38 50 48 38 54 50 54 26 50 50 30 18 38 40 36 22 18 38 30 14 24 58 70 84 90 76 72 64 
68 76 56 70 54 64 54 76 58 50 52 52 54 70 58 62 84 70 66 68 44 58 52 50 66 46 50 58 48 48 32 30 32 42 48 48 38 40 28 42 38 44 46 64 48 60 40 44 50 46 50 42 32 56 52 54 58 56 66 66 62 58 58 42 46 34 34 26 18 30 28 28 42 62 82 82 90 90 86 94 


