P2
80 60
784
121 97 113 105 107 117 115 99 105 103 91 93 113 109 97 95 103 101 89 107 95 84 97 99 93 95 113 99 103 99 113 115 139 129 170 231 170 152 135 131 182 275 395 455 526 590 596 617 621 615 608 581 588 581 590 565 590 575 567 549 528 539 516 367 433 243 103 80 52 74 60 74 76 95 139 247 251 249 247 261 
117 91 113 111 103 99 107 105 101 91 99 93 101 87 87 109 103 95 95 91 97 97 101 93 91 101 119 115 115 129 123 137 188 269 331 377 333 275 319 361 469 553 600 588 594 614 615 633 631 612 614 604 577 551 518 492 490 508 500 500 473 465 441 365 395 333 241 164 149 141 109 119 87 93 141 206 192 196 217 239 
111 95 123 117 113 97 105 103 95 93 101 103 80 93 89 111 97 89 105 105 103 101 119 95 101 103 105 125 117 178 235 349 369 395 397 439 526 573 608 581 615 652 681 658 629 619 600 621 592 596 547 467 449 379 353 371 389 363 393 401 381 367 371 361 375 375 379 351 315 317 293 277 214 160 206 194 182 174 178 188 
117 107 117 117 133 111 117 111 93 97 95 97 87 95 97 89 82 99 97 107 99 74 101 93 103 103 135 160 259 431 478 498 488 465 451 476 577 637 662 621 648 672 685 645 612 592 561 541 471 437 401 361 351 347 317 331 363 353 357 361 361 379 391 383 375 395 413 393 393 395 379 367 337 317 297 192 174 164 166 172 
119 117 111 119 121 113 115 119 101 101 99 95 91 97 87 101 97 103 91 97 99 93 97 91 91 117 166 321 459 506 502 484 474 486 484 496 586 637 656 623 637 633 592 543 498 474 441 427 383 375 341 321 319 331 295 337 361 363 367 387 391 403 413 411 389 419 423 413 391 421 409 391 383 375 333 200 168 137 154 174 
115 91 103 101 121 105 99 99 97 103 84 99 89 113 95 95 89 105 99 93 91 105 95 89 103 158 339 431 447 478 508 488 492 514 549 559 569 584 584 520 506 451 435 419 409 417 415 391 343 329 319 303 285 285 263 319 359 365 369 401 427 431 421 419 399 407 431 415 415 417 397 397 389 391 337 192 149 121 133 162 
113 91 115 113 103 111 105 105 109 109 101 89 95 105 97 101 97 99 105 103 105 99 103 95 109 219 484 500 512 500 512 490 547 547 537 516 478 469 439 421 427 425 437 457 435 415 387 367 331 321 299 279 275 261 259 291 335 361 381 411 433 451 435 435 403 411 425 431 429 445 421 425 417 419 395 214 154 137 137 149 
115 101 111 113 105 115 109 105 97 99 99 93 113 101 95 107 103 99 103 109 105 99 107 117 133 281 537 528 559 536 545 543 579 549 482 465 439 447 433 423 431 435 433 457 423 403 375 361 327 303 285 257 255 257 241 263 325 343 371 401 407 433 435 421 425 431 457 449 431 443 427 433 425 443 411 235 152 139 131 152 
119 103 123 123 109 115 105 97 111 105 109 95 107 105 103 101 101 111 97 101 99 103 105 115 152 309 543 563 590 583 571 579 590 520 455 451 445 441 445 423 439 455 445 457 429 395 369 361 327 299 281 253 243 269 235 277 317 337 363 369 403 433 443 433 463 457 467 449 433 443 445 445 413 439 415 235 152 141 131 162 
115 117 101 109 103 115 101 107 95 103 105 105 103 91 95 103 103 109 121 113 111 113 121 145 172 315 559 588 600 588 608 596 583 492 453 431 445 451 467 461 467 474 461 449 401 397 365 357 317 285 283 249 247 253 245 247 293 321 331 353 375 443 447 427 467 478 492 459 445 441 431 441 411 419 385 217 139 129 143 158 
109 119 101 107 123 113 105 107 97 111 109 105 95 117 123 115 119 119 127 121 115 117 129 227 323 387 561 604 604 600 602 594 541 478 451 437 451 447 480 498 498 484 478 447 395 373 361 347 345 317 281 255 255 255 259 263 291 307 297 299 335 365 415 409 439 443 449 443 425 413 383 403 355 327 293 200 149 133 125 152 
109 99 117 95 109 99 107 93 99 113 117 109 125 147 180 202 190 188 217 212 160 147 164 295 471 514 518 604 594 596 606 573 518 461 447 433 443 445 474 494 510 488 469 447 383 393 375 339 321 303 279 253 251 265 251 269 281 301 285 299 315 347 407 413 409 409 393 353 323 287 253 231 174 135 125 145 139 127 115 156 
123 111 121 113 121 111 111 93 117 101 109 121 192 297 399 480 528 555 581 547 419 323 285 429 610 712 530 557 543 565 567 530 476 451 435 435 427 443 471 496 510 492 473 439 399 383 363 347 329 297 283 251 257 267 263 275 293 315 301 303 329 341 413 369 265 269 221 166 131 117 103 111 93 95 95 119 147 137 137 129 
131 103 105 111 101 109 121 103 99 99 137 160 327 514 689 689 722 697 685 681 645 588 623 712 747 749 541 524 496 465 441 455 441 429 425 431 429 447 471 496 506 488 496 447 409 403 373 355 323 301 291 275 271 289 271 283 305 323 323 327 343 361 389 421 415 381 351 269 219 172 119 109 101 95 84 133 133 145 149 158 
145 99 115 117 113 125 105 109 95 113 129 243 473 726 734 741 768 734 681 641 677 631 685 755 782 784 648 498 447 435 429 441 449 449 431 443 437 476 488 522 534 508 498 480 431 399 363 349 321 321 301 285 279 281 273 283 303 361 359 351 365 345 359 395 419 447 433 409 401 377 315 287 196 152 137 147 160 143 149 160 
115 103 121 111 103 113 101 95 91 111 156 275 571 770 761 749 738 699 674 623 677 672 689 747 770 768 666 514 473 484 486 514 490 473 425 445 445 484 516 516 530 514 512 502 455 419 383 357 337 323 311 283 283 279 273 285 311 371 359 369 343 361 365 389 393 427 433 403 399 421 415 425 415 383 333 267 160 133 162 176 
101 105 117 103 121 107 107 97 97 119 154 283 463 747 764 743 749 712 701 650 674 662 676 747 784 755 581 547 553 567 561 559 524 465 431 441 449 484 520 522 518 512 488 506 469 441 403 365 333 319 309 289 289 297 281 283 301 369 363 359 367 371 375 367 395 407 415 405 445 469 467 502 482 474 435 305 176 147 149 147 
115 82 107 103 101 103 105 101 101 105 141 279 369 677 741 741 763 708 722 710 707 679 639 726 772 745 547 584 596 590 588 584 536 469 431 427 419 439 453 461 459 469 457 467 469 449 393 367 353 329 297 305 297 303 279 285 293 363 349 369 369 359 359 363 371 385 421 433 459 484 474 455 433 469 457 337 166 147 149 156 
107 95 109 103 103 93 107 97 109 107 121 225 351 577 720 695 739 736 718 720 674 608 504 545 633 557 536 590 594 600 600 596 571 512 441 435 417 429 411 409 423 413 421 439 437 419 399 381 351 341 313 317 299 319 289 303 301 363 359 357 357 367 353 333 345 383 431 423 431 447 455 469 463 473 457 357 190 162 160 154 
129 97 103 93 113 97 109 119 99 91 127 156 283 401 625 676 691 672 658 629 488 287 194 233 397 365 478 569 590 608 588 581 571 543 453 425 425 421 409 417 415 423 425 431 431 443 407 393 379 355 343 345 341 345 329 319 323 361 379 375 375 359 315 309 327 367 413 413 423 437 449 441 447 451 457 347 208 168 188 198 
115 93 93 107 105 101 107 109 105 107 109 121 192 273 369 451 496 455 431 413 214 119 119 156 241 277 463 534 539 561 567 563 569 569 469 433 415 427 429 417 411 425 431 437 437 473 441 415 393 391 383 401 371 373 357 351 349 371 405 413 403 349 311 317 317 359 407 411 427 435 461 461 443 411 417 331 235 188 198 214 
105 97 105 103 117 115 109 91 97 109 91 111 121 135 158 188 168 158 129 137 103 111 115 113 129 166 411 502 480 508 482 498 492 492 457 431 425 439 439 417 427 425 439 449 453 476 502 453 437 419 399 399 383 391 387 371 357 355 391 415 397 343 327 313 337 383 409 415 425 455 435 437 395 383 383 317 212 182 188 204 
121 103 103 103 109 115 113 95 89 93 115 101 107 105 111 109 109 95 101 101 101 103 107 101 111 147 365 506 490 488 478 467 449 457 443 421 433 471 471 453 465 463 445 455 461 467 500 455 441 427 409 393 395 421 399 379 359 349 395 409 389 385 375 373 415 429 429 427 405 421 383 381 361 339 313 251 204 158 145 156 
121 97 107 109 113 93 91 111 93 97 115 82 105 119 105 101 97 97 107 107 101 99 107 97 105 125 311 530 486 490 488 453 457 463 453 451 480 522 567 575 553 534 506 439 425 417 369 327 285 237 237 192 231 281 321 351 363 349 383 419 480 520 520 488 480 459 439 377 313 339 299 283 233 170 143 123 125 125 103 127 
107 109 113 117 109 107 103 97 95 84 101 93 101 99 91 89 97 80 107 91 93 93 103 97 107 127 225 504 478 480 510 506 510 510 506 494 476 508 612 646 639 635 623 551 449 367 279 249 241 249 241 190 190 186 214 241 279 345 471 557 583 567 559 536 514 500 409 186 121 99 82 84 56 38 48 78 172 180 192 210 
117 93 103 103 101 109 95 82 91 82 91 84 91 93 95 80 84 87 99 93 93 89 93 80 103 105 147 359 486 534 555 557 530 502 498 463 405 526 608 627 623 625 639 662 664 623 561 579 586 596 606 583 559 547 553 559 563 569 583 608 606 581 559 545 543 496 231 72 52 44 23 31 19 17 42 113 243 259 243 263 
105 84 109 84 89 101 99 87 74 80 99 82 93 91 97 95 87 97 91 105 89 95 99 84 91 89 99 152 311 476 528 508 473 437 375 349 367 567 608 600 596 604 621 643 615 596 592 581 583 588 586 586 577 588 581 575 577 573 559 567 567 565 539 534 506 325 87 54 19 23 19 21 15 21 31 87 243 255 245 265 
87 89 91 91 101 97 87 89 91 70 97 87 82 91 80 93 93 101 101 95 84 87 78 97 87 95 103 105 121 176 241 305 329 333 317 333 397 567 571 543 534 536 551 590 590 581 577 573 579 583 577 563 555 551 512 496 465 447 399 383 431 473 478 375 208 66 48 21 17 13 17 11 2 9 23 76 192 210 202 241 
117 95 91 91 107 103 84 93 76 74 89 97 97 89 76 89 80 82 72 95 78 87 84 93 82 89 97 105 80 105 95 109 119 176 217 285 353 367 243 217 210 212 263 339 393 427 433 471 461 455 397 343 305 251 190 145 141 117 107 78 82 109 125 72 46 31 38 17 15 21 15 17 15 31 15 23 76 99 101 135 
115 109 91 99 109 99 89 95 91 87 97 101 103 93 89 95 87 87 91 89 84 99 87 84 84 91 91 91 80 78 84 84 93 105 99 135 156 135 99 78 84 84 87 95 82 107 107 115 121 119 107 103 107 115 97 91 87 78 72 54 46 48 52 56 33 38 40 21 0 11 25 17 23 21 15 11 62 50 56 72 
111 95 103 103 121 97 84 97 97 87 103 93 78 91 82 95 82 97 84 91 84 89 99 87 89 84 95 93 78 101 82 82 80 89 91 84 72 80 72 78 89 72 84 87 54 64 87 72 70 74 68 87 93 103 91 91 76 70 56 56 46 38 35 44 50 44 38 23 21 21 21 19 17 17 15 9 46 44 56 66 
99 97 101 109 95 84 107 97 97 99 99 91 101 91 78 87 84 80 76 82 76 80 95 82 74 84 93 91 76 72 76 70 76 80 89 68 76 82 72 80 68 56 64 60 54 58 70 58 66 72 64 76 72 82 78 78 72 76 64 46 46 40 35 31 25 17 42 23 9 13 23 23 9 17 13 2 44 40 27 72 
101 93 91 107 93 95 89 93 78 82 87 93 93 93 99 89 76 87 80 82 78 82 78 78 87 95 89 91 80 80 84 66 80 97 70 68 66 66 72 60 62 70 70 60 44 58 70 64 52 70 66 60 72 91 80 78 89 64 44 33 33 40 21 17 29 23 15 13 15 13 2 9 2 0 5 0 35 33 31 64 
105 103 89 97 89 95 95 84 87 78 97 97 95 80 84 89 89 82 72 87 74 87 87 87 80 87 84 76 76 74 82 68 70 68 74 72 60 80 70 60 70 60 52 50 42 60 52 58 56 52 58 60 70 89 74 78 76 54 58 29 40 33 23 25 27 31 23 9 13 9 0 5 0 2 2 5 25 38 35 54 
89 99 105 95 105 91 97 76 89 93 97 99 89 80 84 87 84 87 74 80 78 72 93 95 80 101 78 84 78 80 72 66 80 70 87 78 68 70 82 60 66 54 56 56 40 60 58 60 52 62 74 70 99 101 101 99 82 70 50 31 31 27 50 54 66 52 42 27 27 23 31 27 15 13 2 15 44 50 33 56 
107 97 111 95 97 95 97 87 95 99 105 111 97 93 87 84 80 74 97 91 87 80 95 80 82 95 82 87 68 95 80 74 72 80 78 74 78 68 82 64 62 50 52 46 48 56 52 56 62 58 74 68 133 135 135 137 133 127 123 95 64 52 82 95 87 87 58 52 50 46 46 27 15 13 23 31 66 48 56 74 
99 95 101 109 91 99 103 91 101 87 101 107 91 87 101 89 82 74 78 89 76 89 95 93 82 87 82 97 78 89 76 80 68 74 74 80 66 68 64 74 56 62 48 40 44 58 50 68 56 58 56 70 125 141 154 158 156 156 152 141 133 115 129 139 129 109 87 99 82 68 48 52 35 33 19 38 66 52 44 52 
113 99 91 97 95 84 97 82 76 99 105 101 89 87 78 84 91 80 89 78 82 87 72 76 78 82 80 84 80 87 84 76 68 76 78 70 74 62 64 64 54 58 38 40 40 46 42 54 56 58 56 76 111 145 158 164 168 162 174 154 164 145 149 143 99 99 99 107 105 87 52 58 46 56 42 46 60 38 46 62 
115 105 103 99 101 99 107 80 89 93 95 97 103 82 87 89 95 70 91 91 70 97 74 78 72 84 84 78 72 82 74 64 62 64 72 72 66 70 64 72 56 56 58 38 38 52 40 64 48 62 50 64 109 145 154 172 186 194 196 172 178 180 176 133 91 97 103 135 127 127 68 54 56 62 58 54 66 44 54 54 
111 97 109 111 89 95 107 89 84 84 107 115 97 91 80 87 93 74 93 84 80 91 87 95 76 97 82 93 70 87 72 68 72 74 74 74 66 64 56 70 60 58 46 54 33 58 56 58 54 62 64 72 123 149 164 182 204 206 196 190 190 192 174 135 107 97 109 145 154 143 101 78 60 70 56 54 74 52 54 58 
111 105 117 107 97 105 97 87 99 93 101 105 103 97 101 93 89 76 95 89 82 66 76 78 80 87 80 93 80 89 70 68 68 76 70 74 68 76 64 64 66 54 58 62 48 56 52 52 66 58 66 84 129 152 162 186 221 212 194 190 204 186 180 123 99 111 103 137 145 145 129 89 68 70 70 70 89 66 64 74 
127 115 123 105 101 99 87 95 89 101 91 103 101 101 99 78 93 76 87 93 84 82 84 89 74 105 82 84 84 87 78 76 64 84 72 72 64 70 64 74 58 46 70 52 46 56 60 52 60 52 66 80 147 176 196 200 221 208 200 194 174 158 137 107 84 84 87 76 99 97 87 62 58 60 74 60 82 72 62 72 
127 99 107 103 97 95 87 101 80 101 91 97 91 105 89 84 76 84 87 84 82 74 84 72 74 84 74 84 74 99 70 76 76 89 68 78 72 78 56 58 56 56 48 52 44 25 40 58 52 60 74 84 172 208 206 204 221 210 192 196 184 168 141 111 99 93 91 72 72 74 62 64 50 56 68 78 89 78 60 64 
111 117 105 107 97 103 95 74 84 89 103 95 119 87 91 91 87 93 89 82 80 82 80 80 84 87 84 87 76 84 74 74 70 70 78 66 78 74 68 68 62 58 68 46 29 33 50 54 54 72 74 78 149 190 208 219 223 214 188 184 168 164 115 113 105 93 87 84 66 68 68 64 62 76 76 70 91 70 58 68 
125 101 111 105 103 111 99 101 84 91 97 109 99 91 103 93 87 72 80 89 76 78 78 84 78 78 84 80 80 89 74 80 76 76 82 62 72 66 60 66 54 62 58 46 35 52 56 56 54 60 87 95 172 206 217 217 229 219 182 180 184 172 133 123 117 111 109 95 109 101 76 74 74 64 74 87 80 62 54 82 
123 103 97 97 105 101 87 95 76 78 91 109 95 99 95 95 99 87 93 80 78 84 78 80 84 99 93 74 74 72 87 66 74 64 84 72 64 68 70 66 48 58 56 52 35 56 54 54 52 58 70 78 149 198 202 219 206 212 206 178 186 164 156 154 129 147 141 137 137 141 135 137 99 95 78 93 93 66 60 82 
105 87 97 105 87 101 93 93 87 82 107 105 105 93 97 80 87 89 87 89 89 89 80 91 78 91 84 70 72 80 76 76 72 58 70 64 64 76 74 70 64 54 62 56 38 52 46 56 54 70 74 87 143 184 192 186 202 204 188 188 180 174 174 162 170 174 184 160 178 192 190 210 164 127 105 84 82 62 52 70 
105 91 113 101 105 95 78 95 93 78 95 103 111 93 84 89 80 84 84 89 84 74 91 89 87 84 80 72 84 82 89 70 76 68 76 68 68 74 66 56 62 42 48 46 42 48 60 58 58 68 70 70 117 154 160 174 190 182 180 158 176 168 170 162 178 162 174 170 188 186 208 229 200 186 143 101 80 62 48 62 
107 95 103 105 97 103 95 93 80 99 87 107 105 99 91 76 89 87 89 76 91 87 89 93 76 80 87 74 76 89 87 72 74 70 78 66 68 58 72 62 56 50 54 42 35 56 48 50 50 64 70 72 82 103 111 123 123 121 147 121 137 158 156 149 147 141 162 160 168 184 217 221 233 210 182 103 52 38 42 60 
119 95 87 99 97 109 97 82 91 89 91 107 97 111 82 80 91 97 80 80 82 74 72 78 66 76 89 87 84 87 80 68 72 68 72 66 70 68 50 56 60 56 48 50 42 40 46 56 38 60 58 62 76 91 84 78 97 82 66 52 56 72 80 103 123 111 111 84 113 162 212 239 235 231 206 89 56 46 52 66 
119 107 105 107 117 93 105 95 87 91 109 103 111 109 91 89 91 76 82 84 82 78 95 91 78 82 74 82 70 80 74 78 80 76 84 72 64 66 60 54 56 62 66 56 40 52 52 58 56 50 64 64 80 76 76 84 80 76 62 48 58 58 52 76 93 89 76 58 82 145 202 229 243 227 168 87 52 38 44 50 
113 87 119 101 99 97 99 74 93 89 95 105 103 111 87 99 87 74 97 91 72 76 89 80 80 84 87 80 72 74 62 78 74 74 70 66 62 60 58 60 50 64 64 50 54 42 52 60 52 44 62 46 70 84 68 72 93 78 62 44 44 58 35 91 93 95 48 35 70 141 200 231 245 221 141 74 48 33 46 56 
103 91 109 101 115 93 107 89 87 107 87 97 109 117 97 82 93 87 78 95 89 84 82 74 78 76 87 80 66 76 84 76 68 72 66 64 58 58 66 68 60 56 66 50 54 52 48 56 58 48 68 54 74 87 70 72 70 66 52 35 33 35 46 62 78 70 48 44 64 131 196 223 243 219 131 64 52 42 33 70 
109 91 117 101 127 93 119 82 80 78 105 101 115 125 101 84 82 76 99 99 82 84 84 91 87 91 91 74 72 78 82 76 74 76 76 76 62 68 62 60 52 48 62 48 44 48 56 48 52 54 58 50 80 76 84 72 74 60 58 42 35 50 56 60 64 58 40 23 56 137 194 212 231 202 113 58 50 33 35 70 
131 107 99 99 93 99 95 74 87 87 101 99 115 101 109 95 87 97 93 95 76 93 89 78 87 89 84 82 74 80 82 68 74 82 78 68 66 72 62 54 48 54 58 52 46 44 54 58 50 60 62 72 68 80 84 84 74 66 52 44 27 33 38 60 70 52 46 33 56 125 184 178 192 170 103 54 46 44 31 27 
117 97 107 99 101 95 93 89 80 78 109 107 111 113 103 101 95 97 87 89 80 74 93 82 89 78 87 89 91 84 74 76 74 84 60 70 74 78 70 66 52 72 58 46 52 54 70 54 58 64 68 64 78 84 76 93 84 66 38 29 42 23 38 62 52 64 29 33 56 117 174 152 149 143 97 52 50 42 46 52 
123 99 101 111 109 105 84 87 74 89 97 109 111 105 97 99 82 87 89 87 78 72 89 78 87 84 78 87 66 87 70 72 78 68 70 66 64 66 66 50 52 60 58 58 52 52 50 48 52 54 66 56 70 80 82 70 78 60 50 33 31 35 40 50 46 48 42 44 56 107 164 170 133 107 80 58 52 40 48 58 
105 93 95 97 105 105 99 91 78 78 91 95 97 97 109 99 89 89 82 80 72 70 80 82 84 82 93 95 84 80 82 78 64 74 76 62 64 68 64 58 50 56 60 58 44 38 38 62 54 82 62 54 68 78 76 82 72 56 35 27 35 40 44 66 66 42 33 44 68 111 162 143 111 99 95 58 50 44 44 62 
111 95 113 99 111 123 97 84 87 89 103 111 127 117 107 91 70 93 82 91 72 70 78 91 84 93 91 84 82 76 82 70 82 80 78 64 54 64 60 46 58 62 58 50 44 35 50 58 54 56 70 64 66 76 64 74 64 60 52 35 29 44 58 54 68 46 42 38 60 121 168 168 125 107 78 60 52 31 48 66 
123 103 105 103 103 111 93 76 101 80 101 105 119 93 95 91 89 93 80 87 80 80 97 93 76 89 103 78 82 97 105 91 89 78 80 74 62 80 70 74 72 74 72 68 52 64 70 74 60 70 72 60 89 87 105 101 91 80 60 60 66 70 58 72 76 74 60 68 97 115 198 174 152 107 111 58 70 46 44 76 


