P2
80 60
516
86 102 88 90 84 64 88 90 104 108 90 84 90 86 78 96 88 86 82 70 68 70 52 68 58 52 56 58 48 50 34 24 30 32 14 26 26 34 36 38 34 42 38 30 38 30 22 28 38 52 38 46 28 54 44 54 66 58 66 70 58 62 84 70 64 52 44 52 48 56 56 40 56 34 40 52 46 36 48 30 
78 92 70 84 72 70 88 86 68 82 86 86 82 78 78 78 74 74 54 62 68 62 58 54 52 44 68 52 54 38 32 28 30 18 24 30 24 44 42 56 42 36 48 40 48 30 32 30 42 52 46 40 46 52 50 60 52 62 66 62 60 74 58 58 46 60 62 42 30 56 42 32 50 22 46 46 46 40 38 42 
78 90 88 96 94 74 80 90 82 82 78 84 74 76 84 76 62 76 72 74 62 74 66 64 58 58 56 64 56 50 44 34 30 26 34 38 54 50 52 54 52 58 64 56 46 32 32 44 48 54 50 46 58 76 68 64 74 82 76 56 70 62 84 78 60 68 70 68 70 70 62 76 56 56 50 48 66 52 24 40 
80 76 84 88 68 74 80 96 80 82 76 92 78 66 84 66 70 70 68 70 78 64 66 74 64 64 68 62 60 52 46 56 42 42 50 42 50 44 48 54 48 52 56 56 48 42 34 38 48 74 64 56 54 56 78 68 74 78 90 66 70 72 66 72 50 62 70 64 56 54 60 70 76 46 48 52 46 56 54 40 
84 88 76 80 80 74 84 104 88 68 88 90 86 78 84 102 68 90 72 78 66 70 70 66 62 74 58 72 64 70 58 44 46 62 58 56 60 50 64 62 54 58 64 48 52 56 54 54 54 66 58 66 64 68 72 76 78 72 84 74 72 64 58 76 52 74 66 64 48 66 64 74 70 70 58 64 74 54 58 46 
74 84 76 78 76 76 96 94 80 90 94 102 106 92 94 76 80 88 76 80 74 76 74 78 64 78 70 72 68 66 64 54 48 60 64 58 54 64 64 72 58 70 68 62 56 60 52 58 54 66 70 72 64 56 70 86 82 80 88 72 74 78 76 74 64 62 66 76 66 74 72 74 66 66 58 70 74 66 66 48 
78 76 88 84 94 98 90 94 94 90 100 88 104 90 94 90 82 94 80 78 90 90 70 66 78 74 74 84 72 78 72 62 54 62 70 74 72 74 68 72 70 76 58 58 68 56 58 58 62 64 68 74 56 66 72 84 84 80 80 78 78 82 70 80 64 70 74 70 66 76 82 76 74 66 68 78 76 74 70 52 
84 86 92 84 102 84 76 92 80 96 92 72 92 96 84 102 72 82 74 78 98 72 70 74 78 88 80 70 74 78 82 68 66 60 66 62 80 72 74 76 66 82 72 62 66 66 48 60 70 62 74 72 66 70 74 82 90 74 78 86 78 90 88 84 88 76 76 66 58 80 78 74 78 62 68 80 72 68 62 60 
62 80 82 88 78 96 82 106 92 92 80 98 94 84 92 82 82 80 68 82 80 78 78 82 72 84 88 76 80 86 70 56 62 56 70 68 66 68 66 66 66 64 82 66 58 64 42 64 64 62 74 66 80 78 78 68 86 84 74 78 74 72 82 84 72 64 70 82 68 84 78 72 70 58 68 70 68 70 58 56 
82 86 96 88 94 100 86 90 88 102 94 96 100 84 84 94 78 88 80 84 84 80 80 74 74 80 72 66 84 72 70 52 60 62 66 72 80 70 56 74 76 74 76 68 54 58 68 68 62 74 72 68 68 70 66 72 76 80 86 72 76 76 80 72 80 74 78 60 74 72 72 76 78 82 76 74 78 78 62 58 
74 84 94 86 92 90 76 94 84 88 82 82 90 88 88 98 88 94 80 80 76 86 86 78 62 86 86 76 76 72 72 76 64 68 84 78 74 72 70 84 72 72 82 74 68 72 62 64 72 74 58 68 68 62 74 72 80 84 84 68 74 76 70 78 82 62 62 62 68 60 80 76 86 90 78 66 72 82 64 40 
82 94 90 86 86 96 100 96 82 82 90 90 90 88 92 88 88 76 82 72 90 82 84 80 72 78 92 74 80 82 76 72 66 60 72 78 78 80 76 76 78 76 82 74 78 70 66 58 76 70 68 62 66 62 62 60 74 86 74 70 70 68 68 72 62 76 68 72 66 72 80 70 92 74 80 72 64 74 64 62 
80 88 94 78 94 98 86 100 88 84 80 88 78 82 76 86 88 88 90 86 82 80 82 76 74 66 74 70 74 78 68 72 66 66 82 82 86 76 86 86 98 82 68 74 84 74 52 60 66 76 78 62 70 70 72 70 80 86 80 54 78 64 68 50 70 54 78 66 76 76 66 86 74 78 54 64 68 80 70 50 
86 94 96 88 74 86 90 104 84 92 88 80 92 80 86 80 92 92 80 80 88 84 76 74 66 74 70 80 80 80 70 64 70 60 60 78 82 94 86 96 96 88 94 108 98 90 78 76 86 86 92 78 70 76 80 78 86 80 80 72 76 86 76 64 68 66 80 76 90 86 84 74 88 80 74 74 78 60 60 50 
82 88 96 92 96 94 88 76 74 84 74 80 84 84 72 84 78 84 70 70 74 88 78 78 64 84 72 76 86 70 80 76 70 86 88 94 94 96 100 102 102 94 96 112 110 110 86 82 86 88 90 84 88 74 76 90 84 98 92 84 94 72 70 72 78 82 90 82 102 98 86 88 88 76 80 78 80 72 68 66 
90 100 76 80 84 92 78 88 74 88 82 72 84 76 80 78 78 86 92 86 76 76 86 80 64 76 74 86 82 70 78 74 86 100 106 110 108 110 112 120 102 100 98 102 122 114 100 96 94 94 88 88 94 90 88 100 96 90 100 84 98 82 86 92 92 78 86 86 102 88 92 98 86 80 84 68 92 72 76 66 
78 88 92 80 92 70 84 86 84 100 74 98 78 88 80 96 74 92 94 86 84 80 68 92 80 94 88 94 92 98 84 96 104 104 120 120 132 126 130 130 124 112 118 98 122 124 118 104 92 108 104 102 104 92 96 96 96 92 98 104 104 104 92 90 94 92 102 98 94 90 96 86 102 82 78 82 88 72 78 80 
66 100 88 94 76 82 100 88 86 100 84 86 90 92 90 76 92 94 94 106 88 78 84 86 86 96 102 100 94 110 90 92 104 116 128 134 154 138 161 195 228 222 169 128 116 118 104 120 118 122 108 100 116 104 102 100 102 98 88 98 104 94 92 98 104 94 108 100 100 108 104 104 100 100 98 98 92 88 84 80 
76 112 98 96 82 86 98 90 96 90 92 88 92 94 92 96 98 88 96 88 94 86 102 92 92 92 106 110 106 100 96 104 112 122 134 146 169 213 287 411 453 430 361 209 126 114 124 124 132 148 130 144 126 126 122 116 114 110 98 102 104 102 106 114 118 104 88 106 104 106 106 104 102 90 84 90 102 94 86 72 
80 92 86 76 98 90 92 82 86 84 84 94 94 80 86 102 76 94 94 80 92 84 90 92 104 96 94 98 104 114 102 106 116 130 158 193 252 310 380 472 499 459 393 281 126 124 120 134 130 144 140 138 132 122 116 108 110 104 108 94 90 100 110 106 110 100 114 104 106 92 116 106 96 104 98 96 100 100 92 98 
88 100 90 98 100 82 76 92 80 94 100 104 96 92 82 102 86 94 96 88 114 90 106 102 100 104 94 96 112 108 116 118 156 226 275 310 312 349 446 489 478 432 361 219 126 124 130 128 138 148 152 152 138 130 126 114 106 106 106 100 106 100 106 122 126 110 106 110 114 112 100 104 108 90 92 94 94 90 100 88 
88 92 96 88 90 86 82 92 86 94 78 98 90 92 92 94 90 88 98 94 108 94 80 94 106 96 104 116 114 124 134 158 264 324 314 326 347 374 432 465 440 393 234 144 112 118 124 126 128 134 140 142 144 126 136 136 124 126 132 140 134 132 136 142 128 120 106 98 112 108 102 108 112 92 102 98 94 108 108 98 
78 90 84 100 82 86 90 96 84 82 104 90 88 88 94 86 90 86 80 90 92 100 96 104 110 106 102 108 128 122 177 273 316 345 335 306 335 361 399 415 366 250 140 136 122 118 116 122 134 152 159 163 150 144 161 159 148 158 156 175 169 189 183 185 175 163 136 118 116 124 120 120 128 112 118 100 120 108 116 110 
88 90 84 90 98 94 92 102 84 88 96 88 106 92 92 100 86 90 92 96 106 108 100 108 100 118 104 104 126 144 254 312 312 293 246 273 345 359 349 302 215 177 146 161 187 191 189 197 201 209 189 213 175 158 181 159 163 132 159 175 161 173 185 203 195 165 163 126 173 177 201 228 275 271 244 224 181 152 130 132 
86 112 92 112 80 98 110 102 94 84 82 102 90 96 90 94 108 98 96 100 102 116 98 110 114 114 108 108 118 199 300 320 287 287 357 351 351 337 264 201 171 169 187 221 224 230 246 234 234 203 181 232 205 189 173 171 144 130 154 163 163 179 201 217 211 179 189 177 238 242 250 287 347 370 337 320 306 285 250 205 
78 98 84 98 90 96 104 98 94 96 96 88 86 96 88 96 100 102 92 102 112 128 144 146 165 142 122 132 142 215 295 297 291 341 388 361 337 273 197 185 175 179 189 199 193 221 211 224 230 193 167 191 177 181 191 189 181 159 177 183 189 207 219 230 219 201 203 193 240 240 268 277 353 361 345 326 326 330 314 279 
70 96 72 72 90 86 86 98 96 90 88 76 88 90 86 92 84 84 94 120 219 226 230 291 343 345 224 167 183 287 295 299 320 351 380 353 302 219 142 167 177 197 207 203 179 191 181 189 189 171 161 161 175 203 230 228 207 199 207 207 201 207 217 232 221 209 211 213 256 264 258 260 293 316 316 310 302 302 297 283 
76 88 80 90 80 72 82 96 84 92 82 84 76 80 94 82 96 94 98 193 318 326 399 459 495 469 399 388 417 339 312 320 324 335 345 337 260 138 120 179 230 248 252 217 191 195 187 197 183 161 154 154 181 209 240 242 224 226 203 207 207 209 224 226 222 205 209 213 260 246 248 260 269 281 281 271 264 254 254 213 
66 80 82 84 88 86 78 88 86 84 80 90 78 80 82 86 84 94 110 230 343 401 489 509 463 470 457 440 489 395 322 322 320 318 331 300 199 110 112 181 268 248 248 246 201 211 224 209 181 159 165 165 209 228 242 238 226 226 219 211 209 221 221 234 222 213 219 232 215 183 177 159 169 167 163 161 158 165 154 142 
76 74 88 92 86 86 70 92 88 86 94 76 84 80 76 70 84 92 116 273 374 489 516 489 347 424 465 453 499 390 291 341 331 318 308 266 177 94 110 215 271 252 230 215 205 207 219 222 183 148 165 167 201 213 248 250 234 242 246 254 248 268 248 252 250 242 252 246 240 207 189 185 185 193 213 222 238 244 234 224 
78 78 96 84 90 78 80 82 90 88 82 84 86 86 78 92 88 90 112 242 370 444 514 497 376 423 459 463 501 407 304 324 328 308 293 244 128 86 112 219 262 256 232 197 193 189 195 215 158 52 54 154 197 209 238 232 236 260 250 269 277 264 264 275 275 264 266 264 266 283 287 279 285 293 304 322 318 328 341 304 
82 84 78 80 92 86 82 94 84 84 92 76 82 88 86 94 94 100 102 165 275 324 423 476 415 446 428 438 461 368 293 328 302 300 277 199 132 78 126 238 262 248 234 222 203 199 193 213 158 96 50 146 173 211 217 221 236 252 260 256 271 258 262 246 260 262 246 250 248 283 285 285 289 306 328 328 339 343 326 310 
68 94 92 92 84 66 92 94 78 78 86 94 94 94 96 102 98 96 104 116 144 185 252 320 347 324 222 189 230 326 283 299 299 242 252 213 177 114 142 215 234 244 236 217 203 201 219 219 185 130 104 88 100 183 203 217 226 246 254 248 254 252 268 246 244 236 238 228 240 268 275 287 302 337 359 341 337 320 277 246 
80 94 96 82 86 88 80 86 82 88 82 86 96 94 88 90 92 92 102 96 112 132 128 122 114 118 126 116 150 254 281 266 287 254 262 258 252 197 163 187 205 217 221 195 189 207 230 215 175 146 116 62 0 94 165 197 207 226 240 230 230 211 213 209 209 193 187 193 213 254 277 277 316 312 318 302 256 203 150 122 
72 86 84 96 90 106 80 96 96 90 96 82 100 96 86 94 94 108 110 94 106 102 110 112 102 114 110 114 146 258 289 293 275 277 299 287 273 232 199 158 173 191 193 189 191 211 205 199 171 144 124 90 62 92 150 187 185 205 215 207 203 199 181 183 187 161 173 179 187 189 185 199 209 203 183 158 120 96 112 88 
78 84 94 96 98 82 92 92 94 92 88 86 102 106 96 94 100 104 100 94 102 100 96 104 110 110 110 116 136 203 300 268 246 246 224 217 240 242 205 187 163 177 207 191 197 215 187 177 154 148 154 116 132 134 167 189 181 167 171 165 158 161 171 152 167 152 154 146 156 138 136 126 130 114 92 114 104 82 88 112 
82 88 98 90 84 106 98 96 86 90 94 86 80 90 90 108 88 90 84 100 100 90 106 100 106 106 112 122 128 171 322 310 262 191 118 68 122 207 226 209 185 185 154 142 175 195 189 165 158 156 161 148 138 128 138 146 146 136 134 134 138 144 140 134 146 132 130 130 128 130 130 132 132 96 94 98 86 78 78 88 
74 84 98 102 88 88 92 96 82 82 80 86 90 84 96 96 86 90 100 96 98 104 96 100 108 100 102 110 116 152 250 318 295 248 118 32 52 118 205 224 183 146 130 128 132 142 136 146 140 138 154 152 118 104 86 86 96 118 120 108 108 110 120 118 116 106 114 116 130 124 126 118 108 108 90 96 94 96 98 78 
76 96 80 86 82 86 96 94 96 82 90 90 90 102 94 106 94 90 102 96 94 96 120 116 104 110 98 120 116 122 152 246 328 285 205 189 211 215 262 310 283 211 148 132 134 132 102 116 124 122 124 112 122 108 112 102 106 114 108 96 94 90 88 116 112 106 118 108 114 108 120 112 96 86 102 98 96 106 102 92 
78 94 96 94 106 88 78 94 86 98 86 76 88 88 98 96 88 96 92 100 96 94 98 98 92 106 100 110 112 116 126 140 171 273 285 260 266 230 240 395 413 405 349 256 171 138 104 122 126 120 128 126 112 114 108 106 110 92 100 94 84 104 100 104 106 104 100 106 100 116 126 108 94 86 96 88 90 118 88 80 
72 94 92 86 94 80 84 92 92 78 82 94 94 92 82 88 88 90 84 100 100 96 102 98 98 108 98 108 106 108 100 110 120 136 201 240 234 256 300 432 457 457 440 374 341 266 156 138 142 146 148 128 112 106 108 104 102 100 98 96 90 86 104 100 104 110 110 108 100 118 128 98 84 78 78 88 86 94 92 80 
84 88 76 86 96 78 86 92 96 88 76 78 90 70 94 90 90 90 88 72 92 78 98 88 104 94 98 104 98 102 100 90 104 100 124 156 187 236 195 266 378 446 421 399 395 378 314 215 154 163 152 152 124 108 94 86 106 84 96 90 74 90 82 98 90 96 100 110 88 108 100 90 72 62 80 84 78 94 92 86 
74 78 86 72 90 90 92 72 90 96 74 78 86 96 80 92 86 90 88 80 80 80 88 90 92 90 92 88 84 82 88 84 80 100 100 104 122 136 128 134 169 269 366 397 390 388 372 355 283 195 185 173 158 124 102 98 96 90 104 92 84 82 82 80 84 102 90 82 110 104 90 70 78 70 62 62 76 96 86 86 
70 90 84 82 80 80 92 80 82 80 82 86 90 86 72 82 78 82 84 86 86 82 70 88 86 92 96 86 90 78 80 84 72 92 86 92 98 108 102 96 98 120 173 266 345 353 343 361 349 335 304 287 285 266 209 100 106 88 90 84 72 72 62 86 64 74 78 84 78 72 74 62 56 64 72 74 96 88 80 90 
66 90 94 110 82 82 84 98 86 80 76 80 88 80 76 92 84 80 84 84 88 70 86 90 80 90 78 84 86 78 82 90 84 86 90 88 94 104 96 102 98 94 108 130 156 203 234 287 337 376 384 361 353 281 248 242 171 90 92 80 88 74 82 74 66 64 84 86 76 70 72 46 72 62 78 76 90 80 78 82 
68 88 92 102 86 94 90 102 80 86 86 74 82 86 72 86 84 96 78 90 78 72 78 88 88 76 86 96 96 98 104 106 102 104 100 104 102 108 90 94 94 96 96 122 132 158 175 199 226 269 312 320 324 300 264 211 104 90 78 70 82 72 84 76 74 74 80 82 84 68 76 64 68 62 70 76 78 88 86 90 
64 108 84 84 80 80 90 94 80 90 90 84 102 92 80 82 92 86 72 88 90 66 92 80 80 94 84 88 104 104 106 112 114 100 124 110 96 102 94 108 100 96 110 104 118 144 169 181 185 193 197 187 226 209 165 110 98 78 90 70 92 76 84 68 70 78 80 80 88 80 74 80 68 74 88 76 92 78 94 94 
74 88 90 76 88 106 82 96 86 94 90 98 92 90 82 96 86 88 102 94 88 96 80 82 84 92 96 94 94 108 102 110 104 104 116 104 96 92 96 102 84 96 110 118 128 144 152 154 156 154 144 140 136 126 100 86 90 90 86 82 76 84 78 80 88 82 74 82 84 72 60 74 88 82 86 88 76 78 84 62 
82 90 96 92 98 84 94 90 92 84 92 82 74 92 80 82 78 96 84 88 82 90 84 92 80 94 98 94 96 90 114 110 104 100 106 94 88 90 80 90 88 102 98 114 120 132 126 130 144 138 132 130 108 102 86 78 86 80 94 88 72 86 88 74 80 76 74 82 78 80 84 80 80 72 76 78 74 90 84 76 
80 88 86 88 82 90 88 90 90 86 88 100 74 82 80 74 84 84 88 78 80 80 80 86 72 82 90 88 96 96 106 94 90 90 98 92 90 88 80 92 88 86 94 114 110 116 114 104 116 120 106 112 100 84 84 80 88 88 82 86 72 74 74 70 70 80 78 86 76 84 84 84 82 74 80 84 88 86 88 80 
76 84 82 94 80 86 76 86 78 86 94 76 84 88 84 82 90 94 90 72 84 78 68 74 74 84 80 86 80 82 96 82 96 92 72 76 74 76 62 88 72 86 84 106 86 94 94 96 104 106 100 100 84 84 72 78 84 76 86 74 68 76 66 68 72 62 80 70 78 66 76 66 74 58 86 70 82 86 80 58 
78 76 88 80 96 92 80 104 94 92 82 86 96 82 92 92 84 96 96 68 72 82 86 86 70 80 72 84 98 76 68 80 80 68 74 86 72 70 82 66 64 70 78 80 78 86 76 80 86 90 90 98 80 74 60 74 72 82 78 68 70 78 66 78 70 84 66 68 68 82 74 74 68 70 84 100 88 92 80 70 
60 90 96 106 84 108 62 94 72 90 84 84 96 78 96 100 68 78 86 76 86 80 92 78 68 72 82 76 74 72 74 72 60 68 74 76 68 72 66 62 62 78 70 76 68 76 64 66 86 84 74 82 70 76 62 68 82 74 58 78 66 64 60 72 74 70 76 64 50 58 70 66 64 54 76 84 82 80 78 76 
74 98 84 88 88 92 78 92 70 80 82 82 84 78 90 100 98 82 82 78 86 80 86 82 82 82 74 72 68 62 58 64 58 56 56 62 56 64 66 62 66 72 66 60 66 72 60 64 62 68 70 74 56 66 66 66 78 66 70 80 64 78 76 58 64 56 62 66 58 70 72 66 78 60 80 102 84 92 92 90 
76 78 82 94 84 84 72 90 86 84 76 84 82 76 80 76 84 80 76 66 78 82 68 76 70 60 68 62 68 54 50 42 62 58 48 50 54 50 60 74 60 68 60 62 46 40 52 60 56 70 68 52 52 58 64 58 78 70 66 70 54 66 68 46 68 54 60 64 60 68 72 40 56 70 76 90 92 94 84 88 
68 78 74 74 62 66 64 84 68 82 60 76 76 74 82 70 72 76 72 58 72 78 70 50 66 56 66 64 58 54 62 46 44 42 44 46 58 56 54 74 58 60 62 60 54 46 38 50 38 44 52 62 50 62 62 56 70 58 58 58 52 58 46 58 56 54 60 62 54 56 52 50 56 74 92 98 86 84 84 72 
58 88 76 54 70 74 58 84 66 76 62 72 76 66 78 80 68 72 72 66 66 72 62 64 58 54 48 60 56 48 58 24 40 22 38 26 40 42 46 56 38 54 52 50 36 34 40 36 40 48 42 50 46 42 52 46 58 60 58 50 42 56 52 32 58 52 44 52 38 44 52 40 36 50 70 88 82 82 80 84 
64 66 82 54 62 68 72 70 62 74 88 58 70 70 70 74 74 78 62 48 50 64 62 60 68 52 58 58 52 48 28 30 40 24 20 30 28 32 36 46 46 38 28 38 48 38 28 34 36 36 30 44 32 40 52 48 58 48 50 54 32 30 46 44 42 38 36 40 46 30 40 26 38 68 78 86 74 88 84 68 
50 60 58 58 54 68 44 68 52 58 46 56 68 54 64 62 58 66 54 54 58 52 46 62 52 46 38 52 56 38 42 12 24 26 24 26 18 26 34 36 28 34 26 38 34 42 40 28 22 38 22 52 34 40 44 38 50 56 54 32 48 46 34 16 26 32 36 22 20 40 30 14 30 52 66 90 78 84 64 68 
68 58 64 70 50 60 52 90 70 56 50 42 68 70 54 68 68 66 66 62 50 56 52 50 60 44 48 54 54 52 30 28 26 32 38 38 26 34 34 48 32 40 36 58 46 54 30 36 46 46 42 42 28 46 48 54 62 58 68 74 64 58 52 40 44 24 32 24 20 36 26 28 46 58 72 82 70 80 80 56 


