P2
80 60
792
67 85 60 73 58 58 71 50 73 71 42 69 42 54 60 62 65 73 67 56 62 65 69 54 69 58 56 52 65 42 46 46 50 44 27 48 46 46 40 62 27 38 33 12 29 33 33 42 42 48 58 50 42 42 44 40 48 62 71 50 52 40 25 21 31 52 40 48 40 33 19 19 6 25 38 48 50 52 46 46 
65 56 65 83 58 62 73 50 60 65 65 62 58 54 54 77 73 60 67 56 65 71 60 56 48 50 52 58 65 56 50 60 50 44 44 56 54 35 46 46 19 33 35 17 31 27 33 40 40 42 48 52 31 46 38 52 52 56 67 52 38 40 23 23 19 42 44 44 40 35 35 15 12 12 35 40 52 40 50 48 
62 73 77 79 79 62 67 79 73 75 71 62 58 60 54 62 58 52 54 67 62 67 67 60 67 48 40 54 67 38 42 48 48 44 40 50 35 46 27 42 27 35 44 23 33 38 42 46 33 50 52 44 52 46 58 52 42 52 69 56 48 48 33 31 25 44 42 50 58 33 12 15 0 17 35 40 58 48 33 46 
71 65 71 77 81 65 85 67 69 75 56 67 62 58 60 75 56 60 75 65 67 67 65 54 52 56 54 62 71 54 52 50 58 40 35 40 38 48 50 46 40 46 50 23 25 42 29 44 48 42 46 62 48 56 38 38 60 71 60 46 50 58 40 31 29 42 44 52 42 27 10 10 21 19 35 44 46 40 44 56 
71 75 60 77 79 56 79 67 60 65 58 52 50 58 65 65 56 65 65 50 65 60 54 48 65 48 52 46 67 44 44 56 48 38 44 33 40 31 42 50 44 31 23 25 23 35 29 38 31 46 38 60 58 52 58 73 56 77 65 69 69 69 48 33 27 54 48 42 50 29 23 27 10 35 29 42 54 54 50 50 
77 79 67 83 67 62 81 58 81 77 56 52 46 62 62 58 69 67 75 60 58 71 62 56 56 56 42 48 60 54 56 52 48 46 44 60 46 44 38 54 44 38 40 27 25 35 29 54 48 54 42 54 52 62 73 77 75 77 83 79 73 65 46 40 25 40 46 54 42 23 31 21 27 29 31 52 56 42 40 42 
58 69 73 60 75 79 71 75 69 89 65 71 60 58 67 48 50 65 65 65 56 62 65 54 67 58 46 67 52 58 58 58 58 42 56 50 46 50 50 56 29 23 29 35 35 38 27 46 48 48 40 54 56 50 73 75 77 98 81 83 79 54 42 33 19 52 58 62 35 25 15 48 29 52 65 60 56 40 33 58 
71 60 65 71 79 91 75 81 85 79 62 77 73 62 65 69 62 65 73 71 67 69 79 56 60 67 56 65 75 56 48 48 50 48 58 50 52 42 50 46 48 46 42 46 46 58 31 52 48 48 62 52 54 62 73 79 87 79 93 73 75 73 48 31 23 44 65 52 44 33 31 21 17 38 35 69 52 58 42 50 
77 54 69 67 75 73 81 77 77 83 65 58 50 58 65 58 67 73 73 69 69 75 67 62 67 62 56 58 62 46 58 46 62 50 46 48 52 44 42 48 56 54 46 44 50 65 46 62 48 46 52 58 46 62 62 83 77 85 85 83 71 56 50 38 40 52 50 48 38 46 31 35 21 40 50 50 56 54 38 44 
73 81 67 73 79 75 81 73 77 87 77 71 58 65 62 81 87 67 71 75 69 67 69 65 81 73 60 69 71 56 62 50 58 52 65 54 60 65 52 56 62 52 38 60 69 73 56 75 52 62 58 38 58 69 65 52 73 75 79 79 81 69 56 42 29 56 73 52 50 42 40 42 29 23 38 46 69 60 46 52 
60 67 69 71 65 65 67 62 75 69 56 67 54 71 52 67 69 71 65 60 69 65 52 67 73 69 42 58 65 50 52 50 46 48 62 48 50 60 58 62 62 79 58 75 83 104 116 95 83 71 54 44 54 67 58 67 73 79 67 69 87 67 60 40 42 60 58 52 48 35 17 44 40 38 44 48 89 83 50 60 
71 75 81 73 77 60 83 83 65 75 81 73 67 62 69 62 56 67 83 69 79 65 75 62 67 60 50 65 79 52 52 46 58 52 73 85 83 79 106 108 144 169 147 209 264 385 415 373 214 85 58 60 62 67 60 60 69 79 85 87 100 87 95 81 60 73 71 58 56 58 40 44 44 23 56 56 81 71 58 56 
67 73 60 75 71 65 67 77 73 75 65 75 60 65 71 73 54 58 77 67 60 75 62 60 60 48 58 56 83 58 65 60 62 75 83 79 112 185 272 309 329 377 423 513 544 578 566 580 425 136 58 71 48 77 69 58 77 89 89 124 203 260 248 181 120 95 114 91 77 62 40 31 38 35 60 62 77 67 67 71 
83 79 67 73 71 62 81 75 58 77 67 67 56 67 60 50 71 62 62 62 60 69 71 62 52 71 56 69 89 56 58 89 95 144 230 323 365 399 437 419 411 487 572 586 564 592 576 586 531 222 89 71 60 75 75 71 81 102 147 293 399 363 333 301 283 285 224 205 163 140 93 62 62 54 67 54 75 83 85 81 
83 71 71 77 81 69 85 73 83 71 71 60 71 56 73 71 75 60 73 71 67 58 67 71 60 56 58 62 75 56 95 142 295 423 475 445 433 429 459 459 457 457 562 572 568 603 574 586 536 285 100 95 89 77 95 95 126 191 270 349 367 331 359 403 397 433 407 351 323 291 226 187 142 124 134 132 108 116 98 110 
77 73 67 62 65 69 77 75 71 85 73 56 62 77 69 67 77 75 79 67 73 71 75 71 69 65 62 71 81 81 177 427 501 477 481 463 439 453 451 485 477 497 574 603 609 639 615 599 548 309 165 153 187 209 242 222 270 297 281 287 297 357 407 429 433 453 425 407 399 333 279 250 218 216 216 199 181 165 144 175 
67 67 69 77 73 58 81 67 79 81 67 62 75 75 75 73 89 54 75 71 79 79 71 71 73 69 58 71 87 132 395 548 531 461 449 433 461 457 485 489 505 560 607 643 668 693 660 609 491 419 357 373 405 363 317 313 333 317 303 295 315 335 389 399 429 441 449 423 401 351 295 268 256 244 242 228 203 201 220 199 
79 71 62 65 75 56 71 67 65 81 71 54 67 62 75 75 81 91 73 71 73 81 79 58 83 73 73 75 104 214 511 544 485 451 451 443 467 449 453 455 437 546 668 691 701 712 695 648 481 455 423 443 431 347 331 313 299 299 309 287 285 295 319 349 375 409 421 417 381 345 309 272 242 256 250 228 203 197 212 220 
71 67 69 65 75 60 85 69 69 75 71 67 52 71 79 89 100 85 98 77 87 85 89 67 83 79 69 93 116 317 554 519 473 451 447 463 481 465 479 441 487 633 705 683 697 714 685 625 441 457 423 439 409 347 345 309 301 313 289 266 244 283 285 305 331 357 345 339 337 311 285 264 252 266 268 244 205 195 201 195 
75 73 79 73 77 60 81 73 89 69 83 85 56 79 93 110 122 136 147 128 116 120 114 95 93 81 77 104 153 377 536 517 493 461 479 469 461 449 427 403 461 519 584 643 654 712 699 576 425 425 427 403 385 337 325 307 295 281 272 250 248 279 291 268 274 295 299 279 293 264 268 254 295 305 305 246 203 199 187 181 
73 81 65 95 77 71 77 81 85 85 73 79 69 75 116 209 309 361 411 399 345 367 315 222 155 128 116 173 323 353 433 515 523 501 491 457 447 417 395 399 417 447 527 637 664 706 613 473 401 409 407 359 351 345 331 315 285 281 272 258 240 291 295 295 272 274 285 260 285 260 268 295 337 347 283 244 207 195 179 181 
77 65 75 67 102 65 93 71 83 83 75 69 83 110 205 351 503 554 660 644 646 662 627 605 515 393 256 433 560 457 423 499 507 471 469 427 419 419 405 425 435 461 463 523 617 588 469 467 407 385 377 349 345 349 323 321 285 281 258 258 260 313 301 301 266 272 260 266 266 274 274 293 339 379 351 283 201 195 175 177 
79 69 62 73 67 73 77 69 77 87 71 87 108 153 260 347 594 720 726 710 699 741 720 697 689 683 556 633 732 687 515 491 493 445 409 399 387 413 425 443 431 439 497 568 586 505 469 445 395 379 361 361 365 365 337 317 287 254 258 256 270 335 351 345 335 317 289 256 258 272 289 293 325 391 397 343 220 199 183 187 
77 69 65 62 79 65 73 79 83 83 83 83 134 228 287 339 625 772 772 743 745 736 730 718 689 734 637 658 755 716 670 499 465 377 317 305 337 391 423 429 441 447 503 599 613 527 433 405 383 359 351 381 367 361 339 305 272 262 260 260 266 375 401 403 375 353 317 270 252 268 287 305 301 319 337 327 216 193 201 189 
69 77 75 93 77 62 75 81 73 67 83 83 142 248 303 351 613 784 792 761 757 753 741 716 685 718 685 648 776 722 666 542 399 323 293 297 335 415 423 449 542 477 533 607 656 590 441 413 359 355 347 373 339 341 315 272 248 244 252 270 274 355 403 375 355 331 301 272 262 270 309 351 333 311 289 262 193 195 179 189 
81 65 79 77 77 77 83 75 81 79 81 91 136 246 309 339 625 749 751 736 759 774 765 730 720 718 685 670 776 699 619 473 365 335 317 311 371 421 419 447 623 568 544 615 641 609 481 425 373 355 347 349 343 341 297 262 266 266 262 256 270 337 349 363 349 325 309 270 266 260 301 349 345 254 209 189 187 193 173 205 
71 79 65 52 77 58 81 67 71 77 69 69 110 226 291 373 576 706 716 679 726 759 739 743 724 739 683 718 768 586 397 377 393 411 433 427 403 393 415 457 611 621 570 554 623 627 519 411 349 355 337 337 331 319 295 281 270 258 250 250 266 319 347 335 327 325 303 287 279 268 307 351 268 212 153 142 185 197 181 199 
77 71 71 71 71 67 79 67 75 75 77 58 79 179 260 329 453 637 718 699 695 683 712 716 685 674 674 743 714 433 365 441 445 441 431 409 411 403 409 441 597 627 558 507 588 586 531 407 343 339 361 363 349 327 301 279 258 240 240 244 248 301 317 301 313 325 313 317 309 295 309 365 353 323 315 264 195 185 187 205 
81 77 71 62 71 62 62 52 60 83 81 79 77 134 205 291 337 471 588 668 656 654 650 605 550 525 633 685 568 391 457 523 529 499 483 449 417 393 389 439 578 613 570 542 568 552 509 415 365 397 413 409 373 359 321 291 260 207 216 228 246 297 297 315 301 325 321 335 339 339 343 357 391 395 375 341 203 205 185 185 
69 62 75 75 77 60 65 69 69 79 71 87 75 83 120 205 266 363 433 479 523 552 457 240 181 165 307 411 355 385 505 558 548 523 507 477 443 419 401 427 570 635 627 550 584 570 481 433 403 439 435 411 373 357 323 291 250 218 220 236 256 266 283 283 295 311 321 319 363 341 349 365 389 405 417 363 224 193 199 203 
62 65 71 75 75 71 60 62 69 79 73 71 69 75 79 104 122 155 171 175 207 199 126 91 104 108 120 209 423 534 540 540 534 525 513 501 491 453 407 413 536 633 629 617 617 544 453 457 431 431 399 389 373 349 303 266 246 226 224 232 238 252 250 268 281 303 297 321 347 341 355 365 399 425 443 371 214 195 189 214 
65 65 67 65 75 58 71 62 71 85 67 71 69 60 77 77 85 77 87 100 98 85 83 79 75 89 69 122 385 562 548 531 519 521 511 501 503 467 409 403 461 644 635 644 615 529 465 451 441 419 397 361 339 303 283 246 252 242 234 248 244 264 272 270 262 297 311 301 339 339 349 359 373 419 439 365 203 179 187 203 
56 67 65 75 58 56 58 69 75 73 67 69 58 60 71 62 71 71 85 79 62 73 81 69 79 77 58 108 274 566 550 527 509 511 509 477 497 425 403 387 461 613 623 641 619 544 481 453 433 415 381 341 327 283 258 252 240 238 228 234 238 272 268 268 264 287 303 297 315 321 329 331 357 397 409 353 193 187 163 185 
69 65 75 62 69 60 65 73 81 75 87 81 56 67 67 79 81 73 71 73 73 73 73 71 81 73 67 83 185 542 540 493 491 485 489 469 501 421 413 415 447 609 629 650 650 592 497 445 421 405 371 337 301 283 283 254 250 222 203 226 238 270 258 258 260 291 299 279 305 311 317 319 323 353 393 357 195 199 165 193 
56 77 56 77 77 65 67 75 77 100 81 81 60 67 62 77 73 69 79 71 69 81 71 67 65 71 77 81 161 505 511 471 467 449 453 439 473 435 443 437 477 566 621 641 654 639 467 431 339 367 361 333 301 287 268 244 216 195 203 199 228 242 242 240 246 270 283 270 279 277 291 305 315 309 351 327 185 175 157 185 
67 81 77 71 83 58 73 58 75 75 77 75 71 75 60 75 79 75 87 75 71 91 69 65 71 81 60 85 124 419 531 459 455 425 439 451 467 477 536 548 533 556 576 641 656 652 523 317 234 242 242 260 268 268 230 214 205 207 197 185 216 224 207 214 228 238 248 254 266 268 277 266 277 287 319 295 171 155 126 138 
62 67 77 67 75 60 60 77 75 83 89 77 60 71 71 77 56 54 69 71 67 54 71 62 69 75 58 91 93 238 475 489 471 451 453 461 479 517 586 627 594 564 584 623 666 666 615 373 106 98 77 104 108 116 95 98 149 177 155 161 173 181 165 171 185 199 203 216 230 228 232 226 252 260 291 244 155 116 75 108 
77 73 60 62 85 58 75 89 69 91 77 91 69 71 75 62 62 62 71 71 75 54 73 71 65 60 50 73 85 110 291 481 495 487 455 447 479 544 540 644 633 639 613 648 685 687 656 548 120 83 67 91 102 112 91 102 120 116 130 144 157 149 147 126 122 155 169 163 167 177 165 173 169 197 212 157 116 114 95 102 
89 81 67 75 67 71 77 69 77 81 77 83 65 71 56 81 77 54 71 65 58 71 69 71 65 65 56 73 73 91 100 236 453 521 509 465 481 499 562 650 646 644 631 679 703 691 660 592 195 83 73 91 95 114 116 116 134 126 140 159 151 151 140 112 104 108 114 138 140 112 77 85 81 67 81 85 120 110 83 91 
75 81 65 81 69 69 67 75 67 77 73 91 75 60 69 67 52 60 71 54 58 75 83 67 69 62 48 81 58 75 65 79 173 315 407 405 419 421 529 629 643 633 621 666 697 699 660 631 244 69 54 71 108 110 114 122 128 142 142 161 167 151 144 124 91 110 118 128 157 122 89 69 54 52 60 67 98 85 77 98 
67 83 73 73 73 73 77 60 65 71 89 69 67 85 69 69 62 50 54 54 65 52 67 54 56 58 58 73 69 58 58 85 79 102 144 187 283 353 479 582 588 590 609 658 701 697 664 641 242 77 48 62 85 110 102 126 136 155 132 157 179 177 153 108 106 120 106 120 144 120 102 79 56 48 62 69 91 83 71 89 
75 69 73 60 71 58 62 69 67 81 73 69 65 77 60 65 65 56 60 75 62 65 69 62 58 69 58 71 65 65 54 58 54 65 77 62 75 112 264 375 459 513 546 613 677 697 670 619 205 87 60 75 89 108 120 120 138 153 153 177 183 177 155 136 114 118 85 98 116 73 85 54 46 46 62 67 79 79 65 89 
73 79 67 75 73 65 69 60 71 62 75 81 65 71 60 71 60 62 60 62 50 62 52 54 60 58 56 60 67 62 44 58 62 71 69 52 60 71 98 112 147 226 317 449 542 594 548 353 100 65 48 67 77 116 120 128 144 155 169 181 216 236 220 195 187 167 116 93 104 81 65 58 52 46 56 73 79 104 60 89 
73 77 71 69 67 69 67 79 75 71 58 77 75 67 48 71 69 71 60 52 67 62 62 65 62 58 44 65 60 54 52 50 62 62 56 44 54 62 75 67 50 73 89 114 157 189 163 153 56 69 62 60 81 118 140 147 159 173 163 173 228 248 228 218 203 161 124 110 104 73 73 62 46 48 54 73 81 83 52 93 
77 75 75 73 81 67 67 65 65 77 73 95 71 65 67 79 67 52 75 65 52 56 67 60 62 60 46 65 67 62 48 60 52 69 75 38 40 50 56 52 42 52 40 48 56 89 58 54 52 42 60 62 85 140 159 153 159 167 171 167 218 248 201 199 175 140 136 110 110 89 77 73 71 67 62 85 89 79 54 75 
75 85 50 73 73 65 77 67 73 77 65 83 73 60 65 75 58 60 60 69 56 50 62 52 65 54 62 52 62 50 48 46 48 50 62 31 29 65 40 56 38 35 42 48 44 54 50 58 42 56 48 58 73 142 171 173 179 173 179 171 199 203 195 177 151 142 136 136 142 118 100 98 91 83 71 89 87 83 48 44 
69 62 58 81 73 65 69 69 69 69 73 85 77 71 58 67 67 58 65 65 69 62 73 54 73 52 50 52 56 48 48 46 48 50 50 42 44 54 48 48 42 46 33 44 40 50 31 46 56 50 48 54 65 134 161 173 175 181 189 161 161 169 175 157 165 167 157 140 157 163 130 126 130 100 104 93 89 73 31 44 
85 58 73 67 62 62 79 85 73 71 69 83 83 73 60 69 75 52 58 58 69 69 58 56 54 65 44 62 60 48 54 44 50 56 58 42 38 54 44 38 40 35 42 25 27 46 38 42 33 52 46 54 58 118 140 159 167 169 169 155 163 167 173 173 163 177 165 165 169 155 142 130 126 126 106 110 83 75 40 54 
81 73 67 71 65 62 67 54 75 79 52 91 58 73 71 62 83 42 71 60 65 60 67 54 56 56 50 54 69 46 44 46 46 56 54 56 42 48 33 44 33 29 44 31 35 44 23 50 44 46 52 56 48 95 124 130 144 140 153 147 147 163 167 163 153 155 165 153 157 167 138 138 142 116 120 106 79 81 35 58 
65 71 58 65 65 58 71 67 58 69 60 93 73 73 56 62 77 58 62 56 48 54 54 48 52 52 46 58 69 48 52 48 42 42 46 42 35 48 33 31 33 23 40 33 27 29 29 46 35 25 44 50 48 81 106 91 91 102 104 106 114 110 134 134 132 122 114 85 100 122 134 126 116 116 112 67 58 67 33 54 
67 71 73 81 62 62 69 54 60 65 71 79 77 79 58 62 60 50 60 52 62 60 62 46 48 52 52 54 67 46 42 31 42 50 46 46 35 38 23 35 33 29 35 25 33 46 27 35 23 38 42 62 50 65 60 50 60 67 75 89 75 73 71 83 100 93 79 56 79 118 110 116 114 114 100 60 56 48 46 62 
67 65 69 67 62 60 67 60 60 69 65 77 65 73 71 87 44 58 58 60 67 60 60 60 65 58 50 50 60 42 31 50 38 33 40 29 31 38 27 29 4 25 21 17 27 33 25 44 44 31 31 44 48 56 50 48 52 52 77 58 67 56 42 71 81 93 79 52 71 91 112 124 126 112 108 67 52 44 29 67 
67 71 46 58 69 69 62 52 62 60 71 65 87 69 71 65 44 65 58 60 56 58 65 54 69 44 48 58 67 38 42 40 58 52 29 42 23 48 46 29 19 33 10 12 27 42 21 48 38 42 29 38 46 56 46 50 54 65 62 58 52 62 42 79 85 100 71 67 71 87 110 118 132 130 79 71 50 42 23 50 
83 73 67 87 89 77 89 69 65 69 75 73 83 79 69 62 62 73 75 73 60 60 65 58 62 54 54 52 69 48 46 48 54 44 48 17 23 42 31 27 33 19 15 10 38 35 29 44 29 46 46 44 52 48 50 54 65 58 67 65 52 54 56 75 77 73 67 62 69 106 124 112 142 114 75 52 48 46 35 35 
71 79 81 60 60 65 62 50 60 60 58 71 87 83 69 65 62 52 67 69 58 75 71 50 67 48 56 46 62 38 33 62 50 46 46 31 27 40 25 42 29 19 29 12 25 38 35 42 31 35 35 44 54 42 54 50 50 60 69 75 50 54 50 75 85 89 60 48 60 106 122 116 124 108 75 52 56 50 33 48 
81 60 65 71 60 62 73 60 44 69 56 75 75 73 65 67 67 60 56 52 65 50 60 56 60 38 62 48 58 46 35 42 48 44 42 35 23 35 27 42 29 29 19 23 21 35 19 23 29 29 27 48 52 48 58 48 62 65 60 62 50 44 40 71 75 81 48 52 65 95 108 138 126 114 77 42 33 44 42 46 
81 79 73 73 71 40 71 71 48 69 52 69 75 69 75 73 73 71 67 71 54 56 56 46 46 52 60 50 65 50 44 48 42 38 35 31 19 38 31 40 21 29 19 27 35 31 29 31 25 35 33 38 56 48 54 44 56 56 54 58 52 46 52 71 83 69 56 65 85 87 102 126 118 87 71 54 48 40 40 52 
65 69 69 69 62 56 67 50 50 62 60 60 65 67 67 71 77 42 44 54 50 52 73 52 56 46 52 50 56 33 44 42 40 38 35 21 29 29 29 42 17 15 17 17 27 25 21 40 38 21 33 46 38 44 42 35 48 56 62 62 48 48 33 58 60 58 50 58 69 108 91 128 108 69 62 48 48 46 38 40 
75 91 65 71 75 79 77 56 67 62 71 85 75 79 77 62 77 54 56 65 60 81 69 50 58 60 56 60 73 46 46 50 67 48 46 38 27 35 33 44 42 31 35 25 33 31 15 38 35 38 25 50 50 38 54 58 62 71 85 71 65 52 54 58 65 77 62 44 56 93 106 126 118 106 69 58 58 27 50 50 
65 81 65 85 81 75 77 69 67 69 71 77 79 87 100 71 73 56 52 69 58 60 54 62 75 67 67 71 93 67 87 102 95 79 81 79 81 75 79 85 73 69 69 52 62 75 48 52 54 42 42 60 75 52 71 77 91 87 95 102 93 104 85 81 106 104 89 87 104 118 136 153 126 100 65 54 71 54 44 60 


