P2
80 60
507
76 86 72 70 74 52 78 76 84 78 78 82 78 72 54 80 78 68 46 62 56 52 46 48 42 38 38 38 32 30 26 14 20 24 16 22 10 12 18 26 14 14 22 8 26 12 14 12 20 20 14 36 30 46 46 48 56 50 50 56 52 44 60 56 48 24 28 46 46 40 32 34 50 36 22 28 32 18 32 28 
62 68 60 72 60 66 62 74 60 70 88 72 72 60 62 78 62 64 42 52 56 50 40 40 38 24 42 34 34 26 26 14 18 10 20 18 4 24 34 26 28 12 28 14 16 12 22 16 22 24 22 28 40 38 54 52 46 46 54 42 50 54 40 30 36 34 40 44 34 36 38 34 52 20 34 36 38 28 30 18 
54 68 58 82 80 66 70 76 74 80 78 70 66 58 82 66 52 56 60 66 40 66 52 50 48 38 34 58 44 32 34 26 30 16 30 34 38 28 34 34 26 32 42 36 28 20 24 34 26 24 28 36 54 62 58 58 54 56 46 52 48 42 50 46 46 44 40 62 46 36 56 56 32 54 40 26 44 28 34 30 
50 70 60 92 72 72 74 74 68 66 62 76 56 54 60 60 60 60 62 56 58 56 46 56 54 50 58 50 46 42 38 42 38 32 48 40 38 36 44 30 26 32 48 28 32 20 34 18 32 32 30 40 52 40 62 60 64 64 66 50 64 60 50 58 36 38 58 48 36 36 44 58 46 38 44 38 40 38 40 42 
66 76 50 78 76 68 78 80 66 56 78 82 78 68 68 84 62 72 52 66 52 52 48 48 50 62 42 62 58 54 42 36 32 48 60 60 48 40 60 50 38 38 42 26 30 48 46 40 42 34 36 58 54 60 66 66 60 60 66 60 58 50 48 58 44 54 54 56 40 40 48 60 62 54 58 44 58 32 50 38 
54 68 54 74 64 52 80 72 66 76 74 74 86 78 80 70 70 68 58 62 56 58 54 54 58 58 64 62 46 58 50 44 50 52 50 50 42 52 46 50 48 54 48 44 40 44 42 36 38 34 38 62 60 56 64 76 80 70 66 58 60 52 52 56 58 46 54 68 56 48 62 68 48 52 48 54 54 42 54 34 
58 56 70 66 78 84 62 68 70 82 78 76 86 70 82 76 62 80 64 68 68 70 62 50 62 54 46 64 60 60 54 46 38 52 48 62 48 56 56 58 52 60 46 46 46 46 48 42 32 40 42 54 46 56 68 74 68 56 64 58 58 60 52 58 50 66 54 54 62 68 70 66 52 54 62 64 60 56 40 34 
56 68 70 80 98 76 56 78 64 82 76 68 76 82 74 86 72 72 60 72 82 60 54 58 56 68 64 54 60 62 64 58 52 50 54 48 62 56 54 54 54 58 48 46 52 56 46 48 50 44 54 64 62 60 70 74 76 62 64 76 64 74 62 62 80 86 62 64 54 56 52 74 68 54 72 74 50 46 52 46 
52 62 64 84 74 78 68 80 74 78 66 84 78 74 78 80 84 68 56 74 60 68 62 62 58 62 80 74 64 68 58 54 54 64 62 68 58 52 54 46 62 42 54 50 50 48 40 42 36 34 56 62 66 70 66 70 72 72 64 70 68 58 66 66 64 70 56 62 56 60 60 70 54 56 68 76 64 60 54 36 
48 70 72 72 74 86 70 82 76 82 82 86 88 70 70 80 68 68 74 80 70 76 70 62 60 56 46 60 80 54 54 46 44 58 62 60 70 60 56 62 72 54 58 42 38 44 50 58 48 38 50 52 52 50 64 58 64 62 74 56 58 60 62 62 68 66 58 50 70 52 62 74 74 68 58 66 62 56 50 58 
58 66 76 82 84 82 60 72 72 72 64 78 76 74 82 90 82 78 68 72 76 76 66 68 54 70 74 72 64 60 62 68 56 54 60 72 60 64 58 66 66 52 54 46 46 58 56 48 54 50 40 50 60 52 64 60 70 72 56 52 60 60 60 50 64 54 66 58 64 46 68 66 66 74 70 60 64 54 54 30 
64 76 78 62 70 88 92 84 66 72 74 80 76 70 82 78 78 68 74 72 84 78 72 68 60 68 74 62 66 66 66 64 60 68 68 72 68 66 64 54 70 50 62 56 68 64 58 38 62 44 52 58 56 56 66 64 74 72 64 56 66 58 52 52 54 60 60 66 60 64 62 68 72 70 80 64 60 52 58 42 
50 68 80 58 94 82 66 82 76 72 74 78 70 70 66 68 74 80 68 70 64 72 58 68 60 56 68 60 70 66 56 58 62 54 70 76 78 58 78 78 82 64 62 58 68 72 50 52 46 52 58 56 56 62 70 58 62 64 68 52 68 50 42 40 42 52 66 58 64 68 50 78 72 76 62 68 52 62 58 46 
62 80 74 66 68 74 78 80 66 74 76 70 72 66 70 64 76 72 72 72 80 74 72 60 54 64 64 60 68 68 58 60 66 46 66 76 78 78 94 84 90 70 66 86 94 82 70 64 66 54 70 64 60 70 68 72 82 66 64 66 60 62 64 48 58 56 68 78 68 68 60 76 80 72 74 58 70 48 48 56 
58 74 80 80 82 82 72 72 66 72 70 72 66 72 68 72 68 70 64 64 58 76 60 60 54 62 56 66 66 60 80 68 70 70 78 110 116 98 108 108 92 80 84 88 96 96 86 64 72 60 70 74 68 70 78 76 68 74 78 72 68 68 58 64 62 84 82 76 84 76 70 80 80 76 82 72 70 54 52 48 
64 86 72 78 74 80 76 78 62 76 60 70 76 64 66 66 60 72 80 70 76 66 60 60 60 66 60 72 74 64 70 68 74 98 98 114 128 106 102 112 86 80 86 96 110 104 96 80 78 66 68 78 78 76 76 88 86 82 82 78 84 70 72 74 82 78 80 72 90 76 82 84 76 72 76 52 72 64 56 56 
48 76 82 72 88 62 72 82 72 86 62 86 70 68 72 84 78 60 72 76 74 72 58 74 72 76 76 84 86 86 78 86 96 94 116 112 120 124 130 124 94 84 100 84 104 116 112 94 74 86 82 94 102 82 94 92 92 80 88 88 88 84 80 74 90 76 92 86 76 70 82 90 90 80 68 72 78 62 54 42 
58 90 70 78 70 72 76 78 68 80 66 74 78 84 86 78 90 84 86 92 82 76 66 68 72 80 90 88 82 88 92 84 102 122 126 128 146 148 173 205 132 112 110 98 100 120 110 106 100 104 94 102 108 92 98 100 94 90 82 90 96 78 88 80 92 92 100 96 90 92 86 104 86 88 92 98 76 68 70 62 
50 88 82 80 78 66 78 80 76 72 78 70 82 74 82 80 84 80 84 76 78 76 82 80 80 84 90 102 102 92 96 100 114 120 154 173 199 252 274 293 223 156 156 168 169 142 134 102 110 118 112 120 116 120 112 104 104 94 86 80 88 88 94 98 110 96 80 102 90 80 82 100 90 92 76 76 78 78 92 72 
56 78 68 70 88 82 80 70 62 74 78 94 80 78 74 88 70 84 82 74 82 76 82 72 90 84 86 98 94 110 98 106 120 150 232 295 310 309 320 318 363 353 365 386 372 293 189 128 118 128 120 134 128 118 120 108 102 86 96 90 78 92 92 94 100 88 102 94 90 80 100 98 90 92 88 76 88 82 80 80 
72 84 74 86 90 74 68 96 68 70 76 88 82 82 70 88 88 88 88 86 98 90 88 90 84 94 96 100 104 102 106 114 162 297 402 376 345 341 338 320 369 390 405 433 452 444 359 193 136 130 132 136 122 134 128 114 106 102 106 98 102 92 96 102 106 98 102 106 104 110 98 98 96 88 86 80 80 64 96 80 
64 80 86 76 86 70 80 78 66 86 72 76 82 86 74 74 76 78 84 94 94 82 68 80 92 80 92 106 98 114 118 162 336 402 390 347 316 341 357 349 347 398 419 390 431 454 436 357 232 154 140 162 173 144 132 136 122 118 120 136 144 134 124 130 124 116 102 106 102 100 82 92 102 88 96 78 80 70 88 92 
64 80 72 92 74 78 82 70 72 66 80 80 72 70 80 80 80 82 76 80 84 88 78 94 96 92 94 106 114 112 134 250 417 363 324 246 215 166 260 340 341 336 301 278 355 413 423 388 328 240 191 181 205 171 173 168 168 158 168 171 169 175 164 171 166 160 146 118 102 100 102 106 102 92 100 86 100 82 94 74 
54 76 80 80 92 80 70 64 74 72 74 72 84 84 80 74 72 78 78 92 98 98 84 96 92 102 92 106 116 120 148 340 423 363 316 312 279 258 262 274 279 236 232 266 320 367 382 369 340 310 217 203 207 197 193 173 189 140 148 168 164 173 171 179 169 177 158 138 126 116 110 114 126 116 100 116 102 94 86 84 
64 90 74 86 82 94 94 64 72 72 62 88 78 84 76 86 90 82 80 84 94 104 98 112 118 126 114 110 114 124 187 367 378 340 328 318 324 332 318 272 266 232 219 254 303 338 349 351 334 314 289 262 223 213 191 183 162 136 134 154 148 164 168 187 183 173 162 171 169 173 189 221 258 268 248 191 158 124 120 94 
54 76 68 80 76 86 72 72 70 74 82 84 68 72 78 80 86 90 78 88 108 128 171 209 223 295 279 177 150 154 283 355 330 347 334 312 322 326 291 244 252 248 240 248 283 301 316 305 314 322 332 343 295 219 231 219 203 179 181 179 195 193 191 207 197 201 189 203 213 232 244 281 316 349 361 338 320 256 213 134 
58 86 58 62 74 80 74 74 68 74 74 70 74 68 80 90 72 72 76 92 181 279 274 293 394 459 454 423 382 367 388 371 343 357 328 299 276 264 203 209 254 283 279 276 285 281 272 274 272 314 341 351 310 297 285 264 236 203 205 213 203 207 207 201 211 221 211 227 221 236 254 276 299 372 355 355 340 320 297 272 
58 76 64 80 74 72 68 72 64 76 64 80 66 66 82 70 74 82 74 100 227 338 338 433 490 505 492 463 490 458 409 363 376 355 324 293 244 166 142 187 274 305 297 268 276 254 252 254 248 326 349 334 318 309 285 262 242 221 203 211 189 201 221 229 217 211 211 232 227 231 229 240 254 318 312 318 318 316 316 309 
60 70 68 82 80 74 58 66 62 66 68 74 54 76 76 70 78 82 74 110 258 376 440 486 469 380 440 477 507 488 407 318 390 384 353 320 246 140 118 181 281 305 305 283 258 227 252 246 250 328 330 340 330 312 281 254 231 231 215 217 203 205 225 242 234 229 231 238 227 238 231 229 242 293 287 291 289 285 281 314 
48 68 74 76 82 78 66 94 78 84 72 70 64 68 70 64 76 70 80 104 219 376 436 477 440 363 417 452 494 488 396 330 380 353 332 353 262 148 104 232 310 324 316 287 260 229 234 266 301 345 332 324 328 287 285 254 232 234 242 264 285 287 268 244 238 215 213 197 179 150 142 152 144 160 164 185 183 169 181 177 
62 54 78 76 76 72 74 86 70 70 72 80 64 68 72 78 78 68 68 100 164 340 357 440 452 461 465 436 440 459 374 334 376 340 322 328 240 130 112 242 303 310 310 289 256 246 250 274 340 349 334 312 326 310 289 250 240 250 274 289 307 299 305 285 256 232 197 177 154 114 116 118 118 116 116 126 122 120 122 128 
60 62 74 74 82 72 66 82 64 68 66 68 66 76 74 82 72 84 74 92 116 193 232 262 345 409 376 283 215 248 301 293 326 338 320 320 244 164 120 215 256 297 309 299 250 244 264 301 349 347 340 316 268 258 256 234 242 262 268 276 289 289 283 262 301 303 291 281 268 229 195 189 189 211 236 246 244 236 219 197 
56 72 74 80 82 60 74 74 68 70 72 74 80 86 86 80 86 70 78 88 94 104 128 124 136 150 134 130 116 158 276 289 297 341 316 330 281 213 156 199 234 285 301 283 262 256 297 336 355 338 326 254 144 205 232 244 244 258 270 285 272 276 293 281 283 301 295 279 299 289 270 266 278 285 309 324 316 326 316 303 
44 70 76 58 82 76 74 74 68 80 68 74 74 86 90 82 72 70 76 82 80 96 94 82 100 96 102 108 122 134 289 307 281 324 303 316 309 244 193 171 205 246 278 272 274 293 343 349 338 303 207 185 116 154 219 231 231 236 246 285 268 264 258 252 268 287 258 246 278 283 274 270 276 291 297 326 340 332 326 314 
60 68 62 90 72 82 68 78 78 80 76 74 86 80 88 86 82 76 86 82 88 74 68 90 84 86 88 108 106 122 305 390 310 272 272 248 240 246 215 203 205 227 268 289 320 351 374 349 318 217 164 162 146 128 179 205 213 229 250 262 258 254 223 236 236 232 238 201 244 274 260 264 272 305 326 347 341 297 307 287 
60 70 74 86 86 56 70 66 70 82 62 84 86 88 82 86 90 82 74 80 92 82 82 98 98 90 86 106 112 114 266 382 332 246 177 104 132 207 227 244 270 262 279 343 390 402 380 340 244 191 150 146 164 152 181 185 181 193 197 219 209 205 207 197 211 207 189 168 225 248 258 266 281 310 326 324 291 209 173 134 
46 58 66 84 76 86 76 80 80 76 74 76 80 68 68 96 80 64 76 84 88 78 88 90 88 92 84 102 112 108 171 347 363 303 227 138 171 258 281 318 365 309 309 415 442 434 386 268 160 168 152 142 134 138 154 148 144 130 130 160 158 146 158 166 158 160 136 132 156 169 185 207 213 193 195 158 130 106 100 92 
48 62 70 90 80 72 70 76 68 64 66 72 76 78 82 86 84 74 88 88 100 88 84 80 94 86 84 92 100 108 134 185 334 357 336 293 278 262 278 359 411 413 413 442 448 425 316 148 116 106 112 120 108 110 108 76 94 102 106 104 114 124 140 128 120 126 102 112 116 112 118 124 110 112 106 108 100 92 104 88 
46 74 70 76 84 70 90 82 74 74 68 78 68 90 80 90 86 66 86 92 92 84 86 94 98 100 86 100 92 110 120 132 187 301 316 283 264 252 278 374 417 417 458 458 429 322 148 114 108 94 110 106 104 100 84 84 90 96 82 86 94 84 86 96 92 102 108 96 106 80 112 110 92 102 104 96 94 90 102 82 
58 72 72 78 84 78 62 66 76 78 78 70 74 68 80 80 86 78 76 82 84 76 92 84 86 88 86 94 100 94 112 104 124 152 242 268 234 205 285 369 376 396 417 390 299 173 124 110 118 114 104 110 100 102 104 104 106 80 86 84 70 82 80 82 98 94 92 106 88 96 94 102 92 82 88 90 90 108 90 82 
48 82 74 64 70 72 56 76 84 72 74 86 80 72 76 84 76 74 66 88 90 82 86 82 84 96 88 90 90 88 90 98 110 118 140 168 177 197 209 189 195 221 225 209 146 130 124 118 128 120 128 118 100 94 112 100 92 90 78 92 74 72 84 86 92 100 98 106 92 98 100 86 76 68 72 88 94 92 94 76 
72 74 68 68 76 66 72 80 74 70 70 78 66 56 82 70 76 68 78 70 78 72 80 70 80 76 82 82 82 74 84 80 96 90 98 122 112 150 114 112 102 100 116 108 114 134 128 132 132 130 136 132 110 106 92 86 84 72 86 84 72 76 66 78 74 80 94 108 82 86 84 76 66 52 64 80 70 80 92 72 
44 60 60 66 64 76 78 76 70 74 66 68 64 78 70 74 66 76 80 64 66 68 68 66 76 72 74 70 62 72 82 74 72 88 78 86 90 84 94 84 90 76 92 86 100 116 128 124 132 136 156 148 122 96 84 82 78 76 78 78 68 66 66 64 76 88 76 68 84 74 74 64 54 54 58 68 74 88 84 56 
52 84 76 74 74 68 70 82 66 68 74 70 74 62 64 68 56 74 74 68 70 66 56 66 72 76 76 70 66 64 72 72 64 68 70 88 84 90 88 80 64 78 90 88 86 106 130 144 146 146 152 136 104 98 84 82 80 62 64 66 72 60 50 72 64 68 66 68 78 58 64 58 46 50 66 72 74 74 76 68 
52 68 78 78 60 68 70 82 76 76 68 72 74 66 62 86 74 74 72 66 74 66 68 70 64 70 64 74 70 66 74 82 82 78 76 82 84 86 84 80 70 66 80 82 98 116 138 148 152 152 146 140 124 96 102 74 78 66 58 64 66 56 58 58 60 60 66 70 70 54 56 42 56 52 78 72 80 72 82 70 
48 80 76 76 76 76 84 86 76 78 64 56 68 66 70 76 76 86 72 84 74 66 70 78 68 62 70 82 80 78 98 96 88 88 96 100 84 90 90 70 70 80 88 86 100 122 154 158 156 136 142 140 118 92 86 82 72 68 68 60 70 58 64 66 68 68 68 78 80 52 74 60 56 62 64 70 72 92 80 70 
46 80 56 68 78 74 86 88 74 76 74 70 78 72 70 64 76 72 74 76 84 70 84 64 70 70 68 78 90 90 100 108 90 94 102 98 86 104 98 90 80 88 96 78 92 128 154 156 148 140 132 120 104 92 80 68 74 68 62 56 74 72 58 56 68 68 58 80 72 66 70 78 56 68 74 70 74 74 72 66 
50 68 70 66 74 94 80 86 68 80 86 92 70 84 72 78 76 74 88 88 74 80 76 68 76 74 74 86 70 86 96 100 92 92 98 100 96 118 104 100 78 92 108 96 104 128 138 126 120 124 104 112 98 94 86 62 78 66 76 68 62 70 68 68 78 74 72 82 64 60 60 70 70 74 68 80 70 70 82 70 
62 78 74 80 82 68 78 84 80 72 88 84 62 74 66 66 70 78 64 78 70 68 68 72 70 84 80 74 78 78 104 94 80 88 94 90 92 100 78 92 78 88 88 90 104 106 120 112 122 110 100 108 94 84 78 72 70 68 76 68 60 76 74 52 66 70 72 80 64 68 78 76 70 68 74 78 72 90 74 70 
56 68 74 74 70 76 68 88 62 68 76 92 54 78 78 62 80 70 82 70 76 72 66 72 60 74 64 68 80 84 92 94 76 90 86 80 78 74 70 76 78 72 82 88 94 102 98 94 86 88 82 98 80 68 76 72 66 72 66 70 66 58 54 60 62 70 80 76 70 64 66 74 62 78 76 86 70 70 70 48 
46 64 64 76 74 72 68 72 62 88 78 66 74 72 68 80 66 86 76 62 70 56 60 68 56 62 64 84 64 70 84 72 88 74 66 76 68 58 58 66 56 62 68 72 72 74 84 76 76 72 72 80 78 72 72 72 74 58 70 56 50 66 56 46 52 68 68 70 64 38 72 54 52 56 82 66 68 70 68 60 
46 52 68 64 88 70 68 80 82 88 64 80 78 70 80 76 76 78 78 66 64 70 68 64 54 66 52 70 70 56 58 68 60 48 68 60 62 56 58 52 58 48 58 60 62 62 62 64 60 72 64 76 66 60 58 76 62 64 62 52 64 62 56 56 50 70 50 62 58 60 56 60 56 62 66 84 68 70 62 68 
48 68 66 86 80 76 56 84 54 78 78 76 82 62 82 72 60 66 82 66 76 64 84 66 56 58 56 66 58 58 54 64 56 52 64 60 56 54 54 52 64 54 48 58 56 62 58 60 58 54 52 76 58 62 56 68 68 62 46 66 52 50 42 44 56 62 56 60 30 50 60 42 56 58 64 72 76 72 74 46 
56 70 66 78 74 76 56 70 70 68 80 80 66 78 76 78 78 68 72 66 74 62 78 58 60 56 52 56 54 52 52 50 48 38 50 56 50 52 42 50 52 34 44 46 52 50 44 54 46 38 50 56 46 58 56 76 72 54 56 66 56 52 54 46 52 56 46 62 46 46 52 50 54 56 64 92 66 66 62 56 
52 62 58 80 74 60 50 66 54 68 62 78 64 66 72 54 68 68 60 62 64 74 60 56 64 54 46 46 50 44 38 42 44 46 36 52 44 38 46 50 52 48 42 40 36 24 40 46 32 32 30 44 34 48 64 42 60 52 44 52 46 42 50 34 60 44 46 48 52 38 58 40 38 58 74 68 78 78 76 68 
56 60 64 68 56 44 58 58 60 56 52 62 70 56 62 62 72 66 58 52 56 60 58 42 54 44 30 40 50 46 50 38 36 24 40 34 42 34 48 52 42 36 42 34 34 32 30 26 20 16 28 38 34 46 48 50 56 42 42 50 38 46 36 44 50 36 50 56 42 28 38 34 46 72 78 76 72 66 70 64 
52 60 64 52 58 50 54 66 46 64 64 62 62 56 70 62 56 50 56 58 58 56 54 48 60 42 28 52 44 46 50 22 18 12 40 20 26 20 30 36 20 34 28 30 28 32 30 20 22 24 20 40 34 34 44 48 52 48 38 40 24 34 30 20 36 24 32 46 28 14 38 42 34 52 70 84 72 70 74 58 
36 46 66 54 56 48 62 44 38 62 82 64 60 54 68 56 68 52 60 46 40 46 54 52 50 46 38 46 40 36 26 20 10 14 14 20 18 14 20 24 38 16 12 18 20 30 18 18 12 10 6 34 16 24 44 40 52 40 28 34 18 20 22 32 26 26 26 40 16 2 22 14 18 68 82 72 66 78 68 74 
40 50 58 52 54 56 40 48 40 50 58 48 52 48 52 54 58 42 44 44 42 40 48 56 46 36 26 50 34 26 30 8 16 24 22 16 14 18 26 18 22 10 18 16 14 24 34 16 4 12 0 24 28 36 44 30 38 34 36 20 24 34 6 10 10 14 24 16 6 6 8 4 24 52 74 86 76 78 70 70 
46 48 48 66 42 50 44 54 52 50 44 50 54 44 42 52 58 54 58 52 30 34 32 38 46 30 16 40 40 26 26 4 8 36 34 18 18 22 24 28 30 18 28 20 38 38 40 16 14 26 14 20 16 30 40 44 46 40 54 44 38 42 36 22 20 28 16 20 8 4 10 20 22 48 68 66 74 78 72 70 


