P2
80 60
786
75 64 52 58 60 60 68 37 66 64 44 50 50 48 50 54 73 60 68 54 48 50 56 60 62 52 58 56 48 31 42 48 42 35 37 40 48 54 35 52 27 44 31 27 27 31 27 33 33 33 35 31 31 33 27 29 27 44 54 54 46 31 19 15 21 10 19 19 31 31 13 10 2 25 33 35 52 42 35 52 
73 48 56 77 66 64 62 48 64 66 52 56 56 54 50 70 60 56 56 50 56 46 44 56 54 48 56 62 44 48 40 52 35 33 40 46 42 29 52 48 31 31 40 25 29 27 31 23 21 33 35 40 25 31 27 37 40 46 48 50 50 33 17 27 17 27 21 27 25 33 19 0 8 13 29 44 52 31 44 35 
58 68 73 66 77 70 48 70 64 64 52 52 60 58 46 56 62 52 54 62 48 48 58 54 62 54 40 52 40 35 42 40 42 40 48 42 40 35 29 37 31 29 31 27 27 21 17 31 25 40 33 25 31 31 40 33 37 40 44 54 56 42 23 31 17 25 23 35 29 29 13 10 10 29 21 40 50 44 35 35 
62 54 68 79 85 64 73 68 62 73 54 50 54 54 48 56 58 56 60 50 64 60 46 58 50 48 52 58 48 52 52 48 50 42 42 37 37 48 40 35 37 42 37 23 23 33 19 29 31 37 31 29 31 35 27 29 40 44 46 44 73 56 37 33 21 23 25 35 40 25 19 13 21 25 33 46 60 48 29 42 
64 58 66 70 79 64 77 68 60 56 50 40 48 56 50 58 54 60 54 33 46 56 40 44 56 54 40 48 52 27 48 48 33 46 42 42 35 31 37 48 35 35 29 23 19 19 21 27 19 42 21 44 35 31 44 50 42 56 52 66 70 56 42 35 27 21 23 25 37 17 15 27 4 23 17 42 50 56 42 31 
73 66 62 77 64 60 70 54 58 66 54 44 44 60 64 42 66 64 50 54 50 60 64 58 54 56 35 48 50 46 52 44 29 29 33 56 37 46 33 42 42 37 44 35 19 29 29 29 25 40 37 37 37 48 56 42 54 54 60 70 60 40 29 29 25 21 40 33 25 29 15 13 10 15 19 44 52 40 37 29 
64 79 60 52 70 68 66 68 54 70 54 50 56 56 58 50 46 62 52 52 44 40 52 50 50 42 40 58 37 48 54 46 44 25 44 37 37 40 42 46 27 33 37 42 15 23 19 31 27 33 31 35 40 37 50 48 70 66 70 68 66 52 31 25 13 40 29 48 25 21 19 15 8 31 35 37 50 29 33 29 
79 66 50 54 73 70 68 66 77 58 48 60 64 70 54 68 66 54 60 46 50 46 46 54 50 56 54 62 58 44 40 42 37 27 44 48 35 33 46 35 40 44 40 37 29 29 27 35 31 33 46 35 33 42 54 52 68 64 75 68 70 54 33 25 13 31 33 42 31 21 19 8 6 23 35 58 54 52 46 42 
89 56 64 60 75 77 75 75 68 85 54 52 56 54 66 60 70 62 64 58 42 56 50 60 58 60 50 58 48 46 56 52 48 46 42 46 44 44 37 42 40 48 33 37 29 33 31 40 21 31 31 33 29 50 46 44 64 58 70 89 64 54 50 33 25 31 19 48 27 40 21 19 17 27 25 40 60 44 50 54 
81 73 66 58 79 70 66 68 58 68 56 64 56 60 56 62 77 60 66 62 58 48 54 68 70 66 46 68 52 42 48 54 56 40 42 42 52 48 40 50 56 44 29 44 35 29 37 44 33 42 33 27 44 37 37 29 48 44 64 77 70 60 42 40 25 35 44 40 48 23 31 15 27 17 13 40 58 40 50 40 
68 62 64 64 66 64 68 66 66 62 56 48 54 60 52 56 62 54 66 54 58 62 54 60 62 58 35 44 42 37 44 56 37 42 40 48 40 44 40 48 50 48 31 23 31 29 37 29 40 40 19 23 40 37 42 40 46 60 54 73 81 60 40 35 33 21 33 31 29 21 15 37 25 25 27 31 64 62 35 46 
73 62 83 56 73 62 73 64 60 62 60 62 60 56 58 58 58 50 66 58 50 44 50 52 54 56 54 58 56 42 48 48 37 23 44 58 48 56 46 40 44 40 40 42 31 35 35 31 25 35 25 37 33 42 40 46 40 48 62 79 66 58 42 44 33 31 33 29 37 37 35 23 19 19 35 42 60 54 44 37 
66 70 75 62 58 68 52 68 68 64 58 54 54 50 62 64 62 56 62 62 46 58 48 54 46 46 52 52 58 37 58 46 40 54 42 46 54 48 44 44 42 40 37 25 31 37 42 33 29 33 25 40 33 31 37 37 37 58 54 66 58 60 37 31 33 25 44 46 42 40 19 25 10 27 29 27 58 46 29 42 
81 68 54 56 70 68 62 66 54 75 62 50 52 64 52 60 58 52 52 52 46 60 52 54 42 66 40 66 54 42 48 56 40 42 44 42 44 56 46 42 50 54 35 27 42 42 42 40 37 33 33 35 35 48 54 35 44 44 56 73 64 54 50 46 44 31 48 54 33 42 25 21 23 17 27 27 66 54 46 52 
85 60 60 66 70 75 68 60 62 64 62 52 66 48 56 64 58 54 52 52 48 46 46 66 50 56 48 56 52 37 56 48 56 42 48 48 54 60 52 40 62 58 52 44 44 46 48 48 33 37 37 35 33 35 48 50 50 46 50 66 70 50 62 50 60 31 42 52 52 42 35 35 23 17 27 33 56 60 52 42 
70 60 62 54 54 64 66 66 50 62 60 52 60 68 50 66 60 56 62 54 48 46 54 58 46 60 48 46 54 37 35 44 54 42 48 68 48 62 50 46 66 60 54 44 54 56 56 48 58 48 35 29 37 40 50 46 40 52 50 68 62 56 60 52 48 46 44 40 52 44 29 35 15 33 37 29 62 54 66 60 
70 58 64 64 75 58 75 62 62 62 68 56 66 66 68 52 66 48 50 52 52 48 48 56 60 46 56 58 46 42 54 54 50 25 44 56 62 66 58 60 68 68 81 81 91 126 119 126 79 62 42 40 46 48 44 37 44 54 60 68 58 62 48 44 54 52 60 56 54 42 31 40 33 40 23 40 68 60 56 68 
79 62 48 52 70 56 52 60 46 73 60 46 70 46 50 60 64 54 50 42 48 50 50 46 56 62 56 52 58 54 54 50 42 46 52 60 58 60 62 89 109 170 217 296 386 474 486 504 346 91 40 46 50 44 48 46 52 54 70 81 81 62 56 52 56 48 52 50 48 52 35 29 31 44 35 42 73 68 62 68 
81 58 62 54 77 60 70 66 62 62 70 52 56 64 58 75 81 56 54 50 46 54 62 54 54 60 56 70 52 48 56 60 58 52 60 68 83 89 124 184 268 384 484 506 559 604 612 621 547 150 56 68 54 48 60 50 54 58 62 70 79 62 56 52 54 48 46 62 46 44 40 33 33 46 50 52 75 75 68 75 
73 50 79 60 68 66 58 70 60 58 66 54 56 68 60 64 62 58 60 46 54 50 56 64 58 54 42 58 56 48 54 52 62 70 101 132 193 274 336 386 444 480 529 580 600 606 635 662 614 205 70 73 66 70 70 54 54 56 68 75 68 66 58 60 50 50 48 62 58 40 33 19 37 31 52 37 83 87 70 75 
66 60 54 62 60 52 68 81 73 64 62 60 73 52 58 52 75 66 62 52 52 64 56 66 50 52 62 64 62 46 54 60 79 142 266 402 414 410 406 394 356 486 563 596 608 614 627 672 629 262 87 60 58 66 60 52 54 56 70 77 62 44 54 50 52 44 52 62 54 33 27 27 31 44 42 35 81 75 73 81 
75 62 66 50 89 60 66 66 70 66 64 52 54 60 66 66 62 46 56 50 46 56 50 60 60 73 66 68 62 44 77 109 211 396 523 490 448 450 448 426 394 502 612 618 637 629 629 652 625 290 70 50 44 54 44 42 42 54 46 54 58 48 29 50 48 33 27 42 37 27 15 8 10 17 40 50 87 79 81 85 
64 54 54 62 60 64 66 60 62 73 60 66 62 58 60 64 64 60 50 66 46 54 48 62 60 68 46 66 68 54 101 235 434 515 527 470 448 458 446 444 412 466 571 506 539 633 641 650 606 290 81 81 91 91 64 68 87 70 75 77 70 79 64 75 52 66 58 42 35 17 17 6 6 31 58 68 101 117 124 99 
75 58 62 50 64 66 66 68 58 79 68 58 56 54 68 66 75 58 54 68 52 54 54 56 48 73 56 77 62 62 160 432 492 502 488 450 440 444 450 436 420 446 474 356 476 637 643 643 621 282 130 268 326 235 209 256 278 249 225 203 197 252 233 219 193 162 126 101 73 48 23 25 17 40 79 103 180 211 215 174 
68 52 70 73 68 52 58 75 60 58 66 60 54 52 64 75 70 70 68 54 62 54 62 64 64 73 66 75 66 93 288 555 525 492 444 434 430 438 434 442 428 438 420 402 488 629 639 649 610 404 352 496 521 466 394 378 358 336 326 326 322 348 330 304 272 278 294 276 225 189 146 109 103 105 117 128 233 241 227 211 
75 56 68 60 56 66 73 66 77 68 70 64 56 54 64 66 77 62 70 68 56 46 58 68 73 68 70 66 79 109 362 567 521 468 440 412 428 422 434 422 414 404 408 398 468 618 643 645 598 444 410 498 547 492 430 414 408 344 310 302 304 330 300 302 302 324 338 340 320 278 249 237 219 217 227 217 247 270 254 227 
77 68 56 46 70 56 62 56 58 52 58 54 62 60 64 66 79 75 75 73 58 66 58 70 75 75 68 73 83 109 442 537 486 450 422 436 464 428 436 404 404 402 402 390 468 612 639 627 565 486 456 504 547 519 426 418 436 328 300 296 286 308 296 326 362 358 372 370 352 336 290 260 237 241 262 260 272 264 262 254 
66 56 60 66 54 56 60 68 64 62 68 46 54 68 60 68 77 87 91 136 154 122 119 117 105 83 81 101 99 162 486 521 466 428 420 458 478 452 434 408 398 408 408 392 480 598 643 614 527 482 486 541 551 502 484 480 436 316 282 278 260 308 310 320 350 348 364 366 360 364 324 294 264 264 282 268 256 252 260 249 
75 62 56 52 56 60 52 42 58 60 62 62 60 58 66 73 103 187 268 404 460 460 456 430 404 324 142 134 132 320 474 521 496 446 466 482 474 460 422 408 396 394 366 396 511 614 625 618 464 434 478 559 535 458 420 422 406 316 282 272 276 298 288 302 298 324 336 344 362 354 336 292 274 284 290 286 249 252 243 243 
73 60 56 58 58 58 50 58 62 52 66 75 77 64 54 89 174 398 478 649 623 654 616 618 616 588 458 368 448 448 414 490 500 468 470 484 472 464 436 420 376 380 378 412 602 633 649 633 444 434 468 545 521 438 350 300 312 304 274 262 264 292 304 296 298 308 322 330 342 326 280 280 270 302 316 284 260 231 241 233 
66 66 60 68 73 60 42 62 64 62 62 66 64 73 64 101 286 523 643 678 652 687 680 693 699 709 637 604 697 668 482 482 506 476 476 468 468 452 410 392 362 390 406 525 668 683 666 643 426 422 414 440 444 390 340 288 256 268 266 260 237 270 284 296 294 290 284 306 302 280 264 272 284 334 334 306 245 223 221 209 
70 62 60 64 68 56 60 64 60 79 60 66 66 68 87 136 310 633 707 716 681 712 709 691 716 724 637 639 753 736 683 478 478 464 446 432 418 418 394 382 368 420 508 662 699 695 681 660 440 388 372 366 344 310 292 274 243 229 229 243 219 256 286 270 278 286 272 274 282 280 282 282 304 350 344 280 209 199 193 193 
68 64 70 75 60 58 48 70 56 66 54 70 58 70 83 174 320 652 761 728 712 738 718 693 718 714 678 647 761 769 711 547 430 434 404 378 400 392 374 374 382 428 623 687 695 680 685 654 446 374 354 354 316 304 278 262 233 231 207 223 205 235 272 264 282 280 264 276 282 278 280 310 338 358 332 268 209 205 174 193 
68 60 66 46 56 56 52 64 66 73 77 81 70 70 93 184 302 614 726 712 742 726 724 716 718 720 654 664 780 786 722 664 533 388 358 318 330 356 364 374 372 454 650 650 668 666 672 647 448 366 366 346 322 302 294 260 231 225 205 221 199 252 274 282 292 286 274 272 284 274 290 318 334 348 340 278 201 197 184 184 
52 68 56 56 70 58 60 66 73 83 87 79 66 75 83 154 256 462 639 623 703 714 722 699 712 703 637 664 759 778 738 687 539 362 308 282 312 320 358 376 378 472 619 627 660 691 643 625 422 362 358 342 324 304 282 262 227 223 221 219 219 274 300 318 342 324 292 280 268 266 290 308 320 316 308 286 193 191 189 195 
66 73 68 66 79 54 58 52 64 79 79 85 70 83 66 97 164 306 446 588 627 641 662 689 664 647 567 623 712 703 709 645 527 324 318 306 278 322 362 386 382 412 486 629 666 681 674 543 394 360 342 342 330 308 292 262 225 209 221 217 229 312 376 400 398 356 316 292 288 270 286 290 300 310 278 231 201 176 189 191 
83 68 70 60 70 64 58 79 75 83 83 79 70 68 66 79 95 156 235 332 440 490 553 565 549 394 260 247 310 515 621 450 412 370 406 384 388 358 372 378 388 400 543 674 683 683 660 492 386 364 320 340 336 310 276 256 231 213 205 205 209 294 330 362 366 366 314 324 304 276 280 302 310 312 258 227 189 189 178 189 
87 62 70 50 68 60 66 73 70 89 70 91 77 66 79 68 68 91 111 136 140 140 182 219 211 107 79 91 136 276 322 364 448 488 464 420 408 392 390 374 374 416 592 666 672 703 643 450 360 340 318 320 318 304 284 254 233 207 205 211 227 296 324 322 306 324 318 302 316 288 296 316 326 336 318 270 205 189 182 176 
83 85 66 73 66 64 60 56 73 75 73 85 66 73 54 66 79 68 77 62 68 56 64 101 87 77 79 91 87 97 144 360 488 517 478 454 434 422 408 390 376 410 468 580 676 689 610 428 356 324 316 318 312 302 276 258 229 195 199 187 219 268 286 290 296 322 306 314 314 306 314 334 354 360 342 286 217 199 178 170 
87 83 75 66 66 58 60 73 58 68 68 87 75 52 70 73 68 75 75 58 64 58 73 73 75 75 66 89 68 66 122 396 511 492 484 470 478 464 422 400 392 386 424 569 668 689 604 582 442 356 330 340 326 310 284 254 231 193 184 189 207 239 280 278 290 296 302 312 350 334 346 354 380 398 372 306 225 199 184 199 
68 66 73 56 73 73 66 58 68 64 73 70 66 77 70 62 66 64 58 73 62 46 73 68 68 64 68 75 66 52 99 324 511 486 466 474 488 472 464 448 402 410 460 596 643 643 619 658 590 444 388 374 348 314 286 264 229 178 178 182 211 221 245 252 288 286 304 344 348 356 362 366 398 420 384 308 211 187 205 221 
75 60 70 48 73 73 52 83 56 64 64 70 81 64 68 77 70 58 58 58 52 54 64 83 46 68 62 75 56 66 81 233 496 468 434 456 466 460 472 482 444 509 584 623 629 602 600 619 563 450 386 374 364 330 298 241 223 174 178 187 189 209 245 252 266 272 294 334 354 364 364 358 388 390 388 304 215 201 195 205 
73 79 56 60 83 75 62 60 56 66 75 58 66 62 60 62 54 68 60 68 54 52 50 66 56 60 66 58 60 56 62 119 386 454 416 424 430 432 436 456 478 576 631 635 619 547 555 539 382 256 276 268 290 288 270 254 237 229 213 221 207 225 235 243 252 252 274 292 332 352 354 352 384 384 376 294 199 193 166 170 
91 70 64 60 64 62 56 64 64 52 58 68 77 56 46 64 68 66 52 52 66 52 54 73 62 68 54 64 52 54 70 81 184 400 402 400 396 402 400 452 486 565 616 608 584 571 539 470 168 93 73 93 126 146 164 180 209 215 215 209 211 211 229 243 245 254 270 290 300 322 322 310 340 368 358 268 142 132 107 101 
83 68 73 68 75 64 54 60 58 68 64 77 81 66 66 66 66 58 54 70 54 42 66 60 62 56 44 52 64 54 44 75 87 178 356 396 398 394 392 450 480 557 612 598 602 578 584 551 344 89 54 64 87 122 150 142 144 160 170 187 184 178 197 215 229 241 247 280 274 294 288 284 326 340 344 239 144 111 87 81 
68 73 48 58 68 64 54 62 62 66 60 68 70 60 60 64 60 56 54 83 54 48 58 58 54 52 62 60 44 46 50 60 48 73 111 193 290 364 386 452 462 535 619 600 592 594 582 594 537 189 58 56 70 128 138 148 160 164 164 164 176 158 166 174 182 187 217 233 254 258 258 252 274 298 310 217 134 105 79 66 
66 50 52 66 60 70 50 64 64 62 66 73 83 54 68 56 54 60 46 64 52 46 48 56 50 42 48 54 50 46 44 48 42 52 58 70 109 134 189 290 368 527 608 614 563 590 610 625 584 249 52 52 56 115 146 146 150 156 156 156 150 142 152 156 158 158 164 178 172 201 168 184 205 213 209 156 134 105 66 66 
87 52 68 46 62 64 62 77 56 58 64 70 83 73 60 60 48 50 56 60 54 48 56 52 48 64 44 60 50 48 54 48 44 52 68 50 52 68 64 85 136 280 424 529 551 590 608 608 545 233 52 48 54 113 136 144 148 136 148 160 154 148 152 168 164 150 140 162 168 162 132 134 154 142 119 113 103 83 62 60 
75 70 73 64 60 58 66 62 64 70 50 83 70 75 66 56 60 48 48 60 54 50 62 56 42 52 52 58 48 42 37 52 44 42 56 60 46 56 37 54 66 75 113 199 368 539 557 543 364 109 48 52 52 85 111 111 119 132 138 132 142 148 150 144 140 144 142 150 134 176 130 136 136 122 99 103 95 91 60 81 
73 73 54 62 62 66 48 66 54 56 46 81 64 79 50 46 54 44 58 62 33 46 44 54 40 50 48 56 60 35 37 54 50 42 46 42 54 58 54 25 50 48 44 81 103 156 180 176 99 50 33 46 33 75 73 81 83 85 89 95 107 109 117 134 119 109 70 68 81 122 107 111 119 134 107 62 79 81 48 46 
62 64 70 66 56 60 52 52 58 60 73 70 73 68 52 50 58 50 50 56 52 50 54 48 37 44 48 58 46 48 44 37 52 44 46 54 52 40 33 31 35 35 42 37 58 54 56 46 31 42 33 46 37 62 42 40 50 58 64 68 66 56 66 83 101 83 58 48 66 111 97 105 113 97 87 60 62 62 56 52 
77 66 77 64 64 62 52 56 48 66 60 81 81 70 70 64 50 68 56 64 56 50 46 68 54 56 56 52 40 25 40 52 48 27 33 40 46 37 50 40 40 42 46 27 48 40 42 44 37 40 29 35 40 46 46 42 54 44 54 56 58 56 50 73 93 77 54 42 60 93 103 113 124 107 70 62 68 62 44 46 
77 68 52 50 58 60 50 54 62 58 73 58 85 75 64 48 52 62 48 64 40 58 58 50 58 56 56 56 35 31 44 50 54 35 44 44 37 44 44 40 44 35 23 27 37 31 21 42 21 37 25 35 52 44 29 40 44 44 54 54 56 40 40 62 79 77 50 60 56 93 93 122 122 101 64 54 79 58 44 37 
79 68 60 73 66 66 73 68 64 66 60 73 77 79 73 54 62 62 70 68 48 50 52 52 58 68 60 54 56 50 50 50 50 46 54 35 29 42 40 37 31 35 29 19 40 31 21 29 25 35 27 42 48 33 40 37 48 50 56 66 52 42 56 68 77 58 33 52 56 89 97 105 136 107 62 58 58 50 44 44 
66 77 70 60 44 60 46 52 52 48 64 70 85 83 66 58 58 50 56 64 52 56 54 54 52 54 60 54 48 29 40 50 33 40 42 27 31 46 27 37 27 29 33 23 29 23 31 29 21 35 19 25 42 42 37 35 35 46 60 60 56 48 48 68 75 64 42 48 56 97 105 99 119 99 54 50 62 66 62 46 
73 52 58 54 58 54 44 46 33 64 54 70 79 75 66 58 60 37 54 52 52 40 37 56 44 46 54 50 42 44 40 46 40 46 44 40 25 29 27 37 31 35 27 29 33 23 27 21 27 29 21 27 31 31 46 40 40 52 50 62 56 37 33 62 73 56 31 35 48 89 99 117 119 111 66 48 52 52 50 60 
89 75 75 66 70 54 50 56 50 56 52 64 75 66 64 62 58 50 56 68 35 48 58 58 46 58 60 56 37 42 48 52 42 35 44 31 29 40 35 33 23 33 31 31 35 23 21 21 21 31 23 25 42 37 42 27 42 48 44 46 44 42 48 62 70 52 21 42 64 75 89 105 122 89 58 52 62 37 46 56 
58 58 62 58 62 64 50 42 54 60 60 56 62 79 68 64 70 33 33 44 33 37 56 50 48 48 60 56 46 35 37 40 35 29 42 25 35 37 27 31 42 33 25 23 33 10 8 25 25 21 23 31 25 29 25 23 40 44 54 48 54 44 37 58 68 50 25 35 54 89 89 103 95 79 50 50 56 46 31 40 
79 87 60 62 73 64 58 54 54 52 62 64 81 77 83 54 64 54 46 58 46 64 50 54 46 60 48 58 46 42 44 35 54 48 37 35 29 44 33 46 29 35 50 37 37 23 23 25 21 29 31 35 42 33 46 37 42 46 58 52 60 44 58 58 73 60 44 31 56 87 89 113 91 91 50 48 60 42 42 58 
85 70 58 68 64 73 64 68 54 56 68 62 87 73 89 58 60 52 54 68 58 56 52 73 66 68 52 73 73 73 79 89 79 70 70 77 79 77 87 81 75 83 79 64 70 48 42 42 50 46 33 52 60 58 66 66 73 77 81 89 91 89 81 91 101 73 64 75 91 101 115 134 113 97 50 62 66 52 58 56 


