P2
80 60
529
64 90 68 64 76 68 72 86 90 76 78 82 88 86 70 82 76 84 78 66 54 62 62 56 58 46 48 50 40 34 32 30 34 24 18 30 20 28 28 38 22 34 28 24 44 12 16 18 28 30 24 34 28 44 50 56 60 56 58 60 50 58 72 70 64 44 36 54 50 46 54 28 42 36 36 38 36 26 28 32 
78 82 66 70 60 70 70 78 68 68 84 66 78 64 72 82 64 70 54 62 52 50 50 60 50 32 48 46 38 32 34 26 26 16 30 22 16 30 52 44 36 28 36 28 36 20 32 22 34 40 28 36 44 44 58 60 52 64 68 54 56 64 56 38 50 52 56 54 38 46 50 38 52 26 34 36 32 22 20 22 
62 84 60 82 78 80 58 80 76 76 78 76 76 64 88 66 62 64 78 70 42 64 60 66 58 44 46 68 56 36 42 34 36 20 36 34 46 44 54 48 42 42 48 46 40 30 30 34 32 28 34 32 58 66 62 66 66 64 60 62 56 62 70 58 52 56 62 72 56 56 60 64 34 58 38 22 42 46 34 44 
54 72 70 84 78 76 78 76 80 64 76 88 66 62 70 66 70 66 62 64 64 60 64 78 72 58 64 56 52 42 44 50 42 30 50 42 48 46 50 48 44 46 52 46 50 30 34 20 34 36 40 40 56 48 64 70 66 78 86 62 74 78 62 70 48 48 72 64 48 50 60 60 54 50 48 36 40 48 42 42 
68 84 64 74 78 74 80 88 82 60 84 92 84 76 76 94 70 80 66 72 62 60 68 66 56 72 58 74 64 58 54 52 40 50 62 68 58 52 68 70 54 50 54 46 48 52 56 44 52 48 42 58 58 70 66 76 68 66 80 72 72 66 72 78 58 66 62 66 50 54 74 66 60 68 68 40 60 42 46 44 
56 70 70 72 62 70 82 78 84 78 84 84 90 84 90 76 82 76 70 72 64 66 62 68 66 66 74 72 58 54 66 58 54 50 56 58 52 60 64 70 70 62 58 50 60 48 46 44 44 42 46 62 56 60 72 84 90 74 76 72 70 66 62 70 64 62 68 78 58 62 76 72 58 60 52 48 46 52 52 40 
70 64 74 64 90 84 70 76 84 84 84 82 84 78 88 78 70 86 82 70 76 84 70 68 74 66 58 80 70 64 64 64 46 54 56 60 56 64 70 64 60 74 58 56 62 54 52 52 50 52 54 52 54 64 72 76 70 74 78 64 68 78 68 70 62 72 72 62 66 70 84 72 56 62 66 64 50 54 54 62 
50 82 74 68 98 82 68 80 82 86 80 70 78 96 82 94 76 86 70 82 88 74 60 70 66 74 74 58 66 68 76 66 52 44 50 48 68 66 66 66 66 70 68 60 62 60 50 60 54 58 58 60 70 68 70 86 84 76 78 86 74 86 74 76 86 88 72 68 66 70 66 76 72 64 76 72 42 48 52 52 
62 70 78 66 68 86 72 92 84 86 72 86 84 80 84 84 88 84 72 78 64 68 78 80 72 74 90 78 68 78 64 62 54 60 68 70 62 62 70 60 78 60 64 64 62 50 38 50 44 44 66 58 74 78 74 76 78 84 78 76 78 66 76 78 70 74 64 72 66 70 74 68 60 66 64 66 54 60 54 54 
62 88 78 74 72 96 80 82 80 80 88 90 92 76 76 84 74 84 88 84 80 82 80 78 74 72 62 76 88 66 64 56 46 68 68 66 74 70 58 76 80 66 64 58 48 50 62 70 56 56 58 56 60 64 68 72 74 68 76 72 68 68 68 72 74 66 66 58 78 68 76 80 80 80 64 64 68 58 48 48 
58 84 82 82 92 94 68 86 82 80 76 86 82 78 90 92 86 80 78 84 78 80 78 80 66 82 86 82 72 64 76 74 54 56 70 78 70 72 72 78 82 68 66 60 64 66 60 56 64 62 44 56 64 60 72 70 74 82 60 60 66 68 64 66 70 60 78 64 78 60 76 62 72 80 80 62 68 62 52 58 
64 82 88 68 70 96 92 88 74 78 78 90 84 78 88 80 90 80 86 78 86 88 84 86 68 74 82 80 82 68 70 74 64 66 72 72 82 74 74 70 86 62 72 64 78 74 60 48 66 50 56 62 62 62 72 66 80 82 72 64 70 64 60 62 62 68 72 78 70 74 74 70 74 76 86 62 66 50 56 54 
58 82 96 62 92 84 72 90 78 80 78 88 82 78 76 78 80 90 80 72 72 80 70 80 74 62 76 72 80 70 60 72 72 54 72 78 88 74 92 90 96 82 68 72 80 78 58 66 58 58 60 56 62 62 72 74 70 78 74 60 76 66 60 48 50 64 78 64 72 76 62 82 76 86 72 64 56 62 50 50 
68 92 78 72 70 84 78 90 72 76 84 74 82 72 80 62 84 82 82 80 84 76 84 82 66 70 68 70 72 72 56 72 68 48 60 80 94 86 96 96 104 80 76 98 104 92 68 74 76 66 74 68 68 72 72 84 84 76 76 72 70 72 84 64 70 66 76 80 84 80 74 84 86 86 76 64 66 50 62 68 
66 88 88 76 82 88 82 82 76 78 76 80 70 74 74 78 78 84 76 74 64 82 82 76 64 68 66 70 80 70 82 76 76 72 88 110 132 110 114 120 110 96 94 104 108 102 96 82 90 76 82 78 82 84 78 92 76 82 88 88 76 76 74 74 72 86 92 82 96 102 90 88 86 84 92 74 80 64 60 64 
70 88 76 72 76 86 80 86 74 80 68 76 84 78 74 64 64 82 88 80 72 70 78 76 70 76 72 84 76 70 80 80 82 90 106 118 134 118 112 130 98 96 100 110 126 114 108 86 90 78 84 78 90 90 94 94 92 90 90 84 92 78 88 90 90 84 96 80 96 88 90 88 76 86 86 62 72 62 56 60 
58 84 88 60 86 62 78 84 84 84 68 88 82 78 78 82 78 70 82 82 76 72 64 88 84 84 84 94 86 86 84 100 102 94 122 120 134 134 138 142 114 108 112 100 114 126 122 98 86 100 90 86 106 96 104 100 98 86 100 94 98 94 94 86 96 78 98 100 90 88 90 90 86 86 70 76 68 68 60 62 
52 92 78 74 72 74 80 84 72 86 64 74 76 88 86 74 92 94 92 98 80 78 84 82 80 90 98 98 86 94 88 92 102 120 130 126 154 170 217 237 152 126 126 108 112 126 114 110 110 114 92 98 114 106 106 114 100 96 98 98 98 76 96 98 100 98 110 104 98 104 96 100 90 88 94 94 74 66 66 66 
52 102 82 78 84 76 80 86 88 76 80 66 82 78 84 86 96 94 98 76 76 84 96 100 90 88 96 106 110 92 100 110 116 126 158 187 239 290 297 305 256 199 195 191 176 148 140 116 128 126 118 120 118 130 118 114 110 106 98 86 94 90 100 106 110 98 90 108 102 92 90 98 96 90 84 74 76 78 82 78 
60 84 76 70 96 90 82 74 76 80 82 96 84 82 80 98 70 94 90 80 82 84 90 88 100 96 94 102 102 112 104 122 136 176 290 344 342 332 336 325 367 377 385 410 410 363 229 138 134 140 128 132 132 122 120 118 112 102 102 100 84 106 108 100 104 94 108 102 96 88 104 98 88 106 94 76 92 74 78 94 
72 98 70 68 90 90 62 100 76 68 82 92 84 84 78 94 86 94 92 88 106 88 108 102 98 106 104 110 114 110 120 136 221 352 419 375 354 357 356 342 365 404 416 425 449 460 425 290 172 138 138 142 144 158 134 126 112 112 126 108 116 116 124 112 120 104 118 106 108 120 104 102 94 90 90 82 88 60 90 84 
70 86 84 78 82 82 82 80 74 88 78 86 86 92 76 88 80 84 98 94 104 94 84 98 108 88 104 118 112 118 132 221 396 394 363 301 272 294 340 371 363 400 421 375 394 437 441 412 332 197 158 168 207 180 154 162 164 156 158 158 166 158 156 156 144 128 126 102 108 116 94 92 104 96 106 82 82 80 90 114 
66 88 80 84 70 80 90 78 74 70 90 90 80 80 86 82 90 86 86 86 90 100 96 108 112 102 106 116 118 118 156 315 419 354 313 272 235 176 217 319 342 305 282 264 326 387 398 385 369 313 227 185 231 225 207 191 180 164 162 178 180 180 172 176 174 162 154 130 112 118 122 114 110 112 110 88 94 88 88 100 
62 86 88 82 92 88 78 84 94 74 86 86 90 94 82 82 84 86 94 98 104 106 106 120 110 112 114 114 124 130 187 377 410 354 328 315 309 311 292 280 282 252 229 260 307 352 371 352 350 340 307 237 231 235 219 203 189 150 150 166 166 172 178 185 180 176 164 160 152 144 138 132 154 154 134 132 112 100 90 100 
70 94 78 90 86 100 86 86 92 76 60 90 82 96 82 96 94 96 102 92 106 124 134 158 158 168 152 128 124 138 247 379 369 332 332 321 325 354 338 294 274 247 223 243 297 317 330 330 321 319 326 330 305 252 225 221 195 174 158 172 180 187 182 207 197 185 187 199 209 225 239 270 295 326 315 239 199 154 132 118 
56 96 74 78 82 86 82 82 84 76 78 90 76 82 88 92 92 98 92 106 142 211 247 272 311 369 367 247 185 217 340 367 336 352 342 307 309 323 288 248 264 274 268 268 303 297 299 286 284 299 357 359 357 325 276 260 231 207 207 199 213 219 209 213 213 223 213 219 227 241 258 288 321 365 375 352 332 295 235 160 
54 96 64 56 72 88 80 92 74 74 80 74 78 80 86 88 78 86 98 118 233 359 332 404 474 496 475 462 437 437 414 381 359 357 340 299 268 258 205 182 247 313 303 311 307 276 276 272 264 245 354 367 350 344 328 301 262 225 223 213 185 201 223 221 221 215 225 227 233 250 266 266 282 373 346 336 338 330 313 286 
66 84 66 76 74 82 70 80 76 80 72 78 66 66 90 76 82 84 82 126 270 357 410 493 502 454 481 495 500 470 423 363 390 367 342 305 268 185 130 150 233 317 317 295 307 254 250 268 266 264 342 340 340 344 332 311 256 245 221 223 197 191 215 243 227 223 231 245 250 250 254 248 266 328 326 317 317 313 313 319 
56 82 72 72 84 84 58 82 68 72 76 76 60 78 74 68 84 90 88 126 290 398 468 489 470 361 460 523 529 496 416 317 385 387 361 363 303 182 120 150 264 325 328 313 290 235 252 254 278 274 346 340 338 348 348 309 241 248 241 247 247 243 248 262 254 241 250 250 227 229 215 225 239 288 282 284 282 284 294 346 
50 70 76 68 80 82 62 96 80 86 72 70 72 70 76 70 80 76 92 116 221 379 439 491 470 421 468 475 483 481 390 344 392 346 330 340 294 160 114 187 292 334 325 309 292 245 239 247 297 313 346 328 338 340 338 297 248 262 274 290 299 301 301 290 288 268 260 247 215 174 142 154 170 199 219 237 239 227 245 252 
60 66 88 76 86 78 76 86 76 70 72 84 68 80 84 84 86 74 84 102 158 303 319 390 437 493 466 408 371 394 375 332 365 346 332 321 290 180 110 168 262 315 325 311 290 256 245 258 326 357 369 321 334 328 323 268 250 268 276 288 307 297 297 309 309 305 309 292 282 280 250 241 266 290 311 315 303 309 313 294 
70 74 72 68 82 82 68 86 72 62 78 74 70 86 82 88 82 94 90 96 106 142 184 211 245 295 276 178 144 176 286 295 307 342 344 332 286 231 154 168 219 272 315 309 276 250 254 311 354 371 365 356 330 319 288 241 243 262 270 278 294 292 297 282 305 303 311 294 290 309 295 292 280 309 321 319 336 330 297 268 
58 80 80 72 74 62 82 84 72 62 72 80 86 90 90 84 90 82 92 94 94 94 122 114 116 128 116 124 112 144 266 315 290 326 332 323 311 272 189 174 193 241 288 294 282 268 294 344 350 356 354 344 286 219 231 239 247 258 272 278 284 288 288 280 270 278 297 270 250 286 282 284 270 297 323 325 323 292 233 184 
58 82 82 62 72 82 78 78 70 80 64 74 80 100 90 82 80 78 90 88 82 104 100 96 106 96 112 106 116 130 278 352 311 295 303 303 305 278 215 191 176 211 266 280 292 286 344 354 342 328 274 237 176 150 184 221 233 233 247 262 272 268 256 248 252 248 252 243 213 262 276 272 294 307 313 305 262 209 126 92 
58 72 72 82 74 92 74 82 84 86 86 76 84 88 90 82 90 96 100 88 86 88 80 98 96 92 94 112 118 112 276 406 344 284 245 205 207 241 231 213 215 235 270 307 328 363 383 385 350 274 193 164 174 156 176 193 185 199 221 225 239 221 205 227 215 199 217 211 184 237 239 239 256 256 229 189 132 96 94 110 
58 76 88 80 90 70 84 78 74 90 72 82 94 98 84 82 102 94 92 82 86 86 86 104 98 96 100 108 116 100 178 381 365 278 185 64 110 199 256 288 290 268 272 319 388 410 412 367 297 209 164 150 166 160 168 166 162 160 148 166 176 182 166 182 193 185 174 138 136 142 154 142 136 138 114 110 104 76 66 102 
64 78 72 70 74 94 78 88 84 68 76 80 84 72 76 94 80 74 82 88 82 88 98 98 92 98 104 110 116 104 130 258 359 342 294 229 245 276 276 319 379 379 336 387 458 458 414 330 176 150 142 124 126 122 124 112 106 108 104 114 118 126 120 136 138 122 120 116 108 116 126 120 124 106 92 90 86 70 84 94 
64 78 88 74 80 78 66 76 76 68 68 78 82 90 86 92 90 90 100 90 92 100 94 100 102 94 92 106 106 116 120 142 254 350 348 297 295 284 264 325 418 435 433 456 464 439 363 185 122 110 112 116 114 108 90 88 100 106 110 90 98 102 104 118 114 112 110 124 114 112 120 106 100 106 86 86 92 84 90 84 
52 86 76 70 80 72 94 88 78 80 74 84 78 94 82 96 94 76 102 98 98 90 94 110 108 108 96 104 102 108 120 126 148 199 303 292 270 250 274 356 398 418 454 458 433 354 187 120 118 104 116 110 112 116 108 108 100 108 90 88 86 80 84 96 90 100 120 106 110 90 118 108 94 104 104 88 94 92 90 74 
64 78 88 84 88 86 78 78 74 82 72 68 80 76 94 86 86 88 90 92 84 80 96 96 94 98 104 106 104 92 118 106 132 124 166 221 233 203 256 319 338 363 383 375 303 178 126 116 124 122 112 108 112 112 114 106 104 90 100 92 74 92 92 92 98 92 96 112 92 108 106 104 92 86 92 84 90 104 88 72 
48 86 82 66 72 82 62 82 86 74 62 84 84 84 78 86 88 76 72 88 86 84 94 96 94 102 100 94 98 92 96 106 116 114 134 124 154 193 178 148 138 138 160 162 150 130 122 118 138 130 140 124 100 104 106 110 100 100 88 90 76 88 94 96 98 106 104 104 94 108 108 90 82 86 74 86 86 88 92 90 
66 88 68 74 82 76 78 88 84 72 68 78 76 68 88 76 86 78 90 74 78 72 94 76 90 86 96 98 78 80 90 88 102 86 100 112 108 126 104 122 106 100 116 120 124 124 130 140 138 142 144 142 116 120 96 92 92 80 92 90 76 88 90 92 80 84 102 106 84 96 100 78 66 64 78 72 78 78 86 78 
60 68 74 68 72 90 80 74 78 82 66 70 70 88 76 78 74 86 88 76 76 70 74 82 90 80 86 82 72 72 82 84 74 84 82 92 98 92 92 100 94 84 94 102 108 112 126 128 142 148 162 142 128 102 90 98 84 80 86 84 82 70 80 74 78 96 88 72 90 84 86 66 64 60 68 62 76 80 72 68 
58 90 86 66 74 74 74 74 66 74 72 74 78 76 68 72 62 80 82 80 78 70 66 74 80 82 84 76 76 66 74 80 66 70 78 84 90 94 94 90 72 84 90 92 98 114 128 138 154 156 154 128 116 100 84 88 82 74 74 72 74 64 68 82 64 72 74 80 84 70 68 62 44 62 82 66 78 72 74 86 
52 70 82 78 60 74 78 78 78 68 64 70 82 70 74 78 74 76 86 78 78 72 80 84 68 76 74 82 76 72 78 86 88 82 82 84 84 98 92 88 90 78 88 92 112 124 142 154 160 158 154 126 128 100 102 78 84 76 74 70 78 68 68 66 68 64 84 74 78 64 74 46 58 62 80 64 80 72 88 90 
52 88 86 82 76 86 86 90 82 76 68 60 74 68 78 90 80 92 84 88 76 74 80 92 78 74 86 94 96 82 98 102 94 88 100 104 94 96 100 86 82 90 92 100 114 130 154 160 166 142 144 134 130 102 94 84 74 76 82 60 82 74 76 72 78 74 80 74 80 64 76 62 60 68 74 70 78 86 86 78 
54 86 60 68 76 82 82 86 72 84 74 74 86 78 72 70 88 76 80 90 88 62 90 82 72 78 76 92 100 94 104 120 102 92 110 106 96 110 108 106 90 94 106 92 108 136 158 156 158 146 138 114 114 100 84 76 80 82 80 60 80 72 68 70 72 80 72 84 82 80 72 72 58 80 74 68 84 78 74 60 
52 84 76 70 88 100 80 84 86 88 74 82 80 84 80 88 82 76 102 98 78 78 84 88 84 86 88 84 84 90 104 116 108 94 106 100 100 134 118 112 90 104 114 116 122 136 138 128 132 128 118 110 108 100 86 76 84 82 84 68 68 78 82 78 82 84 82 82 70 76 66 70 68 84 82 68 72 70 72 66 
58 94 80 82 90 66 74 86 82 76 80 88 66 90 72 80 80 82 76 82 72 84 78 96 76 92 90 84 92 90 112 104 98 90 100 96 96 108 88 102 92 100 98 100 114 116 114 116 122 120 110 106 102 90 84 84 78 84 94 82 62 86 84 70 70 82 76 82 68 86 86 76 70 72 78 74 68 82 72 72 
62 82 78 78 78 76 76 82 74 64 72 100 60 86 74 68 86 72 92 70 74 76 78 86 76 80 78 70 86 92 100 98 80 78 86 80 84 88 86 90 90 78 84 94 110 106 98 92 92 96 86 92 86 78 76 78 68 96 68 78 72 70 66 70 64 76 88 80 68 70 68 68 70 82 82 82 76 72 68 72 
56 76 70 64 84 80 70 80 68 72 78 76 80 76 68 86 82 88 90 76 70 70 68 78 70 68 76 86 70 76 92 82 90 66 72 72 70 68 70 82 72 70 82 84 86 78 82 80 80 84 78 82 70 76 78 76 78 68 74 70 64 78 64 58 70 66 80 66 70 48 78 50 60 64 86 72 74 78 72 74 
56 60 72 66 100 86 78 80 92 90 66 80 88 78 84 88 90 86 88 68 66 74 72 80 70 72 64 78 82 58 64 80 68 54 70 58 66 62 66 64 68 62 70 74 70 68 64 64 66 76 66 70 64 66 58 76 66 80 72 64 72 76 66 76 60 82 60 70 64 80 68 68 64 78 68 88 76 64 70 74 
50 78 82 88 84 90 62 80 62 88 86 82 86 66 82 82 66 70 90 84 76 68 92 70 62 64 78 76 68 62 64 74 60 48 70 60 62 62 66 60 70 70 60 70 68 68 64 60 58 62 58 70 62 66 52 76 70 68 54 68 60 60 46 60 62 68 64 64 46 58 68 52 64 70 70 70 88 74 78 60 
62 82 80 74 82 76 68 78 72 78 78 76 78 74 82 86 86 72 86 80 74 62 80 72 76 66 68 68 64 56 56 60 52 40 54 54 56 58 56 56 62 52 58 58 60 60 48 56 44 34 44 44 54 56 62 76 72 56 72 72 66 60 68 52 50 52 62 60 50 58 66 58 58 66 68 76 76 70 68 80 
52 64 66 84 74 68 54 82 72 72 64 84 80 72 76 64 74 74 74 68 64 74 66 76 66 60 60 60 60 50 40 46 48 48 34 46 42 48 54 66 68 62 48 50 44 36 44 46 42 42 38 42 38 50 70 46 62 64 66 66 60 52 60 48 60 50 58 44 56 48 64 50 44 76 72 68 82 80 82 80 
58 70 68 58 68 60 60 60 66 74 60 72 68 72 76 68 66 76 74 58 58 68 70 60 58 46 54 52 58 44 50 48 44 26 46 40 52 46 58 74 56 48 50 44 44 44 30 38 32 26 36 38 46 54 56 60 64 52 54 56 48 54 42 52 54 50 56 54 52 54 66 48 44 82 84 76 78 66 82 72 
46 62 74 54 58 60 54 70 48 74 68 60 66 70 80 66 64 72 74 68 58 70 64 66 44 48 48 58 48 44 50 38 32 18 44 24 30 32 48 44 46 42 36 38 44 44 32 24 30 28 26 40 42 42 50 52 52 58 54 46 32 54 46 32 46 34 36 52 44 38 50 40 30 60 82 84 70 66 68 66 
46 54 62 40 52 68 54 46 50 62 78 56 56 60 72 62 74 66 64 48 42 64 56 58 50 48 58 56 44 36 32 28 14 16 12 30 22 28 32 48 46 30 24 32 34 36 22 26 24 20 16 38 24 28 52 46 56 50 36 46 24 32 32 40 38 30 38 46 38 26 32 16 28 74 82 68 74 76 58 76 
40 56 48 52 56 60 34 48 48 40 42 52 54 58 58 50 66 58 54 50 40 48 54 70 54 46 40 54 38 22 34 12 18 22 22 18 26 28 34 26 26 14 28 24 26 36 36 20 8 24 8 30 30 38 48 36 44 46 44 24 42 38 20 20 24 20 36 30 26 20 14 0 26 56 72 82 78 76 68 64 
50 52 56 58 38 66 52 66 56 44 38 42 66 54 52 56 68 62 60 60 32 40 34 58 50 36 30 48 34 30 26 14 16 32 38 22 28 38 38 38 36 24 42 36 48 48 46 18 24 38 24 24 22 36 48 50 50 50 60 52 52 60 50 30 34 22 34 22 12 28 26 10 20 58 72 68 74 74 78 56 


