P2
80 60
795
122 126 130 107 118 124 120 134 130 118 103 103 120 111 109 107 128 118 107 118 126 122 118 107 113 113 115 111 109 91 99 99 126 103 101 124 111 138 120 124 134 152 219 312 432 523 582 604 604 567 553 539 507 527 547 567 604 582 529 507 418 402 454 326 132 75 64 58 62 83 73 71 87 111 168 250 264 268 264 290 
140 132 124 115 109 120 128 120 111 120 109 109 107 107 105 120 132 118 101 115 120 113 107 103 111 105 107 111 99 91 85 103 103 99 115 180 221 229 185 197 221 356 496 578 606 621 619 604 627 623 578 576 531 478 442 458 555 567 555 507 398 290 354 308 201 193 152 111 130 101 87 87 93 109 138 180 162 211 223 250 
136 126 140 130 120 118 120 113 105 99 105 115 91 101 105 113 111 107 115 115 120 118 128 113 115 107 95 107 101 101 93 132 113 142 241 324 380 408 390 472 541 598 635 660 646 617 621 600 602 567 448 322 243 227 227 270 354 404 450 480 446 400 388 332 374 366 358 320 300 274 231 199 158 120 158 146 144 176 150 166 
136 113 142 134 136 124 138 132 124 111 103 107 101 101 105 118 111 115 115 107 118 101 111 105 113 103 111 109 113 124 144 178 256 356 398 394 438 559 641 656 631 664 668 672 633 608 527 460 342 274 239 199 189 252 316 322 372 368 380 402 402 402 408 376 408 406 434 400 414 400 372 370 348 302 280 209 168 162 168 187 
138 132 130 132 124 130 134 126 113 109 95 105 101 103 93 120 115 113 103 107 111 103 107 111 103 105 103 113 122 132 241 384 460 472 486 460 476 559 654 674 645 654 633 567 464 332 276 235 282 237 304 368 364 360 342 340 380 382 378 384 382 414 442 396 434 442 452 434 424 434 408 420 422 376 352 235 209 207 191 193 
126 118 144 122 130 118 118 118 115 105 107 99 107 124 99 109 113 124 107 109 109 111 105 103 111 118 103 122 148 280 454 519 504 521 515 494 505 549 645 650 610 494 338 268 274 292 304 336 394 402 392 376 350 360 338 312 340 320 384 394 416 432 426 422 442 456 458 458 460 434 432 450 442 406 386 235 183 193 195 197 
130 115 134 115 115 136 113 115 128 124 113 109 105 115 115 120 109 130 120 118 118 113 118 103 115 122 118 134 262 422 470 511 529 513 527 527 547 553 612 592 511 438 412 374 410 448 448 442 412 388 392 366 338 310 318 310 348 368 396 434 446 478 468 456 444 446 446 454 464 456 436 458 460 462 418 258 203 213 189 211 
118 115 130 132 122 124 118 126 124 115 115 124 122 107 107 120 118 113 124 118 115 111 120 109 113 111 105 172 448 505 496 515 525 535 555 563 539 549 513 476 442 458 414 430 460 456 454 428 412 392 386 352 318 308 296 266 324 358 398 432 424 466 464 448 436 456 476 466 458 464 452 460 460 482 444 288 203 211 189 199 
124 124 138 138 126 142 132 124 140 118 118 111 111 124 115 120 120 132 115 113 115 120 126 115 128 126 118 221 529 545 574 565 559 561 580 568 529 482 464 462 442 442 436 446 474 470 450 420 400 384 362 334 312 302 288 274 306 356 392 406 406 462 470 452 464 494 490 484 466 460 464 482 456 484 452 274 197 199 183 209 
126 122 130 124 126 132 124 126 118 130 115 126 120 111 99 109 122 124 124 124 126 124 126 115 120 122 134 217 545 580 610 602 578 592 600 576 507 472 458 458 458 458 458 460 460 470 452 406 380 374 374 320 300 298 284 266 286 326 372 384 382 460 480 466 513 504 513 494 468 468 454 464 446 440 414 268 187 201 170 197 
118 128 130 128 120 132 128 122 115 118 99 115 103 109 103 115 124 120 128 132 118 126 130 120 124 124 140 252 553 574 614 612 604 615 606 555 486 456 460 468 458 444 480 460 476 458 428 390 372 366 360 316 290 290 286 268 276 318 336 346 358 416 458 444 480 498 500 486 470 440 418 416 378 340 302 223 176 185 166 193 
126 128 134 126 113 118 122 107 122 120 113 115 107 122 113 120 124 140 164 191 138 156 156 136 140 168 280 338 533 582 627 621 621 623 615 517 484 470 464 466 482 490 490 494 474 470 414 396 370 360 358 322 294 294 286 286 278 314 300 316 320 382 452 450 466 448 394 338 298 248 225 229 158 150 148 180 187 191 176 183 
113 118 132 136 126 120 124 124 115 115 107 111 120 122 111 130 191 288 324 368 306 326 308 268 211 227 474 563 529 598 612 621 610 608 567 502 470 456 472 474 472 498 498 490 466 460 418 388 386 370 362 334 304 296 294 290 280 302 308 336 330 376 446 456 424 334 286 229 180 154 113 128 113 126 128 156 176 191 172 180 
132 122 115 130 97 130 115 124 113 118 111 113 109 118 122 197 378 545 641 677 664 676 695 604 507 422 594 753 662 568 553 572 557 529 494 472 458 462 460 470 486 488 496 494 458 482 424 410 394 370 366 344 302 316 318 284 300 310 322 346 344 370 420 436 420 366 292 282 252 227 168 150 156 142 142 160 187 189 185 211 
134 115 120 126 122 126 111 122 107 118 107 115 101 130 130 298 527 736 716 755 759 716 699 707 635 635 745 778 726 586 521 492 432 450 464 458 444 460 464 472 494 500 505 496 486 468 420 412 380 384 366 342 314 324 316 308 290 322 362 366 378 354 406 412 438 470 448 426 420 410 400 394 326 352 338 241 191 193 183 213 
122 118 124 109 109 126 113 105 109 107 113 105 113 115 172 318 586 780 730 795 769 722 666 701 646 677 743 794 792 623 496 458 434 476 472 464 456 460 462 454 482 500 517 505 507 490 444 408 398 384 384 354 330 322 318 290 304 326 362 392 378 370 412 410 444 458 438 448 438 470 466 482 484 480 440 320 199 203 191 205 
115 118 132 120 115 118 111 113 122 111 115 97 111 126 201 326 576 788 761 784 763 716 679 705 662 681 741 784 763 623 527 492 500 517 509 494 470 448 462 476 488 502 509 504 500 492 474 422 402 390 378 362 344 332 308 306 302 314 372 382 382 374 410 384 410 438 460 446 478 490 490 490 476 486 494 352 215 197 183 189 
122 109 120 120 111 115 122 105 120 120 101 97 111 136 178 350 448 765 751 776 761 739 679 726 677 691 741 780 745 574 543 563 574 592 568 543 480 458 462 468 476 484 486 470 478 490 482 442 414 394 376 368 338 330 324 312 304 328 380 382 396 384 398 360 380 412 458 460 480 474 476 482 476 509 504 370 207 195 180 193 
124 107 126 126 113 113 128 107 124 122 118 109 113 150 229 352 420 722 734 792 759 763 722 730 664 590 689 734 689 549 592 614 606 606 608 574 490 458 450 452 440 440 446 434 442 466 470 458 414 402 374 372 348 348 338 322 326 326 382 388 388 380 378 338 364 412 450 440 442 446 480 496 486 496 500 374 233 203 191 205 
130 118 124 107 118 128 130 124 128 101 113 109 115 126 154 280 370 565 714 734 685 683 687 570 390 284 294 486 466 515 598 610 602 615 606 592 533 460 452 450 450 430 432 424 434 446 470 464 426 412 396 380 368 372 348 346 344 316 390 388 392 388 360 324 350 386 432 444 454 464 476 470 454 442 436 360 225 227 195 221 
120 122 118 109 103 118 113 105 122 101 122 113 126 113 122 164 260 346 478 541 505 547 464 217 130 118 176 312 314 446 563 576 590 594 574 592 563 482 466 452 434 434 450 446 434 448 470 466 452 438 422 414 414 386 382 376 364 348 374 422 422 382 356 332 348 366 422 454 462 436 422 430 406 396 368 300 233 225 215 221 
115 109 130 109 128 124 115 111 124 124 101 105 118 124 115 130 152 195 215 213 152 201 158 124 132 113 144 185 209 490 515 525 521 511 523 527 533 492 460 450 446 454 446 456 454 448 486 492 492 464 450 432 404 402 400 396 396 364 376 414 420 384 368 334 360 374 422 438 416 386 374 374 358 328 304 254 195 213 201 223 
115 115 130 122 113 130 128 113 113 118 111 107 115 113 111 128 134 107 115 140 105 122 118 132 113 115 111 118 166 410 521 494 498 482 472 474 488 474 456 494 515 533 539 523 492 472 462 470 458 418 406 356 326 312 386 402 382 362 358 414 400 414 412 394 414 418 406 352 300 278 250 237 193 178 164 132 195 199 178 176 
124 107 136 122 118 107 107 115 113 115 130 101 113 113 118 115 120 115 122 132 124 124 120 115 111 105 111 115 140 302 533 502 492 490 476 492 502 470 470 511 570 646 656 633 619 614 584 519 472 420 420 408 396 324 270 272 308 296 352 458 535 565 543 488 476 380 314 231 99 91 73 69 62 73 105 109 205 229 256 274 
113 115 130 132 118 118 126 113 107 109 115 113 109 105 111 111 115 109 113 115 120 118 118 126 122 111 107 115 130 199 492 504 496 502 509 500 521 496 490 496 559 652 664 639 658 662 670 621 615 629 633 625 635 629 596 590 574 541 547 582 584 572 570 513 482 426 340 115 62 36 19 29 29 40 62 103 262 284 270 284 
118 93 128 111 111 118 111 91 103 103 109 97 91 107 120 97 99 107 103 118 105 111 105 118 109 109 113 109 107 124 252 460 515 539 549 529 488 466 420 394 527 592 578 592 614 639 664 635 617 614 623 615 600 588 590 588 574 553 543 545 543 567 557 525 533 434 193 56 58 29 11 40 21 54 54 115 278 288 256 260 
118 107 128 101 103 122 115 97 99 99 109 97 109 103 107 113 109 109 101 124 103 107 109 105 105 93 105 95 105 103 130 205 314 414 420 408 368 366 338 384 496 446 428 434 454 529 565 545 568 555 572 557 545 517 470 422 392 360 312 256 278 352 408 364 276 168 89 56 40 25 15 19 13 33 46 87 189 231 205 233 
111 118 130 103 113 109 109 103 115 95 113 107 97 105 97 111 124 115 105 115 109 109 95 115 105 105 101 103 97 87 95 113 122 107 150 185 211 284 306 344 227 124 128 107 122 164 201 258 284 286 290 268 203 193 144 156 124 97 95 97 77 75 91 99 97 69 69 29 27 27 27 25 17 31 50 60 93 109 111 164 
126 109 124 109 107 128 113 101 105 87 109 101 111 103 107 109 111 111 103 120 101 97 99 103 101 93 103 105 101 81 97 109 101 99 89 93 107 113 142 170 91 75 81 83 83 87 81 83 89 95 120 118 95 101 99 109 105 83 77 75 42 60 50 40 52 50 54 31 33 27 19 31 29 29 40 21 56 91 83 87 
120 120 107 109 109 115 105 109 111 83 107 107 107 101 103 118 109 105 99 107 101 111 101 99 99 101 107 87 95 83 85 91 99 97 95 93 75 89 91 103 93 89 79 85 91 71 81 62 77 83 89 103 87 97 103 89 95 75 71 62 48 56 60 44 60 48 50 50 25 19 23 27 31 27 31 33 77 73 66 83 
105 107 115 97 118 124 109 101 111 99 113 111 89 87 95 105 91 95 91 105 95 95 109 99 99 91 83 93 93 81 95 97 91 91 83 77 73 87 87 87 93 83 85 77 79 69 71 66 81 75 97 105 97 95 103 81 89 71 48 58 42 44 46 44 56 54 44 44 29 15 13 31 31 27 36 42 56 87 66 75 
87 97 118 120 103 107 115 113 99 113 103 105 99 87 95 95 91 89 105 99 97 95 107 105 89 83 101 87 91 79 89 99 93 81 87 77 69 91 77 73 73 66 66 71 66 69 71 71 69 66 85 79 83 95 91 77 89 73 56 56 44 40 50 40 48 44 46 44 11 6 15 27 6 29 27 42 52 66 48 89 
85 115 124 118 113 105 105 109 101 97 103 101 101 99 107 109 93 93 103 93 105 97 101 97 103 91 95 93 105 89 83 87 83 85 83 69 71 69 77 81 77 75 83 64 71 69 71 69 75 66 75 79 93 89 111 85 95 54 52 54 38 46 40 33 46 40 33 23 23 0 4 15 25 19 23 23 56 64 50 75 
97 124 109 113 109 111 111 107 118 101 113 115 111 97 97 97 103 101 95 93 105 105 113 95 107 85 97 87 97 75 87 81 89 79 91 87 79 85 71 81 77 66 73 73 75 77 69 64 75 66 81 87 95 97 103 91 85 60 69 50 48 52 46 33 44 50 36 40 17 11 17 11 9 25 27 29 56 75 62 79 
115 109 126 113 109 118 111 107 113 111 124 122 101 99 103 103 97 101 103 93 103 93 99 101 85 95 97 99 95 79 81 83 91 75 85 85 79 77 87 83 77 81 64 64 73 87 73 71 64 79 97 87 107 103 101 87 91 73 71 66 44 29 66 62 81 62 56 54 50 33 27 29 23 27 36 44 71 89 54 69 
120 109 138 109 107 115 109 111 109 120 118 122 107 109 103 105 105 95 109 101 101 93 97 97 101 93 101 89 83 91 83 83 85 81 87 85 81 77 99 79 73 69 64 56 66 77 64 71 77 79 89 91 140 152 148 150 138 134 142 124 75 79 93 99 103 95 66 71 58 52 48 38 31 29 38 56 81 89 77 91 
109 118 120 130 103 115 118 103 120 103 124 122 99 97 111 111 101 95 95 105 97 99 111 101 97 89 101 103 91 73 85 101 89 69 91 85 73 89 77 87 73 75 75 62 73 64 64 75 73 75 83 97 128 144 152 174 176 176 174 174 164 144 144 166 156 122 99 118 95 81 54 66 40 31 36 60 77 105 62 75 
126 118 120 128 101 113 105 101 109 115 118 107 105 95 97 105 107 91 95 99 107 99 89 91 93 87 91 87 93 83 75 87 69 83 81 85 87 77 71 83 71 81 64 66 66 66 60 58 75 66 79 85 111 172 164 187 189 199 201 199 187 187 176 152 115 113 109 148 134 103 60 56 58 62 69 73 69 83 62 99 
126 122 138 118 105 113 120 99 118 122 101 115 109 101 91 95 107 97 97 101 101 103 95 93 101 93 101 85 89 83 81 89 85 79 79 85 69 83 73 73 73 73 58 62 62 81 58 69 81 73 87 99 115 166 178 203 209 225 227 225 207 207 199 148 115 113 103 166 148 136 83 69 73 77 73 89 87 91 75 93 
128 111 140 126 105 111 122 113 109 105 118 118 111 111 91 107 105 101 99 101 97 95 103 99 97 97 91 87 83 91 81 79 91 75 79 73 87 81 75 83 77 77 69 56 66 79 60 73 73 71 91 99 130 176 187 211 225 227 219 231 225 231 207 146 120 105 118 156 158 160 126 87 71 87 71 87 93 101 73 89 
120 124 142 128 120 120 111 99 118 109 111 115 115 103 111 111 113 97 107 118 103 93 93 97 109 95 99 101 99 87 77 91 93 81 77 73 85 85 77 81 73 75 60 64 73 75 79 75 77 77 93 115 140 178 180 217 235 235 229 241 233 221 207 136 134 128 115 180 160 166 138 97 81 89 85 101 103 109 69 83 
134 126 144 113 113 124 101 115 109 115 113 111 122 101 113 109 111 103 103 115 101 99 101 97 91 97 95 93 99 89 87 89 77 87 91 87 89 71 81 83 79 69 71 73 66 85 64 77 77 83 93 111 158 209 223 233 245 229 233 235 211 178 162 122 111 103 101 103 115 103 93 85 73 73 75 91 103 128 85 101 
130 113 118 111 113 111 101 107 107 113 111 109 107 120 109 109 105 105 95 101 93 97 99 99 95 103 95 93 89 87 85 93 89 91 85 85 83 85 77 62 69 81 64 71 73 69 52 71 73 81 91 103 183 233 231 239 248 233 235 229 213 203 154 130 126 111 101 99 95 87 73 83 64 79 79 126 111 124 75 91 
124 120 120 120 107 115 111 101 105 91 99 118 126 101 105 120 101 105 103 105 105 99 99 93 103 87 87 99 89 79 81 89 87 85 85 75 83 83 81 73 79 75 60 66 58 75 60 71 69 93 91 107 174 217 243 250 252 227 231 217 201 191 148 132 118 118 101 105 87 97 83 83 81 93 83 99 111 107 95 107 
118 124 132 124 115 126 101 111 115 107 107 124 115 120 101 120 115 109 99 107 105 103 101 101 101 95 93 87 105 93 87 101 81 89 87 85 83 87 77 81 75 77 69 62 71 77 75 64 77 89 107 118 180 215 243 243 254 227 215 233 207 189 158 142 142 130 130 132 113 111 89 99 91 87 103 113 115 97 85 97 
118 122 115 130 113 126 103 111 107 103 103 120 105 105 103 109 113 109 101 97 89 107 103 93 101 91 97 87 95 81 79 91 89 87 89 89 81 87 87 66 69 73 58 69 56 66 62 69 73 83 93 111 176 219 227 245 227 229 233 221 223 195 185 176 168 168 172 160 156 144 154 160 118 118 113 118 115 107 91 91 
132 107 118 115 101 118 111 111 107 101 122 113 124 107 109 109 113 113 103 107 103 103 97 103 103 103 93 93 95 85 81 85 85 77 77 75 85 85 87 73 79 79 73 79 71 69 60 71 73 85 93 111 160 211 207 209 231 219 215 223 205 211 209 195 209 211 215 197 201 213 221 233 185 160 142 124 126 107 83 111 
118 111 130 115 120 126 103 122 111 99 113 111 120 107 101 107 105 103 107 113 103 99 113 99 105 93 91 91 87 95 87 87 93 91 95 75 79 89 83 71 73 69 73 62 66 69 64 71 73 87 103 105 130 166 187 193 211 203 227 205 215 215 201 193 207 201 207 203 209 213 229 252 227 217 166 126 107 93 73 95 
105 103 128 111 113 105 107 111 95 118 103 124 115 118 103 109 118 113 103 111 101 101 103 103 91 85 89 87 93 91 91 85 85 85 93 75 75 81 81 66 73 79 69 71 60 81 73 62 60 71 93 103 95 115 126 134 146 144 166 166 164 183 187 174 187 189 172 193 189 211 237 254 270 252 215 140 89 81 73 95 
118 107 126 115 113 115 115 115 115 107 101 120 113 134 93 109 101 113 103 105 89 105 85 97 89 89 89 95 99 85 83 87 89 77 95 75 75 85 66 69 83 73 64 73 64 75 62 75 69 73 91 93 83 101 93 95 101 99 97 91 87 95 109 134 150 150 134 124 134 183 239 268 266 276 254 126 85 85 73 87 
120 107 126 124 122 120 122 109 118 107 115 120 122 120 115 111 109 97 101 105 111 105 111 101 95 97 87 99 93 85 85 97 95 89 99 89 83 87 75 71 81 73 81 77 66 83 79 64 58 66 91 91 93 87 103 103 97 85 91 77 81 77 73 107 120 113 89 85 93 156 229 245 284 262 199 115 75 79 60 85 
120 105 134 120 124 113 115 101 111 113 111 118 113 124 115 118 111 101 105 105 101 97 105 107 97 97 93 95 91 81 75 93 87 79 79 89 77 87 81 71 73 81 77 77 71 66 66 77 64 73 89 91 81 93 85 101 103 101 89 83 77 77 71 101 107 118 62 66 89 156 229 262 284 266 164 101 75 81 58 73 
122 113 124 134 122 122 115 107 113 107 109 111 115 130 107 118 111 113 89 111 109 101 101 93 103 93 93 95 89 85 83 95 87 83 81 91 69 77 89 89 75 75 77 75 73 77 66 71 71 69 91 93 87 97 91 93 85 71 71 73 60 60 71 85 103 99 71 77 73 154 221 256 278 262 158 97 75 79 66 60 
124 113 132 124 130 115 120 109 97 99 111 124 136 138 113 105 103 97 109 120 111 115 103 103 99 99 89 93 103 83 87 91 101 93 91 95 73 83 85 66 77 69 75 73 75 85 79 69 73 75 81 83 97 89 91 93 93 81 85 71 50 77 66 75 93 93 62 60 75 158 207 229 278 243 134 89 81 85 66 79 
126 122 132 115 113 118 113 99 122 99 107 120 124 113 122 118 97 111 111 109 101 122 109 95 105 101 91 87 99 99 91 89 87 89 87 89 77 89 85 79 75 79 64 62 77 69 71 71 62 79 83 73 83 93 97 91 99 79 81 66 60 56 48 64 93 87 60 54 73 146 205 197 227 207 142 89 75 93 58 81 
115 124 115 107 120 101 115 118 113 99 115 130 122 124 113 115 111 105 109 103 107 103 101 109 105 89 101 107 101 87 91 95 87 87 85 89 89 89 83 79 73 91 66 64 71 83 79 62 71 77 83 91 91 93 91 101 93 77 64 62 52 46 52 83 83 85 54 62 73 136 197 170 170 164 126 87 69 91 73 87 
128 126 126 115 113 101 115 111 101 120 111 113 128 120 107 122 103 115 107 107 101 101 103 95 101 97 81 97 87 89 73 83 89 77 79 73 85 83 85 85 79 75 79 66 75 79 64 64 58 73 89 79 79 93 93 95 99 77 73 69 46 48 73 71 79 71 52 71 64 128 189 180 168 144 111 81 81 79 73 83 
111 122 132 113 105 122 115 99 99 101 105 101 109 101 120 130 107 103 95 101 97 99 99 103 95 95 97 99 91 79 81 97 87 81 83 75 75 83 85 75 64 66 73 66 73 62 66 75 69 77 89 87 87 87 87 103 89 75 54 64 42 46 52 69 73 62 40 62 81 124 187 150 128 120 103 73 77 85 60 85 
120 126 120 122 130 132 118 103 115 109 109 107 122 115 130 115 97 105 89 107 99 87 89 103 99 95 95 89 91 81 89 79 85 87 83 71 73 69 75 66 62 79 66 66 69 52 66 62 56 66 79 93 71 81 73 81 81 71 64 66 46 62 52 60 85 71 48 48 73 118 183 168 136 128 95 87 69 66 58 91 
120 122 144 115 109 113 111 118 130 93 111 113 132 111 111 118 118 101 101 105 101 103 109 118 95 93 101 97 101 97 99 109 101 85 99 87 87 97 91 85 89 87 79 75 83 87 83 87 75 95 99 93 105 103 124 113 109 97 85 77 75 87 83 93 99 101 83 83 103 128 213 193 166 130 115 83 99 89 69 79 


